<svg xmlns="http://www.w3.org/2000/svg" viewBox="0 0 235.5 235.5"><defs><style>.cls-1{fill:none;stroke:#73c3c4;stroke-miterlimit:10;stroke-width:3px;stroke-dasharray:5}</style></defs><title>i-circle4</title><g id="Layer_2" data-name="Layer 2"><g id="SVG"><circle class="cls-1" cx="117.75" cy="117.75" r="116.25"/><path class="cls-1" d="M33.75 102.5h168"/><path d="M59.26 75a36.33 36.33 0 0 1-3.68 2.42 10.19 10.19 0 0 0 4.46 4 10 10 0 0 0-1.66 2.06c-3.56-1.9-5.54-5.58-6.68-10.24a12.86 12.86 0 0 1-1.7 1.19c3.78 3.28 3.62 8.26 1.64 9.7a3.29 3.29 0 0 1-2.44.87 16.58 16.58 0 0 1-1.7 0 5 5 0 0 0-.68-2.28c.76.06 1.4.1 1.92.1a1.42 1.42 0 0 0 1.2-.42 2.61 2.61 0 0 0 .66-2.24 30.84 30.84 0 0 1-7.64 4 10.25 10.25 0 0 0-1.24-2 23 23 0 0 0 8.34-4 7.8 7.8 0 0 0-.38-.7 29.47 29.47 0 0 1-6.06 3 8.55 8.55 0 0 0-1.2-1.8 21.54 21.54 0 0 0 6.18-2.6c-.16-.16-.32-.32-.5-.48a29.83 29.83 0 0 1-4.74 1.7 14.1 14.1 0 0 0-1.22-1.86 24.18 24.18 0 0 0 6.12-2h-2.92v-2h10.74v2H53.8a17.68 17.68 0 0 0 .82 2.32 24.06 24.06 0 0 0 2.78-2.18zm-14.62-2.71H42.3v-4.47h7.2v-1.56h2.44v1.56h7.32v4.47h-2.44V70H44.64zm26.92 1.54v.94c-.22 6.14-.44 8.48-1 9.24a1.85 1.85 0 0 1-1.38.82 9.21 9.21 0 0 1-2.06.08 5.55 5.55 0 0 0-.6-2.16 11.83 11.83 0 0 0 1.5.08.65.65 0 0 0 .6-.3c.32-.42.54-2.08.68-6.54h-1.76c-.28 3.52-1 6.7-2.64 9a6.24 6.24 0 0 0-1.66-1.66c2-2.68 2.2-7.06 2.26-11.62h-1.94v-2.25h3.3v-3.2h2.3v3.2h2.6v1.23a14.36 14.36 0 0 0 2.1-4.49l2.16.48a16.86 16.86 0 0 1-.68 1.92h6.46v2.14h-7.5a14.84 14.84 0 0 1-1.64 2.37 13.21 13.21 0 0 0-1.86-1.28l.16-.16h-3.22l-.06 2.16zM78.5 79a7.7 7.7 0 0 0 3.92 4.06 8.27 8.27 0 0 0-1.5 1.82A8.63 8.63 0 0 1 77.36 81a9.36 9.36 0 0 1-4.28 3.88 7.23 7.23 0 0 0-1.52-1.62c2.78-1.18 3.84-2.78 4.24-4.26h-3.58v-2.09H76v-2.06h-.9a11.9 11.9 0 0 1-1.16 1.82 12.24 12.24 0 0 0-1.84-1.22 10.76 10.76 0 0 0 2.22-4.53l2.14.48c-.12.47-.28.93-.44 1.37h5.56v2.08H78.3v2.06h3.58V79zm15.66 2.67c.76-.1 1.32-.2 1.84-.32a5.36 5.36 0 0 0 4.5-5.3c0-2.74-1.48-4.78-4.14-5.25a42.79 42.79 0 0 1-1.18 5.39c-1.18 4-2.9 6.44-5.06 6.44s-4-2.42-4-5.76c0-4.56 4-8.49 9.12-8.49 4.9 0 8 3.43 8 7.75 0 4.16-2.56 7.12-7.56 7.88zm-1.54-6a31.65 31.65 0 0 0 1.06-4.81 6.22 6.22 0 0 0-5 5.75c0 2 .8 3 1.54 3s1.6-1.26 2.4-3.94zm29.7.24a12.14 12.14 0 0 1-2.48 4.62 36.76 36.76 0 0 1 5 2.42l-1.9 1.94a34.35 34.35 0 0 0-5.08-2.64 19.53 19.53 0 0 1-8.2 2.68 9.71 9.71 0 0 0-1.36-2.16 21 21 0 0 0 6.88-1.62c-.88-.32-1.74-.64-2.58-.9l-.36.64-2.5-.68c.72-1.16 1.56-2.68 2.42-4.3h-4.3v-2.24h5.44c.52-1 1-2 1.4-3l2.5.52c-.36.77-.76 1.6-1.18 2.44h9.62v2.24zm-11.62-3.18h-2.42V68h7.14v-1.76h2.52V68h7.34v4.71h-2.54v-2.49h-12zm4.2 3.18c-.42.84-.86 1.66-1.26 2.44 1.2.34 2.5.78 3.82 1.26a7.93 7.93 0 0 0 2.1-3.7zm25.02 6.4h7.4v2.14h-17v-2.14h7.14v-2.38h-5.56v-2.08h5.54v-2.3h-4.52V74a25.59 25.59 0 0 1-2.22 1.38 8.79 8.79 0 0 0-1.5-1.92 21.84 21.84 0 0 0 8.12-7.25h2.46a21.16 21.16 0 0 0 8.56 7 11.59 11.59 0 0 0-1.58 2.14A25.35 25.35 0 0 1 144.6 74v1.56h-4.68v2.3h5.6v2.08h-5.6zm3.9-8.86a24.13 24.13 0 0 1-5.16-5 23.07 23.07 0 0 1-5 5zm22.5 2.46a12.14 12.14 0 0 1-2.48 4.62 36.76 36.76 0 0 1 5 2.42l-1.9 1.94a34.35 34.35 0 0 0-5.08-2.64 19.53 19.53 0 0 1-8.2 2.68 9.71 9.71 0 0 0-1.36-2.16 21 21 0 0 0 6.88-1.62c-.88-.32-1.74-.64-2.58-.9l-.36.64-2.5-.68c.72-1.16 1.56-2.68 2.42-4.3h-4.3v-2.24h5.44c.52-1 1-2 1.4-3l2.5.52c-.36.77-.76 1.6-1.18 2.44h9.62v2.24zm-11.62-3.18h-2.42V68h7.14v-1.76h2.52V68h7.34v4.71h-2.54v-2.49h-12zm4.2 3.18c-.42.84-.86 1.66-1.26 2.44 1.2.34 2.5.78 3.82 1.26a7.93 7.93 0 0 0 2.1-3.7zm18.58-2.06c-.3 2.74-.82 5.8-2.14 7.76l-2.22-1.28a15.43 15.43 0 0 0 2-7zM181.2 72v9.5c0 1 .14 1.1 1.08 1.1H185c1 0 1.14-.62 1.28-3.76a7.26 7.26 0 0 0 2.22 1c-.26 3.72-.9 4.9-3.3 4.9H182c-2.54 0-3.24-.78-3.24-3.28V72zm-.88-5.65a29.56 29.56 0 0 1 6.7 3.48l-1.56 2.11a26.64 26.64 0 0 0-6.66-3.73zm8.46 6.27a21.38 21.38 0 0 1 3.62 7.2L190 81a21.61 21.61 0 0 0-3.38-7.3zM62.94 126.28c-.91.24-1.89.47-2.8.62.54 1.18 1.35 2.91 2 4.15l-.69.72c-.64-.13-2.11-.34-3.07-.43l.12-1 2.1.21c-.42-.91-1.17-2.46-1.62-3.49a32.37 32.37 0 0 1-6.32 0v-1.2a25.53 25.53 0 0 0 5.89.09L58 124.9a12.8 12.8 0 0 0-.63-1.24l1.33-.26c.36 1 .63 1.65 1 2.45a22.6 22.6 0 0 0 3-.75zm-8.38 4.46a5.9 5.9 0 0 0-.42 1.87c0 1.31.88 2.09 3.1 2.09a15.38 15.38 0 0 0 3.9-.41v1.25a19.81 19.81 0 0 1-3.9.34c-2.76 0-4.29-1.11-4.29-3a8.63 8.63 0 0 1 .4-2.28zm22.95 4.39a11.08 11.08 0 0 0-3.59-2.23v.93c0 1-.69 2.08-2.62 2.08-2.13 0-3.32-.76-3.32-2.2s1.31-2.27 3.45-2.27a8.45 8.45 0 0 1 1.25.09c0-.66-.06-1.36-.08-2h-.82c-1 0-2.67-.09-3.74-.21v-1.12a26.51 26.51 0 0 0 3.74.29h.79v-2.13h-.73a34.28 34.28 0 0 1-3.5-.23V125a23 23 0 0 0 3.48.29h.77v-1a8.18 8.18 0 0 0-.05-.88h1.28a7.43 7.43 0 0 0-.08 1v.82a31 31 0 0 0 3.81-.36V126c-1.17.12-2.44.24-3.84.31v2.13a38.82 38.82 0 0 0 4.13-.39v1.13c-1.39.18-2.71.28-4.12.34 0 .77.07 1.55.1 2.25a12.23 12.23 0 0 1 4.32 2.31zm-4.76-2.56a7.48 7.48 0 0 0-1.44-.14c-1.41 0-2.17.54-2.17 1.22s.58 1.2 2 1.2c.86 0 1.58-.26 1.58-1.28.05-.25.03-.57.03-1zm19.1-9.57a20 20 0 0 1 1.21 2.07l-.43.2.21 1.14a26.14 26.14 0 0 1-2.79.61c.52 1.17 1.32 2.9 2 4.16l-.69.72c-.64-.14-2.11-.35-3.09-.44l.14-1 2.1.22c-.44-.93-1.17-2.46-1.62-3.51a30.8 30.8 0 0 1-6.32 0v-1.2a25.45 25.45 0 0 0 5.88.09l-.5-1.1a6.47 6.47 0 0 0-.63-1.24l1.35-.27c.35 1 .63 1.66 1 2.44a25 25 0 0 0 2.63-.61 15.3 15.3 0 0 0-1.17-2zm-7.38 7.88a5.79 5.79 0 0 0-.42 1.86c0 1.32.88 2.1 3.1 2.1a15.44 15.44 0 0 0 3.9-.41v1.23a18.87 18.87 0 0 1-3.9.35c-2.78 0-4.29-1.1-4.29-3a8.49 8.49 0 0 1 .4-2.27zm9-8.46a18.54 18.54 0 0 1 1.26 2l-.81.36a14 14 0 0 0-1.25-2.08zm14.04 12.71a11.08 11.08 0 0 0-3.59-2.23v.93c0 1-.69 2.08-2.62 2.08-2.13 0-3.32-.76-3.32-2.2s1.31-2.27 3.45-2.27a8.45 8.45 0 0 1 1.25.09c0-.66-.06-1.36-.08-2h-.82c-1 0-2.67-.09-3.74-.21v-1.12a26.51 26.51 0 0 0 3.74.29h.79v-2.13h-.73a34.28 34.28 0 0 1-3.5-.23V125a23 23 0 0 0 3.48.29h.77v-1a8.18 8.18 0 0 0-.05-.88h1.28a7.43 7.43 0 0 0-.08 1v.82a31 31 0 0 0 3.81-.36V126c-1.17.12-2.44.24-3.84.31v2.13a38.82 38.82 0 0 0 4.13-.39v1.13c-1.39.18-2.71.28-4.12.34 0 .77.07 1.55.1 2.25a12.23 12.23 0 0 1 4.32 2.31zm-4.76-2.56a7.48 7.48 0 0 0-1.44-.14c-1.41 0-2.17.54-2.17 1.22s.58 1.2 2 1.2c.86 0 1.58-.26 1.58-1.28.05-.25.03-.57.03-1zm16.05-6.26a17.13 17.13 0 0 1-2.68.54 27.21 27.21 0 0 1-3.24 6.29l-1.17-.6a21.6 21.6 0 0 0 3.18-5.55h-3.03l-.09-1.13a13 13 0 0 0 1.83.11c.52 0 1.08 0 1.65-.08a12.44 12.44 0 0 0 .46-2.56l1.34.12c-.15.54-.35 1.44-.59 2.29a15.19 15.19 0 0 0 2.31-.54zm1.74 1.73a14.31 14.31 0 0 0 0 1.6c0 .54.07 1.52.1 2.42a10 10 0 0 1 3.08 1.86l-.65 1a10.46 10.46 0 0 0-2.38-1.7v.6c0 1.19-.78 2.16-2.61 2.16-1.63 0-3-.67-3-2.14s1.29-2.25 3-2.25a7 7 0 0 1 1.41.13c0-1.21-.12-2.67-.15-3.7zm-1 4.75a5.66 5.66 0 0 0-1.5-.21c-1.1 0-1.82.5-1.82 1.17s.56 1.16 1.71 1.16 1.62-.68 1.62-1.41c0-.2 0-.44-.01-.71zm4-4.35a18.27 18.27 0 0 0-3.39-2l.58-.93a22.23 22.23 0 0 1 3.48 2zm5.37-1.11v1.89c0 2.16-.34 5.25-2.26 7.31a3.39 3.39 0 0 0-.86-.75c1.82-1.92 2-4.61 2-6.57v-1.68a13.75 13.75 0 0 1-1.16 1 3.08 3.08 0 0 0-.82-.83 12.31 12.31 0 0 0 4.14-4.93l1.23.21-.45.84h3.81l.18-.06.79.51a13.65 13.65 0 0 1-1.23 2.08h5v1zm1.28-2.61a15.78 15.78 0 0 1-1.2 1.59h4.06a13.15 13.15 0 0 0 .92-1.59zm7 10.59c1.07 0 1.22-.36 1.32-2.23a3.35 3.35 0 0 0 1.05.42c-.19 2.22-.57 2.82-2.34 2.82H133c-1.9 0-2.49-.35-2.49-1.8v-5.76h6.86v.45c-.15 2.34-.3 3.28-.64 3.64a1.24 1.24 0 0 1-.92.38 14.37 14.37 0 0 1-1.83 0 2.33 2.33 0 0 0-.3-1 12.4 12.4 0 0 0 1.65.07c.24 0 .38 0 .5-.13s.31-.86.42-2.45h-4.62v4.77c0 .66.21.81 1.41.81zm8.72-11.5c-.47 1.24-1.07 2.83-1.61 4.09a4.38 4.38 0 0 1 1.49 3.11 1.92 1.92 0 0 1-.63 1.69 1.62 1.62 0 0 1-.81.29 6.79 6.79 0 0 1-1.11 0 2.88 2.88 0 0 0-.27-1 7.87 7.87 0 0 0 .94 0 1 1 0 0 0 .53-.14 1.19 1.19 0 0 0 .33-1 4 4 0 0 0-1.49-2.85c.47-1.13.95-2.57 1.29-3.62h-2.07v12h-1v-13h3.66zm5 8.59a5.66 5.66 0 0 0 3.84 3.18 2.9 2.9 0 0 0-.64.95 6.48 6.48 0 0 1-4-3.47c-.52 1.37-1.74 2.63-4.38 3.47a3.57 3.57 0 0 0-.6-.84c2.72-.84 3.77-2 4.14-3.29h-3v-3.81h3.24v-1.3h-2.35v-.81a13.45 13.45 0 0 1-1.32.78 4.49 4.49 0 0 0-.56-.9 10.36 10.36 0 0 0 4.19-3.59h1a11.34 11.34 0 0 0 4.36 3.42 6 6 0 0 0-.58 1 9 9 0 0 1-1.23-.7v.84h-2.52v1.3h3.4v3.81zm-1.44-.9v-2.01h-2.25v2zm3.41-5.16a12.94 12.94 0 0 1-2.87-2.59 11 11 0 0 1-2.67 2.59zm-2.37 3.15v2.01h2.41v-2zm11.33-5.83c-.06.27-.12.58-.18.87s-.21 1.3-.38 2.1c.69 0 1.31-.09 1.67-.09 1.32 0 2.41.51 2.41 2.52a14.13 14.13 0 0 1-.87 5.35 2.09 2.09 0 0 1-2.17 1.25 8.42 8.42 0 0 1-1.74-.23l-.2-1.26a7.12 7.12 0 0 0 1.82.33 1.25 1.25 0 0 0 1.3-.76 12.7 12.7 0 0 0 .69-4.55c0-1.35-.61-1.59-1.56-1.59-.36 0-.94.05-1.59.11a29.64 29.64 0 0 1-3.12 8l-1.23-.5a23 23 0 0 0 3.12-7.36l-1.87.19-1.34.18-.12-1.3h1.32c.46 0 1.37-.09 2.27-.17a17.39 17.39 0 0 0 .37-3.22zm5.11 1.57a26.11 26.11 0 0 1 2.72 5.31l-1.17.56a18.07 18.07 0 0 0-2.66-5.39zm7.44 5.21a7 7 0 0 1 4.8-1.79c2.28 0 3.8 1.37 3.8 3.11 0 2.67-2.36 4.47-7.88 4l-.36-1.23c4.68.57 7-.78 7-2.8 0-1.19-1.1-2-2.61-2a5.78 5.78 0 0 0-4.59 2 3 3 0 0 0-.45.75l-1.13-.27a52.54 52.54 0 0 0 .75-6l1.28.17c-.22.94-.47 3.1-.61 4.06zm.92-6.84a40.2 40.2 0 0 0 5.74 1.14l-.28 1.17c-1.41-.2-4.64-.86-5.78-1.17zM93.8 152.62a23.29 23.29 0 0 1-3.11 2.11 8 8 0 0 0 3.85 3.38 4.8 4.8 0 0 0-.76 1c-2.83-1.29-4.57-4.14-5.5-7.7a10.06 10.06 0 0 1-1.53 1c2.86 2.48 2.89 6.33 1.42 7.35a2.24 2.24 0 0 1-1.59.5h-1.3a2.58 2.58 0 0 0-.32-1.07 13.8 13.8 0 0 0 1.4.08 1.43 1.43 0 0 0 1-.29 2.79 2.79 0 0 0 .5-2.77 21.15 21.15 0 0 1-6.18 3.36 5.39 5.39 0 0 0-.59-.93 17.25 17.25 0 0 0 6.44-3.41 6.07 6.07 0 0 0-.53-1 21.53 21.53 0 0 1-4.78 2.51 4.65 4.65 0 0 0-.6-.87 16.75 16.75 0 0 0 4.87-2.31 8.91 8.91 0 0 0-.69-.68 23 23 0 0 1-3.67 1.43 6.3 6.3 0 0 0-.62-.87 17.94 17.94 0 0 0 5.21-2.09h-3.2v-1h8.39v1h-2.64a13.45 13.45 0 0 0 1 2.51 22.41 22.41 0 0 0 2.71-2zm-11.1-1.79h-1.1v-3h5.58v-1.32h1.11v1.32H94v3h-1.15v-1.92H82.7zm18.93 1.35v.53c-.18 4.83-.36 6.49-.78 7a1.15 1.15 0 0 1-.9.48 9.15 9.15 0 0 1-1.49 0 2.67 2.67 0 0 0-.3-1 12.43 12.43 0 0 0 1.31.06.48.48 0 0 0 .46-.19c.29-.36.47-1.83.63-5.87h-2c-.21 2.81-.69 5.37-2 7.05a3 3 0 0 0-.81-.73c1.63-2.07 1.83-5.81 1.89-9.44H96v-1h2.73v-2.48h1v2.48h2.32v1h-3.36c0 .71 0 1.41-.06 2.1zm2-2.65a11.47 11.47 0 0 1-1.32 2 7.09 7.09 0 0 0-.9-.62 10.88 10.88 0 0 0 2.31-4.39l1 .24a18.07 18.07 0 0 1-.63 1.74h5.36v1zm3 6.16a5.8 5.8 0 0 0 3.21 3.68 4.16 4.16 0 0 0-.72.85 6.55 6.55 0 0 1-3.11-3.58 6.6 6.6 0 0 1-3.58 3.6 4.56 4.56 0 0 0-.71-.77c2.39-1.08 3.21-2.49 3.48-3.78h-3v-1h3.16a4.7 4.7 0 0 0 0-.52v-1.67h-1.26a9 9 0 0 1-1 1.69 7.05 7.05 0 0 0-.88-.58 9.14 9.14 0 0 0 1.71-3.75l1 .24a14 14 0 0 1-.44 1.39h4.7v1h-2.84v2.2h3.09v1zm11.37 1.38c0-.57.06-1.53.06-2.31-1.38.75-2.34 1.52-2.34 2.49 0 1.17 1.15 1.34 2.68 1.34a26.67 26.67 0 0 0 4.05-.36v1.21a36.81 36.81 0 0 1-4.06.24c-2.13 0-3.84-.45-3.84-2.26s1.77-2.87 3.49-3.77a1.26 1.26 0 0 0-1.33-.91 4 4 0 0 0-2.57 1.09c-.42.41-.84 1-1.35 1.56l-1-.76a15.62 15.62 0 0 0 3.42-4.53h-.61c-.63 0-1.64 0-2.45-.09v-1.13c.8.09 1.83.15 2.51.15h1a8.12 8.12 0 0 0 .38-1.85l1.23.11c-.11.42-.24 1-.45 1.71a41.06 41.06 0 0 0 4.54-.45v1.11a47.22 47.22 0 0 1-4.92.42 10.81 10.81 0 0 1-1.34 2.28 4.18 4.18 0 0 1 2.06-.56 1.86 1.86 0 0 1 2 1.35c1-.48 1.92-.84 2.7-1.2.45-.19.81-.37 1.23-.58l.48 1.12c-.37.11-.91.32-1.3.47-.84.33-1.91.76-3 1.29v2.83zm21.33-3.72h-3.83v5.46c0 .74-.18 1.08-.71 1.26a11.36 11.36 0 0 1-2.85.18 4.61 4.61 0 0 0-.39-1.11c1.08.05 2.13 0 2.42 0s.4-.1.4-.36v-5.46h-8.19v-1.09h8.19v-2.15h1.13v2.15h3.83zm-11.68-2h-1.12v-3.13h5.61v-1.7h1.15v1.7H139v3.13h-1.17v-2.1h-10.18zm1.22 2.75a13.19 13.19 0 0 1 2.49 3.09l-.93.64a14.64 14.64 0 0 0-2.43-3.18zm22.62-5.41c-.27.18-.6.4-.83.57-.73.55-2.73 2.31-3.87 3.27a6.2 6.2 0 0 1 2-.32c2.48 0 4.26 1.5 4.26 3.51 0 2.4-2 4-5.13 4-2 0-3.27-.9-3.27-2.13a2.12 2.12 0 0 1 2.3-2 2.94 2.94 0 0 1 3.06 2.63 2.59 2.59 0 0 0 1.84-2.52c0-1.46-1.47-2.52-3.34-2.52-2.45 0-3.8 1-5.69 2.95l-.87-.88 4-3.33c.82-.69 2.67-2.25 3.4-2.91-.78 0-3.7.16-4.47.21a6.41 6.41 0 0 0-1 .09v-1.25a7.6 7.6 0 0 0 1 .05c.76 0 4.29-.11 5.07-.18a7.48 7.48 0 0 0 .81-.12zm-2.57 9.82a2 2 0 0 0-2-2c-.68 0-1.19.41-1.19.92 0 .73.86 1.15 2 1.15a7.25 7.25 0 0 0 1.19-.07zm-79.77 18.58a8.54 8.54 0 0 1-2.22 4 29.72 29.72 0 0 1 4.22 2.07l-.81.93a27.92 27.92 0 0 0-4.34-2.26 14.7 14.7 0 0 1-6.32 2.22 4.6 4.6 0 0 0-.67-1 14.7 14.7 0 0 0 5.79-1.7c-1-.39-2-.75-2.94-1-.14.22-.26.43-.38.63l-1.12-.3c.57-1 1.27-2.24 2-3.56h-3.71V176h4.22c.42-.85.84-1.68 1.18-2.41l1.14.25c-.31.68-.69 1.41-1.06 2.16h7.74v1.05zm-8.94-2h-1.12v-3.19h5.55v-1.59h1.15v1.59h5.7v3.19h-1.15V173H60.21zm3.38 2c-.42.81-.86 1.62-1.26 2.34 1.11.33 2.29.74 3.46 1.17a6.92 6.92 0 0 0 2.09-3.51zm17.1-6.78a19.12 19.12 0 0 0 6.51 5.54 4.56 4.56 0 0 0-.74 1 22.41 22.41 0 0 1-6.27-5.43 20 20 0 0 1-6.13 5.5 4.92 4.92 0 0 0-.69-.88 17.94 17.94 0 0 0 6.21-5.72zm.09 12.29h5.85v1H74v-1h5.69v-2.45h-4.52v-1h4.47v-2.34h-3.8v-1h8.91v1h-4v2.34h4.54v1h-4.51zm18.37-5.51a8.54 8.54 0 0 1-2.22 4 29.72 29.72 0 0 1 4.22 2.07l-.81.93a27.92 27.92 0 0 0-4.34-2.26 14.7 14.7 0 0 1-6.32 2.22 4.6 4.6 0 0 0-.67-1 14.7 14.7 0 0 0 5.79-1.7c-1-.39-2-.75-2.94-1-.14.22-.26.43-.38.63l-1.12-.3c.57-1 1.27-2.24 2-3.56h-3.71V176h4.22c.42-.85.84-1.68 1.18-2.41l1.14.25c-.31.68-.69 1.41-1.06 2.16h7.74v1.05zm-8.94-2h-1.12v-3.19h5.55v-1.59h1.15v1.59h5.7v3.19h-1.15V173H90.21zm3.38 2c-.42.81-.86 1.62-1.26 2.34 1.11.33 2.29.74 3.46 1.17a6.92 6.92 0 0 0 2.09-3.51zm12.34-1.18c-.24 2-.7 4.36-1.77 5.8l-1-.61a11.33 11.33 0 0 0 1.69-5.4zm2.55-1.43V182c0 .69.17.83 1 .83h2.76c.9 0 1-.54 1.16-3.14a2.62 2.62 0 0 0 1 .51c-.15 2.82-.51 3.65-2.13 3.65h-2.91c-1.59 0-2-.41-2-1.86v-7.49zm-.31-4.08a25.83 25.83 0 0 1 5.13 2.48l-.71 1a22.93 22.93 0 0 0-5.13-2.59zm6.36 4.8a16 16 0 0 1 2.82 5.54l-1.1.52a16.51 16.51 0 0 0-2.7-5.56zm10.47 6.95a10.11 10.11 0 0 0 1.28-.18 4.45 4.45 0 0 0 3.76-4.4 4.11 4.11 0 0 0-3.94-4.3 31.19 31.19 0 0 1-.89 4.27c-.91 3.05-2.1 4.62-3.48 4.62s-2.65-1.53-2.65-4a6.34 6.34 0 0 1 6.51-6.05 5.39 5.39 0 0 1 5.7 5.46c0 3.12-2.06 5.21-5.6 5.67zm-1-4.86a23.92 23.92 0 0 0 .82-4 5.18 5.18 0 0 0-4.59 4.8c0 1.88.87 2.7 1.52 2.7s1.55-1 2.32-3.5zm9.22-.29a15.56 15.56 0 0 0 .78-3.84l.84.12a16.93 16.93 0 0 1-.75 4zm2.16-6.67h1.11V184h-1.11zm2 2.4a14.19 14.19 0 0 1 1.1 2.5l-.84.41a15.07 15.07 0 0 0-1-2.55zm9.56 9.72v1.06h-9.15v-1.06h4.29v-3.75h-3.18v-1h3.18v-3.1h-2.19a10.9 10.9 0 0 1-1 2.32 9.2 9.2 0 0 0-1-.51 14.45 14.45 0 0 0 1.81-5.35l1.08.18c-.15.78-.33 1.56-.54 2.29h1.88v-3.1h1.11v3.1h3.39v1.07h-3.39v3.1h3.06v1h-3.06v3.75zm6.74-11.07a14.55 14.55 0 0 1 1.95 3.33l-.95.42a6.94 6.94 0 0 0-.39-.89l-5.79.32-.1-1.05h1.14a24.13 24.13 0 0 0 1.38-3.13l1.12.27c-.4.91-.88 2-1.35 2.82l3.08-.14a16.4 16.4 0 0 0-1-1.54zm.93 11.37c0 .55-.11.87-.51 1.05a6.41 6.41 0 0 1-2 .18 4.21 4.21 0 0 0-.36-1 14.92 14.92 0 0 0 1.54 0c.2 0 .24 0 .24-.24V181h-3.16v3h-1v-8.37h5.3zm-4.26-6.18v1.29h3.16v-1.29zm3.16 3.54v-1.38h-3.16v1.38zm4.31-3.24c-1.43 0-1.8-.33-1.8-1.56v-4.95h1.09v2.5a25 25 0 0 0 3.47-1.41l.75.81a31 31 0 0 1-4.22 1.52v1.51c0 .48.12.57.8.57h2.38c.57 0 .68-.24.74-1.72a3.15 3.15 0 0 0 1 .43c-.13 1.82-.47 2.3-1.66 2.3zm2.59 6c.63 0 .74-.3.81-2a3 3 0 0 0 1 .42c-.15 2-.48 2.54-1.73 2.54h-2.65c-1.44 0-1.83-.33-1.83-1.56v-5h1.09v2.37a16.81 16.81 0 0 0 3.65-1.58l.73.84a21.73 21.73 0 0 1-4.38 1.67v1.74c0 .49.14.58.84.58zm10.07-2.01c0-.57.06-1.53.06-2.31-1.38.75-2.34 1.51-2.34 2.49 0 1.17 1.15 1.33 2.68 1.33a25.45 25.45 0 0 0 4.05-.36v1.22a39.43 39.43 0 0 1-4.06.24c-2.13 0-3.84-.45-3.84-2.27s1.77-2.86 3.49-3.76a1.25 1.25 0 0 0-1.33-.92 3.94 3.94 0 0 0-2.57 1.1c-.42.4-.84 1-1.35 1.56l-1-.77a15.62 15.62 0 0 0 3.42-4.53H167c-.63 0-1.64 0-2.45-.09v-1.12c.8.09 1.83.15 2.51.15h1a8 8 0 0 0 .38-1.84l1.23.1c-.11.42-.24 1-.45 1.71a38.78 38.78 0 0 0 4.54-.45v1.11a44.64 44.64 0 0 1-4.92.42 10.56 10.56 0 0 1-1.34 2.28 4.28 4.28 0 0 1 2.06-.55 1.85 1.85 0 0 1 2 1.35c1-.48 1.92-.84 2.7-1.2.45-.2.81-.38 1.23-.59l.48 1.13c-.37.1-.91.31-1.3.46-.84.33-1.91.77-3 1.29v2.84z"/></g></g></svg>