<svg xmlns="http://www.w3.org/2000/svg" viewBox="0 0 235.5 235.5"><defs><style>.cls-1{fill:none;stroke:#73c3c4;stroke-miterlimit:10;stroke-width:3px;stroke-dasharray:5}</style></defs><title>i-circle1</title><g id="Layer_2" data-name="Layer 2"><g id="SVG"><circle class="cls-1" cx="117.75" cy="117.75" r="116.25"/><path class="cls-1" d="M33.75 102.5h168"/><path d="M70 77.35c-.52 0-1.34.18-2.1.3l-4.34.7c.32 1.64.6 3 .72 3.6s.34 1.32.52 2l-2.88.52c-.1-.76-.16-1.44-.28-2s-.36-2-.68-3.64c-2 .34-3.92.66-4.78.82s-1.54.3-2 .42l-.56-2.68c.54 0 1.44-.14 2.08-.22l4.8-.76-.6-3.2-3.92.64c-.7.14-1.24.26-1.84.42l-.54-2.77c.64 0 1.24-.06 1.86-.13s2.24-.31 4-.59c-.16-.84-.3-1.5-.36-1.82-.12-.56-.26-1-.4-1.52l2.82-.46c.06.4.12 1.08.22 1.56 0 .28.16.94.32 1.84 1.7-.28 3.22-.52 3.94-.66s1.4-.28 1.88-.42l.48 2.63c-.44 0-1.24.15-1.84.23l-4 .65.62 3.18c1.8-.3 3.44-.56 4.34-.74s1.52-.32 2-.48zm7.64 5.04a2.61 2.61 0 0 0 .26-1.3V70.24a12.36 12.36 0 0 0-.22-2.24h3.14a14.17 14.17 0 0 0-.2 2.26v10.37A22.7 22.7 0 0 0 90.9 74l1.42 2.26c-2.74 3.28-6.9 5.66-11.6 7.2a5.64 5.64 0 0 0-1.2.54zm30.5-.94a13.75 13.75 0 0 0 .18 2.62h-3.16a22.4 22.4 0 0 0 .14-2.62v-6.56a39.1 39.1 0 0 1-6.88 2.72L97 75.17a30.46 30.46 0 0 0 9.1-3.63 21.11 21.11 0 0 0 5.2-4.54l2.14 2a32.72 32.72 0 0 1-5.3 4.31zm21.08-9.93a28.83 28.83 0 0 1-3.44.69 36.56 36.56 0 0 1-4.24 8.48l-2.42-1.22a30.22 30.22 0 0 0 4-7h-1c-.82 0-1.62 0-2.48-.06l-.18-2.33a25.18 25.18 0 0 0 2.64.14c.58 0 1.18 0 1.78-.06a16.86 16.86 0 0 0 .54-3.32l2.74.28c-.16.64-.4 1.64-.68 2.7a20.92 20.92 0 0 0 2.66-.62zm2.6 1.79c-.06.84 0 1.66 0 2.54 0 .56.06 1.52.12 2.5a13.19 13.19 0 0 1 4.1 2.54L134.72 83a17.63 17.63 0 0 0-2.68-2.1v.18c0 1.84-1 3.28-3.82 3.28-2.46 0-4.4-1.1-4.4-3.28 0-1.94 1.62-3.44 4.38-3.44.46 0 .92 0 1.34.08-.06-1.48-.16-3.22-.22-4.42zm-2.18 6.56a7 7 0 0 0-1.6-.2c-1.14 0-1.88.48-1.88 1.18s.62 1.24 1.7 1.24c1.34 0 1.78-.78 1.78-1.84zm5.58-5.5a27 27 0 0 0-4.76-2.83l1.28-2a34.6 34.6 0 0 1 4.88 2.69zm13.54-4.17c-.36 3.33-1.46 5.43-6.54 6.53a6.79 6.79 0 0 0-1.28-2c4.36-.76 5.06-2.16 5.38-4.53h-2.76v2.33h-2.34V68h7.24v-1.8h2.44V68h7.42v4.15h-2.46v-2H153v3.17c0 .54.12.62.74.62h1.78c.5 0 .6-.2.68-1.46a6.42 6.42 0 0 0 2 .82c-.2 2.15-.8 2.7-2.4 2.7h-2.38c-2.24 0-2.72-.64-2.72-2.62V70.2zm9.74 12v2.16H141v-2.13h7.46v-3h-5.36v-2.12h13.7v2.14h-5.9v3zm19.24-8.2c0 4.8.22 8.58 1.38 8.58.3 0 .38-1.06.42-2.68a9.63 9.63 0 0 0 1.54 1.48c-.18 2.5-.6 3.56-2.14 3.56-2.92 0-3.5-3.82-3.62-8.94H164.6v-1.65l-.18.16a19.6 19.6 0 0 0-2.16-1.5 13.21 13.21 0 0 0 4.26-6.85l2.48.52c-.16.5-.32 1-.5 1.48h11.82v2h-12.7c-.16.32-.34.64-.52.94h11.4V73H167v-1.67a15.91 15.91 0 0 1-2 2.68zm-4 2.86a18.09 18.09 0 0 1-2.12 3.1 22.89 22.89 0 0 1 3.16 2.54l-1.9 1.8a22.9 22.9 0 0 0-3-2.58 22.28 22.28 0 0 1-5.2 3.52 15.51 15.51 0 0 0-1.78-1.86 17.7 17.7 0 0 0 5.06-3 54.71 54.71 0 0 0-3.36-2.06l1.7-1.56c1 .54 2.2 1.22 3.34 1.94a13.08 13.08 0 0 0 1.76-2.58zM75.55 133v1H62.44v-1h6v-3H64v-1h10.26v1h-4.74v3zm-7.68-9.66c-.3 2.66-1.18 4.2-4.71 5a3.25 3.25 0 0 0-.61-.93c3.21-.63 3.91-1.88 4.17-4.07h-2.9v2h-1.09v-3h5.67v-1.56h1.12v1.56h5.79V125h-1.12v-1.67h-3v3c0 .38.09.44.64.44h1.92c.44 0 .53-.17.57-1.22a3.31 3.31 0 0 0 1 .41c-.1 1.41-.42 1.77-1.42 1.77h-2.22c-1.3 0-1.62-.29-1.62-1.4v-3zm12.69-.05a11.88 11.88 0 0 1-2.43 3.38 8.32 8.32 0 0 0-1-.72 10.78 10.78 0 0 0 3.23-5.22l1.15.27c-.15.46-.31.91-.49 1.35h9.34v.94zm4.83 4.89a14.54 14.54 0 0 1-1.9 2.61 19 19 0 0 1 2.68 2.28l-.88.84a17.63 17.63 0 0 0-2.61-2.31 17.16 17.16 0 0 1-4.34 3 5.94 5.94 0 0 0-.82-.85 15.56 15.56 0 0 0 4.29-2.75 32.16 32.16 0 0 0-2.81-1.84l.79-.74c.92.51 1.91 1.11 2.87 1.76a11.87 11.87 0 0 0 1.72-2.36zm2.9-1.57c0 3.87.22 6.76 1.35 6.76.3 0 .37-.85.4-2.11a4.65 4.65 0 0 0 .78.64c-.1 1.88-.34 2.55-1.26 2.57-2 0-2.29-2.81-2.38-6.9H78.6v-1zm-8-1.2v-.93h8.61v.93zm18.93 5.88c0-.57.06-1.53.06-2.31-1.38.75-2.34 1.51-2.34 2.49 0 1.17 1.16 1.33 2.69 1.33a25.65 25.65 0 0 0 4.05-.36v1.22a39.8 39.8 0 0 1-4.07.24c-2.13 0-3.84-.45-3.84-2.27s1.77-2.86 3.5-3.76a1.26 1.26 0 0 0-1.37-.87 3.93 3.93 0 0 0-2.56 1.1c-.42.4-.84 1-1.35 1.56l-1-.77a15.81 15.81 0 0 0 3.42-4.53h-.62c-.63 0-1.63 0-2.44-.09v-1.17c.79.09 1.83.15 2.5.15h1a8 8 0 0 0 .37-1.84l1.23.1c-.1.42-.24 1-.45 1.71a38.74 38.74 0 0 0 4.55-.45v1.11a44.64 44.64 0 0 1-4.92.42 10.52 10.52 0 0 1-1.33 2.28 4.24 4.24 0 0 1 2.05-.55 1.87 1.87 0 0 1 2 1.35c1-.48 1.92-.84 2.7-1.2.45-.2.81-.38 1.23-.59l.48 1.13c-.38.1-.92.31-1.31.46-.84.33-1.9.77-3 1.29v2.84zm20.13-4.98a21.38 21.38 0 0 1-2.52.63c.44.94.92 1.95 1.34 2.73l-.59.73c-.75-.13-2-.3-2.89-.42l.1-.91 1.89.21c-.28-.59-.63-1.37-1-2.15a35.31 35.31 0 0 1-6.65.14v-1.1a29.32 29.32 0 0 0 6.24 0l-.53-1.21c-.12-.26-.22-.53-.33-.77a29.47 29.47 0 0 1-5.22 0l-.07-1.09a28 28 0 0 0 4.86.12l-.2-.45a9.74 9.74 0 0 0-.55-1l1.35-.29a15.18 15.18 0 0 0 .55 1.65 16.68 16.68 0 0 0 3-.7l.21 1.06a20 20 0 0 1-2.76.63l.27.62c.12.31.33.78.58 1.33a16.2 16.2 0 0 0 2.75-.73zm-8.53 3.09a5 5 0 0 0-.35 1.51c0 1.14.9 1.86 3 1.86a17.85 17.85 0 0 0 3.66-.34v1.21a22.39 22.39 0 0 1-3.59.29c-2.65 0-4.21-.92-4.21-2.78a6.89 6.89 0 0 1 .34-1.86zm25.18 2.71a3.78 3.78 0 0 1-2.73 1.25c-1 0-1.65-.66-1.65-1.89 0-1.65.56-4.1.56-5.54a1.06 1.06 0 0 0-1.19-1.21c-1.2 0-3 1.39-4.36 2.86v1.74c0 1.35 0 2.25.06 3.59 0 .25 0 .63.08.9h-1.31v-5.27c-.72 1.1-1.7 2.52-2.42 3.51l-.75-1c.83-1 2.54-3.35 3.29-4.52 0-.48.06-1 .09-1.42-.68.07-2 .25-2.9.37l-.12-1.24a8.14 8.14 0 0 0 1 0c.48 0 1.35-.12 2.11-.24 0-.7.08-1.23.08-1.39a6 6 0 0 0-.06-1.11h1.42c-.07.36-.19 1.2-.3 2.24h.08l.43.52c-.18.27-.43.68-.66 1 0 .27 0 .55-.07.84 1.15-1.07 3.06-2.49 4.54-2.49a1.86 1.86 0 0 1 2.1 2c0 1.49-.55 4.05-.55 5.55 0 .51.24.9.76.9a3.28 3.28 0 0 0 2.24-1.23zm3.77-7.8c0 .93 0 2.3.1 3.51.24 2.49 1 4.13 2 4.13.77 0 1.46-1.53 1.85-3l.94 1.08c-.88 2.52-1.8 3.37-2.82 3.37-1.39 0-2.74-1.39-3.15-5.25a39.16 39.16 0 0 1-.16-4 8.53 8.53 0 0 0-.09-1.32h1.44a13.31 13.31 0 0 0-.11 1.48zm10.47 6.24L149 131a14.64 14.64 0 0 0-2.56-7.35l1.17-.4a15.32 15.32 0 0 1 2.63 7.3zm5.29-8.49c-.09.26-.22.74-.28 1a33.6 33.6 0 0 0-.72 5.68 15.51 15.51 0 0 0 .12 2c.25-.67.58-1.54.82-2.13l.65.48a30.3 30.3 0 0 0-1.05 3.33 3.37 3.37 0 0 0-.08.66v.53l-1.08.07a18.6 18.6 0 0 1-.54-4.77 41.09 41.09 0 0 1 .66-6 10.29 10.29 0 0 0 .1-1.05zm3.39 7.2a5.73 5.73 0 0 0-.19 1.37c0 .67.45 1.33 2.49 1.33a16.13 16.13 0 0 0 3.67-.39v1.26a19.8 19.8 0 0 1-3.71.3c-2.49 0-3.6-.82-3.6-2.22a8.93 8.93 0 0 1 .24-1.75zm-.58-6.06a25.92 25.92 0 0 0 6.1 0v1.23a36.42 36.42 0 0 1-6.09 0zm12.25 10.95a24.34 24.34 0 0 0-3.31-3.34l1-.86a28.54 28.54 0 0 1 3.36 3.33zM70.39 146c.65 0 3.71-.12 4.56-.23a3.67 3.67 0 0 0 .81-.15l.77.87a6.47 6.47 0 0 0-.8.56c-1.11.91-3.25 2.7-4.44 3.64 2.25-.24 4.92-.45 7-.45v1.13a21.14 21.14 0 0 0-3.76.07 3.23 3.23 0 0 0-2.85 2.81c0 1.48 1.2 2 2.55 2.17a9.33 9.33 0 0 0 2.13.06l-.24 1.22c-3.63.15-5.61-1-5.61-3.27a3.53 3.53 0 0 1 1.72-2.79c-1.59.13-3.57.37-5.34.66l-.1-1.14c.79-.08 1.8-.21 2.55-.3a59.9 59.9 0 0 0 4.9-4c-.66.05-3.24.18-3.88.24l-1.14.09-.06-1.23a7.28 7.28 0 0 0 1.23.04zm14.99-.54a14.84 14.84 0 0 0-.15 1.48c-.06 1.68-.18 5.19-.18 7.41 0 1.64 1 2.21 2.43 2.21a6.21 6.21 0 0 0 5.34-3.08l.82 1a7.38 7.38 0 0 1-6.19 3.27c-2.13 0-3.6-.9-3.6-3.32 0-2.2.15-5.95.15-7.53a7.65 7.65 0 0 0-.14-1.5zm12.52 1.6c1-.09 3.78-.37 6.51-.6 1.62-.13 3-.21 4-.25v1.2a12.09 12.09 0 0 0-2.91.24 5.16 5.16 0 0 0-3.39 4.68c0 2.91 2.7 3.82 5.11 3.91l-.43 1.25c-2.75-.11-5.88-1.58-5.88-4.89a6 6 0 0 1 2.76-5c-1.31.15-5.36.54-7 .87l-.14-1.32c.62-.03 1.09-.06 1.37-.09zm15.74 4.07a13.78 13.78 0 0 0-2.76-1.64l.6-.81a12 12 0 0 1 2.77 1.52zm-2.28 6.18a51 51 0 0 0 2.67-4.8l.82.7a54.5 54.5 0 0 1-2.55 4.79zm.93-12.63a10.85 10.85 0 0 1 2.74 1.63l-.66.89a12 12 0 0 0-2.7-1.73zm6.49 5.26c-.16.68-.31 1.35-.46 2h5.32v.51c-.32 3.45-.6 4.83-1.13 5.34a1.65 1.65 0 0 1-1.23.45 19.68 19.68 0 0 1-2.38 0 2.17 2.17 0 0 0-.36-1.05c1 .09 2 .09 2.37.09a1 1 0 0 0 .67-.15c.38-.35.65-1.49.89-4.14h-4.35c-.08.3-.15.57-.23.82l-1.14-.15c.29-1 .62-2.29.93-3.66h-2.52v-1.05h2.75c.18-.85.36-1.69.49-2.46h-2.61v-1H124v1h-4.47c-.17.78-.33 1.62-.51 2.46h5.58V150zm19.16-1.87c-.92.24-1.89.46-2.81.61.54 1.19 1.35 2.91 2 4.16l-.69.72c-.65-.14-2.12-.35-3.08-.44l.12-1c.57 0 1.61.16 2.1.21-.42-.92-1.17-2.46-1.62-3.5a30.78 30.78 0 0 1-6.31 0l-.05-1.2a25.07 25.07 0 0 0 5.9.09l-.5-1.09a11.1 11.1 0 0 0-.63-1.25l1.34-.25c.36 1 .63 1.65 1 2.44a22.47 22.47 0 0 0 3-.75zm-8.39 4.45a6 6 0 0 0-.42 1.88c0 1.3.89 2.08 3.11 2.08a16 16 0 0 0 3.9-.4v1.24a18.79 18.79 0 0 1-3.9.35c-2.76 0-4.29-1.11-4.29-3a8.61 8.61 0 0 1 .41-2.28zm19.25-4.42a18.24 18.24 0 0 1-2.69.54 26.19 26.19 0 0 1-3.24 6.28l-1.17-.6a21 21 0 0 0 3.18-5.55h-3.03l-.09-1.12a15.08 15.08 0 0 0 1.83.1c.53 0 1.08 0 1.65-.07a11.92 11.92 0 0 0 .47-2.57l1.33.12c-.15.54-.34 1.44-.58 2.3a15.19 15.19 0 0 0 2.31-.54zm1.74 1.72a14.58 14.58 0 0 0 0 1.61c0 .54.08 1.51.11 2.41a10.09 10.09 0 0 1 3.07 1.86l-.64 1a10.21 10.21 0 0 0-2.39-1.69v.6c0 1.18-.78 2.16-2.61 2.16-1.64 0-3-.68-3-2.15s1.29-2.25 3-2.25a7.1 7.1 0 0 1 1.41.14c-.05-1.22-.12-2.67-.15-3.71zm-1 4.76a5.18 5.18 0 0 0-1.5-.21c-1.09 0-1.81.49-1.81 1.17s.55 1.15 1.71 1.15 1.62-.67 1.62-1.41c-.01-.19-.01-.43-.03-.7zm4-4.35a17.44 17.44 0 0 0-3.39-2l.59-.93a22.7 22.7 0 0 1 3.48 2zm4.98-2.13c0 .93 0 2.29.1 3.51.24 2.49 1 4.12 2 4.12.77 0 1.46-1.53 1.85-3l.94 1.08c-.88 2.52-1.8 3.38-2.82 3.38-1.39 0-2.74-1.4-3.15-5.25a39.16 39.16 0 0 1-.16-4 8.45 8.45 0 0 0-.09-1.32h1.44a13.31 13.31 0 0 0-.11 1.48zm10.48 6.24l-1.22.48a14.64 14.64 0 0 0-2.56-7.35l1.17-.41a15.36 15.36 0 0 1 2.61 7.28zm-82.2 26.21v1H73.69v-1h6v-3h-4.4v-1h10.22v1h-4.74v3zm-7.68-9.66c-.3 2.66-1.18 4.2-4.71 5a3.25 3.25 0 0 0-.61-.93c3.21-.63 3.91-1.88 4.17-4.07h-2.9v2H74v-3h5.67v-1.56h1.12v1.56h5.79v2.67h-1.14v-1.67h-3v3c0 .38.09.44.64.44H85c.44 0 .53-.17.57-1.22a3.31 3.31 0 0 0 1 .41c-.1 1.41-.42 1.77-1.42 1.77h-2.22c-1.3 0-1.62-.29-1.62-1.4v-3zm11.13 3.2V182h-1.11v-13h5.42v5.12zm0-4.25v1.25h3.24v-1.25zm3.24 3.39v-1.32h-3.24v1.32zm0 7.41v.75h-1v-6.18H98v5.43zm0-4.57v1.39H97v-1.39zm3.51 3.69v-1.46h-3.55v1.46zm4.47.79c0 .71-.16 1.08-.66 1.28a8.57 8.57 0 0 1-2.52.19 3.86 3.86 0 0 0-.39-1.14c.92.05 1.83 0 2.1 0s.35-.09.35-.36v-6.42h-4.46V169h5.55zM97 169.84v1.25h3.36v-1.25zm3.36 3.41v-1.34H97v1.34zm4.97-.38c1.26-.39 4.17-1.47 6.34-1.47 2.46 0 4.43 1.44 4.43 3.93 0 3.56-3.54 5.28-8.13 5.54l-.53-1.25c3.89-.1 7.35-1.27 7.35-4.3 0-1.56-1.14-2.79-3.15-2.79-2.43 0-6.22 1.63-7.39 2.11l-.56-1.33a15.4 15.4 0 0 0 1.64-.44zm10-1.68l-.81.36a17.29 17.29 0 0 0-1.22-2.1l.8-.33a17.1 17.1 0 0 1 1.22 2.07zm1.69-.63l-.81.36a17.17 17.17 0 0 0-1.24-2.07l.78-.34a16.3 16.3 0 0 1 1.25 2.05zm11.27-.7c-.33.24-.78.63-1 .84-1 .88-3.16 2.59-4.26 3.49-.9.78-.9 1 .06 1.8 1.35 1.08 4.1 3.36 5.55 4.8l-1.08 1c-.3-.36-.7-.74-1-1.08-.81-.87-3.28-3-4.68-4.13s-1.24-1.84.11-3c1.11-.94 3.36-2.71 4.36-3.73a7.29 7.29 0 0 0 .86-1zm9.57-.77a28.25 28.25 0 0 0-.69 4.13c.59-1.53 2.15-3.38 4-3.38s3.41 2 3.41 5.1c0 4.13-2.6 5.94-6.29 6.62l-.7-1.08c3.22-.5 5.74-1.79 5.74-5.52 0-2.34-.78-4-2.35-4-1.85 0-3.56 2.68-3.74 4.63a6.6 6.6 0 0 0 0 1.82l-1.17.09a19.29 19.29 0 0 1-.15-2.36 39 39 0 0 1 .45-4.8c.06-.46.11-.91.12-1.27zm17.61 9.77c.05-.57.06-1.53.06-2.31-1.38.75-2.34 1.51-2.34 2.49 0 1.17 1.16 1.33 2.69 1.33a25.65 25.65 0 0 0 4.05-.36v1.22a39.8 39.8 0 0 1-4.07.24c-2.13 0-3.84-.45-3.84-2.27s1.77-2.86 3.5-3.76a1.26 1.26 0 0 0-1.34-.92 3.93 3.93 0 0 0-2.56 1.1c-.42.4-.84 1-1.35 1.56l-1-.77a15.81 15.81 0 0 0 3.42-4.53H152c-.63 0-1.63 0-2.44-.09v-1.12c.79.09 1.83.15 2.5.15h1a8 8 0 0 0 .37-1.84l1.23.1c-.1.42-.24 1-.45 1.71a38.74 38.74 0 0 0 4.55-.45v1.11a44.64 44.64 0 0 1-4.92.42 10.52 10.52 0 0 1-1.33 2.28 4.24 4.24 0 0 1 2-.55 1.87 1.87 0 0 1 2 1.35c1-.48 1.92-.84 2.7-1.2.45-.2.81-.38 1.23-.59l.48 1.13c-.38.1-.92.31-1.31.46-.84.33-1.9.77-3 1.29v2.84z"/></g></g></svg>