<svg xmlns="http://www.w3.org/2000/svg" viewBox="0 0 95.78 95.78"><defs><style>.cls-1{fill:#fff}.cls-2{fill:#73c6c7}</style></defs><title>i-label2</title><g id="Layer_2" data-name="Layer 2"><g id="SVG"><circle class="cls-1" cx="47.89" cy="47.89" r="46.39"/><path class="cls-2" d="M47.89 3A44.89 44.89 0 1 1 3 47.89 44.94 44.94 0 0 1 47.89 3m0-3a47.89 47.89 0 1 0 47.89 47.89A47.89 47.89 0 0 0 47.89 0z"/><path d="M31.73 54.17a7.76 7.76 0 0 0 .84-3.68l.88.18a8 8 0 0 1-.88 3.95zm6.93-5.77v.55c-.13 4.12-.28 5.6-.65 6.1a1.18 1.18 0 0 1-.9.48 6.5 6.5 0 0 1-1.45 0 2.93 2.93 0 0 0-.33-1.18h1.16a.4.4 0 0 0 .42-.21 4.26 4.26 0 0 0 .35-1.79l-.47.18a9.38 9.38 0 0 0-.79-2.08l.65-.21a13.75 13.75 0 0 1 .7 1.5c0-.59.05-1.27.08-2.1h-4.71v-8.72h5.78v1.28h-1.92v1.2h1.65v1.22h-1.65v1.27h1.65v1.21h-1.65v1.3zm-4.16 2.35a15.61 15.61 0 0 1 .23 3l-.78.11a16.27 16.27 0 0 0-.18-3zM34 42.2v1.2h1.33v-1.2zm1.33 2.42H34v1.27h1.33zM34 48.4h1.33v-1.3H34zm1.45 5a13.39 13.39 0 0 0-.57-2.69l.7-.13a12.71 12.71 0 0 1 .62 2.65zm5.48-11.27h-1.7v-1.3h6.42l.9.37a8.18 8.18 0 0 1-2.42 3.6 12 12 0 0 0 3.32 1.1 5.57 5.57 0 0 0-1 1.3 11.62 11.62 0 0 1-3.6-1.49 13 13 0 0 1-3.74 1.54 4.18 4.18 0 0 0-.68-1.25 11 11 0 0 0 3.28-1.18 8.89 8.89 0 0 1-1.85-2.33zm5.33 13.47a8.19 8.19 0 0 0-.46-1c-2.47.28-5 .56-6.89.73L38.68 54l3.45-.29v-2h-2.92v-3.9h2.92v-1.46h1.43v1.42h3v3.9h-3v1.88l1.52-.15c-.23-.37-.47-.7-.7-1l1.15-.49a15.45 15.45 0 0 1 2 3.13zm-4.13-5.11V49H40.5v1.54zm-1-8.37A6.58 6.58 0 0 0 42.91 44a7 7 0 0 0 1.65-1.85zM43.56 49v1.54h1.7V49zm20.04-3.46v1.38H48.86v-1.38h4a8.56 8.56 0 0 0-.86-2.25l1-.2h-3.2v-1.4h5.58v-1.42H57v1.42h5.81v1.4h-3l.93.2c-.38.81-.78 1.65-1.13 2.25zm-12.36 2.61h10.23v7.38h-1.63V55h-7.05v.59h-1.55zm1.55 1.32v1.47h7.05v-1.47zm7.05 4.22v-1.55h-7.05v1.55zm-6.28-10.6a7.63 7.63 0 0 1 .93 2.26l-.8.19h5.1l-.73-.19a18.71 18.71 0 0 0 .94-2.26z"/></g></g></svg>