<svg xmlns="http://www.w3.org/2000/svg" viewBox="0 0 133.26 133.26"><defs><style>.cls-1{fill:#fff}.cls-2{fill:#73c6c7}</style></defs><title>i-label8</title><g id="Layer_2" data-name="Layer 2"><g id="SVG"><circle class="cls-1" cx="66.63" cy="66.63" r="65.13" transform="rotate(-67.5 66.628 66.633)"/><path class="cls-2" d="M66.63 3A63.63 63.63 0 1 1 3 66.63 63.7 63.7 0 0 1 66.63 3m0-3a66.63 66.63 0 1 0 66.63 66.63A66.63 66.63 0 0 0 66.63 0z"/><path d="M33 29.27a25.53 25.53 0 0 1-1.52 3.23v10.6H30v-8.37a16.31 16.31 0 0 1-1.29 1.58 10.45 10.45 0 0 0-.8-1.45 17.24 17.24 0 0 0 3.7-6zm7.1 12.33c.92 0 1.09-.42 1.22-2.21a4.63 4.63 0 0 0 1.34.57c-.23 2.22-.65 2.94-2.47 2.94h-3.83c-2 0-2.59-.5-2.59-2.41v-4.68l-1.36.55-.58-1.3 1.94-.75v-3.9h1.44v3.34l1.95-.75v-4.17h1.37v3.64l2-.78.22-.17.26-.21 1 .41-.06.22c0 2.78-.05 4.85-.17 5.51s-.39 1.08-.88 1.23a5.38 5.38 0 0 1-1.65.16 4.2 4.2 0 0 0-.34-1.33H40c.2 0 .37-.07.45-.41a31.16 31.16 0 0 0 .14-4l-2.06.9v5.62h-1.37V34.5l-1.95.75v5.26c0 .9.18 1.09 1.25 1.09zm10.58-.67a9.76 9.76 0 0 0 1.38-.22 4.43 4.43 0 0 0 3.74-4.38A4.08 4.08 0 0 0 52.09 32a36.24 36.24 0 0 1-.92 4.34c-.94 3.15-2.22 4.91-3.77 4.91s-2.93-1.73-2.93-4.3a6.72 6.72 0 0 1 6.92-6.42 5.73 5.73 0 0 1 6.07 5.84c0 3.23-2.08 5.48-5.86 6zM49.59 36a21 21 0 0 0 .84-4A5.17 5.17 0 0 0 46 36.82c0 1.78.8 2.6 1.42 2.6s1.45-1 2.17-3.42zm9.9-1.31h8V36h-8zm7.79-3h-7.41v-1.28h3v-1.55h1.4v1.55h3zm-6.8 5.55h6.23v5.83h-1.43v-.78h-3.46v.85h-1.34zm.93-2.63a10 10 0 0 0-.61-2.42l1.2-.28a9.56 9.56 0 0 1 .68 2.39zm.41 3.9V41h3.46v-2.51zm2.51-4.16a18.63 18.63 0 0 0 .78-2.5l1.38.31c-.35.88-.69 1.84-1 2.48zm9.51-4c-.61 1.48-1.36 3.28-2 4.64a5 5 0 0 1 1.78 3.7 2 2 0 0 1-1.84 2.52 10.47 10.47 0 0 1-1.28 0 3.61 3.61 0 0 0-.39-1.44 8 8 0 0 0 1.06 0 1.29 1.29 0 0 0 .62-.17c.31-.19.42-.59.42-1.16a4.56 4.56 0 0 0-1.84-3.34c.56-1.21 1.17-2.85 1.61-4.07h-2.51v12.09h-1.42V29.69h4.48l.23-.06zm15.32 11.17v1.19H77.65v-1.19h5V40.1h-3.87V39h3.84v-1.19L78.5 38l-.08-1.17h1.7c.3-.45.63-1 .89-1.48h-2.86c-.09 2.52-.45 5.65-1.81 7.82a5.66 5.66 0 0 0-1.29-.75c1.53-2.45 1.67-6 1.67-8.45v-4.44h11.6v3.74H78.17v.85h10.57v1.18h-2.91a16 16 0 0 1 2.91 2.37l-1.17.78a9.49 9.49 0 0 0-.78-.81l-2.79.12V39h4v1.1h-4v1.42zm-11-10.8v1.36h8.68v-1.36zm4.46 4.58c-.32.48-.65 1-1 1.43l3.92-.12c-.38-.28-.75-.57-1.11-.8l.83-.51zm11.82-5.22c-.11.3-.26.91-.33 1.19a37.07 37.07 0 0 0-.76 5.82 11.12 11.12 0 0 0 .11 1.62c.23-.62.54-1.37.78-1.93l.81.62a30.85 30.85 0 0 0-1.11 3.6 3.58 3.58 0 0 0-.08.7v.58l-1.41.09a19.41 19.41 0 0 1-.59-5 44.28 44.28 0 0 1 .67-6.17c.06-.39.12-.87.14-1.28zM98 37.64a6.14 6.14 0 0 0-.19 1.36c0 .7.52 1.25 2.39 1.25a17.49 17.49 0 0 0 3.86-.41v1.66a21.64 21.64 0 0 1-3.92.31c-2.62 0-3.84-.91-3.84-2.4a9.54 9.54 0 0 1 .27-1.91zm5.6-6.45v1.59a38.83 38.83 0 0 1-6.47 0v-1.57a29.12 29.12 0 0 0 6.47-.02zM43.83 50a17.34 17.34 0 0 0 6.76 5.44 6.43 6.43 0 0 0-1 1.3 21.37 21.37 0 0 1-2.53-1.58v1.11h-7.73v-1.06a21.22 21.22 0 0 1-2.51 1.59 5.64 5.64 0 0 0-.89-1.15A17.24 17.24 0 0 0 42.34 50zm-5.39 8h9.62v6.28h-1.49v-.58h-6.71v.61h-1.42zm8.4-3a17.63 17.63 0 0 1-3.68-3.55A16.78 16.78 0 0 1 39.64 55zm-7 4.38v3.06h6.71v-3.09zm17.62-5.84c-.2.28-.48.72-.73 1.11 0 .25 0 .51-.06.76a7.64 7.64 0 0 1 4.74-1.78 4 4 0 0 1 4.15 4c0 3.13-2.12 4.86-5.71 5.56l-.7-1.48c2.65-.39 4.8-1.55 4.8-4.11a2.61 2.61 0 0 0-2.77-2.54 6.83 6.83 0 0 0-4.62 2.09c0 .56-.05 1.11-.05 1.59 0 1.34 0 2.45.06 3.86 0 .28.06.73.1 1H55c0-.26.05-.76.05-1 0-1.44 0-2.33.06-4-.72 1.06-1.63 2.4-2.28 3.29l-1-1.36c.86-1.06 2.55-3.29 3.37-4.54l.08-1.34-2.91.35-.15-1.59h1.15c.44 0 1.28-.13 2-.23.05-.68.08-1.18.08-1.35a6.78 6.78 0 0 0-.08-1.25l1.83.07c-.08.39-.21 1.21-.32 2.21zM78.32 51a10.24 10.24 0 0 0-.08 1.22v1.93l1.43-.15c.42 0 .93 0 1.32-.09v1.53h-1.32l-1.5.08a23.29 23.29 0 0 1-.24 3.19c-.14.73-.5.93-1.25.93a17.92 17.92 0 0 1-2.15-.23v-1.36a9.66 9.66 0 0 0 1.48.19c.35 0 .5-.05.55-.38a19.26 19.26 0 0 0 .14-2.23c-1.48.11-3.17.28-4.6.42v3.67c0 1.59.1 2.08 2.62 2.08a30.08 30.08 0 0 0 4.6-.38v1.67c-1 .11-2.94.25-4.47.25-3.76 0-4.17-.84-4.23-3.38v-3.75c-.58.06-1 .11-1.39.16l-1.69.23-.17-1.58c.47 0 1.11 0 1.75-.09l1.5-.14v-1.86a11.86 11.86 0 0 0-.1-1.48h1.72a11.51 11.51 0 0 0-.08 1.4v1.83l4.63-.44v-2a9.39 9.39 0 0 0-.14-1.24zM85 52.46c1.14-.09 3.89-.36 6.73-.61 1.65-.12 3.2-.22 4.26-.25v1.56a13.56 13.56 0 0 0-3 .24 5.09 5.09 0 0 0-3.44 4.6c0 2.81 2.63 3.75 5.19 3.86l-.57 1.67c-3-.16-6.21-1.78-6.21-5.2a6.15 6.15 0 0 1 2.62-5c-1.35.16-5.15.53-6.87.89l-.17-1.7c.61 0 1.14-.03 1.46-.06zM46.58 74h1.31v11.46h-1.31v-3.92l-2.25 1.37-.61-1.31c.73-.33 1.78-.89 2.86-1.48zm-1.25 5a15.58 15.58 0 0 0-1.17-3l1.11-.5a16.1 16.1 0 0 1 1.25 3zm.37-4.18h-1.31v-2.6h5.9v-1.08h1.45v1.08h6v2.62h-1.1v3.45H49.2v-.94h6.06v-.73h-5.61v-.81h5.61v-.69h-6v-.93h7.06v-.78H45.7zm10.73 6.42a6.56 6.56 0 0 1-2.06 2.23 14.68 14.68 0 0 0 3.74.83 4.79 4.79 0 0 0-.78 1.12 13.77 13.77 0 0 1-4.2-1.22A15.09 15.09 0 0 1 49 85.47a4.64 4.64 0 0 0-.61-1.11 14.84 14.84 0 0 0 3.56-.87 6.67 6.67 0 0 1-1.59-1.59l.73-.25h-1.31v-.39h-1.24V79h9.09v2.31zm-6.65-.58h5.76l.23-.05.6.25V80h-6.59zm1.76 1a5.88 5.88 0 0 0 1.59 1.28 5.76 5.76 0 0 0 1.61-1.28zm21.97 2.08V85h-13.7v-1.26h6v-1.62H61.2v-1.27h4.65v-1.54c-1.83 0-3.53.09-4.86.14l-.06-1.33h2.19c.35-.58.73-1.28 1-1.91h-2.55v-1.28h10.21v1.25h-6c-.37.63-.78 1.3-1.18 1.88l4.96-.06c-.42-.35-.86-.69-1.26-1l1-.72a19.84 19.84 0 0 1 3.53 3l-1.14.8a9 9 0 0 0-.83-.91l-3.57.13v1.59h4.89v1.27h-4.85v1.62zm-12.16-8.48h-1.42v-3h5.92v-1.12h1.48v1.11h6v3h-1.44v-1.7H61.35zm25.22 2.25a5.42 5.42 0 0 1 1.56 3.64c0 2.31-2.13 3.85-5.28 3.85-2.24 0-4-1-4-3.55 0-.4 0-1 .11-1.67a16.06 16.06 0 0 1-3.09-.54l.07-1.5a12.63 12.63 0 0 0 3.17.62c.1-.81.21-1.67.32-2.48a18.71 18.71 0 0 1-3.2-.54l.07-1.44a14.7 14.7 0 0 0 3.3.59c.06-.56.11-1.06.14-1.45a6.18 6.18 0 0 0 0-1.22l1.75.1c-.11.48-.17.84-.23 1.21l-.19 1.41a18.39 18.39 0 0 0 3-.2l-.05 1.46A27.92 27.92 0 0 1 81 76c-.11.8-.22 1.65-.31 2.47h.22a24.71 24.71 0 0 0 3.09-.24v1.47a27.26 27.26 0 0 1-2.89.15h-.59c0 .55-.08 1-.08 1.34 0 1.39.81 2.22 2.47 2.22 2.26 0 3.62-1 3.62-2.45a4.23 4.23 0 0 0-1.64-3.09zM33.41 95a4.52 4.52 0 0 0-.28.9 15.49 15.49 0 0 1-2.33 5.73 12.13 12.13 0 0 1-6.21 4.23l-1.33-1.47a10.28 10.28 0 0 0 6.09-3.71 10.74 10.74 0 0 0 1.95-4.79h-7.66c-.67 0-1.3 0-1.69.06v-1.71a14.52 14.52 0 0 0 1.69.13h7.57a4.23 4.23 0 0 0 1-.11zm15.52 8.58v2h-1.7v-.87h-8.02v.87h-1.67V94.55H49v1.34zm-9.74-7.44v7h8.1v-7zm13.35 2.32c.5 0 1.47.09 2.31.09h8.48c.77 0 1.37-.06 1.75-.09v1.92c-.34 0-1-.07-1.73-.07h-8.5c-.87 0-1.79 0-2.31.07zm19.18-4.87c0 .32-.06.71-.06 1.15V100c0 .41 0 1 .06 1.26h-1.83c0-.26.08-.81.08-1.26v-5.26c0-.28 0-.83-.06-1.15zm7.21-.13c0 .41-.06.87-.06 1.44v2.78c0 3.57-.56 4.9-1.72 6.21a8.7 8.7 0 0 1-3.73 2.28l-1.29-1.36a7.23 7.23 0 0 0 3.77-2c1.1-1.23 1.3-2.45 1.3-5.18V94.9a11.33 11.33 0 0 0-.1-1.44zm11.48 8.59a14.91 14.91 0 0 0 5.42-5.89l1 1.7a16 16 0 0 1-5.48 5.65 17.26 17.26 0 0 1-6 2.33l-1-1.61a16.26 16.26 0 0 0 6.06-2.18zm-.53-5l-1.23 1.26a35.87 35.87 0 0 0-3.9-3.3l1.13-1.22a30.54 30.54 0 0 1 4 3.26zm18.77-1.62a3.63 3.63 0 0 0 1.17-.16l1.28.78a6 6 0 0 0-.44 1 15.5 15.5 0 0 1-2.74 5.31 14.13 14.13 0 0 1-6.25 4.31l-1.45-1.3a12.56 12.56 0 0 0 6.26-3.88 11.82 11.82 0 0 0 2.37-4.61H104a16.36 16.36 0 0 1-4 3.81l-1.38-1a13.44 13.44 0 0 0 4.91-5.17 7.39 7.39 0 0 0 .57-1.41l1.81.6c-.31.47-.64 1.06-.81 1.37-.08.14-.14.27-.23.41zm1.25-2.63a23.05 23.05 0 0 1 1.26 2.14l-1 .44a18.55 18.55 0 0 0-1.23-2.15zm1.76-.67a18.17 18.17 0 0 1 1.3 2.13l-1 .45a15.15 15.15 0 0 0-1.28-2.16z"/></g></g></svg>