<svg xmlns="http://www.w3.org/2000/svg" viewBox="0 0 133.26 133.26"><defs><style>.cls-1{fill:#fff}.cls-2{fill:#73c6c7}</style></defs><title>i-label9</title><g id="Layer_2" data-name="Layer 2"><g id="SVG"><circle class="cls-1" cx="66.63" cy="66.63" r="65.13" transform="rotate(-67.5 66.628 66.633)"/><path class="cls-2" d="M66.63 3A63.63 63.63 0 1 1 3 66.63 63.7 63.7 0 0 1 66.63 3m0-3a66.63 66.63 0 1 0 66.63 66.63A66.63 66.63 0 0 0 66.63 0z"/><path d="M43.88 34.69h8V36h-8zm7.79-3h-7.42v-1.28h3v-1.55h1.4v1.55h3zm-6.81 5.55h6.23v5.83h-1.42v-.78H46.2v.85h-1.34zm.94-2.63a11 11 0 0 0-.61-2.42l1.2-.26a10 10 0 0 1 .69 2.39zm.4 3.9V41h3.47v-2.51zm2.52-4.16a20.19 20.19 0 0 0 .78-2.5l1.37.31c-.34.88-.69 1.84-1 2.48zm9.5-4c-.61 1.48-1.36 3.28-2 4.64A5 5 0 0 1 58 38.64a2.42 2.42 0 0 1-.79 2.15 2.48 2.48 0 0 1-1 .37 10.41 10.41 0 0 1-1.28 0 3.45 3.45 0 0 0-.39-1.44 8 8 0 0 0 1.06 0 1.37 1.37 0 0 0 .63-.17c.31-.19.42-.59.42-1.16a4.6 4.6 0 0 0-1.84-3.34c.56-1.21 1.17-2.85 1.6-4.07h-2.56v12.14h-1.42V29.69h4.48l.24-.06zm15.32 11.17v1.19H62v-1.19h5V40.1h-3.84V39H67v-1.19l-4.12.19-.08-1.17h1.7c.3-.45.63-1 .89-1.48h-2.85c-.1 2.52-.46 5.65-1.81 7.82a5.52 5.52 0 0 0-1.3-.75c1.53-2.45 1.67-6 1.67-8.45v-4.44h11.6v3.74H62.55v.85h10.57v1.18h-2.9a15.89 15.89 0 0 1 2.9 2.37l-1.12.78a8.16 8.16 0 0 0-.78-.81l-2.75.12V39h4v1.1h-4v1.42zm-11-10.8v1.36h8.68v-1.36zM67 35.3c-.33.48-.66 1-1 1.43l4-.12c-.37-.28-.75-.57-1.11-.8l.83-.51zm14.92 5.63a9.6 9.6 0 0 0 1.37-.22A4.44 4.44 0 0 0 87 36.33 4.09 4.09 0 0 0 83.32 32a36.24 36.24 0 0 1-.92 4.34c-.94 3.15-2.22 4.91-3.76 4.91S75.7 39.54 75.7 37a6.72 6.72 0 0 1 6.92-6.42 5.73 5.73 0 0 1 6.07 5.84c0 3.23-2.08 5.48-5.85 6zM80.82 36a21.76 21.76 0 0 0 .85-4 5.18 5.18 0 0 0-4.41 4.77c0 1.78.8 2.6 1.42 2.6s1.43-.95 2.14-3.37zM18.11 54a7.47 7.47 0 0 0 1.41-.09v1.65a13.44 13.44 0 0 0-1.39-.05h-1.34V56c0 4-.81 6.25-4.1 7.89l-1.2-1.25c2.63-1.07 3.87-2.41 3.87-6.55v-.63h-3.71v2.35c0 .64 0 1.29.06 1.51h-1.55c0-.22.07-.87.07-1.51v-2.34H8.85c-.66 0-1.23 0-1.46.05v-1.67a10.49 10.49 0 0 0 1.46.15h1.38v-1.83c0-.55-.06-1.05-.07-1.25h1.57a11.23 11.23 0 0 0-.08 1.25V54h3.71v-1.85a11.66 11.66 0 0 0-.07-1.36h1.59a10.78 10.78 0 0 0-.09 1.36V54zm10.95 7.8a13 13 0 0 0 .1 1.84h-1.74c0-.34.08-1.2.08-1.84v-5.56a25.21 25.21 0 0 1-5.08 2.29l-.8-1.53A20.83 20.83 0 0 0 28 54.18a15.84 15.84 0 0 0 3.67-3.5l1.2 1.2a23.85 23.85 0 0 1-3.76 3.36zm16.73-8.92a5.34 5.34 0 0 0-.41.8 22.33 22.33 0 0 1-2.3 4.46 41.78 41.78 0 0 1 4 4.58l-1.26 1.2a33.23 33.23 0 0 0-3.71-4.54 18.13 18.13 0 0 1-5.41 4.48l-1.13-1.33A15.89 15.89 0 0 0 41.36 58a13.09 13.09 0 0 0 2.24-4.12h-5.16c-.55 0-1.31.08-1.53.09v-1.79a12.72 12.72 0 0 0 1.53.11h5.21a4 4 0 0 0 1.23-.17l.54.47a17.7 17.7 0 0 0-1-1.94l.91-.42a21.09 21.09 0 0 1 1.13 2.14l-.8.39zm1.21-3.2a21.23 21.23 0 0 1 1.15 2.13l-.91.45a19.24 19.24 0 0 0-1.14-2.16zm6.06 1.58a11.87 11.87 0 0 0-.33 1.19 35.87 35.87 0 0 0-.73 5.82 12.84 12.84 0 0 0 .11 1.62c.24-.62.55-1.37.79-1.93l.81.62a30.85 30.85 0 0 0-1.11 3.61 2.51 2.51 0 0 0-.08.7v.58l-1.4.09a18.93 18.93 0 0 1-.6-5 44.29 44.29 0 0 1 .67-6.16 10.66 10.66 0 0 0 .15-1.28zm3.56 7.55a5.74 5.74 0 0 0-.19 1.38c0 .7.51 1.25 2.39 1.25a17.34 17.34 0 0 0 3.85-.44v1.66a21.43 21.43 0 0 1-3.91.31c-2.6.03-3.76-.88-3.76-2.38a9.5 9.5 0 0 1 .26-1.9zm5.6-6.44V54a39 39 0 0 1-6.48 0v-1.62a28.63 28.63 0 0 0 6.48-.01zM72.72 50a17.34 17.34 0 0 0 6.76 5.44 6.43 6.43 0 0 0-1 1.3A20.49 20.49 0 0 1 76 55.16v1.11h-7.78v-1.06a21.22 21.22 0 0 1-2.51 1.59 5.31 5.31 0 0 0-.89-1.15A17.24 17.24 0 0 0 71.23 50zm-5.39 8H77v6.28h-1.54v-.58h-6.71v.61h-1.42zm8.4-3a17.63 17.63 0 0 1-3.68-3.55A16.78 16.78 0 0 1 68.53 55zm-7 4.38v3.06h6.71v-3.09zm17.62-5.84c-.2.28-.48.72-.73 1.11 0 .25-.05.51-.06.76a7.64 7.64 0 0 1 4.74-1.78 4 4 0 0 1 4.15 4c0 3.13-2.12 4.86-5.71 5.56L88 61.72c2.65-.39 4.81-1.55 4.81-4.11a2.62 2.62 0 0 0-2.78-2.54 6.83 6.83 0 0 0-4.62 2.09v1.59c0 1.34 0 2.45.06 3.86 0 .28.06.73.1 1h-1.7v-1c0-1.44 0-2.33.06-4-.72 1.06-1.62 2.4-2.28 3.29l-1-1.36c.86-1.06 2.55-3.29 3.37-4.54l.08-1.34-2.84.34-.15-1.59h1.15c.44 0 1.28-.13 2-.23 0-.68.08-1.18.08-1.35a6.78 6.78 0 0 0-.08-1.25l1.83.07c-.08.39-.21 1.21-.31 2.21zm18.1.28a23.37 23.37 0 0 1-2.75.55 27.26 27.26 0 0 1-3.35 6.57l-1.5-.77a22.37 22.37 0 0 0 3.23-5.63h-1.11c-.59 0-1.23 0-1.86-.06L97 53.07c.61.06 1.35.09 2 .09s1 0 1.59-.06a12.55 12.55 0 0 0 .46-2.62l1.7.16c-.13.53-.33 1.38-.56 2.26a16.68 16.68 0 0 0 2.24-.53zm1.9 1.61v1.81c0 .63.06 1.39.11 2.26a10.47 10.47 0 0 1 3.2 2l-.83 1.33a12.28 12.28 0 0 0-2.31-1.72v.42c0 1.32-.8 2.38-2.82 2.38-1.8 0-3.25-.77-3.25-2.38 0-1.45 1.31-2.48 3.23-2.48a7 7 0 0 1 1.3.11c-.07-1.22-.15-2.67-.18-3.68zm-1.34 5a5.36 5.36 0 0 0-1.42-.18c-1 0-1.7.45-1.7 1.07s.53 1.11 1.59 1.11S105 61.8 105 61v-.55zm4.23-4.43a20.28 20.28 0 0 0-3.6-2.15l.78-1.21a26.37 26.37 0 0 1 3.7 2.08zm5.52-2.24a33 33 0 0 0 .11 3.48c.23 2.43.86 4.06 1.89 4.06.78 0 1.45-1.69 1.79-3.11l1.25 1.45c-1 2.66-1.93 3.58-3.07 3.58-1.56 0-3-1.5-3.42-5.58a39.73 39.73 0 0 1-.17-4.13 8.07 8.07 0 0 0-.11-1.45h1.89a12.23 12.23 0 0 0-.16 1.7zm10.83 6.43l-1.61.62c-.24-2.65-1.13-6-2.7-7.82l1.55-.51a16.32 16.32 0 0 1 2.76 7.71zM50.34 77.35V79H36.13v-1.6zm7.25 1.35v5.38c0 .61-.13 1-.52 1.17a4.47 4.47 0 0 1-1.83.22 3.56 3.56 0 0 0-.39-1.15h1.28c.15 0 .25-.07.25-.24v-5.24l-2.54.28c0 2-.19 4.65-1.28 6.34a4.23 4.23 0 0 0-1-.66 11 11 0 0 0 1.12-5.56l-1 .11-.14-1.18 1.1-.11v-4.8h1.38a16.78 16.78 0 0 0 .51-2.13l1.56.29c-.25.63-.51 1.3-.73 1.84h2.19v4.3l.68-.06v1.12zm-1.21-1v-3.28h-2.54V78zm-1.26-2.76a6.7 6.7 0 0 1 .84 2l-1 .4a6.65 6.65 0 0 0-.78-2zm.36 8.06h-.88v-3.6h.88zm9.83-4.92A10.44 10.44 0 0 1 63 82.72a8.28 8.28 0 0 0 3.24 1.55 5.78 5.78 0 0 0-.87 1.19A9 9 0 0 1 62 83.65a11 11 0 0 1-3.34 1.84 5.21 5.21 0 0 0-.79-1.22A9.34 9.34 0 0 0 61 82.65a11 11 0 0 1-1.83-3.31l1-.24h-1.54v-1.29h5.54l.25-.07zm-4.66-4.29a4.66 4.66 0 0 1-1.52 3.81 5.25 5.25 0 0 0-1-.84 3.47 3.47 0 0 0 1.26-3v-2H64v3.51c0 .26 0 .43.06.48a.29.29 0 0 0 .22.06h.34a.64.64 0 0 0 .27 0 .52.52 0 0 0 .15-.35c0-.2 0-.67.07-1.26a3.15 3.15 0 0 0 1 .56 8.69 8.69 0 0 1-.11 1.46 1 1 0 0 1-.5.56 2 2 0 0 1-.75.14H64a1.32 1.32 0 0 1-.92-.31c-.23-.22-.32-.5-.32-1.39V73h-2.11zm-.3 5.32a8.2 8.2 0 0 0 1.59 2.67 8.27 8.27 0 0 0 1.62-2.67zm20.8-5.55v.69c-.22 7-.4 9.46-1 10.24a1.75 1.75 0 0 1-1.36.73 16.55 16.55 0 0 1-2.35 0 3.42 3.42 0 0 0-.47-1.4c1 .07 1.9.09 2.29.09a.71.71 0 0 0 .66-.26c.5-.52.7-2.88.9-8.76h-3.73a15.89 15.89 0 0 1-1.42 2.62 7.12 7.12 0 0 0-1.14-.81v7.16H69.3v1.19H68V73.64h1.75a19.08 19.08 0 0 0 .55-2.53l1.57.27c-.26.78-.56 1.6-.81 2.26h2.5v3a14.93 14.93 0 0 0 2.33-5.48l1.4.33c-.19.72-.39 1.43-.64 2.12zM69.3 74.9v3h2.9v-3zm2.9 7.68v-3.45h-2.9v3.45zm5.2-1.21a24.83 24.83 0 0 0-2.28-3.61l1.14-.64a28.25 28.25 0 0 1 2.36 3.48zM91.18 75a23.94 23.94 0 0 1-2.75.54 27.18 27.18 0 0 1-3.36 6.58l-1.5-.77a22.58 22.58 0 0 0 3.24-5.63H85.7c-.6 0-1.24 0-1.86-.07l-.11-1.43c.61.06 1.34.09 2 .09s1 0 1.59-.06a12.52 12.52 0 0 0 .45-2.62l1.7.15c-.12.53-.32 1.39-.56 2.27a18.52 18.52 0 0 0 2.25-.53zm1.9 1.61v1.81c0 .63.07 1.38.11 2.26a10.09 10.09 0 0 1 3.2 1.95L95.55 84a12.28 12.28 0 0 0-2.31-1.72v.42c0 1.31-.8 2.37-2.83 2.37-1.79 0-3.25-.76-3.25-2.37 0-1.45 1.32-2.48 3.24-2.48a6.81 6.81 0 0 1 1.29.11c-.06-1.22-.14-2.67-.17-3.68zm-1.34 5a5.41 5.41 0 0 0-1.42-.19c-1 0-1.7.46-1.7 1.08s.53 1.11 1.59 1.11a1.34 1.34 0 0 0 1.54-1.45c0-.16 0-.31-.01-.53zM96 77.2a20.06 20.06 0 0 0-3.64-2.2l.78-1.2a25.81 25.81 0 0 1 3.7 2.08zm-62.42 27.12a29.13 29.13 0 0 0-1.82-2.45 7.73 7.73 0 0 1-2.59 4.58 5.38 5.38 0 0 0-1-1c1.87-1.39 2.38-3.66 2.52-5.72h-2.37v-1.35h2.42V96.1h-2.12v-1.3h2.12v-2.32h1.36v2.32h2.09v1.3H32.1v2.28h2.36v1.32h-2.41c0 .22 0 .46-.06.68.64.62 2.22 2.42 2.59 2.88zm7.51.77c.28 0 .34-.22.39-2a3.24 3.24 0 0 0 1.19.55c-.11 2.15-.46 2.7-1.45 2.7h-1.16c-1.2 0-1.45-.42-1.45-1.7v-3h-1.13c-.28 2.31-1 4-3.69 5a3.72 3.72 0 0 0-.82-1.08 4.09 4.09 0 0 0 3.14-3.92H35V92.9h6.73v8.74H40v3c0 .39 0 .44.35.44zm-4.74-9.65h4v-1.23h-4zm0 2.45h4v-1.28h-4zm0 2.44h4v-1.27h-4zm20.79-6a11.19 11.19 0 0 1-2.43 4.11 10.69 10.69 0 0 0 3.71 1.92 6.41 6.41 0 0 0-.9 1.22l-.52-.21v5.23h-1.4v-.6h-3.86v.61H50.4v-5.11a10.28 10.28 0 0 1-1 .42 6.1 6.1 0 0 0-.83-1.17h.09c-.23-.44-.64-1.06-1-1.63v7.55h-1.41v-6.78a15.25 15.25 0 0 1-1.86 3.94 5.79 5.79 0 0 0-.7-1.3 16.64 16.64 0 0 0 2.42-5.6h-2.06v-1.35h2.2v-3.26h1.36v3.26h1.9v.85a11.44 11.44 0 0 0 2.7-4.13l1.39.38A12.48 12.48 0 0 1 53 94h3l.27-.06zm-8.22 6.3a12.43 12.43 0 0 0 3.84-2.21 11.61 11.61 0 0 1-1.42-1.88A13.75 13.75 0 0 1 50 98a7.1 7.1 0 0 0-1.12-1l.11-.09h-1.38v.53c.42.45 1.64 2 1.93 2.31zm7.13.31a12.13 12.13 0 0 1-2.31-1.56 13.31 13.31 0 0 1-2.23 1.56zm-.45 3.84v-2.61h-3.86v2.61zm-3.31-9.56l-.14.22a9.09 9.09 0 0 0 1.56 2.09 9.57 9.57 0 0 0 1.61-2.31zm14.01 9.25a9.37 9.37 0 0 0 1.37-.22 4.45 4.45 0 0 0 3.75-4.39 4.09 4.09 0 0 0-3.72-4.31 34 34 0 0 1-.92 4.34c-.93 3.15-2.21 4.92-3.76 4.92s-2.93-1.73-2.93-4.31A6.72 6.72 0 0 1 67 94.08a5.73 5.73 0 0 1 6.07 5.84c0 3.23-2.07 5.48-5.85 6zm-1.09-4.91a21.58 21.58 0 0 0 .84-4 5.19 5.19 0 0 0-4.4 4.78c0 1.78.79 2.59 1.42 2.59s1.42-.93 2.14-3.37zm23.45-.73a24.74 24.74 0 0 1-3 2 8 8 0 0 0 3.76 3.36 5 5 0 0 0-1 1.26c-2.87-1.39-4.56-4.31-5.49-8a9.65 9.65 0 0 1-1.44 1c2.95 2.57 2.89 6.49 1.37 7.58a2.41 2.41 0 0 1-1.74.58h-1.35a3.42 3.42 0 0 0-.4-1.39 13.59 13.59 0 0 0 1.45.07 1.34 1.34 0 0 0 1-.31 2.54 2.54 0 0 0 .51-2.39 22.36 22.36 0 0 1-6.21 3.31 7.32 7.32 0 0 0-.76-1.2 17.45 17.45 0 0 0 6.58-3.36 7.56 7.56 0 0 0-.42-.79 23.33 23.33 0 0 1-4.88 2.48 5.06 5.06 0 0 0-.74-1.12 16.85 16.85 0 0 0 5-2.24 5.06 5.06 0 0 0-.58-.54 23.37 23.37 0 0 1-3.76 1.39 7.21 7.21 0 0 0-.76-1.13 18.58 18.58 0 0 0 5.12-1.9h-2.98v-1.22h8.53v1.25h-2.29a15.07 15.07 0 0 0 .82 2.25 19.81 19.81 0 0 0 2.51-1.91zm-11.43-2H75.8v-3.2h5.68v-1.31H83v1.31h5.77v3.25h-1.48V95H77.23zm19.58 7.64a24.89 24.89 0 0 1-4.93 2.17 7.41 7.41 0 0 0-1-1.11 20.11 20.11 0 0 0 4.65-2zm7.93-2.55v1.36H91v-1.36zm-2.09-9V101h-9.44v-8.1zm-8 2.36h6.52v-1.23h-6.54zm0 2.29h6.52v-1.22h-6.54zm0 2.31h6.52v-1.24h-6.54zm5.4 3.7a45.41 45.41 0 0 1 4.9 2.06l-1.43 1a33 33 0 0 0-4.52-2.07z"/></g></g></svg>