<svg xmlns="http://www.w3.org/2000/svg" viewBox="0 0 133.26 133.26"><defs><style>.cls-1{fill:#fff}.cls-2{fill:#73c6c7}</style></defs><title>i-label5</title><g id="Layer_2" data-name="Layer 2"><g id="SVG"><circle class="cls-1" cx="66.63" cy="66.63" r="65.13" transform="rotate(-67.5 66.628 66.633)"/><path class="cls-2" d="M66.63 3A63.63 63.63 0 1 1 3 66.63 63.7 63.7 0 0 1 66.63 3m0-3a66.63 66.63 0 1 0 66.63 66.63A66.63 66.63 0 0 0 66.63 0z"/><path d="M32.93 37.58A26.64 26.64 0 0 1 31.46 41v10.43h-1.37V43.3A15.56 15.56 0 0 1 29 44.65a7.79 7.79 0 0 0-.81-1.45 17.39 17.39 0 0 0 3.35-6zm5.24 8.84a5.48 5.48 0 0 1-1.07 2.51A19.4 19.4 0 0 0 42.81 50a5.35 5.35 0 0 0-.88 1.34 17.33 17.33 0 0 1-5.87-1.41 10.07 10.07 0 0 1-3.27 1.55 5.36 5.36 0 0 0-.89-1.19 9.87 9.87 0 0 0 2.89-1.07 7.66 7.66 0 0 1-2.08-2l1.29-.48a5.65 5.65 0 0 0 1.86 1.61 4 4 0 0 0 .92-1.93h-3.59v-6h3.7v-1.18h-4V38h9.5v1.27h-4v1.15h3.59v6zm-3.63-3.53h2.35v-1.41h-2.35zm2.34 2.43v-1.4h-2.34v1.4zm3.62-1.4h-2.17v1.4h2.17zm-2.17-2.44v1.41h2.17v-1.41zM54 44.43a11.16 11.16 0 0 0 4.51 2.22 5.35 5.35 0 0 0-.92 1.14 8.63 8.63 0 0 1-.86-.28v3.92h-1.35v-.5H53v.54h-1.32v-5.12h2.69a9.24 9.24 0 0 1-2.22-1.92H50a10.61 10.61 0 0 1-2.37 1.92h2.74v5.08H49v-.5h-2.36v.54h-1.3v-4c-.26.11-.53.22-.81.31a5.62 5.62 0 0 0-.89-1.12 13.37 13.37 0 0 0 4.3-2.24H44.1v-1.27h5.12a7.06 7.06 0 0 0 .68-1h-4.79v-4.4h5.15v3.88l1.31.43a8.14 8.14 0 0 1-.57 1.09h7v1.28zm-5.12-5.51h-2.44v2h2.43zm.12 8.64h-2.36v2.15H49zm8-5.44h-5.16v-4.37H57zm-1.62 7.59v-2.15H53v2.15zm.24-10.79h-2.46v2h2.46zm17.02 10.81c0 .82-.21 1.23-.74 1.45a7.92 7.92 0 0 1-2.74.25 4.84 4.84 0 0 0-.46-1.34h2.11c.26 0 .38-.11.38-.37v-10.5h-8.7V43c0 2.53-.26 6.15-2 8.51a5.61 5.61 0 0 0-1.18-.94c1.56-2.17 1.71-5.26 1.71-7.57v-5.14h11.62zM66 43.11v-1.3h-2.57v-1.14H66v-1.2h1.38v1.2h2.71v1.14h-2.71v1.3h3.06v1.17h-7.36v-1.17zm-.93 6.41v.88h-1.32v-5h6v4.12zm0-3v1.85h3.32v-1.84zm14.8-8.67a26.34 26.34 0 0 0-.67 3.82c.67-1.42 2.17-3.07 4-3.07 2.1 0 3.67 2.07 3.67 5.4 0 4.31-2.71 6.29-6.64 7l-.94-1.41c3.39-.53 5.92-1.78 5.92-5.6 0-2.41-.8-4-2.28-4-1.87 0-3.59 2.78-3.71 4.8a6.78 6.78 0 0 0 0 1.78l-1.51.11a18.07 18.07 0 0 1-.19-2.49 40.77 40.77 0 0 1 .47-5c.06-.52.11-1.05.13-1.46zm16.98.25c-.08.33-.18.71-.24 1.06s-.22 1.22-.36 1.92c.63 0 1.19-.08 1.55-.08 1.48 0 2.62.63 2.62 2.78a15.15 15.15 0 0 1-.87 5.6 2.33 2.33 0 0 1-2.39 1.34 8.2 8.2 0 0 1-1.84-.23l-.27-1.62a8.8 8.8 0 0 0 1.95.33 1.23 1.23 0 0 0 1.26-.74 12.36 12.36 0 0 0 .65-4.46c0-1.33-.6-1.54-1.58-1.54-.31 0-.83 0-1.41.07a31.34 31.34 0 0 1-3.18 8.29l-1.61-.64a23.56 23.56 0 0 0 3.2-7.47l-1.68.18c-.41 0-1.1.14-1.53.22L91 41.38h1.5c.5 0 1.33-.08 2.19-.16a19.15 19.15 0 0 0 .31-3.31zm5.55 2a29.17 29.17 0 0 1 2.6 5.24l-1.55.73a18.12 18.12 0 0 0-2.7-5.68l1.45-.64.25.34a16.2 16.2 0 0 0-1.25-2.15l1-.42a22 22 0 0 1 1.26 2.15zm1.81-.67a13 13 0 0 0-1.28-2.15l1-.43a23.38 23.38 0 0 1 1.31 2.15zM49.08 59.06a15.1 15.1 0 0 1-1.64 2.29 11.47 11.47 0 0 1 1 5.34c0 2.26-.17 4.31-.86 5.24a1.37 1.37 0 0 1-.93.57 7.53 7.53 0 0 1-2 .11 2.86 2.86 0 0 0-.4-1.41 10.51 10.51 0 0 0 1.76 0 .66.66 0 0 0 .52-.3c.39-.48.53-2.25.53-4.26v-.31a13.49 13.49 0 0 1-2.41 2.51 5.15 5.15 0 0 0-1-1.09 11 11 0 0 0 3.21-3.48 7.81 7.81 0 0 0-.47-1.86 18 18 0 0 1-1.7 1.48 6.55 6.55 0 0 0-1-.95 12.85 12.85 0 0 0 2.06-1.81 9.55 9.55 0 0 0-1.8-2l1-.78a11.05 11.05 0 0 1 1.67 1.69 17.46 17.46 0 0 0 1.18-1.64zM54.32 67a7.3 7.3 0 0 0 4 4.37 4.75 4.75 0 0 0-1 1.28 8.36 8.36 0 0 1-3.93-4.45 8.54 8.54 0 0 1-4.33 4.51 5.22 5.22 0 0 0-1-1.14A6.94 6.94 0 0 0 52.34 67H49v-1.42h3.6a16.22 16.22 0 0 0 .1-1.93v-1.83h-3.37v-1.34h3.37v-2.17h1.48v2.17h3.59v1.34h-3.59v1.84a15.67 15.67 0 0 1-.11 1.92h4V67zm-3.43-4.77a11.51 11.51 0 0 1 1 2.83l-1.28.39a11.72 11.72 0 0 0-.87-2.89zm4 2.89a21.45 21.45 0 0 0 1.17-3l1.36.39c-.44 1-.94 2.18-1.36 2.93zM70 60c-.39.3-.87.72-1.18 1-1 .87-3.17 2.56-4.26 3.48-.89.76-.89 1 0 1.75 1.29 1.07 4.21 3.43 5.73 4.93l-1.41 1.29c-.37-.43-.81-.85-1.19-1.26-.84-.91-3.34-3-4.76-4.21s-1.34-2 .11-3.24c1.19-1 3.44-2.77 4.48-3.82a9.94 9.94 0 0 0 1-1.15zm7.14.79c1.14-.09 3.89-.36 6.73-.61 1.65-.12 3.2-.22 4.26-.25v1.56a13.56 13.56 0 0 0-3 .24 5.09 5.09 0 0 0-3.42 4.63c0 2.81 2.63 3.75 5.19 3.86l-.57 1.67c-3-.16-6.21-1.78-6.21-5.2a6.14 6.14 0 0 1 2.62-5c-1.35.16-5.15.53-6.86.89l-.18-1.7c.61-.03 1.14-.06 1.44-.09zM25.06 86l.18 1.33-1.54.5v4.35c0 .72-.14 1.11-.56 1.34a4.62 4.62 0 0 1-2 .27 4.81 4.81 0 0 0-.39-1.34h1.37c.17 0 .28 0 .28-.27v-4l-1.7.53-.33-1.4c.56-.14 1.27-.33 2-.56v-3h-1.81V82.5h1.81v-3h1.33v3h1.64v1.34H23.7v2.58zm9.5 2.5h-1v2.93c0 .61-.08.94-.48 1.14a4.22 4.22 0 0 1-1.8.21 4.63 4.63 0 0 0-.28-1.17 10.54 10.54 0 0 0 1.16 0c.17 0 .2 0 .2-.18v-2.27H30.5v4.64h-1.29v-4.64h-1.64v3.55h-1.3v-4.19h-1v-3h9.32zm-1-3.65h-7.49v-1.1h6.15v-.89h-5.71v-1h5.71V81h-6v-1.06h7.33zM29.21 88v-1.29h-2.7V88zm4-1.33H30.5V88h2.75zm8.12-6.04c-.44 1.31-1 2.93-1.48 4.15A4.71 4.71 0 0 1 41.14 88a2.17 2.17 0 0 1-.64 1.86 1.93 1.93 0 0 1-.84.31 8.59 8.59 0 0 1-1 0 3 3 0 0 0-.37-1.17 5.57 5.57 0 0 0 .79 0 .91.91 0 0 0 .49-.14 1.28 1.28 0 0 0 .28-1 4.28 4.28 0 0 0-1.27-2.92c.39-1 .8-2.43 1.09-3.49H38V93.8h-1.28V80.13h3.66zm2.39 8.52a10.77 10.77 0 0 1-2.23 3.73 9.84 9.84 0 0 0-1.05-.83 8.17 8.17 0 0 0 2-3.2zm2.54-1v4.1c0 .71-.12 1.1-.58 1.33a5 5 0 0 1-2.06.25 4.65 4.65 0 0 0-.46-1.36h1.48c.2 0 .25-.07.25-.25v-4.1h-3.26v-1.25h3.26v-1.7h-2.28V84a11.15 11.15 0 0 1-1.28.92 4.77 4.77 0 0 0-.73-1.17 11.73 11.73 0 0 0 4.24-4.28h1.3a13.22 13.22 0 0 0 4.46 4.15 7.94 7.94 0 0 0-.78 1.24c-.4-.25-.81-.55-1.22-.86v1.14h-2.34v1.7h3.51v1.25zM48.51 84a15.3 15.3 0 0 1-3-3.15A14.17 14.17 0 0 1 42.72 84zm-.28 4.85a17 17 0 0 1 2.11 3.41l-1.21.61a17.62 17.62 0 0 0-2-3.5zm8.34-8.49c-.09.56-.14 1.22-.17 1.76-.06 1.72-.19 5.28-.19 7.43 0 1.63 1 2.19 2.36 2.19A6.28 6.28 0 0 0 64 88.55l1.11 1.36a7.87 7.87 0 0 1-6.57 3.47c-2.36 0-3.94-1-3.94-3.58 0-2.2.16-6.18.16-7.68a8.85 8.85 0 0 0-.16-1.78zm21.74 1.89h2.34v1.45c-.92 0-2.37-.08-4.63-.08v2.42a3.79 3.79 0 0 1 .55 2.06c0 2.06-1.09 4.5-4.76 5.56l-1.33-1.31a6 6 0 0 0 4-2.25 2.62 2.62 0 0 1-3.67-2.48 2.81 2.81 0 0 1 2.89-2.78 2.84 2.84 0 0 1 .84.11v-1.31c-2.34 0-4.86.12-6.79.26v-1.51c1.74 0 4.6-.09 6.8-.13v-.78a6.32 6.32 0 0 0-.12-1.14h1.79c0 .22-.08.91-.09 1.13s0 .47 0 .78h2.28a18.44 18.44 0 0 0-1.12-1.89l1.06-.44a18.72 18.72 0 0 1 1.12 1.86zM73.66 89c.79 0 1.38-.62 1.18-2.09a1.24 1.24 0 0 0-1.18-.72 1.39 1.39 0 0 0-1.41 1.44A1.34 1.34 0 0 0 73.66 89zm6.61-7.15a12.34 12.34 0 0 0-1.12-1.87l1-.44c.37.55.84 1.27 1.15 1.84zm6.44 5.32a7.45 7.45 0 0 1 4.79-1.69c2.52 0 4.11 1.55 4.11 3.37 0 2.8-2.37 4.79-8.4 4.29l-.48-1.6c4.77.6 7.19-.67 7.19-2.72 0-1.14-1.06-1.93-2.54-1.93a5.82 5.82 0 0 0-4.56 1.93 3.33 3.33 0 0 0-.51.83l-1.44-.35a55.68 55.68 0 0 0 .78-6.3l1.66.22c-.21.92-.47 2.99-.6 3.95zm.74-6.94a44 44 0 0 0 6.07 1.19l-.36 1.52c-1.52-.21-4.92-.91-6.1-1.22zm13.96 3.03a32.88 32.88 0 0 0 .11 3.48c.23 2.44.86 4.06 1.89 4.06.78 0 1.45-1.68 1.79-3.1l1.25 1.45c-1 2.65-1.94 3.57-3.08 3.57-1.56 0-3-1.5-3.41-5.57a40.21 40.21 0 0 1-.18-4.15 7.25 7.25 0 0 0-.11-1.45h1.89a14.18 14.18 0 0 0-.15 1.71zm10.83 6.43l-1.61.63c-.25-2.65-1.14-6-2.7-7.82l1.55-.52a16.36 16.36 0 0 1 2.76 7.71z"/></g></g></svg>