<svg xmlns="http://www.w3.org/2000/svg" viewBox="0 0 133.26 133.26"><defs><style>.cls-1{fill:#fff}.cls-2{fill:#73c6c7}</style></defs><title>i-label6</title><g id="Layer_2" data-name="Layer 2"><g id="SVG"><circle class="cls-1" cx="66.63" cy="66.63" r="65.13" transform="rotate(-67.5 66.628 66.633)"/><path class="cls-2" d="M66.63 3A63.63 63.63 0 1 1 3 66.63 63.7 63.7 0 0 1 66.63 3m0-3a66.63 66.63 0 1 0 66.63 66.63A66.63 66.63 0 0 0 66.63 0z"/><path d="M41.56 59.14a15.75 15.75 0 0 0-2.33-1.51c.32 1.63.94 2.8 2.16 2.9.22 0 .34-.56.43-1.52a4.12 4.12 0 0 0 .85.83c-.19 1.61-.69 2.19-1.59 2-2.66-.31-3.25-3.11-3.44-6.43h-2.07v6.26h-1.41v-6.26h-2.23a8.46 8.46 0 0 1-2.72 6.45 6.06 6.06 0 0 0-1.09-1 7.18 7.18 0 0 0 2.42-5.46h-2.16v-1.33h2.17v-1.72c-.53.25-1.07.48-1.57.66a6.37 6.37 0 0 0-.85-1.14A10.92 10.92 0 0 0 32.19 50l1.27.49a8.8 8.8 0 0 1-1.52 1.12v2.47h2.22v-4h1.41v4h3.37c0 .93.06 1.85.15 2.68l.3-.28a18.92 18.92 0 0 1 3 1.76zm-.19-7A15 15 0 0 0 39 50.59c.35 1.51 1 2.66 2.32 2.74.2 0 .32-.4.4-1.17a3.87 3.87 0 0 0 .86.78c-.22 1.31-.7 1.81-1.55 1.67-2.45-.31-3.21-2.46-3.54-5h-8.25v-1.34h9.48a16 16 0 0 0 .17 1.73l.48-.46a17.69 17.69 0 0 1 2.86 1.72zm.84-3.66c-.56.58-1.12 1.18-1.59 1.58l-.87-.51A12.1 12.1 0 0 0 41 47.9zm-2.46 8A12.76 12.76 0 0 0 41 54.85l1.23.61c-.58.59-1.17 1.17-1.65 1.57zm14.63-7.28a12.78 12.78 0 0 0 3.31 6.38l-1.15 1.22a17 17 0 0 1-1.67-2.52c.23 3.75-1.42 7.37-5.44 7.37a3.89 3.89 0 0 1-4.15-4.17 10 10 0 0 1 2.62-6.29c-.68.11-1.71.27-2.31.39-.28.05-.53.11-.87.19l-.22-1.62a8.38 8.38 0 0 0 .84 0 28.08 28.08 0 0 0 5.09-.89l.47 1.39a5.73 5.73 0 0 0-.81.3c-1 .78-3.26 3.62-3.26 6.37A2.5 2.5 0 0 0 49.5 60c3.12 0 4.9-3.67 3.74-9.35-.12-.32-.25-.65-.36-1zm1.45 1.64a17.74 17.74 0 0 0-1-2.25l.95-.32c.31.63.77 1.58 1 2.22zm1.67-.6a15.09 15.09 0 0 0-1-2.23l.93-.33c.34.61.78 1.56 1.06 2.22zm7.71 9.23L59.7 61l-.32-1.33.82-.18V54.3h1v4.89l.83-.19v-5.82H60.2v-4.87h4.55v4.87h-1.49v1.75h1.56v1.26h-1.56v2.5l1.74-.44zM61.38 52h2.14v-2.46h-2.14zm5.79-4.43h1.33v6.55c0 2.83-.33 6.09-3.15 7.81a6.08 6.08 0 0 0-.92-1.06 5.19 5.19 0 0 0 2.62-4.31c-.64.51-1.3 1-1.89 1.5l-.8-1.35c.71-.36 1.75-1 2.8-1.64V53l-1.06.48a11.28 11.28 0 0 0-1.29-3.34L66 49.6a13.17 13.17 0 0 1 1.21 2.66zm5.19 12.81c.28 0 .32-.4.37-1.76a3 3 0 0 0 1.2.56c-.12 1.83-.45 2.5-1.48 2.5h-1.36c-1.15 0-1.48-.42-1.48-2V47.53H71v5.07a20.48 20.48 0 0 0 1.4-3.12l1.34.64c-.61 1.15-1.31 2.49-1.9 3.35L71 53v1.68l.26-.25a24 24 0 0 1 2.7 2.36l-.93 1a24.5 24.5 0 0 0-2-2v3.73c0 .62 0 .73.37.73zm8.53-9.28c-.21.28-.49.72-.74 1.11v.5c1.27-1.13 3.09-2.41 4.72-2.41 2.16 0 3.33 1.88 3.33 4.53a13.94 13.94 0 0 1-.2 2.53 10.83 10.83 0 0 1 1.67 1.48l-.81 1.28a17 17 0 0 0-1.26-1.28 3 3 0 0 1-3 2c-1.58 0-2.87-.69-2.87-2.35 0-1.29 1.15-2.24 2.85-2.24a5.69 5.69 0 0 1 2 .37 14.87 14.87 0 0 0 .11-2c0-1.81-.86-3-2.09-3-1.42 0-3.26 1.44-4.59 2.86v1.76c0 1.35 0 2.45.07 3.86 0 .28.06.73.09 1H78.4v-1c0-1.44 0-2.32.06-4-.72 1.06-1.62 2.4-2.28 3.29l-1-1.36c.85-1.06 2.54-3.29 3.37-4.54l.08-1.34-2.92.39-.07-1.54a11.46 11.46 0 0 0 1.16 0c.48 0 1.28-.12 2-.23.05-.67.08-1.17.08-1.35a6.62 6.62 0 0 0-.08-1.24l1.83.06c-.08.39-.2 1.22-.31 2.21zm5.37 6.9a4 4 0 0 0-1.86-.48c-.74 0-1.39.39-1.39 1 0 .73.65 1 1.43 1A1.89 1.89 0 0 0 86.26 58zm10.65-9.49c-.08.33-.17.72-.24 1.06s-.21 1.22-.36 1.92c.63-.05 1.19-.08 1.55-.08 1.48 0 2.62.63 2.62 2.78a15.24 15.24 0 0 1-.87 5.61 2.34 2.34 0 0 1-2.39 1.34 8.26 8.26 0 0 1-1.84-.24l-.27-1.62a8.31 8.31 0 0 0 1.91.33 1.22 1.22 0 0 0 1.26-.74 12.33 12.33 0 0 0 .72-4.51c0-1.32-.59-1.54-1.58-1.54-.31 0-.83 0-1.4.08a31.81 31.81 0 0 1-3.19 8.28l-1.61-.64a23.56 23.56 0 0 0 3.2-7.47l-1.68.18c-.41 0-1.09.14-1.53.22L91 51.79h1.5c.5 0 1.33-.08 2.19-.16a18.22 18.22 0 0 0 .37-3.31zm5.55 2a29.5 29.5 0 0 1 2.54 5.24l-1.55.74a17.75 17.75 0 0 0-2.7-5.69l1.46-.64.24.35a17.4 17.4 0 0 0-1.24-2.16l1-.42a24.44 24.44 0 0 1 1.27 2.16zm1.82-.67A14.52 14.52 0 0 0 103 47.7l1-.42a22.12 22.12 0 0 1 1.3 2.13zM45.09 78.51a12.75 12.75 0 0 0 5.34 3 6.58 6.58 0 0 0-1 1.22 13.84 13.84 0 0 1-5.54-3.62V83h-1.44v-4a14.42 14.42 0 0 1-5.51 3.73 6.86 6.86 0 0 0-.94-1.1 13.37 13.37 0 0 0 5.32-3.12h-5v-1.3h6.1v-1.53h1.47v1.53h6.17v1.3zm-6.35-5.43a14.85 14.85 0 0 0-2.66-1.14l.61-1a13.55 13.55 0 0 1 2.66 1zm-2.28 2.66A32.44 32.44 0 0 0 39.32 73l.87.89c-.86 1-1.81 2-2.67 2.84zm3.42-4.87a18.19 18.19 0 0 0-2.69-1.12l.56-1a15 15 0 0 1 2.7 1zm4.59.8a6.21 6.21 0 0 1-3.77 4.79 5.77 5.77 0 0 0-1-1.07 4.87 4.87 0 0 0 3.3-3.72h-2.2v-1.28h2.44c.06-.51.08-1.08.09-1.69h1.45a17 17 0 0 1-.12 1.7h3v3.84a1 1 0 0 0 .08.52.58.58 0 0 0 .28.07h.45a.87.87 0 0 0 .35-.07c.08 0 .15-.16.18-.41s0-.8.07-1.5a4.3 4.3 0 0 0 1.23.67 7.67 7.67 0 0 1-.2 1.72 1 1 0 0 1-.58.64 2.18 2.18 0 0 1-.89.16h-.93a1.82 1.82 0 0 1-1.06-.32c-.25-.25-.38-.56-.38-1.51v-2.54zm20.64 7.8a16.91 16.91 0 0 0-1.48-1.15 7.56 7.56 0 0 1-4 4.42l-1.31-1.08a6.62 6.62 0 0 0 4-4.15 11.09 11.09 0 0 0-4.07-1.33 29.66 29.66 0 0 1-1.88 3.89 2.42 2.42 0 0 1-2.15 1.2A2.12 2.12 0 0 1 52.06 79c0-2.33 2.14-4.13 5.2-4.23.5-1.13 1-2.33 1.43-3.17-.6 0-2.24.09-2.95.14-.32 0-.81.06-1.2.11l-.06-1.6h1.22c.84 0 2.7-.08 3.38-.14A2.55 2.55 0 0 0 60 70l1 .78a3.11 3.11 0 0 0-.45.58c-.41.67-1 2.12-1.64 3.51A14.07 14.07 0 0 1 62.67 76c0-.29.08-.59.1-.87a13 13 0 0 0 0-1.53l1.59.17a20.9 20.9 0 0 1-.31 2.94c.7.39 1.29.79 1.78 1.12zm-8.49-3.3c-2 .23-3.12 1.42-3.12 2.59a.81.81 0 0 0 .76.89c.33 0 .56-.13.87-.53a21.07 21.07 0 0 0 1.49-2.95zm14.24 3.52c.69 1.08 2 1.58 3.68 1.64s5.2 0 7.15-.11a6.85 6.85 0 0 0-.48 1.49c-1.76.07-4.9.11-6.68 0a5.36 5.36 0 0 1-4.31-1.8c-.73.64-1.48 1.27-2.29 1.94l-.75-1.5a24.5 24.5 0 0 0 2.26-1.61V76.1h-2v-1.34h3.42zm-.72-7.29a11.68 11.68 0 0 0-2.6-2.46l1.07-.88a12.15 12.15 0 0 1 2.67 2.39zm6.82-3c.32 4.61 1.41 8.31 4.56 9.91a6.62 6.62 0 0 0-1.14 1.11 9.06 9.06 0 0 1-4-5.76 10.71 10.71 0 0 1-3.9 5.76 10.87 10.87 0 0 0-1.14-1.09c2.21-1.37 3.48-3.75 4.05-6.84l.53.08c-.09-.58-.15-1.19-.21-1.79H73v-1.36zm18.34 8.37v1.74a2.52 2.52 0 0 1-2.14 2.65 16.32 16.32 0 0 1-3.28.31c-3.31 0-3.64-.92-3.64-2a5.33 5.33 0 0 1 0-.56 2.47 2.47 0 0 1-.39 0c-1 0-2.12-.72-2.12-2.59a2.87 2.87 0 0 1 2.68-3.12 1.06 1.06 0 0 1 .25 0v-1.3h-.45a21.49 21.49 0 0 1-2.48-.14l-.1-1.45a16 16 0 0 0 2.48.2 5.15 5.15 0 0 0 .55 0V71a7.85 7.85 0 0 0-.12-1.67h1.71a11 11 0 0 0-.1 1.67v.37a19.76 19.76 0 0 0 2.85-.5v1.49a20.83 20.83 0 0 1-2.87.45V75a2.43 2.43 0 0 1 .42 1.46 4.17 4.17 0 0 1-.81 2.63v.81c0 .78.19 1.11 2.25 1.11a10.13 10.13 0 0 0 2.51-.29 1.52 1.52 0 0 0 1.22-1.63 13 13 0 0 0-.11-1.83zm-9.3.67c.82 0 1.13-.93 1.13-1.92 0-.67-.34-1.07-.81-1.07-.71 0-1.28.73-1.28 1.78.02.77.47 1.21.96 1.21zm7.58-7.58a18.39 18.39 0 0 1 3.15 2.89l-1.11 1.12a19.21 19.21 0 0 0-3.07-3z"/></g></g></svg>