<svg xmlns="http://www.w3.org/2000/svg" viewBox="0 0 133.26 133.26"><defs><style>.cls-1{fill:#fff}.cls-2{fill:#73c6c7}</style></defs><title>i-label4</title><g id="Layer_2" data-name="Layer 2"><g id="SVG"><circle class="cls-1" cx="66.63" cy="66.63" r="65.13"/><path class="cls-2" d="M66.63 3A63.63 63.63 0 1 1 3 66.63 63.7 63.7 0 0 1 66.63 3m0-3a66.63 66.63 0 1 0 66.63 66.63A66.63 66.63 0 0 0 66.63 0z"/><path d="M18.32 53.51a11.56 11.56 0 0 0-2.82-1.69l.75-1.09a12.59 12.59 0 0 1 2.86 1.58zM16 59.66a46.61 46.61 0 0 0 2.73-4.95l1.07.95c-.75 1.63-1.71 3.48-2.57 4.94zm3.13-10.24a12.14 12.14 0 0 0-2.77-1.78l.78-1.06a11 11 0 0 1 2.8 1.65zm4.71 2.87c-.14.64-.28 1.25-.41 1.84h5.23s0 .42-.06.61c-.28 3.5-.57 4.94-1.12 5.5a1.8 1.8 0 0 1-1.36.54 18.52 18.52 0 0 1-2.43 0 3 3 0 0 0-.49-1.37c1 .09 2 .09 2.38.09a.91.91 0 0 0 .69-.17c.36-.3.62-1.42.83-3.86h-4c-.08.29-.15.57-.21.82l-1.47-.21c.29-1 .62-2.35.95-3.76h-2.46v-1.39h2.77c.15-.76.29-1.51.41-2.23h-2.54v-1.36H29v1.36h-4.43c-.12.72-.27 1.47-.44 2.23h5.43v1.36zm20.6 6.2a3.93 3.93 0 0 1-2.82 1.23c-1 0-1.79-.75-1.79-2.12 0-1.7.57-4.12.57-5.59 0-.83-.41-1.2-1.13-1.2-1.18 0-2.93 1.45-4.24 2.9 0 .55-.05 1.08-.05 1.56 0 1.35 0 2.45.06 3.86 0 .28.06.73.09 1h-1.65c0-.26.05-.76.05-1 0-1.44 0-2.33.06-4-.7 1.06-1.59 2.4-2.24 3.29l-.94-1.36c.84-1.07 2.49-3.31 3.3-4.56 0-.43.06-.89.09-1.32l-2.87.39-.16-1.57h1.14c.43 0 1.27-.12 2-.23 0-.67.07-1.17.07-1.35a7.73 7.73 0 0 0-.07-1.25l1.79.07c-.08.39-.2 1.21-.31 2.21l.54.66c-.2.28-.48.72-.72 1.11 0 .22 0 .42-.05.64 1.18-1.09 3-2.45 4.52-2.45a2 2 0 0 1 2.25 2.17c0 1.56-.54 4.06-.54 5.63 0 .49.21.83.69.83a3.19 3.19 0 0 0 2.14-1.2zM47 49c1.11-.09 3.81-.36 6.59-.61 1.62-.12 3.14-.22 4.18-.25v1.56a13.08 13.08 0 0 0-2.94.24 5.08 5.08 0 0 0-3.35 4.63c0 2.81 2.57 3.75 5.08 3.86L56 60.08c-3-.15-6.09-1.78-6.09-5.2a6.18 6.18 0 0 1 2.57-5c-1.33.16-5.05.53-6.73.89l-.17-1.7c.57-.02 1.1-.07 1.42-.07zm15.53 1.28c0 1 0 2.28.11 3.48.23 2.43.84 4.06 1.85 4.06.76 0 1.42-1.69 1.76-3.11l1.22 1.45c-1 2.66-1.89 3.58-3 3.58-1.53 0-2.94-1.5-3.35-5.58a39.63 39.63 0 0 1-.18-4.16 8.07 8.07 0 0 0-.11-1.45h1.85a14 14 0 0 0-.15 1.73zm10.62 6.43l-1.57.62c-.25-2.65-1.12-6-2.65-7.82l1.51-.51a16.49 16.49 0 0 1 2.71 7.71zm12.14-7.9c-.31.2-.66.44-.94.64-.78.56-2.61 2.2-3.68 3.11a5.34 5.34 0 0 1 1.79-.27c2.54 0 4.42 1.59 4.42 3.75 0 2.48-1.94 4.24-5.34 4.24-2.1 0-3.51-1-3.51-2.35a2.36 2.36 0 0 1 2.51-2.2 3.05 3.05 0 0 1 3.19 2.71A2.53 2.53 0 0 0 85.32 56c0-1.45-1.44-2.48-3.29-2.48-2.42 0-3.86 1.16-5.65 3.09l-1.12-1.15 4-3.36c.84-.72 2.58-2.2 3.35-2.87l-4.18.18-1.12.11v-1.6c.38 0 .84.07 1.21.07.79 0 4.22-.09 5-.17a5.42 5.42 0 0 0 1-.15zm-3 10c-.12-1.14-.78-1.89-1.79-1.89a1 1 0 0 0-1.08.86c0 .67.78 1.09 1.8 1.09a8.84 8.84 0 0 0 1.11-.05zm12.95-11.42c-.08.33-.16.72-.22 1.06s-.23 1.22-.37 1.92c.63 0 1.17-.08 1.52-.08 1.47 0 2.59.63 2.59 2.78a15 15 0 0 1-.88 5.61A2.26 2.26 0 0 1 95.54 60a7.89 7.89 0 0 1-1.79-.24l-.26-1.62a7.85 7.85 0 0 0 1.87.33 1.2 1.2 0 0 0 1.24-.73 12.68 12.68 0 0 0 .67-4.52c0-1.32-.58-1.54-1.54-1.54-.31 0-.81 0-1.38.08a33.41 33.41 0 0 1-3.12 8.29l-1.58-.64A24.39 24.39 0 0 0 92.77 52c-.69.08-1.3.14-1.64.19s-1.08.14-1.51.21l-.14-1.68h1.46c.46 0 1.3-.08 2.15-.16a17.32 17.32 0 0 0 .36-3.31zm5.22 1.55a27.91 27.91 0 0 1 2.72 5.61l-1.5.74A18.82 18.82 0 0 0 99 49.56zm7.02 5.24a7.26 7.26 0 0 1 4.7-1.69c2.46 0 4 1.55 4 3.38 0 2.79-2.32 4.79-8.23 4.29l-.47-1.61c4.68.61 7-.67 7-2.71 0-1.14-1-1.94-2.49-1.94a5.6 5.6 0 0 0-4.47 1.94 3.61 3.61 0 0 0-.51.82l-1.41-.34a56 56 0 0 0 .77-6.35l1.62.21c-.13.97-.39 3.05-.51 4zm.72-6.93a42.62 42.62 0 0 0 6 1.19l-.4 1.56c-1.48-.2-4.82-.9-6-1.22zM22.11 77.06H16v3.06c0 .95-.26 1.36-.9 1.58a10.85 10.85 0 0 1-3.24.25 6.78 6.78 0 0 0-.6-1.44h2.8c.35 0 .46-.11.46-.44v-3H8.34v-1.43h6.15v-2.22H9.38V72h5.11v-2.09c-1.64.14-3.31.25-4.85.31A4.43 4.43 0 0 0 9.3 69a53.08 53.08 0 0 0 10.32-1.28l1.05 1.19a31.2 31.2 0 0 1-4.7.87V72h5.27v1.39H16v2.22h6.14zm7.94 1.53c.05-.53.07-1.4.07-2.17-1.29.73-2.1 1.44-2.1 2.34C28 79.82 29 80 30.53 80a25.07 25.07 0 0 0 4.21-.41l-.05 1.58a38 38 0 0 1-4.21.26c-2.26 0-4-.53-4-2.45s1.82-3.1 3.56-4a1.16 1.16 0 0 0-1.22-.76 3.79 3.79 0 0 0-2.51 1.1A16.34 16.34 0 0 0 24.9 77l-1.3-1a16.09 16.09 0 0 0 3.4-4.51h-.44c-.63 0-1.68 0-2.53-.1v-1.45a21.81 21.81 0 0 0 2.61.17h.88a9.42 9.42 0 0 0 .36-1.85l1.57.12a16 16 0 0 1-.45 1.67 34 34 0 0 0 4.49-.45V71a48.61 48.61 0 0 1-5 .42 12.14 12.14 0 0 1-1.15 2 4.42 4.42 0 0 1 1.98-.42 2 2 0 0 1 2 1.31c.93-.45 1.71-.78 2.43-1.11.51-.23.95-.44 1.44-.69l.6 1.44c-.41.12-1.07.37-1.53.56-.78.3-1.76.72-2.82 1.22 0 .87.05 2.11.06 2.84zM39.76 72a24.05 24.05 0 0 1 6.47-1.5c2.6 0 4.67 1.55 4.67 4.25 0 3.62-3.46 5.62-8.43 5.88L41.78 79c4-.1 7.42-1.32 7.42-4.28a2.73 2.73 0 0 0-3-2.75c-2.37 0-6.11 1.64-7.48 2.22L38 72.44c.55-.11 1.19-.3 1.76-.44zm15.99-3.23c-.11.33-.23.81-.31 1.13-.42 2-.94 5.3-.45 7.57.21-.58.5-1.42.76-2.11l.8.51a34.4 34.4 0 0 0-1 3.58 2.59 2.59 0 0 0-.08.7v.58l-1.32.16a17.53 17.53 0 0 1-.82-5 43.88 43.88 0 0 1 .53-6.18c.06-.4.08-.85.1-1.16zM65.68 73c-.65.09-1.47.17-2.35.23v.58c0 3.59-.13 6-3.25 7.94l-1.41-1.12a5.65 5.65 0 0 0 1.61-1.09c1.42-1.35 1.58-2.92 1.58-5.75v-.48L60 73.3c-.71 0-1.7 0-2.41-.09v-1.57a16.2 16.2 0 0 0 2.41.16h1.82c0-.94 0-1.86-.08-2.26a7.65 7.65 0 0 0-.15-1h1.76a7.21 7.21 0 0 0-.06 1v2.17a21.87 21.87 0 0 0 2.37-.33zm9.91-1.31a30.74 30.74 0 0 1-3 .52c-.14.67-.31 1.35-.47 2a49.07 49.07 0 0 1-2.39 7.12L68 80.76a34.18 34.18 0 0 0 2.58-6.93c.13-.47.26-1 .36-1.48h-1.21c-.7 0-1.25 0-1.8-.07v-1.52a14.26 14.26 0 0 0 1.85.12c.47 0 1 0 1.51-.06.08-.46.16-.86.19-1.14a7.7 7.7 0 0 0 0-1.41l1.86.14c-.11.39-.23 1-.3 1.33l-.18.91c.92-.13 1.85-.32 2.73-.53zM75.11 77a6 6 0 0 0-.21 1.34c0 .71.36 1.33 2.29 1.33a16.31 16.31 0 0 0 3-.31v1.58a21.35 21.35 0 0 1-3 .21c-2.47 0-3.74-.82-3.74-2.35a10.7 10.7 0 0 1 .23-1.94zm-.6-3.81a27.4 27.4 0 0 1 2.84-.19 23.1 23.1 0 0 1 2.64.14v1.48a22.27 22.27 0 0 0-2.57-.19 24.35 24.35 0 0 0-2.87.16zM92 69.4c-.38.29-.86.71-1.16.95-1 .87-3.11 2.56-4.18 3.48-.87.76-.87 1 0 1.75 1.27 1.07 4.13 3.43 5.62 4.93l-1.38 1.3c-.37-.44-.8-.86-1.16-1.27-.83-.9-3.28-3-4.67-4.21s-1.32-2 .11-3.23c1.16-1 3.36-2.78 4.39-3.83a9.44 9.44 0 0 0 1-1.15zm12.47 2.12a22.79 22.79 0 0 1-2.7.55 27.12 27.12 0 0 1-3.29 6.57L97 77.87a22.45 22.45 0 0 0 3.17-5.63h-1.09c-.58 0-1.21 0-1.82-.06l-.1-1.44c.59.06 1.31.09 1.92.09s1 0 1.56-.06a12.52 12.52 0 0 0 .45-2.62l1.67.15c-.13.54-.32 1.39-.55 2.27a16.45 16.45 0 0 0 2.2-.53zm1.86 1.61v1.81c0 .63.06 1.39.1 2.26a9.93 9.93 0 0 1 3.14 2l-.81 1.33a12.14 12.14 0 0 0-2.26-1.72v.42c0 1.31-.78 2.38-2.77 2.38-1.76 0-3.19-.77-3.19-2.38 0-1.45 1.29-2.48 3.17-2.48a6.6 6.6 0 0 1 1.27.11c-.06-1.22-.14-2.67-.17-3.68zm-1.31 5a5.26 5.26 0 0 0-1.4-.18c-1 0-1.66.45-1.66 1.07s.52 1.11 1.56 1.11A1.32 1.32 0 0 0 105 78.7v-.55zm4.14-4.43a19.13 19.13 0 0 0-3.53-2.15l.76-1.21a25.38 25.38 0 0 1 3.61 2.1zm4.84-2.24c0 1 0 2.28.11 3.48.23 2.43.84 4.06 1.85 4.06.77 0 1.43-1.69 1.76-3.11l1.23 1.45c-1 2.66-1.9 3.58-3 3.58-1.53 0-2.94-1.5-3.35-5.58-.15-1.35-.17-3.2-.17-4.13a8 8 0 0 0-.1-1.45h1.85a12.23 12.23 0 0 0-.18 1.7zm10.63 6.43l-1.58.62c-.25-2.65-1.12-6-2.65-7.82l1.52-.51a16.56 16.56 0 0 1 2.66 7.71z"/></g></g></svg>