<svg xmlns="http://www.w3.org/2000/svg" viewBox="0 0 95.78 95.78"><defs><style>.cls-1{fill:#fff}.cls-2{fill:#73c6c7}</style></defs><title>i-label1</title><g id="Layer_2" data-name="Layer 2"><g id="SVG"><circle class="cls-1" cx="47.89" cy="47.89" r="46.39" transform="rotate(-22.5 47.885 47.886)"/><path class="cls-2" d="M47.89 3A44.89 44.89 0 1 1 3 47.89 44.94 44.94 0 0 1 47.89 3m0-3a47.89 47.89 0 1 0 47.89 47.89A47.89 47.89 0 0 0 47.89 0z"/><path d="M40.93 33.26c-.63.3-1.27.57-1.93.84h6.28v5.09h-1.57v-.41h-7.14v.43h-1.52v-3.78c-.82.23-1.63.43-2.43.63a9 9 0 0 0-.82-1.25 38.42 38.42 0 0 0 5.78-1.55h-5.26v-1.18h5.35v-.88h-4.19v-1.14h4.19v-.66h1.55v.66h3.84v.57a12.71 12.71 0 0 0 1.85-1.43H33.85v-4.65H45v4.56l.14-.13 1.16.73a15.18 15.18 0 0 1-3.16 2.37h3.63v1.18zm2.52-7.68h-8.1v.78h8.1zm0 1.77h-8.1v.81h8.1zm.26 7.76h-7.14v.82h7.14zm0 2.65v-.88h-7.14v.88zm-3.25-5.68c.59-.27 1.15-.58 1.72-.88h-3v.88zM51.76 28c0 1 0 2.44.11 3.72.25 2.6.92 4.33 2 4.33.83 0 1.55-1.8 1.92-3.31l1.33 1.55c-1 2.83-2.07 3.81-3.28 3.81-1.67 0-3.2-1.6-3.65-6a42.93 42.93 0 0 1-.19-4.4 8.26 8.26 0 0 0-.11-1.55h2a13.84 13.84 0 0 0-.13 1.85zm11.56 6.87l-1.71.67c-.27-2.84-1.22-6.39-2.89-8.35l1.65-.55a17.44 17.44 0 0 1 2.95 8.19zM47.89 46.64A1.94 1.94 0 1 1 46 48.58a1.94 1.94 0 0 1 1.89-1.94zM43.2 67.26a12.42 12.42 0 0 0 4.1 2.46 5.66 5.66 0 0 0-1 1.24 13.37 13.37 0 0 1-4.84-3.7h-3.69a11.24 11.24 0 0 1-4.94 3.85 5.61 5.61 0 0 0-1-1.22A10.26 10.26 0 0 0 36 67.26h-3.7V66h4.1v-1h-2.18v-1.09h2.18v-1H34v-.63h-1.47v-3.17h6.2v-1.17h1.58v1.17h6.3v3.15h-1.45v.63H42.7v1h2.18V65H42.7v1h4.2v1.25zm-6.8-5.49v-1h1.47v1h3.34v-1h1.49v1h2.35v-1.36H34v1.36zm-.22 8.37a40 40 0 0 1 7.6 1.86l-.65 1.27a36.2 36.2 0 0 0-7.63-1.93zm2-2.32A19.31 19.31 0 0 1 42 69.09l-.69 1.08a18.61 18.61 0 0 0-3.81-1.36zm-.28-3.91h3.34v-1h-3.37zm0 2.1h3.34V65h-3.37zM51.76 62c0 1 0 2.43.11 3.72.25 2.6.92 4.33 2 4.33.83 0 1.55-1.8 1.92-3.32l1.33 1.55c-1 2.84-2.07 3.82-3.28 3.82-1.67 0-3.2-1.6-3.65-6a42.93 42.93 0 0 1-.19-4.37 8.26 8.26 0 0 0-.11-1.55h2a13.84 13.84 0 0 0-.13 1.82zm11.56 6.87l-1.71.66c-.27-2.83-1.22-6.38-2.89-8.34l1.65-.55a17.4 17.4 0 0 1 2.95 8.22z"/></g></g></svg>