<svg xmlns="http://www.w3.org/2000/svg" viewBox="0 0 960.37 121.93"><defs><style>.cls-1{fill:#85cbcb}</style></defs><title>i-text1</title><g id="Layer_2" data-name="Layer 2"><g id="SVG"><path class="cls-1" d="M782.13 43.5c.32-.13.14-.43-.74-.37l-.63.5zm-5.93-.92c-1 .24-2.23.66-1.56 1.12 1-.48 1.27-.28 2.38-.85.88-.06 1.54.16 1.39.34.31-.13 1.37.11 1.85-.2a8 8 0 0 0-4.12-.08c-.33-.11-.01-.24.06-.33zM690 41.8l.55.06a3.85 3.85 0 0 0-.55-.06zm-53.44-.27c.4 0 .57-.06.59-.11-.37.04-.68.07-.59.11zm-9.13-.53h.54a1.16 1.16 0 0 0-.54 0zm62.57.8l-1.43-.15c-.12.16.71.12 1.43.15zm74.31 1.97a4.09 4.09 0 0 0 .78-.13l-.73.06zm-50.78-2.37h.47a3.07 3.07 0 0 0 .36-.2zm18.07-.08c-.41 0-.55.41-.71.59a1.75 1.75 0 0 1 .9-.29c0-.08-.05-.17-.19-.3zm28.66.74l.51-.05zm-59.67-.75a.33.33 0 0 0-.16-.15c0 .05.06.1.16.15zm-505.51 3.17v-.08c0-.08-.14.07 0 .08zm-20.95-2.09h.29a.55.55 0 0 0 .07-.24zm436.61-1.95h.08c.44-.04.18-.03-.08 0zm-153.24.31c1.74.38-2.82.49-.21.91-.24-.17 2.38-.66.21-.91zm306.34 2.97h-.74a5.91 5.91 0 0 0 .74 0zm-306.55-2.06h.27zm114.99-.96a1.18 1.18 0 0 0 .39.18s-.1-.1-.39-.18zm28.65.6l-.71-.06c.29.04.51.05.71.06zm-43.53-.01a3.8 3.8 0 0 0-1 0l.16.05a1.85 1.85 0 0 1 .84-.05zm-15.48 0a2.29 2.29 0 0 0 .28.09h.49zm-299.78 2.98a2.28 2.28 0 0 1-.71-.38c.24.3-2.04.41.71.38z"/><path class="cls-1" d="M764.3 43.54a.64.64 0 0 1-.46.18h.52c.04-.09.05-.15-.06-.18zm-207.53 1.08l-2.46-.07c.69.05 1.59.07 2.46.07zm-203.54-.41h-.56a1.57 1.57 0 0 0 .56 0zm193.77.41a6.27 6.27 0 0 0-1.38-.29 1.63 1.63 0 0 0-.29.1zm-305.58-.73z"/><path class="cls-1" d="M225.22 44.89c2.34 0 1.1-.54 1.6-.86 2.79-.16 1.29.41 2.24.69 1.75-.14 3.09-.65 4.39-.63.1.09.35.12.06.24 1.84-.44 5.48 0 7.63-.58a.69.69 0 0 1 .28.14c-.35-.28-.4-.56-.33-.76 1 0 1.95-.35 2.35 0a1.71 1.71 0 0 0-1 .25l1.1-.16c1 .52-1.5.18-1.5.57a46.63 46.63 0 0 1 6.29-.45c.35.5-3.85.17-1.65.62l-2.55-.19c2 .8-1.54-.06.24.8 3.36.15 3.75-.26 7.09-.11.76-.29-.24-.42.51-.7 4.75-.51 3.74 1.28 7.23.6a4.85 4.85 0 0 1 3.74-.64l-.85.57c3.25.06 1.85-.83 5.25-.44-.6.23-2.55.19-2.06.26 2.2.45 1.56-.33 3.25-.33l.35.51c3.46-.08 7.26-.45 11.08-.54-.21.15-.86.31 0 .47a132.23 132.23 0 0 1 14.95.36l1.78-.44c.41 0 .77.2.32.29 1.81.16.09-.28 1-.45 1 0 1.36.25.7.38 3.2-.37 9.12-.8 12.49-.33l-.66.13c2.63.18 3-.9 5.4-.49l-.46.08c5.69.19 12-.22 16.34.45.82-.64 5.64.28 6-.6a53.38 53.38 0 0 0 6.91.89c1.22 0 1.82-.56 3.33-.65v.46l2.06-.48 1.09.55 1.42-.12c-.57 0-1.2-.2-1.12-.34 2.22-.21 5.41.33 5.46.56l5.25-.39c-.12.19-1 .25-1.69.37 2.8-.47.51.49 3.07 0-.34-.1.19-.27.24-.36a32.38 32.38 0 0 0 6.35.16l-.42.32c3.89.08 8.2-.15 12.57-.15-1.57-.15-1.21-.7.08-.75l.51.49c.82-.31-1.34-.19.36-.56 1.63.06 1.09.56.16.72l2-.17c.12.14-.35.22-.47.41.81-.31 3.42.49 4.6 0l.11.14c4.36 0 6.34-.16 9.9-.18.07-.43 1.46-.33 2.52-.67 2.61.13 5.51.46 8.66.43 2.21-.21.64-.36 1.64-.61.16.38 3.3.35 1.67.62 3.78-.06 4.83-.07 9.61-.39-.52-.15-1.11-.22-.8-.35.86-.07 2 .16 1.84.34h-.22c5.36-.57 12.37 1.12 16.65.32h-.24l4.42-.42c2 .07-1.22.29.29.53 4.78-.64 7.55.09 11.48-.33 3.05 1.13 10.81-.08 14.92.64l-.24-.27c1.07-.26 1.29.16 2.07.22-.11-.21-1.15-.24-.49-.39 9-.32 18.57.39 27.8.63 3.38.08 1.92-1.38 6.17-.74l-1.21.5c6.81-.6 13.93 0 20.6-.49a2.24 2.24 0 0 1-1.06.26c1.4.36 5.2 0 5.23-.27 1 0 .24.26.88.41 1.41.21 3.54-.46 4.29-.1.13.06-.39.12-.65.14.92-.17 4.29 0 3.4-.37 2.51.2 4.79-.18 6.79.07 1.3-.47 4.28.22 4.69-.44-.18.68 4.39.55 6 .23-.53.21 1.38.21.76.5 1.8 0 3.46-.14 3.14-.49 3.33.81 6.69-.65 8.56.39 5.37-.37 10.33-.61 15.15-.77-.17.68-5.33.07-5.12.78 4.57-.28 7.21-.86 11.75-.7 1.18.09-.66.29-1.06.41 4.57-.28 8.84.06 12.91-.31 0 .07-.45.13-.87.19.81 0 1.87.1 1.78-.21l-.78.08c-1.28-.44 3.18-.93 3.32-1.17-1.36.88 4 .22 1.86 1.34.53-.06 1.19-.21 1.07-.41.78.06 1 .18.24.41 2.87-.16 1.85-.49 4.45-.48 0 .14-.53.2-.8.38a15.82 15.82 0 0 1 4.84-.46c-.13.09.12.21-.54.21 3.78-.05 6.44-.78 10.59-.5-1.23.65 1.4.22 1.62.78l2.23-.17-.89-.27c2 0 3.67-.4 5.35-.22l-1.45.23 3.66-.1-2.07-.11c2-.29-.21-.71 2.38-.56a26.85 26.85 0 0 1 3 .34 11.28 11.28 0 0 1 3.4-.23c.37.18-.3.62-.06.74 1-.47 4.57-.13 5.78-.63-.4.12-.42.41-.29.48l.8-.39c.9.13 1 .19.89.42 2.72.07-.87-.71 2.36-.4a4.77 4.77 0 0 1-.66.14c3.24.16 6.26-.24 9.24 0 .88.56-2.6.13-1.59.61 4.29-.1 8.89-.68 13-.54l-.77-.06c.58-.8 3.09.39 5.2 0-.52.06-.68.44-.54.36 2.85.12 5.82-.2 10.13-.45l-.53.2c1.67.19 4.41.11 6.23.2.53-.2 1.57-.17.94-.47 5.59 1.17 10.66-.62 15.61.35-.59 0-1.41.18-.94.18l4.22-.19c-.33-.35-.55-.21-1.44-.48a9.82 9.82 0 0 1 2.78-.36c-1.9.23 0 .55.83.75-.14-.11.15-.23.08-.33 2.2.61.37-.7 3.38-.29l-.16.19a24.3 24.3 0 0 1 3.38-.29c.5.41-1.2.19-1.28.52 1.71 0 3.37-.76 4.91-.36-.72.11-1.76.11-2.49.23a9.74 9.74 0 0 0 3.13.42h-.12l2.89.21-.74-.12c2.14-1.05 4.35-.19 7.23-.88-2.8.65-.46.38-.68.83.74.13 1.85.27 1.53.4 1.36-.37 2.27.28 4.19-.25.09.14 1.46 0 1.15.38 1.77-.12-.42-.25-.27-.44 2.73-.5 6.41.61 10.33-.08 3.38-.28 4-.77 7.14-1 1.06.23-.86.53-.86.53a18.16 18.16 0 0 0 4.6 0c-.33.13 0 .24.5.4 1.29 0 .86-.53 2.57-.32a4.64 4.64 0 0 1-1.29.59c1.52-.13 3-.41 4.6-.54.42.26-1 .39-1.51.56 1.77-.12 4.59-.24 5.14-.64l-1.14-.14c.65 0 .33.34-.14.42-1.52.31-2.19-.14-2.28-.29l1.12-.09c-1.15-.86-4.5.13-6.76.09l.94-.63-2.32.52c-.49-.16-.83-.51.29-.61-1.62-.3-1.44.23-2.83-.12-.15-.05-.08-.08.06-.11l-1.58.19c.31-.13-.27-.44.71-.35-2.84-.36-4.58.47-5.65 0h.23c-3.94.21-.38.45-3.33 1l-2-1.13-.39.46c-.41 0-1.21 0-1.06-.23-1.51.31.26.2-.62.49-2-.42-5.4.2-5.84-.53-.7.35 1.87.27-.22.51-.59-.79-2.41.13-4.2-.23.55-.4 2.24-.19.45-.55-1.07.68-3.48-.15-5 0-.08.55-3.28.23-5.81.41.16-.18-4.77-.3-7.12-.5l.07-.09c-.46.55-2.88.45-4.65.56.07-.33.39-.46 1.34-.6H714a5.8 5.8 0 0 1-2 .33l.42-.41c-2.21 0-4.45.48-7.3.21-.16.38 2.26 1.07-.75 1.33-.11-.21-.22-.57.57-.65a5.51 5.51 0 0 1-1.44.08l1.2-.35c-1.29-.15-.68.29-1.71.26 0-.3-.77-.21-.62-.45a5.56 5.56 0 0 0 1.3 0 11.46 11.46 0 0 1-3-.45c.1.17 0 .4-.85.44-2.22 0-.76-.36-2-.51-.54.2-2 0-2 .43a1.57 1.57 0 0 1-1-.33c-1.15.2-5.35.06-4.06.53h.29-.18c-3.76.44-7.8-.25-11.52-.06v-.15c-2.22.17-4.94.1-6.53.42-.66 0-1.55-.27-1.27-.45a17.37 17.37 0 0 1-4.34 0c1.71-.26-.59-.23 1.75-.19a16.06 16.06 0 0 0-5.08 0c.81-.38-1.66-.48-2.71-.37l1.55.27c-1.18.06-2.22 0-3.26 0l.56-.5c-4.52-.6-8.14 1-11.58 0-1.2.35 2.45.25 1.38.65a47 47 0 0 1-4.89-.78c-2.85-.28-2.66.73-5.64.54.38.18.74.65-1.48.82-2.08-.07-2.56-.75-1.25-.89.5 0 .74 0 .72.1.67-.06 1.56-.14.73-.33l-.27.18c-1-.18-3.89-.17-3.22-.46-1.57.17-.67.29.49.39-2.66-.26-4.16 0-6.91-.18.44.09.84.3.41.3-4-.22-1.78.34-4.51.42-1.55-.27.56-.65-2.19-.42-1.67-.19-.35-.48.32-.62-2.51.34-4.68-.23-6.11-.29l1.32-.14a19.51 19.51 0 0 1-2.09.08l.75.35c-.77-.06-1.43-.06-1.41-.21-.8.24.61.6-1 .91-1-.18-3.14.2-3.49-.27 3.24.16-.36-.48 2.38-.55a11.57 11.57 0 0 1-2 0c-.12-.06.11-.1.32-.13-3.1-.42-1.42.54-4.64.53.41-.27-.75-.51-1.27-.45 1.29 0 .62.44-.57.64a16 16 0 0 0-3.33.14l1.24.09a9.11 9.11 0 0 1-2.89.32c-.12-.21 1.31-.15.79-.24-1.6.47-3.61-.48-5.83-.17-1-.18-.1-.5-1-.62-2.5.35-2.7-.36-5.33-.08.76.36.89.27-.95.62l4.31-.25-2.77.52c1.3 0 2.75-.22 3.53-.16-1.32.29-1.19.2-.56.5-1.78-.54-3.53.31-5.59 0l.06-.89c-3.1-.39-5.5.45-9.52.23l1.29.16c-.54.35-2.48 0-3.78.19.12-.3-.69-.41-1.25-.59.07.22-2.94 0-3.3.57l-1.8-.39c-3.24-.16-3.7.84-6.82.74.94-.32-.48-.53 1.61-.76-1 0-2-.06-2 .15-.61-.19-2.89.4-3.85.12a3.15 3.15 0 0 1-1.75.41c-.13-.06 0-.14 0-.14s-1.83.2-.81.52c-3.2-.92-9 .07-11.76-.72-2.27.1-5 .19-7.07.21.13-.08 0-.14.4-.11-2.85-.28-1.75.85-5 .54-1.66-.48 1.72-.26.69-.44-.45-1-3.91.13-6.09-.44h.52c-1.66-.33-4.06.37-6.78.3 0 0 .13-.09 0-.15a49.52 49.52 0 0 1-8 .8c.81-.38 1.19-.2.69-.59-1.17 0 .34.62-2 .73-.76-.21-2.45-.39-2.67-.81h2.21c-1.14-.53-2.87 0-4-.07l.15-.24c-3.39.08-3.44.67-7.08.63l.38.17c-2 .59-1.67-.32-3.65.11l-.6-.59c-1.32.14-4.6.57-7 .68a48.72 48.72 0 0 1 5.8-.92 25.52 25.52 0 0 0-5.1.33 7 7 0 0 1 1.7-.11 22.65 22.65 0 0 1-6.29.69c.46-1.15-6.76-.29-8.64-1.18-4.59.42-9.1-.19-14.44-.12 1.89.9-1.56 0-1.23.94a7.09 7.09 0 0 1-1.84 0l-3.77-.55c-.89-.27 1.19-.2 1.07-.41-2.72-.07-1.14-.39-2.94-.63.36.33-.95.47-2.51.34l2.19.43c-3.81.49-3.29-.77-7.13-.29l1.21-.29c-2 .17-7.26 0-9.19.73-.35-.1-.81-.35 0-.42-4.7-.11-10.48.79-14.13.33l.35-.22a7.63 7.63 0 0 1-2.63.19c.06-.09.36-.22-.05-.23a16 16 0 0 1-3.5.26l1-.25c-4.59-.3-7.05.61-10.9.76 0-.66-3.6-.87-5.41-1l.07-.09c-5.35-.08-9.09.55-14 .81-3.07-.72-10.41-.3-15.35-.71.75.12-.12.52-1 .58-1.16-.13-3.21.46-3-.14h.41c-.87-.6-3.26-.44-5.12-.45l-.3.79c-4.87-1.15-12.75.42-15.41-.61-1.17.2-2.63.19-3.79.39l.06-.42c-3.25-.11-4.88-.16-8.9-.06l.82-.31c-2.27 0-2.86 1.23-5 1.25l-.63-.63c-3.95 0-8-.55-11.87 0 .07-.09.18-.28.82-.3-1.86 0-7.2-.43-6.53.44 0-.57-4.08-.06-6.22.19l.34-.42a12.86 12.86 0 0 1-4.38.83c-.6 0-.53-.33.27-.23-2-.22-1.56.4-4 .18l.9-.27a6.46 6.46 0 0 0-3 .42c-1.29.17-3.88-.1-4.18-.48a4.61 4.61 0 0 1-2.61.43c-.16-.14.28-.23.5-.28-3.42-.28-5.09.49-7.44.08 0-.14-.2-.21-.4-.25 2.72 0 4.91 0 4.7.06 0-.38-2.19-.45-.45-1a31.76 31.76 0 0 1-6.91.74 1.57 1.57 0 0 1-.29-.13h.23a6 6 0 0 0-1.36.06c-.68-.06-1.11-.11-1.77-.11-.25-.32-2.52-.17-3.61-.19.09.42-1.35.36 0 .7-.18 0 .2-.05.93-.06a4.53 4.53 0 0 0 .47 0h-.08 2.72a6.51 6.51 0 0 1-3 .16c-.56.27-1.18.55-1.52.68-1.5-.59-4.39-.9-4.79-1.27-3.35.24-7.88.16-10 .95a2 2 0 0 1-1.45-.35 12.59 12.59 0 0 0 1.5-.18c-1.9.2-5.63.08-6.09.63-2.39-.25 1.35-.51-1.94-.42l.44-.17c-6.48-.88-10.53 1.41-17.71.28a2.13 2.13 0 0 1 .85.19c-8.19-.5-16.87.47-24.95-.32a9.75 9.75 0 0 0-3.94.46l-.5-.45-2.4.52c-3.39.38-5.88-1.11-10.18-.39l.55.31c-1.54-.06-4.89.18-4.63-.17a1.49 1.49 0 0 1-1.11.16l-.05-.24-3.7.28c-2.94-.18.46-1-3.84-1-1.59.09-4.54.69-3.94.85s1.65.14 1.69.38l-1.46.13c-.26.69-1.38 1.41 2.2 1.9l2.5-.43.8.34h-2.1a4.9 4.9 0 0 0 2.79-.16 2 2 0 0 0 1 .38l2.45-.67c.3.27-1.1.54.55.69 1.14-.31-1.11-.61.8-.81 1.19.31.84.57 2.24.3.2.18-.1.3-.65.37 1.24-.21 3.3-.09 3.94-.46 1.25.39 4.22-.1 4.09.56a14.93 14.93 0 0 1 3.35-.55c-2.1.8 4.29 0 3.73.9 1.55-.71 5.6-.32 8.34-.71a1.44 1.44 0 0 1-.69.13 20.56 20.56 0 0 1 3 .41c.2-.59 2.61-.72 3.91-1.08 1.89.56-1.15.69-.56 1.23-.1-.47 3.29-.47 2.65-.87 1.44.35 1.24.17 2 .66.25-.74 1.35-.13 2.55-.58 2.09.36.54.69 2.84.47 1.09.25-.96.51-.96.51zM280 43.62h-1.13zm4.6 0h-2c-.16-.15 0-.3.47-.29-.27.08.82.16 1.5.28zm-9.73-2.92c.73-.06 1 0 1.07.11l-1.27.05h-.09a.75.75 0 0 1 .26-.17z"/><path class="cls-1" d="M273.53 41.25h-.3l.43.09.26-.13zm417.1.62h-.1a.89.89 0 0 1 .21.06.38.38 0 0 1-.11-.06zm-342.52 2.55l-.01-.11-.4.1.41.01zM716 43.32a1 1 0 0 0 .34.1 1.44 1.44 0 0 0-.34-.1zm10.92.09l1.55.15c-.67-.08-1.16-.12-1.55-.15zm8.42.21a.49.49 0 0 0 .16-.18zm-133.83.5a1.67 1.67 0 0 0-.32 0c-.76.1-.25.06.32 0zm39.83-.99c-.42.08-.84.15-1.28.2.71.03 1.26.04 1.28-.2zM557 44.62zm81.21-1.3a7.65 7.65 0 0 0 1.85 0 12.69 12.69 0 0 0-1.85 0zm133.61.49h.4v-.07zm.45-.05h.45a1.16 1.16 0 0 0-.45 0zm1.4-.15l-.95.1a2.34 2.34 0 0 0 .95-.1zm-13 .01l-.12.15a.18.18 0 0 0 .12-.15zm-3.38.04a20.23 20.23 0 0 0 3.15.23l.11-.12c-.55.23-2.5-.37-3.26-.11zm-14.14-1.89l2.84.12c-.49-.16-1.15-.38.14-.42-3.57-.47.74.37-2.98.3zm-8.79-.23c1.52-.08 0-.24.06-.33-.97.15-1.2.18-.06.33zm-63.58-.01l.15-.38c-1.17.06-.01.15-.15.38zm-12.15 1.99l1.14.24.55-.36-1.69.12zm-7.18-2.74l.51-.05-1.96.14 1.45-.09zm-106.78.14l.36.47c.79-.08.97-.61-.36-.47zm-46.09.48a4.62 4.62 0 0 0-2.6-.15c1.02.03 2.07.21 2.6.15zm-138.25-.77l.93-.16-1.75.13.82.03zm242.8.87c-.09.13 0 .42.23.36l.19-.49zm1.79.92c.31-.24.67-.67.47-1.12-.31.48-.38.28-.72.84a.32.32 0 0 1-.42-.34c-.09.13-.41-.11-.55.21a.86.86 0 0 0 1.24.08c.06.11 0 .24-.02.33zm25.95.77l-.17-.06a.35.35 0 0 0 .17.06zm16.13.28c-.12 0-.17.06-.18.1s.18-.06.18-.1zm2.7.53h-.17c.07 0 .13.05.17 0zm-18.83-.81l.43.16c.03-.16-.22-.12-.43-.16zm-22.37-1.97a.48.48 0 0 0-.23.13l.21-.05s.01-.05.02-.08zm15.28 2.38h-.13a1.2 1.2 0 0 0-.11.2zm-5.44.07c.13 0 .17-.4.22-.59a.41.41 0 0 1-.27.29.93.93 0 0 0 .05.3zm-8.62-.74l-.16.06zm17.96.76a.53.53 0 0 0 .05.15.25.25 0 0 0-.05-.15zm152.15-3.17a.16.16 0 0 0 0 .07s.04-.07 0-.07zm6.3 2.09h-.08a2 2 0 0 0 0 .23zm-131.41 1.94c-.15.04-.08.03 0 0zm46.12-.31c-.52-.38.85-.48.07-.9.09.16-.72.66-.07.9zm-92.2-2.96h.22a.49.49 0 0 0-.22 0zm92.27 2.06h-.08zm-34.61.96a.62.62 0 0 0-.12-.19s.03.1.12.19zm-8.63-.6l.22.06a.56.56 0 0 0-.22-.06zm13.1 0c.12 0 .16.09.32 0l-.05-.05c-.04.09-.13.12-.27.05zm4.67 0l-.09-.08h-.15zm90.22-2.98a1.14 1.14 0 0 1 .22.38c-.07-.3.61-.41-.22-.38z"/><path class="cls-1" d="M608.5 41.46c0-.11.07-.16.14-.18h-.16a.21.21 0 0 0 .02.18zm62.5-1.08l.74.06a4 4 0 0 0-.74-.06zm61.23.4l.17-.05a.17.17 0 0 0-.17.05zm-58.33-.4a1 1 0 0 0 .42.29.53.53 0 0 0 .09-.11z"/><path class="cls-1" d="M770.76 40.1c-.71 0-.33.54-.48.86-.85.16-.39-.4-.68-.69-.53.15-.93.66-1.32.64 0-.1-.11-.13 0-.24-.55.44-1.65 0-2.29.57a.28.28 0 0 1-.09-.14 1.66 1.66 0 0 1 .1.76c-.32 0-.59.35-.71 0 .2 0 .21-.13.3-.25l-.33.16c-.3-.52.46-.18.46-.56-.65.16-1.4.6-1.9.45-.1-.51 1.16-.17.5-.63l.76.2c-.58-.8.47.05-.07-.8-1-.15-1.13.25-2.13.11-.23.28.07.41-.15.7-1.43.51-1.13-1.28-2.18-.6-.27.34-.38 1-1.13.64l.26-.58c-1 0-.56.83-1.58.44.18-.22.77-.19.62-.26-.66-.45-.47.33-1 .33l-.1-.51c-1 .08-2.19.45-3.34.54.06-.15.26-.31 0-.46a12.41 12.41 0 0 1-4.5-.37l-.53.44c-.13 0-.23-.2-.1-.28-.55-.17 0 .28-.29.45s-.41-.25-.21-.39c-1 .38-2.75.81-3.76.34l.2-.13c-.79-.18-.9.9-1.63.49l.14-.08c-1.71-.19-3.61.21-4.92-.45-.25.63-1.69-.29-1.8.6-1-.44-.7-.6-2.08-.89-.37 0-.55.55-1 .64v-.46l-.62.48-.33-.55-.42.12c.17 0 .36.21.33.34a1.65 1.65 0 0 1-1.64-.56l-1.58.39c0-.18.3-.25.51-.37-.84.48-.15-.48-.93-.05.11.11-.05.28-.07.37a3 3 0 0 0-1.91-.17l.13-.31c-1.17-.09-2.47.15-3.79.14a.38.38 0 0 1 0 .76l-.15-.49c-.25.3.4.18-.11.55-.49 0-.33-.55 0-.71l-.6.17c0-.15.11-.23.15-.41-.25.3-1-.49-1.39 0v-.15c-1.31 0-1.91.16-3 .19 0 .42-.44.33-.76.67a11.38 11.38 0 0 0-2.61-.43c-.66.21-.19.35-.49.61 0-.39-1-.35-.5-.63a13.51 13.51 0 0 0-2.89.39c.15.16.33.23.24.36-.26.06-.6-.16-.56-.35h.07c-1.62.58-3.73-1.12-5-.32h.07l-1.33.42c-.62-.07.36-.29-.09-.53-1.44.64-2.27-.09-3.46.34-.91-1.14-3.25.08-4.49-.65l.08.27c-.32.26-.39-.15-.63-.21 0 .2.35.24.15.38-2.71.32-5.59-.39-8.37-.63-1-.07-.57 1.38-1.85.74l.36-.49c-2.05.59-4.19 0-6.2.48.12-.11.13-.26.32-.26-.42-.36-1.57 0-1.57.28-.32 0-.08-.27-.27-.42-.42-.21-1.07.46-1.29.1 0 0 .12-.11.2-.14-.28.17-1.29 0-1 .37-.75-.2-1.44.18-2-.06-.39.46-1.29-.22-1.41.43.05-.68-1.32-.54-1.8-.23.16-.2-.42-.21-.23-.49-.54 0-1 .13-1 .48-1-.81-2 .66-2.57-.39a37.79 37.79 0 0 1-4.56.77c.05-.67 1.6-.06 1.54-.77-1.38.28-2.17.86-3.54.69-.35-.09.2-.29.32-.41-1.37.28-2.66-.06-3.88.31 0-.06.13-.13.26-.18-.24 0-.56-.1-.54.21l.24-.09c.38.45-1 .94-1 1.17.41-.88-1.21-.22-.56-1.33-.16 0-.36.2-.32.4-.24-.05-.31-.18-.07-.41-.87.17-.56.5-1.34.49 0-.15.16-.21.24-.38a1.71 1.71 0 0 1-1.46.45c0-.09 0-.2.16-.2-1.14 0-1.94.77-3.18.49.36-.65-.43-.21-.49-.77l-.67.16.26.28c-.58 0-1.1.39-1.61.21l.44-.23-1.1.11.62.21c-.59.29.07.71-.72.55.16-.06-.58 0-.89-.34a1.12 1.12 0 0 1-1 .23c-.12-.18.09-.62 0-.74-.29.47-1.38.13-1.74.63a.53.53 0 0 0 .08-.47l-.24.38c-.27-.12-.31-.18-.26-.42-.82-.07.26.71-.72.41.08 0 0-.09.2-.15-1-.16-1.88.24-2.78.06-.26-.57.78-.14.48-.62-1.29.11-2.67.68-3.93.55l.24.06c-.18.79-.93-.39-1.57 0 .16-.06.21-.44.16-.35a10 10 0 0 0-3 .44l.16-.2a12.73 12.73 0 0 0-1.88-.2c-.16.21-.47.17-.28.47-1.68-1.16-3.21.62-4.7-.35.18 0 .42-.18.28-.18l-1.27.19c.1.35.17.21.43.48a1.13 1.13 0 0 1-.83.37c.57-.23 0-.56-.25-.75v.33c-.67-.62-.12.7-1 .28v-.18c-.34.09-.66.33-1 .28-.15-.4.36-.19.38-.52-.51 0-1 .76-1.48.36.22-.11.54-.11.75-.22a1.18 1.18 0 0 0-.94-.43l-.87-.21.22.13c-.64 1-1.31.19-2.17.87.84-.64.14-.37.2-.83-.22-.12-.56-.26-.46-.39-.41.37-.69-.29-1.26.25 0-.15-.44 0-.35-.39-.53.12.13.26.08.44-.82.5-1.93-.6-3.11.08-1 .28-1.2.78-2.15 1-.31-.23.27-.53.27-.53a1.72 1.72 0 0 0-1.39 0c.1-.13 0-.23-.15-.4-.39 0-.26.53-.77.32a1.94 1.94 0 0 1 .39-.59c-.46.14-.92.41-1.39.54-.13-.25.29-.39.45-.55-.53.11-1.38.23-1.54.63l.34.15c-.19 0-.1-.35 0-.42a.42.42 0 0 1 .69.28l-.34.1c.35.85 1.36-.14 2-.09l-.29.62.7-.51c.15.16.25.51-.09.6.49.31.44-.22.86.12v.11l.47-.19c-.09.13.08.44-.21.35.86.36 1.38-.46 1.7 0h-.07c1.19-.21.11-.46 1-1l.6 1.13.12-.46c.12 0 .36 0 .32.24.45-.32-.08-.2.19-.5.58.42 1.62-.19 1.75.54.21-.35-.56-.27.07-.51.18.78.72-.14 1.26.22-.16.41-.67.19-.13.55.32-.68 1 .15 1.5 0 0-.54 1-.22 1.75-.41 0 .19 1.43.3 2.14.5v.09c.13-.55.87-.44 1.4-.56a.62.62 0 0 1-.41.61h.5a.84.84 0 0 1 .6-.34l-.12.41c.66 0 1.34-.48 2.19-.2 0-.39-.68-1.07.23-1.33 0 .21.06.56-.17.65.08 0 .27-.18.43-.09l-.36.35c.39.16.2-.29.51-.26 0 .3.24.21.19.45-.08 0-.27-.12-.39 0a1.47 1.47 0 0 1 .92.46c0-.17 0-.4.25-.44.67 0 .23.36.62.51.16-.21.59 0 .6-.44.19 0 .23.21.3.33.35-.19 1.61 0 1.23-.53h-.09c1.13-.44 2.35.25 3.47.06v.15c.67-.17 1.49-.1 2-.42.2 0 .47.27.39.45.51-.11.57-.28 1.3 0-.51.26.18.23-.52.19.66.13.81.36 1.53 0-.25.38.5.48.81.36l-.46-.27a4 4 0 0 1 1 0l-.17.5c1.36.61 2.45-1 3.48 0 .36-.35-.73-.24-.41-.65.62.07 1.27.78 1.47.78.86.28.8-.72 1.7-.54-.12-.17-.23-.65.44-.82.63.07.77.75.38.89-.15 0-.23 0-.22-.1-.2.07-.47.14-.22.34l.08-.18c.31.18 1.17.16 1 .45.48-.17.2-.29-.15-.38.81.26 1.26 0 2.08.18-.13-.1-.25-.31-.12-.31 1.21.22.54-.33 1.36-.41.46.27-.17.65.66.42.5.18.1.47-.1.62.76-.35 1.41.22 1.84.28l-.4.15a1.46 1.46 0 0 1 .63-.08l-.22-.36c.23.06.43.06.42.21.24-.23-.18-.59.3-.91.31.18.94-.19 1.05.28-1-.16.11.47-.72.55a.92.92 0 0 1 .59 0s0 .1-.1.12c.93.42.43-.53 1.4-.52-.12.27.22.5.38.45-.39 0-.19-.45.17-.65.62.21.68-.16 1-.13l-.37-.1c.13-.26.44-.23.87-.31 0 .2-.39.14-.24.23.48-.47 1.09.48 1.76.17.31.18 0 .5.3.62.75-.34.81.37 1.6.08-.22-.36-.26-.27.29-.62l-1.29.25.83-.52c-.39 0-.83.23-1.06.17.39-.29.35-.2.17-.5.53.53 1.06-.31 1.68 0v.88c.93.4 1.65-.45 2.86-.23l-.39-.15c.17-.35.75 0 1.14-.19 0 .29.21.4.38.58 0-.22.88 0 1-.57l.54.39c1 .16 1.12-.84 2.06-.74-.29.32.14.53-.49.76.32 0 .6.06.6-.15.19.19.87-.39 1.16-.11.13-.13.18-.44.53-.42a.18.18 0 0 1 0 .15c0-.15.55-.2.24-.53 1 .92 2.7-.07 3.54.73a20.82 20.82 0 0 1 2.13-.22c0 .09 0 .15-.12.12.86.27.53-.85 1.5-.55.5.48-.52.26-.21.44.14 1 1.18-.13 1.84.44l-.16.06c.5.33 1.22-.37 2-.3a.17.17 0 0 0 0 .15 5.15 5.15 0 0 1 2.41-.8c-.25.38-.36.2-.21.59.35-.06-.11-.63.6-.74.23.21.74.4.8.81h-.66c.34.54.86 0 1.21.08v.23c1-.08 1-.67 2.13-.62l-.12-.18c.6-.58.5.33 1.1-.11l.18.6a12.15 12.15 0 0 1 2.09-.69 6.2 6.2 0 0 1-1.74.93c.39 0 1.33-.05 1.54-.34-.16.06-.36.2-.52.11A2.59 2.59 0 0 1 693 43c-.14 1.15 2 .29 2.6 1.18 1.38-.43 2.74.18 4.34.11-.57-.89.47 0 .38-.94.37-.06.51 0 .55 0l1.13.54c.27.27-.35.21-.32.41.82.07.34.39.89.63-.11-.32.28-.47.75-.34l-.66-.42c1.15-.49 1 .77 2.15.28l-.37.29c.59-.17 2.19 0 2.77-.73.11.11.24.36 0 .42 1.42.11 3.16-.78 4.26-.33l-.11.23c.27-.07.46-.42.79-.2 0 .09-.1.23 0 .24s.7-.39 1-.26l-.3.25c1.38.29 2.12-.62 3.28-.77 0 .66 1.09.87 1.63 1v.1c1.61.08 2.73-.55 4.22-.81.93.72 3.14.3 4.63.7-.23-.12 0-.51.3-.58.35.13 1-.46.91.15h-.13c.26.59 1 .43 1.54.45l.09-.79c1.47 1.15 3.84-.43 4.64.6.35-.19.79-.19 1.14-.39v.43a11.67 11.67 0 0 0 2.68.06l-.24.3c.68 0 .86-1.22 1.49-1.25l.19.63c1.19 0 2.39.55 3.57 0 0 .09-.05.27-.25.3.56 0 2.17.43 2-.44 0 .56 1.23 0 1.87-.2l-.1.42c.54-.53.56-.68 1.32-.83.18.06.16.34-.08.23.6.22.46-.4 1.19-.17l-.27.26c.62 0 .57-.11.91-.42a1.11 1.11 0 0 1 1.26.49.68.68 0 0 1 .78-.43c0 .14-.08.23-.15.27 1 .28 1.53-.49 2.24-.08a.3.3 0 0 0 .12.25 9.27 9.27 0 0 1-1.42-.06c0 .39.66.45.14 1 .53-.29 1.44-.93 2.08-.74a.48.48 0 0 1 .09.13h-.07a.58.58 0 0 0 .41-.06 2 2 0 0 0 .53.12c.08.31.76.17 1.09.18 0-.42.4-.35 0-.7 0 0-.06 0-.28.07a.47.47 0 0 0-.14 0h-.82c.26-.21.53-.39.9-.16a7.68 7.68 0 0 1 .46-.68c.45.59 1.32.91 1.44 1.27 1-.24 2.37-.15 3-1 .29-.1.33.23.44.35-.17.08-.36.07-.45.19.57-.21 1.69-.08 1.83-.64.72.25-.41.51.58.42l-.13.17c1.95.89 3.17-1.41 5.33-.28-.15-.06-.22-.1-.26-.19 2.47.5 5.08-.47 7.51.32.69.16.77-.19 1.19-.46l.15.46.72-.53c1-.38 1.77 1.11 3.07.39l-.17-.3c.47.05 1.47-.18 1.4.17 0-.06.15-.32.33-.16v.24l1.15-.41c.88.17-.14.94 1.15 1 .48-.1 1.37-.69 1.19-.85s-.5-.15-.51-.39l.44-.12c.08-.7.41-1.41-.66-1.9l-.76.42-.24-.33h.63c-.35-.31-.58 0-.84.16a.56.56 0 0 0-.31-.37l-.74.66c-.09-.27.33-.54-.16-.69-.35.31.33.61-.24.82-.36-.32-.26-.58-.68-.31-.06-.18 0-.29.2-.37-.38.22-1 .09-1.19.46-.38-.39-1.27.1-1.23-.56a2 2 0 0 1-1 .55c.63-.79-1.29 0-1.12-.9-.47.72-1.69.32-2.51.72 0-.06.13-.18.21-.14-.47-.06-.6-.27-.9-.41-.06.59-.79.72-1.18 1.09-.57-.57.35-.69.17-1.24 0 .48-1 .48-.8.87-.43-.35-.37-.17-.6-.65-.07.73-.4.12-.76.57-.63-.36-.17-.69-.86-.46-.29-.22.33-.48.33-.48zm-16.48 1.27h.34zm-1.39 0a5.53 5.53 0 0 0 .6 0c0 .14 0 .29-.14.28.08-.06-.25-.15-.46-.27zm2.93 2.92c-.22.06-.29 0-.32-.11a2.2 2.2 0 0 0 .38 0 .58.58 0 0 1-.06.12z"/><path class="cls-1" d="M756.22 43.75a.24.24 0 0 1 .09 0l-.13-.1a1 1 0 0 0-.08.14zm-125.54-.63a.17.17 0 0 1-.06-.06s.04.05.06.06zm103.09-2.55v.11l.12-.09-.12-.02zm-110.72 1.11a.26.26 0 0 0-.1-.11s.05.06.1.11zm-3.3-.1l-.46-.15a2 2 0 0 0 .46.15zm-2.53-.21a1 1 0 0 0-.05.18zm40.28-.49h.1c.23-.1.07-.07-.1 0zm-11.99.98a2.87 2.87 0 0 1 .39-.2c-.22-.03-.38-.04-.39.2zm25.37-1.49zm-24.43 1.3a.8.8 0 0 0-.55 0 1 1 0 0 0 .55 0zm-40.21-.49h-.12a.12.12 0 0 1 0 .07zm-.14.05l-.13.05c.03 0 .11 0 .13-.05zm-.42.16l.29-.11c-.1 0-.22-.01-.29.11zm3.91-.01v-.16a.53.53 0 0 0 0 .16zm1.02-.05c-.24 0-.61-.32-1-.23v.12c.18-.22.77.37 1 .11zm4.26 1.89l-.87-.12c.15.16.35.38 0 .42 1.05.48-.25-.36.87-.3zm2.64.24c-.45.07 0 .24 0 .33.28-.15.35-.19 0-.33zm19.14 0v.38c.35-.05-.04-.14 0-.38zm3.66-1.98l-.35-.24-.16.35.51-.11zm2.16 2.73l-.16.06.59-.14-.43.08zm32.14-.14l-.11-.47c-.24.09-.29.62.11.47zm13.87-.48a.53.53 0 0 0 .78.16c-.26-.03-.62-.22-.78-.16zm41.61.77l-.28.16.53-.13-.25-.03zm230.04 76.14c.51-.13.22-.43-1.17-.37l-1 .5zm-9.36-.92c-1.64.24-3.53.66-2.47 1.12 1.62-.48 2-.28 3.76-.85 1.39-.06 2.43.16 2.2.34.49-.13 2.16.11 2.91-.2a19.75 19.75 0 0 0-6.51-.08c-.51-.11-.01-.24.11-.33zm-136.15-.78l.88.06c-.24-.03-.5-.05-.88-.06zm-84.35-.27c.65 0 .91-.06 1-.11-.65.04-1.14.07-1 .11zm-14.4-.53h.85a2.85 2.85 0 0 0-.85 0zm98.75.8l-2.25-.15c-.16.16 1.16.12 2.25.15zM932 120.77a9.9 9.9 0 0 0 1.23-.13l-1.15.06a.29.29 0 0 1-.08.07zm-80.19-2.37h.68c.21-.06.39-.13.57-.2zm28.54-.08c-.65 0-.87.41-1.12.59a3.85 3.85 0 0 1 1.41-.29c.01-.08-.08-.17-.29-.3zm45.25.74h.8zm-94.22-.75a.5.5 0 0 0-.26-.15s.11.1.26.15zm-798.17 3.17v-.08c-.21.04-.21.07 0 .08zM.13 119.39h.46a.5.5 0 0 0 .1-.24zm689.39-1.95h.11c.7-.04.3-.03-.11 0zm-241.96.31c2.74.38-4.46.49-.34.91-.38-.17 3.78-.66.34-.91zm483.69 2.97h-1.17c.54.02.92.01 1.17 0zm-484.03-2.06h.43zm181.57-.96a2.34 2.34 0 0 0 .62.18s-.17-.1-.62-.18zm45.21.6l-1.12-.06c.47.04.83.05 1.12.06zm-68.7-.01a9.58 9.58 0 0 0-1.65 0h.25a4.62 4.62 0 0 1 1.4 0zm-24.45 0c.13 0 .3.06.45.09h.77zm-473.33 2.98a4.69 4.69 0 0 1-1.13-.38c.38.3-3.22.41 1.13.38z"/><path class="cls-1" d="M932 120.54a1.36 1.36 0 0 1-.73.18h.82c.05-.09.06-.15-.09-.18zm-327.7 1.08l-3.88-.07c1.08.05 2.5.07 3.88.07zm-321.38-.41l-.89.05a4 4 0 0 0 .89-.05zm305.97.41a15 15 0 0 0-2.19-.29 3.42 3.42 0 0 0-.45.1zm-482.51-.73z"/><path class="cls-1" d="M80.79 121.89c3.71 0 1.74-.54 2.53-.86 4.42-.16 2 .41 3.55.69 2.75-.14 4.87-.65 6.93-.63.15.09.55.12.08.24 2.92-.44 8.66 0 12.06-.58a1.36 1.36 0 0 1 .44.14c-.55-.28-.63-.56-.52-.76 1.66 0 3.08-.35 3.7 0a4 4 0 0 0-1.58.25l1.74-.16c1.57.52-2.37.18-2.37.57 3.39-.17 7.34-.6 9.94-.45.54.5-6.08.17-2.61.62l-4-.19c3.07.8-2.44-.06.38.8 5.29.15 5.92-.26 11.19-.11 1.19-.29-.39-.42.8-.7 7.5-.51 5.9 1.28 11.42.6a11.41 11.41 0 0 1 5.91-.64l-1.34.57c5.12.06 2.92-.83 8.28-.44-1 .23-4 .19-3.25.26 3.48.45 2.46-.33 5.13-.33l.56.51c5.45-.08 11.46-.45 17.5-.54-.34.15-1.37.31 0 .47 7.62-.26 16.26.06 23.6.36l2.81-.44c.65 0 1.21.2.51.29 2.86.16.14-.28 1.52-.45 1.63 0 2.15.25 1.12.38 5-.37 14.39-.8 19.72-.33l-1 .13c4.14.18 4.68-.9 8.52-.49l-.74.08c9 .19 18.94-.22 25.81.45 1.3-.64 8.9.28 9.48-.6 5.14.43 3.67.59 10.9.89 1.93 0 2.88-.56 5.27-.65l.06.46 3.24-.48 1.73.55 2.24-.12c-.89 0-1.9-.2-1.76-.34 3.5-.21 8.53.33 8.62.56l8.28-.39a11.74 11.74 0 0 1-2.67.37c4.42-.47.8.49 4.85.05-.54-.1.3-.27.39-.36a80.47 80.47 0 0 0 10 .16l-.66.32c6.15.08 12.95-.15 19.85-.15-2.48-.15-1.91-.7.11-.75l.81.49c1.31-.31-2.11-.19.57-.56 2.57.06 1.73.56.25.72l3.13-.17c.19.14-.55.22-.74.41 1.28-.31 5.4.49 7.26 0l.17.14c6.89 0 10-.16 15.63-.18.11-.43 2.31-.33 4-.67 4.13.13 8.7.46 13.67.43 3.5-.21 1-.36 2.59-.61.26.38 5.23.35 2.65.62 6-.06 7.62-.07 15.16-.39-.81-.15-1.73-.22-1.26-.35 1.37-.07 3.12.16 2.92.34h-.36c8.47-.57 19.54 1.12 26.29.32h-.38l7-.42c3.22.07-1.93.29.45.53 7.55-.64 11.92.09 18.13-.33 4.81 1.13 17.07-.08 23.56.64l-.38-.27c1.68-.26 2 .16 3.27.22-.18-.21-1.82-.24-.78-.39 14.21-.32 29.33.39 43.9.63 5.33.08 3-1.38 9.74-.74l-1.91.5c10.76-.6 22 0 32.52-.49a5.23 5.23 0 0 1-1.67.26c2.22.36 8.22 0 8.26-.27 1.63 0 .38.26 1.38.41 2.24.21 5.6-.46 6.79-.1.2.06-.63.12-1 .14 1.46-.17 6.77.05 5.38-.37 4 .2 7.56-.18 10.71.07 2.06-.47 6.77.22 7.42-.44-.28.68 6.92.55 9.42.23-.83.21 2.17.21 1.2.5 2.85 0 5.46-.14 5-.49 5.25.81 10.56-.65 13.52.39 8.46-.37 16.3-.61 23.92-.77-.28.68-8.42.07-8.1.78 7.23-.28 11.4-.86 18.57-.7 1.85.09-1.06.29-1.68.41 7.22-.28 14 .06 20.38-.31a5.77 5.77 0 0 1-1.37.19c1.27 0 2.95.1 2.81-.21l-1.24.08c-2-.44 5-.93 5.26-1.17-2.15.88 6.34.22 2.93 1.34.83-.06 1.88-.21 1.68-.41 1.24.06 1.63.18.38.41 4.53-.16 2.92-.49 7-.48 0 .14-.84.2-1.27.38a39.07 39.07 0 0 1 7.65-.46c-.21.09.19.21-.85.21 6 0 10.17-.78 16.71-.5-1.93.65 2.23.22 2.57.78l3.52-.17-1.41-.27c3.08 0 5.8-.4 8.45-.22l-2.29.23 5.78-.1-3.27-.21c3.12-.29-.34-.71 3.77-.56-.84.06 3.08 0 4.68.34a28.05 28.05 0 0 1 5.38-.23c.59.18-.48.62-.1.74 1.51-.47 7.22-.13 9.13-.63-.64.12-.67.41-.46.48l1.26-.39c1.43.13 1.63.19 1.4.42 4.3.07-1.36-.71 3.73-.4-.4 0-.2.08-1 .14 5.12.16 9.89-.24 14.59-.05 1.39.56-4.1.13-2.52.61 6.78-.1 14-.68 20.61-.54l-1.23-.06c.91-.8 4.89.39 8.21 0-.81.06-1.07.44-.85.36 4.5.12 9.19-.2 16-.45l-.84.2c2.64.19 7 .11 9.83.2.85-.2 2.49-.17 1.49-.47 8.82 1.17 16.83-.62 24.65.35-.93 0-2.23.18-1.48.18l6.66-.19c-.52-.35-.87-.21-2.27-.48a23.84 23.84 0 0 1 4.38-.36c-3 .23 0 .55 1.32.75-.22-.11.23-.23.12-.33 3.48.61.58-.7 5.33-.29l-.25.19c1.78-.1 3.42-.34 5.34-.29.8.41-1.89.19-2 .52 2.7 0 5.32-.76 7.76-.36-1.14.11-2.79.11-3.93.23a23.73 23.73 0 0 0 4.93.42h-.19l4.56.21-1.16-.12c3.37-1 6.87-.19 11.41-.88-4.42.65-.73.38-1.07.83 1.16.13 2.93.27 2.42.4 2.15-.37 3.59.28 6.62-.25.13.14 2.3 0 1.81.38 2.79-.12-.66-.25-.42-.44 4.3-.5 10.11.61 16.3-.08 5.34-.28 6.33-.77 11.28-1 1.67.23-1.37.53-1.37.53a45.26 45.26 0 0 0 7.27 0c-.52.13 0 .24.79.4 2 0 1.36-.53 4-.32a9.36 9.36 0 0 1-2 .59c2.4-.13 4.77-.41 7.26-.54.66.26-1.5.39-2.38.56 2.8-.12 7.25-.24 8.11-.64l-1.79-.14c1 0 .52.34-.23.42-2.4.31-3.46-.14-3.59-.29l1.77-.09c-1.82-.86-7.12.13-10.68.09l1.48-.63-3.66.52c-.77-.16-1.31-.51.46-.61-2.56-.3-2.27.23-4.47-.12-.24 0-.13-.08.1-.11l-2.5.19c.49-.13-.42-.44 1.12-.35-4.49-.36-7.24.47-8.92 0h.37c-6.22.21-.6.45-5.27 1l-3.14-1.13-.61.46c-.64 0-1.91-.05-1.68-.23-2.39.31.41.2-1 .49-3.09-.42-8.52.2-9.21-.53-1.11.35 3 .27-.35.51-.94-.79-3.81.13-6.63-.23.86-.4 3.54-.19.71-.55-1.7.68-5.49-.15-7.87 0-.12.55-5.18.23-9.18.41.26-.18-7.51-.3-11.23-.5l.11-.09c-.72.55-4.55.45-7.35.56.11-.33.62-.46 2.13-.6h-2.63a13.88 13.88 0 0 1-3.14.33l.66-.41c-3.49 0-7 .48-11.52.21-.26.38 3.57 1.07-1.18 1.33-.18-.21-.35-.57.89-.65a13.6 13.6 0 0 1-2.27.08l1.9-.35c-2.05-.15-1.07.29-2.71.26 0-.3-1.21-.21-1-.45a13.94 13.94 0 0 0 2.06 0 27.91 27.91 0 0 1-4.82-.45c.16.17 0 .4-1.35.44-3.49 0-1.19-.36-3.23-.51-.85.2-3.07 0-3.13.43a3.47 3.47 0 0 1-1.61-.33c-1.81.2-8.44.06-6.4.53h.46-.3c-5.92.44-12.3-.25-18.18-.06v-.15c-3.51.17-7.81.1-10.32.42-1 0-2.45-.27-2-.45a43.15 43.15 0 0 1-6.85 0c2.69-.26-.94-.23 2.76-.19a39.88 39.88 0 0 0-8 0c1.28-.38-2.62-.48-4.28-.37l2.44.27c-1.86.06-3.49 0-5.14 0l.89-.5c-7.13-.6-12.86 1-18.29 0-1.89.35 3.87.25 2.18.65-3.28-.06-6.7-.78-7.72-.78-4.5-.28-4.2.73-8.9.54.6.18 1.17.65-2.34.82-3.29-.07-4-.75-2-.89.79 0 1.17 0 1.14.1 1.06-.06 2.45-.14 1.15-.33l-.43.18c-1.63-.18-6.14-.17-5.08-.46-2.48.17-1.06.29.77.39-4.21-.26-6.57 0-10.91-.18.69.09 1.32.3.64.3-6.36-.22-2.8.34-7.11.42-2.45-.27.88-.65-3.46-.42-2.65-.19-.56-.48.49-.62-3.95.34-7.38-.23-9.64-.29l2.09-.14c-1.25.08-2.27.08-3.31.08l1.19.35c-1.22-.06-2.25-.06-2.23-.21-1.26.24 1 .6-1.54.91-1.63-.18-5 .2-5.52-.27 5.12.16-.57-.48 3.77-.55a28.84 28.84 0 0 1-3.08 0c-.19-.06.17-.1.51-.13-4.91-.42-2.26.54-7.34.53.65-.27-1.18-.51-2-.45 2.05 0 1 .44-.89.64a39.5 39.5 0 0 0-5.25.14l2 .09a22.27 22.27 0 0 1-4.56.32c-.2-.21 2.06-.15 1.25-.24-2.52.47-5.7-.48-9.22-.17-1.63-.18-.15-.5-1.58-.62-4 .35-4.27-.36-8.41-.08 1.19.36 1.4.27-1.52.62l6.81-.25-4.37.52c2.06 0 4.34-.22 5.57-.16-2.08.29-1.87.2-.89.5-2.81-.54-5.57.31-8.82 0l.1-.89c-4.89-.39-8.69.45-15 .23l2 .16c-.85.35-3.92 0-6 .19.19-.3-1.1-.41-2-.59.1.22-4.65 0-5.23.57l-2.83-.39c-5.12-.16-5.85.84-10.77.74 1.48-.32-.76-.53 2.54-.76-1.64 0-3.12-.06-3.15.15-1-.19-4.56.4-6.07.12a7.29 7.29 0 0 1-2.76.41c-.21-.06 0-.14 0-.14s-2.89.2-1.27.52c-5.07-.92-14.16.07-18.57-.72-3.59.1-7.92.19-11.17.21.21-.08 0-.14.62-.11-4.49-.28-2.76.85-7.87.54-2.62-.48 2.71-.26 1.08-.44-.71-1-6.17.13-9.61-.44h.83c-2.63-.33-6.42.37-10.71.3 0 0 .2-.09 0-.15a122.38 122.38 0 0 1-12.64.8c1.29-.38 1.88-.2 1.09-.59-1.85 0 .55.62-3.15.73-1.2-.21-3.87-.39-4.23-.81h3.49c-1.79-.53-4.51 0-6.35-.07l.23-.24c-5.35.08-5.42.67-11.17.63l.59.17c-3.14.59-2.63-.32-5.76.11l-.95-.59c-2.07.14-7.26.57-11 .68 2.11-.44 6.46-.66 9.15-.92a63.12 63.12 0 0 0-8.05.33 17.22 17.22 0 0 1 2.68-.11 55.49 55.49 0 0 1-9.93.69c.73-1.15-10.67-.29-13.64-1.18-7.24.42-14.37-.19-22.8-.12 3 .9-2.47 0-1.95.94a17.4 17.4 0 0 1-2.89 0l-6-.55c-1.41-.27 1.87-.2 1.69-.41-4.3-.07-1.8-.39-4.65-.63.58.33-1.5.47-3.95.34l3.45.43c-6 .49-5.19-.77-11.25-.29l1.91-.29c-3.11.17-11.47 0-14.52.73-.55-.1-1.28-.35.09-.42-7.43-.11-16.55.79-22.32.33l.56-.22a18.81 18.81 0 0 1-4.15.19c.09-.09.56-.22-.08-.23a39.79 39.79 0 0 1-5.53.26l1.57-.25c-7.25-.3-11.12.61-17.2.76 0-.66-5.69-.87-8.54-1l.1-.09c-8.45-.08-14.34.55-22.16.81-4.86-.72-16.44-.3-24.24-.71 1.19.12-.2.52-1.58.58-1.84-.13-5.07.46-4.77-.14h.65c-1.38-.6-5.14-.44-8.08-.45l-.49.79c-7.68-1.15-20.13.42-24.32-.61-1.85.2-4.15.19-6 .39l.1-.42c-5.14-.11-7.7-.16-14-.06l1.29-.31c-3.58 0-4.52 1.23-7.82 1.25l-1-.63c-6.25 0-12.57-.55-18.74 0 .1-.09.28-.28 1.29-.3-2.94 0-11.37-.43-10.31.44-.07-.57-6.44-.06-9.82.19l.53-.42a30.72 30.72 0 0 1-6.92.83c-.94 0-.83-.33.43-.23-3.14-.22-2.45.4-6.26.18l1.42-.27a15.5 15.5 0 0 0-4.75.42c-2 .17-6.14-.1-6.61-.48a11 11 0 0 1-4.11.43c-.26-.14.43-.23.78-.28-5.4-.28-8 .49-11.75.08-.08-.14-.32-.21-.63-.25 4.3 0 7.75 0 7.43.06 0-.38-3.47-.45-.71-1a78.35 78.35 0 0 1-10.92.74 3.1 3.1 0 0 1-.45-.13l.35-.05a14.78 14.78 0 0 0-2.14.06c-1.07-.06-1.76-.11-2.79-.11-.4-.32-4-.17-5.71-.19.14.42-2.12.36 0 .7-.27 0 .33 0 1.48-.06h.73-.11 4.29a16 16 0 0 1-4.7.16c-.89.27-1.87.55-2.42.68-2.36-.59-6.92-.9-7.56-1.27-5.28.24-12.44.16-15.76 1a4.59 4.59 0 0 1-2.28-.35c.86-.08 1.9-.07 2.36-.18-3 .2-8.89.08-9.6.63-3.79-.25 2.12-.51-3.08-.42l.71-.17c-10.23-.88-16.63 1.41-28 .28a5 5 0 0 1 1.34.19c-12.92-.5-26.63.47-39.39-.32a23.9 23.9 0 0 0-6.23.46l-.78-.45-3.79.52c-5.36.38-9.28-1.11-16.08-.39l.88.31c-2.44-.06-7.73.18-7.32-.17a3.52 3.52 0 0 1-1.75.16l-.08-.24-6 .41c-4.64-.18.73-1-6-1-2.52.09-7.17.69-6.23.85s2.6.14 2.68.38l-2.31.13c-.42.69-2.19 1.41 3.47 1.9l3.9-.45 1.27.34-3.27.02a12 12 0 0 0 4.41-.16 4.43 4.43 0 0 0 1.66.38l3.87-.67c.46.27-1.74.54.86.69 1.81-.31-1.74-.61 1.26-.81 1.89.31 1.34.57 3.55.3.31.18-.16.3-1 .37 2-.21 5.22-.09 6.23-.46 2 .39 6.66-.1 6.46.56a36.22 36.22 0 0 1 5.28-.55c-3.31.8 6.77.05 5.9.9 2.45-.71 8.84-.32 13.17-.71a3.53 3.53 0 0 1-1.1.13c2.44.06 3.15.28 4.72.41.31-.59 4.11-.72 6.16-1.08 3 .56-1.82.69-.88 1.23-.15-.47 5.19-.47 4.18-.87 2.28.35 2 .17 3.14.66.41-.74 2.13-.13 4-.58 3.31.36.85.69 4.49.47 1.64.22-1.57.48-1.57.48zm86.46-1.27h-1.79zm7.26 0h-3.15c-.26-.15 0-.3.75-.29-.4.08 1.32.16 2.4.28zm-15.37-2.92a3.92 3.92 0 0 1 1.7.11h-2l-.14.05a1.26 1.26 0 0 1 .44-.17z"/><path class="cls-1" d="M157.08 118.25h-.48l.69.09.41-.13zm658.58.62h-.16a1.67 1.67 0 0 1 .32.06.76.76 0 0 1-.16-.06zm-540.83 2.55l-.01-.11-.63.1.64.01zm580.84-1.1a2 2 0 0 0 .52.1 3 3 0 0 0-.52-.1zm17.33.09l2.45.15c-1.11-.08-1.88-.12-2.45-.15zm13.24.21a.55.55 0 0 0 .26-.18zm-211.3.5a4.26 4.26 0 0 0-.51 0c-1.2.1-.38.06.51 0zm62.88-.99c-.66.08-1.32.15-2 .2 1.1.03 1.97.04 2-.2zm-133.09 1.49zm128.15-1.3a19 19 0 0 0 2.92 0c-.92-.02-2-.06-2.92 0zm210.96.49h.64l.08-.07zm.72-.05l.71-.05a2.85 2.85 0 0 0-.71.05zm2.21-.15l-1.5.1a5.7 5.7 0 0 0 1.5-.1zm-20.52.01l-.2.15c.11-.03.18-.08.2-.15z"/><path class="cls-1" d="M920.9 120.66c1.28 0 3.2.33 5 .23l.17-.12c-.86.23-3.96-.37-5.17-.11zm-22.31-1.89l4.48.12c-.79-.16-1.82-.38.22-.42-5.64-.47 1.17.37-4.7.3zm-13.89-.23c2.4-.08 0-.24.1-.33-1.53.15-1.9.18-.1.33zm-100.39-.01l.25-.38c-1.86.06-.02.15-.25.38zm-19.19 1.99l1.81.23.86-.35-2.67.12zm-11.33-2.74l.81-.05-3.1.14 2.29-.09zm-168.59.14l.56.47c1.24-.08 1.51-.61-.56-.47zm-72.79.48a11.31 11.31 0 0 0-4.1-.15c1.69.03 3.27.21 4.1.15zm-218.28-.77l1.47-.16-2.76.14 1.29.02zm372 .87c-.15.13-.06.42.36.36l.31-.49zm2.87.92c.5-.24 1.08-.67.76-1.12-.5.48-.62.28-1.15.84-.43.06-.75-.15-.68-.34-.15.13-.66-.11-.89.21a2 2 0 0 0 2 .08c.15.11-.04.24-.04.33zm41.7.77l-.27-.06a.67.67 0 0 0 .27.06zm25.83.28c-.2 0-.28.06-.29.1.18-.03.33-.06.29-.1zm4.41.53h-.26c.1 0 .2.05.26 0zm-30.24-.81l.69.16c.04-.16-.39-.12-.69-.16zm-35.95-1.97a1.08 1.08 0 0 0-.37.13h.35s.01-.1.02-.13zm24.56 2.38h-.21a1.2 1.2 0 0 0-.18.2zm-8.74.07c.2 0 .27-.4.34-.59a.6.6 0 0 1-.43.29.59.59 0 0 0 .09.3zm-13.86-.74l-.24.06zm28.85.76a.53.53 0 0 0 .08.15.19.19 0 0 0-.08-.15zM950 117.52v.07c0 .07.07-.07 0-.07zm10.13 2.09h-.14a2.08 2.08 0 0 0 0 .23zM749 121.55c-.24.04-.12.03 0 0zm74.11-.31c-.84-.38 1.37-.48.1-.9.12.16-1.15.66-.1.9zM675 118.28h.36a1.29 1.29 0 0 0-.36 0zm148.21 2.06h-.13zm-55.6.96a.57.57 0 0 0-.19-.19s.05.1.19.19zm-13.86-.6l.35.06a1.28 1.28 0 0 0-.35-.06zm21.05 0a.93.93 0 0 0 .51 0h-.08a.5.5 0 0 1-.43 0zm7.49 0l-.14-.08h-.23zm144.96-2.98a1.31 1.31 0 0 1 .34.38c-.11-.3.99-.41-.34-.38z"/><path class="cls-1" d="M674.76 118.46a.25.25 0 0 1 .22-.18h-.25c-.02.08-.03.14.03.18zm100.35-1.08l1.19.06a10.74 10.74 0 0 0-1.19-.06zm98.42.4h.27a.4.4 0 0 0-.27 0zm-93.7-.4a1.9 1.9 0 0 0 .67.29.49.49 0 0 0 .14-.11zm147.77.72z"/><path class="cls-1" d="M935.43 117.1c-1.13 0-.53.54-.77.86-1.35.16-.63-.4-1.09-.69-.84.15-1.49.66-2.12.64-.05-.1-.17-.13 0-.24-.89.44-2.65 0-3.69.57a.28.28 0 0 1-.13-.14 1.2 1.2 0 0 1 .16.76c-.51 0-1 .35-1.14 0 .31 0 .34-.13.48-.25l-.53.16c-.48-.52.73-.18.73-.56a11.65 11.65 0 0 1-3 .45c-.17-.51 1.86-.17.79-.63l1.23.2c-.94-.8.75 0-.11-.8-1.62-.15-1.81.25-3.43.11-.36.28.12.41-.24.7-2.3.51-1.81-1.28-3.5-.6-.44.34-.61 1-1.81.64l.41-.58c-1.57 0-.89.83-2.54.44.29-.22 1.24-.19 1-.26-1.07-.45-.75.33-1.57.33l-.17-.51c-1.67.08-3.51.45-5.36.54.1-.15.42-.31 0-.46a31.64 31.64 0 0 1-7.23-.37l-.86.44c-.2 0-.37-.2-.16-.28-.87-.17 0 .28-.46.45s-.66-.25-.35-.39c-1.54.38-4.41.81-6 .34l.32-.13c-1.27-.18-1.43.9-2.61.49l.23-.08c-2.76-.19-5.8.21-7.9-.45-.4.63-2.73-.29-2.91.6a12.6 12.6 0 0 0-3.34-.89c-.59 0-.88.55-1.61.64v-.46l-1 .48-.53-.55-.69.12c.28 0 .58.21.54.34a3.6 3.6 0 0 1-2.64-.56l-2.53.39c.05-.18.48-.25.81-.37-1.35.48-.24-.48-1.48 0 .16.11-.09.28-.12.37a7.64 7.64 0 0 0-3.07-.17l.2-.31c-1.88-.09-4 .15-6.07.14.75.15.58.7 0 .76l-.25-.49c-.4.3.65.18-.17.55-.79 0-.53-.55-.08-.71l-1 .17c-.05-.15.17-.23.23-.41-.39.3-1.66-.49-2.22 0l-.06-.15c-2.11 0-3.06.16-4.78.19 0 .42-.71.33-1.22.67a28.9 28.9 0 0 0-4.19-.43c-1.07.21-.31.35-.79.61-.08-.39-1.6-.35-.81-.63a34.54 34.54 0 0 0-4.65.39c.25.16.54.23.39.36-.42.06-1-.16-.89-.35h.11c-2.6.58-6-1.12-8-.32h.11l-2.14.42c-1-.07.59-.29-.14-.53-2.31.64-3.65-.09-5.55.34-1.47-1.14-5.23.08-7.21-.65l.11.27c-.51.26-.62-.15-1-.21 0 .2.56.24.24.38-4.35.32-9-.39-13.45-.63-1.63-.07-.92 1.38-3 .74l.59-.49c-3.3.59-6.74 0-10 .48.19-.11.2-.26.51-.26-.68-.36-2.52 0-2.53.28-.5 0-.12-.27-.43-.42-.68-.21-1.71.46-2.07.1-.06 0 .19-.11.31-.14-.44.17-2.07 0-1.64.37-1.21-.2-2.32.18-3.28-.06-.63.46-2.07-.22-2.27.43.08-.68-2.12-.54-2.89-.23.26-.2-.67-.21-.37-.49-.87 0-1.67.13-1.52.48-1.6-.81-3.23.66-4.13-.39-2.6.37-5 .62-7.33.77.08-.67 2.58-.06 2.48-.77-2.22.28-3.49.86-5.69.69-.57-.09.33-.29.52-.41-2.21.28-4.28-.06-6.25.31 0-.06.22-.13.42-.18-.38 0-.9-.1-.85.21l.26-.19c.62.45-1.54.94-1.61 1.17.66-.88-1.94-.22-.89-1.33-.26 0-.58.2-.52.4-.38 0-.5-.18-.12-.41-1.38.17-.89.5-2.15.49 0-.15.26-.21.39-.38a3.9 3.9 0 0 1-2.34.45c.06-.09-.06-.2.26-.2-1.83 0-3.12.77-5.12.49.59-.65-.68-.21-.79-.77l-1.07.16.43.28a14.24 14.24 0 0 1-2.59.21l.7-.23-1.77.11 1 .21c-.95.29.1.71-1.15.55.25-.06-.95 0-1.44-.34a2.7 2.7 0 0 1-1.65.23c-.18-.18.15-.62 0-.74-.46.47-2.21.13-2.79.63a.39.39 0 0 0 .14-.47l-.39.38c-.44-.12-.5-.18-.43-.42-1.32-.07.42.71-1.14.41.12 0 .06-.09.32-.15-1.57-.16-3 .24-4.47.06-.43-.57 1.26-.14.77-.62-2.08.11-4.3.68-6.31.55l.37.06c-.27.79-1.49-.39-2.51 0 .25-.06.33-.44.26-.35a25.35 25.35 0 0 0-4.9.44l.26-.2c-.81-.18-2.14-.11-3-.2-.26.21-.76.17-.46.47-2.7-1.16-5.15.62-7.55-.35.29 0 .68-.18.46-.18l-2.05.19c.17.35.27.21.7.48a2.42 2.42 0 0 1-1.34.37c.92-.23 0-.56-.4-.75.06.1-.07.22 0 .33-1.07-.62-.18.7-1.63.28l.07-.18a6.25 6.25 0 0 1-1.63.28c-.25-.4.58-.19.62-.52-.83 0-1.63.76-2.38.36.35-.11.85-.11 1.21-.22a2.62 2.62 0 0 0-1.52-.43h.06l-1.4-.21.36.13c-1 1-2.1.19-3.49.87 1.35-.64.22-.37.32-.83-.35-.12-.89-.26-.74-.39-.66.37-1.1-.29-2 .25 0-.15-.71 0-.56-.39-.85.12.2.26.13.44-1.32.5-3.1-.6-5 .08-1.64.28-1.94.78-3.46 1-.51-.23.42-.53.42-.53a4.29 4.29 0 0 0-2.22 0c.15-.13 0-.23-.24-.4-.63 0-.42.53-1.25.32a2.42 2.42 0 0 1 .63-.59c-.74.14-1.47.41-2.23.54-.2-.25.46-.39.73-.55-.86.11-2.22.23-2.48.63l.55.15c-.32 0-.16-.35.07-.42.73-.32 1.06.14 1.1.28l-.55.1c.56.85 2.18-.14 3.28-.09l-.46.62 1.12-.51c.24.16.4.51-.14.6.79.31.7-.22 1.37.12.07.05 0 .08 0 .11l.77-.19c-.15.13.12.44-.35.35 1.38.36 2.22-.46 2.74 0h-.12c1.91-.21.18-.46 1.61-1l1 1.13.18-.46c.2 0 .59 0 .52.24.73-.32-.13-.2.3-.5.94.42 2.61-.19 2.82.54.34-.35-.91-.27.1-.51.29.78 1.17-.14 2 .22-.27.41-1.09.19-.22.55.52-.68 1.68.15 2.41 0 0-.54 1.59-.22 2.81-.41-.08.19 2.3.3 3.44.5v.09c.22-.55 1.39-.44 2.25-.56 0 .33-.19.46-.66.61h.81a1.59 1.59 0 0 1 1-.34l-.2.41c1.07 0 2.15-.48 3.53-.2.08-.39-1.1-1.07.36-1.33 0 .21.11.56-.27.65a1.2 1.2 0 0 1 .69-.09l-.58.35c.63.16.33-.29.83-.26 0 .3.37.21.3.45-.13 0-.44-.12-.63 0a3 3 0 0 1 1.47.46c0-.17 0-.4.42-.44 1.07 0 .36.36 1 .51.26-.21.94 0 1-.44.31 0 .37.21.49.33.55-.19 2.58-.05 2-.53h-.14.09c1.81-.44 3.77.25 5.57.06v.15a18 18 0 0 0 3.16-.42c.31 0 .75.27.61.45a4 4 0 0 1 2.1 0c-.83.26.28.23-.85.19a3.91 3.91 0 0 0 2.46 0c-.39.38.8.48 1.31.36l-.75-.27a10.36 10.36 0 0 1 1.58 0l-.28.5c2.19.61 3.94-1 5.61 0 .57-.35-1.19-.24-.67-.65a13.18 13.18 0 0 1 2.36.78c1.38.28 1.29-.72 2.73-.54-.19-.17-.36-.65.72-.82 1 .07 1.23.75.6.89-.24 0-.36 0-.35-.1-.33.07-.75.14-.35.34l.13-.18c.5.18 1.88.16 1.55.45.76-.17.33-.29-.23-.38 1.29.26 2 0 3.34.18-.21-.1-.41-.31-.2-.31 1.95.22.86-.33 2.18-.41.75.27-.27.65 1.06.42.81.18.17.47-.15.62 1.21-.35 2.26.22 2.95.28l-.64.15a3.71 3.71 0 0 1 1-.08l-.37-.36c.38.06.69.06.69.21.38-.23-.3-.59.47-.91.49.18 1.51-.19 1.69.28-1.57-.16.17.47-1.16.55a2.34 2.34 0 0 1 .95 0c.05 0-.06.1-.16.12 1.5.42.69-.53 2.25-.52-.2.27.36.5.61.45-.63 0-.3-.45.28-.65 1 .21 1.08-.16 1.6-.13l-.59-.1c.2-.26.7-.23 1.39-.31.06.2-.63.14-.38.23.77-.47 1.75.48 2.82.17.5.18 0 .5.49.62 1.21-.34 1.31.37 2.57.08-.36-.36-.43-.27.47-.62l-2.09.25 1.34-.52c-.63 0-1.33.23-1.7.17.63-.29.57-.2.27-.5.86.53 1.7-.31 2.7 0v.88c1.5.4 2.66-.45 4.6-.23l-.62-.15c.26-.35 1.2 0 1.83-.19-.06.29.33.4.6.58 0-.22 1.42 0 1.6-.57l.87.39c1.57.16 1.79-.84 3.3-.74-.46.32.23.53-.78.76.5 0 1 .06 1-.15.29.19 1.4-.39 1.86-.11.21-.13.28-.44.85-.42.06.06 0 .15 0 .15 0-.15.89-.2.4-.53 1.55.92 4.33-.07 5.68.73 1.1-.1 2.43-.2 3.42-.22-.06.09 0 .15-.19.12 1.38.27.85-.85 2.41-.55.8.48-.83.26-.33.44.22 1 1.89-.13 2.95.44l-.26.06c.81.33 2-.37 3.28-.3a.14.14 0 0 0 0 .15 12 12 0 0 1 3.88-.8c-.4.38-.58.2-.34.59.57-.06-.17-.63 1-.74.37.21 1.18.4 1.29.81h-1.07c.55.54 1.39 0 2 .08l-.46.29c1.64-.08 1.66-.67 3.42-.62l-.18-.18c1-.58.8.33 1.76-.11l.29.6a28.19 28.19 0 0 1 3.36-.69 12.61 12.61 0 0 1-2.8.93 6.34 6.34 0 0 0 2.47-.34 1.56 1.56 0 0 1-.82.11 5.78 5.78 0 0 1 3-.68c-.22 1.15 3.27.29 4.18 1.18 2.21-.43 4.4.18 7 .11-.92-.89.75 0 .6-.94.6-.06.83 0 .88 0l1.82.54c.44.27-.57.21-.51.41 1.32.07.55.39 1.42.63-.18-.32.46-.47 1.21-.34l-1.06-.42c1.85-.49 1.6.77 3.45.28l-.58.29c.95-.17 3.51 0 4.44-.73.17.11.39.36 0 .42 2.28.11 5.07-.78 6.84-.33l-.17.23c.42-.07.74-.42 1.27-.2 0 .09-.17.23 0 .24a3.72 3.72 0 0 1 1.69-.26l-.48.25c2.22.29 3.4-.62 5.27-.77 0 .66 1.74.87 2.61 1v.1c2.59.08 4.39-.55 6.79-.81 1.48.72 5 .3 7.42.7-.36-.12.06-.51.48-.58.57.13 1.55-.46 1.47.15h-.2c.42.59 1.57.43 2.47.45l.15-.79c2.35 1.15 6.16-.43 7.45.6.57-.19 1.27-.19 1.83-.39v.43a30 30 0 0 0 4.3.06l-.39.3c1.1 0 1.38-1.22 2.39-1.25l.31.63c1.91 0 3.85.55 5.74 0a.4.4 0 0 1-.4.3c.9 0 3.49.43 3.16-.44 0 .56 2 .05 3-.2l-.16.42a3.67 3.67 0 0 1 2.12-.83c.28.06.25.34-.13.23 1 .22.75-.4 1.91-.17l-.43.26a1.69 1.69 0 0 0 1.45-.42c.63-.17 1.88.11 2 .49a1.29 1.29 0 0 1 1.26-.43c.07.14-.14.23-.25.27 1.66.28 2.47-.49 3.6-.08a.31.31 0 0 0 .2.25c-1.32 0-2.38 0-2.28-.06 0 .39 1.06.45.22 1a7.78 7.78 0 0 1 3.34-.74.43.43 0 0 1 .14.13h-.11a1.44 1.44 0 0 0 .66-.06 5.23 5.23 0 0 0 .86.12c.12.31 1.21.17 1.74.18 0-.42.65-.35 0-.7.09 0-.1 0-.45.07h-1.55a1.64 1.64 0 0 1 1.45-.16c.27-.27.57-.55.73-.68.73.59 2.13.91 2.32 1.27 1.62-.24 3.81-.15 4.83-.95.46-.1.52.23.7.35-.27.08-.58.07-.73.19.92-.21 2.73-.08 2.94-.64 1.16.25-.65.51 1 .42l-.22.17c3.13.89 5.09-1.41 8.56-.28-.24-.06-.36-.1-.41-.19 4 .5 8.16-.47 12.07.32 1.11.16 1.23-.19 1.9-.46l.25.46 1.15-.53c1.65-.38 2.85 1.11 4.93.39l-.27-.3c.75 0 2.37-.18 2.24.17.08-.06.25-.32.54-.16v.24l1.84-.41c1.42.17-.23.94 1.85 1 .77-.1 2.2-.69 1.91-.85s-.8-.15-.82-.39l.7-.12c.13-.7.67-1.41-1.06-1.9l-1.21.42-.38-.33h1c-.57-.31-.94 0-1.35.16a.77.77 0 0 0-.5-.37l-1.19.66c-.14-.27.53-.54-.26-.69-.56.31.53.61-.39.82-.58-.32-.41-.58-1.09-.31-.09-.18 0-.29.32-.37-.6.22-1.6.09-1.91.46-.6-.39-2 .1-2-.56a4 4 0 0 1-1.61.55c1-.79-2.08 0-1.81-.9-.75.72-2.71.32-4 .72.07-.06.22-.18.33-.14a5 5 0 0 1-1.44-.41c-.1.59-1.26.72-1.89 1.09-.91-.57.56-.69.27-1.24 0 .48-1.59.48-1.28.87-.7-.35-.6-.17-1-.65-.12.73-.65.12-1.23.57-1-.36-.27-.69-1.38-.46-.45-.29.54-.55.54-.55zM909 118.37h.54zm-2.23 0h1c.07.14 0 .29-.23.28.05-.06-.48-.15-.81-.27zm4.71 2.92c-.35.06-.47 0-.52-.11a5.29 5.29 0 0 0 .61 0h.05a.64.64 0 0 1-.18.12z"/><path class="cls-1" d="M912.07 120.75a.57.57 0 0 1 .15 0l-.21-.1-.13.14zm-201.69-.63a.17.17 0 0 1-.1-.06s.08.05.1.06zm165.63-2.55v.11l.2-.09-.2-.02zm-177.88 1.11a.3.3 0 0 0-.16-.11s.03.06.16.11zm-5.3-.1l-.75-.15a4.64 4.64 0 0 0 .75.15zm-4.07-.21a.83.83 0 0 0-.08.18zm64.71-.49h.16c.37-.1.12-.07-.16 0zm-19.25.98a5.62 5.62 0 0 1 .62-.2c-.35-.03-.61-.04-.62.2zm40.78-1.49zm-39.27 1.3a2.06 2.06 0 0 0-.89 0 2.66 2.66 0 0 0 .89 0zm-64.61-.49h-.19a.08.08 0 0 1 0 .07zm-.22.05h-.21c.1.05.18.05.21 0zm-.67.16l.46-.11c-.16 0-.36-.01-.46.11zm6.28-.01l.06-.16a.34.34 0 0 0-.06.16zm1.64-.05a5.6 5.6 0 0 0-1.53-.23v.12c.21-.22 1.16.37 1.53.11zm6.85 1.89l-1.37-.12c.24.16.56.38-.07.42 1.71.48-.38-.36 1.44-.3zm4.24.24c-.74.07 0 .24 0 .33.43-.15.55-.19 0-.33zm30.76 0l-.08.38c.55-.05-.01-.14.08-.38zm5.86-1.98l-.56-.24-.26.35.82-.11zm3.47 2.73l-.25.06.95-.14-.7.08zm51.67-.14l-.17-.47c-.43.09-.51.62.17.47zm22.25-.48a1.18 1.18 0 0 0 1.25.16 9 9 0 0 0-1.25-.16zm66.85.77l-.45.16.84-.13-.39-.03z"/><path d="M205.86 11a36.26 36.26 0 0 1-2.16 11c2 2 4.68 2.58 8 2.61 1.38 0 6.75 0 8.43-.06a10.72 10.72 0 0 0-1.13 3.14h-7.5c-3.93 0-7-.63-9.3-2.82a12.76 12.76 0 0 1-2.88 3.18 10.91 10.91 0 0 0-1.68-2.4v2.4h-3.12V12.48a26.77 26.77 0 0 1-1.77 2.43 22.71 22.71 0 0 0-1.56-3.91A31.19 31.19 0 0 0 196.56.18l3.18 1-.45 1.35h3.39l.51-.12 2.22.57c-.81 2.25-1.92 5-3.06 7.74h1.11l.54-.06zm-8.22 14.22a9.25 9.25 0 0 0 2.49-3 24 24 0 0 1-2.19-6.27l2.7-.78a20.77 20.77 0 0 0 1 3.45 33.28 33.28 0 0 0 1.05-5.31h-1.44l-.54 1.23-2.91-.66c1.17-2.61 2.52-5.91 3.51-8.46h-2.4V3.57c-.39 1.05-.81 2.07-1.26 3.09zM210.12 5.1h-3.75V2.52h3.75V.3h3.21v2.22h5.07v3.9h1.47V9h-1.47v4h-5.07v1.41h5.25V17h-5.25v1.47h6v2.58h-6v2.73h-3.21v-2.72h-4.86v-2.58h4.86V17H206v-2.57h4.11V13h-3.75v-2.56h3.75V9h-5.7V6.42h5.7zm3.21 0v1.32h2.07V5.1zM215.4 9h-2.07v1.41h2.07zm27.99 8.31a13.48 13.48 0 0 0 1.71 2.91 32.72 32.72 0 0 0 3.84-2.79l2.61 2.1c-1.47 1-3.09 1.92-4.53 2.67a13.93 13.93 0 0 0 5.22 2.7 13.64 13.64 0 0 0-2.16 2.88 14.94 14.94 0 0 1-7.56-6.09v2.91c0 1.77-.42 2.55-1.59 3s-2.85.51-5.31.51a11.26 11.26 0 0 0-.9-2.61c-1.14.54-2.25 1-3.27 1.47l-1.65-2.85c2-.6 4.92-1.71 7.8-2.82l.63 2.55c-.9.45-1.83.87-2.73 1.29 1.26.06 2.49.06 2.88 0 .54 0 .72-.15.72-.63v-7.2h-5.94a23.22 23.22 0 0 1 4.17 2.58l-2 2.1a26.51 26.51 0 0 0-4.23-2.88l1.83-1.8h-.42v-2.37h6.63v-1.47h-8V11h8V9.6h-6.3V7.23h6.3V5.76h-8.58v5.58c0 4.86-.45 12.24-3.12 16.89a14.51 14.51 0 0 0-2.91-1.95c2.46-4.29 2.64-10.53 2.64-14.94v-8.7h10.71V.12h3.72v2.52h10.83v3.12h-9.87v1.47h7.53V11h2.67v2.49h-2.67v3.84zm-.87-6.31h4.14V9.6h-4.14zm0 4h4.14v-1.53h-4.14zM274 8a43.54 43.54 0 0 1-5.16 1 54.84 54.84 0 0 1-6.36 12.72l-3.63-1.83a45.33 45.33 0 0 0 6.06-10.5h-1.53c-1.23 0-2.43 0-3.72-.09l-.27-3.48a37.76 37.76 0 0 0 4 .21c.87 0 1.77 0 2.67-.09a25.3 25.3 0 0 0 .81-5l4.11.42c-.24 1-.6 2.46-1 4.05a31.38 31.38 0 0 0 4-.93zm3.9 2.67c-.09 1.26 0 2.49 0 3.81 0 .84.09 2.28.18 3.75a19.79 19.79 0 0 1 6.15 3.81l-2 3.18a26.45 26.45 0 0 0-4-3.15v.27c0 2.76-1.5 4.92-5.73 4.92-3.69 0-6.6-1.65-6.6-4.92 0-2.91 2.43-5.16 6.57-5.16.69 0 1.38.06 2 .12-.09-2.22-.24-4.83-.33-6.63zm-3.27 9.84a10.51 10.51 0 0 0-2.4-.3c-1.71 0-2.82.72-2.82 1.77s.93 1.86 2.55 1.86c2 0 2.67-1.17 2.67-2.76zm8.37-8.24A39.61 39.61 0 0 0 275.85 8l1.92-2.94a53.46 53.46 0 0 1 7.32 4zm35.33 11.49v3.51h-27v-3.51h11.58v-6h-8.13v-3.48h8.13V9h-6.21a24.73 24.73 0 0 1-2.79 4.35 28.37 28.37 0 0 0-3.21-2.13A25.81 25.81 0 0 0 296 .48l3.69.81c-.42 1.44-.9 2.85-1.41 4.23h4.62V.12h3.75v5.4h10.15V9h-10.11v5.28h9v3.45h-9v6zm11.16-9.21c-1.23-.87-3.81-2.28-5.58-3.24l1.92-2.64c1.65.81 4.32 2.1 5.64 2.91zm-5.16 10.8A88.67 88.67 0 0 0 330 15.9l2.61 2.4c-1.59 3.15-3.48 6.57-5.31 9.48zm6.45-19a62.08 62.08 0 0 0-5.46-3.3l2-2.58c1.68.84 4.29 2.16 5.58 3zm13.29 5.85V16h6.12v12h-3.39v-1.12h-9v1.23h-3.21V16h6.12v-3.79h-8V8.79h8V5.28c-2 .3-4 .51-5.85.69a12.57 12.57 0 0 0-1-3.06c5.1-.51 10.71-1.5 14-2.82l2.76 2.82a38.35 38.35 0 0 1-6.54 1.77v4.11h7.62v3.42zm2.73 7h-9v4.41h9zm24.09 1.98c.06-.87.09-2.25.12-3.54-2.19 1.2-3.39 2.37-3.39 3.84 0 1.65 1.41 2.1 4.32 2.1a45.44 45.44 0 0 0 8.43-.87l-.12 3.87a82.2 82.2 0 0 1-8.4.48c-4.65 0-8.16-1.11-8.16-4.95s3.6-6.18 7-7.92a2.32 2.32 0 0 0-2.07-1 7.35 7.35 0 0 0-4.65 2 38 38 0 0 0-2.76 3.27L358 16.11A29 29 0 0 0 364.56 8h-.36c-1.2 0-3.39-.06-5-.21V4.26a38.12 38.12 0 0 0 5.22.33h1.44a16.53 16.53 0 0 0 .6-3.39l3.9.33c-.15.72-.36 1.74-.72 2.94A68.6 68.6 0 0 0 378 3.6v3.48a96.78 96.78 0 0 1-9.69.78 18.15 18.15 0 0 1-1.71 3 9.3 9.3 0 0 1 3.36-.6 4 4 0 0 1 4 2.31c1.53-.72 2.79-1.23 4-1.77s2.19-1 3.27-1.53l1.5 3.45a31.5 31.5 0 0 0-3.56 1.28c-1.32.51-3 1.17-4.83 2 0 1.65.09 3.84.12 5.19zm40.5-15.9h4.44v3.54c-1.8-.09-4.59-.18-8.61-.18v4.41a7.33 7.33 0 0 1 1.11 4.11c0 3.9-2.28 8.79-9.51 10.83l-3.18-3.18c3-.63 5.64-1.62 7.26-3.39a6.41 6.41 0 0 1-1.35.15 5.24 5.24 0 0 1-5.13-5.43c0-3.39 2.7-5.58 5.94-5.58a7.79 7.79 0 0 1 1.2.09v-2c-4.5.06-9.12.24-12.78.45l-.09-3.6c3.42 0 8.79-.15 12.81-.21v-.9c-.09-1-.18-2.07-.3-2.58h4.32c-.09.48-.18 2.07-.21 2.55v.9h3.63a31.14 31.14 0 0 0-2-3.39l2.46-1a28.54 28.54 0 0 1 2.1 3.51zm-9.09 13c1.23 0 2.31-1 1.92-3.57a2.19 2.19 0 0 0-2-1 2.3 2.3 0 1 0 0 4.59zM415 4.56A26.18 26.18 0 0 0 412.89 1l2.49-1a36.53 36.53 0 0 1 2.13 3.51zM429.33 12c2-.6 7.05-2.31 10.65-2.31 4.68 0 7.83 2.79 7.83 7.29 0 5.37-4.71 9.06-14.16 9.63l-1.56-3.69c6.75-.18 11.79-1.95 11.79-6 0-2.22-1.68-3.78-4.26-3.78-3.45 0-9.36 2.46-11.91 3.54l-1.53-3.9a25.39 25.39 0 0 0 3.15-.78zm49.74-4c-.9.54-1.86 1.05-2.94 1.59a91 91 0 0 0-8.28 4.41c-2.49 1.62-4.14 3.33-4.14 5.4s2.07 3.27 6.18 3.27a49.69 49.69 0 0 0 9.72-1.08l-.06 4.29a58.1 58.1 0 0 1-9.54.72c-5.91 0-10.38-1.65-10.38-6.75 0-3.3 2.07-5.73 4.92-7.83-1.38-2.55-2.82-5.7-4.17-8.85l3.75-1.53a69.65 69.65 0 0 0 3.72 8.22c2.43-1.41 5-2.73 6.42-3.51A20.51 20.51 0 0 0 477 4.59zm13.56 10.12a27.54 27.54 0 0 1-1.77 7.74 15 15 0 0 0-2.61-1.26 21.86 21.86 0 0 0 1.53-7zm3.48-2.43v12.42h-3.06V15.93l-4.17.33-.36-3.09 2.16-.12c.45-.54.9-1.14 1.35-1.77a27.61 27.61 0 0 0-3.42-4.2l1.74-2.4c.21.21.45.42.69.63A36.81 36.81 0 0 0 493.2.12l3.09 1.08a67.54 67.54 0 0 1-3.39 6.12 15.09 15.09 0 0 1 1 1.17 48.36 48.36 0 0 0 2.7-4.86L499.47 5c-1.65 2.52-3.69 5.49-5.58 7.89l2.61-.15c-.3-.66-.63-1.32-1-1.92l2.52-1.05a31 31 0 0 1 2.07 4.41v-2.84h16.51v5.94h-3.12V14.1H503.1v3.18h-3v-.9l-2.07 1c-.09-.51-.27-1.11-.45-1.77zm2.76 1.83a21.92 21.92 0 0 1 1.53 5.28l-2.64.87a23.85 23.85 0 0 0-1.38-5.4zm4.86-1.92h3.21V18c0 3.09-.81 7.41-6.39 10.14a16.59 16.59 0 0 0-2.43-2.37c4.92-2.34 5.61-5.64 5.61-7.83zm2.7-10.26h-6.21V2.43h6.21V.09H510v2.34h6.33v2.91H510v1.74h5.46V10H501.3V7.08h5.13zm7.35 19.47c.42 0 .57-.48.63-3.72a8 8 0 0 0 2.85 1.32c-.3 4.29-1.11 5.4-3.15 5.4h-1.92c-2.55 0-3.09-1-3.09-3.93V15.6h3.21v8.28c0 .81.06.93.45.93zm15.48-22.56a23 23 0 0 0-.69 2.4c-.72 3.3-1.77 9.51-1 13.2.39-.9.9-2.34 1.38-3.42l1.89 1.17a74.55 74.55 0 0 0-2 7.26 6.94 6.94 0 0 0-.21 1.44c0 .3.06.81.09 1.23l-3.33.33a33.12 33.12 0 0 1-1.71-9.63 77.69 77.69 0 0 1 1-11.85 15.56 15.56 0 0 0 .18-2.58zm19 8.64c-1.2.15-2.73.27-4.41.36v1.23c0 7-.54 11.31-6.45 15.09l-3.4-2.7a11.55 11.55 0 0 0 3.48-2.37c2.28-2.37 2.76-5 2.76-10v-1.1c-1.11 0-2.25.06-3.33.06-1.29 0-3.12-.09-4.59-.15V7.53a31.2 31.2 0 0 0 4.5.3c1.08 0 2.22 0 3.36-.06 0-1.65-.09-3.18-.15-4a13.18 13.18 0 0 0-.33-2h4.35a15.11 15.11 0 0 0-.15 2v3.81a38.87 38.87 0 0 0 4.44-.58zm14.66 3.45a14.57 14.57 0 0 1 8.73-2.82c5.22 0 8.25 3.21 8.25 6.81 0 5.43-4.29 9.6-16.65 8.52L562.11 23c8.91 1.26 13.62-.93 13.62-4.71 0-1.92-1.83-3.33-4.44-3.33a10.42 10.42 0 0 0-8.19 3.48 6.44 6.44 0 0 0-1.1 1.69l-3.45-.87A108.17 108.17 0 0 0 560 6.87l4 .54c-.36 1.65-.87 5.22-1.08 6.93zm.93-12.9a94.05 94.05 0 0 0 11.88 2.31l-.9 3.66c-3-.39-9.63-1.77-11.94-2.37zm52.02 22.35a7.86 7.86 0 0 1-5.58 2.21c-2.22 0-3.72-1.65-3.72-4.5 0-3.24 1-7.59 1-10.29 0-1.47-.75-2.19-2-2.19-2.22 0-5.46 2.73-7.86 5.4 0 .84-.06 1.65-.06 2.4 0 2.43 0 4.92.18 7.71 0 .54.15 1.62.21 2.28H594c.06-.63.09-1.71.09-2.19.06-2.31.06-4 .12-6.54-1.29 1.89-2.73 4.08-3.75 5.49l-2.34-3.3c1.68-2 4.68-6 6.36-8.49l.12-2.07-5.4.69-.36-3.81a25.27 25.27 0 0 0 2.58 0c.87-.06 2.16-.21 3.42-.39.06-1.11.12-1.95.12-2.28a15.85 15.85 0 0 0-.12-2.64l4.35.12c-.18.84-.42 2.37-.66 4.23l1.11 1.41c-.39.51-1 1.47-1.53 2.25a4.48 4.48 0 0 1-.06.63c2.34-2 5.76-4.41 8.64-4.41 3.18 0 4.68 1.89 4.68 4.38 0 3.09-1 7.44-1 10.53 0 .78.39 1.29 1.14 1.29a6 6 0 0 0 3.81-2.1zM643 4.92q-1.08.68-2.07 1.35c-1.59 1.11-4.71 3.75-6.57 5.25a10 10 0 0 1 2.79-.33c5 0 8.88 3.15 8.88 7.47 0 4.68-3.57 8.4-10.74 8.4-4.14 0-7.26-1.89-7.26-4.86 0-2.4 2.19-4.62 5.34-4.62a6 6 0 0 1 6.33 5.07 4.33 4.33 0 0 0 2.43-4c0-2.67-2.7-4.47-6.15-4.47-4.56 0-7.53 2.43-10.71 6l-2.7-2.79c2.1-1.71 5.67-4.74 7.44-6.18s4.74-3.87 6.21-5.16c-1.53 0-5.61.21-7.17.33a19.61 19.61 0 0 0-2.43.24l-.12-3.87c.84.09 1.86.15 2.7.15 1.56 0 7.92-.15 9.6-.3a14.33 14.33 0 0 0 2.28-.3zm-6.72 18.69c-.18-1.92-1.29-3.18-2.91-3.18-1.11 0-1.83.66-1.83 1.41 0 1.11 1.26 1.86 3 1.86a15.66 15.66 0 0 0 1.7-.09zm27.47-22.38A48.65 48.65 0 0 1 661 7v21h-3.39V12.18a29.22 29.22 0 0 1-2.53 2.82 23.11 23.11 0 0 0-1.86-3.63A31.92 31.92 0 0 0 660.45.15zm18.12 22.56v3.36h-19.35v-3.36h8v-6h-6.33v-3.33h6.33V9.24h-7.29V5.88h8.52a45.08 45.08 0 0 0-5-3.3L669.09 0a40 40 0 0 1 6.78 4.35l-1.32 1.5h6.87v3.39h-7.29v5.22h6.48v3.36h-6.48v6zm27.96 1.86a22.5 22.5 0 0 0-6-4.11v1.05c0 2.55-1.92 4.5-5.85 4.5-4.74 0-7.26-1.8-7.26-4.95s2.76-5.1 7.35-5.1a18.23 18.23 0 0 1 1.83.09c-.06-.9-.09-1.83-.12-2.7h-1.53c-1.74 0-5.16-.15-7.14-.39v-3.51a53.89 53.89 0 0 0 7.17.54h1.41V8h-1.41a49.47 49.47 0 0 1-6.45-.45V4.16a39.33 39.33 0 0 0 6.45.57h1.47V3.36a11.89 11.89 0 0 0-.15-2h4a19.86 19.86 0 0 0-.21 2.1v1.17a62.25 62.25 0 0 0 7.08-.72l.09 3.42c-2 .18-4.35.42-7.2.57v3.09c3-.12 5.49-.39 7.92-.69v3.51c-2.67.3-5 .51-7.86.6.06 1.11.12 2.31.21 3.45a23 23 0 0 1 8.31 4.5zm-9.78-5.34a15.92 15.92 0 0 0-2.43-.21c-2.1 0-3.24.81-3.24 1.83s1 1.83 3.09 1.83c1.59 0 2.61-.48 2.61-2.19 0-.33 0-.75-.03-1.26zm26.22-12.57c0 1.92 0 4.17.18 6.3.42 4.29 1.32 7.2 3.18 7.2 1.41 0 2.58-3.48 3.15-5.82l3 3.6c-2 5.16-3.84 7-6.24 7-3.24 0-6.09-2.94-6.93-10.92-.27-2.73-.33-6.18-.33-8a17.22 17.22 0 0 0-.21-3l4.56.06a23.54 23.54 0 0 0-.36 3.58zM746.91 20L743 21.45c-.45-4.77-2-11.76-5.28-15.42l3.78-1.26c2.8 3.45 5.08 10.62 5.41 15.23zm15.51 2.92a4.85 4.85 0 1 1-4.86-4.86 4.86 4.86 0 0 1 4.86 4.86zm-2.16 0a2.69 2.69 0 1 0-2.7 2.67 2.69 2.69 0 0 0 2.7-2.67zM19.53 76.48c-.06.66-.09 1.32-.09 2.28V88.9c0 .75 0 1.92.09 2.61h-4.44c0-.57.15-1.74.15-2.64V78.76a20.4 20.4 0 0 0-.12-2.28zm13.83-.27c-.06.84-.12 1.8-.12 3v5.94c0 6.45-1.26 9.21-3.48 11.67a17.53 17.53 0 0 1-7.29 4.35l-3.15-3.3a14 14 0 0 0 7.35-3.78c2-2.25 2.43-4.5 2.43-9.18v-5.7a21.16 21.16 0 0 0-.18-3zm33.93 2.94A14.18 14.18 0 0 0 66.24 81a44.11 44.11 0 0 1-4.71 8.25 85.38 85.38 0 0 1 8.37 8.57l-3.42 3a68.41 68.41 0 0 0-7.56-8.49 39.7 39.7 0 0 1-11.28 8.43l-3.09-3.26a33.85 33.85 0 0 0 12.3-8.6 23.24 23.24 0 0 0 4.47-7.35H51.15c-1.26 0-2.91.18-3.54.21V77.5a33.52 33.52 0 0 0 3.54.21h10.56a10.83 10.83 0 0 0 3.12-.39zm34.95 1.2a14.11 14.11 0 0 0-1 2.13 34.53 34.53 0 0 1-4.14 8.22c1.11.69 2.13 1.38 2.88 1.92l-2.73 3.51A34.74 34.74 0 0 0 94.47 94a28.62 28.62 0 0 1-11.07 7.46l-3.48-3a25.37 25.37 0 0 0 11.19-6.72c-2-1.32-4.08-2.55-5.61-3.42l2.55-2.85c1.59.81 3.63 2 5.64 3.15a21.85 21.85 0 0 0 3.12-6.39H88.2A35.3 35.3 0 0 1 80.28 90L77 87.46a27.46 27.46 0 0 0 9.57-10A13.27 13.27 0 0 0 88 74.35l4.35 1.35c-.72 1-1.5 2.43-1.86 3.06h6.15a9.53 9.53 0 0 0 2.61-.33zm14.61-3.93a25 25 0 0 0-.72 2.64 78.57 78.57 0 0 0-1.41 11.49 13.75 13.75 0 0 0 .12 1.92c.39-1 .87-2 1.32-3l1.84 1.44a70.87 70.87 0 0 0-2.14 7.09 5.86 5.86 0 0 0-.15 1.38v1.22l-3.36.24a35.69 35.69 0 0 1-1.17-9.47A88.05 88.05 0 0 1 112.44 79a22.29 22.29 0 0 0 .27-2.91zm18.24 22.41a30.3 30.3 0 0 0-3.6-3c-.18 2.81-1.8 4.85-5.82 4.85S119 99 119 95.86s2.55-5.1 6.6-5.1a13.35 13.35 0 0 1 2 .12c-.09-1.83-.18-4-.21-6.09h-2.13c-1.74 0-3.42-.06-5.19-.18V81.1a49.26 49.26 0 0 0 5.19.27h2.1c0-1.47 0-2.67-.06-3.3a16.81 16.81 0 0 0-.18-2h4.26a19 19 0 0 0-.18 1.92c0 .66-.09 1.77-.09 3.09 1.62-.18 3.18-.39 4.59-.69v3.71c-1.44.21-3 .39-4.62.51.06 2.88.21 5.25.33 7.26a18.86 18.86 0 0 1 5.73 3.84zM127.71 94a9.26 9.26 0 0 0-2.4-.33c-1.68 0-2.82.69-2.82 1.8s1.2 1.74 2.76 1.74c1.83 0 2.46-1 2.46-2.7zm24.54-18.78a48.65 48.65 0 0 1-2.79 5.78v21h-3.39V86.17a29.22 29.22 0 0 1-2.49 2.83 23.11 23.11 0 0 0-1.86-3.63A31.92 31.92 0 0 0 149 74.14zm18.12 22.56v3.35H151v-3.35h8v-6h-6.33v-3.33H159v-5.22h-7.29v-3.36h8.52a45.08 45.08 0 0 0-5-3.3l2.36-2.57a40 40 0 0 1 6.78 4.35l-1.32 1.5h6.87v3.36h-7.29v5.22h6.48v3.36h-6.48v6zm29.4-6.3v3.48c-.18 2.67-1 4.35-4.41 5.39a28.17 28.17 0 0 1-6.45.64c-6.9 0-7.2-2.2-7.2-4.26v-.63a2.58 2.58 0 0 1-.48 0c-2.16 0-4.38-1.53-4.38-5.34 0-3.51 2.25-6.15 5.49-6.15h.12v-2h-.6q-1.94 0-4.86-.27l-.21-3.51a35.45 35.45 0 0 0 4.8.42h.87v-.24a15.64 15.64 0 0 0-.3-3.75h4.17A20.69 20.69 0 0 0 186 79a44.37 44.37 0 0 0 5.28-1v3.6a48.16 48.16 0 0 1-5.28.84v3.84a5.07 5.07 0 0 1 .87 3 7.88 7.88 0 0 1-1.59 5.07v1.15c0 1.25.33 1.92 3.84 1.92a19 19 0 0 0 4.56-.54 2.78 2.78 0 0 0 2.16-3 26.7 26.7 0 0 0-.21-3.66zm-18.18 1.08c1.35 0 1.89-1.44 1.89-3.12 0-1.14-.57-1.83-1.41-1.83-1.17 0-2.13 1.17-2.13 2.91 0 1.29.78 2.04 1.65 2.04zM196.29 78a36.77 36.77 0 0 1 6.3 5.67l-2.7 2.76a40.4 40.4 0 0 0-6.12-5.94zm27.57-3.23c0 .48-.06 1.08-.09 1.71.24 4.14 1.74 17.07 12.93 22.31a11.76 11.76 0 0 0-2.76 3c-6.78-3.37-10.14-9.54-11.82-15.06a25.62 25.62 0 0 1-11.12 15.1 12.5 12.5 0 0 0-3-2.83c12-6.63 11.55-20.25 11.76-24.21zm30.54 22.44c1.14-.15 2-.3 2.76-.48 3.81-.9 6.75-3.63 6.75-8 0-4.11-2.22-7.17-6.21-7.86a64.56 64.56 0 0 1-1.77 8.13c-1.77 6-4.35 9.66-7.59 9.66S242.28 95 242.28 90c0-6.84 6-12.72 13.68-12.72 7.35 0 12 5.13 12 11.61 0 6.24-3.84 10.68-11.34 11.81zm-2.31-9a47.69 47.69 0 0 0 1.59-7.2 9.32 9.32 0 0 0-7.53 8.61c0 3 1.2 4.47 2.31 4.47s2.43-1.86 3.63-5.88zm36.27-3.27a36.26 36.26 0 0 1-2.16 11c2 2 4.68 2.58 8 2.61 1.38 0 6.75 0 8.43-.07a10.92 10.92 0 0 0-1.11 3.21H294c-3.93 0-7-.63-9.3-2.81a12.76 12.76 0 0 1-2.88 3.18 10.73 10.73 0 0 0-1.68-2.41V102H277V86.47a26.77 26.77 0 0 1-1.77 2.43 22.71 22.71 0 0 0-1.54-3.9 31.19 31.19 0 0 0 5.37-10.86l3.18 1-.45 1.35h3.39l.51-.12 2.22.57c-.81 2.25-1.92 5-3.06 7.74H286l.54-.06zm-8.22 14.22a9.25 9.25 0 0 0 2.49-3 24 24 0 0 1-2.19-6.27l2.7-.78a20.77 20.77 0 0 0 1 3.45 33.28 33.28 0 0 0 1.05-5.31h-1.44l-.54 1.23-2.91-.66c1.17-2.61 2.52-5.91 3.51-8.46h-2.4v-1.8c-.39 1-.81 2.07-1.26 3.09zm12.48-20.07h-3.75v-2.58h3.75v-2.22h3.21v2.22h5.07v3.9h1.47V83h-1.47v4h-5.07v1.41h5.25V91h-5.25v1.47h6v2.58h-6v2.73h-3.21v-2.73h-4.86v-2.58h4.86V91h-4.11v-2.58h4.11V87h-3.75v-2.57h3.75V83h-5.7v-2.59h5.7zm3.21 0v1.32h2.07v-1.32zM297.9 83h-2.07v1.41h2.07zm27.99 8.3a13.48 13.48 0 0 0 1.71 2.91 32.72 32.72 0 0 0 3.84-2.79l2.61 2.1c-1.47 1-3.09 1.92-4.53 2.67a13.93 13.93 0 0 0 5.22 2.7 13.64 13.64 0 0 0-2.16 2.88 15 15 0 0 1-7.58-6.09v2.9c0 1.77-.42 2.55-1.59 3s-2.85.51-5.31.51a11.11 11.11 0 0 0-.9-2.61c-1.14.54-2.25 1-3.27 1.47l-1.65-2.85c2-.6 4.92-1.71 7.8-2.82l.63 2.55c-.9.45-1.83.87-2.73 1.29h2.88c.54 0 .72-.15.72-.63V91.3h-5.94a23.22 23.22 0 0 1 4.17 2.58l-2 2.1a26.51 26.51 0 0 0-4.23-2.88l1.83-1.8H315v-2.37h6.63v-1.47h-8V85h8v-1.41h-6.3v-2.37h6.3v-1.47H313v5.58c0 4.86-.45 12.24-3.12 16.88a14.9 14.9 0 0 0-2.91-1.94c2.46-4.29 2.64-10.53 2.64-14.94v-8.7h10.71v-2.52h3.72v2.52h10.83v3.12H325v1.47h7.53V85h2.67v2.49h-2.67v3.81zM325 85h4.14v-1.41H325zm0 4h4.14v-1.54H325zm38.57-7c-.9.54-1.86 1-2.94 1.59a91 91 0 0 0-8.28 4.41c-2.49 1.62-4.14 3.33-4.14 5.4s2.07 3.27 6.18 3.27a49.69 49.69 0 0 0 9.72-1.08l-.06 4.29a58.1 58.1 0 0 1-9.54.72c-5.91 0-10.38-1.65-10.38-6.75 0-3.3 2.07-5.73 4.92-7.83-1.38-2.55-2.82-5.7-4.17-8.85l3.75-1.53a69.65 69.65 0 0 0 3.72 8.22c2.43-1.41 5-2.73 6.42-3.51a20.51 20.51 0 0 0 2.73-1.8zm9.27 5.82a35.94 35.94 0 0 0 1.47-7.82l2.55.33a39.91 39.91 0 0 1-1.35 8.43zm8.94-1.89a26.55 26.55 0 0 0-1.35-4.05v20.18h-3.54v-28h3.54v5.64l1.62-.69a33.54 33.54 0 0 1 2.34 5.67zM394 90.79a13.39 13.39 0 0 0 7.68 8 13.88 13.88 0 0 0-2.52 3.36c-3.75-1.77-6.15-4.8-7.8-8.82a16.33 16.33 0 0 1-7.62 8.88 15.11 15.11 0 0 0-2.52-2.76 12.59 12.59 0 0 0 7.29-8.7h-6V87.4H389c.09-1 .09-1.86.09-2.76v-2.73h-5.16v-3.3h5.16v-4.53h3.6v4.53h6.51v8.79h1.89v3.39zm-1.32-6.12c0 .9 0 1.8-.09 2.73h3.12v-5.49h-3zm20.57 10.62c1.17 2 3.27 2.85 6.33 3 3.6.16 10.68.07 14.82-.26a16.36 16.36 0 0 0-1.11 3.47c-3.72.19-10.08.25-13.74.09s-6-1-7.77-3.32c-1.2 1.17-2.43 2.31-4 3.6l-1.68-3.54a37.46 37.46 0 0 0 3.72-2.76V89h-3.32v-3.28h6.75zm-2.13-13.44a23.38 23.38 0 0 0-4.5-5l2.73-2a26.07 26.07 0 0 1 4.71 4.77zm7.35-2.94h-4v-2.76h7.65v-2.07h3.45v2.07h8.1v2.76h-3.45c-.39.78-.75 1.47-1.08 2.1h3.9v12.87c0 1.44-.24 2.22-1.2 2.76a9.55 9.55 0 0 1-4.05.51 11 11 0 0 0-.69-2.37h-4.68v.9H420v-6.6h2.76v-1.65h-3.51v-2.16h3.51v-1.56h-4.26V97h-3.21V81h3.42a7.92 7.92 0 0 0-.75-2zm7.47 2.1c.27-.63.54-1.41.78-2.1h-5.49A7 7 0 0 1 422 81zm-.24 10.08h-3.24v1.65h3.24zm4.11-7.38h-4.47v1.56h3.54v2.16h-3.54v1.65h2.82v5.22h1.2c.33 0 .45-.12.45-.48zm23.58 11.46c.06-.87.09-2.25.12-3.54-2.19 1.2-3.39 2.37-3.39 3.84 0 1.65 1.41 2.1 4.32 2.1a45.44 45.44 0 0 0 8.43-.87l-.12 3.86a79.43 79.43 0 0 1-8.4.48c-4.65 0-8.16-1.1-8.16-4.94s3.6-6.18 7-7.92a2.32 2.32 0 0 0-2.07-1 7.35 7.35 0 0 0-4.65 2 38 38 0 0 0-2.76 3.27l-3.18-2.37a29 29 0 0 0 6.54-8.16h-.36c-1.2 0-3.39-.06-5-.21v-3.46a38.12 38.12 0 0 0 5.22.33h1.44a16.53 16.53 0 0 0 .6-3.39l3.9.33c-.15.72-.36 1.74-.72 2.94a68.6 68.6 0 0 0 8.4-.87v3.48a96.78 96.78 0 0 1-9.69.78 18.15 18.15 0 0 1-1.71 3 9.3 9.3 0 0 1 3.36-.6 4 4 0 0 1 4 2.31c1.53-.72 2.79-1.23 4-1.77s2.19-1 3.27-1.53l1.5 3.45a31.5 31.5 0 0 0-3.61 1.29c-1.32.51-3 1.17-4.83 2 0 1.65.09 3.84.12 5.19zm41.76 4.46a23.12 23.12 0 0 0-6.57-4.63v1c0 2.61-1.35 5.12-6.33 5.12-4.23 0-7.71-1.38-7.71-5.42 0-3.09 2.64-5.55 8.1-5.55a17 17 0 0 1 1.77.09c-.09-2.31-.21-4.86-.21-6.42 0-1.8 0-3.57-.06-4.83a18.85 18.85 0 0 0-.3-3.48h4.47c-.12.87-.21 2.31-.27 3.48v2.16c2.34-.06 5.82-.18 8.28-.45l.15 3.54c-2.49.24-6 .36-8.43.42.06 1.8.18 4.14.33 6.33a23.49 23.49 0 0 1 9 5.1zm-10.59-5.93a16.32 16.32 0 0 0-2.46-.21c-2.31 0-3.69.78-3.69 2 0 1.47 1.5 2 3.57 2 1.92 0 2.61-.87 2.61-2.82 0-.22 0-.58-.03-.97zm30.6-18.21a48.51 48.51 0 0 0-1.2 6.15c1.41-2.28 4-4.8 7.35-4.8 4.14 0 7.35 4 7.35 10.59 0 8.4-5.16 12.42-13 13.86l-2.25-3.46c6.6-1 11.22-3.17 11.22-10.37 0-4.59-1.53-7.14-4-7.14-3.51 0-6.57 5.28-6.72 9.18a17.84 17.84 0 0 0 .15 3.15l-3.69.24a38.43 38.43 0 0 1-.36-5 72 72 0 0 1 .84-9.51c.15-1.08.21-2.28.24-3.12zm50.22 1.08v3h-26.22v-3h11.1v-2.52h3.63v2.52zm-1 21.75c0 1.64-.33 2.6-1.5 3.14s-2.7.58-4.86.58a10.19 10.19 0 0 0-.69-2.41h-7.74V101h-3.12v-8.08H558v5.82h2.28c.33 0 .57-.12.57-.49v-6.68h-17v10.52h-3.48V88.6h24.06zm-4-17.58v6.6h-16.3v-6.6zm-3.63 2.37h-9.36v1.83h9.36zm-2 12.18h-5.19v1.95h5.19zm23.02-13.56c0 1.92 0 4.17.18 6.3.42 4.29 1.32 7.2 3.18 7.2 1.41 0 2.58-3.48 3.15-5.82l3 3.6c-2 5.16-3.84 7-6.24 7-3.24 0-6.09-2.94-6.93-10.92-.27-2.73-.33-6.18-.33-8a17.22 17.22 0 0 0-.21-3l4.56.06a23.54 23.54 0 0 0-.36 3.58zm20.64 12.21l-3.93 1.5c-.45-4.77-2-11.76-5.28-15.42l3.8-1.26c2.8 3.45 5.08 10.62 5.41 15.18zm14.64-3.12c-2.1 2.43-4.53 5-6.57 7.05l-2.28-3c1.65-1.61 4.32-4.37 6.78-7.1zm-2.79-7.74a32.54 32.54 0 0 0-5.26-4.53l2.55-2.61a31.82 31.82 0 0 1 5.34 4.2zm13.14 2.79a14.62 14.62 0 0 0 9.15 13c-.69.87-1.71 2.34-2.28 3.26a16.45 16.45 0 0 1-8.73-10.4c-.72 2.67-3.78 7.77-9.84 10.4a16.16 16.16 0 0 0-2.16-3c8.1-3.24 10.11-9.87 10.11-13.2v-3.12h-2.4a24.88 24.88 0 0 1-3.12 5.49 22.89 22.89 0 0 0-3.36-2c2.55-2.76 4.35-7.38 5.28-12.18l3.72.69a40.84 40.84 0 0 1-1.2 4.38h10.32l.69-.18 2.64 1.53a40.63 40.63 0 0 1-3.45 8.25 28.37 28.37 0 0 0-3-1.47 29.56 29.56 0 0 0 1.89-4.56h-4.26zm37.23 12.38c1 0 1.17-.77 1.32-5.09a10 10 0 0 0 3.3 1.5c-.36 5.37-1.26 6.92-4.32 6.92h-3.6c-3.39 0-4.26-1.13-4.26-4.64v-9.18h-4.5C648 94 646.65 99.13 639.48 102a10.15 10.15 0 0 0-2.22-2.91c6.24-2.34 7.08-6.39 7.44-11.37h-6.78v-3.44h26.76v3.48h-7.92v9.18c0 1.14.18 1.31 1.17 1.31zm1.29-18.62h-21.3v-3.45h21.3zm12.45-.81c2.49-.21 7.41-.66 12.84-1.14 3.06-.24 6.3-.42 8.4-.51v3.84a30.68 30.68 0 0 0-5.73.39 9 9 0 0 0-6.27 8.31c0 4.89 4.56 6.66 9.6 6.9l-1.38 4.1c-6.24-.38-12.12-3.74-12.12-10.19a11.78 11.78 0 0 1 4.38-9.15c-2.58.27-8.82.93-12.27 1.68l-.36-4.05c1.2-.06 2.34-.12 2.91-.18zm19.5 9.18l-2.28 1a23.15 23.15 0 0 0-2.34-4.17l2.22-.93a39.32 39.32 0 0 1 2.4 4.1zm3.48-1.47l-2.25 1.08a26.39 26.39 0 0 0-2.46-4l2.19-1a44.87 44.87 0 0 1 2.52 3.89zm31.08-4.68a13 13 0 0 0-.21 1.59c-.12 3.24-.48 11.61-1.77 14.67-.66 1.52-1.8 2.31-3.87 2.31-1.71 0-3.51-.13-5-.25l-.45-4a24.83 24.83 0 0 0 4.2.42 1.6 1.6 0 0 0 1.71-1c.87-1.89 1.26-7.89 1.26-11.13h-6.75c-1.11 7.92-4 12.63-9.33 16.43L704.76 98a17.2 17.2 0 0 0 3.93-2.94c2.79-2.76 4.29-6.12 4.95-10.68h-4c-1 0-2.67 0-4 .12v-3.91c1.26.12 2.82.21 4 .21H714c0-.84.06-1.71.06-2.61a22.2 22.2 0 0 0-.21-2.76h4.41c-.09.69-.15 1.95-.18 2.67 0 .93-.06 1.83-.12 2.7h5.64a14.65 14.65 0 0 0 2.28-.21zm33.81-1.5a14.11 14.11 0 0 0-1 2.13 34.53 34.53 0 0 1-4.14 8.22c1.11.69 2.13 1.38 2.88 1.92l-2.73 3.51a34.74 34.74 0 0 0-2.78-2.13 28.62 28.62 0 0 1-11.07 7.46l-3.48-3a25.37 25.37 0 0 0 11.19-6.72c-2-1.32-4.08-2.55-5.61-3.42l2.55-2.85c1.59.81 3.63 2 5.64 3.15a21.85 21.85 0 0 0 3.12-6.39h-8.61a35.3 35.3 0 0 1-7.92 7.77L737 87.46a27.46 27.46 0 0 0 9.57-10 13.27 13.27 0 0 0 1.43-3.11l4.35 1.35c-.72 1-1.5 2.43-1.86 3.06h6.15a9.53 9.53 0 0 0 2.61-.33zm31.08 4.95c.63 0 2.07-.12 2.73-.18V89c-.81-.06-1.83-.12-2.64-.12h-7.77A15 15 0 0 1 778 101.2l-3.81-2.58c4.56-2.1 7-5.31 7.53-9.75h-8.25c-.93 0-2 .06-2.82.12v-3.87a26.12 26.12 0 0 0 2.76.18h8.46V81c-2.88.24-6 .33-8 .39L772.86 78a70.79 70.79 0 0 0 10.23-.48 32.52 32.52 0 0 0 7.56-1.8l2.46 3.3c-1 .24-1.8.45-2.31.57a48.43 48.43 0 0 1-5 1v4.71zm16.83-8.7a25 25 0 0 0-.72 2.64A73.45 73.45 0 0 0 808 90.13a14.34 14.34 0 0 0 .12 1.92c.42-1 .9-2 1.32-3l1.86 1.44a71.63 71.63 0 0 0-2.13 7.29 8.73 8.73 0 0 0-.18 1.38c0 .33 0 .8.06 1.22l-3.42.25a37.93 37.93 0 0 1-1.17-9.72 82.37 82.37 0 0 1 1.23-11.76 22.2 22.2 0 0 0 .3-2.91zm7 14.67a9.78 9.78 0 0 0-.36 2.49c0 1.32 1.14 2.1 4.14 2.1a34.24 34.24 0 0 0 7.44-.78l.09 4a41.29 41.29 0 0 1-7.68.6c-5.13 0-7.56-1.87-7.56-4.89a18.31 18.31 0 0 1 .51-3.87zm10.38-12.72v3.84a82.23 82.23 0 0 1-12.75 0v-3.84a60.62 60.62 0 0 0 12.71 0zm17.93-2.76a30.49 30.49 0 0 0-.39 4c-.15 3.18-.36 9.84-.36 13.53 0 3 1.8 4 4.08 4 4.92 0 8-2.82 10.17-6.06l2.7 3.33a15.46 15.46 0 0 1-12.9 6.78c-4.86 0-8-2.13-8-7.2 0-4 .3-11.79.3-14.34a18.65 18.65 0 0 0-.39-4zm45.87 23.84a22.71 22.71 0 0 0-6-4.1v1c0 2.55-1.92 4.5-5.85 4.5-4.74 0-7.26-1.8-7.26-5 0-3 2.76-5.1 7.35-5.1a18.23 18.23 0 0 1 1.83.09c-.06-.9-.09-1.83-.12-2.7h-1.53c-1.74 0-5.16-.15-7.14-.39v-3.51a53.89 53.89 0 0 0 7.17.54h1.41V82h-1.41a49.47 49.47 0 0 1-6.45-.45v-3.39a39.33 39.33 0 0 0 6.45.57h1.47v-1.38a11.89 11.89 0 0 0-.15-2h4a19.86 19.86 0 0 0-.21 2.1v1.17a62.25 62.25 0 0 0 7.08-.72l.09 3.42c-2 .18-4.35.42-7.2.57v3.09c3-.12 5.49-.39 7.92-.69v3.51c-2.67.3-5 .51-7.86.6.06 1.11.12 2.31.21 3.45a23 23 0 0 1 8.31 4.5zm-9.78-5.33a15.92 15.92 0 0 0-2.43-.21c-2.1 0-3.24.81-3.24 1.83s1 1.83 3.09 1.83c1.59 0 2.61-.48 2.61-2.19 0-.33 0-.75-.03-1.26zm46.62-11.94c-1.8-.09-4.59-.15-8.61-.15v4.41a7.33 7.33 0 0 1 1.11 4.11c0 3.87-2.28 8.79-9.54 10.82L908 98.38c3-.63 5.61-1.63 7.26-3.39a6.41 6.41 0 0 1-1.35.15 5.23 5.23 0 0 1-5.13-5.46c0-3.36 2.7-5.55 5.94-5.55a7.13 7.13 0 0 1 1.17.09v-2c-4.5.06-9.09.24-12.75.45l-.09-3.6c3.39 0 8.79-.15 12.78-.21a7.62 7.62 0 0 0 0-.9 20.1 20.1 0 0 0-.27-2.58h4.32c-.09.48-.18 2.07-.21 2.55v.9h8.61zm-13.53 9.48c1.23 0 2.34-.93 2-3.51a2.12 2.12 0 0 0-2-1 2.28 2.28 0 1 0 0 4.56zm29.28 5.07a4.85 4.85 0 1 1-4.86-4.86 4.86 4.86 0 0 1 4.86 4.86zm-2.16 0a2.69 2.69 0 1 0-2.7 2.67 2.69 2.69 0 0 0 2.7-2.67z"/></g></g></svg>