<svg xmlns="http://www.w3.org/2000/svg" viewBox="0 0 655.75 54.29"><defs><style>.cls-1{fill:#fff}</style></defs><title>sp-bannertext2</title><g id="Layer_2" data-name="Layer 2"><path class="cls-1" d="M7 .66a34.92 34.92 0 0 1-2.25 4.71v14.76H3.12V7.9A22.22 22.22 0 0 1 1 10.52a8.22 8.22 0 0 0-1-1.63A24.54 24.54 0 0 0 5.44.15zm6.42 4.64v3.15h6.27V10h-6.27v3.32H20v1.54h-6.58v5.33h-1.65V5.3h-1.52a23.8 23.8 0 0 1-3.12 4.58 9.41 9.41 0 0 0-1.28-1.1A23.26 23.26 0 0 0 10.69.35l1.57.42c-.36 1-.77 2-1.21 3h9.15V5.3zm15.2-4.11a40.2 40.2 0 0 0-1 6.05c.86-2.24 3.15-4.95 5.9-4.95 2.9 0 5 2.9 5 7.48 0 6.05-3.8 8.71-9.22 9.7l-1-1.58c4.73-.73 8.43-2.62 8.43-8.1 0-3.43-1.15-5.89-3.46-5.89-2.7 0-5.21 3.93-5.48 6.79a9 9 0 0 0 .05 2.67l-1.72.13a26.81 26.81 0 0 1-.27-3.49 58.1 58.1 0 0 1 .66-7c.09-.68.16-1.34.18-1.87zM64 13h-9v4.89c0 1.17-.35 1.65-1.17 1.91a16.85 16.85 0 0 1-4.53.29 8.26 8.26 0 0 0-.7-1.63c1.85.07 3.56 0 4.07 0s.68-.15.68-.61V13h-9v-1.6h9V7.83h-7.59V6.27h7.57V2.88c-2.42.27-4.91.42-7.17.53A7.9 7.9 0 0 0 45.74 2c5.19-.24 11.57-.82 14.87-1.85l1.23 1.3A41.38 41.38 0 0 1 55 2.71v3.56h7.79v1.56H55v3.57h9zm11.81 4.4a12.78 12.78 0 0 0 1.87-.26c2.8-.62 5.53-2.68 5.53-6.45a6 6 0 0 0-5.79-6.31 46 46 0 0 1-1.3 6.27C74.78 15.12 73 17.43 71 17.43s-3.9-2.25-3.9-5.83c0-4.73 4.23-8.87 9.55-8.87 5.11 0 8.36 3.61 8.36 8 0 4.57-3 7.63-8.2 8.32zm-1.43-7.12a35.19 35.19 0 0 0 1.21-5.88 7.6 7.6 0 0 0-6.73 7c0 2.75 1.28 4 2.22 4s2.18-1.4 3.3-5.12zm25.41-9a25.34 25.34 0 0 1-3.19 5.43h2.84v1.45h-4a24.85 24.85 0 0 1-2.09 2.14h5.12v9.46h-1.58v-1H92v1.3h-1.56v-7.54c-.55.37-1.14.73-1.74 1.06a10.08 10.08 0 0 0-1-1.35 21.46 21.46 0 0 0 5.7-4.07h-5.25V6.71h4.36V4.07h-3.37V2.62h3.37V.26h1.54v2.36h2.73v1.21a24.54 24.54 0 0 0 1.54-3zm-2.9 10.36H92v2.13h4.93zm0 5.76v-2.31H92v2.31zM94.71 6.71a25.45 25.45 0 0 0 1.92-2.64h-2.58v2.64zM108.24 2c-.92 2.07-2.13 4.58-3.19 6.61 2.31 2 2.91 3.76 2.91 5.32a3.07 3.07 0 0 1-1.13 2.86 3.14 3.14 0 0 1-1.47.51 13.88 13.88 0 0 1-2 0 3.68 3.68 0 0 0-.48-1.61 11.2 11.2 0 0 0 1.87 0 2.57 2.57 0 0 0 1-.27c.49-.26.67-.92.64-1.71 0-1.39-.68-3-3-5 1-1.87 2-4.21 2.68-6H102v17.3h-1.6V1.32h6.44l.27-.07zM120.8.13A26.17 26.17 0 0 0 130.46 8a7.08 7.08 0 0 0-1.07 1.41 29.45 29.45 0 0 1-9.31-7.68 27.19 27.19 0 0 1-9.08 7.8 5.7 5.7 0 0 0-1-1.3 24.66 24.66 0 0 0 9.22-8.1zm-7.32 11.29h13.37v8.76h-1.67v-.91h-10.1v.91h-1.6zm12.16-4.2v1.45h-11V7.22zm-10.56 5.67v4.91h10.1v-4.91zm19.8-8.99c1.43-.14 5.55-.53 9.55-.89 2.38-.19 4.42-.3 5.88-.37V4.4a18 18 0 0 0-4.27.35 7.63 7.63 0 0 0-5 6.89c0 4.25 4 5.59 7.5 5.72l-.64 1.85c-4-.18-8.62-2.33-8.62-7.2a8.79 8.79 0 0 1 4-7.34c-1.91.21-7.85.79-10.21 1.27L133 4c.78 0 1.46-.06 1.88-.1zM149 10.12l-1.12.53a20.47 20.47 0 0 0-1.81-3.1l1.13-.49a26.89 26.89 0 0 1 1.8 3.06zm2.51-.94l-1.14.52a19.36 19.36 0 0 0-1.88-3l1.11-.51c.55.68 1.4 2.02 1.94 2.99zm7.29-7.44a11.29 11.29 0 0 0-.38 1.47 53.63 53.63 0 0 0-1.08 8.79 19.68 19.68 0 0 0 .2 3c.36-1 .86-2.29 1.23-3.17l.93.73a47.05 47.05 0 0 0-1.54 4.82 3.66 3.66 0 0 0-.11 1c0 .22 0 .52.06.75l-1.56.13a26.36 26.36 0 0 1-.83-6.91 67.17 67.17 0 0 1 1-9.16 10.41 10.41 0 0 0 .15-1.54zM173 17.6a16.46 16.46 0 0 0-3.28-2.48v.39c0 1.81-.84 3.57-3.79 3.57s-4.53-1.21-4.53-3.15 1.63-3.32 4.49-3.32a9.1 9.1 0 0 1 2 .2c-.06-1.68-.19-3.77-.22-5.57h-2.09c-1.23 0-2.37-.06-3.65-.13V5.48a34.56 34.56 0 0 0 3.7.2h2V2.93a8.3 8.3 0 0 0-.11-1.32h2c-.07.41-.11.85-.14 1.29 0 .6 0 1.61-.06 2.62a26.7 26.7 0 0 0 3.76-.5v1.71c-1.19.2-2.46.33-3.76.42 0 2.18.17 4.36.26 6.18a15 15 0 0 1 4.29 2.84zm-5-3.23a6.84 6.84 0 0 0-2.22-.35c-1.63 0-2.75.72-2.75 1.73s1.05 1.7 2.62 1.7c1.84 0 2.37-.9 2.37-2.36-.02-.19-.02-.46-.02-.72zm19.66-9.09a25.15 25.15 0 0 1-3.94.79 38.71 38.71 0 0 1-4.72 9.22l-1.72-.88a31.16 31.16 0 0 0 4.67-8.14c-.64 0-1.28.07-1.92.07-.81 0-1.71 0-2.53-.07l-.13-1.65a20.67 20.67 0 0 0 2.69.15c.77 0 1.58 0 2.42-.1a17.74 17.74 0 0 0 .65-3.77l2 .18c-.22.79-.51 2.11-.86 3.36a21.94 21.94 0 0 0 3.39-.79zm2.55 2.53a23.41 23.41 0 0 0 0 2.36c0 .79.11 2.22.16 3.54a14.73 14.73 0 0 1 4.51 2.73l-1 1.49a15.15 15.15 0 0 0-3.5-2.48v.88c0 1.73-1.14 3.17-3.82 3.17-2.4 0-4.36-1-4.36-3.15s1.89-3.3 4.36-3.3a9.67 9.67 0 0 1 2.06.2c-.06-1.79-.17-3.92-.22-5.44zm-1.47 7a7.85 7.85 0 0 0-2.2-.31c-1.61 0-2.66.72-2.66 1.71s.81 1.7 2.51 1.7 2.37-1 2.37-2.07c0-.31 0-.66-.02-1.05zm5.81-6.38a26.37 26.37 0 0 0-5-3l.85-1.36A32.87 32.87 0 0 1 195.54 7zm18.04-6.12c-.49.35-1.15.92-1.5 1.23-1.52 1.3-4.64 3.81-6.25 5.13-1.32 1.14-1.32 1.47.09 2.64 2 1.58 6 4.93 8.14 7l-1.58 1.43c-.44-.53-1-1.08-1.5-1.58-1.19-1.28-4.82-4.38-6.86-6s-1.83-2.71.15-4.36c1.63-1.39 4.93-4 6.4-5.48a10.39 10.39 0 0 0 1.26-1.46zm12.54 17.4a35.27 35.27 0 0 0-4.87-4.9l1.43-1.26a40.63 40.63 0 0 1 4.93 4.89zM237.78.59a32.48 32.48 0 0 1-2.25 4.54v15H234V7.48a23.42 23.42 0 0 1-2.44 2.91 9.59 9.59 0 0 0-.92-1.59 24.67 24.67 0 0 0 5.62-8.67zm13.44 17.25v1.57h-14.17v-1.57h6.36v-5.5h-5.06v-1.56h5.06V6h-5.79V4.42h7.51a30.68 30.68 0 0 0-4.56-3.23L241.65 0a30.85 30.85 0 0 1 4.84 3.32l-1 1.08h5.35V6H245v4.82h5.21v1.56H245v5.5zM270.27 13c0 1.17.05 1.45 0 2.36a3.3 3.3 0 0 1-2.84 3.54 24 24 0 0 1-4.51.42c-4.35 0-5-1.06-5-2.67v-1a3.58 3.58 0 0 1-.68.06c-1.24 0-2.82-.9-2.82-3.43 0-2.24 1.43-4.29 3.57-4.29a3.55 3.55 0 0 1 .57 0V5.81h-.77a25.14 25.14 0 0 1-3.48-.22L254.23 4a22.19 22.19 0 0 0 3.46.29h.88V3.17a9.92 9.92 0 0 0-.16-2.07h1.94a15.28 15.28 0 0 0-.13 2.07v.94a24.49 24.49 0 0 0 4.16-.77V5a33.59 33.59 0 0 1-4.16.66V9a3.47 3.47 0 0 1 .55 1.93 5.77 5.77 0 0 1-1.15 3.7v1.39c0 1.21.29 1.65 3.45 1.65a17.41 17.41 0 0 0 3.7-.38 2.21 2.21 0 0 0 1.8-2.42 15.77 15.77 0 0 0-.15-2.46zm-12.85 1c1.26 0 1.74-1.54 1.74-3 0-1-.53-1.65-1.25-1.65-1.08 0-2 1.15-2 2.77-.01 1.21.72 1.88 1.51 1.88zM268 3.28a24 24 0 0 1 4.34 4l-1.23 1.25a25.27 25.27 0 0 0-4.25-4.12zM285.8.75v1c.2 2.91 1.39 13.07 9.66 16.85a5.08 5.08 0 0 0-1.25 1.4c-5.68-2.69-8.1-8.32-9.15-12.72-1 4.4-3.24 9.7-8.81 12.72a5.93 5.93 0 0 0-1.32-1.26c8.92-4.55 8.92-15 9.07-17.95zm21.01 16.65a12.78 12.78 0 0 0 1.87-.26c2.8-.62 5.53-2.68 5.53-6.45a6 6 0 0 0-5.79-6.31 46 46 0 0 1-1.3 6.27c-1.34 4.47-3.08 6.78-5.1 6.78s-3.9-2.25-3.9-5.83c0-4.73 4.23-8.87 9.55-8.87 5.11 0 8.36 3.61 8.36 8 0 4.57-3 7.63-8.2 8.32zm-1.43-7.12a35.19 35.19 0 0 0 1.21-5.88 7.6 7.6 0 0 0-6.73 7c0 2.75 1.28 4 2.22 4s2.18-1.4 3.3-5.12zm21.45 3.43a31.74 31.74 0 0 0-2.62-2.88v9.33h-1.6v-8.48a20.51 20.51 0 0 1-3.15 2.69 7.28 7.28 0 0 0-.83-1.48 19.12 19.12 0 0 0 6.53-7.21h-5.74v-1.5h3.19V.09h1.6v4.09H326l.29-.07.9.6a20.48 20.48 0 0 1-2.62 4.64c1 .82 2.79 2.53 3.26 3zm10.52 4.9c.51 0 .6-.3.66-2.64a3.53 3.53 0 0 0 1.34.62c-.15 2.73-.57 3.39-1.82 3.39h-2c-1.52 0-1.87-.44-1.87-2v-4.54h-1.78c-.4 3.17-1.48 5.44-4.95 6.72a5.56 5.56 0 0 0-.95-1.26c3.08-1 4-2.9 4.34-5.46h-1.74V1.19h9.17v12.25h-2.62V18c0 .53.09.61.62.61zM330 4.84h6.1V2.55H330zm0 3.61h6.1V6.12H330zm0 3.63h6.1V9.75H330zm11.11 7.35a12.64 12.64 0 0 0 3-4.38l1.54.4a15.27 15.27 0 0 1-3 4.71zm17.34-5.7h-14.63v-7h6.31V.07h1.63v2.35h8.32V4h-8.32v2.73h6.69zm-1.65-5.46h-11.42v3.92h11.42zm-7.61 7.24a29.7 29.7 0 0 1 .55 4.25l-1.63.22a25.06 25.06 0 0 0-.49-4.34zm4.42-.17a22.52 22.52 0 0 1 1.65 4.2l-1.59.37a20.86 20.86 0 0 0-1.54-4.24zm4.42-.42a24 24 0 0 1 2.97 4.44l-1.54.62a23.89 23.89 0 0 0-2.82-4.51zm7.85-11.02c1.43-.14 5.55-.53 9.55-.89 2.38-.19 4.42-.3 5.88-.37V4.4a18 18 0 0 0-4.27.35 7.63 7.63 0 0 0-5 6.89c0 4.25 4 5.59 7.5 5.72l-.64 1.85c-4-.18-8.62-2.33-8.62-7.2a8.79 8.79 0 0 1 4-7.34c-1.91.21-7.85.79-10.21 1.27L364 4c.78 0 1.46-.06 1.88-.1zM380 10.12l-1.12.53a20.47 20.47 0 0 0-1.81-3.1l1.13-.49a26.89 26.89 0 0 1 1.8 3.06zm2.51-.94l-1.15.52a18.6 18.6 0 0 0-1.87-3l1.11-.51c.55.68 1.4 2.02 1.94 2.99zM404 9a35.19 35.19 0 0 1-4.56 3.1 11.7 11.7 0 0 0 5.66 5 6.69 6.69 0 0 0-1.1 1.34c-4.16-1.89-6.71-6.07-8.08-11.29a15.07 15.07 0 0 1-2.25 1.54c4.21 3.63 4.25 9.29 2.09 10.78a3.3 3.3 0 0 1-2.33.73h-1.91a4 4 0 0 0-.46-1.57 19 19 0 0 0 2 .11 2.1 2.1 0 0 0 1.52-.42c.79-.59 1.17-2.2.73-4.07a30.9 30.9 0 0 1-9.07 4.93 7.57 7.57 0 0 0-.86-1.36 25 25 0 0 0 9.44-5 8 8 0 0 0-.77-1.4 31.22 31.22 0 0 1-7 3.67 7.12 7.12 0 0 0-.88-1.28 24.49 24.49 0 0 0 7.15-3.38 11.91 11.91 0 0 0-1-1 35.67 35.67 0 0 1-5.39 2.09 10.62 10.62 0 0 0-.9-1.28 26.5 26.5 0 0 0 7.63-3.06h-4.68V5.74h12.3v1.41h-3.88a20.77 20.77 0 0 0 1.41 3.68 32.59 32.59 0 0 0 4-2.93zm-16.29-2.64h-1.61V2h8.19V.09h1.62V2h8.37v4.36h-1.68V3.54h-14.89zm22.19.37c1.85-.57 6.12-2.15 9.31-2.15 3.61 0 6.49 2.11 6.49 5.76 0 5.22-5.19 7.75-11.92 8.12l-.78-1.83c5.7-.15 10.78-1.87 10.78-6.31 0-2.29-1.67-4.09-4.62-4.09-3.57 0-9.13 2.4-10.85 3.1l-.81-2a18.44 18.44 0 0 0 2.4-.6zm14.66-2.46l-1.19.53a24.53 24.53 0 0 0-1.78-3.08l1.16-.49a23.66 23.66 0 0 1 1.81 3.04zm2.44-.93l-1.18.53a24.87 24.87 0 0 0-1.83-3l1.14-.51A23.49 23.49 0 0 1 427 3.34zm16.59-1.03c-.49.35-1.15.92-1.5 1.23-1.52 1.3-4.64 3.81-6.25 5.13-1.32 1.14-1.32 1.47.09 2.64 2 1.58 6 4.93 8.14 7l-1.58 1.43c-.44-.53-1-1.08-1.5-1.58-1.19-1.28-4.82-4.38-6.86-6s-1.83-2.71.15-4.36c1.63-1.39 4.93-4 6.4-5.48a10.39 10.39 0 0 0 1.26-1.46zm14.03-1.12a40.2 40.2 0 0 0-1 6.05c.86-2.24 3.15-4.95 5.9-4.95 2.9 0 5 2.9 5 7.48 0 6.05-3.8 8.71-9.22 9.7l-1-1.58c4.73-.73 8.43-2.62 8.43-8.1 0-3.43-1.15-5.89-3.46-5.89-2.7 0-5.21 3.93-5.48 6.79a9 9 0 0 0 .05 2.67l-1.72.13a26.81 26.81 0 0 1-.22-3.46 58.1 58.1 0 0 1 .66-7c.09-.68.16-1.34.18-1.87zm25.83 14.32c.07-.83.09-2.24.09-3.39-2 1.1-3.43 2.23-3.43 3.66 0 1.71 1.69 2 3.94 2a38.41 38.41 0 0 0 5.94-.52l-.05 1.74a55.59 55.59 0 0 1-6 .35c-3.12 0-5.63-.66-5.63-3.32s2.59-4.2 5.12-5.52a1.84 1.84 0 0 0-2-1.35 5.81 5.81 0 0 0-3.77 1.61c-.61.59-1.23 1.41-2 2.29l-1.49-1.12a23 23 0 0 0 5-6.65h-.9c-.92 0-2.4 0-3.59-.13V3.5c1.17.13 2.69.22 3.68.22h1.43a11.52 11.52 0 0 0 .67-2.72l1.8.15c-.15.62-.35 1.52-.66 2.51a58.85 58.85 0 0 0 6.67-.66v1.63a67.88 67.88 0 0 1-7.22.62 15.13 15.13 0 0 1-2 3.34 6.28 6.28 0 0 1 3-.81 2.73 2.73 0 0 1 2.88 2c1.5-.71 2.82-1.23 4-1.76.66-.29 1.19-.55 1.8-.86l.71 1.65c-.55.15-1.34.46-1.92.68-1.23.49-2.79 1.12-4.44 1.89 0 1.26 0 3.11.07 4.16zm18.88-8.18c3.74-.73 7.61-1.52 8.53-1.74a3.6 3.6 0 0 0 1.17-.4l1.3 1c-.16.24-.4.61-.55.88a32.23 32.23 0 0 1-4.51 6.4l-1.52-.9a21.56 21.56 0 0 0 3.92-5.24c-.38.07-4.45.88-8.34 1.67v6.56c0 1.52.57 2 3.21 2a33.29 33.29 0 0 0 6.84-.66l-.06 1.89a46.51 46.51 0 0 1-6.91.46c-4.09 0-4.87-1.07-4.87-3.23V9.4c-2.22.44-4.15.83-5.06 1l-.33-1.85c1-.11 3.06-.48 5.39-.92V3.9a12.37 12.37 0 0 0-.13-2h2.07a15.4 15.4 0 0 0-.15 2zm9.17-2.82a27.67 27.67 0 0 0-1.78-3l1.17-.5a33.24 33.24 0 0 1 1.8 3zm1.81-4.42a32.32 32.32 0 0 1 1.85 3l-1.16.52a21.28 21.28 0 0 0-1.83-3zM535 16v2.64h-1.89v-1.25h-12v1.25h-1.89c0-.26.07-1.89.07-2.66V3.41h15.75v1.72zM521.16 5.19v10.45h12V5.19zm26.62-3.8c-.09.39-.18.85-.26 1.27-.11.64-.31 1.92-.55 3.08 1-.06 1.91-.13 2.44-.13 1.93 0 3.54.75 3.54 3.7 0 2.59-.37 6-1.28 7.85a3.07 3.07 0 0 1-3.19 1.84 13.34 13.34 0 0 1-2.55-.33l-.28-1.85a10.44 10.44 0 0 0 2.66.48 1.82 1.82 0 0 0 1.91-1.12 18.75 18.75 0 0 0 1-6.66c0-2-.9-2.34-2.28-2.34-.53 0-1.39.07-2.34.16A43.57 43.57 0 0 1 542 19l-1.81-.72c2.23-3 3.85-7.9 4.58-10.81l-2.75.29-2 .26-.18-1.91h1.94c.68 0 2-.13 3.32-.24a25.55 25.55 0 0 0 .55-4.73zm7.5 2.31a38 38 0 0 1 4 7.79l-1.72.81a26.36 26.36 0 0 0-3.9-7.9zm10.91 7.63a10.35 10.35 0 0 1 7-2.62c3.35 0 5.57 2 5.57 4.56 0 3.91-3.45 6.56-11.55 5.87l-.53-1.8c6.87.83 10.23-1.15 10.23-4.12 0-1.73-1.6-2.94-3.83-2.94a8.45 8.45 0 0 0-6.73 2.88 4.33 4.33 0 0 0-.66 1.1l-1.65-.4A76.5 76.5 0 0 0 565.18 5l1.87.24c-.29 1.52-.66 4.68-.86 6.09zm1.35-10A59.43 59.43 0 0 0 576 3l-.42 1.72c-2.06-.29-6.79-1.26-8.47-1.72zm33.02 17.11c.88 0 1.06-.4 1.14-3.1a4.62 4.62 0 0 0 1.52.66c-.2 3.19-.68 4-2.53 4h-3.54c-2.07 0-2.62-.48-2.62-2.27v-4.4h-3.61c-.53 3.5-1.92 5.67-6.92 6.85a4.48 4.48 0 0 0-.92-1.43c4.51-.91 5.67-2.62 6.14-5.44h-3V.84h13.84v12.47h-3.89v4.38c0 .64.18.75 1.12.75zM587.82 4.55h10.6V2.31h-10.6zm0 3.64h10.6V5.92h-10.6zm0 3.67h10.6V9.57h-10.6zm26.27-6.47c.09-.55.17-1.14.24-1.78h-8.76V2.09h8.91c.07-.75.11-1.47.14-2.09l1.87.13c-.07.64-.16 1.3-.25 2h8.52v1.48H616c-.08.64-.19 1.23-.28 1.78h6.55v10.23h-11.53V5.39zM625 19h-16.7v1.17h-1.58V6h1.58v11.5H625zm-4.31-12.35h-8.38v1.76h8.38zm0 2.94h-8.38v1.79h8.38zm0 3h-8.38v1.85h8.38zm19.07-7.13v3.56a5.36 5.36 0 0 1 .7 2.8c0 2.94-1.43 6.22-6.49 7.74l-1.52-1.47c2.86-.66 4.89-1.85 5.79-3.79a3.1 3.1 0 0 1-1.87.55 3.51 3.51 0 0 1-3.61-3.65 3.83 3.83 0 0 1 3.85-3.81 4.2 4.2 0 0 1 1.45.25V5.48c-3.3 0-7 .18-9.73.37V4.14c2.42 0 6.51-.18 9.75-.22 0-.62 0-1.13-.05-1.43a12.81 12.81 0 0 0-.13-1.37h2l-.11 1.37V3.9h6.71v1.65c-1.23-.07-3.21-.11-6.4-.11zm-1.16 4.77a2 2 0 0 0-1.94-1.34 2.21 2.21 0 0 0-2.2 2.29 2.09 2.09 0 0 0 2.22 2.15c1.32 0 2.11-1.03 1.92-3.1zm17.15 6.23a3.36 3.36 0 1 1-3.36-3.35 3.36 3.36 0 0 1 3.36 3.35zm-1.14 0a2.21 2.21 0 0 0-2.22-2.22 2.23 2.23 0 0 0 0 4.46 2.21 2.21 0 0 0 2.22-2.24zM6.67 36.16c.94 0 5.43-.18 6.69-.33a6.41 6.41 0 0 0 1.18-.22l1.13 1.27a9.24 9.24 0 0 0-1.17.82C12.87 39 9.73 41.66 8 43c3.3-.35 7.21-.66 10.34-.66V44a31.71 31.71 0 0 0-5.52.11c-2.12.29-4.18 2.09-4.18 4.12s1.76 2.92 3.74 3.19a14.23 14.23 0 0 0 3.12.09l-.35 1.78c-5.33.22-8.23-1.45-8.23-4.8a5.16 5.16 0 0 1 2.53-4.09c-2.33.2-5.24.55-7.83 1l-.16-1.67c1.17-.11 2.64-.31 3.74-.44a90.48 90.48 0 0 0 7.2-5.88c-1 .07-4.75.26-5.7.35-.55.05-1.21.09-1.67.14l-.09-1.81a10.61 10.61 0 0 0 1.73.07zm35.77 14.56a5.56 5.56 0 0 1-4 1.83c-1.43 0-2.42-1-2.42-2.77 0-2.42.81-6 .81-8.12a1.55 1.55 0 0 0-1.74-1.78c-1.76 0-4.4 2-6.4 4.2 0 .92-.07 1.78-.07 2.55 0 2 0 3.3.09 5.26 0 .37.07.92.11 1.32h-1.91c0-.31.06-1 .06-1.3 0-2.09 0-3.17.07-5.59v-.83c-1.06 1.6-2.49 3.69-3.54 5.14l-1.1-1.51c1.21-1.52 3.72-4.91 4.82-6.63 0-.7.09-1.4.13-2.09-1 .11-2.88.38-4.25.55l-.1-1.82a9.9 9.9 0 0 0 1.43 0c.7 0 2-.17 3.1-.35.06-1 .11-1.8.11-2a8.27 8.27 0 0 0-.09-1.63l2.09.06c-.11.53-.28 1.76-.44 3.28h.11l.64.77c-.26.39-.64 1-1 1.52 0 .39-.06.81-.11 1.23 1.7-1.56 4.49-3.65 6.67-3.65s3.08 1.14 3.08 2.92c0 2.18-.82 5.94-.82 8.14 0 .75.36 1.32 1.13 1.32a4.8 4.8 0 0 0 3.28-1.8zm10.05-15.27c-.08.42-.19.86-.26 1.3-.13.64-.33 1.92-.57 3.08 1-.09 1.91-.15 2.44-.15 2 0 3.54.77 3.54 3.72 0 2.59-.35 6-1.25 7.85a3.09 3.09 0 0 1-3.19 1.81 13.7 13.7 0 0 1-2.58-.31l-.28-1.87a10.21 10.21 0 0 0 2.68.48 1.82 1.82 0 0 0 1.89-1.12 18 18 0 0 0 1-6.65c0-2-.9-2.33-2.31-2.33-.53 0-1.39.07-2.33.16a44 44 0 0 1-4.54 11.68L45 52.37c2.22-3 3.82-7.87 4.57-10.78-1.14.11-2.18.22-2.75.29s-1.41.15-2 .26l-.17-1.91h1.93c.7 0 2-.13 3.31-.24a24.73 24.73 0 0 0 .55-4.74zM60 37.94a36.87 36.87 0 0 1 4 7.74l-1.7.84a26.32 26.32 0 0 0-3.89-7.83zm.91.35a26.49 26.49 0 0 0-1.79-3.06l1.17-.48a30.88 30.88 0 0 1 1.83 3zm2.48-.9a24.93 24.93 0 0 0-1.82-3l1.16-.48a29.86 29.86 0 0 1 1.85 3zm6.53 1.89c0 1.37 0 3.37.15 5.15.35 3.65 1.41 6 3 6 1.12 0 2.13-2.24 2.71-4.44l1.38 1.58c-1.3 3.7-2.64 5-4.13 5-2 0-4-2-4.63-7.7a57.58 57.58 0 0 1-.24-5.81 11.64 11.64 0 0 0-.16-1.94l2.11.05a20.48 20.48 0 0 0-.19 2.11zm15.35 9.15l-1.78.71c-.37-3.92-1.69-8.23-3.76-10.78l1.72-.6a22.43 22.43 0 0 1 3.82 10.67zm19.83 3.79a16.11 16.11 0 0 0-5.26-3.28v1.36c0 1.5-1 3.06-3.85 3.06-3.12 0-4.86-1.12-4.86-3.23s1.91-3.32 5.06-3.32a12.13 12.13 0 0 1 1.83.13c0-1-.09-2-.11-2.91h-1.17c-1.5 0-3.92-.13-5.48-.3v-1.68a37.88 37.88 0 0 0 5.48.42h1.16v-3.12h-1.08c-1.51 0-3.82-.18-5.12-.33v-1.63a35 35 0 0 0 5.1.42h1.12v-1.43c0-.36 0-1-.06-1.3h1.87a10.1 10.1 0 0 0-.11 1.45v1.21a48.27 48.27 0 0 0 5.58-.53v1.61c-1.72.18-3.59.35-5.64.46v3.13a58.44 58.44 0 0 0 6.06-.58v1.65c-2.05.27-4 .42-6.05.51 0 1.12.11 2.27.15 3.3a18 18 0 0 1 6.34 3.39zm-7-3.76a10.42 10.42 0 0 0-2.11-.2c-2.07 0-3.19.79-3.19 1.78s.86 1.76 3 1.76c1.26 0 2.31-.37 2.31-1.87.03-.37.01-.88.01-1.47zm29 3.76a16.11 16.11 0 0 0-5.26-3.28v1.36c0 1.5-1 3.06-3.85 3.06-3.12 0-4.86-1.12-4.86-3.23s1.91-3.32 5.06-3.32a12.13 12.13 0 0 1 1.83.13c0-1-.09-2-.11-2.91h-1.21c-1.5 0-3.92-.13-5.48-.3v-1.68a37.88 37.88 0 0 0 5.48.42h1.16v-3.12h-1.08c-1.51 0-3.82-.18-5.12-.33v-1.63a35 35 0 0 0 5.1.42h1.12v-1.43c0-.36 0-1-.06-1.3h1.87a10.1 10.1 0 0 0-.11 1.45v1.21a48.27 48.27 0 0 0 5.58-.53v1.61c-1.72.18-3.59.35-5.64.46v3.13a58.44 58.44 0 0 0 6.06-.58v1.65c-2.05.27-4 .42-6.05.51 0 1.12.11 2.27.15 3.3a18 18 0 0 1 6.34 3.39zm-7-3.76a10.42 10.42 0 0 0-2.11-.2c-2.07 0-3.19.79-3.19 1.78s.86 1.76 3 1.76c1.26 0 2.31-.37 2.31-1.87.03-.37.01-.88.01-1.47zm14.78-10.56c1.43-.14 5.55-.53 9.55-.89 2.38-.19 4.42-.3 5.88-.37v1.76a18 18 0 0 0-4.27.35 7.63 7.63 0 0 0-5 6.89c0 4.25 4 5.59 7.5 5.72l-.64 1.85c-4-.18-8.62-2.33-8.62-7.2a8.79 8.79 0 0 1 4-7.34c-1.91.21-7.85.79-10.21 1.27L133 38c.78 0 1.46-.06 1.88-.1zM149 44.12l-1.12.53a20.47 20.47 0 0 0-1.81-3.1l1.13-.49a26.89 26.89 0 0 1 1.8 3.06zm2.51-.94l-1.14.52a19.36 19.36 0 0 0-1.88-3.05l1.11-.51c.55.73 1.4 2.07 1.94 3.04zm13.05 3.19h-5.89v-4.6h6v4.53a13.44 13.44 0 0 0 2.82-2.53 21.79 21.79 0 0 1-2-6.12h-8v1.94c0 2.53-.4 6.12-2.4 8.58a4.29 4.29 0 0 0-1.19-1c1.85-2.27 2.09-5.35 2.09-7.59v-3.29h9.29c-.09-.73-.16-1.48-.2-2.22h1.56c0 .74.09 1.49.18 2.22h4A11.54 11.54 0 0 0 168 34.9l.86-1a11.5 11.5 0 0 1 3.14 1.57l-.68.82h2.42v1.36h-6.71a21.07 21.07 0 0 0 1.43 4.76 15.24 15.24 0 0 0 1.78-3.7l1.52.35a18.17 18.17 0 0 1-2.51 4.84c.92 1.5 1.94 2.36 2.84 2.36.55 0 .77-.8.88-2.78a3.78 3.78 0 0 0 1.28.73c-.27 2.75-.86 3.52-2.25 3.52s-2.64-1-3.74-2.57a14.45 14.45 0 0 1-2.6 2.37 9.79 9.79 0 0 0-1.18-1.12zm-10.49 6.44a8.09 8.09 0 0 0 2.93-4.29l1.41.49a8.87 8.87 0 0 1-3 4.7zM165 40.27h-6.71v-1.14H165zm1.74 12.15c1 0 1.12-.27 1.19-2.31a4.35 4.35 0 0 0 1.49.59c-.22 2.57-.7 3.19-2.55 3.19h-4.27c-2.26 0-2.86-.44-2.86-2.11v-3.41h1.63v3.39c0 .55.18.66 1.37.66zm-3.48-9.51H160v2.29h3.23zm-.77 3.83a13.77 13.77 0 0 1 3.77 2.53l-1.13 1a14.77 14.77 0 0 0-3.71-2.66zm7.81 1.54a15.36 15.36 0 0 1 3.9 4.4l-1.45.79A14.58 14.58 0 0 0 169 49zm12.04-12.74c-.11.73-.18 1.47-.22 2.18-.09 2.46-.27 7.63-.27 10.89 0 2.38 1.57 3.21 3.59 3.21 4 0 6.25-2.24 7.81-4.51l1.21 1.52a10.85 10.85 0 0 1-9.09 4.8c-3.12 0-5.28-1.32-5.28-4.87 0-3.23.22-8.73.22-11a10.64 10.64 0 0 0-.2-2.2zm8.18 5.26l-1.3.59a27.55 27.55 0 0 0-2.06-3.56l1.25-.53a35.54 35.54 0 0 1 2.11 3.5zm2.91-1.19l-1.28.62a25 25 0 0 0-2.15-3.48l1.23-.57a33.88 33.88 0 0 1 2.2 3.43zm16.91-.09a40.4 40.4 0 0 1-4.51.75c-.19.95-.44 2-.68 2.88a64.39 64.39 0 0 1-3.41 10l-1.94-.64a48.5 48.5 0 0 0 3.66-9.74c.2-.73.37-1.52.55-2.31q-1.06.06-2 .06c-1 0-1.76 0-2.53-.08l-.07-1.72a19.7 19.7 0 0 0 2.62.15c.72 0 1.49 0 2.33-.09.16-.79.27-1.47.33-1.91a10.4 10.4 0 0 0 .07-1.8l2.13.17c-.15.49-.31 1.3-.39 1.74l-.33 1.61a31.06 31.06 0 0 0 4.15-.8zm-.85 7.64a7.67 7.67 0 0 0-.31 2c0 1 .48 2 3.58 2a24.59 24.59 0 0 0 4.25-.42l-.07 1.78a31.08 31.08 0 0 1-4.2.29c-3.43 0-5.23-1.06-5.23-3.21a12.08 12.08 0 0 1 .33-2.58zm-.55-5.3c1.14-.11 2.57-.18 4-.18a32.9 32.9 0 0 1 3.76.18v1.67a31.77 31.77 0 0 0-3.68-.27 33.63 33.63 0 0 0-4 .25zm16.3 4a8.38 8.38 0 0 0-.44 2.49c0 1.62 1.67 2.77 5.15 2.77a28.08 28.08 0 0 0 7.45-.84v1.89a32 32 0 0 1-7.44.75c-4.42 0-7-1.45-7-4.18a13.82 13.82 0 0 1 .44-3.06zm-.91-8.8a48.48 48.48 0 0 0 5.77.28c2.09 0 4.31-.15 5.87-.3v1.8c-1.47.11-3.87.26-5.87.26-2.18 0-4-.08-5.77-.24zm34.19 2.33a17.66 17.66 0 0 1-1.67.92 73.28 73.28 0 0 0-6.62 3.59c-2 1.32-3.23 2.75-3.23 4.4 0 1.81 1.71 2.93 5.14 2.93a32.15 32.15 0 0 0 7-.75v2a42.3 42.3 0 0 1-6.89.53c-4.09 0-7.06-1.23-7.06-4.49 0-2.24 1.43-4 3.76-5.65a72.94 72.94 0 0 1-3.17-6.72l1.74-.7a49.57 49.57 0 0 0 2.93 6.45c2-1.23 4.4-2.38 5.59-3.06a8.63 8.63 0 0 0 1.56-1zm15.29 12.01a12.78 12.78 0 0 0 1.87-.26c2.8-.62 5.53-2.68 5.53-6.45a6 6 0 0 0-5.79-6.31 46 46 0 0 1-1.3 6.27c-1.34 4.47-3.08 6.78-5.1 6.78s-3.9-2.25-3.9-5.83c0-4.73 4.23-8.87 9.55-8.87 5.11 0 8.36 3.61 8.36 8 0 4.57-3 7.63-8.2 8.32zm-1.43-7.12a35.19 35.19 0 0 0 1.21-5.88 7.6 7.6 0 0 0-6.73 7c0 2.75 1.28 4 2.22 4s2.18-1.4 3.3-5.12zm25.28-5a25.15 25.15 0 0 1-3.94.79 38.71 38.71 0 0 1-4.72 9.22l-1.72-.88a31.16 31.16 0 0 0 4.67-8.14c-.64 0-1.28.07-1.92.07-.81 0-1.71 0-2.53-.07l-.13-1.65a20.67 20.67 0 0 0 2.69.15c.77 0 1.58 0 2.42-.1a17.74 17.74 0 0 0 .68-3.77l2 .18c-.22.79-.51 2.11-.86 3.36a21.94 21.94 0 0 0 3.39-.79zm2.55 2.53a23.41 23.41 0 0 0 0 2.36c0 .79.11 2.22.16 3.54a14.73 14.73 0 0 1 4.51 2.73l-.95 1.49a15.15 15.15 0 0 0-3.5-2.48v.88c0 1.73-1.14 3.17-3.82 3.17-2.4 0-4.36-1-4.36-3.15s1.89-3.3 4.36-3.3a9.67 9.67 0 0 1 2.06.2c-.06-1.79-.17-3.92-.22-5.44zm-1.47 7a7.85 7.85 0 0 0-2.2-.31c-1.61 0-2.66.72-2.66 1.71s.81 1.7 2.51 1.7 2.37-1 2.37-2.07c0-.31 0-.66-.02-1.05zm5.81-6.38a26.37 26.37 0 0 0-5-3l.85-1.36a32.87 32.87 0 0 1 5.11 2.9zm7.37-3.15c0 1.37 0 3.37.15 5.15.35 3.65 1.41 6 2.95 6 1.12 0 2.13-2.24 2.71-4.44l1.38 1.58c-1.3 3.7-2.64 5-4.13 5-2.05 0-4-2-4.63-7.7a57.58 57.58 0 0 1-.24-5.81 11.64 11.64 0 0 0-.13-1.94l2.11.05a20.48 20.48 0 0 0-.17 2.11zm15.36 9.15l-1.79.71c-.37-3.92-1.69-8.23-3.76-10.78l1.72-.6a22.55 22.55 0 0 1 3.83 10.67zm2.54-4.53a22.79 22.79 0 0 0 1.18-5.59l1.25.16a25.79 25.79 0 0 1-1.1 5.89zm3.11-9.83h1.6v20.09h-1.6zm3.28 8.12a23.31 23.31 0 0 0-1.61-4.08l1.14-.52a23.44 23.44 0 0 1 1.7 4zm7.92 3.49c1.16 3.26 3.27 5.92 6.33 7a6.66 6.66 0 0 0-1.16 1.51c-3.06-1.34-5.11-4.05-6.36-7.48a11.78 11.78 0 0 1-6.1 7.51A8.38 8.38 0 0 0 335.7 53a10 10 0 0 0 5.85-7.31h-5.15v-1.57h5.37c.09-.94.11-1.87.11-2.75V39.1h-4.29v-1.54h4.29v-3.49h1.63v3.49h4.88v6.56h1.9v1.56zm-.62-4.31c0 .88 0 1.81-.11 2.75h3.39v-5h-3.28zm13.04 8.38c1 1.63 3 2.38 5.55 2.47 2.42.11 7.48 0 10.12-.13a6 6 0 0 0-.53 1.6c-2.46.11-7.1.16-9.57.05-2.88-.11-4.86-.88-6.23-2.6-1 1-2 1.87-3.05 2.82L352 52.4a37.47 37.47 0 0 0 3-2.54v-5.63h-2.79v-1.54h4.33zm-.66-10.54a16.33 16.33 0 0 0-3.47-3.67l1.25-.92a16.33 16.33 0 0 1 3.54 3.58zm5.42-2h-3.5v-1.3h6.07v-1.84h1.61v1.84h6.38v1.32h-3.39l.57.16c-.39.75-.81 1.52-1.16 2.11h3.21v9.68c0 .79-.15 1.21-.73 1.48a8.86 8.86 0 0 1-2.77.24 5.34 5.34 0 0 0-.51-1.41h2.14c.29 0 .33-.09.33-.33V40.8h-4.18v1.47h3.3v1.13h-3.3V45h2.35v4h-4.68v.84h-1.19V45h2.26v-1.6h-3.27v-1.13h3.27V40.8h-4v10.12h-1.5V39.5h2.86a9 9 0 0 0-.92-2.07zm5.08 2.21a15.49 15.49 0 0 0 1-2.21H362a8.19 8.19 0 0 1 .93 2.16l-.4.11h4.09zm.13 6.57h-3.47v1.9h3.47zm17.93 3.52c.07-.83.09-2.24.09-3.39-2 1.1-3.43 2.23-3.43 3.66 0 1.71 1.69 1.95 3.94 1.95a38.41 38.41 0 0 0 5.94-.52l-.05 1.79a55.59 55.59 0 0 1-6 .35c-3.12 0-5.63-.66-5.63-3.32s2.59-4.2 5.12-5.52a1.84 1.84 0 0 0-2-1.35 5.81 5.81 0 0 0-3.77 1.61c-.61.59-1.23 1.41-2 2.29l-1.49-1.12a23 23 0 0 0 5-6.65h-.9c-.92 0-2.4 0-3.59-.13V37.5c1.17.13 2.69.22 3.68.22h1.43a11.52 11.52 0 0 0 .55-2.71l1.8.15c-.15.62-.35 1.52-.66 2.51a58.85 58.85 0 0 0 6.67-.66v1.63a67.88 67.88 0 0 1-7.22.62 15.13 15.13 0 0 1-2 3.34 6.28 6.28 0 0 1 3-.81 2.73 2.73 0 0 1 2.88 2c1.5-.71 2.82-1.23 4-1.76.66-.29 1.19-.55 1.8-.86l.71 1.65c-.55.15-1.34.46-1.92.68-1.23.49-2.79 1.12-4.44 1.89 0 1.26 0 3.11.07 4.16zm23.39-1.05c1.56 2.35 4.38 3.78 8.2 4.33a6.63 6.63 0 0 0-1 1.41c-4.29-.75-7.28-2.6-8.95-5.74h-.2c-1.14 2.17-3.54 4.2-8.56 5.7a6.36 6.36 0 0 0-1-1.33c4.29-1.18 6.54-2.72 7.68-4.37h-7.46V47h8.21a7.2 7.2 0 0 0 .42-2.06h-6.1v-1.37h6.14v-2h-6.49v-1.34h6.49V38.4h1.63v1.83h6.8V37.7h-15.16v2.75h-1.59v-4.23h8.39v-2.13h1.62v2.13h8.41v4.23h-1.65v1.16h-6.8v2h6.49v1.37h-6.53a9.89 9.89 0 0 1-.36 2.06h9.33v1.46zm18.28-.05c-2.75.82-5.68 1.67-7.81 2.31l-.44-1.56c1-.24 2.15-.55 3.45-.92v-5.33h-2.77v-1.52h2.77v-4.68h-3v-1.5h7.5v1.5h-2.91v4.68h2.71v1.52h-2.71v4.91l3-.86zm10.32 4.18c.51 0 .59-.33.66-2.59a4 4 0 0 0 1.36.63c-.11 2.69-.52 3.37-1.84 3.37h-2.14c-1.56 0-2-.46-2-2v-4.93h-2.15c-.44 3.5-1.63 5.9-5.9 7.22a4.6 4.6 0 0 0-.93-1.35c3.88-1 4.87-3 5.22-5.87h-2V35H437v12h-3v5c0 .54.09.63.64.63zm-8.1-14h7.13v-2.2h-7.13zm0 3.5h7.13v-2.2h-7.13zm0 3.56h7.13v-2.21h-7.13zm18.31-10.24c-.11.7-.18 1.47-.23 2.18-.08 2.46-.26 7.61-.26 10.87 0 2.39 1.54 3.23 3.57 3.23 4 0 6.27-2.24 7.83-4.51l1.21 1.52a10.86 10.86 0 0 1-9.09 4.8c-3.12 0-5.28-1.33-5.28-4.87 0-3.23.22-8.73.22-11a11.22 11.22 0 0 0-.2-2.2zm32.45 16.81a16.11 16.11 0 0 0-5.26-3.28v1.36c0 1.5-1 3.06-3.85 3.06-3.12 0-4.86-1.12-4.86-3.23s1.91-3.32 5.06-3.32a12.13 12.13 0 0 1 1.83.13c-.05-1-.09-2-.11-2.91h-1.21c-1.5 0-3.92-.13-5.48-.3v-1.68a37.88 37.88 0 0 0 5.48.42h1.16v-3.12h-1.08c-1.51 0-3.82-.18-5.12-.33v-1.63a35 35 0 0 0 5.1.42h1.12v-1.43c0-.36 0-1-.06-1.3h1.87a10.1 10.1 0 0 0-.11 1.45v1.21a48.27 48.27 0 0 0 5.58-.53v1.61c-1.72.18-3.59.35-5.64.46v3.13a58.44 58.44 0 0 0 6.06-.58v1.65c-2 .27-4 .42-6 .51 0 1.12.11 2.27.15 3.3a18 18 0 0 1 6.34 3.39zm-7-3.76a10.42 10.42 0 0 0-2.11-.2c-2.07 0-3.19.79-3.19 1.78s.86 1.76 3 1.76c1.26 0 2.31-.37 2.31-1.87.03-.37.01-.88.01-1.47zm18.55-13.05c-.11.7-.18 1.47-.23 2.18-.08 2.46-.26 7.61-.26 10.87 0 2.39 1.54 3.23 3.57 3.23 4 0 6.27-2.24 7.83-4.51l1.21 1.52a10.86 10.86 0 0 1-9.09 4.8c-3.12 0-5.28-1.33-5.28-4.87 0-3.23.22-8.73.22-11a11.22 11.22 0 0 0-.2-2.2zm27.69 4.11a40.4 40.4 0 0 1-4.51.75c-.19.95-.44 2-.68 2.88a64.39 64.39 0 0 1-3.41 10l-1.94-.64a48.5 48.5 0 0 0 3.66-9.74c.2-.73.37-1.52.55-2.31q-1.06.06-2 .06c-1 0-1.76 0-2.53-.08l-.07-1.72a19.7 19.7 0 0 0 2.62.15c.73 0 1.49 0 2.33-.09.16-.79.27-1.47.33-1.91a10.4 10.4 0 0 0 .07-1.8l2.13.17c-.15.49-.31 1.3-.39 1.74l-.33 1.61a31.06 31.06 0 0 0 4.15-.8zm-.85 7.64a7.67 7.67 0 0 0-.31 2c0 1 .48 2 3.58 2a24.59 24.59 0 0 0 4.25-.42L525 52.5a31.36 31.36 0 0 1-4.21.29c-3.43 0-5.23-1.06-5.23-3.21a12.08 12.08 0 0 1 .33-2.58zm-.55-5.3c1.14-.11 2.57-.18 4-.18a32.9 32.9 0 0 1 3.76.18v1.67a31.77 31.77 0 0 0-3.68-.27 33.63 33.63 0 0 0-4 .25zm17.81 8.6a3.36 3.36 0 1 1-3.36-3.35 3.36 3.36 0 0 1 3.36 3.35zm-1.14 0a2.21 2.21 0 0 0-2.22-2.22 2.23 2.23 0 0 0 0 4.46 2.21 2.21 0 0 0 2.22-2.24z" id="SVG"/></g></svg>