<svg xmlns="http://www.w3.org/2000/svg" viewBox="0 0 307.76 307.76"><defs><style>.cls-1{fill:none;stroke:#73c3c4;stroke-miterlimit:10;stroke-width:3px;stroke-dasharray:5}</style></defs><title>sp-circle2</title><g id="Layer_2" data-name="Layer 2"><g id="SVG"><circle class="cls-1" cx="153.88" cy="153.88" r="152.38"/><path class="cls-1" d="M43.77 121.95h220.22"/><path d="M61.19 80.59a21.08 21.08 0 0 0-.08 2.12v9.47c0 .7 0 1.79.08 2.43h-4.14c0-.53.14-1.62.14-2.46v-9.44a17.61 17.61 0 0 0-.12-2.12zm12.91-.26c-.1.79-.1 1.67-.1 2.8v5.55c0 6-1.18 8.59-3.25 10.89a16.37 16.37 0 0 1-6.81 4.06L61 100.55A13.12 13.12 0 0 0 67.85 97c1.91-2.1 2.27-4.2 2.27-8.57v-5.3a18.65 18.65 0 0 0-.17-2.8zm30.24 8.38a10.51 10.51 0 0 0-.53 1.17 20.14 20.14 0 0 1-4.14 7.76 20.93 20.93 0 0 1-10 6l-2.8-3.16a18.93 18.93 0 0 0 9.72-4.9 12.09 12.09 0 0 0 2.88-4.84H86c-.67 0-2.07 0-3.25.14v-3.6c1.18.11 2.38.16 3.25.16h13.81a6.11 6.11 0 0 0 2-.27zm-19.06-8.12a24.05 24.05 0 0 0 2.91.13H99a26.78 26.78 0 0 0 3-.13v3.61c-.75-.06-2.07-.09-3.08-.09H88.19c-.9 0-2.1 0-2.91.09zm32.6 12.68l-3.41 1.29a57.72 57.72 0 0 0-2.55-6.47l3.36-1.2c.72 1.42 2.04 4.81 2.6 6.38zm14.23-5.83c-.34.9-.51 1.49-.67 2a22.62 22.62 0 0 1-3.81 8.2 22 22 0 0 1-9.38 7l-2.94-3a18.8 18.8 0 0 0 9.29-5.85 18.86 18.86 0 0 0 3.56-9.61zm-8 4.09l-3.36 1.18a46.17 46.17 0 0 0-2.27-6.22l3.34-1.09c.49 1.2 1.86 4.84 2.25 6.13zm37.62-6.89a11.82 11.82 0 0 0-.93 2 29 29 0 0 1-4.87 9.36 26.38 26.38 0 0 1-11.31 7.9l-3.31-3c5.74-1.71 8.85-4.14 11.29-6.92a19.79 19.79 0 0 0 4-7.64h-7.86a32.13 32.13 0 0 1-7.06 6.78l-3.14-2.33a24.68 24.68 0 0 0 8.74-9 13.42 13.42 0 0 0 1.26-2.94l4.09 1.34c-.67 1-1.37 2.24-1.71 2.86l-.08.14h5.62a8.81 8.81 0 0 0 2.44-.34zm26.36-1.56a12.38 12.38 0 0 0-1 1.73 40.68 40.68 0 0 1-4.4 7.7 79.51 79.51 0 0 1 7.81 8l-3.19 2.77a64.06 64.06 0 0 0-7.05-7.92 36.93 36.93 0 0 1-10.53 7.87l-2.89-3a31.58 31.58 0 0 0 11.48-8 21.86 21.86 0 0 0 4.18-6.86H173c-1.17 0-2.71.16-3.3.19v-4a31.84 31.84 0 0 0 3.3.19h9.86a10.35 10.35 0 0 0 2.91-.36zm19.44.81c-.5 4.65-2 7.59-9.15 9.13a9.43 9.43 0 0 0-1.79-2.8c6.1-1.07 7.08-3 7.53-6.33h-3.87v3.25H197v-6.28h10.13v-2.51h3.42v2.51h10.39v5.8h-3.45v-2.77h-3.94v4.42c0 .76.16.87 1 .87h2.49c.7 0 .84-.28 1-2a8.87 8.87 0 0 0 2.85 1.14c-.33 2.94-1.23 3.73-3.47 3.73h-3.33c-3.14 0-3.81-.9-3.81-3.67v-4.49zm13.64 16.83v3h-24.5v-3h10.44v-4.17h-7.5v-3h19.18v3h-8.26v4.17zm9.9-11.2v15h-3.31V79.41h10.73v10.11zm0-7.7v1.48h4.31v-1.48zm4.31 5.32v-1.6h-4.31v1.6zm16 13.41c0 1.79-.36 2.77-1.48 3.3s-2.72.65-5.12.65a13.19 13.19 0 0 0-.73-2.61h-6.95v1.43h-3V91.2h10.78v9.94h2.49c.36 0 .67-.17.67-.62v-11h-7.61V79.41h11zm-14.28-6.89v1.68h4.62v-1.68zm4.62 5.8v-1.74h-4.62v1.74zm1.85-17.64v1.48H248v-1.48zm4.43 5.37v-1.65h-4.45v1.65zM67.16 163.76a15.55 15.55 0 0 0 5.4.7c1.15 0 8.45 0 9.89-.05a7.38 7.38 0 0 0-.72 1.78h-9.14c-5.09 0-7.92-.8-9.68-4.06a15.6 15.6 0 0 1-1.44 4.87 10.21 10.21 0 0 0-1.46-.86c1.37-2.4 1.63-6.22 1.73-10.47l1.68.12c-.05 1.16-.1 2.28-.17 3.34a7.3 7.3 0 0 0 2.28 3.74v-9.09h-5v-1.59h4.57v-3.05h-4v-1.56h4v-2.66h1.7v2.66h3.87v1.56H66.8v3.05h4.49v1.59h-4.13v3.55h3.89v1.58h-3.89zm12-16.15h-7V146h8.74v8.77h-1.71v-.61h-5v6.22c0 .79.16.91 1.32.91h3.91c1 0 1.2-.48 1.3-3.33a5.5 5.5 0 0 0 1.6.69c-.32 3.41-.78 4.35-2.82 4.35h-4.2c-2.23 0-2.88-.53-2.88-2.55v-7.8h6.77zm23.14 6.14a30.91 30.91 0 0 1-4 1c.7 1.51 1.47 3.12 2.14 4.37l-.94 1.18c-1.2-.22-3.12-.48-4.63-.68l.17-1.46c1.15.14 2.28.26 3 .34-.45-.94-1-2.19-1.56-3.44a56.92 56.92 0 0 1-10.63.22l-.07-1.75a47.81 47.81 0 0 0 10 0l-.84-1.94c-.19-.41-.36-.84-.53-1.23a47.73 47.73 0 0 1-8.35 0l-.12-1.75a43.24 43.24 0 0 0 7.78.19c-.12-.26-.22-.5-.31-.72a18.84 18.84 0 0 0-.89-1.68l2.16-.45a24.16 24.16 0 0 0 .89 2.64 27.65 27.65 0 0 0 4.72-1.13l.34 1.7a31 31 0 0 1-4.42 1l.44 1c.19.51.52 1.25.93 2.14a24.09 24.09 0 0 0 4.39-1.18zm-13.65 4.95a8.07 8.07 0 0 0-.56 2.42c0 1.83 1.45 3 4.83 3a28.87 28.87 0 0 0 5.86-.55v1.94A37.29 37.29 0 0 1 93 166c-4.25 0-6.74-1.47-6.74-4.44a10.87 10.87 0 0 1 .55-3zm19.22-9.8c1.56-.14 6-.6 10.42-1 2.59-.21 4.82-.33 6.4-.4v1.92a19.75 19.75 0 0 0-4.65.38 8.28 8.28 0 0 0-5.43 7.49c0 4.66 4.32 6.12 8.19 6.26l-.7 2c-4.39-.17-9.41-2.52-9.41-7.83a9.58 9.58 0 0 1 4.42-8c-2.09.24-8.57.87-11.14 1.4l-.21-2.12c.91 0 1.65 0 2.11-.1zm23.24 1.66c0 1.49 0 3.67.16 5.62.39 4 1.54 6.6 3.22 6.6 1.22 0 2.33-2.45 2.95-4.85l1.51 1.73c-1.41 4-2.88 5.4-4.51 5.4-2.23 0-4.39-2.23-5-8.4a63 63 0 0 1-.26-6.34 12.63 12.63 0 0 0-.15-2.11h2.31a21.19 21.19 0 0 0-.23 2.35zm16.75 10l-1.94.76c-.41-4.27-1.85-9-4.11-11.76l1.87-.65a24.54 24.54 0 0 1 4.18 11.64zm18.83-12.26c-.43.29-1 .65-1.32.92-1.18.88-4.37 3.69-6.19 5.23a10.08 10.08 0 0 1 3.21-.5c4 0 6.82 2.4 6.82 5.61 0 3.84-3.19 6.34-8.21 6.34-3.24 0-5.23-1.44-5.23-3.41a3.38 3.38 0 0 1 3.67-3.12 4.7 4.7 0 0 1 4.9 4.2 4.15 4.15 0 0 0 2.95-4c0-2.33-2.35-4-5.35-4-3.92 0-6.08 1.65-9.1 4.72l-1.39-1.41c2-1.63 5-4.18 6.41-5.33s4.27-3.6 5.44-4.66c-1.24 0-5.92.27-7.15.34a11.9 11.9 0 0 0-1.61.14v-2a13.81 13.81 0 0 0 1.68.07c1.22 0 6.86-.17 8.11-.29a8.52 8.52 0 0 0 1.29-.19zm-4.11 15.7c-.21-1.88-1.34-3.17-3.14-3.17-1.08 0-1.9.65-1.9 1.46 0 1.18 1.37 1.85 3.15 1.85a12.33 12.33 0 0 0 1.89-.14zM189 150.68c-.53.34-1.13.65-1.82 1a82 82 0 0 0-7.23 3.91c-2.21 1.44-3.53 3-3.53 4.8 0 2 1.87 3.19 5.62 3.19a35.08 35.08 0 0 0 7.61-.81v2.16a47 47 0 0 1-7.51.57c-4.47 0-7.71-1.34-7.71-4.89 0-2.45 1.56-4.39 4.1-6.17a78.59 78.59 0 0 1-3.45-7.32l1.9-.77a54.85 54.85 0 0 0 3.19 7c2.23-1.34 4.8-2.59 6.09-3.33a10.14 10.14 0 0 0 1.71-1.13zm22.3 3.07a30.91 30.91 0 0 1-4 1c.7 1.51 1.46 3.12 2.14 4.37l-.94 1.18c-1.2-.22-3.12-.48-4.63-.68l.17-1.46c1.15.14 2.28.26 3 .34-.46-.94-1-2.19-1.56-3.44a56.92 56.92 0 0 1-10.63.22l-.08-1.75a47.9 47.9 0 0 0 10 0l-.84-1.94c-.19-.41-.36-.84-.53-1.23a47.73 47.73 0 0 1-8.35 0l-.12-1.75a43.24 43.24 0 0 0 7.78.19l-.32-.72c-.36-.74-.57-1.17-.88-1.68l2.16-.45a24 24 0 0 0 .88 2.64 27.55 27.55 0 0 0 4.73-1.13l.34 1.7a31.67 31.67 0 0 1-4.42 1l.43 1c.2.51.53 1.25.94 2.14a24.09 24.09 0 0 0 4.39-1.18zm-13.66 4.95a8.35 8.35 0 0 0-.55 2.42c0 1.83 1.44 3 4.83 3a28.77 28.77 0 0 0 5.85-.55v1.94a37.39 37.39 0 0 1-5.77.49c-4.25 0-6.74-1.47-6.74-4.44a10.5 10.5 0 0 1 .55-3zm33.24-3.94a7.89 7.89 0 0 1 2.45 5.5c0 3.53-3.19 5.69-7.87 5.69-3.24 0-5.86-1.42-5.86-5.31 0-.65.07-1.61.19-2.73a23.16 23.16 0 0 1-4.94-.87l.09-1.82a19.65 19.65 0 0 0 5 1c.17-1.39.36-2.88.53-4.27a33.56 33.56 0 0 1-5.07-.82l.1-1.78a21.89 21.89 0 0 0 5.19.87c.12-1 .21-1.83.26-2.48a9.07 9.07 0 0 0 0-1.65l2.16.12a14.53 14.53 0 0 0-.31 1.65c-.07.61-.19 1.44-.31 2.43a35.86 35.86 0 0 0 4.8-.29l-.05 1.8a45.89 45.89 0 0 1-4.82.24h-.17c-.19 1.39-.36 2.88-.53 4.25h.46a37.71 37.71 0 0 0 4.94-.29v1.83a44.83 44.83 0 0 1-4.65.21h-.87c-.09.94-.14 1.78-.14 2.35 0 2.26 1.3 3.7 4 3.7 3.6 0 5.9-1.54 5.9-4a6.54 6.54 0 0 0-2.61-4.85zm12.17 11.55a39.05 39.05 0 0 0-5.31-5.36l1.56-1.36a45 45 0 0 1 5.38 5.32zM69.8 197.85v2h-1.66v-18.7h6.7v16.7zm0-15.12v3.39h3.36v-3.39zm0 8.4h3.36v-3.5H69.8zm3.36 5.09v-3.55H69.8v3.55zm11.4-3.41c.6 4.35 1.82 7.2 3.07 7.2.48 0 .65-1.12.72-3.45a6.28 6.28 0 0 0 1.44.82c-.26 3.36-.86 4.29-2.3 4.29-2.31 0-3.87-3.67-4.61-8.86h-4.16v6.29c1.52-.26 3.17-.57 4.81-.86l.12 1.56-8.5 1.7-.51-1.7 2.36-.38V181h11.47v6.72h-4.32c0 1.2.1 2.38.22 3.46h4.84v1.65zm-5.84-10.22v3.53h8v-3.53zm3.94 8.57c-.12-1.11-.19-2.26-.24-3.46h-3.7v3.46zm12.43-1.39c1.71-.53 5.6-2 8.4-2 3.36 0 5.81 2 5.81 5.26 0 4.58-4.41 6.93-10.82 7.32l-.77-1.85c5.14-.17 9.65-1.61 9.65-5.5 0-2-1.59-3.48-4-3.48-2.95 0-8.14 2.16-9.67 2.76l-.8-2a15.63 15.63 0 0 0 2.2-.51zm17.75-5.86c1.56-.14 6-.6 10.42-1 2.59-.22 4.82-.34 6.41-.41v1.92a19.83 19.83 0 0 0-4.66.39 8.28 8.28 0 0 0-5.42 7.48c0 4.66 4.32 6.13 8.18 6.27l-.69 2c-4.4-.17-9.41-2.52-9.41-7.82a9.59 9.59 0 0 1 4.41-8c-2.08.24-8.56.86-11.13 1.39l-.22-2.11c.91-.02 1.66-.02 2.11-.11zm23.24 1.66c0 1.48 0 3.67.17 5.61.38 4 1.53 6.6 3.21 6.6 1.23 0 2.33-2.45 3-4.85l1.51 1.73c-1.42 4-2.88 5.4-4.51 5.4-2.24 0-4.4-2.23-5-8.4a63 63 0 0 1-.27-6.33 12.73 12.73 0 0 0-.14-2.12h2.3c-.17.63-.25 1.73-.27 2.36zm16.75 10l-1.94.77c-.41-4.27-1.85-9-4.1-11.76l1.87-.65a24.45 24.45 0 0 1 4.17 11.62zm18.83-12.26c-.43.29-1 .65-1.32.91-1.17.89-4.37 3.7-6.19 5.23a10.1 10.1 0 0 1 3.22-.5c4 0 6.81 2.4 6.81 5.62 0 3.84-3.19 6.33-8.21 6.33-3.24 0-5.23-1.44-5.23-3.41a3.38 3.38 0 0 1 3.67-3.12 4.7 4.7 0 0 1 4.9 4.2 4.14 4.14 0 0 0 2.95-4c0-2.33-2.35-4-5.35-4-3.91 0-6.07 1.66-9.1 4.73l-1.39-1.42 6.41-5.33c1.32-1.1 4.27-3.6 5.45-4.65-1.25 0-5.93.26-7.15.33a11.59 11.59 0 0 0-1.61.15l-.05-2a13.89 13.89 0 0 0 1.68.07c1.22 0 6.86-.17 8.11-.29a8.5 8.5 0 0 0 1.3-.19zm-4.1 15.69c-.22-1.87-1.35-3.17-3.15-3.17-1.08 0-1.89.65-1.89 1.47 0 1.17 1.37 1.85 3.14 1.85a11.26 11.26 0 0 0 1.9-.15zm26.38-13.31c-.52.33-1.12.64-1.82 1a79.84 79.84 0 0 0-7.22 3.92c-2.21 1.44-3.53 3-3.53 4.8 0 2 1.87 3.19 5.61 3.19a35 35 0 0 0 7.61-.82v2.16a45.61 45.61 0 0 1-7.51.58c-4.46 0-7.7-1.34-7.7-4.9 0-2.45 1.56-4.39 4.1-6.17a79.84 79.84 0 0 1-3.46-7.32l1.9-.76a54.85 54.85 0 0 0 3.19 7c2.23-1.35 4.8-2.59 6.1-3.34a9 9 0 0 0 1.7-1.13zm22.34 3.07a33.3 33.3 0 0 1-4 1c.7 1.51 1.47 3.12 2.14 4.37l-.94 1.17c-1.2-.21-3.12-.48-4.63-.67l.17-1.47c1.15.15 2.28.27 3 .34-.45-.94-1-2.18-1.56-3.43a57 57 0 0 1-10.63.21l-.07-1.75a47.13 47.13 0 0 0 10 0l-.84-1.94c-.19-.41-.36-.84-.52-1.22a49.89 49.89 0 0 1-8.36-.05l-.12-1.75a43.26 43.26 0 0 0 7.78.19l-.31-.72a16.4 16.4 0 0 0-.89-1.68l2.16-.46a24.89 24.89 0 0 0 .89 2.64 26.2 26.2 0 0 0 4.73-1.13l.33 1.71a34.23 34.23 0 0 1-4.41 1l.43 1c.19.5.53 1.25.93 2.14a24.83 24.83 0 0 0 4.4-1.18zm-13.66 4.94a8.1 8.1 0 0 0-.55 2.43c0 1.82 1.44 3 4.82 3a28.87 28.87 0 0 0 5.86-.55l-.05 1.95a37.37 37.37 0 0 1-5.7.47c-4.24 0-6.74-1.46-6.74-4.44a10.94 10.94 0 0 1 .55-3zm33.24-3.93a7.86 7.86 0 0 1 2.44 5.49c0 3.53-3.19 5.69-7.87 5.69-3.24 0-5.85-1.41-5.85-5.3 0-.65.07-1.61.19-2.74a23.17 23.17 0 0 1-5-.86l.1-1.83a19.57 19.57 0 0 0 5 1c.16-1.39.36-2.88.52-4.27a31.27 31.27 0 0 1-5.06-.82l.1-1.77a21.24 21.24 0 0 0 5.18.86c.12-1 .22-1.82.26-2.47a9.16 9.16 0 0 0 0-1.66l2.16.12a12.43 12.43 0 0 0-.31 1.66c-.08.6-.2 1.44-.32 2.42a36 36 0 0 0 4.8-.28v1.8c-1.52.14-2.93.24-4.83.24h-.17c-.19 1.39-.36 2.88-.52 4.24h.45a39.65 39.65 0 0 0 4.95-.28v1.82a42.52 42.52 0 0 1-4.66.22h-.86c-.1.93-.15 1.77-.15 2.35 0 2.25 1.3 3.69 4 3.69 3.6 0 5.91-1.53 5.91-4a6.54 6.54 0 0 0-2.62-4.85zM71.67 227.43a13.7 13.7 0 0 1-3.52 5.65 13.08 13.08 0 0 0 4.84 2.3 6.13 6.13 0 0 0-1.08 1.39 13.59 13.59 0 0 1-5-2.64 16.51 16.51 0 0 1-4.78 2.52 5.73 5.73 0 0 0-.93-1.34v1.49h-1.72v-2.33c-2.93.36-5.86.69-8.09 1l-.17-1.59c.68 0 1.44-.12 2.28-.21v-8.07h-2.06v-1.48h21v1.48H61.19v9.72A14.43 14.43 0 0 0 65.7 233a13.71 13.71 0 0 1-2.64-4.22l1-.31H62v-1.42h8.25l.31-.05zm-1.94-4.7H54.3v-7.08h15.43zm-14.59 2.83v1.61h4.34v-1.61zm0 4.64h4.34v-1.69h-4.34zm0 3.26c1.36-.14 2.85-.29 4.34-.46v-1.46h-4.34zM68 216.92H56v1.66h12zm0 2.86H56v1.68h12zm-3.43 8.69A11.24 11.24 0 0 0 66.9 232a11.39 11.39 0 0 0 2.59-3.53zm32.26 5.42v1.78H75.45v-1.78h9v-18.62h1.87v7.34h8.88v1.78h-8.93v9.5zm5.41-5.11a21 21 0 0 1-1.71 6.1 5.8 5.8 0 0 0-1.39-.68 17.17 17.17 0 0 0 1.56-5.71zm2.61-1.94v10h-1.58V227l-3.77.21-.14-1.58 1.58-.08c.53-.64 1.06-1.41 1.59-2.2a21.75 21.75 0 0 0-3.1-3.41l.91-1.15c.24.19.46.4.7.62a31.36 31.36 0 0 0 2.16-4.46l1.56.62c-.82 1.58-1.83 3.48-2.71 4.82a20.67 20.67 0 0 1 1.39 1.57 47.37 47.37 0 0 0 2.42-4.3l1.52.67a83.11 83.11 0 0 1-4.78 7.15c1.2-.05 2.47-.12 3.79-.19-.34-.74-.72-1.46-1.1-2.11l1.25-.5a19 19 0 0 1 2.25 4.89l-1.32.6a11.11 11.11 0 0 0-.46-1.44zm16.15-4.08a22.31 22.31 0 0 1-4.08 9.36 11.72 11.72 0 0 0 4.75 3.24 6.62 6.62 0 0 0-1.15 1.46 13 13 0 0 1-4.73-3.41 16.63 16.63 0 0 1-4.51 3.36 5.48 5.48 0 0 0-1.23-1.32 15.59 15.59 0 0 0 4.71-3.36 24.19 24.19 0 0 1-3.27-7.2c-.26 3.89-1.17 8.33-4 11.86a6.52 6.52 0 0 0-1.32-.94 14.57 14.57 0 0 0 1.92-3.17l-1 .36a22.61 22.61 0 0 0-1.41-4.27l1.29-.41a24.14 24.14 0 0 1 1.39 3.77 28 28 0 0 0 1.64-10.54V218h-2.36v-1.64h8.67l.29-.07 1.2.17c-.27 1.68-.68 3.86-1.11 5.93h2.93l.31-.07zm-9.41-3.51c.77 4.49 2.09 8.55 4.25 11.55A18.12 18.12 0 0 0 119 224h-2.61l-.24 1.1-1.61-.19c.48-2.09 1-4.87 1.37-6.91h-4.3zm21.62 14.55a15.39 15.39 0 0 0 2-.29c3.05-.67 6-2.93 6-7a6.58 6.58 0 0 0-6.31-6.88 51.32 51.32 0 0 1-1.41 6.84c-1.47 4.87-3.37 7.39-5.57 7.39s-4.25-2.45-4.25-6.36c0-5.16 4.61-9.67 10.42-9.67 5.56 0 9.12 3.93 9.12 8.73 0 5-3.29 8.33-9 9.08zm-1.56-7.8a37.89 37.89 0 0 0 1.32-6.41 8.3 8.3 0 0 0-7.35 7.68c0 3 1.4 4.32 2.43 4.32s2.37-1.59 3.6-5.59zm18.99-8.26c.19.38.6 1.15.84 1.56.4.79.88 1.75 1.36 2.73 2.86-1.27 6.08-2.54 8.55-2.54 3.29 0 5.3 1.9 5.3 4.49 0 2.74-1.75 4.82-5.47 4.82a10.53 10.53 0 0 1-3.55-.67l.07-1.92a7.92 7.92 0 0 0 3.36.79c2.62 0 3.67-1.41 3.67-3.09 0-1.44-1.1-2.72-3.45-2.72-2.07 0-5 1.13-7.73 2.41.31.64.62 1.32.91 2 1.3 2.93 2.78 7.37 3.6 10l-2.06.55a72.2 72.2 0 0 0-3.24-9.75c-.29-.67-.6-1.34-.89-2-1.83.88-3.48 1.75-4.56 2.23l-.94-2c.7-.19 1.54-.48 2-.65.79-.31 1.75-.74 2.78-1.2a25.57 25.57 0 0 0-1.34-2.61 15.16 15.16 0 0 0-1.15-1.68zm7.12 1.7a28.75 28.75 0 0 0-3.09-2.76l1.39-1a30.51 30.51 0 0 1 3.1 2.69zm24.63 1.32c0 1.35 0 2.81.05 3.89a5.85 5.85 0 0 1 .76 3c0 3.22-1.56 6.79-7.08 8.45l-1.65-1.61c3.12-.72 5.33-2 6.31-4.13a3.41 3.41 0 0 1-2 .6 3.82 3.82 0 0 1-3.94-4 4.18 4.18 0 0 1 4.2-4.15 4.73 4.73 0 0 1 1.59.26v-2.35c-3.6 0-7.63.19-10.6.4l-.05-1.87c2.64 0 7.1-.19 10.63-.24v-1.56a14.93 14.93 0 0 0-.14-1.49h2.18l-.12 1.49v1.54h7.36v1.8c-1.34-.07-3.5-.12-7-.12zm-1.27 5.24a2.12 2.12 0 0 0-2.12-1.46 2.41 2.41 0 0 0-2.4 2.49 2.3 2.3 0 0 0 2.43 2.36c1.39-.03 2.3-1.16 2.09-3.39zm14.61 1.17a11.27 11.27 0 0 1 7.69-2.86c3.64 0 6.07 2.19 6.07 5 0 4.28-3.77 7.16-12.6 6.41l-.58-2c7.49.92 11.16-1.24 11.16-4.48 0-1.9-1.75-3.22-4.17-3.22a9.24 9.24 0 0 0-7.35 3.14 5 5 0 0 0-.72 1.2l-1.8-.43a83.12 83.12 0 0 0 1.2-9.65l2 .27c-.27 1.63-.63 5.09-.9 6.62zm1.47-10.94a64.38 64.38 0 0 0 9.19 1.82l-.46 1.87c-2.25-.31-7.41-1.37-9.24-1.87zm33.09 7.65a32.73 32.73 0 0 1-4 1c.7 1.48 1.47 3.12 2.12 4.36l-.92 1.16c-1.2-.2-3.12-.46-4.65-.65l.16-1.49 3 .34c-.46-.94-1-2.19-1.56-3.41a58.65 58.65 0 0 1-10.63.21l-.08-1.77a47.9 47.9 0 0 0 10 0l-.84-1.94-.53-1.23a45.85 45.85 0 0 1-8.35 0l-.12-1.75a43.17 43.17 0 0 0 7.77.19 6.44 6.44 0 0 0-.31-.69 11.18 11.18 0 0 0-.89-1.71l2.16-.43c.24.79.56 1.7.92 2.62a19.45 19.45 0 0 0 4.13-1l.33 1.72a23.29 23.29 0 0 1-3.81.84l.4 1 1 2.13a24.81 24.81 0 0 0 4.4-1.17zm-13.69 5a8.57 8.57 0 0 0-.55 2.42c0 1.83 1.44 3 4.85 3a30.09 30.09 0 0 0 5.83-.53v1.92a36.94 36.94 0 0 1-5.73.46c-4.23 0-6.72-1.47-6.72-4.42a10.73 10.73 0 0 1 .55-3zm12.32-13.11a27.54 27.54 0 0 1 2 3.34l-1.25.58a22 22 0 0 0-1.94-3.39zm2.52-1a26.73 26.73 0 0 1 2.06 3.23l-1.22.6a23.13 23.13 0 0 0-2-3.32zm14.73 16.96c.07-.91.1-2.45.1-3.69-2.21 1.2-3.75 2.42-3.75 4 0 1.87 1.85 2.14 4.3 2.14a41.87 41.87 0 0 0 6.48-.58l-.05 1.94a60.1 60.1 0 0 1-6.5.39c-3.41 0-6.15-.72-6.15-3.63s2.83-4.58 5.59-6a2 2 0 0 0-2.13-1.46 6.32 6.32 0 0 0-4.11 1.75c-.67.65-1.34 1.53-2.16 2.49l-1.63-1.22a24.93 24.93 0 0 0 5.47-7.25h-1c-1 0-2.62 0-3.91-.14v-1.8c1.27.14 2.93.24 4 .24h1.56a13.2 13.2 0 0 0 .6-3l2 .17c-.16.67-.38 1.65-.72 2.73a62.54 62.54 0 0 0 7.28-.72v1.78a71.88 71.88 0 0 1-7.87.67 16.69 16.69 0 0 1-2.14 3.65 6.81 6.81 0 0 1 3.29-.89 3 3 0 0 1 3.15 2.16c1.63-.76 3.07-1.34 4.32-1.92.72-.31 1.29-.6 2-.93l.77 1.8c-.6.16-1.46.5-2.09.74-1.34.53-3 1.22-4.84 2.07 0 1.36 0 3.38.07 4.53z"/></g></g></svg>