<svg xmlns="http://www.w3.org/2000/svg" viewBox="0 0 307.76 307.76"><defs><style>.cls-1{fill:none;stroke:#73c3c4;stroke-miterlimit:10;stroke-width:3px;stroke-dasharray:5}</style></defs><title>sp-circle4</title><g id="Layer_2" data-name="Layer 2"><g id="SVG"><circle class="cls-1" cx="153.88" cy="153.88" r="152.38"/><path class="cls-1" d="M43.77 121.95h220.22"/><path d="M72.66 90.61A53.61 53.61 0 0 1 67.51 94a14.27 14.27 0 0 0 6.24 5.63 13.81 13.81 0 0 0-2.32 2.88c-5-2.66-7.76-7.81-9.36-14.34a18.51 18.51 0 0 1-2.33 1.63c5.29 4.59 5.07 11.56 2.3 13.58a4.63 4.63 0 0 1-3.42 1.17h-2.38a6.82 6.82 0 0 0-.95-3.19c1.06.08 2 .14 2.69.14a2 2 0 0 0 1.68-.59 3.69 3.69 0 0 0 .92-3.14 43.33 43.33 0 0 1-10.69 5.55 14.69 14.69 0 0 0-1.74-2.78 32.11 32.11 0 0 0 11.68-5.65 10.25 10.25 0 0 0-.54-1 41.84 41.84 0 0 1-8.48 4.2 11.53 11.53 0 0 0-1.68-2.52 30 30 0 0 0 8.65-3.64c-.22-.23-.45-.45-.7-.67a42 42 0 0 1-6.63 2.38A20.44 20.44 0 0 0 48.69 91a34.1 34.1 0 0 0 8.57-2.83h-4.09v-2.8h15v2.8H65a24.48 24.48 0 0 0 1.15 3.25 33.82 33.82 0 0 0 3.89-3zM52.19 86.8h-3.28v-6.24H59v-2.19h3.42v2.19h10.24v6.24h-3.42v-3.22h-17zm37.6 2.2s0 .89-.06 1.31c-.3 8.6-.61 11.88-1.4 12.94a2.61 2.61 0 0 1-1.93 1.15 12.63 12.63 0 0 1-2.88.11 7.94 7.94 0 0 0-.84-3 16.81 16.81 0 0 0 2.1.11.92.92 0 0 0 .84-.42c.45-.59.75-2.91.95-9.16h-2.41c-.39 4.93-1.34 9.38-3.69 12.55a8.75 8.75 0 0 0-2.33-2.33c2.83-3.75 3.08-9.88 3.17-16.27h-2.72v-3.14h4.62v-4.48h3.22v4.48h3.64v1.71A19.87 19.87 0 0 0 93 78.29l3 .71a22.05 22.05 0 0 1-1 2.69h9v3H93.63a21.84 21.84 0 0 1-2.3 3.3 19.15 19.15 0 0 0-2.6-1.79l.22-.23h-4.51c0 1 0 2-.08 3zm9.72 7.28a10.75 10.75 0 0 0 5.48 5.68 11.8 11.8 0 0 0-2.1 2.55 12.14 12.14 0 0 1-5-5.43 13.06 13.06 0 0 1-6 5.43 10.09 10.09 0 0 0-2.13-2.27c3.89-1.65 5.38-3.89 5.94-6h-5v-3h5.35v-2.85h-1.3a17.14 17.14 0 0 1-1.63 2.54 17.61 17.61 0 0 0-2.57-1.7 15.1 15.1 0 0 0 3.1-6.33l3 .67c-.17.64-.39 1.29-.62 1.9h7.79v2.92h-4.59v2.88h5v3zm21.75 3.65c1.06-.14 1.84-.28 2.57-.44 3.56-.84 6.3-3.39 6.3-7.42 0-3.84-2.07-6.7-5.79-7.34a60.6 60.6 0 0 1-1.66 7.53c-1.65 5.6-4.06 9-7.08 9s-5.66-3.39-5.66-8.07c0-6.38 5.58-11.87 12.77-11.87 6.86 0 11.2 4.79 11.2 10.84 0 5.82-3.58 10-10.58 11zm-2.16-8.4a44.05 44.05 0 0 0 1.48-6.72 8.7 8.7 0 0 0-7 8c0 2.8 1.12 4.17 2.15 4.17s2.27-1.69 3.37-5.45zm41.08.34a17 17 0 0 1-3.48 6.47 50.08 50.08 0 0 1 7 3.39l-2.7 2.71a48.09 48.09 0 0 0-7.11-3.7c-3 2-6.77 3.09-11.48 3.76a13.74 13.74 0 0 0-1.9-3 29.13 29.13 0 0 0 9.63-2.27c-1.23-.44-2.44-.89-3.61-1.25l-.51.89-3.5-1c1-1.62 2.19-3.75 3.39-6h-6v-3.14h7.62c.73-1.42 1.4-2.85 2-4.14l3.5.73c-.51 1.09-1.07 2.24-1.65 3.41h13.46v3.14zm-16.27-4.45h-3.39v-6.58h10v-2.49H154v2.49h10.28v6.58h-3.56v-3.5h-16.81zm5.88 4.45c-.59 1.18-1.21 2.32-1.77 3.42 1.68.47 3.5 1.09 5.35 1.76a11.15 11.15 0 0 0 2.94-5.18zm35.3 8.96h10.36v3h-23.83v-3h10V97.5h-7.76v-2.91h7.76v-3.22h-6.33v-2.22a35.83 35.83 0 0 1-3.11 1.94 12.05 12.05 0 0 0-2.1-2.69 30.52 30.52 0 0 0 11.37-10.14h3.44a29.51 29.51 0 0 0 12 9.8 15.88 15.88 0 0 0-2.21 3 35.64 35.64 0 0 1-3-1.88v2.19h-6.55v3.22h7.84v2.91h-7.84zm5.46-12.4a33.69 33.69 0 0 1-7.22-7 32.45 32.45 0 0 1-7 7zm31.64 3.44a17 17 0 0 1-3.47 6.47 50.08 50.08 0 0 1 7 3.39l-2.66 2.71a48.61 48.61 0 0 0-7.11-3.7c-3 2-6.78 3.09-11.48 3.76a13.43 13.43 0 0 0-1.91-3 29.2 29.2 0 0 0 9.64-2.27c-1.23-.44-2.44-.89-3.61-1.25l-.51.89-3.5-1c1-1.62 2.18-3.75 3.39-6h-6v-3.14h7.61a101.3 101.3 0 0 0 2-4.14l3.5.73c-.5 1.09-1.06 2.24-1.65 3.41h13.47v3.14zm-16.26-4.45h-3.39v-6.58h10v-2.49h3.53v2.49h10.28v6.58h-3.56v-3.5h-16.86zm5.87 4.45c-.58 1.18-1.2 2.32-1.76 3.42 1.68.47 3.5 1.09 5.35 1.76a11.15 11.15 0 0 0 2.94-5.18zM237 89c-.42 3.83-1.15 8.12-3 10.86l-3.1-1.79c1.65-2.41 2.46-6 2.83-9.75zm5.21-2.66v13.3c0 1.34.2 1.53 1.51 1.53h3.84c1.37 0 1.59-.86 1.79-5.26a9.94 9.94 0 0 0 3.11 1.46c-.37 5.21-1.26 6.86-4.62 6.86h-4.57c-3.55 0-4.53-1.09-4.53-4.59V86.33zM241 78.43a41.75 41.75 0 0 1 9.38 4.87l-2.19 2.94a37.57 37.57 0 0 0-9.33-5.24zm11.84 8.76a30 30 0 0 1 5.07 10.08l-3.4 1.73a30.33 30.33 0 0 0-4.73-10.22zM72 150.51c-1.46.39-3 .75-4.49 1 .87 1.89 2.16 4.65 3.19 6.65l-1.1 1.15c-1-.22-3.38-.55-4.92-.7l.19-1.56c.91.07 2.57.27 3.36.34-.67-1.47-1.87-3.94-2.59-5.59a50 50 0 0 1-10.11 0l-.07-1.92a40.16 40.16 0 0 0 9.43.15l-.79-1.75a20.6 20.6 0 0 0-1-2l2.13-.4c.58 1.58 1 2.64 1.54 3.91a36 36 0 0 0 4.87-1.2zm-13.42 7.13a9.58 9.58 0 0 0-.67 3c0 2.09 1.42 3.34 5 3.34a25.12 25.12 0 0 0 6.24-.65v2a30.54 30.54 0 0 1-6.25.55c-4.41 0-6.86-1.77-6.86-4.75a13.61 13.61 0 0 1 .65-3.65zm33.65 7.03a17.67 17.67 0 0 0-5.74-3.57c0 .6.05 1.13.05 1.49 0 1.63-1.11 3.33-4.2 3.33-3.41 0-5.31-1.22-5.31-3.53 0-2.16 2.09-3.62 5.52-3.62a14.38 14.38 0 0 1 2 .14c0-1-.1-2.18-.12-3.16h-1.32c-1.64 0-4.28-.15-6-.34v-1.82a43.57 43.57 0 0 0 6 .45h1.27v-3.41H83.2c-1.65 0-4.18-.19-5.59-.36v-1.77a38.42 38.42 0 0 0 5.57.45h1.22v-1.56a12.68 12.68 0 0 0-.07-1.41h2a11.87 11.87 0 0 0-.12 1.58v1.32a52.85 52.85 0 0 0 6.09-.57v1.75c-1.88.19-3.92.38-6.15.5V154a65.68 65.68 0 0 0 6.6-.62v1.8c-2.24.28-4.35.45-6.6.55 0 1.22.12 2.47.16 3.6a19.5 19.5 0 0 1 7 3.67zm-7.61-4.1a12.48 12.48 0 0 0-2.31-.22c-2.25 0-3.48.87-3.48 2s.94 1.92 3.29 1.92c1.37 0 2.52-.41 2.52-2 0-.5-.02-1.05-.02-1.7zm27.98-15.34a30.12 30.12 0 0 1 2 3.32l-.7.31.34 1.82a39.55 39.55 0 0 1-4.47 1c.84 1.87 2.11 4.63 3.19 6.64l-1.1 1.16c-1-.22-3.38-.56-4.94-.7l.21-1.56c.89.1 2.57.26 3.36.36-.69-1.49-1.87-3.94-2.59-5.62a48.42 48.42 0 0 1-10.11.08l-.07-1.92a40.5 40.5 0 0 0 9.41.14l-.79-1.75a10.58 10.58 0 0 0-1-2l2.16-.43c.55 1.61 1 2.67 1.54 3.92a40.48 40.48 0 0 0 4.2-1 25.4 25.4 0 0 0-1.87-3.21zm-11.81 12.6a9.47 9.47 0 0 0-.67 3c0 2.11 1.42 3.36 5 3.36a25.25 25.25 0 0 0 6.24-.65v2a31.29 31.29 0 0 1-6.25.55c-4.44 0-6.86-1.75-6.86-4.75a13.35 13.35 0 0 1 .65-3.62zm14.45-13.53a28.74 28.74 0 0 1 2 3.28l-1.3.58a23.08 23.08 0 0 0-2-3.33zm20.57 20.37a17.62 17.62 0 0 0-5.73-3.57v1.49c0 1.63-1.1 3.33-4.2 3.33-3.41 0-5.3-1.22-5.3-3.53 0-2.16 2.09-3.62 5.52-3.62a14.23 14.23 0 0 1 2 .14c0-1-.09-2.18-.12-3.16h-1.32c-1.63 0-4.27-.15-6-.34v-1.82a43.31 43.31 0 0 0 6 .45H128v-3.41h-1.17c-1.66 0-4.18-.19-5.6-.36v-1.77a38.65 38.65 0 0 0 5.57.45h1.2v-1.56c0-.38 0-1.08-.07-1.41h2a10.39 10.39 0 0 0-.12 1.58v1.32a52.81 52.81 0 0 0 6.1-.57v1.75c-1.87.19-3.91.38-6.14.5V154a66 66 0 0 0 6.6-.62v1.8c-2.23.28-4.34.45-6.6.55.05 1.22.12 2.47.17 3.6a19.44 19.44 0 0 1 6.91 3.69zm-7.61-4.1a12.37 12.37 0 0 0-2.3-.22c-2.26 0-3.48.87-3.48 2s.93 1.92 3.29 1.92c1.37 0 2.52-.41 2.52-2 0-.5-.03-1.05-.03-1.7zm23.59-10.01a29.22 29.22 0 0 1-4.29.87 42.71 42.71 0 0 1-5.19 10l-1.87-1a34 34 0 0 0 5.09-8.88c-.7.05-1.39.07-2.09.07-.89 0-1.87 0-2.76-.07l-.14-1.8a22.18 22.18 0 0 0 2.92.17c.84 0 1.73 0 2.64-.12a19.62 19.62 0 0 0 .75-4.1l2.15.3c-.24.86-.55 2.3-.93 3.67a24.4 24.4 0 0 0 3.69-.86zm2.79 2.76a24.78 24.78 0 0 0 0 2.57c0 .86.12 2.42.17 3.86a16 16 0 0 1 4.92 3l-1 1.63a16.46 16.46 0 0 0-3.82-2.71v1c0 1.9-1.25 3.46-4.18 3.46-2.62 0-4.75-1.08-4.75-3.44 0-2.18 2.06-3.6 4.75-3.6a11.63 11.63 0 0 1 2.26.22c-.08-1.94-.19-4.27-.24-5.93zm-1.58 7.61a8.54 8.54 0 0 0-2.4-.34c-1.75 0-2.91.8-2.91 1.88s.89 1.84 2.74 1.84 2.59-1.08 2.59-2.25c-.02-.31-.02-.7-.02-1.13zm6.33-7a28.25 28.25 0 0 0-5.42-3.26l.94-1.49a35.65 35.65 0 0 1 5.57 3.17zm8.67-1.74v3c0 3.45-.56 8.4-3.63 11.69a5 5 0 0 0-1.37-1.2c2.91-3.08 3.24-7.37 3.24-10.52v-2.68c-.57.52-1.2 1.05-1.84 1.53a5.18 5.18 0 0 0-1.32-1.32 19.66 19.66 0 0 0 6.62-7.89l2 .33c-.22.43-.46.89-.72 1.34H177l.28-.09 1.28.82a23.43 23.43 0 0 1-2 3.33h8v1.63zm2-4.17a27.33 27.33 0 0 1-1.92 2.54h6.5A20.69 20.69 0 0 0 176 148zM181.2 165c1.7 0 1.94-.57 2.11-3.57a5.06 5.06 0 0 0 1.68.67c-.31 3.55-.91 4.51-3.75 4.51h-6.81c-3.05 0-4-.55-4-2.88v-9.22h11v.72c-.24 3.75-.48 5.26-1 5.84a2.06 2.06 0 0 1-1.47.6 26.92 26.92 0 0 1-2.93 0 3.67 3.67 0 0 0-.48-1.56 19.25 19.25 0 0 0 2.64.12 1 1 0 0 0 .8-.21c.31-.34.5-1.37.67-3.92h-7.4v7.64c0 1.05.34 1.29 2.26 1.29zm13.69-18.45c-.75 2-1.71 4.54-2.57 6.56a7 7 0 0 1 2.37 5 3.08 3.08 0 0 1-1 2.72 2.66 2.66 0 0 1-1.29.45 11.52 11.52 0 0 1-1.78 0 4.3 4.3 0 0 0-.43-1.59 11.46 11.46 0 0 0 1.51 0 1.52 1.52 0 0 0 .84-.22 1.9 1.9 0 0 0 .53-1.61c0-1.27-.53-2.78-2.38-4.56.75-1.8 1.52-4.1 2.07-5.78h-3.31v19.25h-1.59v-20.86h5.59l.27-.08zm8 13.76c1.36 2.95 3.31 4.12 6.14 5.08a4.55 4.55 0 0 0-1 1.52 10.32 10.32 0 0 1-6.36-5.55c-.84 2.19-2.79 4.2-7 5.55a5.9 5.9 0 0 0-1-1.35c4.34-1.34 6-3.21 6.62-5.25h-4.85v-6.1h5.19v-2.09h-3.73v-1.29a19.42 19.42 0 0 1-2.11 1.24 7.78 7.78 0 0 0-.89-1.44 16.56 16.56 0 0 0 6.7-5.73h1.63a18.19 18.19 0 0 0 7 5.47 8.5 8.5 0 0 0-.93 1.54 18 18 0 0 1-2-1.13v1.34h-4v2.09h5.45v6.1zm-2.31-1.44v-3.18h-3.6v3.22zm5.45-8.26a20.12 20.12 0 0 1-4.58-4.15 17.71 17.71 0 0 1-4.28 4.15zm-3.79 5v2.09c0 .38 0 .74-.05 1.13h3.86v-3.22zm17.88-9.3c-.1.43-.19.94-.29 1.39-.12.7-.34 2.09-.6 3.37 1.1-.08 2.09-.15 2.66-.15 2.12 0 3.87.82 3.87 4 0 2.84-.41 6.58-1.39 8.57a3.34 3.34 0 0 1-3.48 2 15 15 0 0 1-2.79-.35l-.31-2a11.81 11.81 0 0 0 2.9.53 2 2 0 0 0 2.09-1.23 20.29 20.29 0 0 0 1.11-7.27c0-2.16-1-2.54-2.5-2.54-.58 0-1.51.07-2.54.16a47.89 47.89 0 0 1-5 12.77l-2-.79c2.42-3.24 4.2-8.62 5-11.78l-3 .31c-.55.07-1.51.19-2.14.29l-.19-2.09c.74.05 1.37 0 2.11 0s2.19-.15 3.63-.27a28.39 28.39 0 0 0 .6-5.16zm8.18 2.52a41.85 41.85 0 0 1 4.35 8.5l-1.88.89a28.39 28.39 0 0 0-4.24-8.62zm10.35 8.33a11.26 11.26 0 0 1 7.68-2.85c3.65 0 6.08 2.18 6.08 5 0 4.28-3.77 7.16-12.61 6.41l-.57-2c7.49.92 11.16-1.24 11.16-4.48 0-1.9-1.75-3.22-4.18-3.22a9.24 9.24 0 0 0-7.34 3.14 5 5 0 0 0-.72 1.2l-1.8-.43a85.35 85.35 0 0 0 1.2-9.65l2 .27c-.27 1.62-.68 5.08-.9 6.61zm1.47-10.94a63 63 0 0 0 9.19 1.82l-.46 1.87c-2.25-.31-7.41-1.36-9.24-1.87zM117.41 189.6a37.82 37.82 0 0 1-5 3.38 12.71 12.71 0 0 0 6.17 5.4 7.71 7.71 0 0 0-1.23 1.54c-4.53-2.06-7.32-6.63-8.81-12.31a17.18 17.18 0 0 1-2.44 1.68c4.58 4 4.63 10.13 2.28 11.76a3.64 3.64 0 0 1-2.55.79c-.57 0-1.32 0-2.09-.05a4.09 4.09 0 0 0-.5-1.7c.89.09 1.7.12 2.23.12a2.33 2.33 0 0 0 1.66-.46c.86-.65 1.27-2.4.79-4.44a34 34 0 0 1-9.92 5.38 8 8 0 0 0-.93-1.49 27.31 27.31 0 0 0 10.29-5.45 8.31 8.31 0 0 0-.84-1.54 34.15 34.15 0 0 1-7.65 4 8.42 8.42 0 0 0-1-1.39 26.67 26.67 0 0 0 7.8-3.7c-.34-.35-.7-.72-1.11-1.08a36.58 36.58 0 0 1-5.88 2.28 10.35 10.35 0 0 0-1-1.39 29.16 29.16 0 0 0 8.33-3.33H101v-1.54h13.42v1.54h-4.22a21.88 21.88 0 0 0 1.53 4 36 36 0 0 0 4.35-3.2zm-17.77-2.86h-1.75V182h8.93v-2.1h1.78v2.1h9.12v4.73h-1.83v-3.07H99.64zm30.07 2.16v.84c-.29 7.73-.58 10.4-1.25 11.26a1.86 1.86 0 0 1-1.44.77 15.56 15.56 0 0 1-2.38 0 4.32 4.32 0 0 0-.48-1.63c.91.09 1.73.09 2.09.09a.76.76 0 0 0 .74-.31c.46-.58.75-2.93 1-9.38h-3.14c-.34 4.48-1.11 8.59-3.22 11.28a4.47 4.47 0 0 0-1.3-1.18c2.62-3.31 2.93-9.29 3-15.1h-2.69v-1.65H125v-4h1.68v4h3.72v1.65H125c0 1.13-.05 2.26-.1 3.36zm3.2-4.25a18.33 18.33 0 0 1-2.12 3.22 13.89 13.89 0 0 0-1.44-1 17.56 17.56 0 0 0 3.7-7l1.63.39a27.11 27.11 0 0 1-1 2.78h8.57v1.63zm4.77 9.87a9.36 9.36 0 0 0 5.14 5.88 6.54 6.54 0 0 0-1.15 1.37 10.43 10.43 0 0 1-5-5.74c-.75 2-2.35 4.11-5.74 5.76a6.34 6.34 0 0 0-1.13-1.22c3.82-1.73 5.14-4 5.57-6h-4.87v-1.58h5.06a8.24 8.24 0 0 0 0-.85v-2.68h-2a14.44 14.44 0 0 1-1.58 2.71 12.48 12.48 0 0 0-1.42-.94 14.34 14.34 0 0 0 2.74-6l1.63.39c-.19.74-.43 1.51-.69 2.23h7.51v1.61h-4.54v3.53h4.94v1.58zm17.68 2.21c.07-.91.1-2.45.1-3.7-2.21 1.2-3.74 2.42-3.74 4 0 1.87 1.84 2.13 4.29 2.13a41.81 41.81 0 0 0 6.48-.57l-.05 1.94a60.18 60.18 0 0 1-6.5.38c-3.41 0-6.14-.72-6.14-3.62s2.83-4.58 5.59-6a2 2 0 0 0-2.14-1.46 6.33 6.33 0 0 0-4.1 1.75c-.68.65-1.35 1.54-2.16 2.5l-1.64-1.22a25.19 25.19 0 0 0 5.48-7.25h-1c-1 0-2.61 0-3.91-.15v-1.8a38.85 38.85 0 0 0 4 .24h1.56a12.86 12.86 0 0 0 .6-3l2 .16c-.17.68-.39 1.66-.72 2.74a64.85 64.85 0 0 0 7.27-.72v1.78a74.64 74.64 0 0 1-7.88.67 17.55 17.55 0 0 1-2.13 3.65 6.75 6.75 0 0 1 3.29-.89 3 3 0 0 1 3.14 2.16c1.63-.77 3.07-1.35 4.32-1.92.72-.31 1.3-.6 2-.94l.77 1.8c-.6.17-1.47.51-2.09.75-1.35.53-3.05 1.22-4.85 2.06 0 1.37.05 3.39.07 4.54zm33.26-5.95h-6.14v8.73c0 1.18-.29 1.73-1.13 2a18.83 18.83 0 0 1-4.56.29 7.26 7.26 0 0 0-.62-1.78c1.72.07 3.4.05 3.86.05s.65-.17.65-.58v-8.73h-13.11V189h13.11v-3.43h1.8V189h6.14zm-18.69-3.17h-1.8v-5h9v-2.71H179v2.71h9v5h-1.87v-3.36h-16.2zm1.94 4.39a21.15 21.15 0 0 1 4 4.94l-1.48 1a23.08 23.08 0 0 0-3.89-5.09zm34.13-8.69c-.43.29-1 .65-1.32.91-1.18.89-4.37 3.7-6.19 5.23a10.08 10.08 0 0 1 3.21-.5c4 0 6.82 2.4 6.82 5.62 0 3.84-3.19 6.33-8.21 6.33-3.24 0-5.23-1.44-5.23-3.41a3.38 3.38 0 0 1 3.67-3.12 4.71 4.71 0 0 1 4.9 4.21 4.15 4.15 0 0 0 3-4c0-2.33-2.35-4-5.35-4-3.92 0-6.08 1.66-9.1 4.73l-1.39-1.42 6.41-5.33c1.32-1.1 4.27-3.6 5.44-4.65-1.24 0-5.92.26-7.15.33a11.88 11.88 0 0 0-1.61.15l-.05-2a14 14 0 0 0 1.69.07c1.22 0 6.86-.17 8.11-.29a8.52 8.52 0 0 0 1.29-.19zM201.9 199c-.21-1.87-1.34-3.17-3.14-3.17-1.08 0-1.9.65-1.9 1.47 0 1.17 1.37 1.85 3.15 1.85a11.14 11.14 0 0 0 1.89-.15zM77.38 225.71a13.79 13.79 0 0 1-3.56 6.29 46.21 46.21 0 0 1 6.75 3.32l-1.3 1.48a43.45 43.45 0 0 0-7-3.55c-2.54 1.83-5.9 2.88-10.1 3.55a7.39 7.39 0 0 0-1.08-1.6 23.55 23.55 0 0 0 9.26-2.72c-1.58-.62-3.19-1.2-4.7-1.65-.22.36-.41.69-.6 1l-1.8-.48c.91-1.52 2-3.58 3.14-5.69h-5.82V224h6.75c.67-1.37 1.34-2.69 1.9-3.87l1.82.41c-.5 1.08-1.11 2.26-1.7 3.46h12.38v1.68zm-14.31-3.17h-1.8v-5.11h8.88v-2.55H72v2.55h9.12v5.11h-1.85v-3.46h-16.2zm5.4 3.17c-.67 1.29-1.37 2.59-2 3.74 1.78.53 3.68 1.18 5.55 1.87a11 11 0 0 0 3.34-5.61zm27.47-10.85a30.65 30.65 0 0 0 10.42 8.86 8.22 8.22 0 0 0-1.18 1.58 35.61 35.61 0 0 1-10-8.69 31.93 31.93 0 0 1-9.81 8.81 7.42 7.42 0 0 0-1.14-1.42 28.6 28.6 0 0 0 9.94-9.14zm.15 19.66h9.36v1.63H85.17v-1.63h9.09v-3.92h-7.15V229h7.15v-3.74h-6.07v-1.61h14.26v1.61h-6.36V229h7.27v1.58h-7.27zm29.52-8.81a13.69 13.69 0 0 1-3.55 6.33 45.54 45.54 0 0 1 6.74 3.32l-1.29 1.48a44.33 44.33 0 0 0-7-3.55c-2.55 1.83-5.91 2.88-10.11 3.55a7 7 0 0 0-1.08-1.6 23.6 23.6 0 0 0 9.27-2.72c-1.59-.62-3.19-1.2-4.71-1.65-.21.36-.4.69-.6 1l-1.8-.48c.92-1.52 2-3.58 3.15-5.69h-5.86V224h6.75c.67-1.37 1.34-2.69 1.89-3.87l1.83.41c-.51 1.08-1.11 2.26-1.71 3.46H130v1.68zm-14.3-3.17h-1.8v-5.11h8.88v-2.55h1.85v2.55h9.12v5.11h-1.85v-3.46h-16.2zm5.4 3.17c-.67 1.29-1.37 2.59-2 3.74 1.78.53 3.67 1.18 5.55 1.87a10.94 10.94 0 0 0 3.33-5.61zm18.85-1.9c-.39 3.22-1.13 7-2.84 9.29l-1.6-1c1.6-2.09 2.39-5.57 2.71-8.64zm4.08-2.28v12c0 1.11.26 1.32 1.58 1.32h4.42c1.44 0 1.65-.86 1.84-5a4.5 4.5 0 0 0 1.66.81c-.24 4.51-.82 5.83-3.41 5.83h-4.65c-2.55 0-3.24-.64-3.24-3v-12zm-.51-6.53a40.81 40.81 0 0 1 8.21 4l-1.13 1.56a36.74 36.74 0 0 0-8.21-4.15zm10.18 7.68a25.49 25.49 0 0 1 4.51 8.86l-1.75.84a26.56 26.56 0 0 0-4.32-8.9zm16.39 11.12a14.92 14.92 0 0 0 2-.29c3-.67 6-2.93 6-7a6.59 6.59 0 0 0-6.31-6.89 51 51 0 0 1-1.42 6.84c-1.46 4.87-3.36 7.39-5.57 7.39s-4.25-2.45-4.25-6.36c0-5.16 4.61-9.67 10.42-9.67 5.57 0 9.12 3.93 9.12 8.73 0 5-3.29 8.33-8.95 9.08zm-1.56-7.8a37.89 37.89 0 0 0 1.32-6.41 8.29 8.29 0 0 0-7.34 7.68c0 3 1.39 4.32 2.42 4.32s2.38-1.59 3.6-5.59zm14.43-.44a24.22 24.22 0 0 0 1.24-6.14l1.35.19A26.91 26.91 0 0 1 180 226zm3.43-10.68h1.78v21.92H182zm3.19 3.84a23 23 0 0 1 1.76 4l-1.35.65a23.72 23.72 0 0 0-1.6-4.07zm15.29 15.56V236h-14.62v-1.7h6.87v-6h-5.09v-1.66h5.09v-5h-3.51a17.17 17.17 0 0 1-1.68 3.72 13.76 13.76 0 0 0-1.58-.81 23.42 23.42 0 0 0 2.9-8.57l1.73.29c-.24 1.24-.53 2.49-.86 3.67h3v-5h1.77v5h5.43v1.7h-5.43v5h4.9v1.66h-4.9v6zm10.67-17.72a24 24 0 0 1 3.12 5.33l-1.52.67a13.67 13.67 0 0 0-.62-1.41l-9.26.5-.17-1.65 1.82-.07a36.27 36.27 0 0 0 2.21-5l1.8.44c-.65 1.46-1.42 3.14-2.16 4.51l4.92-.22a27 27 0 0 0-1.61-2.47zm1.48 18.2c0 .88-.16 1.39-.81 1.68a10.19 10.19 0 0 1-3.22.28 6.52 6.52 0 0 0-.57-1.6h2.47c.34 0 .38-.08.38-.39v-2.83h-5.06v4.87h-1.66v-13.39h8.47zm-6.81-9.89v2.06h5.06v-2.06zm5.06 5.66v-2.21h-5.06v2.21zm6.89-5.18c-2.28 0-2.88-.53-2.88-2.5v-7.92h1.75v4a39.86 39.86 0 0 0 5.55-2.26l1.2 1.3a49.63 49.63 0 0 1-6.75 2.42v2.43c0 .77.19.91 1.27.91h3.82c.91 0 1.08-.38 1.18-2.76a5.09 5.09 0 0 0 1.63.7c-.22 2.9-.77 3.67-2.66 3.67zm4.15 9.67c1 0 1.18-.48 1.3-3.17a4.59 4.59 0 0 0 1.61.67c-.24 3.22-.77 4.06-2.76 4.06h-4.25c-2.31 0-2.93-.53-2.93-2.5V226h1.75v3.79a26.14 26.14 0 0 0 5.83-2.52l1.18 1.35a35.2 35.2 0 0 1-7 2.66v2.78c0 .8.22.94 1.35.94zm15.08-3.29c.07-.91.1-2.45.1-3.69-2.21 1.2-3.75 2.42-3.75 4 0 1.87 1.85 2.14 4.3 2.14a41.87 41.87 0 0 0 6.48-.58l-.05 1.94a60.1 60.1 0 0 1-6.5.39c-3.41 0-6.15-.72-6.15-3.63s2.83-4.58 5.59-6a2 2 0 0 0-2.13-1.46 6.32 6.32 0 0 0-4.11 1.75c-.67.65-1.34 1.53-2.16 2.49l-1.62-1.26a25.3 25.3 0 0 0 5.47-7.25h-1c-1 0-2.62 0-3.91-.14v-1.8c1.27.14 2.92.24 4 .24h1.57a12.59 12.59 0 0 0 .59-3l2 .17c-.17.67-.38 1.65-.72 2.73a64.82 64.82 0 0 0 7.28-.71v1.77a71.88 71.88 0 0 1-7.87.67 16.69 16.69 0 0 1-2.14 3.65 6.78 6.78 0 0 1 3.29-.89 3 3 0 0 1 3.15 2.16c1.63-.76 3.07-1.34 4.32-1.92.72-.31 1.29-.6 2-.93l.77 1.8c-.6.17-1.46.5-2.09.74-1.34.53-3 1.23-4.84 2.07 0 1.36 0 3.38.07 4.53z"/></g></g></svg>