<svg xmlns="http://www.w3.org/2000/svg" viewBox="0 0 213.02 213.02"><defs><style>.cls-1{fill:#fff}.cls-2{fill:#73c6c7}</style></defs><title>sp-lb4</title><g id="Layer_2" data-name="Layer 2"><g id="SVG"><circle class="cls-1" cx="106.51" cy="106.51" r="105.01" transform="rotate(-84.35 106.5 106.513)"/><path class="cls-2" d="M106.51 3A103.51 103.51 0 1 1 3 106.51 103.63 103.63 0 0 1 106.51 3m0-3A106.51 106.51 0 1 0 213 106.51 106.51 106.51 0 0 0 106.51 0z"/><path d="M22.31 81.08a20.11 20.11 0 0 0-4.79-2.81l1.28-1.82a21.88 21.88 0 0 1 4.86 2.63zm-3.93 10.25A77.66 77.66 0 0 0 23 83.08l1.82 1.59c-1.27 2.7-2.91 5.8-4.37 8.22zm5.31-17.06a20.59 20.59 0 0 0-4.71-3l1.32-1.77a18.69 18.69 0 0 1 4.76 2.75zm8 4.78c-.23 1.07-.46 2.08-.7 3.07h8.89s-.05.7-.1 1c-.47 5.82-1 8.21-1.9 9.15a3.17 3.17 0 0 1-2.31.91 32.88 32.88 0 0 1-4.14 0 4.64 4.64 0 0 0-.83-2.29c1.69.11 3.4.11 4.06.11a1.62 1.62 0 0 0 1.17-.29c.6-.5 1-2.37 1.4-6.42h-6.76c-.13.46-.26.93-.36 1.35l-2.5-.34c.5-1.69 1.07-3.93 1.61-6.27H25v-2.24h4.71c.26-1.27.49-2.52.7-3.72H26.1v-2.26h14.28v2.26h-7.44c-.21 1.2-.47 2.45-.75 3.72h9.23v2.26zm36.04 10.33A6.7 6.7 0 0 1 63 91.43c-1.8 0-3.05-1.25-3.05-3.54 0-2.83 1-6.86 1-9.3a1.75 1.75 0 0 0-1.93-2c-2 0-5 2.42-7.2 4.84-.05.91-.08 1.79-.08 2.6 0 2.24 0 4.08.11 6.42 0 .47.1 1.22.15 1.74h-2.89c0-.44.08-1.27.08-1.69 0-2.39.05-3.87.11-6.73-1.2 1.77-2.71 4-3.8 5.49L43.89 87c1.43-1.79 4.24-5.51 5.61-7.59.06-.73.11-1.48.16-2.21l-4.89.65-.26-2.65h1.93c.73 0 2.15-.2 3.38-.39.07-1.11.13-2 .13-2.23a11.45 11.45 0 0 0-.13-2.08l3 .1c-.13.65-.34 2-.52 3.69l.91 1.1c-.34.46-.81 1.19-1.22 1.84 0 .37-.06.7-.08 1.07 2-1.82 5.15-4.08 7.67-4.08s3.82 1.48 3.82 3.61c0 2.6-.91 6.76-.91 9.39 0 .8.36 1.37 1.17 1.37a5.46 5.46 0 0 0 3.64-2zm5.33-15.84c1.9-.15 6.47-.6 11.21-1 2.75-.21 5.33-.37 7.09-.42v2.6a22.94 22.94 0 0 0-5 .39 8.48 8.48 0 0 0-5.69 7.72c0 4.68 4.37 6.24 8.63 6.43L88.37 92c-5-.26-10.34-3-10.34-8.66A10.26 10.26 0 0 1 82.39 75c-2.26.26-8.58.89-11.44 1.49l-.28-2.84c1.01 0 1.9-.06 2.39-.11zm27.48 2.16c0 1.61 0 3.8.18 5.8.39 4 1.43 6.76 3.15 6.76 1.3 0 2.42-2.81 3-5.18l2.08 2.42c-1.64 4.42-3.22 6-5.12 6-2.6 0-5-2.5-5.7-9.29a68.14 68.14 0 0 1-.28-6.89 13.37 13.37 0 0 0-.18-2.41h3.14a20.84 20.84 0 0 0-.27 2.79zm18 10.71l-2.68 1c-.42-4.42-1.9-10-4.5-13l2.57-.86c2.42 3.01 4.32 8.68 4.66 12.86zm21.7-13.15c-.52.33-1.11.72-1.58 1.06-1.33.94-4.45 3.67-6.27 5.18a9.54 9.54 0 0 1 3-.45c4.32 0 7.52 2.66 7.52 6.24 0 4.14-3.3 7.08-9.08 7.08-3.56 0-6-1.62-6-3.93a4 4 0 0 1 4.26-3.67 5.15 5.15 0 0 1 5.41 4.53 4.22 4.22 0 0 0 2.71-4c0-2.42-2.45-4.14-5.59-4.14-4.11 0-6.56 1.93-9.6 5.15l-1.9-1.92c2-1.64 5.23-4.34 6.74-5.59s4.39-3.67 5.69-4.79c-1.35.06-5.74.24-7.1.32-.65 0-1.32.1-1.89.18l-.08-2.68a18.06 18.06 0 0 0 2.05.13c1.35 0 7.18-.16 8.58-.29a8.24 8.24 0 0 0 1.64-.26zm-5 16.66c-.21-1.9-1.33-3.14-3-3.14-1.06 0-1.84.62-1.84 1.43 0 1.11 1.32 1.82 3.07 1.82a13.19 13.19 0 0 0 1.76-.11zm22.94-19.03c-.13.55-.26 1.2-.36 1.77-.16.78-.39 2-.62 3.2 1.06-.08 2-.13 2.57-.13 2.5 0 4.39 1 4.39 4.62 0 3.05-.39 7.13-1.48 9.34-.83 1.74-2.16 2.23-4 2.23a14 14 0 0 1-3-.39l-.44-2.7a13.88 13.88 0 0 0 3.17.55 2 2 0 0 0 2.11-1.23c.78-1.61 1.14-4.83 1.14-7.51 0-2.21-1-2.57-2.62-2.57-.52 0-1.38.05-2.34.13-1 3.79-2.79 9.69-5.31 13.8l-2.68-1.06c2.55-3.44 4.4-9 5.31-12.46l-2.78.31c-.68.08-1.85.24-2.58.37l-.23-2.81c.85.05 1.61 0 2.47 0s2.21-.13 3.66-.26a27.58 27.58 0 0 0 .6-5.51zm8.87 2.57a46 46 0 0 1 4.63 9.36l-2.55 1.23c-.73-2.73-2.68-7.34-4.5-9.55zM180 82.2a12.48 12.48 0 0 1 8-2.81c4.18 0 6.83 2.58 6.83 5.62 0 4.65-4 8-14 7.15l-.81-2.68c8 1 12-1.12 12-4.52 0-1.9-1.77-3.23-4.24-3.23a9.64 9.64 0 0 0-7.57 3.27 5.76 5.76 0 0 0-.86 1.37l-2.35-.61a97.77 97.77 0 0 0 1.3-10.58l2.75.36c-.38 1.62-.82 5.07-1.05 6.66zm1.23-11.54a75.1 75.1 0 0 0 10.11 2l-.6 2.52c-2.52-.33-8.19-1.5-10.16-2zM54.24 117H43.81v5.1c0 1.58-.44 2.26-1.53 2.62a18.47 18.47 0 0 1-5.52.42 10.19 10.19 0 0 0-1-2.39c2.08.07 4.16.07 4.76 0s.78-.18.78-.73V117H30.84v-2.37h10.45v-3.69H32.6v-2.31h8.69v-3.54c-2.78.23-5.62.42-8.24.52a7.18 7.18 0 0 0-.58-2.11c6.14-.28 13.47-1 17.53-2.13l1.79 2a54.54 54.54 0 0 1-8 1.46v3.82h8.94v2.31h-8.92v3.69h10.43zm14.53 2.55c.08-.89.1-2.34.1-3.62-2.18 1.23-3.56 2.4-3.56 3.9 0 1.77 1.67 2.11 4.27 2.11a43 43 0 0 0 7.15-.68l-.08 2.63a66.58 66.58 0 0 1-7.15.44c-3.85 0-6.84-.88-6.84-4.08s3.09-5.17 6.06-6.68a2 2 0 0 0-2.08-1.28 6.6 6.6 0 0 0-4.27 1.85 28.88 28.88 0 0 0-2.37 2.75l-2.21-1.66a26.75 26.75 0 0 0 5.82-7.51h-.75c-1.07 0-2.86-.06-4.29-.16v-2.42a38.23 38.23 0 0 0 4.42.29h1.51a15.87 15.87 0 0 0 .59-3.1l2.68.21a26.2 26.2 0 0 1-.73 2.78 58 58 0 0 0 7.62-.75V107a77.59 77.59 0 0 1-8.47.7 18.74 18.74 0 0 1-2 3.36 7.52 7.52 0 0 1 3.27-.75 3.38 3.38 0 0 1 3.54 2.14c1.59-.76 2.92-1.3 4.14-1.85.86-.39 1.61-.72 2.44-1.14l1 2.39c-.71.21-1.82.62-2.6.94-1.33.49-3 1.19-4.79 2 0 1.46.08 3.52.11 4.74zm17.52-11.03c2.08-.65 7.21-2.49 11-2.49 4.42 0 7.93 2.57 7.93 7.07 0 6-5.87 9.36-14.32 9.8l-1.17-2.73c6.83-.15 12.61-2.18 12.61-7.12 0-2.58-1.85-4.58-5.15-4.58-4 0-10.38 2.73-12.72 3.69l-1.17-2.86c.94-.18 2.03-.49 2.99-.78zm28.21-5.33c-.18.55-.39 1.36-.52 1.87-.72 3.33-1.61 8.84-.78 12.62.37-1 .86-2.37 1.3-3.51l1.36.85a61.18 61.18 0 0 0-1.72 6 4.55 4.55 0 0 0-.13 1.17v1l-2.23.26a28.27 28.27 0 0 1-1.41-8.24 71 71 0 0 1 .91-10.3 17.91 17.91 0 0 0 .16-1.92zm16.88 7c-1.12.16-2.5.29-4 .39v1c0 6-.2 10-5.51 13.24l-2.39-1.87a9.38 9.38 0 0 0 2.73-1.82c2.42-2.24 2.68-4.87 2.68-9.57v-.81h-3.1c-1.19 0-2.88-.08-4.08-.15V108a28.44 28.44 0 0 0 4 .26c1 0 2.06 0 3.1-.06 0-1.55-.08-3.09-.13-3.77a15.09 15.09 0 0 0-.26-1.61h3a15.88 15.88 0 0 0-.11 1.61v3.62a35.81 35.81 0 0 0 4-.55zm17.86-2.13a50.24 50.24 0 0 1-5.17.85c-.24 1.12-.52 2.27-.81 3.36a76.82 76.82 0 0 1-4.06 11.85l-2.86-1a55.74 55.74 0 0 0 4.37-11.54c.24-.78.44-1.64.63-2.47h-2.06c-1.19 0-2.13 0-3.07-.1l-.05-2.55a25 25 0 0 0 3.15.21c.8 0 1.66 0 2.57-.11.13-.75.26-1.43.31-1.9a12 12 0 0 0 .08-2.34l3.15.24c-.18.65-.39 1.69-.5 2.21l-.31 1.5a40.72 40.72 0 0 0 4.63-.88zm-.81 8.76a10.06 10.06 0 0 0-.36 2.23c0 1.17.62 2.21 3.9 2.21a28.11 28.11 0 0 0 5.15-.52l-.08 2.63a35.26 35.26 0 0 1-5.1.36c-4.18 0-6.34-1.37-6.34-3.92a17 17 0 0 1 .39-3.23zm-1-6.35a46.85 46.85 0 0 1 4.81-.26 42.12 42.12 0 0 1 4.5.24l-.08 2.47a36.11 36.11 0 0 0-4.37-.32 40.48 40.48 0 0 0-4.86.27zm30.67-6.24c-.65.5-1.46 1.2-2 1.59-1.71 1.45-5.27 4.26-7.09 5.8-1.49 1.27-1.49 1.61.05 2.91 2.16 1.79 7 5.72 9.54 8.22l-2.34 2.15c-.62-.72-1.35-1.43-2-2.1-1.4-1.51-5.56-5-7.93-7s-2.23-3.36.19-5.39c2-1.66 5.72-4.62 7.46-6.37a14.61 14.61 0 0 0 1.69-1.92zm-81.72 35.5a37.22 37.22 0 0 1-4.57.91 45.33 45.33 0 0 1-5.59 11l-2.5-1.27a37.45 37.45 0 0 0 5.38-9.39h-1.84c-1 0-2.06 0-3.1-.1l-.16-2.39c1 .1 2.24.15 3.28.15.85 0 1.74 0 2.65-.1a20.43 20.43 0 0 0 .75-4.37l2.84.26c-.21.88-.55 2.31-.94 3.77a28 28 0 0 0 3.74-.88zm3.17 2.68c-.07 1.09 0 2 0 3 0 .83.1 2.31.18 3.77a16.87 16.87 0 0 1 5.33 3.25l-1.38 2.21a20.16 20.16 0 0 0-3.85-2.86v.7c0 2.18-1.32 3.95-4.7 3.95-3 0-5.41-1.27-5.41-3.95 0-2.42 2.18-4.13 5.38-4.13a11.66 11.66 0 0 1 2.16.18c-.1-2-.23-4.45-.29-6.14zm-2.23 8.37a9 9 0 0 0-2.37-.31c-1.71 0-2.83.76-2.83 1.8s.88 1.84 2.65 1.84c1.92 0 2.57-1.09 2.57-2.42 0-.26 0-.54-.02-.91zm7-7.38a33.09 33.09 0 0 0-6-3.59l1.3-2a42.38 42.38 0 0 1 6.16 3.46zm9.22-3.77c0 1.61 0 3.8.18 5.8.39 4 1.43 6.76 3.15 6.76 1.3 0 2.42-2.81 3-5.18l2.08 2.42c-1.64 4.42-3.22 6-5.12 6-2.6 0-5-2.5-5.7-9.29a68.14 68.14 0 0 1-.28-6.89 13.37 13.37 0 0 0-.18-2.41h3.14a20.84 20.84 0 0 0-.27 2.79zm18 10.71l-2.68 1c-.42-4.42-1.9-10-4.5-13l2.57-.86c2.42 3.01 4.32 8.68 4.66 12.86z"/></g></g></svg>