<svg xmlns="http://www.w3.org/2000/svg" viewBox="0 0 179.95 179.95"><defs><style>.cls-1{fill:#fff}.cls-2{fill:#73c6c7}</style></defs><title>sp-lb2</title><g id="Layer_2" data-name="Layer 2"><g id="SVG"><circle class="cls-1" cx="89.98" cy="89.98" r="88.48" transform="rotate(-45 89.98 89.979)"/><path class="cls-2" d="M90 3A87 87 0 1 1 3 90 87.07 87.07 0 0 1 90 3m0-3a90 90 0 1 0 90 90A90 90 0 0 0 90 0z"/><path d="M62.81 99.91c.95-1.4 1.29-3.81 1.4-6.19l1.48.31c-.11 2.49-.39 5.12-1.48 6.64zm11.65-9.69v.93c-.22 6.91-.48 9.4-1.09 10.24a2 2 0 0 1-1.51.82 11 11 0 0 1-2.44.05 4.86 4.86 0 0 0-.56-2 18.86 18.86 0 0 0 2 .09.64.64 0 0 0 .7-.34c.25-.31.42-1.15.59-3l-.79.31a15.54 15.54 0 0 0-1.4-3.64L71 93.3a22.33 22.33 0 0 1 1.17 2.52c.06-1 .09-2.13.14-3.53h-7.85V77.65h9.72v2.16H71v2h2.77v2.05H71V86h2.77v2H71v2.18zm-7 4a27.21 27.21 0 0 1 .39 5.1l-1.32.16a27 27 0 0 0-.3-5.12zm-.84-14.36v2h2.24v-2zm2.24 4.06h-2.24V86h2.24zm-2.24 6.35h2.24V88h-2.24zm2.43 8.37a22.28 22.28 0 0 0-1-4.5l1.18-.23a21.2 21.2 0 0 1 1 4.45zm9.22-18.92h-2.86v-2.24h10.33l.45-.08 1.51.6a13.74 13.74 0 0 1-4.06 6 19.94 19.94 0 0 0 5.57 1.85 9.32 9.32 0 0 0-1.59 2.18 19.41 19.41 0 0 1-6.05-2.49 21.36 21.36 0 0 1-6.27 2.58 7.56 7.56 0 0 0-1.23-2.07 19.14 19.14 0 0 0 5.51-2 14.79 14.79 0 0 1-3.11-3.92zm9 22.65a15.83 15.83 0 0 0-.79-1.65c-4.14.47-8.45 1-11.56 1.23l-.39-2.3 5.79-.5v-3.44h-4.9v-6.55h4.9v-2.38h2.41v2.38h5.12v6.55h-5.16v3.16l2.55-.25c-.39-.61-.79-1.17-1.18-1.71L86 96.1a25.21 25.21 0 0 1 3.31 5.27zm-7-8.6v-2.62h-2.73v2.57zm-1.59-14a10.79 10.79 0 0 0 2.91 3.1 11.73 11.73 0 0 0 2.77-3.1zm4 11.48v2.57h2.85v-2.67zm33.69-5.84v2.32H91.59v-2.32h6.72a14.37 14.37 0 0 0-1.48-3.78l1.71-.34h-5.38v-2.35h9.38v-2.38h2.75v2.38h9.77v2.35h-5l1.57.34c-.65 1.37-1.32 2.77-1.91 3.78zM95.6 89.8h17.19v12.41H110v-.93H98.2v1h-2.6zm2.6 2.2v2.47H110V92zm11.8 7.1v-2.61H98.2v2.61zM99.49 81.29a13 13 0 0 1 1.57 3.81l-1.35.31h8.57l-1.23-.31a29.45 29.45 0 0 0 1.6-3.81z"/></g></g></svg>