<svg xmlns="http://www.w3.org/2000/svg" viewBox="0 0 213.02 213.02"><defs><style>.cls-1{fill:#fff}.cls-2{fill:#73c6c7}</style></defs><title>sp-lb5</title><g id="Layer_2" data-name="Layer 2"><g id="SVG"><circle class="cls-1" cx="106.51" cy="106.51" r="105.01" transform="rotate(-80.78 106.51 106.511)"/><path class="cls-2" d="M106.51 3A103.51 103.51 0 1 1 3 106.51 103.63 103.63 0 0 1 106.51 3m0-3A106.51 106.51 0 1 0 213 106.51 106.51 106.51 0 0 0 106.51 0z"/><path d="M51.3 62.16a44.51 44.51 0 0 1-2.45 5.67v17.4h-2.28V71.68a23.81 23.81 0 0 1-1.8 2.26 12.19 12.19 0 0 0-1.35-2.42 28.92 28.92 0 0 0 5.59-10zM60 76.88a9.15 9.15 0 0 1-1.79 4.18 32.44 32.44 0 0 0 9.52 1.8 8.76 8.76 0 0 0-1.46 2.23 28.74 28.74 0 0 1-9.78-2.34 16.74 16.74 0 0 1-5.46 2.58 8.07 8.07 0 0 0-1.48-2 16.09 16.09 0 0 0 4.81-1.79 12.76 12.76 0 0 1-3.46-3.41l2.1-.71a9.36 9.36 0 0 0 3.09 2.68 6.64 6.64 0 0 0 1.54-3.22h-5.89v-10h6.16v-1.96h-6.71v-2.11H67v2.11h-6.71v1.92h6v10zM54 71h3.9v-2.34H54zm3.9 4.06v-2.34H54v2.34zm6-2.34h-3.61v2.34h3.64zm-3.62-4.06V71h3.62v-2.34zm26.14 4.92a18.8 18.8 0 0 0 7.52 3.69 8.33 8.33 0 0 0-1.54 1.9 14.06 14.06 0 0 1-1.4-.47v6.53h-2.26v-.84h-4v.91h-2.16v-8.53h4.47a15.76 15.76 0 0 1-3.69-3.19h-3.62a18.47 18.47 0 0 1-3.95 3.19h4.58v8.46h-2.24v-.84h-3.95v.91H72v-6.65c-.44.18-.88.36-1.35.52a10.26 10.26 0 0 0-1.49-1.88 22.24 22.24 0 0 0 7.16-3.71h-6.4v-2.14h8.53a12.11 12.11 0 0 0 1.14-1.71h-8v-7.28h8.58v6.45l2.18.72a14.42 14.42 0 0 1-1 1.82h11.81v2.14zM77.9 64.4h-4.06v3.4h4.06zm.23 14.38h-3.95v3.58h3.95zm13.31-9h-8.6v-7.33h8.6zm-2.7 12.63v-3.63h-4v3.58zm.39-18h-4.08v3.4h4.08zm28.39 17.98c0 1.38-.34 2-1.22 2.42s-2.29.42-4.58.42A8.21 8.21 0 0 0 111 83c1.48.05 3.07 0 3.51 0s.62-.18.62-.62V64.89h-14.51v6.35c0 4.21-.44 10.24-3.28 14.17a9.21 9.21 0 0 0-2-1.56c2.6-3.62 2.86-8.77 2.86-12.61v-8.61h19.29zm-11-11v-2.18h-4.29v-1.9h4.29v-2h2.29v2h4.52v1.9h-4.52v2.16h5.09v1.95h-12.29v-1.95zm-1.56 10.68v1.46h-2.18v-8.34h10v6.86zm0-5v3.09h5.54v-3.1zm24.65-14.47a45.47 45.47 0 0 0-1.12 6.4c1.12-2.36 3.62-5.12 6.71-5.12 3.51 0 6.11 3.46 6.11 9 0 7.17-4.5 10.48-11.05 11.67l-1.56-2.34c5.64-.88 9.85-3 9.85-9.33 0-4-1.32-6.63-3.79-6.63-3.12 0-6 4.63-6.19 8a11.64 11.64 0 0 0 .08 3l-2.52.18a30.78 30.78 0 0 1-.32-4.16 68.84 68.84 0 0 1 .78-8.29c.11-.86.19-1.74.21-2.42zm28.31.4c-.13.54-.28 1.2-.39 1.77-.13.78-.36 2-.59 3.19 1-.07 2-.12 2.57-.12 2.47 0 4.37 1 4.37 4.62 0 3-.39 7.13-1.46 9.34a3.89 3.89 0 0 1-4 2.24 14.14 14.14 0 0 1-3.06-.4l-.45-2.7a14.14 14.14 0 0 0 3.18.55 2 2 0 0 0 2.1-1.23c.78-1.61 1.15-4.83 1.15-7.51 0-2.21-1-2.57-2.63-2.57-.52 0-1.38 0-2.34.13-.94 3.79-2.76 9.69-5.3 13.8l-2.68-1.06c2.57-3.44 4.42-9 5.33-12.46l-2.81.31c-.68.08-1.82.24-2.55.37l-.26-2.81h2.5c.89 0 2.21-.13 3.64-.26a31 31 0 0 0 .62-5.51zm9.26 3.35a48.6 48.6 0 0 1 4.24 8.71l-2.58 1.23a29.8 29.8 0 0 0-4.49-9.47l2.41-1.06.42.57a27.79 27.79 0 0 0-2.08-3.59l1.69-.7a36.69 36.69 0 0 1 2.11 3.59zm3-1.11a23.15 23.15 0 0 0-2.14-3.59l1.69-.7a34.5 34.5 0 0 1 2.16 3.56zM78.23 94.62a24 24 0 0 1-2.73 3.82 19 19 0 0 1 1.69 8.89c0 3.78-.28 7.18-1.43 8.74a2.3 2.3 0 0 1-1.56.94 12.52 12.52 0 0 1-3.3.18 4.76 4.76 0 0 0-.68-2.34 17.14 17.14 0 0 0 2.94 0 1.13 1.13 0 0 0 .86-.5c.65-.81.89-3.74.89-7.1v-.52a22.4 22.4 0 0 1-4 4.19 8.84 8.84 0 0 0-1.61-1.82 18.07 18.07 0 0 0 5.36-5.8 14 14 0 0 0-.78-3.09 32.37 32.37 0 0 1-2.88 2.5 10.72 10.72 0 0 0-1.69-1.59 21 21 0 0 0 3.43-3 15.68 15.68 0 0 0-3-3.27l1.69-1.3a17.58 17.58 0 0 1 2.79 2.81 28 28 0 0 0 1.84-2.81zM87 107.78a12.12 12.12 0 0 0 6.71 7.28 7.92 7.92 0 0 0-1.61 2.13 14 14 0 0 1-6.56-7.41 14.12 14.12 0 0 1-7.2 7.51 9.15 9.15 0 0 0-1.71-1.89c4.39-2 6.29-4.76 7.07-7.62H78v-2.29h6.08a27.92 27.92 0 0 0 .16-3.23v-3h-5.59V97h5.62v-3.63h2.47V97h6v2.23h-6v3.07a27 27 0 0 1-.19 3.2h6.63v2.29zm-5.72-7.93a19.3 19.3 0 0 1 1.64 4.7l-2.13.65a19.32 19.32 0 0 0-1.46-4.81zm6.72 4.81a33.83 33.83 0 0 0 2-4.94l2.27.65a53.45 53.45 0 0 1-2.27 4.88zm25.1-8.43c-.65.5-1.46 1.2-2 1.59-1.71 1.45-5.27 4.26-7.09 5.8-1.49 1.27-1.49 1.61 0 2.91 2.16 1.79 7 5.72 9.54 8.21l-2.34 2.16c-.62-.73-1.35-1.43-2-2.1-1.4-1.51-5.56-5-7.93-7s-2.23-3.36.19-5.38c2-1.67 5.72-4.63 7.46-6.38a14.61 14.61 0 0 0 1.69-1.92zm11.96 1.28c1.9-.16 6.47-.6 11.21-1 2.75-.21 5.33-.36 7.09-.41v2.6a22.33 22.33 0 0 0-5 .39 8.47 8.47 0 0 0-5.69 7.72c0 4.68 4.37 6.24 8.63 6.42l-.94 2.78c-5-.26-10.34-3-10.34-8.66a10.23 10.23 0 0 1 4.37-8.35c-2.26.26-8.58.88-11.44 1.48l-.28-2.83c1.01-.04 1.9-.09 2.39-.14zm-86.89 38.7l.31 2.21c-.86.28-1.72.54-2.57.83v7.25c0 1.2-.24 1.85-.94 2.24a7.83 7.83 0 0 1-3.38.44 7.81 7.81 0 0 0-.65-2.24h2.29c.29 0 .47-.07.47-.44v-6.58l-2.84.89-.54-2.34c.93-.24 2.1-.55 3.38-.94v-4.94h-3v-2.23h3v-5h2.21v5h2.73v2.23h-2.73v4.29zM54 140.37h-1.58v4.88c0 1-.13 1.56-.81 1.9a7.18 7.18 0 0 1-3 .34 7.2 7.2 0 0 0-.55-2h1.93c.26 0 .34-.08.34-.31v-3.77h-3.1v7.72h-2.15v-7.72h-2.73v5.9H40.2v-7h-1.72v-4.94H54zm-1.66-6.09H39.86v-1.82H50.1V131h-9.51v-1.67h9.51v-1.4h-10v-1.82h12.24zm-7.26 5.31v-2.21h-4.49v2.21zm6.74-2.21h-4.58v2.21h4.58zm13.49-10.15c-.73 2.19-1.64 4.89-2.47 6.92a7.88 7.88 0 0 1 2.16 5.41c0 1.48-.31 2.57-1.07 3.09a3.37 3.37 0 0 1-1.4.52 10.73 10.73 0 0 1-1.72 0 4.55 4.55 0 0 0-.57-2.08 8.93 8.93 0 0 0 1.33 0 1.35 1.35 0 0 0 .8-.24c.37-.26.47-.88.47-1.64a7.11 7.11 0 0 0-2.1-4.86c.65-1.74 1.32-4 1.82-5.82h-2.79v20.59h-2.13V126.4h5.72l.37-.08zm4 14.2a17.8 17.8 0 0 1-3.72 6.22 15.08 15.08 0 0 0-1.74-1.38 13.73 13.73 0 0 0 3.35-5.33zm4.24-1.71v6.83c0 1.17-.21 1.82-1 2.21a8.41 8.41 0 0 1-3.44.42 7.51 7.51 0 0 0-.78-2.26c1.1.05 2.14 0 2.47 0s.42-.1.42-.41v-6.81h-5.41v-2.08h5.43v-2.82h-3.8v-1.9a16.42 16.42 0 0 1-2.13 1.54 7.51 7.51 0 0 0-1.22-1.95 19.45 19.45 0 0 0 7.07-7.13h2.16a21.93 21.93 0 0 0 7.44 6.92 12.59 12.59 0 0 0-1.3 2.05 21.49 21.49 0 0 1-2-1.43v1.9h-3.9v2.84h5.85v2.08zm3.74-6.95a25.19 25.19 0 0 1-4.94-5.25 23.16 23.16 0 0 1-4.7 5.25zm-.47 8.09a27.39 27.39 0 0 1 3.51 5.67l-2 1a29.58 29.58 0 0 0-3.33-5.81zm13.92-14.07c-.16.94-.23 2-.29 2.94-.1 2.86-.31 8.79-.31 12.38 0 2.7 1.72 3.64 3.93 3.64 4.52 0 7.2-2.55 9.05-5.31l1.84 2.27A13.1 13.1 0 0 1 94 148.48c-3.93 0-6.56-1.69-6.56-6 0-3.66.26-10.29.26-12.79a14.18 14.18 0 0 0-.26-3zm36.26 3.15h3.9v2.42c-1.54-.08-4-.13-7.72-.13v4a6.26 6.26 0 0 1 .91 3.43c0 3.43-1.82 7.49-7.93 9.26l-2.21-2.19c3-.67 5.38-1.79 6.63-3.74a4.37 4.37 0 0 1-1.77.36 4.3 4.3 0 0 1-4.34-4.5 4.66 4.66 0 0 1 4.81-4.62 5 5 0 0 1 1.41.18v-2.19c-3.9.06-8.09.21-11.31.45v-2.53c2.91 0 7.67-.15 11.33-.2v-1.31a9.63 9.63 0 0 0-.21-1.89h3c0 .36-.13 1.51-.15 1.87s0 .78 0 1.3H127a32.67 32.67 0 0 0-1.87-3.15l1.76-.73a32 32 0 0 1 1.88 3.1zm-7.74 11.18c1.32 0 2.31-1 2-3.48a2.05 2.05 0 0 0-2-1.2 2.3 2.3 0 0 0-2.34 2.39 2.22 2.22 0 0 0 2.32 2.29zm11-11.91a24.53 24.53 0 0 0-1.87-3.12l1.74-.73c.62.91 1.4 2.11 1.92 3.07zm10.74 8.92a12.48 12.48 0 0 1 8-2.81c4.18 0 6.83 2.58 6.83 5.62 0 4.65-4 8-14 7.15l-.81-2.68c8 1 12-1.12 12-4.52 0-1.9-1.77-3.23-4.24-3.23a9.64 9.64 0 0 0-7.59 3.23 5.76 5.76 0 0 0-.86 1.37l-2.39-.57a97.77 97.77 0 0 0 1.3-10.58l2.75.36c-.32 1.62-.76 5.07-.99 6.66zm1.23-11.55a73.62 73.62 0 0 0 10.11 2l-.6 2.52c-2.52-.34-8.19-1.51-10.16-2zm23.31 5.05c0 1.61 0 3.8.18 5.8.39 4 1.43 6.76 3.15 6.76 1.3 0 2.42-2.81 3-5.18l2.08 2.42c-1.64 4.42-3.22 6-5.12 6-2.6 0-5-2.5-5.7-9.29a68.14 68.14 0 0 1-.28-6.89 13.37 13.37 0 0 0-.18-2.41h3.14a20.84 20.84 0 0 0-.27 2.79zm18.05 10.71l-2.68 1c-.42-4.42-1.9-10-4.5-13l2.57-.86c2.37 3.01 4.27 8.67 4.61 12.86z"/></g></g></svg>