<svg xmlns="http://www.w3.org/2000/svg" viewBox="0 0 179.95 179.95"><defs><style>.cls-1{fill:#fff}.cls-2{fill:#73c6c7}</style></defs><title>sp-lb1</title><g id="Layer_2" data-name="Layer 2"><g id="SVG"><circle class="cls-1" cx="89.98" cy="89.98" r="88.48"/><path class="cls-2" d="M90 3A87 87 0 1 1 3 90 87.07 87.07 0 0 1 90 3m0-3a90 90 0 1 0 90 90A90 90 0 0 0 90 0z"/><path d="M78.27 61.41c-1.06.51-2.13 1-3.25 1.4h10.56v8.57H83v-.7H71v.73h-2.61v-6.36c-1.37.39-2.75.73-4.09 1.07A14 14 0 0 0 62.93 64a66.72 66.72 0 0 0 9.71-2.61H63.8v-2h9v-1.45h-7V56h7v-1.08h2.61V56h6.47v1A21.89 21.89 0 0 0 85 54.58H66.37v-7.81h18.76v7.67l.23-.22 2 1.23a26.2 26.2 0 0 1-5.32 4h6.1v2zM82.5 48.5H68.89v1.32H82.5zm0 3H68.89v1.38H82.5zm.45 13h-12v1.37H83zM83 69v-1.51H71V69zm-5.46-9.54c1-.45 1.93-1 2.88-1.49h-5v1.49zm18.93-6.95a59.91 59.91 0 0 0 .2 6.24c.42 4.37 1.54 7.28 3.39 7.28 1.4 0 2.6-3 3.22-5.57l2.24 2.6c-1.77 4.76-3.48 6.42-5.52 6.42-2.8 0-5.38-2.69-6.13-10a73.72 73.72 0 0 1-.31-7.42 13.71 13.71 0 0 0-.2-2.6h3.39a22.48 22.48 0 0 0-.28 3.05zM115.9 64l-2.9 1.16c-.45-4.76-2-10.72-4.84-14l2.77-.93c2.57 3.2 4.61 9.31 4.97 13.77zM90 87.27a3.25 3.25 0 1 1-3.25 3.25A3.25 3.25 0 0 1 90 87.27zm-7.92 38.02a21.09 21.09 0 0 0 6.92 4.14 10 10 0 0 0-1.77 2.07 22.4 22.4 0 0 1-8.12-6.21H73a18.61 18.61 0 0 1-8.29 6.46 9.72 9.72 0 0 0-1.73-2 17.13 17.13 0 0 0 7.02-4.46h-6.23v-2.1h6.89v-1.71H67v-1.82h3.67V118h-4.13v-1.06h-2.38v-5.3h10.42v-2h2.66v2h10.58v5.3h-2.44V118h-4.14v1.71h3.67v1.82h-3.67v1.71h7.06v2.1zm-11.42-9.22v-1.68h2.46v1.68h5.63v-1.68h2.49v1.68h4v-2.29H66.68v2.29zm-.37 14.06a67.21 67.21 0 0 1 12.77 3.08L82 135.34a60.94 60.94 0 0 0-12.83-3.25zm3.31-3.89a31.17 31.17 0 0 1 6.46 2.13l-1.14 1.82a30.88 30.88 0 0 0-6.42-2.3zm-.48-6.58h5.63V118h-5.63zm0 3.53h5.63v-1.71h-5.63zm23.35-6.75a59.91 59.91 0 0 0 .2 6.24c.42 4.37 1.54 7.28 3.39 7.28 1.4 0 2.6-3 3.22-5.57l2.24 2.6c-1.77 4.76-3.48 6.42-5.52 6.42-2.8 0-5.38-2.69-6.13-10a73.72 73.72 0 0 1-.31-7.42 13.71 13.71 0 0 0-.2-2.6h3.39a22.48 22.48 0 0 0-.28 3.05zM115.9 128l-2.9 1.09c-.45-4.76-2-10.72-4.84-14l2.77-.93c2.57 3.2 4.61 9.31 4.97 13.84z"/></g></g></svg>