<svg xmlns="http://www.w3.org/2000/svg" viewBox="0 0 213.02 213.02"><defs><style>.cls-1{fill:#fff}.cls-2{fill:#73c6c7}</style></defs><title>sp-lb8</title><g id="Layer_2" data-name="Layer 2"><g id="SVG"><circle class="cls-1" cx="106.51" cy="106.51" r="105.01" transform="rotate(-80.78 106.51 106.511)"/><path class="cls-2" d="M106.51 3A103.51 103.51 0 1 1 3 106.51 103.63 103.63 0 0 1 106.51 3m0-3A106.51 106.51 0 1 0 213 106.51 106.51 106.51 0 0 0 106.51 0z"/><path d="M51.45 62.19a41.5 41.5 0 0 1-2.52 5.38v17.66h-2.36V71.29a29.58 29.58 0 0 1-2.16 2.62 19.25 19.25 0 0 0-1.33-2.41 28.77 28.77 0 0 0 6.16-10zm11.83 20.54c1.54 0 1.82-.7 2-3.69a7.37 7.37 0 0 0 2.24 1c-.39 3.69-1.09 4.89-4.11 4.89h-6.29c-3.35 0-4.31-.83-4.31-4v-7.8l-2.27.87-1-2.16 3.23-1.24v-6.5h2.43v5.56l3.25-1.25v-6.95h2.29v6.06l3.32-1.3.37-.29.44-.34 1.66.68-.1.36a88.44 88.44 0 0 1-.29 9.18 2.13 2.13 0 0 1-1.45 2.06 9.15 9.15 0 0 1-2.76.26 6.73 6.73 0 0 0-.57-2.21h1.82c.34 0 .62-.1.75-.67a52.31 52.31 0 0 0 .24-6.61L60.74 70v9.36h-2.29V70.9l-3.25 1.25v8.76c0 1.51.31 1.82 2.08 1.82zM81 81.61a15.58 15.58 0 0 0 2.29-.36c3.3-.76 6.24-3.15 6.24-7.31a6.82 6.82 0 0 0-6.19-7.18A58.4 58.4 0 0 1 81.77 74c-1.56 5.25-3.69 8.19-6.27 8.19S70.62 79.3 70.62 75c0-5.72 5.07-10.69 11.51-10.69 6.19 0 10.12 4.32 10.12 9.72s-3.46 9.13-9.75 10zm-1.82-8.16a35.68 35.68 0 0 0 1.41-6.64 8.64 8.64 0 0 0-7.33 8c0 3 1.32 4.32 2.36 4.32s2.38-1.71 3.52-5.68zm16.45-2.24h13.31v2.21H95.63zm13-5H96.25v-2.1h5v-2.6h2.34v2.58h5zm-11.36 9.21h10.37v9.73h-2.37v-1.3H99.5v1.4h-2.23zm1.56-4.37a17 17 0 0 0-1-4l2-.44a15.84 15.84 0 0 1 1.15 4zm.67 6.5v4.19h5.77v-4.19zm4.19-6.94a31.44 31.44 0 0 0 1.3-4.16l2.29.52c-.58 1.46-1.15 3.07-1.67 4.14zm15.83-6.71c-1 2.47-2.26 5.46-3.38 7.73 2.39 2.36 3 4.39 3 6.16s-.39 3-1.33 3.59A4.15 4.15 0 0 1 116 82a18.26 18.26 0 0 1-2.13 0 5.86 5.86 0 0 0-.65-2.39 13.86 13.86 0 0 0 1.76 0 2.05 2.05 0 0 0 1-.28c.52-.32.71-1 .71-1.93 0-1.51-.68-3.4-3.07-5.56.93-2 2-4.76 2.68-6.79h-4.14v20.1h-2.36V62.89h7.46l.39-.1zM145 82.6v2h-19.13v-2h8.26v-2.37h-6.39v-1.92h6.39v-1.9l-6.86.29-.13-2c.83 0 1.79 0 2.83-.06.5-.75 1-1.63 1.49-2.47h-4.76c-.16 4.22-.76 9.42-3 13a9.92 9.92 0 0 0-2.18-1.17c2.55-4.08 2.79-9.93 2.79-14.06v-7.31h19.31v6.21h-16.9v1.43h17.61v2h-4.84a26.83 26.83 0 0 1 4.84 4l-2 1.3a15.7 15.7 0 0 0-1.3-1.36l-4.58.21v2h6.6v1.92h-6.6v2.26zm-18.31-18v2.26h14.46v-2.25zm7.44 7.61c-.55.81-1.09 1.64-1.64 2.4l6.53-.21c-.63-.47-1.25-.94-1.85-1.33l1.38-.86zm19.69-8.67a17.31 17.31 0 0 0-.55 2 61.11 61.11 0 0 0-1.27 9.67 19.27 19.27 0 0 0 .18 2.71c.39-1 .91-2.29 1.3-3.23l1.35 1a52.68 52.68 0 0 0-1.85 6 5.51 5.51 0 0 0-.13 1.17c0 .26 0 .65.06 1l-2.34.16a32.2 32.2 0 0 1-1-8.32 72.48 72.48 0 0 1 1.12-10.27 21.34 21.34 0 0 0 .23-2.13zm5.92 12.58a10.29 10.29 0 0 0-.31 2.29c0 1.17.86 2.08 4 2.08a29.44 29.44 0 0 0 6.42-.67v2.75a34.1 34.1 0 0 1-6.52.52c-4.37 0-6.4-1.51-6.4-4a15.87 15.87 0 0 1 .44-3.17zm9.34-10.73V68a65.89 65.89 0 0 1-10.79 0v-2.59a48.62 48.62 0 0 0 10.79-.02zM30.55 93.4a28.8 28.8 0 0 0 11.26 9.07 10.84 10.84 0 0 0-1.59 2.16A33.42 33.42 0 0 1 36 102v1.85H23.06v-1.77a33.41 33.41 0 0 1-4.18 2.65 9.46 9.46 0 0 0-1.49-1.92 28.8 28.8 0 0 0 10.69-9.41zm-9 13.39h16v10.45h-2.42v-1H24v1h-2.42zm14-5.1a29.54 29.54 0 0 1-6.14-5.93 27.36 27.36 0 0 1-5.85 5.93zM24 109v5.1h11.13V109zm29.25-9.7c-.34.47-.81 1.2-1.22 1.85 0 .41-.08.85-.11 1.27a12.72 12.72 0 0 1 7.91-3 6.63 6.63 0 0 1 6.91 6.68c0 5.2-3.53 8.09-9.51 9.26l-1.17-2.48c4.42-.64 8-2.57 8-6.83a4.34 4.34 0 0 0-4.62-4.24 11.41 11.41 0 0 0-7.7 3.48c-.05.94-.08 1.85-.08 2.65 0 2.24 0 4.09.11 6.43 0 .47.1 1.22.15 1.74h-2.81c0-.44.08-1.27.08-1.69 0-2.39.05-3.88.11-6.73-1.2 1.76-2.71 4-3.8 5.48L43.89 111c1.43-1.77 4.24-5.49 5.61-7.57l.13-2.23-4.86.65-.26-2.65h1.93c.73 0 2.13-.21 3.38-.39.07-1.12.13-2 .13-2.24a11.45 11.45 0 0 0-.13-2.08l3 .11c-.13.65-.34 2-.52 3.69zM88 95a16.31 16.31 0 0 0-.13 2c0 1.1 0 2.21-.07 3.23.88-.08 1.71-.13 2.44-.18s1.56-.08 2.21-.16v2.55h-2.21c-.65 0-1.53.06-2.5.13a37.92 37.92 0 0 1-.39 5.31c-.23 1.22-.83 1.56-2.08 1.56a30.17 30.17 0 0 1-3.58-.39v-2.26a18 18 0 0 0 2.47.31c.57 0 .83-.08.91-.62a30.54 30.54 0 0 0 .23-3.72c-2.47.18-5.28.47-7.67.7v6.11c.08 2.65.18 3.46 4.37 3.46a49.89 49.89 0 0 0 7.67-.63l-.08 2.79c-1.74.18-4.89.41-7.43.41-6.27 0-7-1.4-7-5.64v-6.24c-1 .1-1.74.18-2.31.26-.81.1-2.13.28-2.81.39l-.28-2.63c.78 0 1.84 0 2.91-.15l2.49-.24v-3.06a19.74 19.74 0 0 0-.16-2.47h2.86a19.93 19.93 0 0 0-.13 2.34v3l7.72-.73v-3.29A16.29 16.29 0 0 0 85.2 95zm11.06 2.51c1.9-.16 6.47-.6 11.21-1 2.75-.21 5.33-.36 7.09-.41v2.6a22.33 22.33 0 0 0-5 .39 8.47 8.47 0 0 0-5.69 7.72c0 4.68 4.37 6.24 8.63 6.42l-.94 2.78c-5-.26-10.34-3-10.34-8.66a10.23 10.23 0 0 1 4.37-8.35c-2.26.26-8.58.88-11.44 1.48l-.28-2.83c1.01-.04 1.9-.09 2.39-.14zm27.07.65h2.18v19h-2.18v-6.53c-1.3.81-2.58 1.59-3.75 2.29l-1-2.18c1.22-.55 3-1.48 4.76-2.47zm-2.08 8.32a26.71 26.71 0 0 0-2-5l1.84-.83a25.62 25.62 0 0 1 2.08 4.92zm.62-7h-2.18v-4.34h9.82v-1.79h2.42v1.79h9.93v4.37h-1.82v5.74h-12.35v-1.56h10.09v-1.22h-9.33v-1.35h9.33V100h-9.93v-1.58h11.75v-1.3h-17.73zm17.86 10.69a11 11 0 0 1-3.43 3.71 23.94 23.94 0 0 0 6.24 1.38 8.48 8.48 0 0 0-1.3 1.87 23 23 0 0 1-7-2 25.59 25.59 0 0 1-6.92 2.08 7.58 7.58 0 0 0-1-1.85 24.56 24.56 0 0 0 5.92-1.46 10.93 10.93 0 0 1-2.65-2.65l1.22-.42h-2.15v-.64h-2.06v-3.85h15.13v3.85zm-11.07-1h9.59l.39-.08 1 .42V108h-11zm2.93 1.61a9.58 9.58 0 0 0 2.66 2.14 9.53 9.53 0 0 0 2.67-2.14zm36.61 3.55v2.16h-22.85v-2.16h10.06v-2.7h-7.75v-2.11h7.75V107c-3 .07-5.88.15-8.09.23L150 105h3.64a33.34 33.34 0 0 0 1.72-3.18h-4.29v-2.16h17v2.08h-9.91c-.62 1.05-1.3 2.16-2 3.13 2.57-.06 5.38-.14 8.19-.19-.7-.57-1.43-1.14-2.11-1.61l1.74-1.19a33.27 33.27 0 0 1 5.88 5l-1.9 1.33a17.16 17.16 0 0 0-1.38-1.51c-2 .08-4 .13-5.95.21v2.65h8.14v2.11h-8.14v2.7zm-20.26-14.12h-2.36v-5h9.85v-1.86h2.47v1.84h10.06v5h-2.47v-2.81h-17.57zm41.97 3.79c1.74 2.05 2.6 3.84 2.6 6.05 0 3.85-3.48 6.4-8.79 6.4-3.74 0-6.6-1.67-6.6-5.9 0-.68.08-1.64.18-2.78a27.35 27.35 0 0 1-5.15-.92l.13-2.49a21.49 21.49 0 0 0 5.28 1c.16-1.35.34-2.78.52-4.13a32.12 32.12 0 0 1-5.33-.92l.13-2.39a24.74 24.74 0 0 0 5.49 1c.1-.93.18-1.77.23-2.42a10.4 10.4 0 0 0 0-2l2.91.15c-.18.81-.29 1.4-.39 2l-.28 2.35a29.82 29.82 0 0 0 5-.34l-.08 2.44a48.24 48.24 0 0 1-5.17.26c-.19 1.33-.37 2.76-.52 4.11h.36a40 40 0 0 0 5.28-.31l-.08 2.44a40 40 0 0 1-4.81.26h-1c-.08.91-.13 1.7-.13 2.24 0 2.31 1.35 3.69 4.11 3.69 3.77 0 6-1.63 6-4.08a7.08 7.08 0 0 0-2.73-5.15zm-140.5 25.83a7.87 7.87 0 0 0-.47 1.51c-.57 2.65-1.77 6.79-3.87 9.55a20.25 20.25 0 0 1-10.35 7l-2.21-2.44c5.07-1.25 8-3.46 10.14-6.19a18 18 0 0 0 3.25-8H35.93c-1.12 0-2.16.05-2.81.1v-2.91a24.19 24.19 0 0 0 2.81.21h12.61a7 7 0 0 0 1.67-.18zm25.84 14.23v3.35h-2.78v-1.45H61.85v1.45h-2.78v-18.38c1 .05 1.84.05 2.49.05H78.1v2.23zm-16.22-12.38v11.7h13.49v-11.7zm22.23 3.85c.83.08 2.44.16 3.85.16H102c1.28 0 2.29-.11 2.92-.16v3.2c-.58 0-1.75-.11-2.89-.11H87.91c-1.46 0-3 .06-3.85.11zm31.94-8.11a17.34 17.34 0 0 0-.11 1.92v8.71c0 .68.05 1.59.11 2.11h-3c0-.44.13-1.35.13-2.11v-8.71c0-.47 0-1.38-.1-1.92zm12-.21c0 .68-.11 1.45-.11 2.39v4.63c0 6-.93 8.16-2.86 10.35a14.47 14.47 0 0 1-6.21 3.79l-2.16-2.26a12 12 0 0 0 6.29-3.4c1.82-2.06 2.16-4.09 2.16-8.64v-4.47a22.06 22.06 0 0 0-.15-2.39zm19.11 14.3a24.78 24.78 0 0 0 9-9.8l1.59 2.83a26.74 26.74 0 0 1-9.13 9.41 28.59 28.59 0 0 1-10 3.88l-1.74-2.68a27.13 27.13 0 0 0 10.28-3.64zm-.89-8.32l-2.05 2.11a59.55 59.55 0 0 0-6.5-5.52l1.9-2a53.15 53.15 0 0 1 6.65 5.41zm31.26-2.71a6.24 6.24 0 0 0 2-.25l2.13 1.3a8.52 8.52 0 0 0-.73 1.58 25.68 25.68 0 0 1-4.58 8.84 23.36 23.36 0 0 1-10.4 7.18l-2.46-2.13a20.84 20.84 0 0 0 10.42-6.47 19.52 19.52 0 0 0 3.95-7.68h-8.13a27 27 0 0 1-6.58 6.35l-2.29-1.69a22.23 22.23 0 0 0 8.16-8.61 11.52 11.52 0 0 0 1-2.34l3 1c-.52.78-1.06 1.77-1.35 2.29a7.73 7.73 0 0 1-.39.67zm2.08-4.36a36.14 36.14 0 0 1 2.1 3.56l-1.71.73a31.58 31.58 0 0 0-2.06-3.59zm2.93-1.12a29.5 29.5 0 0 1 2.16 3.54l-1.69.75a25.33 25.33 0 0 0-2.13-3.59z"/></g></g></svg>