<svg xmlns="http://www.w3.org/2000/svg" viewBox="0 0 213.02 213.02"><defs><style>.cls-1{fill:#fff}.cls-2{fill:#73c6c7}</style></defs><title>sp-lb9</title><g id="Layer_2" data-name="Layer 2"><g id="SVG"><circle class="cls-1" cx="106.51" cy="106.51" r="105.01" transform="rotate(-9.22 106.5 106.512)"/><path class="cls-2" d="M106.51 3A103.51 103.51 0 1 1 3 106.51 103.63 103.63 0 0 1 106.51 3m0-3A106.51 106.51 0 1 0 213 106.51 106.51 106.51 0 0 0 106.51 0z"/><path d="M22 65.21h13.32v2.21H22zm13-5H22.63v-2.1h5v-2.6H30v2.58h5zm-11.35 9.21H34v9.73h-2.34v-1.3h-5.78v1.4h-2.23zm1.56-4.37a17 17 0 0 0-1-4l2-.44a16.22 16.22 0 0 1 1.14 4zm.67 6.5v4.19h5.78v-4.19zm4.19-6.94a31.44 31.44 0 0 0 1.3-4.16l2.29.52c-.57 1.46-1.15 3.03-1.66 4.14zM45.9 57.9c-1 2.47-2.26 5.46-3.38 7.73 2.4 2.36 3 4.39 3 6.16s-.39 3-1.33 3.59a4.1 4.1 0 0 1-1.74.62 18.2 18.2 0 0 1-2.13 0 5.86 5.86 0 0 0-.65-2.39 14 14 0 0 0 1.77 0 2.11 2.11 0 0 0 1-.28c.52-.32.7-1 .7-1.93 0-1.51-.68-3.4-3.07-5.56.94-2 2-4.76 2.68-6.79h-4.13v20.1h-2.36V56.89h7.46l.39-.1zm24.99 18.7v2H51.73v-2H60v-2.37h-6.4v-1.92H60v-1.9l-6.87.29-.13-2c.83 0 1.8 0 2.84-.06.49-.75 1-1.63 1.48-2.47h-4.76c-.16 4.22-.75 9.42-3 13A9.85 9.85 0 0 0 47.39 78c2.54-4.08 2.78-9.93 2.78-14.06v-7.31h19.32v6.21h-16.9v1.43h17.6v2h-4.84a26.83 26.83 0 0 1 4.84 4l-2 1.3a15.7 15.7 0 0 0-1.3-1.36l-4.58.21v2H69v1.92h-6.64v2.26zm-18.3-18v2.26H67v-2.25zM60 66.22c-.54.81-1.09 1.64-1.64 2.4l6.53-.21c-.62-.47-1.25-.94-1.85-1.33l1.38-.86zm24.31 9.39a15.43 15.43 0 0 0 2.28-.36c3.31-.76 6.24-3.15 6.24-7.31a6.81 6.81 0 0 0-6.18-7.18A60.37 60.37 0 0 1 85.11 68c-1.56 5.25-3.69 8.19-6.26 8.19S74 73.3 74 69c0-5.71 5-10.68 11.48-10.68 6.18 0 10.11 4.32 10.11 9.72s-3.46 9.13-9.75 10zm-1.82-8.16a35.74 35.74 0 0 0 1.4-6.63 8.62 8.62 0 0 0-7.33 7.95c0 3 1.32 4.32 2.36 4.32s2.37-1.67 3.57-5.64zM116.66 62a11.48 11.48 0 0 0 2.35-.16v2.76a22.74 22.74 0 0 0-2.32-.08h-2.23v.88c0 6.71-1.35 10.43-6.83 13.16l-2-2.08c4.38-1.79 6.44-4 6.44-10.92v-1h-6.17v3.9c0 1.07.07 2.16.09 2.52h-2.57c0-.36.11-1.45.11-2.52v-3.9h-2.29c-1.1 0-2.06 0-2.43.08v-2.78a17.39 17.39 0 0 0 2.43.18h2.29v-3c0-.91-.09-1.74-.11-2.08H106a15.07 15.07 0 0 0-.14 2.08v3h6.18V59a18.88 18.88 0 0 0-.12-2.26h2.65a17.58 17.58 0 0 0-.15 2.26v3zm17.76 13.09a21.09 21.09 0 0 0 .17 3.07h-2.9c.07-.57.14-2 .14-3.07v-9.26a42.16 42.16 0 0 1-8.48 3.83L122 67.13a34.62 34.62 0 0 0 10.56-4.73 26.68 26.68 0 0 0 6.1-5.82l2 2a39.51 39.51 0 0 1-6.25 5.59zm27.38-14.85a10.13 10.13 0 0 0-.68 1.33 37.15 37.15 0 0 1-3.83 7.43 66.11 66.11 0 0 1 6.71 7.62l-2.08 2a56.37 56.37 0 0 0-6.18-7.57 30.46 30.46 0 0 1-9 7.46l-1.9-2.21a26.48 26.48 0 0 0 9.62-7.59 22.09 22.09 0 0 0 3.72-6.86h-8.59c-.91 0-2.18.13-2.55.15v-2.93a22.07 22.07 0 0 0 2.55.19h8.69a6.16 6.16 0 0 0 2-.29l.91.78a29.57 29.57 0 0 0-1.68-3.22l1.52-.71a38.33 38.33 0 0 1 1.87 3.57l-1.33.65zm2-5.33a40 40 0 0 1 1.92 3.54l-1.53.75a29.64 29.64 0 0 0-1.89-3.58zm9.63 2.63a19.53 19.53 0 0 0-.54 2 61.06 61.06 0 0 0-1.28 9.69 17.91 17.91 0 0 0 .19 2.71c.38-1 .9-2.29 1.3-3.23l1.35 1a50.72 50.72 0 0 0-1.85 6 4.93 4.93 0 0 0-.13 1.17c0 .26 0 .65.05 1l-2.34.16a32.2 32.2 0 0 1-1-8.32 74 74 0 0 1 1.12-10.27 18.75 18.75 0 0 0 .24-2.13zm5.93 12.58a9.73 9.73 0 0 0-.31 2.29c0 1.17.86 2.08 4 2.08a29.44 29.44 0 0 0 6.42-.67l.05 2.75a34.1 34.1 0 0 1-6.52.52c-4.37 0-6.4-1.51-6.4-4a15.87 15.87 0 0 1 .44-3.17zm9.34-10.73V62a65.89 65.89 0 0 1-10.79 0v-2.59a48.62 48.62 0 0 0 10.79-.02zM69.33 87.4a28.8 28.8 0 0 0 11.26 9.07A10.84 10.84 0 0 0 79 98.63 34.5 34.5 0 0 1 74.79 96v1.84h-13v-1.76a33.41 33.41 0 0 1-4.18 2.65 9.2 9.2 0 0 0-1.49-1.92 28.8 28.8 0 0 0 10.74-9.41zm-9 13.39h16v10.45h-2.42v-1H62.72v1h-2.36zm14-5.1a29.54 29.54 0 0 1-6.14-5.93 27.36 27.36 0 0 1-5.85 5.93zM62.72 103v5.1h11.19V103zm28.79-9.7c-.34.47-.81 1.2-1.22 1.85 0 .41-.08.86-.11 1.27a12.72 12.72 0 0 1 7.91-3 6.63 6.63 0 0 1 6.91 6.68c0 5.2-3.53 8.08-9.51 9.26l-1.17-2.47c4.42-.65 8-2.58 8-6.84a4.35 4.35 0 0 0-4.62-4.24 11.41 11.41 0 0 0-7.7 3.52c0 .94-.08 1.85-.08 2.65 0 2.24 0 4.09.11 6.43 0 .47.1 1.22.15 1.74h-2.81c0-.44.08-1.27.08-1.69 0-2.39 0-3.87.11-6.74-1.2 1.77-2.71 4-3.8 5.49L82.15 105c1.43-1.77 4.24-5.49 5.61-7.57l.13-2.23-4.89.6-.26-2.66h1.93c.73 0 2.13-.21 3.38-.39.07-1.12.13-2 .13-2.24a11.45 11.45 0 0 0-.13-2.08l3 .11c-.13.65-.34 2-.52 3.69zm29.61.47a39.2 39.2 0 0 1-4.57.91 45.36 45.36 0 0 1-5.6 10.95l-2.49-1.28a37.52 37.52 0 0 0 5.38-9.35h-1.85c-1 0-2 0-3.09-.11l-.18-2.39a32.11 32.11 0 0 0 3.27.16c.86 0 1.75 0 2.66-.11a20.32 20.32 0 0 0 .75-4.37l2.84.27c-.21.88-.55 2.31-.94 3.76a25.23 25.23 0 0 0 3.74-.88zm3.17 2.68c-.07 1.09-.05 2 0 3 0 .84.1 2.32.18 3.77a17.25 17.25 0 0 1 5.33 3.25l-1.38 2.21a20.59 20.59 0 0 0-3.85-2.86v.71c0 2.18-1.32 3.95-4.7 3.95-3 0-5.41-1.28-5.41-3.95 0-2.42 2.18-4.14 5.38-4.14a11.66 11.66 0 0 1 2.16.18c-.1-2-.23-4.44-.29-6.13zm-2.23 8.37a8.65 8.65 0 0 0-2.37-.31c-1.71 0-2.83.75-2.83 1.79s.88 1.85 2.65 1.85a2.24 2.24 0 0 0 2.57-2.42c0-.26 0-.55-.02-.91zm7-7.39a33 33 0 0 0-6-3.58l1.3-2a43.34 43.34 0 0 1 6.16 3.46zm8.7-3.77c0 1.62 0 3.8.18 5.8.39 4.06 1.43 6.76 3.15 6.76 1.3 0 2.42-2.8 3-5.17l2.08 2.42c-1.64 4.42-3.22 6-5.12 6-2.6 0-5-2.49-5.7-9.28a68.14 68.14 0 0 1-.28-6.89 12.65 12.65 0 0 0-.19-2.42h3.15a21 21 0 0 0-.27 2.78zm18.05 10.72l-2.68 1c-.42-4.42-1.9-10-4.5-13l2.57-.86c2.37 3 4.27 8.67 4.61 12.86zm-75.64 25.28v2.65H56.51v-2.65zm11.55 2.24v9c0 1-.21 1.61-.86 1.95a7.58 7.58 0 0 1-3 .36 6.92 6.92 0 0 0-.65-1.92h2.13c.26 0 .41-.11.41-.39v-8.74l-4.24.47c0 3.33-.31 7.75-2.13 10.55a8.08 8.08 0 0 0-1.66-1.09c1.61-2.6 1.84-6.24 1.87-9.25l-1.61.18-.24-2 1.85-.18v-8h2.29a28.64 28.64 0 0 0 .86-3.56l2.6.49c-.42 1-.86 2.16-1.22 3.07h3.64V130l1.14-.11v1.88zm-2-1.69v-5.44h-4.25v5.88zm-2.1-4.61a11.17 11.17 0 0 1 1.4 3.33l-1.58.68a11.3 11.3 0 0 0-1.3-3.41zm.6 13.45h-1.47v-6h1.46zm16.38-8.19a17.47 17.47 0 0 1-3.93 7.74 14.1 14.1 0 0 0 5.41 2.58 9.24 9.24 0 0 0-1.46 2 14.92 14.92 0 0 1-5.59-3 18.29 18.29 0 0 1-5.56 3.07 8.89 8.89 0 0 0-1.33-2 15.26 15.26 0 0 0 5.25-2.71 18.65 18.65 0 0 1-3-5.51l1.72-.39h-2.6v-2.16h9.23l.41-.1zm-7.78-7.15c0 2.08-.41 4.65-2.52 6.34a9.13 9.13 0 0 0-1.74-1.4 5.76 5.76 0 0 0 2.1-5v-3.35h7.78v5.85c0 .44 0 .73.1.81a.56.56 0 0 0 .37.1h.57a1 1 0 0 0 .44-.08.83.83 0 0 0 .26-.57c0-.34.08-1.12.1-2.11a5.16 5.16 0 0 0 1.75.94 15.37 15.37 0 0 1-.29 2.52 1.59 1.59 0 0 1-.83.94 3.24 3.24 0 0 1-1.25.23h-1.33a2.15 2.15 0 0 1-1.53-.52c-.39-.36-.55-.83-.55-2.31v-3.69h-3.44zm-.49 8.86A13.81 13.81 0 0 0 99 137a14.07 14.07 0 0 0 2.7-4.45zm34.1-9.23v1.15c-.36 11.72-.67 15.75-1.71 17a2.9 2.9 0 0 1-2.26 1.22 26.81 26.81 0 0 1-3.93 0 5.68 5.68 0 0 0-.78-2.34c1.66.13 3.17.16 3.82.16a1.16 1.16 0 0 0 1.09-.44c.84-.86 1.17-4.79 1.51-14.59H122a26.38 26.38 0 0 1-2.37 4.37 13.12 13.12 0 0 0-1.9-1.35v11.98h-7v2h-2.22v-19h2.92a31.67 31.67 0 0 0 .91-4.21l2.62.44c-.44 1.3-.93 2.68-1.35 3.77h4.16v4.92a24.83 24.83 0 0 0 3.88-9.13l2.34.54c-.32 1.2-.65 2.4-1.07 3.54zm-19.73 2.24v4.94h4.83v-4.94zm4.83 12.79v-5.75h-4.83v5.75zm8.66-2a42.58 42.58 0 0 0-3.8-6l1.9-1.07a45.81 45.81 0 0 1 3.93 5.8zm22.41-10.64a37.22 37.22 0 0 1-4.57.91 45 45 0 0 1-5.6 11l-2.49-1.27a37.45 37.45 0 0 0 5.38-9.39h-1.85c-1 0-2.05 0-3.09-.1l-.18-2.39c1 .1 2.23.15 3.27.15.86 0 1.75 0 2.66-.1a20.43 20.43 0 0 0 .75-4.37l2.84.26c-.21.88-.55 2.31-.94 3.77a28 28 0 0 0 3.74-.88zm3.17 2.68c-.07 1.09-.05 2 0 3 0 .83.1 2.31.18 3.77a16.87 16.87 0 0 1 5.33 3.25l-1.38 2.21a20.16 20.16 0 0 0-3.9-2.84v.7c0 2.18-1.32 3.95-4.7 3.95-3 0-5.41-1.27-5.41-3.95 0-2.42 2.18-4.13 5.38-4.13a11.66 11.66 0 0 1 2.16.18c-.1-2-.23-4.45-.29-6.14zm-2.23 8.37a9 9 0 0 0-2.37-.31c-1.71 0-2.83.76-2.83 1.8s.88 1.84 2.65 1.84 2.57-1.09 2.57-2.42c0-.26 0-.54-.02-.91zm7-7.38a33.09 33.09 0 0 0-6-3.59l1.3-2a42.38 42.38 0 0 1 6.16 3.46zM52 171.27a44.6 44.6 0 0 0-3-4.08 12.87 12.87 0 0 1-4.31 7.62 8.71 8.71 0 0 0-1.69-1.72c3.12-2.31 4-6.08 4.21-9.52h-4v-2.21h4v-3.79h-3.46v-2.16h3.53v-3.87h2.26v3.87H53v2.16h-3.46v3.79h3.93v2.21h-4c0 .37-.08.76-.11 1.12 1.07 1 3.69 4 4.32 4.81zm12.51 1.28c.47 0 .57-.37.65-3.28a5.59 5.59 0 0 0 2 .91c-.19 3.59-.76 4.5-2.42 4.5H62.8c-2 0-2.41-.71-2.41-2.84v-5h-1.88c-.46 3.85-1.71 6.71-6.16 8.32a6.45 6.45 0 0 0-1.35-1.83c3.87-1.28 4.84-3.52 5.23-6.53h-1.88v-14.56h11.21v14.56h-2.94v5c0 .65.08.73.57.73zm-7.9-16.07h6.63v-2.06h-6.62zm0 4.08h6.63v-2.13h-6.62zm0 4.05h6.63v-2.1h-6.62zm35.16-9.98a18.88 18.88 0 0 1-4.06 6.84 17.88 17.88 0 0 0 6.19 3.2 11.08 11.08 0 0 0-1.51 2c-.28-.1-.57-.2-.86-.33v8.71h-2.34v-.94h-6.42v1h-2.23v-8.58c-.58.26-1.15.5-1.75.71a8.51 8.51 0 0 0-1.37-2l.15-.06c-.39-.72-1.06-1.76-1.69-2.7v12.56h-2.26v-11.15a25.51 25.51 0 0 1-3.09 6.55 10.41 10.41 0 0 0-1.17-2.16 27.65 27.65 0 0 0 4-9.33H70v-2.24h3.67v-5.43h2.26v5.43h3.17v1.4a19.09 19.09 0 0 0 4.5-6.86l2.32.62c-.29.73-.63 1.46-1 2.16h4.94l.44-.1zm-13.7 10.48a20.66 20.66 0 0 0 6.39-3.67 20.29 20.29 0 0 1-2.36-3.14 24.35 24.35 0 0 1-2.29 2.42 12.88 12.88 0 0 0-1.87-1.62l.18-.15h-2.24v.88c.7.75 2.73 3.25 3.23 3.85zm11.88.52A19.82 19.82 0 0 1 86.1 163a21.39 21.39 0 0 1-3.72 2.6zm-.76 6.37v-4.34h-6.42V172zm-5.51-15.91l-.23.37a15.53 15.53 0 0 0 2.6 3.48 16.7 16.7 0 0 0 2.68-3.85zm22.8 15.42a14.23 14.23 0 0 0 2.29-.37c3.3-.75 6.24-3.15 6.24-7.31a6.8 6.8 0 0 0-6.19-7.17 58.79 58.79 0 0 1-1.53 7.23c-1.56 5.25-3.69 8.19-6.27 8.19s-4.88-2.89-4.88-7.18c0-5.72 5.07-10.69 11.51-10.69 6.19 0 10.12 4.32 10.12 9.73s-3.46 9.12-9.75 10zm-1.82-8.17a35.74 35.74 0 0 0 1.41-6.63 8.62 8.62 0 0 0-7.33 8c0 3 1.32 4.31 2.36 4.31s2.37-1.7 3.56-5.68zm38.54-1.22a41.37 41.37 0 0 1-5.07 3.38 13.29 13.29 0 0 0 6.26 5.59 8.91 8.91 0 0 0-1.69 2.11c-4.78-2.32-7.59-7.18-9.15-13.27h-.05a16.91 16.91 0 0 1-2.39 1.67c4.91 4.29 4.81 10.82 2.28 12.63a4.07 4.07 0 0 1-2.91 1c-.65 0-1.43 0-2.23-.08a6 6 0 0 0-.68-2.32 20.82 20.82 0 0 0 2.42.13 2.25 2.25 0 0 0 1.71-.51c.78-.58 1.17-2.14.86-4a37.72 37.72 0 0 1-10.35 5.55 11.59 11.59 0 0 0-1.27-2 29.28 29.28 0 0 0 11-5.59c-.21-.45-.44-.89-.7-1.33a39.69 39.69 0 0 1-8.14 4.14 8.64 8.64 0 0 0-1.22-1.88 27.83 27.83 0 0 0 8.24-3.72 8.39 8.39 0 0 0-1-.91 37.7 37.7 0 0 1-6.27 2.32 11.44 11.44 0 0 0-1.27-1.87 31.18 31.18 0 0 0 8.53-3.18h-4.79v-2.08h14.23v2.08h-3.83a26.07 26.07 0 0 0 1.38 3.75 34.92 34.92 0 0 0 4.19-3.17zm-19-3.25h-2.39v-5.41h9.47v-2.18h2.49v2.18h9.62v5.41h-2.44v-3.2h-16.79zm32.05 12.64a41.37 41.37 0 0 1-8.22 3.61 14.31 14.31 0 0 0-1.69-1.85 33.05 33.05 0 0 0 7.75-3.38zm13.21-4.24v2.26h-22.88v-2.26zm-3.49-15v13.49h-15.73v-13.47zm-13.36 3.93h10.87v-2.06h-10.87zm0 3.82h10.87V158h-10.87zm0 3.85h10.87v-2.08h-10.87zm9 6.16a75.72 75.72 0 0 1 8.17 3.43l-2.39 1.64a53.5 53.5 0 0 0-7.57-3.43z"/></g></g></svg>