<svg xmlns="http://www.w3.org/2000/svg" viewBox="0 0 213.02 213.02"><defs><style>.cls-1{fill:#fff}.cls-2{fill:#73c6c7}</style></defs><title>sp-lb7</title><g id="Layer_2" data-name="Layer 2"><g id="SVG"><circle class="cls-1" cx="106.51" cy="106.51" r="105.01" transform="rotate(-84.35 106.5 106.513)"/><path class="cls-2" d="M106.51 3A103.51 103.51 0 1 1 3 106.51 103.63 103.63 0 0 1 106.51 3m0-3A106.51 106.51 0 1 0 213 106.51 106.51 106.51 0 0 0 106.51 0z"/><path d="M48.1 69a20.73 20.73 0 0 0-4.55-2.86l1.35-1.74a19 19 0 0 1 4.6 2.67zm1.77 3.48c-1 2.71-2.37 5.8-3.59 8.22l-2.13-1.4A78.22 78.22 0 0 0 48 71.06zm-.44-10.24A17.6 17.6 0 0 0 45 59.46l1.32-1.77a18.49 18.49 0 0 1 4.56 2.58zm18 16.17v2.09h-18v-2.11h6v-9h2.23v9h2.19v-9h2.23v9zm-14.56-1a21.71 21.71 0 0 0-2.13-6l2-.68A21.89 21.89 0 0 1 55 76.6zm12.83-8.74H52v-10.2h13.7zm-2.39-8.2h-9.05v2.14h9.05zm0 4h-9.05v2.15h9.05zm-.88 12.16a44.09 44.09 0 0 0 2.36-6.08l2.32.68a58.39 58.39 0 0 1-2.92 6zM75.84 62a19.69 19.69 0 0 1-4.16 5.77 17.65 17.65 0 0 0-2.23-1.56 17.77 17.77 0 0 0 5.53-9l2.55.55c-.23.73-.49 1.45-.75 2.16h15.73v2zM84 70.59a23.94 23.94 0 0 1-3 4.29 31.6 31.6 0 0 1 4.37 3.67l-1.92 1.82a32 32 0 0 0-4.21-3.7A28.45 28.45 0 0 1 72 81.54a13 13 0 0 0-1.77-1.9 24.75 24.75 0 0 0 7-4.37 67.329 67.329 0 0 0-4.68-2.94l1.74-1.58c1.49.8 3.12 1.76 4.68 2.8a18.83 18.83 0 0 0 2.66-3.74zm5.07-3.15c0 6.48.33 11.45 2.08 11.45.46 0 .59-1.46.62-3.59a12.39 12.39 0 0 0 1.64 1.48c-.18 3.22-.68 4.47-2.39 4.5-3.62 0-4.24-4.92-4.4-11.78H72.23v-2.06zM75.22 65.7v-2h14.9v2zM107 77.61a15.58 15.58 0 0 0 2.29-.36c3.3-.76 6.24-3.15 6.24-7.31a6.82 6.82 0 0 0-6.19-7.18 58.4 58.4 0 0 1-1.57 7.24c-1.56 5.25-3.69 8.19-6.27 8.19S96.61 75.3 96.61 71c0-5.72 5.08-10.69 11.52-10.69 6.19 0 10.12 4.32 10.12 9.72s-3.46 9.13-9.75 10zm-1.82-8.16a35.68 35.68 0 0 0 1.41-6.64 8.64 8.64 0 0 0-7.33 8c0 3 1.32 4.32 2.36 4.32s2.38-1.71 3.52-5.68zm36-9.18c-3.3 6.08-10.79 9.57-17.86 11.07a8 8 0 0 0-1.12-2.08 32.93 32.93 0 0 0 9.28-3 24.57 24.57 0 0 0-4.08-2.65 35.56 35.56 0 0 1-3.4 1.52 7.45 7.45 0 0 0-1.61-1.79c4.57-1.54 7.9-3.88 9.64-6l2.68.6c-.47.52-1 1-1.48 1.54h6l.39-.11zm3.64 9.07c-3.2 7.57-11 10.71-19.58 11.94a6.88 6.88 0 0 0-1-2.21A33 33 0 0 0 135 76.18a26.54 26.54 0 0 0-4.45-3.18 41.71 41.71 0 0 1-4.06 1.69 7.18 7.18 0 0 0-1.49-1.84c5.39-1.66 9.21-4.24 11.21-6.71l2.68.63a25.1 25.1 0 0 1-1.77 1.82h5.64l.42-.11zm-14-7.88a14.47 14.47 0 0 1-1.35.91 24.41 24.41 0 0 1 4.12 2.63 16.85 16.85 0 0 0 4-3.54zm3.8 9.21c-.6.41-1.2.8-1.85 1.19a25.63 25.63 0 0 1 4.47 3.07 13.69 13.69 0 0 0 4.21-4.26zm17.92-6.97c0 1.61 0 3.8.18 5.8.39 4 1.43 6.76 3.15 6.76 1.3 0 2.42-2.81 3-5.18l2.08 2.42c-1.64 4.42-3.22 6-5.12 6-2.6 0-5-2.5-5.7-9.29a68.14 68.14 0 0 1-.28-6.89 13.37 13.37 0 0 0-.18-2.41l3.14.05a20.84 20.84 0 0 0-.27 2.74zm18.05 10.71l-2.68 1c-.42-4.42-1.9-10-4.5-13l2.57-.86c2.37 3.01 4.27 8.67 4.61 12.86zM61.1 101.2a21.86 21.86 0 0 0-4.55-3l1.33-1.77a23.81 23.81 0 0 1 4.65 2.81zm2.11 3.33c-1.12 2.76-2.55 5.9-3.83 8.4l-2.13-1.48a73.78 73.78 0 0 0 4.16-8.32zm-1.1-10.09a19.37 19.37 0 0 0-4.36-3.14l1.45-1.67a18.71 18.71 0 0 1 4.42 3zM78 110.77c.6 0 .7-.55.78-3.8a7.71 7.71 0 0 0 2.1 1c-.2 3.9-.75 5-2.65 5h-2.41c-2.11 0-2.63-.7-2.63-3v-7.65h-2.83c-.39 5.25-1.41 8.9-6.5 11a6.18 6.18 0 0 0-1.49-1.92c4.55-1.69 5.26-4.68 5.57-9.08h-4.27v-2.39H71v-4.21h-3.4a16.81 16.81 0 0 1-1.93 3.77 19.14 19.14 0 0 0-2.13-1.3c1.56-2 2.63-5.23 3.2-8.45l2.44.44a41.09 41.09 0 0 1-.8 3.27H71v-4.1h2.42v4.1h6v2.27h-6v4.21h7v2.31h-4.89v7.65c0 .75.1.88.68.88zm17.58-17.52c-.32 1-.63 2-.89 2.86h10.14v17.13h-2.47v-1.35H86.53v1.35h-2.34V96.11h8c.2-.89.41-1.93.57-2.86h-9.7V91h23v2.29zm-9 16.4h3.25V98.32h-3.3zm10.19-11.33h-4.83v2.44h4.83zm0 4.36h-4.83v2.47h4.83zm-4.83 7h4.83v-2.57h-4.83zm10.42-11.33H99v11.33h3.4zm9.93 5.27c-.1 3.15-.57 7-2.28 9.62a10.49 10.49 0 0 0-1.88-1.48c1.75-2.76 1.9-6.73 1.9-9.7v-6.79h9.75v8.35zm8.09-10.71h-11.23V90.7h11.23zm-8.06 4.55v4h5.1v-4zm20.23 2.94H130v12.82h-2.42V100.4h-3.82c-.16 4-1 9.15-4.5 12.76a5.71 5.71 0 0 0-1.79-1.63c3.58-3.75 4-8.85 4-12.77v-7l1.84.45a31.83 31.83 0 0 0 6.84-2.58l2.13 1.8a43.61 43.61 0 0 1-8.45 2.83v3.82h8.82zm5.45-6.76c1.87-.19 6.47-.63 11.2-1 2.73-.23 5.33-.39 7.07-.44v2.63a24.55 24.55 0 0 0-5 .36 8.52 8.52 0 0 0-5.67 7.72c0 4.71 4.37 6.24 8.61 6.45l-.94 2.76c-5-.26-10.32-3-10.32-8.63a10.18 10.18 0 0 1 4.34-8.35c-2.23.23-8.55.86-11.44 1.48l-.26-2.83c.96-.05 1.85-.1 2.41-.15zm16.79 7.59l-1.61.73a23.65 23.65 0 0 0-2.08-3.64l1.56-.68a36.17 36.17 0 0 1 2.09 3.59zm3-1.2l-1.59.78a25.38 25.38 0 0 0-2.2-3.59l1.56-.7c.57.89 1.58 2.48 2.16 3.48zM23.92 139.25c0 1.25.55 1.56 1.77 1.82a22.44 22.44 0 0 0 3.25.18 42.39 42.39 0 0 0 8.94-.86v3a77 77 0 0 1-9.1.52 28.54 28.54 0 0 1-4.26-.26c-2.11-.39-3.3-1.43-3.3-3.62v-14.25a15 15 0 0 0-.19-2.34h3a16.22 16.22 0 0 0-.16 2.34v5.46a70.07 70.07 0 0 0 9.49-3 14.89 14.89 0 0 0 2.52-1.27l1.15 2.62c-.86.34-1.9.81-2.73 1.09A100.79 100.79 0 0 1 23.92 134zm12-12.51a36.94 36.94 0 0 0-2.08-3.58l1.66-.7a36.22 36.22 0 0 1 2.15 3.54zm2.55-5.38a35.34 35.34 0 0 1 2.13 3.54l-1.69.73a24.83 24.83 0 0 0-2.11-3.57zm6.38 17.32c.94.08 2 .16 2.94.16h15.29a22.82 22.82 0 0 0 2.6-.16v3.15c-.86-.08-1.88-.13-2.6-.13H47.79c-1 0-2 .05-2.94.13zm2.21-12.79c.86.08 1.9.13 2.76.13h11a25.81 25.81 0 0 0 2.7-.13v3c-.73 0-1.82-.1-2.7-.1H49.84c-.93 0-2 .05-2.78.1zm24 5.64c.83.08 2.44.16 3.85.16H89c1.28 0 2.29-.11 2.92-.16v3.2c-.58 0-1.75-.11-2.89-.11H74.91c-1.46 0-3 .06-3.85.11zm24.88 10.79a12.21 12.21 0 0 0 4.47-6.32c.76-2.31.76-7.38.76-10.37a8.38 8.38 0 0 0-.21-2.11h3c0 .21-.13 1.17-.13 2.08 0 3-.1 8.5-.8 11.1a14.6 14.6 0 0 1-4.62 7.3zm12 .23a7.73 7.73 0 0 0 .18-1.63v-15.4a20.07 20.07 0 0 0-.15-2.08h3a17.06 17.06 0 0 0-.13 2.08v14.38a18.22 18.22 0 0 0 7.07-6l1.56 2.24a27.12 27.12 0 0 1-8.84 7.17 5.72 5.72 0 0 0-1 .65zm35.55-15.65a8.91 8.91 0 0 0-.72 1.59 25.94 25.94 0 0 1-4.58 8.84 23.6 23.6 0 0 1-10.4 7.2l-2.42-2.16a21 21 0 0 0 10.43-6.5 19.56 19.56 0 0 0 3.95-7.67h-8.11a27.34 27.34 0 0 1-6.61 6.35l-2.28-1.69a22.1 22.1 0 0 0 8.16-8.61 11.86 11.86 0 0 0 1-2.34l3 1c-.52.78-1.07 1.79-1.35 2.31-.11.21-.24.44-.37.65h6.24a6.14 6.14 0 0 0 2-.26zm25.56 13.16v3.35h-2.83v-1.45h-13.37v1.45h-2.81c0-.23.05-2.31.05-3.35v-15.03h19v2.24zm-16.22-12.38v11.7h13.49v-11.7zm40.87-2.05a9.06 9.06 0 0 0-.7 1.37 35.68 35.68 0 0 1-4.27 7.41 68.64 68.64 0 0 1 7.44 7.62l-2.32 2a57 57 0 0 0-6.86-7.6 33.29 33.29 0 0 1-10 7.47l-2.11-2.19a29.06 29.06 0 0 0 10.69-7.62 21.17 21.17 0 0 0 4.13-6.86h-9.6c-1 0-2.42.13-2.83.15v-2.93a27.33 27.33 0 0 0 2.83.18h9.65a7.73 7.73 0 0 0 2.26-.26z"/></g></g></svg>