<svg xmlns="http://www.w3.org/2000/svg" viewBox="0 0 450.23 122.13"><defs><style>.cls-1,.cls-2{fill:none}.cls-2{stroke:#060001;stroke-miterlimit:10;stroke-width:.5px}.cls-3{clip-path:url(#clip-path)}.cls-4{fill:url(#新規パターンスウォッチ_5)}.cls-5{clip-path:url(#clip-path-2)}.cls-6{fill:url(#新規パターンスウォッチ_5-3)}.cls-7{clip-path:url(#clip-path-3)}.cls-8{fill:url(#新規パターンスウォッチ_5-5)}.cls-9{clip-path:url(#clip-path-4)}.cls-10{fill:url(#新規パターンスウォッチ_5-7)}.cls-11{clip-path:url(#clip-path-5)}.cls-12{fill:url(#新規パターンスウォッチ_5-9)}.cls-13{clip-path:url(#clip-path-6)}.cls-14{fill:url(#新規パターンスウォッチ_5-11)}.cls-15{clip-path:url(#clip-path-7)}.cls-16{fill:url(#新規パターンスウォッチ_5-13)}.cls-17{clip-path:url(#clip-path-8)}.cls-18{fill:url(#新規パターンスウォッチ_5-15)}.cls-19{clip-path:url(#clip-path-9)}.cls-20{fill:url(#新規パターンスウォッチ_5-17)}.cls-21{clip-path:url(#clip-path-10)}.cls-22{fill:url(#新規パターンスウォッチ_5-19)}.cls-23{clip-path:url(#clip-path-11)}.cls-24{fill:url(#新規パターンスウォッチ_5-21)}.cls-25{clip-path:url(#clip-path-12)}.cls-26{fill:url(#新規パターンスウォッチ_5-23)}.cls-27{clip-path:url(#clip-path-13)}.cls-28{fill:url(#新規パターンスウォッチ_5-25)}.cls-29{clip-path:url(#clip-path-14)}.cls-30{fill:url(#新規パターンスウォッチ_5-27)}.cls-31{clip-path:url(#clip-path-15)}.cls-32{fill:url(#新規パターンスウォッチ_5-29)}.cls-33{clip-path:url(#clip-path-16)}.cls-34{fill:url(#新規パターンスウォッチ_5-31)}.cls-35{clip-path:url(#clip-path-17)}.cls-36{fill:url(#新規パターンスウォッチ_5-33)}.cls-37{clip-path:url(#clip-path-18)}.cls-38{fill:url(#新規パターンスウォッチ_5-35)}.cls-39{clip-path:url(#clip-path-19)}.cls-40{fill:url(#新規パターンスウォッチ_5-37)}.cls-41{clip-path:url(#clip-path-20)}.cls-42{fill:url(#新規パターンスウォッチ_5-39)}.cls-43{clip-path:url(#clip-path-21)}.cls-44{fill:url(#新規パターンスウォッチ_5-41)}</style><clipPath id="clip-path"><path class="cls-1" d="M46.23 34c2.14 2.93 3.11 5.25 3.11 8 0 5-4.55 8.91-12.19 8.91-5.66 0-9.38-2.4-9.38-8 0-.73.07-1.8.2-3.06a39.46 39.46 0 0 1-6-1l.26-4.82a28.32 28.32 0 0 0 6.27 1.29l.5-3.62a41.14 41.14 0 0 1-6.3-1.16l.21-4.54a28.93 28.93 0 0 0 6.6 1.23c.1-.83.17-1.56.2-2.19a20.15 20.15 0 0 0 .07-3.26l5.63.3c-.34 1.39-.5 2.36-.67 3.29-.07.43-.17 1.13-.3 2a41.53 41.53 0 0 0 5.69-.43l-.13 4.7a52.06 52.06 0 0 1-6.2.36c-.17 1.2-.33 2.46-.47 3.66a64.87 64.87 0 0 0 6.49-.4L39.73 40a53.6 53.6 0 0 1-5.49.3h-1.38c-.06.76-.1 1.43-.1 1.89 0 2.46 1.58 3.66 4.56 3.66 4.39 0 6.56-2.06 6.56-4.39s-1.27-4.19-3.28-6.18z"/></clipPath><pattern id="新規パターンスウォッチ_5" data-name="新規パターンスウォッチ 5" width="45.25" height="45" patternTransform="matrix(.66 -.97 .97 .66 21.82 -108.72)" patternUnits="userSpaceOnUse" viewBox="0 0 45.25 45"><path class="cls-1" d="M0 0h45.25v45H0z"/><path class="cls-2" d="M.25 0v45M1.61 0v45M2.98 0v45M4.34 0v45M5.7 0v45M7.07 0v45M8.43 0v45M9.8 0v45m1.36-45v45m1.36-45v45m1.37-45v45m1.36-45v45m1.36-45v45m1.37-45v45m1.36-45v45M20.7 0v45m1.37-45v45m1.36-45v45M24.8 0v45m1.36-45v45m1.36-45v45m1.37-45v45m1.36-45v45m1.36-45v45m1.37-45v45m1.36-45v45M35.7 0v45m1.37-45v45m1.36-45v45M39.8 0v45m1.36-45v45m1.36-45v45m1.37-45v45"/><path class="cls-1" d="M.25 0h45v45h-45z"/></pattern><clipPath id="clip-path-2"><path class="cls-1" d="M64.38 33.4c2.21-.67 7.9-2.53 12-2.53 5.56 0 9.14 3.26 9.14 8.55 0 5.71-4.79 10.27-16.21 11l-2.14-4.92c7.77-.2 13-2.16 13-6.15 0-2.26-1.67-3.79-4.28-3.79-3.72 0-10 2.56-13.2 3.95l-2.07-5.21c.98-.17 2.78-.6 3.76-.9z"/></clipPath><pattern id="新規パターンスウォッチ_5-3" data-name="新規パターンスウォッチ 5" width="45.25" height="45" patternTransform="matrix(.66 -.97 .97 .66 55.06 -108.72)" patternUnits="userSpaceOnUse" viewBox="0 0 45.25 45"><path class="cls-1" d="M0 0h45.25v45H0z"/><path class="cls-2" d="M.25 0v45M1.61 0v45M2.98 0v45M4.34 0v45M5.7 0v45M7.07 0v45M8.43 0v45M9.8 0v45m1.36-45v45m1.36-45v45m1.37-45v45m1.36-45v45m1.36-45v45m1.37-45v45m1.36-45v45M20.7 0v45m1.37-45v45m1.36-45v45M24.8 0v45m1.36-45v45m1.36-45v45m1.37-45v45m1.36-45v45m1.36-45v45m1.37-45v45m1.36-45v45M35.7 0v45m1.37-45v45m1.36-45v45M39.8 0v45m1.36-45v45m1.36-45v45m1.37-45v45"/><path class="cls-1" d="M.25 0h45v45h-45z"/></pattern><clipPath id="clip-path-3"><path class="cls-1" d="M120.38 29.74c-1.17.7-2.38 1.33-3.72 2a89.26 89.26 0 0 0-8.78 4.58c-2.58 1.67-4.42 3.43-4.42 5.59s2.11 3.19 6.37 3.19a57.15 57.15 0 0 0 11-1.26l-.07 5.75a63.37 63.37 0 0 1-10.75.83c-6.83 0-12.09-1.83-12.09-7.91 0-3.76 2.34-6.45 5.39-8.75-1.54-2.82-3.08-6.18-4.56-9.64l5.06-2a68.6 68.6 0 0 0 4 8.78c2.44-1.39 5-2.69 6.4-3.52a24 24 0 0 0 3.45-2.23z"/></clipPath><pattern id="新規パターンスウォッチ_5-5" data-name="新規パターンスウォッチ 5" width="45.25" height="45" patternTransform="matrix(.66 -.97 .97 .66 94.95 -108.72)" patternUnits="userSpaceOnUse" viewBox="0 0 45.25 45"><path class="cls-1" d="M0 0h45.25v45H0z"/><path class="cls-2" d="M.25 0v45M1.61 0v45M2.98 0v45M4.34 0v45M5.7 0v45M7.07 0v45M8.43 0v45M9.8 0v45m1.36-45v45m1.36-45v45m1.37-45v45m1.36-45v45m1.36-45v45m1.37-45v45m1.36-45v45M20.7 0v45m1.37-45v45m1.36-45v45M24.8 0v45m1.36-45v45m1.36-45v45m1.37-45v45m1.36-45v45m1.36-45v45m1.37-45v45m1.36-45v45M35.7 0v45m1.37-45v45m1.36-45v45M39.8 0v45m1.36-45v45m1.36-45v45m1.37-45v45"/><path class="cls-1" d="M.25 0h45v45h-45z"/></pattern><clipPath id="clip-path-4"><path class="cls-1" d="M156.21 37.19a20.6 20.6 0 0 1-3.72 7.05A60.94 60.94 0 0 1 160.3 48l-4 3.92a54.82 54.82 0 0 0-7.87-4.08c-3.48 2.22-8 3.45-13.53 4.22a19.68 19.68 0 0 0-2.72-4.42 36.9 36.9 0 0 0 10.62-2.1c-1-.37-1.94-.73-2.91-1l-.5.87-5.15-1.41c1.14-1.86 2.51-4.25 3.85-6.78h-6.6v-4.59h8.94c.78-1.63 1.55-3.19 2.18-4.68l5.16 1.05c-.54 1.16-1.14 2.39-1.74 3.62h15.47v4.56zM137 31.37h-5v-8.28h11.72V20.4H149v2.69h12v8.28h-5.23v-3.82H137zm6.8 5.82c-.6 1.16-1.2 2.29-1.77 3.36 1.77.53 3.68 1.16 5.66 1.86a12.33 12.33 0 0 0 2.88-5.22z"/></clipPath><pattern id="新規パターンスウォッチ_5-7" data-name="新規パターンスウォッチ 5" width="45.25" height="45" patternTransform="matrix(.66 -.97 .97 .66 134.84 -108.72)" patternUnits="userSpaceOnUse" viewBox="0 0 45.25 45"><path class="cls-1" d="M0 0h45.25v45H0z"/><path class="cls-2" d="M.25 0v45M1.61 0v45M2.98 0v45M4.34 0v45M5.7 0v45M7.07 0v45M8.43 0v45M9.8 0v45m1.36-45v45m1.36-45v45m1.37-45v45m1.36-45v45m1.36-45v45m1.37-45v45m1.36-45v45M20.7 0v45m1.37-45v45m1.36-45v45M24.8 0v45m1.36-45v45m1.36-45v45m1.37-45v45m1.36-45v45m1.36-45v45m1.37-45v45m1.36-45v45M35.7 0v45m1.37-45v45m1.36-45v45M39.8 0v45m1.36-45v45m1.36-45v45m1.37-45v45"/><path class="cls-1" d="M.25 0h45v45h-45z"/></pattern><clipPath id="clip-path-5"><path class="cls-1" d="M174.93 33.23c-.5 4.72-1.27 9.71-3.38 13L167 43.67c1.84-2.82 2.74-6.88 3.18-11.4zm6.56-3.16V45.5c0 1.66.17 1.86 1.61 1.86h3.69c1.44 0 1.71-1 1.94-5.92a14.37 14.37 0 0 0 4.52 2.07c-.5 6.21-1.77 8.24-6 8.24h-4.85c-4.72 0-6-1.53-6-6.25V30.07zm-1.87-9.54a46.37 46.37 0 0 1 11.09 5.95l-3.25 4.26a42.92 42.92 0 0 0-11-6.45zm14.13 10.31a34 34 0 0 1 6 11.83l-5 2.46a35 35 0 0 0-5.49-12.06z"/></clipPath><pattern id="新規パターンスウォッチ_5-9" data-name="新規パターンスウォッチ 5" width="45.25" height="45" patternTransform="matrix(.66 -.97 .97 .66 57.24 -115.22)" patternUnits="userSpaceOnUse" viewBox="0 0 45.25 45"><path class="cls-1" d="M0 0h45.25v45H0z"/><path class="cls-2" d="M.25 0v45M1.61 0v45M2.98 0v45M4.34 0v45M5.7 0v45M7.07 0v45M8.43 0v45M9.8 0v45m1.36-45v45m1.36-45v45m1.37-45v45m1.36-45v45m1.36-45v45m1.37-45v45m1.36-45v45M20.7 0v45m1.37-45v45m1.36-45v45M24.8 0v45m1.36-45v45m1.36-45v45m1.37-45v45m1.36-45v45m1.36-45v45m1.37-45v45m1.36-45v45M35.7 0v45m1.37-45v45m1.36-45v45M39.8 0v45m1.36-45v45m1.36-45v45m1.37-45v45"/><path class="cls-1" d="M.25 0h45v45h-45z"/></pattern><clipPath id="clip-path-6"><path class="cls-1" d="M211.6 51.39a69.89 69.89 0 0 0-7.1-7.29l4.25-3.62a59.25 59.25 0 0 1 7.17 7.22z"/></clipPath><pattern id="新規パターンスウォッチ_5-11" data-name="新規パターンスウォッチ 5" width="45.25" height="45" patternTransform="matrix(.66 -.97 .97 .66 63.89 -114.83)" patternUnits="userSpaceOnUse" viewBox="0 0 45.25 45"><path class="cls-1" d="M0 0h45.25v45H0z"/><path class="cls-2" d="M.25 0v45M1.61 0v45M2.98 0v45M4.34 0v45M5.7 0v45M7.07 0v45M8.43 0v45M9.8 0v45m1.36-45v45m1.36-45v45m1.37-45v45m1.36-45v45m1.36-45v45m1.37-45v45m1.36-45v45M20.7 0v45m1.37-45v45m1.36-45v45M24.8 0v45m1.36-45v45m1.36-45v45m1.37-45v45m1.36-45v45m1.36-45v45m1.37-45v45m1.36-45v45M35.7 0v45m1.37-45v45m1.36-45v45M39.8 0v45m1.36-45v45m1.36-45v45m1.37-45v45"/><path class="cls-1" d="M.25 0h45v45h-45z"/></pattern><clipPath id="clip-path-7"><path class="cls-1" d="M250.52 34c2.15 2.93 3.12 5.25 3.12 8 0 5-4.56 8.91-12.2 8.91-5.66 0-9.38-2.4-9.38-8 0-.73.07-1.8.2-3.06a39.46 39.46 0 0 1-6-1l.27-4.82a28.24 28.24 0 0 0 6.26 1.29l.47-3.69a41.14 41.14 0 0 1-6.3-1.16l.24-4.59a28.83 28.83 0 0 0 6.6 1.23c.1-.83.16-1.56.2-2.19a21.46 21.46 0 0 0 .06-3.26l5.63.3c-.33 1.39-.5 2.36-.67 3.29-.07.43-.17 1.13-.3 2a41.53 41.53 0 0 0 5.69-.43l-.16 4.72a52.06 52.06 0 0 1-6.17.33c-.16 1.2-.33 2.46-.47 3.66 1.87 0 4.42-.17 6.5-.4L244 40a53.6 53.6 0 0 1-5.49.3h-1.37c-.07.76-.11 1.43-.11 1.89 0 2.46 1.58 3.66 4.56 3.66 4.39 0 6.57-2.06 6.57-4.39s-1.28-4.19-3.29-6.18z"/></clipPath><pattern id="新規パターンスウォッチ_5-13" data-name="新規パターンスウォッチ 5" width="45.25" height="45" patternTransform="matrix(.66 -.97 .97 .66 107.83 -121.49)" patternUnits="userSpaceOnUse" viewBox="0 0 45.25 45"><path class="cls-1" d="M0 0h45.25v45H0z"/><path class="cls-2" d="M.25 0v45M1.61 0v45M2.98 0v45M4.34 0v45M5.7 0v45M7.07 0v45M8.43 0v45M9.8 0v45m1.36-45v45m1.36-45v45m1.37-45v45m1.36-45v45m1.36-45v45m1.37-45v45m1.36-45v45M20.7 0v45m1.37-45v45m1.36-45v45M24.8 0v45m1.36-45v45m1.36-45v45m1.37-45v45m1.36-45v45m1.36-45v45m1.37-45v45m1.36-45v45M35.7 0v45m1.37-45v45m1.36-45v45M39.8 0v45m1.36-45v45m1.36-45v45m1.37-45v45"/><path class="cls-1" d="M.25 0h45v45h-45z"/></pattern><clipPath id="clip-path-8"><path class="cls-1" d="M268.67 33.4c2.21-.67 7.9-2.53 12-2.53 5.56 0 9.15 3.26 9.15 8.55 0 5.71-4.79 10.27-16.22 11l-2.14-4.92c7.77-.2 13-2.16 13-6.15 0-2.26-1.68-3.79-4.29-3.79-3.72 0-10 2.56-13.2 3.95l-2-5.18c.92-.2 2.73-.63 3.7-.93z"/></clipPath><pattern id="新規パターンスウォッチ_5-15" data-name="新規パターンスウォッチ 5" width="45.25" height="45" patternTransform="matrix(.66 -.97 .97 .66 137.03 -115.22)" patternUnits="userSpaceOnUse" viewBox="0 0 45.25 45"><path class="cls-1" d="M0 0h45.25v45H0z"/><path class="cls-2" d="M.25 0v45M1.61 0v45M2.98 0v45M4.34 0v45M5.7 0v45M7.07 0v45M8.43 0v45M9.8 0v45m1.36-45v45m1.36-45v45m1.37-45v45m1.36-45v45m1.36-45v45m1.37-45v45m1.36-45v45M20.7 0v45m1.37-45v45m1.36-45v45M24.8 0v45m1.36-45v45m1.36-45v45m1.37-45v45m1.36-45v45m1.36-45v45m1.37-45v45m1.36-45v45M35.7 0v45m1.37-45v45m1.36-45v45M39.8 0v45m1.36-45v45m1.36-45v45m1.37-45v45"/><path class="cls-1" d="M.25 0h45v45h-45z"/></pattern><clipPath id="clip-path-9"><path class="cls-1" d="M324.67 29.74c-1.17.7-2.38 1.33-3.72 2a90.4 90.4 0 0 0-8.78 4.58c-2.57 1.67-4.42 3.43-4.42 5.59s2.11 3.19 6.37 3.19a57.15 57.15 0 0 0 10.95-1.26l-.07 5.75a63.37 63.37 0 0 1-10.75.83c-6.83 0-12.09-1.83-12.09-7.91 0-3.76 2.34-6.45 5.39-8.75-1.54-2.82-3.08-6.18-4.55-9.64l5.05-2a68.6 68.6 0 0 0 4 8.78c2.45-1.39 5-2.69 6.4-3.52a23.49 23.49 0 0 0 3.45-2.23z"/></clipPath><pattern id="新規パターンスウォッチ_5-17" data-name="新規パターンスウォッチ 5" width="45.25" height="45" patternTransform="matrix(.66 -.97 .97 .66 69.96 -133.9)" patternUnits="userSpaceOnUse" viewBox="0 0 45.25 45"><path class="cls-1" d="M0 0h45.25v45H0z"/><path class="cls-2" d="M.25 0v45M1.61 0v45M2.98 0v45M4.34 0v45M5.7 0v45M7.07 0v45M8.43 0v45M9.8 0v45m1.36-45v45m1.36-45v45m1.37-45v45m1.36-45v45m1.36-45v45m1.37-45v45m1.36-45v45M20.7 0v45m1.37-45v45m1.36-45v45M24.8 0v45m1.36-45v45m1.36-45v45m1.37-45v45m1.36-45v45m1.36-45v45m1.37-45v45m1.36-45v45M35.7 0v45m1.37-45v45m1.36-45v45M39.8 0v45m1.36-45v45m1.36-45v45m1.37-45v45"/><path class="cls-1" d="M.25 0h45v45h-45z"/></pattern><clipPath id="clip-path-10"><path class="cls-1" d="M359.1 39.62a14 14 0 0 0 8 7.94 19.28 19.28 0 0 0-3.45 4.56 16.6 16.6 0 0 1-8.18-9 18.54 18.54 0 0 1-8.1 9.08 20.32 20.32 0 0 0-3.49-3.76 13.33 13.33 0 0 0 7.77-8.84h-6V35h6.7c.07-.83.07-1.63.07-2.43v-2.8h-5.36a28.42 28.42 0 0 1 .94 2.76l-3.52 1.6a26 26 0 0 0-.9-3.13v21h-4.83V33.17a31.74 31.74 0 0 1-.87 4l-3.55-1.26a43.59 43.59 0 0 0 1.58-8.81l2.84.39v-7.06h4.83v6.35l1.84-.76c.54 1.1 1.11 2.42 1.61 3.65v-4.35h5.39v-4.89h4.92v4.89h7.17V35h1.68v4.59zm-1.75-7c0 .8 0 1.6-.06 2.4h2.48v-5.25h-2.42z"/></clipPath><pattern id="新規パターンスウォッチ_5-19" data-name="新規パターンスウォッチ 5" width="45.25" height="45" patternTransform="matrix(.66 -.97 .97 .66 103.2 -133.9)" patternUnits="userSpaceOnUse" viewBox="0 0 45.25 45"><path class="cls-1" d="M0 0h45.25v45H0z"/><path class="cls-2" d="M.25 0v45M1.61 0v45M2.98 0v45M4.34 0v45M5.7 0v45M7.07 0v45M8.43 0v45M9.8 0v45m1.36-45v45m1.36-45v45m1.37-45v45m1.36-45v45m1.36-45v45m1.37-45v45m1.36-45v45M20.7 0v45m1.37-45v45m1.36-45v45M24.8 0v45m1.36-45v45m1.36-45v45m1.37-45v45m1.36-45v45m1.36-45v45m1.37-45v45m1.36-45v45M35.7 0v45m1.37-45v45m1.36-45v45M39.8 0v45m1.36-45v45m1.36-45v45m1.37-45v45"/><path class="cls-1" d="M.25 0h45v45h-45z"/></pattern><clipPath id="clip-path-11"><path class="cls-1" d="M382.07 46a9.45 9.45 0 0 0 4.35 1 158.91 158.91 0 0 0 17.25-.34 22.2 22.2 0 0 0-1.5 4.69c-4.39.23-11.53.3-15.81.1-3.79-.16-6.3-1-8.28-3.56-1.27 1.23-2.58 2.4-4.29 3.83l-2.24-4.82a46.32 46.32 0 0 0 3.92-2.63v-6.52H372V33.3h8.13v10.64a5 5 0 0 0 1.78 1.93v-18h3.58a8.83 8.83 0 0 0-.6-1.73h.14-3.79v-3.71h8.14v-2h4.72v2h8.71v3.69h-3.71c-.34.63-.61 1.23-.88 1.76h4.12v14.06c0 1.86-.3 2.9-1.5 3.56a10.07 10.07 0 0 1-4.66.7 13.27 13.27 0 0 0-.67-2.49h-4.86v.89h-3.21v-7.34h2.84v-1.57H387v-2.82h3.31v-1.4h-4V46zm-5.16-16.43A28.58 28.58 0 0 0 372 24l3.71-2.72a29.18 29.18 0 0 1 5.23 5.18zm12.43-3.42a8.74 8.74 0 0 1 .57 1.76h3.95c.17-.53.37-1.16.5-1.76zm4 13.7h-2.68v1.29h2.68zm4.06 2.56c.37 0 .5-.14.5-.5V31.47h-4.19v1.4h3.39v2.82h-3.39v1.57h2.92v5.12z"/></clipPath><pattern id="新規パターンスウォッチ_5-21" data-name="新規パターンスウォッチ 5" width="45.25" height="45" patternTransform="matrix(.66 -.97 .97 .66 143.09 -133.9)" patternUnits="userSpaceOnUse" viewBox="0 0 45.25 45"><path class="cls-1" d="M0 0h45.25v45H0z"/><path class="cls-2" d="M.25 0v45M1.61 0v45M2.98 0v45M4.34 0v45M5.7 0v45M7.07 0v45M8.43 0v45M9.8 0v45m1.36-45v45m1.36-45v45m1.37-45v45m1.36-45v45m1.36-45v45m1.37-45v45m1.36-45v45M20.7 0v45m1.37-45v45m1.36-45v45M24.8 0v45m1.36-45v45m1.36-45v45m1.37-45v45m1.36-45v45m1.36-45v45m1.37-45v45m1.36-45v45M35.7 0v45m1.37-45v45m1.36-45v45M39.8 0v45m1.36-45v45m1.36-45v45m1.37-45v45"/><path class="cls-1" d="M.25 0h45v45h-45z"/></pattern><clipPath id="clip-path-12"><path class="cls-1" d="M420.48 45.6a4 4 0 0 1 7.91 0 4 4 0 0 1-7.91 0zm.5-16.09l-.2-5.52h7.34l-.2 5.52L426.55 40h-4.19z"/></clipPath><pattern id="新規パターンスウォッチ_5-23" data-name="新規パターンスウォッチ 5" width="45.25" height="45" patternTransform="matrix(.66 -.97 .97 .66 169.69 -133.9)" patternUnits="userSpaceOnUse" viewBox="0 0 45.25 45"><path class="cls-1" d="M0 0h45.25v45H0z"/><path class="cls-2" d="M.25 0v45M1.61 0v45M2.98 0v45M4.34 0v45M5.7 0v45M7.07 0v45M8.43 0v45M9.8 0v45m1.36-45v45m1.36-45v45m1.37-45v45m1.36-45v45m1.36-45v45m1.37-45v45m1.36-45v45M20.7 0v45m1.37-45v45m1.36-45v45M24.8 0v45m1.36-45v45m1.36-45v45m1.37-45v45m1.36-45v45m1.36-45v45m1.37-45v45m1.36-45v45M35.7 0v45m1.37-45v45m1.36-45v45M39.8 0v45m1.36-45v45m1.36-45v45m1.37-45v45"/><path class="cls-1" d="M.25 0h45v45h-45z"/></pattern><clipPath id="clip-path-13"><path class="cls-1" d="M30.56 71.26c1.37 0 7.24-.3 9.35-.53a12.81 12.81 0 0 0 2.57-.47L45.63 74c-.83.54-2.27 1.47-3.08 2.13-2.31 1.8-4.72 3.79-6.77 5.39 4.13-.4 9.35-.7 13-.7v4.69a51.76 51.76 0 0 0-8.61 0c-2.91.4-5.12 2.23-5.12 4.69 0 2.19 1.71 3.16 4.66 3.46a35.21 35.21 0 0 0 5.19.06l-1 5.26c-8.74.36-14-2.2-14-7.92a8.08 8.08 0 0 1 1.57-4.62c-2.74.2-6 .7-9 1.23L22 82.8c1.78-.17 4.12-.47 5.87-.67a72.16 72.16 0 0 0 8.44-6.68c-1.31.1-4.42.27-5.73.4-.8.06-2 .2-3.22.33l-.23-5.05c1.15.1 2.22.13 3.43.13z"/></clipPath><pattern id="新規パターンスウォッチ_5-25" data-name="新規パターンスウォッチ 5" width="45.25" height="45" patternTransform="matrix(.66 -.97 .97 .66 83.06 -146.41)" patternUnits="userSpaceOnUse" viewBox="0 0 45.25 45"><path class="cls-1" d="M0 0h45.25v45H0z"/><path class="cls-2" d="M.25 0v45M1.61 0v45M2.98 0v45M4.34 0v45M5.7 0v45M7.07 0v45M8.43 0v45M9.8 0v45m1.36-45v45m1.36-45v45m1.37-45v45m1.36-45v45m1.36-45v45m1.37-45v45m1.36-45v45M20.7 0v45m1.37-45v45m1.36-45v45M24.8 0v45m1.36-45v45m1.36-45v45m1.37-45v45m1.36-45v45m1.36-45v45m1.37-45v45m1.36-45v45M35.7 0v45m1.37-45v45m1.36-45v45M39.8 0v45m1.36-45v45m1.36-45v45m1.37-45v45"/><path class="cls-1" d="M.25 0h45v45h-45z"/></pattern><clipPath id="clip-path-14"><path class="cls-1" d="M88.47 95.36a9.16 9.16 0 0 1-6.33 2.33c-2.65 0-4.42-2-4.42-5.45s1.17-8 1.17-10.9c0-1.47-.77-2.27-2-2.27-2.28 0-5.66 2.93-8.21 5.72v2.06c0 2.5 0 5.72.23 8.88 0 .6.17 2 .27 2.83h-5.53c.06-.83.1-2.2.1-2.73 0-2 .06-3.72.13-5.82-1.27 1.83-2.61 3.86-3.52 5.09l-3.11-4.39c1.88-2.29 5-6.28 7-9.11l.1-1.76c-1.71.2-4 .5-5.8.73L58 75.48h3.28c.91-.07 2.11-.17 3.35-.37.07-1 .1-1.86.1-2.19a17.77 17.77 0 0 0-.16-3.22l5.82.16c-.23 1-.5 2.69-.77 4.69l1.28 1.66c-.44.57-1.21 1.73-1.81 2.59v.1c2.61-2.16 6.2-4.55 9.31-4.55 3.85 0 5.56 2.29 5.56 5.12 0 3.46-1 7.85-1 11.3a1 1 0 0 0 1 1.13 6.33 6.33 0 0 0 3.85-2.12z"/></clipPath><pattern id="新規パターンスウォッチ_5-27" data-name="新規パターンスウォッチ 5" width="45.25" height="45" patternTransform="matrix(.66 -.97 .97 .66 122.95 -146.41)" patternUnits="userSpaceOnUse" viewBox="0 0 45.25 45"><path class="cls-1" d="M0 0h45.25v45H0z"/><path class="cls-2" d="M.25 0v45M1.61 0v45M2.98 0v45M4.34 0v45M5.7 0v45M7.07 0v45M8.43 0v45M9.8 0v45m1.36-45v45m1.36-45v45m1.37-45v45m1.36-45v45m1.36-45v45m1.37-45v45m1.36-45v45M20.7 0v45m1.37-45v45m1.36-45v45M24.8 0v45m1.36-45v45m1.36-45v45m1.37-45v45m1.36-45v45m1.36-45v45m1.37-45v45m1.36-45v45M35.7 0v45m1.37-45v45m1.36-45v45M39.8 0v45m1.36-45v45m1.36-45v45m1.37-45v45"/><path class="cls-1" d="M.25 0h45v45h-45z"/></pattern><clipPath id="clip-path-15"><path class="cls-1" d="M108.59 70.79c-.23 1-.5 2.23-.7 3.16s-.37 1.8-.57 2.66c.87-.06 1.64-.1 2.24-.1 3.82 0 6.33 1.8 6.33 6.72 0 3.86-.43 9.14-1.84 12.07-1.14 2.36-3.08 3.19-5.79 3.19a20.2 20.2 0 0 1-4-.46l-.87-5.26a21.27 21.27 0 0 0 4 .7 2.25 2.25 0 0 0 2.24-1.26c.84-1.63 1.24-5.39 1.24-8.45 0-2.39-1-2.69-3.08-2.69-.37 0-.94 0-1.54.06-1.34 5.13-3.82 13-6.63 17.56l-5.23-2.09c3.15-4.23 5.29-10.38 6.53-14.87-.87.14-1.61.24-2.08.3-1.07.14-3 .4-4.08.6l-.44-5.35a38 38 0 0 0 3.85 0c1 0 2.35-.13 3.82-.23a32.63 32.63 0 0 0 .64-6.89zm11.79 3.53a59.59 59.59 0 0 1 5.36 11.84l-5.12 2.36c-.8-3.83-3-9.68-5.43-12.74l2.92-1.19a42.43 42.43 0 0 0-2.28-4.06l3.17-1.26c.84 1.23 2 3.39 2.61 4.55zm2.21-.8a37 37 0 0 0-2.59-4.59l3.15-1.26a47.17 47.17 0 0 1 2.64 4.52z"/></clipPath><pattern id="新規パターンスウォッチ_5-29" data-name="新規パターンスウォッチ 5" width="45.25" height="45" patternTransform="matrix(.66 -.97 .97 .66 156.19 -146.41)" patternUnits="userSpaceOnUse" viewBox="0 0 45.25 45"><path class="cls-1" d="M0 0h45.25v45H0z"/><path class="cls-2" d="M.25 0v45M1.61 0v45M2.98 0v45M4.34 0v45M5.7 0v45M7.07 0v45M8.43 0v45M9.8 0v45m1.36-45v45m1.36-45v45m1.37-45v45m1.36-45v45m1.36-45v45m1.37-45v45m1.36-45v45M20.7 0v45m1.37-45v45m1.36-45v45M24.8 0v45m1.36-45v45m1.36-45v45m1.37-45v45m1.36-45v45m1.36-45v45m1.37-45v45m1.36-45v45M35.7 0v45m1.37-45v45m1.36-45v45M39.8 0v45m1.36-45v45m1.36-45v45m1.37-45v45"/><path class="cls-1" d="M.25 0h45v45h-45z"/></pattern><clipPath id="clip-path-16"><path class="cls-1" d="M141.65 71a25.72 25.72 0 0 0-.14 2.63v11.3c0 .83.07 2.22.14 3.09h-6c0-.67.17-2.1.17-3.13V73.62a26 26 0 0 0-.14-2.63zm15.35-.3c-.06 1-.13 2.12-.13 3.59v7.24c0 6.69-1.57 10-4.12 12.67a21 21 0 0 1-8.19 4.8l-4.25-4.46c3.48-.76 6.23-2 8.24-4 2.24-2.36 2.71-4.72 2.71-9.31v-6.94a26.66 26.66 0 0 0-.26-3.59z"/></clipPath><pattern id="新規パターンスウォッチ_5-31" data-name="新規パターンスウォッチ 5" width="45.25" height="45" patternTransform="matrix(.66 -.97 .97 .66 189.43 -146.41)" patternUnits="userSpaceOnUse" viewBox="0 0 45.25 45"><path class="cls-1" d="M0 0h45.25v45H0z"/><path class="cls-2" d="M.25 0v45M1.61 0v45M2.98 0v45M4.34 0v45M5.7 0v45M7.07 0v45M8.43 0v45M9.8 0v45m1.36-45v45m1.36-45v45m1.37-45v45m1.36-45v45m1.36-45v45m1.37-45v45m1.36-45v45M20.7 0v45m1.37-45v45m1.36-45v45M24.8 0v45m1.36-45v45m1.36-45v45m1.37-45v45m1.36-45v45m1.36-45v45m1.37-45v45m1.36-45v45M35.7 0v45m1.37-45v45m1.36-45v45M39.8 0v45m1.36-45v45m1.36-45v45m1.37-45v45"/><path class="cls-1" d="M.25 0h45v45h-45z"/></pattern><clipPath id="clip-path-17"><path class="cls-1" d="M195 74.12a17.75 17.75 0 0 0-1.38 2.43 50.81 50.81 0 0 1-5.06 8.77 89.33 89.33 0 0 1 9.11 9.28l-4.65 4a66.35 66.35 0 0 0-8-9.11 44.51 44.51 0 0 1-12.29 9.08l-4.22-4.35a37.53 37.53 0 0 0 13.7-9.35 24.38 24.38 0 0 0 4.69-7.51h-10.39c-1.51 0-3.35.2-4.29.26v-5.69a41.85 41.85 0 0 0 4.29.26h11.19a14.14 14.14 0 0 0 4-.5z"/></clipPath><pattern id="新規パターンスウォッチ_5-33" data-name="新規パターンスウォッチ 5" width="45.25" height="45" patternTransform="matrix(.66 -.97 .97 .66 157.3 -135.17)" patternUnits="userSpaceOnUse" viewBox="0 0 45.25 45"><path class="cls-1" d="M0 0h45.25v45H0z"/><path class="cls-2" d="M.25 0v45M1.61 0v45M2.98 0v45M4.34 0v45M5.7 0v45M7.07 0v45M8.43 0v45M9.8 0v45m1.36-45v45m1.36-45v45m1.37-45v45m1.36-45v45m1.36-45v45m1.37-45v45m1.36-45v45M20.7 0v45m1.37-45v45m1.36-45v45M24.8 0v45m1.36-45v45m1.36-45v45m1.37-45v45m1.36-45v45m1.36-45v45m1.37-45v45m1.36-45v45M35.7 0v45m1.37-45v45m1.36-45v45M39.8 0v45m1.36-45v45m1.36-45v45m1.37-45v45"/><path class="cls-1" d="M.25 0h45v45h-45z"/></pattern><clipPath id="clip-path-18"><path class="cls-1" d="M233.92 75.65a17 17 0 0 0-1.31 2.73 38.84 38.84 0 0 1-4.45 8.62c1.24.8 2.34 1.53 3.18 2.13l-3.69 4.75c-.8-.7-1.91-1.53-3.11-2.39a31.49 31.49 0 0 1-11.89 7.94l-4.73-4.06a27.82 27.82 0 0 0 12.06-7c-2-1.33-4-2.56-5.63-3.45l3.45-3.86c1.65.86 3.69 2 5.7 3.12a21.05 21.05 0 0 0 3-6.08h-8.6a41.94 41.94 0 0 1-8.81 8.51l-4.39-3.36a31.53 31.53 0 0 0 10.62-10.74 17.53 17.53 0 0 0 1.77-4l5.91 1.85c-.73 1-1.5 2.33-2 3.19h5.56a12.54 12.54 0 0 0 3.32-.43z"/></clipPath><pattern id="新規パターンスウォッチ_5-35" data-name="新規パターンスウォッチ 5" width="45.25" height="45" patternTransform="matrix(.66 -.97 .97 .66 149.92 -158.23)" patternUnits="userSpaceOnUse" viewBox="0 0 45.25 45"><path class="cls-1" d="M0 0h45.25v45H0z"/><path class="cls-2" d="M.25 0v45M1.61 0v45M2.98 0v45M4.34 0v45M5.7 0v45M7.07 0v45M8.43 0v45M9.8 0v45m1.36-45v45m1.36-45v45m1.37-45v45m1.36-45v45m1.36-45v45m1.37-45v45m1.36-45v45M20.7 0v45m1.37-45v45m1.36-45v45M24.8 0v45m1.36-45v45m1.36-45v45m1.37-45v45m1.36-45v45m1.36-45v45m1.37-45v45m1.36-45v45M35.7 0v45m1.37-45v45m1.36-45v45M39.8 0v45m1.36-45v45m1.36-45v45m1.37-45v45"/><path class="cls-1" d="M.25 0h45v45h-45z"/></pattern><clipPath id="clip-path-19"><path class="cls-1" d="M261.45 93.74a24.56 24.56 0 0 0 .33 4.82h-6.43a45.65 45.65 0 0 0 .27-4.82v-10a62.38 62.38 0 0 1-11 4.19L241.78 83a49.62 49.62 0 0 0 15.38-6 34.81 34.81 0 0 0 8.74-7.59l4.36 3.9a57.46 57.46 0 0 1-8.81 7.11z"/></clipPath><pattern id="新規パターンスウォッチ_5-37" data-name="新規パターンスウォッチ 5" width="45.25" height="45" patternTransform="matrix(.66 -.97 .97 .66 189.81 -161.56)" patternUnits="userSpaceOnUse" viewBox="0 0 45.25 45"><path class="cls-1" d="M0 0h45.25v45H0z"/><path class="cls-2" d="M.25 0v45M1.61 0v45M2.98 0v45M4.34 0v45M5.7 0v45M7.07 0v45M8.43 0v45M9.8 0v45m1.36-45v45m1.36-45v45m1.37-45v45m1.36-45v45m1.36-45v45m1.37-45v45m1.36-45v45M20.7 0v45m1.37-45v45m1.36-45v45M24.8 0v45m1.36-45v45m1.36-45v45m1.37-45v45m1.36-45v45m1.36-45v45m1.37-45v45m1.36-45v45M35.7 0v45m1.37-45v45m1.36-45v45M39.8 0v45m1.36-45v45m1.36-45v45m1.37-45v45"/><path class="cls-1" d="M.25 0h45v45h-45z"/></pattern><clipPath id="clip-path-20"><path class="cls-1" d="M304.88 75.05a19 19 0 0 0-1.37 2.43 51.23 51.23 0 0 1-5.06 8.78 88.36 88.36 0 0 1 9.11 9.27l-4.65 4a67 67 0 0 0-8-9.11 44.66 44.66 0 0 1-12.29 9.08l-4.22-4.35a37.41 37.41 0 0 0 13.7-9.35 24.38 24.38 0 0 0 4.69-7.51h-10.43c-1.51 0-3.35.2-4.29.27v-5.7a41.69 41.69 0 0 0 4.29.26h11.19a15.13 15.13 0 0 0 3.75-.43c-.47-.9-1-1.83-1.51-2.59l3.15-1.27a44.39 44.39 0 0 1 2.61 4.56l-1.87.8zm2-1.53a42.86 42.86 0 0 0-2.64-4.59l3.15-1.26a47.17 47.17 0 0 1 2.61 4.52z"/></clipPath><pattern id="新規パターンスウォッチ_5-39" data-name="新規パターンスウォッチ 5" width="45.25" height="45" patternTransform="matrix(.66 -.97 .97 .66 226.37 -161.56)" patternUnits="userSpaceOnUse" viewBox="0 0 45.25 45"><path class="cls-1" d="M0 0h45.25v45H0z"/><path class="cls-2" d="M.25 0v45M1.61 0v45M2.98 0v45M4.34 0v45M5.7 0v45M7.07 0v45M8.43 0v45M9.8 0v45m1.36-45v45m1.36-45v45m1.37-45v45m1.36-45v45m1.36-45v45m1.37-45v45m1.36-45v45M20.7 0v45m1.37-45v45m1.36-45v45M24.8 0v45m1.36-45v45m1.36-45v45m1.37-45v45m1.36-45v45m1.36-45v45m1.37-45v45m1.36-45v45M35.7 0v45m1.37-45v45m1.36-45v45M39.8 0v45m1.36-45v45m1.36-45v45m1.37-45v45"/><path class="cls-1" d="M.25 0h45v45h-45z"/></pattern><clipPath id="clip-path-21"><path class="cls-1" d="M340.62 98.52c-.4-1.09-.91-2.36-1.48-3.69-5.52.67-15.14 1.63-19.19 2.06-.84.1-2.25.3-3.35.44l-.94-5.89h4.5c1.94-5 4.56-13.34 5.56-16.89a28.34 28.34 0 0 0 .87-4.19l6.41 1.23c-.5 1.1-1 2.53-1.57 4.06-1.14 3.29-3.58 10.87-5.19 15.29 3.58-.33 7.57-.79 10.65-1.16a37.57 37.57 0 0 0-3.18-5.62l5.09-2.06a105.59 105.59 0 0 1 7.3 14z"/></clipPath><pattern id="新規パターンスウォッチ_5-41" data-name="新規パターンスウォッチ 5" width="45.25" height="45" patternTransform="matrix(.66 -.97 .97 .66 259.62 -158.23)" patternUnits="userSpaceOnUse" viewBox="0 0 45.25 45"><path class="cls-1" d="M0 0h45.25v45H0z"/><path class="cls-2" d="M.25 0v45M1.61 0v45M2.98 0v45M4.34 0v45M5.7 0v45M7.07 0v45M8.43 0v45M9.8 0v45m1.36-45v45m1.36-45v45m1.37-45v45m1.36-45v45m1.36-45v45m1.37-45v45m1.36-45v45M20.7 0v45m1.37-45v45m1.36-45v45M24.8 0v45m1.36-45v45m1.36-45v45m1.37-45v45m1.36-45v45m1.36-45v45m1.37-45v45m1.36-45v45M35.7 0v45m1.37-45v45m1.36-45v45M39.8 0v45m1.36-45v45m1.36-45v45m1.37-45v45"/><path class="cls-1" d="M.25 0h45v45h-45z"/></pattern></defs><title>sp-title1</title><g id="Layer_2" data-name="Layer 2"><g id="SVG"><g class="cls-3"><path class="cls-4" d="M68.22 27.73L40.49 68.22 0 40.49 27.73 0l40.49 27.73z"/></g><g class="cls-5"><path class="cls-6" d="M101.46 27.73L73.73 68.22 33.24 40.49 60.97 0l40.49 27.73z"/></g><g class="cls-7"><path class="cls-8" d="M141.35 27.73l-27.72 40.49-40.5-27.73L100.86 0l40.49 27.73z"/></g><g class="cls-9"><path class="cls-10" d="M181.25 27.73l-27.73 40.49-40.49-27.73L140.75 0l40.5 27.73z"/></g><g class="cls-11"><path class="cls-12" d="M220.72 37.08l-27.73 40.5-40.49-27.73 27.72-40.49 40.5 27.72z"/></g><g class="cls-13"><path class="cls-14" d="M227.36 37.47l-27.73 40.49-40.49-27.73 27.73-40.49 40.49 27.73z"/></g><g class="cls-15"><path class="cls-16" d="M271.3 30.81L243.57 71.3l-40.49-27.73 27.73-40.49 40.49 27.73z"/></g><g class="cls-17"><path class="cls-18" d="M300.5 37.08l-27.73 40.5-40.49-27.73 27.73-40.49 40.49 27.72z"/></g><g class="cls-19"><path class="cls-20" d="M350.5 34.25l-27.73 40.49-40.49-27.73 27.73-40.49 40.49 27.73z"/></g><g class="cls-21"><path class="cls-22" d="M383.74 34.25l-27.73 40.49-40.49-27.73 27.73-40.49 40.49 27.73z"/></g><g class="cls-23"><path class="cls-24" d="M423.63 34.25L395.9 74.74l-40.49-27.73 27.73-40.49 40.49 27.73z"/></g><g class="cls-25"><path class="cls-26" d="M450.23 34.25L422.5 74.74 382 47.01l27.73-40.49 40.5 27.73z"/></g><path d="M43.53 32.25c2.14 2.93 3.11 5.25 3.11 8 0 5-4.55 8.91-12.19 8.91-5.66 0-9.38-2.4-9.38-8 0-.73.07-1.8.2-3.06a39.46 39.46 0 0 1-6-1l.27-4.82a28.82 28.82 0 0 0 6.26 1.29l.47-3.69A41.14 41.14 0 0 1 20 28.76l.24-4.59a28.84 28.84 0 0 0 6.59 1.23c.11-.83.17-1.56.21-2.19a21.46 21.46 0 0 0 .04-3.21l5.63.3c-.33 1.39-.5 2.36-.67 3.29-.07.43-.17 1.13-.3 2a41.53 41.53 0 0 0 5.69-.43l-.16 4.72a52.06 52.06 0 0 1-6.17.33c-.17 1.2-.33 2.46-.47 3.66a64.87 64.87 0 0 0 6.49-.4l-.12 4.7c-1.64.16-3.52.3-5.49.3h-1.35c-.06.76-.1 1.43-.1 1.89 0 2.46 1.58 3.66 4.56 3.66C39 44 41.18 42 41.18 39.63s-1.27-4.19-3.28-6.18zm18.15-.63c2.21-.67 7.9-2.53 12-2.53 5.56 0 9.14 3.26 9.14 8.55 0 5.72-4.79 10.27-16.21 11l-2.14-4.92c7.77-.2 13-2.16 13-6.15 0-2.26-1.67-3.79-4.28-3.79-3.72 0-10 2.56-13.2 4l-2-5.18c.91-.25 2.72-.68 3.69-.98zm56-3.62c-1.18.7-2.38 1.33-3.72 2a89.26 89.26 0 0 0-8.78 4.58c-2.58 1.67-4.42 3.43-4.42 5.59s2.11 3.19 6.37 3.19a57.15 57.15 0 0 0 11-1.26l-.13 5.71a63.37 63.37 0 0 1-10.75.83c-6.84 0-12.09-1.83-12.09-7.91 0-3.76 2.34-6.45 5.39-8.75C99 29.16 97.48 25.8 96 22.34l5.06-2a68.6 68.6 0 0 0 4 8.78c2.44-1.39 5-2.69 6.4-3.52a24.61 24.61 0 0 0 3.45-2.23zm35.83 7.41a20.7 20.7 0 0 1-3.72 7.05 60.94 60.94 0 0 1 7.81 3.72l-4 3.92a55.78 55.78 0 0 0-7.86-4.1c-3.48 2.23-8 3.46-13.53 4.23a20 20 0 0 0-2.72-4.43 36.59 36.59 0 0 0 10.62-2.09c-1-.36-1.94-.73-2.91-1l-.51.86-5.15-1.36c1.14-1.86 2.51-4.25 3.85-6.78h-6.6v-4.58h8.94c.77-1.62 1.54-3.19 2.18-4.68l5.16 1.06c-.54 1.16-1.14 2.39-1.74 3.62h15.47v4.56zm-19.23-5.82h-4.95v-8.28h11.72v-2.69h5.23v2.69h12.05v8.28h-5.22v-3.82h-18.83zm6.8 5.82c-.6 1.16-1.2 2.29-1.77 3.36 1.77.53 3.68 1.16 5.66 1.86a12.33 12.33 0 0 0 2.88-5.22zm31.15-3.96c-.51 4.72-1.28 9.71-3.39 13l-4.59-2.59c1.85-2.82 2.75-6.88 3.19-11.4zm6.56-3.16v15.43c0 1.66.17 1.86 1.61 1.86h3.69c1.44 0 1.7-1 1.94-5.92a14.27 14.27 0 0 0 4.52 2.07c-.5 6.21-1.78 8.24-6 8.24h-4.85c-4.73 0-6-1.53-6-6.25V28.29zm-1.87-9.54A46.65 46.65 0 0 1 188 24.7l-3.25 4.3a42.75 42.75 0 0 0-11-6.45zm14.13 10.31a33.81 33.81 0 0 1 6 11.83l-4.95 2.47a34.82 34.82 0 0 0-5.5-12.07zm17.85 20.55a69.89 69.89 0 0 0-7.1-7.29l4.25-3.62a59.94 59.94 0 0 1 7.17 7.21zm38.92-17.36c2.14 2.93 3.11 5.25 3.11 8 0 5-4.55 8.91-12.19 8.91-5.66 0-9.38-2.4-9.38-8 0-.73.07-1.8.2-3.06a39.46 39.46 0 0 1-6-1l.26-4.82a28.9 28.9 0 0 0 6.27 1.29l.47-3.69a40.91 40.91 0 0 1-6.3-1.16l.23-4.59a28.93 28.93 0 0 0 6.6 1.23c.1-.83.17-1.56.2-2.19a20.15 20.15 0 0 0 .07-3.26l5.63.3c-.34 1.39-.51 2.36-.67 3.29-.07.43-.17 1.13-.3 2a41.67 41.67 0 0 0 5.69-.43l-.17 4.72a51.75 51.75 0 0 1-6.16.33c-.17 1.2-.33 2.46-.47 3.66a64.88 64.88 0 0 0 6.5-.4l-.13 4.72c-1.64.16-3.52.3-5.49.3h-1.38c-.06.76-.1 1.43-.1 1.89 0 2.46 1.58 3.66 4.56 3.66 4.38 0 6.56-2.06 6.56-4.39s-1.27-4.19-3.28-6.18zm18.18-.63c2.21-.67 7.9-2.53 12-2.53 5.56 0 9.14 3.26 9.14 8.55 0 5.72-4.79 10.27-16.21 11l-2.14-4.92c7.77-.2 13-2.16 13-6.15 0-2.26-1.67-3.79-4.29-3.79-3.71 0-9.94 2.56-13.19 4l-2.05-5.18c.93-.25 2.74-.68 3.74-.98zM322 28c-1.17.7-2.37 1.33-3.71 2a88.15 88.15 0 0 0-8.78 4.58c-2.58 1.67-4.42 3.43-4.42 5.59s2.11 3.19 6.36 3.19a57.16 57.16 0 0 0 11-1.26l-.07 5.75a63.46 63.46 0 0 1-10.75.83c-6.84 0-12.1-1.83-12.1-7.91 0-3.76 2.35-6.45 5.4-8.75-1.54-2.82-3.08-6.18-4.56-9.64l5.06-2a68.6 68.6 0 0 0 4 8.78c2.44-1.39 5-2.69 6.39-3.52a23.49 23.49 0 0 0 3.45-2.23zm34.39 9.84a14.06 14.06 0 0 0 8 7.94 19.55 19.55 0 0 0-3.39 4.56 16.62 16.62 0 0 1-8.17-9 18.56 18.56 0 0 1-8.11 9.08 20.25 20.25 0 0 0-3.48-3.76 13.38 13.38 0 0 0 7.76-8.82h-6v-4.59h6.7c.07-.83.07-1.63.07-2.43V28h-5.36a28.06 28.06 0 0 1 .93 2.76l-3.51 1.6a25.59 25.59 0 0 0-.91-3.12v21h-4.82V31.39a35.66 35.66 0 0 1-.87 4l-3.55-1.26a42.9 42.9 0 0 0 1.57-8.82l2.85.4v-7.06h4.82V25l1.84-.76c.54 1.09 1.11 2.42 1.61 3.66v-4.36h5.4v-4.89h4.92v4.89h7.17v9.71h1.67v4.59zm-1.74-7c0 .8 0 1.6-.07 2.4h2.48V28h-2.41zm24.71 13.35a9.53 9.53 0 0 0 4.36 1 159 159 0 0 0 17.28-.31 21.65 21.65 0 0 0-1.51 4.69c-4.39.23-11.52.3-15.81.1-3.78-.16-6.3-1-8.27-3.56a80.11 80.11 0 0 1-4.29 3.83l-2.25-4.82a47.13 47.13 0 0 0 3.92-2.63V36h-3.48v-4.48h8.14v10.64a5.09 5.09 0 0 0 1.77 1.93v-18h3.59a9.54 9.54 0 0 0-.6-1.73h.13-3.78v-3.71h8.14v-2h4.72v2h8.71v3.69h-3.72c-.34.63-.6 1.23-.87 1.76h4.12v14.06c0 1.86-.3 2.9-1.51 3.56a10 10 0 0 1-4.65.7 13.34 13.34 0 0 0-.68-2.49h-4.85v.89h-3.22v-7.34h2.85v-1.57h-3.32v-2.82h3.32v-1.4h-4v14.5zm-5.16-16.43a27.93 27.93 0 0 0-4.92-5.52l3.72-2.72a29.44 29.44 0 0 1 5.22 5.18zm12.43-3.42a8.15 8.15 0 0 1 .57 1.76h3.95c.17-.53.37-1.16.51-1.76zm4 13.69h-2.68v1.3h2.68zm4.05 2.56c.37 0 .5-.13.5-.49V29.69H391v1.4h3.38v2.82H391v1.57h2.91v5.11zm23.1 3.23a4 4 0 0 1 7.9 0 4 4 0 0 1-7.9 0zm.5-16.09l-.2-5.52h7.33l-.2 5.52-1.37 10.5h-4.19z"/><g class="cls-27"><path class="cls-28" d="M69.49 77.61l-27.72 40.5-40.5-27.73L29 49.88l40.49 27.73z"/></g><g class="cls-29"><path class="cls-30" d="M109.39 77.61l-27.73 40.5-40.5-27.73 27.73-40.5 40.5 27.73z"/></g><g class="cls-31"><path class="cls-32" d="M142.63 77.61l-27.73 40.5-40.49-27.73 27.73-40.5 40.49 27.73z"/></g><g class="cls-33"><path class="cls-34" d="M175.87 77.61l-27.73 40.5-40.49-27.73 27.73-40.5 40.49 27.73z"/></g><g class="cls-35"><path class="cls-36" d="M217.27 74.88l-27.73 40.49-40.49-27.73 27.73-40.49 40.49 27.73z"/></g><g class="cls-37"><path class="cls-38" d="M253.42 81.64l-27.73 40.49L185.2 94.4l27.73-40.49 40.49 27.73z"/></g><g class="cls-39"><path class="cls-40" d="M293.31 78.31l-27.73 40.49-40.49-27.72 27.73-40.5 40.49 27.73z"/></g><g class="cls-41"><path class="cls-42" d="M329.88 78.31l-27.73 40.49-40.49-27.72 27.73-40.5 40.49 27.73z"/></g><g class="cls-43"><path class="cls-44" d="M363.12 81.64l-27.73 40.49L294.9 94.4l27.73-40.49 40.49 27.73z"/></g><path d="M27.85 69.48c1.38 0 7.24-.3 9.35-.53a13 13 0 0 0 2.58-.47l3.15 3.69c-.84.54-2.28 1.47-3.09 2.13-2.31 1.8-4.72 3.79-6.76 5.39 4.12-.4 9.34-.7 13-.7v4.69a51.64 51.64 0 0 0-8.6 0c-2.92.4-5.13 2.23-5.13 4.69 0 2.19 1.71 3.16 4.66 3.46a35.21 35.21 0 0 0 5.19.06l-1 5.26c-8.74.36-14-2.2-14-7.92a8 8 0 0 1 1.58-4.62c-2.75.2-6 .7-9 1.23l-.5-4.84c1.77-.17 4.12-.47 5.86-.67a71.33 71.33 0 0 0 8.44-6.68c-1.31.1-4.42.27-5.73.4-.8.07-2 .2-3.21.33l-.24-5.05c1.18.12 2.25.15 3.45.15zm57.91 24.1a9.2 9.2 0 0 1-6.33 2.33c-2.65 0-4.42-2-4.42-5.45s1.17-8 1.17-10.9c0-1.47-.77-2.27-2-2.27-2.28 0-5.66 2.93-8.21 5.72v2.06c0 2.5 0 5.72.24 8.88 0 .6.16 2 .26 2.83h-5.53c.07-.84.1-2.2.1-2.73 0-2 .07-3.72.13-5.82-1.27 1.83-2.61 3.86-3.51 5.09l-3.12-4.39c1.88-2.29 5-6.28 7-9.11l.1-1.76c-1.71.2-4 .5-5.8.73l-.5-5.09h3.28c.91-.07 2.12-.17 3.36-.37.06-1 .1-1.86.1-2.19a17.85 17.85 0 0 0-.17-3.22l5.83.16c-.24 1-.51 2.69-.77 4.69l1.27 1.66C67.77 75 67 76.13 66.4 77v.1c2.61-2.16 6.2-4.55 9.31-4.55 3.85 0 5.56 2.29 5.56 5.12 0 3.46-1 7.85-1 11.3a1 1 0 0 0 1 1.13 6.38 6.38 0 0 0 3.86-2.1zM105.89 69c-.24 1-.51 2.22-.71 3.15s-.37 1.8-.57 2.66c.87-.06 1.64-.1 2.25-.1 3.82 0 6.33 1.8 6.33 6.72 0 3.86-.44 9.14-1.84 12.07-1.14 2.36-3.09 3.19-5.8 3.19a19.57 19.57 0 0 1-4-.47l-.89-5.22a21.53 21.53 0 0 0 4 .7 2.27 2.27 0 0 0 2.34-1.27c.8-1.63 1.2-5.43 1.2-8.43 0-2.39-1-2.69-3.08-2.69-.37 0-.94 0-1.55.07-1.34 5.12-3.81 13-6.63 17.55l-5.26-2.1C94.83 90.59 97 84.44 98.22 80c-.88.14-1.61.24-2.08.3-1.07.14-3 .4-4.09.6l-.43-5.35a38 38 0 0 0 3.85 0c1 0 2.34-.13 3.82-.23a32.56 32.56 0 0 0 .63-6.89zm11.79 3.52A60.76 60.76 0 0 1 123 84.38l-5.13 2.36c-.8-3.83-3-9.68-5.42-12.74l2.91-1.19a42.43 42.43 0 0 0-2.28-4.06l3.15-1.26c.84 1.23 2 3.39 2.61 4.55zm2.21-.8a37.08 37.08 0 0 0-2.65-4.59l3.15-1.26a47.37 47.37 0 0 1 2.61 4.54zm19.05-2.51a26.1 26.1 0 0 0-.13 2.63v11.31c0 .83.06 2.22.13 3.09h-6c0-.67.17-2.1.17-3.13V71.84a25.74 25.74 0 0 0-.13-2.63zm15.38-.29c-.07 1-.14 2.12-.14 3.59v7.24c0 6.69-1.57 10-4.12 12.67a21 21 0 0 1-8.2 4.79l-4.26-4.46c3.49-.76 6.23-2 8.24-4 2.25-2.36 2.71-4.72 2.71-9.31v-6.93a26.66 26.66 0 0 0-.23-3.59zm38.01 3.42a18.87 18.87 0 0 0-1.33 2.43 51.35 51.35 0 0 1-5 8.77 91.42 91.42 0 0 1 9 9.28l-4.66 4a66.35 66.35 0 0 0-8-9.11 44.71 44.71 0 0 1-12.29 9.08l-4.22-4.36a37.31 37.31 0 0 0 13.7-9.34 24.19 24.19 0 0 0 4.69-7.51H173.8c-1.5 0-3.35.2-4.28.26v-5.69a41.5 41.5 0 0 0 4.28.26H185a14.09 14.09 0 0 0 4-.5zm38.88 1.53a17 17 0 0 0-1.31 2.73 38.63 38.63 0 0 1-4.45 8.61c1.24.79 2.34 1.53 3.18 2.12L225 92.09c-.81-.7-1.91-1.53-3.12-2.4a31.38 31.38 0 0 1-11.89 8l-4.72-4.06a28 28 0 0 0 12.06-7c-2.05-1.33-4.06-2.56-5.63-3.45l3.45-3.86c1.64.86 3.68 2 5.69 3.12a21.11 21.11 0 0 0 3-6.08h-8.64a41.7 41.7 0 0 1-8.81 8.51L202 81.48a31.53 31.53 0 0 0 10.62-10.74 17.54 17.54 0 0 0 1.78-3.95l5.86 1.79c-.74 1-1.51 2.33-2 3.2h5.56a12.51 12.51 0 0 0 3.31-.44zM258.74 92a25.36 25.36 0 0 0 .33 4.82h-6.43a43.1 43.1 0 0 0 .27-4.82V82A62 62 0 0 1 242 86.14l-2.88-4.89a49.65 49.65 0 0 0 15.37-6 35 35 0 0 0 8.74-7.58l4.36 3.89a57.46 57.46 0 0 1-8.81 7.11zm43.44-18.73a17.75 17.75 0 0 0-1.38 2.43 51.23 51.23 0 0 1-5.06 8.78 89.57 89.57 0 0 1 9.12 9.27l-4.66 4a66.35 66.35 0 0 0-8-9.11 44.51 44.51 0 0 1-12.29 9.08l-4.22-4.35A37.45 37.45 0 0 0 289.38 84a24.19 24.19 0 0 0 4.69-7.51h-10.42c-1.51 0-3.35.2-4.29.27v-5.68a41.85 41.85 0 0 0 4.29.26h11.19a15.13 15.13 0 0 0 3.75-.43 28.52 28.52 0 0 0-1.51-2.59l3.15-1.27a46.57 46.57 0 0 1 2.62 4.56l-1.88.8zm2-1.53a41.23 41.23 0 0 0-2.64-4.59l3.15-1.26a47.17 47.17 0 0 1 2.64 4.52zm33.73 25c-.4-1.09-.9-2.36-1.47-3.69-5.53.67-15.14 1.63-19.2 2.06l-3.35.44-.89-5.89h4.5c1.95-5 4.56-13.33 5.56-16.88a26 26 0 0 0 .87-4.19l6.44 1.29c-.51 1.1-1 2.53-1.58 4.06-1.14 3.29-3.58 10.87-5.19 15.29 3.58-.33 7.57-.8 10.65-1.16a37.57 37.57 0 0 0-3.25-5.69l5.09-2.06a104.42 104.42 0 0 1 7.3 14z"/></g></g></svg>