<svg xmlns="http://www.w3.org/2000/svg" viewBox="0 0 723.97 72.33"><defs><style>.cls-1,.cls-2,.cls-45{fill:none}.cls-2{stroke:#060001;stroke-miterlimit:10;stroke-width:.5px}.cls-3{clip-path:url(#clip-path)}.cls-4{fill:url(#新規パターンスウォッチ_5)}.cls-5{clip-path:url(#clip-path-2)}.cls-6{fill:url(#新規パターンスウォッチ_5-3)}.cls-7{clip-path:url(#clip-path-3)}.cls-8{fill:url(#新規パターンスウォッチ_5-5)}.cls-9{clip-path:url(#clip-path-4)}.cls-10{fill:url(#新規パターンスウォッチ_5-7)}.cls-11{clip-path:url(#clip-path-5)}.cls-12{fill:url(#新規パターンスウォッチ_5-9)}.cls-13{clip-path:url(#clip-path-6)}.cls-14{fill:url(#新規パターンスウォッチ_5-11)}.cls-15{clip-path:url(#clip-path-7)}.cls-16{fill:url(#新規パターンスウォッチ_5-13)}.cls-17{clip-path:url(#clip-path-8)}.cls-18{fill:url(#新規パターンスウォッチ_5-15)}.cls-19{clip-path:url(#clip-path-9)}.cls-20{fill:url(#新規パターンスウォッチ_5-17)}.cls-21{clip-path:url(#clip-path-10)}.cls-22{fill:url(#新規パターンスウォッチ_5-19)}.cls-23{clip-path:url(#clip-path-11)}.cls-24{fill:url(#新規パターンスウォッチ_5-21)}.cls-25{clip-path:url(#clip-path-12)}.cls-26{fill:url(#新規パターンスウォッチ_5-23)}.cls-27{clip-path:url(#clip-path-13)}.cls-28{fill:url(#新規パターンスウォッチ_5-25)}.cls-29{clip-path:url(#clip-path-14)}.cls-30{fill:url(#新規パターンスウォッチ_5-27)}.cls-31{clip-path:url(#clip-path-15)}.cls-32{fill:url(#新規パターンスウォッチ_5-29)}.cls-33{clip-path:url(#clip-path-16)}.cls-34{fill:url(#新規パターンスウォッチ_5-31)}.cls-35{clip-path:url(#clip-path-17)}.cls-36{fill:url(#新規パターンスウォッチ_5-33)}.cls-37{clip-path:url(#clip-path-18)}.cls-38{fill:url(#新規パターンスウォッチ_5-35)}.cls-39{clip-path:url(#clip-path-19)}.cls-40{fill:url(#新規パターンスウォッチ_5-37)}.cls-41{clip-path:url(#clip-path-20)}.cls-42{fill:url(#新規パターンスウォッチ_5-39)}.cls-43{clip-path:url(#clip-path-21)}.cls-44{fill:url(#新規パターンスウォッチ_5-41)}.cls-45{stroke:#f9f1e7}</style><clipPath id="clip-path"><path class="cls-1" d="M42.44 32c2 2.69 2.86 4.83 2.86 7.39 0 4.61-4.18 8.18-11.19 8.18-5.2 0-8.61-2.2-8.61-7.32 0-.67.06-1.65.18-2.81a36.54 36.54 0 0 1-5.5-1l.24-4.42a26.64 26.64 0 0 0 5.75 1.19l.43-3.39a38.67 38.67 0 0 1-5.78-1.07l.18-4.17a26.68 26.68 0 0 0 6.06 1.13c.09-.77.15-1.44.18-2a18 18 0 0 0 .06-3l5.17.28c-.31 1.28-.46 2.16-.62 3-.06.39-.15 1-.27 1.86a35.84 35.84 0 0 0 5.23-.4l-.16 4.34a48.5 48.5 0 0 1-5.66.3c-.15 1.1-.3 2.26-.43 3.36a57.22 57.22 0 0 0 6-.37l-.12 4.34c-1.51.15-3.23.27-5 .27h-1.27c-.06.7-.09 1.32-.09 1.74 0 2.26 1.45 3.36 4.18 3.36 4 0 6-1.89 6-4s-1.17-3.84-3-5.68z"/></clipPath><pattern id="新規パターンスウォッチ_5" data-name="新規パターンスウォッチ 5" width="45.25" height="45" patternTransform="rotate(-55.6 182.434 104.27) scale(1.08)" patternUnits="userSpaceOnUse" viewBox="0 0 45.25 45"><path class="cls-1" d="M0 0h45.25v45H0z"/><path class="cls-2" d="M.25 0v45M1.61 0v45M2.98 0v45M4.34 0v45M5.7 0v45M7.07 0v45M8.43 0v45M9.8 0v45m1.36-45v45m1.36-45v45m1.37-45v45m1.36-45v45m1.36-45v45m1.37-45v45m1.36-45v45M20.7 0v45m1.37-45v45m1.36-45v45M24.8 0v45m1.36-45v45m1.36-45v45m1.37-45v45m1.36-45v45m1.36-45v45m1.37-45v45m1.36-45v45M35.7 0v45m1.37-45v45m1.36-45v45M39.8 0v45m1.36-45v45m1.36-45v45m1.37-45v45"/><path class="cls-1" d="M.25 0h45v45h-45z"/></pattern><clipPath id="clip-path-2"><path class="cls-1" d="M59.1 31.41c2-.61 7.26-2.32 11-2.32 5.11 0 8.4 3 8.4 7.85 0 5.25-4.4 9.43-14.88 10.07l-2-4.51c7.13-.19 11.93-2 11.93-5.65 0-2.08-1.54-3.48-3.94-3.48-3.41 0-9.13 2.35-12.11 3.63l-1.88-4.76a33.05 33.05 0 0 0 3.48-.83z"/></clipPath><pattern id="新規パターンスウォッチ_5-3" data-name="新規パターンスウォッチ 5" width="45.25" height="45" patternTransform="rotate(-55.6 197.694 75.327) scale(1.08)" patternUnits="userSpaceOnUse" viewBox="0 0 45.25 45"><path class="cls-1" d="M0 0h45.25v45H0z"/><path class="cls-2" d="M.25 0v45M1.61 0v45M2.98 0v45M4.34 0v45M5.7 0v45M7.07 0v45M8.43 0v45M9.8 0v45m1.36-45v45m1.36-45v45m1.37-45v45m1.36-45v45m1.36-45v45m1.37-45v45m1.36-45v45M20.7 0v45m1.37-45v45m1.36-45v45M24.8 0v45m1.36-45v45m1.36-45v45m1.37-45v45m1.36-45v45m1.36-45v45m1.37-45v45m1.36-45v45M35.7 0v45m1.37-45v45m1.36-45v45M39.8 0v45m1.36-45v45m1.36-45v45m1.37-45v45"/><path class="cls-1" d="M.25 0h45v45h-45z"/></pattern><clipPath id="clip-path-3"><path class="cls-1" d="M110.52 28.06c-1.08.64-2.18 1.22-3.41 1.83a79.91 79.91 0 0 0-8.06 4.21C96.68 35.63 95 37.25 95 39.23s1.94 2.93 5.84 2.93A52.66 52.66 0 0 0 110.89 41l-.06 5.28A58.28 58.28 0 0 1 101 47c-6.27 0-11.1-1.68-11.1-7.26 0-3.45 2.16-5.92 5-8-1.41-2.59-2.83-5.68-4.18-8.85L95.26 21a64.38 64.38 0 0 0 3.66 8.05c2.25-1.28 4.56-2.47 5.88-3.23a21.53 21.53 0 0 0 3.2-2.01z"/></clipPath><pattern id="新規パターンスウォッチ_5-5" data-name="新規パターンスウォッチ 5" width="45.25" height="45" patternTransform="rotate(-55.6 216.01 40.59) scale(1.08)" patternUnits="userSpaceOnUse" viewBox="0 0 45.25 45"><path class="cls-1" d="M0 0h45.25v45H0z"/><path class="cls-2" d="M.25 0v45M1.61 0v45M2.98 0v45M4.34 0v45M5.7 0v45M7.07 0v45M8.43 0v45M9.8 0v45m1.36-45v45m1.36-45v45m1.37-45v45m1.36-45v45m1.36-45v45m1.37-45v45m1.36-45v45M20.7 0v45m1.37-45v45m1.36-45v45M24.8 0v45m1.36-45v45m1.36-45v45m1.37-45v45m1.36-45v45m1.36-45v45m1.37-45v45m1.36-45v45M35.7 0v45m1.37-45v45m1.36-45v45M39.8 0v45m1.36-45v45m1.36-45v45m1.37-45v45"/><path class="cls-1" d="M.25 0h45v45h-45z"/></pattern><clipPath id="clip-path-4"><path class="cls-1" d="M143.42 34.89a19.14 19.14 0 0 1-3.42 6.48 58 58 0 0 1 7.16 3.41l-3.66 3.61a50.65 50.65 0 0 0-7.23-3.76c-3.19 2-7.35 3.18-12.42 3.88a18.35 18.35 0 0 0-2.49-4.06 34.23 34.23 0 0 0 9.75-1.92c-.9-.34-1.79-.68-2.68-1l-.46.79-4.74-1.25c1.05-1.71 2.31-3.91 3.54-6.23h-6.06v-4.13h8.21c.71-1.49 1.42-2.93 2-4.3l4.74 1c-.49 1.06-1 2.19-1.6 3.32h14.21v4.18zm-17.65-5.34h-4.56V22H132v-2.52h4.8V22h11.07v7.6h-4.8V26h-17.3zm6.23 5.34L130.38 38c1.63.49 3.38 1.07 5.2 1.71a11.36 11.36 0 0 0 2.64-4.8z"/></clipPath><pattern id="新規パターンスウォッチ_5-7" data-name="新規パターンスウォッチ 5" width="45.25" height="45" patternTransform="rotate(-55.6 234.32 5.862) scale(1.08)" patternUnits="userSpaceOnUse" viewBox="0 0 45.25 45"><path class="cls-1" d="M0 0h45.25v45H0z"/><path class="cls-2" d="M.25 0v45M1.61 0v45M2.98 0v45M4.34 0v45M5.7 0v45M7.07 0v45M8.43 0v45M9.8 0v45m1.36-45v45m1.36-45v45m1.37-45v45m1.36-45v45m1.36-45v45m1.37-45v45m1.36-45v45M20.7 0v45m1.37-45v45m1.36-45v45M24.8 0v45m1.36-45v45m1.36-45v45m1.37-45v45m1.36-45v45m1.36-45v45m1.37-45v45m1.36-45v45M35.7 0v45m1.37-45v45m1.36-45v45M39.8 0v45m1.36-45v45m1.36-45v45m1.37-45v45"/><path class="cls-1" d="M.25 0h45v45h-45z"/></pattern><clipPath id="clip-path-5"><path class="cls-1" d="M160.6 31.26c-.46 4.34-1.17 8.91-3.1 12l-4.22-2.38c1.69-2.6 2.52-6.32 2.93-10.47zm6-2.9v14.17c0 1.52.15 1.71 1.48 1.71h3.38c1.32 0 1.57-.92 1.78-5.44a12.94 12.94 0 0 0 4.16 1.89c-.47 5.71-1.63 7.57-5.54 7.57h-4.43c-4.34 0-5.5-1.4-5.5-5.73V28.36zm-1.72-8.76a42.13 42.13 0 0 1 10.18 5.47l-3 3.9A39.82 39.82 0 0 0 162 23.05zm13 9.46a31.33 31.33 0 0 1 5.47 10.87l-4.55 2.26a32.16 32.16 0 0 0-5-11.08z"/></clipPath><pattern id="新規パターンスウォッチ_5-9" data-name="新規パターンスウォッチ 5" width="45.25" height="45" patternTransform="rotate(-55.6 193.047 70.441) scale(1.08)" patternUnits="userSpaceOnUse" viewBox="0 0 45.25 45"><path class="cls-1" d="M0 0h45.25v45H0z"/><path class="cls-2" d="M.25 0v45M1.61 0v45M2.98 0v45M4.34 0v45M5.7 0v45M7.07 0v45M8.43 0v45M9.8 0v45m1.36-45v45m1.36-45v45m1.37-45v45m1.36-45v45m1.36-45v45m1.37-45v45m1.36-45v45M20.7 0v45m1.37-45v45m1.36-45v45M24.8 0v45m1.36-45v45m1.36-45v45m1.37-45v45m1.36-45v45m1.36-45v45m1.37-45v45m1.36-45v45M35.7 0v45m1.37-45v45m1.36-45v45M39.8 0v45m1.36-45v45m1.36-45v45m1.37-45v45"/><path class="cls-1" d="M.25 0h45v45h-45z"/></pattern><clipPath id="clip-path-6"><path class="cls-1" d="M194.27 47.93a64.39 64.39 0 0 0-6.52-6.69l3.91-3.32a56 56 0 0 1 6.58 6.62z"/></clipPath><pattern id="新規パターンスウォッチ_5-11" data-name="新規パターンスウォッチ 5" width="45.25" height="45" patternTransform="rotate(-55.6 196.43 64.831) scale(1.08)" patternUnits="userSpaceOnUse" viewBox="0 0 45.25 45"><path class="cls-1" d="M0 0h45.25v45H0z"/><path class="cls-2" d="M.25 0v45M1.61 0v45M2.98 0v45M4.34 0v45M5.7 0v45M7.07 0v45M8.43 0v45M9.8 0v45m1.36-45v45m1.36-45v45m1.37-45v45m1.36-45v45m1.36-45v45m1.37-45v45m1.36-45v45M20.7 0v45m1.37-45v45m1.36-45v45M24.8 0v45m1.36-45v45m1.36-45v45m1.37-45v45m1.36-45v45m1.36-45v45m1.37-45v45m1.36-45v45M35.7 0v45m1.37-45v45m1.36-45v45M39.8 0v45m1.36-45v45m1.36-45v45m1.37-45v45"/><path class="cls-1" d="M.25 0h45v45h-45z"/></pattern><clipPath id="clip-path-7"><path class="cls-1" d="M230 32c2 2.69 2.86 4.83 2.86 7.39 0 4.61-4.18 8.18-11.19 8.18-5.2 0-8.61-2.2-8.61-7.32 0-.67.06-1.65.18-2.81a36.54 36.54 0 0 1-5.5-1l.24-4.42a26.61 26.61 0 0 0 5.76 1.19l.43-3.39a38.81 38.81 0 0 1-5.79-1.07l.22-4.21a26.68 26.68 0 0 0 6.06 1.13c.09-.77.15-1.44.18-2a18 18 0 0 0 .06-3l5.17.28c-.31 1.28-.46 2.16-.61 3-.07.39-.16 1-.28 1.86a35.84 35.84 0 0 0 5.23-.4l-.16 4.34a48.5 48.5 0 0 1-5.66.3c-.15 1.1-.3 2.26-.43 3.36a57.22 57.22 0 0 0 6-.37l-.16 4.39c-1.51.15-3.23.27-5 .27h-1.26c-.06.7-.09 1.32-.09 1.74 0 2.26 1.45 3.36 4.18 3.36 4 0 6-1.89 6-4s-1.17-3.84-3-5.68z"/></clipPath><pattern id="新規パターンスウォッチ_5-13" data-name="新規パターンスウォッチ 5" width="45.25" height="45" patternTransform="rotate(-55.6 210.795 23.515) scale(1.08)" patternUnits="userSpaceOnUse" viewBox="0 0 45.25 45"><path class="cls-1" d="M0 0h45.25v45H0z"/><path class="cls-2" d="M.25 0v45M1.61 0v45M2.98 0v45M4.34 0v45M5.7 0v45M7.07 0v45M8.43 0v45M9.8 0v45m1.36-45v45m1.36-45v45m1.37-45v45m1.36-45v45m1.36-45v45m1.37-45v45m1.36-45v45M20.7 0v45m1.37-45v45m1.36-45v45M24.8 0v45m1.36-45v45m1.36-45v45m1.37-45v45m1.36-45v45m1.36-45v45m1.37-45v45m1.36-45v45M35.7 0v45m1.37-45v45m1.36-45v45M39.8 0v45m1.36-45v45m1.36-45v45m1.37-45v45"/><path class="cls-1" d="M.25 0h45v45h-45z"/></pattern><clipPath id="clip-path-8"><path class="cls-1" d="M246.67 31.41c2-.61 7.25-2.32 11-2.32 5.1 0 8.39 3 8.39 7.85 0 5.25-4.4 9.43-14.88 10.07l-2-4.51c7.13-.19 11.93-2 11.93-5.65 0-2.08-1.54-3.48-3.93-3.48-3.42 0-9.14 2.35-12.12 3.63l-1.88-4.76a33.85 33.85 0 0 0 3.49-.83z"/></clipPath><pattern id="新規パターンスウォッチ_5-15" data-name="新規パターンスウォッチ 5" width="45.25" height="45" patternTransform="rotate(-55.6 229.672 .976) scale(1.08)" patternUnits="userSpaceOnUse" viewBox="0 0 45.25 45"><path class="cls-1" d="M0 0h45.25v45H0z"/><path class="cls-2" d="M.25 0v45M1.61 0v45M2.98 0v45M4.34 0v45M5.7 0v45M7.07 0v45M8.43 0v45M9.8 0v45m1.36-45v45m1.36-45v45m1.37-45v45m1.36-45v45m1.36-45v45m1.37-45v45m1.36-45v45M20.7 0v45m1.37-45v45m1.36-45v45M24.8 0v45m1.36-45v45m1.36-45v45m1.37-45v45m1.36-45v45m1.36-45v45m1.37-45v45m1.36-45v45M35.7 0v45m1.37-45v45m1.36-45v45M39.8 0v45m1.36-45v45m1.36-45v45m1.37-45v45"/><path class="cls-1" d="M.25 0h45v45h-45z"/></pattern><clipPath id="clip-path-9"><path class="cls-1" d="M298.08 28.06c-1.08.64-2.18 1.22-3.41 1.83a79.91 79.91 0 0 0-8.06 4.21c-2.37 1.53-4.06 3.15-4.06 5.13s1.94 2.93 5.84 2.93A52.66 52.66 0 0 0 298.45 41l-.06 5.28a58.15 58.15 0 0 1-9.87.76c-6.28 0-11.11-1.68-11.11-7.26 0-3.45 2.16-5.92 4.95-8-1.41-2.59-2.82-5.68-4.18-8.85l4.65-1.93a61.62 61.62 0 0 0 3.66 8.05c2.24-1.28 4.55-2.47 5.87-3.23a21 21 0 0 0 3.17-2.05z"/></clipPath><pattern id="新規パターンスウォッチ_5-17" data-name="新規パターンスウォッチ 5" width="45.25" height="45" patternTransform="rotate(-55.6 182.609 50.794) scale(1.08)" patternUnits="userSpaceOnUse" viewBox="0 0 45.25 45"><path class="cls-1" d="M0 0h45.25v45H0z"/><path class="cls-2" d="M.25 0v45M1.61 0v45M2.98 0v45M4.34 0v45M5.7 0v45M7.07 0v45M8.43 0v45M9.8 0v45m1.36-45v45m1.36-45v45m1.37-45v45m1.36-45v45m1.36-45v45m1.37-45v45m1.36-45v45M20.7 0v45m1.37-45v45m1.36-45v45M24.8 0v45m1.36-45v45m1.36-45v45m1.37-45v45m1.36-45v45m1.36-45v45m1.37-45v45m1.36-45v45M35.7 0v45m1.37-45v45m1.36-45v45M39.8 0v45m1.36-45v45m1.36-45v45m1.37-45v45"/><path class="cls-1" d="M.25 0h45v45h-45z"/></pattern><clipPath id="clip-path-10"><path class="cls-1" d="M329.69 37.12a12.88 12.88 0 0 0 7.38 7.3 17.79 17.79 0 0 0-3.17 4.18 15.23 15.23 0 0 1-7.5-8.24 17 17 0 0 1-7.4 8.33 19.34 19.34 0 0 0-3.2-3.45 12.25 12.25 0 0 0 7.13-8.12h-5.53v-4.21h6.15c.06-.76.06-1.5.06-2.23v-2.59h-4.92a25.4 25.4 0 0 1 .86 2.53l-3.23 1.47a21.28 21.28 0 0 0-.83-2.87v19.29H311V31.2a29 29 0 0 1-.8 3.69l-3.2-1.16a39.54 39.54 0 0 0 1.45-8.08L311 26v-6.5h4.43v5.83l1.69-.7c.49 1 1 2.23 1.48 3.36V24h4.95v-4.49h4.52V24h6.58v8.91h1.54v4.21zm-1.6-6.41c0 .74 0 1.47-.06 2.2h2.27v-4.82h-2.21z"/></clipPath><pattern id="新規パターンスウォッチ_5-19" data-name="新規パターンスウォッチ 5" width="45.25" height="45" patternTransform="rotate(-55.6 197.869 21.85) scale(1.08)" patternUnits="userSpaceOnUse" viewBox="0 0 45.25 45"><path class="cls-1" d="M0 0h45.25v45H0z"/><path class="cls-2" d="M.25 0v45M1.61 0v45M2.98 0v45M4.34 0v45M5.7 0v45M7.07 0v45M8.43 0v45M9.8 0v45m1.36-45v45m1.36-45v45m1.37-45v45m1.36-45v45m1.36-45v45m1.37-45v45m1.36-45v45M20.7 0v45m1.37-45v45m1.36-45v45M24.8 0v45m1.36-45v45m1.36-45v45m1.37-45v45m1.36-45v45m1.36-45v45m1.37-45v45m1.36-45v45M35.7 0v45m1.37-45v45m1.36-45v45M39.8 0v45m1.36-45v45m1.36-45v45m1.37-45v45"/><path class="cls-1" d="M.25 0h45v45h-45z"/></pattern><clipPath id="clip-path-11"><path class="cls-1" d="M350.78 43a8.64 8.64 0 0 0 4 .95 147.94 147.94 0 0 0 15.84-.31 20.15 20.15 0 0 0-1.39 4.31c-4 .21-10.58.27-14.51.09-3.48-.15-5.79-1-7.6-3.27-1.17 1.13-2.37 2.2-3.94 3.51l-2.06-4.42c1.14-.67 2.4-1.53 3.6-2.41v-6h-3.2v-4.13H349v9.77a4.65 4.65 0 0 0 1.63 1.77V26.35h3.29a8.29 8.29 0 0 0-.55-1.59h.12H350v-3.42h7.47v-1.83h4.34v1.83h8v3.39h-3.41c-.31.58-.55 1.13-.8 1.62h3.79v12.91c0 1.71-.28 2.66-1.39 3.27a9.2 9.2 0 0 1-4.27.64 12.49 12.49 0 0 0-.62-2.29h-4.46v.82h-2.95V35h2.61v-1.48h-3v-2.59h3v-1.29h-3.69V43zM346 27.87a25.63 25.63 0 0 0-4.52-5.06l3.41-2.51a26.76 26.76 0 0 1 4.8 4.77zm11.41-3.14a7.21 7.21 0 0 1 .52 1.62h3.63c.16-.49.34-1.07.46-1.62zm3.66 12.58h-2.46v1.19h2.46zm3.72 2.35c.34 0 .46-.13.46-.46v-9.56h-3.84v1.29h3.11v2.59h-3.11V35h2.68v4.7z"/></clipPath><pattern id="新規パターンスウォッチ_5-21" data-name="新規パターンスウォッチ 5" width="45.25" height="45" patternTransform="rotate(-55.6 216.184 -12.887) scale(1.08)" patternUnits="userSpaceOnUse" viewBox="0 0 45.25 45"><path class="cls-1" d="M0 0h45.25v45H0z"/><path class="cls-2" d="M.25 0v45M1.61 0v45M2.98 0v45M4.34 0v45M5.7 0v45M7.07 0v45M8.43 0v45M9.8 0v45m1.36-45v45m1.36-45v45m1.37-45v45m1.36-45v45m1.36-45v45m1.37-45v45m1.36-45v45M20.7 0v45m1.37-45v45m1.36-45v45M24.8 0v45m1.36-45v45m1.36-45v45m1.37-45v45m1.36-45v45m1.36-45v45m1.37-45v45m1.36-45v45M35.7 0v45m1.37-45v45m1.36-45v45M39.8 0v45m1.36-45v45m1.36-45v45m1.37-45v45"/><path class="cls-1" d="M.25 0h45v45h-45z"/></pattern><clipPath id="clip-path-12"><path class="cls-1" d="M386.05 42.62a3.64 3.64 0 1 1 3.63 3.38 3.38 3.38 0 0 1-3.63-3.38zm.46-14.78l-.19-5.06h6.74l-.19 5.06-1.26 9.65h-3.84z"/></clipPath><pattern id="新規パターンスウォッチ_5-23" data-name="新規パターンスウォッチ 5" width="45.25" height="45" patternTransform="rotate(-55.6 228.389 -36.035) scale(1.08)" patternUnits="userSpaceOnUse" viewBox="0 0 45.25 45"><path class="cls-1" d="M0 0h45.25v45H0z"/><path class="cls-2" d="M.25 0v45M1.61 0v45M2.98 0v45M4.34 0v45M5.7 0v45M7.07 0v45M8.43 0v45M9.8 0v45m1.36-45v45m1.36-45v45m1.37-45v45m1.36-45v45m1.36-45v45m1.37-45v45m1.36-45v45M20.7 0v45m1.37-45v45m1.36-45v45M24.8 0v45m1.36-45v45m1.36-45v45m1.37-45v45m1.36-45v45m1.36-45v45m1.37-45v45m1.36-45v45M35.7 0v45m1.37-45v45m1.36-45v45M39.8 0v45m1.36-45v45m1.36-45v45m1.37-45v45"/><path class="cls-1" d="M.25 0h45v45h-45z"/></pattern><clipPath id="clip-path-13"><path class="cls-1" d="M418.64 22.14c1.26 0 6.64-.28 8.58-.49a13.15 13.15 0 0 0 2.37-.43l2.89 3.39a34 34 0 0 0-2.83 1.95c-2.12 1.65-4.34 3.48-6.21 5 3.78-.37 8.58-.64 11.9-.64v4.3a48.7 48.7 0 0 0-7.9 0c-2.68.37-4.71 2-4.71 4.3 0 2 1.57 2.9 4.28 3.18a32.16 32.16 0 0 0 4.76.06l-.95 4.82c-8 .34-12.83-2-12.83-7.26a7.38 7.38 0 0 1 1.45-4.25c-2.52.19-5.54.65-8.27 1.13l-.43-4.45c1.63-.15 3.78-.43 5.38-.61A66.91 66.91 0 0 0 423.9 26c-1.2.09-4.06.25-5.26.37-.74.06-1.85.18-2.95.3l-.22-4.67c1.08.1 2.06.14 3.17.14z"/></clipPath><pattern id="新規パターンスウォッチ_5-25" data-name="新規パターンスウォッチ 5" width="45.25" height="45" patternTransform="rotate(-55.6 223.31 -6.633) scale(1.08)" patternUnits="userSpaceOnUse" viewBox="0 0 45.25 45"><path class="cls-1" d="M0 0h45.25v45H0z"/><path class="cls-2" d="M.25 0v45M1.61 0v45M2.98 0v45M4.34 0v45M5.7 0v45M7.07 0v45M8.43 0v45M9.8 0v45m1.36-45v45m1.36-45v45m1.37-45v45m1.36-45v45m1.36-45v45m1.37-45v45m1.36-45v45M20.7 0v45m1.37-45v45m1.36-45v45M24.8 0v45m1.36-45v45m1.36-45v45m1.37-45v45m1.36-45v45m1.36-45v45m1.37-45v45m1.36-45v45M35.7 0v45m1.37-45v45m1.36-45v45M39.8 0v45m1.36-45v45m1.36-45v45m1.37-45v45"/><path class="cls-1" d="M.25 0h45v45h-45z"/></pattern><clipPath id="clip-path-14"><path class="cls-1" d="M471.81 44.27A8.47 8.47 0 0 1 466 46.4c-2.43 0-4.06-1.83-4.06-5S463 34 463 31.38c0-1.34-.71-2.07-1.85-2.07-2.09 0-5.19 2.68-7.53 5.25v1.89c0 2.29 0 5.25.21 8.15 0 .55.16 1.86.25 2.6h-5c.06-.77.09-2 .09-2.51 0-1.83.06-3.42.12-5.34-1.23 1.65-2.46 3.54-3.29 4.65l-2.86-4c1.72-2.1 4.58-5.77 6.4-8.36l.09-1.62c-1.57.18-3.69.46-5.32.67l-.46-4.69h3c.83-.06 1.94-.15 3.08-.33.06-.95.09-1.71.09-2a16.78 16.78 0 0 0-.15-3l5.35.15c-.22.95-.46 2.47-.71 4.31l1.17 1.52c-.4.52-1.11 1.59-1.66 2.38v.1c2.4-2 5.69-4.19 8.55-4.19 3.54 0 5.1 2.11 5.1 4.7 0 3.18-.95 7.21-.95 10.38a.92.92 0 0 0 .95 1 5.83 5.83 0 0 0 3.54-2z"/></clipPath><pattern id="新規パターンスウォッチ_5-27" data-name="新規パターンスウォッチ 5" width="45.25" height="45" patternTransform="rotate(-55.6 241.62 -41.361) scale(1.08)" patternUnits="userSpaceOnUse" viewBox="0 0 45.25 45"><path class="cls-1" d="M0 0h45.25v45H0z"/><path class="cls-2" d="M.25 0v45M1.61 0v45M2.98 0v45M4.34 0v45M5.7 0v45M7.07 0v45M8.43 0v45M9.8 0v45m1.36-45v45m1.36-45v45m1.37-45v45m1.36-45v45m1.36-45v45m1.37-45v45m1.36-45v45M20.7 0v45m1.37-45v45m1.36-45v45M24.8 0v45m1.36-45v45m1.36-45v45m1.37-45v45m1.36-45v45m1.36-45v45m1.37-45v45m1.36-45v45M35.7 0v45m1.37-45v45m1.36-45v45M39.8 0v45m1.36-45v45m1.36-45v45m1.37-45v45"/><path class="cls-1" d="M.25 0h45v45h-45z"/></pattern><clipPath id="clip-path-15"><path class="cls-1" d="M490.28 21.71c-.21.91-.46 2-.64 2.9s-.34 1.65-.53 2.44c.8-.06 1.51-.09 2.06-.09 3.51 0 5.82 1.65 5.82 6.16 0 3.55-.4 8.4-1.7 11.08-1 2.17-2.82 2.94-5.32 2.94a18.62 18.62 0 0 1-3.69-.43l-.8-4.83a19.32 19.32 0 0 0 3.72.65 2.08 2.08 0 0 0 2.07-1.16c.76-1.5 1.13-4.95 1.13-7.76 0-2.2-.92-2.47-2.83-2.47-.33 0-.86 0-1.41.06-1.23 4.7-3.51 12-6.09 16.12l-4.83-1.92c2.89-3.88 4.86-9.53 6-13.65l-1.91.28c-1 .12-2.74.36-3.75.55l-.4-4.92a34.83 34.83 0 0 0 3.54 0c.89 0 2.15-.12 3.5-.21a30.33 30.33 0 0 0 .59-6.32zm10.83 3.23A55.57 55.57 0 0 1 506 35.81L501.32 38c-.74-3.51-2.77-8.89-5-11.69l2.68-1.1a40.2 40.2 0 0 0-2.1-3.73l2.9-1.16c.76 1.13 1.84 3.12 2.39 4.19zm2-.73a34.76 34.76 0 0 0-2.4-4.21l2.89-1.16A42.57 42.57 0 0 1 506 23z"/></clipPath><pattern id="新規パターンスウォッチ_5-29" data-name="新規パターンスウォッチ 5" width="45.25" height="45" patternTransform="rotate(-55.6 256.88 -70.304) scale(1.08)" patternUnits="userSpaceOnUse" viewBox="0 0 45.25 45"><path class="cls-1" d="M0 0h45.25v45H0z"/><path class="cls-2" d="M.25 0v45M1.61 0v45M2.98 0v45M4.34 0v45M5.7 0v45M7.07 0v45M8.43 0v45M9.8 0v45m1.36-45v45m1.36-45v45m1.37-45v45m1.36-45v45m1.36-45v45m1.37-45v45m1.36-45v45M20.7 0v45m1.37-45v45m1.36-45v45M24.8 0v45m1.36-45v45m1.36-45v45m1.37-45v45m1.36-45v45m1.36-45v45m1.37-45v45m1.36-45v45M35.7 0v45m1.37-45v45m1.36-45v45M39.8 0v45m1.36-45v45m1.36-45v45m1.37-45v45"/><path class="cls-1" d="M.25 0h45v45h-45z"/></pattern><clipPath id="clip-path-16"><path class="cls-1" d="M520.63 21.89c-.06.76-.12 1.31-.12 2.41v10.38c0 .76.06 2 .12 2.84h-5.54c0-.61.16-1.92.16-2.87V24.3a21.48 21.48 0 0 0-.13-2.41zm14.12-.27c-.07.91-.13 1.95-.13 3.29v6.66c0 6.13-1.44 9.19-3.78 11.63a19.3 19.3 0 0 1-7.53 4.39l-3.91-4.09a14.45 14.45 0 0 0 7.6-3.72c2.07-2.17 2.5-4.34 2.5-8.55v-6.32a24.22 24.22 0 0 0-.22-3.29z"/></clipPath><pattern id="新規パターンスウォッチ_5-31" data-name="新規パターンスウォッチ 5" width="45.25" height="45" patternTransform="rotate(-55.6 272.14 -99.247) scale(1.08)" patternUnits="userSpaceOnUse" viewBox="0 0 45.25 45"><path class="cls-1" d="M0 0h45.25v45H0z"/><path class="cls-2" d="M.25 0v45M1.61 0v45M2.98 0v45M4.34 0v45M5.7 0v45M7.07 0v45M8.43 0v45M9.8 0v45m1.36-45v45m1.36-45v45m1.37-45v45m1.36-45v45m1.36-45v45m1.37-45v45m1.36-45v45M20.7 0v45m1.37-45v45m1.36-45v45M24.8 0v45m1.36-45v45m1.36-45v45m1.37-45v45m1.36-45v45m1.36-45v45m1.37-45v45m1.36-45v45M35.7 0v45m1.37-45v45m1.36-45v45M39.8 0v45m1.36-45v45m1.36-45v45m1.37-45v45"/><path class="cls-1" d="M.25 0h45v45h-45z"/></pattern><clipPath id="clip-path-17"><path class="cls-1" d="M569.64 24.76a18.65 18.65 0 0 0-1.26 2.24 46.85 46.85 0 0 1-4.64 8.06 81.83 81.83 0 0 1 8.36 8.51l-4.27 3.7a60.87 60.87 0 0 0-7.35-8.37 41.31 41.31 0 0 1-11.29 8.34l-3.87-4a34.36 34.36 0 0 0 12.58-8.58 22.14 22.14 0 0 0 4.3-6.9h-9.56c-1.39 0-3.08.18-3.94.25v-5.26a37.56 37.56 0 0 0 3.94.24h10.27a12.87 12.87 0 0 0 3.69-.46z"/></clipPath><pattern id="新規パターンスウォッチ_5-33" data-name="新規パターンスウォッチ 5" width="45.25" height="45" patternTransform="rotate(-55.6 267.172 -66.126) scale(1.08)" patternUnits="userSpaceOnUse" viewBox="0 0 45.25 45"><path class="cls-1" d="M0 0h45.25v45H0z"/><path class="cls-2" d="M.25 0v45M1.61 0v45M2.98 0v45M4.34 0v45M5.7 0v45M7.07 0v45M8.43 0v45M9.8 0v45m1.36-45v45m1.36-45v45m1.37-45v45m1.36-45v45m1.36-45v45m1.37-45v45m1.36-45v45M20.7 0v45m1.37-45v45m1.36-45v45M24.8 0v45m1.36-45v45m1.36-45v45m1.37-45v45m1.36-45v45m1.36-45v45m1.37-45v45m1.36-45v45M35.7 0v45m1.37-45v45m1.36-45v45M39.8 0v45m1.36-45v45m1.36-45v45m1.37-45v45"/><path class="cls-1" d="M.25 0h45v45h-45z"/></pattern><clipPath id="clip-path-18"><path class="cls-1" d="M605.34 26.16a16.35 16.35 0 0 0-1.2 2.51 35.47 35.47 0 0 1-4.09 7.9c1.14.74 2.16 1.41 2.92 2l-3.38 4.36c-.74-.64-1.75-1.4-2.86-2.2A28.88 28.88 0 0 1 585.81 48l-4.33-3.72a25.76 25.76 0 0 0 11.07-6.41c-1.88-1.23-3.72-2.35-5.17-3.18l3.17-3.54c1.51.79 3.38 1.8 5.23 2.87a19.5 19.5 0 0 0 2.77-5.59h-7.91a38.36 38.36 0 0 1-8.09 7.82l-4-3.09a28.83 28.83 0 0 0 9.75-9.86 15.16 15.16 0 0 0 1.63-3.63l5.39 1.65c-.68 1-1.39 2.14-1.85 2.93h5.11a11.42 11.42 0 0 0 3-.4z"/></clipPath><pattern id="新規パターンスウォッチ_5-35" data-name="新規パターンスウォッチ 5" width="45.25" height="45" patternTransform="rotate(-55.6 243.7 -70.272) scale(1.08)" patternUnits="userSpaceOnUse" viewBox="0 0 45.25 45"><path class="cls-1" d="M0 0h45.25v45H0z"/><path class="cls-2" d="M.25 0v45M1.61 0v45M2.98 0v45M4.34 0v45M5.7 0v45M7.07 0v45M8.43 0v45M9.8 0v45m1.36-45v45m1.36-45v45m1.37-45v45m1.36-45v45m1.36-45v45m1.37-45v45m1.36-45v45M20.7 0v45m1.37-45v45m1.36-45v45M24.8 0v45m1.36-45v45m1.36-45v45m1.37-45v45m1.36-45v45m1.36-45v45m1.37-45v45m1.36-45v45M35.7 0v45m1.37-45v45m1.36-45v45M39.8 0v45m1.36-45v45m1.36-45v45m1.37-45v45"/><path class="cls-1" d="M.25 0h45v45h-45z"/></pattern><clipPath id="clip-path-19"><path class="cls-1" d="M630.62 42.77a23.23 23.23 0 0 0 .3 4.43H625a41.65 41.65 0 0 0 .25-4.43v-9.19a56.71 56.71 0 0 1-10.06 3.85l-2.65-4.49a45.53 45.53 0 0 0 14.12-5.49 32.06 32.06 0 0 0 8-7l4 3.57a52.9 52.9 0 0 1-8.09 6.53z"/></clipPath><pattern id="新規パターンスウォッチ_5-37" data-name="新規パターンスウォッチ 5" width="45.25" height="45" patternTransform="rotate(-55.6 259.114 -106.54) scale(1.08)" patternUnits="userSpaceOnUse" viewBox="0 0 45.25 45"><path class="cls-1" d="M0 0h45.25v45H0z"/><path class="cls-2" d="M.25 0v45M1.61 0v45M2.98 0v45M4.34 0v45M5.7 0v45M7.07 0v45M8.43 0v45M9.8 0v45m1.36-45v45m1.36-45v45m1.37-45v45m1.36-45v45m1.36-45v45m1.37-45v45m1.36-45v45M20.7 0v45m1.37-45v45m1.36-45v45M24.8 0v45m1.36-45v45m1.36-45v45m1.37-45v45m1.36-45v45m1.36-45v45m1.37-45v45m1.36-45v45M35.7 0v45m1.37-45v45m1.36-45v45M39.8 0v45m1.36-45v45m1.36-45v45m1.37-45v45"/><path class="cls-1" d="M.25 0h45v45h-45z"/></pattern><clipPath id="clip-path-20"><path class="cls-1" d="M670.5 25.61a17.36 17.36 0 0 0-1.26 2.23 47.64 47.64 0 0 1-4.65 8.06 81 81 0 0 1 8.41 8.52l-4.28 3.69a60.23 60.23 0 0 0-7.35-8.36 41.37 41.37 0 0 1-11.28 8.33l-3.88-4a34.35 34.35 0 0 0 12.58-8.57 22.5 22.5 0 0 0 4.31-6.9h-9.57c-1.38 0-3.08.18-3.94.24V23.6a37.56 37.56 0 0 0 3.94.24h10.27a14.06 14.06 0 0 0 3.45-.39c-.43-.83-.93-1.68-1.39-2.38l2.89-1.16a40.61 40.61 0 0 1 2.4 4.18l-1.72.73zm1.84-1.4a37.63 37.63 0 0 0-2.43-4.21l2.89-1.16a42.57 42.57 0 0 1 2.43 4.16z"/></clipPath><pattern id="新規パターンスウォッチ_5-39" data-name="新規パターンスウォッチ 5" width="45.25" height="45" patternTransform="rotate(-55.6 275.899 -138.375) scale(1.08)" patternUnits="userSpaceOnUse" viewBox="0 0 45.25 45"><path class="cls-1" d="M0 0h45.25v45H0z"/><path class="cls-2" d="M.25 0v45M1.61 0v45M2.98 0v45M4.34 0v45M5.7 0v45M7.07 0v45M8.43 0v45M9.8 0v45m1.36-45v45m1.36-45v45m1.37-45v45m1.36-45v45m1.36-45v45m1.37-45v45m1.36-45v45M20.7 0v45m1.37-45v45m1.36-45v45M24.8 0v45m1.36-45v45m1.36-45v45m1.37-45v45m1.36-45v45m1.36-45v45m1.37-45v45m1.36-45v45M35.7 0v45m1.37-45v45m1.36-45v45M39.8 0v45m1.36-45v45m1.36-45v45m1.37-45v45"/><path class="cls-1" d="M.25 0h45v45h-45z"/></pattern><clipPath id="clip-path-21"><path class="cls-1" d="M703.3 47.17c-.36-1-.83-2.17-1.35-3.39-5.07.61-13.9 1.49-17.62 1.89-.77.09-2.06.27-3.08.4l-.86-5.41h4.12c1.79-4.58 4.19-12.24 5.11-15.5a26.32 26.32 0 0 0 .8-3.85l5.9 1.19c-.46 1-1 2.32-1.44 3.72-1 3-3.29 10-4.77 14.05 3.29-.31 6.95-.74 9.78-1.07A34.06 34.06 0 0 0 697 34l4.67-1.89a96.08 96.08 0 0 1 6.71 12.85z"/></clipPath><pattern id="新規パターンスウォッチ_5-41" data-name="新規パターンスウォッチ 5" width="45.25" height="45" patternTransform="rotate(-55.6 294.06 -165.788) scale(1.08)" patternUnits="userSpaceOnUse" viewBox="0 0 45.25 45"><path class="cls-1" d="M0 0h45.25v45H0z"/><path class="cls-2" d="M.25 0v45M1.61 0v45M2.98 0v45M4.34 0v45M5.7 0v45M7.07 0v45M8.43 0v45M9.8 0v45m1.36-45v45m1.36-45v45m1.37-45v45m1.36-45v45m1.36-45v45m1.37-45v45m1.36-45v45M20.7 0v45m1.37-45v45m1.36-45v45M24.8 0v45m1.36-45v45m1.36-45v45m1.37-45v45m1.36-45v45m1.36-45v45m1.37-45v45m1.36-45v45M35.7 0v45m1.37-45v45m1.36-45v45M39.8 0v45m1.36-45v45m1.36-45v45m1.37-45v45"/><path class="cls-1" d="M.25 0h45v45h-45z"/></pattern></defs><title>sp-title1demo</title><g id="Layer_2" data-name="Layer 2"><g id="SVG"><g class="cls-3"><path class="cls-4" d="M62.63 26.21L37.18 63.38 0 37.93 25.46.75l37.17 25.46z"/></g><g class="cls-5"><path class="cls-6" d="M93.15 26.21L67.7 63.38 30.52 37.93 55.98.75l37.17 25.46z"/></g><g class="cls-7"><path class="cls-8" d="M129.78 26.21l-25.46 37.17-37.18-25.45L92.6.75l37.18 25.46z"/></g><g class="cls-9"><path class="cls-10" d="M166.4 26.21l-25.46 37.17-37.17-25.45L129.23.75l37.17 25.46z"/></g><g class="cls-11"><path class="cls-12" d="M202.64 34.8l-25.46 37.17-37.17-25.45 25.45-37.18 37.18 25.46z"/></g><g class="cls-13"><path class="cls-14" d="M208.74 35.15l-25.46 37.18-37.17-25.46L171.57 9.7l37.17 25.45z"/></g><g class="cls-15"><path class="cls-16" d="M249.08 29.04l-25.45 37.17-37.18-25.46 25.46-37.17 37.17 25.46z"/></g><g class="cls-17"><path class="cls-18" d="M275.89 34.8l-25.46 37.17-37.18-25.45 25.46-37.18 37.18 25.46z"/></g><g class="cls-19"><path class="cls-20" d="M321.79 32.2l-25.45 37.17-37.18-25.46 25.46-37.17 37.17 25.46z"/></g><g class="cls-21"><path class="cls-22" d="M352.31 32.2l-25.45 37.17-37.18-25.46 25.46-37.17 37.17 25.46z"/></g><g class="cls-23"><path class="cls-24" d="M388.94 32.2l-25.46 37.17-37.17-25.46 25.45-37.17 37.18 25.46z"/></g><g class="cls-25"><path class="cls-26" d="M413.36 32.2L387.9 69.37l-37.18-25.46 25.46-37.17 37.18 25.46z"/></g><g class="cls-27"><path class="cls-28" d="M454.38 27.97l-25.45 37.17-37.18-25.45 25.46-37.18 37.17 25.46z"/></g><g class="cls-29"><path class="cls-30" d="M491.01 27.97l-25.46 37.17-37.17-25.45 25.45-37.18 37.18 25.46z"/></g><g class="cls-31"><path class="cls-32" d="M521.53 27.97l-25.46 37.17-37.17-25.45 25.45-37.18 37.18 25.46z"/></g><g class="cls-33"><path class="cls-34" d="M552.05 27.97l-25.46 37.17-37.17-25.45 25.46-37.18 37.17 25.46z"/></g><g class="cls-35"><path class="cls-36" d="M590.06 25.46L564.6 62.63l-37.18-25.45L552.88 0l37.18 25.46z"/></g><g class="cls-37"><path class="cls-38" d="M623.25 31.66l-25.46 37.18-37.17-25.46L586.07 6.2l37.18 25.46z"/></g><g class="cls-39"><path class="cls-40" d="M659.88 28.61l-25.46 37.17-37.18-25.45L622.7 3.15l37.18 25.46z"/></g><g class="cls-41"><path class="cls-42" d="M693.45 28.61l-25.46 37.17-37.18-25.45 25.46-37.18 37.18 25.46z"/></g><g class="cls-43"><path class="cls-44" d="M723.97 31.66l-25.46 37.18-37.18-25.46L686.79 6.2l37.18 25.46z"/></g><path class="cls-45" d="M40 30.37c2 2.68 2.86 4.82 2.86 7.38 0 4.61-4.18 8.18-11.19 8.18-5.2 0-8.61-2.2-8.61-7.32 0-.68.06-1.65.18-2.81a36.76 36.76 0 0 1-5.5-.95l.24-4.42a26.64 26.64 0 0 0 5.75 1.19l.43-3.39a37.66 37.66 0 0 1-5.78-1.07l.18-4.16a26.15 26.15 0 0 0 6.06 1.13c.09-.76.15-1.44.18-2a19.19 19.19 0 0 0 .06-3l5.17.28c-.31 1.28-.46 2.17-.62 3-.06.4-.15 1-.27 1.86a35.69 35.69 0 0 0 5.22-.4l-.15 4.34a48.5 48.5 0 0 1-5.66.3c-.15 1.1-.31 2.26-.43 3.36a57.39 57.39 0 0 0 6-.37L34 35.8c-1.5.15-3.22.27-5 .27h-1.31c-.06.7-.09 1.31-.09 1.74 0 2.26 1.44 3.36 4.18 3.36 4 0 6-1.89 6-4s-1.17-3.85-3-5.68zm16.62-.58c2-.61 7.26-2.32 11-2.32 5.11 0 8.4 3 8.4 7.84 0 5.25-4.4 9.43-14.89 10.07l-2-4.52c7.13-.18 11.93-2 11.93-5.64 0-2.08-1.54-3.48-3.94-3.48-3.41 0-9.13 2.35-12.11 3.63l-1.88-4.76c.94-.15 2.6-.55 3.49-.82zM108 26.43c-1.07.64-2.18 1.22-3.41 1.83a81 81 0 0 0-8.05 4.21c-2.34 1.53-4.03 3.15-4.03 5.13s1.93 2.93 5.84 2.93a52.64 52.64 0 0 0 10.05-1.16l-.06 5.28a58.15 58.15 0 0 1-9.87.76c-6.27 0-11.1-1.68-11.1-7.26 0-3.45 2.15-5.92 4.95-8-1.41-2.59-2.83-5.67-4.18-8.85l4.64-1.86a63.79 63.79 0 0 0 3.66 8.06c2.25-1.29 4.55-2.48 5.88-3.24a21.68 21.68 0 0 0 3.16-2zm32.93 6.83a18.91 18.91 0 0 1-3.41 6.47 55.86 55.86 0 0 1 7.16 3.42l-3.68 3.6a51.28 51.28 0 0 0-7.2-3.75c-3.2 2-7.35 3.17-12.42 3.88a18.12 18.12 0 0 0-2.49-4.06 33.86 33.86 0 0 0 9.75-1.93c-.9-.33-1.79-.67-2.68-.94l-.46.79-4.74-1.25c1-1.71 2.31-3.91 3.54-6.23h-6.06v-4.18h8.21c.71-1.49 1.42-2.93 2-4.3l4.74 1c-.5 1.07-1.05 2.19-1.6 3.32h14.2v4.18zm-17.64-5.34h-4.55v-7.6h10.76v-2.47h4.79v2.47h11.07v7.6h-4.79v-3.51h-17.28zm6.24 5.34l-1.63 3.09c1.63.49 3.38 1.06 5.19 1.71a11.48 11.48 0 0 0 2.65-4.8zm28.59-3.63c-.46 4.34-1.17 8.91-3.1 12l-4.22-2.38c1.7-2.6 2.53-6.32 2.93-10.47zm6-2.9v14.16c0 1.53.15 1.71 1.47 1.71H169c1.32 0 1.56-.91 1.78-5.43a13 13 0 0 0 4.15 1.89c-.46 5.71-1.63 7.57-5.53 7.57H165c-4.34 0-5.5-1.4-5.5-5.74V26.73zM162.43 18a42.58 42.58 0 0 1 10.17 5.46l-3 3.9a39.92 39.92 0 0 0-10.11-5.92zm13 9.46a31 31 0 0 1 5.47 10.86l-4.55 2.26a32 32 0 0 0-5-11.08zm16.36 18.84a63.42 63.42 0 0 0-6.52-6.69l3.91-3.32a56 56 0 0 1 6.58 6.62zm35.73-15.93c2 2.68 2.86 4.82 2.86 7.38 0 4.61-4.18 8.18-11.19 8.18-5.2 0-8.61-2.2-8.61-7.32 0-.68.06-1.65.18-2.81a36.76 36.76 0 0 1-5.5-.95l.24-4.42a26.64 26.64 0 0 0 5.75 1.19l.43-3.39a37.66 37.66 0 0 1-5.78-1.07l.22-4.21a26.15 26.15 0 0 0 6.06 1.13c.09-.76.15-1.44.18-2a19.19 19.19 0 0 0 .06-3l5.17.28c-.31 1.28-.46 2.17-.62 3-.06.4-.15 1-.27 1.86a35.69 35.69 0 0 0 5.22-.4l-.15 4.34a48.5 48.5 0 0 1-5.66.3c-.15 1.1-.31 2.26-.43 3.36a57.39 57.39 0 0 0 6-.37l-.13 4.34c-1.5.15-3.22.27-5 .27h-1.26c-.06.7-.09 1.31-.09 1.74 0 2.26 1.44 3.36 4.18 3.36 4 0 6-1.89 6-4s-1.17-3.85-3-5.68zm16.66-.58c2-.61 7.26-2.32 11-2.32 5.11 0 8.4 3 8.4 7.84 0 5.25-4.4 9.43-14.89 10.07l-2-4.52c7.13-.18 11.93-2 11.93-5.64 0-2.08-1.54-3.48-3.94-3.48-3.41 0-9.13 2.35-12.11 3.63l-1.88-4.76c.94-.15 2.6-.55 3.49-.82zm51.41-3.36c-1.07.64-2.18 1.22-3.41 1.83a81 81 0 0 0-8.05 4.21c-2.37 1.53-4.06 3.15-4.06 5.13s1.93 2.93 5.84 2.93a52.64 52.64 0 0 0 10-1.16l-.06 5.28a58.15 58.15 0 0 1-9.87.76c-6.27 0-11.1-1.68-11.1-7.26 0-3.45 2.15-5.92 4.95-8-1.41-2.59-2.83-5.67-4.18-8.85l4.64-1.86a63.79 63.79 0 0 0 3.71 8.03c2.25-1.29 4.55-2.48 5.88-3.24a21.68 21.68 0 0 0 3.16-2zm31.61 9.06a12.93 12.93 0 0 0 7.38 7.3 18.07 18.07 0 0 0-3.17 4.21 15.27 15.27 0 0 1-7.5-8.24 17 17 0 0 1-7.44 8.33 18 18 0 0 0-3.2-3.45 12.24 12.24 0 0 0 7.14-8.12h-5.54v-4.24H321c.06-.76.06-1.49.06-2.23v-2.59h-4.92A26.67 26.67 0 0 1 317 29l-3.23 1.47a23.35 23.35 0 0 0-.83-2.87v19.28h-4.43V29.57a30.86 30.86 0 0 1-.8 3.69l-3.26-1.15a39.77 39.77 0 0 0 1.48-8.11l2.61.36v-6.5H313v5.83l1.69-.7c.49 1 1 2.23 1.47 3.36v-4h4.95v-4.47h4.52v4.49h6.58v8.91h1.54v4.21zm-1.6-6.41c0 .74 0 1.47-.06 2.2h2.28v-4.82h-2.22zm22.7 12.24a8.59 8.59 0 0 0 4 1 147.85 147.85 0 0 0 15.83-.32 20.53 20.53 0 0 0-1.39 4.31c-4 .21-10.57.27-14.51.09-3.47-.16-5.78-1-7.59-3.27-1.17 1.13-2.37 2.2-3.94 3.51l-2.06-4.42c1.14-.68 2.4-1.53 3.6-2.41v-6H339v-4.12h7.47v9.77a4.65 4.65 0 0 0 1.63 1.77V24.72h3.29a9 9 0 0 0-.55-1.59h.12-3.47v-3.42H355v-1.83h4.33v1.83h8v3.39h-3.41c-.31.58-.56 1.13-.8 1.62h3.78v12.91c0 1.71-.28 2.65-1.39 3.26a9.18 9.18 0 0 1-4.27.64 12.33 12.33 0 0 0-.61-2.28h-4.46v.82h-2.95v-6.74h2.61v-1.44h-3.05V29.3h3.05V28h-3.69v13.3zm-4.74-15.07a25.66 25.66 0 0 0-4.56-5.07l3.41-2.5a26.4 26.4 0 0 1 4.8 4.76zM355 23.1a7.76 7.76 0 0 1 .52 1.62h3.63c.15-.49.34-1.07.46-1.62zm3.66 12.58h-2.46v1.19h2.46zm3.69 2.32c.34 0 .46-.13.46-.46V28H359v1.3h3.1v2.59H359v1.44h2.67V38zm21.21 3a3.64 3.64 0 0 1 7.26 0 3.64 3.64 0 0 1-7.26 0zm.44-14.79l-.19-5.06h6.73l-.18 5.06-1.26 9.65h-3.84zm32.16-5.7c1.26 0 6.64-.28 8.57-.49a11.55 11.55 0 0 0 2.37-.43L430 23a34 34 0 0 0-2.83 1.95c-2.12 1.65-4.33 3.48-6.21 4.95 3.78-.37 8.58-.64 11.9-.64v4.3a48.72 48.72 0 0 0-7.9 0c-2.67.37-4.7 2-4.7 4.3 0 2 1.56 2.9 4.27 3.18a32.29 32.29 0 0 0 4.77.06l-1 4.82c-8 .34-12.82-2-12.82-7.26a7.38 7.38 0 0 1 1.52-4.24c-2.52.19-5.54.65-8.27 1.13l-.44-4.45c1.63-.15 3.79-.43 5.39-.61a66.78 66.78 0 0 0 7.74-6.14c-1.2.1-4.05.25-5.25.37-.74.06-1.85.18-3 .31l-.17-4.64c1.07.09 2.05.12 3.16.12zm53.16 22.12a8.45 8.45 0 0 1-5.81 2.14c-2.43 0-4.06-1.83-4.06-5s1.07-7.36 1.07-10c0-1.35-.7-2.08-1.84-2.08-2.09 0-5.2 2.69-7.53 5.25v1.89c0 2.29 0 5.25.21 8.15 0 .55.16 1.86.25 2.59h-5.05c.07-.76.1-2 .1-2.5 0-1.83.06-3.42.12-5.34-1.17 1.68-2.4 3.54-3.23 4.67l-2.86-4c1.72-2.1 4.58-5.77 6.4-8.36l.09-1.62-5.32.67-.46-4.67h3c.83-.06 1.94-.15 3.08-.33.06-.95.09-1.71.09-2a16.78 16.78 0 0 0-.15-3l5.35.16c-.22.94-.47 2.47-.71 4.3l1.15 1.45c-.4.51-1.11 1.58-1.66 2.38v.09c2.39-2 5.68-4.18 8.54-4.18 3.54 0 5.11 2.1 5.11 4.7 0 3.17-1 7.2-1 10.37a.92.92 0 0 0 1 1 5.83 5.83 0 0 0 3.53-2zm18.48-22.55c-.22.92-.46 2.05-.65 2.9s-.34 1.65-.52 2.44c.8-.06 1.51-.09 2.06-.09 3.5 0 5.81 1.65 5.81 6.16 0 3.54-.4 8.4-1.69 11.08-1.05 2.17-2.83 2.93-5.32 2.93a17.83 17.83 0 0 1-3.69-.43l-.8-4.82a19.09 19.09 0 0 0 3.72.64 2.06 2.06 0 0 0 2.06-1.16c.77-1.49 1.14-4.94 1.14-7.75 0-2.19-.92-2.47-2.83-2.47-.34 0-.86 0-1.41.06-1.23 4.7-3.51 12-6.09 16.12l-4.83-1.93c2.89-3.87 4.86-9.52 6-13.64l-1.91.28c-1 .12-2.74.36-3.75.55l-.4-4.95a34.83 34.83 0 0 0 3.54 0c.89 0 2.15-.12 3.5-.21a29.6 29.6 0 0 0 .58-6.32zm10.82 3.24a55.23 55.23 0 0 1 4.92 10.86l-4.7 2.17c-.74-3.51-2.77-8.88-5-11.69l2.68-1.1a38.71 38.71 0 0 0-2.09-3.72l2.89-1.16c.77 1.13 1.84 3.11 2.4 4.18zm2-.74a34.76 34.76 0 0 0-2.43-4.21l2.89-1.16a42.57 42.57 0 0 1 2.43 4.15zm17.53-2.32a22.14 22.14 0 0 0-.13 2.42v10.37c0 .76.06 2.05.13 2.84h-5.54c0-.61.15-1.92.15-2.87V22.68c0-.58 0-1.65-.12-2.42zm14.11-.26c-.06.92-.12 2-.12 3.29v6.66c0 6.13-1.45 9.18-3.79 11.63a19.23 19.23 0 0 1-7.53 4.42l-3.9-4.09a14.52 14.52 0 0 0 7.56-3.72C526.54 36 527 33.81 527 29.6v-6.32a22.81 22.81 0 0 0-.22-3.29zm34.9 3.13a16.24 16.24 0 0 0-1.26 2.23 47.64 47.64 0 0 1-4.65 8.06 81 81 0 0 1 8.37 8.51l-4.28 3.69a61.4 61.4 0 0 0-7.34-8.36 40.87 40.87 0 0 1-11.28 8.33l-3.87-4A34.24 34.24 0 0 0 555.41 33a22.38 22.38 0 0 0 4.31-6.9h-9.57c-1.38 0-3.07.19-3.93.25v-5.23a37.22 37.22 0 0 0 3.93.24h10.27a13.26 13.26 0 0 0 3.69-.45zm35.69 1.41a15 15 0 0 0-1.19 2.5 35.47 35.47 0 0 1-4.09 7.9c1.13.74 2.15 1.41 2.92 2l-3.39 4.36c-.73-.64-1.75-1.4-2.85-2.2a28.88 28.88 0 0 1-10.92 7.3L579 42.63a25.55 25.55 0 0 0 11.06-6.41 105.11 105.11 0 0 0-5.16-3.17l3.17-3.54c1.5.79 3.38 1.8 5.22 2.87a19.5 19.5 0 0 0 2.77-5.59h-7.9a38.6 38.6 0 0 1-8.09 7.82l-4-3.08a29 29 0 0 0 9.75-9.86 16.19 16.19 0 0 0 1.6-3.67l5.38 1.64c-.68.95-1.38 2.14-1.84 2.93h5.1a11.85 11.85 0 0 0 3-.39zm25.28 16.6a22.24 22.24 0 0 0 .31 4.42h-5.91a39 39 0 0 0 .25-4.42V32a56.61 56.61 0 0 1-10 3.85l-2.65-4.49a45.56 45.56 0 0 0 14.11-5.49 31.68 31.68 0 0 0 8-7l4 3.57a52.42 52.42 0 0 1-8.11 6.56zM668 24a16.5 16.5 0 0 0-1.26 2.22 47.82 47.82 0 0 1-4.64 8.06 81.83 81.83 0 0 1 8.36 8.52l-4.28 3.69a60.13 60.13 0 0 0-7.34-8.36 41.27 41.27 0 0 1-11.29 8.33l-3.87-4a34.12 34.12 0 0 0 12.57-8.58 22.35 22.35 0 0 0 4.32-6.88H651c-1.39 0-3.08.18-3.94.24V22a35 35 0 0 0 3.94.25h10.27a14 14 0 0 0 3.44-.4c-.43-.82-.92-1.68-1.38-2.38l2.89-1.16a43.49 43.49 0 0 1 2.39 4.18l-1.72.73zm1.84-1.41a37.63 37.63 0 0 0-2.43-4.21l2.89-1.16a42.57 42.57 0 0 1 2.43 4.15zm30.98 22.94c-.37-1-.83-2.16-1.36-3.38-5.07.61-13.89 1.49-17.61 1.89l-3.08.39-.86-5.4h4.12c1.78-4.58 4.18-12.24 5.1-15.5a25.05 25.05 0 0 0 .8-3.85l5.91 1.19c-.46 1-1 2.32-1.45 3.73-1 3-3.29 10-4.76 14 3.29-.3 6.94-.73 9.77-1.06a34.06 34.06 0 0 0-2.92-5.16l4.68-1.89a97.7 97.7 0 0 1 6.7 12.84z"/><path d="M40 30.37c2 2.68 2.86 4.82 2.86 7.38 0 4.61-4.18 8.18-11.19 8.18-5.2 0-8.61-2.2-8.61-7.32 0-.68.06-1.65.18-2.81a36.76 36.76 0 0 1-5.5-.95l.24-4.42a26.64 26.64 0 0 0 5.75 1.19l.43-3.39a37.66 37.66 0 0 1-5.78-1.07l.18-4.16a26.15 26.15 0 0 0 6.06 1.13c.09-.76.15-1.44.18-2a19.19 19.19 0 0 0 .06-3l5.17.28c-.31 1.28-.46 2.17-.62 3-.06.4-.15 1-.27 1.86a35.69 35.69 0 0 0 5.22-.4l-.15 4.34a48.5 48.5 0 0 1-5.66.3c-.15 1.1-.31 2.26-.43 3.36a57.39 57.39 0 0 0 6-.37L34 35.8c-1.5.15-3.22.27-5 .27h-1.31c-.06.7-.09 1.31-.09 1.74 0 2.26 1.44 3.36 4.18 3.36 4 0 6-1.89 6-4s-1.17-3.85-3-5.68zm16.62-.58c2-.61 7.26-2.32 11-2.32 5.11 0 8.4 3 8.4 7.84 0 5.25-4.4 9.43-14.89 10.07l-2-4.52c7.13-.18 11.93-2 11.93-5.64 0-2.08-1.54-3.48-3.94-3.48-3.41 0-9.13 2.35-12.11 3.63l-1.88-4.76c.94-.15 2.6-.55 3.49-.82zM108 26.43c-1.07.64-2.18 1.22-3.41 1.83a81 81 0 0 0-8.05 4.21c-2.34 1.53-4.03 3.15-4.03 5.13s1.93 2.93 5.84 2.93a52.64 52.64 0 0 0 10.05-1.16l-.06 5.28a58.15 58.15 0 0 1-9.87.76c-6.27 0-11.1-1.68-11.1-7.26 0-3.45 2.15-5.92 4.95-8-1.41-2.59-2.83-5.67-4.18-8.85l4.64-1.86a63.79 63.79 0 0 0 3.66 8.06c2.25-1.29 4.55-2.48 5.88-3.24a21.68 21.68 0 0 0 3.16-2zm32.93 6.83a18.91 18.91 0 0 1-3.41 6.47 55.86 55.86 0 0 1 7.16 3.42l-3.68 3.6a51.28 51.28 0 0 0-7.2-3.75c-3.2 2-7.35 3.17-12.42 3.88a18.12 18.12 0 0 0-2.49-4.06 33.86 33.86 0 0 0 9.75-1.93c-.9-.33-1.79-.67-2.68-.94l-.46.79-4.74-1.25c1-1.71 2.31-3.91 3.54-6.23h-6.06v-4.18h8.21c.71-1.49 1.42-2.93 2-4.3l4.74 1c-.5 1.07-1.05 2.19-1.6 3.32h14.2v4.18zm-17.64-5.34h-4.55v-7.6h10.76v-2.47h4.79v2.47h11.07v7.6h-4.79v-3.51h-17.28zm6.24 5.34l-1.63 3.09c1.63.49 3.38 1.06 5.19 1.71a11.48 11.48 0 0 0 2.65-4.8zm28.59-3.63c-.46 4.34-1.17 8.91-3.1 12l-4.22-2.38c1.7-2.6 2.53-6.32 2.93-10.47zm6-2.9v14.16c0 1.53.15 1.71 1.47 1.71H169c1.32 0 1.56-.91 1.78-5.43a13 13 0 0 0 4.15 1.89c-.46 5.71-1.63 7.57-5.53 7.57H165c-4.34 0-5.5-1.4-5.5-5.74V26.73zM162.43 18a42.58 42.58 0 0 1 10.17 5.46l-3 3.9a39.92 39.92 0 0 0-10.11-5.92zm13 9.46a31 31 0 0 1 5.47 10.86l-4.55 2.26a32 32 0 0 0-5-11.08zm16.36 18.84a63.42 63.42 0 0 0-6.52-6.69l3.91-3.32a56 56 0 0 1 6.58 6.62zm35.73-15.93c2 2.68 2.86 4.82 2.86 7.38 0 4.61-4.18 8.18-11.19 8.18-5.2 0-8.61-2.2-8.61-7.32 0-.68.06-1.65.18-2.81a36.76 36.76 0 0 1-5.5-.95l.24-4.42a26.64 26.64 0 0 0 5.75 1.19l.43-3.39a37.66 37.66 0 0 1-5.78-1.07l.22-4.21a26.15 26.15 0 0 0 6.06 1.13c.09-.76.15-1.44.18-2a19.19 19.19 0 0 0 .06-3l5.17.28c-.31 1.28-.46 2.17-.62 3-.06.4-.15 1-.27 1.86a35.69 35.69 0 0 0 5.22-.4l-.15 4.34a48.5 48.5 0 0 1-5.66.3c-.15 1.1-.31 2.26-.43 3.36a57.39 57.39 0 0 0 6-.37l-.13 4.34c-1.5.15-3.22.27-5 .27h-1.26c-.06.7-.09 1.31-.09 1.74 0 2.26 1.44 3.36 4.18 3.36 4 0 6-1.89 6-4s-1.17-3.85-3-5.68zm16.66-.58c2-.61 7.26-2.32 11-2.32 5.11 0 8.4 3 8.4 7.84 0 5.25-4.4 9.43-14.89 10.07l-2-4.52c7.13-.18 11.93-2 11.93-5.64 0-2.08-1.54-3.48-3.94-3.48-3.41 0-9.13 2.35-12.11 3.63l-1.88-4.76c.94-.15 2.6-.55 3.49-.82zm51.41-3.36c-1.07.64-2.18 1.22-3.41 1.83a81 81 0 0 0-8.05 4.21c-2.37 1.53-4.06 3.15-4.06 5.13s1.93 2.93 5.84 2.93a52.64 52.64 0 0 0 10-1.16l-.06 5.28a58.15 58.15 0 0 1-9.87.76c-6.27 0-11.1-1.68-11.1-7.26 0-3.45 2.15-5.92 4.95-8-1.41-2.59-2.83-5.67-4.18-8.85l4.64-1.86a63.79 63.79 0 0 0 3.71 8.03c2.25-1.29 4.55-2.48 5.88-3.24a21.68 21.68 0 0 0 3.16-2zm31.61 9.06a12.93 12.93 0 0 0 7.38 7.3 18.07 18.07 0 0 0-3.17 4.21 15.27 15.27 0 0 1-7.5-8.24 17 17 0 0 1-7.44 8.33 18 18 0 0 0-3.2-3.45 12.24 12.24 0 0 0 7.14-8.12h-5.54v-4.24H321c.06-.76.06-1.49.06-2.23v-2.59h-4.92A26.67 26.67 0 0 1 317 29l-3.23 1.47a23.35 23.35 0 0 0-.83-2.87v19.28h-4.43V29.57a30.86 30.86 0 0 1-.8 3.69l-3.26-1.15a39.77 39.77 0 0 0 1.48-8.11l2.61.36v-6.5H313v5.83l1.69-.7c.49 1 1 2.23 1.47 3.36v-4h4.95v-4.47h4.52v4.49h6.58v8.91h1.54v4.21zm-1.6-6.41c0 .74 0 1.47-.06 2.2h2.28v-4.82h-2.22zm22.7 12.24a8.59 8.59 0 0 0 4 1 147.85 147.85 0 0 0 15.83-.32 20.53 20.53 0 0 0-1.39 4.31c-4 .21-10.57.27-14.51.09-3.47-.16-5.78-1-7.59-3.27-1.17 1.13-2.37 2.2-3.94 3.51l-2.06-4.42c1.14-.68 2.4-1.53 3.6-2.41v-6H339v-4.12h7.47v9.77a4.65 4.65 0 0 0 1.63 1.77V24.72h3.29a9 9 0 0 0-.55-1.59h.12-3.47v-3.42H355v-1.83h4.33v1.83h8v3.39h-3.41c-.31.58-.56 1.13-.8 1.62h3.78v12.91c0 1.71-.28 2.65-1.39 3.26a9.18 9.18 0 0 1-4.27.64 12.33 12.33 0 0 0-.61-2.28h-4.46v.82h-2.95v-6.74h2.61v-1.44h-3.05V29.3h3.05V28h-3.69v13.3zm-4.74-15.07a25.66 25.66 0 0 0-4.56-5.07l3.41-2.5a26.4 26.4 0 0 1 4.8 4.76zM355 23.1a7.76 7.76 0 0 1 .52 1.62h3.63c.15-.49.34-1.07.46-1.62zm3.66 12.58h-2.46v1.19h2.46zm3.69 2.32c.34 0 .46-.13.46-.46V28H359v1.3h3.1v2.59H359v1.44h2.67V38zm21.21 3a3.64 3.64 0 0 1 7.26 0 3.64 3.64 0 0 1-7.26 0zm.44-14.79l-.19-5.06h6.73l-.18 5.06-1.26 9.65h-3.84zm32.16-5.7c1.26 0 6.64-.28 8.57-.49a11.55 11.55 0 0 0 2.37-.43L430 23a34 34 0 0 0-2.83 1.95c-2.12 1.65-4.33 3.48-6.21 4.95 3.78-.37 8.58-.64 11.9-.64v4.3a48.72 48.72 0 0 0-7.9 0c-2.67.37-4.7 2-4.7 4.3 0 2 1.56 2.9 4.27 3.18a32.29 32.29 0 0 0 4.77.06l-1 4.82c-8 .34-12.82-2-12.82-7.26a7.38 7.38 0 0 1 1.52-4.24c-2.52.19-5.54.65-8.27 1.13l-.44-4.45c1.63-.15 3.79-.43 5.39-.61a66.78 66.78 0 0 0 7.74-6.14c-1.2.1-4.05.25-5.25.37-.74.06-1.85.18-3 .31l-.17-4.64c1.07.09 2.05.12 3.16.12zm53.16 22.12a8.45 8.45 0 0 1-5.81 2.14c-2.43 0-4.06-1.83-4.06-5s1.07-7.36 1.07-10c0-1.35-.7-2.08-1.84-2.08-2.09 0-5.2 2.69-7.53 5.25v1.89c0 2.29 0 5.25.21 8.15 0 .55.16 1.86.25 2.59h-5.05c.07-.76.1-2 .1-2.5 0-1.83.06-3.42.12-5.34-1.17 1.68-2.4 3.54-3.23 4.67l-2.86-4c1.72-2.1 4.58-5.77 6.4-8.36l.09-1.62-5.32.67-.46-4.67h3c.83-.06 1.94-.15 3.08-.33.06-.95.09-1.71.09-2a16.78 16.78 0 0 0-.15-3l5.35.16c-.22.94-.47 2.47-.71 4.3l1.15 1.45c-.4.51-1.11 1.58-1.66 2.38v.09c2.39-2 5.68-4.18 8.54-4.18 3.54 0 5.11 2.1 5.11 4.7 0 3.17-1 7.2-1 10.37a.92.92 0 0 0 1 1 5.83 5.83 0 0 0 3.53-2zm18.48-22.55c-.22.92-.46 2.05-.65 2.9s-.34 1.65-.52 2.44c.8-.06 1.51-.09 2.06-.09 3.5 0 5.81 1.65 5.81 6.16 0 3.54-.4 8.4-1.69 11.08-1.05 2.17-2.83 2.93-5.32 2.93a17.83 17.83 0 0 1-3.69-.43l-.8-4.82a19.09 19.09 0 0 0 3.72.64 2.06 2.06 0 0 0 2.06-1.16c.77-1.49 1.14-4.94 1.14-7.75 0-2.19-.92-2.47-2.83-2.47-.34 0-.86 0-1.41.06-1.23 4.7-3.51 12-6.09 16.12l-4.83-1.93c2.89-3.87 4.86-9.52 6-13.64l-1.91.28c-1 .12-2.74.36-3.75.55l-.4-4.95a34.83 34.83 0 0 0 3.54 0c.89 0 2.15-.12 3.5-.21a29.6 29.6 0 0 0 .58-6.32zm10.82 3.24a55.23 55.23 0 0 1 4.92 10.86l-4.7 2.17c-.74-3.51-2.77-8.88-5-11.69l2.68-1.1a38.71 38.71 0 0 0-2.09-3.72l2.89-1.16c.77 1.13 1.84 3.11 2.4 4.18zm2-.74a34.76 34.76 0 0 0-2.43-4.21l2.89-1.16a42.57 42.57 0 0 1 2.43 4.15zm17.53-2.32a22.14 22.14 0 0 0-.13 2.42v10.37c0 .76.06 2.05.13 2.84h-5.54c0-.61.15-1.92.15-2.87V22.68c0-.58 0-1.65-.12-2.42zm14.11-.26c-.06.92-.12 2-.12 3.29v6.66c0 6.13-1.45 9.18-3.79 11.63a19.23 19.23 0 0 1-7.53 4.42l-3.9-4.09a14.52 14.52 0 0 0 7.56-3.72C526.54 36 527 33.81 527 29.6v-6.32a22.81 22.81 0 0 0-.22-3.29zm34.9 3.13a16.24 16.24 0 0 0-1.26 2.23 47.64 47.64 0 0 1-4.65 8.06 81 81 0 0 1 8.37 8.51l-4.28 3.69a61.4 61.4 0 0 0-7.34-8.36 40.87 40.87 0 0 1-11.28 8.33l-3.87-4A34.24 34.24 0 0 0 555.41 33a22.38 22.38 0 0 0 4.31-6.9h-9.57c-1.38 0-3.07.19-3.93.25v-5.23a37.22 37.22 0 0 0 3.93.24h10.27a13.26 13.26 0 0 0 3.69-.45zm35.69 1.41a15 15 0 0 0-1.19 2.5 35.47 35.47 0 0 1-4.09 7.9c1.13.74 2.15 1.41 2.92 2l-3.39 4.36c-.73-.64-1.75-1.4-2.85-2.2a28.88 28.88 0 0 1-10.92 7.3L579 42.63a25.55 25.55 0 0 0 11.06-6.41 105.11 105.11 0 0 0-5.16-3.17l3.17-3.54c1.5.79 3.38 1.8 5.22 2.87a19.5 19.5 0 0 0 2.77-5.59h-7.9a38.6 38.6 0 0 1-8.09 7.82l-4-3.08a29 29 0 0 0 9.75-9.86 16.19 16.19 0 0 0 1.6-3.67l5.38 1.64c-.68.95-1.38 2.14-1.84 2.93h5.1a11.85 11.85 0 0 0 3-.39zm25.28 16.6a22.24 22.24 0 0 0 .31 4.42h-5.91a39 39 0 0 0 .25-4.42V32a56.61 56.61 0 0 1-10 3.85l-2.65-4.49a45.56 45.56 0 0 0 14.11-5.49 31.68 31.68 0 0 0 8-7l4 3.57a52.42 52.42 0 0 1-8.11 6.56zM668 24a16.5 16.5 0 0 0-1.26 2.22 47.82 47.82 0 0 1-4.64 8.06 81.83 81.83 0 0 1 8.36 8.52l-4.28 3.69a60.13 60.13 0 0 0-7.34-8.36 41.27 41.27 0 0 1-11.29 8.33l-3.87-4a34.12 34.12 0 0 0 12.57-8.58 22.35 22.35 0 0 0 4.32-6.88H651c-1.39 0-3.08.18-3.94.24V22a35 35 0 0 0 3.94.25h10.27a14 14 0 0 0 3.44-.4c-.43-.82-.92-1.68-1.38-2.38l2.89-1.16a43.49 43.49 0 0 1 2.39 4.18l-1.72.73zm1.84-1.41a37.63 37.63 0 0 0-2.43-4.21l2.89-1.16a42.57 42.57 0 0 1 2.43 4.15zm30.98 22.94c-.37-1-.83-2.16-1.36-3.38-5.07.61-13.89 1.49-17.61 1.89l-3.08.39-.86-5.4h4.12c1.78-4.58 4.18-12.24 5.1-15.5a25.05 25.05 0 0 0 .8-3.85l5.91 1.19c-.46 1-1 2.32-1.45 3.73-1 3-3.29 10-4.76 14 3.29-.3 6.94-.73 9.77-1.06a34.06 34.06 0 0 0-2.92-5.16l4.68-1.89a97.7 97.7 0 0 1 6.7 12.84z"/></g></g></svg>