<svg xmlns="http://www.w3.org/2000/svg" viewBox="0 0 631.01 155.53"><defs><style>.cls-1{fill:#85cbcb}</style></defs><title>sp-text1</title><g id="Layer_2" data-name="Layer 2"><g id="SVG"><path class="cls-1" d="M463.23 41.14c.24-.12.1-.42-.57-.36l-.48.5zm-4.52-.92c-.79.24-1.7.67-1.19 1.12.78-.47 1-.27 1.81-.84.67-.06 1.17.16 1.06.34.24-.13 1.05.11 1.41-.2a4.71 4.71 0 0 0-3.14-.08c-.25-.11-.01-.24.05-.34zM393 39.45l.43.06a2.34 2.34 0 0 0-.43-.06zm-40.67-.27c.31 0 .44-.06.45-.11-.28.03-.52.06-.45.11zm-6.95-.55h.41a.75.75 0 0 0-.41 0zm47.62.82l-1.08-.16c-.06.17.57.12 1.08.16zm56.65 1.97a2.34 2.34 0 0 0 .59-.13l-.56.05a.26.26 0 0 1-.03.08zM411 39.05h.33a2.83 2.83 0 0 0 .28-.2zm13.73-.05c-.31 0-.42.4-.54.59a1.14 1.14 0 0 1 .68-.29.4.4 0 0 0-.14-.3zm21.83.71l.39-.05zM401.11 39a.24.24 0 0 0-.13-.15s.02.06.13.15zM16 42.13a.21.21 0 0 0 0-.08c-.06.04-.08.07 0 .08zM.06 40h.23a.93.93 0 0 0 0-.23zm332.6-1.91h.06c.33-.04.15-.03-.06 0zm-116.73.31c1.32.38-2.15.49-.16.9-.19-.16 1.81-.65.16-.9zm233.36 2.97h-.56a5.1 5.1 0 0 0 .56 0zM215.77 39.3h.2zm87.59-.96a.86.86 0 0 0 .3.19s-.07-.1-.3-.19zm21.83.6h-.54a2.91 2.91 0 0 0 .54 0zm-33.19 0a2.21 2.21 0 0 0-.79 0l.12.05a1.08 1.08 0 0 1 .67-.05zm-11.76 0l.21.09h.38zM51.87 41.92a1.63 1.63 0 0 1-.54-.38c.18.3-1.55.46.54.38z"/><path class="cls-1" d="M449.64 41.18a.45.45 0 0 1-.35.19h.39c.04-.09.05-.15-.04-.19zm-158.09 1.09l-1.87-.07c.52.04 1.2.07 1.87.07zm-155.05-.41h-.43a1 1 0 0 0 .43 0zm147.62.41a4.29 4.29 0 0 0-1.06-.3.9.9 0 0 0-.22.11zm-232.8-.73z"/><path class="cls-1" d="M39 42.54c1.79 0 .84-.54 1.22-.86 2.13-.16 1 .41 1.71.69 1.33-.15 2.35-.65 3.34-.63.08.09.27.12 0 .24 1.41-.44 4.18 0 5.82-.58a.49.49 0 0 1 .21.14.82.82 0 0 1-.25-.76c.8 0 1.49-.35 1.79 0a1.09 1.09 0 0 0-.76.25l.84-.16c.75.52-1.15.18-1.15.57a28.4 28.4 0 0 1 4.8-.46c.26.51-2.93.18-1.26.63l-1.94-.2c1.48.81-1.18-.05.18.81 2.55.15 2.86-.26 5.4-.11.58-.29-.19-.42.39-.71 3.62-.5 2.85 1.29 5.51.61a3 3 0 0 1 2.85-.65l-.65.58c2.47.06 1.41-.83 4-.44-.46.23-1.94.19-1.57.26 1.68.45 1.19-.33 2.47-.33l.27.51c2.63-.08 5.53-.45 8.44-.54-.16.15-.66.31 0 .47a76.74 76.74 0 0 1 11.38.36l1.36-.44c.31 0 .58.2.24.29 1.38.16.07-.28.74-.46s1 .26.54.39c2.44-.37 6.94-.8 9.51-.33l-.5.13c2 .18 2.26-.9 4.11-.49l-.35.07c4.34.19 9.13-.21 12.44.46.63-.64 4.3.28 4.58-.61a30.27 30.27 0 0 0 5.26.9c.93 0 1.39-.56 2.54-.65v.46l1.56-.48.93.53 1.08-.12c-.43 0-.92-.21-.85-.34 1.69-.21 4.12.32 4.16.56l4-.39c-.09.19-.76.25-1.28.37 2.13-.47.38.49 2.34 0-.27-.1.14-.27.18-.37a18.3 18.3 0 0 0 4.83.17l-.31.32c3 .08 6.25-.16 9.57-.15-1.19-.15-.92-.7.06-.75l.39.48c.63-.3-1-.18.27-.55 1.25.06.84.56.13.72l1.51-.17c.08.14-.27.22-.36.4.62-.3 2.6.49 3.5 0l.08.14c3.33 0 4.84-.16 7.54-.19.06-.42 1.12-.32 1.92-.66 2 .13 4.2.46 6.6.43 1.69-.21.49-.36 1.25-.61.12.38 2.52.35 1.28.62 2.88-.06 3.67-.07 7.31-.39-.39-.15-.84-.22-.61-.35.66-.07 1.51.16 1.41.34h-.17c4.08-.57 9.43 1.12 12.68.32h-.18l3.37-.42c1.55.07-.93.29.22.53 3.64-.64 5.75.09 8.75-.33 2.32 1.13 8.23-.08 11.36.64l-.18-.27c.81-.26 1 .16 1.58.22-.09-.21-.88-.24-.38-.39 6.86-.32 14.15.39 21.18.63 2.57.07 1.46-1.38 4.7-.74l-.92.49c5.19-.59 10.61 0 15.69-.48-.31.11-.31.26-.81.26 1.07.36 4 0 4-.27.8 0 .19.26.67.41 1.08.21 2.71-.46 3.28-.1.09.06-.3.12-.5.14.7-.17 3.27 0 2.59-.37 1.91.2 3.65-.18 5.17.06 1-.46 3.26.23 3.58-.43-.14.68 3.34.55 4.55.23-.41.2 1 .21.57.5 1.38 0 2.64-.14 2.4-.49 2.53.81 5.09-.65 6.52.39 4.08-.37 7.86-.61 11.54-.77-.13.67-4.06.07-3.91.78 3.49-.28 5.5-.86 9-.7.89.09-.51.29-.81.41 3.48-.28 6.73.06 9.83-.31 0 .06-.34.13-.66.19.61 0 1.42.09 1.36-.21l-.6.08c-1-.45 2.43-.93 2.53-1.17-1 .88 3.07.22 1.42 1.34.4-.06.91-.21.81-.41.6.06.79.18.18.41 2.19-.17 1.41-.49 3.4-.49 0 .15-.41.21-.61.39a9.31 9.31 0 0 1 3.68-.46c-.1.09.1.21-.4.21 2.87-.05 4.9-.78 8.06-.5-.93.65 1.07.22 1.24.78l1.69-.17-.68-.27c1.49 0 2.8-.4 4.08-.22l-1.1.23 2.78-.1-1.65-.08c1.5-.28-.17-.7 1.81-.55a16.1 16.1 0 0 1 2.27.34 6.44 6.44 0 0 1 2.59-.23c.29.18-.23.62 0 .74.72-.47 3.48-.13 4.4-.63-.31.12-.32.41-.22.47l.61-.38c.68.13.79.18.67.42 2.08.07-.65-.71 1.8-.41-.19 0-.1.09-.5.15 2.47.16 4.77-.24 7 0 .67.56-2 .13-1.21.61 3.27-.1 6.77-.68 9.94-.54l-.59-.07c.43-.79 2.35.4 4 0-.39.06-.51.44-.4.35a62.28 62.28 0 0 0 7.71-.44l-.4.2c1.27.19 3.36.11 4.74.2.41-.2 1.2-.17.72-.47 4.26 1.17 8.12-.62 11.89.35-.45 0-1.07.18-.71.18l3.21-.19c-.25-.35-.42-.21-1.09-.48a5.73 5.73 0 0 1 2.11-.36c-1.45.23 0 .55.64.75-.11-.11.11-.23.05-.34 1.68.62.28-.69 2.58-.28l-.12.18a15.2 15.2 0 0 1 2.57-.28c.39.4-.91.19-1 .52 1.3 0 2.56-.76 3.74-.36-.55.11-1.35.11-1.9.22a5.65 5.65 0 0 0 2.39.43h-.1l2.2.21-.56-.12c1.63-1 3.32-.2 5.51-.88-2.13.65-.35.37-.52.83.56.12 1.41.27 1.17.39 1-.36 1.73.29 3.19-.24.07.14 1.11 0 .88.38 1.34-.12-.32-.26-.21-.44 2.08-.5 4.88.61 7.87-.08 2.57-.28 3-.77 5.44-1 .81.23-.66.53-.66.53a10.61 10.61 0 0 0 3.51 0c-.25.13 0 .24.38.4 1 0 .65-.53 2-.32a3.14 3.14 0 0 1-1 .59c1.16-.13 2.3-.41 3.5-.54.32.26-.72.39-1.14.56 1.35-.12 3.49-.24 3.91-.64l-.87-.14c.5 0 .26.34-.11.42-1.15.31-1.66-.14-1.73-.29l.86-.09c-.88-.86-3.44.13-5.16.08l.72-.62-1.77.52c-.37-.16-.63-.51.22-.61-1.23-.3-1.09.23-2.15-.12-.12 0-.07-.08 0-.11l-1.2.19c.23-.13-.2-.44.54-.35-2.17-.36-3.49.47-4.31 0h.18c-3 .21-.29.45-2.54 1l-1.51-1.13-.3.46c-.31 0-.92 0-.81-.23-1.15.31.2.19-.47.49-1.49-.42-4.11.2-4.45-.53-.53.34 1.43.26-.16.51-.46-.79-1.84.13-3.2-.23.42-.4 1.71-.19.34-.55-.82.68-2.65-.15-3.8 0-.05.54-2.5.23-4.42.41.12-.18-3.63-.3-5.42-.5l.05-.09c-.35.55-2.2.45-3.54.56 0-.33.29-.46 1-.61h-1.27a3.45 3.45 0 0 1-1.51.33l.32-.41c-1.69 0-3.4.48-5.56.21-.13.38 1.72 1.07-.57 1.32-.09-.2-.17-.56.43-.64a3.23 3.23 0 0 1-1.1.08l.92-.35c-1-.15-.52.29-1.31.26 0-.3-.58-.21-.47-.45.2 0 .69.13 1 0a6.84 6.84 0 0 1-2.32-.45c.08.17 0 .4-.65.43-1.69 0-.58-.35-1.56-.5-.41.2-1.49 0-1.51.43a1 1 0 0 1-.78-.33c-.87.2-4.07.06-3.09.53h.22-.14c-2.86.44-5.94-.25-8.77-.06v-.15a43.29 43.29 0 0 0-5 .42c-.51 0-1.19-.27-1-.45a9.91 9.91 0 0 1-3.31 0c1.3-.25-.45-.22 1.33-.18a9.36 9.36 0 0 0-3.87 0c.62-.38-1.26-.48-2.06-.37l1.18.27a22.86 22.86 0 0 1-2.49 0l.44-.5c-3.45-.6-6.21 1-8.83 0-.91.35 1.87.25 1.05.65a27.9 27.9 0 0 1-3.72-.78c-2.17-.28-2 .73-4.3.54.29.18.57.65-1.13.82-1.58-.07-1.94-.75-.94-.89.38 0 .56 0 .54.1.51-.06 1.19-.14.56-.33l-.21.18c-.78-.19-3-.17-2.45-.46-1.2.17-.51.29.37.39-2-.26-3.17 0-5.26-.19.33.1.64.31.31.31-3.07-.22-1.35.34-3.43.42-1.18-.28.42-.65-1.67-.43-1.28-.18-.27-.47.24-.61-1.91.34-3.57-.23-4.65-.29l1-.14a11.27 11.27 0 0 1-1.54.1l.57.35c-.59-.06-1.09-.06-1.08-.21-.61.24.47.59-.74.91-.78-.18-2.39.2-2.66-.28 2.47.16-.28-.47 1.82-.55a6.14 6.14 0 0 1-1.49 0c-.09-.06.08-.1.24-.13-2.36-.42-1.08.53-3.53.52.31-.26-.57-.5-1-.44 1 0 .47.44-.44.64a9.82 9.82 0 0 0-2.53.13l.94.1c-.32.27-1.1.23-2.2.32-.09-.21 1-.15.61-.24-1.22.47-2.75-.48-4.45-.17-.79-.18-.08-.5-.77-.62-1.9.35-2.06-.36-4.05-.08.57.36.67.27-.73.62l3.28-.25-2.11.52c1 0 2.09-.23 2.69-.17-1 .3-.9.21-.43.5-1.35-.53-2.69.32-4.26 0l.05-.88c-2.36-.4-4.19.45-7.25.23l1 .15c-.42.36-1.89 0-2.89.2.1-.3-.52-.41-.95-.59 0 .22-2.24 0-2.52.57l-1.36-.39c-2.47-.16-2.82.84-5.2.74.72-.32-.36-.53 1.23-.76-.8 0-1.51-.06-1.52.15-.47-.19-2.2.4-2.93.12a2 2 0 0 1-1.34.41c-.09-.06 0-.14 0-.14s-1.4.19-.62.52c-2.44-.92-6.83.07-9-.72-1.73.1-3.81.19-5.39.21.1-.09 0-.15.31-.11-2.17-.28-1.34.85-3.8.54-1.27-.48 1.31-.26.52-.44-.34-1-3 .13-4.64-.44l.4-.06c-1.27-.33-3.09.37-5.17.3 0 0 .1-.08 0-.14a29.92 29.92 0 0 1-6.1.8c.62-.38.9-.21.52-.59-.89 0 .27.62-1.52.73-.58-.21-1.87-.39-2-.81h1.69c-.87-.53-2.18 0-3.07-.07l.11-.24c-2.58.08-2.61.67-5.39.63l.29.17c-1.51.59-1.27-.33-2.78.11L244 39c-1 .14-3.5.57-5.3.68a29.12 29.12 0 0 1 4.42-.92 15 15 0 0 0-3.89.33 3.84 3.84 0 0 1 1.3-.11 13.4 13.4 0 0 1-4.79.68c.35-1.14-5.15-.28-6.58-1.18-3.5.43-6.94-.18-11-.11 1.45.89-1.18 0-.93.94a4.12 4.12 0 0 1-1.4 0l-2.87-.55c-.68-.27.9-.2.81-.41-2.07-.07-.87-.39-2.24-.63.28.33-.72.47-1.91.34l1.67.43c-2.9.48-2.51-.77-5.43-.29l.92-.29c-1.5.17-5.54 0-7 .73-.26-.1-.61-.35 0-.42-3.59-.11-8 .78-10.77.33l.27-.22c-.67.06-1.17.42-2 .19 0-.09.27-.22 0-.24a9 9 0 0 1-2.67.27l.76-.26c-3.5-.29-5.37.62-8.3.77 0-.66-2.75-.87-4.12-1l.05-.09c-4.08-.08-6.92.54-10.69.8-2.35-.71-7.94-.3-11.7-.7.58.12-.09.52-.76.58-.89-.13-2.44.46-2.3-.14h.31c-.66-.6-2.48-.44-3.9-.46l-.23.8c-3.71-1.16-9.71.42-11.74-.61-.89.2-2 .19-2.89.39l.05-.42c-2.48-.11-3.71-.16-6.78-.06l.63-.31c-1.73 0-2.18 1.23-3.78 1.25l-.48-.63c-3 0-6.06-.55-9 0 0-.1.13-.28.62-.31-1.42 0-5.49-.42-5 .45 0-.57-3.11-.06-4.74.19l.25-.42a7.7 7.7 0 0 1-3.33.83c-.46 0-.4-.33.2-.23-1.51-.22-1.18.4-3 .18l.69-.27a3.84 3.84 0 0 0-2.29.42c-1 .17-3-.1-3.19-.48a2.81 2.81 0 0 1-2 .43c-.12-.15.21-.23.38-.28-2.6-.28-3.87.49-5.67.08 0-.14-.15-.21-.3-.25 2.07 0 3.74 0 3.58.06 0-.38-1.67-.45-.34-1a18.74 18.74 0 0 1-5.27.74.77.77 0 0 1-.21-.14h.16a3.47 3.47 0 0 0-1 .06 10.52 10.52 0 0 0-1.35-.11c-.19-.32-1.92-.17-2.75-.19.07.42-1 .35 0 .7-.13 0 .16-.05.71-.07a1.71 1.71 0 0 0 .36 0h-.06 2.08a3.84 3.84 0 0 1-2.27.16c-.43.27-.9.55-1.17.68-1.14-.59-3.34-.91-3.65-1.27-2.54.24-6 .16-7.6 1-.72.1-.83-.23-1.1-.35a7.61 7.61 0 0 0 1.14-.18c-1.45.2-4.29.08-4.64.63-1.82-.25 1-.51-1.48-.42l.34-.17c-4.93-.88-8 1.41-13.49.28.38.07.57.1.64.19-6.23-.5-12.85.47-19-.32a5.83 5.83 0 0 0-3 .46l-.37-.45-1.83.52c-2.59.38-4.48-1.11-7.76-.39l.43.31c-1.18-.06-3.73.18-3.54-.17a.91.91 0 0 1-.84.15v-.23L6 39.64c-2.24-.17.35-.94-2.92-1-1.21.09-3.46.69-3 .85s1.25.14 1.29.38L.29 40c-.21.7-1.06 1.42 1.67 1.91l1.9-.43.61.34h-1.6A2.91 2.91 0 0 0 5 41.69a1.28 1.28 0 0 0 .8.37l1.86-.66c.23.27-.83.54.42.69.87-.31-.84-.61.61-.81.91.31.64.57 1.71.3.15.18-.08.29-.5.37.95-.21 2.52-.09 3-.46.95.39 3.21-.1 3.11.56a9 9 0 0 1 2.55-.55c-1.59.79 3.27 0 2.85.9 1.18-.71 4.26-.32 6.35-.71a1 1 0 0 1-.53.13 12.31 12.31 0 0 1 2.28.41c.15-.59 2-.72 3-1.08 1.44.56-.88.69-.43 1.23-.07-.48 2.51-.47 2-.87 1.1.35 1 .17 1.52.66.19-.74 1-.13 1.94-.58 1.6.36.41.69 2.17.47.83.22-.71.48-.71.48zm41.71-1.27h-.86zm3.5 0h-1.52c-.12-.15 0-.3.37-.29-.21.08.61.16 1.13.28zm-7.41-2.92c.56-.06.74 0 .82.11h-1.07a.56.56 0 0 1 .23-.12z"/><path class="cls-1" d="M75.78 38.89a1.29 1.29 0 0 1-.23 0l.34.1.19-.13zm317.74.63h-.07a.52.52 0 0 1 .15.06.28.28 0 0 1-.08-.06zm-260.93 2.55v-.11l-.31.1.31.01zM412.83 41a.55.55 0 0 0 .25.1.83.83 0 0 0-.25-.1zm8.34.06l1.17.15c-.51-.08-.88-.13-1.17-.15zm6.41.21a.4.4 0 0 0 .12-.18zm-101.95.5h-.24c-.58.1-.19.06.24 0zm30.37-.99c-.32.08-.64.15-1 .2.54.02 1 .02 1-.2zm-2.42.22a4.52 4.52 0 0 0 1.42 0 7.49 7.49 0 0 0-1.42 0zm101.79.46h.3a.1.1 0 0 1 0-.07zm.34-.05h.34c-.15-.05-.29-.05-.34 0zm1.07-.16l-.73.11a1.32 1.32 0 0 0 .73-.11zm-9.9.02l-.1.15a.21.21 0 0 0 .1-.15zm-2.58.04a12.6 12.6 0 0 0 2.4.23l.08-.12c-.4.23-1.9-.37-2.48-.11zm-10.77-1.89l2.16.12c-.37-.16-.87-.38.11-.42-2.72-.48.56.37-2.27.3zm-6.7-.24c1.16-.07 0-.23.05-.32-.74.14-.88.14-.05.32zm-48.43 0l.12-.38c-.9.05-.01.2-.12.38zm-9.26 1.99l.87.23.42-.35-1.29.12zm-5.47-2.74l.39-.05-1.49.14 1.1-.09zm-81.34.14l.27.47c.61-.04.74-.61-.27-.47zm-35.11.48a2.78 2.78 0 0 0-2-.16 18.85 18.85 0 0 0 2 .16zm-105.31-.77l.7-.16-1.33.13.63.03zm184.96.87c-.16.13-.07.42.37.36l.31-.49zm2.97.92c.51-.24 1.11-.67.78-1.12-.52.47-.64.28-1.19.84-.45.06-.77-.16-.7-.34-.16.13-.69-.11-.92.2a2.13 2.13 0 0 0 2.06.09c.13.11 0 .26-.03.33zm43.16.77l-.28-.06a.77.77 0 0 0 .28.06zm26.68.27c-.2 0-.29.07-.3.11.19-.03.35-.06.3-.11zm4.56.55h-.27c.11.01.21.04.27 0zM373 40.84l.72.16c.01-.16-.41-.12-.72-.16zm-37.22-1.97a1.2 1.2 0 0 0-.39.13h.37s.01-.1.02-.13zm25.4 2.37H361a1.29 1.29 0 0 0-.19.21zm-9.04.08c.21 0 .28-.4.36-.59a.63.63 0 0 1-.45.29.59.59 0 0 0 .09.3zm-14.33-.74l-.26.06zm29.84.76a.53.53 0 0 0 .08.15.19.19 0 0 0-.08-.15zm252.84-3.17a.16.16 0 0 0 0 .07s.07-.07 0-.07zM631 40.25h-.15a2.08 2.08 0 0 0 0 .23zM412.59 42.2c-.25.04-.13.03 0 0zm76.65-.31c-.87-.38 1.41-.48.1-.9.13.16-1.18.66-.1.9zM336 38.93h.37a1.37 1.37 0 0 0-.37 0zM489.34 41h-.13zm-57.51 1a.61.61 0 0 0-.2-.19c.01 0 .05.05.2.19zm-14.33-.65h.35a1.72 1.72 0 0 0-.35 0zm21.77 0a1.07 1.07 0 0 0 .52 0h-.08a.53.53 0 0 1-.44 0z"/><path class="cls-1" d="M447 41.35l-.15-.08h-.24zm150-2.98a1.27 1.27 0 0 1 .36.38c-.17-.3.97-.41-.36-.38zm-261.21.74a.26.26 0 0 1 .23-.18h-.26c-.02.07-.03.14.03.18zM439.59 38l1.23.06a11.38 11.38 0 0 0-1.23-.06zm101.8.43h.28a.42.42 0 0 0-.28 0zM444.47 38a2.07 2.07 0 0 0 .69.29s.11-.06.14-.11z"/><path class="cls-1" d="M605.42 37.75c-1.17 0-.55.54-.8.86-1.4.16-.65-.41-1.12-.69-.88.15-1.55.66-2.2.63 0-.09-.18-.12 0-.23-.92.44-2.74 0-3.82.57a.36.36 0 0 1-.14-.14 1.1 1.1 0 0 1 .17.76c-.53 0-1 .35-1.17 0 .32 0 .34-.13.5-.25l-.56.16c-.49-.52.76-.18.76-.57a12.54 12.54 0 0 1-3.15.46c-.17-.51 1.92-.17.82-.63l1.28.2c-1-.81.77.05-.12-.81-1.68-.14-1.88.26-3.55.12-.37.28.13.41-.25.7-2.38.51-1.87-1.28-3.62-.61-.45.34-.62 1-1.87.65l.43-.58c-1.63-.06-.93.83-2.63.44.3-.22 1.28-.19 1-.26-1.1-.45-.78.33-1.62.33l-.18-.51c-1.73.08-3.63.45-5.54.54.1-.15.43-.31 0-.47a33.3 33.3 0 0 1-7.48-.36l-.88.44c-.21 0-.39-.2-.16-.28-.91-.17 0 .27-.49.45s-.68-.26-.35-.39c-1.6.38-4.56.81-6.25.33l.33-.13c-1.31-.17-1.48.91-2.7.5l.24-.08c-2.85-.19-6 .21-8.18-.45-.41.63-2.82-.29-3 .6a13.46 13.46 0 0 0-3.46-.89c-.61 0-.91.55-1.66.64v-.46l-1 .48-.55-.55-.71.12c.29 0 .6.21.56.34a3.81 3.81 0 0 1-2.73-.56l-2.62.39c.06-.18.49-.25.84-.37-1.4.48-.25-.48-1.54 0 .18.1-.09.27-.12.37a8.13 8.13 0 0 0-3.17-.17l.21-.31c-2-.09-4.1.15-6.29.14.78.15.6.7 0 .76l-.25-.49c-.42.3.67.18-.18.55-.82 0-.55-.55-.08-.71l-1 .17c-.06-.15.17-.23.23-.41-.41.3-1.71-.49-2.3 0l-.05-.14c-2.19 0-3.18.16-4.95.19 0 .42-.73.33-1.26.67a30.8 30.8 0 0 0-4.34-.43c-1.1.21-.32.35-.82.6-.08-.38-1.65-.34-.83-.62a37 37 0 0 0-4.81.39c.26.16.55.22.4.36-.43.06-1-.17-.92-.35h.11c-2.68.58-6.19-1.12-8.33-.32h.12l-2.21.42c-1-.07.61-.29-.14-.53-2.39.64-3.78-.09-5.75.34-1.52-1.14-5.4.08-7.46-.65l.12.27c-.53.26-.64-.15-1-.21.05.2.57.24.24.38-4.5.32-9.29-.39-13.9-.63-1.69-.07-1 1.38-3.09.74l.6-.49c-3.4.59-7 0-10.29.48.19-.11.2-.26.52-.26-.7-.36-2.6 0-2.61.28-.52 0-.12-.27-.44-.42-.71-.21-1.77.46-2.15.1-.06-.06.2-.11.33-.14-.46.17-2.15 0-1.71.37-1.25-.2-2.39.18-3.39-.06-.65.46-2.14-.23-2.35.43.09-.68-2.19-.55-3-.23.26-.2-.69-.21-.38-.49-.9 0-1.73.13-1.57.48-1.67-.81-3.35.65-4.29-.39-2.68.37-5.16.61-7.57.77.08-.67 2.66-.06 2.56-.77-2.29.27-3.61.86-5.88.69-.59-.09.33-.29.53-.41-2.28.28-4.42-.06-6.45.31 0-.06.22-.13.43-.18-.4 0-.93-.1-.89.2l.39-.08c.64.45-1.59.93-1.66 1.17.68-.88-2-.22-.93-1.34-.27.06-.6.21-.54.41-.39-.06-.51-.18-.11-.41-1.44.17-.93.49-2.23.49 0-.15.26-.21.4-.38a4.14 4.14 0 0 1-2.42.45c.06-.09-.06-.21.27-.2-1.89 0-3.22.77-5.3.49.61-.65-.7-.21-.81-.77l-1.12.16.45.27c-1 0-1.84.4-2.68.22l.73-.23-1.83.11 1 .21c-1 .29.11.71-1.19.55.27-.06-1 0-1.48-.34a2.85 2.85 0 0 1-1.7.23c-.19-.18.15-.62 0-.74-.48.47-2.29.13-2.89.63a.37.37 0 0 0 .14-.47l-.4.38c-.45-.12-.52-.18-.44-.42-1.36-.07.43.71-1.18.41.12 0 .06-.09.33-.15-1.63-.16-3.14.24-4.63.06-.44-.57 1.31-.14.8-.62-2.15.11-4.45.68-6.52.55l.38.06c-.28.79-1.54-.4-2.6 0 .26-.06.34-.44.27-.35a27.15 27.15 0 0 0-5.07.44l.27-.2c-.84-.18-2.21-.11-3.11-.2-.27.2-.79.17-.48.47-2.79-1.17-5.33.62-7.8-.35.29 0 .7-.18.47-.18l-2.12.19c.17.35.28.21.72.48a2.54 2.54 0 0 1-1.38.37c.95-.23 0-.56-.42-.75.07.1-.07.22 0 .33-1.1-.62-.18.69-1.69.28l.08-.18a6.71 6.71 0 0 1-1.69.28c-.25-.4.6-.19.64-.52-.85 0-1.69.76-2.46.36.36-.11.89-.11 1.25-.22a2.76 2.76 0 0 0-1.57-.43h.07L353.1 39l.37.13c-1.07 1-2.18.19-3.62.87 1.4-.65.24-.37.34-.83-.37-.12-.92-.26-.76-.39-.68.36-1.14-.29-2.1.24 0-.14-.73 0-.57-.38-.89.12.2.26.13.44-1.36.5-3.2-.6-5.16.08-1.7.28-2 .78-3.58 1-.53-.23.44-.53.44-.53a4.64 4.64 0 0 0-2.31 0c.17-.13 0-.23-.25-.4-.64 0-.43.53-1.28.32a2.18 2.18 0 0 1 .64-.59c-.76.13-1.51.41-2.3.54-.21-.25.48-.39.76-.55-.89.11-2.3.23-2.57.63l.57.15c-.33 0-.17-.35.07-.42.76-.32 1.09.13 1.14.28l-.57.1c.58.85 2.26-.14 3.39-.09l-.47.62 1.16-.52c.24.17.41.51-.15.61.81.31.72-.22 1.42.12.07.05 0 .08 0 .11l.79-.19c-.16.13.13.44-.35.35 1.42.36 2.29-.47 2.82 0h-.12c2-.21.19-.46 1.67-1l1 1.13.19-.46c.2 0 .61 0 .53.24.76-.32-.13-.2.31-.5 1 .42 2.7-.19 2.92.54.35-.35-.93-.27.11-.51.3.78 1.21-.14 2.1.22-.27.41-1.12.19-.22.55.53-.68 1.74.15 2.49 0 0-.54 1.64-.23 2.91-.41-.08.19 2.38.3 3.55.5v.09c.23-.55 1.44-.45 2.33-.56 0 .33-.2.46-.68.61h.81a1.73 1.73 0 0 1 1-.33l-.21.41c1.11 0 2.23-.48 3.65-.21.08-.38-1.13-1.07.38-1.32.05.21.11.56-.29.65a1.31 1.31 0 0 1 .72-.09l-.6.35c.65.15.34-.29.86-.26 0 .3.38.21.31.45-.13 0-.45-.12-.65 0a3.18 3.18 0 0 1 1.52.46c0-.17 0-.4.43-.44 1.11 0 .38.35 1 .51.27-.21 1 0 1-.44.32 0 .38.21.51.33.57-.2 2.67-.06 2-.53h-.14.09c1.88-.44 3.9.25 5.76.06v.15a19.2 19.2 0 0 0 3.27-.42c.33 0 .77.27.63.45a4.34 4.34 0 0 1 2.18 0c-.86.26.29.23-.88.19a4.24 4.24 0 0 0 2.54 0c-.4.38.83.47 1.36.36l-.78-.27a9.8 9.8 0 0 1 1.63 0l-.28.5c2.26.61 4.07-1 5.79 0 .6-.35-1.22-.24-.69-.65a14.24 14.24 0 0 1 2.45.78c1.42.28 1.33-.73 2.82-.54-.19-.17-.37-.65.74-.82 1 .07 1.28.75.62.89-.25 0-.37 0-.36-.1-.33.06-.77.14-.36.33l.13-.17c.52.18 2 .16 1.61.45.79-.17.34-.29-.24-.38 1.33.25 2.08 0 3.45.18-.21-.1-.41-.31-.2-.31 2 .22.89-.34 2.25-.41.78.27-.27.64 1.1.42.84.18.18.47-.16.61 1.26-.34 2.34.23 3.06.29l-.66.15a4.35 4.35 0 0 1 1-.09l-.37-.35c.38.06.71.06.71.21.39-.23-.31-.59.48-.91.52.18 1.57-.2 1.75.28-1.62-.16.18.47-1.19.55a2.44 2.44 0 0 1 1 0c.06.05-.05.09-.16.12 1.56.42.72-.53 2.33-.52-.21.26.37.5.63.45-.65 0-.31-.45.29-.65 1 .21 1.12-.16 1.66-.13l-.62-.1c.21-.27.73-.23 1.45-.31.06.2-.66.14-.4.23.8-.47 1.8.48 2.92.17.51.18 0 .5.5.62 1.25-.34 1.35.37 2.67.08-.38-.36-.45-.27.47-.62l-2.15.25 1.38-.52c-.65 0-1.37.23-1.76.17.66-.3.59-.21.28-.5.89.53 1.76-.32 2.79 0v.88c1.55.4 2.75-.45 4.76-.23l-.64-.15c.27-.35 1.24 0 1.89-.19-.06.29.35.4.62.58 0-.22 1.47 0 1.66-.57l.89.39c1.63.16 1.86-.84 3.42-.74-.47.32.24.53-.81.76.52 0 1 .06 1-.15.3.19 1.44-.4 1.92-.11.22-.13.29-.45.88-.42.06.06 0 .15 0 .15s.91-.2.4-.53c1.61.92 4.49-.07 5.88.73 1.14-.1 2.51-.2 3.54-.22-.06.09 0 .15-.2.12 1.43.27.88-.85 2.5-.55.83.48-.86.26-.35.44.23 1 2-.13 3.05.44l-.26.06c.83.33 2-.37 3.39-.3 0 0-.07.08 0 .14a13.38 13.38 0 0 1 4-.8c-.41.39-.6.21-.35.59.59 0-.17-.62 1-.73.38.21 1.23.39 1.34.81h-1.11c.57.54 1.43 0 2 .08l-.08.23c1.7-.08 1.72-.67 3.54-.62l-.19-.18c1-.58.84.33 1.83-.11l.3.6a29.58 29.58 0 0 1 3.48-.69 13.69 13.69 0 0 1-2.9.93 6.74 6.74 0 0 0 2.55-.34 1.67 1.67 0 0 1-.85.11 6.17 6.17 0 0 1 3.14-.68c-.23 1.15 3.38.29 4.33 1.18 2.29-.43 4.55.18 7.22.11-.95-.89.78 0 .62-.94.62-.06.86 0 .91 0l1.89.55c.45.27-.59.2-.54.41 1.37.07.58.39 1.48.63-.19-.33.47-.47 1.25-.34l-1.1-.43c1.91-.48 1.65.77 3.57.29l-.61.29c1-.17 3.64 0 4.6-.73.18.1.41.36 0 .42 2.35.11 5.24-.78 7.07-.33l-.18.23c.44-.07.76-.43 1.31-.2 0 .09-.17.22 0 .24a4 4 0 0 1 1.75-.27l-.5.26c2.3.29 3.53-.62 5.45-.77 0 .66 1.81.87 2.71 1v.09c2.67.09 4.54-.54 7-.8 1.53.71 5.2.3 7.67.7-.37-.12.07-.51.51-.58.58.13 1.6-.46 1.51.15h-.21c.44.6 1.63.44 2.56.46l.15-.8c2.44 1.16 6.38-.42 7.71.61.58-.19 1.31-.19 1.89-.39v.42a30.49 30.49 0 0 0 4.45.07l-.41.3c1.14 0 1.44-1.23 2.48-1.25l.32.63c2 0 4 .55 5.94 0a.41.41 0 0 1-.41.31c.93 0 3.6.43 3.26-.44 0 .56 2 0 3.11-.2l-.16.42A3.86 3.86 0 0 1 567 41c.3.06.26.34-.14.23 1 .22.78-.4 2-.17l-.45.26a1.84 1.84 0 0 0 1.51-.42c.64-.17 1.94.11 2.09.48a1.42 1.42 0 0 1 1.31-.43c.08.15-.14.24-.25.28 1.71.28 2.54-.49 3.72-.08a.3.3 0 0 0 .2.25c-1.36 0-2.46 0-2.35-.06 0 .38 1.09.45.22 1a8.45 8.45 0 0 1 3.46-.74.62.62 0 0 1 .14.14h-.11a1.52 1.52 0 0 0 .68-.06 4.61 4.61 0 0 0 .89.11c.12.32 1.25.18 1.8.19 0-.42.67-.35 0-.7.09 0-.1.05-.47.07h-1.59a1.72 1.72 0 0 1 1.49-.16c.28-.27.59-.55.76-.68.75.59 2.2.91 2.4 1.27 1.67-.24 3.94-.16 5-1 .47-.1.55.23.72.35a3.44 3.44 0 0 0-.75.18c1-.2 2.82-.07 3.05-.63 1.2.25-.68.51 1 .42l-.22.17c3.24.89 5.26-1.41 8.86-.28-.25-.07-.38-.1-.43-.19 4.1.5 8.44-.47 12.48.32 1.15.16 1.27-.19 2-.46l.25.45 1.2-.52c1.7-.38 2.94 1.11 5.09.39l-.27-.31c.77.06 2.44-.18 2.31.18.08-.06.26-.32.56-.16v.23l1.9-.4c1.47.17-.23.94 1.92 1 .8-.09 2.27-.69 2-.84s-.82-.15-.85-.39l.73-.12c.14-.7.7-1.42-1.09-1.9l-1.25.42-.4-.34h1c-.6-.32-1 0-1.4.16a.79.79 0 0 0-.52-.37l-1.23.66c-.15-.27.55-.54-.27-.69-.58.31.55.61-.4.82-.6-.32-.43-.58-1.13-.31-.1-.18.05-.29.33-.37-.62.21-1.65.09-2 .46-.63-.39-2.11.1-2-.56a4.22 4.22 0 0 1-1.67.55c1-.79-2.15 0-1.87-.9-.77.71-2.8.32-4.17.71.08-.05.23-.17.35-.13a5.29 5.29 0 0 1-1.5-.41c-.1.59-1.3.72-2 1.09-.95-.57.58-.69.28-1.24 0 .48-1.65.48-1.32.87-.73-.35-.63-.17-1-.65-.13.73-.68.12-1.28.57-1-.36-.27-.69-1.42-.46-.51-.15.52-.4.52-.4zM578 39h.57zm-2.3 0h1c.08.14 0 .29-.24.28.16-.04-.38-.13-.73-.28zm4.9 3c-.36.06-.49 0-.54-.11l.64-.05a.43.43 0 0 1-.1.16z"/><path class="cls-1" d="M581.25 41.4a.8.8 0 0 1 .15 0l-.21-.1-.13.13zm-208.62-.63h.05a.21.21 0 0 1-.1-.06s.03.05.05.06zm171.32-2.55l.01.11.2-.1-.21-.01zM360 39.33a.26.26 0 0 0-.17-.11s.04.06.17.11zm-5.52-.1l-.77-.15a5 5 0 0 0 .77.15zm-4.21-.23a.83.83 0 0 0-.08.18zm66.94-.47h.16c.38-.1.12-.07-.16 0zm-19.92.98c.21-.07.42-.15.64-.2-.35-.03-.63-.04-.64.2zM439.45 38zm-40.59 1.32a2.09 2.09 0 0 0-.93 0 3.22 3.22 0 0 0 .93 0zM332 38.83h-.2a.09.09 0 0 1 0 .07zm-.2.05h-.22c.1.05.19.05.22 0zm-.7.12l.48-.11c-.17.04-.37.03-.48.11zm6.5 0l.07-.16a.22.22 0 0 0-.07.16zm1.7 0a6.06 6.06 0 0 0-1.58-.23l-.05.12c.26-.24 1.24.35 1.63.11zm7.06 1.87l-1.42-.12c.25.16.58.38-.07.42 1.79.49-.37-.36 1.49-.3zm4.4.24c-.76.07 0 .23 0 .33.46-.15.57-.19 0-.33zm31.8 0l-.07.38c.58-.05 0-.15.07-.38zm6.08-1.98l-.57-.24-.27.35.84-.11zm3.59 2.73l-.25.05.98-.14-.73.09zm53.41-.14l-.18-.47c-.4.09-.46.62.18.47zm23.05-.48a1.27 1.27 0 0 0 1.3.16 9.53 9.53 0 0 0-1.3-.16zm69.15.77l-.46.16.87-.13-.41-.03zm14.58 55.48c.25-.13.11-.42-.59-.36l-.5.49zm-4.72-.92c-.82.24-1.77.66-1.24 1.12.82-.48 1-.28 1.9-.85.7 0 1.22.16 1.1.35.25-.13 1.09.11 1.47-.21a5.19 5.19 0 0 0-3.28-.08c-.26-.11 0-.24.05-.33zm-68.45-.77l.44.06a1.8 1.8 0 0 0-.44-.06zm-42.42-.28c.32 0 .46-.06.47-.1-.3.03-.54.06-.47.1zm-7.24-.52h.42a.79.79 0 0 0-.42 0zm49.66.8l-1.14-.16c-.11.16.58.12 1.14.16zm59.01 1.97a3.21 3.21 0 0 0 .62-.13h-.58a.3.3 0 0 1-.04.13zm-40.32-2.38h.35a1.31 1.31 0 0 0 .28-.2zm14.35-.07c-.32 0-.43.4-.56.59a1.17 1.17 0 0 1 .71-.29.42.42 0 0 0-.15-.3zm22.76.74l.4-.06zm-47.38-.76a.31.31 0 0 0-.13-.15c0 .06.05.11.13.15zM86.31 98.47a.16.16 0 0 0 0-.07c-.08.04-.11.07 0 .07zm-16.63-2.09h.23a1 1 0 0 0 0-.24zm346.65-1.94h.06c.35-.04.15-.03-.06 0zm-121.67.31c1.38.37-2.24.48-.16.9-.2-.16 1.88-.65.16-.9zm243.23 2.96h-.59a3.51 3.51 0 0 0 .59 0zM294.5 95.65h.21zm91.3-.96a1 1 0 0 0 .31.19s-.11-.1-.31-.19zm22.75.6l-.57-.06a3.35 3.35 0 0 0 .57.06zm-34.55 0a2.35 2.35 0 0 0-.82 0 .43.43 0 0 0 .12 0 1.3 1.3 0 0 1 .7 0zm-12.31 0l.23.08h.39zm-238.01 2.98a1.81 1.81 0 0 1-.57-.38c.19.3-1.62.41.57.38z"/><path class="cls-1" d="M538.26 97.53a.44.44 0 0 1-.37.18h.41a.1.1 0 0 0-.04-.18zm-164.78 1.08l-2-.06c.6.04 1.31.06 2 .06zm-161.6-.4l-.45.05a1.06 1.06 0 0 0 .45-.05zm153.85.4a4.34 4.34 0 0 0-1.1-.29.65.65 0 0 0-.22.11zm-242.63-.72z"/><path class="cls-1" d="M110.24 98.89c1.86 0 .87-.55 1.27-.86 2.22-.16 1 .4 1.78.69 1.39-.15 2.45-.66 3.49-.64.07.1.27.13 0 .24 1.46-.44 4.35 0 6.06-.57a.41.41 0 0 1 .22.14.79.79 0 0 1-.26-.76c.84 0 1.55-.36 1.86 0a1.11 1.11 0 0 0-.79.25l.87-.16c.79.52-1.19.18-1.19.56a29.63 29.63 0 0 1 5-.45c.27.51-3.06.17-1.31.63l-2-.2c1.54.8-1.23-.06.19.8 2.66.15 3-.26 5.63-.11.59-.28-.2-.42.4-.7 3.77-.51 3 1.28 5.74.6a3.27 3.27 0 0 1 3-.64l-.68.58c2.58 0 1.47-.83 4.17-.44-.48.22-2 .19-1.63.26 1.75.45 1.23-.33 2.58-.33l.28.51c2.74-.08 5.76-.45 8.79-.54-.16.15-.68.31 0 .46a85 85 0 0 1 11.87.37l1.41-.44c.33 0 .61.2.25.28 1.44.17.08-.28.77-.45s1.08.25.56.39c2.54-.38 7.24-.81 9.92-.34l-.53.13c2.09.18 2.36-.9 4.29-.49l-.37.08c4.52.19 9.52-.21 13 .45.66-.63 4.48.29 4.77-.6a32.1 32.1 0 0 0 5.48.89c1 0 1.45-.55 2.65-.64v.46l1.63-.49.87.56 1.13-.12c-.45 0-1-.21-.89-.34 1.76-.21 4.29.32 4.34.56l4.16-.39c-.09.18-.79.25-1.34.36 2.22-.47.4.49 2.44.06-.27-.11.15-.28.19-.37a20 20 0 0 0 5 .16l-.33.32c3.09.08 6.51-.15 10-.14-1.24-.15-1-.7.06-.76l.41.49c.65-.3-1.07-.18.28-.55 1.3 0 .87.55.13.71l1.57-.17c.1.15-.27.22-.37.41.65-.3 2.72.49 3.65 0l.09.15c3.46 0 5-.16 7.86-.19.05-.42 1.16-.33 2-.67 2.07.14 4.37.47 6.87.43 1.76-.21.52-.35 1.31-.61.12.39 2.62.35 1.33.63 3-.06 3.83-.08 7.62-.39-.41-.16-.87-.23-.63-.36.68-.06 1.56.16 1.46.35h-.18c4.26-.58 9.83 1.12 13.22.32h-.19l3.52-.42c1.62.07-1 .29.23.53 3.79-.64 6 .09 9.11-.34 2.42 1.14 8.58-.08 11.85.65l-.19-.27c.84-.26 1 .15 1.64.21-.09-.2-.92-.24-.39-.38 7.14-.32 14.75.39 22.07.63 2.68.07 1.52-1.38 4.9-.74l-1 .49c5.41-.59 11.06 0 16.35-.48-.31.11-.32.26-.84.26 1.12.36 4.14 0 4.15-.28.83 0 .2.27.7.42 1.12.21 2.82-.46 3.41-.1.11.05-.31.11-.52.14.73-.17 3.41 0 2.71-.37 2 .2 3.8-.19 5.38.06 1-.46 3.41.22 3.73-.43-.14.68 3.49.54 4.74.23-.42.2 1.09.21.6.49 1.44 0 2.75-.13 2.5-.48 2.64.81 5.31-.66 6.8.38 4.25-.36 8.19-.61 12-.77-.13.68-4.23.07-4.07.78 3.64-.28 5.73-.86 9.34-.69.93.09-.53.29-.85.4 3.63-.27 7 .07 10.25-.3 0 .06-.35.13-.68.18.63 0 1.48.1 1.41-.21l-.63.09c-1-.45 2.53-.94 2.65-1.17-1.08.88 3.19.22 1.47 1.33.42-.05.95-.2.85-.41.62.06.82.18.19.42 2.28-.17 1.47-.5 3.53-.49 0 .15-.42.21-.63.38a9.9 9.9 0 0 1 3.84-.45c-.1.09.1.2-.42.2 3 0 5.11-.77 8.4-.49-1 .65 1.12.21 1.29.77l1.77-.16-.71-.28a37.94 37.94 0 0 1 4.25-.21l-1.15.23 2.9-.11-1.64-.21c1.57-.29-.17-.71 1.89-.55a17.22 17.22 0 0 1 2.36.34 7 7 0 0 1 2.7-.23c.3.18-.24.62-.05.74.76-.47 3.63-.13 4.59-.63-.32.12-.34.41-.23.47l.63-.38c.72.12.82.18.71.42 2.16.06-.69-.72 1.87-.41-.2 0-.1.09-.52.15 2.57.16 5-.25 7.34-.06.7.57-2.07.14-1.27.62 3.41-.11 7.06-.68 10.36-.55l-.61-.06c.45-.8 2.45.39 4.12 0-.41.06-.53.44-.42.35a67.62 67.62 0 0 0 8-.44l-.42.2c1.33.18 3.5.11 4.94.2.43-.21 1.25-.17.75-.47 4.44 1.16 8.46-.62 12.4.35-.47 0-1.12.17-.75.18l3.35-.19c-.26-.35-.44-.21-1.14-.48a6 6 0 0 1 2.2-.37c-1.51.23 0 .56.66.75-.1-.1.12-.22.06-.33 1.75.62.3-.7 2.69-.28l-.13.18a16.67 16.67 0 0 1 2.69-.28c.4.4-1 .19-1 .52 1.36 0 2.68-.76 3.9-.36-.57.11-1.4.11-2 .22a6.49 6.49 0 0 0 2.49.43h-.1l2.29.21-.58-.13c1.69-1 3.45-.19 5.74-.87-2.22.64-.37.37-.54.83.58.12 1.47.26 1.22.39 1.08-.37 1.8.29 3.32-.25.07.15 1.16 0 .92.39 1.4-.12-.34-.26-.22-.44 2.17-.5 5.09.6 8.2-.08 2.68-.28 3.18-.78 5.67-1 .84.23-.69.53-.69.53a12.14 12.14 0 0 0 3.66 0c-.26.12 0 .23.4.4 1 0 .68-.54 2-.32a3.75 3.75 0 0 1-1 .59c1.21-.14 2.4-.41 3.65-.54.33.25-.75.38-1.19.55 1.4-.11 3.64-.23 4.07-.63l-.9-.15c.51 0 .27.35-.11.42-1.21.32-1.74-.14-1.81-.28l.89-.1c-.91-.86-3.58.14-5.37.09l.75-.62-1.84.51c-.39-.16-.66-.51.22-.6-1.28-.31-1.13.22-2.24-.12-.12-.06-.06-.09 0-.11l-1.26.19c.25-.14-.21-.44.56-.35-2.25-.36-3.63.46-4.48 0h.19c-3.13.21-.31.46-2.65 1l-1.58-1.13-.31.46c-.32 0-1-.05-.84-.24-1.2.32.2.2-.5.5-1.55-.42-4.28.19-4.63-.54-.56.35 1.49.27-.17.51-.48-.78-1.92.14-3.34-.22.44-.41 1.78-.19.36-.55-.86.68-2.76-.15-4 0-.06.54-2.6.22-4.61.41.12-.19-3.78-.3-5.65-.5l.05-.09c-.36.55-2.29.44-3.69.56.06-.33.31-.46 1.07-.61h-1.32a3.72 3.72 0 0 1-1.58.34l.33-.42c-1.75 0-3.54.49-5.8.21-.12.39 1.8 1.07-.59 1.33-.09-.21-.17-.56.45-.65a3.17 3.17 0 0 1-1.14.09l1-.35c-1-.16-.54.29-1.36.26 0-.3-.61-.22-.49-.45.21 0 .72.12 1 0a7.37 7.37 0 0 1-2.42-.46c.08.17 0 .4-.68.44-1.75 0-.6-.36-1.62-.51-.43.21-1.55 0-1.58.44a1.11 1.11 0 0 1-.8-.33c-.91.19-4.25 0-3.23.53h.24-.15c-3 .44-6.19-.26-9.15-.07v-.14a47.2 47.2 0 0 0-5.19.42c-.52 0-1.23-.28-1-.45a10.75 10.75 0 0 1-3.45 0c1.36-.26-.47-.23 1.39-.19a10.33 10.33 0 0 0-4 0c.64-.38-1.32-.48-2.15-.36l1.23.27h-2.59l.45-.5c-3.59-.61-6.47 1-9.2 0-1 .35 1.95.24 1.1.65a30.24 30.24 0 0 1-3.89-.79c-2.26-.27-2.11.73-4.47.55.3.17.59.65-1.18.82-1.65-.07-2-.75-1-.89.4 0 .59 0 .57.1.54-.07 1.24-.14.58-.34l-.21.18c-.82-.18-3.09-.16-2.56-.45-1.25.17-.53.29.39.38-2.11-.26-3.31 0-5.49-.18.35.1.67.31.33.31-3.2-.22-1.41.33-3.58.41-1.23-.27.44-.65-1.74-.42-1.33-.18-.28-.47.25-.62-2 .35-3.71-.22-4.85-.28l1.05-.15a10.87 10.87 0 0 1-1.66.08l.6.36c-.62-.06-1.14-.06-1.13-.21-.63.23.49.59-.77.91-.82-.18-2.49.19-2.78-.28 2.58.16-.28-.47 1.9-.55a6.71 6.71 0 0 1-1.55 0c-.09 0 .09-.1.25-.12-2.46-.43-1.13.53-3.68.52.32-.27-.6-.5-1-.45 1 0 .49.45-.46.65a9.69 9.69 0 0 0-2.63.13l1 .1a6 6 0 0 1-2.3.31c-.1-.2 1-.14.63-.23-1.27.47-2.86-.49-4.63-.17-.82-.18-.08-.5-.8-.62-2 .34-2.15-.37-4.23-.08.6.36.71.27-.76.62l3.42-.25-2.19.52c1 0 2.18-.23 2.8-.17-1.05.29-.94.2-.45.5-1.41-.54-2.8.31-4.44 0l.05-.88c-2.45-.4-4.36.45-7.55.23l1 .15c-.43.35-2 0-3 .19.09-.29-.55-.4-1-.58.05.21-2.34 0-2.63.57l-1.42-.39c-2.58-.16-2.94.84-5.42.74.75-.32-.38-.53 1.28-.76-.83 0-1.57-.06-1.58.15-.49-.19-2.3.39-3.06.11a2.17 2.17 0 0 1-1.39.42c-.1-.06 0-.15 0-.15 0 .15-1.46.2-.65.53-2.54-.92-7.12.07-9.33-.73-1.81.1-4 .2-5.62.22.1-.09 0-.15.31-.12-2.26-.27-1.39.85-4 .55-1.31-.48 1.37-.26.55-.45-.36-1-3.1.14-4.83-.43l.41-.06c-1.32-.33-3.22.37-5.38.3 0 0 .1-.08 0-.15a30.94 30.94 0 0 1-6.36.8c.65-.38.95-.2.55-.59-.93.06.28.63-1.58.73-.61-.2-1.95-.39-2.13-.8h1.75c-.89-.54-2.27 0-3.19-.08l.12-.23c-2.69.08-2.73.66-5.62.62l.3.18c-1.58.58-1.33-.33-2.9.11l-.48-.6c-1 .15-3.65.58-5.52.69a31.38 31.38 0 0 1 4.6-.93 16.63 16.63 0 0 0-4.05.34 4.14 4.14 0 0 1 1.35-.11 14.67 14.67 0 0 1-5 .68c.36-1.15-5.37-.29-6.86-1.18-3.64.43-7.22-.18-11.47-.11 1.51.89-1.24 0-1 .94a4.22 4.22 0 0 1-1.45 0l-3-.54c-.71-.27.94-.21.84-.41-2.16-.07-.9-.39-2.34-.63.3.32-.75.47-2 .34l1.74.42c-3 .49-2.62-.77-5.67-.28l1-.29c-1.57.17-5.77 0-7.31.73-.27-.11-.64-.36.05-.42-3.74-.11-8.32.78-11.23.33l.29-.23a4.86 4.86 0 0 1-2.09.2c.05-.09.28-.23 0-.24a9.79 9.79 0 0 1-2.78.26l.79-.25c-3.64-.29-5.59.62-8.65.77 0-.66-2.86-.88-4.29-1l.05-.1c-4.25-.08-7.22.55-11.15.81-2.44-.72-8.26-.3-12.19-.7.6.12-.09.51-.79.58-.92-.13-2.55.46-2.4-.15h.33c-.7-.59-2.59-.43-4.07-.45l-.24.79c-3.86-1.15-10.12.43-12.23-.61-.93.2-2.09.2-3 .4v-.43c-2.59-.1-3.87-.16-7.07-.06l.65-.3c-1.8 0-2.27 1.22-3.93 1.25l-.5-.63c-3.14 0-6.32-.55-9.43 0 .05-.09.14-.27.65-.3-1.48 0-5.72-.43-5.18.44 0-.56-3.24 0-4.94.2l.26-.42a8.46 8.46 0 0 1-3.47.83c-.48-.06-.42-.34.21-.23-1.58-.22-1.23.4-3.15.17l.72-.26a4.07 4.07 0 0 0-2.39.42c-1 .17-3.09-.11-3.33-.49a3 3 0 0 1-2.06.43c-.13-.14.22-.23.39-.27-2.71-.29-4 .49-5.91.07a.39.39 0 0 0-.31-.24c2.16 0 3.9 0 3.73.06 0-.39-1.74-.45-.35-1a20 20 0 0 1-5.5.74.61.61 0 0 1-.22-.13h.17a3.4 3.4 0 0 0-1.07.06 13.88 13.88 0 0 0-1.41-.12c-.2-.31-2-.17-2.87-.18.08.42-1.06.35 0 .7-.13 0 .17 0 .75-.07a3.22 3.22 0 0 0 .37 0h-.06 2.16a4.18 4.18 0 0 1-2.37.16c-.44.27-.93.55-1.21.68-1.19-.59-3.48-.91-3.8-1.27-2.66.23-6.26.15-7.93 1-.75.1-.87-.23-1.15-.36a5.9 5.9 0 0 0 1.19-.18c-1.51.21-4.47.08-4.83.64-1.9-.25 1.07-.51-1.54-.42l.35-.17c-5.14-.89-8.36 1.41-14.06.27.39.07.59.11.67.2-6.5-.5-13.39.47-19.81-.32a6.27 6.27 0 0 0-3.13.46l-.39-.46-1.91.53c-2.69.38-4.67-1.11-8.08-.39l.44.3c-1.23 0-3.89.18-3.68-.17a1 1 0 0 1-.88.16v-.24l-3 .41c-2.34-.17.36-.94-3.05-1-1.26.09-3.6.69-3.13.85s1.31.15 1.35.39l-1.16.12c-.21.7-1.1 1.41 1.74 1.9l2-.42.64.33h-1.67a3.26 3.26 0 0 0 2.44-.2 1.43 1.43 0 0 0 .83.37l1.95-.67c.23.28-.87.55.43.7.91-.31-.87-.62.64-.82.94.32.67.58 1.78.31.16.18-.08.29-.52.37 1-.22 2.62-.09 3.13-.46 1 .39 3.35-.1 3.25.56a9.61 9.61 0 0 1 2.69-.51c-1.66.79 3.41.05 3 .9 1.23-.72 4.45-.32 6.62-.72a1 1 0 0 1-.55.14 12.35 12.35 0 0 1 2.37.41c.16-.59 2.07-.73 3.1-1.09 1.5.57-.91.69-.44 1.24-.08-.48 2.61-.48 2.1-.88 1.15.36 1 .18 1.58.66.2-.73 1.07-.12 2-.57 1.66.36.43.69 2.25.46.83.23-.79.49-.79.49zm43.47-1.27h-.9zm3.65 0h-1.58c-.13-.14 0-.29.38-.28-.16.06.66.15 1.2.27zm-7.72-2.92c.57-.06.77 0 .85.11h-1a.18.18 0 0 0-.07.05.53.53 0 0 1 .22-.17z"/><path class="cls-1" d="M148.6 95.24a1.57 1.57 0 0 1-.24 0l.34.1.21-.14zm331.16.63h-.07a.38.38 0 0 1 .16.06c-.05-.03-.05-.05-.09-.06zm-271.95 2.55l-.01-.11-.31.09.32.02zm292.07-1.11a.53.53 0 0 0 .27.11s-.15-.07-.27-.11zm8.7.1l1.23.15a12 12 0 0 0-1.23-.15zm6.68.21a.51.51 0 0 0 .13-.18zM409 98.11h-.26c-.6.1-.18.07.26 0zm31.63-.98c-.34.07-.67.15-1 .2.54.03.98.04 1-.2zm-66.93 1.49zm64.44-1.3a5.58 5.58 0 0 0 1.47 0 7.22 7.22 0 0 0-1.47 0zm106.08.49h.32a.08.08 0 0 1 0-.06zm.36-.05l.36-.05c-.16 0-.31 0-.36.05zm1.11-.16l-.75.11a1.47 1.47 0 0 0 .75-.11zm-10.31.01l-.11.16a.23.23 0 0 0 .11-.16zm-2.69.05a14.71 14.71 0 0 0 2.5.23l.08-.12c-.42.23-1.97-.37-2.58-.11zm-11.22-1.89l2.25.12c-.39-.16-.91-.38.11-.42-2.83-.47.59.36-2.36.3zm-6.99-.24c1.21-.08 0-.24 0-.33-.72.15-.9.19 0 .33zm-50.48 0l.13-.38c-.94.05-.01.14-.13.38zm-9.65 1.98l.91.24.43-.35-1.34.11zm-5.7-2.73l.41-.06-1.56.14 1.15-.08zm-84.77.14l.28.47c.63-.09.76-.62-.28-.47zm-36.6.48a3 3 0 0 0-2.06-.16c.78.03 1.64.22 2.06.16zm-109.76-.77l.73-.16-1.39.13.66.03zm202.05.86c-.08.13 0 .43.17.37l.14-.5zm1.37.92a1.11 1.11 0 0 0 .36-1.12c-.23.48-.29.28-.55.85-.2.06-.36-.16-.32-.34-.07.13-.32-.11-.43.2.27.39.6.4 1 .08 0 .11 0 .24-.06.33zm19.99.78l-.13-.06a.26.26 0 0 0 .13.06zm12.38.27a.14.14 0 0 0-.14.11c.09-.04.16-.07.14-.11zm2.12.54h-.13.13zm-14.5-.81l.33.15c.02-.16-.17-.12-.33-.15zm-17.23-1.97a.38.38 0 0 0-.18.13l.17-.06a.17.17 0 0 1 .01-.07zm11.77 2.37h-.1l-.09.2zm-4.19.08c.09 0 .13-.41.16-.59-.05.17-.12.26-.2.29a1.3 1.3 0 0 0 .04.3zm-6.64-.74h-.12zm13.83.75a.3.3 0 0 0 0 .15.42.42 0 0 0 0-.15zm117.18-3.17a.22.22 0 0 0 0 .08s.03-.07 0-.08zm4.85 2.09h-.07v.24zm-101.2 1.95c-.12.04-.07.03 0 0zm35.52-.31c-.41-.38.65-.49.05-.91.05.17-.55.67-.05.91zm-71.01-2.97h.19a.24.24 0 0 0-.19 0zm71.06 2.06h-.07zm-26.66.96a.51.51 0 0 0-.09-.18.29.29 0 0 0 .09.18zm-6.64-.6l.16.06a.4.4 0 0 0-.16-.06zm10.09.01c.09 0 .12.09.24 0-.08.04-.14.07-.24 0zm3.59 0a.71.71 0 0 0-.07-.09h-.11zm69.49-2.98a1.34 1.34 0 0 1 .16.37c-.05-.29.47-.4-.16-.37z"/><path class="cls-1" d="M423.7 95.45c0-.1.05-.16.11-.18h-.12c-.01.09-.02.15.01.18zm48.11-1.08l.57.07a2 2 0 0 0-.57-.07zm47.19.41h.13a.11.11 0 0 0-.13 0zm-44.93-.41a.78.78 0 0 0 .32.29.86.86 0 0 0 .07-.1zm70.83.73z"/><path class="cls-1" d="M548.66 94.1c-.54 0-.25.54-.37.86-.65.16-.3-.41-.52-.69-.41.14-.72.65-1 .63 0-.09-.08-.12 0-.24-.43.44-1.27 0-1.77.58a.37.37 0 0 1-.07-.14 2.14 2.14 0 0 1 .08.76c-.24 0-.45.35-.54 0 .15 0 .16-.14.23-.25l-.26.16c-.23-.52.35-.18.35-.57-.5.17-1.08.6-1.46.45-.08-.51.89-.17.39-.62l.59.19c-.46-.8.35.06-.06-.8-.78-.15-.87.26-1.64.11-.18.28 0 .42-.12.7-1.1.51-.87-1.28-1.68-.6-.21.34-.29 1-.86.64l.19-.57c-.75-.06-.43.83-1.21.44.14-.23.59-.19.47-.26-.51-.46-.36.33-.75.33l-.08-.51c-.8.08-1.68.44-2.57.54 0-.15.2-.31 0-.47a7.31 7.31 0 0 1-3.46-.36l-.41.44a.18.18 0 0 1-.08-.29c-.42-.17 0 .28-.22.45a.22.22 0 0 1-.17-.38c-.74.37-2.11.8-2.89.33l.15-.13c-.61-.18-.69.9-1.25.49l.11-.08c-1.32-.19-2.78.22-3.79-.45-.19.64-1.31-.28-1.39.6-.76-.43-.54-.59-1.6-.89-.29 0-.43.55-.78.65v-.46l-.48.48-.25-.55-.33.12a.35.35 0 0 1 .26.34 1.15 1.15 0 0 1-1.27-.56l-1.22.39c0-.19.24-.25.4-.37-.65.47-.12-.49-.72 0 .08.1 0 .27-.05.36a1.81 1.81 0 0 0-1.47-.16l.09-.32c-.9-.08-1.9.15-2.91.15a.41.41 0 0 1 0 .75l-.12-.49c-.19.31.31.19-.08.56-.38-.06-.25-.56 0-.72l-.46.17c0-.14.08-.22.11-.41-.19.31-.79-.49-1.06 0v-.14c-1 0-1.47.16-2.29.18 0 .43-.34.33-.59.67a7.62 7.62 0 0 0-2-.43c-.52.21-.15.36-.38.61 0-.38-.77-.35-.39-.62a7.87 7.87 0 0 0-2.23.39c.12.15.26.22.19.35a.36.36 0 0 1-.43-.34c-1.24.57-2.87-1.12-3.86-.32h.06l-1 .41c-.47-.06.28-.28-.07-.52-1.1.64-1.75-.09-2.66.33-.7-1.13-2.5.08-3.46-.64l.06.27c-.25.26-.3-.16-.48-.22 0 .21.27.24.11.39-2.08.32-4.3-.39-6.44-.63-.78-.08-.44 1.38-1.43.74l.28-.5c-1.58.6-3.23 0-4.77.49.09-.12.09-.27.24-.26-.32-.36-1.21 0-1.21.27-.24 0-.06-.26-.21-.41-.32-.21-.82.46-1 .1 0-.06.09-.12.15-.15-.21.18-1 0-.79.38-.58-.2-1.11.18-1.57-.07-.3.47-1-.22-1.09.44 0-.68-1-.55-1.38-.23.12-.21-.32-.21-.18-.5-.42 0-.8.14-.73.49-.77-.81-1.55.65-2-.39a25.7 25.7 0 0 1-3.51.77c0-.68 1.23-.07 1.18-.78-1.06.28-1.67.86-2.72.7-.27-.09.15-.29.25-.41-1.06.28-2.05-.06-3 .31 0-.07.11-.14.2-.19-.18 0-.43-.1-.41.21l.18-.08c.3.44-.73.93-.77 1.17.32-.89-.93-.23-.43-1.34a.42.42 0 0 0-.25.41c-.18-.06-.23-.18-.05-.41-.67.16-.43.49-1 .48 0-.15.12-.2.18-.38a1.15 1.15 0 0 1-1.12.46c0-.09 0-.21.13-.21-.88 0-1.5.78-2.46.5.29-.65-.32-.22-.38-.78l-.51.17.21.27c-.46 0-.86.4-1.25.22l.34-.23-.85.1.48.21c-.45.29.05.71-.55.56.12-.06-.45 0-.69-.34a.74.74 0 0 1-.79.23c-.08-.18.07-.62 0-.74-.22.47-1.06.13-1.34.63a.72.72 0 0 0 .07-.48l-.19.38c-.21-.12-.24-.18-.21-.41-.63-.07.2.71-.54.4.06 0 0-.08.15-.14-.75-.16-1.45.24-2.14 0-.21-.56.6-.14.37-.61-1 .1-2.06.67-3 .54l.18.06c-.13.8-.71-.39-1.2 0 .12-.06.15-.45.12-.36a6.33 6.33 0 0 0-2.35.45l.13-.21a7.67 7.67 0 0 0-1.45-.19c-.12.2-.36.17-.22.46-1.29-1.16-2.47.63-3.61-.34.13 0 .32-.18.21-.18l-1 .19c.07.34.12.21.33.48a.81.81 0 0 1-.64.36c.44-.23 0-.55-.2-.75v.33c-.52-.61-.09.7-.79.29v-.19c-.26.1-.5.34-.79.29-.11-.41.28-.19.3-.52-.39 0-.78.76-1.14.36.17-.11.41-.12.58-.23-.39-.47-.44-.35-.73-.42l-.67-.21.17.12c-.49 1-1 .19-1.67.88.65-.65.11-.38.16-.83-.17-.13-.43-.27-.36-.4-.31.37-.53-.28-1 .25 0-.15-.34 0-.27-.38-.41.11.1.25.07.44-.64.5-1.49-.61-2.4.08-.78.28-.93.77-1.65 1-.25-.24.2-.53.2-.53a1.05 1.05 0 0 0-1.07 0c.08-.13 0-.24-.12-.4-.3 0-.2.53-.59.31a2 2 0 0 1 .3-.58c-.35.13-.7.4-1.07.54-.1-.26.22-.39.35-.56-.41.12-1.06.23-1.19.64l.26.14c-.15 0-.07-.34 0-.42.35-.31.5.14.52.29l-.26.09c.27.86 1.05-.14 1.57-.09l-.22.63.54-.52c.12.16.19.51-.06.6.37.31.33-.22.65.13a.07.07 0 0 1 0 .11l.36-.19c-.07.13.06.44-.16.35.66.36 1.06-.47 1.31 0h-.06c.92-.21.09-.46.78-1l.46 1.13.09-.46c.09 0 .28 0 .24.23.35-.31-.06-.2.15-.49.45.41 1.25-.2 1.35.53.16-.35-.43-.27 0-.51.14.79.56-.13 1 .23-.13.4-.52.19-.11.55.25-.69.81.15 1.16 0 0-.55.76-.23 1.34-.41 0 .18 1.11.3 1.65.5v.09c.1-.55.67-.45 1.08-.56a.61.61 0 0 1-.32.6h.39a.59.59 0 0 1 .46-.33l-.1.41c.52 0 1-.48 1.69-.21 0-.38-.52-1.07.18-1.33 0 .21 0 .57-.13.65.06 0 .21-.17.33-.08l-.28.35c.3.15.16-.29.4-.26 0 .29.18.21.14.44-.06 0-.21-.12-.3 0a1.07 1.07 0 0 1 .71.45c0-.17 0-.4.2-.44.51 0 .17.36.47.51.12-.2.45 0 .46-.43.15 0 .18.21.24.33.26-.2 1.24-.06.94-.53h-.07c.87-.44 1.81.25 2.67.06v.15c.52-.17 1.15-.1 1.52-.42a.4.4 0 0 1 .29.45c.39-.11.44-.28 1 0-.4.26.13.23-.41.19.51.13.63.37 1.18 0-.19.38.38.48.63.37l-.36-.27a1.89 1.89 0 0 1 .75 0l-.13.5c1.05.6 1.89-1 2.69 0 .27-.35-.57-.25-.32-.66.48.07 1 .79 1.13.79.66.28.62-.73 1.31-.54a.57.57 0 0 1 .34-.82c.48.06.59.75.29.89-.12 0-.17 0-.17-.1-.15.06-.36.14-.17.33l.07-.18c.24.18.9.17.74.46.37-.17.16-.29-.11-.39.62.26 1 0 1.6.18-.1-.09-.19-.3-.09-.3.93.22.41-.34 1-.42.36.27-.13.65.51.42.39.19.08.48-.07.62.58-.34 1.08.23 1.41.29l-.3.14a1.08 1.08 0 0 1 .48-.08l-.17-.36c.18.07.33.07.32.22.19-.24-.14-.6.23-.91.24.18.73-.2.81.27-.75-.16.08.48-.55.55a.64.64 0 0 1 .45 0c0 .06 0 .1-.07.13.71.42.33-.54 1.07-.53-.09.27.17.51.3.45-.3 0-.15-.44.13-.65.48.21.52-.15.77-.13l-.29-.09c.1-.27.34-.23.67-.32 0 .21-.3.14-.18.24.37-.47.84.48 1.35.16.24.19 0 .51.23.63.58-.35.63.36 1.24.08-.18-.36-.21-.27.22-.62l-1 .25.64-.52c-.3 0-.63.22-.81.16.3-.29.27-.2.13-.5.41.54.81-.31 1.29 0v.89c.71.39 1.27-.46 2.2-.23l-.3-.16c.13-.35.58 0 .88-.19 0 .3.16.41.29.59 0-.22.68 0 .77-.57l.41.39c.75.16.86-.85 1.58-.74-.21.32.11.53-.37.76.24 0 .46 0 .46-.15.14.18.67-.4.89-.12.11-.13.14-.44.41-.41a.2.2 0 0 1 0 .14c0-.14.42-.2.19-.52.74.92 2.07-.07 2.72.72a12.49 12.49 0 0 1 1.64-.21c0 .08 0 .14-.09.11.66.28.41-.85 1.16-.54.38.48-.4.26-.16.44.1 1 .9-.13 1.41.44l-.12.05c.38.33.94-.37 1.57-.3a.23.23 0 0 0 0 .15 3.44 3.44 0 0 1 1.85-.8c-.19.38-.27.2-.16.59.27-.05-.08-.62.46-.73.18.21.57.39.62.8h-.51c.26.53.67 0 .94.07v.24c.79-.08.8-.67 1.64-.63l-.09-.17c.46-.59.39.32.85-.11l.14.59a8.37 8.37 0 0 1 1.7-.65 4.58 4.58 0 0 1-1.34.92c.3 0 1 0 1.18-.33-.12 0-.27.2-.39.11a1.71 1.71 0 0 1 1.45-.7c-.1 1.15 1.57.29 2 1.18 1.06-.42 2.11.19 3.34.12-.43-.9.37 0 .29-.94.29-.06.4 0 .42 0l.88.55c.21.27-.28.2-.25.41.63.07.27.39.68.63-.08-.33.22-.47.58-.35l-.5-.42c.88-.49.76.77 1.65.29l-.28.29c.45-.17 1.68 0 2.13-.73.08.1.19.35 0 .42 1.09.11 2.43-.79 3.27-.33l-.08.22c.21-.06.36-.42.61-.19 0 .09-.08.22 0 .23s.54-.39.81-.26l-.23.25c1.07.3 1.64-.61 2.53-.76 0 .66.84.87 1.25 1v.09c1.24.08 2.1-.55 3.25-.81.71.72 2.42.3 3.56.71-.17-.12 0-.52.23-.58.27.13.75-.46.7.14h-.09c.2.6.75.44 1.18.45l.07-.79c1.13 1.15 3-.42 3.58.61.27-.2.6-.2.87-.39v.42a6.59 6.59 0 0 0 2.06.06l-.19.31c.53 0 .67-1.23 1.15-1.25l.15.63c.91 0 1.84.55 2.75 0 0 .09 0 .28-.19.3.43 0 1.67.43 1.51-.44 0 .57.95.06 1.44-.19l-.07.42c.42-.54.43-.68 1-.83.14.05.12.33-.06.23.46.21.36-.4.92-.18l-.21.27c.48 0 .44-.11.7-.42a.77.77 0 0 1 1 .48c.06-.23.32-.54.6-.43a.28.28 0 0 1-.11.28c.79.28 1.18-.49 1.72-.08a.37.37 0 0 0 .09.25 5.54 5.54 0 0 1-1.09-.06c0 .38.51.45.11 1 .41-.29 1.11-.92 1.6-.74a.4.4 0 0 1 .07.13.33.33 0 0 0 .31-.07 1 1 0 0 0 .41.12c.06.32.58.17.84.19 0-.42.31-.36 0-.7l-.22.06c-.22.06-.08 0-.11.05h-.63c.2-.22.41-.4.69-.16.13-.27.27-.55.35-.68.35.59 1 .9 1.11 1.27.78-.24 1.83-.16 2.32-.95.22-.1.25.23.33.35-.12.08-.27.07-.34.18.44-.2 1.3-.08 1.41-.63.55.25-.31.51.45.42l-.1.17c1.5.88 2.44-1.42 4.1-.28-.12-.07-.17-.1-.2-.19 1.9.5 3.91-.47 5.79.32.53.16.59-.19.91-.46l.12.45.55-.52c.79-.38 1.37 1.11 2.36.39l-.13-.31c.36.06 1.14-.18 1.08.17 0 0 .12-.32.26-.16v.24l.88-.41c.68.18-.11 1 .88 1 .37-.09 1.06-.69.92-.85a.43.43 0 0 1-.39-.38l.33-.13c.07-.69.33-1.41-.5-1.9l-.58.43-.19-.34h.49c-.28-.32-.45 0-.65.16a.63.63 0 0 0-.24-.38l-.57.67c-.07-.27.25-.54-.13-.69-.26.31.26.61-.18.81-.28-.31-.2-.57-.52-.3a.31.31 0 0 1 .15-.38c-.29.22-.77.1-.92.47-.28-.39-1 .1-.94-.56a1.45 1.45 0 0 1-.78.54c.49-.79-1 0-.87-.89-.35.71-1.29.32-1.93.71 0-.06.11-.17.16-.13-.36-.06-.46-.28-.69-.41 0 .59-.6.72-.9 1.08-.44-.56.26-.69.12-1.23 0 .47-.76.47-.61.87-.33-.35-.29-.17-.46-.66-.06.74-.31.13-.59.58-.49-.36-.13-.69-.66-.47-.3-.32.17-.58.17-.58zM536 95.37h.26zm-1.07 0h.46c0 .15 0 .3-.11.29.03-.08-.22-.16-.38-.28zm2.26 2.92c-.17.06-.23 0-.25-.11h.29a.65.65 0 0 1-.07.12z"/><path class="cls-1" d="M537.46 97.74h.07l-.1-.09-.06.13zm-96.68-.62l-.05-.06a.13.13 0 0 1 .05.06zm79.39-2.55l.01.1.09-.09-.1-.01zm-85.27 1.1a.28.28 0 0 0-.07-.11.2.2 0 0 0 .07.11zm-2.54-.09l-.35-.15a2.12 2.12 0 0 0 .35.15zm-1.95-.21a.67.67 0 0 0 0 .18zm31.02-.5a.11.11 0 0 0 .08 0c.18-.1.06-.07-.08 0zm-9.23.99a1.74 1.74 0 0 1 .3-.2c-.16-.03-.29-.04-.3.2zm.73-.19a.44.44 0 0 0-.43 0 .7.7 0 0 0 .43 0zM422 95.18h-.1a.08.08 0 0 1 0 .07zm-.15.05h-.1c.05.05.09.04.1 0zm-.32.15l.22-.1c-.08 0-.17-.02-.22.1zm3.01-.01v-.15a.28.28 0 0 0 0 .15zm.79-.04c-.19 0-.47-.33-.74-.23v.12c.1-.22.56.37.74.11zm3.27 1.89l-.66-.12c.12.16.27.38 0 .42.8.48-.2-.37.66-.3zm2.04.23c-.35.08 0 .24 0 .33.21-.15.26-.18 0-.33zm14.74.01v.38c.23-.06-.04-.15 0-.38zm2.81-1.99l-.26-.24-.13.36.39-.12zm1.67 2.74l-.12.05.45-.14-.33.09zm24.75-.14l-.08-.47c-.19.08-.22.61.08.47zm10.69-.48c.11.23.41.39.6.15-.24-.03-.48-.21-.6-.15zm32.04.77l-.21.16.4-.14-.19-.02zm35.08 55.74c.26-.13.11-.43-.61-.37l-.51.5zm-4.85-.92c-.85.24-1.83.66-1.28 1.12.84-.48 1-.28 2-.85.72-.06 1.26.16 1.13.34.26-.13 1.12.11 1.51-.2a5.39 5.39 0 0 0-3.37-.08c-.31-.11-.05-.24.01-.33zm-70.45-.78l.46.06a2.72 2.72 0 0 0-.46-.06zm-43.64-.27c.33 0 .47-.06.48-.11-.3.04-.56.07-.48.11zm-7.48-.55h.44a.87.87 0 0 0-.44 0zm51.12.82l-1.16-.15c-.08.16.59.12 1.16.15zm60.73 1.97a2.78 2.78 0 0 0 .64-.13l-.6.06a.25.25 0 0 1-.04.07zM496.36 152h.36l.29-.2zm14.77-.08c-.33 0-.45.41-.58.59a1.26 1.26 0 0 1 .73-.29c.01-.08-.04-.17-.15-.3zm23.41.75l.42-.06c-.11.02-.29.03-.42.06zm-48.74-.76a.34.34 0 0 0-.14-.15c0 .05.05.1.14.15zm-413.01 3.17a.22.22 0 0 0 0-.08c-.09 0-.11.07 0 .08zM55.67 153h.24a.69.69 0 0 0 .05-.24zm356.72-2zm-125.2.35c1.42.38-2.31.49-.17.91-.2-.17 1.98-.66.17-.91zm250.28 2.97h-.6a2.93 2.93 0 0 0 .6 0zM287 152.26h.22zm94-.96a1 1 0 0 0 .32.18s-.12-.1-.32-.18zm23.37.6l-.58-.06a5 5 0 0 0 .58.06zm-35.56-.01a2.57 2.57 0 0 0-.85 0h.13a1.24 1.24 0 0 1 .72 0zm-12.65 0a1.23 1.23 0 0 0 .23.09h.4zm-244.92 2.98a1.94 1.94 0 0 1-.59-.37c.2.29-1.65.4.59.37z"/><path class="cls-1" d="M537.85 154.14a.49.49 0 0 1-.38.18h.42c.04-.09.05-.15-.04-.18zm-169.56 1.08l-2-.07c.56.05 1.29.07 2 .07zM202 154.81l-.46.05a1.08 1.08 0 0 0 .46-.05zm158.32.41a4.37 4.37 0 0 0-1.13-.29 1.08 1.08 0 0 0-.24.1zm-249.67-.73z"/><path class="cls-1" d="M97.41 155.49c1.92 0 .9-.54 1.31-.86 2.28-.16 1 .41 1.83.69 1.43-.14 2.53-.65 3.59-.63.08.09.29.12 0 .24 1.51-.44 4.48 0 6.24-.58a.53.53 0 0 1 .23.14.77.77 0 0 1-.27-.76c.86 0 1.59-.35 1.92 0a1.24 1.24 0 0 0-.82.25l.9-.16c.81.52-1.23.18-1.23.57a31.39 31.39 0 0 1 5.15-.45c.28.51-3.15.17-1.35.62l-2.08-.19c1.58.8-1.27-.06.19.8 2.74.15 3.06-.26 5.79-.11.62-.28-.2-.42.42-.7 3.88-.51 3 1.28 5.9.6a3.42 3.42 0 0 1 3.06-.64l-.69.57c2.65.06 1.51-.83 4.29-.44-.5.23-2.09.19-1.69.26 1.8.46 1.28-.33 2.66-.33l.28.51c2.83-.08 5.93-.44 9.06-.54-.17.15-.71.31 0 .47a88.5 88.5 0 0 1 12.22.36l1.45-.44c.34 0 .63.2.26.29 1.48.17.08-.28.79-.45s1.11.25.58.38c2.61-.37 7.45-.8 10.2-.33l-.54.13c2.15.18 2.42-.9 4.41-.49l-.38.08c4.66.19 9.8-.22 13.35.45.68-.64 4.61.28 4.91-.6a36 36 0 0 0 5.64.89c1 0 1.49-.55 2.73-.65v.47l1.68-.49.89.55 1.16-.12c-.46 0-1-.2-.91-.34 1.81-.21 4.41.33 4.46.56l4.28-.39c-.09.19-.81.25-1.38.37 2.29-.47.42.49 2.51.05-.28-.1.15-.27.2-.36a21.11 21.11 0 0 0 5.18.16l-.33.32c3.18.08 6.7-.15 10.26-.15-1.28-.15-1-.7.06-.75l.42.49c.68-.31-1.09-.19.3-.56 1.33.06.89.56.13.72l1.62-.17c.09.14-.29.22-.39.41.67-.31 2.8.49 3.76 0l.09.14c3.57 0 5.18-.16 8.09-.18.05-.43 1.19-.33 2.06-.67 2.13.13 4.5.46 7.07.43 1.81-.21.53-.36 1.34-.61.13.38 2.7.35 1.37.62 3.09-.06 3.94-.07 7.85-.38-.43-.16-.9-.23-.66-.36.71-.06 1.62.16 1.51.34h-.18c4.38-.57 10.11 1.12 13.6.32h-.2l3.62-.41c1.67.06-1 .28.24.52 3.9-.64 6.16.09 9.38-.33 2.49 1.13 8.83-.08 12.18.64l-.19-.27c.87-.26 1.05.16 1.69.22-.09-.21-.94-.24-.4-.39 7.35-.32 15.17.39 22.71.63 2.76.08 1.57-1.38 5-.74l-1 .5c5.56-.6 11.37 0 16.82-.49-.32.12-.33.27-.86.26 1.15.36 4.25 0 4.27-.27.85 0 .2.26.72.41 1.15.21 2.89-.46 3.51-.1.1.06-.33.12-.54.15.75-.18 3.51 0 2.79-.38 2 .2 3.91-.18 5.54.07 1.06-.47 3.5.22 3.83-.44-.14.68 3.59.55 4.88.23-.43.21 1.13.21.62.5 1.47 0 2.83-.14 2.57-.49 2.72.81 5.46-.65 7 .39 4.38-.36 8.44-.61 12.38-.77-.14.68-4.36.07-4.19.78 3.74-.28 5.9-.86 9.61-.7 1 .09-.55.29-.87.41 3.73-.28 7.22.06 10.54-.31 0 .07-.36.14-.7.19.65 0 1.52.1 1.45-.21l-.64.08c-1.05-.44 2.6-.93 2.72-1.17-1.12.89 3.28.23 1.51 1.34.44-.06 1-.2.88-.41.64.06.84.18.19.41 2.35-.16 1.51-.49 3.64-.48 0 .15-.44.2-.66.38a10.73 10.73 0 0 1 4-.46c-.11.09.1.21-.44.21 3.09 0 5.26-.78 8.65-.5-1 .65 1.15.22 1.33.78l1.82-.17-.73-.27c1.59 0 3-.4 4.37-.22l-1.18.23 3-.1L433 154c1.62-.29-.17-.71 1.95-.56a18.31 18.31 0 0 1 2.43.34 7.6 7.6 0 0 1 2.78-.23c.31.18-.24.62 0 .74.77-.46 3.73-.13 4.72-.63-.33.12-.35.42-.24.48l.65-.38c.74.12.85.18.73.41 2.22.07-.71-.71 1.93-.4a3.62 3.62 0 0 1-.54.14c2.65.16 5.12-.24 7.55-.05.72.56-2.13.14-1.3.61 3.5-.1 7.26-.67 10.66-.54l-.64-.06c.47-.8 2.53.39 4.25 0-.42.06-.55.45-.44.36a74.34 74.34 0 0 0 8.28-.45l-.44.21c1.37.18 3.61.1 5.09.19.44-.2 1.29-.17.77-.46 4.57 1.16 8.71-.63 12.76.34-.49 0-1.16.18-.77.18l3.45-.19c-.27-.34-.45-.21-1.18-.48a6.63 6.63 0 0 1 2.27-.36c-1.55.23 0 .55.68.75-.11-.11.12-.23.06-.33 1.8.61.3-.7 2.76-.29l-.13.19a16.44 16.44 0 0 1 2.77-.29c.41.41-1 .19-1.05.52 1.4 0 2.75-.76 4-.36-.6.11-1.45.12-2 .23a6.56 6.56 0 0 0 2.55.42h-.1l2.37.21-.61-.12c1.75-1.05 3.56-.19 5.91-.88-2.29.65-.38.38-.55.83.6.13 1.51.27 1.25.4 1.11-.37 1.85.28 3.42-.25.07.15 1.19 0 .94.38 1.44-.11-.34-.25-.22-.44 2.23-.5 5.23.61 8.44-.08 2.76-.28 3.27-.77 5.83-1 .87.24-.71.53-.71.53a12.16 12.16 0 0 0 3.76 0c-.26.13 0 .24.41.4 1.06 0 .71-.53 2.1-.31a3.62 3.62 0 0 1-1 .58c1.24-.13 2.47-.4 3.76-.54.34.26-.78.39-1.23.56 1.44-.12 3.74-.23 4.19-.64l-.93-.14c.53 0 .27.34-.11.42-1.24.31-1.79-.14-1.86-.29l.91-.09c-.94-.86-3.68.14-5.52.09l.76-.63-1.89.52c-.4-.16-.68-.51.23-.6-1.32-.31-1.17.22-2.3-.13-.13-.05-.07-.08 0-.1l-1.29.18c.25-.13-.21-.44.58-.35-2.32-.36-3.74.47-4.62 0h.2c-3.22.21-.31.46-2.73 1l-1.62-1.13-.32.46c-.33 0-1-.05-.87-.23-1.23.31.21.2-.5.49-1.6-.41-4.41.2-4.77-.53-.58.35 1.53.27-.18.51-.49-.79-2 .13-3.43-.23.44-.4 1.83-.19.37-.55-.88.69-2.85-.15-4.08 0-.06.55-2.68.23-4.75.41.14-.18-3.89-.3-5.81-.5l.06-.09c-.37.55-2.36.45-3.8.56 0-.33.31-.46 1.1-.6h-1.36a3.85 3.85 0 0 1-1.63.33l.35-.41c-1.81 0-3.64.48-6 .21-.13.38 1.85 1.07-.61 1.33-.09-.21-.18-.57.46-.65a3.39 3.39 0 0 1-1.17.08l1-.35c-1.06-.15-.56.29-1.4.26 0-.29-.63-.21-.51-.44a4.23 4.23 0 0 0 1.07 0 7.74 7.74 0 0 1-2.49-.45c.08.17 0 .4-.7.44-1.81 0-.62-.36-1.68-.51-.43.2-1.59 0-1.62.43a1.15 1.15 0 0 1-.83-.33c-.93.2-4.37.06-3.31.53h.24-.16c-3.06.44-6.37-.25-9.41-.06v-.15a50 50 0 0 0-5.34.42c-.54 0-1.27-.27-1-.45a11.64 11.64 0 0 1-3.55 0c1.4-.26-.48-.23 1.43-.19a10.75 10.75 0 0 0-4.15 0c.66-.38-1.35-.48-2.21-.37l1.26.27a23.5 23.5 0 0 1-2.66 0l.46-.5c-3.69-.6-6.65 1-9.46 0-1 .35 2 .25 1.13.66a33.5 33.5 0 0 1-4-.79c-2.32-.28-2.17.73-4.6.54.31.18.6.65-1.22.82-1.7-.06-2.08-.75-1-.89.41 0 .6 0 .58.1.55-.06 1.27-.14.6-.33l-.22.18c-.84-.18-3.18-.17-2.63-.46-1.28.17-.55.29.4.39-2.18-.26-3.4 0-5.65-.18.36.09.69.3.33.3-3.29-.22-1.44.34-3.67.42-1.27-.27.45-.65-1.79-.42-1.37-.19-.29-.48.25-.62-2 .34-3.82-.23-5-.29l1.08-.14a13 13 0 0 1-1.76.14l.62.36c-.64-.07-1.17-.07-1.16-.22-.65.24.5.6-.79.91-.85-.18-2.57.2-2.86-.27 2.65.16-.29-.48 2-.55a7.8 7.8 0 0 1-1.6 0c-.09-.06.09-.1.27-.13-2.54-.42-1.17.54-3.8.53.34-.27-.61-.51-1-.45 1.06 0 .51.44-.46.65a10.38 10.38 0 0 0-2.72.13l1 .09a6.13 6.13 0 0 1-2.36.32c-.1-.21 1.07-.14.65-.24-1.31.47-2.95-.48-4.77-.16-.84-.19-.08-.51-.82-.63-2 .35-2.21-.36-4.35-.08.62.36.72.27-.79.62l3.53-.25-2.26.52c1.06 0 2.24-.22 2.88-.16-1.08.29-1 .2-.46.5-1.45-.54-2.88.31-4.57-.05l.05-.89c-2.52-.39-4.49.46-7.77.23l1.05.16c-.44.35-2 .05-3.09.19.1-.3-.56-.41-1-.59.06.22-2.4 0-2.7.57l-1.46-.39c-2.65-.16-3 .85-5.58.74.77-.32-.39-.53 1.32-.76-.85 0-1.62 0-1.63.15-.5-.18-2.36.4-3.14.12a2.24 2.24 0 0 1-1.43.41c-.11-.06 0-.14 0-.14s-1.5.2-.66.52c-2.62-.92-7.33.07-9.61-.72-1.86.1-4.09.19-5.78.21.11-.08 0-.14.32-.11-2.32-.28-1.42.85-4.07.54-1.35-.48 1.4-.26.56-.44-.37-1-3.19.13-5-.44l.43-.05c-1.36-.33-3.32.37-5.55.3 0 0 .11-.09 0-.15a33.49 33.49 0 0 1-6.54.8c.66-.38 1-.2.56-.59-1 0 .28.62-1.63.73-.62-.21-2-.39-2.19-.8h1.81c-.93-.53-2.34 0-3.29-.07l.12-.24c-2.77.08-2.81.67-5.78.63l.31.18c-1.63.58-1.37-.33-3 .1l-.49-.59c-1.07.14-3.75.57-5.68.68a33 33 0 0 1 4.74-.92 17.08 17.08 0 0 0-4.17.33 4.7 4.7 0 0 1 1.39-.11 15.26 15.26 0 0 1-5.14.69c.38-1.15-5.52-.29-7.06-1.18-3.75.42-7.43-.19-11.8-.12 1.55.9-1.27 0-1 .95a4.79 4.79 0 0 1-1.49 0l-3.08-.55c-.73-.27 1-.2.87-.41-2.23-.07-.93-.39-2.41-.63.31.33-.77.47-2 .35l1.79.42c-3.11.49-2.69-.77-5.83-.29l1-.29c-1.61.17-5.93 0-7.51.73-.29-.1-.66-.35.05-.42-3.85-.11-8.57.79-11.56.33l.3-.22c-.72.06-1.25.42-2.15.19 0-.09.29-.22-.05-.23a10.66 10.66 0 0 1-2.85.26l.81-.25c-3.75-.3-5.76.61-8.9.76 0-.66-2.95-.87-4.42-1l.05-.09c-4.37-.08-7.42.55-11.47.81-2.51-.72-8.5-.3-12.54-.71.62.12-.1.52-.82.58-.95-.13-2.62.46-2.47-.14h.34c-.71-.6-2.66-.44-4.18-.45l-.25.79c-4-1.15-10.42.42-12.59-.61-1 .2-2.14.2-3.09.39l.05-.42c-2.66-.11-4-.16-7.27-.06l.67-.31c-1.86 0-2.34 1.23-4.05 1.25l-.52-.63c-3.23 0-6.5-.55-9.7 0 .05-.09.15-.28.67-.3-1.52 0-5.89-.43-5.33.44 0-.57-3.34-.06-5.08.19l.27-.42a8.83 8.83 0 0 1-3.58.83c-.49-.05-.43-.33.22-.23-1.63-.21-1.27.4-3.24.18l.74-.27a4.38 4.38 0 0 0-2.46.42c-1.06.17-3.18-.1-3.42-.48a3.18 3.18 0 0 1-2.13.43c-.13-.14.23-.23.41-.28-2.8-.28-4.16.49-6.08.08a.4.4 0 0 0-.33-.25c2.22 0 4 0 3.84.06 0-.38-1.79-.45-.36-1a21.51 21.51 0 0 1-5.65.74.92.92 0 0 1-.24-.13l.18-.05a3.58 3.58 0 0 0-1.1.07 10.37 10.37 0 0 0-1.45-.12c-.21-.32-2.06-.17-2.95-.19.07.42-1.1.36 0 .7-.14 0 .17 0 .76-.06a2.73 2.73 0 0 0 .38 0 .15.15 0 0 1-.06 0h2.23a4.24 4.24 0 0 1-2.57.12c-.46.27-1 .55-1.25.68-1.22-.59-3.58-.9-3.91-1.27-2.73.24-6.44.16-8.15 1-.78.1-.9-.23-1.19-.35a8.45 8.45 0 0 0 1.23-.18c-1.55.2-4.6.08-5 .63-2-.25 1.1-.51-1.59-.42l.36-.17c-5.29-.88-8.6 1.42-14.47.28.41.07.61.1.69.19-6.68-.5-13.78.47-20.38-.32a6.62 6.62 0 0 0-3.22.46l-.41-.45-2 .52c-2.77.38-4.8-1.11-8.32-.39l.46.31c-1.26-.06-4 .18-3.79-.17a1 1 0 0 1-.91.16v-.24l-3.1.41c-2.4-.18.38-.94-3.13-1-1.3.09-3.71.69-3.22.85.53 0 1.34.15 1.38.38l-1.19.13c-.21.69-1.13 1.41 1.8 1.9l2-.43.65.34h-1.71a3.32 3.32 0 0 0 2.28-.16 1.47 1.47 0 0 0 .85.38l2-.67c.24.27-.9.54.44.69.94-.31-.9-.61.65-.81 1 .31.7.57 1.84.3.16.18-.08.3-.54.38 1-.22 2.7-.1 3.23-.47 1 .39 3.44-.1 3.34.56a9.91 9.91 0 0 1 2.73-.54c-1.71.79 3.51 0 3 .89 1.27-.71 4.58-.32 6.82-.71a1 1 0 0 1-.57.13 14 14 0 0 1 2.44.41c.16-.59 2.13-.72 3.19-1.08 1.54.56-.94.69-.46 1.23-.07-.47 2.69-.47 2.17-.87 1.18.35 1 .17 1.62.66.21-.74 1.11-.13 2.09-.58 1.71.36.44.69 2.32.47 1.01.17-.66.43-.66.43zm44.73-1.27h-.92zm3.76 0h-1.63c-.13-.15 0-.3.39-.29-.2.07.68.16 1.24.28zm-8-2.92c.6-.06.8 0 .88.11h-1l-.07.05a.59.59 0 0 1 .29-.17z"/><path class="cls-1" d="M136.88 151.85h-.24c.12 0 .23.07.35.09l.21-.13zm340.78.62h-.08a.59.59 0 0 1 .16.06.28.28 0 0 1-.08-.06zm-279.85 2.55v-.11l-.33.1.33.01zm300.55-1.1a.82.82 0 0 0 .27.11s-.13-.03-.27-.11zm8.94.08l1.27.15c-.57-.07-.95-.15-1.27-.15zm6.88.22a.49.49 0 0 0 .14-.18zm-109.33.5a1.14 1.14 0 0 0-.27 0c-.58.1-.2.07.27 0zm32.53-.99c-.34.08-.68.15-1 .2.54.07.99.07 1-.2zm-68.87 1.49zm66.31-1.3a5.17 5.17 0 0 0 1.52 0 8.57 8.57 0 0 0-1.52 0zm109.18.49h.34v-.07zm.36-.05l.36-.05a.75.75 0 0 0-.36.05zm1.14-.15l-.78.1a1.6 1.6 0 0 0 .78-.1zm-10.62.01l-.1.15a.21.21 0 0 0 .1-.15z"/><path class="cls-1" d="M532.12 154.26a13.61 13.61 0 0 0 2.57.23l.09-.12c-.44.23-2.04-.37-2.66-.11zm-11.55-1.89l2.32.12c-.41-.16-.94-.38.11-.42-2.92-.48.61.37-2.43.3zm-7.19-.23c1.25-.08 0-.24 0-.33-.74.19-.93.19 0 .33zm-51.94-.01l.12-.38c-.96.06 0 .15-.12.38zm-9.93 1.99l.93.24.45-.36-1.38.12zm-5.87-2.74l.42-.05-1.6.14 1.18-.09zm-87.23.14l.29.47c.65-.08.78-.61-.29-.47zm-37.66.48a3.18 3.18 0 0 0-2.12-.15c.84.03 1.69.21 2.12.15zm-112.95-.77l.76-.16-1.43.14.67.02zm211.77.87c-.08.13 0 .42.18.36l.16-.49zm1.5.9a1.07 1.07 0 0 0 .39-1.12c-.26.48-.32.28-.6.85a.3.3 0 0 1-.35-.35c-.08.13-.35-.11-.47.21a.65.65 0 0 0 1 .08c.12.13.04.26.03.33zm21.78.79l-.14-.06a.25.25 0 0 0 .14.06zm13.5.28c-.1 0-.14.06-.15.1s.18-.06.15-.1zm2.31.54h-.14c.05.02.11.04.14 0zm-15.81-.82l.36.16c.03-.16-.21-.12-.36-.16zm-18.78-1.97a.53.53 0 0 0-.2.13h.19a.22.22 0 0 1 .01-.13zm12.83 2.38h-.11a1.29 1.29 0 0 0-.09.2zm-4.56.07c.1 0 .13-.4.17-.59-.05.18-.13.26-.22.29a.93.93 0 0 0 .05.3zm-7.25-.74l-.12.06zm15.08.76a1.55 1.55 0 0 0 0 .15.24.24 0 0 0 0-.15zm127.75-3.17a.16.16 0 0 0 0 .07s.08-.07 0-.07zm5.29 2.09h-.07a1.94 1.94 0 0 0 0 .24zm-110.33 1.94c-.13.04-.07.03 0 0zm38.72-.31c-.44-.37.72-.48.06-.9.06.16-.61.66-.06.9zm-77.41-2.96h.19a.36.36 0 0 0-.19 0zm77.47 2.06h-.07zm-29.06.96a.52.52 0 0 0-.1-.18s.02.09.1.18zm-7.24-.6l.18.06a.42.42 0 0 0-.18-.06zm11 0c.09 0 .13.1.26 0a.1.1 0 0 0 0-.05c-.09.09-.15.12-.26.05zm3.91 0l-.07-.08h-.13zm75.73-2.98a1.2 1.2 0 0 1 .18.38c-.04-.3.54-.41-.18-.38z"/><path class="cls-1" d="M424.07 152.06c0-.11.06-.16.12-.18h-.13a.21.21 0 0 0 .01.18zm52.45-1.06l.62.06a3 3 0 0 0-.62-.06zm51.48.38h.14a.13.13 0 0 0-.14 0zm-49-.38a.92.92 0 0 0 .35.29.21.21 0 0 0 .07-.11z"/><path class="cls-1" d="M560.3 150.7c-.59 0-.28.55-.4.86-.71.16-.33-.4-.57-.69-.44.15-.78.66-1.11.64 0-.1-.09-.13 0-.24-.47.44-1.39 0-1.93.57a.5.5 0 0 1-.08-.14 2 2 0 0 1 .09.77c-.27 0-.49.35-.59 0 .16 0 .17-.13.25-.25l-.28.16c-.25-.52.38-.18.38-.56-.54.17-1.18.6-1.59.45-.09-.51 1-.17.42-.62l.64.19c-.49-.8.39.06-.06-.8-.85-.15-1 .26-1.79.11-.19.28.06.42-.13.7-1.2.51-.94-1.28-1.83-.6-.23.34-.31 1-.94.64l.21-.58c-.82 0-.47.83-1.32.44.15-.22.64-.19.52-.26-.56-.45-.4.33-.83.33l-.08-.51c-.88.08-1.84.45-2.8.54 0-.15.21-.31 0-.46a8.83 8.83 0 0 1-3.78-.37l-.45.44c-.1 0-.19-.2-.08-.28-.46-.17 0 .28-.24.45a.22.22 0 0 1-.18-.39c-.81.38-2.31.81-3.16.34l.17-.13c-.67-.18-.75.9-1.37.49l.12-.08c-1.44-.19-3 .21-4.13-.45-.21.63-1.42-.29-1.52.6-.82-.44-.58-.6-1.74-.89-.31 0-.46.55-.84.64v-.46l-.52.49-.28-.56-.36.12c.15 0 .31.21.28.34a1.26 1.26 0 0 1-1.37-.56l-1.33.39c0-.18.25-.25.43-.36-.71.47-.13-.49-.78-.06.09.11-.05.28-.06.37a2.12 2.12 0 0 0-1.6-.16l.1-.32c-1-.08-2.07.15-3.18.14a.4.4 0 0 1 0 .76l-.13-.49c-.21.3.33.18-.09.55-.42-.05-.28-.55 0-.71l-.51.17c0-.15.09-.22.12-.41-.2.3-.86-.49-1.16 0v-.15c-1.1 0-1.6.16-2.5.19 0 .42-.37.33-.63.67a8.26 8.26 0 0 0-2.19-.43c-.56.21-.17.36-.42.61 0-.39-.83-.35-.42-.63a9.71 9.71 0 0 0-2.43.39c.13.16.28.23.2.36s-.49-.16-.46-.35h.05c-1.35.58-3.12-1.12-4.2-.32h.06l-1.12.42c-.52-.07.31-.29-.07-.53-1.21.64-1.91-.09-2.91.34-.76-1.14-2.73.08-3.77-.65l.06.27c-.26.26-.32-.15-.52-.21 0 .2.29.24.13.38-2.28.32-4.7-.39-7-.63-.85-.07-.48 1.38-1.56.74l.31-.49c-1.72.59-3.52 0-5.21.48.1-.11.11-.26.27-.26-.35-.36-1.31 0-1.32.28-.26 0-.06-.27-.22-.42-.36-.21-.9.46-1.09.1 0 0 .1-.11.17-.14-.24.17-1.09 0-.86.37-.64-.2-1.21.19-1.72-.06-.33.46-1.08-.22-1.18.43 0-.68-1.11-.54-1.51-.23.13-.2-.35-.21-.19-.49-.46 0-.88.13-.8.48-.84-.81-1.69.66-2.16-.38a30.19 30.19 0 0 1-3.83.77c0-.68 1.35-.07 1.29-.78-1.15.28-1.82.86-3 .69-.29-.09.17-.29.27-.4-1.15.27-2.23-.07-3.26.3 0-.06.11-.13.22-.18-.2 0-.47-.1-.45.21l.2-.09c.32.45-.81.94-.84 1.17.34-.88-1-.22-.47-1.33a.39.39 0 0 0-.27.41c-.2-.06-.26-.18-.06-.42-.73.17-.47.5-1.13.49 0-.15.14-.21.21-.38a1.3 1.3 0 0 1-1.23.45c0-.09 0-.2.14-.2-1 0-1.63.77-2.68.49.31-.65-.35-.21-.41-.77l-.56.16.22.28c-.49 0-.92.39-1.35.21l.37-.23-1.01.01.53.21c-.5.29.05.71-.61.55.14-.06-.49 0-.75-.33a.85.85 0 0 1-.86.23c-.1-.18.07-.62 0-.74-.24.47-1.15.13-1.46.63a.6.6 0 0 0 .07-.47l-.2.38c-.23-.12-.26-.18-.22-.41-.69-.07.22.71-.6.4.06 0 0-.09.17-.15-.82-.16-1.59.25-2.34.06-.22-.57.66-.14.41-.62-1.09.11-2.25.68-3.3.55l.19.06c-.14.8-.78-.39-1.31 0 .13-.06.17-.44.14-.35a7.16 7.16 0 0 0-2.56.44l.13-.2a10.06 10.06 0 0 0-1.57-.2c-.14.21-.4.17-.24.47-1.41-1.16-2.7.62-3.95-.35.15 0 .36-.17.24-.18l-1.07.19c.09.35.14.21.37.48a.91.91 0 0 1-.7.37c.48-.23 0-.56-.21-.75v.33c-.56-.62-.1.7-.86.28v-.18c-.28.09-.54.33-.85.28-.13-.4.3-.19.32-.52-.43 0-.85.76-1.24.36.18-.11.45-.11.63-.22a1 1 0 0 0-.79-.43l-.73-.21.19.13c-.54 1-1.1.19-1.83.87.71-.64.12-.37.17-.83-.19-.12-.47-.26-.39-.39-.34.37-.57-.29-1.06.25 0-.15-.36 0-.29-.38-.44.11.11.25.07.43-.69.5-1.62-.6-2.61.08-.85.28-1 .78-1.8 1-.27-.23.22-.53.22-.53a1.3 1.3 0 0 0-1.17 0c.09-.12 0-.23-.12-.4-.33 0-.22.54-.65.32a2.3 2.3 0 0 1 .32-.59c-.38.14-.76.41-1.16.54-.1-.25.24-.38.38-.55-.45.11-1.16.23-1.3.63l.29.15c-.16 0-.08-.35 0-.42.38-.32.55.14.57.28l-.28.1c.29.86 1.14-.14 1.71-.09l-.24.62.59-.51c.12.16.21.51-.08.6.41.31.37-.22.72.12v.11l.4-.19c-.07.14.07.44-.18.35.72.36 1.16-.46 1.43 0h-.06c1-.21.1-.46.85-1l.5 1.13.1-.46c.1 0 .3.06.26.24.39-.32-.06-.2.16-.5.5.42 1.36-.19 1.48.54.17-.35-.48-.27.05-.51.15.78.61-.14 1.06.22-.14.41-.56.19-.11.55.27-.68.88.15 1.26 0 0-.54.83-.22 1.47-.41 0 .19 1.2.3 1.8.5v.09c.11-.55.73-.44 1.17-.56a.6.6 0 0 1-.34.61h.42a.68.68 0 0 1 .51-.34l-.11.42c.56 0 1.13-.49 1.85-.21 0-.39-.58-1.07.18-1.33 0 .21.06.56-.14.65.07 0 .23-.17.36-.09l-.3.35c.33.16.17-.29.43-.26 0 .3.2.22.16.45-.07 0-.23-.12-.33 0a1.17 1.17 0 0 1 .77.46c0-.17 0-.4.22-.44.56 0 .19.36.52.51.13-.21.49 0 .5-.44.16 0 .19.21.25.33.29-.19 1.36-.05 1-.53h-.08.05c.95-.44 2 .26 2.91.07v.14c.56-.17 1.25-.1 1.65-.41.17 0 .39.27.32.44.43-.11.48-.28 1.1 0-.43.26.15.23-.44.19.56.13.68.36 1.28 0-.2.38.42.48.69.36l-.39-.27a2.8 2.8 0 0 1 .82 0l-.14.5c1.14.61 2.06-1 2.92 0 .31-.34-.62-.24-.35-.65.53.07 1.08.78 1.24.79.72.27.67-.73 1.43-.55a.55.55 0 0 1 .37-.82c.53.07.65.75.31.89-.12 0-.18 0-.18-.1-.17.07-.39.14-.18.34l.07-.18c.26.18 1 .16.81.45.4-.17.17-.29-.12-.38.67.26 1.05 0 1.74.18-.11-.1-.21-.31-.1-.31 1 .22.45-.33 1.14-.41.39.27-.14.65.55.42.43.18.09.47-.08.62.64-.35 1.19.22 1.55.28l-.34.15a1.16 1.16 0 0 1 .53-.08l-.19-.36c.2.06.36.06.36.21.2-.23-.16-.59.24-.91.27.18.8-.19.89.28-.82-.16.09.47-.6.55a.69.69 0 0 1 .49 0c0 .05 0 .1-.08.12.78.43.36-.53 1.17-.52-.1.27.19.5.32.45-.33 0-.15-.45.15-.65.52.21.56-.15.84-.13l-.32-.1c.11-.26.37-.23.73-.31 0 .2-.33.14-.2.23.41-.47.92.49 1.48.17.26.18 0 .5.25.62.63-.34.69.37 1.35.08-.19-.36-.23-.27.24-.62l-1.09.26.7-.53c-.33 0-.69.23-.89.17.33-.29.3-.2.14-.5.45.54.89-.31 1.41 0v.88c.78.4 1.39-.45 2.4-.23l-.32-.15c.13-.35.62 0 .95-.19 0 .29.18.4.32.59 0-.22.74 0 .83-.58l.46.39c.82.16.93-.84 1.72-.74-.24.32.12.53-.41.76.27 0 .5.06.51-.15.15.19.73-.39 1-.11.11-.13.15-.44.44-.42a.23.23 0 0 1 0 .15c0-.15.46-.2.21-.53.81.92 2.26-.07 3 .73a14.64 14.64 0 0 1 1.8-.2c0 .09 0 .15-.1.12.72.27.45-.85 1.27-.54.41.47-.44.25-.18.44.11 1 1-.14 1.54.43l-.13.06c.42.33 1-.37 1.71-.3a.23.23 0 0 0 0 .15 3.88 3.88 0 0 1 2-.8c-.21.38-.3.2-.17.59.29-.06-.09-.63.5-.73.19.2.62.39.68.8h-.56c.28.54.72 0 1 .08v.23c.85-.08.87-.66 1.79-.62l-.1-.18c.5-.58.42.33.92-.1l.16.59a8.85 8.85 0 0 1 1.75-.69 4.9 4.9 0 0 1-1.46.93c.33 0 1.12 0 1.29-.34-.14.06-.3.2-.43.11a2 2 0 0 1 1.59-.68c-.12 1.15 1.7.29 2.18 1.18 1.16-.42 2.3.18 3.65.11-.48-.89.39 0 .31-.94.32-.06.44 0 .46 0l1 .54c.22.27-.3.21-.27.41.69.07.29.39.74.63-.09-.32.24-.47.63-.34l-.55-.42c1-.49.83.77 1.8.28l-.3.29c.49-.17 1.83 0 2.32-.73.09.11.2.36 0 .42 1.19.11 2.64-.78 3.57-.33l-.09.23c.22-.07.38-.42.66-.2 0 .09-.09.23 0 .24s.59-.39.88-.26l-.25.25c1.16.29 1.78-.62 2.75-.77 0 .66.91.88 1.37 1v.1c1.35.08 2.3-.55 3.55-.81.78.72 2.63.3 3.88.7-.19-.12 0-.51.25-.58.3.13.81-.46.77.15h-.11c.22.59.82.43 1.29.45l.08-.79c1.23 1.15 3.22-.43 3.89.61.3-.2.67-.2 1-.4v.43a8.23 8.23 0 0 0 2.25.06l-.21.3c.57 0 .72-1.22 1.25-1.25l.16.64c1 0 2 .54 3 0 0 .09 0 .27-.21.3.47 0 1.82.43 1.65-.44 0 .56 1 0 1.58-.2l-.09.42c.46-.53.47-.68 1.11-.83.15.06.13.34-.07.23.5.22.39-.4 1-.17l-.23.26c.52 0 .48-.11.77-.42a.85.85 0 0 1 1 .49c.07-.23.36-.54.66-.43a.25.25 0 0 1-.13.27c.87.29 1.29-.49 1.89-.07a.32.32 0 0 0 .1.24 6.5 6.5 0 0 1-1.19-.06c0 .39.55.45.11 1 .45-.29 1.21-.93 1.75-.74a.32.32 0 0 1 .07.13h-.06a.4.4 0 0 0 .35-.06 1.53 1.53 0 0 0 .44.12c.07.31.64.17.92.18 0-.42.34-.35 0-.7 0 0-.05.05-.24.07h-.81c.22-.21.45-.39.76-.16.14-.27.3-.55.38-.68.38.59 1.11.91 1.21 1.27.85-.23 2-.15 2.53-.95.24-.1.27.23.36.36-.14.08-.3.06-.38.18.48-.21 1.43-.08 1.54-.64.61.25-.34.51.49.42l-.11.17c1.64.89 2.66-1.41 4.48-.27-.13-.07-.19-.11-.22-.2 2.07.5 4.26-.47 6.31.32.58.16.64-.19 1-.46l.13.46.6-.53c.86-.38 1.49 1.11 2.58.39l-.14-.3c.39.05 1.23-.18 1.17.17 0-.06.13-.32.28-.16v.27l1-.41c.74.17-.12.94 1 1 .4-.09 1.15-.69 1-.85a.45.45 0 0 1-.42-.39l.37-.12c.06-.7.35-1.41-.56-1.9l-.63.43-.2-.34h.53c-.3-.32-.49 0-.71.15a.58.58 0 0 0-.26-.37l-.62.67c-.08-.28.28-.55-.14-.7-.29.31.28.62-.2.82-.3-.32-.22-.58-.57-.31a.3.3 0 0 1 .17-.37c-.32.22-.84.09-1 .46-.32-.39-1.07.1-1-.56a1.64 1.64 0 0 1-.85.55c.53-.79-1.08-.05-.94-.9-.4.72-1.42.32-2.11.72 0-.06.11-.18.17-.14-.39-.06-.5-.27-.75-.41-.05.59-.66.73-1 1.09-.47-.57.29-.69.14-1.24 0 .48-.83.48-.66.88-.37-.36-.32-.18-.51-.66-.06.73-.34.12-.64.57-.53-.36-.14-.68-.72-.46-.43-.21.09-.51.09-.51zm-13.84 1.3h.29zm-1.16 0a3.94 3.94 0 0 0 .51 0c0 .14 0 .29-.12.28.06-.09-.22-.18-.39-.28zm2.46 2.92c-.18.06-.25 0-.27-.11a1.48 1.48 0 0 0 .32 0 .08.08 0 0 0 0-.05.44.44 0 0 1-.05.14z"/><path class="cls-1" d="M548.09 154.35h.08l-.11-.1c0 .05 0 .09-.07.14zm-105.4-.63a.1.1 0 0 1 0-.06s-.01.05 0 .06zm86.56-2.55v.11l.1-.09-.1-.02zm-92.96 1.11a.23.23 0 0 0-.09-.11s.04.07.09.11zm-2.77-.1l-.39-.15a1.42 1.42 0 0 0 .39.15zm-2.13-.18v.18zm33.82-.52h.08c.19-.1.06-.07-.08 0zm-10.06.98a2.14 2.14 0 0 1 .32-.2c-.18-.03-.32-.04-.32.2zm21.3-1.46zm-20.51 1.27a.59.59 0 0 0-.47 0 .76.76 0 0 0 .47 0zm-33.77-.49h-.1v.06zm-.11.05h-.11c.05.05.05.05.11 0zm-.35.17l.24-.11c-.09-.01-.19-.02-.24.11zm3.29 0v-.16a.35.35 0 0 0 0 .16zm.84-.07c-.2 0-.51-.32-.79-.23v.12c.11-.22.6.37.79.11zm3.58 1.89l-.72-.12c.12.16.29.38 0 .42.87.49-.22-.36.72-.3zm2.22.24c-.39.08 0 .24 0 .33.23-.15.29-.19 0-.33zm16.07 0v.38c.29-.05-.04-.14 0-.38zm3.07-1.98l-.29-.24-.14.35.43-.11zm1.81 2.73l-.13.06.5-.14-.37.08zm26.98-.14l-.09-.47c-.2.09-.24.62.09.47zm11.65-.48c.13.24.46.39.66.16-.26-.03-.53-.22-.66-.16zm34.94.77l-.24.16.44-.13-.2-.03z"/><path d="M23.05 11.68a38.54 38.54 0 0 1-2.31 11.71c2.11 2.18 5 2.75 8.51 2.78 1.48 0 7.2 0 9-.06a11.46 11.46 0 0 0-1.18 3.42h-8c-4.19 0-7.45-.67-9.92-3a13.7 13.7 0 0 1-3.07 3.39 11.44 11.44 0 0 0-1.79-2.56v2.56H11V13.31a28.91 28.91 0 0 1-1.94 2.59 24.33 24.33 0 0 0-1.66-4.12A33.27 33.27 0 0 0 13.13.19l3.39 1L16 2.66h3.61l.55-.13 2.37.61c-.87 2.4-2.05 5.37-3.27 8.25h1.19l.57-.06zm-8.77 15.17a9.89 9.89 0 0 0 2.65-3.2A26.11 26.11 0 0 1 14.6 17l2.88-.83a23 23 0 0 0 1.05 3.68 34.08 34.08 0 0 0 1.12-5.67h-1.53l-.58 1.32-3.1-.71c1.25-2.78 2.69-6.3 3.74-9h-2.56V3.81c-.41 1.12-.86 2.19-1.34 3.29zM27.59 5.44h-4V2.69h4V.32H31v2.37h5.41v4.16H38v2.78h-1.58v4.26H31v1.5h5.6v2.75H31v1.57h6.37v2.75H31v2.91h-3.41v-2.91h-5.18v-2.75h5.18v-1.57h-4.38v-2.75h4.38v-1.5h-4v-2.75h4V9.63h-6.08V6.85h6.08zm3.42 0v1.41h2.21V5.44zm2.21 4.19H31v1.51h2.21zm29.86 8.83a14.65 14.65 0 0 0 1.82 3.11 35.48 35.48 0 0 0 4.1-3l2.78 2.24c-1.57 1-3.3 2.05-4.83 2.85a14.82 14.82 0 0 0 5.57 2.88 14.28 14.28 0 0 0-2.31 3.07 16 16 0 0 1-8.06-6.5v3.11c0 1.89-.45 2.72-1.7 3.23s-3 .54-5.66.54a12 12 0 0 0-1-2.78c-1.22.58-2.4 1.12-3.49 1.57l-1.76-3c2.11-.64 5.25-1.83 8.32-3l.67 2.72c-1 .48-2 .93-2.91 1.38 1.35.06 2.66.06 3.07 0 .58 0 .77-.16.77-.67v-7.75h-6.29a25.18 25.18 0 0 1 4.44 2.75l-2.17 2.24a29.36 29.36 0 0 0-4.51-3.07l2-1.92h-.45v-2.53h7.02v-1.56H50v-2.66h8.5v-1.47h-6.72V7.71h6.72V6.14h-9.15v6c0 5.18-.48 13.05-3.33 18a15.29 15.29 0 0 0-3.1-2.14c2.62-4.58 2.81-11.23 2.81-15.93V2.82h11.43V.13h4v2.69h11.52v3.32H62.15v1.57h8v4H73v2.66h-2.82v4.09zm-.93-6.75h4.41v-1.47h-4.41zm0 4.22h4.41v-1.56h-4.41zm33.57-7.39a45.41 45.41 0 0 1-5.51 1.09 58.38 58.38 0 0 1-6.78 13.57l-3.87-1.95A48.61 48.61 0 0 0 86 10.05h-1.63c-1.31 0-2.59 0-4-.1l-.29-3.71a40.57 40.57 0 0 0 4.23.23c.93 0 1.89 0 2.85-.1a27.27 27.27 0 0 0 .86-5.31l4.38.45c-.25 1-.64 2.62-1.08 4.32a33.3 33.3 0 0 0 4.25-1zm4.16 2.85a39.46 39.46 0 0 0 0 4.07c0 .89.09 2.43.19 4a21 21 0 0 1 6.56 4.06l-2.11 3.39a28.65 28.65 0 0 0-4.29-3.36v.29c0 2.94-1.6 5.25-6.11 5.25-3.94 0-7-1.76-7-5.25 0-3.11 2.59-5.51 7-5.51.73 0 1.47.07 2.14.13-.1-2.37-.26-5.15-.35-7.07zm-3.49 10.5a10.75 10.75 0 0 0-2.56-.32c-1.82 0-3 .76-3 1.88s1 2 2.72 2c2.14 0 2.85-1.25 2.85-3zm8.93-8.8a42.46 42.46 0 0 0-7.62-4.51l2-3.14a57.17 57.17 0 0 1 7.81 4.29zM143 25.34v3.75h-28.75v-3.75h12.35v-6.43h-8.67v-3.68h8.67V9.6H120a26.33 26.33 0 0 1-3 4.64 30 30 0 0 0-3.43-2.24c2.5-2.69 4.58-7.11 5.67-11.46l3.93.87c-.44 1.53-1 3-1.5 4.51h4.93V.13h4v5.76h10.78V9.6H130.6v5.63h9.56v3.68h-9.56v6.43zm11.92-9.82c-1.31-.93-4.07-2.43-5.95-3.46l2-2.81c1.76.86 4.61 2.24 6 3.1zM149.41 27a94.12 94.12 0 0 0 6.08-10l2.79 2.56c-1.7 3.36-3.71 7-5.67 10.11zm6.88-20.26a65.31 65.31 0 0 0-5.82-3.52l2.14-2.71c1.8.9 4.58 2.31 6 3.2zM170.47 13v4H177v12.82h-3.62v-1.15h-9.63V30h-3.42V17.05h6.52V13h-8.51V9.38h8.51V5.63c-2.11.32-4.22.55-6.24.74a13.41 13.41 0 0 0-1.05-3.27C165 2.56 171 1.5 174.5.1l2.94 3a40.78 40.78 0 0 1-7 1.89v4.39h8.13V13zm2.91 7.49h-9.63v4.7h9.63zm25.7 2.1c.06-.93.09-2.4.13-3.78-2.34 1.28-3.62 2.53-3.62 4.1 0 1.76 1.5 2.24 4.61 2.24a48.15 48.15 0 0 0 9-.93l-.13 4.13a86.49 86.49 0 0 1-9 .51c-5 0-8.7-1.18-8.7-5.28s3.84-6.59 7.45-8.45a2.46 2.46 0 0 0-2.2-1.08 7.81 7.81 0 0 0-5 2.17 40.36 40.36 0 0 0-2.95 3.49l-3.39-2.53a31 31 0 0 0 7-8.7h-.39c-1.28 0-3.61-.06-5.34-.22V4.54a40.07 40.07 0 0 0 5.57.36h1.53a17.09 17.09 0 0 0 .64-3.62l4.16.35c-.16.77-.38 1.86-.77 3.14a73.4 73.4 0 0 0 9-.93v3.71a100.3 100.3 0 0 1-10.33.83 19.77 19.77 0 0 1-1.83 3.2 10.06 10.06 0 0 1 3.59-.64 4.31 4.31 0 0 1 4.22 2.47c1.63-.77 3-1.31 4.29-1.89s2.33-1.09 3.48-1.63l1.6 3.68a32.35 32.35 0 0 0-3.77 1.34c-1.41.55-3.2 1.25-5.15 2.14 0 1.76.09 4.1.13 5.54zm43.2-16.96h4.73v3.78c-1.92-.1-4.9-.19-9.18-.19v4.7A7.8 7.8 0 0 1 239 18.3c0 4.16-2.43 9.38-10.14 11.55l-3.39-3.39c3.2-.67 6-1.73 7.74-3.61a7.3 7.3 0 0 1-1.44.16 5.6 5.6 0 0 1-5.47-5.8c0-3.61 2.88-6 6.34-6a7.71 7.71 0 0 1 1.28.1V9.2c-4.8.06-9.72.25-13.63.48l-.09-3.84c3.64 0 9.37-.16 13.66-.23v-1c-.1-1-.19-2.2-.32-2.75h4.61c-.1.51-.2 2.21-.23 2.72v1h3.87A32.62 32.62 0 0 0 239.62 2l2.63-1.07a31 31 0 0 1 2.23 3.74zm-9.7 13.89c1.31 0 2.47-1 2-3.81a2.35 2.35 0 0 0-2.08-1.09 2.45 2.45 0 0 0 0 4.9zm13.54-14.66a27.94 27.94 0 0 0-2.24-3.77L246.53 0a37.34 37.34 0 0 1 2.27 3.74zm15.29 7.91c2.15-.64 7.52-2.47 11.36-2.47 5 0 8.35 3 8.35 7.78 0 5.73-5 9.66-15.1 10.27l-1.66-3.94c7.2-.19 12.57-2.08 12.57-6.4 0-2.36-1.79-4-4.54-4-3.68 0-10 2.63-12.7 3.78l-1.64-4.16a27 27 0 0 0 3.36-.86zm53.06-4.19c-1 .57-2 1.12-3.14 1.69A96.31 96.31 0 0 0 302.5 15c-2.65 1.72-4.41 3.55-4.41 5.75s2.2 3.49 6.59 3.49A52.9 52.9 0 0 0 315 23.07v4.58a63 63 0 0 1-10.17.76c-6.31 0-11.08-1.76-11.08-7.2 0-3.51 2.21-6.11 5.25-8.35-1.47-2.72-3-6.08-4.45-9.44l4-1.63a74.53 74.53 0 0 0 4 8.77c2.59-1.5 5.35-2.91 6.85-3.74a23 23 0 0 0 2.91-1.92zm14.46 10.75a29.29 29.29 0 0 1-1.88 8.25 16 16 0 0 0-2.79-1.34 23.15 23.15 0 0 0 1.63-7.43zm3.72-2.59V30h-3.27V17l-4.45.35-.38-3.29 2.3-.13c.48-.58 1-1.22 1.44-1.89a28.94 28.94 0 0 0-3.64-4.48L326.5 5c.23.23.48.45.74.67a39.74 39.74 0 0 0 2.3-5.53l3.3 1.15a70.13 70.13 0 0 1-3.62 6.53 13.56 13.56 0 0 1 1 1.25 53.13 53.13 0 0 0 2.88-5.19l3.1 1.44c-1.76 2.69-3.94 5.86-6 8.42l2.78-.16c-.32-.71-.67-1.41-1-2.05l2.69-1.12a32.86 32.86 0 0 1 2.2 4.7v-3h17.63v6.33h-3.33V15H340.1v3.39h-3.17v-1l-2.2 1c-.1-.55-.29-1.19-.48-1.89zm2.94 2a23.13 23.13 0 0 1 1.63 5.63l-2.81.93a25.09 25.09 0 0 0-1.48-5.76zm5.18-2.05h3.43v2.51c0 3.29-.87 7.9-6.82 10.81a17.74 17.74 0 0 0-2.59-2.52c5.25-2.5 6-6 6-8.36zm2.88-10.99H337V2.59h6.62V.1h3.78v2.49h6.75V5.7h-6.75v1.85h5.82v3.07h-15.04V7.55h5.47zm7.84 20.76c.45 0 .61-.51.67-4a8.5 8.5 0 0 0 3 1.41c-.32 4.58-1.18 5.76-3.36 5.76h-2c-2.72 0-3.3-1-3.3-4.19v-8.8h3.42v8.83c0 .86.07 1 .48 1zM368 2.4a24.36 24.36 0 0 0-.73 2.6c-.77 3.52-1.89 10.14-1.06 14.08.42-1 1-2.5 1.48-3.65l2 1.25a77.64 77.64 0 0 0-2.14 7.74 7.37 7.37 0 0 0-.23 1.54c0 .32.07.86.1 1.31l-3.55.35a35.32 35.32 0 0 1-1.83-10.27 82.3 82.3 0 0 1 1.06-12.64 16.53 16.53 0 0 0 .19-2.75zm20.31 9.22c-1.28.16-2.91.28-4.7.38v1.31c0 7.49-.57 12.06-6.88 16.1l-3.68-2.88a12.34 12.34 0 0 0 3.72-2.53c2.44-2.53 3-5.34 3-10.69v-1.15c-1.19 0-2.4.06-3.55.06-1.38 0-3.33-.09-4.9-.16V8a32.43 32.43 0 0 0 4.8.32c1.15 0 2.37 0 3.58-.06 0-1.76-.09-3.39-.16-4.26a13.49 13.49 0 0 0-.35-2.17h4.64a15.41 15.41 0 0 0-.21 2.17v4.06a41.44 41.44 0 0 0 4.77-.57zm15.6 3.67a15.54 15.54 0 0 1 9.31-3c5.57 0 8.8 3.42 8.8 7.26 0 5.79-4.58 10.24-17.76 9.09l-1.21-4.16c9.5 1.34 14.52-1 14.52-5 0-2.05-1.95-3.56-4.73-3.56a11.09 11.09 0 0 0-8.74 3.72 6.76 6.76 0 0 0-1.18 1.85l-3.68-.93a116.66 116.66 0 0 0 1.57-13.21l4.28.57c-.41 1.74-.96 5.55-1.18 7.37zm1-13.75A101.92 101.92 0 0 0 417.57 4l-1 3.9c-3.2-.41-10.27-1.88-12.73-2.52zm55.48 23.83a8.37 8.37 0 0 1-5.95 2.4c-2.37 0-4-1.76-4-4.8 0-3.45 1.12-8.09 1.12-11 0-1.57-.8-2.34-2.11-2.34-2.37 0-5.83 2.92-8.39 5.76 0 .9-.06 1.76-.06 2.56 0 2.6 0 5.25.19 8.23 0 .57.16 1.72.23 2.43h-4.36c.07-.67.1-1.83.1-2.34.06-2.46.06-4.29.13-7-1.38 2-2.91 4.35-4 5.85l-2.5-3.52c1.79-2.17 5-6.4 6.79-9l.12-2.21-5.75.74-.39-4.07h2.75c.93-.06 2.31-.22 3.65-.42.06-1.18.13-2.08.13-2.43a16.87 16.87 0 0 0-.09-2.83l4.64.12c-.19.9-.45 2.53-.7 4.52l1.18 1.5c-.42.54-1.09 1.57-1.63 2.4a3.81 3.81 0 0 1-.07.67c2.5-2.17 6.15-4.7 9.22-4.7 3.39 0 5 2 5 4.67 0 3.3-1.06 7.94-1.06 11.23 0 .83.42 1.38 1.22 1.38a6.41 6.41 0 0 0 4.07-2.24zm28.89-20.12c-.76.48-1.5 1-2.2 1.44-1.7 1.18-5 4-7 5.6a10.6 10.6 0 0 1 3-.35c5.37 0 9.47 3.35 9.47 8 0 5-3.81 9-11.46 9-4.42 0-7.74-2-7.74-5.18 0-2.56 2.33-4.93 5.69-4.93 3.91 0 6.27 2.4 6.76 5.41a4.63 4.63 0 0 0 2.59-4.32c0-2.85-2.88-4.77-6.56-4.77-4.87 0-8 2.59-11.43 6.43l-2.88-3c2.24-1.83 6.05-5.06 7.94-6.59s5.05-4.13 6.62-5.51c-1.63 0-6 .23-7.64.35a22.2 22.2 0 0 0-2.6.26l-.12-4.13a27.64 27.64 0 0 0 2.88.16c1.66 0 8.44-.16 10.24-.32a14.23 14.23 0 0 0 2.43-.32zm-7.16 19.93c-.19-2.05-1.38-3.39-3.11-3.39-1.18 0-1.95.7-1.95 1.5 0 1.19 1.35 2 3.2 2a15.47 15.47 0 0 0 1.86-.11zm29.34-23.87a52 52 0 0 1-3 6.18v22.4h-3.62V13a30.63 30.63 0 0 1-2.66 3 24 24 0 0 0-2-3.87 34.12 34.12 0 0 0 7.71-12zm19.33 24.06V29h-20.64v-3.63h8.51V19h-6.75v-3.58h6.75V9.86h-7.77V6.27H520a48.7 48.7 0 0 0-5.34-3.52l2.5-2.75a43.14 43.14 0 0 1 7.23 4.64L523 6.27h7.33v3.59h-7.78v5.56h6.91V19h-6.91v6.36zm29.82 1.99a24.07 24.07 0 0 0-6.4-4.39v1.12c0 2.72-2 4.8-6.24 4.8-5.06 0-7.75-1.92-7.75-5.28 0-3.19 3-5.44 7.84-5.44.67 0 1.31 0 1.95.1-.06-1-.09-1.95-.12-2.88h-1.64c-1.85 0-5.5-.16-7.61-.41v-3.75a57.77 57.77 0 0 0 7.65.58h1.5v-3.3h-1.5a52.33 52.33 0 0 1-6.81-.51V4.39a42.26 42.26 0 0 0 6.88.6h1.56V3.58a12.48 12.48 0 0 0-.16-2.17h4.32a22.37 22.37 0 0 0-.22 2.24V4.9a68.8 68.8 0 0 0 7.55-.77l.09 3.65c-2.08.19-4.63.44-7.67.6v3.3c3.2-.13 5.86-.42 8.45-.74v3.75c-2.85.32-5.31.54-8.38.64.06 1.18.13 2.46.22 3.68a24.36 24.36 0 0 1 8.86 4.8zm-10.43-5.7a16.65 16.65 0 0 0-2.59-.22c-2.24 0-3.46.86-3.46 1.95s1.12 1.95 3.3 1.95c1.7 0 2.78-.51 2.78-2.33 0-.36 0-.8-.03-1.35zm27.97-13.4c0 2 0 4.44.19 6.72.45 4.57 1.41 7.67 3.39 7.67 1.51 0 2.76-3.71 3.36-6.2l3.2 3.84c-2.11 5.5-4.09 7.45-6.65 7.45-3.46 0-6.5-3.13-7.39-11.65-.29-2.91-.36-6.59-.36-8.54a18.59 18.59 0 0 0-.22-3.2l4.86.07a25.51 25.51 0 0 0-.38 3.84zm22 13L596 22.88c-.48-5.09-2.17-12.54-5.63-16.45l4-1.34c3.01 3.68 5.44 11.33 5.79 16.19zm16.56 3.19a5.17 5.17 0 1 1-5.18-5.19 5.18 5.18 0 0 1 5.18 5.19zm-2.3 0a2.87 2.87 0 1 0-2.88 2.84 2.83 2.83 0 0 0 2.88-2.84zM80.29 59.26c-.06.71-.09 1.41-.09 2.43v10.82c0 .8 0 2 .09 2.78h-4.73c0-.61.16-1.85.16-2.81V61.69a20.88 20.88 0 0 0-.13-2.43zM95.05 59c-.07.9-.13 1.92-.13 3.2v6.34c0 6.88-1.35 9.82-3.71 12.45a18.73 18.73 0 0 1-7.78 4.64l-3.36-3.52a15 15 0 0 0 7.84-4c2.18-2.4 2.59-4.8 2.59-9.79v-6.15a22.35 22.35 0 0 0-.19-3.2zm36.19 3.11a14.69 14.69 0 0 0-1.12 2 46.76 46.76 0 0 1-5 8.8A90.21 90.21 0 0 1 134 82l-3.65 3.17a72.59 72.59 0 0 0-8.06-9 42.24 42.24 0 0 1-12 9L107 81.69a36.26 36.26 0 0 0 13.12-9.18 24.79 24.79 0 0 0 4.77-7.84H114c-1.34 0-3.1.19-3.77.22v-4.54a35.07 35.07 0 0 0 3.77.22h11.27a11.72 11.72 0 0 0 3.32-.41zm37.28 1.28a14.55 14.55 0 0 0-1.06 2.27 36.65 36.65 0 0 1-4.41 8.77c1.18.73 2.27 1.47 3.07 2l-2.92 3.74a36.16 36.16 0 0 0-3-2.27 30.63 30.63 0 0 1-11.81 8l-3.71-3.24a27 27 0 0 0 11.94-7.16c-2.18-1.41-4.36-2.72-6-3.65l2.72-3c1.7.86 3.87 2.08 6 3.36a23.26 23.26 0 0 0 3.33-6.82h-9.19a37.47 37.47 0 0 1-8.45 8.26L141.64 71a29.3 29.3 0 0 0 10.21-10.62 14.28 14.28 0 0 0 1.44-3.38l4.64 1.44c-.77 1.12-1.6 2.59-2 3.26h6.56a9.87 9.87 0 0 0 2.78-.36zm15.58-4.19a29.1 29.1 0 0 0-.77 2.81 84 84 0 0 0-1.5 12.26 14.11 14.11 0 0 0 .13 2c.41-1.12.93-2.18 1.41-3.24l1.95 1.57a74.4 74.4 0 0 0-2.27 7.55 5.71 5.71 0 0 0-.16 1.48v1.31l-3.59.25a38.21 38.21 0 0 1-1.24-10.11 92.94 92.94 0 0 1 1.31-13.21 23.46 23.46 0 0 0 .29-3.11zm19.46 23.9a32.42 32.42 0 0 0-3.84-3.17c-.19 3-1.92 5.19-6.21 5.19s-7.1-1.86-7.1-5.19 2.72-5.44 7-5.44a13.74 13.74 0 0 1 2.08.13c-.1-2-.2-4.26-.23-6.49h-2.27c-1.86 0-3.65-.07-5.54-.2v-3.74a53.22 53.22 0 0 0 5.54.29h2.24c0-1.57 0-2.85-.06-3.52a17.23 17.23 0 0 0-.2-2.08h4.55a18.37 18.37 0 0 0-.19 2c0 .71-.1 1.89-.1 3.3 1.73-.19 3.39-.42 4.89-.74v3.94c-1.53.22-3.19.41-4.92.54.06 3.07.22 5.6.35 7.75a20 20 0 0 1 6.11 4.09zm-7.87-5.1a9.69 9.69 0 0 0-2.56-.35c-1.8 0-3 .73-3 1.92s1.28 1.85 2.94 1.85c1.95 0 2.63-1 2.63-2.88zm26.17-20.08a51.18 51.18 0 0 1-3 6.17v22.4h-3.62V69.6a29.37 29.37 0 0 1-2.66 3 24.87 24.87 0 0 0-2-3.87 34.07 34.07 0 0 0 7.71-12zM241.19 82v3.58h-20.64V82h8.51v-6.39h-6.75V72h6.75v-5.54h-7.77v-3.58h9.08a46.41 46.41 0 0 0-5.37-3.52l2.53-2.72a42.13 42.13 0 0 1 7.23 4.64l-1.41 1.6h7.33v3.58h-7.78V72h6.91v3.58h-6.91V82zm31.36-6.74v3.71c-.19 2.85-1 4.64-4.71 5.76a30.52 30.52 0 0 1-6.88.67c-7.36 0-7.68-2.33-7.68-4.54v-.67a2.91 2.91 0 0 1-.51 0c-2.3 0-4.67-1.63-4.67-5.7 0-3.74 2.4-6.56 5.86-6.56h.12v-2.08h-.64c-1.37 0-3.1-.09-5.18-.28l-.26-3.75a37.12 37.12 0 0 0 5.12.45h.92V62a16.42 16.42 0 0 0-.32-4h4.45a22.07 22.07 0 0 0-.29 4 46.44 46.44 0 0 0 5.64-1.12v3.82a50 50 0 0 1-5.64.9v4.09a5.38 5.38 0 0 1 .93 3.2 8.42 8.42 0 0 1-1.69 5.41v1.25c0 1.34.35 2 4.09 2a20.45 20.45 0 0 0 4.87-.58 3 3 0 0 0 2.3-3.2 28.66 28.66 0 0 0-.22-3.9zm-19.39 1.15c1.44 0 2-1.53 2-3.33 0-1.21-.6-2-1.5-2-1.25 0-2.27 1.25-2.27 3.11.01 1.42.84 2.22 1.77 2.22zm15.68-15.48a39.25 39.25 0 0 1 6.72 6l-2.88 3a42.93 42.93 0 0 0-6.53-6.34zm29.41-3.49c0 .51-.07 1.15-.1 1.82.26 4.42 1.86 18.21 13.79 23.81A12.38 12.38 0 0 0 309 86.3c-7.23-3.58-10.82-10.18-12.61-16.06-1.73 5.76-5.09 11.93-11.84 16.06a13.41 13.41 0 0 0-3.2-3c12.77-7.07 12.32-21.6 12.54-25.82zm32.57 23.93c1.22-.16 2.11-.32 2.95-.51 4.06-1 7.2-3.87 7.2-8.48 0-4.38-2.37-7.65-6.63-8.38a68.5 68.5 0 0 1-1.89 8.6c-1.88 6.4-4.64 10.31-8.09 10.31s-6.47-3.87-6.47-9.22c0-7.29 6.37-13.56 14.6-13.56 7.83 0 12.79 5.47 12.79 12.38 0 6.65-4.09 11.39-12.09 12.61zm-2.46-9.6a50.79 50.79 0 0 0 1.69-7.68 10 10 0 0 0-8 9.19c0 3.2 1.28 4.76 2.47 4.76s2.56-1.98 3.84-6.27zm38.69-3.48A38.66 38.66 0 0 1 364.74 80c2.11 2.17 5 2.75 8.51 2.78 1.48 0 7.2 0 9-.06a11.46 11.46 0 0 0-1.18 3.42h-8c-4.19 0-7.45-.67-9.92-3a13.35 13.35 0 0 1-3.07 3.39 11.92 11.92 0 0 0-1.8-2.53v2.56H355V69.92a30.42 30.42 0 0 1-1.89 2.59 23.3 23.3 0 0 0-1.66-4.13 33.31 33.31 0 0 0 5.73-11.58l3.39 1-.57 1.46h3.61l.55-.13 2.37.61c-.87 2.4-2.05 5.38-3.27 8.26h1.19l.57-.07zm-8.77 15.16a9.79 9.79 0 0 0 2.65-3.2 26 26 0 0 1-2.33-6.69l2.88-.83a22.75 22.75 0 0 0 1 3.68 34 34 0 0 0 1.12-5.66h-1.53l-.58 1.31-3.1-.7c1.25-2.79 2.69-6.31 3.74-9h-2.56v-1.95c-.41 1.12-.86 2.21-1.34 3.3zM371.59 62h-4v-2.71h4v-2.36H375v2.36h5.41v4.16H382v2.79h-1.57v4.25H375V72h5.6v2.75H375v1.57h6.37v2.75H375V82h-3.42v-2.93h-5.18v-2.75h5.18v-1.57h-4.38V72h4.38v-1.51h-4v-2.75h4v-1.5h-6.08v-2.79h6.08zm3.41 0v1.41h2.21V62zm2.21 4.2H375v1.5h2.21zm29.87 8.87a14.58 14.58 0 0 0 1.82 3.1 35.48 35.48 0 0 0 4.1-3l2.78 2.24c-1.57 1-3.3 2-4.83 2.84a14.68 14.68 0 0 0 5.57 2.88 14.94 14.94 0 0 0-2.31 3.08 16 16 0 0 1-8.06-6.5v3.1c0 1.89-.45 2.72-1.7 3.24s-3 .54-5.66.54a11.8 11.8 0 0 0-1-2.78c-1.22.57-2.4 1.12-3.49 1.56l-1.76-3c2.11-.64 5.25-1.82 8.32-3l.67 2.72c-1 .48-1.95.92-2.91 1.37a29.54 29.54 0 0 0 3.07 0c.58 0 .77-.16.77-.67v-7.72h-6.33a25.18 25.18 0 0 1 4.44 2.75l-2.17 2.24a28 28 0 0 0-4.47-3.06l1.95-1.92h-.45v-2.54h7.07V71H394v-2.68h8.54v-1.48h-6.72v-2.52h6.72v-1.57h-9.15v6c0 5.18-.48 13.06-3.33 18a15.29 15.29 0 0 0-3.1-2.08c2.62-4.58 2.81-11.24 2.81-15.94v-9.31h11.43v-2.69h4v2.69h11.55v3.33h-10.6v1.57h8v4H417V71h-2.85v4.1zm-.93-6.75h4.41v-1.48h-4.41zm0 4.22h4.41V71h-4.41zm41.12-7.36c-1 .58-2 1.12-3.14 1.7a95.92 95.92 0 0 0-8.83 4.7c-2.65 1.73-4.41 3.55-4.41 5.76s2.2 3.49 6.59 3.49a53.1 53.1 0 0 0 10.37-1.15l-.07 4.57a61.74 61.74 0 0 1-10.17.77c-6.31 0-11.08-1.76-11.08-7.2 0-3.52 2.21-6.11 5.25-8.35-1.47-2.72-3-6.08-4.45-9.44l4-1.63a76.05 76.05 0 0 0 4 8.77c2.59-1.51 5.35-2.92 6.85-3.75a21.91 21.91 0 0 0 2.91-1.92zm9.89 6.18a38.67 38.67 0 0 0 1.57-8.36l2.72.36a43.18 43.18 0 0 1-1.44 9zm9.53-2a27.88 27.88 0 0 0-1.44-4.36v21.56h-3.77V56.7h3.77v6L467 62a36.27 36.27 0 0 1 2.5 6.05zm13 5.18c1.57 3.94 4.19 7.08 8.19 8.58a15 15 0 0 0-2.69 3.58c-4-1.88-6.56-5.12-8.32-9.4a17.42 17.42 0 0 1-8.13 9.47 16.72 16.72 0 0 0-2.68-3 13.4 13.4 0 0 0 7.77-9.28h-6.37v-3.58h6.88c.1-1 .1-2 .1-3v-2.86H469v-3.52h5.5V56.7h3.84v4.83h6.94v9.38h2v3.61zM478.31 68c0 1 0 1.92-.1 2.91h3.33v-5.86h-3.23zm21.95 11.32c1.25 2.15 3.49 3 6.75 3.17 3.84.16 11.4.07 15.81-.29a17.19 17.19 0 0 0-1.18 3.72c-4 .19-10.75.25-14.66.09s-6.37-1.09-8.29-3.55a74.122 74.122 0 0 1-4.22 3.84l-1.79-3.78a37.81 37.81 0 0 0 4-2.94v-7h-3.59v-3.46h7.2zM498 65a24.63 24.63 0 0 0-4.8-5.31l2.91-2.18a28 28 0 0 1 5 5.09zm7.84-3.14h-4.22v-2.95h8.16V56.7h3.68v2.21h8.64v2.94h-3.68c-.42.84-.8 1.57-1.16 2.24h4.16v13.73c0 1.54-.25 2.37-1.28 2.94a10 10 0 0 1-4.32.55 11.34 11.34 0 0 0-.73-2.53h-5v1h-2.6v-7h2.95v-1.84h-3.75v-2.3h3.75V67h-4.58v14.18h-3.42V64.09h3.65a8.57 8.57 0 0 0-.8-2.11zm8 2.24c.29-.67.57-1.5.83-2.24h-5.86a7.2 7.2 0 0 1 .77 2.24zm-.26 10.75h-3.45v1.75h3.45zm4.35-7.85h-4.77v1.67h3.77v2.3h-3.77v1.73h3v5.57h1.28c.35 0 .48-.13.48-.51zm25.15 12.2c.06-.93.09-2.4.13-3.78-2.34 1.28-3.62 2.53-3.62 4.1 0 1.76 1.5 2.24 4.61 2.24a49 49 0 0 0 9-.93l-.14 4.17a89.38 89.38 0 0 1-9 .51c-5 0-8.7-1.19-8.7-5.28s3.84-6.59 7.45-8.45a2.47 2.47 0 0 0-2.2-1.09 7.82 7.82 0 0 0-5 2.18 40.36 40.36 0 0 0-3 3.49l-3.39-2.53a30.93 30.93 0 0 0 7-8.71h-.39c-1.28 0-3.61-.06-5.34-.22v-3.75a40.06 40.06 0 0 0 5.57.35h1.53a17.12 17.12 0 0 0 .64-3.61l4.16.35c-.16.77-.38 1.85-.77 3.13a73.42 73.42 0 0 0 9-.92v3.71a103.18 103.18 0 0 1-10.33.83 20.21 20.21 0 0 1-1.83 3.2 9.84 9.84 0 0 1 3.59-.64 4.32 4.32 0 0 1 4.26 2.45c1.63-.76 3-1.31 4.29-1.88s2.33-1.09 3.48-1.64l1.6 3.68a34.43 34.43 0 0 0-3.77 1.35c-1.41.54-3.2 1.24-5.15 2.14 0 1.76.09 4.1.13 5.54zM85.22 140.57a24.44 24.44 0 0 0-7-5 10.88 10.88 0 0 1 0 1.09c0 2.78-1.44 5.47-6.76 5.47-4.51 0-8.22-1.47-8.22-5.79 0-3.3 2.82-5.92 8.64-5.92.64 0 1.28 0 1.89.09-.1-2.46-.23-5.18-.23-6.84 0-1.92 0-3.81-.06-5.16a20.15 20.15 0 0 0-.32-3.71H78c-.13.93-.23 2.47-.29 3.71v2.31c2.5-.07 6.21-.19 8.83-.48l.16 3.77c-2.65.26-6.43.39-9 .45.06 1.92.19 4.42.35 6.75a25.17 25.17 0 0 1 9.63 5.44zm-11.29-6.34a18.66 18.66 0 0 0-2.63-.23c-2.46 0-3.93.83-3.93 2.18 0 1.56 1.6 2.14 3.8 2.14 2 0 2.79-.93 2.79-3 .04-.32.04-.67-.03-1.09zm32.64-19.42a51.11 51.11 0 0 0-1.28 6.56c1.5-2.43 4.25-5.12 7.84-5.12 4.41 0 7.84 4.32 7.84 11.3 0 9-5.51 13.24-13.89 14.78l-2.4-3.68c7-1.09 12-3.39 12-11.07 0-4.9-1.64-7.62-4.26-7.62-3.74 0-7 5.63-7.17 9.79a19.4 19.4 0 0 0 .16 3.36l-3.93.26a40.91 40.91 0 0 1-.39-5.28A76.82 76.82 0 0 1 102 118c.16-1.16.22-2.44.25-3.33zm53.56 1.19v3.23h-28V116H144v-2.68h3.87V116zm-1 23.2c0 1.76-.35 2.79-1.6 3.36s-2.88.61-5.18.61a11 11 0 0 0-.74-2.56h-8.26V142H140v-8.6h12.22v6.21h2.43c.35 0 .61-.13.61-.51V132h-18.1v11.23h-3.71v-14.4h25.66zm-4.22-18.75v7h-17.5v-7zm-3.91 2.49h-10v2h10zm-2.14 13h-5.54V138h5.54zm24.49-14.47c0 2 0 4.44.19 6.72.45 4.57 1.41 7.68 3.39 7.68 1.51 0 2.76-3.72 3.36-6.21l3.2 3.84c-2.11 5.5-4.09 7.45-6.65 7.45-3.46 0-6.5-3.13-7.39-11.64-.29-2.92-.36-6.6-.36-8.55a18.59 18.59 0 0 0-.22-3.2l4.86.07a25.51 25.51 0 0 0-.38 3.84zm22 13l-4.19 1.6c-.48-5.09-2.17-12.54-5.63-16.45l4-1.34c3.05 3.72 5.47 11.35 5.83 16.21zm15.65-3.31c-2.24 2.59-4.83 5.38-7 7.52l-2.43-3.23c1.76-1.73 4.61-4.67 7.23-7.58zm-3-8.25a34.23 34.23 0 0 0-5.57-4.83l2.72-2.79a34 34 0 0 1 5.69 4.48zm14 3a15.61 15.61 0 0 0 9.76 13.83 41 41 0 0 0-2.43 3.48 17.54 17.54 0 0 1-9.31-11.1c-.77 2.85-4 8.29-10.5 11.1a18.3 18.3 0 0 0-2.3-3.2c8.64-3.45 10.78-10.52 10.78-14.08v-3.29h-2.56a26.2 26.2 0 0 1-3.33 5.85 24.86 24.86 0 0 0-3.58-2.08c2.72-2.94 4.64-7.87 5.63-13l4 .74a43.27 43.27 0 0 1-1.28 4.67h11l.73-.19 2.82 1.63a43.47 43.47 0 0 1-3.68 8.8 30.21 30.21 0 0 0-3.23-1.57 30.83 30.83 0 0 0 2-4.86H222zm39.73 13.19c1.06 0 1.25-.83 1.41-5.44a10.73 10.73 0 0 0 3.52 1.6c-.38 5.73-1.34 7.39-4.61 7.39h-3.84c-3.61 0-4.54-1.22-4.54-5v-9.75h-4.8c-.58 6.65-2.05 12.13-9.7 15.23a10.77 10.77 0 0 0-2.36-3.1c6.65-2.5 7.55-6.82 7.93-12.13h-7.23v-3.71h28.54v3.71h-8.44v9.79c0 1.22.19 1.41 1.24 1.41zm1.38-19.87h-22.72v-3.68h22.72zm13.28-.87c2.66-.22 7.9-.7 13.7-1.21 3.26-.26 6.72-.45 9-.55v4.1a33 33 0 0 0-6.11.41 9.63 9.63 0 0 0-6.69 8.87c0 5.21 4.86 7.1 10.24 7.36l-1.47 4.38c-6.66-.42-12.93-4-12.93-10.88a12.59 12.59 0 0 1 4.67-9.76c-2.75.29-9.41 1-13.09 1.79l-.41-4.35c1.27-.03 2.48-.09 3.09-.16zm20.8 9.76l-2.43 1.09a24.36 24.36 0 0 0-2.5-4.45l2.37-1a41.7 41.7 0 0 1 2.56 4.36zm3.71-1.57l-2.4 1.16a27.67 27.67 0 0 0-2.62-4.32l2.33-1.09a48.49 48.49 0 0 1 2.69 4.25zm33.15-4.96a15.29 15.29 0 0 0-.22 1.7c-.13 3.46-.51 12.38-1.89 15.65-.7 1.63-1.92 2.46-4.13 2.46-1.82 0-3.74-.13-5.31-.25l-.48-4.29a26.3 26.3 0 0 0 4.48.45 1.73 1.73 0 0 0 1.83-1.12c.92-2 1.34-8.42 1.34-11.88h-7.2c-1.18 8.45-4.22 13.48-10 17.54l-3.71-3a18.28 18.28 0 0 0 4.19-3.13c3-3 4.57-6.53 5.28-11.4H314c-1.08 0-2.84 0-4.22.13v-4.19c1.34.13 3 .22 4.22.22h4.58c0-.89.06-1.82.06-2.78a23.17 23.17 0 0 0-.22-2.94h4.7c-.09.73-.16 2.08-.19 2.84 0 1-.06 2-.13 2.88h6a15.35 15.35 0 0 0 2.43-.22zm36.07-1.59a15 15 0 0 0-1.06 2.27 36.49 36.49 0 0 1-4.42 8.76c1.19.74 2.28 1.48 3.08 2.05l-2.91 3.75c-.77-.68-1.8-1.44-3-2.28a30.41 30.41 0 0 1-11.81 8l-3.71-3.23a27.14 27.14 0 0 0 11.94-7.17c-2.18-1.41-4.36-2.72-6-3.65l2.72-3c1.7.87 3.87 2.08 6 3.36a23.22 23.22 0 0 0 3.33-6.81h-9.19a37.43 37.43 0 0 1-8.45 8.25l-3.45-2.65A29.37 29.37 0 0 0 353.45 117a14.36 14.36 0 0 0 1.44-3.37l4.64 1.45c-.77 1.12-1.6 2.59-2 3.26h6.56a10.28 10.28 0 0 0 2.78-.35zm33.15 5.27c.67 0 2.21-.12 2.91-.19v4.13c-.86-.06-1.95-.13-2.82-.13h-8.28a16 16 0 0 1-8.19 13.15l-4.07-2.75c4.86-2.24 7.43-5.66 8-10.4h-8.8c-1 0-2.17.07-3 .13v-4.13a26.74 26.74 0 0 0 2.94.19h9v-4.54c-3.07.26-6.43.35-8.57.42l-1-3.72a74.9 74.9 0 0 0 10.91-.51 34.54 34.54 0 0 0 8.06-1.92l2.62 3.52-2.46.61a51.28 51.28 0 0 1-5.38 1.06v5.08zm17.95-9.27a27.61 27.61 0 0 0-.77 2.81 79.47 79.47 0 0 0-1.53 11.62 14.61 14.61 0 0 0 .13 2c.44-1.12 1-2.17 1.4-3.2l2 1.54a76 76 0 0 0-2.27 7.77 9.07 9.07 0 0 0-.2 1.48c0 .35 0 .86.07 1.31l-3.65.26a40.46 40.46 0 0 1-1.25-10.37 88.41 88.41 0 0 1 1.31-12.55 23.21 23.21 0 0 0 .32-3.1zm7.42 15.64a10.71 10.71 0 0 0-.38 2.66c0 1.41 1.22 2.24 4.42 2.24a36.88 36.88 0 0 0 7.93-.83l.1 4.28a43.55 43.55 0 0 1-8.19.64c-5.47 0-8.07-2-8.07-5.21a19.57 19.57 0 0 1 .55-4.13zm11.08-13.56v4.09a88.21 88.21 0 0 1-13.6 0v-4.09a65.32 65.32 0 0 0 13.6 0zm19.17-2.95a31.24 31.24 0 0 0-.42 4.22c-.16 3.4-.38 10.5-.38 14.44 0 3.2 1.92 4.22 4.35 4.22 5.24 0 8.57-3 10.84-6.46l2.88 3.55a16.46 16.46 0 0 1-13.75 7.23c-5.19 0-8.55-2.27-8.55-7.68 0-4.26.32-12.58.32-15.3a20.33 20.33 0 0 0-.41-4.28zm48.92 25.44a23.82 23.82 0 0 0-6.4-4.38v1.12c0 2.72-2.05 4.8-6.24 4.8-5.06 0-7.75-1.92-7.75-5.28 0-3.2 3-5.44 7.84-5.44.67 0 1.31 0 1.95.09-.06-1-.09-1.95-.12-2.88h-1.64c-1.85 0-5.5-.16-7.61-.41v-3.75a57.77 57.77 0 0 0 7.65.58h1.5v-3.3h-1.5a52.33 52.33 0 0 1-6.88-.48v-3.61a42.26 42.26 0 0 0 6.88.6h1.56v-1.44a12.48 12.48 0 0 0-.16-2.17h4.32a22.37 22.37 0 0 0-.22 2.24v1.25a68.8 68.8 0 0 0 7.55-.77l.09 3.65c-2.08.19-4.63.44-7.67.6v3.3c3.2-.13 5.86-.42 8.45-.74v3.75c-2.85.32-5.31.54-8.38.64.06 1.18.13 2.46.22 3.68a24.36 24.36 0 0 1 8.86 4.8zm-10.43-5.7a18 18 0 0 0-2.59-.22c-2.24 0-3.46.86-3.46 1.95s1.12 2 3.3 2c1.7 0 2.78-.51 2.78-2.33 0-.4 0-.85-.03-1.4zm49.73-12.73c-1.92-.1-4.9-.16-9.19-.16v4.7a7.83 7.83 0 0 1 1.18 4.39c0 4.12-2.43 9.37-10.17 11.55l-3.36-3.39c3.2-.68 6-1.73 7.74-3.62a6.62 6.62 0 0 1-1.44.16 5.58 5.58 0 0 1-5.47-5.82c0-3.59 2.88-5.92 6.33-5.92a8.07 8.07 0 0 1 1.25.09v-2.11c-4.8.06-9.7.26-13.6.48l-.1-3.84c3.62 0 9.38-.16 13.64-.22a6.44 6.44 0 0 0 0-1 20.53 20.53 0 0 0-.29-2.76h4.61c-.09.52-.19 2.21-.22 2.72v1h9.18zm-14.43 10.11c1.31 0 2.49-1 2.08-3.74a2.26 2.26 0 0 0-2.08-1.12 2.43 2.43 0 1 0 0 4.86zm31.23 5.41a5.17 5.17 0 1 1-5.18-5.19 5.18 5.18 0 0 1 5.18 5.19zm-2.3 0a2.87 2.87 0 1 0-2.88 2.84 2.83 2.83 0 0 0 2.88-2.84z"/></g></g></svg>