<svg xmlns="http://www.w3.org/2000/svg" viewBox="0 0 207 44"><defs><style>.cls-1{fill:#73c6c7;}.cls-2{fill:#fff;}</style></defs><title>h-btn1</title><g id="Layer_2" data-name="Layer 2"><g id="SVG"><rect class="cls-1" width="207" height="44" rx="5" ry="5"/><path class="cls-2" d="M30,21.69a13.65,13.65,0,0,1,3.71-.56c2.64,0,4.64,1.42,4.64,3.71,0,2.12-1.22,3.6-3.85,4.23a12.07,12.07,0,0,1-2.25.25l-.65-1.8a11.51,11.51,0,0,0,2.14-.13c1.5-.27,2.81-1.06,2.81-2.57s-1.24-2.13-2.86-2.13a11.94,11.94,0,0,0-3.66.6c0,1.47.08,3,.08,3.67,0,1.89-.71,2.43-1.75,2.43-1.55,0-3.93-1.4-3.93-3.13,0-1.51,1.82-3.08,3.93-4V21.15c0-.64,0-1.3,0-2-.43,0-.83.06-1.17.06-.8,0-1.64,0-2.34-.09l-.06-1.73a18.68,18.68,0,0,0,2.36.14l1.23,0c0-.81,0-1.46,0-1.79a12.29,12.29,0,0,0-.1-1.4h1.94c0,.34-.09.94-.11,1.37s0,1-.07,1.64a22,22,0,0,0,3.51-.69l0,1.77A35.4,35.4,0,0,1,30,19c0,.72,0,1.42,0,2.05Zm-1.55,5c0-.56,0-1.58-.05-2.73-1.3.63-2.2,1.53-2.2,2.25s1,1.31,1.66,1.31C28.24,27.5,28.46,27.27,28.46,26.67ZM35.63,16.3a33.87,33.87,0,0,1,4.21,2.56L39,20.3a26.43,26.43,0,0,0-4.13-2.63Z"/><path class="cls-2" d="M45.05,20.84V30.2H43.4V14.39H50v6.45Zm0-5.11V17h3.39V15.73Zm3.39,3.79V18.17H45.05v1.35Zm.41,8.16v1.05H47.31V22.28h6.78v5.4Zm0-4v2.61h3.68V23.68Zm9.38,4.4c0,1-.23,1.53-.88,1.82a10.4,10.4,0,0,1-3.35.28,5.83,5.83,0,0,0-.57-1.71c1.13.06,2.3,0,2.66,0s.43-.13.43-.45v-7.2H51.45V14.39h6.78ZM53.05,15.71V17h3.47V15.71Zm3.47,3.83V18.17H53.05v1.37Z"/><path class="cls-2" d="M70.56,13.71A20,20,0,0,0,78.36,20a7.72,7.72,0,0,0-1.1,1.5,25.32,25.32,0,0,1-2.92-1.82V21h-9V19.72a24,24,0,0,1-2.9,1.84,6.42,6.42,0,0,0-1-1.33,20,20,0,0,0,7.4-6.52ZM64.35,23H75.44v7.24H73.73v-.7H66v.7H64.35ZM74,19.45a20.86,20.86,0,0,1-4.25-4.1,19.25,19.25,0,0,1-4.05,4.1Zm-8.05,5V28h7.74V24.49Z"/><path class="cls-2" d="M93.41,14.84a9.63,9.63,0,0,0-.09,1.41c0,.75,0,1.53-.06,2.23L95,18.35c.49,0,1.09-.05,1.53-.1V20c-.28,0-1.08,0-1.53,0s-1.06,0-1.72.09A28,28,0,0,1,93,23.79c-.17.85-.58,1.08-1.44,1.08A20.86,20.86,0,0,1,89,24.6l0-1.56a12.92,12.92,0,0,0,1.71.21c.39,0,.57-.05.63-.43a22.43,22.43,0,0,0,.16-2.58c-1.71.13-3.66.33-5.31.49,0,1.75,0,3.51,0,4.23,0,1.84.12,2.4,3,2.4a34.57,34.57,0,0,0,5.31-.44l0,1.93c-1.21.13-3.38.29-5.15.29-4.34,0-4.81-1-4.88-3.91,0-.75,0-2.57,0-4.32l-1.6.18L81,21.36l-.2-1.82a19.35,19.35,0,0,0,2-.11l1.73-.16V17.09a12,12,0,0,0-.11-1.71h2A12.93,12.93,0,0,0,86.28,17c0,.51,0,1.26,0,2.11l5.35-.5V16.3a12.58,12.58,0,0,0-.13-1.46Z"/><path class="cls-2" d="M103.5,19.85a2.09,2.09,0,1,1-2.09,2.09A2.09,2.09,0,0,1,103.5,19.85Z"/><path class="cls-2" d="M115.15,18.64c-1.57.52-3.24,1-4.58,1.42l-.66-1.47c1.31-.27,3.22-.78,5.08-1.26ZM116.8,28a23.38,23.38,0,0,1-5.51,2.24A10.64,10.64,0,0,0,110,29a19.67,19.67,0,0,0,5.24-1.69Zm-2.28-11.39a25.36,25.36,0,0,0-3.77-1.48l.74-1.14a22.81,22.81,0,0,1,3.77,1.34Zm3.4-.49a8.66,8.66,0,0,1-1.53,1.49,5.32,5.32,0,0,0-1.26-.81,7.46,7.46,0,0,0,2.66-3.15l1.52.24a10.3,10.3,0,0,1-.56,1h5.78l.25,0,1.12.29a11.65,11.65,0,0,1-1.75,2.61l-1.31-.42a9,9,0,0,0,.9-1.22h-2.49c.4,1.3,1.41,2.45,5.06,2.93a4.9,4.9,0,0,0-.85,1.37c-.5-.09-1-.2-1.38-.3v7.14H112.34V20.05H116a4.33,4.33,0,0,0-.74-1.1c2.9-.47,3.93-1.33,4.34-2.81Zm4.48,5H114v1h8.44Zm0,2H114v1h8.44Zm0,2.05H114v1h8.44Zm1.39-5.13a5.32,5.32,0,0,1-3.29-2.36c-.69,1.1-1.88,1.85-4,2.36Zm-3,7.31a53.67,53.67,0,0,1,5.38,2.09l-1.92.79a36.74,36.74,0,0,0-4.83-2Z"/><path class="cls-2" d="M133.38,21.42c.54.57,2.27,2.77,2.65,3.31L135,26c-.31-.65-1-1.78-1.59-2.73v6.87h-1.56V23.29a18.93,18.93,0,0,1-2.29,4.77,9.26,9.26,0,0,0-.81-1.68,17.67,17.67,0,0,0,2.59-5.16H129V19.65h2.8V13.76h1.56v5.89h2.81v1.57h-2.81ZM130,19.15a19.11,19.11,0,0,0-.9-4l1.19-.31a19.18,19.18,0,0,1,1,4ZM136.33,15c-.46,1.41-1,3.08-1.47,4.11l-1.06-.33a34.15,34.15,0,0,0,1.08-4.1Zm7,10.19v5h-1.56V25.52l-5.33,1-.27-1.55,5.6-1V13.69h1.56v10l2-.34.24,1.53Zm-3.87-2.61a13.83,13.83,0,0,0-3-2.16l.79-1.21a15.61,15.61,0,0,1,3,2Zm.72-4.34A13.11,13.11,0,0,0,137.34,16l.85-1.13A14.44,14.44,0,0,1,141,17Z"/><path class="cls-2" d="M154.68,18H148V16.64h6.72Zm-.6,11.23h-3.87V30h-1.44v-6h5.31Zm0-8.82h-5.27v-1.3h5.27Zm-5.27,1.1h5.27V22.8h-5.27ZM154,15.58h-5.17V14.27H154Zm-3.82,9.69v2.59h2.43V25.27Zm14.24-6.21v1.22h-9.81V19.06h4.09v-1h-3.19V16.9h3.19V16h-3.66V14.77h3.66v-1.1h1.58v1.1h3.78V16h-3.78v.9h3.49v1.17h-3.49v1Zm-1,9.47c0,.75-.17,1.15-.67,1.38a7.35,7.35,0,0,1-2.47.22,4.52,4.52,0,0,0-.43-1.35c.74,0,1.48,0,1.69,0s.31-.07.31-.29V26.85h-4.38v3.32h-1.54v-9h7.49Zm-6-6.12v1.08h4.38V22.41Zm4.38,3.29V24.62h-4.38V25.7Z"/><path class="cls-2" d="M173.52,25.2c-1.85,1.17-3.92,2.39-5.49,3.29L167,27c1.53-.76,3.83-2.05,6-3.3Zm9-5.44a39.56,39.56,0,0,1-3.69,3.65,12.8,12.8,0,0,0,4.88,4,7.61,7.61,0,0,0-1.2,1.49,14.82,14.82,0,0,1-6.38-7V28c0,1.06-.25,1.57-.9,1.86a10.11,10.11,0,0,1-3.33.32,8.89,8.89,0,0,0-.59-1.76c1.15,0,2.3,0,2.66,0s.45-.1.45-.43V18.16h-6.89V16.54h6.89V13.71h1.71v2.83h4.41a21.78,21.78,0,0,0-2.95-1.8l1-1.07a20.8,20.8,0,0,1,3.31,1.95l-.83.92h2.11v1.62h-7.06v.19A18.42,18.42,0,0,0,178,22.17a24,24,0,0,0,3.08-3.46ZM171.16,23.2a16.11,16.11,0,0,0-2.79-3.3l1.26-.88a15.9,15.9,0,0,1,2.88,3.17Z"/></g></g></svg>