<svg xmlns="http://www.w3.org/2000/svg" viewBox="0 0 362.38 12.48"><defs><style>.cls-1{fill:#73c3c4;}</style></defs><title>h-toptext</title><g id="Layer_2" data-name="Layer 2"><g id="SVG"><path class="cls-1" d="M8,8.5A12.39,12.39,0,0,0,12.22,11a6.44,6.44,0,0,0-1.1,1.34,12.89,12.89,0,0,1-4.27-3v3.16H5.25V9.32a12.66,12.66,0,0,1-4.18,2.94A8.31,8.31,0,0,0,0,11,11.81,11.81,0,0,0,4.1,8.5H1.47v-5H5.25V2.79H.36V1.35H5.25V.29h1.6V1.35h5V2.79h-5v.75h4v5ZM3,5.46H5.25V4.69H3ZM3,7.35H5.25v-.8H3ZM6.85,4.69v.77H9.24V4.69ZM9.24,6.55H6.85v.8H9.24Z"/><path class="cls-1" d="M18.07,9.06A11.76,11.76,0,0,1,15.55,12a11.28,11.28,0,0,0-1.26-.9,7.82,7.82,0,0,0,2.19-2.5ZM26.1,3H14.65V1.52h4.88V.27h1.63V1.52H26.1ZM21.16,8.05v2.74c0,.78-.14,1.17-.71,1.39a7.08,7.08,0,0,1-2.38.24,6.67,6.67,0,0,0-.49-1.49c.66,0,1.48,0,1.69,0s.28-.05.28-.22V8.05H16.13V3.9h8.6V8.05ZM17.68,6.72h5.41V5.23H17.68ZM24,8.55a20.79,20.79,0,0,1,2.35,2.75l-1.52.76a19.51,19.51,0,0,0-2.25-2.83Z"/><path class="cls-1" d="M32,1.36a11.68,11.68,0,0,0-.31,1.15,32.13,32.13,0,0,0-.62,4.72,6,6,0,0,0,0,.83c.18-.46.39-.88.57-1.3l.81.62a29.83,29.83,0,0,0-.93,3.16,3.69,3.69,0,0,0-.07.6c0,.14,0,.35,0,.53l-1.48.11a16.43,16.43,0,0,1-.51-4.21,34.58,34.58,0,0,1,.54-5.1,9.94,9.94,0,0,0,.13-1.26Zm3,6.36a4,4,0,0,0-.16,1.08c0,.57.5.91,1.8.91a14.5,14.5,0,0,0,3.22-.34l0,1.75a18.41,18.41,0,0,1-3.33.26c-2.22,0-3.27-.81-3.27-2.12a7.92,7.92,0,0,1,.22-1.68Zm4.5-5.51V3.87a34,34,0,0,1-5.53,0V2.21A26.29,26.29,0,0,0,39.55,2.21Z"/><path class="cls-1" d="M42.73,6.23a15.67,15.67,0,0,0,.64-3.4l1.1.15a17.08,17.08,0,0,1-.58,3.65Zm3.87-.82A11.18,11.18,0,0,0,46,3.65V12.4H44.49V.27H46V2.72l.7-.3a14,14,0,0,1,1,2.46Zm5.3,2.1A5.79,5.79,0,0,0,55.22,11a6.33,6.33,0,0,0-1.09,1.45,6.8,6.8,0,0,1-3.38-3.82,7.09,7.09,0,0,1-3.3,3.85,6.77,6.77,0,0,0-1.09-1.2,5.47,5.47,0,0,0,3.16-3.77H46.93V6h2.8c0-.41,0-.8,0-1.19V3.67H47.53V2.24h2.23v-2h1.56v2h2.83V6H55V7.51Zm-.58-2.65c0,.39,0,.78,0,1.18h1.35V3.67H51.32Z"/><path class="cls-1" d="M60.24,9.46A3,3,0,0,0,63,10.75a63.77,63.77,0,0,0,6.42-.12,6.83,6.83,0,0,0-.48,1.51c-1.62.08-4.37.11-6,0a4,4,0,0,1-3.36-1.44c-.52.51-1.06,1-1.72,1.56l-.73-1.54a14.76,14.76,0,0,0,1.61-1.19V6.73H57.32V5.32h2.92Zm-.92-5.82a10,10,0,0,0-2-2.16L58.55.6a10.73,10.73,0,0,1,2,2.07ZM62.5,2.37H60.79V1.17H64.1V.27h1.5v.9h3.51v1.2h-1.5l-.46.91h1.69V8.85c0,.63-.11,1-.52,1.2a4.14,4.14,0,0,1-1.76.22,4.92,4.92,0,0,0-.3-1h-2v.39H63.18V6.77h1.2V6.06H62.86V5.12h1.52V4.45H62.52v5.77H61.13V3.28h1.48a3.33,3.33,0,0,0-.33-.86Zm3.24.91c.12-.28.24-.61.34-.91H63.7a2.89,2.89,0,0,1,.31.91Zm-.1,4.36H64.23v.72h1.41Zm1.78-3.19H65.48v.67H67v.94H65.48v.71H66.7V9h.52c.15,0,.2-.06.2-.21Z"/><path class="cls-1" d="M74.93,1.36a11.68,11.68,0,0,0-.31,1.15A32.13,32.13,0,0,0,74,7.23a6,6,0,0,0,0,.83c.18-.46.39-.88.57-1.3l.81.62a29.83,29.83,0,0,0-.93,3.16,3.69,3.69,0,0,0-.07.6c0,.14,0,.35,0,.53L73,11.78a16.43,16.43,0,0,1-.51-4.21A34.58,34.58,0,0,1,73,2.47a9.94,9.94,0,0,0,.13-1.26Zm3,6.36a4,4,0,0,0-.16,1.08c0,.57.5.91,1.8.91a14.5,14.5,0,0,0,3.22-.34l0,1.75a18.41,18.41,0,0,1-3.33.26c-2.22,0-3.27-.81-3.27-2.12a7.92,7.92,0,0,1,.22-1.68Zm4.5-5.51V3.87a34,34,0,0,1-5.53,0V2.21A26.29,26.29,0,0,0,82.45,2.21Z"/><path class="cls-1" d="M90.14.77a21.33,21.33,0,0,1-1.21,2.51v9.1H87.46V5.51a10.9,10.9,0,0,1-1.08,1.22,9.69,9.69,0,0,0-.8-1.57A13.82,13.82,0,0,0,88.71.3ZM98,10.54V12H89.61V10.54h3.46V8H90.32V6.5h2.75V4.24H89.91V2.78H93.6a20.3,20.3,0,0,0-2.17-1.43l1-1.1a17.22,17.22,0,0,1,2.93,1.88l-.57.65h3V4.24H94.64V6.5h2.81V8H94.64v2.58Z"/><path class="cls-1" d="M110.11,11.35a9.76,9.76,0,0,0-2.6-1.78c0,.17,0,.32,0,.45,0,1.11-.83,2-2.53,2-2.06,0-3.15-.78-3.15-2.14S103,7.62,105,7.62a6.85,6.85,0,0,1,.79,0c0-.39,0-.8,0-1.17h-.66c-.76,0-2.24-.07-3.1-.17V4.8a24,24,0,0,0,3.11.23h.61V3.69h-.61a22.64,22.64,0,0,1-2.79-.19l0-1.47a17.84,17.84,0,0,0,2.8.24h.64V1.69a5.3,5.3,0,0,0-.07-.88h1.76c0,.26-.08.58-.1.91v.5a27.05,27.05,0,0,0,3.07-.31l0,1.48c-.85.08-1.89.18-3.12.25V5c1.3-.05,2.37-.17,3.43-.3V6.2c-1.16.13-2.16.22-3.41.26,0,.48,0,1,.09,1.5a9.7,9.7,0,0,1,3.6,2ZM105.87,9a6,6,0,0,0-1.05-.1c-.91,0-1.4.35-1.4.8s.45.79,1.33.79c.69,0,1.14-.21,1.14-.95C105.89,9.44,105.89,9.26,105.87,9Z"/><path class="cls-1" d="M121,5.47a11.28,11.28,0,0,0-3.35.63c-.38.11-.87.31-1.25.44l-.48-1.83a10.76,10.76,0,0,0,1.4-.23,18.36,18.36,0,0,1,3.89-.58c2,0,3.47,1.16,3.47,3.17,0,2.76-2.55,4.47-6.12,5l-.94-1.61c3.2-.37,5.24-1.41,5.24-3.42C122.85,6.16,122.2,5.46,121,5.47Zm2.6-4.07L123.33,3c-1.51-.1-4.3-.35-5.78-.61l.26-1.56A36.87,36.87,0,0,0,123.59,1.4Z"/><path class="cls-1" d="M131.6,12.18a24.56,24.56,0,0,0-2.8-2.87l1.36-1.17A23.74,23.74,0,0,1,133,11Z"/><path class="cls-1" d="M147.42,9.13h-1.57v-.8h-6.28a6.79,6.79,0,0,1-2,4.14,5.21,5.21,0,0,0-1.21-1.08c1.62-1.44,1.76-3.52,1.76-5.11V3.42h9.28ZM148.29.9V2.38H136.94V.9Zm-8.58,4V6.29c0,.2,0,.4,0,.61h6.15V4.85Z"/><path class="cls-1" d="M154.9,4.82A17.72,17.72,0,0,1,154,9.45c1.21,1,2.85,1.16,4.75,1.17.76,0,3.4,0,4.35,0a5.88,5.88,0,0,0-.6,1.51h-3.79c-2.2,0-4-.26-5.35-1.3a5.54,5.54,0,0,1-1.44,1.68,5.21,5.21,0,0,0-1.16-1,5,5,0,0,0,1.53-1.74A8.64,8.64,0,0,1,151,7.16l1.21-.44a6.44,6.44,0,0,0,.64,1.47A13.94,13.94,0,0,0,153.33,6h-.88l-.17.37L150.88,6c.56-1.14,1.18-2.55,1.66-3.68h-1.69V1h2.38l.23-.05,1.06.28c-.39,1-.93,2.25-1.46,3.43h.65l.27,0Zm2.83-2.55h-2.38V1.1h2.38V.36h1.51V1.1h2.7V2.81h1V4h-1v1.7h-2.7v.58h2.81V7.38h-2.81V8h3.4V9.2h-3.4v1.06h-1.51V9.2h-3.08V8h3.08V7.38h-2.52V6.27h2.52V5.69h-2.44V4.52h2.44V4h-3.26V2.81h3.26Zm1.51,0v.54h1.18V2.27ZM160.42,4h-1.18v.53h1.18Z"/><path class="cls-1" d="M166.93,2.3l5.55-.49c1.33-.11,2.75-.18,3.64-.22l0,1.66a13,13,0,0,0-2.49.17A3.92,3.92,0,0,0,170.94,7c0,2.12,2,2.87,4.16,3l-.6,1.78c-2.7-.18-5.25-1.64-5.25-4.42a5.13,5.13,0,0,1,1.9-4c-1.11.11-3.83.4-5.32.72l-.16-1.76C166.18,2.35,166.67,2.33,166.93,2.3Z"/><path class="cls-1" d="M183.43,1.31a9.21,9.21,0,0,0,0,1V6.69c0,.33,0,.84,0,1.14h-1.92c0-.25.06-.76.06-1.15V2.3a8.63,8.63,0,0,0,0-1Zm6-.11c0,.36,0,.78,0,1.3V5.07c0,2.8-.54,4-1.51,5.06A7.49,7.49,0,0,1,184.7,12l-1.36-1.43a6,6,0,0,0,3.18-1.64c.89-1,1.06-1.95,1.06-4V2.5a9.4,9.4,0,0,0-.08-1.3Z"/><path class="cls-1" d="M203.55,3.22A18,18,0,0,1,201.11,8a13,13,0,0,1-4.93,3.77l-1.48-1.53a11.27,11.27,0,0,0,4.94-3.38,13.09,13.09,0,0,0,2.46-5.61l2,.52C203.89,2.24,203.71,2.81,203.55,3.22Z"/><path class="cls-1" d="M209.12,6.6c.6-.59,1.61-1.87,2.49-2.93s1.49-1,2.55-.12a33,33,0,0,1,2.65,2.64c.88.95,2.27,2.43,3.2,3.51l-1.39,1.51c-.83-1.07-2-2.51-2.78-3.41a28.87,28.87,0,0,0-2.39-2.57c-.46-.39-.68-.39-1.06.07-.5.65-1.44,1.94-2,2.66-.3.4-.61.87-.83,1.21l-1.54-1.58A13.79,13.79,0,0,0,209.12,6.6ZM218,4.35l-1.17.51a12,12,0,0,0-1.18-2.12l1.13-.47A19.82,19.82,0,0,1,218,4.35Zm1.78-.76-1.13.54a13.06,13.06,0,0,0-1.24-2.06l1.11-.51A16.8,16.8,0,0,1,219.8,3.59Z"/><path class="cls-1" d="M223.08,5.27c.47,0,1.42.07,2.09.07h7c.6,0,1.19,0,1.53-.07v2c-.32,0-1-.07-1.53-.07h-7c-.74,0-1.61,0-2.09.07Z"/><path class="cls-1" d="M241.16,5.79l-.95,1.45a32.44,32.44,0,0,0-3-1.84L238.2,4C239.07,4.42,240.5,5.32,241.16,5.79Zm1.06,3a13.18,13.18,0,0,0,5.05-4.87l1,1.76a15.54,15.54,0,0,1-5.17,4.67,15.37,15.37,0,0,1-4.34,1.61l-1-1.71A14.47,14.47,0,0,0,242.22,8.76Zm.95-5.91-1,1.44c-.73-.51-2.08-1.39-2.94-1.87L240.2,1C241.06,1.47,242.49,2.38,243.17,2.85Z"/><path class="cls-1" d="M260.77,11.38c0,.2,0,.65,0,.88h-1.64a4,4,0,0,0,0-.52h-4.93c-.37,0-.9,0-1.12,0v-1.6a10.12,10.12,0,0,0,1.13.05h4.92V8.5H255c-.5,0-1.12,0-1.42,0V7c.34,0,.92,0,1.42,0h4.15V5.46h-4.29c-.49,0-1.31,0-1.62,0V3.94c.34,0,1.13.06,1.62.06h4.91l1,0c0,.17,0,.6,0,.87Z"/><path class="cls-1" d="M271.27,8.36A12.29,12.29,0,0,0,276,3.3l1,1.83A13.92,13.92,0,0,1,272.21,10a14.14,14.14,0,0,1-4.83,1.83l-1.09-1.72A13.35,13.35,0,0,0,271.27,8.36Zm0-4.21L270,5.51A28.58,28.58,0,0,0,266.7,2.7l1.22-1.3A26.93,26.93,0,0,1,271.27,4.15Z"/><path class="cls-1" d="M291.47,9.4h-2.79v1.52c0,.74-.16,1.09-.7,1.3a7.55,7.55,0,0,1-2.36.21,4.85,4.85,0,0,0-.48-1.35c.69,0,1.51,0,1.73,0s.29-.06.29-.23V9.4h-4.23A8.93,8.93,0,0,1,284.65,11l-1.24.91a9.49,9.49,0,0,0-1.86-1.82l.94-.66h-2.78V8.1h7.45V7.41H281V3h3.82V2.4H280V1.14h4.77V.29h1.51v.85h4.87V2.4h-4.87V3h4V7.41h-1.6V8.1h2.79Zm-9.08-4.69h2.39V4h-2.39Zm0,1.65h2.39V5.69h-2.39ZM286.29,4v.67h2.48V4Zm2.48,1.65h-2.48v.67h2.48Z"/><path class="cls-1" d="M299.4,5.8H296v6.62h-1.53V.79h4.95ZM296,2v.68h2V2Zm2,2.52V3.82h-2v.74Zm7.44,6c0,.89-.19,1.34-.76,1.58a7.09,7.09,0,0,1-2.68.28,5.48,5.48,0,0,0-.54-1.58c.82,0,1.78,0,2.05,0s.37-.09.37-.33V5.84h-3.53v-5h5.09ZM301.78,2v.68h2.06V2Zm2.06,2.55V3.82h-2.06v.77Z"/><path class="cls-1" d="M318.07,2.25l.82.53a6.75,6.75,0,0,0-.29.9,12.82,12.82,0,0,1-2,4.73A10.25,10.25,0,0,1,311.43,12L310,10.45a8.59,8.59,0,0,0,5.1-3,8.3,8.3,0,0,0,1.53-3.67h-6.06c-.59,0-1.21,0-1.54,0V2a14.76,14.76,0,0,0,1.54.1h6c.16,0,.38,0,.61,0-.22-.43-.48-.89-.72-1.26l1.06-.45a16.49,16.49,0,0,1,1,1.72ZM319.37,0c.33.47.79,1.26,1,1.72l-1.08.46a15.09,15.09,0,0,0-1-1.74Z"/><path class="cls-1" d="M333.74,5.08a5.06,5.06,0,0,0-.25.55,9.41,9.41,0,0,1-1.92,3.6A9.75,9.75,0,0,1,326.92,12l-1.3-1.47a8.71,8.71,0,0,0,4.52-2.28A5.55,5.55,0,0,0,331.47,6h-6.28c-.31,0-1,0-1.5.07V4.42c.54,0,1.1.08,1.5.08h6.44a2.68,2.68,0,0,0,.95-.13Zm-8.86-3.77a11.37,11.37,0,0,0,1.35.07h5a12.62,12.62,0,0,0,1.4-.07V3c-.35,0-1,0-1.43,0h-5c-.41,0-1,0-1.35,0Z"/><path class="cls-1" d="M342.77,8.36A12.29,12.29,0,0,0,347.5,3.3l1,1.83A13.92,13.92,0,0,1,343.71,10a14.14,14.14,0,0,1-4.83,1.83l-1.09-1.72A13.35,13.35,0,0,0,342.77,8.36Zm0-4.21-1.32,1.36A28.58,28.58,0,0,0,338.2,2.7l1.22-1.3A26.93,26.93,0,0,1,342.77,4.15Z"/><path class="cls-1" d="M356,4.65a46.4,46.4,0,0,1,5.44,2l-.73,1.81A34.1,34.1,0,0,0,356,6.55v3.68c0,.37.07,1.28.13,1.81h-2a13.77,13.77,0,0,0,.13-1.81V2.76a9.36,9.36,0,0,0-.13-1.58h2A14.75,14.75,0,0,0,356,2.76Zm3.46-.57a10.13,10.13,0,0,0-1.14-2l1.09-.47c.36.55.88,1.38,1.18,2Zm1.78-.73a11.16,11.16,0,0,0-1.21-1.95l1.08-.5a17.4,17.4,0,0,1,1.23,1.92Z"/></g></g></svg>