<svg xmlns="http://www.w3.org/2000/svg" viewBox="0 0 401.5 85.34"><defs><style>.cls-1{fill:#73c6c7;}.cls-2{fill:#fff;}</style></defs><title>i-btn1</title><g id="Layer_2" data-name="Layer 2"><g id="SVG"><rect class="cls-1" width="401.5" height="85.34" rx="5" ry="5"/><path class="cls-2" d="M58.2,42.06A26.76,26.76,0,0,1,65.39,41c5.13,0,9,2.76,9,7.2,0,4.11-2.38,7-7.47,8.2a23.54,23.54,0,0,1-4.37.49l-1.25-3.49a22.59,22.59,0,0,0,4.15-.25c2.9-.52,5.45-2.06,5.45-5,0-2.65-2.41-4.12-5.55-4.12a23.23,23.23,0,0,0-7.09,1.15c0,2.86.14,5.76.14,7.12C58.41,56,57.05,57,55,57c-3,0-7.61-2.73-7.61-6.08,0-2.93,3.53-6,7.61-7.75V41c0-1.22,0-2.52,0-3.81-.84.07-1.61.11-2.27.11-1.54,0-3.18,0-4.54-.18l-.11-3.35a35.21,35.21,0,0,0,4.58.28c.73,0,1.53,0,2.37-.07,0-1.57,0-2.83,0-3.46a23.1,23.1,0,0,0-.21-2.72h3.77c-.07.66-.18,1.82-.21,2.65s-.07,2-.14,3.18a42.16,42.16,0,0,0,6.81-1.33l.07,3.43a69.93,69.93,0,0,1-6.95,1.15c0,1.39-.07,2.76-.07,4Zm-3,9.68c0-1.09-.07-3.08-.11-5.31-2.51,1.22-4.26,3-4.26,4.36s2,2.55,3.21,2.55C54.78,53.34,55.2,52.89,55.2,51.74ZM69.09,31.63a63.34,63.34,0,0,1,8.17,4.95l-1.71,2.8a50.66,50.66,0,0,0-8-5.1Z"/><path class="cls-2" d="M87.39,40.42V58.58H84.17V27.93H97V40.42Zm0-9.91V33H94V30.51ZM94,37.87V35.26H87.39v2.61Zm.8,15.82v2h-3V43.22h13.16V53.69Zm0-7.75V51h7.13V45.94Zm18.19,8.52c0,1.95-.45,3-1.71,3.52s-3.35.56-6.49.56a11.37,11.37,0,0,0-1.12-3.31c2.2.1,4.47.07,5.17.07s.84-.25.84-.88v-14H99.78V27.93h13.16Zm-10-24V33h6.74V30.47Zm6.74,7.44V35.26h-6.74v2.65Z"/><path class="cls-2" d="M136.86,26.6A38.6,38.6,0,0,0,152,38.78a14,14,0,0,0-2.13,2.9,44.86,44.86,0,0,1-5.66-3.53v2.48H126.8V38.26a47.42,47.42,0,0,1-5.62,3.56,12,12,0,0,0-2-2.58c6-3,11.7-8.28,14.35-12.64Zm-12.05,18h21.51v14H143V57.25H128v1.36h-3.18Zm18.79-6.84a40.26,40.26,0,0,1-8.24-8,37.63,37.63,0,0,1-7.86,8ZM128,47.51v6.84h15V47.51Z"/><path class="cls-2" d="M181.16,28.8a21,21,0,0,0-.17,2.72c0,1.47-.07,3-.11,4.33,1.19-.1,2.31-.17,3.29-.24s2.09-.11,3-.21v3.42c-.55,0-2.09,0-3,0s-2.06.07-3.36.18a50.19,50.19,0,0,1-.52,7.12c-.31,1.64-1.12,2.09-2.79,2.09a39.74,39.74,0,0,1-4.82-.52l.07-3a23.08,23.08,0,0,0,3.32.42c.76,0,1.11-.1,1.22-.83a42.54,42.54,0,0,0,.31-5c-3.31.25-7.08.63-10.3.94,0,3.39-.07,6.81,0,8.21.11,3.56.25,4.64,5.87,4.64a68.46,68.46,0,0,0,10.3-.84L183.36,56c-2.34.24-6.56.56-10,.56-8.42,0-9.32-1.89-9.46-7.58,0-1.46,0-5,0-8.38-1.29.14-2.34.25-3.1.35-1.09.14-2.87.39-3.78.53l-.38-3.53c1,0,2.48-.07,3.91-.21l3.35-.31V33.16a25.46,25.46,0,0,0-.21-3.31h3.84a28.56,28.56,0,0,0-.17,3.14c0,1,0,2.44,0,4.08,3.18-.31,6.92-.66,10.37-1V31.63a23.39,23.39,0,0,0-.24-2.83Z"/><path class="cls-2" d="M200.75,38.5a4,4,0,1,1-4.05,4A4.05,4.05,0,0,1,200.75,38.5Z"/><path class="cls-2" d="M223.34,36.17c-3,1-6.28,1.95-8.87,2.75l-1.29-2.86c2.55-.52,6.25-1.5,9.85-2.44Zm3.21,18.18a46.2,46.2,0,0,1-10.68,4.33,21.44,21.44,0,0,0-2.45-2.4A38.13,38.13,0,0,0,223.58,53Zm-4.43-22.09a46.91,46.91,0,0,0-7.3-2.87l1.43-2.2a43.4,43.4,0,0,1,7.3,2.59Zm6.6-.95a16.69,16.69,0,0,1-3,2.9,9.23,9.23,0,0,0-2.45-1.57,14.54,14.54,0,0,0,5.17-6.11l2.93.45a16.86,16.86,0,0,1-1.08,2h11.21l.49-.1,2.16.56a22.09,22.09,0,0,1-3.38,5.06l-2.55-.8A16.86,16.86,0,0,0,240,31.31h-4.81c.76,2.52,2.72,4.75,9.81,5.69a9,9,0,0,0-1.65,2.66c-1-.18-1.88-.39-2.68-.6V52.92H217.89v-14h7a8.28,8.28,0,0,0-1.43-2.13c5.62-.91,7.61-2.58,8.41-5.45ZM237.41,41H221V42.9h16.37Zm0,3.91H221v2h16.37Zm0,4H221v2h16.37Zm2.69-10c-3.49-1.08-5.31-2.72-6.39-4.58-1.33,2.13-3.63,3.6-7.79,4.58Zm-5.9,14.17c3.73,1.26,7.92,2.87,10.44,4l-3.74,1.54a70.1,70.1,0,0,0-9.36-3.95Z"/><path class="cls-2" d="M258.71,41.54c1,1.12,4.4,5.38,5.13,6.42l-2.06,2.55c-.59-1.25-1.92-3.45-3.07-5.3V58.54h-3V45.17a36.41,36.41,0,0,1-4.43,9.25,17.57,17.57,0,0,0-1.57-3.24,34.66,34.66,0,0,0,5-10h-4.43v-3h5.41V26.7h3V38.12h5.44v3h-5.44Zm-6.57-4.4a36,36,0,0,0-1.74-7.85l2.3-.6a35.46,35.46,0,0,1,1.92,7.79Zm12.29-8c-.9,2.73-1.95,6-2.86,8l-2.06-.63a62.2,62.2,0,0,0,2.1-8Zm13.51,19.76v9.64h-3V49.5l-10.34,1.89-.52-3,10.86-2V26.56h3V45.87l3.88-.66.45,3Zm-7.5-5.06a26.81,26.81,0,0,0-5.73-4.19l1.54-2.34a30.49,30.49,0,0,1,5.83,3.95Zm1.39-8.41A25.31,25.31,0,0,0,266.39,31l1.64-2.2A28.39,28.39,0,0,1,273.54,33Z"/><path class="cls-2" d="M300,34.87H287V32.29h13Zm-1.15,21.79h-7.51v1.46h-2.79V46.39h10.3Zm0-17.11H288.59V37h10.23Zm-10.23,2.13h10.23v2.55H288.59Zm10.16-11.45h-10V27.68h10ZM291.35,49v5h4.71V49ZM319,37v2.37h-19V37h7.93V35.05h-6.18V32.78h6.18V31h-7.09V28.66h7.09V26.53h3.07v2.13h7.33V31h-7.33v1.75h6.77v2.27h-6.77V37Zm-2,18.36c0,1.47-.32,2.24-1.29,2.69a14.51,14.51,0,0,1-4.79.42,8.8,8.8,0,0,0-.84-2.62c1.44.07,2.87,0,3.29,0s.59-.14.59-.56V52.09h-8.48v6.42h-3V41.09H317ZM305.46,43.46v2.1h8.48v-2.1Zm8.48,6.39V47.76h-8.48v2.09Z"/><path class="cls-2" d="M336.56,48.87c-3.59,2.27-7.61,4.65-10.64,6.39l-2-2.93c3-1.47,7.44-4,11.63-6.39ZM354,38.33a79.52,79.52,0,0,1-7.16,7.09,24.78,24.78,0,0,0,9.46,7.78A15.16,15.16,0,0,0,354,56.1c-5.34-2.69-9.42-7.58-12.35-13.51v11.8c0,2.06-.49,3-1.75,3.59s-3.42.63-6.46.63a17.21,17.21,0,0,0-1.15-3.42c2.23.07,4.47.07,5.17,0s.87-.21.87-.84V35.22H324.94V32.08h13.37V26.6h3.32v5.48h8.55a44.4,44.4,0,0,0-5.73-3.49l2-2.06a42,42,0,0,1,6.42,3.77l-1.6,1.78h4.08v3.14H341.63v.39a35.76,35.76,0,0,0,3.56,7.4,46.75,46.75,0,0,0,6-6.71ZM332,45a30.66,30.66,0,0,0-5.41-6.39L329,36.9A30.8,30.8,0,0,1,334.61,43Z"/></g></g></svg>