<svg xmlns="http://www.w3.org/2000/svg" viewBox="0 0 48.87 22.39"><defs><style>.cls-1{fill:#fff;}</style></defs><title>i-li3</title><g id="Layer_2" data-name="Layer 2"><g id="SVG"><path class="cls-1" d="M2.42,3.07A16.26,16.26,0,0,0,0,3.19V.6A16.07,16.07,0,0,0,2.42.74h7.9A16.8,16.8,0,0,0,12.79.6V3.19a19.75,19.75,0,0,0-2.45-.12H7.7a20.08,20.08,0,0,1-1,2.5H10a13.32,13.32,0,0,0,2.14-.12A22.75,22.75,0,0,0,12,7.78V19.25c0,1.9-.64,2.5-2.68,2.5l-1.13,0A10.74,10.74,0,0,0,8,20.14H6.77c.07-.72.09-1.66.09-2.52V7.82H5.93V18.07A21.82,21.82,0,0,0,6,20.59H3.84c.07-.72.1-1.65.1-2.52V7.82H3V19.2A21.77,21.77,0,0,0,3.07,22H.6A20.68,20.68,0,0,0,.72,19.2V7.78c0-.8,0-1.56-.07-2.31a18.86,18.86,0,0,0,2.28.1H4.1a12.13,12.13,0,0,0,1-2.5ZM8.86,17.62c0,.93,0,1.34,0,1.75l.14,0a2.41,2.41,0,0,0,.41,0c.31,0,.43-.15.43-.55v-11h-1Zm6-1.85a23.17,23.17,0,0,0-2.36-6l2.07-1a27.42,27.42,0,0,1,2.54,5.93Zm-.17-8.62a12.54,12.54,0,0,0-2.11.15V4.58a10.77,10.77,0,0,0,2.13.15h2.91V2.83A20.85,20.85,0,0,0,17.47,0h2.86a22,22,0,0,0-.14,2.83v1.9a17.13,17.13,0,0,0,2.13-.15V7.3a11.84,11.84,0,0,0-2.13-.15V19.23c0,2.13-.65,2.59-3.63,2.59-.74,0-1.41,0-2.16-.07a10,10,0,0,0-.62-2.67,22.82,22.82,0,0,0,2.85.22c.75,0,1-.15,1-.65V7.15Z"/><path class="cls-1" d="M46,17.52,44,19a24.32,24.32,0,0,0,4.92.8,7,7,0,0,0-1.3,2.37c-4.18-.55-6.67-1.56-8.64-3.48l0,2.11c-1.65.36-3,.6-4.68.84l-2.66.41-.89.19-.38-2.64H31c.31,0,.62,0,2-.14V16.66H30.86a12.64,12.64,0,0,1-2.32,5.73c-.29-.31-.29-.31-1.13-1.29a8.42,8.42,0,0,0-.91-.84c1.56-2,2.13-4.18,2.13-8.07A19,19,0,0,0,28.54,10a22.24,22.24,0,0,0,2.49.1H45.15a17.48,17.48,0,0,0,2.37-.1v2a20.45,20.45,0,0,0-2.33-.09h-14c0,1.39,0,1.85-.1,3h14.5a13.85,13.85,0,0,0,2.3-.12v2a18.07,18.07,0,0,0-2.33-.09H44.28ZM31.2,2.57a22,22,0,0,0-2.4.09V.34a20.18,20.18,0,0,0,2.57.12H44.21A20,20,0,0,0,46.75.34V2.66a21.62,21.62,0,0,0-2.4-.09H38.88v.72h7.06a22.9,22.9,0,0,0,2.35-.1,13.15,13.15,0,0,0-.1,1.9V6.24a13.12,13.12,0,0,0,.12,2H45.72V5.06H38.88V7.37A12.38,12.38,0,0,0,39,9.48H36.22a14.57,14.57,0,0,0,.12-2.11V5.06H29.76v3.2H27.19a12.32,12.32,0,0,0,.12-2V5.09a13.79,13.79,0,0,0-.09-1.9,21.41,21.41,0,0,0,2.37.1h6.75V2.57Zm-.43,5.28a8.87,8.87,0,0,0,1.32.07h1.85a8.25,8.25,0,0,0,1.29-.07V9.41a8.09,8.09,0,0,0-1.29-.07H32.09a8.7,8.7,0,0,0-1.32.07Zm0-2.14a6.72,6.72,0,0,0,1.32.07H34a8.23,8.23,0,0,0,1.3-.07V7.27A6.71,6.71,0,0,0,34,7.2H32.11a9.61,9.61,0,0,0-1.32.07Zm1.49,6.79a14.13,14.13,0,0,0,2.23.1h9.1a14.13,14.13,0,0,0,2.23-.1v1.76a15,15,0,0,0-2.26-.1h-9a14.84,14.84,0,0,0-2.26.1Zm3.19,6.65c1.28-.21,1.28-.21,3.27-.62a7,7,0,0,1-1.37-1.87h-1.9ZM44.71,7.27a9,9,0,0,0-1.29-.07H41.21a9.51,9.51,0,0,0-1.32.07V5.71a6.67,6.67,0,0,0,1.32.07h2.21a6.34,6.34,0,0,0,1.29-.07Zm0,2.14a9,9,0,0,0-1.29-.07H41.21a9.51,9.51,0,0,0-1.32.07V7.85a9.51,9.51,0,0,0,1.32.07h2.21a6.71,6.71,0,0,0,1.29-.07ZM40,16.66a6.4,6.4,0,0,0,1.82,1.53,9.88,9.88,0,0,0,1.7-1.53Z"/></g></g></svg>