<svg xmlns="http://www.w3.org/2000/svg" viewBox="0 0 58.13 19.9"><defs><style>.cls-1{fill:#fff;}</style></defs><title>i-li1</title><g id="Layer_2" data-name="Layer 2"><g id="SVG"><path class="cls-1" d="M9.77,16.37A20.46,20.46,0,0,0,10,19.49H6.34a20.63,20.63,0,0,0,.19-3.12V3.26H3.29A23.77,23.77,0,0,0,0,3.43V.22A24.31,24.31,0,0,0,3.26.38h9.51A25.75,25.75,0,0,0,16.3.22V3.43a25.2,25.2,0,0,0-3.53-.17h-3Z"/><path class="cls-1" d="M35.28,2.4A10.32,10.32,0,0,1,38,9.89c0,6.07-3.53,10-9,10s-9-3.91-9-10A10.26,10.26,0,0,1,22.78,2.4,8.33,8.33,0,0,1,29,0,8.41,8.41,0,0,1,35.28,2.4Zm-.67,7.49A7.75,7.75,0,0,0,32.72,4.3,5.19,5.19,0,0,0,29,2.83c-3.46,0-5.64,2.74-5.64,7.08a8,8,0,0,0,1.94,5.67A5.2,5.2,0,0,0,29,17C32.48,17,34.61,14.3,34.61,9.89Z"/><path class="cls-1" d="M43.46,19.49a18.77,18.77,0,0,0,.19-3.1v-13a20.9,20.9,0,0,0-.19-3.1c1,0,1.78.07,3,.07h5a6.83,6.83,0,0,1,5.11,1.71,5.63,5.63,0,0,1,1.49,4.13,6.13,6.13,0,0,1-1.61,4.41,6.79,6.79,0,0,1-5.11,1.73H46.82v4A19.79,19.79,0,0,0,47,19.49ZM51.41,9.6c2.2,0,3.4-1.18,3.4-3.29A3.21,3.21,0,0,0,54,4a3.26,3.26,0,0,0-2.61-.87H46.82V9.6Z"/></g></g></svg>