<svg xmlns="http://www.w3.org/2000/svg" xmlns:xlink="http://www.w3.org/1999/xlink" viewBox="0 0 730 124.02"><defs><style>.cls-1,.cls-6{fill:none;}.cls-2{clip-path:url(#clip-path);}.cls-3{fill:#73c6c7;}.cls-4{fill:#ff0;}.cls-5{fill:#fff;}.cls-6{stroke:#73c6c7;stroke-miterlimit:10;stroke-width:4px;}</style><clipPath id="clip-path" transform="translate(0 0)"><rect class="cls-1" width="730" height="124.02"/></clipPath></defs><title>i-lister</title><g id="Layer_2" data-name="Layer 2"><g id="SVG"><g id="Artwork_1" data-name="Artwork 1"><g class="cls-2"><g class="cls-2"><path class="cls-3" d="M288.87,32.4a16.28,16.28,0,1,0,16.28-16.28A16.28,16.28,0,0,0,288.87,32.4" transform="translate(0 0)"/><path class="cls-3" d="M288.87,16.28A16.28,16.28,0,1,0,305.15,0a16.28,16.28,0,0,0-16.28,16.28" transform="translate(0 0)"/><path class="cls-3" d="M309.33,32.4a16.29,16.29,0,1,0,16.29-16.28A16.28,16.28,0,0,0,309.33,32.4" transform="translate(0 0)"/><path class="cls-3" d="M309.33,16.28A16.29,16.29,0,1,0,325.62,0a16.28,16.28,0,0,0-16.29,16.28" transform="translate(0 0)"/><path class="cls-3" d="M329.8,32.4a16.29,16.29,0,1,0,16.28-16.28A16.28,16.28,0,0,0,329.8,32.4" transform="translate(0 0)"/><path class="cls-3" d="M329.8,16.28A16.29,16.29,0,1,0,346.08,0,16.28,16.28,0,0,0,329.8,16.28" transform="translate(0 0)"/><path class="cls-3" d="M350.27,32.4a16.28,16.28,0,1,0,16.28-16.28A16.28,16.28,0,0,0,350.27,32.4" transform="translate(0 0)"/><path class="cls-3" d="M350.27,16.28A16.28,16.28,0,1,0,366.55,0a16.28,16.28,0,0,0-16.28,16.28" transform="translate(0 0)"/><path class="cls-3" d="M370.74,32.4A16.28,16.28,0,1,0,387,16.12,16.28,16.28,0,0,0,370.74,32.4" transform="translate(0 0)"/><path class="cls-3" d="M370.74,16.28A16.28,16.28,0,1,0,387,0a16.28,16.28,0,0,0-16.28,16.28" transform="translate(0 0)"/><path class="cls-3" d="M391.21,32.4a16.28,16.28,0,1,0,16.28-16.28A16.28,16.28,0,0,0,391.21,32.4" transform="translate(0 0)"/><path class="cls-3" d="M391.21,16.28A16.28,16.28,0,1,0,407.49,0a16.28,16.28,0,0,0-16.28,16.28" transform="translate(0 0)"/><path class="cls-3" d="M411.67,32.4A16.29,16.29,0,1,0,428,16.12,16.28,16.28,0,0,0,411.67,32.4" transform="translate(0 0)"/><path class="cls-3" d="M411.67,16.28A16.29,16.29,0,1,0,428,0a16.28,16.28,0,0,0-16.29,16.28" transform="translate(0 0)"/><path class="cls-4" d="M327.07,19.2c.07-.39.13-.83.18-1.26h-8.74V15.43h9c.05-.69.07-1.36.1-2l3.22.1c-.1.62-.17,1.24-.28,1.86h8.35v2.51h-8.76c-.1.43-.17.87-.26,1.26h6.65V30.12H324.15V19.2ZM339.12,34H322.28v1h-2.71V19.91h2.71V31.46h16.84Zm-5.32-12.9h-7.08v1.17h7.08Zm0,3h-7.08v1.15h7.08Zm0,3h-7.08v1.17h7.08Z" transform="translate(0 0)"/><path class="cls-4" d="M357.93,23.25c-.23.53-.48,1.1-.76,1.65h7.41v2.3h-2.49a9.85,9.85,0,0,1-1.63,3.7A26.69,26.69,0,0,1,364.32,33L362.6,35a28.13,28.13,0,0,0-4.05-2.3c-1.79,1.2-4.3,1.89-7.77,2.35a7.27,7.27,0,0,0-1-2.21,18.43,18.43,0,0,0,6.09-1.31c-.57-.23-1.15-.46-1.7-.65l-.23.42-2.35-.76c.51-.92,1.11-2.12,1.68-3.36H350.5V26l-1.72.51v5.47c0,1.36-.23,2.09-1,2.51a6.79,6.79,0,0,1-3.42.55,10.15,10.15,0,0,0-.76-2.67,19.63,19.63,0,0,0,2.14,0c.27,0,.39-.09.39-.43V27.2l-2.55.69L343,25.25c.87-.19,2-.44,3.13-.72V20.4h-2.67V17.89h2.67V13.57h2.62v4.32h1.77V20.4h-1.77v3.49l1.75-.46.18,1.47h3.59q.38-.86.69-1.65h-4.67V20.92h3.45a15.81,15.81,0,0,0-.67-2.8l.46-.09H351v-2.3h5.13V13.54h2.78v2.19h5.13V18h-1.89c-.37,1.06-.76,2.07-1.1,2.89h3.54v2.33Zm-1.86,3.95c-.28.58-.58,1.15-.85,1.7.89.28,1.86.62,2.85,1a7,7,0,0,0,1.33-2.69ZM355.59,18a12.34,12.34,0,0,1,.69,2.87l-.1,0h2.42a22.65,22.65,0,0,0,.87-2.89Z" transform="translate(0 0)"/><path class="cls-4" d="M386.68,32.68c.9,0,1.08-.4,1.22-2.42a7.48,7.48,0,0,0,2.21.94c-.3,2.88-1,3.75-3.22,3.75h-4c-2.71,0-3.45-.73-3.45-3.36V27.18l-.94.44-.94-2.24c-.09,5.64-.25,7.85-.78,8.58a2.09,2.09,0,0,1-1.47.95,12.77,12.77,0,0,1-2.37.11,6.48,6.48,0,0,0-.67-2.44,11.85,11.85,0,0,0,1.66.1.66.66,0,0,0,.66-.37c.3-.46.44-2.39.53-7.8H373.3c-.32,4.14-1.06,7.87-3,10.49a8.23,8.23,0,0,0-1.95-1.91c2.27-3.15,2.48-8.21,2.55-13.52h-2.21V17h3.52V13.57h2.62V17h3.59v1.72a16.74,16.74,0,0,0,2.05-5.22l2.69.51c-.19.8-.44,1.61-.69,2.39h7.22v2.48h-8.26a14.54,14.54,0,0,1-1.31,2.23h1.68v2.21l1.24-.57V19.5h2.28v2.23L387,21l.1-.07.41-.3,1.7.6-.09.37c0,3.26,0,5.61-.09,6.3a1.63,1.63,0,0,1-1,1.59,5.21,5.21,0,0,1-1.89.25,7,7,0,0,0-.5-2c.27,0,.59,0,.78,0s.3-.05.32-.34.05-1.48.07-3.66l-1.47.69v6.42h-2.28V25.48l-1.24.57v5.54c0,.95.16,1.09,1.31,1.09Zm-7.27-8.19V22.1l-.2.23a14.51,14.51,0,0,0-2-1.93,9.93,9.93,0,0,0,.74-.83h-4.39c0,.83-.05,1.65-.07,2.46h4.14v1l-.05,2.3Z" transform="translate(0 0)"/><polygon class="cls-4" points="415.08 30.67 415.08 33.43 394.18 33.43 394.18 30.67 402.94 30.67 402.94 18.79 395.43 18.79 395.43 15.94 413.8 15.94 413.8 18.79 406.07 18.79 406.07 30.67 415.08 30.67"/><rect class="cls-5" y="74.02" width="196" height="50" rx="5" ry="5"/><rect class="cls-3" x="267" y="74.02" width="196" height="50" rx="5" ry="5"/><rect class="cls-5" x="534" y="74.02" width="196" height="50" rx="5" ry="5"/><rect class="cls-3" x="217.46" y="95.56" width="28" height="7"/><polygon class="cls-3" points="200 98.56 219.46 110.11 219.46 87.02 200 98.56"/><polygon class="cls-3" points="259.93 98.56 240.46 87.02 240.46 110.11 259.93 98.56"/><rect class="cls-3" x="486.46" y="95.56" width="28" height="7"/><polygon class="cls-3" points="469 98.56 488.46 110.11 488.46 87.02 469 98.56"/><polygon class="cls-3" points="528.93 98.56 509.46 87.02 509.46 110.11 528.93 98.56"/><path class="cls-5" d="M331.72,107.82l-3.8-7h-2.57v7h-3.7V89.32h6.45c3.87,0,6.95,1.35,6.95,5.6a5.3,5.3,0,0,1-3.53,5.33l4.33,7.57Zm-6.37-9.92h2.4c2.37,0,3.67-1,3.67-3s-1.3-2.67-3.67-2.67h-2.4Z" transform="translate(0 0)"/><rect class="cls-5" x="338.7" y="89.32" width="3.7" height="18.5"/><path class="cls-5" d="M345.72,105.47l2.13-2.55a7.28,7.28,0,0,0,4.7,2c1.92,0,2.95-.83,2.95-2.13s-1.13-1.8-2.78-2.5l-2.47-1c-1.88-.78-3.75-2.28-3.75-5,0-3,2.65-5.35,6.4-5.35a8.19,8.19,0,0,1,5.8,2.38l-1.88,2.32a5.91,5.91,0,0,0-3.92-1.52c-1.63,0-2.68.72-2.68,1.95s1.33,1.8,2.9,2.42l2.43,1c2.25.92,3.72,2.35,3.72,5,0,3-2.52,5.6-6.8,5.6a9.89,9.89,0,0,1-6.75-2.7" transform="translate(0 0)"/><path class="cls-5" d="M362.45,99.5V89.32h3.7v10.5c0,3.85,1.32,5.15,3.5,5.15s3.6-1.3,3.6-5.15V89.32h3.54V99.5c0,6.14-2.62,8.67-7.14,8.67s-7.2-2.53-7.2-8.67" transform="translate(0 0)"/><polygon class="cls-5" points="384.92 92.4 379.73 92.4 379.73 89.32 393.87 89.32 393.87 92.4 388.62 92.4 388.62 107.82 384.92 107.82 384.92 92.4"/><path class="cls-5" d="M405.55,103.07h-6l-1.3,4.75H394.5l5.92-18.5h4.35l6,18.5h-3.87Zm-.8-2.87-.55-2c-.58-1.92-1.08-4-1.63-6h-.1c-.47,2-1,4.13-1.57,6l-.55,2Z" transform="translate(0 0)"/><path class="cls-3" d="M601.8,96.42c1.64,4.88,4.67,8.8,9.34,10.7a12,12,0,0,0-2.2,2.8c-4.52-2.13-7.42-5.77-9.37-10.6a17.21,17.21,0,0,1-9.35,10.62,8.77,8.77,0,0,0-2.22-2.52,15,15,0,0,0,9.07-11h-8.6V93.35h9.1c.25-2.35.23-4.63.25-6.68h3.25c0,2-.05,4.35-.3,6.68h9.82v3.07Z" transform="translate(0 0)"/><polygon class="cls-3" points="635.92 105.27 635.92 108.27 613.2 108.27 613.2 105.27 622.72 105.27 622.72 92.35 614.55 92.35 614.55 89.25 634.52 89.25 634.52 92.35 626.12 92.35 626.12 105.27 635.92 105.27"/><path class="cls-3" d="M658.47,93.1c-1.25.35-2.7.7-4.2,1,1,2,2.13,4.35,3.2,6.32l-1.75,1.87c-1.35-.27-3.8-.67-5.62-.9l.27-2.54c.83.07,2.18.22,2.93.27-.6-1.25-1.45-3-2.18-4.52a56.43,56.43,0,0,1-10.42,0l-.1-3.18a42.17,42.17,0,0,0,9.25.25c-.2-.4-.38-.8-.53-1.17a20.39,20.39,0,0,0-1.22-2.38l3.5-.67c.42,1.3.9,2.47,1.45,3.77A34.62,34.62,0,0,0,657.89,90ZM645,100a11.08,11.08,0,0,0-.68,3c0,1.8.93,3,4.43,3a27.71,27.71,0,0,0,6.75-.72l-.08,3.27a34.63,34.63,0,0,1-6.67.6c-5,0-7.65-1.87-7.65-5.32a16.71,16.71,0,0,1,.7-4.07Z" transform="translate(0 0)"/><path class="cls-3" d="M675.77,90.17c-1.22,1.78-3.1,5.23-4.32,7.4a5.65,5.65,0,0,1,2.82-.75c1.85,0,3,1.2,3.08,3.25,0,1.1,0,3.1.12,4.12a1.4,1.4,0,0,0,1.58,1.35c2.12,0,3.47-2.77,4.17-5.84l2.67,2.17c-1.27,4.27-3.57,7.07-7.39,7.07-2.7,0-4-1.65-4.1-3.45-.1-1.32-.08-3.34-.15-4.34a1.34,1.34,0,0,0-1.45-1.38c-1.7,0-3.08,1.7-3.95,3.72A47.85,47.85,0,0,0,667,109l-3.5-1.17c1.83-4.95,7-15.35,8.35-17.7.33-.67.78-1.47,1.23-2.52L676.57,89c-.25.3-.52.75-.8,1.15" transform="translate(0 0)"/><path class="cls-3" d="M66,97.57a20.35,20.35,0,0,1,4.75-.65c3.8,0,6.79,2,6.79,5.42,0,2.93-1.52,5.13-5.44,6.1a20.24,20.24,0,0,1-3.25.4l-1.15-3.17a19,19,0,0,0,3-.18c2-.35,3.6-1.37,3.6-3.17s-1.5-2.65-3.65-2.65a17.71,17.71,0,0,0-4.65.67c0,2,.12,3.88.12,4.73,0,3.07-1.12,3.87-2.72,3.87-2.43,0-5.85-2.07-5.85-4.7,0-2.17,2.52-4.39,5.55-5.72,0-.57,0-1.15,0-1.72V94.72c-.47,0-.92,0-1.32,0-1.13,0-2.38,0-3.45-.12l-.05-3a28,28,0,0,0,3.42.2c.45,0,.93,0,1.43,0,0-.88,0-1.6,0-2A21,21,0,0,0,63,87.6h3.4c-.05.45-.15,1.52-.2,2.15s0,1.15-.08,1.77a33.78,33.78,0,0,0,4.55-.92l.08,3.1c-1.4.32-3.1.57-4.73.77,0,.75,0,1.5,0,2.23Zm-2.73,7c0-.63,0-1.75-.07-3-1.53.78-2.53,1.8-2.53,2.67s1.15,1.45,1.8,1.45c.45,0,.8-.22.8-1.07m10.2-14.25a54.57,54.57,0,0,1,6.07,3.48L78,96.3a36.92,36.92,0,0,0-5.94-3.6Z" transform="translate(0 0)"/><path class="cls-3" d="M100.14,94.07a15.89,15.89,0,0,1-4.29,4.6,38.11,38.11,0,0,0,8.84,1.88,14.74,14.74,0,0,0-1.87,2.87c-.88-.12-1.73-.28-2.55-.43v7H97.2v-.72H88.87V110H86v-6.85c-1.1.3-2.2.55-3.32.78a9.94,9.94,0,0,0-1.38-2.62,35.6,35.6,0,0,0,8.78-2.48A20.29,20.29,0,0,1,87.8,97a25,25,0,0,1-3,1.67,8.34,8.34,0,0,0-2-2.2,14.49,14.49,0,0,0,7-5H85.2v2.77H82.27V88.7H91.4v-2h3v2h9.27v5.47h-3V91.4H90.22L93,92c-.25.35-.53.7-.8,1h5.45l.5-.13ZM97.2,104.64H88.87v2.13H97.2Zm0-2.45a26.26,26.26,0,0,1-4.28-1.67A31.33,31.33,0,0,1,89,102.19ZM90,95.32a14.42,14.42,0,0,0,2.92,2.05,14.18,14.18,0,0,0,2.75-2.15H90.07Z" transform="translate(0 0)"/><path class="cls-3" d="M113.77,102.12c-.3-.72-.82-1.85-1.37-2.92V110h-2.7v-9.35a21,21,0,0,1-2.28,4.92,13.91,13.91,0,0,0-1.3-2.62,24.86,24.86,0,0,0,3.35-8.37H106.7V91.8h3V86.65h2.7V91.8h2.5v2.75h-2.5v1.1c.67.92,2.47,3.67,2.9,4.35Zm6.83,3.37c-1.75,1-3.7,2.13-5.3,3L114,106c1.48-.67,3.68-1.8,5.8-2.89Zm8.82-4.94c-1,1.07-2.33,2.27-3.3,3.07a10.2,10.2,0,0,0,3.9,2.82,11.09,11.09,0,0,0-1.88,2.4,11.88,11.88,0,0,1-4.42-4.4V107c0,1.35-.25,2-1,2.5a8.07,8.07,0,0,1-3.55.5,9.19,9.19,0,0,0-.8-2.65c.85,0,1.83,0,2.13,0s.4-.12.4-.42V98.5H115V96.07h5.88V95h-4.73V92.75h4.73v-1h-5.4V89.42H118a14.22,14.22,0,0,0-1-2l2.35-.8a13,13,0,0,1,1.43,2.75h3.1c.37-.85.87-2,1.12-2.8l3,.68c-.45.75-.9,1.5-1.3,2.12h2.42v2.33h-5.37v1h4.85V95h-4.85v1.1h5.82V98.5h-5.82v1a13.78,13.78,0,0,0,1,2.2,19.16,19.16,0,0,0,2.43-2.7Zm-11.95-1.5a16.93,16.93,0,0,1,2.48,3l-2.13,1.5a17.48,17.48,0,0,0-2.37-3.2Z" transform="translate(0 0)"/><line class="cls-6" x1="365" y1="79.01" x2="365" y2="39.02"/></g></g></g></g></g></svg>