<svg xmlns="http://www.w3.org/2000/svg" viewBox="0 0 37.64 15.52"><defs><style>.cls-1{fill:#231815;}</style></defs><title>i-menu2</title><g id="Layer_2" data-name="Layer 2"><g id="SVG"><path class="cls-1" d="M0,.78H8.72V2.29H5c-.22.68-.45,1.38-.67,2H8.4V14c0,.59-.11,1-.46,1.17a3.27,3.27,0,0,1-1.6.25A4.91,4.91,0,0,0,6,14.26H5V5.63H4v8.63H2.87V5.63H1.73v9.82H.44V4.27h2.4c.19-.6.39-1.31.54-2H0ZM7.09,5.63h-1v8.55H6.9c.14,0,.19,0,.19-.2Zm8.34-.51H14.16v8.56c0,.85-.2,1.28-.7,1.52a5.8,5.8,0,0,1-2.5.3A6.08,6.08,0,0,0,10.44,14c.83,0,1.61,0,1.85,0s.36-.08.36-.36V5.12H8.87V3.64h3.78V0h1.51V3.64h1.27Zm-4.91,5.72A14.15,14.15,0,0,0,9.06,7.05l1.29-.44a13.45,13.45,0,0,1,1.55,3.71Z"/><path class="cls-1" d="M36.34,12.31A15.86,15.86,0,0,1,34,13.53a13.1,13.1,0,0,0,3.69.78,4,4,0,0,0-.82,1.21,10.71,10.71,0,0,1-5.24-1.87l.06.93c-2.35.33-4.81.63-6.6.84l-.27-1.24L26.45,14V11.75H24.73a6.65,6.65,0,0,1-1.85,3.62,4.85,4.85,0,0,0-1.1-1,6.36,6.36,0,0,0,1.71-4.88V7.28H36.72V8.35H24.94V9.54c0,.35,0,.73-.05,1.12H37.47v1.09H35.24ZM23.9,5.39H22.49V2.48h6.43V1.7H23.53V.53H35.9V1.7H30.45v.78H37V5.39H35.53V3.47H30.45V6.94H28.92V3.47h-5Zm.36.34h4V6.6h-4ZM28.2,4.18v.87H24.62V4.18ZM25.72,10V9h10v1Zm2.35,3.86,3.28-.37a6.24,6.24,0,0,1-1.45-1.7H28.07Zm6.74-9.64v.87H31.16V4.18ZM31.16,5.73h4.06V6.6H31.16Zm.17,6A5.25,5.25,0,0,0,32.86,13a20,20,0,0,0,2.26-1.29Z"/></g></g></svg>