<svg xmlns="http://www.w3.org/2000/svg" viewBox="0 0 113.22 15.71"><defs><style>.cls-1{fill:#231815;}</style></defs><title>i-menu3</title><g id="Layer_2" data-name="Layer 2"><g id="SVG"><path class="cls-1" d="M15.06,7.09H13.34V15.6H11.83V7.09H9.71v.2c0,2.52-.31,6.05-2.54,8.42A3.41,3.41,0,0,0,6,14.62a7.86,7.86,0,0,0,.65-.8H1.38v1.26H0V.61H1.38V12.46h6v.17a13.26,13.26,0,0,0,.87-5.35V1.39l1,.33A21.56,21.56,0,0,0,13.6.25l1.27,1.16A26.29,26.29,0,0,1,9.71,2.92V5.63h5.35ZM4,8.46a10,10,0,0,1-1.95,2.83A6.69,6.69,0,0,0,1.43,10,11.28,11.28,0,0,0,3.88,6.32H1.75V5H4V.17H5.34V5H7.56V6.32H5.34v.5c.51.4,1.88,1.7,2.22,2L6.71,9.94c-.27-.39-.85-1.1-1.37-1.7v3.85H4Zm-1.44-4a11.33,11.33,0,0,0-.68-2.92l1-.32A10.48,10.48,0,0,1,3.62,4.1ZM7.68,1.51c-.39,1-.88,2.21-1.26,3l-.91-.31a20.92,20.92,0,0,0,.93-3Z"/><path class="cls-1" d="M24.9,4.44c-.22,1.41-.85,2.24-2.73,2.72a2.74,2.74,0,0,0-.67-1c1.48-.32,2-.83,2.18-1.76H21.83V3.3h3V2.21H22.44V1.1h2.38v-1h1.41v1h2.4V2.21h-2.4V3.3h2.92V4.44h-2v.91c0,.28,0,.31.26.31H28c.22,0,.27-.08.33-.82a2.92,2.92,0,0,0,1,.43c-.1,1.1-.42,1.41-1.14,1.41h-.93c-1,0-1.23-.29-1.23-1.31V4.44ZM21.59,15a8.26,8.26,0,0,0,2-2.94l1.52.39a9.07,9.07,0,0,1-2.06,3.16Zm14.26-4.84a.35.35,0,0,0,.26-.09,1.56,1.56,0,0,0,.12-.53c0-.34.05-1.05.05-2a2.81,2.81,0,0,0,1,.55,21.08,21.08,0,0,1-.14,2.29,1.35,1.35,0,0,1-.44.82,1.57,1.57,0,0,1-.81.2h-.7a1.37,1.37,0,0,1-.95-.34c-.24-.25-.33-.56-.33-1.73V3.72H32.57a27.47,27.47,0,0,1-.27,2.76,12.14,12.14,0,0,1,1.56,1.29l-.69,1.32A16.06,16.06,0,0,0,32,8a7.15,7.15,0,0,1-2.36,3.75,4.66,4.66,0,0,0-.8-.9l-7,.72-.12-1.31L24.82,10V8.7h-2.6V7.55h2.6V6.44h1.41V7.55h2.5V8.7h-2.5V9.88c.95-.09,1.92-.17,2.89-.28l0,.65a6.52,6.52,0,0,0,1.61-3.16c-.51-.36-1-.72-1.48-1l.65-1.15c.36.2.71.42,1.09.68.08-.6.13-1.22.17-1.89H29.51V2.31h1.7c0-.73,0-1.49,0-2.29h1.42c0,.8,0,1.56,0,2.29h2.72V9.37a2.28,2.28,0,0,0,0,.73c0,.05.08.07.17.07ZM28,12.41a16.31,16.31,0,0,1,.39,2.87l-1.58.19a18,18,0,0,0-.3-2.91Zm3.4-.14a13.94,13.94,0,0,1,1,2.88l-1.56.28a15.13,15.13,0,0,0-.89-2.9ZM34.85,12A19.33,19.33,0,0,1,37,15.09l-1.59.55a21.4,21.4,0,0,0-2-3.15Z"/><path class="cls-1" d="M45.41,5.85a2,2,0,1,1-2,2A2,2,0,0,1,45.41,5.85Z"/><path class="cls-1" d="M66.28,3.77A12.61,12.61,0,0,1,61.3,7h5.87v8.56h-1.6V15h-6.9v.6H57.15V8.23c-.81.18-1.65.34-2.46.47a8.52,8.52,0,0,0-1-1.39c4.55-.55,9-1.8,11.1-4.2ZM59.06,1.33a13.82,13.82,0,0,1-3.88,3.82A11.22,11.22,0,0,0,53.94,4,10.84,10.84,0,0,0,57.54.83Zm3.28,2.48c0,.76-.19,1.14-.8,1.36a8.87,8.87,0,0,1-2.69.22A6.12,6.12,0,0,0,58.22,4c.92,0,1.91,0,2.16,0s.38-.06.38-.27V0h1.58Zm3.23,4.38h-6.9V9.31h6.9Zm-6.9,3.39h6.9V10.42h-6.9Zm6.9,2.26V12.7h-6.9v1.14Zm0-13.13a20.28,20.28,0,0,1,3.73,3.18L68,4.78A20.35,20.35,0,0,0,64.34,1.5Z"/><path class="cls-1" d="M89.32,11.92a12.86,12.86,0,0,0,1.48-.12v1.93c-.46-.05-1.13-.06-1.48-.06H78.1c-.5,0-1,0-1.58.06V11.8a10.61,10.61,0,0,0,1.58.12h4.57V4.49H79.08a12.88,12.88,0,0,0-1.49.07V2.7c.44,0,1.1.09,1.49.09h9.3a14.49,14.49,0,0,0,1.53-.09V4.56a12.76,12.76,0,0,0-1.53-.07H84.52v7.43Z"/><path class="cls-1" d="M106.69,13.11c0,.62,0,1.47.09,2h-1.94a17.21,17.21,0,0,0,.12-2c0-.92,0-2.28,0-3.37A28,28,0,0,1,99.45,12l-1-1.58a20.36,20.36,0,0,0,6.92-2.87,12.8,12.8,0,0,0,3.2-2.86h-6.67c-.61,0-1.61,0-2.14.07V3c.58.07,1.53.11,2.11.11H105v-1a10.07,10.07,0,0,0-.1-1.53h1.94a13.87,13.87,0,0,0-.1,1.53v1h2.48a4.3,4.3,0,0,0,1.2-.14L111.54,4c-.36.38-.8.83-1.11,1.19a22.91,22.91,0,0,1-3.74,3.45Zm2.43-4.85a41,41,0,0,1,4.1,2.45l-1.12,1.48A29.21,29.21,0,0,0,108,9.54Z"/></g></g></svg>