<svg xmlns="http://www.w3.org/2000/svg" viewBox="0 0 97.99 14.87"><defs><style>.cls-1{fill:#231815;}</style></defs><title>i-menu1</title><g id="Layer_2" data-name="Layer 2"><g id="SVG"><path class="cls-1" d="M9,12.1a12.26,12.26,0,0,0,.12,2H7c.05-.38.1-1.31.1-2v-6A32.17,32.17,0,0,1,1,8.55L0,6.9A26.72,26.72,0,0,0,7.67,3.81,18.72,18.72,0,0,0,12.1,0l1.45,1.31A28.27,28.27,0,0,1,9,5Z"/><path class="cls-1" d="M28.36,9.81A16.11,16.11,0,0,0,34.25,3.4l1,1.85a17.45,17.45,0,0,1-6,6.16,18.8,18.8,0,0,1-6.51,2.53l-1.13-1.75A17.91,17.91,0,0,0,28.36,9.81Zm-.58-5.44L26.43,5.75a38.24,38.24,0,0,0-4.24-3.61L23.43.82A33.63,33.63,0,0,1,27.78,4.37Z"/><path class="cls-1" d="M55,2.18a5.13,5.13,0,0,0-.3,1A16.85,16.85,0,0,1,52.21,9.4,13.23,13.23,0,0,1,45.44,14L44,12.41a11.25,11.25,0,0,0,6.63-4.05,11.73,11.73,0,0,0,2.12-5.22H44.4c-.73,0-1.41,0-1.83.07V1.31a14.72,14.72,0,0,0,1.83.13h8.25a4.42,4.42,0,0,0,1.09-.11Z"/><path class="cls-1" d="M74.49,4.3a21.64,21.64,0,0,1-3.84,3.08v5.86a10.42,10.42,0,0,0,.09,1.63h-2a16.15,16.15,0,0,0,.09-1.63V8.41a27.73,27.73,0,0,1-5.12,2l-.9-1.57a21.86,21.86,0,0,0,6-2.31,16.94,16.94,0,0,0,4.37-3.5Z"/><path class="cls-1" d="M82.62,13a7.93,7.93,0,0,0,2.92-4.13C86,7.31,86,4,86,2A5.38,5.38,0,0,0,85.9.66h2c0,.14-.08.77-.08,1.36a37.16,37.16,0,0,1-.53,7.26,9.56,9.56,0,0,1-3,4.76Zm7.82.16A4.81,4.81,0,0,0,90.56,12V2a12.57,12.57,0,0,0-.1-1.36h2A9.28,9.28,0,0,0,92.34,2v9.4A12,12,0,0,0,97,7.46l1,1.46a18,18,0,0,1-5.78,4.7,3.18,3.18,0,0,0-.65.42Z"/></g></g></svg>