<svg xmlns="http://www.w3.org/2000/svg" viewBox="0 0 134.99 40"><defs><style>.cls-1{fill:#003315;}.cls-2{fill:#834c37;}.cls-3{fill:#7d7d7d;}</style></defs><title>i-smicon1</title><g id="Layer_2" data-name="Layer 2"><g id="SVG"><path class="cls-1" d="M112.36,32.52s0,3,0,3c-.84.06-3.94.06-4.59,0,0,0,0-3,0-3a3.76,3.76,0,0,1-1,0c.07,0,0,7.19,0,7.19a3.77,3.77,0,0,1,1,0V36c.68,0,3.74,0,4.59,0v3.68a3.85,3.85,0,0,1,1,0V32.52a5.35,5.35,0,0,1-1,0Z"/><path class="cls-1" d="M118.16,32.38h-.28c.06.07-3.32,7.33-3.33,7.33a5.76,5.76,0,0,1,.72,0,21.41,21.41,0,0,1,1.1-2.83h2.75a30.16,30.16,0,0,1,1.11,2.83,4.34,4.34,0,0,1,1.14,0s-3.25-7.23-3.21-7.33Zm.78,4.07h-2.38c.61-1.4,1.21-2.7,1.21-2.7s.58,1.3,1.17,2.7Z"/><path class="cls-1" d="M122.67,32.55v4.34c0,.85,0,3,3.09,3a2.78,2.78,0,0,0,3.12-3.08c0-.19,0-4.27,0-4.27a2.1,2.1,0,0,1-.56,0v4.34a2.39,2.39,0,0,1-2.51,2.57c-2.14,0-2.27-1.9-2.27-2.64V32.55a3.17,3.17,0,0,1-.87,0Z"/><path class="cls-1" d="M134.68,33a7.61,7.61,0,0,0-.27.86,1.48,1.48,0,0,0-1.47-1c-1.13.05-1.36.74-1.35,1.25s0,1,1.39,1.48,2,.76,2,1.91a2.36,2.36,0,0,1-2.56,2.35c-1.43,0-1.87-.6-1.87-.6l.26-1a1.87,1.87,0,0,0,1.84,1.21,1.45,1.45,0,0,0,1.48-1.57c0-1-.78-1.18-1.65-1.54-1.19-.54-1.73-.9-1.76-1.87a2.08,2.08,0,0,1,2.36-2,2.24,2.24,0,0,1,1.59.53Z"/><path class="cls-1" d="M78.68,32.54h-.29C78.33,33.91,77.33,40,77.33,40a4.69,4.69,0,0,1,.75,0l.63-5.69,2.84,5.52h.11s2.58-5,3-5.52c.18.09.61,5.7.61,5.69a5.34,5.34,0,0,1,1,0s-.81-6.73-.83-7.46c0,0-.25,0-.25,0l-3.27,5.82-3.21-5.82Z"/><path class="cls-1" d="M90.84,32.44h-.27S87.11,40,87.07,40a2.17,2.17,0,0,1,.72,0s.64-1.68,1.18-2.94h2.88c.55,1.3,1.22,2.93,1.22,2.94a5.15,5.15,0,0,1,1.11,0l-3.34-7.56Zm-1.67,4.14c.5-1.16,1-2.28,1.26-2.86l1.21,2.86Z"/><path class="cls-1" d="M97.45,35.84l3.45-3.31a3.84,3.84,0,0,1-.83,0s-3.3,3.38-3.43,3.43a.42.42,0,0,1-.19,0V32.47a3.65,3.65,0,0,1-1,0s0,7.53,0,7.53a3,3,0,0,1,1,0V36.13a.37.37,0,0,1,.16,0c.13.07,3.31,3.83,3.31,3.82a6.41,6.41,0,0,1,1.24,0s-3.71-4.15-3.71-4.15Z"/><path class="cls-1" d="M102.4,32.52a3.85,3.85,0,0,0,1,0s0,7.49,0,7.48a3.21,3.21,0,0,0-.93,0s0-7.47,0-7.48Z"/><path class="cls-1" d="M119.84,18.87c-.62-1.54-3.52-3.51-6.83-5.21a6.67,6.67,0,0,0,2.18-2.37,1.53,1.53,0,0,0,.08-.26l0,0a1,1,0,0,0,.26-.87c-.17-1.47-3-4-5.78-6a6.21,6.21,0,0,0,1.87-2.85c0-.05,0-.1,0-.15a1,1,0,0,0-.27-.72c-.85-.94-3.25-.07-5.59,1.2C103.44.34,101-.55,100.17.39a1,1,0,0,0-.27.72.92.92,0,0,0,0,.16,3.72,3.72,0,0,0,.81,1.63l0,.07a13.94,13.94,0,0,0,1,1.17C98.08,6.79,96.12,8.73,96,9.89a1.12,1.12,0,0,0,.26.86h0a1.29,1.29,0,0,0,.13.54,4.06,4.06,0,0,0,1,1.36v0l0,0,.3.28.06,0,.35.3,0,0,.37.29c-3.31,1.7-6.21,3.67-6.83,5.21a1.49,1.49,0,0,0,0,1.11.61.61,0,0,0,.09.31c.2.32,2.13,3,12.45,3.33v3.16a.67.67,0,0,0,.68.66.68.68,0,0,0,.7-.66V23.64h1.09v3.14a.7.7,0,0,0,1.4,0V23.61c9.37-.34,11.43-3,11.64-3.29a.78.78,0,0,0,.09-.21l0-.07a1.38,1.38,0,0,0,0-1.17Zm-1.24.6v0c-.46.55-4.78.15-11.18-2.53a40.1,40.1,0,0,0,4.35-2.43c4.51,2.23,6.83,4.3,6.83,4.93Zm-17.35-5.62,1.38-.61c1.12-.47,2.18-.87,3.16-1.21,1,.34,2,.74,3.16,1.21l1.38.61a44.41,44.41,0,0,1-4.54,2.41,44.41,44.41,0,0,1-4.54-2.41ZM98.4,11.74l0,0-.3-.31a7.27,7.27,0,0,0,2.6-.75,28.06,28.06,0,0,1,3,.72c-.58.22-1.13.44-1.64.66-.7.3-1.42.62-2.13,1a14.39,14.39,0,0,1-1.26-1l-.28-.26Zm7.4-4.23.26.18a31.06,31.06,0,0,0,3.12,1.94c-1.11.27-2.27.61-3.39,1-1.08-.36-2.2-.7-3.27-1,.9-.53,1.89-1.17,3-1.94l.29-.21Zm-2.17-3.14s0,0,0,0l-.08-.07c.8-.55,1.57-1,2.27-1.4.7.39,1.45.85,2.25,1.39a28.15,28.15,0,0,1-2.26,1.87c-.85-.64-1.57-1.23-2.17-1.77Zm8,8.61c-.71-.33-1.42-.65-2.13-1-.51-.22-1.06-.44-1.64-.66a26.89,26.89,0,0,1,3.3-.76,10,10,0,0,0,2.39.74A10.54,10.54,0,0,1,111.64,13Zm2.25-3.75a8.6,8.6,0,0,0-3,0,27.71,27.71,0,0,1-4.18-2.47c.8-.61,1.57-1.25,2.26-1.89a24.78,24.78,0,0,1,4.9,4.31Zm-3.35-8.09v0c0,.31-.49,1.14-1.66,2.33-.59-.4-1.25-.81-1.93-1.22,2-1,3.26-1.3,3.59-1.13Zm-9.51,0c.33-.17,1.66.16,3.64,1.15-.69.41-1.36.83-2,1.23-.23-.23-.44-.46-.63-.67l0,0-.35-.43a2.85,2.85,0,0,1-.66-1.2v0Zm1.57,3.81.25.23h0c.62.56,1.3,1.12,2,1.65,0,0,0,0,0,0a37,37,0,0,1-4,2.48,8.1,8.1,0,0,0-3.36,0,24.92,24.92,0,0,1,5.09-4.36Zm-2.79,9.62.29.18.42.26,0,0,1,.59,0,0c.82.46,1.7.92,2.59,1.35C97.77,19.65,93.44,20.05,93,19.5v0c0-.63,2.32-2.7,6.82-4.93Zm7.59,5.17a.69.69,0,0,0-.7.67v1.93h-1.09V20.38a.68.68,0,0,0-.7-.67.67.67,0,0,0-.68.67v1.91A29.89,29.89,0,0,1,95.33,21a39.4,39.4,0,0,0,9.52-2.82l.94-.41.94.41A39.4,39.4,0,0,0,116.22,21a27,27,0,0,1-8.12,1.32v-1.9a.68.68,0,0,0-.7-.67Z"/><rect x="66.19" y="19.22" width="0.38" height="9.86" transform="translate(2.36 54.01) rotate(-45)"/><rect x="57.88" y="10.91" width="0.38" height="9.86" transform="translate(5.8 45.7) rotate(-45)"/><rect x="53.03" y="23.7" width="10.62" height="0.38" transform="translate(0.2 48.25) rotate(-45)"/><rect x="60.8" y="15.92" width="10.62" height="0.38" transform="translate(7.97 51.47) rotate(-45)"/><rect x="62.04" y="19.81" width="0.38" height="0.38" transform="translate(4.08 49.86) rotate(-45)"/><polygon class="cls-2" points="20.31 28.15 13.15 14.76 6.06 14.76 13.21 28.15 20.31 28.15"/><path class="cls-3" d="M4.6,33.15v-3.6H7.16V39.83H4.6V35.61h-2v4.22H0V29.55H2.56v3.6Z"/><path class="cls-2" d="M16.55,34.69A2.65,2.65,0,1,1,13.9,32,2.67,2.67,0,0,1,16.55,34.69Zm2.6,0A5.25,5.25,0,1,0,13.9,40,5.3,5.3,0,0,0,19.15,34.69Z"/><path class="cls-3" d="M19.88,39.83l.83-8.23c.14-1.49.48-2.23,2-2.23,1,0,1.65.59,1.84,1.88l.75,5h.07l.76-5C26.34,30,27,29.37,28,29.37c1.54,0,1.87.74,2,2.23l.82,8.23H28.39l-.46-8.37h0v.23l-1.27,7a1.28,1.28,0,1,1-2.56,0l-1.27-7h0l-.44,8.14Z"/><path class="cls-2" d="M37.85,31.93c-2.37,0-2.78.26-3.43,1.64h3.43V35.8H34.42c.68,1.5,1.12,1.65,3.43,1.65v2.38H36.4a4.83,4.83,0,0,1-4.72-5.14,4.83,4.83,0,0,1,4.72-5.14h1.45Z"/><path class="cls-3" d="M0,10.59A11,11,0,0,1,1.94,3.88,9.35,9.35,0,0,1,11.1.14c6.24.62,7.87,7,7.87,7a9.77,9.77,0,0,1-2.54,9.26c-2.69,3.06-9.26,2.49-9.26,2.49v9.28H0Zm6.89,4.12h7.17V7.19h1.56l-5.11-4-5.18,4H6.91Z"/><path class="cls-2" d="M27.72,20.27c-1.67,1.1-2.26,1.91-2.59,3H37.74v4.89H18c.18-3.59.38-7.76,6.33-11.79L27.89,14c3-2,3.81-3.35,3.81-5.24,0-1.69-.82-3.61-3.42-3.61-3.71,0-3.71,3.84-3.71,6.08H18.66c0-2.21,0-4.74,1.64-7.15S24.34.1,28.45.1c5.81,0,9.34,3.55,9.34,8.52,0,3.68-2,6.22-6.52,9.24Z"/></g></g></svg>