<svg xmlns="http://www.w3.org/2000/svg" viewBox="0 0 159.02 25.27"><title>i-title3</title><g id="Layer_2" data-name="Layer 2"><g id="SVG"><path d="M24.43,11.82H22.05V25.18H19V11.82H16.38c0,4-.59,9.72-4.07,13.45A7.64,7.64,0,0,0,10,23.08l.44-.49H2.78v1.89H0V.92H2.78V15.55a15.36,15.36,0,0,0,3.51-5.08h-3V7.77H6.56V.27H9.18V6.56a31.21,31.21,0,0,0,1.24-4.62l2.51.6c-.68,1.62-1.38,3.51-2,4.69L9.18,6.64V7.77h3.24v2.7H9.18v.38c.75.62,2.91,2.62,3.43,3.13l-1.73,2.14c-.35-.57-1-1.49-1.7-2.35V19.3H6.56V14.63A13.82,13.82,0,0,1,3.91,18.3a14.21,14.21,0,0,0-1.13-2.54v4H12V20a21.63,21.63,0,0,0,1.33-8.5V2.13l1.89.52A30.5,30.5,0,0,0,21.7.32l2.59,2.35A42.27,42.27,0,0,1,16.38,5.1V8.85h8.05ZM4.26,7.23a18.09,18.09,0,0,0-.91-4.64L5.29,2a16.58,16.58,0,0,1,1,4.56Z"/><path d="M51.94,15.87a.36.36,0,0,0,.3-.13,1.77,1.77,0,0,0,.16-.84c.06-.51.08-1.59.08-3a6.84,6.84,0,0,0,2,1.08,23.37,23.37,0,0,1-.29,3.65A2.33,2.33,0,0,1,53.4,18a2.28,2.28,0,0,1-1.43.41H50.78A2.48,2.48,0,0,1,49,17.76c-.41-.48-.6-1.05-.6-3v-2L47.35,14.9a17.89,17.89,0,0,0-1.56-1.46A11.17,11.17,0,0,1,42.31,19a7.89,7.89,0,0,0-1.14-1.4v.05c-4.18.43-8.55.86-11.71,1.16l-.19-2.62L34,15.82V14.17H30V11.93h4V10.47h2.67c-.56-.32-.7-1-.7-2.18V7.18H34.61c-.32,2.21-1.29,3.56-4.42,4.29a5.58,5.58,0,0,0-1.27-1.89c2.26-.4,3-1.13,3.24-2.4h-2.7V5H34V3.64H30.4V1.49H34V0h2.84V1.49h3.59V3.64H36.83V5h4.34V7.18h-3V8.29c0,.48.06.54.35.54h.62c.33,0,.41-.14.46-1.25a5.68,5.68,0,0,0,1.92.76c-.19,1.94-.78,2.4-2,2.4H38.15a3.38,3.38,0,0,1-1.32-.19v1.38H40.5v2.24H36.83V15.6c1.43-.13,2.88-.24,4.31-.38v.84a9.76,9.76,0,0,0,2.24-4.43c-.72-.51-1.48-1-2.15-1.43l1.29-2.37q.65.36,1.38.81c.08-.76.13-1.54.16-2.35H41.79V3.46h2.35c0-1.11.06-2.25.06-3.46h2.88c0,1.19,0,2.35,0,3.46h4.29V14.68a3.8,3.8,0,0,0,.06,1.06.23.23,0,0,0,.24.13ZM29,24a13.16,13.16,0,0,0,3.13-4.73l3.1.81a15.13,15.13,0,0,1-3.18,5.13Zm10.82-4.11a28.4,28.4,0,0,1,.62,4.67L37.26,25a32.26,32.26,0,0,0-.43-4.78Zm5.4-.21a26.21,26.21,0,0,1,1.46,4.64l-3.21.62a25,25,0,0,0-1.27-4.78ZM46.89,6.29a34.28,34.28,0,0,1-.4,4.05,21.94,21.94,0,0,1,1.94,1.54V6.29Zm3.78,12.88a37.76,37.76,0,0,1,3.3,5l-3.3,1a31.11,31.11,0,0,0-3.1-5.13Z"/><path d="M64.39,9.15a3.46,3.46,0,1,1-3.45,3.46A3.49,3.49,0,0,1,64.39,9.15Z"/><path d="M95.14,6.32a20.46,20.46,0,0,1-7.26,4.91h8.64V25.1H93.25v-.78h-10v.92h-3.1V13.66c-1.22.27-2.4.51-3.62.7a20.43,20.43,0,0,0-2-2.78A42,42,0,0,0,87.5,8.23l-.08,0a13.73,13.73,0,0,1-4.56.46A10.5,10.5,0,0,0,81.56,6c1.41.08,3.11.08,3.57,0s.59-.08.59-.43V0H89V5.7c0,1.1-.19,1.75-.78,2.18a13.63,13.63,0,0,0,3.88-2.94ZM83.67,2.19a21.49,21.49,0,0,1-6.21,6.18c-.59-.57-1.81-1.7-2.51-2.24a15.78,15.78,0,0,0,5.62-4.94Zm9.58,11.44h-10V14.9h10Zm-10,4.81h10V17.06h-10Zm10,3.51V20.62h-10V22Zm.84-21A31.3,31.3,0,0,1,99.87,6L97.09,7.77A29,29,0,0,0,91.5,2.51Z"/><path d="M126,18.63a15.5,15.5,0,0,0,2.51-.22v3.91a22.59,22.59,0,0,0-2.51-.13H108.21a24.4,24.4,0,0,0-2.64.13V18.41a14.78,14.78,0,0,0,2.64.22h6.86v-11h-5.21c-.73,0-1.89.06-2.56.11V4a19.44,19.44,0,0,0,2.56.16h14.68c.82,0,1.76-.08,2.54-.16v3.7c-.81,0-1.75-.11-2.54-.11h-5.69v11Z"/><path d="M156.35,6.61c-.67.68-1.51,1.6-2.08,2.24a40.11,40.11,0,0,1-5.67,5.29c0,2.16,0,5.11,0,6.81,0,1.08.1,2.62.19,3.45h-3.89a30.54,30.54,0,0,0,.21-3.45V16.33a47.53,47.53,0,0,1-8.28,3.32l-2.08-3.18a33.3,33.3,0,0,0,11-4.51,17.4,17.4,0,0,0,4.54-4.05h-9.77c-1,0-2.68,0-3.51.13V4.51a25.63,25.63,0,0,0,3.45.19h4.67V3.29A17.23,17.23,0,0,0,145,.81h3.86a22.47,22.47,0,0,0-.16,2.48V4.7h3.24a8.09,8.09,0,0,0,2.24-.27ZM152.54,13A60.33,60.33,0,0,1,159,17l-2.26,3a42.27,42.27,0,0,0-6.46-4.29Z"/></g></g></svg>