<svg xmlns="http://www.w3.org/2000/svg" viewBox="0 0 143.28 24.19"><title>i-title1</title><g id="Layer_2" data-name="Layer 2"><g id="SVG"><path d="M15.06,19.46A19.43,19.43,0,0,0,15.3,23H11a29.83,29.83,0,0,0,.19-3.54V10.61a52.83,52.83,0,0,1-9.29,3.67L0,11A41.65,41.65,0,0,0,12.28,6.1a28.36,28.36,0,0,0,7-6.1l2.88,2.62a44.31,44.31,0,0,1-7.15,5.8Z"/><path d="M41.5,15.74a25.68,25.68,0,0,0,9.82-10.5L53.43,9a28.64,28.64,0,0,1-10,10,29.24,29.24,0,0,1-10,3.81l-2.26-3.57A27.88,27.88,0,0,0,41.5,15.74ZM41.5,7,38.74,9.83A54.6,54.6,0,0,0,32,4l2.54-2.7A56.17,56.17,0,0,1,41.5,7Z"/><path d="M81.72,3.83a10.92,10.92,0,0,0-.59,1.89c-.62,2.65-1.81,6.83-4,9.83A21.63,21.63,0,0,1,66.23,23l-2.94-3.24c5.34-1.24,8.39-3.59,10.58-6.32A17.06,17.06,0,0,0,77,5.83H64.45c-1.22,0-2.51,0-3.21.11V2.13c.8.08,2.34.22,3.23.22H77a9,9,0,0,0,2.13-.22Z"/><path d="M109.4,7.4a33.72,33.72,0,0,1-6.08,4.88v9a15.2,15.2,0,0,0,.19,2.92h-4a28.72,28.72,0,0,0,.13-2.92V14.33a49.54,49.54,0,0,1-7.61,3l-1.81-3.14a35.82,35.82,0,0,0,9.53-3.64,27,27,0,0,0,6.94-5.61Z"/><path d="M118.21,20.81a12.67,12.67,0,0,0,4.58-6.45c.76-2.32.79-7.42.79-10.69a9.48,9.48,0,0,0-.25-2.46h4a18.54,18.54,0,0,0-.19,2.43c0,3.19-.08,8.89-.81,11.61A15.64,15.64,0,0,1,121.5,23Zm12.49.41a10.17,10.17,0,0,0,.22-2V3.48a11.56,11.56,0,0,0-.22-2.32h4a13.27,13.27,0,0,0-.19,2.35V17.63a17.11,17.11,0,0,0,6.66-5.7l2.08,3a29.71,29.71,0,0,1-9.15,7.37,6.92,6.92,0,0,0-1.19.81Z"/></g></g></svg>