<svg xmlns="http://www.w3.org/2000/svg" viewBox="0 0 63.71 25.05"><title>i-title2</title><g id="Layer_2" data-name="Layer 2"><g id="SVG"><path d="M0,1.11H14.17V4.18H8.31c-.29.89-.62,1.73-.94,2.49h6.56V22.19c0,1.16-.16,1.86-.87,2.27a4.88,4.88,0,0,1-2.69.48,12.42,12.42,0,0,0-.62-2.19H8V9.42H6.72V22.75H4.64V9.42H3.24V24.94H.65V6.67H4.48c.24-.79.49-1.62.68-2.49H0ZM11.31,9.42H10V22.48h1c.22,0,.3-.08.3-.32ZM25,8.5h-1.7v13c0,1.59-.35,2.37-1.27,2.91a9.25,9.25,0,0,1-4.18.62,13.67,13.67,0,0,0-1.08-3c1.26.05,2.48.05,2.88.05s.57-.13.57-.56V8.5H14.52v-3h5.67V0h3.08V5.51H25Zm-7.78,2.13a18.93,18.93,0,0,1,2.19,5.92l-2.75,1a20.79,20.79,0,0,0-2-6Z"/><path d="M61.69,20.11a25.15,25.15,0,0,1-3.16,1.7,25.38,25.38,0,0,0,5.18.81,8.49,8.49,0,0,0-1.56,2.43c-3.78-.41-6.59-1.35-8.61-3.05l.08,1.7L43.47,24.94,43,22.48c.75-.08,1.62-.16,2.56-.27v-3H43.2a10.76,10.76,0,0,1-3,5.61,10.63,10.63,0,0,0-2.24-2c2.48-2.27,2.78-5.48,2.78-7.85V11.58h21.4v2H43.63v1.46a19.11,19.11,0,0,1-.11,2.08H63.44v2.08H59.93ZM41.93,8.69H39.1V3.94H49.27V3H40.93V.76h19.9V3H52.4v.92H62.8V8.69h-3V5.83H52.4v5.24H49.27V5.83H41.93Zm.3.41h6.21v1.59H42.23Zm6.18-2.43V8.26H42.82V6.67Zm-3.78,9.58V14.44h16v1.81Zm4.18,5.61,4.08-.45a11.23,11.23,0,0,1-1.65-2.19H48.81ZM58.91,6.67V8.26H53.27V6.67ZM53.27,9.1h6.29v1.59H53.27Zm.83,10.12a7,7,0,0,0,2.16,1.7,30,30,0,0,0,2.68-1.7Z"/></g></g></svg>