<svg xmlns="http://www.w3.org/2000/svg" viewBox="0 0 44.26 44.43"><defs><style>.cls-1{fill:#fff;}</style></defs><title>icon3-hover</title><g id="Layer_2" data-name="Layer 2"><g id="SVG"><path class="cls-1" d="M39.32,44.43H4.94a.65.65,0,0,1-.64-.65V21.9H.65a.64.64,0,0,1-.6-.41.65.65,0,0,1,.15-.71L21.68.18a.65.65,0,0,1,.9,0l21.48,20.6a.67.67,0,0,1,.16.71.65.65,0,0,1-.6.41H40V43.78A.65.65,0,0,1,39.32,44.43ZM5.59,43.14H38.67V21.25a.65.65,0,0,1,.65-.65H42L22.13,1.54,2.26,20.6H4.94a.65.65,0,0,1,.65.65Zm13.67-3.35a11,11,0,0,1-3.07-.43,8.38,8.38,0,0,1-1.32-.54,8.15,8.15,0,0,1-4.21-9.35l.09-.35C12.14,24.56,14.52,23,16.66,22a11.3,11.3,0,0,1,4.87-1.05,7.43,7.43,0,0,0,4.69-1.46h0c2-1.38,3.69-4.71,3.71-4.74a.66.66,0,0,1,.57-.36h0a.65.65,0,0,1,.57.35,19.16,19.16,0,0,1-1.23,18.57C26.39,38.65,22.19,39.79,19.26,39.79Zm-6.05-3.94a6.76,6.76,0,0,0,2.24,1.82,8,8,0,0,0,1.1.45c1.7.5,7.62,1.58,12.21-5.55a18.07,18.07,0,0,0,1.67-16.11A14.13,14.13,0,0,1,27,20.51h0a8.57,8.57,0,0,1-5.38,1.69,10,10,0,0,0-4.37.94c-2,.91-4,2.3-5.21,6.36,0,.1-.06.2-.08.3a6.83,6.83,0,0,0,.53,4.88,19.6,19.6,0,0,0,2.27-.55l1.61-6.53a.66.66,0,0,1,.79-.47.65.65,0,0,1,.47.79l-1.42,5.7a22.52,22.52,0,0,0,5.1-2.75V25.6a.65.65,0,0,1,1.29,0v4.27a20.66,20.66,0,0,0,6.13-8.43.65.65,0,0,1,1.23.39,19.72,19.72,0,0,1-3.44,5.91l2.13-.6A.64.64,0,1,1,29,28.38l-4.13,1.18c-.56.55-1.18,1.1-1.85,1.64a23.12,23.12,0,0,1-3.23,2.17L23,34a.65.65,0,0,1-.25,1.27l-4.84-1A21.7,21.7,0,0,1,13.21,35.85Z"/></g></g></svg>