<svg xmlns="http://www.w3.org/2000/svg" viewBox="0 0 49.81 50.27"><title>icon1</title><g id="Layer_2" data-name="Layer 2"><g id="SVG"><path d="M36.57,39.82v-8a2.19,2.19,0,0,0-2.18-2.19H6.15A2.2,2.2,0,0,0,4,31.77v8.05a2.3,2.3,0,0,0,.74,4.47H35.84a2.3,2.3,0,0,0,.73-4.47Zm-31.13-8a.71.71,0,0,1,.71-.72H34.39a.71.71,0,0,1,.71.72V39.7H5.44Zm30.4,11.05H4.7a.83.83,0,0,1,0-1.65H35.84a.83.83,0,0,1,0,1.65Z"/><path d="M38,32.4h-.64v1.48H38c.83,0,.83.2.83.47v9.84c0,.67-.45,1.46-.83,1.46H2.51c-.44,0-1-.85-1-1.46V34.35c0-.15,0-.47,1-.47h.63V32.4H2.51a3.28,3.28,0,0,0-1.61.35,1.77,1.77,0,0,0-.9,1.6v9.84a3.24,3.24,0,0,0,.68,1.89,2.34,2.34,0,0,0,1.83,1.05h.63v3.14H4.61V47.13h32v3.14h1.47V47.12c1.45,0,2.26-1.74,2.26-2.93V34.35C40.34,33.62,40,32.4,38,32.4Z"/><rect x="7.85" y="33.97" width="1.57" height="1.47"/><rect x="31.11" y="33.97" width="1.67" height="1.47"/><rect x="19.53" y="33.97" width="1.57" height="1.47"/><path d="M.07,17H24.12V0H.07ZM1.54,1.47H22.65v14.1H1.54Z"/><path d="M2.41,2.34V14.71H21.78V2.34Zm17.9,10.89H3.88V3.81H20.31v9.42Z"/><path d="M25,17.13V27.94H38.91V17.13Zm12.46,9.34h-11V18.6h11Z"/><path d="M27.32,19.46V25.6h9.25V19.46Zm7.78,4.67H28.79v-3.2H35.1Z"/><path d="M32,3.11A6.19,6.19,0,1,0,38.13,9.3,6.2,6.2,0,0,0,32,3.11ZM32.68,14v-.78H31.21V14a4.72,4.72,0,0,1-3.9-3.82h.86V8.65h-.89a4.73,4.73,0,0,1,3.93-4V5.71h1.47V4.64a4.73,4.73,0,0,1,3.93,4h-1v1.48h1A4.73,4.73,0,0,1,32.68,14Z"/><polygon points="31.21 6.89 31.21 8.65 28.76 8.65 28.76 10.13 32.68 10.13 32.68 6.89 31.21 6.89"/><path d="M45.93,46.41h0V29.07H44.46V46.41H40.55v3.81h9.26V46.41Zm2.41,2.34H42v-.86h6.32Z"/><path d="M42.11,10.12v17h2.35v1.22h1.47V27.16h2.32v-17Zm4.67,13.25H44.46v1.48h2.32v.84h-3.2V11.59h3.2V23.37Z"/><rect x="9.05" y="6.23" width="2.2" height="1.47" transform="translate(-1.95 9.22) rotate(-45)"/><rect x="8.24" y="7.4" width="7.71" height="1.47" transform="translate(-2.21 10.93) rotate(-45)"/><rect x="12.94" y="9.34" width="2.2" height="1.47" transform="translate(-3.01 12.88) rotate(-45)"/></g></g></svg>