<svg xmlns="http://www.w3.org/2000/svg" viewBox="0 0 398.45 72.68"><title>sp-headlogo1</title><g id="Layer_2" data-name="Layer 2"><g id="SVG"><path d="M127.35,26.56A18.57,18.57,0,0,0,135.08,28a7.8,7.8,0,0,0-.68,1.93,20.06,20.06,0,0,1-8.1-2.09l1.75,4.7-1.78.67-1.72-4.63a19.82,19.82,0,0,1-4.68,6.74,8.1,8.1,0,0,0-1.71-1,18.68,18.68,0,0,0,4.75-6.12l-4.13,1.54L116.25,23l5.45-2-.5-1.34-7,2.61-.59-1.58,7-2.61L120,16.37l1.79-.66.6,1.63,7.18-2.67.59,1.58L123,18.92l.5,1.34,5.73-2.13,2.53,6.79ZM119,25.11l3.78-1.41-.54-1.47-3.79,1.41Zm1,2.71,3.78-1.4-.55-1.49-3.78,1.41Zm4-6.25.54,1.47,4-1.5L128,20.08Zm5,1.2-4,1.5.55,1.48,4-1.49Z"/><path d="M151.76,10.5,135.36,15l-.46-1.68,7.22-2-.56-2,1.87-.51.56,2,7.31-2Zm-5.32,9.27,1.22,4.44c.25.95.18,1.5-.47,1.94a12.13,12.13,0,0,1-3.33,1.18,7,7,0,0,0-1-1.51c1.15-.27,2.34-.6,2.64-.7s.41-.2.34-.44l-1.2-4.4-5,1.37L138,15.91,150.1,12.6l1.57,5.74Zm-4,2.72a17.68,17.68,0,0,1-2.53,5.2,10,10,0,0,0-1.72-.64,13,13,0,0,0,2.32-4.64Zm-1.52-2.83,8.48-2.32-.74-2.69L140.19,17Zm9.85-.06a35.32,35.32,0,0,1,4.58,3.07L153.88,24a30.19,30.19,0,0,0-4.51-3.21Z"/><path d="M158.94,8.38c1.37-.39,4.72-1.33,8.17-2.25,2-.54,3.9-1,5.19-1.27l.37,1.95a18.45,18.45,0,0,0-3.67.93,6.43,6.43,0,0,0-3.18,6.48c.63,3.49,4.07,4,7.24,3.64L172.73,20c-3.77.48-8-.82-8.8-5A7.69,7.69,0,0,1,166,8.23c-1.63.48-6.23,1.78-8.28,2.63l-.57-2.07C157.92,8.64,158.56,8.48,158.94,8.38Zm13.46,3.39-1.09.75a18,18,0,0,0-2-2.42l1.06-.71A25.73,25.73,0,0,1,172.4,11.77Zm2-1.29-1.07.79a17.83,17.83,0,0,0-2.1-2.36l1.06-.73A27.83,27.83,0,0,1,174.44,10.48Z"/><path d="M178.79,10.64a22.48,22.48,0,0,0,.53-5.1l1.34.08A23.1,23.1,0,0,1,180.2,11Zm5.57-1.91a19.11,19.11,0,0,0-1.52-3.19l1.23,13.81-1.77.16L180.7,1.63l1.77-.16.32,3.59,1-.55A18,18,0,0,1,185.63,8ZM192,11.17a9.44,9.44,0,0,0,5.84,5.32,7.57,7.57,0,0,0-1.14,1.79,10.36,10.36,0,0,1-5.89-5.72,10.57,10.57,0,0,1-4.65,6.7A7.75,7.75,0,0,0,184.75,18a8.51,8.51,0,0,0,4.43-6.55l-4.25.38-.15-1.71,4.5-.4c0-.75-.05-1.49-.11-2.18L189,5.62l-3.59.32-.15-1.67L188.85,4l-.27-3,1.83-.16.27,3,4.25-.38.51,5.74L196.91,9l.15,1.72Zm-1-3.82c.06.7.11,1.43.1,2.17l2.57-.23-.36-4-2.48.22Z"/><path d="M205.11,13.92c.85,1.35,2.4,1.94,4.58,2s6.75,0,9.24-.21a8,8,0,0,0-.58,1.79c-2.25.12-6.4.19-8.67.13-2.43-.08-4.12-.72-5.32-2.21-.82.81-1.67,1.59-2.63,2.44l-.91-1.79a26.73,26.73,0,0,0,2.55-2l0-4.72-2.35,0V7.69l4.09,0Zm-1-9.07a14,14,0,0,0-3-3.25l1.38-1a14.81,14.81,0,0,1,3.12,3.11ZM208.88,3,206,3V1.54l5.21,0V0H213V1.49l5.5-.05V2.89l-2.64,0,.24.06c-.29.61-.6,1.18-.85,1.67l2.68,0L218,13.1c0,.82-.13,1.25-.7,1.53a6.7,6.7,0,0,1-2.5.29,6.28,6.28,0,0,0-.54-1.52c.78,0,1.53,0,1.76,0s.29-.08.29-.3l-.05-7-3.35,0V7.26l2.64,0V8.42l-2.64,0V9.69h2l0,3.6-3.95,0V14h-1.29l0-4.26,1.9,0V8.45l-2.63,0V7.3l2.63,0V6.1l-3.21,0,.07,8.82-1.67,0-.08-10.26,2.41,0a8.47,8.47,0,0,0-.7-1.58Zm4.65,1.69a14.21,14.21,0,0,0,.71-1.73L210,3a6.63,6.63,0,0,1,.72,1.7l-.08,0Zm.05,6.1-2.64,0v1.43l2.64,0Z"/><path d="M228.09,2.22a12.76,12.76,0,0,0-.53,1.45,45.82,45.82,0,0,0-1.59,7.2,15.34,15.34,0,0,0,0,2c.36-.76.84-1.66,1.19-2.34l.95.87a37.53,37.53,0,0,0-1.78,4.39,3.61,3.61,0,0,0-.17.87c0,.19,0,.49,0,.72l-1.77,0a24.25,24.25,0,0,1-.2-6.31,55.28,55.28,0,0,1,1.5-7.64,13.79,13.79,0,0,0,.31-1.58Zm3.64,9.83a7.23,7.23,0,0,0-.38,1.7c-.08.87.51,1.61,2.85,1.81a21.84,21.84,0,0,0,4.86-.09l-.14,2.07a26.18,26.18,0,0,1-4.93,0c-3.28-.28-4.7-1.54-4.54-3.42a12.15,12.15,0,0,1,.54-2.35Zm7.7-7.46-.17,2a48.07,48.07,0,0,1-8.1-.7l.17-2A35.9,35.9,0,0,0,239.43,4.59Z"/><path d="M252.15,4a31.83,31.83,0,0,1-2.57,3.51l-2.34,13.23-1.69-.3L247.42,9.8a23.8,23.8,0,0,1-2.28,1.91,16.53,16.53,0,0,0-.66-2,21.12,21.12,0,0,0,6.08-6.54Zm9.06,16.84-.31,1.71-12.38-2.18.31-1.72,5.36.95.77-4.38-4.26-.75.3-1.7,4.26.75.67-3.82L251,8.85l.31-1.72,6.09,1.08a29,29,0,0,0-3.2-3.15L255.63,4a27.45,27.45,0,0,1,3.78,3.59l-1,.8,4.57.8-.31,1.72L257.75,10l-.68,3.82,4.36.77-.3,1.7-4.36-.77L256,19.93Z"/><path d="M278.74,26.21a14.5,14.5,0,0,0-3.44-3.85c-.1.38-.17.7-.24,1-.39,1.42-1.76,2.44-4.2,1.79-2.83-.77-4.09-2.22-3.57-4.12s2.5-2.57,5.29-1.81c.48.13.92.29,1.36.45.16-.71.34-1.47.51-2.16l-1-.27c-1.19-.33-3.28-1-4.54-1.5l.5-1.77a32.88,32.88,0,0,0,4.51,1.61l1,.26.64-2.36-.93-.25a39.28,39.28,0,0,1-4.18-1.44l.47-1.72A30,30,0,0,0,275,11.55l1,.26.29-1.06a11.74,11.74,0,0,0,.24-1.21l2,.54c-.13.33-.3.73-.46,1.23-.05.21-.17.55-.27.93a47.14,47.14,0,0,0,4.8.78l-.45,1.73c-1.39-.24-3-.49-4.81-.89l-.64,2.38c1.88.4,3.57.68,5.24.89l-.46,1.78c-1.8-.26-3.38-.57-5.2-1-.21.86-.39,1.76-.56,2.59a15.25,15.25,0,0,1,4.57,4.34Zm-5.18-4.93a10.28,10.28,0,0,0-1.64-.61c-1.59-.42-2.6-.05-2.81.73s.33,1.53,1.94,2c1.06.29,1.92.19,2.24-1C273.37,22.08,273.46,21.72,273.56,21.28Z"/><path d="M297.05,23a17.62,17.62,0,0,0-5.19-.87c-.61-.06-1.3,0-1.85,0l.21-2.3a16.82,16.82,0,0,0,1.9.39,26.22,26.22,0,0,1,5.79,1.15c2.72,1,4.12,3.27,3.12,6-1.44,3.92-5.86,4.92-11,3.85l-.41-2.18c4.67,1.1,8.28.59,9.41-2.48C299.57,25.05,298.85,23.61,297.05,23ZM302.38,19l-.95,1.67c-2-.91-5.66-2.65-7.6-3.78l.92-1.65A57.2,57.2,0,0,0,302.38,19Z"/><path d="M19.52,66.77H16.74v-1.4H5.63a11.93,11.93,0,0,1-3.49,7.31A9.47,9.47,0,0,0,0,70.78c2.85-2.56,3.1-6.24,3.1-9V56.68H19.52Zm1.54-14.55v2.62H1V52.22Zm-15.17,7v2.55c0,.35,0,.71,0,1.08H16.74V59.21Z"/><path d="M32.75,59.16a31.87,31.87,0,0,1-1.63,8.19c2.14,1.7,5,2.05,8.39,2.07,1.36,0,6,0,7.7-.07A9.72,9.72,0,0,0,46.16,72H39.44c-3.89,0-7-.46-9.45-2.3a9.65,9.65,0,0,1-2.55,3,9.94,9.94,0,0,0-2.05-1.84,8.73,8.73,0,0,0,2.69-3.08,15.58,15.58,0,0,1-2.16-4.46l2.14-.78a11.37,11.37,0,0,0,1.13,2.6,24.49,24.49,0,0,0,.8-3.86H28.43l-.3.66-2.49-.64c1-2,2.1-4.51,2.95-6.51h-3V52.38h4.21l.41-.09,1.86.5c-.69,1.8-1.63,4-2.57,6.07h1.15l.48-.06Zm5-4.5H33.55V52.59h4.21V51.28h2.67v1.31h4.78v3h1.73v2.09H45.21v3H40.43v1h5v2h-5v1.08h6v2.14h-6v1.87H37.76V66.91H32.31V64.77h5.45V63.69H33.3v-2h4.46v-1H33.44V58.63h4.32v-.94H32V55.6h5.77Zm2.67,0v.94h2.09v-.94Zm2.09,3H40.43v.94h2.09Z"/><path d="M54.05,54.7c1.88-.18,5.66-.5,9.82-.87,2.34-.19,4.85-.32,6.44-.39l0,2.94a23.16,23.16,0,0,0-4.39.3,7,7,0,0,0-4.81,6.37c0,3.75,3.52,5.08,7.36,5.29l-1.06,3.15c-4.78-.32-9.29-2.9-9.29-7.82a9.09,9.09,0,0,1,3.36-7c-2,.2-6.76.71-9.41,1.28l-.27-3.12C52.71,54.79,53.59,54.75,54.05,54.7Z"/><path d="M81.85,53c0,.51-.06,1-.06,1.75v7.77c0,.58,0,1.48.06,2h-3.4c0-.44.12-1.34.12-2V54.7a15.67,15.67,0,0,0-.1-1.75Zm10.61-.2c0,.64-.1,1.38-.1,2.3V59.6c0,4.94-1,7.06-2.66,8.95a13.46,13.46,0,0,1-5.59,3.33l-2.42-2.53a10.78,10.78,0,0,0,5.64-2.9c1.56-1.72,1.86-3.45,1.86-7V55.05a16.45,16.45,0,0,0-.14-2.3Z"/><path d="M117.46,56.33a31.7,31.7,0,0,1-4.33,8.44,22.87,22.87,0,0,1-8.71,6.67l-2.62-2.69a20,20,0,0,0,8.74-6,23.35,23.35,0,0,0,4.34-9.93l3.59.92A24.65,24.65,0,0,0,117.46,56.33Z"/><path d="M127.3,62.31c1.06-1.05,2.86-3.31,4.42-5.19,1.38-1.64,2.62-1.8,4.51-.21a60.73,60.73,0,0,1,4.69,4.67c1.54,1.68,4,4.3,5.65,6.21l-2.46,2.66c-1.47-1.88-3.56-4.43-4.92-6A49.28,49.28,0,0,0,135,59.88c-.8-.69-1.19-.69-1.86.13-.9,1.15-2.55,3.43-3.5,4.7-.52.71-1.08,1.54-1.47,2.13l-2.71-2.78A25,25,0,0,0,127.3,62.31Zm15.76-4-2.07.89a22.09,22.09,0,0,0-2.1-3.75l2-.82A35.53,35.53,0,0,1,143.06,58.34ZM146.21,57l-2,1A24.86,24.86,0,0,0,142,54.29l2-.9A34.3,34.3,0,0,1,146.21,57Z"/><path d="M152,60c.82.06,2.5.13,3.7.13h12.35c1.05,0,2.09-.09,2.69-.13v3.61c-.55,0-1.73-.12-2.69-.12H155.71c-1.31,0-2.85.05-3.7.12Z"/><path d="M184,60.86l-1.68,2.58a58.53,58.53,0,0,0-5.24-3.26l1.67-2.56C180.29,58.45,182.83,60,184,60.86Zm1.86,5.27a23.3,23.3,0,0,0,8.94-8.62l1.78,3.12a27.65,27.65,0,0,1-9.16,8.26,28.06,28.06,0,0,1-7.68,2.85l-1.72-3A25.59,25.59,0,0,0,185.86,66.13Zm1.68-10.46-1.73,2.55c-1.28-.9-3.68-2.46-5.19-3.31l1.68-2.53C183.81,53.23,186.34,54.84,187.54,55.67Z"/><path d="M218.68,70.75c0,.37,0,1.15,0,1.57h-2.9a8.17,8.17,0,0,0,0-.92h-8.72c-.64,0-1.58,0-2,.07V68.64c.4,0,1.18.09,2,.09h8.69V65.67h-7.34c-.87,0-2,0-2.5,0V63c.59,0,1.63.07,2.5.07h7.34V60.29h-7.59c-.85,0-2.3.05-2.85.09V57.6c.6.07,2,.11,2.85.11h8.69c.55,0,1.4,0,1.77,0,0,.3,0,1.06,0,1.54Z"/><path d="M237.27,65.42a21.83,21.83,0,0,0,8.37-9l1.79,3.25a24.51,24.51,0,0,1-8.51,8.5,24.92,24.92,0,0,1-8.53,3.25l-1.93-3A23.84,23.84,0,0,0,237.27,65.42Zm0-7.45-2.35,2.41a47.57,47.57,0,0,0-5.75-5l2.16-2.3A48.7,48.7,0,0,1,237.27,58Z"/><path d="M273,67.26h-4.94V70c0,1.31-.27,1.93-1.24,2.3a13.64,13.64,0,0,1-4.16.37,9.68,9.68,0,0,0-.85-2.4c1.22,0,2.66,0,3.06,0s.5-.12.5-.41v-2.6H257.9a15.72,15.72,0,0,1,3,2.78l-2.18,1.61a16.83,16.83,0,0,0-3.29-3.22l1.66-1.17h-4.93V65h13.18V63.74h-11V55.92h6.76v-1h-8.44V52.66h8.44V51.14h2.67v1.52h8.62v2.23h-8.62v1h7.06v7.82h-2.83V65H273ZM256.93,59h4.23V57.78h-4.23Zm0,2.92h4.23V60.7h-4.23Zm6.9-4.1V59h4.39V57.78Zm4.39,2.92h-4.39v1.18h4.39Z"/><path d="M287,60.89H281v11.7h-2.71V52H287ZM281,54.24v1.2h3.5v-1.2Zm3.5,4.46V57.39H281V58.7Zm13.15,10.58c0,1.56-.32,2.37-1.34,2.78s-2.5.51-4.73.51a10,10,0,0,0-1-2.81c1.45.1,3.15.07,3.63.07s.65-.16.65-.6V61h-6.23V52h9Zm-6.39-15v1.2h3.63v-1.2Zm3.63,4.51V57.39h-3.63v1.36Z"/><path d="M320.06,54.61l1.45.94a10.5,10.5,0,0,0-.5,1.59c-.53,2.25-1.52,5.82-3.45,8.37a18.2,18.2,0,0,1-9.25,6.35l-2.5-2.74a15.13,15.13,0,0,0,9-5.4,14.72,14.72,0,0,0,2.71-6.49H306.82c-1.06,0-2.14.05-2.74.09V54.08a26.19,26.19,0,0,0,2.74.19h10.64a9,9,0,0,0,1.09-.05A25.05,25.05,0,0,0,317.26,52l1.88-.78a28.53,28.53,0,0,1,1.77,3Zm2.3-4c.58.83,1.41,2.23,1.84,3l-1.91.83a24.94,24.94,0,0,0-1.84-3.09Z"/><path d="M347.78,59.62a8.76,8.76,0,0,0-.44,1,16.6,16.6,0,0,1-3.4,6.37,17.29,17.29,0,0,1-8.21,5l-2.3-2.6a15.53,15.53,0,0,0,8-4,10,10,0,0,0,2.37-4H332.67c-.55,0-1.7,0-2.67.12v-3c1,.09,2,.14,2.67.14h11.38a4.79,4.79,0,0,0,1.68-.23ZM332.12,53a17.85,17.85,0,0,0,2.39.12h8.85a20.07,20.07,0,0,0,2.49-.12v3c-.62,0-1.71-.07-2.53-.07h-8.81c-.74,0-1.72,0-2.39.07Z"/><path d="M363.77,65.42a21.83,21.83,0,0,0,8.37-9l1.79,3.25a24.51,24.51,0,0,1-8.51,8.5,24.92,24.92,0,0,1-8.53,3.25l-1.93-3A23.84,23.84,0,0,0,363.77,65.42Zm0-7.45-2.35,2.41a47.57,47.57,0,0,0-5.75-5l2.16-2.3A48.7,48.7,0,0,1,363.77,58Z"/><path d="M387.25,58.86a80.32,80.32,0,0,1,9.61,3.59l-1.29,3.2a61.28,61.28,0,0,0-8.32-3.43v6.51c0,.64.11,2.25.23,3.2h-3.61a24.6,24.6,0,0,0,.23-3.2V55.51a16.41,16.41,0,0,0-.23-2.79h3.59a23.34,23.34,0,0,0-.21,2.79Zm6.12-1a18.83,18.83,0,0,0-2-3.54l1.93-.83a39.67,39.67,0,0,1,2.1,3.48Zm3.15-1.29a22.21,22.21,0,0,0-2.14-3.44l1.91-.9a32.09,32.09,0,0,1,2.16,3.4Z"/></g></g></svg>