<svg xmlns="http://www.w3.org/2000/svg" viewBox="0 0 46.83 21.45"><defs><style>.cls-1{fill:#fff;}</style></defs><title>sp-menu3</title><g id="Layer_2" data-name="Layer 2"><g id="SVG"><path class="cls-1" d="M2.32,2.94A14.92,14.92,0,0,0,0,3.06V.57A14.82,14.82,0,0,0,2.32.71H9.89A15.52,15.52,0,0,0,12.26.57V3.06a18.39,18.39,0,0,0-2.35-.12H7.38a17.83,17.83,0,0,1-.92,2.39H9.57a12.32,12.32,0,0,0,2-.11,21.09,21.09,0,0,0-.09,2.23v11c0,1.82-.62,2.39-2.57,2.39l-1.09,0a9.15,9.15,0,0,0-.23-1.52H6.49c.06-.69.09-1.58.09-2.41V7.5h-.9v9.82a20.08,20.08,0,0,0,.09,2.41H3.68c.07-.69.09-1.59.09-2.41V7.5H2.83V18.4a20.37,20.37,0,0,0,.11,2.69H.58A21,21,0,0,0,.69,18.4V7.45c0-.76,0-1.49-.07-2.21a17.81,17.81,0,0,0,2.19.09H3.93a11.2,11.2,0,0,0,1-2.39ZM8.49,16.88c0,.89,0,1.29,0,1.68l.14,0a3.21,3.21,0,0,0,.39,0c.3,0,.41-.14.41-.53V7.5h-1Zm5.74-1.77A21.87,21.87,0,0,0,12,9.36l2-1a27.27,27.27,0,0,1,2.44,5.68Zm-.16-8.26a12.77,12.77,0,0,0-2,.14V4.39a10.07,10.07,0,0,0,2,.14h2.78V2.71A21.06,21.06,0,0,0,16.74,0h2.74a20.25,20.25,0,0,0-.14,2.71V4.53a16.09,16.09,0,0,0,2.05-.14V7a12.13,12.13,0,0,0-2.05-.14V18.42c0,2-.62,2.48-3.47,2.48-.72,0-1.36,0-2.07-.07a9.92,9.92,0,0,0-.6-2.55,22.68,22.68,0,0,0,2.74.21c.71,0,.94-.14.94-.62v-11Z"/><path class="cls-1" d="M44.12,16.79l-2,1.44a22.4,22.4,0,0,0,4.71.76,6.74,6.74,0,0,0-1.24,2.28c-4-.53-6.39-1.49-8.28-3.33l0,2c-1.58.34-2.85.57-4.48.8l-2.55.4a7.8,7.8,0,0,0-.85.18l-.37-2.53h.6c.3,0,.59,0,1.93-.14V16h-2a12,12,0,0,1-2.23,5.49c-.27-.29-.27-.29-1.08-1.24a8.82,8.82,0,0,0-.87-.8c1.49-1.89,2.05-4,2.05-7.73a17.06,17.06,0,0,0-.1-2.11c.76.06,1.34.09,2.4.09H43.27a20.38,20.38,0,0,0,2.27-.09v1.95a18.75,18.75,0,0,0-2.23-.09H29.88c0,1.33,0,1.77-.09,2.83H43.68a13.91,13.91,0,0,0,2.21-.12v1.91A16.57,16.57,0,0,0,43.66,16H42.44ZM29.91,2.46a20.09,20.09,0,0,0-2.3.09V.32a18.53,18.53,0,0,0,2.46.12h12.3A18.49,18.49,0,0,0,44.81.32V2.55a20,20,0,0,0-2.3-.09H37.26v.69H44a21.25,21.25,0,0,0,2.25-.09,12.28,12.28,0,0,0-.09,1.82V6a12,12,0,0,0,.11,1.93H43.82V4.85H37.26V7.06a11.28,11.28,0,0,0,.12,2H34.71a13.29,13.29,0,0,0,.12-2V4.85h-6.3V7.91H26.07A12.33,12.33,0,0,0,26.18,6V4.88a12.62,12.62,0,0,0-.09-1.82,20.25,20.25,0,0,0,2.28.09h6.46V2.46Zm-.42,5.06a8.3,8.3,0,0,0,1.27.07h1.77a7.7,7.7,0,0,0,1.24-.07V9a8.76,8.76,0,0,0-1.24-.07H30.76A9.61,9.61,0,0,0,29.49,9Zm0-2a6.06,6.06,0,0,0,1.26.07h1.77a7.46,7.46,0,0,0,1.24-.07V7a6.11,6.11,0,0,0-1.24-.07H30.78A8.68,8.68,0,0,0,29.52,7ZM30.94,12a14.76,14.76,0,0,0,2.14.09h8.71A14.76,14.76,0,0,0,43.93,12v1.68a15.45,15.45,0,0,0-2.16-.09H33.1a15.36,15.36,0,0,0-2.16.09ZM34,18.35c1.22-.21,1.22-.21,3.13-.6A6.61,6.61,0,0,1,35.82,16H34ZM42.85,7a8.38,8.38,0,0,0-1.24-.07H39.5A8.83,8.83,0,0,0,38.23,7V5.47a6.17,6.17,0,0,0,1.27.07h2.11a5.85,5.85,0,0,0,1.24-.07Zm0,2a10,10,0,0,0-1.24-.07H39.5A10.58,10.58,0,0,0,38.23,9V7.52a8.83,8.83,0,0,0,1.27.07h2.11a6.21,6.21,0,0,0,1.24-.07Zm-4.53,7a6.37,6.37,0,0,0,1.75,1.47A9.83,9.83,0,0,0,41.7,16Z"/></g></g></svg>