<svg xmlns="http://www.w3.org/2000/svg" viewBox="0 0 295.53 36.57"><defs><style>.cls-1{fill:#73c3c4;}</style></defs><title>sp-toptext</title><g id="Layer_2" data-name="Layer 2"><g id="SVG"><path class="cls-1" d="M10.64,10.79A16.17,16.17,0,0,0,16.13,14a9,9,0,0,0-1.44,1.75,16.78,16.78,0,0,1-5.58-4v4.13H7V11.86a16.6,16.6,0,0,1-5.47,3.85A10.92,10.92,0,0,0,.15,14a15.39,15.39,0,0,0,5.36-3.22H2.07V4.3H7v-1H.63V1.44H7V.05H9.11V1.44h6.55V3.33H9.11v1H14.3v6.49ZM4,6.82H7v-1H4ZM4,9.28H7v-1H4ZM9.11,5.81v1h3.13v-1Zm3.13,2.43H9.11v1h3.13Z"/><path class="cls-1" d="M23.78,11.52a15.48,15.48,0,0,1-3.3,3.78,14.2,14.2,0,0,0-1.64-1.17,10.38,10.38,0,0,0,2.87-3.27ZM34.29,3.59h-15V1.67h6.38V0h2.14V1.67h6.46ZM27.83,10.2v3.59c0,1-.19,1.53-.94,1.81a9.18,9.18,0,0,1-3.11.31A8.17,8.17,0,0,0,23.14,14c.86,0,1.93,0,2.21,0s.37-.07.37-.29V10.2H21.25V4.78H32.49V10.2ZM23.27,8.47h7.07v-2H23.27Zm8.26,2.39a27.39,27.39,0,0,1,3.08,3.59l-2,1a25.58,25.58,0,0,0-2.94-3.7Z"/><path class="cls-1" d="M42,1.46A13.53,13.53,0,0,0,41.63,3a41.42,41.42,0,0,0-.81,6.17,8.33,8.33,0,0,0,.06,1.09c.24-.6.51-1.16.75-1.7l1.06.81a39.69,39.69,0,0,0-1.21,4.13,5,5,0,0,0-.1.78c0,.19,0,.46,0,.7l-1.94.14a21.56,21.56,0,0,1-.66-5.51,46.12,46.12,0,0,1,.7-6.66,12.28,12.28,0,0,0,.17-1.65ZM46,9.77a5.9,5.9,0,0,0-.2,1.42c0,.74.65,1.19,2.35,1.19a19.12,19.12,0,0,0,4.21-.45l0,2.28a23.78,23.78,0,0,1-4.35.34c-2.91,0-4.28-1.05-4.28-2.77a10.31,10.31,0,0,1,.29-2.19Zm5.89-7.2V4.74a45.92,45.92,0,0,1-7.23,0l0-2.17A34.43,34.43,0,0,0,51.87,2.57Z"/><path class="cls-1" d="M56,7.82a19.78,19.78,0,0,0,.83-4.44l1.45.19a22.2,22.2,0,0,1-.77,4.78ZM61.1,6.75a15.86,15.86,0,0,0-.77-2.3V15.89h-2V0h2v3.2l.92-.39a18.8,18.8,0,0,1,1.33,3.21ZM68,9.5a7.57,7.57,0,0,0,4.35,4.56A8,8,0,0,0,70.94,16a8.82,8.82,0,0,1-4.42-5,9.26,9.26,0,0,1-4.32,5,8.37,8.37,0,0,0-1.43-1.57A7.14,7.14,0,0,0,64.91,9.5H61.52V7.58h3.66c0-.54,0-1,0-1.56V4.47H62.3V2.6h2.93V0h2V2.6H71v5H72V9.5ZM67.27,6c0,.51,0,1,0,1.55H69V4.47H67.27Z"/><path class="cls-1" d="M78.93,12.05c.66,1.14,1.85,1.62,3.59,1.68,2,.09,6,0,8.39-.15a9.63,9.63,0,0,0-.62,2c-2.11.11-5.72.14-7.79,0s-3.38-.57-4.4-1.88c-.68.66-1.38,1.31-2.25,2l-.95-2A19.66,19.66,0,0,0,77,12.19V8.48h-1.9V6.63h3.82ZM77.72,4.44a12.84,12.84,0,0,0-2.55-2.83L76.72.46a14.74,14.74,0,0,1,2.67,2.7Zm4.17-1.67H79.64V1.21H84V0h2V1.21h4.59V2.77h-2c-.22.44-.43.83-.61,1.19h2.21v7.29c0,.82-.14,1.26-.68,1.57a5.47,5.47,0,0,1-2.3.29,6.17,6.17,0,0,0-.39-1.35H84.15v.51H82.77V8.53h1.57V7.6h-2V6.37h2V5.49H81.9V13H80.09V4H82a4.22,4.22,0,0,0-.42-1.12ZM86.12,4c.15-.36.31-.8.44-1.19H83.45A3.75,3.75,0,0,1,83.86,4ZM86,9.67H84.15v.94H86Zm2.33-4.18H85.78v.88h2V7.6h-2v.93h1.6v3h.68c.19,0,.25-.07.25-.27Z"/><path class="cls-1" d="M98.14,1.46A13.53,13.53,0,0,0,97.73,3a41.42,41.42,0,0,0-.81,6.17A8.33,8.33,0,0,0,97,10.22c.24-.6.51-1.16.75-1.7l1.06.81a39.69,39.69,0,0,0-1.21,4.13,5,5,0,0,0-.1.78c0,.19,0,.46,0,.7l-1.94.14a21.56,21.56,0,0,1-.66-5.51,46.12,46.12,0,0,1,.7-6.66,12.28,12.28,0,0,0,.17-1.65Zm3.94,8.31a5.9,5.9,0,0,0-.2,1.42c0,.74.65,1.19,2.35,1.19a19.12,19.12,0,0,0,4.21-.45l0,2.28a23.78,23.78,0,0,1-4.35.34c-2.91,0-4.28-1.05-4.28-2.77a10.31,10.31,0,0,1,.29-2.19ZM108,2.57V4.74a45.92,45.92,0,0,1-7.23,0l0-2.17A34.43,34.43,0,0,0,108,2.57Z"/><path class="cls-1" d="M118,.68A27.33,27.33,0,0,1,116.45,4v11.9h-1.92v-9a16.22,16.22,0,0,1-1.41,1.6,13.34,13.34,0,0,0-1.06-2.05,18.1,18.1,0,0,0,4.1-6.36ZM128.3,13.46v1.91h-11V13.46h4.52V10.08h-3.58V8.18h3.58v-3h-4.13V3.31h4.83a27.81,27.81,0,0,0-2.84-1.87L121.06,0a23.78,23.78,0,0,1,3.84,2.46l-.75.85H128V5.22h-4.13v3h3.67v1.9h-3.67v3.38Z"/><path class="cls-1" d="M144.14,14.52a12.74,12.74,0,0,0-3.4-2.33c0,.22,0,.42,0,.59,0,1.45-1.09,2.55-3.32,2.55-2.68,0-4.11-1-4.11-2.8s1.56-2.89,4.17-2.89c.35,0,.69,0,1,0,0-.51-.05-1-.07-1.53h-.86c-1,0-2.93-.09-4-.22l0-2a30,30,0,0,0,4.06.31h.8V4.5h-.8A28.53,28.53,0,0,1,134,4.25l0-1.92a22.7,22.7,0,0,0,3.65.32h.84V1.89a6.55,6.55,0,0,0-.09-1.16h2.3a10,10,0,0,0-.12,1.19l0,.66a35.09,35.09,0,0,0,4-.4l.05,1.93c-1.1.11-2.46.24-4.08.33V6.19c1.7-.07,3.11-.22,4.48-.39v2c-1.51.17-2.82.28-4.45.34,0,.62.07,1.3.12,1.95a13,13,0,0,1,4.71,2.55Zm-5.54-3a8.75,8.75,0,0,0-1.38-.12c-1.19,0-1.83.46-1.83,1s.59,1,1.75,1c.9,0,1.48-.28,1.48-1.24C138.62,12,138.62,11.78,138.6,11.49Z"/><path class="cls-1" d="M158.37,6.83a14.84,14.84,0,0,0-4.38.82c-.5.15-1.14.41-1.64.58l-.63-2.4a15.68,15.68,0,0,0,1.84-.29,23.49,23.49,0,0,1,5.08-.76c2.67,0,4.54,1.51,4.54,4.14,0,3.61-3.33,5.85-8,6.5L154,13.31c4.18-.48,6.85-1.84,6.85-4.47C160.8,7.73,160,6.82,158.37,6.83Zm3.4-5.32-.34,2.08c-2-.14-5.63-.46-7.56-.8l.34-2A48.06,48.06,0,0,0,161.77,1.51Z"/><path class="cls-1" d="M172.24,15.6a31.63,31.63,0,0,0-3.65-3.75l1.77-1.53a31.63,31.63,0,0,1,3.7,3.72Z"/><path class="cls-1" d="M14.43,32.2H12.37v-1H4.16a8.81,8.81,0,0,1-2.58,5.4A7.1,7.1,0,0,0,0,35.16c2.11-1.89,2.29-4.61,2.29-6.68V24.74H14.43Zm1.14-10.76v1.94H.73V21.44ZM4.35,26.61V28.5c0,.25,0,.52,0,.8h8V26.61Z"/><path class="cls-1" d="M24.21,26.58A23.37,23.37,0,0,1,23,32.63c1.58,1.26,3.72,1.51,6.21,1.53,1,0,4.45,0,5.69,0a7,7,0,0,0-.78,2h-5c-2.87,0-5.18-.34-7-1.7a7.28,7.28,0,0,1-1.89,2.19,7.21,7.21,0,0,0-1.51-1.36,6.54,6.54,0,0,0,2-2.28,11.33,11.33,0,0,1-1.6-3.29l1.58-.58A8.34,8.34,0,0,0,21.57,31a17.72,17.72,0,0,0,.6-2.86H21l-.22.5L19,28.14c.73-1.49,1.54-3.33,2.17-4.81H18.92V21.56H22l.31-.07,1.37.38c-.51,1.32-1.2,2.94-1.9,4.49h.85l.36-.05Zm3.7-3.33H24.8V21.72h3.11v-1h2v1h3.54v2.22H34.7v1.55H33.42v2.23H29.88v.74h3.68v1.47H29.88v.79h4.46v1.59H29.88v1.37h-2V32.31h-4V30.72h4v-.79H24.62V28.46h3.29v-.74H24.72V26.19h3.19v-.7H23.65V23.94h4.26Zm2,0v.69h1.55v-.69Zm1.55,2.24H29.88v.7h1.55Z"/><path class="cls-1" d="M40,23.28c1.39-.14,4.18-.37,7.26-.65,1.73-.13,3.58-.23,4.76-.29v2.18a17.65,17.65,0,0,0-3.24.22,5.13,5.13,0,0,0-3.55,4.71c0,2.77,2.6,3.76,5.43,3.91l-.78,2.33C46.31,35.45,43,33.55,43,29.91a6.72,6.72,0,0,1,2.48-5.19c-1.45.16-5,.53-7,1l-.2-2.32C39,23.35,39.61,23.31,40,23.28Z"/><path class="cls-1" d="M61.52,22c0,.37-.05.75-.05,1.29V29c0,.43,0,1.09.05,1.48H59c0-.32.08-1,.08-1.49V23.28A11.78,11.78,0,0,0,59,22Zm7.84-.16c0,.48-.07,1-.07,1.7V26.9c0,3.65-.71,5.22-2,6.61A9.88,9.88,0,0,1,63.19,36L61.4,34.11A8,8,0,0,0,65.57,32c1.15-1.28,1.37-2.55,1.37-5.21V23.53a11.77,11.77,0,0,0-.1-1.7Z"/><path class="cls-1" d="M87.84,24.49a23.6,23.6,0,0,1-3.2,6.23,16.82,16.82,0,0,1-6.44,4.93l-1.94-2a14.88,14.88,0,0,0,6.46-4.42,17.36,17.36,0,0,0,3.21-7.35l2.66.68A17.44,17.44,0,0,0,87.84,24.49Z"/><path class="cls-1" d="M95.11,28.91c.79-.79,2.11-2.45,3.27-3.85,1-1.2,1.94-1.32,3.33-.15a45.13,45.13,0,0,1,3.47,3.45c1.14,1.24,3,3.18,4.18,4.59l-1.82,2c-1.09-1.39-2.63-3.28-3.64-4.45a36.67,36.67,0,0,0-3.13-3.37c-.59-.51-.88-.51-1.37.11-.66.85-1.89,2.53-2.59,3.46-.39.53-.79,1.14-1.08,1.58l-2-2.05C94.23,29.77,94.6,29.42,95.11,28.91ZM106.76,26l-1.53.66a15.66,15.66,0,0,0-1.55-2.77l1.48-.61A26.21,26.21,0,0,1,106.76,26Zm2.33-1-1.48.72A18.33,18.33,0,0,0,106,23l1.46-.66A25.57,25.57,0,0,1,109.09,25Z"/><path class="cls-1" d="M113.37,27.16c.61.05,1.86.1,2.74.1h9.13c.78,0,1.54-.07,2-.1v2.66c-.41,0-1.28-.08-2-.08h-9.13c-1,0-2.11,0-2.74.08Z"/><path class="cls-1" d="M137,27.83l-1.24,1.91a43.55,43.55,0,0,0-3.88-2.41l1.24-1.89C134.28,26.05,136.15,27.22,137,27.83Zm1.38,3.9A17.37,17.37,0,0,0,145,25.35l1.31,2.32a20.59,20.59,0,0,1-6.77,6.1,21,21,0,0,1-5.68,2.11l-1.27-2.25A19,19,0,0,0,138.4,31.73ZM139.64,24l-1.28,1.89c-1-.66-2.72-1.82-3.84-2.45l1.24-1.87C136.88,22.19,138.75,23.38,139.64,24Z"/><path class="cls-1" d="M162.65,35.14c0,.28,0,.85,0,1.16h-2.14a6.55,6.55,0,0,0,0-.68H154.1c-.47,0-1.17,0-1.46.05V33.58c.29,0,.87.07,1.48.07h6.43V31.39h-5.43c-.64,0-1.46,0-1.85,0v-2c.44,0,1.21,0,1.85,0h5.43V27.41h-5.61c-.63,0-1.7,0-2.11.07V25.42c.44,0,1.48.09,2.11.09h6.42c.41,0,1,0,1.31,0,0,.22,0,.78,0,1.14Z"/><path class="cls-1" d="M176.39,31.2a16.16,16.16,0,0,0,6.19-6.61L183.9,27a18,18,0,0,1-6.29,6.28,18.27,18.27,0,0,1-6.3,2.4l-1.43-2.24A17.57,17.57,0,0,0,176.39,31.2Zm0-5.51-1.73,1.79a35.43,35.43,0,0,0-4.25-3.67l1.6-1.7A36,36,0,0,1,176.39,25.69Z"/><path class="cls-1" d="M202.81,32.56h-3.66v2c0,1-.2,1.43-.91,1.7a10.2,10.2,0,0,1-3.08.27,6.94,6.94,0,0,0-.63-1.77c.9,0,2,0,2.26,0s.38-.09.38-.31V32.56h-5.53a11.39,11.39,0,0,1,2.24,2.06l-1.61,1.19a12.52,12.52,0,0,0-2.43-2.38l1.22-.87h-3.64v-1.7h9.75V30h-8.11V24.18h5v-.76h-6.23V21.77h6.23V20.65h2v1.12h6.37v1.65H196v.76h5.21V30h-2.09v.9h3.66Zm-11.88-6.14h3.12v-.86h-3.12Zm0,2.16h3.12v-.86h-3.12Zm5.1-3v.86h3.24v-.86Zm3.24,2.16H196v.86h3.24Z"/><path class="cls-1" d="M213.18,27.85h-4.47V36.5h-2V21.31h6.48Zm-4.47-4.91v.88h2.58v-.88Zm2.58,3.3v-1h-2.58v1ZM221,34.06c0,1.15-.24,1.75-1,2a9.2,9.2,0,0,1-3.5.38,7.46,7.46,0,0,0-.72-2.08c1.07.07,2.33.05,2.69.05s.48-.11.48-.44V27.9h-4.61V21.31H221Zm-4.73-11.12v.88H219v-.88ZM219,26.27v-1h-2.69v1Z"/><path class="cls-1" d="M237.59,23.21l1.07.7a8.41,8.41,0,0,0-.37,1.17,17.11,17.11,0,0,1-2.55,6.19A13.44,13.44,0,0,1,228.9,36l-1.85-2a11.13,11.13,0,0,0,6.66-4,10.85,10.85,0,0,0,2-4.79H227.8c-.78,0-1.58,0-2,.07v-2.4a18.31,18.31,0,0,0,2,.14h7.87a6.15,6.15,0,0,0,.8,0c-.29-.56-.63-1.15-.95-1.65l1.39-.57a23.12,23.12,0,0,1,1.31,2.24Zm1.7-2.94c.43.61,1,1.65,1.36,2.24l-1.41.62a19.06,19.06,0,0,0-1.36-2.28Z"/><path class="cls-1" d="M258.08,26.92a6.24,6.24,0,0,0-.33.71,12.26,12.26,0,0,1-2.51,4.71A12.79,12.79,0,0,1,249.17,36l-1.7-1.92a11.5,11.5,0,0,0,5.9-3,7.56,7.56,0,0,0,1.75-2.94h-8.21c-.41,0-1.26,0-2,.08V26.05c.71.07,1.44.1,2,.1h8.41a3.61,3.61,0,0,0,1.24-.17ZM246.5,22a14,14,0,0,0,1.77.08h6.54a15.69,15.69,0,0,0,1.84-.08v2.19c-.46,0-1.26-.05-1.87-.05h-6.51c-.55,0-1.28,0-1.77.05Z"/><path class="cls-1" d="M269.89,31.2a16.16,16.16,0,0,0,6.19-6.61L277.4,27a18,18,0,0,1-6.29,6.28,18.27,18.27,0,0,1-6.3,2.4l-1.43-2.24A17.57,17.57,0,0,0,269.89,31.2Zm0-5.51-1.73,1.79a35.43,35.43,0,0,0-4.25-3.67l1.6-1.7A36,36,0,0,1,269.89,25.69Z"/><path class="cls-1" d="M287.25,26.36a58,58,0,0,1,7.1,2.65l-1,2.36a46.3,46.3,0,0,0-6.15-2.53v4.81c0,.47.08,1.66.17,2.36h-2.67a18.73,18.73,0,0,0,.17-2.36V23.87a11.82,11.82,0,0,0-.17-2.05h2.65a17.91,17.91,0,0,0-.15,2.05Zm4.52-.75a13.79,13.79,0,0,0-1.5-2.62l1.43-.61A27.81,27.81,0,0,1,293.25,25Zm2.33-.95a16.33,16.33,0,0,0-1.58-2.55l1.41-.67a22.41,22.41,0,0,1,1.6,2.52Z"/></g></g></svg>