<svg xmlns="http://www.w3.org/2000/svg" viewBox="0 0 302.57 13.77"><defs><style>.cls-1{fill:#fff}</style></defs><title>i-bannertext2</title><g id="Layer_2" data-name="Layer 2"><path class="cls-1" d="M1.53 8.1a5.85 5.85 0 0 0-.3 1.69c0 1.11 1.14 1.89 3.51 1.89a19.19 19.19 0 0 0 5.09-.57v1.29a21.64 21.64 0 0 1-5.07.51c-3 0-4.77-1-4.77-2.85A9.63 9.63 0 0 1 .3 8zm-.61-6a34.24 34.24 0 0 0 3.92.19c1.43 0 3-.1 4-.21v1.23c-1 .08-2.64.18-4 .18S2.1 3.43.92 3.33zm25.97 9.31a3.76 3.76 0 0 1-2.72 1.25c-1 0-1.66-.66-1.66-1.89 0-1.65.56-4.1.56-5.54A1.06 1.06 0 0 0 21.88 4c-1.2 0-3 1.39-4.36 2.86V8.6c0 1.35 0 2.25.06 3.59 0 .25 0 .63.07.9h-1.3V7.82c-.72 1.1-1.7 2.52-2.41 3.51l-.75-1c.82-1 2.53-3.35 3.28-4.52 0-.48.06-1 .09-1.42-.67.07-2 .25-2.89.37l-.12-1.24a8 8 0 0 0 1 0c.48 0 1.35-.12 2.12-.24 0-.7.07-1.23.07-1.39a5.24 5.24 0 0 0-.03-1.14h1.42c-.07.36-.19 1.2-.3 2.24h.08l.43.52-.65 1c0 .27-.05.55-.08.84 1.15-1.07 3.06-2.49 4.55-2.49a1.86 1.86 0 0 1 2.09 2c0 1.49-.55 4-.55 5.55 0 .51.24.9.76.9a3.28 3.28 0 0 0 2.24-1.23zm12.73 1.02A11.19 11.19 0 0 0 36 10.2v.93c0 1-.69 2.08-2.62 2.08-2.13 0-3.32-.76-3.32-2.2s1.3-2.27 3.45-2.27a8.55 8.55 0 0 1 1.25.09c0-.66-.07-1.36-.08-2h-.82c-1 0-2.67-.09-3.74-.21V5.5a26.51 26.51 0 0 0 3.74.29h.79V3.66H34a34.27 34.27 0 0 1-3.49-.23V2.32a23 23 0 0 0 3.49.29h.76v-1a8.26 8.26 0 0 0 0-.88H36a6.05 6.05 0 0 0-.08 1v.82a30.7 30.7 0 0 0 3.8-.36v1.1c-1.17.12-2.44.24-3.84.31v2.14A38.38 38.38 0 0 0 40 5.35v1.13c-1.4.18-2.71.28-4.12.34 0 .77.07 1.55.1 2.25a12.32 12.32 0 0 1 4.32 2.31zm-4.76-2.56a7.48 7.48 0 0 0-1.44-.14c-1.41 0-2.17.54-2.17 1.22s.58 1.2 2 1.2c.86 0 1.58-.26 1.58-1.28.05-.25.03-.6.03-1zm10.06-7.2c1-.09 3.79-.36 6.51-.6 1.62-.14 3-.21 4-.26V3a12.53 12.53 0 0 0-2.91.24A5.21 5.21 0 0 0 49.14 8c0 2.89 2.7 3.81 5.11 3.9l-.43 1.26c-2.74-.12-5.88-1.59-5.88-4.91a6 6 0 0 1 2.76-5c-1.3.15-5.35.54-7 .87l-.13-1.32c.6-.07 1.07-.1 1.35-.13zm9.65 4.24l-.77.36a13.2 13.2 0 0 0-1.22-2.11l.76-.33a18.75 18.75 0 0 1 1.23 2.08zm1.71-.64l-.78.36a12.71 12.71 0 0 0-1.28-2.09L55 4.2a22 22 0 0 1 1.28 2.07zm8.37 5.61a9.68 9.68 0 0 0 1.27-.18 4.45 4.45 0 0 0 3.77-4.4A4.12 4.12 0 0 0 65.75 3a32.76 32.76 0 0 1-.89 4.27c-.91 3.05-2.1 4.62-3.48 4.62s-2.65-1.53-2.65-4a6.34 6.34 0 0 1 6.51-6 5.39 5.39 0 0 1 5.69 5.46c0 3.12-2.05 5.21-5.59 5.67zM63.67 7a23.92 23.92 0 0 0 .83-4 5.18 5.18 0 0 0-4.59 4.8c0 1.88.87 2.7 1.51 2.7s1.49-.98 2.25-3.5zM73.14.88h7.65V2H77.4c-.21.69-.44 1.41-.65 2h3.63v8.66c0 .46-.07.73-.37.88a3 3 0 0 1-1.32.18 3 3 0 0 0-.3-.9h.89c.11 0 .18-.05.18-.18V5h-1.07v7.82h-.8V5H76.5v7.82h-.78V5H74.5v8.76h-.92V4h2.16c.19-.6.37-1.33.54-2h-3.14zm13.61 3.63h-1.29v7.89c0 .66-.17 1-.56 1.14a5.55 5.55 0 0 1-2.13.21 4 4 0 0 0-.39-1h1.68c.24 0 .32-.08.32-.32V4.51h-3.47v-1h3.47V.15h1.08v3.31h1.29zm-4.19 5.1a12.26 12.26 0 0 0-1.41-3.33l.9-.33a12.15 12.15 0 0 1 1.5 3.3zm18.06 1.25A14.48 14.48 0 0 1 98.25 12a11.36 11.36 0 0 0 3.51.87 3.11 3.11 0 0 0-.59.87 10.15 10.15 0 0 1-4.53-1.64v.77c-2.14.28-4.39.57-6 .75l-.21-.89L92 12.6v-2.27h-1.68a5.74 5.74 0 0 1-1.64 3.29 2.89 2.89 0 0 0-.78-.69 5.57 5.57 0 0 0 1.53-4.28v-2H101v.8H90.45v2.09h11.21v.79H96a4.81 4.81 0 0 0 1.5 1.31 22.52 22.52 0 0 0 2.32-1.23zm-11.05-6h-1V2.35h5.72v-.84h-4.87V.66h10.88v.85h-4.94v.84h5.81v2.54h-1v-1.8h-4.81v3.16h-1.08V3.09h-4.71zm.4.36h3.57v.66H90zm3.56-1.4v.66h-3.24v-.63zm-2.28 5V8.1h8.84v.72zm1.88 3.66c1.08-.14 2.27-.27 3.44-.39A6.05 6.05 0 0 1 95 10.33h-1.87zm6.29-8.63v.66h-3.31v-.66zm-3.31 1.4h3.68v.66h-3.68zm17.34 2.92a8.28 8.28 0 0 0 3.37 2.31 4.27 4.27 0 0 0-.74.86 9.13 9.13 0 0 1-3.8-3.17h-4.7a10.24 10.24 0 0 1-3.91 3.36 4.16 4.16 0 0 0-.72-.85 8.69 8.69 0 0 0 3.38-2.51h-3.23v-.94h3V2.44h-2.28v-.93h2.28V.07h1.09v1.44h5.44V.07h1.13v1.44H116v.93h-2.25v4.79h2.9v.94zm-3.07 4.23h5.18v.95h-11.31v-.95h5v-1.57h-3.07v-.92h3.07V8.65h1.1v1.26h3.14v.92h-3.14zm-3.22-10v1h5.44v-1zm0 2.88h5.44v-1h-5.44zm0 1.91h5.44V6.16h-5.44zm13.28-2.69A12.14 12.14 0 0 0 118 3.39l.56-.78a13.72 13.72 0 0 1 2.43 1zm11.14 6.33h-6.21v2.94h-1.12v-2.94h-6v-1h6V8.59h1.12v1.23h6.21zm-13.14-2.69a34.28 34.28 0 0 0 2.94-3.07l.6.75c-.85 1-1.86 2.2-2.76 3.18zm3.08-6a13.57 13.57 0 0 0-2.39-1.23l.56-.76a12.31 12.31 0 0 1 2.41 1.12zM123 3.58a10.76 10.76 0 0 1-1 1 8.23 8.23 0 0 0-.87-.77 10.56 10.56 0 0 0 3-3.82l1.07.31a12.09 12.09 0 0 1-.78 1.4h2.08a17.23 17.23 0 0 0 .79-1.64l1.18.23c-.27.48-.57 1-.84 1.41h3.32v.88h-3.45V3.7h3v.84h-3v1.07h3v.84h-3v1.14h3.81v.9H123zm3.49-1H124V3.7h2.43zm0 2H124v1.03h2.43zm0 1.91H124v1.1h2.43zm13.59 4.1c0-.57.07-1.53.07-2.31-1.39.75-2.35 1.51-2.35 2.49 0 1.17 1.16 1.33 2.69 1.33a25.55 25.55 0 0 0 4-.36v1.22a39.6 39.6 0 0 1-4.06.24c-2.13 0-3.84-.45-3.84-2.27s1.77-2.86 3.49-3.76a1.26 1.26 0 0 0-1.34-.92 3.93 3.93 0 0 0-2.56 1.1c-.42.4-.84 1-1.35 1.56l-1-.77a15.62 15.62 0 0 0 3.42-4.53h-.62c-.63 0-1.63 0-2.44-.09V2.4c.8.09 1.83.15 2.51.15h1a8 8 0 0 0 .3-1.86l1.24.1c-.11.42-.24 1-.45 1.71a38.78 38.78 0 0 0 4.54-.45v1.11a44.66 44.66 0 0 1-4.91.42 10.56 10.56 0 0 1-1.34 2.28 4.28 4.28 0 0 1 2.06-.55 1.86 1.86 0 0 1 2 1.35c1-.48 1.92-.84 2.7-1.2.45-.2.81-.38 1.23-.59l.46 1.13c-.37.1-.91.31-1.31.46-.84.33-1.9.77-3 1.29v2.84zM153 5c2.54-.5 5.18-1 5.81-1.19a2.48 2.48 0 0 0 .8-.27l.89.69c-.11.17-.28.42-.38.6A21.47 21.47 0 0 1 157 9.21l-1-.62A14.61 14.61 0 0 0 158.64 5L153 6.16v4.47c0 1 .38 1.37 2.19 1.37a22.68 22.68 0 0 0 4.66-.45l-.05 1.29a32.71 32.71 0 0 1-4.71.31c-2.78 0-3.31-.73-3.31-2.2V6.42l-3.45.7-.22-1.26c.67-.07 2.08-.33 3.67-.63V2.67a7.87 7.87 0 0 0-.09-1.38h1.41a10.55 10.55 0 0 0-.1 1.38zm6.25-1.92A18.9 18.9 0 0 0 158 1l.79-.35A21.13 21.13 0 0 1 160 2.73zm1.23-3a21.7 21.7 0 0 1 1.26 2l-.81.36a13.68 13.68 0 0 0-1.29-2.02zm14.75 10.82v1.8H174v-.85h-8.2v.85h-1.29V2.34h10.71v1.17zm-9.44-7.35v7.13H174V3.55zM184 1c-.07.27-.12.58-.19.87s-.21 1.3-.37 2.1c.69-.05 1.31-.09 1.66-.09 1.33 0 2.42.51 2.42 2.52a14.33 14.33 0 0 1-.87 5.35 2.1 2.1 0 0 1-2.23 1.25 8.41 8.41 0 0 1-1.73-.23l-.2-1.26a7.13 7.13 0 0 0 1.81.33 1.26 1.26 0 0 0 1.31-.76 12.7 12.7 0 0 0 .69-4.55c0-1.35-.62-1.59-1.56-1.59-.36 0-1 0-1.59.11A29.64 29.64 0 0 1 180 13l-1.23-.5a23.2 23.2 0 0 0 3.12-7.36l-1.89.18-1.33.18-.12-1.3h1.32c.46 0 1.37-.09 2.26-.17a17.42 17.42 0 0 0 .38-3.22zm5.11 1.57a26.07 26.07 0 0 1 2.71 5.31l-1.17.56A17.81 17.81 0 0 0 188 3zm7.39 5.17A7 7 0 0 1 201.3 6c2.28 0 3.79 1.37 3.79 3.11 0 2.67-2.35 4.47-7.87 4l-.36-1.23c4.68.57 7-.78 7-2.8 0-1.19-1.09-2-2.61-2a5.81 5.81 0 0 0-4.59 2 3 3 0 0 0-.44.75l-1.13-.27a52.54 52.54 0 0 0 .75-6l1.27.17c-.22.89-.48 3.05-.61 4.01zm.92-6.84a40.2 40.2 0 0 0 5.74 1.1l-.28 1.17c-1.42-.2-4.64-.86-5.78-1.17zm22.51 11.68c.6 0 .72-.27.78-2.11a3.25 3.25 0 0 0 1 .45c-.14 2.17-.47 2.71-1.73 2.71h-2.38c-1.4 0-1.78-.33-1.78-1.54v-3h-2.46c-.36 2.4-1.32 3.9-4.72 4.68a3.25 3.25 0 0 0-.64-1c3.08-.61 3.88-1.78 4.19-3.7h-2V.58h9.43v8.51H217v3c0 .44.12.51.76.51zm-8.68-9.46h7.22V1.59h-7.22zm0 2.47h7.22V4.05h-7.22zm0 2.51h7.22V6.54h-7.22zm17.91-4.41c.05-.38.12-.78.16-1.22h-6v-1h6.07c.05-.51.08-1 .09-1.43l1.28.09c0 .44-.11.89-.16 1.34h5.8v1h-6c-.05.44-.13.84-.19 1.22h4.47v7h-7.87v-7zm7.4 9.28h-11.35v.8h-1.08V4.11h1.08V12h11.35zm-2.9-8.43h-5.72v1.2h5.72zm0 2h-5.72v1.23h5.72zm0 2h-5.72v1.3h5.72zM242.49 1c-.07.48-.12 1-.15 1.49-.06 1.68-.18 5.19-.18 7.41 0 1.63 1.05 2.2 2.43 2.2a6.21 6.21 0 0 0 5.34-3.1l.82 1a7.38 7.38 0 0 1-6.19 3.27c-2.13 0-3.6-.9-3.6-3.31 0-2.21.15-6 .15-7.53A7.62 7.62 0 0 0 241 1zm22.13 11.43A11.19 11.19 0 0 0 261 10.2v.93c0 1-.69 2.08-2.62 2.08-2.13 0-3.32-.76-3.32-2.2s1.3-2.27 3.45-2.27a8.55 8.55 0 0 1 1.25.09c0-.66-.07-1.36-.08-2h-.82c-1 0-2.67-.09-3.74-.21V5.5a26.51 26.51 0 0 0 3.74.29h.79V3.66H259a34.27 34.27 0 0 1-3.49-.23V2.32a23 23 0 0 0 3.48.29h.76v-1a8.26 8.26 0 0 0 0-.88H261a6.05 6.05 0 0 0-.08 1v.82a30.7 30.7 0 0 0 3.8-.36v1.1c-1.17.12-2.44.24-3.84.31v2.14a38.38 38.38 0 0 0 4.12-.39v1.13c-1.4.18-2.71.28-4.12.34 0 .77.07 1.55.1 2.25a12.32 12.32 0 0 1 4.32 2.31zm-4.76-2.56a7.48 7.48 0 0 0-1.44-.14c-1.41 0-2.17.54-2.17 1.22s.58 1.2 2.05 1.2c.86 0 1.58-.26 1.58-1.28 0-.25-.02-.6-.02-1zM272.49 1c-.07.48-.12 1-.15 1.49-.06 1.68-.18 5.19-.18 7.41 0 1.63 1 2.2 2.43 2.2a6.21 6.21 0 0 0 5.34-3.1l.82 1a7.38 7.38 0 0 1-6.19 3.27c-2.13 0-3.6-.9-3.6-3.31 0-2.21.15-6 .15-7.53A7.62 7.62 0 0 0 271 1zm18.89 2.78a30.43 30.43 0 0 1-3.08.51c-.13.64-.3 1.33-.47 2a44 44 0 0 1-2.32 6.81l-1.32-.43A32.46 32.46 0 0 0 286.68 6c.14-.49.26-1 .37-1.57h-1.34c-.67 0-1.21 0-1.73-.06V3.2a13.21 13.21 0 0 0 1.78.11c.49 0 1 0 1.59-.06.11-.54.18-1 .23-1.31a7.55 7.55 0 0 0 0-1.23l1.42.14c-.11.33-.21.89-.28 1.19l-.22 1.09a21.92 21.92 0 0 0 2.84-.54zM290.79 9a5.57 5.57 0 0 0-.21 1.34c0 .7.33 1.38 2.45 1.38a16.09 16.09 0 0 0 2.89-.29v1.22a23.22 23.22 0 0 1-2.87.19c-2.34 0-3.57-.72-3.57-2.19a7.94 7.94 0 0 1 .23-1.75zm-.37-3.61c.78-.08 1.75-.12 2.71-.12a23.5 23.5 0 0 1 2.56.12v1.14a21.46 21.46 0 0 0-2.51-.18 24.88 24.88 0 0 0-2.74.16zm12.15 5.84a2.29 2.29 0 1 1-2.3-2.23 2.31 2.31 0 0 1 2.3 2.23zm-.78 0a1.51 1.51 0 0 0-1.52-1.51 1.52 1.52 0 1 0 0 3 1.5 1.5 0 0 0 1.52-1.49z" id="SVG"/></g></svg>