<svg xmlns="http://www.w3.org/2000/svg" viewBox="0 0 443.76 20.2"><defs><style>.cls-1{fill:#fff}</style></defs><title>sp-bannertext2</title><g id="Layer_2" data-name="Layer 2"><path class="cls-1" d="M2.24 11.88a8.72 8.72 0 0 0-.44 2.49c0 1.63 1.68 2.77 5.2 2.77a28.1 28.1 0 0 0 7.46-.84v1.9a32.52 32.52 0 0 1-7.46.74c-4.43 0-7-1.45-7-4.18a13.64 13.64 0 0 1 .44-3zm-.9-8.8a48.28 48.28 0 0 0 5.77.29c2.09 0 4.31-.16 5.87-.31v1.8c-1.47.11-3.87.27-5.87.27-2.18 0-4-.09-5.77-.25zm38.11 13.66a5.58 5.58 0 0 1-4 1.83C34 18.57 33 17.6 33 15.8c0-2.42.82-6 .82-8.12A1.55 1.55 0 0 0 32.1 5.9c-1.76 0-4.4 2-6.4 4.2-.05.92-.07 1.78-.07 2.55 0 2 0 3.3.09 5.26 0 .37.06.92.11 1.32h-1.92c0-.31.07-.95.07-1.3 0-2.09 0-3.17.07-5.59v-.83c-1.06 1.6-2.49 3.69-3.54 5.15l-1.1-1.52c1.21-1.52 3.71-4.91 4.81-6.62.05-.71.09-1.41.14-2.09-1 .11-2.89.37-4.25.55L20 5.15a11.45 11.45 0 0 0 1.43 0c.71 0 2-.18 3.11-.36.06-1 .11-1.8.11-2a8.27 8.27 0 0 0-.09-1.63l2.09.07c-.11.52-.29 1.76-.44 3.27h.11l.64.77c-.27.4-.64 1-1 1.52-.05.4-.07.81-.11 1.23 1.69-1.56 4.49-3.65 6.67-3.65a2.73 2.73 0 0 1 3.06 2.83c0 2.17-.82 5.94-.82 8.14 0 .74.35 1.32 1.12 1.32a4.8 4.8 0 0 0 3.28-1.81zm18.65 1.5A16.06 16.06 0 0 0 52.85 15v1.37c0 1.49-1 3.06-3.85 3.06-3.13 0-4.86-1.13-4.86-3.24s1.91-3.32 5.06-3.32a11.9 11.9 0 0 1 1.82.13c0-1-.08-2-.11-2.9h-1.17c-1.49 0-3.91-.14-5.48-.31V8.08a39.44 39.44 0 0 0 5.48.41h1.17V5.37h-1.08c-1.52 0-3.83-.18-5.13-.37V3.41a35.11 35.11 0 0 0 5.11.42h1.12V2.4a10.85 10.85 0 0 0-.07-1.3h1.88a10.22 10.22 0 0 0-.11 1.45v1.21a46.13 46.13 0 0 0 5.59-.53v1.61c-1.71.18-3.58.35-5.63.46v3.13c2.09-.09 4.09-.29 6.05-.57v1.65c-2 .26-4 .41-6 .5 0 1.12.11 2.27.16 3.3a17.81 17.81 0 0 1 6.33 3.39zm-7-3.76a11.27 11.27 0 0 0-2.11-.2c-2.07 0-3.19.79-3.19 1.78s.85 1.76 3 1.76c1.25 0 2.31-.37 2.31-1.87.04-.37.02-.88.02-1.47zM65.89 3.92c1.43-.14 5.54-.53 9.55-.88 2.38-.2 4.42-.31 5.87-.38v1.76a18 18 0 0 0-4.26.35 7.63 7.63 0 0 0-5 6.89c0 4.25 4 5.59 7.51 5.72l-.64 1.85c-4-.17-8.63-2.33-8.63-7.19a8.82 8.82 0 0 1 4-7.35c-1.91.22-7.85.79-10.21 1.27L64 4c.79 0 1.47 0 1.89-.08zM80 10.14l-1.12.53a21 21 0 0 0-1.81-3.1l1.12-.48A25.33 25.33 0 0 1 80 10.14zm2.51-.94l-1.15.53a19 19 0 0 0-1.87-3.06l1.1-.51a33.59 33.59 0 0 1 1.96 3.04zm12.31 8.23a14.69 14.69 0 0 0 1.87-.27c2.8-.61 5.52-2.68 5.52-6.44a6 6 0 0 0-5.78-6.32 46.9 46.9 0 0 1-1.3 6.27c-1.34 4.47-3.08 6.78-5.11 6.78s-3.89-2.25-3.89-5.83c0-4.73 4.22-8.87 9.55-8.87 5.1 0 8.36 3.61 8.36 8 0 4.58-3 7.64-8.21 8.32zm-1.43-7.13a35 35 0 0 0 1.21-5.88 7.6 7.6 0 0 0-6.73 7c0 2.75 1.27 4 2.22 4s2.18-1.42 3.3-5.12zm13.88-9h11.22v1.58h-5c-.31 1-.64 2.07-1 3h5.33v12.7c0 .68-.11 1.07-.55 1.3a4.61 4.61 0 0 1-1.94.26 4.19 4.19 0 0 0-.44-1.32h1.3c.15 0 .27-.06.27-.26V7.28H115v11.47h-1.16V7.28h-1.64v11.47h-1.14V7.28h-1.79v12.85h-1.36V5.83h3.17c.28-.88.55-2 .79-2.95h-4.6zm20 5.32h-1.89V18.2c0 1-.25 1.4-.82 1.67a8.39 8.39 0 0 1-3.12.31 5.54 5.54 0 0 0-.57-1.52h2.46c.29 0 .46-.11.46-.46V6.62h-5.08V5.08h5.08V.22h1.59v4.86h1.89zm-6.14 7.48A17.67 17.67 0 0 0 119 9.22l1.32-.48a17.46 17.46 0 0 1 2.2 4.84zm26.45 1.83a20.82 20.82 0 0 1-3.48 1.72 16.28 16.28 0 0 0 5.15 1.27 4.71 4.71 0 0 0-.86 1.28 14.75 14.75 0 0 1-6.64-2.4v1.12c-3.14.42-6.45.84-8.78 1.1l-.31-1.29 2.27-.25v-3.32h-2.51a8.37 8.37 0 0 1-2.4 4.82 4 4 0 0 0-1.14-1 8.16 8.16 0 0 0 2.24-6.27v-3h17v1.17h-15.46V14h16.43v1.17h-8.27a7.09 7.09 0 0 0 2.2 1.91 28.31 28.31 0 0 0 3.41-1.8zm-16.22-8.76h-1.47V3.45h8.38V2.22h-7.13V1h16v1.22h-7.27v1.23h8.54v3.72h-1.52V4.53h-7v4.65h-1.58V4.53h-6.91zm.6.53h5.23v1H132zm5.21-2v1h-4.75v-1zm-3.34 7.29v-1.11h13v1.06zm2.77 5.37c1.58-.2 3.32-.4 5-.58a8.78 8.78 0 0 1-2.33-2.57h-2.67zm9.22-12.66v1H141v-1zm-4.82 2h5.41v1H141zm25.39 4.3a12.16 12.16 0 0 0 5 3.39 6.29 6.29 0 0 0-1.08 1.25 13.45 13.45 0 0 1-5.64-4.64h-6.89a14.93 14.93 0 0 1-5.78 4.92 5.45 5.45 0 0 0-1-1.25 12.93 12.93 0 0 0 5-3.67h-4.75v-1.39h4.35v-7h-3.34V2.22h3.34V.11h1.61v2.11h8V.11h1.65v2.11h3.3v1.37h-3.3v7h4.24V12zm-4.49 6.2h7.59v1.38H152.9V18.2h7.37v-2.31h-4.49v-1.35h4.49V12.7h1.63v1.84h4.6v1.35h-4.6zm-4.73-14.61v1.47h8V3.59zm0 4.22h8V6.29h-8zm0 2.8h8V9h-8zm19.47-4.01a18.12 18.12 0 0 0-3.57-1.6l.82-1.14a19.41 19.41 0 0 1 3.56 1.47zM193 15.89h-9.11v4.31h-1.65v-4.31h-8.87v-1.48h8.87v-1.8h1.65v1.8H193zM173.71 12A52.09 52.09 0 0 0 178 7.44l.88 1.1c-1.25 1.54-2.72 3.23-4 4.66zm4.51-8.8a18.94 18.94 0 0 0-3.5-1.81l.82-1.12a17.72 17.72 0 0 1 3.54 1.65zm2.11 2.11a15.82 15.82 0 0 1-1.49 1.47 12.06 12.06 0 0 0-1.28-1.12A15.52 15.52 0 0 0 182 0l1.56.46a17.44 17.44 0 0 1-1.15 2.05h3.06a24.47 24.47 0 0 0 1.15-2.4l1.74.33c-.4.7-.84 1.43-1.24 2.07H192v1.3h-5v1.63h4.36v1.23H187v1.56h4.4v1.23H187v1.67h5.59v1.32h-12.26zm5.13-1.45h-3.56v1.58h3.56zm0 2.86h-3.56v1.51h3.56zm0 2.79h-3.56v1.67h3.56zm20 6.02c.06-.83.09-2.24.09-3.38-2 1.1-3.44 2.22-3.44 3.65 0 1.71 1.7 2 3.94 2a38.26 38.26 0 0 0 5.94-.53L212 19a55.59 55.59 0 0 1-6 .35c-3.13 0-5.64-.66-5.64-3.32s2.6-4.2 5.13-5.52a1.84 1.84 0 0 0-2-1.34 5.79 5.79 0 0 0-3.76 1.6c-.62.6-1.23 1.41-2 2.29L196.28 12a22.89 22.89 0 0 0 5-6.65h-.9c-.93 0-2.4 0-3.59-.13v-1.7c1.17.13 2.69.22 3.68.22h1.43a12.64 12.64 0 0 0 .57-2.74l1.8.16c-.15.61-.35 1.51-.66 2.5a56.86 56.86 0 0 0 6.67-.66v1.63a67.88 67.88 0 0 1-7.22.62 16 16 0 0 1-2 3.34 6.24 6.24 0 0 1 3-.81 2.74 2.74 0 0 1 2.89 2c1.49-.7 2.81-1.23 4-1.76.66-.29 1.19-.55 1.8-.86l.71 1.65c-.55.16-1.35.46-1.92.68-1.23.49-2.79 1.13-4.44 1.9 0 1.25 0 3.1.06 4.15zm18.87-8.18c3.75-.73 7.62-1.52 8.54-1.74a3.69 3.69 0 0 0 1.17-.4l1.3 1c-.16.24-.4.61-.55.88a32.36 32.36 0 0 1-4.51 6.4l-1.52-.9a21.49 21.49 0 0 0 3.91-5.24L224.33 9v6.6c0 1.52.58 2 3.22 2a33.29 33.29 0 0 0 6.84-.66l-.07 1.89a46.12 46.12 0 0 1-6.9.47c-4.1 0-4.87-1.08-4.87-3.24V9.42c-2.22.44-4.16.83-5.06 1l-.33-1.85c1-.11 3.06-.48 5.39-.92V3.92a12.44 12.44 0 0 0-.13-2h2.07a15.42 15.42 0 0 0-.16 2zm9.18-2.82a26.64 26.64 0 0 0-1.78-3l1.16-.53a33.32 33.32 0 0 1 1.81 3zm1.8-4.42a30.3 30.3 0 0 1 1.85 3l-1.16.52a19.74 19.74 0 0 0-1.82-3zM257 16v2.64h-1.89v-1.26h-12v1.26h-1.89c0-.27.06-1.9.06-2.67V3.43h15.75v1.72zM243.17 5.21v10.46h12V5.21zm26.62-3.8c-.09.39-.18.86-.27 1.27-.11.64-.31 1.92-.55 3.09 1-.07 1.92-.14 2.45-.14 1.93 0 3.54.75 3.54 3.7 0 2.6-.38 6-1.28 7.85a3.06 3.06 0 0 1-3.19 1.82 13.34 13.34 0 0 1-2.55-.33l-.29-1.85a10.59 10.59 0 0 0 2.66.49 1.84 1.84 0 0 0 1.92-1.13 18.75 18.75 0 0 0 1-6.66c0-2-.9-2.33-2.29-2.33-.53 0-1.38.06-2.33.15A43.8 43.8 0 0 1 264 19.06l-1.8-.73c2.22-3 3.85-7.9 4.58-10.8l-2.75.28c-.51.07-1.39.18-2 .27l-.18-1.92a17.94 17.94 0 0 0 1.94 0c.72 0 2-.13 3.32-.24a25.45 25.45 0 0 0 .55-4.73zm7.5 2.31a38.42 38.42 0 0 1 4 7.79l-1.71.81a26.36 26.36 0 0 0-3.9-7.9zm10.91 7.63a10.34 10.34 0 0 1 7-2.61c3.35 0 5.57 2 5.57 4.55 0 3.92-3.46 6.56-11.55 5.88l-.53-1.81c6.86.84 10.23-1.14 10.23-4.11 0-1.74-1.61-2.95-3.83-2.95a8.45 8.45 0 0 0-6.73 2.88 4.33 4.33 0 0 0-.66 1.1l-1.65-.4A76.5 76.5 0 0 0 287.19 5l1.87.24c-.29 1.54-.66 4.76-.86 6.11zm1.34-10A57.92 57.92 0 0 0 298 3l-.42 1.72c-2.07-.29-6.8-1.26-8.47-1.72zm33.03 17.11c.88 0 1.05-.4 1.14-3.1a4.62 4.62 0 0 0 1.52.66c-.2 3.19-.68 4-2.53 4h-3.54c-2.07 0-2.62-.48-2.62-2.27v-4.4h-3.61c-.53 3.52-1.94 5.73-6.93 6.87a4.51 4.51 0 0 0-.93-1.43c4.51-.9 5.68-2.62 6.14-5.44h-3V.86h13.84v12.47h-3.89v4.38c0 .64.17.75 1.12.75zM309.83 4.58h10.6V2.33h-10.6zm0 3.63h10.6V5.94h-10.6zm0 3.67h10.6V9.59h-10.6zm26.27-6.47c.08-.55.17-1.14.24-1.78h-8.76V2.11h8.91c.07-.75.11-1.47.13-2.09l1.87.13c-.06.64-.15 1.3-.24 2h8.52v1.48H338c-.09.64-.2 1.23-.28 1.78h6.55v10.23h-11.52V5.41zM347 19h-16.69v1.2h-1.59V6h1.59v11.54H347zm-4.3-12.33h-8.39v1.76h8.39zm0 2.95h-8.39v1.78h8.39zm0 3h-8.39v1.84h8.39zm12.95-11.19c-.11.7-.17 1.47-.22 2.18-.09 2.46-.26 7.61-.26 10.87 0 2.4 1.54 3.23 3.56 3.23 4 0 6.27-2.24 7.84-4.51l1.21 1.52a10.86 10.86 0 0 1-9.09 4.8c-3.13 0-5.28-1.32-5.28-4.87 0-3.23.22-8.73.22-11a11.37 11.37 0 0 0-.2-2.2zm32.45 16.81a16.06 16.06 0 0 0-5.25-3.24v1.37c0 1.49-1 3.06-3.85 3.06-3.13 0-4.86-1.13-4.86-3.24s1.91-3.32 5.06-3.32a12 12 0 0 1 1.82.13c0-1-.08-2-.11-2.9h-1.21c-1.49 0-3.91-.14-5.48-.31V8.08a39.44 39.44 0 0 0 5.48.41h1.17V5.37h-1.08c-1.52 0-3.83-.18-5.13-.33V3.41a35.11 35.11 0 0 0 5.11.42h1.12V2.4a10.85 10.85 0 0 0-.07-1.3h1.87a12.31 12.31 0 0 0-.1 1.45v1.21a46.13 46.13 0 0 0 5.59-.53v1.61c-1.71.18-3.58.35-5.63.46v3.13c2.09-.09 4.09-.29 6.05-.57v1.65c-2 .26-4 .41-6 .5 0 1.12.11 2.27.16 3.3a17.81 17.81 0 0 1 6.33 3.39zm-7-3.76a11.27 11.27 0 0 0-2.11-.2c-2.07 0-3.19.79-3.19 1.78s.85 1.76 3 1.76c1.26 0 2.31-.37 2.31-1.87.04-.37.02-.88.02-1.47zm18.55-13.05c-.11.7-.17 1.47-.22 2.18-.09 2.46-.26 7.61-.26 10.87 0 2.4 1.54 3.23 3.56 3.23 4 0 6.27-2.24 7.84-4.51l1.21 1.52a10.86 10.86 0 0 1-9.09 4.8c-3.13 0-5.28-1.32-5.28-4.87 0-3.23.22-8.73.22-11a11.37 11.37 0 0 0-.2-2.2zm27.7 4.11a38.22 38.22 0 0 1-4.51.75c-.2 1-.44 2-.68 2.89a65.12 65.12 0 0 1-3.41 10l-1.94-.64a48.23 48.23 0 0 0 3.65-9.75c.2-.73.38-1.52.55-2.31-.7 0-1.36.07-2 .07-1 0-1.76 0-2.53-.09l-.06-1.72a19.61 19.61 0 0 0 2.62.15c.72 0 1.49 0 2.33-.08.15-.8.26-1.48.33-1.92a10.28 10.28 0 0 0 .06-1.8l2.14.17c-.15.49-.31 1.3-.4 1.74l-.33 1.61a32.55 32.55 0 0 0 4.16-.79zm-.86 7.64a8.14 8.14 0 0 0-.3 2c0 1 .48 2 3.58 2a23.64 23.64 0 0 0 4.25-.42l-.02 1.77a33.11 33.11 0 0 1-4.2.28c-3.43 0-5.24-1-5.24-3.21a12.58 12.58 0 0 1 .33-2.57zm-.55-5.3c1.15-.11 2.58-.18 4-.18a35.35 35.35 0 0 1 3.76.18l-.05 1.67a31.68 31.68 0 0 0-3.65-.26 33.92 33.92 0 0 0-4 .24zm17.82 8.6a3.36 3.36 0 1 1-3.36-3.34 3.36 3.36 0 0 1 3.36 3.34zm-1.14 0a2.21 2.21 0 0 0-2.22-2.22 2.24 2.24 0 0 0 0 4.47 2.22 2.22 0 0 0 2.22-2.25z" id="SVG"/></g></svg>