<svg xmlns="http://www.w3.org/2000/svg" viewBox="0 0 606.64 377.01"><defs><style>.cls-1,.cls-2,.cls-3{fill:none;stroke:#73c3c4;stroke-miterlimit:10}.cls-1,.cls-3{stroke-width:3px}.cls-1{stroke-dasharray:5}.cls-2{stroke-width:2px}.cls-3{stroke-dasharray:5 5}.cls-4{fill:#73c3c4}</style></defs><title>sp-img1</title><g id="Layer_2" data-name="Layer 2"><g id="SVG"><path d="M31.74 15.71H23.9v9.76c0 2.18-.45 3.2-1.92 3.78s-3.62.67-6.63.67A14 14 0 0 0 14 26.05c2.08.09 4.45.06 5.09.06s.89-.16.89-.7v-9.7H3.26V12H20V8.06h3.9V12h7.84zM7.68 10.66H3.8V3.14h11.59V0h4v3.14h11.68v7.52H27v-4H7.68zm2.11 5.82a29.13 29.13 0 0 1 5.05 6.37l-3.26 2.2a28.07 28.07 0 0 0-4.83-6.62zM61.43 5.15c-.76.48-1.5 1-2.2 1.44-1.7 1.19-5 4-7 5.6a10.53 10.53 0 0 1 3-.35c5.38 0 9.48 3.36 9.48 8 0 5-3.81 9-11.46 9-4.41 0-7.74-2-7.74-5.19 0-2.56 2.33-4.93 5.69-4.93 3.91 0 6.27 2.4 6.75 5.41a4.63 4.63 0 0 0 2.6-4.32C60.51 16.9 57.63 15 54 15c-4.87 0-8 2.59-11.43 6.43l-2.88-3c2.24-1.82 6-5 7.94-6.59s5.06-4.13 6.62-5.5c-1.63 0-6 .22-7.64.35a22.28 22.28 0 0 0-2.6.25l-.12-4.12c.89.09 2 .16 2.88.16 1.66 0 8.44-.16 10.23-.32a16.77 16.77 0 0 0 2.44-.32zm-7.16 19.94c-.2-2.05-1.38-3.4-3.11-3.4-1.18 0-1.95.71-1.95 1.51 0 1.18 1.35 2 3.2 2a18 18 0 0 0 1.86-.11zM101.53 14a59 59 0 0 1-5.89 3.87 16.38 16.38 0 0 0 7.14 6.43 16.09 16.09 0 0 0-2.66 3.29c-5.69-3-8.86-8.92-10.69-16.38h-.06a21.25 21.25 0 0 1-2.66 1.86c6.05 5.24 5.8 13.21 2.63 15.52A5.29 5.29 0 0 1 85.43 30c-.8 0-1.79 0-2.71-.06a8.08 8.08 0 0 0-1.09-3.65c1.21.09 2.24.16 3.07.16a2.29 2.29 0 0 0 1.92-.67 4.2 4.2 0 0 0 1-3.59 49.33 49.33 0 0 1-12.22 6.34 16.63 16.63 0 0 0-2-3.17 36.87 36.87 0 0 0 13.34-6.46 10 10 0 0 0-.61-1.12 47.51 47.51 0 0 1-9.69 4.8 13.64 13.64 0 0 0-1.92-2.88 34.61 34.61 0 0 0 9.89-4.16c-.26-.26-.52-.51-.81-.77a47.35 47.35 0 0 1-7.58 2.72 22 22 0 0 0-2-3 38.56 38.56 0 0 0 9.79-3.23h-4.55V8h17.18v3.2h-3.65a28.08 28.08 0 0 0 1.32 3.71 38.18 38.18 0 0 0 4.44-3.48zM78.14 9.66H74.4V2.53h11.51V0h3.91v2.5h11.71v7.16h-3.9V6H78.14zm43.74-7.74c-.19.83-.41 1.82-.57 2.62-.16 1-.42 2.12-.64 3.27 1-.07 2-.13 2.65-.13 3.36 0 5.73 1.5 5.73 6.05 0 3.74-.45 8.8-1.79 11.55-1.06 2.21-2.82 2.91-5.22 2.91a17.38 17.38 0 0 1-3.77-.45l-.71-4.19a18.39 18.39 0 0 0 3.87.67 2.31 2.31 0 0 0 2.37-1.37c.9-1.76 1.31-5.54 1.31-8.67 0-2.53-1.08-2.88-3.1-2.88-.51 0-1.28.06-2.18.12-1.21 4.8-3.51 12.26-6.43 16.93l-4.16-1.66c3.11-4.16 5.25-10.5 6.4-14.82-1.12.13-2.11.26-2.72.35-.89.1-2.52.32-3.52.48l-.35-4.28a31.38 31.38 0 0 0 3.36 0c1 0 2.5-.13 4.1-.26a35.09 35.09 0 0 0 .67-6.72zm11 3a57 57 0 0 1 5.53 11.77l-4 1.89C133.53 15 131.26 9.31 129 6.5zm19.18 10.28a15.53 15.53 0 0 1 9.31-3c5.57 0 8.8 3.43 8.8 7.27 0 5.79-4.58 10.23-17.76 9.08l-1.21-4.16c9.5 1.35 14.52-1 14.52-5 0-2.05-1.95-3.55-4.73-3.55a11.1 11.1 0 0 0-8.74 3.71 6.66 6.66 0 0 0-1.18 1.86l-3.68-.93A116.85 116.85 0 0 0 149 7.23l4.28.58c-.45 1.76-1 5.57-1.22 7.39zm1-13.76a100.12 100.12 0 0 0 12.66 2.46l-1 3.91c-3.2-.42-10.27-1.89-12.73-2.53zm32.6 27.87a59.88 59.88 0 0 0-6.88-7.07l3.33-2.88a59 59 0 0 1 7 7zM31.74 66.32H23.9v9.76c0 2.17-.45 3.2-1.92 3.77s-3.62.67-6.63.67A14.12 14.12 0 0 0 14 76.65c2.08.1 4.45.07 5.09.07s.91-.16.91-.72v-9.68H3.26V62.6H20v-3.93h3.9v3.93h7.84zM7.68 61.26H3.8v-7.52h11.59v-3.13h4v3.13h11.68v7.52H27v-4H7.68zm2.11 5.82a29.37 29.37 0 0 1 5.05 6.37l-3.26 2.21A27.67 27.67 0 0 0 6.75 69zm38.53-14.97A51.11 51.11 0 0 0 47 58.67c1.5-2.43 4.25-5.12 7.83-5.12 4.42 0 7.84 4.32 7.84 11.29 0 9-5.5 13.25-13.88 14.79L46.43 76c7-1.09 12-3.39 12-11.07 0-4.9-1.63-7.62-4.25-7.62-3.75 0-7 5.63-7.17 9.79a19.4 19.4 0 0 0 .16 3.36l-3.93.26a40.91 40.91 0 0 1-.39-5.28 76.67 76.67 0 0 1 .9-10.14c.16-1.16.22-2.44.25-3.33zm28.76 17.73a29.29 29.29 0 0 1-1.88 8.25 16 16 0 0 0-2.79-1.34A23.15 23.15 0 0 0 74 69.32zm3.72-2.6v13.25h-3.27v-13l-4.45.35-.38-3.29 2.3-.13c.48-.58 1-1.22 1.44-1.89a28.94 28.94 0 0 0-3.64-4.48l1.85-2.56c.23.23.48.45.74.67a39.74 39.74 0 0 0 2.3-5.53L81 51.79a70.13 70.13 0 0 1-3.62 6.53 13.56 13.56 0 0 1 1 1.25 53.13 53.13 0 0 0 2.88-5.19l3.1 1.44c-1.76 2.69-3.94 5.86-5.95 8.42l2.78-.16a26.6 26.6 0 0 0-1-2l2.68-1.12a31.87 31.87 0 0 1 2.21 4.7v-3h17.57V69h-3.33v-3.45H88.25v3.39h-3.17V68l-2.21 1a18.65 18.65 0 0 0-.48-1.88zm2.94 2a23.13 23.13 0 0 1 1.63 5.63l-2.81.93a25.61 25.61 0 0 0-1.48-5.8zm5.18-2h3.43v2.56c0 3.29-.87 7.9-6.82 10.81A17.74 17.74 0 0 0 82.94 78c5.25-2.5 6-6 6-8.36zm2.88-11.03h-6.62V53.1h6.62v-2.49h3.78v2.49h6.75v3.11h-6.75v1.85h5.82v3.07H86.33v-3.07h5.47zM99.64 77c.45 0 .61-.51.67-4a8.5 8.5 0 0 0 3 1.41c-.31 4.59-1.14 5.76-3.31 5.76h-2c-2.72 0-3.3-1-3.3-4.19v-8.83h3.42V76c0 .86.07 1 .48 1zm16.52-24.09a24.36 24.36 0 0 0-.74 2.56c-.77 3.52-1.89 10.14-1.06 14.08.42-1 1-2.5 1.48-3.65l2 1.25a77.64 77.64 0 0 0-2.14 7.74 7.37 7.37 0 0 0-.23 1.54c0 .32.07.86.1 1.31l-3.55.35a35.32 35.32 0 0 1-1.83-10.27 82.3 82.3 0 0 1 1.06-12.64 16.53 16.53 0 0 0 .19-2.75zm20.31 9.22c-1.28.16-2.91.28-4.7.38v1.31c0 7.49-.58 12.06-6.88 16.1L121.21 77a12.34 12.34 0 0 0 3.71-2.53c2.43-2.53 3-5.35 3-10.69v-1.11c-1.19 0-2.4.06-3.56.06-1.37 0-3.32-.09-4.89-.16v-4a32.43 32.43 0 0 0 4.8.32c1.15 0 2.37 0 3.58-.06 0-1.76-.09-3.39-.16-4.26a13.49 13.49 0 0 0-.35-2.17h4.64a15.41 15.41 0 0 0-.16 2.14v4.06a41.44 41.44 0 0 0 4.77-.57zM167 55.76c-.76.48-1.5 1-2.2 1.44-1.7 1.18-5 4-7 5.6a10.55 10.55 0 0 1 3-.36c5.38 0 9.48 3.36 9.48 8 0 5-3.81 9-11.46 9-4.42 0-7.74-2-7.74-5.18 0-2.56 2.33-4.93 5.69-4.93 3.91 0 6.27 2.4 6.75 5.41a4.63 4.63 0 0 0 2.6-4.32c0-2.85-2.88-4.77-6.56-4.77-4.87 0-8 2.59-11.43 6.43l-2.88-3c2.24-1.83 6-5.06 7.94-6.6s5-4.12 6.62-5.5c-1.63 0-6 .23-7.64.35a22.2 22.2 0 0 0-2.6.26l-.13-4.13a28 28 0 0 0 2.88.16c1.67 0 8.45-.16 10.24-.32a14.24 14.24 0 0 0 2.44-.32zm-7.16 19.93c-.2-2-1.38-3.39-3.11-3.39-1.18 0-1.95.7-1.95 1.5 0 1.19 1.34 2 3.2 2a15.47 15.47 0 0 0 1.89-.11zm47.29-11.07a55.65 55.65 0 0 1-5.89 3.87 16.26 16.26 0 0 0 7.14 6.43 16.16 16.16 0 0 0-2.66 3.3c-5.69-3-8.86-8.93-10.69-16.38H195a20.2 20.2 0 0 1-2.66 1.85c6.05 5.25 5.8 13.22 2.63 15.52a5.25 5.25 0 0 1-3.9 1.35 25.4 25.4 0 0 1-2.72-.07 8.15 8.15 0 0 0-1.09-3.65c1.21.1 2.24.16 3.07.16a2.26 2.26 0 0 0 1.92-.67c.74-.57 1.18-1.89 1.05-3.58a49 49 0 0 1-12.22 6.33 16.56 16.56 0 0 0-2-3.16 36.88 36.88 0 0 0 13.34-6.47 11 11 0 0 0-.61-1.12 46.51 46.51 0 0 1-9.69 4.8 14.17 14.17 0 0 0-1.92-2.88 34.61 34.61 0 0 0 9.89-4.16l-.8-.77a47.81 47.81 0 0 1-7.6 2.68 21.91 21.91 0 0 0-1.95-3 38.56 38.56 0 0 0 9.79-3.23h-4.67v-3.2H202v3.2h-3.65a28.6 28.6 0 0 0 1.32 3.71 38.2 38.2 0 0 0 4.44-3.49zm-23.39-4.35H180v-7.14h11.52v-2.49h3.9v2.49h11.71v7.14h-3.9v-3.68h-19.49zm38.43-6.98a28.5 28.5 0 0 0-.77 2.82 79.51 79.51 0 0 0-1.53 11.61 14.66 14.66 0 0 0 .13 2c.44-1.12 1-2.17 1.4-3.2l2 1.54a75.26 75.26 0 0 0-2.27 7.77 9.07 9.07 0 0 0-.2 1.48c0 .35 0 .86.07 1.31l-3.65.25a40.37 40.37 0 0 1-1.25-10.36A88.41 88.41 0 0 1 217.4 56a23.21 23.21 0 0 0 .32-3.1zm7.42 15.65a10.65 10.65 0 0 0-.38 2.66c0 1.4 1.22 2.24 4.42 2.24a36.27 36.27 0 0 0 7.93-.84l.1 4.29a43.55 43.55 0 0 1-8.19.64c-5.47 0-8.07-2-8.07-5.21a19.49 19.49 0 0 1 .55-4.13zm11.08-13.57v4.1a88.21 88.21 0 0 1-13.6 0v-4.1a64 64 0 0 0 13.6 0zM259.26 75a5.17 5.17 0 1 1-5.18-5.19 5.18 5.18 0 0 1 5.18 5.19zM257 75a2.87 2.87 0 1 0-2.88 2.84A2.83 2.83 0 0 0 257 75z"/><circle class="cls-1" cx="100.28" cy="276.73" r="98.78"/><path class="cls-2" d="M60.02 321.82h80.52"/><circle class="cls-1" cx="428.42" cy="205.35" r="170.16"/><path d="M56.12 230.82h11.22v2.43H62.7c-.23.71-.49 1.37-.74 2h5.19v12.29c0 .92-.13 1.48-.68 1.8a3.92 3.92 0 0 1-2.14.38 9.11 9.11 0 0 0-.49-1.73h-1.42V237.4h-1V248H59.8v-10.6h-1.12v12.29h-2v-14.47h3c.19-.62.38-1.28.53-2h-4.09zm9 6.58h-1v10.35h.79c.17 0 .24-.07.24-.26zm10.81-.73h-1.38V247c0 1.26-.28 1.88-1 2.3a7.24 7.24 0 0 1-3.31.5 10.46 10.46 0 0 0-.86-2.4h2.29c.29 0 .45-.1.45-.44v-10.29h-4.5v-2.37h4.49v-4.36h2.44v4.36h1.34zm-6.15 1.69a15.33 15.33 0 0 1 1.69 4.64l-2.18.79a16.62 16.62 0 0 0-1.61-4.76zm28.27 7.51a19.78 19.78 0 0 1-2.5 1.34 19.29 19.29 0 0 0 4.1.64 6.85 6.85 0 0 0-1.24 1.93c-3-.32-5.22-1.07-6.82-2.42l.07 1.35-8 1-.41-1.94 2-.22v-2.37H83.4a8.49 8.49 0 0 1-2.35 4.45 8.33 8.33 0 0 0-1.77-1.63c2-1.79 2.2-4.33 2.2-6.22v-2.71h17v1.6H83.75v1.16a15.88 15.88 0 0 1-.09 1.64h15.78v1.65h-2.78zm-15.65-9.05h-2.25v-3.76h8.06v-.73h-6.6v-1.79h15.75v1.79h-6.67v.73h8.23v3.76h-2.35v-2.26h-5.88v4.14h-2.48v-4.14H82.4zm.23.32h4.92v1.26h-4.92zm4.9-1.92v1.26H83.1v-1.26zm-3 7.59v-1.43h12.7v1.43zm3.31 4.44l3.23-.36a9 9 0 0 1-1.31-1.73h-1.91zm8-12v1.26h-4.46v-1.26zm-4.46 1.92h5v1.26h-5zm.66 8a5.57 5.57 0 0 0 1.71 1.35 22.69 22.69 0 0 0 2.12-1.35zm19.6-9.8h-8.35v-2h8.35zm-.79 13.3h-4.46v.83h-2.16v-7.29h6.62zm-6.56-12.34h6.58v1.95h-6.58zm0 2.93h6.58v1.9h-6.58zm6.54-6.84h-6.45v-1.93h6.45zm-4.44 11.8v2.46h2.26v-2.46zm16.86-1.69h-4.72v7.25H116v-7.25h-4.7v-2.42h4.7v-6.86h-4v-2.37h10.82v2.37h-4.34v6.86h4.72zm-9-8.4a25.08 25.08 0 0 1 1 4.92l-2.14.51a26 26 0 0 0-.88-5zm4.9 4.89a31.69 31.69 0 0 0 1.18-5.06l2.41.47c-.53 1.79-1.11 3.8-1.64 5.09zm6.67 9.56a11.75 11.75 0 0 0 2.67-4.17l2.46.6a13.66 13.66 0 0 1-2.78 4.7zm17.47-5h-14.82v-7.42h6v-6.29H137v1.88h7.66v2.38H137v2h6.25zm-2.59-5.07h-9.81v2.71h9.81zm-6.29 6.45a28.6 28.6 0 0 1 .6 4.41l-2.58.32a31.52 31.52 0 0 0-.43-4.49zm4.28-.25a22.73 22.73 0 0 1 1.62 4.23l-2.45.64a27 27 0 0 0-1.5-4.36zm4.3-.43a25.84 25.84 0 0 1 2.8 4.47l-2.46.94a23.93 23.93 0 0 0-2.63-4.6zM58.28 300h9v-26.5H59.7v-5.16a27 27 0 0 0 9.74-3.51h6.17V300h7.87v6.74h-25.2zm38.16 2.08a5.19 5.19 0 1 1 5.15 5.44 5.2 5.2 0 0 1-5.15-5.44zm20.84-16.47c0-14.5 5.67-21.58 14.22-21.58s14.15 7.14 14.15 21.58-5.65 21.91-14.15 21.91-14.22-7.52-14.22-21.91zm20.5 0c0-11.73-2.72-15.12-6.28-15.12s-6.35 3.39-6.35 15.12 2.72 15.4 6.35 15.4 6.28-3.63 6.28-15.4z"/><path class="cls-2" d="M359.06 283.03h138.71"/><path d="M349.72 126.24h19.33v4.2h-8c-.4 1.22-.85 2.36-1.29 3.39h9V155c0 1.58-.22 2.54-1.18 3.09a6.65 6.65 0 0 1-3.68.67 14.83 14.83 0 0 0-.85-3h-2.43v-18.17h-1.69v18.19h-2.84v-18.19h-1.91v21.18h-3.58v-24.94h5.23c.33-1.07.66-2.21.92-3.39h-7zm15.43 11.35h-1.77v17.83h1.36c.3 0 .41-.11.41-.45zm18.64-1.25h-2.32v17.71c0 2.18-.48 3.24-1.73 4s-3.1.85-5.71.85a18 18 0 0 0-1.48-4.13c1.74.08 3.39.08 3.95.08s.77-.19.77-.78v-17.73h-7.74v-4.09h7.74v-7.52h4.2v7.52h2.32zm-10.61 2.91a25.88 25.88 0 0 1 3 8.06l-3.75 1.37a28.76 28.76 0 0 0-2.77-8.22zm48.58 12.92a32.08 32.08 0 0 1-4.31 2.33 34.42 34.42 0 0 0 7.08 1.1 11.46 11.46 0 0 0-2.14 3.32c-5.16-.56-9-1.85-11.75-4.17l.11 2.32c-4.9.59-10 1.22-13.85 1.7l-.7-3.35 3.5-.37V151h-3.17a14.63 14.63 0 0 1-4 7.66 14.41 14.41 0 0 0-3.06-2.69c3.39-3.09 3.8-7.48 3.8-10.72v-4.68h29.21v2.77h-25.36v2a25.73 25.73 0 0 1-.15 2.83h27.19V151h-4.79zm-27-15.58h-3.87v-6.48h13.89v-1.25h-11.34v-3.1h27.14v3.1h-11.49v1.25h14.18v6.48h-4v-3.9h-10.18v7.14h-4.27v-7.14h-10zm.41.56h8.47v2.17h-8.47zm8.43-3.32V136H396v-2.17zm-5.16 13.08v-2.47h21.88v2.47zm5.71 7.66l5.57-.63a14.76 14.76 0 0 1-2.25-3h-3.32zM418 133.83V136h-7.7v-2.17zm-7.7 3.32h8.58v2.17h-8.58zm1.11 13.85a9.47 9.47 0 0 0 2.95 2.32A38 38 0 0 0 418 151zM445 134.09h-14.4v-3.46H445zM443.64 157h-7.7v1.44h-3.72v-12.56h11.42zm-11.31-21.25h11.34v3.35h-11.34zm0 5h11.34v3.28h-11.34zM443.6 129h-11.12v-3.32h11.12zm-7.66 20.33v4.23h3.9v-4.23zm29.06-2.9h-8.14v12.49h-4.31v-12.49h-8.14v-4.16h8.14v-11.83h-6.85v-4.09h18.64v4.09h-7.48v11.83H465zM449.53 132a44.25 44.25 0 0 1 1.66 8.47l-3.68.89a44.47 44.47 0 0 0-1.51-8.62zm8.44 8.44a54.25 54.25 0 0 0 2-8.73l4.17.81c-.93 3.09-1.92 6.55-2.84 8.76zm11.21 16.41a20.34 20.34 0 0 0 4.61-7.18l4.23 1a23.36 23.36 0 0 1-4.79 8.1zm30.1-8.69h-25.53v-12.78h10.31v-10.83h4.46v3.24h13.19v4.09h-13.19v3.5h10.76zm-4.46-8.73h-16.91v4.68h16.91zM484 150.55a49.38 49.38 0 0 1 1 7.59l-4.46.55a52.9 52.9 0 0 0-.73-7.73zm7.37-.44a40.62 40.62 0 0 1 2.8 7.3l-4.24 1.1a45.73 45.73 0 0 0-2.58-7.51zm7.4-.73a42.89 42.89 0 0 1 4.82 7.69l-4.23 1.62a40.5 40.5 0 0 0-4.53-7.92zm-146.65 96.04h15.5v-45.65h-13.07v-8.88c7.22-1.36 12.2-3.22 16.78-6H382v60.57h13.56V257h-43.4zm65.27 3.58c0-5.26 3.8-9.36 8.87-9.36s9 4.1 9 9.36-3.81 9.37-9 9.37-8.87-4.08-8.87-9.37zm36.61-.46l6.64-9.17c4.09 4 9.17 7.31 15.9 7.31 7.51 0 12.77-4.78 12.77-13.26s-4.87-13.07-12.19-13.07c-4.29 0-6.63 1.07-10.83 3.8l-6.53-4.29 1.95-35h38.62v12h-26.19l-1.37 15.32a18.63 18.63 0 0 1 8.68-2c12.1 0 22.24 7.22 22.24 22.92 0 16.09-11.9 25.36-25.26 25.36-11.43-.07-19.02-4.56-24.43-9.92z"/><path class="cls-3" d="M96.79 162.1v-41.02H249.9"/><path class="cls-4" d="M233.5 132.6a1.2 1.2 0 0 1 .37-1.66l15.49-9.86-15.49-9.86a1.2 1.2 0 1 1 1.29-2l17.07 10.88a1.19 1.19 0 0 1 0 2L235.16 133a1.17 1.17 0 0 1-.65.19 1.21 1.21 0 0 1-1.01-.59zM585.65 25.48l-28.54 27.56 26.37-29.63 2.17 2.07zm20.99 28.59l-34.75 12.31 33.63-15.09 1.12 2.78zM556.67 4.59l-13.56 34.28 10.72-35.26 2.84.98z"/></g></g></svg>