<svg xmlns="http://www.w3.org/2000/svg" viewBox="0 0 618.38 100.47"><defs><style>.cls-1{fill:#85cbcb}</style></defs><title>sp-text1</title><g id="Layer_2" data-name="Layer 2"><g id="SVG"><path class="cls-1" d="M567.82 39.91c.27-.13.11-.42-.63-.36l-.53.5zm-5.03-.91c-.87.24-1.89.67-1.32 1.12.87-.47 1.08-.28 2-.84.75-.06 1.3.16 1.18.34.26-.13 1.16.11 1.56-.2a5.85 5.85 0 0 0-3.49-.09c-.26-.12.01-.25.07-.33zm-72.99-.78l.47.06a2.85 2.85 0 0 0-.47-.06zM444.57 38c.34 0 .49-.06.5-.11-.32-.02-.58.01-.5.11zm-7.72-.6h.45a.9.9 0 0 0-.45 0zm52.95.82l-1.21-.16c-.09.16.62.12 1.21.16zm62.93 1.97a2.87 2.87 0 0 0 .65-.13h-.61a.3.3 0 0 1-.04.13zm-43-2.37h.37a2.11 2.11 0 0 0 .31-.21zm15.27-.08c-.35 0-.47.4-.6.59a1.23 1.23 0 0 1 .75-.29.42.42 0 0 0-.15-.3zm24.3.74l.43-.06zm-50.52-.75a.31.31 0 0 0-.14-.16c0 .06.06.11.14.16zM70.81 40.89a.16.16 0 0 0 0-.07c-.09.04-.12.07 0 .07zm-17.74-2.08h.25a.68.68 0 0 0 0-.23zm369.64-1.95h.07c.37-.04.16-.03-.07 0zM293 37.17c1.47.38-2.39.48-.18.9-.23-.16 1.99-.65.18-.9zm259.33 2.97zM292.8 38.07h.23zm97.35-.96a1 1 0 0 0 .33.19s-.08-.1-.33-.19zm24.26.6l-.6-.05a5 5 0 0 0 .6.05zm-36.85 0a3.09 3.09 0 0 0-.89 0 .59.59 0 0 0 .14.06 1.34 1.34 0 0 1 .75-.06zm-13.11 0l.24.09h.41zm-253.8 2.98a2 2 0 0 1-.6-.38c.2.3-1.73.41.6.38z"/><path class="cls-1" d="M552.72 40a.52.52 0 0 1-.39.19h.44c.03-.14.04-.19-.05-.19zM377 41h-2.06H377zm-172.3-.37h-.48a1.16 1.16 0 0 0 .48 0zm164.06.37a5.72 5.72 0 0 0-1.17-.29 1.17 1.17 0 0 0-.25.11zM110 40.31z"/><path class="cls-1" d="M96.32 41.31c2 0 .94-.54 1.36-.86 2.37-.16 1.09.41 1.9.69 1.48-.15 2.61-.66 3.72-.63.08.09.29.12 0 .24 1.56-.45 4.64 0 6.46-.58a.52.52 0 0 1 .24.14.76.76 0 0 1-.28-.76c.89 0 1.65-.35 2 0a1.26 1.26 0 0 0-.85.25l.94-.16c.83.52-1.28.18-1.28.57a35 35 0 0 1 5.33-.46c.29.51-3.26.17-1.4.63l-2.15-.2c1.64.81-1.31 0 .2.81 2.84.14 3.17-.26 6-.11.64-.29-.21-.42.43-.71 4-.51 3.17 1.28 6.12.61a3.66 3.66 0 0 1 3.17-.65l-.72.58c2.75.06 1.57-.83 4.45-.44-.52.22-2.16.19-1.75.26 1.87.45 1.32-.33 2.75-.33l.3.51c2.92-.08 6.14-.45 9.38-.54-.18.15-.73.31 0 .47a94.79 94.79 0 0 1 12.65.36l1.51-.44c.35 0 .65.2.27.29 1.53.16.08-.28.82-.46s1.15.26.6.39c2.71-.37 7.71-.81 10.57-.33l-.56.13c2.22.18 2.51-.91 4.57-.5l-.39.08c4.82.19 10.15-.21 13.83.46.7-.64 4.78.28 5.09-.61a35.88 35.88 0 0 0 5.84.89c1 0 1.55-.55 2.83-.64v.46l1.74-.48.92.55 1.2-.12c-.47 0-1-.21-.94-.34 1.88-.21 4.57.32 4.62.56l4.44-.39c-.1.18-.84.25-1.43.37 2.37-.47.43.48 2.6 0-.29-.1.16-.27.21-.37a23.12 23.12 0 0 0 5.37.17l-.35.32c3.29.08 6.94-.16 10.64-.15-1.33-.15-1-.7.06-.76l.44.49c.7-.3-1.14-.18.3-.55 1.38.06.93.55.14.71l1.67-.17c.1.15-.29.23-.39.41.69-.3 2.89.49 3.89 0l.09.14c3.7 0 5.37-.16 8.38-.19.06-.42 1.24-.32 2.14-.67 2.21.14 4.66.47 7.33.43 1.87-.21.54-.35 1.39-.6.13.38 2.8.34 1.42.62 3.19-.06 4.08-.08 8.13-.39-.44-.16-.94-.22-.68-.35.73-.07 1.67.16 1.56.34h-.19c4.54-.58 10.48 1.12 14.1.32h-.21l3.75-.42c1.73.07-1 .29.24.53 4.05-.64 6.4.09 9.73-.34 2.57 1.14 9.14-.08 12.63.65l-.21-.27c.9-.26 1.09.15 1.75.22-.09-.21-1-.24-.41-.39 7.62-.32 15.72.39 23.54.63 2.85.07 1.62-1.38 5.22-.74l-1 .49c5.76-.59 11.79 0 17.43-.48-.34.11-.35.26-.9.26 1.2.36 4.41 0 4.43-.28.88 0 .21.27.75.42 1.19.21 3-.46 3.63-.1.11.06-.33.11-.55.14.78-.17 3.63.05 2.88-.37 2.12.2 4.06-.18 5.75.06 1.1-.46 3.62.23 4-.43-.15.68 3.72.55 5.06.23-.45.2 1.16.21.64.49 1.52 0 2.92-.13 2.66-.48 2.81.81 5.66-.65 7.24.39 4.55-.37 8.75-.61 12.83-.77-.15.67-4.51.06-4.34.77 3.88-.27 6.11-.86 10-.69 1 .09-.56.29-.9.41 3.87-.28 7.49.06 10.93-.31a1.87 1.87 0 0 1-.73.18c.68 0 1.58.1 1.5-.2l-.66.08c-1.08-.45 2.7-.93 2.82-1.17-1.15.88 3.4.22 1.57 1.34.45-.06 1-.21.91-.41.66.06.87.18.2.41 2.43-.17 1.56-.49 3.77-.49 0 .15-.46.21-.68.38a11.21 11.21 0 0 1 4.09-.45c-.11.09.11.21-.45.2 3.2 0 5.45-.77 9-.49-1 .65 1.19.21 1.38.77l1.89-.16-.76-.27c1.65 0 3.11-.4 4.53-.22l-1.23.23 3.1-.1-1.75-.22c1.67-.29-.18-.71 2-.55a19.7 19.7 0 0 1 2.51.34 7.88 7.88 0 0 1 2.88-.23c.31.18-.26.62-.05.74.8-.47 3.87-.13 4.89-.63-.34.12-.36.41-.25.47l.68-.38c.76.12.88.18.75.42 2.3.07-.73-.71 2-.41-.21 0-.11.09-.56.15 2.75.16 5.31-.24 7.83-.06.74.57-2.21.14-1.35.62 3.63-.1 7.53-.68 11-.55l-.65-.06c.49-.79 2.62.4 4.4 0-.44.06-.57.44-.46.35a77 77 0 0 0 8.58-.44l-.45.2c1.42.18 3.74.11 5.27.2.46-.2 1.34-.17.8-.47 4.73 1.17 9-.62 13.22.35-.5 0-1.2.18-.8.18l3.58-.19c-.29-.35-.47-.21-1.22-.48a6.78 6.78 0 0 1 2.36-.22c-1.61.23 0 .56.7.75-.11-.1.12-.22.07-.33 1.86.62.31-.69 2.86-.28l-.14.18a19 19 0 0 1 2.87-.28c.42.4-1 .19-1.09.52 1.45 0 2.86-.76 4.16-.36-.61.11-1.49.11-2.11.22a7.33 7.33 0 0 0 2.65.43H521l2.44.21-.62-.13c1.81-1 3.68-.19 6.12-.87-2.37.65-.39.37-.57.83.62.12 1.56.27 1.29.39 1.16-.36 1.93.29 3.55-.24.07.14 1.23 0 1 .38 1.5-.12-.35-.26-.22-.44 2.3-.5 5.42.61 8.74-.08 2.86-.28 3.39-.78 6.05-1 .89.23-.74.53-.74.53a13.08 13.08 0 0 0 3.9 0c-.28.13 0 .24.42.4 1.1 0 .73-.53 2.18-.32a3.63 3.63 0 0 1-1.1.59c1.29-.13 2.56-.41 3.9-.54.35.26-.81.39-1.28.55 1.5-.11 3.89-.23 4.35-.63l-1-.14c.55 0 .28.34-.12.42-1.29.31-1.86-.14-1.93-.29l.95-.1c-1-.85-3.81.14-5.73.09l.8-.62-2 .52c-.42-.17-.7-.51.24-.61-1.37-.31-1.21.22-2.39-.12-.13-.05-.07-.08 0-.11l-1.34.19c.26-.13-.22-.44.6-.35-2.41-.36-3.88.47-4.78 0h.2c-3.34.22-.33.46-2.83 1l-1.68-1.13-.33.46c-.35 0-1-.05-.9-.24-1.28.32.22.2-.53.5-1.65-.42-4.56.19-4.94-.54-.59.35 1.59.27-.18.52-.51-.79-2.05.13-3.56-.23.47-.41 1.9-.19.38-.55-.91.68-2.94-.15-4.22 0-.06.54-2.78.23-4.92.41.14-.19-4-.3-6-.5l.06-.09c-.39.55-2.44.45-3.94.56.06-.33.33-.46 1.14-.61h-1.36a4.24 4.24 0 0 1-1.68.33l.35-.41c-1.87 0-3.77.48-6.18.21-.14.38 1.92 1.07-.63 1.32-.1-.21-.19-.56.48-.65a3.64 3.64 0 0 1-1.22.09l1-.35c-1.1-.15-.58.29-1.46.26 0-.3-.64-.21-.52-.45a5 5 0 0 0 1.1 0 8.34 8.34 0 0 1-2.58-.45c.09.16 0 .39-.72.43-1.88 0-.64-.35-1.74-.51-.45.21-1.64 0-1.68.44a1.24 1.24 0 0 1-.86-.33c-1 .2-4.52.06-3.43.53h.25-.16c-3.18.44-6.6-.25-9.75-.06v-.15a53.59 53.59 0 0 0-5.53.42c-.56 0-1.31-.27-1.07-.45a12.22 12.22 0 0 1-3.68 0c1.44-.25-.5-.23 1.48-.19a12 12 0 0 0-4.3 0c.68-.38-1.41-.47-2.29-.36l1.3.27c-1 .06-1.87 0-2.75 0l.48-.5c-3.83-.61-6.9 1-9.81 0-1 .35 2.07.24 1.17.65a36.4 36.4 0 0 1-4.14-.78c-2.41-.28-2.25.73-4.77.54.32.17.62.65-1.26.82-1.76-.07-2.17-.75-1-.89.42 0 .62 0 .6.1.57-.06 1.32-.14.62-.33l-.23.17c-.87-.18-3.29-.16-2.72-.45-1.33.17-.57.29.41.38-2.26-.25-3.52 0-5.85-.18.37.1.71.31.34.31-3.41-.22-1.5.34-3.81.41-1.31-.27.47-.64-1.85-.42-1.42-.18-.3-.47.26-.61-2.12.34-4-.23-5.17-.29l1.12-.15a12.48 12.48 0 0 1-1.77.09l.64.35c-.66-.06-1.21-.06-1.2-.21-.68.23.51.59-.83.91-.87-.18-2.66.2-3-.28 2.75.16-.3-.47 2-.55a7 7 0 0 1-1.65 0c-.1 0 .09-.09.27-.12-2.62-.42-1.2.53-3.93.52.35-.26-.63-.5-1.07-.45 1.09 0 .52.45-.49.65a12.11 12.11 0 0 0-2.81.13l1 .1a6.53 6.53 0 0 1-2.44.32c-.11-.21 1.1-.15.67-.24-1.35.47-3.06-.48-4.94-.17-.87-.18-.08-.5-.85-.62-2.11.34-2.29-.37-4.51-.08.64.36.75.27-.81.62l3.65-.25-2.35.52c1.11 0 2.33-.23 3-.17-1.12.3-1 .21-.47.5-1.51-.53-3 .32-4.74-.05l.06-.88c-2.62-.4-4.66.45-8.06.23l1.09.15c-.45.36-2.1.05-3.2.2.1-.3-.59-.41-1.06-.59.06.22-2.49 0-2.8.57l-1.51-.39c-2.75-.16-3.14.84-5.78.74.79-.32-.41-.53 1.36-.76-.88 0-1.67-.06-1.69.15-.51-.19-2.44.4-3.25.12a2.35 2.35 0 0 1-1.48.41c-.11-.06 0-.15 0-.15s-1.55.2-.69.53c-2.71-.92-7.59.07-9.95-.72-1.93.09-4.24.19-6 .21.11-.09 0-.15.33-.12-2.41-.27-1.48.85-4.22.55-1.4-.48 1.46-.26.58-.44-.38-1-3.31.13-5.15-.44l.45-.06c-1.41-.33-3.45.37-5.75.3 0 0 .11-.08 0-.14a36.57 36.57 0 0 1-6.77.8c.69-.39 1-.21.58-.59-1 .05.29.62-1.69.73-.65-.21-2.08-.39-2.27-.81h1.88c-1-.54-2.43 0-3.41-.07l.12-.24c-2.86.08-2.9.67-6 .62l.32.18c-1.68.59-1.41-.33-3.09.11l-.51-.59c-1.11.14-3.89.57-5.88.68a36.55 36.55 0 0 1 4.9-.93 18.9 18.9 0 0 0-4.32.34 4.72 4.72 0 0 1 1.44-.11 16.66 16.66 0 0 1-5.32.68c.39-1.14-5.72-.29-7.32-1.18-3.88.43-7.7-.18-12.22-.11 1.6.89-1.32 0-1 .94a5 5 0 0 1-1.55 0l-3.19-.55c-.76-.27 1-.2.9-.41-2.3-.07-1-.39-2.49-.63.31.33-.8.47-2.12.34l1.85.43c-3.22.48-2.78-.77-6-.29l1-.29c-1.67.17-6.16 0-7.79.73-.3-.1-.69-.36.05-.42-4-.11-8.88.78-12 .33l.3-.23a5.34 5.34 0 0 1-2.23.2c.05-.09.3-.22 0-.24a11 11 0 0 1-3 .27l.84-.26c-3.89-.29-6 .62-9.23.77 0-.66-3.05-.87-4.57-1v-.09c-4.53-.09-7.69.54-11.88.8-2.61-.71-8.82-.3-13-.7.64.12-.11.52-.85.58-1-.13-2.71.46-2.56-.15h.35c-.74-.6-2.75-.44-4.33-.46l-.26.8c-4.12-1.16-10.79.42-13-.61-1 .19-2.23.19-3.21.39l.05-.42c-2.75-.11-4.13-.17-7.53-.06l.69-.31c-1.92 0-2.42 1.23-4.2 1.25l-.53-.63c-3.35 0-6.74-.55-10.05 0 .05-.1.15-.28.69-.31-1.57 0-6.1-.43-5.52.44 0-.56-3.46-.05-5.27.2l.28-.42a9.34 9.34 0 0 1-3.71.83c-.5-.06-.44-.34.23-.23-1.68-.22-1.31.4-3.35.17l.76-.26a4.7 4.7 0 0 0-2.55.42c-1.09.17-3.29-.11-3.54-.48a3.41 3.41 0 0 1-2.21.43c-.13-.15.24-.24.42-.28-2.89-.28-4.3.49-6.3.08a.4.4 0 0 0-.33-.25c2.3 0 4.15 0 4 .06 0-.38-1.86-.45-.38-1a23 23 0 0 1-5.86.74 1 1 0 0 1-.24-.14h.19a4.31 4.31 0 0 0-1.15.06 12.77 12.77 0 0 0-1.5-.11c-.21-.32-2.13-.18-3.06-.19.08.42-1.13.35 0 .7-.14 0 .18 0 .8-.07a3.63 3.63 0 0 0 .39 0h-.06 2.3a4.7 4.7 0 0 1-2.52.16c-.48.27-1 .55-1.3.68-1.26-.59-3.71-.91-4-1.27-2.83.24-6.67.16-8.45.95-.8.1-.92-.23-1.23-.35a8.92 8.92 0 0 0 1.27-.18c-1.61.2-4.76.07-5.15.63-2-.25 1.14-.51-1.65-.42l.38-.17c-5.48-.88-8.91 1.41-15 .28.42.07.63.1.72.19-6.93-.5-14.29.47-21.12-.32a7.13 7.13 0 0 0-3.35.46l-.4-.43-2 .52c-2.88.38-5-1.11-8.63-.39l.47.31c-1.3-.06-4.14.18-3.92-.17a1.12 1.12 0 0 1-.94.15v-.23l-3.21.4c-2.49-.17.39-.94-3.25-1-1.35.09-3.85.69-3.34.84s1.4.15 1.44.39l-1.24.12c-.22.7-1.17 1.42 1.86 1.9l2.11-.42.68.34h-1.78a3.64 3.64 0 0 0 2.37-.16 1.51 1.51 0 0 0 .89.37l2.07-.66c.25.27-.93.54.46.69 1-.31-.93-.61.68-.82 1 .32.72.58 1.9.31.17.18-.08.29-.55.37 1-.21 2.79-.09 3.34-.46 1.05.39 3.56-.1 3.46.56a10.87 10.87 0 0 1 2.83-.55c-1.77.79 3.63 0 3.16.9 1.32-.71 4.74-.32 7.07-.71a1.2 1.2 0 0 1-.59.13 14 14 0 0 1 2.46.45c.17-.59 2.21-.72 3.31-1.09 1.6.57-1 .69-.47 1.24-.08-.48 2.78-.48 2.24-.87 1.22.35 1.05.17 1.69.65.21-.73 1.14-.12 2.15-.57 1.78.36.46.69 2.41.46.93.23-.81.49-.81.49zM142.68 40h-1zm3.89 0h-1.69c-.13-.15 0-.3.41-.29-.22.11.71.2 1.28.29zm-8.24-2.92c.62-.06.83 0 .91.11l-1.08.05h-.07a.71.71 0 0 1 .24-.13z"/><path class="cls-1" d="M137.23 37.66a1.7 1.7 0 0 1-.26 0l.37.1.22-.13zm353.12.63h-.08a.43.43 0 0 1 .17.06c-.06-.03-.06-.05-.09-.06zm-289.99 2.55v-.11l-.34.1.34.01zm311.44-1.11a.54.54 0 0 0 .29.11 1.06 1.06 0 0 0-.29-.11zm9.27.1l1.31.15c-.57-.09-.98-.13-1.31-.15zm7.13.17a.58.58 0 0 0 .14-.18zm-113.3.53h-.27c-.63.1-.21.07.27 0zm33.72-.98c-.36.08-.71.15-1.09.2.6.03 1.07.04 1.09-.2zM377.25 41zM446 39.74a5.91 5.91 0 0 0 1.57 0 9.14 9.14 0 0 0-1.57 0zm113.08.49h.34a.1.1 0 0 1 0-.07zm.38-.05h.39a.77.77 0 0 0-.39 0zm1.19-.18l-.8.11a1.67 1.67 0 0 0 .8-.11zm-11 0l-.11.16a.19.19 0 0 0 .11-.16zm-2.87.08a15.63 15.63 0 0 0 2.67.23l.09-.12c-.45.23-2.11-.37-2.76-.11zm-11.96-1.89l2.4.12c-.42-.16-1-.38.12-.42-3.03-.49.66.36-2.52.3zm-7.45-.19c1.29-.07 0-.23 0-.33-.77.1-.97.14 0 .33zm-53.83 0l.13-.38c-.99 0-.01.1-.13.38zm-10.29 1.93l.97.24.46-.35-1.43.11zm-6.07-2.73l.43-.05-1.66.13 1.23-.08zm-90.4.14l.3.47c.67-.08.81-.62-.3-.47zm-39.03.48a3.4 3.4 0 0 0-2.2-.16c.88.04 1.76.22 2.2.16zm-117.04-.77l.79-.16-1.48.13.69.03zm210.29.87c-.08.13 0 .42.18.36l.15-.5zm1.44.92a1.09 1.09 0 0 0 .39-1.12c-.26.47-.32.27-.59.84a.28.28 0 0 1-.34-.34c-.08.13-.34-.11-.46.2a.63.63 0 0 0 1 .09c.1.1.02.23 0 .33zm21.29.77l-.14-.06a.35.35 0 0 0 .14.06zm13.19.27c-.1 0-.14.06-.15.11s.17-.06.15-.11zm2.25.55h-.13s.1.04.13 0zm-15.44-.82l.35.16c.03-.17-.18-.12-.35-.16zm-18.35-1.97a.36.36 0 0 0-.19.13l.18-.05a.22.22 0 0 1 .01-.08zM437.92 40h-.11a2.2 2.2 0 0 0-.09.21zm-4.47.09c.1 0 .14-.4.18-.59-.06.18-.13.26-.22.29a1.24 1.24 0 0 0 .04.3zm-7.07-.74l-.13.06zm14.73.75a.39.39 0 0 0 0 .15.42.42 0 0 0 0-.15zm124.82-3.16v.07c0 .07.07-.07 0-.07zM571.1 39h-.07a1.79 1.79 0 0 0 0 .23zm-107.81 2c-.12 0-.06 0 0 0zm37.84-.34c-.43-.38.7-.48.05-.9.06.16-.58.65-.05.9zm-75.64-2.97zm75.69 2.07h-.06zm-28.39.96a.57.57 0 0 0-.1-.19.43.43 0 0 0 .1.19zm-7.07-.6l.17.05a.32.32 0 0 0-.17-.05zm10.74 0c.1 0 .13.09.26 0a.13.13 0 0 0 0-.06c-.08.1-.15.13-.26.06zm3.83 0l-.07-.09h-.12zm74.02-2.98a1.43 1.43 0 0 1 .17.38c-.06-.3.52-.41-.17-.38z"/><path class="cls-1" d="M425.38 37.88c0-.11.05-.16.11-.19h-.12a.18.18 0 0 0 .01.19zm51.24-1.08l.61.06a2.8 2.8 0 0 0-.61-.06zm50.26.4l.14-.05a.12.12 0 0 0-.14.05zM479 36.8a1 1 0 0 0 .34.29s.06-.06.07-.11z"/><path class="cls-1" d="M558.48 36.52c-.57 0-.27.54-.39.86-.69.16-.32-.41-.55-.69-.44.15-.77.65-1.09.63 0-.09-.09-.12 0-.24-.46.44-1.36 0-1.89.58a.37.37 0 0 1-.07-.14 2.17 2.17 0 0 1 .09.76c-.26 0-.49.35-.58 0 .15 0 .17-.14.24-.25l-.27.16c-.24-.52.37-.18.37-.57-.53.17-1.15.6-1.55.46-.09-.51 1-.18.41-.63l.62.2c-.48-.81.39 0-.06-.81-.82-.14-.92.26-1.75.11-.18.29.07.42-.12.71-1.17.5-.92-1.29-1.79-.61-.22.34-.31 1-.92.65l.21-.58c-.8-.06-.46.83-1.3.44.15-.23.63-.19.51-.26-.54-.45-.38.33-.8.33l-.09-.51c-.85.08-1.79.45-2.73.54 0-.15.21-.31 0-.47a8.27 8.27 0 0 1-3.69-.36l-.44.44a.18.18 0 0 1-.08-.29c-.45-.16 0 .28-.24.46a.22.22 0 0 1-.17-.39c-.79.37-2.25.8-3.09.33l.17-.13c-.65-.18-.73.91-1.34.49l.12-.07c-1.41-.19-3 .21-4-.46-.2.64-1.39-.28-1.48.61-.8-.44-.57-.6-1.7-.9-.31 0-.45.56-.83.65v-.47l-.5.48-.27-.55-.35.12a.37.37 0 0 1 .27.34 1.24 1.24 0 0 1-1.35-.56l-1.29.39c0-.19.24-.25.42-.37-.7.47-.13-.48-.76-.05.08.1 0 .27-.06.37a2 2 0 0 0-1.57-.17l.1-.32c-1-.08-2 .16-3.1.15a.4.4 0 0 1 0 .75l-.13-.48c-.2.3.33.18-.08.55-.41-.06-.27-.56 0-.71l-.49.16c0-.14.08-.22.11-.4-.2.3-.84-.49-1.13 0v-.14c-1.08 0-1.57.16-2.44.19 0 .42-.36.32-.63.67a8.21 8.21 0 0 0-2.13-.44c-.55.21-.16.36-.41.61 0-.38-.82-.35-.41-.62a9.23 9.23 0 0 0-2.37.39c.12.15.27.22.19.35a.37.37 0 0 1-.45-.34c-1.32.57-3-1.12-4.11-.32h.06l-1.09.42c-.5-.07.3-.29-.07-.53-1.18.64-1.87-.09-2.84.33-.75-1.13-2.67.08-3.68-.64l.06.27c-.26.26-.32-.15-.51-.22 0 .21.28.24.12.39-2.22.32-4.59-.39-6.87-.63-.83-.07-.47 1.38-1.52.74l.3-.49c-1.68.59-3.44 0-5.09.48.1-.11.11-.26.27-.26-.35-.36-1.29 0-1.3.27-.25 0-.06-.26-.21-.41-.35-.21-.88.46-1.06.1 0-.06.09-.12.16-.14-.23.17-1.06-.05-.84.37-.62-.2-1.18.18-1.68-.06-.32.46-1.06-.23-1.16.43.05-.68-1.08-.55-1.47-.23.13-.2-.34-.21-.19-.49-.44 0-.85.13-.77.48-.83-.81-1.66.65-2.12-.39a27.08 27.08 0 0 1-3.74.77c0-.67 1.32-.07 1.27-.78-1.13.28-1.78.86-2.91.7-.29-.09.17-.29.27-.41-1.13.28-2.19-.06-3.19.31 0-.06.11-.13.21-.18-.19 0-.46-.1-.43.2l.19-.08c.31.45-.79.93-.82 1.17.33-.88-1-.22-.46-1.34a.42.42 0 0 0-.27.41c-.19-.06-.25-.18 0-.41-.71.17-.46.49-1.1.49 0-.15.13-.21.19-.39a1.24 1.24 0 0 1-1.19.46c0-.09 0-.21.13-.21-.93 0-1.59.78-2.61.5.3-.65-.35-.22-.4-.78l-.55.17.22.27c-.49 0-.91.4-1.33.22l.36-.23-.9.1.51.22c-.49.28.05.7-.59.55.13-.06-.48 0-.73-.34a.81.81 0 0 1-.84.23c-.09-.18.07-.62 0-.74-.23.47-1.12.13-1.42.63a.64.64 0 0 0 .07-.47l-.2.38c-.22-.12-.25-.18-.22-.42-.67-.07.22.71-.58.41.06 0 0-.09.16-.15-.8-.16-1.54.24-2.28.05-.22-.56.64-.13.39-.61-1.06.1-2.19.68-3.22.54l.19.07c-.14.79-.76-.4-1.28 0 .13-.06.17-.44.13-.35a6.87 6.87 0 0 0-2.5.44l.13-.2a7.72 7.72 0 0 0-1.53-.2c-.14.2-.39.17-.24.47-1.38-1.17-2.63.62-3.85-.35.14 0 .35-.18.23-.18l-1 .19c.08.35.13.21.35.48a.85.85 0 0 1-.68.36c.47-.23 0-.55-.21-.75v.34c-.54-.62-.09.69-.83.28v-.18c-.28.09-.54.33-.84.28-.12-.4.3-.19.32-.52-.42 0-.83.76-1.21.36.17-.11.43-.11.61-.22-.41-.48-.46-.36-.77-.43l-.71-.21.18.13c-.53 1-1.08.19-1.79.87.69-.65.12-.37.17-.83-.18-.12-.46-.27-.38-.39-.33.36-.56-.29-1 .24 0-.14-.36 0-.29-.38-.43.12.11.26.07.44-.67.5-1.58-.61-2.55.08-.83.28-1 .77-1.76 1-.26-.23.21-.53.21-.53a1.18 1.18 0 0 0-1.14 0c.08-.13 0-.24-.12-.4-.32 0-.21.53-.63.32a1.8 1.8 0 0 1 .32-.59c-.38.13-.75.41-1.14.54-.1-.26.23-.39.37-.55-.44.11-1.13.23-1.27.63l.28.14c-.16 0-.08-.34 0-.42.37-.31.54.14.56.29l-.28.09c.29.86 1.12-.13 1.67-.08l-.23.62.57-.52c.13.17.21.51-.07.61.4.31.36-.22.7.12a.07.07 0 0 1 0 .11l.39-.19c-.08.13.06.44-.18.35.7.36 1.13-.47 1.4 0h-.06c1-.21.09-.45.82-1l.49 1.13.1-.46c.1 0 .3.05.26.24.38-.32-.06-.2.16-.5.48.42 1.33-.2 1.44.53.17-.34-.47-.26.05-.51.15.79.6-.13 1 .23-.14.4-.56.19-.11.55.26-.68.86.15 1.23 0 0-.54.81-.23 1.43-.41 0 .18 1.18.3 1.76.5v.09c.11-.55.71-.45 1.15-.56a.64.64 0 0 1-.33.61h.41a.65.65 0 0 1 .49-.33l-.1.41c.54 0 1.1-.48 1.8-.21 0-.38-.56-1.07.18-1.32 0 .2.06.56-.14.64.07 0 .23-.17.36-.08l-.3.35c.32.15.17-.29.43-.26 0 .3.18.21.15.45-.07 0-.23-.13-.32 0a1.13 1.13 0 0 1 .75.45c0-.16 0-.4.21-.43.55 0 .19.35.51.51.13-.21.48 0 .49-.44.16 0 .19.21.25.33.28-.2 1.32-.06 1-.53h-.07c.93-.44 1.93.25 2.85.06v.15c.54-.17 1.22-.1 1.61-.42a.4.4 0 0 1 .31.45c.42-.11.47-.28 1.07 0-.42.25.15.22-.43.18.55.13.67.37 1.26 0-.2.38.41.48.67.37l-.39-.27a2.43 2.43 0 0 1 .81 0l-.14.5c1.11.6 2-1 2.86 0 .29-.35-.61-.24-.34-.65.51.06 1.05.78 1.21.78.7.28.65-.73 1.39-.54a.55.55 0 0 1 .36-.82c.52.07.63.75.31.89-.12 0-.18 0-.18-.1-.16.06-.38.14-.18.33l.07-.18c.25.19 1 .17.8.46.38-.17.16-.29-.13-.38.66.25 1 0 1.71.18-.11-.1-.21-.31-.1-.31 1 .22.44-.34 1.11-.41.38.27-.14.64.54.42.42.18.09.47-.07.61.61-.34 1.15.23 1.5.29l-.32.15a1.08 1.08 0 0 1 .51-.09l-.18-.35c.19.06.35.06.35.21.19-.23-.15-.59.24-.91.25.18.77-.2.86.28-.8-.16.09.47-.59.55a.66.66 0 0 1 .48 0c0 .06 0 .1-.08.13.77.42.36-.53 1.15-.52-.1.26.19.5.32.44-.32 0-.16-.44.14-.64.51.2.55-.16.82-.13l-.31-.1c.11-.27.36-.23.71-.32 0 .21-.32.15-.19.24.39-.47.89.48 1.44.17.25.18 0 .5.25.62.61-.35.67.36 1.31.08-.18-.36-.22-.27.24-.62l-1.06.25.68-.52c-.32 0-.68.23-.87.17.32-.3.29-.21.14-.5.44.53.87-.32 1.38 0v.88c.77.4 1.36-.45 2.35-.23l-.32-.15c.14-.36.61 0 .94-.2 0 .3.17.41.3.59 0-.22.73 0 .82-.57l.44.39c.81.16.92-.84 1.69-.74-.23.32.12.53-.4.76.26 0 .49.06.49-.15.15.19.72-.4.95-.12.11-.13.15-.44.44-.41a.18.18 0 0 1 0 .14c0-.14.46-.19.2-.52.8.92 2.22-.07 2.91.72a14 14 0 0 1 1.74-.21c0 .09 0 .15-.09.11.7.28.43-.85 1.23-.54.41.48-.43.26-.17.44.11 1 1-.13 1.5.44l-.13.06c.41.33 1-.37 1.68-.3a.18.18 0 0 0 0 .14 3.91 3.91 0 0 1 2-.8c-.2.38-.29.21-.17.59.29-.05-.09-.62.49-.73.19.21.61.39.66.81h-.54c.28.53.7 0 1 .07v.24c.84-.08.85-.67 1.75-.63l-.09-.17c.49-.59.41.33.9-.11l.15.59a8.91 8.91 0 0 1 1.72-.68 4.77 4.77 0 0 1-1.44.92c.33 0 1.1 0 1.26-.33-.13.06-.29.2-.42.11a1.9 1.9 0 0 1 1.56-.68c-.12 1.14 1.67.29 2.13 1.18 1.13-.43 2.25.18 3.57.11-.47-.89.38 0 .3-.94.31-.06.42-.05.45 0l.93.55c.22.27-.29.2-.26.41.67.07.28.39.73.63-.09-.33.23-.47.61-.34l-.54-.43c1-.48.82.77 1.77.29l-.3.29c.48-.17 1.79 0 2.27-.73.08.1.2.35 0 .42 1.16.11 2.59-.78 3.49-.33l-.08.22c.21-.06.37-.42.64-.19 0 .09-.08.22 0 .24s.57-.4.86-.27l-.24.26c1.13.29 1.74-.62 2.69-.77 0 .66.89.87 1.33 1v.09c1.32.08 2.24-.54 3.46-.8.76.71 2.57.3 3.79.7-.18-.12 0-.52.25-.58.29.13.79-.46.75.15h-.11c.22.6.81.44 1.27.46l.07-.8c1.2 1.16 3.15-.42 3.81.61.29-.2.65-.19.93-.39v.42a7.45 7.45 0 0 0 2.19.06l-.2.31c.56 0 .71-1.23 1.23-1.25l.15.63c1 0 2 .55 2.93 0 0 .1 0 .28-.2.31.46 0 1.78.42 1.61-.45 0 .57 1 .06 1.54-.19l-.08.42c.44-.54.46-.68 1.08-.83.15.05.13.33-.07.23.49.22.38-.4 1-.18l-.22.27c.5 0 .46-.11.74-.42a.83.83 0 0 1 1 .48c.07-.23.35-.54.65-.43a.26.26 0 0 1-.13.28c.85.28 1.26-.49 1.84-.08a.33.33 0 0 0 .1.25 6.19 6.19 0 0 1-1.16-.06c0 .38.54.45.11 1 .43-.29 1.18-.92 1.71-.74a.91.91 0 0 1 .07.14h-.06a.42.42 0 0 0 .34-.06 1.19 1.19 0 0 0 .43.11c.07.32.63.17.9.19 0-.42.33-.35 0-.7l-.23.07a.42.42 0 0 0-.12 0h-.67c.21-.21.43-.39.73-.16.14-.27.29-.55.38-.68.37.59 1.08.91 1.18 1.27.83-.24 1.95-.16 2.47-1 .23-.1.27.23.35.35-.13.08-.29.07-.37.18.47-.2 1.39-.08 1.51-.63.59.25-.34.51.48.42l-.11.17c1.6.88 2.6-1.41 4.37-.28-.12-.07-.18-.1-.21-.19 2 .5 4.17-.47 6.16.32.57.16.63-.19 1-.46l.13.45.59-.52c.84-.38 1.45 1.11 2.51.39l-.13-.31c.38.06 1.2-.18 1.14.17 0-.05.13-.31.28-.15v.23l.93-.4c.73.17-.11.94 1 1 .39-.09 1.12-.69 1-.85a.44.44 0 0 1-.41-.38l.36-.12c.06-.7.34-1.42-.55-1.91l-.61.43-.2-.34h.52c-.3-.32-.48 0-.69.16a.56.56 0 0 0-.26-.37l-.61.66c-.07-.27.28-.54-.13-.69-.28.31.27.61-.2.82-.29-.32-.21-.58-.55-.31a.29.29 0 0 1 .16-.37c-.31.21-.82.09-1 .46-.31-.39-1 .1-1-.56a1.62 1.62 0 0 1-.83.55c.52-.79-1.06-.05-.92-.9-.39.71-1.38.32-2.06.71 0 0 .11-.17.17-.13-.38-.06-.49-.28-.74-.41 0 .59-.64.72-1 1.08-.47-.56.28-.69.14-1.23 0 .48-.82.48-.66.87-.35-.35-.31-.17-.49-.66-.06.74-.33.13-.63.58-.52-.36-.13-.69-.7-.46-.47-.29.01-.55.01-.55zM545 37.79h.27zm-1.14 0a3.84 3.84 0 0 0 .49 0c0 .15 0 .3-.12.29.04-.08-.23-.16-.4-.28zm2.4 2.92c-.18.06-.24 0-.26-.11h.31v-.05a.48.48 0 0 1-.08.17z"/><path class="cls-1" d="M546.56 40.17a.15.15 0 0 1 .07 0l-.11-.1-.06.13zm-102.99-.63v-.06a.13.13 0 0 1 0 .06zm84.57-2.55v.11l.1-.1-.1-.01zm-90.83 1.1a.18.18 0 0 0-.08-.1s.04.06.08.1zm-2.7-.09l-.38-.15a1.27 1.27 0 0 0 .38.15zm-2.08-.21a.74.74 0 0 0 0 .18zm33.04-.49h.08c.19-.11.06-.07-.08 0zm-9.83.98a1.55 1.55 0 0 1 .32-.2c-.18-.03-.31-.08-.32.2zm20.81-1.49zm-20.04 1.3a.48.48 0 0 0-.45 0 .77.77 0 0 0 .45 0zm-32.99-.49h-.1a.08.08 0 0 1 0 .07zm-.11.05l-.11.05c.05 0 .1 0 .11-.05zm-.34.16l.23-.11c-.08 0-.18-.01-.23.11zm3.2-.02v-.15a.39.39 0 0 0 0 .15zm.84-.04c-.2 0-.5-.33-.78-.23v.12c.11-.23.59.36.78.11zm3.49 1.89l-.7-.12c.12.16.28.38 0 .42.85.49-.22-.37.7-.3zm2.17.24c-.37.07 0 .23 0 .32.23-.14.28-.2 0-.32zm15.7 0v.38c.25-.05-.03-.15 0-.38zm3-1.98l-.28-.24-.14.35.42-.11zm1.77 2.73l-.12.05.48-.14-.36.09zm26.37-.14l-.09-.47c-.2.08-.24.61.09.47zM491 40c.12.24.44.39.64.16-.27-.03-.52-.16-.64-.16zm34.12.78l-.23.16.44-.13-.21-.03zM618.23 99c.33-.13.14-.42-.75-.37l-.64.5zm-6.03-.88c-1.06.24-2.27.66-1.59 1.12 1-.48 1.3-.28 2.42-.85.9-.06 1.57.16 1.42.34.31-.12 1.39.11 1.87-.2a8.37 8.37 0 0 0-4.19-.08c-.33-.11-.01-.24.07-.33zm-87.66-.78l.56.06a4 4 0 0 0-.56-.06zm-54.32-.27c.42 0 .59-.06.61-.11-.38.04-.7.04-.61.11zm-9.22-.55h.55a1.37 1.37 0 0 0-.55 0zm63.54.82l-1.45-.15c-.09.16.74.12 1.45.15zm75.57 1.98a5.13 5.13 0 0 0 .79-.14l-.74.06a.56.56 0 0 0-.05.08zm-51.63-2.38h.44a2.64 2.64 0 0 0 .37-.2zm18.38-.08c-.42 0-.56.41-.72.59a1.84 1.84 0 0 1 .9-.29c.01-.08-.04-.16-.18-.3zm29.14.75l.52-.06c-.15.02-.37.03-.52.06zm-60.67-.76a.36.36 0 0 0-.17-.15s.07.1.17.15zM21.39 100v-.08c0-.08-.15.08 0 .08zM.09 97.93h.29a.73.73 0 0 0 .07-.24zM444 96h.08c.42-.06.17 0-.08 0zm-155.82.29c1.77.38-2.87.49-.21.91-.25-.2 2.41-.66.21-.91zm311.45 2.97h-.75a4.56 4.56 0 0 0 .75 0zM288 97.2h.27zm116.88-.96a1.18 1.18 0 0 0 .39.18s-.1-.09-.39-.18zm29.12.6l-.72-.06a7.19 7.19 0 0 0 .72.06zm-44.25-.01a4 4 0 0 0-1.06 0h.16a2.09 2.09 0 0 1 .9 0zm-15.75 0a2 2 0 0 0 .29.09h.5zM69.23 99.82a2.56 2.56 0 0 1-.73-.38c.25.3-2.07.4.73.38z"/><path class="cls-1" d="M600.1 99.08a.65.65 0 0 1-.47.18h.53c.04-.09.05-.14-.06-.18zm-210.99 1.08l-2.5-.06c.7.04 1.61.06 2.5.06zm-206.94-.4h-.57a2 2 0 0 0 .57 0zm197.02.4a6.54 6.54 0 0 0-1.41-.29 1 1 0 0 0-.29.11zM68.5 99.43z"/><path class="cls-1" d="M52 100.43c2.39 0 1.12-.54 1.63-.86 2.84-.15 1.31.41 2.28.69 1.78-.14 3.14-.65 4.47-.63.09.09.35.13.05.24 1.88-.44 5.57 0 7.76-.58a.68.68 0 0 1 .29.14c-.36-.28-.41-.56-.34-.76 1.07 0 2-.35 2.39 0a1.79 1.79 0 0 0-1 .25l1.12-.15c1 .52-1.53.18-1.53.56a48.39 48.39 0 0 1 6.4-.45c.35.51-3.91.17-1.68.62l-2.59-.19c2 .8-1.57-.06.25.8 3.41.15 3.81-.26 7.21-.11.76-.28-.26-.42.51-.7 4.83-.51 3.8 1.28 7.35.6a5.08 5.08 0 0 1 3.81-.64l-.87.57c3.3.06 1.89-.82 5.34-.44-.61.23-2.59.19-2.09.26 2.23.46 1.58-.32 3.3-.32l.36.51c3.51-.08 7.37-.45 11.26-.55-.21.16-.88.32 0 .47a136.67 136.67 0 0 1 15.2.37l1.81-.44c.42 0 .78.19.32.28 1.85.17.1-.28 1-.45 1 0 1.39.25.73.38 3.25-.37 9.26-.8 12.69-.33l-.67.13c2.67.18 3-.9 5.49-.49l-.47.08c5.79.19 12.19-.22 16.61.45.84-.63 5.73.28 6.11-.6a53.07 53.07 0 0 0 7 .89c1.24 0 1.85-.55 3.39-.65v.47l2.09-.49 1.11.55 1.44-.11c-.58 0-1.22-.21-1.13-.34 2.25-.21 5.49.32 5.55.55l5.33-.39c-.12.19-1 .25-1.72.37 2.85-.47.52.49 3.12.06-.34-.11.19-.28.25-.37a32.62 32.62 0 0 0 6.45.16l-.42.32c4 .08 8.34-.15 12.78-.15-1.59-.15-1.23-.7.07-.75l.52.49c.84-.3-1.36-.19.37-.56 1.66.06 1.11.56.16.72l2-.17c.12.14-.36.22-.48.41.83-.31 3.48.49 4.67 0l.12.15c4.43 0 6.45-.17 10.06-.19.07-.42 1.48-.33 2.56-.67 2.66.13 5.61.46 8.81.43 2.25-.21.65-.36 1.66-.61.17.39 3.37.35 1.71.63 3.84-.07 4.9-.08 9.76-.39-.52-.16-1.12-.23-.81-.36.88-.06 2 .16 1.88.35h-.23c5.45-.58 12.58 1.12 16.92.31h-.24l4.5-.41c2.07.06-1.24.29.29.52 4.86-.64 7.68.1 11.68-.33 3.09 1.13 11-.08 15.16.64l-.24-.26c1.08-.27 1.31.15 2.1.21-.11-.21-1.17-.24-.5-.39 9.15-.32 18.89.39 28.27.64 3.43.07 1.95-1.39 6.27-.75l-1.22.5c6.92-.6 14.15 0 20.93-.49a2.15 2.15 0 0 1-1.08.26c1.44.36 5.3 0 5.32-.27 1.06 0 .25.26.9.41 1.43.22 3.6-.46 4.36-.1.13.06-.4.12-.66.15.93-.18 4.36 0 3.46-.37 2.55.19 4.87-.19 6.9.06 1.32-.47 4.35.22 4.77-.44-.18.68 4.46.55 6.07.23-.54.21 1.4.21.77.5 1.84 0 3.52-.14 3.2-.49 3.38.82 6.8-.65 8.7.39 5.45-.36 10.5-.61 15.4-.77-.17.68-5.42.07-5.21.78 4.65-.28 7.34-.86 11.95-.7 1.2.1-.68.3-1.08.41 4.65-.28 9 .06 13.13-.31a2.29 2.29 0 0 1-.88.19c.81 0 1.89.1 1.8-.21l-.79.08c-1.31-.44 3.23-.93 3.38-1.16-1.38.88 4.09.22 1.89 1.33.53-.06 1.21-.2 1.08-.41.8.06 1.05.18.25.42 2.92-.17 1.88-.5 4.52-.49 0 .15-.54.2-.81.38a16.36 16.36 0 0 1 4.92-.46c-.14.09.12.21-.54.21 3.84 0 6.54-.77 10.75-.49-1.24.64 1.44.21 1.66.77l2.26-.17-.9-.27c2 0 3.73-.4 5.44-.21l-1.48.23 3.72-.11-2.1-.21c2-.29-.22-.71 2.42-.56a27.86 27.86 0 0 1 3 .34 11.34 11.34 0 0 1 3.45-.22c.39.18-.3.62-.05.73 1-.46 4.64-.13 5.87-.62-.41.11-.43.41-.3.47l.82-.38c.92.12 1.05.18.9.41 2.77.07-.88-.71 2.4-.4a3.55 3.55 0 0 1-.67.14c3.3.16 6.37-.24 9.4 0 .89.56-2.65.14-1.63.61 4.37-.1 9.05-.67 13.27-.54l-.79-.06c.59-.8 3.15.39 5.29 0-.53 0-.69.44-.55.35 2.9.13 5.92-.2 10.3-.45l-.54.21c1.7.18 4.49.1 6.33.19.55-.2 1.6-.17 1-.46 5.68 1.16 10.84-.63 15.88.34-.61 0-1.44.18-1 .18l4.29-.19c-.34-.34-.56-.21-1.46-.48a10 10 0 0 1 2.82-.36c-1.93.23 0 .56.85.75-.14-.11.14-.22.07-.33 2.24.61.38-.7 3.44-.28l-.16.18a23.69 23.69 0 0 1 3.43-.28c.52.4-1.22.18-1.29.51 1.73 0 3.42-.76 5-.36-.74.12-1.8.12-2.53.23a10 10 0 0 0 3.18.42l2.94.22-.75-.13c2.17-1 4.42-.19 7.35-.88-2.85.65-.47.38-.69.83.75.13 1.88.27 1.56.4 1.38-.37 2.31.29 4.26-.25.09.15 1.48 0 1.17.38 1.79-.11-.43-.25-.28-.44 2.77-.5 6.52.61 10.5-.08 3.44-.28 4.07-.77 7.26-1 1.08.24-.88.54-.88.54a19.28 19.28 0 0 0 4.68 0c-.33.13 0 .24.51.4 1.31 0 .88-.53 2.61-.31a5 5 0 0 1-1.31.58c1.55-.13 3.07-.4 4.68-.53.42.25-1 .38-1.53.55 1.8-.12 4.66-.23 5.22-.64l-1.16-.14c.66 0 .34.35-.14.42-1.55.32-2.23-.14-2.32-.29l1.14-.09c-1.17-.86-4.58.14-6.88.09l1-.63-2.35.52c-.51-.16-.85-.51.29-.6-1.65-.31-1.46.22-2.88-.13-.15 0-.08-.08.06-.1l-1.61.18c.32-.13-.26-.44.72-.35-2.88-.36-4.65.47-5.74 0h.24c-4 .21-.39.46-3.39 1l-2-1.13-.4.46c-.41 0-1.23 0-1.08-.23-1.54.31.26.2-.63.49-2-.41-5.48.2-5.93-.53-.72.35 1.9.27-.22.51-.61-.78-2.46.13-4.28-.23.56-.4 2.28-.19.46-.55-1.09.69-3.53-.15-5.07 0-.07.55-3.33.23-5.9.41.16-.18-4.84-.3-7.24-.49L554 97c-.46.56-2.93.45-4.73.56.07-.32.4-.45 1.37-.6h-1.69a5.72 5.72 0 0 1-2 .33l.43-.41c-2.25 0-4.53.49-7.43.21-.16.39 2.3 1.07-.76 1.33-.11-.21-.22-.57.58-.65a5.3 5.3 0 0 1-1.47.08l1.23-.35c-1.32-.15-.69.3-1.75.26 0-.29-.78-.21-.62-.44a6.42 6.42 0 0 0 1.32 0 11.77 11.77 0 0 1-3.1-.45c.1.17 0 .4-.87.44-2.25 0-.77-.36-2.08-.51-.55.2-2 0-2 .43a1.59 1.59 0 0 1-1-.32c-1.17.19-5.44 0-4.13.52h.3-.19c-3.82.44-7.93-.25-11.71-.06v-.15c-2.26.17-5 .1-6.65.42-.67 0-1.58-.27-1.29-.45a17.52 17.52 0 0 1-4.42 0c1.74-.26-.59-.23 1.78-.19a16.57 16.57 0 0 0-5.16 0c.82-.38-1.69-.48-2.75-.37l1.57.28h-3.32l.58-.5c-4.59-.61-8.28 1-11.78 0-1.21.35 2.5.25 1.41.66-2.11-.07-4.31-.79-5-.79-2.89-.27-2.7.73-5.72.54.38.18.75.65-1.52.82-2.11-.06-2.59-.74-1.26-.89.51 0 .75 0 .73.1.68-.06 1.58-.14.74-.33l-.27.18c-1.05-.18-4-.16-3.28-.46-1.59.17-.68.3.5.39-2.71-.26-4.23 0-7-.18.44.1.85.3.41.3-4.1-.22-1.8.34-4.58.42-1.57-.27.57-.65-2.23-.42-1.7-.19-.36-.47.32-.62a27.64 27.64 0 0 1-6.21-.29l1.34-.14a20 20 0 0 1-2.12.08l.76.36c-.78-.07-1.45-.07-1.43-.21-.82.23.62.59-1 .91-1-.18-3.2.19-3.56-.28 3.3.16-.36-.48 2.43-.55a12.05 12.05 0 0 1-2 0c-.12 0 .11-.1.33-.13-3.16-.42-1.45.54-4.72.53.41-.27-.76-.51-1.3-.45 1.32 0 .64.44-.57.65a15.94 15.94 0 0 0-3.38.13l1.25.09a9 9 0 0 1-2.93.32c-.13-.21 1.32-.14.8-.23-1.62.46-3.67-.49-5.93-.17-1.05-.18-.1-.5-1-.63-2.54.35-2.75-.36-5.42-.08.77.36.9.27-1 .62l4.38-.25-2.81.52c1.32 0 2.79-.22 3.58-.16-1.34.29-1.2.2-.57.5-1.81-.54-3.59.31-5.68-.05l.06-.89c-3.14-.39-5.59.46-9.67.23l1.31.16c-.55.35-2.52.05-3.85.19.13-.3-.7-.4-1.27-.59.07.22-3 0-3.36.57l-1.82-.39c-3.3-.16-3.77.85-6.94.75 1-.33-.48-.54 1.64-.77-1.06 0-2 0-2 .15-.62-.18-2.93.4-3.91.12a3.29 3.29 0 0 1-1.78.42c-.13-.06 0-.15 0-.15s-1.86.2-.83.53c-3.26-.93-9.11.06-11.95-.73-2.31.1-5.1.19-7.19.22.13-.09 0-.15.4-.12-2.9-.28-1.78.85-5.07.54-1.69-.48 1.75-.26.7-.44-.46-1-4 .13-6.19-.43l.53-.06c-1.69-.33-4.13.37-6.9.3 0 0 .14-.09 0-.15a51.28 51.28 0 0 1-8.14.8c.83-.38 1.21-.2.7-.59-1.19.06.35.62-2 .73-.77-.21-2.49-.39-2.72-.8h2.25c-1.15-.53-2.91 0-4.1-.07l.16-.23c-3.45.07-3.5.66-7.2.62l.39.18c-2 .58-1.7-.33-3.72.1l-.61-.59c-1.33.14-4.67.57-7.07.68a50.37 50.37 0 0 1 5.89-.92 26.32 26.32 0 0 0-5.18.33 7.2 7.2 0 0 1 1.73-.11 23.36 23.36 0 0 1-6.4.69c.47-1.15-6.87-.29-8.78-1.18-4.66.42-9.25-.18-14.68-.12 1.92.9-1.59 0-1.26 1a6.92 6.92 0 0 1-1.86 0l-3.83-.55c-.91-.26 1.2-.2 1.08-.41-2.77-.07-1.16-.38-3-.63.37.33-1 .47-2.54.35l2.22.42c-3.87.49-3.35-.77-7.25-.29l1.23-.28c-2 .17-7.38 0-9.35.73-.35-.11-.82-.36.06-.43-4.79-.11-10.65.79-14.37.33l.36-.22a7.87 7.87 0 0 1-2.67.19c.05-.09.36-.22-.06-.23a15.87 15.87 0 0 1-3.55.26l1-.25c-4.67-.3-7.17.61-11.08.77 0-.66-3.67-.88-5.5-1l.06-.09c-5.43-.08-9.23.55-14.26.81-3.13-.72-10.59-.3-15.61-.7.76.12-.13.51-1 .58-1.18-.14-3.26.45-3.07-.15h.42c-.89-.59-3.31-.44-5.2-.45l-.32.79c-4.94-1.15-13 .42-15.66-.61-1.19.2-2.67.2-3.85.4l.06-.43c-3.31-.11-5-.16-9-.06l.83-.3c-2.3 0-2.91 1.22-5 1.25l-.64-.64c-4 0-8.1-.54-12.08 0 .07-.09.19-.28.84-.3-1.9 0-7.33-.43-6.64.44-.05-.57-4.15-.06-6.32.19l.33-.41a13.18 13.18 0 0 1-4.45.82c-.61-.05-.53-.33.28-.22-2-.22-1.58.39-4 .17l.91-.27a6.65 6.65 0 0 0-3.06.42c-1.31.17-4-.1-4.25-.48a4.75 4.75 0 0 1-2.65.43c-.17-.14.28-.23.5-.27-3.48-.29-5.17.48-7.56.07 0-.14-.21-.21-.41-.25 2.77 0 5 0 4.79.07 0-.39-2.24-.46-.46-1a32.89 32.89 0 0 1-7 .74 1.11 1.11 0 0 1-.29-.13h.22a6 6 0 0 0-1.37.07c-.7-.07-1.14-.11-1.81-.12-.25-.32-2.56-.17-3.67-.19.09.42-1.36.36 0 .71-.18 0 .21-.06 1-.07a4.77 4.77 0 0 0 .48-.05h-.08 2.77a6.47 6.47 0 0 1-3 .16c-.57.27-1.2.55-1.56.68-1.52-.58-4.46-.9-4.87-1.27-3.4.24-8 .16-10.14 1a2 2 0 0 1-1.47-.35 13 13 0 0 0 1.52-.18c-1.93.2-5.73.08-6.19.63-2.43-.25 1.37-.51-2-.42l.46-.17c-6.59-.88-10.71 1.42-18 .28.51.07.76.1.86.2-8.32-.5-17.15.47-25.36-.33a10.26 10.26 0 0 0-4 .46l-.84-.48-2.43.52c-3.46.39-6-1.11-10.36-.38l.57.3c-1.57-.06-5 .18-4.72-.17a1.46 1.46 0 0 1-1.12.16l-.05-.24-3.86.41c-3-.17.47-.94-3.9-1-1.62.09-4.62.69-4 .85.66 0 1.68.15 1.73.38l-1.49.13c-.27.7-1.41 1.41 2.23 1.9l2.54-.43.82.34H3.82a5.17 5.17 0 0 0 2.84-.15 2.1 2.1 0 0 0 1.07.37l2.49-.67c.3.27-1.12.54.55.69 1.17-.31-1.12-.61.82-.81 1.21.32.86.57 2.28.3.2.18-.1.3-.67.38 1.27-.22 3.36-.09 4-.47 1.26.4 4.28-.1 4.15.56a15.6 15.6 0 0 1 3.4-.54c-2.12.79 4.37 0 3.8.89 1.58-.71 5.69-.31 8.48-.71a1.62 1.62 0 0 1-.7.14 20.07 20.07 0 0 1 3 .4c.2-.58 2.65-.72 4-1.08 1.92.57-1.17.69-.57 1.23-.09-.47 3.35-.47 2.69-.87 1.48.35 1.27.17 2 .66.26-.74 1.37-.13 2.59-.58 2.13.37.55.69 2.89.47 1.17.25-.93.51-.93.51zm55.67-1.27h-1.15zm4.68 0h-2c-.17-.15 0-.3.48-.29-.26.13.84.13 1.54.29zm-9.9-2.93c.74-.06 1 0 1.09.11h-1.29l-.09.06a.76.76 0 0 1 .31-.17z"/><path class="cls-1" d="M101.14 96.79h-.3a3.43 3.43 0 0 0 .44.09l.26-.13zm424.06.62h-.1l.21.06a.38.38 0 0 1-.11-.06zm-348.24 2.55v-.1l-.41.09.41.01zM551 98.86a.85.85 0 0 0 .33.11.88.88 0 0 0-.33-.11zm11.1.14l1.57.15C563 99 562.49 99 562.1 99zm8.55.16a.45.45 0 0 0 .17-.18zm-136.05.5h-.33c-.78.1-.27.07.33 0zm40.49-.99c-.43.08-.86.15-1.31.2.72.03 1.28.04 1.31-.2zm-85.7 1.5zm82.51-1.3a8.41 8.41 0 0 0 1.88 0 11.8 11.8 0 0 0-1.88 0zm135.84.48h.41s0-.05.05-.07zm.46-.05h.46a1.25 1.25 0 0 0-.46 0zm1.42-.15l-1 .1a2.22 2.22 0 0 0 1-.1zm-13.21.01l-.13.15a.2.2 0 0 0 .13-.15z"/><path class="cls-1" d="M593 99.2a21.06 21.06 0 0 0 3.21.23l.1-.12c-.57.23-2.56-.31-3.31-.11zm-14.4-1.89l2.89.13c-.51-.17-1.17-.39.14-.43-3.63-.48.75.37-3.03.3zm-8.94-.23c1.55-.08 0-.24.06-.33-.98.15-1.22.18-.06.33zm-64.66 0l.16-.39c-1.16.06.01.15-.16.39zm-12.33 1.98l1.16.24.55-.35-1.71.11zm-7.3-2.73l.52-.06-2 .14 1.48-.08zm-108.56.13l.36.47c.83-.08.98-.61-.36-.47zm-46.87.48a5 5 0 0 0-2.64-.15c1.06.03 2.11.21 2.64.15zm-140.55-.77l.95-.15-1.78.13.83.02zm241.33.83a.23.23 0 0 0 .23.37l.19-.5zm1.83 1c.32-.24.69-.66.48-1.12-.32.48-.39.28-.74.85a.33.33 0 0 1-.42-.35c-.1.13-.43-.1-.57.21a.9.9 0 0 0 1.27.08c.1.07 0 .2-.02.33zm26.59.73h-.17a.29.29 0 0 0 .17 0zm16.48.27c-.13 0-.18.06-.19.1s.21-.05.19-.1zm2.81.55h-.17c.07.02.13.04.17 0zm-19.29-.82l.44.16c.03-.16-.23-.12-.44-.16zm-22.93-1.97a.65.65 0 0 0-.23.13h.22s.01-.1.01-.13zm15.67 2.38h-.14a1.2 1.2 0 0 0-.11.2zm-5.58.07c.13 0 .17-.4.22-.58a.42.42 0 0 1-.27.28.7.7 0 0 0 .05.3zm-8.84-.74l-.15.06zm18.41.76a.44.44 0 0 0 .05.15.3.3 0 0 0-.05-.15zm155.9-3.17v.08s.04-.08 0-.08zm6.46 2.09h-.09a1.94 1.94 0 0 0 0 .24zm-134.65 1.94c-.16.04-.09.04 0 0zm47.26-.31c-.54-.37.87-.48.06-.9.1.17-.73.66-.06.9zm-94.48-2.96h.23a.53.53 0 0 0-.23 0zm94.54 2.06h-.08zm-35.46.96a.57.57 0 0 0-.12-.18s.03.09.12.18zm-8.84-.6l.22.06a.82.82 0 0 0-.22-.06zm13.4.01c.12 0 .16.09.32 0h-.05c-.03.04-.11.06-.27 0zm4.8-.01a.73.73 0 0 0-.09-.08h-.15zm92.46-2.98a1.34 1.34 0 0 1 .22.38c-.08-.3.62-.4-.22-.38z"/><path class="cls-1" d="M436.22 97a.2.2 0 0 1 .14-.18h-.16c-.01.08-.02.18.02.18zm64-1.08l.78.08a4.34 4.34 0 0 0-.78-.08zm62.78.4h.17a.17.17 0 0 0-.17 0zm-59.77-.4a1.13 1.13 0 0 0 .43.29.33.33 0 0 0 .09-.11zm94.25.73z"/><path class="cls-1" d="M602.48 95.64c-.73 0-.34.55-.5.86-.86.16-.4-.4-.69-.69-.54.15-.95.66-1.35.64 0-.09-.11-.13 0-.24-.57.44-1.69 0-2.35.57a.31.31 0 0 1-.09-.13 1.65 1.65 0 0 1 .1.76c-.32 0-.6.35-.72 0 .2 0 .21-.13.31-.24l-.34.15c-.31-.52.46-.18.46-.56-.66.17-1.43.6-1.94.45-.11-.51 1.18-.17.51-.62l.78.19c-.6-.8.48.06-.07-.8-1-.15-1.16.26-2.19.11-.23.28.08.42-.15.7-1.47.51-1.16-1.28-2.23-.6-.28.34-.39 1-1.16.64l.26-.57c-1-.06-.57.82-1.62.44.19-.23.79-.2.64-.26-.68-.46-.48.32-1 .32l-.11-.51c-1.07.08-2.24.45-3.42.54.07-.15.27-.31 0-.46a13 13 0 0 1-4.61-.37l-.55.44c-.12 0-.23-.2-.09-.28-.56-.17 0 .28-.3.45s-.42-.25-.22-.38c-1 .37-2.81.8-3.85.33l.2-.13c-.81-.18-.91.9-1.66.49l.14-.08c-1.76-.19-3.7.21-5-.45-.26.63-1.74-.28-1.85.6-1-.44-.72-.6-2.13-.89-.38 0-.56.55-1 .64v-.46l-.64.49-.33-.56-.44.12c.17 0 .37.21.34.34a1.7 1.7 0 0 1-1.68-.56l-1.62.4c0-.19.31-.25.52-.37-.86.47-.15-.49-.94-.06.1.11-.06.28-.08.37a3.11 3.11 0 0 0-2-.16l.13-.32c-1.2-.08-2.53.15-3.87.15a.38.38 0 0 1 0 .75l-.16-.49c-.25.3.42.18-.11.55-.5-.05-.33-.55-.05-.71l-.61.17c0-.15.11-.22.15-.41-.25.3-1.06-.49-1.42 0v-.15c-1.35 0-2 .17-3.06.19 0 .42-.45.33-.77.67a12 12 0 0 0-2.67-.43c-.69.21-.2.36-.51.61 0-.39-1-.35-.52-.63a15 15 0 0 0-3 .39c.16.16.34.23.25.36-.27.06-.61-.16-.57-.35h.07c-1.66.58-3.82-1.12-5.14-.32h.08l-1.37.42c-.63-.06.38-.29-.09-.53-1.47.65-2.33-.09-3.54.34-.94-1.13-3.33.08-4.6-.64l.07.26c-.32.26-.39-.15-.63-.21 0 .21.35.24.15.38-2.78.33-5.73-.39-8.58-.63-1-.07-.59 1.38-1.9.75l.37-.5c-2.1.59-4.29 0-6.35.48.12-.11.13-.26.33-.26-.44-.36-1.61 0-1.61.28-.32 0-.08-.27-.28-.42-.43-.21-1.09.46-1.32.11 0-.06.12-.12.2-.15-.28.18-1.32 0-1.05.37-.77-.2-1.48.19-2.09-.06-.4.47-1.32-.22-1.45.43.06-.67-1.35-.54-1.84-.22.16-.21-.42-.22-.23-.5-.56 0-1.07.14-1 .48-1-.81-2.07.66-2.64-.38a44.16 44.16 0 0 1-4.68.77c.06-.68 1.65-.07 1.58-.78-1.41.28-2.22.86-3.62.7-.36-.1.21-.3.33-.41-1.41.28-2.73-.06-4 .3 0-.06.13-.13.26-.18-.24 0-.57-.1-.54.21l.24-.09c.39.45-1 .94-1 1.17.42-.88-1.24-.22-.57-1.33-.17.06-.37.2-.33.41-.24-.06-.32-.18-.08-.42-.88.17-.57.5-1.37.49 0-.15.17-.21.25-.38a1.78 1.78 0 0 1-1.49.45c0-.09 0-.2.16-.2-1.16 0-2 .77-3.26.49.37-.64-.44-.21-.51-.77l-.68.17.27.27c-.6 0-1.13.4-1.65.21l.45-.23-1.13.11.64.21c-.61.29.07.71-.74.55.17 0-.6 0-.91-.33a1.21 1.21 0 0 1-1.05.22c-.11-.18.09-.62 0-.74-.29.47-1.41.13-1.78.63a.54.54 0 0 0 .09-.47l-.25.38c-.28-.12-.32-.18-.27-.41-.84-.07.26.71-.73.4.08 0 0-.09.2-.14-1-.16-1.93.24-2.85 0-.27-.56.8-.14.49-.61-1.32.1-2.74.67-4 .54l.24.06c-.18.8-1-.39-1.61 0 .16-.06.21-.44.17-.35a10.53 10.53 0 0 0-3.12.45l.16-.21a14.85 14.85 0 0 0-1.92-.2c-.17.21-.49.17-.29.47-1.72-1.16-3.29.63-4.82-.34.19 0 .44-.18.29-.18l-1.3.18c.1.35.17.21.45.48a1.2 1.2 0 0 1-.86.37c.59-.23 0-.56-.26-.75v.33c-.68-.62-.11.7-1 .28l.05-.18c-.35.09-.67.33-1.05.28-.15-.4.37-.19.4-.52-.53 0-1 .76-1.52.36.23-.11.55-.11.77-.22a1.24 1.24 0 0 0-1-.43l-.89-.22.23.13c-.66 1-1.34.19-2.23.88.86-.65.14-.38.21-.83-.23-.13-.57-.27-.47-.4-.42.37-.7-.29-1.3.25 0-.15-.44 0-.35-.38-.54.11.13.25.08.43-.84.5-2-.6-3.18.08-1 .29-1.24.78-2.2 1-.33-.24.26-.54.26-.54a1.89 1.89 0 0 0-1.42 0c.1-.12 0-.23-.15-.4-.4 0-.27.54-.79.32a2 2 0 0 1 .4-.59c-.47.14-.94.41-1.42.54-.13-.25.29-.38.46-.55-.55.11-1.41.23-1.58.63l.35.15c-.2 0-.11-.35 0-.42a.42.42 0 0 1 .7.29l-.34.09c.35.86 1.39-.14 2.08-.09l-.29.63.72-.52c.15.16.25.51-.09.6.5.31.44-.22.87.12v.11l.49-.18c-.09.13.08.44-.22.35.88.36 1.42-.47 1.75 0h-.08c1.22-.21.12-.46 1-1l.61 1.13.12-.45c.13 0 .38 0 .33.23.47-.31-.08-.2.19-.5.61.42 1.67-.19 1.8.54.22-.35-.57-.27.07-.51.18.78.75-.14 1.3.22-.17.41-.69.19-.14.56.33-.69 1.07.15 1.54 0 0-.54 1-.22 1.79-.4-.05.18 1.47.3 2.19.49v.09c.14-.55.89-.44 1.43-.56a.6.6 0 0 1-.41.61h.51a.81.81 0 0 1 .62-.33l-.13.41c.68 0 1.37-.49 2.25-.21 0-.39-.7-1.07.23-1.33 0 .21.07.56-.18.65.08 0 .29-.17.45-.08l-.37.34c.4.16.21-.29.53-.25 0 .29.23.21.19.44-.08 0-.28-.12-.4 0a1.47 1.47 0 0 1 .94.45.33.33 0 0 1 .26-.44c.68 0 .23.36.63.51.17-.21.6 0 .61-.44.2 0 .24.21.32.33.35-.19 1.65 0 1.25-.52h-.09.06c1.15-.44 2.4.25 3.55.06v.15a7.58 7.58 0 0 0 2-.42c.2 0 .48.27.39.44a1.73 1.73 0 0 1 1.34 0c-.52.26.18.23-.54.19.68.13.84.36 1.57 0-.25.38.51.48.83.36l-.47-.27a4.16 4.16 0 0 1 1 0l-.17.5c1.39.61 2.51-1 3.57 0 .37-.35-.76-.25-.43-.66.64.07 1.31.79 1.51.79.88.27.82-.73 1.74-.54-.12-.18-.23-.66.46-.82.64.06.79.74.38.89-.15 0-.23 0-.22-.11-.21.07-.48.14-.22.34l.08-.18c.32.18 1.2.16 1 .45.49-.17.21-.29-.15-.38.82.26 1.29 0 2.13.18-.13-.1-.26-.31-.12-.3 1.24.22.54-.34 1.39-.42.47.27-.18.65.67.42.52.18.11.47-.09.62.77-.35 1.44.22 1.88.29l-.41.14a1.7 1.7 0 0 1 .65-.08l-.24-.36c.24.06.45.06.44.21.25-.23-.19-.59.3-.91.32.18 1-.19 1.08.28-1-.16.11.48-.74.55a1.06 1.06 0 0 1 .61 0s0 .1-.1.12c.95.43.44-.53 1.43-.52-.13.27.23.51.39.45-.4 0-.19-.44.18-.65.63.21.69-.15 1-.13l-.38-.1c.13-.26.45-.23.89-.31 0 .21-.4.14-.24.23.49-.47 1.11.49 1.8.17.32.18 0 .5.31.62.77-.34.83.37 1.64.08-.23-.35-.27-.27.3-.62l-1.33.26.85-.52c-.4 0-.85.22-1.09.16.41-.29.37-.2.17-.5.55.54 1.09-.31 1.73.05v.89c.95.39 1.69-.46 2.93-.24l-.39-.15c.16-.35.76-.05 1.16-.19 0 .29.22.4.39.59 0-.22.9 0 1-.57l.55.39c1 .16 1.14-.85 2.1-.75-.28.32.15.53-.49.76.32 0 .61.06.61-.14.19.18.89-.4 1.19-.12.13-.13.18-.44.54-.42a.18.18 0 0 1 0 .15c0-.15.56-.2.25-.53 1 .93 2.76-.07 3.62.73.71-.1 1.55-.2 2.19-.22 0 .09 0 .15-.13.12.88.27.54-.85 1.54-.54.51.48-.53.26-.21.44.14 1 1.21-.14 1.88.43l-.16.06c.51.33 1.25-.37 2.09-.3a.21.21 0 0 0 0 .15 5.51 5.51 0 0 1 2.47-.8c-.25.38-.36.2-.21.59.36-.06-.11-.62.62-.73.23.21.75.39.82.8h-.68c.35.54.88 0 1.24.08v.23c1-.07 1.06-.66 2.19-.62l-.12-.18c.61-.58.52.33 1.13-.1l.18.59a14.43 14.43 0 0 1 2.15-.69 6.35 6.35 0 0 1-1.79.93c.4 0 1.36 0 1.57-.34-.16.06-.36.21-.52.11a2.68 2.68 0 0 1 1.94-.68c-.14 1.15 2.08.29 2.66 1.18 1.42-.42 2.81.18 4.46.11-.59-.89.48 0 .38-.94.38-.06.53 0 .56 0l1.16.55c.28.26-.36.2-.33.4.85.07.36.39.91.64-.11-.33.3-.47.78-.35l-.68-.42c1.18-.49 1 .77 2.2.28l-.37.29c.6-.17 2.24 0 2.83-.73.11.11.25.36 0 .43 1.46.11 3.24-.79 4.36-.33l-.11.22c.28-.07.48-.42.82-.2 0 .1-.11.23 0 .24s.72-.39 1.08-.26l-.31.25c1.42.29 2.18-.61 3.36-.77 0 .66 1.12.88 1.67 1v.1c1.65.08 2.8-.55 4.33-.81.95.72 3.21.3 4.74.7-.24-.12 0-.51.31-.58.35.14 1-.46.93.15h-.13c.27.59 1 .43 1.58.45l.09-.79c1.5 1.15 3.93-.42 4.75.61.37-.2.81-.2 1.17-.4v.43a11.73 11.73 0 0 0 2.75.06l-.25.3c.7 0 .88-1.22 1.52-1.25l.2.64c1.22 0 2.45.54 3.66 0 0 .09-.06.27-.25.3.57 0 2.22.43 2-.44 0 .57 1.26 0 1.92-.2l-.1.42c.55-.53.57-.68 1.35-.83.18.06.16.34-.09.23.62.22.48-.39 1.23-.17l-.28.27c.63 0 .58-.11.93-.43.39-.16 1.2.11 1.29.49a.71.71 0 0 1 .8-.43c.05.14-.08.23-.15.27 1.05.29 1.57-.48 2.29-.07a.35.35 0 0 0 .13.25 8.6 8.6 0 0 1-1.45-.07c0 .39.67.46.13 1 .55-.29 1.48-.92 2.14-.74a.32.32 0 0 1 .08.13h-.06a.53.53 0 0 0 .41-.06 1.88 1.88 0 0 0 .55.12c.08.32.78.17 1.11.19 0-.43.42-.36 0-.71.06 0-.06 0-.28.07h-.99c.26-.22.54-.4.91-.16a7.71 7.71 0 0 1 .48-.68c.46.58 1.35.9 1.47 1.26 1-.23 2.43-.15 3.08-.94.29-.11.34.22.45.35-.17.08-.37.06-.46.18.58-.2 1.73-.08 1.87-.63.74.25-.41.51.6.41l-.13.17c2 .89 3.24-1.41 5.46-.27-.16-.07-.23-.11-.26-.2 2.52.5 5.2-.47 7.69.33.71.16.78-.2 1.22-.47l.15.46.74-.53c1.05-.38 1.81 1.12 3.14.39l-.17-.3c.48 0 1.51-.18 1.43.17.05-.06.15-.32.34-.16v.24l1.17-.41c.9.17-.15.94 1.18 1 .49-.09 1.4-.69 1.21-.85s-.5-.15-.52-.39l.45-.12c.08-.7.43-1.41-.68-1.9l-.77.43-.24-.34h.64c-.36-.32-.6 0-.86.15a.6.6 0 0 0-.32-.37l-.76.67c-.09-.28.34-.55-.16-.7-.36.31.34.62-.25.82-.37-.32-.26-.58-.69-.3-.06-.18 0-.3.2-.38-.39.22-1 .09-1.22.46-.38-.39-1.3.11-1.26-.55a2.14 2.14 0 0 1-1 .54c.64-.79-1.32 0-1.15-.89-.48.71-1.73.31-2.58.71 0-.06.14-.17.22-.14a2.32 2.32 0 0 1-.92-.41c-.06.59-.81.73-1.21 1.09-.58-.57.36-.69.18-1.24 0 .48-1 .48-.82.88-.45-.35-.38-.17-.61-.66-.08.73-.42.12-.79.57-.65-.36-.17-.68-.88-.46-.43-.25.21-.52.21-.52zm-16.89 1.28h.35zm-1.42 0a5.82 5.82 0 0 0 .62 0c.05.14 0 .29-.15.29.08-.08-.26-.21-.47-.29zm3 2.92c-.22.06-.3 0-.33-.11a2.18 2.18 0 0 0 .39 0v-.05a.45.45 0 0 1-.06.16z"/><path class="cls-1" d="M587.58 99.29a.24.24 0 0 1 .09 0 .55.55 0 0 0-.14-.09s0 .08-.07.13zm-128.64-.62a.17.17 0 0 1-.06-.06.13.13 0 0 1 .06.06zm105.64-2.56v.11l.12-.09-.12-.02zm-113.46 1.11a.17.17 0 0 0-.1-.11s.05.07.1.11zm-3.37-.1l-.48-.15a2.06 2.06 0 0 0 .48.15zm-2.6-.2a.7.7 0 0 0 0 .18zm41.27-.5h.1c.24-.1.08-.07-.1 0zm-12.28.99a1.66 1.66 0 0 1 .4-.2c-.22-.04-.39-.04-.4.2zm26-1.5zm-25.03 1.3a.8.8 0 0 0-.57 0 1.22 1.22 0 0 0 .57 0zm-41.21-.49h-.13a.06.06 0 0 1 0 .06zm-.14.05h-.14c.06.05.12.05.14 0zm-.43.16l.29-.11c-.1 0-.23-.01-.29.11zm4.01-.01v-.15a.21.21 0 0 0 0 .15zm1.04-.05c-.25 0-.62-.32-1-.23v.13c.16-.23.76.36 1 .1zm4.36 1.89l-.88-.12c.16.17.36.38 0 .42 1.06.49-.27-.36.88-.3zm2.71.24c-.47.08 0 .24 0 .33.28-.15.35-.19 0-.33zm19.61 0l-.05.39c.36-.06-.01-.15.05-.39zm3.75-1.98l-.36-.24-.16.35.52-.11zm2.21 2.73l-.16.06.61-.14-.45.08zm32.98-.13l-.11-.48c-.29.09-.34.62.11.48zm14.17-.48a.56.56 0 0 0 .8.15c-.32-.03-.64-.22-.8-.15zm42.63.77l-.28.15.54-.13-.26-.02z"/><path d="M65.29 23.36h5.08v-15h-4.28V5.47a15.37 15.37 0 0 0 5.5-2h3.49v19.89h4.45v3.81H65.29zM114.4 1.12v28.8h-4.16v-1.7H91v1.7h-4V1.12zm-4.16 23.55V5H91v19.67zm-3.1-15.87V21h-13V8.8zm-3.84 3.33h-5.63v5.53h5.63zm31.7 12.6c1.22-.16 2.11-.32 3-.51 4.06-1 7.19-3.87 7.19-8.48 0-4.38-2.36-7.64-6.62-8.38a68.64 68.64 0 0 1-1.96 8.64c-1.89 6.4-4.64 10.3-8.09 10.3s-6.47-3.87-6.47-9.22c0-7.29 6.37-13.56 14.59-13.56 7.84 0 12.8 5.47 12.8 12.38 0 6.66-4.09 11.39-12.09 12.61zm-2.46-9.6a50.93 50.93 0 0 0 1.69-7.67 9.93 9.93 0 0 0-8 9.18c0 3.2 1.28 4.77 2.47 4.77s2.54-1.99 3.82-6.28zm31.02 3.46c1-.42 2-.83 2.94-1.25l.87 3.36c-3.4 1.7-7 3.39-10 4.77l-1.53-3.84c1.15-.42 2.56-1 4.16-1.6V11h-3.75V7.42H160V.48h3.55v6.94h3.23V11h-3.23zM180.64 26c1.76 0 2.08-.74 2.37-4a9.69 9.69 0 0 0 3.33 1.38c-.51 4.48-1.63 6-5.38 6h-6.81c-4.32 0-5.57-1.18-5.57-5.6v-8.26l-1.73.73-1.4-3.39 3.13-1.31V3.14h3.65V10l2.66-1.12V0h3.55v7.3L181 6.24l.68-.45.67-.45 2.65.93-.12.64c0 6.08-.07 9.92-.23 11.23A2.73 2.73 0 0 1 183 20.8a9 9 0 0 1-3.33.45 10.17 10.17 0 0 0-.8-3.2c.55.06 1.25.06 1.54.06s.57-.13.7-.7.1-2.85.1-7.39l-2.75 1.21v11.3h-3.55v-9.76l-2.66 1.15v9.85c0 1.89.29 2.18 2.24 2.18zm38.44-1.94a29.4 29.4 0 0 1-3.75 2 29.64 29.64 0 0 0 6.15 1 9.82 9.82 0 0 0-1.86 2.88c-4.48-.48-7.81-1.6-10.21-3.62l.1 2c-4.26.51-8.71 1.05-12 1.47l-.61-2.91c.9-.1 1.92-.19 3-.32V23h-2.75a12.79 12.79 0 0 1-3.52 6.65 12.17 12.17 0 0 0-2.63-2.32c3-2.69 3.3-6.5 3.3-9.32V14h25.37v2.4h-22v1.73a21.27 21.27 0 0 1-.13 2.46h23.62V23H217zm-23.43-13.53h-3.36V4.9h12.07V3.81h-9.89V1.12h23.58v2.69h-10V4.9h12.32v5.63h-3.52V7.14h-8.8v6.2h-3.71v-6.2h-8.71zm.35.47h7.36v1.88H196zm7.32-2.88V10h-6.62V8.13zm-4.48 11.36v-2.14h19v2.15zm5 6.65l4.83-.54a13.62 13.62 0 0 1-1.98-2.59h-2.88zm12-18V10h-6.69V8.13zM209.09 11h7.46v1.88h-7.46zm1 12a8.23 8.23 0 0 0 2.56 2 31.29 31.29 0 0 0 3.17-2zm30.2-21c-.19.84-.41 1.83-.57 2.63-.16 1-.42 2.11-.64 3.26 1-.06 2-.13 2.65-.13 3.36 0 5.73 1.51 5.73 6 0 3.74-.45 8.8-1.79 11.55-1.06 2.21-2.82 2.91-5.22 2.91a18 18 0 0 1-3.77-.44l-.71-4.2a17.83 17.83 0 0 0 3.88.68 2.3 2.3 0 0 0 2.36-1.38c.9-1.76 1.31-5.54 1.31-8.67 0-2.53-1.08-2.88-3.1-2.88-.51 0-1.28.06-2.17.13-1.22 4.8-3.52 12.25-6.44 16.92l-4.16-1.66c3.11-4.16 5.25-10.5 6.4-14.82-1.12.13-2.11.26-2.72.36-.89.09-2.52.32-3.52.48l-.35-4.29a29 29 0 0 0 3.36 0c1 0 2.5-.13 4.1-.26a35 35 0 0 0 .67-6.72zm11 3a57.24 57.24 0 0 1 5.53 11.77l-4 1.89c-.83-3.52-3.1-9.24-5.37-12.06zm19.18 10.26a15.55 15.55 0 0 1 9.31-3c5.57 0 8.8 3.43 8.8 7.27 0 5.79-4.57 10.24-17.76 9.09l-1.21-4.16c9.5 1.34 14.52-1 14.52-5 0-2.05-1.95-3.55-4.73-3.55a11.12 11.12 0 0 0-8.74 3.71 7 7 0 0 0-1.18 1.86l-3.68-.93a116.57 116.57 0 0 0 1.57-13.22l4.28.58c-.41 1.72-.96 5.53-1.18 7.35zm1-13.76A100.19 100.19 0 0 0 284.13 4l-1 3.9C280 7.46 272.9 6 270.44 5.34zm55 9.92a38.32 38.32 0 0 1-5.31 6.43v7.46c0 2.18-.42 3.33-1.83 3.94s-3.45.73-6.53.7a15.7 15.7 0 0 0-1.34-4c2 .13 4.26.1 4.9.06s.86-.19.86-.73v-4.1a55.64 55.64 0 0 1-17.5 8.51 34.49 34.49 0 0 0-2.56-3.48 53.53 53.53 0 0 0 13.4-5.21c-4.6.38-9 .73-12.44 1l-.51-3.78c1.37-.06 2.94-.13 4.7-.19V3.1h6.62A28.73 28.73 0 0 0 310 0l4.67.45c-.45.93-1 1.82-1.44 2.65h8V12c.57-.74 1.12-1.54 1.63-2.34zm-20.35-5v1.8h11.1V6.37zm11.1 4.57h-11.1v1.92h11.1zm-11.1 6.82c3.13-.16 6.52-.35 9.92-.55.41-.32.8-.67 1.18-1v-.57h-11.1zm41.12 4.75c.06-.93.09-2.4.13-3.78-2.34 1.28-3.62 2.53-3.62 4.1 0 1.76 1.5 2.24 4.61 2.24a48.15 48.15 0 0 0 9-.93l-.13 4.13a89.38 89.38 0 0 1-9 .51c-5 0-8.7-1.18-8.7-5.28S343.4 17 347 15.1a2.47 2.47 0 0 0-2.2-1.1 7.82 7.82 0 0 0-4.95 2.18 40.36 40.36 0 0 0-3 3.49l-3.39-2.53a31 31 0 0 0 7-8.7h-.39c-1.28 0-3.61-.07-5.34-.23v-3.7a40.06 40.06 0 0 0 5.57.35h1.53a17.12 17.12 0 0 0 .64-3.61l4.16.35c-.16.77-.38 1.86-.77 3.14a73.4 73.4 0 0 0 9-.93v3.71a103.18 103.18 0 0 1-10.33.83 20.21 20.21 0 0 1-1.83 3.2 9.84 9.84 0 0 1 3.59-.64 4.31 4.31 0 0 1 4.22 2.47c1.63-.77 3-1.32 4.29-1.89s2.33-1.09 3.48-1.64l1.6 3.68a34.43 34.43 0 0 0-3.77 1.35c-1.41.54-3.2 1.25-5.15 2.14 0 1.76.09 4.1.13 5.54zm49.31-6.79h-7.84v9.76c0 2.18-.45 3.2-1.92 3.78s-3.62.67-6.62.67a14.15 14.15 0 0 0-1.35-3.87c2.08.1 4.45.06 5.09.06s.89-.16.89-.7v-9.7h-16.73v-3.71h16.73V8.13h3.91v3.93h7.84zm-24.06-5h-3.88V3.2h11.59V.06h4V3.2h11.65v7.52h-4.07v-4h-19.29zm2.11 5.82a29.13 29.13 0 0 1 5 6.37l-3.26 2.21a27.9 27.9 0 0 0-4.83-6.63zm51.64-11.37c-.76.48-1.5 1-2.2 1.44-1.7 1.18-5 4-7 5.59a11 11 0 0 1 3-.35c5.37 0 9.47 3.36 9.47 8 0 5-3.81 9-11.46 9-4.41 0-7.74-2-7.74-5.18 0-2.56 2.33-4.93 5.69-4.93 3.91 0 6.27 2.4 6.75 5.41a4.63 4.63 0 0 0 2.6-4.32c0-2.85-2.88-4.77-6.56-4.77-4.87 0-8 2.59-11.43 6.43l-2.88-3c2.24-1.82 6.05-5 7.94-6.59s5.06-4.12 6.62-5.5c-1.63 0-6 .22-7.64.35a20.24 20.24 0 0 0-2.6.26l-.12-4.13a27.64 27.64 0 0 0 2.88.16c1.66 0 8.44-.16 10.23-.32a15.4 15.4 0 0 0 2.44-.32zm-7.16 19.93c-.19-2-1.38-3.39-3.11-3.39-1.18 0-2 .7-2 1.5 0 1.19 1.35 2 3.2 2a17.85 17.85 0 0 0 1.91-.11zm47.26-11.07a59 59 0 0 1-5.89 3.92 16.26 16.26 0 0 0 7.14 6.43 16.16 16.16 0 0 0-2.66 3.3c-5.69-3-8.86-8.93-10.68-16.39h-.07a20.13 20.13 0 0 1-2.65 1.86c6 5.25 5.79 13.22 2.62 15.52a5.27 5.27 0 0 1-3.9 1.34 25.34 25.34 0 0 1-2.72-.06 8.12 8.12 0 0 0-1.09-3.65c1.21.1 2.24.16 3.07.16a2.26 2.26 0 0 0 1.92-.67 4.19 4.19 0 0 0 1.06-3.58 49.2 49.2 0 0 1-12.23 6.33 17 17 0 0 0-2-3.17 36.71 36.71 0 0 0 13.34-6.46 11 11 0 0 0-.61-1.12 47.51 47.51 0 0 1-9.69 4.8 14.17 14.17 0 0 0-1.92-2.88 34.61 34.61 0 0 0 9.89-4.16l-.8-.77a47.81 47.81 0 0 1-7.59 2.72 21.91 21.91 0 0 0-1.95-3 39 39 0 0 0 9.79-3.24h-4.67V8.1h17.18v3.19h-3.63a28.75 28.75 0 0 0 1.32 3.71 38.2 38.2 0 0 0 4.44-3.49zM443 9.73h-3.74V2.59h11.52V.1h3.9v2.49h11.71v7.14h-3.9V6.05H443zM486.69 2c-.19.84-.41 1.83-.57 2.63-.16 1-.42 2.11-.64 3.26 1-.06 2-.13 2.65-.13 3.36 0 5.73 1.51 5.73 6 0 3.74-.45 8.8-1.79 11.55-1.06 2.21-2.82 2.91-5.22 2.91a18 18 0 0 1-3.77-.44l-.71-4.2a17.83 17.83 0 0 0 3.88.68 2.3 2.3 0 0 0 2.36-1.38c.9-1.76 1.32-5.54 1.32-8.67 0-2.53-1.09-2.88-3.11-2.88-.51 0-1.28.06-2.18.13-1.21 4.8-3.51 12.25-6.43 16.92l-4.16-1.66c3.11-4.16 5.25-10.5 6.4-14.82-1.12.13-2.11.26-2.72.36-.89.09-2.52.32-3.52.48l-.35-4.29a29 29 0 0 0 3.36 0c1 0 2.5-.13 4.1-.26A35 35 0 0 0 482 1.5zm10.95 3a57.24 57.24 0 0 1 5.53 11.77l-4 1.89c-.83-3.52-3.1-9.24-5.37-12.06zm19.23 10.26a15.55 15.55 0 0 1 9.31-3c5.57 0 8.8 3.43 8.8 7.27 0 5.79-4.58 10.24-17.76 9.09L516 24.45c9.5 1.34 14.52-1 14.52-5 0-2.05-1.95-3.55-4.73-3.55a11.12 11.12 0 0 0-8.74 3.71 7 7 0 0 0-1.18 1.86l-3.68-.93a116.57 116.57 0 0 0 1.57-13.22l4.28.58c-.4 1.73-.95 5.54-1.17 7.36zm1-13.76A100.19 100.19 0 0 0 530.53 4l-1 3.9c-3.2-.41-10.27-1.89-12.73-2.53zm32.6 27.87a59.88 59.88 0 0 0-6.88-7.07l3.33-2.88a60.55 60.55 0 0 1 7 7zM14.84 57.79a51.89 51.89 0 0 1-2.63 5.85v22.82h-3.8V69.72a33.94 33.94 0 0 1-2.24 2.69 25.46 25.46 0 0 0-2-4 32.81 32.81 0 0 0 7.13-11.8zm19.42 5.28h-1.92V82c0 2.21-.48 3.24-1.86 3.84s-3.52.71-6.49.71a14.55 14.55 0 0 0-1.28-3.91c2.08.1 4.32.1 5 .1s.83-.19.83-.8V63.07H14.55v-3.65h19.71zm-15.78 15v2.08h-3.55V66.52h10.66v11.59zm0-8.29v5H22v-5zm49.7-12.05v28.79H64v-1.69H44.79v1.69h-4V57.73zM64 81.28V61.63H44.79v19.65zM60.92 65.4v12.16H47.86V65.4zm-3.84 3.33h-5.63v5.54h5.63zm41.92.99c2.11 2.69 3.07 4.93 3.07 7.62 0 4.77-4.29 8.22-11.23 8.22-5 0-8.51-2.17-8.51-7.45 0-.77.09-1.89.22-3.2a36.25 36.25 0 0 1-6.08-1.06l.26-3.85A26.47 26.47 0 0 0 83 71.26c.19-1.41.35-2.88.54-4.32a39.17 39.17 0 0 1-6.3-1.12l.22-3.68a29.08 29.08 0 0 0 6.5 1.18c.12-1 .19-1.82.25-2.52a19.67 19.67 0 0 0 .04-2.8l4.44.26c-.25 1.15-.41 2-.54 2.81-.1.55-.19 1.38-.35 2.4a46.89 46.89 0 0 0 5.82-.38l-.13 3.77a54.69 54.69 0 0 1-6.17.29c-.19 1.41-.39 2.91-.55 4.32H87c2 0 4.28-.16 6.36-.38l-.09 3.77c-1.79.16-3.65.29-5.6.29h-1.28c-.06.93-.13 1.73-.13 2.31 0 2.59 1.6 4 4.74 4 4.41 0 6.84-2 6.84-4.64 0-2.15-1.21-4.19-3.26-6.15zm28.83-.54c2.11 6.24 6 11.26 12 13.7a15.32 15.32 0 0 0-2.83 3.58c-5.79-2.72-9.5-7.39-12-13.57a22 22 0 0 1-12 13.6 11.19 11.19 0 0 0-2.84-3.23 19.2 19.2 0 0 0 11.61-14.08h-11v-3.94h11.65c.32-3 .29-5.91.32-8.54h4.16c0 2.63-.06 5.57-.38 8.54h12.57v3.94zm44.06 0a36.32 36.32 0 0 1-4.89 1.28c.8 1.7 1.69 3.55 2.62 5.28l-1.89 2.4c-1.76-.32-4.8-.8-6.91-1.06l.35-3c1.25.16 2.5.26 3.36.36l-1.44-3.3a79.61 79.61 0 0 1-13.92.19l-.17-3.69a64.52 64.52 0 0 0 12.64.07l-.54-1.25-.77-1.79a63.83 63.83 0 0 1-10.91-.13l-.19-3.62a59 59 0 0 0 9.6.36 26.67 26.67 0 0 0-1.54-2.72l4.51-.87a29.58 29.58 0 0 0 1 3.17 37.81 37.81 0 0 0 6.08-1.47l.68 3.55a45.71 45.71 0 0 1-5.44 1.28l.6 1.37.74 1.6a34.18 34.18 0 0 0 5.66-1.56zm-17.76 5.95a9.55 9.55 0 0 0-.76 3.07c0 2 1.4 3.33 5.53 3.33a45.89 45.89 0 0 0 8.38-.7l-.12 4.06a55.89 55.89 0 0 1-8.16.61c-5.92 0-9.57-2-9.57-6.4a16.5 16.5 0 0 1 .77-4.32zm43.52-10.01a45.79 45.79 0 0 1-5.5 1.08 58.19 58.19 0 0 1-6.78 13.57l-3.88-2A48.45 48.45 0 0 0 188 66.62h-1.63c-1.32 0-2.6 0-4-.09l-.29-3.72a40.39 40.39 0 0 0 4.22.23c.93 0 1.89 0 2.85-.1a27.31 27.31 0 0 0 .87-5.31l4.38.45c-.26 1-.64 2.62-1.09 4.32a34.9 34.9 0 0 0 4.26-1zm4.16 2.88c-.09 1.35 0 2.66 0 4.07 0 .89.1 2.43.19 4a21 21 0 0 1 6.56 4.06l-2.11 3.39a28.65 28.65 0 0 0-4.29-3.36v.29c0 3-1.6 5.25-6.11 5.25-3.93 0-7-1.76-7-5.25 0-3.1 2.6-5.5 7-5.5a20.68 20.68 0 0 1 2.14.13c-.09-2.37-.25-5.16-.35-7.08zm-3.49 10.5a11.28 11.28 0 0 0-2.56-.32c-1.82 0-3 .77-3 1.89s1 2 2.72 2c2.14 0 2.84-1.25 2.84-2.94zm8.93-8.8a42.38 42.38 0 0 0-7.61-4.51l2-3.14a56.58 56.58 0 0 1 7.81 4.29zm15.68 5.5l2.95-1.2.86 3.36c-3.39 1.69-7 3.39-10 4.77l-1.54-3.84c1.15-.42 2.56-1 4.16-1.6v-9h-3.74V64h3.74v-7h3.55v7h3.24v3.61h-3.24zM240 82.56c1.76 0 2.08-.74 2.37-4a9.68 9.68 0 0 0 3.33 1.37c-.52 4.48-1.64 6-5.38 6h-6.82c-4.31 0-5.56-1.19-5.56-5.6v-8.21l-1.73.74-1.41-3.39 3.2-1.31v-8.42h3.64v6.85l2.66-1.12v-8.83h3.55v7.29l2.53-1.09.67-.44.67-.45 2.66.93-.13.64c0 6.08-.06 9.92-.22 11.23a2.72 2.72 0 0 1-1.63 2.65 8.87 8.87 0 0 1-3.33.45 10.74 10.74 0 0 0-.8-3.2 13.26 13.26 0 0 0 1.53.07c.39 0 .58-.13.71-.71s.09-2.85.09-7.39l-2.75 1.22v11.29h-3.55v-9.76l-2.66 1.15v9.86c0 1.89.29 2.18 2.25 2.18zm38.45-1.89a28 28 0 0 1-3.74 2 29 29 0 0 0 6.14 1 10.28 10.28 0 0 0-1.85 2.85c-4.48-.48-7.81-1.6-10.21-3.61l.1 2c-4.26.52-8.71 1.06-12 1.48l-.6-2.92c.89-.09 1.92-.19 3-.32v-3.54h-2.76a12.71 12.71 0 0 1-3.53 6.66 12.42 12.42 0 0 0-2.65-2.34c2.94-2.69 3.29-6.49 3.29-9.31v-4.06H279V73h-22v1.72a24.09 24.09 0 0 1-.13 2.47h23.61v2.46h-4.16zM255 67.13h-3.36V61.5h12.06v-1.09h-9.88v-2.68h23.58v2.68h-10v1.09h12.32v5.63h-3.52v-3.39h-8.8V70h-3.71v-6.26H255zm.35.48h7.36v1.89h-7.36zm7.33-2.88v1.89h-6.62v-1.89zm-4.48 11.36V74h19v2.14zm5 6.66l4.8-.55a12.56 12.56 0 0 1-1.95-2.59h-2.88zm12-18v1.89h-6.69v-1.91zm-6.69 2.88h7.45v1.87h-7.45zm1 12a8.17 8.17 0 0 0 2.56 2 34.49 34.49 0 0 0 3.17-2zm30.16-21.04c-.19.83-.42 1.82-.58 2.62-.16 1-.41 2.11-.64 3.27 1.06-.07 2-.13 2.66-.13 3.36 0 5.73 1.5 5.73 6.05 0 3.74-.45 8.8-1.79 11.55-1.06 2.21-2.82 2.91-5.22 2.91a17.47 17.47 0 0 1-3.78-.45l-.7-4.19a18.39 18.39 0 0 0 3.87.67 2.31 2.31 0 0 0 2.37-1.37c.89-1.76 1.31-5.54 1.31-8.68 0-2.52-1.09-2.88-3.1-2.88-.51 0-1.28.07-2.18.13-1.21 4.8-3.52 12.26-6.43 16.93L287 83.36c3.1-4.16 5.25-10.5 6.4-14.82-1.12.13-2.11.26-2.72.35-.9.1-2.53.32-3.52.48l-.35-4.29a26.91 26.91 0 0 0 3.36 0c1 0 2.49-.12 4.09-.25a35.16 35.16 0 0 0 .68-6.72zm10.94 3a57.12 57.12 0 0 1 5.54 11.78l-4 1.89c-.83-3.52-3.11-9.25-5.38-12.06zm19.24 10.28a15.51 15.51 0 0 1 9.31-3c5.56 0 8.8 3.42 8.8 7.26 0 5.8-4.58 10.24-17.76 9.09l-1.2-4.17c9.5 1.35 14.53-1 14.53-5 0-2-1.95-3.55-4.74-3.55a11.1 11.1 0 0 0-8.79 3.69 6.82 6.82 0 0 0-1.15 1.81l-3.68-.92a114.6 114.6 0 0 0 1.57-13.22l4.29.58c-.42 1.8-.96 5.56-1.18 7.43zm1-13.76a99.78 99.78 0 0 0 12.67 2.46l-1 3.91c-3.2-.42-10.27-1.89-12.74-2.53zm54.07 12.57a59.63 59.63 0 0 1-5.92 3.88 16.41 16.41 0 0 0 7.16 6.44 16.05 16.05 0 0 0-2.65 3.29c-5.7-3-8.87-8.92-10.69-16.38h-.06a21.25 21.25 0 0 1-2.66 1.86c6 5.24 5.79 13.21 2.62 15.52a5.27 5.27 0 0 1-3.9 1.34 25.52 25.52 0 0 1-2.72-.07 7.84 7.84 0 0 0-1.1-3.65c1.22.09 2.24.16 3.08.16a2.3 2.3 0 0 0 1.92-.67 4.2 4.2 0 0 0 1.05-3.59 49.51 49.51 0 0 1-12.22 6.34 16.19 16.19 0 0 0-2-3.17 36.92 36.92 0 0 0 13.35-6.46 11.93 11.93 0 0 0-.61-1.12 47.59 47.59 0 0 1-9.7 4.8 12.91 12.91 0 0 0-1.87-2.88 34.49 34.49 0 0 0 9.89-4.16c-.25-.26-.51-.52-.8-.77a47.35 47.35 0 0 1-7.58 2.72 24.08 24.08 0 0 0-2-3 38.69 38.69 0 0 0 9.79-3.23h-4.67V64.7h17.18v3.2h-3.65a28.05 28.05 0 0 0 1.31 3.71 38.36 38.36 0 0 0 4.45-3.49zm-23.39-4.35h-3.75V59.2h11.52v-2.5h3.91v2.5h11.71v7.13H381v-3.68h-19.47zm43.07 2.47s0 1-.07 1.5c-.35 9.82-.7 13.57-1.6 14.78a3 3 0 0 1-2.2 1.32 15.1 15.1 0 0 1-3.3.12 8.88 8.88 0 0 0-1-3.45 18.6 18.6 0 0 0 2.4.13 1 1 0 0 0 1-.48c.51-.68.86-3.33 1.09-10.47h-2.75c-.45 5.63-1.54 10.72-4.23 14.34a9.86 9.86 0 0 0-2.65-2.66c3.23-4.29 3.52-11.29 3.61-18.59h-3.1v-3.52h5.28V56.7h3.68v5.12h4.16v2a22.79 22.79 0 0 0 3.36-7.16l3.45.76a26.06 26.06 0 0 1-1.09 3.07H421v3.43h-12a24.31 24.31 0 0 1-2.62 3.77 21.31 21.31 0 0 0-3-2l.26-.26h-5.15c0 1.15-.07 2.3-.1 3.46zm11.1 8.32a12.32 12.32 0 0 0 6.3 6.49 13.54 13.54 0 0 0-2.4 2.91 13.8 13.8 0 0 1-5.69-6.2 15 15 0 0 1-6.85 6.2 11.59 11.59 0 0 0-2.43-2.59c4.45-1.89 6.14-4.45 6.78-6.81h-5.73v-3.4h6.11v-3.29h-1.5a19.22 19.22 0 0 1-1.85 2.91 20.1 20.1 0 0 0-3-2 17.22 17.22 0 0 0 3.56-7.18l3.43.76c-.2.74-.45 1.48-.71 2.18h8.9v3.33h-5.25v3.29h5.73v3.4zm26.11 2.04c.07-.92.1-2.4.13-3.77-2.34 1.28-3.61 2.53-3.61 4.09 0 1.76 1.5 2.24 4.6 2.24a48.89 48.89 0 0 0 9-.92l-.12 4.12a86.59 86.59 0 0 1-9 .52c-5 0-8.71-1.19-8.71-5.28s3.84-6.6 7.46-8.45a2.47 2.47 0 0 0-2.21-1.09 7.82 7.82 0 0 0-5 2.18 41.71 41.71 0 0 0-2.94 3.48l-3.39-2.52a31.19 31.19 0 0 0 7-8.71h-.38c-1.28 0-3.62-.06-5.35-.22v-3.71a41.66 41.66 0 0 0 5.57.35h1.54a17.76 17.76 0 0 0 .64-3.62l4.16.36a38.1 38.1 0 0 1-.77 3.13 73.82 73.82 0 0 0 9-.93v3.72c-3 .44-6.95.7-10.34.83a19.43 19.43 0 0 1-1.82 3.2 9.79 9.79 0 0 1 3.58-.64A4.31 4.31 0 0 1 445 70c1.64-.77 3-1.31 4.29-1.89s2.34-1.09 3.49-1.63l1.6 3.68a36.66 36.66 0 0 0-3.78 1.34c-1.4.55-3.2 1.25-5.15 2.15 0 1.76.1 4.09.13 5.53zm49.31-6.78h-7.84v9.76c0 2.18-.44 3.2-1.92 3.78s-3.61.67-6.62.67a14.34 14.34 0 0 0-1.34-3.87c2.08.09 4.45.06 5.08.06s.9-.16.9-.7v-9.7h-16.73v-3.71h16.73v-3.94h3.9v3.94h7.84zm-24.06-5.06h-3.87V59.8h11.58v-3.13h4v3.13h11.65v7.52h-4.06v-4h-19.3zm2.11 5.83a29.2 29.2 0 0 1 5.06 6.37l-3.23 2.2a28.21 28.21 0 0 0-4.84-6.62zm51.65-11.33c-.77.48-1.5 1-2.21 1.44-1.69 1.18-5 4-7 5.6a10.64 10.64 0 0 1 3-.35c5.38 0 9.47 3.36 9.47 8 0 5-3.81 9-11.45 9-4.42 0-7.75-2-7.75-5.19 0-2.56 2.34-4.93 5.7-4.93 3.9 0 6.27 2.4 6.75 5.41a4.62 4.62 0 0 0 2.59-4.32c0-2.85-2.88-4.77-6.56-4.77-4.86 0-8 2.6-11.42 6.44l-2.88-3c2.24-1.82 6.05-5.06 7.94-6.59s5-4.13 6.62-5.51c-1.63 0-6 .23-7.65.36a20.32 20.32 0 0 0-2.59.25l-.13-4.12c.9.09 2 .16 2.88.16 1.66 0 8.45-.16 10.24-.32a14.77 14.77 0 0 0 2.43-.33zm-7.17 19.94c-.19-2.05-1.37-3.4-3.1-3.4-1.19 0-1.95.71-1.95 1.51 0 1.18 1.34 2 3.2 2a17.64 17.64 0 0 0 1.85-.11zm47.27-11.08a59.63 59.63 0 0 1-5.92 3.88 16.41 16.41 0 0 0 7.16 6.44 16.05 16.05 0 0 0-2.65 3.29c-5.7-3-8.87-8.92-10.69-16.38h-.06a21.25 21.25 0 0 1-2.66 1.86c6 5.24 5.79 13.21 2.62 15.52a5.27 5.27 0 0 1-3.9 1.34 25.52 25.52 0 0 1-2.72-.07 7.84 7.84 0 0 0-1.1-3.65c1.22.09 2.24.16 3.08.16a2.3 2.3 0 0 0 1.92-.67 4.2 4.2 0 0 0 1-3.59 49.51 49.51 0 0 1-12.22 6.34 16.19 16.19 0 0 0-2-3.17 36.92 36.92 0 0 0 13.35-6.46 11.93 11.93 0 0 0-.61-1.12 47.59 47.59 0 0 1-9.7 4.8 12.91 12.91 0 0 0-1.82-2.88 34.49 34.49 0 0 0 9.89-4.16c-.25-.26-.51-.52-.8-.77a47.35 47.35 0 0 1-7.58 2.72 24.08 24.08 0 0 0-2-3 38.69 38.69 0 0 0 9.79-3.23h-4.67V64.7h17.18v3.2h-3.65a28.05 28.05 0 0 0 1.31 3.71 38.36 38.36 0 0 0 4.45-3.49zm-23.39-4.35h-3.75V59.2h11.52v-2.5h3.91v2.5h11.71v7.13H557v-3.68h-19.47zm32.96 5.35c1.47-1.51 3.93-4.77 5.88-7 2.21-2.53 4.29-2.76 6.6-.51 2.14 2.11 4.67 5.37 6.55 7.42 2 2.21 4.71 5 7.75 7.77L594 83.07c-2.27-2.15-5-5.19-7-7.55s-4.32-5.35-5.83-7c-1.12-1.22-1.69-1.06-2.62.09-1.25 1.6-3.52 4.74-4.86 6.53-.74 1-1.44 2.18-2 3l-3.84-4a27.3 27.3 0 0 0 2.64-2.46zM613.05 81a5.17 5.17 0 1 1-5.19-5.18 5.18 5.18 0 0 1 5.19 5.18zm-2.31 0a2.87 2.87 0 1 0-2.88 2.85 2.87 2.87 0 0 0 2.88-2.85z"/></g></g></svg>