<svg xmlns="http://www.w3.org/2000/svg" viewBox="0 0 248.8 46.26"><defs><style>.cls-1{fill:#b18021}</style></defs><title>i-advance2</title><g id="Layer_2" data-name="Layer 2"><g id="SVG"><path class="cls-1" d="M46.69 10.79C39 21.48 32.32 33.18 33.08 41c.14 1.46.76 2 1.61 1.92 1.63-.16 4.38-2.5 6.93-5.64 1.65-2.06 3.69-5.16 4.55-6.49l.36.18a55.27 55.27 0 0 1-4.92 7.09c-2.61 3.2-5.29 5.66-8.2 5.94s-3.83-1.62-4-3.76a20.91 20.91 0 0 1 1.93-9.91l-6 .58C21.19 36.9 15 45.45 7.14 46.21c-3.38.33-6.78-.89-7.12-4.4-.16-1.63.62-3.39 2.42-3.56a2 2 0 0 1 2.23 1.64c.15 1.54-.77 2.28-2.27 2.42.24 2.44 2.86 3.57 4.91 3.37C15 44.93 21.4 35.5 25.51 29.83c5.57-7.63 12.14-15.61 20.85-19.27zm-15.18 19a64.93 64.93 0 0 1 10.6-16.36l-.1-.08c-6.38 4.16-11.32 10.17-16.27 17z"/><path class="cls-1" d="M67.23 10.48L72 9.75C67.25 19.59 57.3 36.8 57.62 40.1c.06.6.4 1 1 .94 1.2-.12 3.27-1.49 5.58-4.39a74.25 74.25 0 0 0 5.49-8l.45.18A82.7 82.7 0 0 1 65 36.44c-2.47 3.09-4.68 5.21-7.5 5.48a2.75 2.75 0 0 1-3.33-3.13l-.1-.08c-1.57 2-3.49 3.63-6.23 3.89s-3.93-1.73-4.15-4c-.56-5.74 5.4-12.41 11-13a3.84 3.84 0 0 1 4.08 2.4zm-9.89 17.81a2.13 2.13 0 0 0-2.5-2.18c-3.56.35-7.42 8.11-7 12.35.13 1.37.81 2.59 2.35 2.45 3.67-.36 7.52-8.77 7.15-12.62z"/><path class="cls-1" d="M75.44 24.11c-1.68 3.14-6.44 10.47-6.12 13.94a1.68 1.68 0 0 0 2.12 1.74c4.32-.42 8.3-8.37 7.94-13a4.16 4.16 0 0 1-.51-1.63 2 2 0 0 1 1.79-2.12c1.41-.14 2.34 1 2.5 3.52a12.54 12.54 0 0 1 0 2 5 5 0 0 0 3.5.92 5.4 5.4 0 0 0 4-3l.37.18a5.68 5.68 0 0 1-4.43 3.33 6 6 0 0 1-3.54-.87A13.69 13.69 0 0 1 71.4 40.31c-2.78.27-5-.63-5.33-3.71-.28-2.91 1.52-5.77 4.72-11.87z"/><path class="cls-1" d="M102.8 21.88l4.43-.69c-1.29 3.19-6.63 11.36-6.33 14.4a1 1 0 0 0 1.17 1c1.37-.13 3.73-2.13 6-5a80.91 80.91 0 0 0 5-7.19l.31.14a68.53 68.53 0 0 1-5.37 7.78c-2.43 3-4.94 5.19-7.55 5.45-1.8.17-3-.79-3.11-2.16a2.81 2.81 0 0 1 .06-1.13h-.08c-1.57 2.13-3.72 3.94-6.25 4.19-2.78.27-4-1.9-4.26-4.3-.54-5.56 5.66-12.43 11-12.94a3.65 3.65 0 0 1 4 2.28zM93.47 37c3.61-.62 7.49-9.63 7.18-12.84-.15-1.54-.71-2.4-2.34-2.24-3.93.39-7.62 8.74-7.28 12.2.16 1.59.69 3.01 2.44 2.88z"/><path class="cls-1" d="M114.35 28.27c1.42-2.21 5.52-9 10-9.43a2.63 2.63 0 0 1 3.13 2.46c.38 3.85-5.09 8.91-4.78 12.08a1 1 0 0 0 1.22 1c.81-.08 2.52-1.24 5.31-4.88 2.19-2.85 4.14-5.85 5.05-7.19l.45.18c-1.33 1.9-3.32 5-5.51 7.79-2.69 3.41-4.37 4.79-6.6 5a2.87 2.87 0 0 1-3.45-2.64c-.37-3.85 5.08-9 4.83-11.7a1.09 1.09 0 0 0-1.31-1c-3.38.33-10 11.43-11.76 15.88l-4.31.55c2.51-5.3 5.15-10.53 7.61-15.95l4.86-.64-4.81 8.33z"/><path class="cls-1" d="M131.9 19.57l.23-.8 3.29-.32 2.69-5.71 4.6-.62-3 5.91 5.44-.53-.31.81-5.53.54c-4.31 9-5.81 11.71-5.65 13.38a1.13 1.13 0 0 0 1.28 1.13c1.41-.14 3.79-1.93 6.19-4.75a69.11 69.11 0 0 0 5.36-7.52l.28.19a66.89 66.89 0 0 1-5.12 7.32c-2.4 2.91-5.18 5.39-7.79 5.64-1.8.17-3.5-.4-3.7-2.45-.29-2.95 2.11-6.3 5-12.54z"/><path class="cls-1" d="M158.54 16.46l4.43-.69c-1.29 3.19-6.63 11.36-6.33 14.4a1 1 0 0 0 1.17 1c1.37-.13 3.73-2.13 6-5A80.91 80.91 0 0 0 168.9 19l.31.14a68.8 68.8 0 0 1-5.38 7.78c-2.43 3-4.93 5.19-7.54 5.45-1.8.17-3-.79-3.11-2.16a2.81 2.81 0 0 1 .06-1.13h-.08c-1.57 2.13-3.72 3.94-6.25 4.19-2.78.27-4-1.9-4.26-4.3-.54-5.56 5.66-12.43 11-12.94a3.65 3.65 0 0 1 4 2.28zm-9.33 15.08c3.61-.62 7.49-9.63 7.18-12.84-.15-1.54-.71-2.4-2.34-2.24-3.93.39-7.62 8.74-7.28 12.2.16 1.63.69 3.05 2.44 2.88z"/><path class="cls-1" d="M159.21 34.8c-3 .33-4.37 2.19-4.1 5a4.64 4.64 0 0 0 5.26 4.33c8-.79 12.44-12.06 15.82-18.18l-.09-.07c-1.64 2.32-4 4.62-7 4.92-2.31.22-3.79-1.58-4-3.72-.55-5.61 5.11-12.72 10.76-13.27 2.14-.21 3.4.36 4.29 2.39l.81-1.94 4.34-.68c-2.58 5.52-4.91 11.28-7.69 16.86 6.19-2.46 10.3-8.21 13.65-13.72l.27.1c-3.27 5.89-7.92 11.79-14.21 14.25-3.42 7.51-9.21 12.82-17.38 13.62-4.19.41-8-.65-8.41-4.76-.31-3.12 2.43-5.16 5.3-5.44h2.38zm12.53-5.71c3.59-.35 7.28-9.14 7-12.39-.12-1.2-.47-2.59-2-2.44-4.19.41-7.91 8.33-7.55 12.1.11 1.64.62 2.91 2.55 2.73z"/><path class="cls-1" d="M209.19 15.16a47.72 47.72 0 0 1-5.75 7.84c-3.6 3.94-7.17 5.41-10.34 5.72a5 5 0 0 1-5.77-4.72c-.53-5.48 6.31-11.94 11.67-12.46 2.43-.23 4 .61 4.15 2.32.4 4.15-8.75 6.86-11.68 7.79a6.33 6.33 0 0 0-.07 1.56c.24 2.44 1.86 4 4.3 3.78s5.25-2 7.9-5a61.42 61.42 0 0 0 5.27-7.12zm-10.83-3c-2.87.28-6.4 6.16-6.85 9.1 4.57-1.4 8.38-5.31 8.11-8.1a1 1 0 0 0-1.26-1.01zM247.93 15c-1.76 4.06-4 8.61-9.05 9.09a11.69 11.69 0 0 1-5-1 12.22 12.22 0 0 0-4.63-1A2.75 2.75 0 0 0 227 23.8c-.44.78-.71 1.54-1.48 1.61-.3 0-.46-.21-.48-.47-.18-1.84 12.68-9 14.59-10.32 2.92-1.92 5.4-4.93 5-8.83A5 5 0 0 0 239.35 1a4.51 4.51 0 0 0-4 5c.18 1.84 1.18 3.21 3.06 3a3.19 3.19 0 0 0 1.66-.73 3.75 3.75 0 0 1-3.6 3.42c-2 .19-3.68-1-3.92-3.51C232.22 5 235.13.63 241.16 0c3.38-.33 7.2 1.2 7.6 5.27.76 7.79-10.17 10.54-15.22 13.62-1.27.77-2.58 1.5-3.63 2.25l.1.08a10.35 10.35 0 0 1 3.69-1.05c3.21-.31 5.94 1.06 8.29.83 2.91-.28 4.68-3.86 5.71-6.21z"/></g></g></svg>