<svg xmlns="http://www.w3.org/2000/svg" viewBox="0 0 412 293.96"><defs><style>.cls-1{fill:#393c45}.cls-2,.cls-4{fill:none;stroke-miterlimit:10}.cls-2{stroke:#000;stroke-width:3px}.cls-3{fill:#ebe0ca}.cls-4{stroke:#b18021;stroke-width:2px}</style></defs><title>i-circle1</title><g id="Layer_2" data-name="Layer 2"><g id="SVG"><path class="cls-1" d="M188.47 7.5h-2.94c-.13 0-.28 0-.28-.27V5.4c0-.25 0-.27.28-.27h8.25V3a16.43 16.43 0 0 0-.16-3c.87 0 1.77.07 2.58.16.2 0 .36.12.36.23a2.41 2.41 0 0 1-.16.6 9.67 9.67 0 0 0-.09 1.93v2.25H205c.19 0 .25 0 .25.27v1.83c0 .25 0 .27-.25.27h-7.87a24 24 0 0 0 8.92 8.62 6.11 6.11 0 0 0-1.17 1.68c-.19.37-.28.55-.44.55a1 1 0 0 1-.48-.23 24.11 24.11 0 0 1-7.76-8.76c0 6 .18 10.44.18 11.34 0 .21 0 .23-.28.23H194c-.26 0-.28 0-.28-.23 0-.87.16-5.1.19-11a23.52 23.52 0 0 1-7.25 8.42 1 1 0 0 1-.5.25c-.14 0-.23-.16-.44-.51a6 6 0 0 0-1.29-1.61 21.64 21.64 0 0 0 8.49-8.8zm31.23 8.34a3.47 3.47 0 0 0 1.89 1.91 13.15 13.15 0 0 0 4.25.46c3 0 6.51-.14 9.94-.48a4.4 4.4 0 0 0-.63 1.77c-.11.74-.11.74-.85.78-2.92.16-5.7.21-8.09.21a15.75 15.75 0 0 1-5.38-.65 4.4 4.4 0 0 1-2.25-2 28.88 28.88 0 0 1-2.33 2 2.18 2.18 0 0 0-.46.46.38.38 0 0 1-.34.21.43.43 0 0 1-.32-.28 20 20 0 0 1-.95-2.16 12 12 0 0 0 1.36-.71 14.93 14.93 0 0 0 1.91-1.47v-5.13h-1.1c-1.22 0-1.55.05-1.66.05s-.28 0-.28-.28V8.78c0-.23 0-.25.28-.25s.44.05 1.66.05h1.42c1.24 0 1.59-.05 1.73-.05s.25 0 .25.25-.05.79-.05 2.19zM216.37.69a.5.5 0 0 1 .27-.14c.07 0 .14 0 .23.14a20 20 0 0 1 2.88 3.4c.16.21.11.26-.14.46l-1.29 1c-.14.12-.2.17-.27.17s-.14-.07-.21-.19A17.88 17.88 0 0 0 215 2c-.16-.19-.14-.23.12-.42zM224 9.15h-3.13c-.13 0-.27 0-.27-.23V7.36c0-.23 0-.25.27-.25h5.68V4.85h-2.94c-.28.48-.6 1-.92 1.43-.23.3-.35.46-.48.46s-.28-.12-.51-.32a5.56 5.56 0 0 0-1.38-.86 12.71 12.71 0 0 0 2.3-3.63A6.93 6.93 0 0 0 223 .48a13.7 13.7 0 0 1 2 .6c.23.09.35.16.35.3s-.07.21-.18.32a2.6 2.6 0 0 0-.47.81l-.13.34h1.95v-.41a13.09 13.09 0 0 0-.15-2.44c.87 0 1.66.05 2.35.11.2 0 .34.12.34.26a.69.69 0 0 1-.11.39 4.1 4.1 0 0 0-.14 1.56v.53h4.67c.14 0 .25 0 .25.27v1.53c0 .23 0 .25-.25.25s-.81-.05-2.83-.05h-1.84v2.3h5.86c.15 0 .28 0 .28.25V9c0 .2 0 .23-.28.23h-3.15zm6 1.43c2 0 2.73-.05 2.87-.05s.25 0 .25.25v5.75c0 .13 0 .26-.25.26s-.85-.05-2.87-.05h-4.56c-2 0-2.73.05-2.89.05s-.26 0-.26-.26.05-.59.05-1.77v-2.2c0-1.18-.05-1.61-.05-1.78s0-.25.26-.25.87.05 2.89.05zm.76 1.95h-6.14v2.23h6.14zm94.09 117.61c-2.09 0-2.83.05-2.94.05s-.25 0-.25-.25v-1.68c0-.23 0-.26.25-.26s.85.05 2.94.05h5.66c2.12 0 2.83-.05 2.94-.05s.26 0 .26.26v1.68c0 .23 0 .25-.26.25s-.82-.05-2.94-.05h-1.66a21.41 21.41 0 0 1-1 2.74h5.03c.14 0 .28 0 .28.26s-.1 1.24-.1 3.4V142c0 1.87.05 3 .05 4a1.66 1.66 0 0 1-.57 1.44 3.11 3.11 0 0 1-1.82.4c-.64 0-.74 0-.81-.53a4.61 4.61 0 0 0-.22-1h-1.32c-.23 0-.25 0-.25-.25s.05-1.1.05-2.92v-8.24h-1.06v8.26c0 1.81.05 2.78.05 2.92s0 .25-.28.25h-1.24c-.23 0-.26 0-.26-.25s.05-1.11.05-2.92v-8.26h-1.06v9.71c0 2 .05 2.94.05 3.08s0 .23-.23.23h-1.7c-.23 0-.26 0-.26-.23s.05-1.11.05-3.22v-8.12c0-2.14-.05-3.1-.05-3.26s0-.26.26-.26h3.05a13 13 0 0 0 .92-2.74zm5.48 15.55c.43 0 .64-.16.64-.65V134.9h-1.1v10.79zm4.94-9.55c.23-.09.32-.09.44.12a17 17 0 0 1 1.91 4.32c.06.23 0 .3-.26.42l-1.42.71c-.28.14-.35.11-.4-.14a17.87 17.87 0 0 0-1.81-4.46c-.12-.21-.07-.28.18-.39zm5.43 4.37v4.65c0 1.29-.14 1.68-.71 2.16s-1.31.51-3.5.51c-.71 0-.71 0-.85-.6a5.08 5.08 0 0 0-.53-1.77c.83.07 1.66.09 2.35.09s.85-.19.85-.74V134h-4.32c-.14 0-.25 0-.25-.25v-1.89c0-.2 0-.23.25-.23h4.32v-1.33a22.2 22.2 0 0 0-.18-3.24c.85 0 1.63.07 2.43.16.23 0 .37.12.37.23a1 1 0 0 1-.14.48 7.66 7.66 0 0 0-.13 2.33v1.47h1.91c.12 0 .27 0 .27.23v1.89c0 .23 0 .25-.27.25h-1.91zm15.38-9.91c.33 8 3.8 12.63 9.46 14.9a6.79 6.79 0 0 0-1.27 1.8c-.18.39-.28.55-.46.55a1.37 1.37 0 0 1-.53-.21 14.78 14.78 0 0 1-8-10.21 14.8 14.8 0 0 1-.59 2.3c-1.29 3.73-3.82 6.12-7.82 8a1.72 1.72 0 0 1-.55.18c-.19 0-.28-.13-.46-.52a4.58 4.58 0 0 0-1.25-1.59c4.42-1.68 6.76-3.89 8-7.47a27 27 0 0 0 1-8.31 17.2 17.2 0 0 0-.16-2.73c.78 0 1.79.09 2.57.16.26 0 .42.18.42.32a1 1 0 0 1-.16.46 6.25 6.25 0 0 0-.17 1.68zm-5.49 1.47c.3.1.32.14.25.37a19.8 19.8 0 0 1-2.67 6.19c-.13.18-.22.18-.5.07l-1.66-.83c-.32-.16-.32-.25-.18-.44a13.73 13.73 0 0 0 2.55-5.72c.07-.26.12-.26.44-.17zm10.6.46a5.74 5.74 0 0 0 .37-1.31c.73.26 1.65.6 2.25.88.32.16.39.25.39.39a.43.43 0 0 1-.21.37 1.9 1.9 0 0 0-.5.73 27 27 0 0 1-2.28 4.19c-.2.32-.3.48-.43.48a1.25 1.25 0 0 1-.56-.28 7.64 7.64 0 0 0-1.56-.73 20.44 20.44 0 0 0 2.53-4.72zm10.05 2.05h-2.94c-.14 0-.28 0-.28-.28v-1.86c0-.26 0-.28.28-.28h8.25v-2.19a16.49 16.49 0 0 0-.16-3c.88 0 1.77.07 2.58.17.21 0 .37.11.37.23a2.85 2.85 0 0 1-.16.59 9.36 9.36 0 0 0-.1 1.93v2.26h8.65c.14 0 .25 0 .25.28v1.86c0 .25 0 .28-.25.28h-7.82a24 24 0 0 0 8.92 8.62 6.5 6.5 0 0 0-1.17 1.68c-.18.37-.27.55-.44.55a1 1 0 0 1-.48-.23 24.26 24.26 0 0 1-7.77-8.71c0 6 .18 10.44.18 11.34 0 .2 0 .23-.27.23h-2.12c-.25 0-.27 0-.27-.23 0-.88.16-5.11.18-11a23.5 23.5 0 0 1-7.24 8.42c-.26.18-.39.25-.51.25s-.23-.16-.44-.5a5.55 5.55 0 0 0-1.28-1.61 21.58 21.58 0 0 0 8.48-8.81zm24.68 8.35a3.5 3.5 0 0 0 1.89 1.91 13.15 13.15 0 0 0 4.25.46c3 0 6.51-.14 9.94-.49a4.3 4.3 0 0 0-.62 1.77c-.12.74-.12.74-.86.79-2.92.16-5.7.2-8.09.2a15.8 15.8 0 0 1-5.38-.64 4.47 4.47 0 0 1-2.26-2.05 29 29 0 0 1-2.32 2 2.19 2.19 0 0 0-.46.46.36.36 0 0 1-.34.2.43.43 0 0 1-.32-.27 18.94 18.94 0 0 1-1-2.16 10.51 10.51 0 0 0 1.36-.72 14.08 14.08 0 0 0 1.91-1.47v-5.1h-2.76c-.11 0-.28 0-.28-.27v-1.75c0-.23 0-.25.28-.25h4.86c.13 0 .26 0 .26.25s-.05.78-.05 2.18zm-3.33-15.16a.47.47 0 0 1 .27-.13.34.34 0 0 1 .23.13 19.66 19.66 0 0 1 2.88 3.41c.16.2.11.25-.14.46l-1.29 1c-.14.11-.2.16-.27.16s-.14-.07-.21-.18a18.25 18.25 0 0 0-2.83-3.57c-.16-.18-.14-.23.12-.41zm7.61 8.47h-3.13c-.13 0-.28 0-.28-.23v-1.61c0-.23 0-.25.28-.25s.9.05 3.13.05h2.55v-2.3h-2.94c-.28.48-.6 1-.92 1.42-.23.3-.35.46-.48.46s-.28-.11-.51-.32a5.49 5.49 0 0 0-1.38-.85 12.94 12.94 0 0 0 2.3-3.63 7.27 7.27 0 0 0 .39-1.45 15.12 15.12 0 0 1 2 .59c.23.1.35.17.35.3s-.07.21-.19.33a2.46 2.46 0 0 0-.45.8l-.14.35h1.95v-.42a13.15 13.15 0 0 0-.16-2.44 23.28 23.28 0 0 1 2.35.12c.2 0 .34.11.34.25a.69.69 0 0 1-.11.39 4.21 4.21 0 0 0-.14 1.57v.53h1.84c2 0 2.69-.05 2.83-.05s.25 0 .25.28v1.56c0 .23 0 .25-.25.25H405v2.3h2.71c2.23 0 3-.05 3.15-.05s.28 0 .28.25v1.61c0 .21 0 .23-.28.23h-3.15zm6.05 1.42h2.87c.14 0 .25 0 .25.25v5.75c0 .14 0 .25-.25.25s-.85-.05-2.87-.05h-4.56c-2 0-2.73.05-2.89.05s-.26 0-.26-.25v-5.75c0-.16 0-.25.26-.25h2.89zm.76 2h-6.14v2.23H407zM203.44 246.44c4.35 0 6.33 1.75 6.33 4.85a4.52 4.52 0 0 1-3.54 4.53l4.11 8.46H207l-3.61-8h-3.34v8h-3v-17.84zm-3.38 7.56h3.11c2.44 0 3.49-1 3.49-2.67s-.89-2.58-3.36-2.58h-3.24zm23.58-1.72c-.44-2.48-1.73-3.77-3.75-3.77-2.65 0-4.49 2.3-4.49 6.85s1.89 6.86 4.49 6.86c2.14 0 3.42-1.22 3.93-3.82l2.92.89c-.94 3.68-3.24 5.32-6.87 5.32-4.63 0-7.75-3.34-7.75-9.22s3.15-9.27 7.75-9.27a6.48 6.48 0 0 1 6.78 5.43zm-32.42 27.22c-.21.18-.42.34-.62.5s-.35.26-.46.26-.23-.16-.37-.53a5.41 5.41 0 0 0-.78-1.47 13.42 13.42 0 0 0 3.93-4 4.7 4.7 0 0 0 .51-1.19c.69.09 1.52.23 2.11.36.23.07.35.19.35.28a.45.45 0 0 1-.23.37l-.16.14a12.29 12.29 0 0 0 3.29 2.94 6.22 6.22 0 0 0-.88 1.2c-.18.34-.28.5-.41.5s-.26-.11-.51-.32a16.14 16.14 0 0 1-2.51-2.71 18.72 18.72 0 0 1-2.52 3h5.22c.14 0 .25 0 .25.27v1.43c0 .23 0 .25-.25.25s-.56-.05-1.87-.05v1.8h.07c1.73 0 2.25-.05 2.39-.05s.28 0 .28.25v1.52c0 .23 0 .26-.28.26s-.66-.05-2.39-.05h-.07V290c1-.32 2-.62 3-1a5.7 5.7 0 0 0-.14 1.28c0 .74 0 .72-.73 1-1.8.64-4.14 1.36-6.05 1.86a2.69 2.69 0 0 0-.8.32.73.73 0 0 1-.37.14.38.38 0 0 1-.37-.3 14.88 14.88 0 0 1-.55-1.95 14.18 14.18 0 0 0 2.23-.35l1.63-.39v-6.16h-.73c-1.73 0-2.26.05-2.4.05s-.25 0-.25-.26v-1.52c0-.23 0-.25.25-.25s.67.05 2.4.05h.73v-1.8c-1.17 0-1.56.05-1.68.05s-.25 0-.25-.25zm0 6c.3-.11.34-.09.44.16a17.27 17.27 0 0 1 .87 3.45c.05.23 0 .25-.28.37l-1 .39c-.32.11-.37.09-.42-.18a18.1 18.1 0 0 0-.82-3.45c-.1-.23 0-.28.25-.4zm7.15.25c.16.07.23.14.23.26a.3.3 0 0 1-.14.25c-.14.09-.2.21-.3.48-.18.58-.43 1.29-.66 1.84-.16.37-.21.53-.37.53a1.32 1.32 0 0 1-.48-.18 4.67 4.67 0 0 0-.9-.33 18 18 0 0 0 .83-2.57c0-.21.09-.46.13-.85.53.16 1.29.39 1.66.57zm2.46-6.23a19 19 0 0 1-.83 2c-.13.33-.25.46-.39.46s-.25-.11-.46-.32a5.38 5.38 0 0 0-1.28-1 16.48 16.48 0 0 0 1.81-5.17 6.74 6.74 0 0 0 .12-1.41 14.4 14.4 0 0 1 2 .51c.27.09.36.18.36.32a.53.53 0 0 1-.13.35 2.61 2.61 0 0 0-.3 1c-.07.36-.16.75-.26 1.12H203v-1.08a20.65 20.65 0 0 0-.16-3.22c.78 0 1.58.07 2.39.16.23 0 .32.12.32.26a1.54 1.54 0 0 1-.14.55 8.93 8.93 0 0 0-.14 2.23v1.1h3.89c.14 0 .26 0 .26.27v1.7c0 .23 0 .26-.26.26s-.76-.05-2.6-.05h-1.33c-.05 1.15-.09 2.19-.18 3.11H207c2.09 0 2.8-.05 2.94-.05s.23 0 .23.25v1.73c0 .23 0 .25-.23.25s-.85-.05-2.94-.05h-1.47a13.49 13.49 0 0 0 5.19 6.95 6 6 0 0 0-1.17 1.56c-.18.32-.28.46-.41.46s-.26-.09-.49-.3a14.67 14.67 0 0 1-4.34-6.32 12.09 12.09 0 0 1-5.57 6.6 1.77 1.77 0 0 1-.55.25c-.14 0-.23-.14-.44-.5a4.64 4.64 0 0 0-1.17-1.38c3.22-1.45 4.9-3.38 5.73-6.14l.27-1.18h-.73c-2.07 0-2.78.05-2.92.05s-.26 0-.26-.25v-1.73c0-.23 0-.25.26-.25s.85.05 2.92.05h1c.09-.9.14-1.94.18-3.11zm28.45.09h3c.17 0 .25 0 .25.25v4.25c0 .14 0 .25-.25.25h-1.86c-.23 0-.26 0-.26-.25v-2.6h-14.93v2.6c0 .23 0 .25-.25.25h-1.86c-.24 0-.26 0-.26-.25v-4.31c0-.2 0-.25.26-.25h3v-5.62c0-.16 0-.25.25-.25s.89.05 3.08.05h6.48c2.19 0 3-.05 3.09-.05s.27 0 .27.25-.05.81-.05 2.07v3.61zm-.62 9.06c0 1.08.07 2.14.07 2.72a2.26 2.26 0 0 1-.6 1.77c-.48.41-1.19.6-3.24.6-.71 0-.81 0-.94-.69a4.93 4.93 0 0 0-.53-1.45c.87.07 1.54.09 2.18.09s.76-.19.76-.78v-.78H219v3.51c0 .13 0 .26-.25.26h-1.89c-.23 0-.25 0-.25-.26v-10.74c0-.17 0-.25.25-.25s.88.05 3 .05h5.54c2.12 0 2.88-.05 3-.05s.26 0 .26.25-.05 1-.05 2.79zm-7.34-10.41v-1.25c0-.14 0-.27.25-.27h5.38v-1.17h-8.39v4h2.8zm-2.32 6.27v1.15h7.33v-1.15zm7.33 4v-1.19H219v1.19zm.55-8.9v-1.33h-3.33v1.31zM168.69 92.6c.22-.16.28-.16.46 0a6.32 6.32 0 0 1 1.24 1.06c.14.16.12.2-.08.36l-.7.56h1.54c.12 0 .2 0 .2.22v1c0 .22 0 .24-.2.24h-4.22v.82h3.26c.12 0 .22 0 .22.2v3.69a17.54 17.54 0 0 0 2.54-6.37 9.45 9.45 0 0 0 .22-1.66c.74.14 1.22.24 1.8.4.26.08.36.16.36.28a.42.42 0 0 1-.14.3 3.54 3.54 0 0 0-.34 1c-.14.56-.3 1.14-.5 1.72h4.72c.12 0 .2 0 .2.22V98c0 .16 0 .18-.2.18h-1.06a19.25 19.25 0 0 1-1.94 7.81 12.57 12.57 0 0 0 3.48 3.1 5.78 5.78 0 0 0-.88 1.46c-.14.28-.22.42-.34.42a1 1 0 0 1-.46-.24 17.12 17.12 0 0 1-2.92-3 14.83 14.83 0 0 1-3.46 3.14c-.22.16-.34.24-.46.24s-.2-.14-.34-.4a4.21 4.21 0 0 0-.84-1.22 11 11 0 0 0 4-3.6 17.69 17.69 0 0 1-1.56-4.52c-.16.27-.34.54-.5.8s-.26.38-.36.38-.2-.12-.4-.35-.4-.41-.6-.6v.85c0 .08 0 .22-.22.22h-3.1a.9.9 0 0 0-.12.5v.56h3.96c.12 0 .22 0 .22.22V105c0 .2 0 .22-.22.22h-5.02c0 .34-.08.64-.14.94h4.06c.12 0 .26 0 .24.24s-.1.8-.14 1.14a10.55 10.55 0 0 1-.46 2.44 1.93 1.93 0 0 1-1.94 1h-.74c-.28 0-.38-.06-.46-.42a3.61 3.61 0 0 0-.5-1.18 11 11 0 0 0 1.3.08.67.67 0 0 0 .64-.52 6.93 6.93 0 0 0 .24-1.34h-2.62a6.37 6.37 0 0 1-2.9 3.3c-.26.14-.38.24-.48.24s-.18-.12-.3-.36a3.64 3.64 0 0 0-.94-1.18 4.78 4.78 0 0 0 3.32-4.3h-2.88c-.1 0-.22 0-.22-.22v-1.2c0-.2 0-.22.22-.22h3.92V103a3.24 3.24 0 0 0 0-.46h-3.18c-.14 0-.22 0-.22-.22V97c0-.14 0-.2.22-.2h3.22V96h-3.98c-.1 0-.22 0-.22-.24v-1.04c0-.2 0-.22.22-.22h3.98a12.66 12.66 0 0 0-.19-1.9 17.63 17.63 0 0 1 1.84.14c.2 0 .32.1.32.2a.85.85 0 0 1-.12.4 3.58 3.58 0 0 0-.12 1.2h2.18a7.68 7.68 0 0 0-1.1-1.14c-.12-.1-.14-.18.08-.34zm-3.46 6.46v-1h-1.86v1zm0 2.19v-1h-1.86v1zm1.6-3.17v1h1.92v-1zm1.92 2.14h-1.92v1h1.92zm4.6-1.22a17.93 17.93 0 0 0 1.46 4.89 17.28 17.28 0 0 0 1.28-5.83h-2.36zm11.9 5.77a21 21 0 0 0 1.94-.92 8.41 8.41 0 0 0 0 1.24c0 .66 0 .64-.52.92-1.24.62-2.66 1.2-4 1.7a2.82 2.82 0 0 0-.66.32.52.52 0 0 1-.34.14c-.12 0-.22-.06-.3-.24a17.53 17.53 0 0 1-.54-1.78 14.36 14.36 0 0 0 2-.5l.46-.14v-5.69h-1.98c-.12 0-.2 0-.2-.22v-1.48c0-.2 0-.22.2-.22h1.98v-1.84a16.94 16.94 0 0 0-.16-2.94c.78 0 1.4.06 2.06.14.2 0 .32.12.32.24a1.13 1.13 0 0 1-.12.4 6.71 6.71 0 0 0-.12 1.9v2.14h1.64c.12 0 .2 0 .2.22v1.52c0 .2 0 .22-.2.22h-1.64zm5 2.78c0 .52.1.76.38.9s.9.22 2.88.22c2.16 0 2.82-.1 3.22-.42s.42-.68.48-2.26a5.67 5.67 0 0 0 1.44.64c.5.14.5.14.44.66-.18 1.74-.42 2.28-1.08 2.7s-1.64.66-4.74.66c-2.72 0-3.72-.24-4.22-.56s-.76-.9-.76-2v-6.24c-1 .36-1.44.54-1.6.58s-.22 0-.26-.16l-.26-1.56c0-.21 0-.21.16-.27s.68-.16 2-.58v-2.2a20.22 20.22 0 0 0-.12-2.84q1 0 1.92.12c.28 0 .4.12.4.22a.9.9 0 0 1-.12.42 6.05 6.05 0 0 0-.12 1.9v1.72l1.92-.64v-2.9a20.74 20.74 0 0 0-.16-2.84 15.94 15.94 0 0 1 2 .16c.2 0 .32.1.32.22a1.13 1.13 0 0 1-.12.4 6.27 6.27 0 0 0-.12 1.8v2.52l1.54-.52c1.88-.62 2.48-.88 2.62-.9s.22 0 .22.2l-.06 2.56a19.59 19.59 0 0 1-.48 4.53c-.3 1.16-.86 1.52-1.72 1.52a4.72 4.72 0 0 1-.74 0c-.44 0-.44 0-.54-.66a5 5 0 0 0-.42-1.44 4.68 4.68 0 0 0 1.06.14c.34 0 .48-.1.6-.74a19.2 19.2 0 0 0 .24-3.51l-2.32.8v6.59c0 .1 0 .22-.22.22h-1.6c-.2 0-.22 0-.22-.22v-5.93l-1.92.67zm21.04-10.39a25.1 25.1 0 0 1-2.5 8.63 3.8 3.8 0 0 1-3.4 2.3c-1.76 0-3.54-1.88-3.54-5.14a7.37 7.37 0 0 1 2.26-5.21 8.75 8.75 0 0 1 6.5-2.56c4.8 0 7.62 3 7.62 6.95 0 3.72-2.1 6.06-6.16 7.28-.42.12-.6 0-.86-.36a4.24 4.24 0 0 0-1.4-1.26c3.38-.8 6-2.2 6-6a4.55 4.55 0 0 0-4.48-4.65zm-5.74 1.94a5.76 5.76 0 0 0-1.56 3.71c0 1.84.74 2.86 1.36 2.86s1-.26 1.5-1.22a22.92 22.92 0 0 0 2.15-7.17 6 6 0 0 0-3.45 1.82zm31.2 7.21v2.48a1.85 1.85 0 0 1-.68 1.7 5.22 5.22 0 0 1-2.66.44c-.6 0-.62 0-.76-.62a4.29 4.29 0 0 0-.62-1.5 15.35 15.35 0 0 0 2.14 0c.44 0 .56-.18.56-.62v-4h-6.6c-.12 0-.22 0-.22-.22v-1a3.08 3.08 0 0 1-.38.2c-.44.24-.92.46-1.4.7v6.86c0 .1 0 .22-.24.22h-1.6c-.2 0-.22 0-.22-.22v-5.94l-1.4.6a2 2 0 0 0-.66.4.48.48 0 0 1-.34.18c-.14 0-.22 0-.3-.22a18.49 18.49 0 0 1-.66-1.94 10.16 10.16 0 0 0 1.86-.54q.75-.24 1.5-.54v-4.01H223a21.27 21.27 0 0 1-.46 2.3c-.08.35-.12.48-.24.48a1.21 1.21 0 0 1-.46-.19 7.28 7.28 0 0 0-1.1-.41 21.79 21.79 0 0 0 .84-5.24 9.25 9.25 0 0 0 0-1.28c.52.06 1.12.14 1.62.24.24.06.32.12.32.24a.66.66 0 0 1-.1.32 2.32 2.32 0 0 0-.1.68l-.08 1h1v-1.14a21.26 21.26 0 0 0-.16-3c.76 0 1.36.06 2.06.14.2 0 .32.1.32.2a1.11 1.11 0 0 1-.12.42 8.21 8.21 0 0 0-.12 2.22v1.16h1.62c.1 0 .24 0 .24.2v1.54c0 .12 0 .18-.06.2h4.12v-2h-3.3c-.12 0-.24 0-.24-.22v-1.4c0-.2 0-.22.24-.22h3.3a11.45 11.45 0 0 0-.18-2.28c.78 0 1.4.08 2.1.16.2 0 .32.08.32.2a1 1 0 0 1-.12.4 4.53 4.53 0 0 0-.14 1.52h3.92c.12 0 .22 0 .22.22v1.42c0 .2 0 .22-.22.22h-3.92v2h4.86c.1 0 .22 0 .22.2v1.42c0 .2 0 .22-.22.22h-11c-.12 0-.22 0-.22-.22v-1.68h-1.58V102c.58-.28 1.2-.56 1.84-.91 0 .38 0 .89.06 1.33h6.7a7.74 7.74 0 0 0-.14-1.61 17.23 17.23 0 0 1 2 .22c.2 0 .32.15.32.25a.7.7 0 0 1-.12.34 1.56 1.56 0 0 0-.12.8h2.14c.14 0 .22 0 .22.22v1.46c0 .2 0 .22-.22.22h-2.14zm-6.5-1.4c.22-.12.28-.12.42 0a15.89 15.89 0 0 1 1.94 2.32c.12.18.1.22-.12.38l-1.2.86c-.12.08-.18.12-.24.12s-.1-.06-.14-.16a12.43 12.43 0 0 0-1.84-2.5c-.14-.18-.12-.22.1-.36zm12.36-7.85c.26.06.3.1.28.32a17.61 17.61 0 0 1-.64 4.39c-.06.2-.1.16-.32.08l-1-.41c-.26-.09-.28-.19-.22-.4a16.61 16.61 0 0 0 .64-4.06c0-.2 0-.18.32-.12zm.8-1.38a18.37 18.37 0 0 0-.16-3c.76 0 1.44.06 2.1.14.2 0 .32.12.32.22a.9.9 0 0 1-.1.38 7.93 7.93 0 0 0-.14 2.22v15.13c0 .1 0 .24-.22.24h-1.66c-.2 0-.22 0-.22-.24v-3.48zm3.12.36c.22-.08.28-.06.36.12a19.59 19.59 0 0 1 .78 2.46 17.77 17.77 0 0 0 .94-3.24 10.92 10.92 0 0 0 .14-1.44 15.34 15.34 0 0 1 1.92.5c.26.1.34.18.34.28a.36.36 0 0 1-.12.28 1.44 1.44 0 0 0-.24.62q-.15.72-.36 1.5h1.84v-1.44a21.08 21.08 0 0 0-.16-3c.76 0 1.5.06 2.18.14.2 0 .32.1.32.2a1.47 1.47 0 0 1-.1.4 8.15 8.15 0 0 0-.14 2.22v1.5h4.18c.12 0 .22 0 .22.22v1.54c0 .2 0 .22-.22.22h-4.18v3.49h3.62c.12 0 .22 0 .22.22v1.56c0 .2 0 .22-.22.22h-3.62v3.94h4.74c.12 0 .22 0 .22.22v1.54c0 .22 0 .24-.22.24h-12.12c-.1 0-.22 0-.22-.24v-1.54c0-.2 0-.22.22-.22h5.26v-3.94h-3.74c-.14 0-.22 0-.22-.22v-1.56c0-.2 0-.22.22-.22h3.74V99h-2.46a22.25 22.25 0 0 1-1 2.31c-.16.3-.24.42-.36.42a.91.91 0 0 1-.38-.21 6.08 6.08 0 0 0-1.44-.66 12.92 12.92 0 0 0 .94-1.82l-.84.3c-.26.1-.32.1-.36-.12a13.68 13.68 0 0 0-.72-2.6c-.08-.22-.06-.26.2-.34zm-92.82 74.45h-2.48c-.12 0-.24 0-.24-.22v-1.42c0-.2 0-.22.24-.22h6.14l.42-.8a3.25 3.25 0 0 0 .36-1c-1.22.4-2.52.74-4 1.06-.6.14-.6.14-.84-.4a5.76 5.76 0 0 0-.82-1.24 32.74 32.74 0 0 0 5.84-1.38c-1.2-.46-2.44-.88-3.76-1.26-.22-.06-.18-.14 0-.32l1-.88c.2-.18.24-.18.44-.12 1.68.52 3.18 1 4.66 1.6a23.13 23.13 0 0 0 2-1.16 7.88 7.88 0 0 0 1.12-.92 18.77 18.77 0 0 1 1.88.88c.18.1.22.2.22.32s-.12.22-.28.26a2.27 2.27 0 0 0-.7.32c-.68.44-1.34.86-2 1.22 1 .44 2 .92 3.16 1.46.1.06.16.1.16.14a.51.51 0 0 1-.14.24l-.94 1.14c-.18.22-.26.2-.44.1-1.36-.76-2.68-1.42-4-2-.7.3-1.44.58-2.2.84.58.06 1.1.12 1.54.2.24 0 .4.12.4.28a.3.3 0 0 1-.14.28 2.14 2.14 0 0 0-.48.62c-.1.2-.22.38-.32.56h9.24c.12 0 .2 0 .2.22v1.42c0 .2 0 .22-.2.22h-10.3a17.06 17.06 0 0 1-1.6 2.1h2.82a11.87 11.87 0 0 0-.12-1.68c.76 0 1.4.06 2.1.14.18 0 .3.1.3.22a.9.9 0 0 1-.1.38 2.2 2.2 0 0 0-.14.94h5.18c.16 0 .22 0 .22.22v4.58a1.71 1.71 0 0 1-.46 1.28c-.38.38-.76.54-2.44.54-.62 0-.62 0-.76-.64a5.83 5.83 0 0 0-.42-1.16 14.12 14.12 0 0 0 1.46.08c.38 0 .56-.16.56-.58v-2.62h-3.3v5.92c0 .12 0 .22-.22.22h-1.66c-.2 0-.22 0-.22-.22v-5.92h-3v4.82c0 .12 0 .22-.24.22h-1.62c-.2 0-.22 0-.22-.22v-4.42a27 27 0 0 1-2.32 1.7c-.22.16-.34.24-.44.24s-.22-.14-.36-.44a3.64 3.64 0 0 0-.88-1.18 16.24 16.24 0 0 0 5.46-4.48zm20.04 9.42h-2.48c-.12 0-.2 0-.2-.22v-1.32c0-.2 0-.22.2-.22h7.6V177h-5.34c-.12 0-.22 0-.22-.24v-1.2c0-.2 0-.22.22-.22h5.34v-1.26h-6.46c-.12 0-.22 0-.22-.22v-1.24c0-.2 0-.22.22-.22h15.27c.12 0 .24 0 .24.22v1.24c0 .2 0 .22-.24.22H181v1.26h5.6c.12 0 .24 0 .24.22v1.2c0 .22 0 .24-.24.24H181v1.28h7.86c.14 0 .2 0 .2.22v1.32c0 .2 0 .22-.2.22h-2.5zm12.36-17.16h2.14c.14 0 .24 0 .24.22s-.08 1-.12 1.66a48.54 48.54 0 0 1-.52 5.12c-.22 1.16-.64 2-1.52 2.16a8.28 8.28 0 0 1-1.5.12c-.62 0-.72 0-.78-.38a4.65 4.65 0 0 0-.42-1.38 8.42 8.42 0 0 0 1.7.06c.32 0 .52-.5.64-1.14H182a6.74 6.74 0 0 1-2 2.82c-.22.18-.36.28-.48.28s-.28-.12-.5-.32a3.23 3.23 0 0 0-1.22-.76 5.39 5.39 0 0 0 .86-.58.62.62 0 0 1-.22 0 22.78 22.78 0 0 1-2.56.12 7.73 7.73 0 0 1-2.58-.26c-.54-.22-.82-.7-.82-1.72v-2.88h-1.2c-.2 0-.22 0-.22-.22v-1.4c0-.2 0-.2.22-.2h3.34v-.58a8 8 0 0 0-.12-1.42c.6 0 1.44.06 2 .12.18 0 .28.1.28.2a.78.78 0 0 1-.12.34 1.66 1.66 0 0 0-.1.74v.6h2.94c.12 0 .22 0 .22.2v1.4c0 .2 0 .22-.22.22h-5.12V168c0 .54.06.72.3.82a3.09 3.09 0 0 0 1.22.14 20.37 20.37 0 0 0 2.52-.14c.32 0 .34 0 .34.5v.78a1 1 0 0 1-.06.44c1.38-1.18 1.92-2.86 2.1-5.68a15.74 15.74 0 0 0 0-1.88c0-.2 0-.24.2-.24h1.62zm-3.52 4c0 .34-.08.68-.14 1h3.74c0-.3.1-.64.12-1zm.18-2.4v1h3.7l.06-1zm18.52 2.2a25 25 0 0 1-2.5 8.62 3.8 3.8 0 0 1-3.4 2.3c-1.76 0-3.54-1.88-3.54-5.14a7.37 7.37 0 0 1 2.26-5.2 8.75 8.75 0 0 1 6.5-2.56c4.8 0 7.62 3 7.62 6.94 0 3.72-2.1 6.06-6.16 7.28-.42.12-.6 0-.86-.36a4.24 4.24 0 0 0-1.4-1.26c3.38-.8 6-2.2 6-6a4.54 4.54 0 0 0-4.48-4.64zm-5.74 1.94a5.76 5.76 0 0 0-1.56 3.7c0 1.84.74 2.86 1.36 2.86s1-.26 1.5-1.22a22.85 22.85 0 0 0 2.12-7.16 6 6 0 0 0-3.42 1.82zm21.45-5.8h2c.1 0 .2 0 .2.24v6.28c0 .12 0 .24-.2.24h-5.24v10.74c0 .14 0 .22-.22.22h-1.7c-.2 0-.22 0-.22-.22v-17.22c0-.12 0-.24.22-.24h2.36zm-3.24 1.5v1.18h3.46v-1.18zm3.46 2.54h-3.46v1.2h3.46zm-.77 12.27c-.2 0-.22 0-.22-.24v-7.88c0-.14 0-.22.22-.22h6.98c.14 0 .22 0 .22.22v7.7c0 .1 0 .22-.22.22H222c-.2 0-.22 0-.22-.22v-.62h-3.66v.82c0 .22 0 .24-.24.24zm1.66-5.42h3.66v-1.34h-3.66zm3.66 2.84V175h-3.66v1.4zm6.58-2.62c0 1.4.08 3 .08 4a2.17 2.17 0 0 1-.58 1.84c-.42.38-1 .54-2.86.54-.6 0-.6 0-.72-.62a6.25 6.25 0 0 0-.48-1.46 13.79 13.79 0 0 0 1.68.1c.66 0 .82-.18.82-.78v-8h-5.49c-.12 0-.22 0-.22-.24v-6.28c0-.12 0-.24.22-.24h7.42c.12 0 .22 0 .22.24v2.64zm-5.76-9.56v1.18h3.7v-1.18zm3.7 3.74v-1.2h-3.7v1.2zm20.5-3.37a1.18 1.18 0 0 0 .48-.06.56.56 0 0 1 .3-.08c.14 0 .34.14.84.64.3.34.48.6.48.76a.87.87 0 0 1-.22.48 2.58 2.58 0 0 0-.3 1 20.11 20.11 0 0 1-2.4 7.32 15.89 15.89 0 0 0 3.6 3.38 6.22 6.22 0 0 0-1 1.54c-.14.28-.22.42-.36.42s-.24-.1-.46-.28a18.36 18.36 0 0 1-3.06-3.2A21 21 0 0 1 241 180c-.22.16-.34.24-.44.24s-.24-.16-.4-.48a3.85 3.85 0 0 0-.94-1.26 14.69 14.69 0 0 0 4.28-3.76 20.63 20.63 0 0 1-2.4-8.2h-1c-.1 0-.22 0-.22-.24v-1.6h-.76v15.42c0 .12 0 .22-.22.22h-1.56c-.2 0-.22 0-.22-.22v-3.8c-1.46.52-3.46 1.12-4.76 1.48a1.85 1.85 0 0 0-.64.24.51.51 0 0 1-.32.14c-.12 0-.22-.08-.26-.26-.14-.54-.3-1.26-.42-1.9a11 11 0 0 0 1.72-.3v-11.05h-1.24c-.2 0-.22 0-.22-.22v-1.42c0-.22 0-.24.22-.24h8.94c.12 0 .22 0 .22.24v1.52h2zm-9.58 2.2v-2.14h-2.78v2.14zm0 3.9v-2.14h-2.78v2.14zm0 1.76h-2.78v2.8c.92-.24 1.9-.54 2.78-.82zm5.86-6a17.93 17.93 0 0 0 1.64 6.22 19 19 0 0 0 1.68-6.22zm14.64-3.04c.26.1.38.22.38.4a.46.46 0 0 1-.14.32 2.31 2.31 0 0 0-.36.94c-.28 1.36-.44 2.78-.56 3.82a20.2 20.2 0 0 0-.06 2.2c.44-.78.86-1.54 1.4-2.56a4.15 4.15 0 0 0 .62 1.3.46.46 0 0 1 .12.32.94.94 0 0 1-.2.5 16.37 16.37 0 0 0-1.18 2.56 2.5 2.5 0 0 0-.1.6.28.28 0 0 1-.26.32c-.24.06-1.1.18-1.6.24-.14 0-.24-.12-.28-.26a12.8 12.8 0 0 1-.6-4.06 42.27 42.27 0 0 1 .48-5 18.51 18.51 0 0 0 .16-2.28 10.48 10.48 0 0 1 2.18.64zm6.5-.34c.4.1.44.2.4.54a7.08 7.08 0 0 0 0 .92c.14 1.9.28 3.72.28 5.16a13.14 13.14 0 0 1-1.52 6.94 11 11 0 0 1-3.3 3.22.69.69 0 0 1-.4.14.58.58 0 0 1-.42-.22 4.64 4.64 0 0 0-1.7-.92 9.9 9.9 0 0 0 3.4-2.68c1.16-1.58 1.68-3.22 1.68-6.38 0-1.42-.1-3.5-.24-4.78a9.58 9.58 0 0 0-.42-2.18 11.55 11.55 0 0 1 2.24.24zM18.72 123.77c.16-.21.2-.21.43-.09a19.85 19.85 0 0 1 3.34 2.44c.18.13.18.18 0 .46l-1 1.31c-.2.27-.27.3-.46.11a18 18 0 0 0-3.28-2.57c-.21-.12-.21-.19 0-.44zm.14 11.29a45.64 45.64 0 0 0 2.14-5.33 12.38 12.38 0 0 0 1.31 1.19c.35.28.49.37.49.55a1.66 1.66 0 0 1-.14.53 55.08 55.08 0 0 1-2.09 5.13 3.46 3.46 0 0 0-.37.9c-.05.2-.14.3-.3.3a1 1 0 0 1-.41-.14 13.94 13.94 0 0 1-1.8-1.27 8.82 8.82 0 0 0 1.17-1.86zm.8-17.11c.18-.23.28-.23.46-.14a22.16 22.16 0 0 1 3.33 2.53c.17.14.21.17 0 .46l-1 1.38c-.17.23-.26.26-.44.12a18.81 18.81 0 0 0-3.31-2.67c-.21-.14-.19-.16 0-.41zm7.06 17.25c1.13-.23 2.3-.51 3.45-.83a9.61 9.61 0 0 0-.16 1.36c0 .73-.07.76-.72.94-1.93.55-3.54.92-5.05 1.22a2.72 2.72 0 0 0-.86.28.55.55 0 0 1-.36.13c-.12 0-.26-.11-.32-.34-.19-.67-.37-1.45-.49-2.09.49 0 1.11-.1 1.61-.16l.67-.1v-4.8a18.33 18.33 0 0 0-.16-3 21.64 21.64 0 0 1 2.27.16c.26.05.35.16.35.28a1.09 1.09 0 0 1-.12.41 5.12 5.12 0 0 0-.11 1.56h3.01c.14 0 .25 0 .25.27v1.59c0 .23 0 .25-.25.25h-3.01zm6.74-16.79h3c.13 0 .25 0 .25.27v8.24c0 .12 0 .27-.25.27s-.89-.05-3-.05h-5.82c-2.14 0-2.9.05-3 .05s-.25 0-.25-.27v-8.24c0-.14 0-.27.25-.27h3zm.94 3.43v-1.47h-7.75v1.47zm0 1.86h-7.75v1.5h7.75zm-1.17 11.45c0 .46.09.62.3.69a3.39 3.39 0 0 0 1 .1c.83 0 1.24-.1 1.43-.33s.36-.69.39-2.2a5.16 5.16 0 0 0 1.56.59c.58.14.58.19.53.81-.16 1.7-.46 2.3-.92 2.69s-1.29.6-3.17.6a7 7 0 0 1-2.6-.33c-.46-.2-.88-.59-.88-1.67v-5.68a18.48 18.48 0 0 0-.13-2.65 22.26 22.26 0 0 1 2.32.16c.25 0 .39.16.39.28a.87.87 0 0 1-.14.41c-.11.23-.11.44-.11 1.34V131a13.77 13.77 0 0 0 2.39-1.36 5.41 5.41 0 0 0 1-.85 10.84 10.84 0 0 1 1.41 1.49.55.55 0 0 1 .16.34c0 .14-.12.23-.3.26a1.72 1.72 0 0 0-.64.27 33.55 33.55 0 0 1-4 2zm9.71-11.01h-2c-.09 0-.25 0-.25-.25v-1.59c0-.23 0-.25.25-.25h2.43v-1.45a16.84 16.84 0 0 0-.18-3.08 17.31 17.31 0 0 1 2.21.16c.23 0 .39.11.39.25a1 1 0 0 1-.14.48 6.16 6.16 0 0 0-.16 2.16v1.52h1.65c.16 0 .23 0 .23.25v1.63c0 .23 0 .25-.23.25h-1.63a15.81 15.81 0 0 0 2.49 4.33 6.91 6.91 0 0 0-.85 1.52c-.09.25-.18.37-.28.37s-.16-.12-.27-.37a15.74 15.74 0 0 1-1.15-2.83c0 5.94.16 10.72.16 11.06s0 .26-.25.26h-1.8c-.25 0-.27 0-.27-.26s.13-4.69.16-9.91a18.16 18.16 0 0 1-2 4.69c-.13.23-.25.37-.34.37s-.16-.11-.23-.39a6.17 6.17 0 0 0-.78-1.7 19.93 19.93 0 0 0 3.15-7.22zm18.53 10.25c0 .23 0 .26-.25.26h-1.43v1.38c0 .95-.09 1.48-.5 1.87s-1 .5-2.83.53c-.71 0-.71 0-.87-.72a4.3 4.3 0 0 0-.51-1.26c.64 0 1.24.07 1.77.07s.71-.16.71-.62v-1.3h-7.27v1.17c0 1.64.05 2.42.05 2.53s0 .26-.25.26h-1.75c-.23 0-.25 0-.25-.26v-3.68H46.8c-.1 0-.25 0-.25-.26v-1.21c0-.23 0-.26.25-.26s.46 0 1.29.05v-5.15c0-.14 0-.26.25-.26h4.47v-1.15h-2.3c-2.23 0-3 .05-3.13.05s-.25 0-.25-.26V125c0-.23 0-.26.25-.26h3.11v-1.15h-2.12c-.23 0-.25 0-.25-.25v-1.1c0-.23 0-.26.25-.26h2.12V121h-2.67c-.11 0-.25 0-.25-.28v-1.13c0-.25 0-.27.25-.27h2.67a8.18 8.18 0 0 0-.14-1.86c.76 0 1.54.09 2.14.16.23 0 .34.09.34.19a1 1 0 0 1-.11.41 2.27 2.27 0 0 0-.14 1.1h2.69a8.18 8.18 0 0 0-.14-1.86c.78 0 1.52.09 2.11.16.26 0 .37.09.37.19a.73.73 0 0 1-.13.41 2.75 2.75 0 0 0-.12 1.1h3.5c.13 0 .22 0 .22.27v1.13c0 .25 0 .28-.22.28h-3.5v1.15h2.81c.14 0 .25 0 .25.26v1.1c0 .23 0 .25-.25.25h-2.81v1.15h3.86c.1 0 .26 0 .26.26v1.21c0 .23 0 .26-.26.26s-.89-.05-3.12-.05h-3.2v1.15h4.7c.17 0 .25 0 .25.26v5c.94 0 1.36-.05 1.45-.05s.25 0 .25.26zm-8.69-4.07v-1.17h-2.49v1.17zm0 2.65v-1.24h-2.49V133zm2.46-10.81V121h-2.69v1.15zm0 2.67v-1.15h-2.69v1.15zm-.37 4.32v1.17h2.71v-1.17zm2.71 3.85v-1.24h-2.71V133zm11.35.45a3.49 3.49 0 0 0 1.88 1.91 13.19 13.19 0 0 0 4.25.46c3 0 6.51-.14 9.94-.48a4.34 4.34 0 0 0-.62 1.77c-.12.73-.12.73-.85.78-2.92.16-5.71.21-8.1.21a15.78 15.78 0 0 1-5.38-.65 4.4 4.4 0 0 1-2.25-2 28.71 28.71 0 0 1-2.32 2 2 2 0 0 0-.46.46.4.4 0 0 1-.35.21.45.45 0 0 1-.32-.28 20.08 20.08 0 0 1-.94-2.16 11.77 11.77 0 0 0 1.35-.71 15 15 0 0 0 1.91-1.48v-5.1h-2.76c-.12 0-.27 0-.27-.28v-1.75c0-.23 0-.25.27-.25h4.82c.14 0 .25 0 .25.25v2.19zm-3.34-15.15a.55.55 0 0 1 .28-.14c.07 0 .13 0 .23.14a20 20 0 0 1 2.9 3.4c.16.21.12.25-.14.46l-1.29 1c-.13.12-.2.16-.27.16s-.14-.07-.21-.18a17.53 17.53 0 0 0-2.83-3.56c-.16-.19-.13-.23.12-.42zm7.61 8.46h-3.13c-.13 0-.27 0-.27-.23V125c0-.23 0-.26.27-.26s.9.05 3.13.05h2.55v-2.3h-2.94c-.27.48-.6 1-.92 1.43-.23.29-.34.46-.48.46s-.28-.12-.51-.33a5.49 5.49 0 0 0-1.38-.85 12.71 12.71 0 0 0 2.3-3.63 6.51 6.51 0 0 0 .39-1.45 14.24 14.24 0 0 1 2 .6c.23.09.34.16.34.3s-.07.2-.18.32a2.48 2.48 0 0 0-.46.8l-.14.35h2v-.41a13.09 13.09 0 0 0-.16-2.44 23.34 23.34 0 0 1 2.35.11c.21 0 .34.12.34.26a.71.71 0 0 1-.11.39 4.35 4.35 0 0 0-.14 1.56v.53h4.67c.14 0 .25 0 .25.28v1.56c0 .23 0 .26-.25.26s-.81-.05-2.83-.05H78v2.3h2.71c2.23 0 3-.05 3.15-.05s.28 0 .28.26v1.61c0 .2 0 .23-.28.23h-3.15zm6 1.43c2 0 2.74-.05 2.87-.05s.26 0 .26.25v5.75c0 .14 0 .25-.26.25H71.8c-.16 0-.25 0-.25-.25v-5.75c0-.16 0-.25.25-.25s.87.05 2.9.05zm.76 1.95h-6.09v2.23H80zM5.35 147.3a10.43 10.43 0 0 0 0 16.5l-.47.55C1.42 161.83 0 159.1 0 155.55s1.42-6.28 4.88-8.8zm4.37 5.96H7.41c-.11 0-.21 0-.21-.22v-1.45c0-.2 0-.22.21-.22h6.47v-1.71a12.48 12.48 0 0 0-.13-2.34c.69 0 1.39.06 2 .13.16 0 .29.09.29.18a1.93 1.93 0 0 1-.13.47 8 8 0 0 0-.07 1.51v1.76h6.77c.11 0 .2 0 .2.22v1.45c0 .2 0 .22-.2.22h-6.1a18.72 18.72 0 0 0 7 6.76 4.78 4.78 0 0 0-.92 1.31c-.14.29-.21.43-.34.43a.72.72 0 0 1-.38-.18 19 19 0 0 1-6.08-6.82c0 4.72.14 8.17.14 8.87 0 .17 0 .18-.21.18H14c-.2 0-.22 0-.22-.18 0-.68.13-4 .15-8.6a18.49 18.49 0 0 1-5.67 6.59.83.83 0 0 1-.4.2c-.11 0-.18-.13-.34-.4a4.48 4.48 0 0 0-1-1.26 16.87 16.87 0 0 0 6.64-6.9zM29 159.8a2.7 2.7 0 0 0 1.48 1.49 10 10 0 0 0 3.33.36c2.32 0 5.1-.1 7.78-.37a3.54 3.54 0 0 0-.49 1.38c-.09.58-.09.58-.66.61-2.29.13-4.47.17-6.34.17a12.39 12.39 0 0 1-4.22-.51 3.47 3.47 0 0 1-1.76-1.6 21.72 21.72 0 0 1-1.82 1.58 2 2 0 0 0-.36.36c-.09.13-.16.17-.27.17a.36.36 0 0 1-.25-.22 15.66 15.66 0 0 1-.74-1.69 7.86 7.86 0 0 0 1.06-.56 11.05 11.05 0 0 0 1.5-1.15v-4h-2.13c-.09 0-.22 0-.22-.22v-1.37c0-.18 0-.2.22-.2h3.76c.11 0 .2 0 .2.2v1.71zm-2.61-11.87a.38.38 0 0 1 .22-.1.28.28 0 0 1 .18.1 16 16 0 0 1 2.25 2.67c.13.16.09.2-.11.36l-1 .79c-.11.09-.16.13-.21.13s-.11-.06-.17-.15a14.09 14.09 0 0 0-2.21-2.79c-.13-.14-.11-.18.09-.32zm6 6.63h-2.45c-.11 0-.21 0-.21-.18v-1.26c0-.18 0-.2.21-.2h4.45v-1.8h-2.3c-.22.38-.47.76-.72 1.12s-.27.36-.38.36-.22-.09-.4-.25a4.25 4.25 0 0 0-1.08-.67 9.9 9.9 0 0 0 1.8-2.84 5.37 5.37 0 0 0 .31-1.14 12.14 12.14 0 0 1 1.58.47c.18.07.27.13.27.23a.34.34 0 0 1-.14.26 1.71 1.71 0 0 0-.36.63l-.11.27h1.53v-.33a10.24 10.24 0 0 0-.13-1.91c.69 0 1.3 0 1.84.09.16 0 .27.09.27.2a.57.57 0 0 1-.09.31 3.42 3.42 0 0 0-.11 1.22v.42h3.65c.11 0 .2 0 .2.22V151c0 .18 0 .2-.2.2h-3.66v1.8h4.59c.1 0 .22 0 .22.2v1.26c0 .16 0 .18-.22.18h-2.46zm4.74 1.12h2.25c.11 0 .2 0 .2.2v4.51c0 .11 0 .2-.2.2h-8.1c-.13 0-.19 0-.19-.2v-4.5c0-.12 0-.2.19-.2h2.27zm.59 1.53H32.9V159h4.81zm19.07 3.4l-.79.81-5-5-5 5-.79-.81 5-5-5-5 .79-.81 5 5 5-5 .79.79-5 5zm5.6-8.1l-.49.39a.69.69 0 0 1-.36.2c-.13 0-.18-.12-.29-.41a4.4 4.4 0 0 0-.61-1.16 10.39 10.39 0 0 0 3.08-3.15 3.87 3.87 0 0 0 .4-.93c.53.07 1.18.18 1.65.29.18 0 .27.14.27.21a.34.34 0 0 1-.18.29l-.13.11a9.84 9.84 0 0 0 2.58 2.3 4.75 4.75 0 0 0-.68.94c-.15.27-.22.39-.33.39s-.2-.08-.39-.25a12.1 12.1 0 0 1-2-2.12A14.17 14.17 0 0 1 63 152h4.09c.11 0 .2 0 .2.22v1.11c0 .18 0 .2-.2.2h-1.46v1.41h1.88c.11 0 .21 0 .21.2v1.19c0 .18 0 .2-.21.2h-1.88v4.34c.79-.25 1.59-.49 2.34-.76a4.6 4.6 0 0 0-.11 1c0 .58 0 .56-.57.76-1.41.5-3.24 1.06-4.74 1.46a2.24 2.24 0 0 0-.63.25.61.61 0 0 1-.29.11.32.32 0 0 1-.29-.24 12.79 12.79 0 0 1-.43-1.53 10 10 0 0 0 1.75-.27l1.28-.3v-4.83h-2.45c-.11 0-.2 0-.2-.2V155c0-.18 0-.2.2-.2h2.45v-1.41h-1.32c-.09 0-.19 0-.19-.2zm0 4.7c.23-.09.27-.08.34.12a13.52 13.52 0 0 1 .68 2.7c0 .18 0 .2-.21.29l-.81.31c-.26.09-.29.07-.33-.15a14 14 0 0 0-.65-2.7c-.07-.18 0-.21.2-.3zm5.6.19c.12.06.18.11.18.2a.23.23 0 0 1-.11.2c-.11.07-.16.16-.24.38-.14.45-.34 1-.52 1.44s-.16.41-.29.41a1 1 0 0 1-.38-.14 3.09 3.09 0 0 0-.7-.25 12.91 12.91 0 0 0 .65-2 6.16 6.16 0 0 0 .11-.67c.41.11.97.29 1.31.43zm1.92-4.88a13.22 13.22 0 0 1-.65 1.59c-.1.25-.19.36-.3.36s-.2-.09-.36-.25a4 4 0 0 0-1-.79 12.84 12.84 0 0 0 1.4-4.06 4.58 4.58 0 0 0 .09-1.09 10 10 0 0 1 1.57.39c.21.07.29.15.29.25a.42.42 0 0 1-.11.27 2.2 2.2 0 0 0-.23.78c-.06.29-.13.59-.2.88h1.22V150a17.62 17.62 0 0 0-.12-2.52c.61 0 1.24.06 1.87.13.18 0 .25.09.25.2a1.05 1.05 0 0 1-.11.43 7 7 0 0 0-.11 1.75v.86h3c.07 0 .19 0 .19.22v1.33c0 .18 0 .2-.19.2h-3c0 .91-.08 1.72-.15 2.44h3.75c.11 0 .18 0 .18.2v1.35c0 .18 0 .2-.18.2h-3.46a10.53 10.53 0 0 0 4.07 5.44 4.48 4.48 0 0 0-.92 1.22c-.14.25-.22.36-.32.36s-.2-.07-.38-.23a11.57 11.57 0 0 1-3.4-4.95 9.54 9.54 0 0 1-4.36 5.16 1.46 1.46 0 0 1-.44.2c-.1 0-.17-.11-.34-.39a3.43 3.43 0 0 0-.92-1.08 7.34 7.34 0 0 0 4.46-4.97l.21-.92h-2.86c-.11 0-.2 0-.2-.2v-1.35c0-.18 0-.2.2-.2h3.08c.07-.71.11-1.52.15-2.44zm22.27.08h2.34c.13 0 .2 0 .2.2v3.35c0 .11 0 .2-.2.2h-1.46c-.18 0-.2 0-.2-.2v-2H81.18v2c0 .18 0 .2-.2.2h-1.46c-.18 0-.2 0-.2-.2v-3.35c0-.13 0-.2.2-.2h2.34v-4.45c0-.13 0-.2.2-.2h9.9c.1 0 .22 0 .22.2v4.45zm-.49 7.09c0 .85.06 1.68.06 2.13a1.77 1.77 0 0 1-.47 1.38c-.38.33-.94.47-2.54.47-.56 0-.63 0-.74-.54a3.75 3.75 0 0 0-.41-1.13c.68.05 1.2.07 1.71.07s.59-.15.59-.61v-.62h-5.74v2.74c0 .09 0 .2-.2.2h-1.44c-.18 0-.2 0-.2-.2v-8.41c0-.11 0-.2.2-.2h9.02c.09 0 .2 0 .2.2v2.18zM86 151.53v-1c0-.14 0-.21.2-.21h4.21v-.92h-6.66v3.14H86zm-1.8 4.92v.9h5.74v-.9zm5.74 3.12v-.94h-5.79v.94zm.43-7v-1h-2.66v1zm6.77-5.82c3.46 2.52 4.88 5.25 4.88 8.8s-1.42 6.28-4.88 8.8l-.46-.55a10.43 10.43 0 0 0 0-16.5z"/><path class="cls-2" d="M334.38 95.35A132.35 132.35 0 0 0 255 16.91"/><path d="M249.58 15.3l12.14-2.15-4.21 11.59-7.93-9.44zm78.25 79.41l12.14-2.14-4.21 11.59-7.93-9.45z"/><path class="cls-2" d="M334.38 185.88A132.4 132.4 0 0 1 255 264.33"/><path d="M249.58 265.94l12.14 2.14-4.21-11.58-7.93 9.44zm78.25-79.42l12.14 2.15-4.21-11.59-7.93 9.44z"/><path class="cls-2" d="M85.64 95.35A132.33 132.33 0 0 1 165 16.91"/><path d="M170.44 15.3l-12.14-2.15 4.21 11.59 7.93-9.44zM92.19 94.71l-12.14-2.14 4.21 11.59 7.93-9.45z"/><path class="cls-2" d="M85.64 185.88A132.37 132.37 0 0 0 165 264.33"/><path d="M170.44 265.94l-12.14 2.14 4.21-11.58 7.93 9.44zm-78.25-79.42l-12.14 2.15 4.21-11.59 7.93 9.44z"/><path class="cls-3" d="M201.25 41.93h17.52v17.52h-17.52z"/><path class="cls-3" d="M210.01 68.79l17.91-16.93H192.1l17.91 16.93zm-8.76 149.49h17.52v17.52h-17.52z"/><path class="cls-3" d="M210.01 208.94l-17.91 16.93h35.82l-17.91-16.93zm-101.02-79.42h17.52v17.52h-17.52z"/><path class="cls-3" d="M135.85 138.28l-16.94-17.91v35.82l16.94-17.91zm158.83-8.76h17.52v17.52h-17.52z"/><path class="cls-3" d="M285.34 138.28l16.93 17.91v-35.82l-16.93 17.91z"/><path class="cls-4" d="M197.16 124.39l25.7 25.7m0-25.7l-25.7 25.7"/></g></g></svg>