<svg xmlns="http://www.w3.org/2000/svg" viewBox="0 0 236 76"><defs><style>.cls-1{fill:#f6f6f6}.cls-2,.cls-5{fill:#fff}.cls-2{stroke:#fff;stroke-linejoin:bevel;stroke-width:.59px}.cls-3{fill:#e31718}.cls-4{fill:#0074bb}.cls-6{fill:#2e2624}</style></defs><title>i-com1</title><g id="Layer_2" data-name="Layer 2"><g id="SVG"><path class="cls-1" d="M0 0h236v76H0z"/><path class="cls-2" d="M23.83 38.33l2.68.43-.27 4.87-3.17-.54.76-4.76zm11.11.15l2.73-.25.84 5-3.43.13-.14-4.88zM23.23 46.9c2 .56 8.77 1.9 15 .06l.46 1.31s-9.5 2.75-15.21-.1z"/><path class="cls-3" d="M20 24.45c.73-.21 15.49-3.88 15.49-3.88L45.57 34z"/><path class="cls-4" d="M44.64 48.23c3.47-1.54 6.69-4.88 7.59-8.36a13.43 13.43 0 0 0-.31-8.72c-1.08-2.86-3.65-5.86-6.66-6.34a9.51 9.51 0 0 0-7.13 1.67c-.65.47-.4.61 0 .63 1.61.08 2.69-.23 4.12.24a4.47 4.47 0 0 0-3.49.79c-.31.48.38.74.87.84 1.13.21 1.55.31 2.5.47-.79.63-3.57 1.94-1.63 2a17.87 17.87 0 0 1 4.13.16 3.62 3.62 0 0 1 2.85 2.54c.71 2.85 0 6.33-2.66 8.16l.2-7C39.36 34.48 17 35 17 35c-1.51 3.86.46 17.38.46 17.38l27 .21.12-4.37z"/><path class="cls-5" d="M23.83 38.33l2.68.43-.27 4.87-3.17-.54.76-4.76zm11.11.15l2.73-.25.84 5-3.43.13-.14-4.88zM23.23 46.9c2 .56 8.77 1.9 15 .06l.46 1.31s-9.5 2.75-15.21-.1z"/><path class="cls-4" d="M68.16 27.76c-.1-1.28-.71-2-1.69-2s-1.74 1.24-1.74 3.56c0 1.72.29 3.33 1.86 3.33 1 0 1.47-.9 1.59-2.07h3c-.28 3.16-2 5.07-4.51 5.07-3.13 0-5-2.48-5-6.47s2.07-6.43 4.71-6.43c2.89 0 4.5 1.86 4.75 5zm7.6 7.57V23.08h3.09v9.39h4.25v2.86zm11.24 0V23.08h7.71v2.85h-4.58v1.76H94v2.86h-3.9v1.92h4.78v2.86zm12.14-12.25h3.12l1.66 8.15 1.72-8.15h3.12l-3.28 12.25h-3.11zm14.03 12.25V23.08h7.71v2.85h-4.61v1.76h3.9v2.86h-3.9v1.92h4.79v2.86zm16.46-4.27v4.27h-3.1V23.08H131c3.15 0 4.19 1.1 4.19 3.49 0 1.41-.48 2.6-1.59 3 1 .48 1.6.78 1.6 3.25 0 1.6 0 2.14.33 2.14v.38h-3.14a11.34 11.34 0 0 1-.15-2.15c0-1.6-.21-2.12-1.65-2.12zm0-2.69h1.22c1 0 1.47-.31 1.47-1.16a1.15 1.15 0 0 0-1.25-1.28h-1.44zm10.88 6.96V23.08h3.1v9.39h4.25v2.86zm15.67 0h-3.1v-4.46l-3.52-7.79H153l1.63 4.15 1.62-4.15h3.42l-3.52 7.72zm13.56 0V23.08h3.1v4.13h2.92v-4.13h3.1v12.25h-3.1v-4.75h-2.92v4.75zm23.79-6.2c0 4.17-2.16 6.52-5 6.52-3 0-4.95-2.38-4.95-6.55 0-3.84 2-6.35 4.95-6.35 3.41 0 5 3.15 5 6.38zm-6.81 0c0 1.57.36 3.53 1.85 3.53s1.86-1.5 1.86-3.53c0-1.67-.52-3.43-1.88-3.38s-1.83 1.84-1.83 3.38zm11.28 6.2V23.08h3.74l1.67 7.64 1.66-7.64h3.74v12.25H206v-5.65l.16-2.22-1.72 7.87h-2.15l-1.72-7.87.14 1.81.06 1.91v4.15zm16.11 0V23.08h7.71v2.85h-4.61v1.76h3.9v2.86h-3.9v1.92H222v2.86z"/><path class="cls-6" d="M64.12 48.78c1.08-2 2.8-4.42 5.43-4.42 1 0 1.74.36 1.74 1.27 0 .75-.76 1.14-1.41 1.14a1.24 1.24 0 0 1-.6-.12 1.9 1.9 0 0 0 .63-1.27c0-.41-.17-.81-.65-.81-1 0-2.25 1.82-3.54 4.21h3.08l-.11.2h-3.07c-1.82 3.52-3.72 8.47-8.53 8.47-1.05 0-2.4-.62-2.4-1.86s1.28-1.76 2.38-1.76a3.53 3.53 0 0 1 .7.1V54a1.44 1.44 0 0 0-1.54 1.51 1.51 1.51 0 0 0 1.43 1.7C60.4 57.25 62.13 52 64 49h-1l.1-.2z"/><path class="cls-6" d="M74.69 50a1.91 1.91 0 0 1-1.32.74 1.36 1.36 0 0 1-1.08-.59 3.66 3.66 0 0 1-3.72 3.31c-1.14 0-2.21-.44-2.21-1.75 0-2 2-3.18 3.82-3.18 2.21 0 1.92 2 3.21 2a1.69 1.69 0 0 0 1.22-.68zm-7 2.65c0 .4.19.65.51.65 1.23 0 2.64-2.76 2.64-4 0-.4-.19-.66-.51-.66-1.19.03-2.6 2.79-2.6 4z"/><path class="cls-6" d="M72.67 53.29l2.59-4.57h1.85l-2 2.9a7 7 0 0 1 2.38-2.44c.49-.58.57-.65 2.33-.72A2.78 2.78 0 0 0 79 50.1c0 .36.17.73.57.73a2.12 2.12 0 0 0 1.38-.92L81 50a2.77 2.77 0 0 1-2.35 1.18A1.24 1.24 0 0 1 77.32 50a1.34 1.34 0 0 1 .11-.6c-1 .54-2.56 2.79-3 3.83zm18.65-9.4h-2.6v10h-2.41v-10H83.7v-2h7.62zm2.39 1.5a5.57 5.57 0 0 1 .55-2 3.09 3.09 0 0 1 1.23-1.28 5.28 5.28 0 0 1 4.31 0 3.16 3.16 0 0 1 1.2 1.31 5.57 5.57 0 0 1 .55 2 24.1 24.1 0 0 1 0 5 5.57 5.57 0 0 1-.55 2 3 3 0 0 1-1.2 1.18 5.62 5.62 0 0 1-4.31 0 2.91 2.91 0 0 1-1.23-1.25 5.57 5.57 0 0 1-.55-2 24.1 24.1 0 0 1 0-5zm2.34 4.54a6.15 6.15 0 0 0 .23 1.37 1.59 1.59 0 0 0 .5.77 1.43 1.43 0 0 0 .86.24 1.39 1.39 0 0 0 .86-.24 1.54 1.54 0 0 0 .5-.77 6.15 6.15 0 0 0 .23-1.37c0-.56.06-1.24.06-2s0-1.48-.06-2a6.36 6.36 0 0 0-.23-1.46 1.54 1.54 0 0 0-.51-.77 1.4 1.4 0 0 0-.86-.25 1.44 1.44 0 0 0-.86.25 1.59 1.59 0 0 0-.5.77 6.36 6.36 0 0 0-.23 1.37q-.06.84-.06 2c.02.85.02 1.53.07 2.09zM107 46.7l3-4.78h2.61L109.43 47l3.57 6.85h-2.71L107.87 49l-.87 1.31v3.54h-2.41V41.92H107zm12.06-.17l1.67-4.61h2.61l-3.09 7.23v4.7h-2.41v-4.7l-3.09-7.23h2.71zm6.22-1.14a5.78 5.78 0 0 1 .55-2 3.22 3.22 0 0 1 1.23-1.28 4.44 4.44 0 0 1 2.16-.46 4.37 4.37 0 0 1 2.15.46 3.09 3.09 0 0 1 1.23 1.28 5.37 5.37 0 0 1 .55 2 24.1 24.1 0 0 1 0 5 5.37 5.37 0 0 1-.55 2 2.91 2.91 0 0 1-1.23 1.25 4.51 4.51 0 0 1-2.15.43 4.58 4.58 0 0 1-2.16-.43 3 3 0 0 1-1.23-1.25 5.79 5.79 0 0 1-.55-2 26.1 26.1 0 0 1 0-5zm2.34 4.54a5.57 5.57 0 0 0 .24 1.37 1.46 1.46 0 0 0 .5.77 1.66 1.66 0 0 0 1.72 0 1.52 1.52 0 0 0 .5-.77 5.18 5.18 0 0 0 .23-1.37c0-.56.06-1.24.06-2s0-1.48-.06-2a5.33 5.33 0 0 0-.23-1.37 1.52 1.52 0 0 0-.5-.77 1.6 1.6 0 0 0-1.72 0 1.46 1.46 0 0 0-.5.77 5.75 5.75 0 0 0-.24 1.37q-.06.84-.06 2c0 .76.02 1.44.06 2z"/></g></g></svg>