<svg xmlns="http://www.w3.org/2000/svg" viewBox="0 0 236 76"><defs><style>.cls-1{fill:#f6f6f6}.cls-2{fill:#231815}.cls-3{fill:#7b191e}</style></defs><title>i-com4</title><g id="Layer_2" data-name="Layer 2"><g id="SVG"><path class="cls-1" d="M0 0h236v76H0z"/><path class="cls-2" d="M23 43.73h11.17V54.9H23z"/><path class="cls-3" d="M35.17 43.73h11.17V54.9H35.17zm12.17 0h11.17V54.9H47.34zM23 31.56h11.17v11.17H23z"/><path class="cls-2" d="M35.17 31.56h11.17v11.17H35.17z"/><path class="cls-3" d="M47.34 31.56h11.17v11.17H47.34zM23 19.39h11.17v11.17H23zm12.17 0h11.17v11.17H35.17z"/><path class="cls-2" d="M58.51 30.55H47.34V19.39l11.17 11.16zm6.68 16.5V23.72h15q6.47 0 9.91 3t3.43 8.5A12.87 12.87 0 0 1 92 41.58a9.94 9.94 0 0 1-4.79 4.3 22.84 22.84 0 0 1-8.37 1.17zm5.42-4.38h7q5.38 0 7.74-1.59c1.72-1.14 2.58-3.12 2.58-5.92q0-7.27-7.69-7.28h-9.63zm27.27-5.34v-4.66h10.54v4.66zm16.33 9.72V23.72h5.43v19h17.5v4.38zm28.54 0V23.72h5.43v23.33zm13.61 0V23.72h3.71l16.42 13.75a25.5 25.5 0 0 1 2.67 2.53c-.15-2.17-.23-3.51-.23-4V23.72h4.89v23.33h-3.71L163 32.63a17.61 17.61 0 0 1-1.95-1.9c.15 1.5.23 2.74.23 3.71v12.61zm33.52 0V23.72h23.88v4h-18.45v5.2h13.1v4h-13.1v5.79H214v4.38zM65.21 54.82v-4.89h3.94a1.12 1.12 0 0 1 .78.22.91.91 0 0 1 .25.72V52a.91.91 0 0 1-.25.72 1.12 1.12 0 0 1-.78.23h-.72l2.24 1.9h-1.22l-2-1.9H66v1.9zm3.62-4.26H66v1.72h2.81a.59.59 0 0 0 .41-.11.49.49 0 0 0 .12-.39v-.72a.5.5 0 0 0-.12-.39.59.59 0 0 0-.39-.11zm3.75 4.26v-4.89h4.72v.65h-3.9V52h2.38v.64H73.4v1.56h3.94v.67zm6.84 0v-4.89h.52l3.66 3.27a4.44 4.44 0 0 1 .56.62 7.76 7.76 0 0 1-.08-1.21v-2.68h.76v4.89h-.45l-3.77-3.4-.24-.22a1.42 1.42 0 0 1-.25-.34 10.75 10.75 0 0 1 .05 1.08v2.88zm8.03-3.74a1.24 1.24 0 0 1 .25-.91 1.28 1.28 0 0 1 .9-.24H92a.93.93 0 0 1 1.14 1.15v2.58a1.32 1.32 0 0 1-.24.92 1.28 1.28 0 0 1-.9.24h-3.4a.94.94 0 0 1-1.15-1.16zm.82 3.06h4v-3.56h-4zm9.21.68l-2.68-4.89h.88L97.85 54l2.07-4.08h.8l-2.56 4.89zm4.01 0l2.68-4.89h.83l2.72 4.89h-.9l-.62-1.2h-3.32l-.62 1.2zm1.78-1.82h2.63l-1.31-2.5zm8.12-2.41v4.23h-.82v-4.23h-2.24v-.66h5.31v.66zm3.77 4.23v-4.89h.84v4.89zm3.43-3.74a.94.94 0 0 1 1.15-1.15h3.4a.93.93 0 0 1 1.14 1.15v2.58a1.32 1.32 0 0 1-.24.92 1.28 1.28 0 0 1-.9.24h-3.4a1.28 1.28 0 0 1-.9-.24 1.31 1.31 0 0 1-.25-.92zm.82 3.06h4v-3.56h-4zm7.49.68v-4.89h.51l3.67 3.27a5.17 5.17 0 0 1 .56.62 6.69 6.69 0 0 1-.08-1.21v-2.68h.76v4.89h-.46l-3.77-3.4-.23-.22a1.46 1.46 0 0 1-.26-.34 8.22 8.22 0 0 1 .06 1.08v2.88zm13.1-.29a1.1 1.1 0 0 1-.39.25 1.88 1.88 0 0 1-.48 0h-1.6a.94.94 0 0 1-1.15-1.16v-.32a.94.94 0 0 1 .13-.54 1.47 1.47 0 0 1 .44-.37l.94-.6a1 1 0 0 1-.4-.74v-.27a.8.8 0 0 1 .27-.7 1.53 1.53 0 0 1 .88-.19h.92a1.4 1.4 0 0 1 .89.2 1 1 0 0 1 .25.78v.26l-.65.12v-.77h-1.87v.72l2.38 1.94 1.14-1.07.41.4-1.1 1 1.56 1.27h-1l-1-.82zm-2.93-.33h2.38l.63-.59-1.75-1.41-1.26.9zm9.19.62v-4.89h3.94a1.17 1.17 0 0 1 .79.22 1 1 0 0 1 .25.72V52a1 1 0 0 1-.25.72 1.16 1.16 0 0 1-.79.23h-.72l2.24 1.9h-1.21l-2-1.9h-1.44v1.9zm3.63-4.26h-2.81v1.72h2.81a.63.63 0 0 0 .41-.11.49.49 0 0 0 .12-.39v-.72a.5.5 0 0 0-.12-.39.63.63 0 0 0-.41-.11zm3.75 4.26v-4.89h4.71v.65h-3.9V52h2.38v.64h-2.38v1.56h3.94v.67zm5.88 0l2.68-4.89h.87l2.72 4.89h-.9l-.62-1.2H161l-.62 1.2zM161.3 53h2.63l-1.32-2.5zm6.22 1.82v-4.89h.82v4.21h3.71v.68zm8.95 0v-4.89h4.72v.65h-3.9V52h2.38v.64h-2.38v1.56h3.94v.67zm11.02-4.24H184V52h3.08a1.26 1.26 0 0 1 .9.24 1.32 1.32 0 0 1 .24.91v.55a1.32 1.32 0 0 1-.24.92 1.26 1.26 0 0 1-.9.24h-2.86a1.28 1.28 0 0 1-.9-.24 1.32 1.32 0 0 1-.24-.92v-.13l.76-.18v.79h3.64v-1.51h-3.07a1.28 1.28 0 0 1-.9-.24 1.34 1.34 0 0 1-.24-.92v-.43a1.32 1.32 0 0 1 .24-.92 1.34 1.34 0 0 1 .9-.23h2.61a1.35 1.35 0 0 1 .88.22 1.06 1.06 0 0 1 .26.84v.1l-.7.2zm5.28.01v4.23H192v-4.23h-2.24v-.66H195v.66zm2.81 4.23l2.67-4.89h.88l2.72 4.89H201l-.63-1.2H197l-.63 1.2zm1.77-1.82H200l-1.32-2.5zm8.13-2.41v4.23h-.82v-4.23h-2.24v-.66h5.31v.66zm3.77 4.23v-4.89H214v.65h-3.9V52h2.38v.64h-2.38v1.56h3.9v.67z"/></g></g></svg>