<svg xmlns="http://www.w3.org/2000/svg" viewBox="0 0 236 76"><defs><style>.cls-1{fill:#f6f6f6}.cls-2{fill:#231815}.cls-3{fill:#80919a}</style></defs><title>i-com2</title><g id="Layer_2" data-name="Layer 2"><g id="SVG"><path class="cls-1" d="M0 0h236v76H0z"/><path class="cls-2" d="M101.2 39.1v-2.83h6.08v2.83zm-29.08-8.27L75 28h8v2.84zM114 48V28h3.33v17.22h15.15V48zm27.07 0V28h3.33v20zM69.2 27.99h2.91v19.95H69.2z"/><path class="cls-2" d="M80.12 27.99h2.91v19.95h-2.91zm77.38 2.84l2.82-2.83h16.21v2.84zM187.53 39l2.82-2.82h13.49V39zm-2.46-8.17L186.8 28h17v2.84zm-30.48-2.84h2.91v19.95h-2.91z"/><path class="cls-2" d="M173.62 27.99h2.91v19.95h-2.91zm30.22 17.18V48h-19.26v-2.83z"/><path class="cls-2" d="M184.58 27.99h2.91v20.02h-2.91zm16.34 0h2.92v9.45h-2.92zM83 30.83L85.87 28H94v2.84z"/><path class="cls-2" d="M91.08 27.99h2.91v19.95h-2.91zM43.02 18.7h5.09L53 13.8h-9.98v4.9z"/><path class="cls-3" d="M33.11 58.65h-4.88V23.58l4.88-4.88v39.95zm9.91 0h-4.89V18.68l4.89-4.88v44.85zm9.98 0h-4.89V18.7L53 13.8v44.85z"/><path class="cls-2" d="M33.12 23.59h5.01l4.9-4.89h-9.91v4.89z"/></g></g></svg>