<svg xmlns="http://www.w3.org/2000/svg" viewBox="0 0 65 61.44"><defs><style>.cls-1{fill:none;stroke:#393c45;stroke-miterlimit:10;stroke-width:2px}.cls-2{fill:#393c45}</style></defs><title>i-icon14</title><g id="Layer_2" data-name="Layer 2"><g id="SVG"><path class="cls-1" d="M34.22 1.08L1 13.76v46.68h63V13.76L34.22 1.08z"/><path class="cls-2" d="M29.3 34.12a15.91 15.91 0 0 0-1.56 2.4 6.73 6.73 0 0 1 2.19 2.62 20 20 0 0 0 2.73-1.52c4.74-4 16.33-18.28 15.93-18.69S33.47 29.54 29.3 34.12zm-2.92 3.51c-2.06-.36-4.09.94-5.44 4.19s-3.78 4.55-4.25 4.47c2.53.91 10.24 3.25 12.15-5.65a5.91 5.91 0 0 0-2.46-3.01z"/></g></g></svg>