<svg xmlns="http://www.w3.org/2000/svg" viewBox="0 0 48.14 31.58"><defs><style>.cls-1{fill:#393c45}</style></defs><title>i-icontel1</title><g id="Layer_2" data-name="Layer 2"><g id="SVG"><path class="cls-1" d="M0 0v4.92a28.47 28.47 0 0 1 10.35 1.94c.57.23 1.13.47 1.66.72a26.78 26.78 0 0 1 3.92-1.5 29 29 0 0 1 8.14-1.16 28.33 28.33 0 0 1 10.4 1.94c.57.23 1.12.47 1.66.72a26.35 26.35 0 0 1 3.92-1.5 29.06 29.06 0 0 1 8.09-1.16V0zm30.14 18.67a6 6 0 0 0 1 3.35 6.08 6.08 0 0 0 2.64 2.17 6 6 0 0 0 8.31-5.52 5.12 5.12 0 0 0-.38-1.88 8.49 8.49 0 0 0-1.19-2 15.32 15.32 0 0 0-4.41-3.67 15.89 15.89 0 0 0-3.62 2.77A9 9 0 0 0 30.44 17a5.12 5.12 0 0 0-.3 1.67z"/><path class="cls-1" d="M42 11.71A11.91 11.91 0 0 1 44.73 16a8 8 0 0 1 .48 2.69 9 9 0 0 1-1.55 5.08 9.16 9.16 0 0 1-4 3.3 9.13 9.13 0 0 1-8.66-.86 9.06 9.06 0 0 1-4-7.54 8.59 8.59 0 0 1 1-4 13.72 13.72 0 0 1 2.75-3.54 18.7 18.7 0 0 1 2-1.61c-.47-.17-1-.33-1.46-.48a25.77 25.77 0 0 0-7.26-1 25.51 25.51 0 0 0-8.73 1.51 18 18 0 0 1 2.53 2.17A12 12 0 0 1 20.62 16a8 8 0 0 1 .48 2.69 9 9 0 0 1-1.55 5.08 9.22 9.22 0 0 1-4 3.3 9.08 9.08 0 0 1-12.62-8.4 8.59 8.59 0 0 1 1-4 13.67 13.67 0 0 1 2.74-3.54 19.93 19.93 0 0 1 2-1.61c-.48-.17-1-.33-1.46-.48A25.54 25.54 0 0 0 0 8v23.58h48.14V8a25.26 25.26 0 0 0-8.68 1.51 17.9 17.9 0 0 1 2.54 2.2z"/><path class="cls-1" d="M6 18.67a5.92 5.92 0 0 0 1 3.35 6 6 0 0 0 8.31 1.62A6.15 6.15 0 0 0 17.53 21a6 6 0 0 0 .47-2.33 5.15 5.15 0 0 0-.39-1.88 8.49 8.49 0 0 0-1.19-2 15.05 15.05 0 0 0-4.42-3.7 16.34 16.34 0 0 0-3.62 2.77A9.09 9.09 0 0 0 6.33 17 5.12 5.12 0 0 0 6 18.67z"/></g></g></svg>