<svg xmlns="http://www.w3.org/2000/svg" viewBox="0 0 65.4 61.44"><defs><style>.cls-1{fill:none;stroke:#393c45;stroke-miterlimit:10;stroke-width:2px}.cls-2{fill:#393c45}</style></defs><title>i-icon6</title><g id="Layer_2" data-name="Layer 2"><g id="SVG"><path class="cls-1" d="M34.43 1.08L1 13.76v46.68h63.4V13.76L34.43 1.08z"/><path class="cls-2" d="M41.35 30.36a39.51 39.51 0 0 1-3.78-7.06 16.53 16.53 0 0 0-1.93 3.53c-.39-1.35-1.1-1.95-1.93-3.36a10.81 10.81 0 0 1-1.26-4.11 8.17 8.17 0 0 0-2.94 3.52c-1.18 2.52-1.09 5.46-2.44 6.8-.5-2.68-1.76-3.44-1.76-3.44s-.75 2.27-1.26 3.78a18.19 18.19 0 0 0-2.18 8.31 10.83 10.83 0 1 0 21.66 0 16.61 16.61 0 0 0-2.18-7.97z"/></g></g></svg>