<svg xmlns="http://www.w3.org/2000/svg" viewBox="0 0 388 256"><defs><style>.cls-1{fill:none}.cls-2{fill:#ebe0ca}.cls-3{fill:#eee6d4}.cls-4{fill:url(#新規パターンスウォッチ_11)}.cls-5{fill:gray}.cls-6{fill:#fff}.cls-7{fill:#393c45}</style><pattern id="新規パターンスウォッチ_11" data-name="新規パターンスウォッチ 11" width="20" height="41" patternTransform="rotate(45 247.428 189.208)" patternUnits="userSpaceOnUse" viewBox="0 0 20 41"><path class="cls-1" d="M0 0h20v41H0z"/><path class="cls-2" d="M0 0h10v41H0z"/><path class="cls-3" d="M10 0h10v41H10z"/></pattern></defs><title>i-square1</title><g id="Layer_2" data-name="Layer 2"><g id="SVG"><path class="cls-4" d="M.5.5h387v255H.5z"/><path class="cls-5" d="M387 1v254H1V1h386m1-1H0v256h388V0z"/><path class="cls-6" d="M31.5 32.5h324v193h-324z"/><path class="cls-5" d="M355 33v192H32V33h323m1-1H31v194h325V32z"/><path class="cls-7" d="M118.66 137.69c-3.6 0-6.34-2.26-6.34-6.3A12.63 12.63 0 0 1 114 126l4.29-8.8h4.06l-4.23 8.4a4 4 0 0 1 1.51-.26c2.74 0 5.34 2.26 5.34 6a6 6 0 0 1-6.31 6.35zm0-9.31c-1.51 0-2.63 1.09-2.63 3s1.12 3 2.63 3 2.63-1.09 2.63-3-1.06-3-2.63-3zm15.6 9.31a5.86 5.86 0 0 1-6.2-6.06V123a6.19 6.19 0 0 1 12.37 0v8.59a5.85 5.85 0 0 1-6.17 6.1zm2.45-14.6a2.49 2.49 0 1 0-4.94 0v8.51a2.48 2.48 0 1 0 4.94 0zm24.79 13.64v-8.5c0-1.8-.57-2.94-2.19-2.94a2.77 2.77 0 0 0-2.62 2.94v8.5h-3.43v-8.5c0-1.46-.52-2.89-2.24-2.89a2.68 2.68 0 0 0-2.52 2.66v8.71h-3.43v-14h3.43v.76l-.11 1.24a4.15 4.15 0 0 1 3.9-2.34 4.21 4.21 0 0 1 3.93 2.32 5.5 5.5 0 0 1 4.47-2.32c3.41 0 4.24 2.76 4.24 5.41v8.92zm.57-15.24c.08-.78.21-1.74 1.9-3.09.91-.73 1.25-1.07 1.25-1.72a.82.82 0 0 0-.76-.91c-.67 0-.7.86-.73 1.28h-1.48c0-.63.11-2.58 2.24-2.58a2.21 2.21 0 0 1 2.34 2.19 2.47 2.47 0 0 1-1.09 2c-1.25 1-1.38 1.14-1.64 1.66h2.78v1.22zm9.44 4.06v-2.68h19v2.68zm0 6.06v-2.68h19v2.68zm7.49-12.48a2.43 2.43 0 1 1-2.42-2.42 2.43 2.43 0 0 1 2.42 2.42zm8.89 16.22a2.42 2.42 0 1 1-2.42-2.42 2.41 2.41 0 0 1 2.39 2.42zm10.92-4.35a15.24 15.24 0 0 1-1 5.38l-2.24-.6a19.34 19.34 0 0 0 1.09-5.88l2.14.39c.15 0 .46.11.46.26s-.17.28-.45.45zm5.38-2.32c-.05-.23-.1-.57-.21-1.06a14.21 14.21 0 0 1-1.71.33v10h-2.66v-9.64c-.93.1-2 .21-2.31.26a.66.66 0 0 0-.57.26c-.21.21-.29.28-.42.28a.28.28 0 0 1-.23-.23l-.52-3h2.78c.26-.31.65-.73 1-1.22a17.67 17.67 0 0 0-3.61-3.12l1.61-2.18a7.79 7.79 0 0 1 .89.67 22.16 22.16 0 0 0 2.36-4.37l2.32 1.25a.33.33 0 0 1 .18.24.24.24 0 0 1-.16.2c-.34.16-.41.21-.47.29-1.32 2-1.53 2.31-2.67 3.8a11.34 11.34 0 0 1 1.06 1.19 48.22 48.22 0 0 0 2.84-4.29l2.36 1.43a.33.33 0 0 1 .18.29c0 .23-.26.28-.28.28-.42 0-.44.08-.81.55a75.298 75.298 0 0 1-4.18 4.89c.83-.05 1.37-.11 2.49-.24-.13-.46-.26-1-.44-1.5l2.34-.55a25.32 25.32 0 0 1 1.2 4.58zm.21 6.29a30.12 30.12 0 0 1-1-5l2.11-.44a26.73 26.73 0 0 0 1.09 4.86zm12.09.45c-.73 2.08-2.13 2.41-3.82 2.41h-1.12l-1.43-3a22.91 22.91 0 0 0 2.31.16c.83 0 1.35-.21 1.85-1.85a36.05 36.05 0 0 0 1-9.15v-1.77h-5.91a15.09 15.09 0 0 1-2 2.84l-2-1.64a22.79 22.79 0 0 0 3.84-7.62l2.76.91c.13.05.26.13.26.26a.28.28 0 0 1-.18.26c-.39.18-.42.21-.55.55a12.89 12.89 0 0 1-.67 1.63H218v4.87a39.32 39.32 0 0 1-1.51 11.18zm-6.16-4.37a30.19 30.19 0 0 0-2-5.12l2.34-.94a27.89 27.89 0 0 1 2 5.28zm16.77 6.46v-16.35l-4.15 3.6v-4l4.15-3.61h3.71v20.36zm16.2.18c-3.61 0-6.52-2.14-6.52-6.1a5.28 5.28 0 0 1 2.54-4.58 5 5 0 0 1-2.29-4.23c0-3.61 2.86-5.81 6.27-5.81s6.24 2.2 6.24 5.81a5 5 0 0 1-2.29 4.23 5.28 5.28 0 0 1 2.58 4.58c0 3.96-2.92 6.1-6.53 6.1zm0-9a2.83 2.83 0 1 0 2.81 2.84 2.81 2.81 0 0 0-2.81-2.84zm0-8.37a2.58 2.58 0 0 0 0 5.15 2.58 2.58 0 0 0 0-5.15zm26.35 10.12V138h-2.92v-7.54h-5.09v1.87c-1.28.6-2.6 1.17-3.9 1.72-.34.15-2 .78-2.34.93-.91.39-1 .42-1.2.7-.28.5-.28.5-.47.5s-.44-.37-.44-.39l-1-3.17a25.67 25.67 0 0 0 3.25-.91V124h-2.65v-3.1h2.65v-5.33l2.81.29c.34 0 .65.13.65.39a.53.53 0 0 1-.24.39c-.2.18-.31.28-.31.44v3.82h2.81v.78l2.52-1.32a24.22 24.22 0 0 1 2.52 5l-2.65 1.2a17 17 0 0 0-2.39-4.76v2.2h-2.81v6.65a14.89 14.89 0 0 0 2.34-1v-1.95h5.9v-8.34h-5.48v-2.89h13.42v2.89h-5v8.34h5.53v2.76zm5.17-8.32c-.34.15-.36.18-.42.28a24.6 24.6 0 0 1-2.13 4l-2.44-1.28a20.83 20.83 0 0 0 2.42-4.89l2.49 1.2c.18.08.39.21.39.39s-.26.27-.31.3zM239.94 13.83a3.53 3.53 0 0 1 3.55-2.48c2 0 3.47 1.24 3.47 3a2.74 2.74 0 0 1-2.35 2.84v.15a3.06 3.06 0 0 1 2.62 3.13 3.47 3.47 0 0 1-3.73 3.6 3.6 3.6 0 0 1-3.79-2.46l1.36-.51a2.32 2.32 0 0 0 2.43 1.82 2.2 2.2 0 0 0 2.27-2.43c0-1.6-.9-2.53-2.79-2.53H242v-1.19h.85c1.75 0 2.63-.87 2.63-2.28a1.89 1.89 0 0 0-2-2 2.18 2.18 0 0 0-2.18 1.79zm11.47 10.04h-1.85V22h1.85zm2.38-9.23a3.57 3.57 0 0 1 3.69-3.29 3.13 3.13 0 0 1 3.45 3.21c0 1.36-.51 2.38-2.57 4.18a11.71 11.71 0 0 0-3.26 4h5.9v1.17h-7.26v-1.09a13.71 13.71 0 0 1 3.59-4.82c1.75-1.63 2.14-2.34 2.14-3.43a1.9 1.9 0 0 0-2-2c-1.24 0-2.06.82-2.28 2.45zm12.39 2.13A3.5 3.5 0 0 1 269 15a2.07 2.07 0 0 1 2.18 1.75 3.62 3.62 0 0 1 2.91-1.75 2.24 2.24 0 0 1 2.33 2.48v6.39H275V18c0-1.23-.53-1.77-1.43-1.77a3 3 0 0 0-2.31 1.71v5.95h-1.36V18c0-1.26-.51-1.77-1.36-1.77a3 3 0 0 0-2.34 1.71v5.95h-1.36v-8.7h1.32zm8.57-5.88a1.54 1.54 0 0 1 1.58-1.21c.85 0 1.43.44 1.43 1.19s-.22.88-1 1.48a4.68 4.68 0 0 0-1.17 1.05h2.24v.6h-3.06v-.54a4.39 4.39 0 0 1 1.39-1.46c.71-.54.83-.71.83-1.07a.6.6 0 0 0-.68-.61c-.46 0-.69.31-.8.77zm17.73 5.84h-9.72v-.86h9.72zm0 2.79h-9.72v-.85h9.72zM284.86 14a1 1 0 0 1 0-2 1 1 0 1 1 0 2zm5.51 9.35a1.05 1.05 0 0 1-1-1.05 1 1 0 0 1 1-1 1 1 0 0 1 1 1 1 1 0 0 1-1 1.08zm11.89-7.72c.18-.08.23-.07.3 0a17.73 17.73 0 0 1 1.36 3.06c.05.16 0 .21-.19.28l-.39.11c-.2.07-.23.06-.27-.06-.1-.33-.2-.67-.32-1l-1.63.17v7.04c0 .09 0 .12-.14.12h-.76c-.12 0-.14 0-.14-.12v-6.91l-1.87.13a1.58 1.58 0 0 0-.65.14.51.51 0 0 1-.18.07c-.09 0-.14-.09-.17-.23a8.28 8.28 0 0 1-.17-.93c.35 0 .76.05 1.07.05h.2c.44-.58.87-1.17 1.27-1.77a22 22 0 0 0-2.49-2.61c-.12-.11-.11-.14 0-.31l.29-.36c.13-.15.17-.15.27-.05l.64.63c.43-.66.77-1.24 1.13-1.92A3.85 3.85 0 0 0 300 10c.3.12.68.29.95.43s.19.15.19.22-.07.14-.16.19a1 1 0 0 0-.29.35c-.61 1-1.05 1.72-1.63 2.54.39.39.77.79 1.14 1.24.39-.63.77-1.24 1.11-1.82a7.76 7.76 0 0 0 .69-1.45 7.37 7.37 0 0 1 .93.48c.12.07.15.12.15.2s-.06.16-.17.22a2.76 2.76 0 0 0-.59.75c-.94 1.5-1.9 2.91-2.84 4.15.94-.05 2-.12 3-.2a11.44 11.44 0 0 0-.66-1.31c-.07-.12 0-.16.17-.24zm-3.2 4.47a1.18 1.18 0 0 0-.12.49 14.3 14.3 0 0 1-.83 3.32c-.05.17-.09.24-.15.24s-.14-.06-.26-.14a1.55 1.55 0 0 0-.58-.25 11.77 11.77 0 0 0 .92-3.35 3.31 3.31 0 0 0 0-.82 5.42 5.42 0 0 1 .84.14c.17 0 .23.1.23.17s-.02.1-.05.2zm3.57-.51c.19-.05.22 0 .29.1a19.13 19.13 0 0 1 1 3.22c0 .13 0 .18-.21.25l-.4.12c-.24.07-.26 0-.29-.09a20.58 20.58 0 0 0-.89-3.26c-.05-.14 0-.19.17-.24zm7-6.54h1.83c.1 0 .16 0 .16.16v1.29a52.87 52.87 0 0 1-.62 8.2c-.29 1.67-.8 2.55-2.13 2.57a13 13 0 0 1-1.58-.09c-.34 0-.35-.05-.42-.41a2.64 2.64 0 0 0-.27-.76 12.76 12.76 0 0 0 2.21.24c.73 0 1-.82 1.19-1.92a51.85 51.85 0 0 0 .47-8.35h-5a13.12 13.12 0 0 1-1.43 2.21c-.1.14-.17.19-.24.19s-.13-.05-.25-.17a1.88 1.88 0 0 0-.55-.41 12 12 0 0 0 2.47-4.34 6 6 0 0 0 .32-1.49 8 8 0 0 1 1.06.27c.15 0 .23.12.23.21s0 .15-.15.3a2.17 2.17 0 0 0-.42.82c-.16.47-.36 1-.58 1.48zm-4 3.63c.15-.1.19-.08.26 0a14.38 14.38 0 0 1 2.19 3.23c.07.14.05.17-.14.28l-.47.27c-.22.13-.26.13-.33 0a13.1 13.1 0 0 0-2.05-3.25c-.09-.1-.09-.14.12-.27zm13.12 6.05h2.31v1.14h-6.14v-1.14h2.47v-9.82a11.65 11.65 0 0 1-2.45 1.22l-.24-1.24a11.38 11.38 0 0 0 2.89-1.46h1.16zm7.95-2.29c.68-.29 1.33-.6 2-.93a2.82 2.82 0 0 0 0 .66c0 .36 0 .37-.29.51-1.09.51-2.41 1.09-3.55 1.56a2 2 0 0 0-.63.36.36.36 0 0 1-.24.13c-.07 0-.14-.06-.19-.18a9.72 9.72 0 0 1-.37-.94 8 8 0 0 0 1.61-.49l.74-.27v-5.24h-2.03c-.1 0-.13 0-.13-.14v-.67c0-.12 0-.14.13-.14h2.03v-1.92a14.16 14.16 0 0 0-.12-2.35 8.85 8.85 0 0 1 1.08.11c.12 0 .19.06.19.15a.93.93 0 0 1-.07.31 7.47 7.47 0 0 0-.1 1.75v2h1.82c.1 0 .14 0 .14.14v.71c0 .12 0 .14-.14.14h-1.82zm12-1.17c0 .12 0 .13-.13.13h-4.78v5.86c0 .08 0 .14-.13.14h-.82c-.12 0-.13 0-.13-.14V19.4h-4.36c-.09 0-.13 0-.13-.13v-.72c0-.13 0-.15.13-.15h4.36V12h-3.93c-.08 0-.14 0-.14-.14v-.7c0-.12 0-.13.14-.13h9.36c.1 0 .14 0 .14.13v.7c0 .12 0 .14-.14.14h-4.35v6.44h4.78c.09 0 .13 0 .13.15zm-9-6c.17-.07.2 0 .25.05a14.09 14.09 0 0 1 1.33 3.36c0 .14 0 .16-.17.22l-.5.21c-.23.1-.25.07-.28-.05a13.23 13.23 0 0 0-1.26-3.39c-.05-.08 0-.11.17-.22zm7.92.64a1.47 1.47 0 0 0-.24.41 20.94 20.94 0 0 1-1.33 2.75c-.1.17-.15.24-.22.24a.74.74 0 0 1-.25-.12 2.49 2.49 0 0 0-.56-.22 17.26 17.26 0 0 0 1.47-2.97 3.64 3.64 0 0 0 .21-.85 5.4 5.4 0 0 1 .93.33c.1.05.17.1.17.18s-.08.18-.15.25zM173.67 24.36V12.41l-3 2.64v-2.93l3-2.63h2.71v14.87zm11.85.14a4.29 4.29 0 0 1-4.52-4.44v-6.27a4.52 4.52 0 0 1 9 0v6.27a4.28 4.28 0 0 1-4.48 4.44zm1.8-10.67a1.82 1.82 0 1 0-3.62 0V20a1.82 1.82 0 1 0 3.62 0zM197 24.5c-2.17 0-4.86-1.17-4.86-5.59s2.69-5.57 4.86-5.57a4.62 4.62 0 0 1 3.6 1.47l-1.84 1.84a2.21 2.21 0 0 0-1.76-.86 1.87 1.87 0 0 0-1.54.71 3.71 3.71 0 0 0-.61 2.41 3.75 3.75 0 0 0 .61 2.43 1.87 1.87 0 0 0 1.54.71 2.21 2.21 0 0 0 1.76-.86l1.87 1.81a4.64 4.64 0 0 1-3.63 1.5zm18.4-.14v-6.58a1.81 1.81 0 1 0-3.61-.07v6.65h-2.71v-6.58a1.83 1.83 0 1 0-3.64 0v6.58h-2.71V13.47h2.65v1a3.83 3.83 0 0 1 2.73-1.13 3.38 3.38 0 0 1 2.89 1.38 4.15 4.15 0 0 1 3.25-1.38 3.8 3.8 0 0 1 2.68 1 4.12 4.12 0 0 1 1.19 3.09v7z"/></g></g></svg>