<svg xmlns="http://www.w3.org/2000/svg" viewBox="0 0 126.61 31.22"><defs><style>.cls-1{fill:#393c45}</style></defs><title>i-texttel4</title><g id="Layer_2" data-name="Layer 2"><path class="cls-1" d="M10.56 3.32v1.37c0 .07 0 .1-.1.1h-.57c-.09 0-.1 0-.1-.1V2.78h-9v1.91c0 .09 0 .1-.1.1H.1c-.09 0-.1 0-.1-.1V2.21c0-.06 0-.11.1-.11h7.28A12.72 12.72 0 0 0 8.26.54 2.22 2.22 0 0 0 8.42 0a7.83 7.83 0 0 1 .75.26c.1 0 .15.09.15.15a.15.15 0 0 1-.1.16 1 1 0 0 0-.28.34 13.87 13.87 0 0 1-.74 1.22h2.28c.08 0 .1 0 .1.11v.61zm-1 6.44v1.83c0 .08 0 .09-.09.09h-.6c-.09 0-.1 0-.1-.09v-.49h-7v.54c0 .08 0 .1-.09.1h-.57c-.1 0-.11 0-.11-.1V8c0-.1 0-.1.11-.1h3a9.44 9.44 0 0 0 .5-1.28H2.22c-.07 0-.09 0-.09-.1V3.96c0-.07 0-.1.09-.1H8.3c.08 0 .09 0 .09.1v2.63c0 .07 0 .1-.09.1H5.43a10.15 10.15 0 0 1-.49 1.28h4.54c.09 0 .09 0 .09.1v.92zM1.83.16h.22a6.6 6.6 0 0 1 .89 1.39c0 .08 0 .09-.11.15l-.36.17C2.3 2 2.28 2 2.21 1.8A6.36 6.36 0 0 0 1.39.46c-.06-.07-.06-.1.11-.17zm7 8.45h-7v1.81h7zm-1.2-4.1h-4.7V6h4.7zM4.88 0C5 0 5 0 5.07.07a6.42 6.42 0 0 1 .77 1.41c0 .09 0 .1-.13.18l-.34.16c-.17.07-.18.06-.23-.07A7.43 7.43 0 0 0 4.41.32c-.07-.09 0-.1.1-.16zm14.3 8.38a11.91 11.91 0 0 0 5 2.19 2.2 2.2 0 0 0-.34.46c-.13.25-.13.25-.37.17a11 11 0 0 1-4.89-2.57c0 2 .06 2.78.06 3s0 .11-.1.11h-.62c-.1 0-.11 0-.11-.11s.05-1 .07-3a10.81 10.81 0 0 1-4.71 2.62c-.23.08-.26.08-.38-.16a1.39 1.39 0 0 0-.35-.44 10.82 10.82 0 0 0 4.79-2.29h-4.45c-.06 0-.12 0-.12-.11v-.42c0-.09 0-.1.12-.1h5.03v-1h-3.78c-.06 0-.11 0-.11-.09V6.2c0-.11 0-.12.11-.12h3.78v-1h-4.37c-.07 0-.11 0-.11-.1v-.42c0-.09 0-.11.11-.11h2.8a5.08 5.08 0 0 0-.55-1.12c-.06-.09 0-.11.1-.17l.34-.11c.13-.05.16-.05.21 0a6.81 6.81 0 0 1 .69 1.38h2.4a7 7 0 0 0 .49-1 3.34 3.34 0 0 0 .19-.43 7.07 7.07 0 0 1 .69.18c.08 0 .14.08.14.15s-.06.11-.11.15a.91.91 0 0 0-.19.28 6.49 6.49 0 0 1-.42.71h2.93c.07 0 .11 0 .11.11V5c0 .09 0 .1-.11.1h-4.59v1h4.05c.08 0 .1 0 .1.12v.45c0 .08 0 .09-.1.09h-4.05v1h5.3c.08 0 .1 0 .1.1v.44c0 .09 0 .11-.1.11h-1.72zM24 2.8c0 .09 0 .11-.1.11H12.78c-.06 0-.12 0-.12-.11v-.46c0-.11 0-.12.12-.12h2.16A5.76 5.76 0 0 0 14 .87c0-.07 0-.11.08-.17l.35-.18c.09-.06.13-.06.19 0a7.58 7.58 0 0 1 .93 1.31c0 .08 0 .1-.08.17l-.43.23h1.72v-1a5.2 5.2 0 0 0-.07-1.14c.28 0 .59 0 .8.06s.13.05.13.12a.38.38 0 0 1-.06.18 2.37 2.37 0 0 0-.07.82v1h1.39v-1A4.68 4.68 0 0 0 18.79.1c.27 0 .59 0 .8.06s.13.06.13.12a.41.41 0 0 1 0 .17 2.57 2.57 0 0 0-.08.82v1h1.16A8.94 8.94 0 0 0 21.53 1a2 2 0 0 0 .21-.61 7.08 7.08 0 0 1 .74.25.16.16 0 0 1 .13.13c0 .08 0 .12-.11.17a.82.82 0 0 0-.22.26c-.21.34-.44.69-.69 1h2.27c.08 0 .1 0 .1.12zm5.25 3.44v3.84c0 .06 0 .11-.11.11h-.53c-.09 0-.1 0-.1-.11v-.65h-1.66v1.08c0 .09 0 .11-.11.11h-.54c-.1 0-.11 0-.11-.11V1s0-.11.11-.11h2.89s.11 0 .11.11v2.62zm-.71-4.72h-1.69V4.7h1.69zm0 3.86h-1.69v3.36h1.69zm8.61-.6c0 .09 0 .1-.1.1h-7.27c-.08 0-.1 0-.1-.1v-.53c0-.09 0-.11.1-.11h2.99v-1.7h-2.44c-.07 0-.11 0-.11-.11v-.49c0-.1 0-.12.11-.12h2.47a8.62 8.62 0 0 0-.12-1.63 6.93 6.93 0 0 1 .85.06c.09 0 .15.05.15.12a1.58 1.58 0 0 1-.06.23 4.83 4.83 0 0 0-.08 1.25h2.85c.08 0 .1 0 .1.12v.52c0 .09 0 .11-.1.11h-2.85v1.67h3.51c.08 0 .1 0 .1.11zM37 7.09c0 .1 0 .11-.11.11h-1.56v3.4a.94.94 0 0 1-.37.87c-.22.16-.57.23-1.5.23-.25 0-.26 0-.33-.25a1.6 1.6 0 0 0-.26-.59 11.87 11.87 0 0 0 1.22.06c.28 0 .46-.12.46-.48V7.17h-4.69c-.07 0-.1 0-.1-.11v-.5c0-.09 0-.09.1-.09h4.71a7 7 0 0 0-.09-1.38 5.53 5.53 0 0 1 .83.09c.1 0 .17.06.17.1a.42.42 0 0 1-.08.22 3 3 0 0 0-.07.93v.06h1.56c.1 0 .11 0 .11.09zm-5.73.84c.1-.07.13-.08.2 0a7.31 7.31 0 0 1 1.29 1.58c.05.07 0 .11-.06.19l-.36.23c-.13.1-.16.12-.22 0a7.45 7.45 0 0 0-1.24-1.62c-.08-.08-.06-.12.07-.2zm12.29-4.7v1.2c0 .07 0 .1-.1.1h-3.58v7.04c0 .08 0 .1-.1.1h-.58c-.1 0-.11 0-.11-.1V.63c0-.08 0-.1.11-.1h4.29c.07 0 .1 0 .1.1v1.2zm-.74-2h-2.94v1h2.94zm0 1.64h-2.94v1h2.94zm3.59 5.36v2.25c0 .07 0 .1-.11.1h-.5c-.09 0-.1 0-.1-.1v-.59h-2.94v.68c0 .1 0 .11-.11.11h-.53c-.09 0-.1 0-.1-.11V5.68c0-.07 0-.11.1-.11h4.23c.08 0 .11 0 .11.11v1.31zm-.71-2h-2.94v1.18h2.94zm0 1.8h-2.94v1.24h2.94zm3.77.37v1.86c0 .49-.09.8-.33 1s-.59.26-1.63.26c-.23 0-.23 0-.3-.25a2 2 0 0 0-.23-.57 8.17 8.17 0 0 0 1 .05c.57 0 .69-.1.69-.62V4.51h-3.74c-.06 0-.12 0-.12-.1V.63c0-.12 0-.1.12-.1h4.48c.07 0 .1 0 .1.1v1.86zm-.77-7.2h-3.12v1h3.12zm0 1.64h-3.12v1h3.12zm4.64 2.52h-1.42V4h1.42zm0 5.23h-1.42V9.17h1.42zM56.51 9a1.26 1.26 0 0 0 1.21.9c1.26 0 2-1 2.08-4a2.27 2.27 0 0 1-2.08 1.32c-1.4 0-2.5-1.17-2.5-3S56.34 1 57.92 1c1.75 0 2.91 1.36 2.91 4.43 0 3.76-1.15 5.32-3.11 5.32a2.25 2.25 0 0 1-2.25-1.29zM58 1.88c-1 0-1.64.9-1.64 2.35S57 6.35 57.9 6.35A2 2 0 0 0 59.75 5c-.03-2-.64-3.12-1.75-3.12zm6.23 3.48h-1.41V4h1.41zm0 5.23h-1.41V9.17h1.41zm7.6-4.76c0 3.45-1 4.93-2.86 4.93s-2.85-1.46-2.85-4.9S67.17 1 69 1s2.83 1.4 2.83 4.83zm-4.61 0c0 2.91.57 4 1.75 4s1.75-1.1 1.75-4-.56-3.92-1.72-3.92-1.78 1.01-1.78 3.94zm11.78 0c0 3.45-1 4.93-2.86 4.93s-2.85-1.46-2.85-4.9S74.39 1 76.21 1 79 2.4 79 5.83zm-4.6 0c0 2.91.57 4 1.74 4s1.76-1.1 1.76-4-.56-3.94-1.73-3.94-1.73 1.03-1.73 3.96zm6.23.54a4.1 4.1 0 0 1 3.05-1.71 5.45 5.45 0 0 1 2.61.82 5.68 5.68 0 0 0 2.75 1 3.39 3.39 0 0 0 2.51-1.32l.41.36a4 4 0 0 1-3.08 1.76 5.22 5.22 0 0 1-2.61-.85 5.54 5.54 0 0 0-2.74-1A3.51 3.51 0 0 0 81 6.72zM97.1 9.72h1.77v.87h-4.7v-.87h1.89V2.21a9.41 9.41 0 0 1-1.88.93l-.18-1a8.51 8.51 0 0 0 2.21-1.12h.89zm9.45-1.55c0 1.61-1.18 2.59-2.94 2.59s-2.93-.95-2.93-2.55c0-1.12.62-1.81 2-2.47-1.27-.63-1.68-1.35-1.68-2.39a2.71 2.71 0 0 1 5.36 0c0 1-.5 1.69-1.78 2.25 1.42.65 1.97 1.4 1.97 2.57zm-3.08-2c-1.25.58-1.75 1.17-1.75 2a1.71 1.71 0 0 0 1.89 1.75 1.67 1.67 0 0 0 1.9-1.71c0-.83-.4-1.38-1.77-2zm.31-.93c1.17-.5 1.51-1.05 1.51-1.85a1.51 1.51 0 0 0-1.68-1.48A1.48 1.48 0 0 0 102 3.35c0 .73.35 1.2 1.55 1.73zm5.99.12h-1.42V4h1.42zm0 5.23h-1.42V9.17h1.42zm7.59-4.76c0 3.45-1 4.93-2.86 4.93s-2.84-1.46-2.84-4.9 1-4.85 2.87-4.85 2.83 1.39 2.83 4.82zm-4.6 0c0 2.91.57 4 1.74 4s1.76-1.1 1.76-4-.56-3.94-1.73-3.94-1.77 1.03-1.77 3.96zm11.82 0c0 3.45-1 4.93-2.86 4.93s-2.85-1.46-2.85-4.9 1-4.85 2.87-4.85 2.84 1.39 2.84 4.82zm-4.6 0c0 2.91.57 4 1.74 4s1.75-1.1 1.75-4-.56-3.94-1.73-3.94S120 2.92 120 5.85zM4.73 18.93a7.18 7.18 0 0 0-2.88 5.95 7.18 7.18 0 0 0 2.88 6l-.32.38C2 29.33 1 27.42 1 24.88s1-4.44 3.41-6.33zm7.49 10.41a19.26 19.26 0 0 0 2.94.17c.65 0 1.39 0 2.16-.06a2.32 2.32 0 0 0-.19.54c-.05.26-.05.28-.31.29H15.6c-5.13 0-6-.84-6.82-2.51a6.49 6.49 0 0 1-1.92 2.61c-.09.08-.14.13-.18.13s-.09-.05-.18-.16a1.34 1.34 0 0 0-.44-.35 6.16 6.16 0 0 0 2.51-4.52 3.77 3.77 0 0 0 0-.73c.3 0 .53.09.75.14s.2.08.2.15a.5.5 0 0 1-.1.21.81.81 0 0 0-.13.32 9.72 9.72 0 0 1-.28 1.33 3.26 3.26 0 0 0 2.39 2.23v-5.48H8.22c-.06 0-.12 0-.12-.11V23c0-.09 0-.11.12-.11h7.17c.06 0 .11 0 .11.11v.54c0 .09 0 .11-.11.11h-3.17v2.18h3.21c.08 0 .11 0 .11.1v.55c0 .09 0 .1-.11.1h-3.21zm4.84-7.63v1.34c0 .08 0 .11-.1.11h-.6c-.09 0-.1 0-.1-.11v-1.79H7.41v1.79c0 .09 0 .11-.1.11h-.6c-.09 0-.11 0-.11-.11v-2.43c0-.08 0-.09.11-.09h4.6v-.19a5.44 5.44 0 0 0-.09-1.32 6.21 6.21 0 0 1 .84.06c.11 0 .16.05.16.11a.53.53 0 0 1-.08.23 3.27 3.27 0 0 0-.05.92v.19h4.89c.08 0 .1 0 .1.09v.6zm3.4 3.63v-1.83a16.47 16.47 0 0 1-1.17 1.58c-.07.08-.12.13-.17.13s-.08 0-.13-.14a1.51 1.51 0 0 0-.34-.48 13 13 0 0 0 2.69-4.66 4.25 4.25 0 0 0 .2-.87 7.24 7.24 0 0 1 .8.29c.12.05.13.08.13.14a.21.21 0 0 1-.1.17 1.47 1.47 0 0 0-.26.51 19 19 0 0 1-.9 2v8.44s0 .1-.11.1h-.62c-.09 0-.1 0-.1-.1v-2zM26.81 23a12.36 12.36 0 0 0 4 5 1.64 1.64 0 0 0-.39.5c-.07.11-.11.16-.15.16s-.1 0-.18-.11a12.23 12.23 0 0 1-3.64-5c0 3.93.11 6.83.11 7s0 .1-.11.1h-.64c-.09 0-.1 0-.1-.1s.05-3.11.09-7a10.88 10.88 0 0 1-3.38 5c-.08.07-.13.11-.17.11s-.09-.05-.15-.15a1.59 1.59 0 0 0-.42-.44A11.32 11.32 0 0 0 25.44 23h-3.05c-.06 0-.11 0-.11-.1v-.57c0-.1 0-.11.11-.11h3.38v-1.4a8.71 8.71 0 0 0-.09-1.58c.31 0 .62 0 .85.07s.17.06.17.11a.66.66 0 0 1-.07.25 3.25 3.25 0 0 0-.08 1.13v1.5h3.88c.07 0 .09 0 .09.11V23c0 .09 0 .1-.09.1H28.6zm14.79 2.77v4.43c0 .06 0 .11-.11.11h-.59c-.09 0-.11 0-.11-.11v-.79h-6v.82c0 .09 0 .1-.1.1h-.63c-.09 0-.11 0-.11-.1V19.98c0-.08 0-.1.11-.1h7.47c.08 0 .11 0 .11.1v3zm-.81-5.12h-6v3.52h6zm0 4.25h-6v3.77h6zm7.66-2.63a.91.91 0 1 1-.91-.91.89.89 0 0 1 .91.91zm0 5.27a.91.91 0 0 1-1.82 0 .91.91 0 0 1 1.82 0zm6.75-4.83a.54.54 0 0 0 .25 0 .28.28 0 0 1 .13 0c.07 0 .16 0 .35.23s.26.3.26.38 0 .11-.11.17a.72.72 0 0 0-.23.39A10.8 10.8 0 0 1 52.13 29c-.09.08-.14.12-.18.12s-.11-.06-.18-.17a1.42 1.42 0 0 0-.43-.42 9.61 9.61 0 0 0 3.79-5.11h-3.18c-.06 0-.11 0-.11-.11v-.58c0-.08 0-.09.11-.09h1.32zm2.49-1.48a10.74 10.74 0 0 0 1.25 3.11A14.81 14.81 0 0 0 61 22.22a2.32 2.32 0 0 0 .36-.62 3.74 3.74 0 0 1 .7.48c.09.06.12.11.12.18s-.07.12-.16.17a3 3 0 0 0-.59.54 23.27 23.27 0 0 1-2.11 2 10.56 10.56 0 0 0 3.91 3.5 1.86 1.86 0 0 0-.45.5c-.08.12-.11.17-.17.17s-.09 0-.2-.09a11 11 0 0 1-4.78-6.19c0 2.27.1 4.93.1 6.56a1 1 0 0 1-.46.92 3.29 3.29 0 0 1-1.62.22c-.26 0-.26 0-.33-.26a2 2 0 0 0-.28-.6h1.12c.53 0 .74-.12.74-.48v-8.59a6.58 6.58 0 0 0-.09-1.43l.87.07c.11 0 .17.06.17.12a.84.84 0 0 1-.08.27 3.24 3.24 0 0 0-.08 1zM76.05 30c0 .09 0 .1-.1.1h-6.01v.57c0 .09 0 .1-.1.1h-.54c-.09 0-.1 0-.1-.1v-4.91c-.2.26-.42.53-.66.8-.08.09-.12.13-.16.13s-.09-.05-.17-.13a3.38 3.38 0 0 0-.36-.25v2.6c0 .06 0 .11-.1.11h-.53c-.1 0-.11 0-.11-.11v-.64h-1.45v1.07c0 .1 0 .11-.11.11H65c-.09 0-.11 0-.11-.11v-9.56c0-.08 0-.11.11-.11h2.82c.1 0 .1 0 .1.11v6.51a6.81 6.81 0 0 0 1.63-2 3.21 3.21 0 0 0 .3-.89c.25.07.48.15.67.22s.13.08.13.13-.06.11-.12.16a2.18 2.18 0 0 0-.38.56.89.89 0 0 1-.09.16h2.13a3.88 3.88 0 0 0 .25-.51 2.34 2.34 0 0 0 .17-.68 6.51 6.51 0 0 1 .65.2c.08 0 .14.08.14.13s0 .1-.1.15a.64.64 0 0 0-.16.2c-.1.18-.18.36-.27.51h2.83c.07 0 .12 0 .12.1v.43c0 .09 0 .11-.12.11h-2.86v1h2.47c.07 0 .1 0 .1.1v.43c0 .09 0 .11-.1.11h-2.47v1h2.44c.07 0 .11 0 .11.11v.43c0 .09 0 .1-.11.1h-2.44v1.12h3.11c.08 0 .1 0 .1.09zm-8.88-9.6h-1.51v3.12h1.51zm0 3.79h-1.51v3.39h1.51zM71.85 22v1.12c0 .07 0 .1-.11.1h-3.09c-.08 0-.09 0-.09-.1v-.45c0-.09 0-.1.09-.1h2.53v-.94h-2.32c-.07 0-.1 0-.1-.12v-.42c0-.09 0-.1.1-.1h2.32v-.91h-2.53c-.08 0-.09 0-.09-.1v-.44c0-.1 0-.11.09-.11h3.12c.06 0 .11 0 .11.11v1.13zm.29 3.17h-2.2v1h2.2zm0 1.6h-2.2v1h2.2zm0 1.62h-2.2v1.12h2.2zM75.63 22v1.13c0 .07 0 .1-.1.1h-2.18a8.34 8.34 0 0 0-.84 0c-.1 0-.11 0-.11-.1v-.45c0-.09 0-.1.11-.1a8.34 8.34 0 0 0 .84 0H75v-.94h-2.3c-.07 0-.11 0-.11-.12v-.42c0-.09 0-.1.11-.1H75v-.91h-2.49c-.06 0-.11 0-.11-.1v-.44c0-.1 0-.11.11-.11h3.05c.13 0 .1 0 .1.11v1.13zm11.47 3.77v4.43c0 .06 0 .11-.11.11h-.59c-.09 0-.11 0-.11-.11v-.79h-6v.82c0 .09 0 .1-.1.1h-.63c-.09 0-.11 0-.11-.1V19.98c0-.08 0-.1.11-.1h7.47c.08 0 .11 0 .11.1v3zm-.81-5.12h-6v3.52h6zm0 4.25h-6v3.77h6zm7.83-.02A1.08 1.08 0 0 1 93 26a1.08 1.08 0 1 1 0-2.15 1.07 1.07 0 0 1 1.12 1.03zm6.45-3.61a.46.46 0 0 0 .26-.05.35.35 0 0 1 .12 0c.07 0 .15 0 .33.22s.21.25.21.3a.23.23 0 0 1-.13.2.76.76 0 0 0-.25.36 14.07 14.07 0 0 1-1.19 2.06 6.9 6.9 0 0 0 1.82 1.64 2.09 2.09 0 0 0-.41.48c0 .08-.07.12-.11.12s-.09 0-.17-.11A7.4 7.4 0 0 1 99.71 25v5.7c0 .06 0 .1-.11.1H99c-.09 0-.1 0-.1-.1s.1-.7.1-1.7v-3.49A16.6 16.6 0 0 1 97.34 27a.31.31 0 0 1-.19.1c-.05 0-.08 0-.12-.13a2 2 0 0 0-.31-.53 10.52 10.52 0 0 0 3.72-4.44h-3.15c-.08 0-.1 0-.1-.11v-.53c0-.09 0-.11.1-.11H99v-.75a6.19 6.19 0 0 0-.11-1.47 5.67 5.67 0 0 1 .86.09c.09 0 .16.05.16.1a.53.53 0 0 1-.08.25 2.64 2.64 0 0 0-.08 1v.78zm5.63 7.67c0 .39 0 .51.14.59a1.37 1.37 0 0 0 .7.11c.55 0 .73 0 .83-.19s.2-.51.21-1.51a1.76 1.76 0 0 0 .51.26c.23.08.23.09.22.31 0 1-.18 1.3-.45 1.55a1.94 1.94 0 0 1-1.34.31c-.81 0-1.1-.08-1.25-.19s-.35-.36-.35-1v-4.46h-1.24c0 3.09-.69 4.64-2.91 5.78a.42.42 0 0 1-.18.07c-.07 0-.11-.06-.2-.16a1.51 1.51 0 0 0-.45-.39c2.26-1 3-2.25 3-5.3h-1.22c-.09 0-.1 0-.1-.1v-4.56c0-.08 0-.1.1-.1h5.54c.08 0 .1 0 .1.1v4.56c0 .07 0 .1-.1.1h-1.52zm.8-8.24h-4.17V24H107zm12.6 5.07v4.43c0 .06 0 .11-.11.11h-.62c-.09 0-.11 0-.11-.11v-.79h-6v.82c0 .09 0 .1-.1.1h-.63c-.09 0-.11 0-.11-.1V19.98c0-.08 0-.1.11-.1h7.47c.08 0 .11 0 .11.1v3zm-.81-5.12h-6v3.52h6zm0 4.25h-6v3.77h6zm4.41-6.35c2.46 1.89 3.41 3.8 3.41 6.33s-1 4.45-3.41 6.34l-.32-.38a7.18 7.18 0 0 0 2.88-6 7.18 7.18 0 0 0-2.88-5.95z" id="SVG"/></g></svg>