<svg xmlns="http://www.w3.org/2000/svg" viewBox="0 0 247.46 49.86"><defs><style>.cls-1{fill:#393c45}</style></defs><title>i-texttel3</title><g id="Layer_2" data-name="Layer 2"><path class="cls-1" d="M9.48 49.86C4.41 49.86 0 46.54 0 40.6V27.49c0-5.95 4.41-9.27 9.48-9.27s9.44 3.32 9.44 9.27V40.6c0 5.94-4.37 9.26-9.44 9.26zm3.76-22.29c0-2.62-1.53-4.23-3.76-4.23s-3.8 1.66-3.8 4.23v13c0 2.63 1.57 4.2 3.8 4.2s3.76-1.57 3.76-4.2zM29.3 49.6v-25L23 30.11V24l6.34-5.51H35V49.6zm11.09 0v-5.11L52 31a5.35 5.35 0 0 0 1.61-3.76 3.54 3.54 0 0 0-3.75-3.88c-1.88 0-3.81 1-3.81 4h-5.66c0-5.68 4.15-9.09 9.49-9.09 5.5 0 9.43 3.45 9.43 9.05 0 3-1.18 4.63-3.32 7.12L47.3 44.49h12v5.11zm31.36.26c-5.07 0-9.48-3.32-9.48-9.26V27.49c0-5.95 4.41-9.27 9.48-9.27s9.44 3.32 9.44 9.27V40.6c0 5.94-4.37 9.26-9.44 9.26zm3.76-22.29c0-2.62-1.53-4.23-3.76-4.23S68 25 68 27.57v13c0 2.63 1.57 4.2 3.8 4.2s3.76-1.57 3.76-4.2zm9.39 12.2v-5.29h13.46v5.29zm26.66 10.09c-5.07 0-9.48-3.32-9.48-9.26V27.49c0-5.95 4.41-9.27 9.48-9.27s9.44 3.32 9.44 9.27V40.6c0 5.94-4.37 9.26-9.44 9.26zm3.76-22.29c0-2.62-1.53-4.23-3.76-4.23s-3.8 1.61-3.8 4.23v13c0 2.63 1.57 4.2 3.8 4.2s3.76-1.57 3.76-4.2zM134 49.86c-5.07 0-9.48-3.32-9.48-9.26V27.49c0-5.95 4.41-9.27 9.48-9.27s9.44 3.32 9.44 9.27V40.6c-.04 5.94-4.44 9.26-9.44 9.26zm3.76-22.29c0-2.62-1.53-4.23-3.76-4.23s-3.8 1.61-3.8 4.23v13c0 2.63 1.57 4.2 3.8 4.2s3.76-1.57 3.76-4.2zm8.75 22.03v-5.11L158.13 31a5.33 5.33 0 0 0 1.62-3.76 3.55 3.55 0 0 0-3.75-3.9c-1.88 0-3.8 1-3.8 4h-5.68c0-5.68 4.15-9.09 9.48-9.09 5.51 0 9.44 3.45 9.44 9.05 0 3-1.18 4.63-3.32 7.12l-8.7 10.1h12v5.08zm20.42-9.83v-5.29h13.46v5.29zm26.67 10.09c-5.07 0-9.49-3.32-9.49-9.26V27.49c0-5.95 4.42-9.27 9.49-9.27s9.4 3.32 9.4 9.27V40.6c0 5.94-4.33 9.26-9.4 9.26zm3.76-22.29c0-2.62-1.53-4.23-3.76-4.23s-3.81 1.61-3.81 4.23v13c0 2.63 1.58 4.2 3.81 4.2s3.76-1.57 3.76-4.2zM216 49.86c-5.07 0-9.49-3.32-9.49-9.26V27.49c0-5.95 4.42-9.27 9.49-9.27s9.44 3.32 9.44 9.27V40.6c0 5.94-4.38 9.26-9.44 9.26zm3.75-22.29c0-2.62-1.53-4.23-3.75-4.23s-3.81 1.61-3.81 4.23v13c0 2.63 1.58 4.2 3.81 4.2s3.75-1.57 3.75-4.2zm8.79 22.03v-5.11L240.17 31a5.35 5.35 0 0 0 1.61-3.76 3.54 3.54 0 0 0-3.78-3.9c-1.88 0-3.81 1-3.81 4h-5.68c0-5.68 4.15-9.09 9.49-9.09 5.5 0 9.43 3.45 9.43 9.05 0 3-1.17 4.63-3.32 7.12l-8.69 10.1h12v5.08zM114.88 4.34a14.45 14.45 0 0 1-2.22 2.57 20.76 20.76 0 0 1-3.1 2.17c-.2.11-.29.11-.41 0a2 2 0 0 0-.68-.44A16.45 16.45 0 0 0 112 6.29a11 11 0 0 0 2.21-2.45h-3c-.73 0-1.52 0-2.28.08-.11 0-.15 0-.17-.18s-.05-.56-.07-.84c.86.07 1.7.07 2.51.07h3.54l-.07-1.34a6.89 6.89 0 0 0-.21-1.63 6 6 0 0 1 1.17.11c.15 0 .15.18.08.32a3.77 3.77 0 0 0-.08 1.24l.05 1.3h1.45c.91 0 1.59 0 2.53-.06.13 0 .18 0 .18.14v.69c0 .11 0 .15-.18.15-.94 0-1.67-.05-2.52-.05h-1.39l.25 5.34c0 .86-.18 1.26-.62 1.48a4.81 4.81 0 0 1-1.71.36c-.18 0-.23 0-.28-.16a1.76 1.76 0 0 0-.59-.77 6.57 6.57 0 0 0 1.8-.17c.35-.1.46-.24.43-1l-.15-3.55zM125 6.18a11.67 11.67 0 0 0-1.89.14c-.12 0-.19-.06-.23-.2a6.52 6.52 0 0 1-.14-1.06 26 26 0 0 0 3.09.12h7.37c.17 0 .21 0 .21.17v.73c0 .23 0 .18-.21.17h-3zm12.67-4.43a.21.21 0 0 1 .27.06 10.5 10.5 0 0 1 1.48 2.5c.06.13.06.2-.08.27a6 6 0 0 1-.62.31c-.15.06-.21 0-.28-.14a9.92 9.92 0 0 0-1.5-2.61 4.93 4.93 0 0 1 .73-.39zm9.54 0a.22.22 0 0 1 0 .36 3 3 0 0 0-.59 1 19.33 19.33 0 0 1-2.45 4.33A15.26 15.26 0 0 1 140.4 11c-.15.1-.22.11-.35 0a2.46 2.46 0 0 0-.85-.39A15.71 15.71 0 0 0 143.35 7a16.25 16.25 0 0 0 2.27-4.05 7 7 0 0 0 .38-1.76 6.41 6.41 0 0 1 1.21.55zm-6-.82a.2.2 0 0 1 .25.06 10 10 0 0 1 1.32 2.49c.05.14 0 .21-.07.28a3.81 3.81 0 0 1-.63.28c-.16.06-.21 0-.27-.09a10 10 0 0 0-1.36-2.66c.22-.14.55-.29.74-.37zM153 6.18a11.67 11.67 0 0 0-1.89.14c-.12 0-.19-.06-.23-.2a6.52 6.52 0 0 1-.14-1.06 26 26 0 0 0 3.09.12h7.37c.17 0 .21 0 .21.17v.73c0 .23 0 .18-.21.17h-3zm42.88-1.84a14.45 14.45 0 0 1-2.22 2.57 20.76 20.76 0 0 1-3.1 2.17c-.2.11-.29.11-.41 0a2 2 0 0 0-.68-.44A16.45 16.45 0 0 0 193 6.29a11 11 0 0 0 2.21-2.45h-3c-.73 0-1.52 0-2.28.08-.11 0-.15 0-.17-.18s0-.56-.07-.84c.86.07 1.7.07 2.51.07h3.54l-.07-1.34a6.89 6.89 0 0 0-.21-1.63 6 6 0 0 1 1.17.11c.15 0 .15.18.08.32a3.77 3.77 0 0 0-.08 1.24l.05 1.3h1.45c.91 0 1.59 0 2.53-.06.13 0 .18 0 .18.14v.69c0 .11-.05.15-.18.15-.94 0-1.67-.05-2.52-.05h-1.39l.25 5.34c0 .86-.18 1.26-.62 1.48a4.81 4.81 0 0 1-1.71.36c-.18 0-.23 0-.28-.16a1.76 1.76 0 0 0-.59-.77 6.57 6.57 0 0 0 1.8-.17c.35-.1.46-.24.43-1l-.15-3.55zM206 6.18a11.67 11.67 0 0 0-1.89.14c-.12 0-.19-.06-.23-.2a6.52 6.52 0 0 1-.14-1.06 26 26 0 0 0 3.09.12h7.37c.17 0 .21 0 .21.17v.73c0 .23 0 .18-.21.17h-3zm12.67-4.43a.21.21 0 0 1 .27.06 10.5 10.5 0 0 1 1.48 2.5c.06.13.06.2-.08.27a6 6 0 0 1-.62.31c-.15.06-.21 0-.28-.14a9.92 9.92 0 0 0-1.5-2.61 4.93 4.93 0 0 1 .73-.39zm9.54 0a.22.22 0 0 1 0 .36 3 3 0 0 0-.59 1 19.33 19.33 0 0 1-2.45 4.33A15.26 15.26 0 0 1 221.4 11c-.15.1-.22.11-.35 0a2.46 2.46 0 0 0-.85-.39A15.71 15.71 0 0 0 224.35 7a16.25 16.25 0 0 0 2.27-4.05 7 7 0 0 0 .38-1.76 6.41 6.41 0 0 1 1.21.55zm-6-.82a.2.2 0 0 1 .25.06 10 10 0 0 1 1.32 2.49c.05.14 0 .21-.07.28a3.81 3.81 0 0 1-.63.28c-.16.06-.21 0-.27-.09a10 10 0 0 0-1.36-2.66c.22-.14.55-.29.74-.37zM234 6.18a11.67 11.67 0 0 0-1.89.14c-.12 0-.19-.06-.23-.2a6.52 6.52 0 0 1-.14-1.06 26 26 0 0 0 3.09.12h7.37c.17 0 .21 0 .21.17v.73c0 .23 0 .18-.21.17h-3z" id="SVG"/></g></svg>