<svg xmlns="http://www.w3.org/2000/svg" viewBox="0 0 281.65 286.23"><defs><style>.cls-1{opacity:.4}.cls-2{fill:#b18021}</style></defs><title>i-title2_1</title><g id="Layer_2" data-name="Layer 2"><g class="cls-1" id="SVG"><path class="cls-2" d="M13.78 121.25v7h-2.85v-108h36.86A139.54 139.54 0 0 0 56.9 0l2.85.85a201.63 201.63 0 0 1-9 19.36H103v108h-2.84v-7zm86.39-68.88V22.91H13.78v29.46zm0 32.88V55.08H13.78v30.17zm0 33.3V88H13.78v30.6zm59.49 2.28v7.26h-2.85V30.17h51.52V.14h2.85v30h53.51v97.92h-3v-7.26zm48.67-48.39V32.88h-48.67v39.56zm0 45.68v-43h-48.67v43zm53.37-45.68V32.88h-50.52v39.56zm0 45.68v-43h-50.52v43zM54.51 182.91v2.7H0v-2.7zM9.39 240.26H48.1v38.28H9.39v7.4H6.55v-45.68h2.84zm38-38.14v2.7H7.26v-2.7zm0 19.07v2.7H7.26v-2.7zm-1.56-57.07v2.7h-37v-2.7zm-.57 111.72V243H9.39v32.88zm45-15.37c12-10.68 20.78-23.48 25.48-38.14H56.36v-2.71h61.05l2.28.86c-4.84 16.36-14.37 30.45-27.18 42a98.73 98.73 0 0 0 36.43 20.78l-2.42 2.7a105.54 105.54 0 0 1-36.43-21.36 128.39 128.39 0 0 1-37.29 21.63l-2.42-2.56c14.23-5.27 27-12.38 37.57-21.21A99.14 99.14 0 0 1 64.33 226l2.84-1.14a95.22 95.22 0 0 0 23.06 35.61zM106.6 162h1.14v37.29c0 4 .71 4.7 4.12 4.84h10.39c3.42-.14 3.84-.57 4-15.23l2.56.71c-.57 16.23-1.14 17.37-6.12 17.51h-11.4c-4.69-.14-6.4-1.85-6.4-7.83v-34.6H70v18.93c0 11.67-5.41 21.77-17.5 30.45l-2-2.13c11.67-8.11 16.65-17.79 16.65-28.47V162h39.45zm103.75 20.91v2.7h-56.64v-2.7zm-47 57.35h40.56v38.28h-40.53v7.4h-2.84v-45.68h2.84zm40-38.14v2.7h-42.1v-2.7zm0 19.07v2.7h-42.1v-2.7zM202 164.12v2.7h-39.19v-2.7zm-.85 111.72V243h-37.77v32.88zm45.82-69.74v-48h2.85v48h31.88v2.71h-31.93v77.42h-2.85v-77.42h-34.29v-2.71z"/></g></g></svg>