<svg xmlns="http://www.w3.org/2000/svg" viewBox="0 0 284.5 286.09"><defs><style>.cls-1{opacity:.4}.cls-2{fill:#b18021}</style></defs><title>i-title1</title><g id="Layer_2" data-name="Layer 2"><g class="cls-1" id="SVG"><path class="cls-2" d="M62.91 111.15V20.49H11v-2.7h107.13v2.7H65.75v90.66h62.34v2.71H1.28v-2.71zM180.6 60.77c-6.26-6.4-15.22-13-26-19.21l1.71-2.14c11.1 6.41 19.92 12.95 26.33 19.22zM161 128l-2.56-1.57c7-11.24 17.65-33.3 23.77-49.38l2.28 1.84C178.33 94.64 167.8 116.56 161 128zm24.44-106.37c-6.12-6.26-14.8-12.63-25.33-18.78l1.71-2.14C172.49 7 181.17 13.38 187.44 19.5zm4.84 100.62l-.85-3.13c4.55-.43 10-.85 16.08-1.42 8.68-17.08 17.08-36.58 21.49-50h-39.42V65h45.11V32.16h-35.86v-2.7h35.86V0h2.85v29.46h36.58v2.7h-36.58V65h46.82v2.7h-52.09a498.06 498.06 0 0 1-21.63 49.67c19.36-1.7 43.84-4.12 61.06-5.83a256.42 256.42 0 0 0-22.49-27.75l2-1.71c14.8 15.8 25.9 31 33 44.26L279.8 128a147.14 147.14 0 0 0-8.25-13.81c-23.63 2.51-61.2 6.07-81.27 8.06zM25.33 231v47.11c0 4.13-1 6.83-5.41 7.54A97.77 97.77 0 0 1 5 285.8V283c4.56.14 11 .28 13.09.14 3.7-.29 4.42-2.14 4.42-5.12v-45.87c-7.83 3.13-15.94 6.12-21.35 8.25L0 237.7c5.55-2 14.09-5.27 22.49-8.54V191H1v-2.71h21.49V158h2.84v30.31h15.8V191h-15.8v37.14c4.56-1.85 8.83-3.55 12.53-5.12l.42 2.7c-3.84 1.59-8.28 3.44-12.95 5.28zm30 22.49c7.12 13.8 16.08 21.2 26.76 24.62v-53.36H42.55V222h85.54v2.71H85v23.48h34.59v2.7H85v28a58.81 58.81 0 0 0 15.23 1.85c4.27 0 25.19 0 29.32-.14l-.14 2.85c-4.27.14-25.05.28-29.46.14-19.22-.29-34.3-6.55-45.83-26.62C49.67 268.3 43 279 32 286.09l-2.27-2c18.78-11.95 25.33-35.57 27.75-52.94l3.13.29a137.69 137.69 0 0 1-5.25 22.06zm-3.7-48.39v-43h65.9v43zm62.91-40.28H54.51v17.08h60.06zm0 19.93H54.51v17.65h60.06zm169.96 94.79l-2.28 2.56c-22.91-6.4-48.67-19.07-62.48-36h-.42v39.7h-2.85v-39.7h-.14c-13.81 16.36-39.43 29.46-61.34 36.43l-2.28-2.42c21.21-6.4 46.25-18.93 60.06-34h-58.21v-2.71h61.91V228h2.85v15.37h63v2.71h-58.88c13.66 15.67 38.71 27.77 61.06 33.46zm-10.25-47.11l-2.42 2.14a485.68 485.68 0 0 0-47.68-16.08c-13.23 7.25-32.87 12.66-62.05 16.36l-1.42-2.56c27.89-3.13 46.82-8.11 59.92-14.94-10.82-3-22.35-6-34.45-8.83-1.42 1.71-3 3.42-4.27 4.84l-2.56-1c4.56-4.84 10.54-11.67 16.23-18.65h-38.43V191h40.71c4.69-5.69 9.1-11.53 12.52-16.23l3 .72c-3.42 4.55-7.69 10-12.24 15.51h78.7v2.7h-32.6a48 48 0 0 1-20.07 22.92c17.65 5.14 33.45 10.38 47.11 15.81zM216.47 170v-12h2.85v12h55.07v16h-2.84v-13.34h-106V186h-2.85v-16zm7.4 45.68c10.39-6.12 16.51-13.52 20.21-21.92H199c-3.7 4.41-7.4 8.83-10.81 12.67 12.48 2.95 24.44 6.08 35.68 9.21z"/></g></g></svg>