<svg xmlns="http://www.w3.org/2000/svg" viewBox="0 0 371.14 70.31"><defs><style>.cls-1{fill:#ac7e24}</style></defs><title>sp-advance1</title><g id="Layer_2" data-name="Layer 2"><g id="SVG"><path class="cls-1" d="M70.26 16.92C58.63 33 48.64 50.62 49.78 62.41c.22 2.19 1.14 3 2.43 2.88 2.45-.23 6.59-3.76 10.42-8.49 2.5-3.1 5.55-7.75 6.85-9.77l.55.28A82.54 82.54 0 0 1 62.61 58c-4 4.81-8 8.52-12.32 8.94s-5.77-2.43-6.08-5.65C43.7 56 45.22 51 47.12 46.35l-9 .88c-6.21 9-15.56 21.86-27.35 23C5.66 70.73.54 68.89 0 63.61c-.24-2.45.94-5.1 3.64-5.36A3 3 0 0 1 7 60.71c.23 2.32-1.16 3.43-3.42 3.65C4 68 7.91 69.73 11 69.43c11.53-1.12 21.2-15.32 27.39-23.86 8.38-11.48 18.26-23.49 31.38-29zM47.43 45.54a97.17 97.17 0 0 1 15.94-24.63l-.14-.12c-9.6 6.27-17 15.31-24.5 25.59z"/><path class="cls-1" d="M101.23 16.44l7.18-1.08C101.27 30.16 86.3 56.06 86.78 61c.08.9.6 1.5 1.5 1.42 1.8-.18 4.92-2.24 8.4-6.61a111 111 0 0 0 8.26-12l.67.26a122 122 0 0 1-7.73 11.41c-3.71 4.65-7 7.84-11.29 8.25-3.93.38-5.24-2.42-5-4.71l-.14-.12c-2.37 3-5.26 5.45-9.38 5.85s-5.91-2.61-6.25-6.09C65 50.07 73.94 40 82.32 39.22a5.78 5.78 0 0 1 6.19 3.56zM86.35 43.25c-.24-2.51-1.77-3.47-3.76-3.28-5.35.52-11.17 12.21-10.59 18.58.2 2.07 1.22 3.92 3.54 3.69 5.58-.54 11.37-13.19 10.81-18.99z"/><path class="cls-1" d="M113.66 37c-2.53 4.73-9.72 15.77-9.21 21 .18 1.87 1.06 2.82 3.18 2.61 6.51-.63 12.5-12.59 12-19.49a6.34 6.34 0 0 1-.76-2.46 2.92 2.92 0 0 1 2.69-3.19c2.12-.21 3.53 1.54 3.76 5.29a19.8 19.8 0 0 1 0 3 7.45 7.45 0 0 0 5.27 1.37c3-.28 4.83-2.42 6.06-4.49l.55.28a8.55 8.55 0 0 1-6.67 5 9.11 9.11 0 0 1-5.32-1.3c-1.28 8.31-8.86 15.88-17.62 16.73-4.19.41-7.57-1-8-5.59-.43-4.38 2.27-8.68 7.1-17.86z"/><path class="cls-1" d="M154.89 33.59l6.66-1c-1.93 4.81-10 17.1-9.53 21.67a1.45 1.45 0 0 0 1.77 1.46c2.06-.2 5.6-3.21 9.09-7.52a118.66 118.66 0 0 0 7.59-10.82l.48.22a106.53 106.53 0 0 1-8.1 11.71c-3.65 4.52-7.43 7.81-11.36 8.19-2.7.26-4.47-1.19-4.67-3.25a4.07 4.07 0 0 1 .09-1.7h-.12c-2.36 3.22-5.6 5.94-9.4 6.31-4.19.41-6.07-2.85-6.42-6.46-.81-8.37 8.52-18.71 16.51-19.49 3-.28 4.7.85 6.05 3.45zm-14 22.69c5.43-.91 11.26-14.48 10.8-19.32-.23-2.31-1.07-3.6-3.52-3.36-5.92.58-11.46 13.14-11 18.36.24 2.45 1.03 4.58 3.68 4.32z"/><path class="cls-1" d="M172.34 43.21c2.15-3.33 8.3-13.55 15-14.2a4 4 0 0 1 4.72 3.7c.56 5.8-7.67 13.42-7.2 18.19a1.55 1.55 0 0 0 1.84 1.58c1.22-.12 3.78-1.87 8-7.35 3.29-4.28 6.23-8.8 7.59-10.81l.68.25c-2 2.86-5 7.51-8.29 11.73-4.05 5.14-6.58 7.21-9.93 7.54s-5-1.67-5.2-4c-.56-5.8 7.65-13.62 7.26-17.62a1.62 1.62 0 0 0-2-1.43c-5.09.49-15.1 17.2-17.7 23.89l-6.49.83c3.78-8 7.76-15.84 11.45-24l7.32-1-7.19 12.58z"/><path class="cls-1" d="M198.83 30.1l.34-1.2 5-.48 4-8.59 6.93-.93-4.53 8.89 8.18-.8-.47 1.22L210 29c-6.49 13.5-8.75 17.62-8.51 20.14a1.7 1.7 0 0 0 1.92 1.69c2.13-.2 5.7-2.89 9.32-7.14a102.1 102.1 0 0 0 8.07-11.32l.42.28a98.8 98.8 0 0 1-7.71 11c-3.61 4.38-7.79 8.1-11.72 8.48-2.71.27-5.26-.59-5.56-3.68-.44-4.45 3.17-9.48 7.46-18.87z"/><path class="cls-1" d="M239 25.42l6.66-1c-1.93 4.8-10 17.09-9.53 21.67a1.44 1.44 0 0 0 1.77 1.45c2.06-.2 5.6-3.21 9.09-7.51a120.06 120.06 0 0 0 7.59-10.82l.48.21a105.58 105.58 0 0 1-8.1 11.71c-3.65 4.52-7.43 7.81-11.36 8.19-2.7.27-4.47-1.19-4.67-3.25a4.08 4.08 0 0 1 .09-1.7h-.13c-2.35 3.22-5.59 5.94-9.39 6.31-4.19.4-6.07-2.86-6.42-6.47-.81-8.37 8.52-18.71 16.51-19.48 3-.29 4.69.84 6.05 3.44zm-14.08 22.69c5.44-.92 11.27-14.49 10.8-19.32-.22-2.32-1.06-3.6-3.51-3.37-5.92.58-11.46 13.15-11 18.36.28 2.45 1.07 4.59 3.71 4.33z"/><path class="cls-1" d="M240 53c-4.51.51-6.57 3.31-6.16 7.56a7 7 0 0 0 7.91 6.51c12.11-1.18 18.72-18.14 23.81-27.35l-.14-.11c-2.46 3.49-6 7-10.6 7.4-3.48.34-5.69-2.37-6-5.59-.82-8.44 7.69-19.15 16.2-20 3.22-.31 5.12.54 6.46 3.6l1.21-2.91 6.53-1c-3.87 8.31-7.39 17-11.58 25.38 9.33-3.7 15.51-12.37 20.56-20.66l.4.16c-4.92 8.86-11.93 17.73-21.38 21.45-5.15 11.29-13.86 19.29-26.16 20.49-6.32.61-12.06-1-12.66-7.16-.46-4.7 3.66-7.77 8-8.19.77-.07 2.73 0 3.57 0zm18.86-8.59c5.41-.53 10.95-13.75 10.48-18.64-.18-1.81-.71-3.9-3-3.67-6.31.61-11.91 12.53-11.36 18.2.24 2.52 1.02 4.4 3.91 4.12z"/><path class="cls-1" d="M315.32 23.46a73.23 73.23 0 0 1-8.67 11.83c-5.4 5.92-10.78 8.13-15.55 8.59s-8.23-2.45-8.68-7.08c-.8-8.25 9.5-18 17.55-18.74 3.67-.36 6 .91 6.26 3.48.6 6.25-13.17 10.32-17.59 11.73a9.77 9.77 0 0 0-.1 2.35c.36 3.67 2.8 6 6.47 5.67s7.9-3 11.88-7.52a91.44 91.44 0 0 0 7.93-10.72zM299 18.93c-4.31.42-9.63 9.26-10.3 13.68 6.88-2.1 12.61-8 12.21-12.18a1.55 1.55 0 0 0-1.91-1.5zm46.07-3.83A74 74 0 0 0 370.65 0l.49.34c-5.89 11.63-12.51 24.5-17.55 35.52l6.09-.92-.22.48q-6.6 1.23-13.25 2.07L361.48 8l-.14-.12a80.58 80.58 0 0 1-16 7.8z"/></g></g></svg>