<svg xmlns="http://www.w3.org/2000/svg" viewBox="0 0 500 120"><defs><style>.cls-1{fill:#fff}</style></defs><title>sp-bantext2</title><g id="Layer_2" data-name="Layer 2"><g id="SVG"><path d="M0 0h422v60H0z"/><path class="cls-1" d="M51.39 40.44v3.7h-29v-3.7H35v-17H24.73v-3.71h24.48v3.67H38.84v17zm14.4-4.15c-1 2.41-2.24 5.27-3.6 8.23a2.61 2.61 0 0 0-.27.88c0 .1.1.61.1.71s0 .24-.17.24a1.09 1.09 0 0 1-.61-.24l-3.3-2.21a38.68 38.68 0 0 0 5.2-9.62zm-5.71-10.91A33 33 0 0 1 65 29l-2.2 2.7a41.46 41.46 0 0 0-4.66-3.47zm2.86-8.09a31.82 31.82 0 0 1 4.55 4.11L65 23.85a37.51 37.51 0 0 0-4.28-3.91zM78.4 33c-1.56 4-2.41 6-3.23 7.82 4.32-.44 5.82-.68 6.67-.82a39.4 39.4 0 0 0-2.69-3.57L82 34.56A43.69 43.69 0 0 1 88.81 44l-3.44 1.87c-.44-.85-.57-1.05-1.8-3.16-4.49.85-9 1.46-13.53 2.11-.75.1-1 .17-1.09.34-.17.37-.24.54-.51.54s-.4-.58-.54-1.09l-.78-3.26c1.19 0 2-.07 4-.2 1.09-2.14 1.12-2.21 3.4-8.16h-7.33v-3.1h8.6V25h-6.87v-3h6.87v-4.85l3.26.17c.85 0 1.46.1 1.46.51a.51.51 0 0 1-.27.37c-.78.48-.88.55-.88.79v3h7.75v3h-7.75v4.82h9.18V33zm27.51-1.37a3.4 3.4 0 1 1-3.4-3.4 3.41 3.41 0 0 1 3.4 3.4zm18.7 14.59h-3.33V33.81a27.23 27.23 0 0 1-2.79 5.71l-2.65-2a34.46 34.46 0 0 0 5.2-12h-4.49v-3.24h4.73v-5.23l3.2.2c.47 0 .88.14.88.48 0 .13-.2.27-.55.47a.58.58 0 0 0-.2.55v3.53H128v3.23h-3.37v1.43a16.67 16.67 0 0 0 4.37 5.71l-2.38 2.28a11.11 11.11 0 0 1-2-2.55zm4.56-15.34H135v-1.83h-7.82V26.5H132V25h-2.85v-2.17H132V21.4h-4.38v-2.35H132v-2l3.2.2c.27 0 .68 0 .68.31s-.51.54-.68.68a2.25 2.25 0 0 0-.07.81h3.09v-1.9l3.17.2c.3 0 .91.07.91.41 0 .17-.74.55-.88.68s-.1.34-.1.61h4.59v2.35h-4.59v1.43h3.36V25h-3.36v1.5h4.89v2.55h-8v1.83h5.95v7.55h2.1v2.86h-2.1v2.27c0 1.91-1.06 2.66-3.68 2.66h-1.76l-1.19-3.1h2.27c.48 0 1.16 0 1.16-.95v-.88h-8.57v4.93h-3.19v-4.93h-2.69v-2.86h2.69zm5.83 3.88v-1.5h-2.62v1.5zm-2.62 3.67H135v-1.7h-2.62zm5.88-15.6V21.4h-3.09v1.43zM135.15 25v1.5h3.09V25zm5.78 8.29h-2.75v1.5h2.75zm-2.75 3.47v1.7h2.75v-1.7zm22.07.96c0 3.94 1.15 5.13 8.63 5.13 4.25 0 10.37-.2 14.52-.58l-1.26 3.4c-2.21 0-11.86.1-13.84.1-7.17 0-8.29-1.59-9.52-3.29-.61.54-3.8 3.19-3.94 3.36s-.24.89-.37.89-.48-.38-.61-.72l-1.4-3.3a14.56 14.56 0 0 0 4.39-2.31v-8h-3.64v-3h7zm-3.57-20.4a14.57 14.57 0 0 1 4.08 5.13L158 24.32a16.84 16.84 0 0 0-4-4.93zm13.32-.27l3.3.34c.78.07 1 .13 1 .47s-.1.31-.61.58a.53.53 0 0 0-.27.55v1.9h6.39v2.72h-6.39v3.09H182v2.72h-19.92V26.7h8v-3.09h-4a16.33 16.33 0 0 1-1.7 2.85l-3-1.49a17.55 17.55 0 0 0 3.35-6.97l2.93.72c.58.13.64.17.64.3a5.47 5.47 0 0 1-.54.51 8.07 8.07 0 0 0-.61 1.33H170zm-6.22 14.24h15.6v9.59h-3.57v-1.12h-8.46V41h-3.57zm12 2.72h-8.46v3h8.46zm16.95 10.71c-1.84-3.16-2.48-7.44-2.48-11.15s.44-5.88 2.34-15.26l3.41 1.36c.68.27.88.37.88.64 0 .07 0 .17-.07.21a3.59 3.59 0 0 1-.51.2c-.68.27-2.61 7.85-2.61 13.09a20.7 20.7 0 0 0 .27 3.36 21.06 21.06 0 0 0 1.32-2.24l2.25 1.7a17.13 17.13 0 0 0-2.21 7.17zm22.54-1.9a42.39 42.39 0 0 1-6.8.44c-7.14 0-8.71-1.5-8.37-8l3.47-.3a7.06 7.06 0 0 0-.24 1.87c0 1.77 1.13 2.75 4 2.75a35.59 35.59 0 0 0 8-1zm-1-18.7a45.31 45.31 0 0 1-8.6.92 16.23 16.23 0 0 1-4.39-.45v-3.56a18.91 18.91 0 0 0 5.2.68 26.91 26.91 0 0 0 7.89-1.16zm8.58 18.7a22.7 22.7 0 0 0 1.32-7.69l3 .51c.37.07.57.14.57.31s-.06.2-.44.41c-.17.1-.24.2-.27.54a28.32 28.32 0 0 1-1 6.66zM253 20v2.75h-8V24h6.29v10.59H249v1.56h3.63v2.93H249v3.7c0 3.13-1.33 3.57-5.21 3.64l-1.29-3.3h2.65c.51-.1.75-.61.75-1.56v-2.48h-10.3v-2.93h10.3v-1.56H236V24h6v-1.24h-7.54V22a1.3 1.3 0 0 0-.79.55 55.83 55.83 0 0 1-5.16 7.82c1.08 0 2.58-.14 3.43-.24a11.16 11.16 0 0 0-.71-2.45l2.82-.71a25.8 25.8 0 0 1 1.49 6.15l-2.92.82a13.44 13.44 0 0 0-.2-1.6l-1.53.31v13.77h-3.1V33.23l-2.82.41c-.27 0-.34.27-.48.64a.32.32 0 0 1-.27.21c-.3 0-.41-.61-.44-.82l-.48-3.23h2.21a25.67 25.67 0 0 0 1.87-2.72 18.15 18.15 0 0 0-4-3.54l1.63-2.55a8.52 8.52 0 0 1 .95.78 23.27 23.27 0 0 0 2.35-5.57l2.41.75c.27.1.92.34.92.71 0 .2-.27.27-.82.44-.24.07-.27.17-.75 1.19a35.69 35.69 0 0 1-2.31 4.18l1.06 1.16a24 24 0 0 0 2.72-5.37l2.31 1.22a2.23 2.23 0 0 1 .58.38V20H242v-2.85l2.89.27c.72.07 1 .21 1 .48s-.13.24-.54.44-.34.24-.34.48V20h3.23c-1.06-1.19-1.19-1.4-1.8-2l2.24-1.46a15.1 15.1 0 0 1 2.52 2.65l-1.16.79zm-18.6 15.23a59.68 59.68 0 0 0 .82 7l-3 .37a56.77 56.77 0 0 1-.65-7.1zm5.3 4.18a13.23 13.23 0 0 1 2.42 3.26l-2.59 1.8a11.45 11.45 0 0 0-2.21-3.5zM238.93 28H242v-1.7h-3.09zm0 2.35v1.83H242v-1.87zm6.12-2.35h3.26v-1.7h-3.26zm3.26 4.18v-1.87h-3.26v1.83zM262.23 36c.85-6.7 1.53-9.72 3.09-13.23l3.43 1.53a25.54 25.54 0 0 0-2.27 7.7 14.88 14.88 0 0 1 8.39-3c4.73 0 7.65 3.1 7.65 7.52 0 9-11.49 9.38-15.87 9.48l-1.47-3.77c.68 0 1.7.1 2.83.1 1.7 0 10.7-.17 10.7-6a3.9 3.9 0 0 0-4.07-4 11.15 11.15 0 0 0-5.55 1.9 15 15 0 0 0-3.8 3.6zM275 24.76a25 25 0 0 0-8.23-4.18l1.43-3.4a30.41 30.41 0 0 1 8.7 4.15zm27.77-1.59l1.53 1.49c-.24.41-1.29 2.28-1.5 2.69.51-.41 2.55-2.28 3-2.62 1.94-1.46 2.95-1.94 4.28-1.94 2.24 0 3.74 1.84 3.74 4.32a40.2 40.2 0 0 1-.61 5.61 40.21 40.21 0 0 0-.48 5.24c0 .3 0 2.17 1.33 2.17 1 0 2.17-1 3.77-2.82l1.17 3.87a8.89 8.89 0 0 1-6.16 3.06c-2 0-3.67-1.42-3.67-4.79 0-1.66.95-10.1.95-10.4 0-1.91-.91-2.42-1.42-2.42-1.87 0-5.85 4.53-7.28 6.26a124.26 124.26 0 0 0 .27 12.75l-3.94.13c.2-2.38.31-6 .34-8.09-.2.34-1.39 2.21-2.55 4.22L292 39.59a36.74 36.74 0 0 0 6.29-8.33c0-.41.07-.65.2-2.76-1.05.45-2.21.89-4.79 1.81l-1.5-3.88a20.53 20.53 0 0 0 6.6-1.77c.1-1.22.14-2.28.14-3.29a17.44 17.44 0 0 0-.41-4L302 18c1.12.2 1.16.34 1.16.58s-.58.61-.61.75a23.63 23.63 0 0 0-.58 4.35zm37.13-5.48c.37.14 1.09.38 1.09.68 0 .11-.58.48-.75.58a18.73 18.73 0 0 0-1.4 3.43 16.92 16.92 0 0 0 4.39-1.22L343 25a34.08 34.08 0 0 1-5.37.95 103.59 103.59 0 0 1-7.07 14.32l-3.77-1.77a39.81 39.81 0 0 0 7-12.27c-1.4.06-3.23.13-4.62.17l-.17-3.61c.74.07 1.93.21 3.22.21 1 0 1.84-.07 2.79-.14a60.41 60.41 0 0 0 1.74-6.22zm8.74 27.44a21.14 21.14 0 0 0-3.23-2.65c-.28 1.42-.92 4-5.65 4-3.77 0-6.8-1.91-6.8-5 0-2.66 2.38-4.8 5.75-4.8a12 12 0 0 1 3.16.41c0-.75-.14-4-.14-4.69a4.45 4.45 0 0 1 1.7-4l3.37 2c-1.6 1.32-1.6 1.87-1.6 2.82s.14 4.38.14 5.1a25.28 25.28 0 0 1 5.54 3.67zm-10.17-5.27c-2 0-2.18 1.26-2.18 1.63 0 1.46 2 1.8 3 1.8 2.44 0 2.55-1.66 2.61-2.61a9.53 9.53 0 0 0-3.43-.82zM351 30.37a20.58 20.58 0 0 0-7.45-4.11l1.84-2.69a19.71 19.71 0 0 1 7.61 3.88zm22.81 5.99c-2.69 5.67-4.59 7.37-6.63 7.37-3.36 0-5.91-5.43-5.91-12.23a30.93 30.93 0 0 1 .64-6.19c.14-.68.82-3.88.95-4.62l3.64 1.66c.34.17.92.44.92.75s-.24.37-.68.71a20.24 20.24 0 0 0-1.7 8.43c0 4.59 1.43 6.84 2.51 6.84s2.62-3.16 3.44-5.14zm10.27 2a25 25 0 0 0-4.46-14.11l3.64-1.53c3.26 4.59 4.59 10.54 5 15.1zm6.92.96a14.42 14.42 0 0 1 6.69 4.79l-2.58 2.58a16.35 16.35 0 0 0-5.44-5.44z"/><path d="M0 60h500v60H0z"/><path class="cls-1" d="M37.76 94.7c-.65 0-1.77.14-3 .14a22.42 22.42 0 0 1-3.43-.24 17.91 17.91 0 0 0-.41 3.16c0 3 2 4.22 4.62 4.22 4.25 0 6.5-3 6.5-5.68 0-1.77-.61-3.09-1.91-5.06l3.17-1.81a14.65 14.65 0 0 1 2.27 7.35c0 4.62-3.46 8.63-10.13 8.63-6.18 0-8.26-4-8.26-7a18.76 18.76 0 0 1 .65-4.41 27.91 27.91 0 0 1-4.59-1.33l.68-3.84a18 18 0 0 0 4.83 1.83c.44-1.56 1.16-3.74 1.5-4.76-2-.37-3.3-.71-5.38-1.29l.55-3.87a18.7 18.7 0 0 0 5.95 1.94 61.65 61.65 0 0 0 2.17-6.87l3.61 1.7c.3.13.88.44.88.71s-.27.27-.71.48a31.66 31.66 0 0 0-2.25 4.49c.38 0 1.29.1 2 .1A22.36 22.36 0 0 0 39.9 83l-.9 3.68a48.59 48.59 0 0 1-5.17-.31 66.56 66.56 0 0 0-1.6 4.8c.61 0 1.57.1 2.93.1a17 17 0 0 0 3.7-.37zm25.58 5.21c9.52-.72 10.54-5 10.54-6.8a4.34 4.34 0 0 0-4.49-4.22c-2 0-3.57.58-7.85 2.24a32.82 32.82 0 0 1-5.24 1.64l-1.46-3.2a28 28 0 0 0 6-1.29c6.12-2.08 6.8-2.31 9-2.31a6.94 6.94 0 0 1 7.16 7.1c0 7.62-8.77 9.35-12 10zm44.73 4.28c-3.51.24-7 .47-10.54.47-2.69 0-10 0-10-6.9 0-3.36 1.83-5.78 7-8.84A3.61 3.61 0 0 1 93 86.78c-.48-1.46-1-7.58-1.23-9.75l4.39-.58c-.07 1.73-.1 3.4-.1 5.4 0 3.81.37 4.66 1.93 5.31 1.3-.58 7.75-3.33 9.18-4l1.09 4.08c-7.07 2.07-17.13 5.34-17.13 10.5 0 3.23 3.74 3.44 6.49 3.44a54.91 54.91 0 0 0 10.44-1.29zm32.84-24.04v25.16h-3.46v-1.9h-14.38v1.9h-3.51V80.15h6A15.83 15.83 0 0 0 127 76l3.44.24c.71 0 1.12.13 1.12.41s-.17.3-.61.51a.91.91 0 0 0-.41.47c-.31.78-.78 2-1 2.48zm-3.46 3.17h-14.38v3.5h14.38zm0 6.59h-14.38v3.54h14.38zm0 6.63h-14.38v3.71h14.38zm25.19-20.43l3.87.27c.58 0 .78.1.78.37s-.06.21-.44.58-.34.38-.34.85v4.12h11.26v22.87h-3.64v-1.42h-19v1.42h-3.6V82.3h11.12zm0 9.58h-7.52v5.72h7.52zm0 8.88h-7.52v6h7.52zm11.49-8.88h-7.62v5.72h7.62zm0 8.88h-7.62v6h7.62zm25.32-17.68c.38.14 1.09.37 1.09.68 0 .1-.58.48-.75.58a18.47 18.47 0 0 0-1.39 3.43 16.8 16.8 0 0 0 4.38-1.22l-.23 3.84a35.46 35.46 0 0 1-5.38 1 102.64 102.64 0 0 1-7.07 14.31l-3.77-1.76a39.54 39.54 0 0 0 7-12.28c-1.39.07-3.23.14-4.62.17l-.17-3.6c.75.07 1.94.2 3.23.2.95 0 1.83-.06 2.79-.13a61.1 61.1 0 0 0 1.73-6.22zm8.74 27.43a20.77 20.77 0 0 0-3.23-2.65c-.27 1.43-.92 4-5.64 4-3.78 0-6.8-1.9-6.8-5 0-2.65 2.38-4.79 5.74-4.79a12 12 0 0 1 3.16.41c0-.75-.13-4-.13-4.7a4.47 4.47 0 0 1 1.7-4l3.36 2c-1.59 1.33-1.59 1.87-1.59 2.82s.13 4.39.13 5.1a25.64 25.64 0 0 1 5.54 3.68zM198 99.06c-2 0-2.17 1.25-2.17 1.63 0 1.46 2 1.8 3 1.8 2.45 0 2.55-1.67 2.62-2.62a9.75 9.75 0 0 0-3.45-.81zm12.48-9.49a20.39 20.39 0 0 0-7.44-4.11l1.83-2.69a19.5 19.5 0 0 1 7.65 3.88zm8.31-10.98h12.82v-2.86l3.2.11c.34 0 .88.06.88.44a.6.6 0 0 1-.27.44c-.44.31-.48.34-.48.44v1.43h12.85v3.2h-12.85v1.76h9.21v11.8h-6.22c2.82 3 7.45 5.51 10.3 6.8l-2.68 2.85a41.92 41.92 0 0 1-10.61-8v9h-3.33v-8.3c-2.62 3.06-7.68 6.46-10.1 7.92l-2.68-2.89a42.63 42.63 0 0 0 10.37-7.34h-6.67V83.55h9.08v-1.76h-12.82zm12.82 9.55v-2h-5.71v2zm0 4.59v-2.07h-5.71v2.07zm9.14-4.59v-2h-5.81v2zm0 4.59v-2.07h-5.81v2.07zm14.12-10.5v-3.3h12.64V76l3.57.17c.65 0 1 .07 1 .38s-.24.34-.31.37c-.44.2-.44.27-.44.34v1.7h12.51v3.3zm9.86 14.28c.3.17.71.4.71.81 0 .24-.07.24-.75.31-.27 0-.34.13-.61.54a35.78 35.78 0 0 1-5.61 6.66l-2.92-2.37a25.42 25.42 0 0 0 6.29-7.65zM259 94.16v-9.79h20.87v9.79h-8.5v8.19c0 3.67-3.43 3.61-5.81 3.57l-1.5-3.8c2.55 0 2.59 0 2.86-.07.44-.14.64-.61.64-1.33v-6.56zm17.33-3v-3.77h-13.88v3.74zm-.71 3.57a48.23 48.23 0 0 1 7.38 7.45l-3.13 2.58a33.39 33.39 0 0 0-6.8-7.54zm28.87 6.33c2.14-.61 8.94-2.48 8.94-10.23S307 82.19 305 81.89A56.47 56.47 0 0 1 300.75 98c-.34.78-2 4.48-4 4.48s-7-3-7-9.79c0-7.48 6-14.07 14.65-14.07 7.85 0 12.82 5.06 12.82 12.2 0 9.52-7.65 12.38-10.2 13.33zm-11.36-8.33c0 3 1.74 5.24 2.93 5.24.75 0 1.36-1.4 1.8-2.42a41.86 41.86 0 0 0 3.26-13.29c-7.12 2.45-7.99 8.13-7.99 10.47zm59.27-2.89c.28.24.38.34.38.48 0 .3-.34.37-.58.37s-.51-.07-.61-.07-.17 0-.48.31a42.47 42.47 0 0 1-5 3.94 22 22 0 0 0 7.65 6.43l-2.68 2.52c-8.5-5.1-10.41-12.92-11.22-16.9a22.45 22.45 0 0 1-2.18 1.56c1.23 1.26 4.32 4.42 4.32 11.19 0 5.88-2.75 5.88-7 5.88l-1.36-3.4c1.53.14 2.32.17 2.55.17 2.18 0 2.62-.61 2.62-2.72 0-.24 0-.85-.1-1.94a39.88 39.88 0 0 1-12.41 6.16l-1.94-2.76A33.34 33.34 0 0 0 338 94.5a10 10 0 0 0-.62-1.43 35 35 0 0 1-10.13 4.8l-1.87-2.72A32.63 32.63 0 0 0 336 91c-.51-.61-.75-.85-.95-1.06a35 35 0 0 1-8 3l-2.14-2.75a31.59 31.59 0 0 0 10.91-3.74h-6.18v-2.69h18.9v2.65h-5.71a23.78 23.78 0 0 0 1.8 5.91 36.84 36.84 0 0 0 4.79-4.93zm.51-11v6.12h-3.29v-3.28H328.4v3.23h-3.26v-6.12h12.1V76l3.74.21c.37 0 .78.06.78.34a.63.63 0 0 1-.34.47c-.44.21-.44.21-.44.48v1.32zm17.8 19.74c3.51-.2 6.67-.51 9.52-2.07 3.44-1.87 4.12-4.42 4.12-6.19 0-3.37-2.62-5.44-5.78-5.44-2.55 0-4.69.75-11.9 3.23a35.61 35.61 0 0 1-4.59 1.19l-1.7-4.08a34 34 0 0 0 7.89-1.53c7.41-2.18 8.05-2.35 10.6-2.35 4.49 0 9.22 2.79 9.22 9.15 0 8.63-9.08 11-15.44 12.14zM383 80.66a12.18 12.18 0 0 0-2.89-3l1.67-1.4a13.55 13.55 0 0 1 2.95 3.06zm4.62-.71a17.8 17.8 0 0 0-2.55-3.06l1.5-1.29a13.92 13.92 0 0 1 2.82 3.06zm24.49 26.24a54.76 54.76 0 0 0-9.49-10.36c-3.67-3.06-4.32-3.61-4.32-5.27a3.34 3.34 0 0 1 1.09-2.45c.48-.51 3-2.69 3.57-3.2 1-.91 6.22-5.84 8.36-9.38l2.79 2.38c.75.65.82.71.82 1s-.14.27-.48.34-.51.07-.78.38a91.25 91.25 0 0 1-9.15 8.37c-.91.75-2.27 1.9-2.27 2.48 0 .41.17.51 1.63 1.57a51.2 51.2 0 0 1 11.42 11.35zm16.76-8.49a19.37 19.37 0 0 1-1.77-8.88 65.83 65.83 0 0 1 1.5-11.35l3 .64c.75.17 1.19.28 1.19.55s-.61.68-.68.85a26.11 26.11 0 0 0-1.66 8.8c0 1.06.06 2.28.1 2.76 1.29-3.06 2-4.56 2.68-5.92l2.52 1.43a108.15 108.15 0 0 0-4.45 10.71zm7.31 5.3c4.69-5 6.53-8.81 6.53-15.84a51.92 51.92 0 0 0-.79-9.18l3.5-.38c.82-.1 1.2-.13 1.2.21 0 .13-.48.81-.48 1 0 1.09.34 6.39.34 7.62 0 10.81-3.44 15-6.94 19.07zm23.36-.75a3.47 3.47 0 1 1-3.47-3.47 3.45 3.45 0 0 1 3.47 3.47zm-5.92 0a2.45 2.45 0 1 0 4.9 0 2.45 2.45 0 1 0-4.9 0z"/></g></g></svg>