<svg xmlns="http://www.w3.org/2000/svg" viewBox="0 0 163.18 64.19"><defs><style>.cls-1{fill:#3a3c45}</style></defs><title>sp-texttel1</title><g id="Layer_2" data-name="Layer 2"><path class="cls-1" d="M7.1 10.46c-1.39.11-2.81.22-4.68.22-.47 0-.61-.16-.66-.58s-.2-1.45-.31-2.43a13.18 13.18 0 0 0 2.17.14c1.17 0 2.37-.11 3.54-.22V4.42A10.11 10.11 0 0 0 7 2.16a15.71 15.71 0 0 1 3.32.5c.33.08.56.28.56.53a1 1 0 0 1-.17.44 3.26 3.26 0 0 0-.39 1.09c-.08.73-.11 1.42-.14 2.31a26.84 26.84 0 0 0 3.57-1c.25-.08.44 0 .47.25a14.25 14.25 0 0 1 .17 2.18c0 .28-.09.36-.36.44a27.35 27.35 0 0 1-4 1.06v4a17.58 17.58 0 0 1 6.85-1.53c3.45 0 5.93 2.23 5.93 5.57 0 3.57-2.28 5.66-6 5.66a10.83 10.83 0 0 1-2.29-.25.75.75 0 0 1-.61-.84 4.9 4.9 0 0 0-.91-2.36 10.37 10.37 0 0 0 3.49.51 2.77 2.77 0 0 0 3-2.88C19.48 16 18.36 15 16.41 15A13.75 13.75 0 0 0 10 16.93c0 1.17.06 2.11.11 3.34s.22 3 .22 3.62c0 .39.06.81-.41.92a10.6 10.6 0 0 1-2.06.33c-.31 0-.42-.19-.67-.55a17.29 17.29 0 0 0-4-3.57 5.18 5.18 0 0 0-.89.61.72.72 0 0 1-.48.2.79.79 0 0 1-.61-.45C1 20.88.42 19.71 0 18.79a10.09 10.09 0 0 0 2.56-1c1.2-.67 2.51-1.42 4.54-2.59zm-2.59 9.59c.78.41 1.73.89 2.62 1.25.23.06.31 0 .28-.22 0-.73-.11-2-.17-2.93-.78.53-1.72 1.17-2.73 1.9zM17.83 5.42c.2-.31.28-.39.48-.34a13.38 13.38 0 0 1 5.9 3.4.46.46 0 0 1 .17.28.77.77 0 0 1-.11.28c-.36.56-1.09 1.42-1.51 2-.08.11-.47.14-.55 0a12.91 12.91 0 0 0-5.66-3.43 16.92 16.92 0 0 1 1.28-2.19zM40.67 17a18 18 0 0 1 2.43 2.6c.19.25.16.31-.14.5l-1.56 1.12c-.17.11-.25.16-.34.16s-.14-.08-.25-.22a19.31 19.31 0 0 0-2.23-2.7c-.22-.22-.19-.28.11-.48l1.42-.98h-5c-2.59 0-3.48.05-3.65.05s-.33 0-.33-.33V15c0-.27 0-.3.33-.3s1.06.05 3.65.05h11.02v-1.39H35.57c-2.64 0-3.56.06-3.73.06s-.31 0-.31-.34v-1.56c0-.31 0-.33.31-.33s1.09.05 3.73.05h10.56V9.85H35.49c-2.68 0-3.62.05-3.79.05s-.31 0-.31-.3V9c-.5.31-1 .65-1.53.95-.33.2-.5.31-.64.31s-.31-.2-.5-.67A5 5 0 0 0 27.6 8a18 18 0 0 0 6.83-5.82 7.29 7.29 0 0 0 .89-1.75 24.48 24.48 0 0 1 2.79.57c.25.08.39.16.39.36a.53.53 0 0 1-.28.42 3.43 3.43 0 0 0-.89 1.05l-.11.17H42a1.42 1.42 0 0 0 .64-.08 1 1 0 0 1 .36-.07c.22 0 .5.14 1.17.67s.84.76.84 1-.17.42-.45.56a3.29 3.29 0 0 0-.86.86c-.45.56-.92 1.11-1.45 1.67h6.38c.17 0 .33 0 .33.3v8.82c0 .17 0 .33-.33.33S47.08 17 44.18 17zm-8.19 2.09c.28.11.33.19.25.47A17.16 17.16 0 0 1 30.25 25c-.17.22-.22.22-.53 0l-1.84-1.14c-.3-.23-.3-.37-.16-.56a12.13 12.13 0 0 0 2.42-4.68c.08-.31.14-.28.5-.14zm6.46-11.5a24.83 24.83 0 0 0 1.82-2.25h-5.27a20 20 0 0 1-2.26 2.25zm-4.68 12.65a14.78 14.78 0 0 0-.14-2.31c1 0 2 .08 2.82.17.36 0 .53.16.53.27a1.22 1.22 0 0 1-.14.48 2.61 2.61 0 0 0-.2 1.22v1.79c0 .61.11.92.45 1.11a5.14 5.14 0 0 0 2.37.31c2.17 0 2.87-.09 3.48-.5.45-.28.72-1.15.78-2.57a8.67 8.67 0 0 0 2 .89c.73.23.73.23.62.95-.31 1.7-.78 2.51-1.56 3-1.09.64-2.48.75-5.44.75-2.36 0-3.79-.14-4.57-.58s-1-.92-1-2.43zm14.3-2c.28-.14.39-.14.55.06a27.81 27.81 0 0 1 3.32 4.62c.11.25.06.37-.25.56l-1.76 1a.82.82 0 0 1-.33.17c-.11 0-.17-.08-.25-.25a24 24 0 0 0-3.07-4.74c-.19-.22-.16-.39.17-.56zM64.79 4a7 7 0 0 0-1-1.79 20.1 20.1 0 0 1 3.37-.3c.39 0 .61.22.61.5v.53a4.41 4.41 0 0 0 .11.83c.19.73.28 1 .44 1.45a34.52 34.52 0 0 0 5-1.25c.25-.11.39-.09.47.14.17.53.36 1.31.47 1.86a.43.43 0 0 1-.33.51 36.93 36.93 0 0 1-4.79 1.22c.25.7.61 1.56 1 2.34a31.54 31.54 0 0 0 5.08-1.45c.27-.13.41-.08.5.17a10.65 10.65 0 0 1 .5 1.84c0 .25 0 .39-.22.5a35.82 35.82 0 0 1-4.74 1.4 20.25 20.25 0 0 0 3.68 4.79c.28.25.28.36.14.67a8.07 8.07 0 0 1-1.15 1.72c-.16.2-.27.28-.44.28a.74.74 0 0 1-.39-.16 6.75 6.75 0 0 0-1.65-.9 13.6 13.6 0 0 0-5.26-.9c-2.62 0-4.16.81-4.16 2.12 0 1.81 2.37 2.4 6.64 2.4 1 0 2.06-.12 3.06-.17.28 0 .36.14.34.36a19.78 19.78 0 0 1-.56 2.54c-.09.28-.2.39-.59.41-.64.06-1.31.09-2 .09-6.41 0-9.81-1.81-9.81-5.24 0-3 2.56-4.85 6.91-4.85a12.75 12.75 0 0 1 4.79.7 26.91 26.91 0 0 1-2.31-3.29 65.89 65.89 0 0 1-7.64.84c-.3 0-.41-.12-.5-.39a15.84 15.84 0 0 1-.5-2.29 48.91 48.91 0 0 0 7.5-.69c-.28-.54-.7-1.54-1.06-2.31a48.77 48.77 0 0 1-6.77.67c-.34 0-.5-.11-.56-.39s-.28-1.34-.45-2.23a49.07 49.07 0 0 0 6.94-.44c-.22-.64-.39-1.12-.67-1.84zm10.76-2.12c.14-.11.25-.08.42.06a12.66 12.66 0 0 1 2.64 3 .28.28 0 0 1-.08.44l-1.17.87a.28.28 0 0 1-.47-.09 13.85 13.85 0 0 0-2.82-3.23zM78 .07c.17-.11.25-.08.42 0A11.65 11.65 0 0 1 81.09 3a.33.33 0 0 1-.09.5l-1.12.86a.28.28 0 0 1-.47-.08 13 13 0 0 0-2.79-3.21zm19.44 6.82C96.8 11.63 95.63 16 94 18.9c-1.2 2.09-2.65 3.21-4.74 3.21-2.45 0-4.93-2.62-4.93-7.16a10.26 10.26 0 0 1 3.11-7.25 12.18 12.18 0 0 1 9-3.56c6.69 0 10.62 4.12 10.62 9.66 0 5.19-2.93 8.45-8.58 10.15-.59.16-.84.05-1.2-.5a5.86 5.86 0 0 0-2-1.76c4.71-1.11 8.41-3.06 8.41-8.33a6.33 6.33 0 0 0-6.24-6.47zm-8 2.71a8 8 0 0 0-2.17 5.15c0 2.57 1 4 1.9 4 .72 0 1.33-.37 2.08-1.7a31.91 31.91 0 0 0 3-10 8.4 8.4 0 0 0-4.81 2.55zM115 8.12c-2.48 0-3.31.06-3.51.06s-.3 0-.3-.34V5.59c0-.31 0-.34.3-.34s1 .06 3.51.06h6.83V3.5a14.84 14.84 0 0 0-.19-2.74c1 0 2.09.06 3 .14.28 0 .45.14.45.31a1.84 1.84 0 0 1-.17.59 3.93 3.93 0 0 0-.17 1.61v1.9h7.33c2.51 0 3.35-.06 3.51-.06s.28 0 .28.34v2.25c0 .31 0 .34-.28.34s-1-.06-3.51-.06h-9.64c0 1.23-.11 2.37-.22 3.43h6.82c2.35 0 3.13-.06 3.29-.06s.34.09.34.39c-.06.73-.09 1.48-.11 2.18a52.18 52.18 0 0 1-.92 8.27c-.62 2.65-1.7 3.46-4.49 3.46-.5 0-1.28 0-2.2-.06s-.78-.11-.89-1a6.06 6.06 0 0 0-.62-2.15 26.25 26.25 0 0 0 3.43.25c.92 0 1.39-.44 1.65-1.39a34.55 34.55 0 0 0 .86-7.08h-7.58c-1.06 5.16-3.43 8.42-8.16 11.23-.37.2-.53.31-.67.31s-.31-.2-.56-.62a6.11 6.11 0 0 0-1.67-1.69c6.41-3.15 8.5-7 8.55-15.47zm30.63-4.9c.3.16.42.33.42.55a1.49 1.49 0 0 1-.2.62 5.56 5.56 0 0 0-.5 1.53A55.27 55.27 0 0 0 144 16.06c0 1.12 0 2.4.08 3.57.56-1.28 1.14-2.48 1.73-3.87a7.4 7.4 0 0 0 1 1.75.61.61 0 0 1 .17.39.84.84 0 0 1-.17.45 16.6 16.6 0 0 0-1.42 4.23 5.73 5.73 0 0 0 0 1.48c0 .19-.08.28-.33.36a11.21 11.21 0 0 1-2.09.47c-.31.09-.42.06-.56-.33a26 26 0 0 1-1.2-8.5 60.78 60.78 0 0 1 1.05-10.56 14.05 14.05 0 0 0 .19-3.29 21.61 21.61 0 0 1 3.18 1.01zm9.58 7.44c-1.89.05-3.84.11-5.74 0-.36 0-.47-.08-.5-.36a17.43 17.43 0 0 1-.19-2.54 39.61 39.61 0 0 0 6.35.08V4.92a11.63 11.63 0 0 0-.36-2.73 15.52 15.52 0 0 1 3.37.53c.31.08.5.22.5.47a1.07 1.07 0 0 1-.17.47 3.37 3.37 0 0 0-.22 1c-.05.95-.05 1.67-.05 2.95 1.31-.11 2.75-.3 4-.5.34-.08.39 0 .45.34a11.23 11.23 0 0 1 .17 2 .36.36 0 0 1-.31.41 31.12 31.12 0 0 1-4.29.59c0 3.12.05 5.07.19 7.46a18.09 18.09 0 0 1 4.59 2.61c.25.17.28.25.14.56a15.33 15.33 0 0 1-1.28 2.14c-.09.11-.17.17-.26.17a.43.43 0 0 1-.25-.14 16.71 16.71 0 0 0-3-2.23c-.23 2.34-1.82 3.62-5.1 3.62s-5-1.5-5-3.9 2.06-3.93 4.87-3.93a11.46 11.46 0 0 1 2.23.23c-.08-2.15-.11-4.18-.14-6.38zM153 19.32c-1.31 0-2.09.48-2.09 1.34s.61 1.39 2.25 1.39c1.4 0 2.29-.81 2.29-1.81a3.76 3.76 0 0 0 0-.56 8 8 0 0 0-2.45-.36zM7.1 48.45c-1.39.11-2.81.22-4.68.22-.47 0-.61-.17-.66-.59s-.2-1.44-.31-2.42a14.38 14.38 0 0 0 2.17.14c1.17 0 2.37-.11 3.54-.22V42.4A10.22 10.22 0 0 0 7 40.14a15.6 15.6 0 0 1 3.32.51c.33.08.56.27.56.52a1 1 0 0 1-.17.45 3.11 3.11 0 0 0-.39 1.09c-.08.72-.11 1.42-.14 2.31a26.84 26.84 0 0 0 3.57-1c.25-.08.44 0 .47.25a14.22 14.22 0 0 1 .17 2.17c0 .28-.09.36-.36.45a30.15 30.15 0 0 1-4 1.06v4a17.62 17.62 0 0 1 6.85-1.54c3.45 0 5.93 2.23 5.93 5.58 0 3.56-2.28 5.65-6 5.65a10.83 10.83 0 0 1-2.29-.25.75.75 0 0 1-.61-.83A4.86 4.86 0 0 0 13 58.2a10.59 10.59 0 0 0 3.49.5 2.77 2.77 0 0 0 3-2.87C19.48 54 18.36 53 16.41 53A13.71 13.71 0 0 0 10 54.91c0 1.17.06 2.12.11 3.34s.22 3 .22 3.63c0 .39.06.8-.41.92a12.38 12.38 0 0 1-2.06.33c-.31 0-.42-.19-.67-.56a17.28 17.28 0 0 0-4-3.56 4.67 4.67 0 0 0-.89.61.7.7 0 0 1-.48.19.77.77 0 0 1-.61-.44C1 58.87.42 57.7 0 56.78a10.55 10.55 0 0 0 2.56-1c1.2-.67 2.51-1.42 4.54-2.59zM4.51 58c.78.42 1.73.89 2.62 1.26.23.05.31 0 .28-.23 0-.72-.11-2-.17-2.92-.78.56-1.72 1.2-2.73 1.89zm13.32-14.6c.2-.3.28-.39.48-.33a13.19 13.19 0 0 1 5.9 3.4c.11.11.17.19.17.28a.93.93 0 0 1-.11.28c-.36.55-1.09 1.42-1.51 2-.08.12-.47.14-.55 0a12.89 12.89 0 0 0-5.66-3.42 17 17 0 0 1 1.28-2.21zm15.93-1.58h-3.79c-.17 0-.33 0-.33-.31v-1.76c0-.28 0-.3.33-.3h20.09c.17 0 .31 0 .31.3v1.81c0 .28 0 .31-.31.31h-8.82v1.11H48c2.56 0 3.45-.06 3.65-.06s.3 0 .3.31v5.61c0 .16 0 .31-.3.31H49.5c-.27 0-.3 0-.3-.31v-3.79h-8v2.37c0 1.84.06 2.62.06 2.78s0 .28-.31.28h-2.28c-.28 0-.31 0-.31-.28s.06-1 .06-2.78v-2.37H30.7v3.81c0 .28 0 .31-.31.31h-2.17c-.25 0-.28 0-.28-.31v-5.68c0-.17 0-.31.28-.31s1.08.06 3.65.06h6.55v-1.11zm10.87 9.27c2.81 0 4.18-.05 4.37-.05s.31 0 .31.33-.06.73-.06 2.54v3.17c0 1.62.06 2.37.06 2.54s0 .31-.31.31-1.56-.06-4.37-.06h-3.54v.42c0 .75.17.86.53 1a23 23 0 0 0 3.7.17c2.43 0 3.54-.14 4.1-.58s.61-.67.7-2.82a9.46 9.46 0 0 0 2 .81c.72.19.72.22.66 1-.22 1.82-.72 2.68-1.58 3.24s-2.46.86-5.8.86a21.3 21.3 0 0 1-5.57-.44c-.87-.31-1.42-.9-1.42-2.57v-1h-5.15V61c0 .28 0 .31-.31.31h-2.2c-.25 0-.28 0-.28-.31s.06-.86.06-2.56V54c0-1.67-.06-2.42-.06-2.59s0-.33.28-.33 1.54.05 4.18.05zM35.21 46h1.56c.17 0 .31 0 .31.25v1.11c0 .17 0 .19-.31.19h-4.46c-.17 0-.3 0-.3-.22v-1.11c0-.2 0-.22.3-.22h1.56zm0 2.45h1.56c.17 0 .31 0 .31.25v1.06c0 .22 0 .25-.31.25h-4.46c-.17 0-.3 0-.3-.25v-1.09c0-.2 0-.22.3-.22h1.56zm3.18 6V53.1h-5.13v1.39zm0 3.37v-1.4h-5.13v1.44zm2.7-4.76v1.39h5.41V53.1zm5.41 3.32h-5.41v1.44h5.41zM45.88 46h1.65c.17 0 .3 0 .3.25v1.09c0 .22 0 .25-.3.25s-.45-.06-1.65-.06h-1.36c-1.2 0-1.48.06-1.65.06s-.3 0-.3-.28v-1.15c0-.19 0-.22.3-.22h1.65zm0 2.45h1.65c.17 0 .3 0 .3.25v1.09c0 .19 0 .22-.3.22h-4.66c-.17 0-.3 0-.3-.22v-1.18c0-.19 0-.22.3-.22h1.65zm16.43-4.91h3c.18 0 .31 0 .31.3v2c0 .31 0 .34-.31.34s-.86-.06-3-.06H58.5c-2.12 0-2.82.06-3 .06s-.28 0-.28-.34v-2c0-.28 0-.3.28-.3h3zm2.43 15.83c0 3.23.05 3.84.05 4s0 .31-.3.31h-2c-.28 0-.3 0-.3-.31v-.75h-3.1v1.28c0 .25 0 .28-.3.28h-2c-.3 0-.33 0-.33-.28v-8.68c0-.19 0-.31.33-.31s.76.06 2.54.06H62c1.81 0 2.37-.06 2.57-.06s.3 0 .3.31-.05.83-.05 2.14zM62 39.73c1.78 0 2.34-.06 2.5-.06s.34 0 .34.31v1.84c0 .27 0 .3-.34.3h-7.7c-.16 0-.31 0-.31-.3V40c0-.28 0-.31.31-.31s.72.06 2.53.06zm-.23 7.74h2.34c.31 0 .34 0 .34.3v1.81c0 .28 0 .31-.34.31s-.64-.06-2.34-.06h-2.35c-1.7 0-2.21.06-2.37.06s-.31 0-.31-.31v-1.86c0-.28 0-.3.31-.3h2.37zm0 3.74c1.7 0 2.18-.06 2.34-.06.31 0 .34 0 .34.31v1.78c0 .28 0 .31-.34.31s-.64-.06-2.34-.06h-2.35c-1.7 0-2.21.06-2.37.06s-.31 0-.31-.31v-1.78c0-.28 0-.31.31-.31s.67.06 2.37.06zm-2.73 6.07v3.06h3.1v-3.06zm10.54-7.5c-2.6 0-3.46.06-3.63.06s-.3 0-.3-.31v-2.11c0-.25 0-.28.3-.28h5.45v-3.7c-1.26.22-2.54.42-3.85.58-.67.09-.67.06-.89-.61a5.24 5.24 0 0 0-1-1.9 39.33 39.33 0 0 0 10.55-2.11 6.35 6.35 0 0 0 1.43-.7 19.91 19.91 0 0 1 1.67 2 .72.72 0 0 1 .19.47c0 .19-.16.31-.55.31a4.48 4.48 0 0 0-1.09.22c-1.12.39-2.31.75-3.57 1.06v4.37h5.94c.17 0 .3 0 .3.28v2.11c0 .28 0 .31-.3.31s-1.06-.06-3.65-.06h-2.26v3.77h1.17c2.34 0 3.18-.06 3.35-.06s.3 0 .3.31v9.92c0 .16 0 .28-.3.28h-2.29c-.28 0-.31 0-.31-.28v-1h-6.63v1.14c0 .25 0 .28-.3.28H67c-.28 0-.3 0-.3-.28V53.8c0-.14 0-.31.3-.31s1 .06 3.35.06h1v-3.77zm0 10.48h6.63v-4.21h-6.6zm27.78-15.02C94 45.88 91 46.47 88 47.08c-1.06.25-1.34.31-1.76.45a1.72 1.72 0 0 1-.61.22.65.65 0 0 1-.53-.42 19.42 19.42 0 0 1-1-3 36.48 36.48 0 0 0 4.43-.47c3.42-.5 9.55-1.42 16.74-2.37.42-.06.56.11.59.31a14.92 14.92 0 0 1 .3 2.45c0 .33-.16.42-.53.42a12.18 12.18 0 0 0-3.39.61c-4.74 1.62-7.11 4.88-7.11 8.22 0 3.59 2.56 5.54 7.41 5.85.45 0 .61.11.61.42a10.24 10.24 0 0 1-.3 2.4c-.09.41-.2.58-.53.58C97.38 62.74 92 59.93 92 54.13c0-4 2-6.63 5.35-8.83zm5.51 3c.14-.11.25-.08.42.06a12.67 12.67 0 0 1 2.65 3 .27.27 0 0 1-.09.44l-1.16.87a.3.3 0 0 1-.48-.09 13.82 13.82 0 0 0-2.81-3.23zm2.48-1.81c.17-.11.25-.08.42.06a11.52 11.52 0 0 1 2.65 2.87.32.32 0 0 1-.09.5l-1.11.86a.28.28 0 0 1-.47-.08 13.46 13.46 0 0 0-2.75-3.2z" id="SVG"/></g></svg>