<svg xmlns="http://www.w3.org/2000/svg" viewBox="0 0 370.54 75.65"><defs><style>.cls-1{fill:#3a3c45}</style></defs><title>sp-texttel3</title><g id="Layer_2" data-name="Layer 2"><path class="cls-1" d="M14.39 75.65C6.7 75.65 0 70.61 0 61.59V41.7c0-9 6.7-14.06 14.39-14.06s14.32 5 14.32 14.06v19.89c0 9.02-6.63 14.06-14.32 14.06zm5.7-33.82c0-4-2.32-6.43-5.7-6.43s-5.77 2.45-5.77 6.43v19.7c0 4 2.39 6.36 5.77 6.36s5.7-2.38 5.7-6.36zM44 75.25V37.32l-9.61 8.36v-9.29L44 28h8.62v47.25zm16.24 0V67.5L77.88 47c1.72-2 2.45-3.51 2.45-5.7 0-3.51-2.06-5.9-5.7-5.9-2.86 0-5.77 1.46-5.77 6h-8.62c0-8.62 6.3-13.79 14.39-13.79C83 27.64 89 32.88 89 41.37c0 4.57-1.79 7-5 10.81L70.71 67.5H89v7.75zm47.15.4c-7.69 0-14.39-5-14.39-14.06V41.7c0-9 6.7-14.06 14.39-14.06s14.32 5 14.32 14.06v19.89c0 9.02-6.63 14.06-14.32 14.06zm5.7-33.82c0-4-2.32-6.43-5.7-6.43s-5.77 2.45-5.77 6.43v19.7c0 4 2.39 6.36 5.77 6.36s5.7-2.38 5.7-6.36zm13.84 18.5v-8h20.42v8zM167 75.65c-7.69 0-14.39-5-14.39-14.06V41.7c0-9 6.7-14.06 14.39-14.06s14.33 5 14.33 14.06v19.89c-.03 9.02-6.67 14.06-14.33 14.06zm5.71-33.82c0-4-2.33-6.43-5.71-6.43s-5.77 2.45-5.77 6.43v19.7c0 4 2.39 6.36 5.77 6.36s5.71-2.38 5.71-6.36zm27.83 33.82c-7.69 0-14.39-5-14.39-14.06V41.7c0-9 6.7-14.06 14.39-14.06s14.33 5 14.33 14.06v19.89c0 9.02-6.64 14.06-14.33 14.06zm5.7-33.82c0-4-2.32-6.43-5.7-6.43s-5.77 2.45-5.77 6.43v19.7c0 4 2.39 6.36 5.77 6.36s5.7-2.38 5.7-6.36zm12.89 33.42V67.5L236.77 47c1.73-2 2.46-3.51 2.46-5.7 0-3.51-2.06-5.9-5.71-5.9-2.85 0-5.77 1.46-5.77 6h-8.62c0-8.62 6.3-13.79 14.39-13.79 8.36 0 14.33 5.24 14.33 13.73 0 4.57-1.79 7-5 10.81L229.61 67.5h18.24v7.75zm30.49-14.92v-8H270v8zm40.04 15.32c-7.69 0-14.39-5-14.39-14.06V41.7c0-9 6.7-14.06 14.39-14.06S304 32.68 304 41.7v19.89c0 9.02-6.65 14.06-14.34 14.06zm5.71-33.82c0-4-2.33-6.43-5.71-6.43s-5.77 2.45-5.77 6.43v19.7c0 4 2.39 6.36 5.77 6.36s5.71-2.38 5.71-6.36zm27.86 33.82c-7.69 0-14.39-5-14.39-14.06V41.7c0-9 6.7-14.06 14.39-14.06s14.33 5 14.33 14.06v19.89c0 9.02-6.64 14.06-14.33 14.06zm5.71-33.82c0-4-2.33-6.43-5.71-6.43s-5.77 2.45-5.77 6.43v19.7c0 4 2.39 6.36 5.77 6.36s5.71-2.38 5.71-6.36zm12.88 33.42V67.5L359.46 47c1.73-2 2.46-3.51 2.46-5.7 0-3.51-2.06-5.9-5.71-5.9-2.85 0-5.77 1.46-5.77 6h-8.62c0-8.62 6.3-13.79 14.39-13.79 8.36 0 14.33 5.24 14.33 13.73 0 4.57-1.79 7-5 10.81L352.3 67.5h18.24v7.75zM171.83 6.58a21.32 21.32 0 0 1-3.38 3.89 30.07 30.07 0 0 1-4.69 3.29c-.3.17-.45.17-.62 0a3.13 3.13 0 0 0-1-.68 24.3 24.3 0 0 0 5.38-3.52 17.14 17.14 0 0 0 3.35-3.72h-4.56c-1.11 0-2.32 0-3.47.13-.17 0-.23-.07-.25-.28s-.09-.85-.11-1.27c1.3.1 2.57.1 3.8.1h5.38l-.11-2a9.94 9.94 0 0 0-.36-2.52 9 9 0 0 1 1.81.17c.23.06.23.28.12.49a5.83 5.83 0 0 0-.12 1.87l.08 2h2.19c1.38 0 2.42 0 3.84-.08.19 0 .28.06.28.21v1c0 .17-.09.24-.28.24-1.42 0-2.52-.09-3.82-.09h-2.1l.4 8.09c.06 1.32-.28 1.91-.93 2.25a7.24 7.24 0 0 1-2.6.56c-.27 0-.36-.07-.42-.26a2.76 2.76 0 0 0-.89-1.17 9.43 9.43 0 0 0 2.72-.25c.53-.15.7-.36.66-1.45l-.24-5.39zm15.43 2.79a17.63 17.63 0 0 0-2.87.21.34.34 0 0 1-.36-.3 12.83 12.83 0 0 1-.22-1.61 39 39 0 0 0 4.7.19H195c1.46 0 3 0 4.65-.07.26 0 .32 0 .32.26a10.09 10.09 0 0 1 0 1.1c0 .24-.06.28-.32.26h-4.59zm19.16-6.71a.29.29 0 0 1 .4.08 15.36 15.36 0 0 1 2.25 3.8c.09.19.09.3-.12.41a9.2 9.2 0 0 1-.94.46c-.23.09-.32 0-.42-.21a15.53 15.53 0 0 0-2.28-3.95 7.3 7.3 0 0 1 1.11-.59zm14.46 0a.36.36 0 0 1 0 .56 4.74 4.74 0 0 0-.88 1.56 29.07 29.07 0 0 1-3.71 6.56 23.06 23.06 0 0 1-5.74 5.35c-.23.15-.34.17-.53 0a4 4 0 0 0-1.3-.6 23.29 23.29 0 0 0 6.29-5.6 24.19 24.19 0 0 0 3.44-6.14 10.09 10.09 0 0 0 .64-2.59 10 10 0 0 1 1.79.87zm-9.13-1.26a.29.29 0 0 1 .38.09 15.1 15.1 0 0 1 2 3.78c.08.21.06.32-.11.42a6.64 6.64 0 0 1-1 .43c-.24.08-.32.06-.41-.15a15.69 15.69 0 0 0-2.06-4c.45-.23.84-.42 1.2-.57zm18 7.97a17.63 17.63 0 0 0-2.87.21.34.34 0 0 1-.36-.3 12.83 12.83 0 0 1-.22-1.61 39 39 0 0 0 4.7.19h6.52c1.46 0 3 0 4.65-.07.26 0 .32 0 .32.26a10.09 10.09 0 0 1 0 1.1c0 .24-.06.28-.32.26h-4.59zm65-2.79a21.72 21.72 0 0 1-3.38 3.89 30.55 30.55 0 0 1-4.69 3.29c-.3.17-.45.17-.62 0a3.13 3.13 0 0 0-1-.68 24 24 0 0 0 5.37-3.52 17.19 17.19 0 0 0 3.36-3.72h-4.57c-1.1 0-2.31 0-3.46.13-.17 0-.23-.07-.25-.28a12.56 12.56 0 0 1-.11-1.27c1.3.1 2.57.1 3.8.1h5.38l-.11-2a10.44 10.44 0 0 0-.36-2.52 8.85 8.85 0 0 1 1.76.17c.24.06.24.28.13.49a6 6 0 0 0-.13 1.87l.09 2h2.19c1.38 0 2.42 0 3.84-.08.19 0 .28.06.28.21v1c0 .17-.09.24-.28.24-1.42 0-2.53-.09-3.82-.09h-2.11l.41 8.09c.06 1.32-.28 1.91-.94 2.25a7.19 7.19 0 0 1-2.59.56c-.27 0-.36-.07-.42-.26a2.84 2.84 0 0 0-.89-1.17 9.32 9.32 0 0 0 2.71-.25c.54-.15.71-.36.66-1.45l-.23-5.39zm15.42 2.79a17.42 17.42 0 0 0-2.86.21c-.2 0-.3-.09-.37-.3a13 13 0 0 1-.21-1.61 38.88 38.88 0 0 0 4.7.19H318c1.46 0 3 0 4.65-.07.25 0 .32 0 .32.26a10.09 10.09 0 0 1 0 1.1c0 .24-.07.28-.32.26h-4.59zm19.17-6.71a.29.29 0 0 1 .4.08 15.36 15.36 0 0 1 2.26 3.8c.09.19.09.3-.13.41a9 9 0 0 1-.93.46c-.23.09-.32 0-.42-.21a15.53 15.53 0 0 0-2.28-3.95 7.3 7.3 0 0 1 1.1-.59zm14.46 0a.36.36 0 0 1 0 .56 4.56 4.56 0 0 0-.89 1.59 28.71 28.71 0 0 1-3.72 6.56 22.85 22.85 0 0 1-5.73 5.35c-.23.15-.34.17-.53 0a4 4 0 0 0-1.3-.6 23.29 23.29 0 0 0 6.29-5.6 24.5 24.5 0 0 0 3.44-6.14 10.09 10.09 0 0 0 .64-2.57 10.29 10.29 0 0 1 1.8.82zm-9.13-1.26a.29.29 0 0 1 .38.09 15.1 15.1 0 0 1 2 3.78c.08.21.06.32-.11.42a6.28 6.28 0 0 1-1 .43c-.23.08-.31.06-.4-.15a15.69 15.69 0 0 0-2.06-4c.4-.23.83-.42 1.19-.57zm17.99 7.97a17.42 17.42 0 0 0-2.86.21c-.2 0-.3-.09-.36-.3a12.83 12.83 0 0 1-.22-1.61 38.88 38.88 0 0 0 4.7.19h6.52c1.46 0 3 0 4.65-.07.25 0 .32 0 .32.26a10.09 10.09 0 0 1 0 1.1c0 .24-.07.28-.32.26h-4.59z" id="SVG"/></g></svg>