<svg xmlns="http://www.w3.org/2000/svg" viewBox="0 0 533.7 171.54"><defs><style>.cls-1{fill:#ac7e24}.cls-2{opacity:.4}</style></defs><title>sp-title3</title><g id="Layer_2" data-name="Layer 2"><g id="SVG"><path class="cls-1" d="M172.22 157.95h197.23v4.65H172.22z"/><path class="cls-1" d="M270.84 171.54l8.65-12.41h-17.3l8.65 12.41z"/><g class="cls-2"><path class="cls-1" d="M55.68 100.44V18.52H8.75v-2.45h96.83v2.45H58.26v81.92h56.32v2.44H0v-2.44zm103.79-45.53c-5.66-5.78-13.76-11.7-23.54-17.36l1.55-1.93c10 5.79 18 11.7 23.79 17.36zm-17.75 60.7l-2.31-1.41c6.3-10.16 15.94-30.1 21.47-44.63l2.06 1.67c-5.53 14.28-15.05 34.08-21.22 44.37zm22.12-96.06c-5.53-5.66-13.37-11.45-22.89-17l1.54-1.91c9.65 5.66 17.49 11.45 23.15 17zm4.37 90.92l-.77-2.83c4.12-.39 9-.77 14.53-1.29 7.85-15.43 15.44-33 19.42-45.14h-35.62v-2.44h40.77V29.06h-32.41v-2.44h32.41V0h2.57v26.62h33v2.44h-33v29.71h42.31v2.44h-47.07a450 450 0 0 1-19.55 44.89c17.49-1.55 39.61-3.73 55.17-5.28a231.14 231.14 0 0 0-20.32-25.07l1.8-1.55c13.38 14.28 23.41 28 29.84 40l-2.19 1.41a131.31 131.31 0 0 0-7.46-12.47c-21.34 2.31-55.29 5.53-73.43 7.33zM296.94 66v42.57c0 3.73-.9 6.17-4.88 6.81a88.35 88.35 0 0 1-13.5.13v-2.57c4.11.13 9.9.26 11.83.13 3.34-.26 4-1.93 4-4.63V67c-7.07 2.83-14.4 5.53-19.29 7.46l-1-2.44c5-1.8 12.74-4.76 20.32-7.72V29.83H275v-2.44h19.42V0h2.57v27.39h14.28v2.44h-14.33V63.4c4.12-1.67 8-3.22 11.32-4.63l.39 2.44c-3.47 1.42-7.46 3.09-11.71 4.79zm27.14 20.32c6.43 12.48 14.53 19.16 24.18 22.25V60.31h-35.75v-2.44h77.28v2.44h-39v21.22h31.25V84h-31.21v25.33a53 53 0 0 0 13.76 1.67c3.86 0 22.76 0 26.49-.13l-.13 2.58c-3.86.12-22.63.25-26.62.12-17.36-.25-31-5.91-41.41-24-4 10.16-10 19.8-19.93 26.23l-2.06-1.8c17-10.8 22.89-32.15 25.08-47.84l2.83.26a124.6 124.6 0 0 1-4.76 19.87zm-3.34-43.72V3.73h59.54v38.84zm56.84-36.4h-54.27v15.4h54.27zm0 18h-54.27v15.92h54.27zm156.12 85.62l-2.05 2.32c-20.71-5.79-44-17.23-56.46-32.54h-.39v35.88h-2.57V79.6h-.13c-12.47 14.79-35.62 26.62-55.42 32.93l-2.06-2.19c19.16-5.79 41.79-17.1 54.27-30.74h-52.6v-2.44h55.94V63.27h2.57v13.89h57v2.44h-53.27c12.35 14.15 34.98 25.08 55.17 30.22zm-9.26-42.56l-2.18 1.93a442.77 442.77 0 0 0-43.08-14.54c-12 6.56-29.71 11.45-56.07 14.79l-1.29-2.31C447 64.3 464.13 59.8 476 53.63a870.01 870.01 0 0 0-31.12-8c-1.29 1.55-2.7 3.09-3.86 4.38l-2.31-.9c4.11-4.38 9.51-10.55 14.66-16.85H418.6v-2.43h36.78c4.25-5.14 8.23-10.41 11.32-14.66l2.7.65c-3.09 4.11-6.94 9-11.06 14h71.12v2.45H500A43.33 43.33 0 0 1 481.88 53c15.94 4.61 30.22 9.37 42.56 14.26zM472.23 10.8V0h2.57v10.8h49.77v14.53H522V13.25h-95.81v12.08h-2.57V10.8zm6.69 41.28c9.39-5.53 14.92-12.21 18.26-19.8h-40.77c-3.34 4-6.68 8-9.77 11.44 11.36 2.7 22.12 5.53 32.28 8.36z"/></g></g></g></svg>