<svg xmlns="http://www.w3.org/2000/svg" viewBox="0 0 518.65 171.67"><defs><style>.cls-1{fill:#ac7e24}.cls-2{opacity:.4}</style></defs><title>sp-title2</title><g id="Layer_2" data-name="Layer 2"><g id="SVG"><path class="cls-1" d="M158.17 158.08H355.4v4.65H158.17z"/><path class="cls-1" d="M256.78 171.67l8.65-12.41h-17.3l8.65 12.41z"/><g class="cls-2"><path class="cls-1" d="M2.57 109.57v6.3H0V18.26h33.31A125.43 125.43 0 0 0 41.54 0l2.57.77A182 182 0 0 1 36 18.26h47.2v97.61h-2.57v-6.3zm78.06-62.24V20.71H2.57v26.62zm0 29.7V49.77H2.57V77zm0 30.1V79.48H2.57v27.65zm53.76 2.05v6.56h-2.57V27.26h46.55V.13h2.57v27.13h48.36v88.48h-2.7v-6.56zm44-43.72V29.71h-44v35.75zm0 41.28V67.9h-44v38.84zm48.21-41.28V29.71h-45.66v35.75zm0 41.28V67.9h-45.66v38.84zm84.23-84.23V25h-49.25v-2.49zm-40.76 51.82h35v34.6h-35v6.68h-2.58V74.33h2.58zm34.33-34.46v2.44h-36.26v-2.44zm0 17.23v2.44h-36.26V57.1zM303 5.53V8h-33.45V5.53zm-.51 101V76.77h-32.42v29.71zm40.63-13.89c10.8-9.64 18.78-21.22 23-34.46h-53.61v-2.5h55.17l2.05.78c-4.37 14.79-13 27.52-24.56 37.93a89.29 89.29 0 0 0 32.92 18.78l-2.18 2.44A95.34 95.34 0 0 1 343 96.32a115.9 115.9 0 0 1-33.69 19.55l-2.19-2.31a114.78 114.78 0 0 0 34-19.17 89.34 89.34 0 0 1-21.35-32.92l2.57-1a86 86 0 0 0 20.77 32.12zm14.79-89h1v33.65c0 3.61.64 4.25 3.73 4.38h9.39c3.08-.13 3.47-.52 3.6-13.76l2.31.64c-.51 14.66-1 15.69-5.53 15.82h-10.26c-4.25-.13-5.79-1.67-5.79-7.08V6h-31.51v17.15c0 10.54-4.89 19.67-15.82 27.52l-1.8-1.93c10.55-7.33 15-16.07 15-25.72V3.6h35.67zm96.32 18.87V25H403v-2.49zm-42.44 51.82h36.65v34.6h-36.65v6.68h-2.57V74.33h2.57zm36.13-34.46v2.44h-38.06v-2.44zm0 17.23v2.44h-38.06V57.1zm-1.28-51.57V8h-35.37V5.53zm-.77 101V76.77h-34.08v29.71zm41.41-63V.13h2.57v43.34h28.8v2.44h-28.8v70h-2.57v-70h-31v-2.44z"/></g></g></g></svg>