<?xml version="1.0" encoding="UTF-8"?>
<svg width="286px" height="541px" viewBox="0 0 286 541" version="1.1" xmlns="http://www.w3.org/2000/svg" xmlns:xlink="http://www.w3.org/1999/xlink">
    <!-- Generator: Sketch 51.3 (57544) - http://www.bohemiancoding.com/sketch -->
    <title>Combined Shape Copy</title>
    <desc>Created with Sketch.</desc>
    <defs>
        <linearGradient x1="119.400132%" y1="87.7997279%" x2="119.400132%" y2="0%" id="linearGradient-1">
            <stop stop-color="#6F6F6F" offset="0%"></stop>
            <stop stop-color="#000000" offset="100%"></stop>
        </linearGradient>
    </defs>
    <g id="Page-1" stroke="none" stroke-width="1" fill="none" fill-rule="evenodd" opacity="0.6">
        <g id="01-Homepage" transform="translate(0.000000, -1975.000000)" fill="url(#linearGradient-1)">
            <path d="M282.5584,2158.0591 C284.1794,2158.5101 285.3784,2159.9831 285.3784,2161.7501 C285.3784,2163.8731 283.6604,2165.5941 281.5354,2165.5941 C279.4134,2165.5941 277.6914,2163.8731 277.6914,2161.7501 C277.6914,2159.9831 278.8864,2158.5101 280.5114,2158.0591 L280.5114,2115.3701 L259.0034,2115.3701 L259.0034,1975.0001 L261.0464,1975.0001 L261.0464,2113.3271 L282.5584,2113.3271 L282.5584,2158.0591 Z M274.2185,2170.8443 C275.8435,2171.2933 277.0425,2172.7643 277.0425,2174.5333 C277.0425,2176.6563 275.3205,2178.3793 273.1985,2178.3793 C271.0775,2178.3793 269.3515,2176.6563 269.3515,2174.5333 C269.3515,2172.7643 270.5505,2171.2953 272.1755,2170.8443 L272.1755,2123.6353 L250.6635,2123.6353 L250.6635,1975.0003 L252.7105,1975.0003 L252.7105,2121.5923 L274.2185,2121.5923 L274.2185,2170.8443 Z M264.9139,2180.0454 C266.5349,2180.4984 267.7379,2181.9714 267.7379,2183.7364 C267.7379,2185.8594 266.0159,2187.5804 263.8909,2187.5804 C261.7659,2187.5804 260.0469,2185.8594 260.0469,2183.7364 C260.0469,2181.9694 261.2459,2180.4944 262.8709,2180.0454 L262.8709,2133.2604 L241.3589,2133.2604 L241.3589,1975.0004 L243.4059,1975.0004 L243.4059,2131.2154 L264.9139,2131.2154 L264.9139,2180.0454 Z M199.4353,2345.0659 C201.0603,2345.5149 202.2593,2346.9879 202.2593,2348.7569 C202.2593,2350.8739 200.5403,2352.6009 198.4153,2352.6009 C196.2943,2352.6009 194.5683,2350.8739 194.5683,2348.7569 C194.5683,2346.9879 195.7673,2345.5149 197.3923,2345.0659 L197.3923,2275.9199 L172.9153,2251.4419 L172.9153,2162.0089 L152.1263,2162.0089 L152.1263,1975.0009 L154.1653,1975.0009 L154.1653,2159.9639 L174.9623,2159.9639 L174.9623,2250.5969 L199.4353,2275.0679 L199.4353,2345.0659 Z M207.7674,2327.9331 C209.3964,2328.3821 210.5914,2329.8581 210.5914,2331.6241 C210.5914,2333.7451 208.8764,2335.4681 206.7474,2335.4681 C204.6264,2335.4681 202.9084,2333.7451 202.9084,2331.6241 C202.9084,2329.8581 204.0994,2328.3821 205.7284,2327.9331 L205.7284,2271.7221 L181.2554,2247.2491 L181.2554,2152.6321 L160.4584,2152.6321 L160.4584,1975.0001 L162.5054,1975.0001 L162.5054,2150.5871 L183.2984,2150.5871 L183.2984,2246.4021 L207.7674,2270.8781 L207.7674,2327.9331 Z M137.9881,1975.0005 L137.9881,2255.5705 L159.5001,2255.5705 L159.5001,2354.5065 L135.0271,2378.9825 L135.0271,2448.1335 C136.6521,2448.5825 137.8481,2450.0515 137.8481,2451.8205 C137.8481,2453.9455 136.1291,2455.6665 134.0081,2455.6665 C131.8791,2455.6665 130.1601,2453.9455 130.1601,2451.8205 C130.1601,2450.0555 131.3551,2448.5845 132.9811,2448.1335 L132.9811,2378.1395 L157.4571,2353.6625 L157.4571,2257.6175 L135.9491,2257.6175 L135.9491,1975.0005 L137.9881,1975.0005 Z M126.6873,2430.9981 C128.3123,2431.4501 129.5113,2432.9201 129.5113,2434.6921 C129.5113,2436.8121 127.7893,2438.5361 125.6643,2438.5361 C123.5473,2438.5361 121.8243,2436.8121 121.8243,2434.6921 C121.8243,2432.9201 123.0193,2431.4501 124.6483,2430.9981 L124.6483,2373.9421 L149.1173,2349.4651 L149.1173,2265.8831 L127.6093,2265.8831 L127.6093,1975.0001 L129.6563,1975.0001 L129.6563,2263.8381 L151.1643,2263.8381 L151.1643,2350.3121 L126.6873,2374.7901 L126.6873,2430.9981 Z M117.3826,2427.5923 C119.0076,2428.0413 120.2066,2429.5163 120.2066,2431.2813 C120.2066,2433.4043 118.4806,2435.1253 116.3596,2435.1253 C114.2376,2435.1253 112.5156,2433.4043 112.5156,2431.2813 C112.5156,2429.5163 113.7156,2428.0433 115.3396,2427.5923 L115.3396,2370.5293 L139.8126,2346.0593 L139.8126,2275.5083 L118.3006,2275.5083 L118.3006,1975.0003 L120.3476,1975.0003 L120.3476,2273.4633 L141.8596,2273.4633 L141.8596,2346.9043 L117.3826,2371.3773 L117.3826,2427.5923 Z M232.1326,2204.1392 C234.2536,2204.1392 235.9806,2205.8602 235.9806,2207.9832 C235.9806,2210.1042 234.2536,2211.8282 232.1326,2211.8282 C230.3636,2211.8282 228.8946,2210.6292 228.4416,2209.0062 L208.1326,2209.0062 L208.1326,2173.5512 L232.6096,2149.0752 L232.6096,2053.0322 L211.0976,2053.0322 L211.0976,1975.0002 L213.1446,1975.0002 L213.1446,2050.9872 L234.6526,2050.9872 L234.6526,2149.9222 L210.1796,2174.3972 L210.1796,2206.9612 L228.4416,2206.9612 C228.8906,2205.3382 230.3636,2204.1392 232.1326,2204.1392 Z M217.1365,2215.9907 C219.2575,2215.9907 220.9805,2217.7117 220.9805,2219.8347 C220.9805,2221.9557 219.2575,2223.6797 217.1365,2223.6797 C215.3705,2223.6797 213.8985,2222.4807 213.4455,2220.8577 L199.7975,2220.8577 L199.7975,2169.3537 L224.2695,2144.8817 L224.2695,2061.2977 L202.7615,2061.2977 L202.7615,1975.0007 L204.8085,1975.0007 L204.8085,2059.2547 L226.3165,2059.2547 L226.3165,2145.7287 L201.8395,2170.2017 L201.8395,2218.8127 L213.4455,2218.8127 C213.8945,2217.1897 215.3705,2215.9907 217.1365,2215.9907 Z M191.5154,2238.522 C189.3864,2238.522 187.6674,2236.801 187.6674,2234.676 C187.6674,2232.911 188.8674,2231.44 190.4884,2230.991 L190.4884,2165.946 L214.9644,2141.473 L214.9644,2070.922 L193.4604,2070.922 L193.4604,1975.001 L195.4994,1975.001 L195.4994,2068.876 L217.0074,2068.876 L217.0074,2142.315 L192.5354,2166.792 L192.5354,2230.991 C194.1604,2231.44 195.3594,2232.913 195.3594,2234.676 C195.3594,2236.801 193.6364,2238.522 191.5154,2238.522 Z M144.7815,1975.0005 L144.7815,2169.3245 L166.2925,2169.3245 L166.2925,2245.5125 L142.7345,2245.5125 L142.7345,2185.1765 L154.9455,2185.1765 L154.9455,2219.5685 C156.5665,2220.0205 157.7655,2221.4925 157.7655,2223.2585 C157.7655,2225.3815 156.0425,2227.1025 153.9215,2227.1025 C151.8005,2227.1025 150.0775,2225.3815 150.0775,2223.2585 C150.0775,2221.4945 151.2775,2220.0215 152.8985,2219.5685 L152.8985,2187.2195 L144.7815,2187.2195 L144.7815,2243.4655 L164.2465,2243.4655 L164.2465,2171.3715 L142.7345,2171.3715 L142.7345,1975.0005 L144.7815,1975.0005 Z M46.9842,2452.9732 C48.6092,2453.4222 49.8082,2454.8942 49.8082,2456.6622 C49.8082,2458.7842 48.0822,2460.5062 45.9652,2460.5062 C43.8432,2460.5062 42.1172,2458.7842 42.1172,2456.6622 C42.1172,2454.8942 43.3162,2453.4242 44.9412,2452.9732 L44.9412,2416.9102 L38.6492,2423.2032 L38.6492,2485.1902 C40.2772,2485.6392 41.4682,2487.1112 41.4682,2488.8792 C41.4682,2491.0022 39.7502,2492.7232 37.6292,2492.7232 C35.5002,2492.7232 33.7812,2491.0022 33.7812,2488.8792 C33.7812,2487.1132 34.9812,2485.6392 36.6012,2485.1902 L36.6012,2425.2482 L22.5152,2439.3422 L22.5152,2508.4942 C24.1402,2508.9402 25.3362,2510.4122 25.3362,2512.1782 C25.3362,2514.3072 23.6172,2516.0262 21.4922,2516.0262 C19.3672,2516.0262 17.6492,2514.3072 17.6492,2512.1782 C17.6492,2510.4162 18.8432,2508.9432 20.4652,2508.4942 L20.4652,2438.4982 L44.9412,2414.0242 L44.9412,2387.0532 L44.9412,2317.9772 L23.4332,2317.9772 L23.4332,1975.0002 L25.4762,1975.0002 L25.4762,2315.9302 L46.9842,2315.9302 L46.9842,2387.0532 L46.9842,2414.8662 L46.9842,2452.9732 Z M14.1756,2491.3599 C15.8006,2491.8109 16.9996,2493.2839 16.9996,2495.0489 C16.9996,2497.1739 15.2776,2498.8929 13.1556,2498.8929 C11.0316,2498.8929 9.3086,2497.1739 9.3086,2495.0489 C9.3086,2493.2839 10.5116,2491.8109 12.1326,2491.3599 L12.1326,2434.3009 L36.6016,2409.8249 L36.6016,2326.2429 L15.0976,2326.2429 L15.0976,1975.0009 L17.1406,1975.0009 L17.1406,2324.1999 L38.6486,2324.1999 L38.6486,2410.6739 L14.1756,2435.1469 L14.1756,2491.3599 Z M4.867,2487.9497 C6.496,2488.4027 7.696,2489.8757 7.696,2491.6407 C7.696,2493.7637 5.969,2495.4867 3.848,2495.4867 C1.726,2495.4867 0,2493.7637 0,2491.6407 C0,2489.8757 1.203,2488.3987 2.828,2487.9497 L2.828,2430.8887 L27.297,2406.4167 L27.297,2335.8677 L5.785,2335.8677 L5.785,1975.0007 L7.836,1975.0007 L7.836,2333.8227 L29.344,2333.8227 L29.344,2407.2637 L4.867,2431.7387 L4.867,2487.9497 Z M109.1443,2255.5625 L109.1443,2159.5185 L87.6323,2159.5185 L87.6323,1975.0005 L89.6833,1975.0005 L89.6833,2157.4735 L111.1873,2157.4735 L111.1873,2256.4125 L86.7183,2280.8855 L86.7183,2313.4495 L123.8203,2313.4495 C124.2693,2311.8265 125.7463,2310.6265 127.5113,2310.6265 C129.6363,2310.6265 131.3553,2312.3475 131.3553,2314.4695 C131.3553,2316.5955 129.6363,2318.3165 127.5113,2318.3165 C125.7493,2318.3165 124.2693,2317.1195 123.8203,2315.4945 L84.6713,2315.4945 L84.6713,2280.0375 L109.1443,2255.5625 Z M116.3592,2326.3247 C116.3592,2328.4457 114.6402,2330.1687 112.5152,2330.1687 C110.7502,2330.1687 109.2772,2328.9677 108.8242,2327.3457 L76.3322,2327.3457 L76.3322,2275.8437 L100.8082,2251.3697 L100.8082,2167.7877 L79.3002,2167.7877 L79.3002,1975.0007 L81.3482,1975.0007 L81.3482,2165.7407 L102.8512,2165.7407 L102.8512,2252.2177 L78.3822,2276.6897 L78.3822,2325.3017 L108.8242,2325.3017 C109.2772,2323.6777 110.7502,2322.4807 112.5152,2322.4807 C114.6402,2322.4807 116.3592,2324.1997 116.3592,2326.3247 Z M69.0779,2362.7271 C70.6959,2363.1761 71.8989,2364.6441 71.8989,2366.4121 C71.8989,2368.5381 70.1759,2370.2581 68.0509,2370.2581 C65.9299,2370.2581 64.2069,2368.5381 64.2069,2366.4121 C64.2069,2364.6491 65.4019,2363.1781 67.0269,2362.7271 L67.0269,2272.4341 L91.4999,2247.9611 L91.4999,2177.4111 L69.9959,2177.4111 L69.9959,1975.0001 L72.0349,1975.0001 L72.0349,2175.3641 L93.5469,2175.3641 L93.5469,2248.8051 L69.0779,2273.2771 L69.0779,2362.7271 Z M79.2654,2230.8404 L79.2654,2188.1524 L57.7574,2188.1524 L57.7574,1975.0004 L59.8004,1975.0004 L59.8004,2186.1104 L81.3124,2186.1104 L81.3124,2230.8404 C82.9334,2231.2934 84.1294,2232.7624 84.1294,2234.5314 C84.1294,2236.6524 82.4144,2238.3774 80.2854,2238.3774 C78.1644,2238.3774 76.4454,2236.6524 76.4454,2234.5314 C76.4454,2232.7624 77.6404,2231.2894 79.2654,2230.8404 Z M70.93,2243.6255 L70.93,2196.4185 L49.418,2196.4185 L49.418,1975.0005 L51.465,1975.0005 L51.465,2194.3735 L72.976,2194.3735 L72.976,2243.6255 C74.598,2244.0745 75.797,2245.5455 75.797,2247.3145 C75.797,2249.4395 74.078,2251.1585 71.953,2251.1585 C69.828,2251.1585 68.105,2249.4395 68.105,2247.3145 C68.105,2245.5455 69.305,2244.0745 70.93,2243.6255 Z M66.4881,2256.52 C66.4881,2258.643 64.7691,2260.36 62.6491,2260.36 C60.5191,2260.36 58.8011,2258.643 58.8011,2256.52 C58.8011,2254.75 60.0001,2253.277 61.6251,2252.828 L61.6251,2206.043 L40.1131,2206.043 L40.1131,1975 L42.1561,1975 L42.1561,2203.999 L63.6641,2203.999 L63.6641,2252.828 C65.2891,2253.277 66.4881,2254.75 66.4881,2256.52 Z M32.2654,1975.0005 L32.2654,2229.6845 L53.7774,2229.6845 L53.7774,2305.8715 L30.2224,2305.8715 L30.2224,2245.5335 L42.4334,2245.5335 L42.4334,2279.9275 C44.0504,2280.3765 45.2534,2281.8505 45.2534,2283.6175 C45.2534,2285.7405 43.5314,2287.4625 41.4104,2287.4625 C39.2884,2287.4625 37.5624,2285.7405 37.5624,2283.6175 C37.5624,2281.8545 38.7654,2280.3785 40.3864,2279.9275 L40.3864,2247.5785 L32.2654,2247.5785 L32.2654,2303.8245 L51.7304,2303.8245 L51.7304,2231.7325 L30.2224,2231.7325 L30.2224,1975.0005 L32.2654,1975.0005 Z" id="Combined-Shape-Copy"></path>
        </g>
    </g>
</svg>