<?xml version="1.0" encoding="UTF-8"?>
<svg width="1079px" height="508px" viewBox="0 0 1079 508" version="1.1" xmlns="http://www.w3.org/2000/svg" xmlns:xlink="http://www.w3.org/1999/xlink">
    <!-- Generator: Sketch 51.3 (57544) - http://www.bohemiancoding.com/sketch -->
    <title>Combined Shape</title>
    <desc>Created with Sketch.</desc>
    <defs>
        <filter x="-0.5%" y="-0.5%" width="101.0%" height="101.4%" filterUnits="objectBoundingBox" id="filter-1">
            <feOffset dx="0" dy="2" in="SourceAlpha" result="shadowOffsetOuter1"></feOffset>
            <feGaussianBlur stdDeviation="2" in="shadowOffsetOuter1" result="shadowBlurOuter1"></feGaussianBlur>
            <feColorMatrix values="0 0 0 0 0   0 0 0 0 0   0 0 0 0 0  0 0 0 0.5 0" type="matrix" in="shadowBlurOuter1" result="shadowMatrixOuter1"></feColorMatrix>
            <feMerge>
                <feMergeNode in="shadowMatrixOuter1"></feMergeNode>
                <feMergeNode in="SourceGraphic"></feMergeNode>
            </feMerge>
        </filter>
    </defs>
    <g id="Page-1" stroke="none" stroke-width="1" fill="none" fill-rule="evenodd" opacity="0.3">
        <g id="01-Homepage" transform="translate(-180.000000, -6105.000000)" fill="#FFFFFF">
            <g id="Group-4" filter="url(#filter-1)" transform="translate(0.000000, 6107.000000)">
                <g id="Group-3">
                    <g id="Combined-Shape">
                        <path d="M211.896002,308.332 L211.843002,343.789 L191.535002,343.762 C191.084002,345.378 189.605002,346.583 187.840002,346.581 C185.716002,346.576 183.998002,344.848 184.000002,342.732 C184.002002,340.604 185.731002,338.881 187.855002,338.886 C189.620002,338.889 191.090002,340.094 191.538002,341.718 L209.802002,341.747 L209.850002,309.175 L185.412002,284.671 L185.563002,185.731 L207.071002,185.763 L207.326002,10.894 L209.370002,10.898 L209.106002,187.81 L187.600002,187.781 L187.458002,283.828 L211.896002,308.332 Z M195.926302,196.0605 L195.802302,279.6405 L220.237302,304.1525 L220.164302,355.6565 L206.516302,355.6375 C206.060302,357.2585 204.584302,358.4565 202.820302,358.4535 C200.696302,358.4485 198.980302,356.7235 198.977302,354.6015 C198.982302,352.4775 200.707302,350.7625 202.832302,350.7675 C204.596302,350.7695 206.069302,351.9675 206.517302,353.5905 L218.118302,353.6075 L218.191302,304.9955 L193.756302,280.4835 L193.886302,194.0075 L215.394302,194.0395 L215.670302,6.7125 L217.714302,6.7155 L217.435302,196.0925 L195.926302,196.0605 Z M229.456502,365.7969 C231.081502,366.2509 232.272502,367.7319 232.270502,369.4969 C232.269502,371.6129 230.545502,373.3309 228.418502,373.3339 C226.300502,373.3239 224.576502,371.6009 224.578502,369.4849 C224.580502,367.7199 225.786502,366.2439 227.407502,365.7939 L227.498502,301.6029 L203.066502,277.0929 L203.172502,203.6509 L224.686502,203.6769 L224.980502,3.3169 L227.021502,3.3169 L226.724502,205.7269 L205.215502,205.6949 L205.115502,276.2419 L229.550502,300.7539 L229.456502,365.7969 Z M215.325202,259.1445 L215.394202,214.4125 L236.902202,214.4445 L237.163202,39.5705 L239.207202,39.5745 L238.946202,216.4895 L217.437202,216.4575 L217.374202,259.1475 C218.996202,259.5985 220.193202,261.0745 220.191202,262.8395 C220.186202,264.9635 218.463202,266.6815 216.342202,266.6795 C214.218202,266.6745 212.497202,264.9545 212.502202,262.8305 C212.504202,261.0655 213.702202,259.5925 215.325202,259.1445 Z M223.648902,271.938 L223.719902,222.692 L245.228902,222.724 L245.503902,35.386 L247.547902,35.39 L247.269902,224.766 L225.763902,224.737 L225.695902,271.938 C227.313902,272.397 228.508902,273.871 228.506902,275.635 C228.503902,277.763 226.778902,279.478 224.656902,279.476 C222.535902,279.473 220.820902,277.748 220.816902,275.626 C220.824902,273.856 222.025902,272.386 223.648902,271.938 Z M234.982902,281.1611 C236.604902,281.6121 237.807902,283.0821 237.802902,284.8551 C237.797902,286.9791 236.073902,288.6981 233.950902,288.6921 C231.828902,288.6901 230.105902,286.9671 230.109902,284.8431 C230.111902,283.0781 231.318902,281.6031 232.941902,281.1551 L233.009902,232.3261 L254.518902,232.3581 L254.815902,31.9951 L256.864902,31.9991 L256.564902,234.4061 L235.055902,234.3741 L234.982902,281.1611 Z M264.371602,258.0566 L264.624602,87.3926 L266.671602,87.3926 L266.417602,260.1046 L244.909602,260.0726 L244.801602,332.1686 L264.263602,332.1996 L264.345602,275.9556 L256.232602,275.9426 L256.183602,308.2906 C257.806602,308.7446 258.998602,310.2146 258.996602,311.9906 C258.994602,314.1066 257.271602,315.8246 255.147602,315.8196 C253.022602,315.8146 251.302602,314.0946 251.304602,311.9776 C251.309602,310.2046 252.513602,308.7266 254.141602,308.2846 L254.186602,273.8946 L266.395602,273.9116 L266.309602,334.2476 L242.751602,334.2116 L242.862602,258.0246 L264.371602,258.0566 Z M436.647902,452.6768 C438.268902,453.1278 439.466902,454.6038 439.464902,456.3678 C439.461902,458.4948 437.736902,460.2108 435.614902,460.2078 C433.493902,460.2058 431.769902,458.4828 431.772902,456.3558 C431.773902,454.5918 432.977902,453.1238 434.600902,452.6758 L434.705902,383.5258 L410.264902,359.0188 L410.461902,222.5808 L349.673902,222.4918 L350.052902,-36.0622 L352.095902,-36.0572 L351.714902,220.4508 L412.514902,220.5408 L412.307902,358.1728 L436.748902,382.6798 L436.647902,452.6768 Z M650.386702,521.1509 C651.981702,521.6199 653.155702,523.0749 653.151702,524.8259 C653.147702,526.9509 651.418702,528.6679 649.295702,528.6639 C647.178702,528.6609 645.456702,526.9409 645.460702,524.8149 C645.462702,523.0259 646.687702,521.5429 648.339702,521.1149 L648.449702,448.1329 L624.011702,423.6239 L624.153702,327.4729 L642.834702,327.5009 L643.025702,197.5479 L623.240702,179.1079 L623.326702,119.4189 L645.031702,119.4529 L645.163702,28.8189 C643.548702,28.3629 642.347702,26.8899 642.349702,25.1249 C642.353702,23.0019 644.081702,21.2839 646.197702,21.2859 C648.323702,21.2899 650.038702,23.0099 650.036702,25.1369 C650.034702,26.9019 648.839702,28.3779 647.209702,28.8209 L647.072702,121.5049 L625.373702,121.4759 L625.287702,178.2219 L645.073702,196.6569 L644.876702,329.5469 L626.199702,329.5209 L626.060702,422.7779 L650.495702,447.2909 L650.386702,521.1509 Z M658.751502,508.0757 C660.252502,508.6027 661.348502,510.0177 661.346502,511.7067 C661.344502,513.8227 659.610502,515.5397 657.493502,515.5367 C655.368502,515.5317 653.652502,513.8097 653.653502,511.6947 C653.658502,509.8437 654.959502,508.3057 656.699502,507.9407 L656.789502,447.9487 L632.346502,423.4337 L632.475502,336.9627 L653.989502,336.9947 L654.201502,192.2697 L632.721502,170.5067 L632.782502,129.4337 L654.325502,129.4667 L654.521502,-4.8923 C652.901502,-5.3443 651.704502,-6.8203 651.707502,-8.5863 C651.709502,-10.7083 653.435502,-12.4283 655.561502,-12.4243 C657.683502,-12.4233 659.403502,-10.6963 659.399502,-8.5733 C659.396502,-6.8073 658.190502,-5.3383 656.572502,-4.8893 L656.374502,131.5177 L634.825502,131.4847 L634.771502,169.6707 L656.245502,191.4337 L656.026502,339.0407 L634.520502,339.0117 L634.397502,422.5907 L658.840502,447.0997 L658.751502,508.0757 Z M445.004902,435.561 C446.629902,436.003 447.820902,437.485 447.823902,439.255 C447.816902,441.376 446.098902,443.1 443.974902,443.095 C441.850902,443.09 440.132902,441.362 440.134902,439.246 C440.137902,437.47 441.337902,436 442.963902,435.555 L443.046902,379.347 L418.608902,354.832 L418.814902,213.219 L358.020902,213.13 L358.387902,-36.049 L360.436902,-36.044 L360.070902,211.086 L420.864902,211.176 L420.654902,353.989 L445.089902,378.501 L445.004902,435.561 Z M457.279802,368.688 C458.903802,369.141 460.095802,370.612 460.093802,372.376 C460.089802,374.505 458.372802,376.217 456.242802,376.218 C454.121802,376.216 452.400802,374.496 452.402802,372.369 C452.410802,370.598 453.613802,369.131 455.237802,368.683 L455.334802,299.534 L430.899802,275.022 L431.044802,176.087 L452.555802,176.117 L452.813802,1.251 L454.853802,1.253 L454.592802,178.167 L433.084802,178.135 L432.945802,274.179 L457.380802,298.691 L457.279802,368.688 Z M465.642602,351.5664 C467.261602,352.0144 468.461602,353.4934 468.458602,355.2634 C468.456602,357.3854 466.731602,359.1004 464.607602,359.0954 C462.485602,359.0934 460.770602,357.3734 460.772602,355.2514 C460.774602,353.4814 461.969602,352.0054 463.598602,351.5634 L463.681602,295.3494 L439.243602,270.8404 L439.371602,184.3664 L460.879602,184.3984 L461.155602,-2.9296 L463.201602,-2.9276 L462.922602,186.4434 L441.412602,186.4134 L441.287602,269.9944 L465.724602,294.5094 L465.642602,351.5664 Z M474.950702,348.1733 C476.574702,348.6273 477.774702,350.1003 477.769702,351.8673 C477.767702,353.9893 476.039702,355.7073 473.923702,355.7053 C471.798702,355.7003 470.077702,353.9803 470.083702,351.8563 C470.085702,350.0903 471.285702,348.6153 472.908702,348.1733 L472.992702,291.9543 L448.554702,267.4443 L448.662702,194.0043 L470.171702,194.0363 L470.465702,-6.3297 L472.513702,-6.3247 L472.213702,196.0823 L450.703702,196.0513 L450.602702,266.6043 L475.037702,291.1103 L474.950702,348.1733 Z M369.359802,178.3813 C367.232802,178.3793 365.514802,176.6503 365.517802,174.5283 C365.519802,172.4063 367.247802,170.6893 369.369802,170.6913 C371.139802,170.6943 372.609802,171.8943 373.054802,173.5203 L391.315802,173.5473 L391.366802,140.9833 L366.929802,116.4713 L367.076802,17.5353 L388.584802,17.5683 L388.842802,-157.3037 L390.886802,-157.2997 L390.625802,19.6153 L369.115802,19.5843 L368.973802,115.6263 L393.413802,140.1383 L393.361802,175.5943 L373.051802,175.5643 C372.600802,177.1853 371.124802,178.3833 369.359802,178.3813 Z M375.268502,112.29 L375.395502,25.816 L396.909502,25.849 L397.185502,-161.484 L399.229502,-161.481 L398.952502,27.894 L377.443502,27.863 L377.320502,111.447 L401.755502,135.954 L401.681502,187.458 L388.030502,187.437 C387.577502,189.061 386.101502,190.258 384.336502,190.256 C382.214502,190.254 380.491502,188.525 380.493502,186.404 C380.498502,184.28 382.227502,182.562 384.346502,182.566 C386.116502,182.569 387.586502,183.769 388.034502,185.393 L399.640502,185.411 L399.710502,136.801 L375.268502,112.29 Z M384.584002,108.8901 L384.692002,35.4501 L406.201002,35.4811 L406.496002,-164.8799 L408.540002,-164.8759 L408.243002,37.5341 L386.730002,37.5001 L386.629002,108.0531 L411.069002,132.5611 L410.974002,197.6051 C412.595002,198.0561 413.793002,199.5261 413.788002,201.2931 C413.786002,203.4211 412.063002,205.1391 409.938002,205.1341 C407.813002,205.1341 406.093002,203.4081 406.096002,201.2811 C406.097002,199.5221 407.300002,198.0491 408.924002,197.6011 L409.019002,133.4021 L384.584002,108.8901 Z M396.845702,90.9482 L396.912702,46.2132 L418.420702,46.2452 L418.678702,-128.6258 L420.723702,-128.6258 L420.464702,48.2902 L398.955702,48.2592 L398.891702,90.9502 C400.515702,91.4042 401.711702,92.8762 401.708702,94.6422 C401.704702,96.7642 399.977702,98.4862 397.861702,98.4852 C395.734702,98.4822 394.016702,96.7542 394.019702,94.6312 C394.022702,92.8662 395.220702,91.3972 396.845702,90.9482 Z M405.164002,103.7417 L405.239002,54.4927 L426.748002,54.5237 L427.025002,-132.8043 L429.069002,-132.8003 L428.789002,56.5707 L407.280002,56.5387 L407.211002,103.7477 C408.832002,104.1987 410.029002,105.6707 410.028002,107.4397 C410.024002,109.5627 408.300002,111.2817 406.174002,111.2777 C404.054002,111.2747 402.333002,109.5487 402.337002,107.4257 C402.340002,105.6597 403.541002,104.1897 405.164002,103.7417 Z M414.456002,112.96 L414.527002,64.129 L436.039002,64.162 L436.335002,-136.205 L438.382002,-136.205 L438.084002,66.212 L416.570002,66.179 L416.501002,112.962 C418.123002,113.413 419.324002,114.891 419.323002,116.659 C419.320002,118.782 417.593002,120.499 415.469002,120.494 C413.347002,120.492 411.626002,118.771 411.630002,116.648 C411.631002,114.879 412.831002,113.41 414.456002,112.96 Z M424.269002,166.0185 L424.381002,89.8305 L445.890002,89.8635 L446.140002,-80.8035 L448.186002,-80.8035 L447.932002,91.9095 L426.423002,91.8775 L426.317002,163.9725 L445.780002,164.0015 L445.864002,107.7565 L437.746002,107.7435 L437.698002,140.0945 C439.321002,140.5495 440.519002,142.0235 440.515002,143.7865 C440.514002,145.9115 438.787002,147.6275 436.665002,147.6255 C434.544002,147.6235 432.823002,145.8985 432.827002,143.7745 C432.831002,142.0095 434.031002,140.5395 435.657002,140.0935 L435.707002,105.6985 L447.911002,105.7155 L447.823002,166.0525 L424.269002,166.0185 Z M344.829102,435.7993 C346.456102,436.2563 347.648102,437.7263 347.645102,439.5023 C347.641102,441.6263 345.917102,443.3443 343.793102,443.3393 C341.672102,443.3373 339.951102,441.6163 339.953102,439.4893 C339.958102,437.7163 341.162102,436.2503 342.782102,435.7983 L342.865102,379.5903 L318.430102,355.0783 L318.536102,281.6353 L340.044102,281.6673 L340.513102,-36.0757 L342.558102,-36.0737 L342.085102,283.7203 L320.582102,283.6833 L320.476102,354.2353 L344.908102,378.7443 L344.829102,435.7993 Z M297.578102,252.7148 C299.196102,253.1738 300.393102,254.6498 300.389102,256.4118 C300.384102,258.5358 298.663102,260.2568 296.542102,260.2548 C294.418102,260.2498 292.700102,258.5208 292.699102,256.4028 C292.702102,254.6378 293.902102,253.1678 295.531102,252.7138 L295.675102,152.5468 L271.240102,128.0348 L271.388102,29.1028 L292.897102,29.1338 L293.157102,-145.7392 L295.197102,-145.7372 L294.936102,31.1828 L273.428102,31.1508 L273.286102,127.1918 L297.726102,151.7048 L297.578102,252.7148 Z M301.075202,233.9126 C301.077202,232.1476 302.278202,230.6776 303.898202,230.2266 L304.022202,148.3626 L279.584202,123.8526 L279.711202,37.3796 L301.220202,37.4116 L301.496202,-149.9164 L303.542202,-149.9144 L303.262202,39.4576 L281.751202,39.4276 L281.630202,123.0106 L306.065202,147.5226 L305.945202,230.2276 C307.569202,230.6816 308.766202,232.1576 308.767202,233.9246 C308.762202,236.0496 307.031202,237.7696 304.909202,237.7666 C302.787202,237.7656 301.070202,236.0366 301.075202,233.9126 Z M288.897402,120.46 L289.003402,47.017 L310.512402,47.049 L310.808402,-153.314 L312.854402,-153.311 L312.555402,49.099 L291.043402,49.07 L290.938402,119.611 L315.378402,144.124 L315.282402,210.475 C316.901402,210.928 318.101402,212.402 318.096402,214.169 C318.096402,216.29 316.367402,218.013 314.243402,218.007 C312.124402,218.008 310.406402,216.28 310.402402,214.158 C310.411402,212.388 311.611402,210.918 313.237402,210.473 L313.332402,144.967 L288.897402,120.46 Z M569.702602,429.21 C571.328602,429.667 572.521602,431.137 572.519602,432.901 C572.514602,435.026 570.793602,436.752 568.672602,436.75 C566.542602,436.745 564.827602,435.014 564.829602,432.892 C564.834602,431.125 566.032602,429.652 567.658602,429.207 L567.762602,360.062 L543.327602,335.55 L543.470602,236.607 L564.977602,236.64 L565.314602,9.021 L567.360602,9.023 L567.018602,238.692 L545.512602,238.659 L545.370602,334.71 L569.806602,359.216 L569.702602,429.21 Z M578.067902,412.0918 C579.688902,412.5428 580.883902,414.0158 580.884902,415.7828 C580.879902,417.9078 579.150902,419.6248 577.032902,419.6208 C574.910902,419.6188 573.189902,417.8978 573.192902,415.7708 C573.194902,414.0068 574.400902,412.5368 576.020902,412.0908 L576.103902,355.8778 L551.666902,331.3678 L551.794902,244.8928 L573.302902,244.9248 L573.656902,4.8408 L575.702902,4.8428 L575.343902,246.9668 L553.835902,246.9348 L553.712902,330.5198 L578.149902,355.0348 L578.067902,412.0918 Z M587.373002,408.6958 C589.000002,409.1468 590.197002,410.6288 590.195002,412.3928 C590.190002,414.5168 588.465002,416.2328 586.343002,416.2298 C584.221002,416.2278 582.503002,414.5058 582.503002,412.3808 C582.508002,410.6128 583.708002,409.1428 585.334002,408.6928 L585.415002,352.4818 L560.977002,327.9718 L561.084002,254.5278 L582.593002,254.5598 L582.966002,1.4418 L585.014002,1.4468 L584.638002,256.6088 L563.129002,256.5768 L563.023002,327.1238 L587.457002,351.6368 L587.373002,408.6958 Z M503.741202,234.0718 L503.790202,201.5088 L479.352202,176.9998 L479.497202,78.0588 L501.007202,78.0898 L501.266202,-96.7772 L503.312202,-96.7742 L503.052202,80.1388 L481.538202,80.1068 L481.397202,176.1528 L505.834202,200.6628 L505.782202,236.1198 L466.637202,236.0618 C466.184202,237.6858 464.705202,238.8808 462.940202,238.8788 C460.816202,238.8728 459.095202,237.1528 459.100202,235.0288 C459.105202,232.9048 460.825202,231.1838 462.951202,231.1878 C464.720202,231.1908 466.192202,232.3948 466.641202,234.0178 L503.741202,234.0718 Z M489.865702,88.3906 L489.740702,171.9706 L514.178702,196.4806 L514.106702,247.9836 L481.611702,247.9336 C481.163702,249.5586 479.687702,250.7556 477.916702,250.7536 C475.795702,250.7506 474.080702,249.0256 474.082702,246.9046 C474.085702,244.7776 475.806702,243.0606 477.930702,243.0656 C479.696702,243.0656 481.168702,244.2656 481.614702,245.8896 L512.061702,245.9346 L512.132702,197.3236 L487.695702,172.8136 L487.822702,86.3396 L509.330702,86.3716 L509.606702,-100.9604 L511.656702,-100.9564 L511.377702,88.4196 L489.865702,88.3906 Z M523.360802,283.3794 C524.981802,283.8304 526.175802,285.3044 526.174802,287.0684 C526.169802,289.1924 524.449802,290.9134 522.323802,290.9094 C520.199802,290.9044 518.481802,289.1814 518.484802,287.0544 C518.485802,285.2894 519.689802,283.8224 521.312802,283.3744 L521.443802,193.9274 L497.009802,169.4194 L497.117802,95.9744 L518.626802,96.0064 L518.922802,-104.3556 L520.962802,-104.3536 L520.663802,98.0574 L499.157802,98.0274 L499.051802,168.5754 L523.489802,193.0844 L523.360802,283.3794 Z M509.271502,151.4731 L509.336502,106.7401 L530.844502,106.7721 L531.102502,-68.0989 L533.152502,-68.0959 L532.891502,108.8201 L511.378502,108.7861 L511.315502,151.4771 C512.938502,151.9261 514.135502,153.4021 514.132502,155.1681 C514.128502,157.2911 512.407502,159.0131 510.282502,159.0081 C508.156502,159.0041 506.443502,157.2781 506.445502,155.1561 C506.450502,153.3891 507.646502,151.9231 509.271502,151.4731 Z M517.588402,164.2681 L517.661402,115.0151 L539.170402,115.0471 L539.445402,-72.2799 L541.489402,-72.2759 L541.209402,117.0961 L519.700402,117.0641 L519.632402,164.2711 C521.255402,164.7211 522.453402,166.1971 522.449402,167.9631 C522.446402,170.0901 520.724402,171.8081 518.598402,171.8041 C516.475402,171.7981 514.756402,170.0761 514.760402,167.9521 C514.764402,166.1861 515.962402,164.7131 517.588402,164.2681 Z M528.924302,173.4897 C530.549302,173.9417 531.746302,175.4137 531.743302,177.1837 C531.741302,179.3057 530.017302,181.0197 527.890302,181.0167 C525.770302,181.0137 524.053302,179.2947 524.055302,177.1737 C524.057302,175.4027 525.258302,173.9337 526.881302,173.4847 L526.953302,124.6527 L548.466302,124.6857 L548.761302,-75.6753 L550.807302,-75.6753 L550.508302,126.7327 L528.992302,126.7017 L528.924302,173.4897 Z M560.334002,166.2383 L560.248002,226.5783 L536.695002,226.5433 L536.807002,150.3563 L558.315002,150.3883 L558.565002,-20.2787 L560.609002,-20.2747 L560.355002,152.4363 L538.850002,152.4063 L538.741002,224.4993 L558.204002,224.5293 L558.288002,168.2833 L550.169002,168.2703 L550.124002,200.6193 C551.746002,201.0743 552.944002,202.5503 552.939002,204.3123 C552.936002,206.4353 551.209002,208.1553 549.085002,208.1513 C546.968002,208.1503 545.248002,206.4243 545.247002,204.3003 C545.252002,202.5323 546.452002,201.0633 548.078002,200.6173 L548.126002,166.2193 L560.334002,166.2383 Z M758.751402,513.7559 C760.374402,514.2019 761.571402,515.6729 761.569402,517.4459 C761.565402,519.5709 759.841402,521.2879 757.719402,521.2859 C755.594402,521.2819 753.875402,519.5609 753.876402,517.4359 C753.880402,515.6619 755.081402,514.2029 756.707402,513.7529 L756.810402,444.6039 L732.369402,420.0939 L732.569402,283.6589 L671.779402,283.5709 L671.915402,-16.7111 L673.959402,-16.7071 L673.822402,281.5289 L734.624402,281.6169 L734.420402,419.2509 L758.853402,443.7629 L758.751402,513.7559 Z M767.116702,496.6348 C768.736702,497.0898 769.929702,498.5608 769.927702,500.3338 C769.924702,502.4518 768.206702,504.1758 766.076702,504.1728 C763.959702,504.1698 762.236702,502.4408 762.239702,500.3228 C762.241702,498.5508 763.443702,497.0818 765.072702,496.6318 L765.155702,440.4208 L740.710702,415.9088 L740.919702,274.2938 L680.127702,274.2078 L680.250702,-16.6982 L682.294702,-16.6952 L682.172702,272.1638 L742.970702,272.2548 L742.759702,415.0698 L767.198702,439.5798 L767.116702,496.6348 Z M691.467302,239.459 C689.337302,239.453 687.619302,237.73 687.622302,235.609 C687.625302,233.486 689.349302,231.767 691.478302,231.768 C693.245302,231.773 694.715302,232.973 695.162302,234.598 L713.423302,234.625 L713.471302,202.058 L689.039302,177.548 L689.185302,78.612 L710.688302,78.644 L710.947302,-96.223 L712.993302,-96.221 L712.732302,80.689 L691.223302,80.657 L691.082302,176.703 L715.520302,201.218 L715.468302,236.674 L695.158302,236.642 C694.706302,238.265 693.232302,239.461 691.467302,239.459 Z M697.381802,173.3677 L697.508802,86.8887 L719.017802,86.9207 L719.291802,-100.4043 L721.334802,-100.4013 L721.057802,88.9737 L699.548802,88.9417 L699.424802,172.5217 L723.862802,197.0317 L723.785802,248.5387 L710.134802,248.5167 C709.684802,250.1387 708.211802,251.3337 706.445802,251.3327 C704.319802,251.3287 702.601802,249.6067 702.602802,247.4797 C702.606802,245.3577 704.331802,243.6427 706.457802,243.6457 C708.222802,243.6487 709.693802,244.8467 710.139802,246.4677 L721.739802,246.4857 L721.813802,197.8767 L697.381802,173.3677 Z M706.687002,169.9717 L706.794002,96.5277 L728.312002,96.5607 L728.606002,-103.8043 L730.645002,-103.8013 L730.347002,98.6087 L708.839002,98.5757 L708.736002,169.1267 L733.172002,193.6367 L733.077002,258.6807 C734.701002,259.1347 735.893002,260.6107 735.891002,262.3747 C735.886002,264.4937 734.168002,266.2127 732.045002,266.2117 C729.924002,266.2087 728.201002,264.4857 728.203002,262.3647 C728.207002,260.5977 729.408002,259.1267 731.029002,258.6767 L731.124002,194.4827 L706.687002,169.9717 Z M718.953602,152.0259 L719.015602,107.2899 L740.528602,107.3229 L740.786602,-67.5481 L742.829602,-67.5441 L742.570602,109.3699 L721.061602,109.3379 L720.998602,152.0279 C722.622602,152.4819 723.813602,153.9529 723.812602,155.7219 C723.811602,157.8479 722.084602,159.5649 719.965602,159.5609 C717.839602,159.5579 716.124602,157.8359 716.124602,155.7119 C716.129602,153.9439 717.329602,152.4749 718.953602,152.0259 Z M727.271902,164.8193 L727.345902,115.5703 L748.854902,115.6023 L749.129902,-71.7297 L751.175902,-71.7297 L750.897902,117.6473 L729.383902,117.6153 L729.313902,164.8243 C730.938902,165.2773 732.135902,166.7483 732.133902,168.5183 C732.129902,170.6413 730.399902,172.3603 728.282902,172.3603 C726.158902,172.3553 724.439902,170.6313 724.443902,168.5083 C724.443902,166.7363 725.646902,165.2693 727.271902,164.8193 Z M736.564902,174.0366 L736.635902,125.2046 L758.142902,125.2386 L758.437902,-75.1234 L760.484902,-75.1234 L760.187902,127.2876 L738.674902,127.2536 L738.604902,174.0376 C740.229902,174.4906 741.427902,175.9666 741.423902,177.7326 C741.422902,179.8586 739.700902,181.5766 737.574902,181.5726 C735.448902,181.5686 733.730902,179.8466 733.734902,177.7236 C733.736902,175.9586 734.942902,174.4896 736.564902,174.0366 Z M746.371502,227.0957 L746.484502,150.9077 L767.996502,150.9367 L768.246502,-19.7253 L770.295502,-19.7203 L770.040502,152.9857 L748.532502,152.9537 L748.427502,225.0527 L767.886502,225.0807 L767.969502,168.8357 L759.855502,168.8237 L759.809502,201.1737 C761.425502,201.6247 762.622502,203.0997 762.619502,204.8667 C762.615502,206.9897 760.895502,208.7047 758.772502,208.7037 C756.647502,208.6997 754.929502,206.9767 754.931502,204.8557 C754.934502,203.0857 756.137502,201.6127 757.761502,201.1687 L757.812502,166.7737 L770.019502,166.7927 L769.931502,227.1307 L746.371502,227.0957 Z M666.937002,496.877 C668.557002,497.332 669.751002,498.805 669.750002,500.57 C669.747002,502.702 668.027002,504.418 665.899002,504.416 C663.777002,504.412 662.060002,502.69 662.062002,500.558 C662.065002,498.793 663.267002,497.324 664.888002,496.875 L664.971002,440.664 L640.534002,416.155 L640.641002,342.71 L662.149002,342.742 L662.377002,-16.722 L664.424002,-16.721 L664.195002,344.79 L642.684002,344.761 L642.580002,415.312 L667.020002,439.824 L666.937002,496.877 Z M619.679702,313.7925 C621.304702,314.2445 622.502702,315.7215 622.497702,317.4875 C622.495702,319.6095 620.772702,321.3275 618.647702,321.3245 C616.521702,321.3205 614.805702,319.6005 614.808702,317.4785 C614.811702,315.7125 616.009702,314.2395 617.634702,313.7905 L617.783702,213.6235 L593.346702,189.1135 L593.493702,90.1765 L615.003702,90.2075 L615.260702,-84.6625 L617.304702,-84.6595 L617.043702,92.2605 L595.535702,92.2285 L595.391702,188.2715 L619.830702,212.7795 L619.679702,313.7925 Z M623.177202,294.9902 C623.180202,293.2232 624.384202,291.7572 626.003202,291.3072 L626.124202,209.4402 L601.690202,184.9322 L601.816202,98.4542 L623.326202,98.4852 L623.602202,-88.8428 L625.647202,-88.8398 L625.369202,100.5352 L603.861202,100.5032 L603.736202,184.0892 L628.174202,208.5992 L628.052202,291.3112 C629.676202,291.7642 630.868202,293.2352 630.865202,295.0012 C630.863202,297.1282 629.140202,298.8462 627.014202,298.8422 C624.898202,298.8402 623.175202,297.1172 623.177202,294.9902 Z M610.999502,181.5322 L611.112502,108.0932 L632.618502,108.1222 L632.912502,-92.2378 L634.961502,-92.2338 L634.660502,110.1692 L613.154502,110.1402 L613.049502,180.6912 L637.482502,205.2042 L637.384502,271.5532 C639.008502,272.0062 640.203502,273.4792 640.203502,275.2422 C640.199502,277.3712 638.476502,279.0892 636.350502,279.0852 C634.225502,279.0812 632.506502,277.3592 632.513502,275.2332 C632.515502,273.4682 633.714502,271.9942 635.343502,271.5522 L635.438502,206.0462 L610.999502,181.5322 Z M940.267502,345.5606 C941.892502,346.0116 943.089502,347.4846 943.087502,349.2546 C943.083502,351.3726 941.363502,353.0966 939.237502,353.0926 C937.116502,353.0906 935.392502,351.3616 935.396502,349.2446 C935.398502,347.4746 936.599502,346.0036 938.225502,345.5566 L938.326502,276.4116 L913.886502,251.8956 L914.089502,115.4646 L853.297502,115.3726 L853.680502,-143.1784 L855.719502,-143.1774 L855.339502,113.3316 L916.138502,113.4226 L915.934502,251.0566 L940.371502,275.5616 L940.267502,345.5606 Z M948.625002,328.4395 C950.253002,328.8925 951.447002,330.3695 951.444002,332.1335 C951.441002,334.2565 949.724002,335.9755 947.595002,335.9735 C945.474002,335.9685 943.757002,334.2445 943.761002,332.1255 C943.763002,330.3565 944.956002,328.8825 946.586002,328.4365 L946.669002,272.2255 L922.233002,247.7175 L922.442002,106.1005 L861.645002,106.0095 L862.011002,-143.1675 L864.057002,-143.1655 L863.693002,103.9685 L924.488002,104.0575 L924.276002,246.8715 L948.710002,271.3855 L948.625002,328.4395 Z M1013.8999,261.5679 C1015.5239,262.0219 1016.7159,263.4949 1016.7139,265.2589 C1016.7099,267.3849 1014.9899,269.1029 1012.8599,269.1009 C1010.7399,269.0969 1009.0239,267.3729 1009.0259,265.2489 C1009.0289,263.4799 1010.2269,262.0129 1011.8519,261.5659 L1011.9549,192.4149 L987.518902,167.9029 L987.664902,68.9669 L1009.1739,68.9979 L1009.4339,-105.8691 L1011.4719,-105.8661 L1011.2119,71.0479 L989.703902,71.0159 L989.562902,167.0619 L1014.0029,191.5739 L1013.8999,261.5679 Z M1022.2568,244.4468 C1023.8848,244.8988 1025.0778,246.3718 1025.0768,248.1438 C1025.0718,250.2648 1023.3468,251.9848 1021.2298,251.9808 C1019.1058,251.9788 1017.3848,250.2528 1017.3878,248.1328 C1017.3908,246.3598 1018.5928,244.8918 1020.2188,244.4438 L1020.3008,188.2358 L995.857802,163.7198 L995.986802,77.2448 L1017.4938,77.2788 L1017.7728,-110.0472 L1019.8188,-110.0442 L1019.5398,79.3258 L998.030802,79.2948 L997.909802,162.8778 L1022.3428,187.3908 L1022.2568,244.4468 Z M1031.5703,241.0537 C1033.1943,241.5077 1034.3903,242.9817 1034.3883,244.7467 C1034.3863,246.8707 1032.6603,248.5887 1030.5403,248.5857 C1028.4173,248.5817 1026.6943,246.8587 1026.6973,244.7357 C1026.7003,242.9707 1027.9023,241.4967 1029.5263,241.0497 L1029.6113,184.8357 L1005.1673,160.3257 L1005.2803,86.8867 L1026.7903,86.9177 L1027.0853,-113.4443 L1029.1323,-113.4433 L1028.8353,88.9667 L1007.3223,88.9327 L1007.2173,159.4847 L1031.6553,183.9937 L1031.5703,241.0537 Z M872.981402,71.2642 C870.861402,71.2602 869.136402,69.5332 869.138402,67.4112 C869.142402,65.2882 870.870402,63.5712 872.992402,63.5732 C874.761402,63.5772 876.232402,64.7762 876.679402,66.4002 L894.940402,66.4272 L894.989402,33.8642 L870.553402,9.3532 L870.699402,-89.5828 L892.206402,-89.5488 L892.464402,-264.4208 L894.511402,-264.4198 L894.252402,-87.5018 L872.738402,-87.5338 L872.596402,8.5072 L897.039402,33.0232 L896.984402,68.4762 L876.678402,68.4472 C876.222402,70.0682 874.751402,71.2662 872.981402,71.2642 Z M878.893002,5.1699 L879.021002,-81.3051 L900.528002,-81.2721 L900.807002,-268.6011 L902.853002,-268.6001 L902.575002,-79.2241 L881.066002,-79.2561 L880.944002,4.3279 L905.381002,28.8379 L905.304002,80.3399 L891.654002,80.3179 C891.200002,81.9419 889.726002,83.1389 887.959002,83.1379 C885.837002,83.1319 884.120002,81.4069 884.122002,79.2859 C884.126002,77.1629 885.850002,75.4429 887.970002,75.4469 C889.735002,75.4489 891.213002,76.6529 891.660002,78.2769 L903.264002,78.2929 L903.335002,29.6809 L878.893002,5.1699 Z M888.208002,1.77 L888.318002,-71.666 L909.827002,-71.634 L910.121002,-272 L912.159002,-271.997 L911.860002,-69.585 L890.357002,-69.617 L890.254002,0.933 L914.693002,25.441 L914.596002,90.486 C916.218002,90.937 917.416002,92.412 917.413002,94.178 C917.410002,96.301 915.689002,98.022 913.560002,98.017 C911.438002,98.014 909.720002,96.291 909.721002,94.166 C909.723002,92.401 910.925002,90.93 912.551002,90.484 L912.643002,26.282 L888.208002,1.77 Z M898.914502,-1.6572 L899.025502,-61.8442 L920.538502,-61.8112 L920.790502,-232.4742 L922.836502,-232.4742 L922.583502,-59.7612 L901.068502,-59.7942 L900.964502,-3.7002 L920.429502,-3.6722 L920.512502,-43.9172 L912.396502,-43.9282 L912.347502,-27.5792 C913.968502,-27.1232 915.163502,-25.6502 915.161502,-23.8852 C915.158502,-21.7642 913.434502,-20.0452 911.312502,-20.0472 C909.189502,-20.0532 907.470502,-21.7742 907.474502,-23.8982 C907.476502,-25.6622 908.678502,-27.1342 910.298502,-27.5842 L910.350502,-45.9752 L922.560502,-45.9582 L922.474502,-1.6182 L898.914502,-1.6572 Z M832.170402,353.1314 C832.901402,353.2654 834.613402,355.4314 832.649402,357.2554 C832.418402,357.4714 831.335402,357.8754 830.819402,357.8704 C830.136402,357.8674 829.383402,357.4894 829.164402,357.2984 C826.843402,355.2134 828.838402,353.2834 829.857402,353.1274 L829.965402,279.9374 L805.530402,255.4304 L805.671402,159.2744 L824.351402,159.3024 L824.544402,29.3484 L804.754402,10.9124 L804.845402,-48.7706 L826.553402,-48.7386 L826.684402,-139.3766 C825.060402,-139.8306 823.864402,-141.3076 823.868402,-143.0736 C823.870402,-145.1956 825.597402,-146.9116 827.720402,-146.9106 C829.840402,-146.9076 831.562402,-145.1826 831.557402,-143.0646 C831.555402,-141.2946 830.356402,-139.8206 828.729402,-139.3736 L828.591402,-46.6946 L806.889402,-46.7256 L806.804402,10.0244 L826.591402,28.4634 L826.394402,161.3534 L807.714402,161.3244 L807.578402,254.5854 L832.015402,279.0954 L831.906402,353.0214 C831.906402,353.0214 832.085402,353.1154 832.170402,353.1314 Z M816.036102,170.8096 L815.914102,254.3926 L840.350102,278.9036 L840.256102,343.4986 L838.212102,343.4956 L838.307102,279.7496 L813.865102,255.2386 L813.991102,168.7606 L835.505102,168.7926 L835.718102,24.0726 L814.237102,2.3056 L814.300102,-38.7594 L835.846102,-38.7294 L836.045102,-173.0854 C834.419102,-173.5374 833.222102,-175.0134 833.224102,-176.7784 C833.229102,-178.9024 834.950102,-180.6234 837.075102,-180.6194 C839.201102,-180.6154 840.919102,-178.8934 840.918102,-176.7674 C840.915102,-175.0024 839.710102,-173.5324 838.087102,-173.0854 L837.888102,-36.6774 L816.345102,-36.7104 L816.287102,1.4746 L837.764102,23.2346 L837.544102,170.8416 L816.036102,170.8096 Z M848.453102,328.6851 C850.073102,329.1371 851.269102,330.6121 851.268102,332.3781 C851.265102,334.5031 849.542102,336.2191 847.415102,336.2161 C845.292102,336.2131 843.573102,334.4911 843.577102,332.3651 C843.578102,330.6011 844.780102,329.1291 846.405102,328.6831 L846.489102,272.4711 L822.051102,247.9611 L822.161102,174.5151 L843.669102,174.5471 L844.136102,-143.1939 L846.182102,-143.1929 L845.712102,176.5981 L824.203102,176.5661 L824.100102,247.1161 L848.536102,271.6261 L848.453102,328.6851 Z M801.199202,145.5976 C802.820202,146.0546 804.012202,147.5296 804.009202,149.2956 C804.007202,151.4176 802.288202,153.1366 800.163202,153.1316 C798.043202,153.1286 796.320202,151.4056 796.322202,149.2836 C796.325202,147.5176 797.527202,146.0466 799.154202,145.5956 L799.299202,45.4276 L794.637202,40.7516 L794.320202,257.1606 L772.807202,257.1276 L772.705202,327.6816 L797.140202,352.1886 L797.057202,409.2506 C798.685202,409.6996 799.878202,411.1766 799.874202,412.9426 C799.872202,415.0666 798.148202,416.7836 796.026202,416.7816 C793.905202,416.7766 792.181202,415.0556 792.183202,412.9316 C792.187202,411.1656 793.387202,409.6986 795.013202,409.2476 L795.098202,353.0386 L770.659202,328.5246 L770.769202,255.0776 L792.275202,255.1066 L792.595202,38.7046 L785.346202,31.4316 L785.026202,247.5246 L763.520202,247.4906 L763.400202,331.0726 L787.830202,355.5886 L787.747202,412.6446 C789.371202,413.0976 790.565202,414.5696 790.561202,416.3356 C790.559202,418.4596 788.833202,420.1836 786.717202,420.1816 C784.591202,420.1776 782.875202,418.4486 782.877202,416.3236 C782.881202,414.5576 784.078202,413.0906 785.707202,412.6396 L785.791202,356.4306 L761.347202,331.9166 L761.474202,245.4426 L782.984202,245.4726 L783.305202,29.3806 L777.020202,23.0796 L776.703202,239.2476 L755.190202,239.2146 L755.046202,335.2576 L779.488202,359.7636 L779.386202,429.7616 C781.007202,430.2176 782.207202,431.6886 782.204202,433.4536 C782.202202,435.5786 780.476202,437.3026 778.351202,437.2996 C776.226202,437.2956 774.511202,435.5676 774.513202,433.4436 C774.515202,431.6756 775.714202,430.2096 777.338202,429.7586 L777.440202,360.6136 L753.007202,336.0996 L753.155202,237.1616 L774.662202,237.1956 L774.980202,21.0326 L774.863202,20.9166 L775.008202,-78.0184 L796.516202,-77.9864 L796.774202,-252.8574 L798.824202,-252.8534 L798.561202,-75.9374 L777.051202,-75.9674 L776.907202,20.0746 L801.349202,44.5856 L801.199202,145.5976 Z M804.696702,126.7954 C804.698702,125.0304 805.900702,123.5594 807.521702,123.1084 L807.640702,41.2424 L783.205702,16.7354 L783.331702,-69.7416 L804.840702,-69.7096 L805.116702,-257.0376 L807.164702,-257.0326 L806.884702,-67.6606 L785.374702,-67.6916 L785.250702,15.8934 L809.690702,40.4014 L809.570702,123.1114 C811.187702,123.5614 812.390702,125.0434 812.388702,126.8074 C812.383702,128.9324 810.658702,130.6514 808.537702,130.6494 C806.411702,130.6454 804.694702,128.9224 804.696702,126.7954 Z M792.520502,13.3413 L792.627502,-60.1027 L814.134502,-60.0697 L814.431502,-260.4327 L816.477502,-260.4297 L816.179502,-58.0207 L794.669502,-58.0517 L794.564502,12.4943 L818.999502,37.0063 L818.904502,103.3583 C820.522502,103.8113 821.724502,105.2833 821.721502,107.0493 C821.719502,109.1743 819.990502,110.8943 817.865502,110.8893 C815.748502,110.8883 814.027502,109.1623 814.028502,107.0373 C814.032502,105.2713 815.232502,103.8003 816.860502,103.3543 L816.956502,37.8523 L792.520502,13.3413 Z M1061.0454,97.5127 L1061.0944,64.9497 L1036.6604,40.4377 L1036.8074,-58.4993 L1058.3104,-58.4673 L1058.5694,-233.3343 L1060.6184,-233.3353 L1060.3584,-56.4213 L1038.8444,-56.4533 L1038.7034,39.5917 L1063.1394,64.1027 L1063.0904,99.5617 L1023.9414,99.5027 C1023.4874,101.1267 1022.0084,102.3227 1020.2444,102.3197 C1018.1214,102.3187 1016.4054,100.5947 1016.4074,98.4677 C1016.4094,96.3457 1018.1324,94.6277 1020.2584,94.6317 C1022.0234,94.6337 1023.4974,95.8357 1023.9424,97.4557 L1061.0454,97.5127 Z M1047.1713,-48.1699 L1047.0483,35.4141 L1071.4873,59.9231 L1071.4103,111.4241 L1038.9203,111.3761 C1038.4633,112.9971 1036.9873,114.1951 1035.2233,114.1931 C1033.0973,114.1891 1031.3813,112.4641 1031.3843,110.3421 C1031.3883,108.2191 1033.1093,106.5031 1035.2343,106.5061 C1036.9993,106.5081 1038.4713,107.7071 1038.9233,109.3321 L1069.3643,109.3761 L1069.4363,60.7661 L1045.0043,36.2561 L1045.1293,-50.2219 L1066.6353,-50.1869 L1066.9093,-237.5179 L1068.9563,-237.5179 L1068.6783,-48.1369 L1047.1713,-48.1699 Z M1127.7807,293.3125 C1129.4017,293.7625 1130.5947,295.2375 1130.5917,297.0005 C1130.5897,299.1275 1128.8677,300.8445 1126.7437,300.8425 C1124.6177,300.8385 1122.9017,299.1175 1122.9057,296.9885 C1122.9067,295.2235 1124.1047,293.7505 1125.7307,293.3085 L1125.8317,224.1565 L1111.7667,210.0415 L1111.6797,269.9845 C1113.2997,270.4365 1114.4967,271.9125 1114.4947,273.6775 C1114.4907,275.7995 1112.7697,277.5195 1110.6407,277.5155 C1108.5177,277.5125 1106.8027,275.7895 1106.8067,273.6665 C1106.8087,271.8985 1108.0027,270.4275 1109.6327,269.9805 L1109.7227,207.9945 L1103.4397,201.6925 L1103.3857,237.7555 C1105.0107,238.2085 1106.2087,239.6795 1106.2047,241.4485 C1106.2027,243.5705 1104.4727,245.2895 1102.3527,245.2855 C1100.2347,245.2825 1098.5097,243.5585 1098.5137,241.4375 C1098.5157,239.6695 1099.7187,238.1985 1101.3437,237.7505 L1101.4007,199.6435 L1101.4407,171.8315 L1101.5457,100.7085 L1123.0537,100.7405 L1123.3097,-74.1285 L1125.3527,-74.1245 L1125.0927,102.7895 L1103.5857,102.7595 L1103.4827,171.8345 L1103.4437,198.8065 L1127.8837,223.3155 L1127.7807,293.3125 Z M1136.1391,276.1895 C1137.7591,276.6445 1138.9591,278.1175 1138.9571,279.8825 C1138.9531,282.0085 1137.2291,283.7245 1135.1041,283.7205 C1132.9831,283.7175 1131.2631,281.9975 1131.2661,279.8715 C1131.2681,278.1065 1132.4701,276.6355 1134.0951,276.1865 L1134.1791,219.9745 L1109.7421,195.4645 L1109.8681,108.9905 L1131.3771,109.0225 L1131.6551,-78.3065 L1133.6951,-78.3045 L1133.4161,111.0685 L1111.9131,111.0375 L1111.7901,194.6195 L1136.2221,219.1305 L1136.1391,276.1895 Z M1119.0522,192.0688 L1119.1592,118.6268 L1140.6682,118.6588 L1140.9632,-81.7052 L1143.0142,-81.7032 L1142.7162,120.7078 L1121.2042,120.6758 L1121.0992,191.2248 L1145.5312,215.7338 L1145.4482,272.7918 C1147.0722,273.2458 1148.2742,274.7228 1148.2702,276.4888 C1148.2672,278.6118 1146.5382,280.3328 1144.4172,280.3278 C1142.2952,280.3258 1140.5722,278.5998 1140.5752,276.4768 C1140.5772,274.7128 1141.7792,273.2408 1143.4082,272.7898 L1143.4912,216.5798 L1119.0522,192.0688 Z M1081.4335,147.4761 C1083.0575,147.9301 1084.2505,149.4011 1084.2485,151.1661 C1084.2455,153.2911 1082.5195,155.0101 1080.3995,155.0061 C1078.2735,155.0021 1076.5535,153.2791 1076.5575,151.1531 C1076.5605,149.3881 1077.7645,147.9191 1079.3825,147.4741 L1079.5145,58.0241 L1055.0815,33.5141 L1055.1895,-39.9259 L1076.7025,-39.8929 L1076.9965,-240.2579 L1079.0355,-240.2549 L1078.7375,-37.8449 L1057.2345,-37.8769 L1057.1305,32.6741 L1081.5675,57.1841 L1081.4335,147.4761 Z M1067.3427,15.5684 L1067.4087,-29.1606 L1088.9227,-29.1286 L1089.1807,-203.9996 L1091.2207,-203.9996 L1090.9607,-27.0836 L1069.4517,-27.1156 L1069.3907,15.5734 C1071.0137,16.0224 1072.2067,17.4974 1072.2047,19.2674 C1072.1997,21.3864 1070.4777,23.1084 1068.3607,23.1084 C1066.2297,23.1044 1064.5197,21.3784 1064.5217,19.2564 C1064.5247,17.4864 1065.7217,16.0194 1067.3427,15.5684 Z M1075.6606,28.3672 L1075.7336,-20.8858 L1097.2466,-20.8518 L1097.5206,-208.1828 L1099.5656,-208.1828 L1099.2886,-18.8058 L1077.7756,-18.8398 L1077.7056,28.3692 C1079.3316,28.8212 1080.5276,30.2932 1080.5256,32.0642 C1080.5216,34.1862 1078.7966,35.9022 1076.6736,35.9012 C1074.5476,35.8972 1072.8326,34.1772 1072.8326,32.0512 C1072.8356,30.2812 1074.0386,28.8142 1075.6606,28.3672 Z M1086.9965,37.5835 C1088.6215,38.0355 1089.8195,39.5115 1089.8175,41.2825 C1089.8135,43.4045 1088.0935,45.1205 1085.9635,45.1155 C1083.8425,45.1125 1082.1265,43.3925 1082.1305,41.2705 C1082.1315,39.5005 1083.3335,38.0295 1084.9605,37.5835 L1085.0315,-11.2485 L1106.5385,-11.2145 L1106.8325,-211.5805 L1108.8765,-211.5775 L1108.5795,-9.1675 L1087.0695,-9.1975 L1086.9965,37.5835 Z M1118.4121,30.3374 L1118.3231,90.6754 L1094.7661,90.6384 L1094.8781,14.4514 L1116.3911,14.4834 L1116.6441,-156.1806 L1118.6881,-156.1766 L1118.4321,16.5364 L1096.9231,16.5044 L1096.8191,88.5984 L1116.2841,88.6264 L1116.3641,32.3784 L1108.2431,32.3674 L1108.1951,64.7144 C1109.8171,65.1694 1111.0161,66.6444 1111.0141,68.4084 C1111.0111,70.5314 1109.2831,72.2544 1107.1621,72.2514 C1105.0391,72.2454 1103.3211,70.5224 1103.3251,68.3994 C1103.3281,66.6334 1104.5321,65.1604 1106.1491,64.7124 L1106.2011,30.3214 L1118.4121,30.3374 Z M336.638702,447.8814 C337.379702,448.0354 338.089702,448.3534 338.635702,448.9614 C339.985702,450.4674 339.859702,452.7844 338.349702,454.1374 C336.843702,455.4884 334.527702,455.3624 333.176702,453.8564 C331.822702,452.3464 331.949702,450.0294 333.455702,448.6794 C333.795702,448.3744 334.185702,448.1654 334.589702,448.0134 L334.678702,386.8674 L310.243702,362.3554 L310.373702,275.8794 L331.882702,275.9114 L332.091702,131.1894 L310.618702,109.4254 L310.679702,68.3584 L332.221702,68.3904 L332.418702,-65.9686 C330.795702,-66.4176 329.599702,-67.8946 329.602702,-69.6606 C329.603702,-71.7866 331.326702,-73.5046 333.451702,-73.5006 C335.573702,-73.4986 337.296702,-71.7746 337.290702,-69.6506 C337.288702,-67.8856 336.086702,-66.4136 334.463702,-65.9666 L334.262702,70.4384 L312.719702,70.4054 L312.663702,108.5934 L334.142702,130.3524 L333.919702,277.9624 L312.411702,277.9294 L312.289702,361.5134 L336.730702,386.0204 L336.638702,447.8814 Z M328.282202,461.0776 C328.877202,461.2676 329.448202,461.5586 329.897202,462.0586 C331.247202,463.5656 331.121202,465.8826 329.612202,467.2356 C328.105202,468.5866 325.789202,468.4606 324.438202,466.9536 C323.084202,465.4446 323.211202,463.1276 324.717202,461.7766 C325.165202,461.3756 325.692202,461.1436 326.236202,461.0026 L326.339202,387.0576 L301.907202,362.5486 L302.050202,266.3966 L320.728202,266.4216 L320.921202,136.4676 L301.135202,118.0346 L301.224202,58.3466 L322.927202,58.3776 L323.060202,-32.2564 C321.438202,-32.7124 320.241202,-34.1894 320.247202,-35.9564 C320.249202,-38.0784 321.973202,-39.7924 324.095202,-39.7904 C326.218202,-39.7894 327.935202,-38.0664 327.933202,-35.9444 C327.931202,-34.1744 326.731202,-32.7044 325.106202,-32.2554 L324.969202,60.4246 L303.265202,60.3936 L303.183202,117.1416 L322.967202,135.5826 L322.769202,268.4736 L304.093202,268.4416 L303.953202,361.7056 L328.391202,386.2096 L328.282202,461.0776 Z M1235.0922,106.5845 L1235.0382,142.0425 L1214.7312,142.0145 C1214.2802,143.6295 1212.8012,144.8355 1211.0362,144.8345 C1208.9122,144.8285 1207.1942,143.1005 1207.1962,140.9835 C1207.1982,138.8565 1208.9272,137.1335 1211.0512,137.1395 C1212.8172,137.1405 1214.2852,138.3465 1214.7342,139.9705 L1232.9982,139.9995 L1233.0462,107.4275 L1208.6082,82.9225 L1208.7582,-16.0165 L1230.2672,-15.9845 L1230.5222,-190.8525 L1232.5672,-190.8495 L1232.3022,-13.9375 L1210.7962,-13.9665 L1210.6542,82.0805 L1235.0922,106.5845 Z M1219.1225,-5.6875 L1218.9985,77.8935 L1243.4335,102.4045 L1243.3605,153.9085 L1229.7135,153.8895 C1229.2575,155.5105 1227.7805,156.7085 1226.0165,156.7065 C1223.8915,156.7015 1222.1765,154.9755 1222.1735,152.8545 C1222.1785,150.7295 1223.9035,149.0145 1226.0275,149.0195 C1227.7925,149.0215 1229.2665,150.2195 1229.7145,151.8425 L1241.3135,151.8605 L1241.3875,103.2485 L1216.9525,78.7355 L1217.0825,-7.7405 L1238.5905,-7.7085 L1238.8655,-195.0355 L1240.9095,-195.0315 L1240.6315,-5.6555 L1219.1225,-5.6875 Z M1252.6528,164.0493 C1254.2768,164.5033 1255.4688,165.9843 1255.4658,167.7493 C1255.4658,169.8653 1253.7418,171.5833 1251.6148,171.5863 C1249.4958,171.5753 1247.7728,169.8523 1247.7748,167.7373 C1247.7768,165.9723 1248.9828,164.4963 1250.6028,164.0463 L1250.6948,99.8543 L1226.2628,75.3453 L1226.3688,1.9023 L1247.8828,1.9293 L1248.1768,-198.4307 L1250.2178,-198.4297 L1249.9208,3.9793 L1228.4128,3.9473 L1228.3118,74.4943 L1252.7468,99.0073 L1252.6528,164.0493 Z M1175.561,155.3682 L1175.474,215.7042 L1151.92,215.6702 L1152.031,139.4832 L1173.54,139.5152 L1173.79,-31.1518 L1175.837,-31.1518 L1175.582,141.5612 L1154.074,141.5302 L1153.968,213.6242 L1173.431,213.6542 L1173.514,157.4092 L1165.396,157.3952 L1165.349,189.7462 C1166.971,190.2012 1168.17,191.6762 1168.165,193.4382 C1168.165,195.5642 1166.437,197.2802 1164.316,197.2782 C1162.194,197.2762 1160.474,195.5502 1160.478,193.4272 C1160.481,191.6612 1161.681,190.1912 1163.307,189.7462 L1163.358,155.3502 L1175.561,155.3682 Z M957.931102,369.0488 C959.549102,369.5068 960.747102,370.9838 960.742102,372.7448 C960.737102,374.8698 959.017102,376.5908 956.895102,376.5888 C954.771102,376.5828 953.054102,374.8548 953.053102,372.7358 C953.055102,370.9708 954.255102,369.5008 955.884102,369.0478 L956.028102,268.8808 L931.594102,244.3688 L931.741102,145.4368 L953.251102,145.4668 L953.510102,-29.4052 L955.550102,-29.4032 L955.290102,147.5158 L933.781102,147.4848 L933.639102,243.5258 L958.079102,268.0378 L957.931102,369.0488 Z M966.298802,346.561 C967.922802,347.015 969.119802,348.491 969.120802,350.258 C969.115802,352.382 967.383802,354.103 965.262802,354.101 C963.140802,354.099 961.423802,352.37 961.428802,350.246 C961.430802,348.481 962.631802,347.011 964.251802,346.56 L964.374802,264.696 L939.937802,240.186 L940.064802,153.713 L961.572802,153.745 L961.849802,-33.583 L963.894802,-33.581 L963.614802,155.791 L942.104802,155.761 L941.983802,239.344 L966.417802,263.856 L966.298802,346.561 Z M975.636202,326.8086 C977.254202,327.2626 978.455202,328.7356 978.450202,330.5026 C978.449202,332.6226 976.720202,334.3466 974.596202,334.3416 C972.477202,334.3416 970.760202,332.6136 970.756202,330.4916 C970.764202,328.7216 971.965202,327.2516 973.591202,326.8066 L973.686202,261.3006 L949.251202,236.7936 L949.357202,163.3506 L970.865202,163.3826 L971.162202,-36.9804 L973.207202,-36.9784 L972.908202,165.4326 L951.397202,165.4036 L951.291202,235.9456 L975.732202,260.4576 L975.636202,326.8086 Z M1187.2456,343.9517 L1187.1936,379.4077 L1148.0486,379.3497 C1147.5956,380.9737 1146.1166,382.1687 1144.3516,382.1667 C1142.2276,382.1617 1140.5066,380.4407 1140.5116,378.3167 C1140.5166,376.1927 1142.2376,374.4727 1144.3626,374.4757 C1146.1316,374.4787 1147.6046,375.6827 1148.0526,377.3057 L1185.1526,377.3607 L1185.2016,344.7977 L1160.7646,320.2877 L1160.9096,221.3477 L1182.4196,221.3787 L1182.6736,9.4177 C1180.8996,9.0727 1179.5596,7.5167 1179.5646,5.6437 C1179.5666,3.8787 1180.7656,2.4057 1182.3886,1.9577 L1182.4576,-42.7743 L1203.9656,-42.7423 L1204.2256,-217.6163 L1206.2696,-217.6163 L1206.0096,-40.6963 L1184.5006,-40.7293 L1184.4376,1.9617 C1186.0586,2.4117 1187.2566,3.8887 1187.2556,5.6527 C1187.2506,7.3127 1186.1916,8.7117 1184.7196,9.2487 L1184.4646,223.4277 L1162.9506,223.3947 L1162.8086,319.4407 L1187.2456,343.9517 Z M1171.2773,231.6787 L1171.1533,315.2597 L1195.5913,339.7687 L1195.5183,391.2717 L1163.0233,391.2217 C1162.5753,392.8467 1161.0993,394.0437 1159.3293,394.0417 C1157.2073,394.0397 1155.4923,392.3137 1155.4943,390.1927 C1155.4963,388.0657 1157.2183,386.3487 1159.3423,386.3537 C1161.1083,386.3547 1162.5803,387.5537 1163.0273,389.1787 L1193.4733,389.2227 L1193.5443,340.6117 L1169.1073,316.1017 L1169.2343,229.6287 L1190.7423,229.6597 L1191.0113,22.2167 C1189.2303,21.8807 1187.8833,20.3187 1187.8803,18.4397 C1187.8883,16.6697 1189.0883,15.1997 1190.7123,14.7517 L1190.7833,-34.4943 L1212.2913,-34.4623 L1212.5683,-221.8003 L1214.6113,-221.8003 L1214.3323,-32.4213 L1192.8263,-32.4503 L1192.7593,14.7527 C1194.3763,15.2107 1195.5713,16.6837 1195.5693,18.4487 C1195.5683,20.1017 1194.5213,21.4937 1193.0613,22.0367 L1192.7883,231.7077 L1171.2773,231.6787 Z M1204.7719,426.668 C1206.3939,427.119 1207.5869,428.593 1207.5869,430.356 C1207.5819,432.48 1205.8619,434.202 1203.7359,434.198 C1201.6119,434.193 1199.8939,432.47 1199.8959,430.342 C1199.8979,428.578 1201.1009,427.111 1202.7239,426.663 L1202.8559,337.216 L1178.4219,312.708 L1178.5299,239.263 L1200.0379,239.295 L1200.3279,31.436 C1198.5339,31.11 1197.1689,29.545 1197.1729,27.656 C1197.1749,25.892 1198.3819,24.417 1200.0049,23.968 L1200.0729,-24.86 L1221.5819,-24.828 L1221.8779,-225.191 L1223.9279,-225.191 L1223.6269,-22.78 L1202.1199,-22.812 L1202.0459,23.975 C1203.6679,24.425 1204.8719,25.896 1204.8659,27.669 C1204.8619,29.314 1203.8219,30.706 1202.3679,31.251 L1202.0759,241.345 L1180.5699,241.316 L1180.4629,311.863 L1204.9019,336.373 L1204.7719,426.668 Z"></path>
                    </g>
                </g>
            </g>
        </g>
    </g>
</svg>