<?xml version="1.0" encoding="UTF-8"?>
<svg width="18px" height="20px" viewBox="0 0 18 20" version="1.1" xmlns="http://www.w3.org/2000/svg" xmlns:xlink="http://www.w3.org/1999/xlink">
    <!-- Generator: Sketch 51.3 (57544) - http://www.bohemiancoding.com/sketch -->
    <title>Fill 1</title>
    <desc>Created with Sketch.</desc>
    <defs>
        <linearGradient x1="0%" y1="42.6544878%" x2="100%" y2="42.6544878%" id="linearGradient-1">
            <stop stop-color="#ED1C24" offset="0%"></stop>
            <stop stop-color="#F26522" offset="100%"></stop>
        </linearGradient>
    </defs>
    <g id="Page-1" stroke="none" stroke-width="1" fill="none" fill-rule="evenodd">
        <g id="20-Check-your-serial-number" transform="translate(-659.000000, -738.000000)" fill="url(#linearGradient-1)">
            <g id="Group-3" transform="translate(659.000000, 738.000000)">
                <path d="M9.65647193,19.9439468 C13.6684629,19.4945384 16.8837753,16.287397 17.3413956,12.2754061 C17.9419277,7.02958496 13.8645683,2.56410014 8.75356969,2.50690272 L8.75356969,0.153637162 C8.75356969,0.022900187 8.59014847,-0.0465538311 8.47983915,0.0351567784 L3.63440001,3.59365382 C3.5526894,3.65493678 3.5526894,3.77341717 3.63440001,3.83470012 L8.47983915,7.39319717 C8.59014847,7.47490778 8.75356969,7.40136823 8.75356969,7.27471678 L8.75356969,4.92553676 C12.344751,4.98273419 15.2209644,8.03871098 14.9758326,11.6911752 C14.7675114,14.8329073 12.2058429,17.3823192 9.06407001,17.5825102 C5.73436267,17.7949169 2.90309005,15.417179 2.39648427,12.2713206 C2.30251707,11.6870488 1.79182576,11.2621945 1.20350937,11.2621945 C0.472199416,11.2621945 -0.0997748506,11.911753 0.0146200028,12.6349328 C0.725502306,17.1167597 4.86414468,20.4791513 9.65647193,19.9439468" id="Fill-1"></path>
            </g>
        </g>
    </g>
</svg>