<svg xmlns="http://www.w3.org/2000/svg" viewBox="0 0 583.79 109.57"><defs><style>.cls-1{fill:#fff}</style></defs><title>i-bannertext1</title><g id="Layer_2" data-name="Layer 2"><path class="cls-1" d="M7.05 26.37a19.38 19.38 0 0 0-.8 4.69c0 3 2.82 5.13 9.54 5.13a65.92 65.92 0 0 0 16.36-1.84v6.54A71.38 71.38 0 0 1 16 42.49c-10.67 0-16-3.58-16-10a29.76 29.76 0 0 1 .94-6.69zM3.1 6.63a123.8 123.8 0 0 0 12.69.56c4.61 0 9.92-.28 13.49-.66v6.25c-3.24.24-9 .57-13.44.57-4.89 0-8.93-.24-12.74-.52zm55.65 19.74a19.38 19.38 0 0 0-.8 4.69c0 3 2.82 5.13 9.54 5.13a65.92 65.92 0 0 0 16.36-1.84v6.54a71.38 71.38 0 0 1-16.16 1.6c-10.67 0-16-3.58-16-10a29.76 29.76 0 0 1 .94-6.72zm-4-19.74a123.8 123.8 0 0 0 12.69.56c4.61 0 9.92-.28 13.49-.66v6.25c-3.24.24-9 .57-13.44.57-4.89 0-8.93-.24-12.74-.52zM117.55 4c-.29 1.22-.57 2.68-.8 3.86-.28 1.4-.66 3.1-1 4.79 1.55-.1 3-.19 3.9-.19 4.94 0 8.41 2.21 8.41 8.88 0 5.5-.65 12.93-2.63 17-1.55 3.24-4.09 4.28-7.66 4.28a26.68 26.68 0 0 1-5.54-.66l-1-6.16a27 27 0 0 0 5.74 1 3.41 3.41 0 0 0 3.47-2c1.27-2.59 1.88-8.13 1.88-12.74 0-3.71-1.59-4.23-4.51-4.23-.75 0-1.88.1-3.19.19-1.84 7.05-5.22 18-9.5 24.86L99 40.42c4.51-6.11 7.71-15.42 9.35-21.76-1.64.19-3.1.37-4 .51-1.32.15-3.72.47-5.17.71l-.52-6.3a42.85 42.85 0 0 0 4.94 0c1.45 0 3.66-.19 6-.37a51.24 51.24 0 0 0 1-9.87zm16.68 5.55a92.41 92.41 0 0 1 7.57 16.25l-5.92 2.77C134.65 23.4 131.36 15.18 128 11l4.32-1.83a52.21 52.21 0 0 0-3.19-5.54l3.71-1.56c1.17 1.74 2.82 4.7 3.76 6.44zM138.51 8a46.56 46.56 0 0 0-3.81-6.49L138.41 0a56.43 56.43 0 0 1 3.81 6.39zm21.85 26.12c1.84 3.15 5.13 4.46 9.92 4.65 5.64.24 16.73.1 23.22-.42a25.33 25.33 0 0 0-1.74 5.45c-5.83.28-15.79.38-21.53.14-5.59-.23-9.35-1.6-12.17-5.21-1.88 1.83-3.81 3.61-6.2 5.64l-2.63-5.55a58.49 58.49 0 0 0 5.82-4.32V24.25h-5.26v-5.12h10.57zm-4-21.24a34 34 0 0 0-6.44-7.62l4.37-3a34.85 34.85 0 0 1 6.82 7.38zm36.24.56h-30.92V9.68H170c.24-.66.43-1.31.66-2h-6V4h7.05c.33-1.08.61-2.16.85-3.15l5.4.57c-.23.84-.51 1.69-.75 2.58h10.11v5.68h5.17zm-15.32 24.35V35H162v-3.84h4.89V29h-3.57v-3.76h14v-1.55h-12V15h23.41v8.74h-6.11v1.55H191V29h-8.46v2.16h9.72V35h-9.72v2.82zm-6.95-17.35h12.87v-2.3h-12.87zm6.95 10.72V29h-5.36v2.16zM175.5 9.68h6.72v-2h-6.07zm49.39 10.01A41.57 41.57 0 0 0 212.77 22c-1.36.42-3.15 1.13-4.51 1.59l-1.74-6.62a45 45 0 0 0 5.07-.8c3.41-.8 8.65-2.17 14.06-2.17 7.37 0 12.54 4.19 12.54 11.47 0 10-9.21 16.17-22.13 18l-3.39-5.82c11.57-1.32 18.94-5.08 18.94-12.36 0-3.11-2.35-5.65-6.72-5.6zM234.29 5l-.94 5.73c-5.45-.37-15.55-1.26-20.91-2.2l.94-5.64A132 132 0 0 0 234.29 5zm35.58 31.52a4.9 4.9 0 0 1 9.78 0 4.9 4.9 0 0 1-9.78 0zm.8-24l-.19-7h8.6l-.23 7-1.64 16.07h-4.85zM8.84 69.34a35.25 35.25 0 0 0-.15 3.57v15.88c0 1.18.05 3 .15 4.09h-7c.05-.89.24-2.72.24-4.13V72.91a32.18 32.18 0 0 0-.19-3.57zm21.66-.43c-.09 1.32-.19 2.82-.19 4.7v9.31c0 10.1-2 14.43-5.45 18.28-3.1 3.43-8 5.73-11.42 6.82l-4.93-5.17c4.7-1.09 8.64-2.87 11.51-5.93 3.2-3.52 3.81-7 3.81-14.38v-8.93a34.47 34.47 0 0 0-.28-4.7zm53.16 4.61A22.65 22.65 0 0 0 82 76.43a68.51 68.51 0 0 1-7.38 12.93 132.47 132.47 0 0 1 13.13 13.44l-5.36 4.65a108.41 108.41 0 0 0-11.84-13.3 62.13 62.13 0 0 1-17.67 13.21L48 102.28a53 53 0 0 0 19.3-13.49c3.11-3.52 6-8.17 7-11.51H58.37c-2 0-4.55.28-5.54.33v-6.68a51.88 51.88 0 0 0 5.54.33h16.55a16.87 16.87 0 0 0 4.88-.61zm54.75 1.88a23.2 23.2 0 0 0-1.55 3.34 54 54 0 0 1-6.48 12.87 95.23 95.23 0 0 1 4.51 3l-4.28 5.5a53.38 53.38 0 0 0-4.37-3.34 44.92 44.92 0 0 1-17.34 11.71l-5.45-4.75A39.7 39.7 0 0 0 121 93.21c-3.2-2.07-6.39-4-8.79-5.36l4-4.46c2.49 1.27 5.69 3 8.84 4.93a34.36 34.36 0 0 0 4.89-10h-13.52A55.23 55.23 0 0 1 104 90.44l-5.07-3.9a43.06 43.06 0 0 0 15-15.61A20.6 20.6 0 0 0 116 66l6.82 2.12c-1.13 1.64-2.35 3.8-2.92 4.79h9.63a14.85 14.85 0 0 0 4.09-.52zM170 101.81a43.83 43.83 0 0 0 4.32-.75c6-1.41 10.58-5.69 10.58-12.45 0-6.44-3.48-11.24-9.73-12.32a100.71 100.71 0 0 1-2.78 12.64c-2.77 9.4-6.81 15.14-11.89 15.14s-9.5-5.69-9.5-13.54c0-10.71 9.35-19.92 21.43-19.92 11.52 0 18.8 8 18.8 18.18 0 9.78-6 16.73-17.76 18.52zm-3.62-14.1a74.16 74.16 0 0 0 2.49-11.28c-7.71 1.6-11.8 8.37-11.8 13.49 0 4.7 1.88 7 3.62 7 1.93 0 3.81-2.92 5.69-9.21zm78.77-1.55H241v23.27h-5.3V86.16h-4.56c0 7-1 16.92-7.09 23.41a13.35 13.35 0 0 0-4-3.81c.24-.28.52-.56.76-.85h-13.35v3.29h-4.84v-41h4.84v25.45a26.71 26.71 0 0 0 6.11-8.84h-5.22v-4.7H214V66.05h4.56V77a55.17 55.17 0 0 0 2.16-8l4.37 1c-1.18 2.81-2.4 6.1-3.43 8.17l-3.1-1v2h5.64v4.7h-5.6v.66c1.31 1.08 5.07 4.56 6 5.45l-3 3.71c-.61-1-1.79-2.58-3-4.08v9.63H214v-8.19a24.75 24.75 0 0 1-4.61 6.39 24.62 24.62 0 0 0-2-4.42v7h16v.33c2.07-4.84 2.31-10.24 2.31-14.8V69.29l3.29.89a52.61 52.61 0 0 0 11.32-4l4.52 4.09a74.45 74.45 0 0 1-13.78 4.23V81h14zm-35.11-8a31.42 31.42 0 0 0-1.59-8.08l3.38-1.08a29 29 0 0 1 1.83 8zM293 93.21a.62.62 0 0 0 .52-.23 3 3 0 0 0 .28-1.46c.1-.89.14-2.77.14-5.22a12.24 12.24 0 0 0 3.43 1.88 38.89 38.89 0 0 1-.51 6.35 4.06 4.06 0 0 1-1.32 2.39 4 4 0 0 1-2.49.71H291a4.32 4.32 0 0 1-3-1.13c-.71-.84-1-1.83-1-5.26v-3.43l-1.88 3.71a30.68 30.68 0 0 0-2.79-2.52 19.36 19.36 0 0 1-6.07 9.59 13.34 13.34 0 0 0-2-2.44v.09c-7.28.75-14.9 1.5-20.4 2l-.32-4.56c2.3-.14 5.12-.33 8.22-.56v-2.87h-6.91v-3.9h6.91v-2.54h4.65c-1-.56-1.22-1.74-1.22-3.8v-1.93h-2.35c-.56 3.85-2.25 6.2-7.71 7.47a9.36 9.36 0 0 0-2.13-3.29c3.95-.7 5.22-2 5.64-4.18h-4.7v-3.86h7.9v-2.3h-6.25v-3.76h6.25v-2.54h4.93v2.54H273v3.76h-6.26v2.3h7.57v3.86h-5.17V80c0 .84.1.94.61.94h1.08c.57 0 .71-.24.8-2.17A10.19 10.19 0 0 0 275 80.1c-.33 3.38-1.36 4.18-3.57 4.18H269a6.08 6.08 0 0 1-2.31-.33v2.4h6.4v3.9h-6.4v2.49c2.5-.23 5-.42 7.52-.66v1.46a17.17 17.17 0 0 0 3.91-7.71c-1.27-.89-2.59-1.78-3.76-2.49l2.25-4.13q1.13.63 2.4 1.41c.14-1.32.23-2.68.28-4.09h-3.95v-4.94h4.09c.05-1.92.09-3.9.09-6h5c0 2.07 0 4.09-.09 6H292v19.55a6.87 6.87 0 0 0 .1 1.84.41.41 0 0 0 .42.23zm-39.9 14.15a23 23 0 0 0 5.45-8.23l5.4 1.41a26.44 26.44 0 0 1-5.54 8.93zm18.84-7.15a51.56 51.56 0 0 1 1.08 8.13l-5.54.71a56.28 56.28 0 0 0-.76-8.32zm9.4-.37a45.33 45.33 0 0 1 2.54 8.08l-5.59 1.08a42.6 42.6 0 0 0-2.21-8.32zm2.91-23.31a60.5 60.5 0 0 1-.7 7 39.21 39.21 0 0 1 3.38 2.68v-9.68zM290.83 99a66.49 66.49 0 0 1 5.74 8.74l-5.74 1.83a54.29 54.29 0 0 0-5.4-8.93zm23.88-17.49a6 6 0 1 1-6 6 6.07 6.07 0 0 1 6-6zm53.53-4.94a35.56 35.56 0 0 1-12.64 8.56h15v24.15H365v-1.36h-17.39v1.6h-5.4V89.36c-2.12.47-4.19.89-6.3 1.22a35.92 35.92 0 0 0-3.43-4.84c8.22-1 16.26-2.82 22.46-5.83h-.14c-2 .75-4.56.8-7.94.8A18.63 18.63 0 0 0 344.6 76c2.45.14 5.41.14 6.21.1s1-.14 1-.75v-9.77h5.64v9.91c0 1.93-.33 3.06-1.36 3.81a24.21 24.21 0 0 0 6.77-5.12zm-20-7.19a37.45 37.45 0 0 1-10.81 10.77c-1-1-3.15-3-4.37-3.9a27.35 27.35 0 0 0 9.78-8.6zM365 89.31h-17.39v2.21H365zm-17.34 8.37H365v-2.4h-17.39zm17.34 6.11v-2.31h-17.39v2.31zm1.46-36.57a54.4 54.4 0 0 1 10.06 8.84l-4.84 3c-1.84-2.63-6.11-6.48-9.73-9.16zM422 98a27.23 27.23 0 0 0 4.37-.37v6.81a38 38 0 0 0-4.37-.23h-31a40.93 40.93 0 0 0-4.6.23v-6.81a25.49 25.49 0 0 0 4.6.37h11.94V78.83h-9.07c-1.27 0-3.29.09-4.47.19v-6.44a34.28 34.28 0 0 0 4.47.28h25.57c1.41 0 3.05-.14 4.41-.28V79c-1.41-.1-3-.19-4.41-.19h-9.92V98zm52.79-20.91a96.364 96.364 0 0 0-3.62 3.9 70.29 70.29 0 0 1-9.87 9.21v11.85c0 1.88.18 4.56.33 6h-6.77a53.58 53.58 0 0 0 .37-6V94a82.64 82.64 0 0 1-14.42 5.78l-3.62-5.54a58.17 58.17 0 0 0 19.17-7.85 30.43 30.43 0 0 0 7.9-7.05h-17c-1.7 0-4.66.09-6.12.23v-6.14a44.63 44.63 0 0 0 6 .32h8.13v-2.44A30 30 0 0 0 455 67h6.72a38.7 38.7 0 0 0-.28 4.32v2.44H467a14.49 14.49 0 0 0 3.9-.46zm-6.62 11.19a106.31 106.31 0 0 1 11.27 6.81l-3.94 5.17a73.72 73.72 0 0 0-11.24-7.47zm63.3 14.38V108h-29.23v-5.31h12.55v-9.4h-9.07V88h9.07v-7.67h-5.17a31.64 31.64 0 0 1-2.62 6.49 52.75 52.75 0 0 0-5-2.54c.47-.84.94-1.74 1.41-2.72l-2.68 1.22a32.58 32.58 0 0 0-1.73-5.41v32.1h-5.59v-33.6a59 59 0 0 1-2.12 12.45l-4.13-1.5a55.83 55.83 0 0 0 2.3-12.22l3.95.57v-9.59H499v8.88l2.73-1.13a55 55 0 0 1 2.58 5.92 56.52 56.52 0 0 0 2.49-11.46l5.46.75c-.33 2.21-.71 4.42-1.18 6.53h3.76v-9.21h5.59v9.21H530v5.26h-9.59V88H529v5.22h-8.6v9.4zm26.18-33.98c2.31 3.38 4.8 7.85 5.69 10.9l-5.12 2.07a17.12 17.12 0 0 0-.85-2.49c-6.2.42-12.59.8-17.39 1.08l-.47-5.31c1.13 0 2.35-.05 3.67-.09a73.6 73.6 0 0 0 3.43-9.45l5.83 1.17c-1.08 2.73-2.35 5.55-3.53 8l6.25-.28c-.7-1.32-1.45-2.63-2.2-3.86zm2.35 35.11c0 2.44-.47 3.8-2 4.6s-3.76.94-6.58.94a20.77 20.77 0 0 0-1.78-4.93c1.64.09 3.52 0 4.13 0s.76-.14.76-.71v-3.15h-7v8.89h-5.17v-27H560zm-12.54-16.74v2.45h7v-2.45zm7 9.36v-2.78h-7v2.78zm16-9.73c-5.5 0-6.81-1.65-6.81-6.82V65.72h5.54v6.72a73.23 73.23 0 0 0 8.46-3.9l3.57 4a85.93 85.93 0 0 1-12 4.42v2.77c0 1.69.28 1.88 2.07 1.88h5.12c1.51 0 1.84-.7 2-4.79a15.45 15.45 0 0 0 4.94 2.06c-.61 6-2.07 7.76-6.39 7.76zm6.21 17.58c1.59 0 1.92-.9 2.16-5.64a17.3 17.3 0 0 0 4.89 2.06c-.62 6.63-2 8.46-6.54 8.46h-6.67c-5.5 0-6.86-1.59-6.86-6.76V87.62h5.5V94a53.29 53.29 0 0 0 8.83-4.41l3.71 4.08a71 71 0 0 1-12.54 5v3.76c0 1.64.32 1.88 2.16 1.88z" id="SVG"/></g></svg>