<svg xmlns="http://www.w3.org/2000/svg" viewBox="0 0 394.68 39.75"><defs><style>.cls-1{fill:#fff}</style></defs><title>i-bannertext2_1</title><g id="Layer_2" data-name="Layer 2"><path class="cls-1" d="M11.46 1.92a12 12 0 0 1-3.32 4A19.91 19.91 0 0 0 14 8.1a5 5 0 0 0-.71 1A19 19 0 0 1 7.2 6.61a20.66 20.66 0 0 1-6.63 2.9 4.1 4.1 0 0 0-.57-1A19.24 19.24 0 0 0 6.24 6a13 13 0 0 1-2.49-2.39A15.63 15.63 0 0 1 1.1 5.76 7.77 7.77 0 0 0 .2 5a13.83 13.83 0 0 0 5-5l1.11.38c-.24.38-.49.77-.76 1.15h5l.21-.06zM3 11a56.31 56.31 0 0 1 8.31 1.88l-.63 1.06a48.83 48.83 0 0 0-8.34-2zm1.48-8.17a11.92 11.92 0 0 0 2.69 2.48 11 11 0 0 0 2.62-2.76h-5zM5.31 8a26.09 26.09 0 0 1 4.5 1.76l-.63.9a21.15 21.15 0 0 0-4.51-1.84zm11.32 2.87V12h-1V1.21h3.87v9.66zm0-8.66v3.26h1.88V2.21zm1.88 7.67V6.46h-1.88v3.42zm9.18-1.5a7.6 7.6 0 0 1-2.06 3.33A10.65 10.65 0 0 0 29 12.85a4.19 4.19 0 0 0-.67 1 10.39 10.39 0 0 1-3.51-1.41 10 10 0 0 1-3.27 1.39 3.32 3.32 0 0 0-.63-.82 10.25 10.25 0 0 0 3.06-1.17 8 8 0 0 1-1.76-1.95 7.77 7.77 0 0 1-2.95 3.91 3.35 3.35 0 0 0-.77-.78c2.15-1.33 3-3.66 3.32-5.83h-2v-1h2.19c0-.4.09-.81.12-1.18h-1.94v-.92h5.32a15.64 15.64 0 0 0 1.38-2.52l1.05.35a23.44 23.44 0 0 1-1.36 2.17h1.81V5h-5.26c0 .37-.08.78-.12 1.18h5.7v.95h-5.85c-.05.33-.12.67-.18 1h4.39zM28.13 1a45 45 0 0 1-7.89.77A3 3 0 0 0 20 .9a50.91 50.91 0 0 0 7.48-.73zm-6.62 1a12.9 12.9 0 0 1 .75 1.83l-.92.3a11.65 11.65 0 0 0-.7-1.88zm1.29 7a7.13 7.13 0 0 0 2 2.19A6 6 0 0 0 26.4 9zm.91-5.09a15.83 15.83 0 0 0-.4-2l.9-.16c.18.66.37 1.49.45 2zM36.06 1c-.06.27-.12.58-.18.87s-.21 1.3-.38 2.1c.7-.05 1.31-.09 1.67-.09 1.32 0 2.41.51 2.41 2.52a14.13 14.13 0 0 1-.87 5.35A2.08 2.08 0 0 1 36.54 13a8.61 8.61 0 0 1-1.74-.23l-.19-1.26a7.05 7.05 0 0 0 1.81.33 1.26 1.26 0 0 0 1.31-.84 12.93 12.93 0 0 0 .69-4.55c0-1.35-.62-1.59-1.56-1.59-.36 0-1 0-1.59.11a30 30 0 0 1-3.12 8l-1.23-.5A23.43 23.43 0 0 0 34 5.13l-1.88.19-1.33.18-.12-1.3h1.32c.47 0 1.36-.09 2.26-.17a17.42 17.42 0 0 0 .42-3.22zm5.11 1.58a25.29 25.29 0 0 1 2.72 5.3l-1.17.56A17.81 17.81 0 0 0 40.07 3zM55 1.59c-.33.24-.78.63-1 .84-1 .88-3.17 2.57-4.26 3.49-.9.78-.9 1 .06 1.8 1.35 1.08 4.1 3.36 5.55 4.8l-1.08 1c-.3-.36-.7-.74-1-1.08-.81-.87-3.28-3-4.68-4.13s-1.24-1.84.11-3c1.09-.93 3.3-2.7 4.3-3.72a7.29 7.29 0 0 0 .86-1zm8.57 11.86a24.34 24.34 0 0 0-3.31-3.34l1-.86a28.54 28.54 0 0 1 3.36 3.33zm15.35-4.2a8.15 8.15 0 0 1-3.11 2.52 22.23 22.23 0 0 0 5.62 1 6.21 6.21 0 0 0-.63 1 19.94 19.94 0 0 1-6.26-1.44A26.58 26.58 0 0 1 68 13.77a3.57 3.57 0 0 0-.43-.93 24.59 24.59 0 0 0 5.8-1.08A8.41 8.41 0 0 1 71.25 10a16.1 16.1 0 0 1-2.85 1.4 3.63 3.63 0 0 0-.67-.78 10.86 10.86 0 0 0 4.51-2.57H69.6V2.54h3.94c.08-.29.16-.58.21-.86h-5.6V.75h12.64v.93H75c-.1.32-.21.58-.31.86h4.69v5.51h-5.8a6.43 6.43 0 0 1-.77.8H78l.22-.06zm-8.24-5.12h7.56v-.88h-7.56zm0 1.6h7.56v-.89h-7.56zm0 1.62h7.56v-.9h-7.56zm1.55 2.32a7.49 7.49 0 0 0 2.38 1.64 8.82 8.82 0 0 0 2.61-1.64zm13-3.04A11.1 11.1 0 0 0 82.59 5l.63-.83a10.94 10.94 0 0 1 2.66 1.53zm1.19 2.13c-.71 1.56-1.64 3.4-2.42 4.8l-1-.72a41.46 41.46 0 0 0 2.53-4.79zm-.44-6A11.32 11.32 0 0 0 83.4 1l.6-.81a10.5 10.5 0 0 1 2.61 1.62zm3.42 6.87A13.54 13.54 0 0 1 87 13a6.85 6.85 0 0 0-.89-.66 10.8 10.8 0 0 0 2.24-3zm1.38-7.7V.08h1.13v1.85h4.31V3h-9.61V2zm1.16 6.53v4.06c0 .59-.11.89-.56 1.07a7.21 7.21 0 0 1-2.16.16 3.92 3.92 0 0 0-.33-1h1.69c.2 0 .28-.06.28-.24v-4h-3V4.17H95v4.29zm-3-1h5V5.14h-5zm5.14 1.84a19.07 19.07 0 0 1 2.35 3l-.94.55a19.46 19.46 0 0 0-2.31-3.09zm8.03-8.3c-.08.49-.12 1-.15 1.49-.06 1.68-.18 5.19-.18 7.41 0 1.63 1 2.2 2.43 2.2a6.19 6.19 0 0 0 5.33-3.1l.83 1a7.39 7.39 0 0 1-6.2 3.27c-2.13 0-3.59-.9-3.59-3.31 0-2.21.15-6 .15-7.53a7.58 7.58 0 0 0-.14-1.5zm20.41.59c-.33.24-.78.63-1 .84-1 .88-3.17 2.59-4.26 3.49-.9.78-.9 1 .06 1.8 1.35 1.08 4.1 3.36 5.55 4.8l-1.08 1c-.3-.36-.7-.74-1-1.08-.81-.87-3.28-3-4.68-4.13s-1.24-1.84.11-3c1.11-.94 3.36-2.71 4.36-3.73a7.29 7.29 0 0 0 .86-1zm8.55 11.86a24.34 24.34 0 0 0-3.31-3.34l1-.86a28.54 28.54 0 0 1 3.36 3.33zM137 2.67c1-.09 3.78-.36 6.51-.6 1.62-.14 3-.21 4-.26V3a12.49 12.49 0 0 0-2.9.24 5.2 5.2 0 0 0-3.4 4.7c0 2.89 2.71 3.81 5.12 3.9l-.43 1.26c-2.75-.12-5.88-1.59-5.88-4.91a6 6 0 0 1 2.76-5c-1.31.15-5.36.54-7 .87l-.14-1.31c.65-.02 1.12-.05 1.36-.08zm9.65 4.24l-.77.36a13.24 13.24 0 0 0-1.23-2.11l.77-.33a18.75 18.75 0 0 1 1.27 2.08zm1.71-.64l-.78.36a14.24 14.24 0 0 0-1.28-2.09l.75-.34a22 22 0 0 1 1.35 2.07zM161 6.24a4.88 4.88 0 0 1 1.54 3.43c0 2.21-2 3.56-4.92 3.56-2 0-3.66-.89-3.66-3.32A16.55 16.55 0 0 1 154 8.2a14.09 14.09 0 0 1-3-.54V6.52a11.73 11.73 0 0 0 3.13.6c.11-.87.23-1.8.33-2.66a21.48 21.48 0 0 1-3.16-.52l.06-1.11a14 14 0 0 0 3.24.55c.07-.61.13-1.15.16-1.55a6 6 0 0 0 0-1l1.35.08a8 8 0 0 0-.2 1c0 .38-.12.9-.19 1.52a22.29 22.29 0 0 0 3-.18v1.12a26.88 26.88 0 0 1-3 .15h-.1c-.12.87-.23 1.8-.33 2.66h.28a24.85 24.85 0 0 0 3.07-.18v1.14a28.08 28.08 0 0 1-2.91.13h-.54c-.06.59-.09 1.11-.09 1.47 0 1.41.81 2.31 2.51 2.31 2.25 0 3.68-1 3.68-2.5a4 4 0 0 0-1.63-3zm17.44-4.76v1h-12.93v-1h5.82V.06h1.13v1.42zm-.57 11c0 .6-.13.93-.6 1.13a9.76 9.76 0 0 1-2.52.16 4.35 4.35 0 0 0-.36-1h2.07c.27 0 .3-.08.3-.29V8.25h-9.52v5.5h-1.07V7.3h11.7zM176 3.3v3.06h-8V3.3zm-1.12.79H169v1.46h5.84zm-4.75 8.28v.75h-1V9.21h5.67v3.16zm0-2.35v1.53h3.69V10zm12.03 2.77v.71h-1V9.36a7.48 7.48 0 0 1-.7.34 4.7 4.7 0 0 0-.6-.79 9.26 9.26 0 0 0 3.16-2.06l-1.39-1a12.12 12.12 0 0 1-.95.85A6 6 0 0 0 180 6a8.11 8.11 0 0 0 2.72-3.34l.94.24a8 8 0 0 1-.45.87h1.94l.16-.05.65.29a8.92 8.92 0 0 1-1.49 2.67 23.35 23.35 0 0 1 2.23 1.81l-.65.78-.41-.27v3.84zm-.85-9.22h-.93V1.42h2.55V.09h1v1.33h2.55v2.15h-1V2.32h-4.24zm4.24 5.31c-.48-.44-1.09-.93-1.74-1.44A10.94 10.94 0 0 1 182 8.88zm-.9.88h-2.49v2.13h2.49zm-2-5.14c-.13.18-.27.37-.42.54.47.31.95.66 1.44 1a7.57 7.57 0 0 0 1-1.54zm6.79 7.15a9.56 9.56 0 0 1-3.1 2c-.18-.19-.49-.52-.73-.73a7.86 7.86 0 0 0 2.87-1.77zm-.25-8.6c.12-.46.24-1 .32-1.43h-2.84v-1h6.93v1h-2.89l-.45 1.43h2.95v7.75h-6V3.17zm3 .88h-3.91v1.44h3.91zm0 2.25h-3.91v1.44h3.91zm0 2.28h-3.91V10h3.91zm-.66 2.7a16 16 0 0 1 2.53 1.92l-.85.58a17.72 17.72 0 0 0-2.52-2zM203 3.61a17 17 0 0 1-2.69.54 26.45 26.45 0 0 1-3.24 6.29l-1.17-.6a21 21 0 0 0 3.18-5.55h-3.03L196 3.17a15.08 15.08 0 0 0 1.83.1c.53 0 1.08 0 1.65-.08a11.84 11.84 0 0 0 .47-2.56l1.33.12c-.15.54-.34 1.44-.58 2.29a14.33 14.33 0 0 0 2.3-.54zm1.74 1.73a14.41 14.41 0 0 0 0 1.6c0 .54.08 1.52.11 2.42a9.9 9.9 0 0 1 3.07 1.86l-.64 1a10.53 10.53 0 0 0-2.39-1.7v.6c0 1.19-.79 2.16-2.61 2.16-1.64 0-3-.67-3-2.14s1.3-2.25 3-2.25a6.94 6.94 0 0 1 1.4.13c0-1.21-.12-2.66-.14-3.7zm-1 4.75a5.6 5.6 0 0 0-1.5-.21c-1.09 0-1.81.5-1.81 1.17s.55 1.16 1.71 1.16 1.62-.68 1.62-1.41c.02-.2.02-.44 0-.71zm4-4.35a17.7 17.7 0 0 0-3.39-2l.59-.94a22.7 22.7 0 0 1 3.48 2zM222 12.69c.59 0 .69-.38.76-2.52a3.26 3.26 0 0 0 1 .49c-.14 2.42-.44 3.06-1.7 3.06H220c-1.32 0-1.69-.36-1.69-1.62V6.81h-2.81c-.28 3.27-1 5.71-4.76 6.94a3.45 3.45 0 0 0-.69-.94c3.49-1.05 4-3.17 4.28-6h-4V5.74h6V.06h1.11v5.68h6.16v1.07h-4.26v5.28c0 .49.12.6.69.6zm-8.67-7.8a16.26 16.26 0 0 0-1.77-3.72l1-.38a14.68 14.68 0 0 1 1.81 3.68zm9.15-3.84a30.71 30.71 0 0 1-2.09 3.79l-.92-.37a22.44 22.44 0 0 0 1.91-3.84zm5.61 2.88a2.73 2.73 0 0 1-2.4 2.43 2.29 2.29 0 0 0-.51-.69c1.35-.3 1.85-.81 2-1.74h-1.74v-.84h2.75V2H226v-.86h2.18v-1h1v1h2.22V2h-2.22v1.09h2.7v.84h-1.8v1c0 .24 0 .27.25.27h.67c.22 0 .27-.08.3-.75a2.62 2.62 0 0 0 .74.31c-.08.93-.32 1.19-.9 1.19h-.92c-.79 0-1-.21-1-1v-1zm-2.82 9.4a6.83 6.83 0 0 0 1.85-2.61l1 .29a7.58 7.58 0 0 1-1.83 2.76zm12.57-4.14a.31.31 0 0 0 .25-.07c.07-.06.09-.21.12-.5s0-.94 0-1.8a2.07 2.07 0 0 0 .76.41 16.89 16.89 0 0 1-.12 2 1 1 0 0 1-.36.68 1.09 1.09 0 0 1-.65.18h-.58a1.13 1.13 0 0 1-.75-.27c-.19-.2-.27-.44-.27-1.44V3.19h-1.44a21.81 21.81 0 0 1-.27 2.57A11.74 11.74 0 0 1 236.1 7l-.52.92a11.32 11.32 0 0 0-1.24-1.1 6.25 6.25 0 0 1-2.2 3.56 3.37 3.37 0 0 0-.72-.74l.15-.1-6.16.64-.11-1c.8 0 1.8-.13 2.9-.24V7.62h-2.39v-.86h2.39V5.68h1v1.08h2.34v.86h-2.34v1.26l2.68-.27v.61a5.83 5.83 0 0 0 1.56-3c-.47-.35-.95-.68-1.4-.95l.5-.79 1.09.69a18.79 18.79 0 0 0 .16-1.94h-1.62v-1h1.67V.1h1c0 .75 0 1.45-.05 2.13h2.42v6.23a2.24 2.24 0 0 0 .06.69.3.3 0 0 0 .19 0zM230.66 11a13.45 13.45 0 0 1 .34 2.47l-1.08.14a14.42 14.42 0 0 0-.3-2.52zm3.07-.12a12.84 12.84 0 0 1 .87 2.49l-1.1.22a12.86 12.86 0 0 0-.82-2.52zm3.07-.21a16.61 16.61 0 0 1 1.92 2.7l-1.1.39a15.77 15.77 0 0 0-1.85-2.76zm8.96 1.46a20.55 20.55 0 0 1-4.62 1.67 7 7 0 0 0-.81-.83 18.87 18.87 0 0 0 4.42-1.29zm-3.52-5.34c-.41.11-.84.21-1.34.32a3.46 3.46 0 0 0-.52-.86 7 7 0 0 0 3.7-1.48h-2L242 5l-1-.06a22.48 22.48 0 0 0 .89-2.41h3v-.9h-3.66V.9h3.66V.08h1V.9h2.31V.08h1.05V.9h3.33v2.32h-3.33V4h4.29v.36c-.11.92-.19 1.35-.44 1.59a1 1 0 0 1-.71.27h-.37v5.28h-9.68zm.09-2.79h2.25a2.19 2.19 0 0 0 .19-.81h-2.16zm8.49 2.61h-7.5v.93h7.5zm0 1.62h-7.5v.92h7.5zm0 1.62h-7.5v.93h7.5zm-1.64-5.11v1.15h-1.05V4.77h-2.74a3.24 3.24 0 0 1-1.13 1.15h6.66a1.84 1.84 0 0 0-.17-.43h1a.59.59 0 0 0 .36-.07 1.6 1.6 0 0 0 .19-.69zm-1.05-1.55h-2.32a4.92 4.92 0 0 1-.12.81h2.44zm-2.31-.73h2.31v-.83h-2.31zm3.26 9.21a44.59 44.59 0 0 1 4.55 1.48l-1.18.59a34.85 34.85 0 0 0-4.28-1.5zm.1-10.07v.86h2.32v-.83zm9.17-.4a7.45 7.45 0 0 0-.26 1 36.23 36.23 0 0 0-.73 6 13.7 13.7 0 0 0 .13 2c.24-.67.59-1.56.84-2.16l.63.5a30.83 30.83 0 0 0-1 3.28 3.13 3.13 0 0 0-.08.66c0 .15 0 .36.05.51l-1.06.09a17.92 17.92 0 0 1-.57-4.71 46.68 46.68 0 0 1 .67-6.24 6.46 6.46 0 0 0 .11-1zM268 12a10.93 10.93 0 0 0-2.23-1.69v.27a2.25 2.25 0 0 1-2.58 2.42c-2 0-3.09-.83-3.09-2.15s1.11-2.26 3.06-2.26a6.6 6.6 0 0 1 1.38.13c0-1.14-.13-2.56-.15-3.79h-1.43c-.83 0-1.61-.05-2.48-.09V3.75a23.23 23.23 0 0 0 2.52.13h1.39V2a6.69 6.69 0 0 0-.07-.9h1.36a8.12 8.12 0 0 0-.09.89v1.78a17.92 17.92 0 0 0 2.57-.35V4.6a25.21 25.21 0 0 1-2.57.29c0 1.49.13 3 .19 4.21a10.25 10.25 0 0 1 2.87 1.9zm-3.42-2.2a4.47 4.47 0 0 0-1.51-.24c-1.11 0-1.87.49-1.87 1.18s.72 1.16 1.78 1.16c1.26 0 1.62-.62 1.62-1.61a4.44 4.44 0 0 0-.02-.48zM276.06 1c-.06.27-.12.58-.18.87s-.21 1.3-.38 2.1c.7-.05 1.31-.09 1.67-.09 1.32 0 2.41.51 2.41 2.52a14.13 14.13 0 0 1-.87 5.35 2.08 2.08 0 0 1-2.17 1.25 8.61 8.61 0 0 1-1.74-.23l-.19-1.26a7.05 7.05 0 0 0 1.81.33 1.26 1.26 0 0 0 1.31-.76 12.93 12.93 0 0 0 .69-4.55c0-1.35-.62-1.59-1.56-1.59-.36 0-.95 0-1.59.11a30 30 0 0 1-3.12 8l-1.23-.5A23.43 23.43 0 0 0 274 5.13l-1.88.19-1.33.18-.12-1.3h1.32c.47 0 1.36-.09 2.26-.17a17.42 17.42 0 0 0 .38-3.22zm5.11 1.58a25.29 25.29 0 0 1 2.72 5.3l-1.17.56A17.81 17.81 0 0 0 280.07 3zm7.19-1.4c-.09.28-.19.68-.27 1-.46 2.16-1 5.39-.42 7.82.21-.63.51-1.52.78-2.25l.66.4a33.72 33.72 0 0 0-1 3.27 4.51 4.51 0 0 0-.07.66v.51l-1 .12a16.4 16.4 0 0 1-.72-4.71 39.93 39.93 0 0 1 .56-6 6.19 6.19 0 0 0 .07-1zM298.25 5a23.54 23.54 0 0 1-2.41.27v.51c0 3.42 0 5.83-3.14 7.69l-1.1-.87a4.83 4.83 0 0 0 1.46-.93c1.59-1.38 1.66-3 1.66-5.91v-.48h-1.89c-.62 0-1.75 0-2.4-.1V4a16 16 0 0 0 2.39.16h1.87c0-.93-.06-1.92-.09-2.3a7.1 7.1 0 0 0-.14-.88h1.4v3.1a17.86 17.86 0 0 0 2.42-.34zm10.24-1.22a29.78 29.78 0 0 1-3.07.51c-.14.64-.3 1.34-.47 2a44 44 0 0 1-2.32 6.81l-1.32-.43A33.67 33.67 0 0 0 303.8 6c.13-.49.25-1 .37-1.57h-1.35c-.66 0-1.2 0-1.72-.07l-.05-1.17a13.4 13.4 0 0 0 1.78.11c.5 0 1 0 1.6-.06.1-.54.18-1 .22-1.31a6.65 6.65 0 0 0 .05-1.2l1.45.12a11.78 11.78 0 0 0-.27 1.15l-.22 1.09a21.45 21.45 0 0 0 2.83-.54zM307.91 9a5.11 5.11 0 0 0-.21 1.34c0 .7.33 1.38 2.44 1.38a16.29 16.29 0 0 0 2.9-.29l-.04 1.2a22.91 22.91 0 0 1-2.86.19c-2.34 0-3.57-.72-3.57-2.19a8.55 8.55 0 0 1 .22-1.75zm-.38-3.61c.78-.08 1.76-.12 2.72-.12a23.75 23.75 0 0 1 2.56.12v1.14a21.28 21.28 0 0 0-2.5-.18 25.06 25.06 0 0 0-2.75.16zM325 1.59c-.33.24-.78.63-1 .84-1 .88-3.17 2.59-4.26 3.49-.9.78-.9 1 .06 1.8 1.35 1.08 4.1 3.36 5.55 4.8l-1.08 1c-.3-.36-.7-.74-1-1.08-.81-.87-3.28-3-4.68-4.13s-1.24-1.84.11-3c1.11-.94 3.36-2.71 4.36-3.73a7.29 7.29 0 0 0 .86-1zm13 2.02a17 17 0 0 1-2.69.54 26.45 26.45 0 0 1-3.24 6.29l-1.17-.6a21 21 0 0 0 3.18-5.55h-3.03L331 3.17a15.08 15.08 0 0 0 1.83.1c.53 0 1.08 0 1.65-.08a11.84 11.84 0 0 0 .47-2.56l1.33.12c-.15.54-.34 1.44-.58 2.29a14.33 14.33 0 0 0 2.3-.54zm1.74 1.73a14.41 14.41 0 0 0 0 1.6c0 .54.08 1.52.11 2.42a9.9 9.9 0 0 1 3.07 1.86l-.64 1a10.53 10.53 0 0 0-2.39-1.7v.6c0 1.19-.79 2.16-2.61 2.16-1.64 0-3-.67-3-2.14s1.3-2.25 3-2.25a6.94 6.94 0 0 1 1.4.13c0-1.21-.12-2.66-.14-3.7zm-1 4.75a5.6 5.6 0 0 0-1.5-.21c-1.09 0-1.81.5-1.81 1.17s.55 1.16 1.71 1.16 1.62-.68 1.62-1.41c.02-.2.02-.44 0-.71zm4-4.35a17.7 17.7 0 0 0-3.39-2l.59-.94a22.7 22.7 0 0 1 3.48 2zm5.01-2.13c0 .93 0 2.3.1 3.51.24 2.49 1 4.13 2 4.13.77 0 1.46-1.53 1.85-3l.94 1.08c-.88 2.52-1.8 3.37-2.82 3.37-1.39 0-2.74-1.39-3.15-5.25a39.16 39.16 0 0 1-.16-4 8.53 8.53 0 0 0-.09-1.32h1.44a13.53 13.53 0 0 0-.11 1.48zm10.46 6.24l-1.21.48A14.74 14.74 0 0 0 354.44 3l1.17-.4a15.31 15.31 0 0 1 2.6 7.25zm6.47 1.38A2.29 2.29 0 1 1 362.39 9a2.3 2.3 0 0 1 2.29 2.23zm-.78 0a1.51 1.51 0 0 0-1.51-1.51 1.52 1.52 0 1 0 0 3 1.5 1.5 0 0 0 1.51-1.49zM4.62 27.48c.64 0 3.7-.12 4.56-.22a3.8 3.8 0 0 0 .81-.15l.76.87a5.48 5.48 0 0 0-.79.56c-1.11.91-3.26 2.69-4.44 3.64 2.25-.24 4.92-.45 7.05-.45v1.12a21.12 21.12 0 0 0-3.77.08 3.2 3.2 0 0 0-2.8 2.8c0 1.49 1.19 2 2.54 2.18a10 10 0 0 0 2.13.06l-.24 1.21c-3.63.15-5.61-1-5.61-3.27a3.51 3.51 0 0 1 1.73-2.79c-1.59.14-3.57.38-5.34.66l-.11-1.14c.8-.07 1.8-.21 2.55-.3a62.14 62.14 0 0 0 4.91-4c-.66 0-3.24.18-3.89.24l-1.13.09-.06-1.23a7.32 7.32 0 0 0 1.14.04zm17.68.57c-.66 1-2.09 3.65-2.86 5.09a3.2 3.2 0 0 1 2.18-.9 1.7 1.7 0 0 1 1.75 1.81c0 .89 0 2 .06 2.75a1.06 1.06 0 0 0 1.18 1.05c1.65 0 2.63-2 3-3.62l1 .8c-.78 2.4-2 4.06-4.2 4.06a1.93 1.93 0 0 1-2.15-1.89c-.06-.87 0-2-.07-2.82a1 1 0 0 0-1.08-1c-1.2 0-2.29 1.2-2.88 2.37A24 24 0 0 0 17 39.09l-1.3-.43A107 107 0 0 1 20.91 28c.17-.36.36-.72.54-1.16l1.34.54a6.77 6.77 0 0 0-.49.67zM38 29.61a17 17 0 0 1-2.69.54 26.45 26.45 0 0 1-3.24 6.29l-1.17-.6a21 21 0 0 0 3.18-5.55h-3.03L31 29.17a15.08 15.08 0 0 0 1.83.1c.53 0 1.08 0 1.65-.08a11.84 11.84 0 0 0 .47-2.56l1.33.12c-.15.54-.34 1.44-.58 2.29a14.33 14.33 0 0 0 2.3-.54zm1.74 1.73a14.41 14.41 0 0 0 0 1.6c0 .54.08 1.52.11 2.42a9.9 9.9 0 0 1 3.07 1.86l-.64 1a10.53 10.53 0 0 0-2.39-1.7v.6c0 1.19-.79 2.16-2.61 2.16-1.64 0-3-.67-3-2.14s1.3-2.25 3-2.25a6.94 6.94 0 0 1 1.4.13c0-1.21-.12-2.66-.14-3.7zm-1 4.75a5.6 5.6 0 0 0-1.5-.21c-1.09 0-1.81.5-1.81 1.17s.55 1.16 1.71 1.16 1.62-.68 1.62-1.41c.02-.2.02-.44 0-.71zm4-4.35a17.7 17.7 0 0 0-3.39-2l.59-.94a22.7 22.7 0 0 1 3.48 2zm7.72-2.22c-.18.27-.43.68-.66 1 0 .3 0 .63-.07.94a7.5 7.5 0 0 1 4.71-1.84 3.75 3.75 0 0 1 3.91 3.75c0 3-2.18 4.57-5.41 5.19l-.54-1.13c2.5-.37 4.75-1.53 4.73-4.09a2.7 2.7 0 0 0-2.86-2.63 6.88 6.88 0 0 0-4.63 2.13v1.74c0 1.35 0 2.25.06 3.59 0 .25.05.63.08.9h-1.36V33.8c-.72 1.1-1.7 2.52-2.42 3.51l-.75-1c.83-1 2.54-3.35 3.29-4.52 0-.48.06-1 .09-1.42l-2.9.37-.12-1.24a8.14 8.14 0 0 0 1 0c.48 0 1.35-.11 2.11-.24 0-.7.08-1.23.08-1.39a6 6 0 0 0-.06-1.11h1.42c-.07.36-.19 1.21-.3 2.24H50zM65.87 27c-.06.29-.14.59-.18.89s-.23 1.3-.4 2.1c.7-.06 1.31-.11 1.67-.11 1.33 0 2.42.53 2.42 2.54a14.34 14.34 0 0 1-.86 5.35A2.09 2.09 0 0 1 66.35 39a8.75 8.75 0 0 1-1.76-.21l-.19-1.27a6.77 6.77 0 0 0 1.83.33 1.24 1.24 0 0 0 1.29-.77 12.32 12.32 0 0 0 .7-4.53c0-1.35-.61-1.59-1.57-1.59-.36 0-1 .05-1.59.11a29.82 29.82 0 0 1-3.12 8l-1.22-.49a23.48 23.48 0 0 0 3.12-7.35l-1.84.15c-.36.05-1 .11-1.34.18l-.12-1.3h1.32c.5 0 1.35-.09 2.25-.17a16.52 16.52 0 0 0 .38-3.22zM71 28.7a24.92 24.92 0 0 1 2.68 5.3l-1.15.57a17.81 17.81 0 0 0-2.66-5.34zm.62.24a19.16 19.16 0 0 0-1.21-2.09l.79-.33a22.11 22.11 0 0 1 1.25 2.06zm1.7-.62A18.06 18.06 0 0 0 72 26.25l.8-.33a21.1 21.1 0 0 1 1.25 2zm13.41 10.11a11.14 11.14 0 0 0-3.58-2.23v.93c0 1-.68 2.08-2.62 2.08-2.13 0-3.31-.76-3.31-2.2s1.3-2.27 3.45-2.27a8.32 8.32 0 0 1 1.24.09c0-.66-.06-1.36-.07-2H81c-1 0-2.67-.09-3.73-.21V31.5a26.37 26.37 0 0 0 3.73.29h.8v-2.13h-.74a34.08 34.08 0 0 1-3.49-.23v-1.11a22.9 22.9 0 0 0 3.48.29h.76v-1a6.22 6.22 0 0 0 0-.88h1.28a7.72 7.72 0 0 0-.07 1v.82a32.9 32.9 0 0 0 3.81-.35v1.1c-1.17.12-2.44.24-3.84.31v2.13a38.82 38.82 0 0 0 4.13-.39v1.13c-1.4.18-2.72.28-4.13.34 0 .77.08 1.55.1 2.25a12.29 12.29 0 0 1 4.33 2.31zM82 35.87a7.64 7.64 0 0 0-1.44-.14c-1.41 0-2.18.54-2.18 1.22s.59 1.2 2.06 1.2c.85 0 1.57-.26 1.57-1.28-.01-.25-.01-.6-.01-1zm19.73 2.56a11.14 11.14 0 0 0-3.58-2.23v.93c0 1-.68 2.08-2.62 2.08-2.13 0-3.31-.76-3.31-2.2s1.3-2.27 3.45-2.27a8.32 8.32 0 0 1 1.24.09c0-.66-.06-1.36-.07-2H96c-1 0-2.67-.09-3.73-.21V31.5a26.37 26.37 0 0 0 3.73.29h.8v-2.13h-.74a34.08 34.08 0 0 1-3.49-.23v-1.11a22.9 22.9 0 0 0 3.48.29h.76v-1a6.22 6.22 0 0 0 0-.88h1.28a7.72 7.72 0 0 0-.07 1v.82a32.9 32.9 0 0 0 3.81-.35v1.1c-1.17.12-2.44.24-3.84.31v2.13a38.82 38.82 0 0 0 4.13-.39v1.13c-1.4.18-2.72.28-4.13.34 0 .77.08 1.55.1 2.25a12.29 12.29 0 0 1 4.33 2.31zM97 35.87a7.64 7.64 0 0 0-1.44-.14c-1.41 0-2.18.54-2.18 1.22s.59 1.2 2.06 1.2c.85 0 1.57-.26 1.57-1.28-.01-.25-.01-.6-.01-1zm15.2.72c0-.57.06-1.53.06-2.31-1.38.75-2.34 1.51-2.34 2.49 0 1.17 1.16 1.33 2.69 1.33a25.65 25.65 0 0 0 4-.36v1.22a39.8 39.8 0 0 1-4.07.24c-2.13 0-3.84-.45-3.84-2.27s1.77-2.86 3.49-3.76a1.24 1.24 0 0 0-1.33-.92 3.93 3.93 0 0 0-2.56 1.1c-.42.4-.84 1-1.35 1.56l-1-.77a16 16 0 0 0 3.42-4.53h-.62c-.63 0-1.63 0-2.44-.09V28.4c.79.09 1.83.15 2.5.15h1a8.05 8.05 0 0 0 .37-1.85l1.23.1c-.1.42-.24 1-.45 1.71a38.74 38.74 0 0 0 4.55-.45v1.12a47.28 47.28 0 0 1-4.92.41 10.94 10.94 0 0 1-1.33 2.28 4.21 4.21 0 0 1 2-.55 1.87 1.87 0 0 1 2 1.35c1-.48 1.92-.84 2.7-1.2l1.23-.58.48 1.12c-.38.1-.92.31-1.31.46-.84.33-1.9.77-3 1.29v2.84zm21.66-4.34h-4v7.5h-1.13v-7.5h-3.67V36h-3.4v1.2h-1v-9.55h4.42v3.52h3.67v-4.83h1.13v4.83h4zM124 28.67h-2.34V35H124zm20.54 3.07c-.57.51-2.22 2-2.77 2.63a1.66 1.66 0 0 1 .55 0 1.34 1.34 0 0 1 1.14 1.07c.13.43.33 1.18.5 1.66s.5.8 1.27.8a12.64 12.64 0 0 0 2.81-.32L148 38.9a23.34 23.34 0 0 1-2.79.21c-1.18 0-1.93-.27-2.26-1.26-.14-.44-.37-1.31-.5-1.74s-.49-.78-.9-.78a1.59 1.59 0 0 0-1.09.54c-.56.54-2.16 2.22-3 3.28l-1.16-.78a6.66 6.66 0 0 0 .74-.67l6.12-6.11c-1.17.08-3.66.3-4.58.38-.48 0-.87.09-1.2.13l-.1-1.32a9.93 9.93 0 0 0 1.26 0c.85 0 4.3-.25 5.42-.39a3 3 0 0 0 .71-.16l.72.81a9 9 0 0 0-.85.7zm.51-4.14l-.17 1.11c-1.48-.13-4.07-.46-5.89-.79l.2-1.09a52.8 52.8 0 0 0 5.86.77zm15.66.61c-.27.17-.6.4-.83.56-.73.56-2.72 2.31-3.86 3.27a6.42 6.42 0 0 1 2-.31c2.47 0 4.26 1.5 4.26 3.51 0 2.4-2 4-5.13 4-2 0-3.27-.9-3.27-2.13a2.11 2.11 0 0 1 2.29-2 2.93 2.93 0 0 1 3.06 2.62 2.58 2.58 0 0 0 1.84-2.52c0-1.45-1.46-2.52-3.34-2.52-2.45 0-3.79 1-5.68 3l-.87-.89 4-3.33c.83-.69 2.67-2.25 3.4-2.9-.77 0-3.7.16-4.46.21a6.56 6.56 0 0 0-1 .08v-1.24a9.48 9.48 0 0 0 1 0c.77 0 4.29-.1 5.07-.17a4.74 4.74 0 0 0 .81-.13zM158.15 38a2 2 0 0 0-2-2c-.68 0-1.18.4-1.18.91 0 .74.85 1.16 2 1.16a7.38 7.38 0 0 0 1.18-.07zm13.62-.12a10.2 10.2 0 0 0 1.23-.18 4.45 4.45 0 0 0 3.76-4.4 4.11 4.11 0 0 0-3.94-4.3 31.15 31.15 0 0 1-.88 4.27c-.92 3-2.1 4.62-3.48 4.62s-2.66-1.53-2.66-4a6.34 6.34 0 0 1 6.51-6 5.39 5.39 0 0 1 5.7 5.45c0 3.12-2.05 5.21-5.59 5.67zm-1-4.86a23.92 23.92 0 0 0 .83-4 5.19 5.19 0 0 0-4.59 4.8c0 1.88.87 2.7 1.51 2.7s1.48-1 2.27-3.52zm15.1-6.02c-.06.29-.14.59-.18.89s-.23 1.3-.4 2.1c.7-.06 1.31-.11 1.67-.11 1.33 0 2.42.53 2.42 2.54a14.34 14.34 0 0 1-.86 5.35 2.09 2.09 0 0 1-2.17 1.23 8.75 8.75 0 0 1-1.76-.21l-.19-1.27a6.77 6.77 0 0 0 1.83.33 1.24 1.24 0 0 0 1.29-.77 12.32 12.32 0 0 0 .7-4.53c0-1.35-.61-1.59-1.57-1.59-.36 0-1 .05-1.59.11a29.82 29.82 0 0 1-3.12 8l-1.22-.49a23.48 23.48 0 0 0 3.12-7.35l-1.87.19c-.36.05-1 .11-1.34.18l-.12-1.3h1.32c.5 0 1.35-.09 2.25-.17a16.52 16.52 0 0 0 .38-3.22zm5.13 1.7a24.92 24.92 0 0 1 2.68 5.3l-1.15.57a17.81 17.81 0 0 0-2.66-5.34zm.62.24a19.16 19.16 0 0 0-1.21-2.09l.79-.33a22.11 22.11 0 0 1 1.25 2.06zm1.7-.62a18.06 18.06 0 0 0-1.32-2.07l.8-.33a21.1 21.1 0 0 1 1.25 2zm5.85-.97v7.22h-1.38c0-.23.06-.71.06-1.16v-5c0-.27 0-.8-.06-1.08zm7-.1a11.5 11.5 0 0 0-.07 1.29V31c0 3.6-.47 4.79-1.55 6.08a8.11 8.11 0 0 1-3.57 2.19l-1-1a6.88 6.88 0 0 0 3.6-2c1.08-1.25 1.26-2.46 1.26-5.3v-2.43c0-.5 0-.94-.07-1.29zm15.31 1.33a3.6 3.6 0 0 0-.38.66 18.78 18.78 0 0 1-2.52 4.39A42 42 0 0 1 223 38.1l-1.05.92a34.56 34.56 0 0 0-4.12-4.46 18.92 18.92 0 0 1-5.85 4.38l-1-1a17.25 17.25 0 0 0 6.18-4.46 13.6 13.6 0 0 0 2.49-4.17h-5.85c-.53 0-1.35.07-1.52.08V28c.21 0 1.07.11 1.52.11h5.78a4.25 4.25 0 0 0 1.13-.13zm16.07.42a6.56 6.56 0 0 0-.34.81 15.36 15.36 0 0 1-2.21 4.45c.57.36 1.08.71 1.46 1l-.83 1.08c-.36-.29-.86-.65-1.42-1a14.12 14.12 0 0 1-5.88 4l-1.08-.93a13.05 13.05 0 0 0 5.92-3.73c-1.19-.77-2.44-1.52-3.28-2l.76-.89c.87.45 2.13 1.17 3.3 1.88a12.8 12.8 0 0 0 1.94-4h-5.1a16.23 16.23 0 0 1-4 4l-1-.78a13.29 13.29 0 0 0 4.81-5.21 6.27 6.27 0 0 0 .48-1.19l1.35.43c-.24.39-.51.9-.66 1.19s-.19.35-.31.55h4.09a2.71 2.71 0 0 0 1-.15zm9.22 8.88a10.2 10.2 0 0 0 1.23-.18 4.45 4.45 0 0 0 3.76-4.4 4.11 4.11 0 0 0-3.94-4.3 31.15 31.15 0 0 1-.88 4.27c-.92 3-2.1 4.62-3.48 4.62s-2.66-1.53-2.66-4a6.34 6.34 0 0 1 6.51-6 5.39 5.39 0 0 1 5.7 5.45c0 3.12-2.05 5.21-5.59 5.67zm-1-4.86a23.92 23.92 0 0 0 .83-4 5.19 5.19 0 0 0-4.59 4.8c0 1.88.87 2.7 1.51 2.7s1.48-1 2.27-3.52zm13.4-5.67v7.22h-1.38c0-.23.06-.71.06-1.16v-5c0-.27 0-.8-.06-1.08zm6.95-.1a11.5 11.5 0 0 0-.07 1.29V31c0 3.6-.47 4.79-1.55 6.08a8.11 8.11 0 0 1-3.57 2.19l-1-1a6.88 6.88 0 0 0 3.6-2c1.08-1.25 1.26-2.46 1.26-5.3v-2.43c0-.5 0-.94-.07-1.29zM281 29.13a20.6 20.6 0 0 1-2.75 5.46 15 15 0 0 1-5.65 4.28l-1.05-1.1a13.12 13.12 0 0 0 5.67-4 15.46 15.46 0 0 0 2.82-6.36l1.43.39c-.14.43-.32.96-.47 1.33zm5.34 4.55c.72-.74 2-2.4 3-3.51.79-1 1.41-1.05 2.48-.15a37.77 37.77 0 0 1 3.11 3.1c1 1.08 2.53 2.72 3.63 4l-1 1.06c-1.05-1.35-2.41-2.89-3.37-4a39.1 39.1 0 0 0-2.93-3c-.62-.53-.83-.51-1.34.12-.72.87-2 2.52-2.66 3.34-.31.39-.64.86-.87 1.16l-1.09-1.11c.36-.35.7-.62 1.04-1.01zm9.91-2.87l-.87.41a16 16 0 0 0-1.39-2.4l.85-.38a23.56 23.56 0 0 1 1.41 2.37zm2-.79l-.87.42a15.58 15.58 0 0 0-1.44-2.37l.84-.39a23 23 0 0 1 1.45 2.32zm2.75 2.1c.45 0 1.24.07 2.08.07h8.22c.75 0 1.29 0 1.62-.07v1.47c-.3 0-.93-.08-1.6-.08h-8.24c-.82 0-1.62 0-2.08.08zm19 .37l-.7 1a31.26 31.26 0 0 0-3.26-2.05l.66-1c.93.56 2.67 1.56 3.3 2.05zm1.74 3.57a15.24 15.24 0 0 0 5.68-5.49l.72 1.23a17.57 17.57 0 0 1-5.76 5.37 18.38 18.38 0 0 1-5 1.86l-.69-1.23a15.85 15.85 0 0 0 5.08-1.74zm.48-6.85l-.71 1c-.72-.54-2.34-1.62-3.22-2.13l.67-1c.92.51 2.64 1.65 3.29 2.13zm17.68 10.24a5.17 5.17 0 0 0 0-.61h-7.28v-1.2a11.42 11.42 0 0 0 1.23.06h6.05v-2.63h-6.75V34c.29 0 .83.06 1.34.06h5.43V31.5h-5.57c-.39 0-1.26 0-1.53.05v-1.17c.29 0 1.14.06 1.53.06h6.72v9.04zm12.69-3.97a14.2 14.2 0 0 0 5-5.52l.72 1.27a14.93 14.93 0 0 1-5 5.33 16.27 16.27 0 0 1-5.89 2.34l-.8-1.23a15.51 15.51 0 0 0 5.97-2.19zm-.88-4.76l-.95 1a30.16 30.16 0 0 0-3.76-3.18l.85-.92a32 32 0 0 1 3.86 3.1zM362 28.67c1-.09 3.78-.36 6.51-.6 1.62-.14 3-.21 4-.26V29a12.49 12.49 0 0 0-2.9.24 5.2 5.2 0 0 0-3.4 4.7c0 2.89 2.71 3.81 5.12 3.9l-.43 1.26c-2.75-.12-5.88-1.59-5.88-4.91a6 6 0 0 1 2.76-5c-1.31.15-5.36.54-7 .87l-.14-1.31c.65-.02 1.12-.05 1.36-.08zm9.65 4.24l-.77.36a13.24 13.24 0 0 0-1.23-2.11l.77-.33a18.75 18.75 0 0 1 1.27 2.08zm1.71-.64l-.78.36a14.24 14.24 0 0 0-1.28-2.09l.75-.34a22 22 0 0 1 1.35 2.07zm10.42-2.54v2.43a3.68 3.68 0 0 1 .48 1.91c0 2-1 4.24-4.43 5.28l-1-1c1.95-.45 3.33-1.26 3.94-2.58a2.1 2.1 0 0 1-1.27.38 2.4 2.4 0 0 1-2.5-2.5 2.61 2.61 0 0 1 2.62-2.6 2.86 2.86 0 0 1 1 .17v-1.47c-2.25 0-4.77.12-6.63.25v-1.17c1.65 0 4.44-.12 6.64-.15v-1a8.61 8.61 0 0 0-.09-.93h1.37l-.08.93v1h4.57v1.13c-.83 0-2.18-.08-4.36-.08zM383 33a1.31 1.31 0 0 0-1.32-.92 1.51 1.51 0 0 0-1.5 1.56 1.43 1.43 0 0 0 1.51 1.47c.85-.01 1.43-.71 1.31-2.11zm11.68 4.23a2.29 2.29 0 1 1-2.29-2.23 2.3 2.3 0 0 1 2.29 2.23zm-.78 0a1.51 1.51 0 0 0-1.51-1.51 1.52 1.52 0 1 0 0 3 1.5 1.5 0 0 0 1.51-1.49z" id="SVG"/></g></svg>