<svg xmlns="http://www.w3.org/2000/svg" viewBox="0 0 760.3 119.46"><defs><style>.cls-1{fill:#85cbcb}</style></defs><title>i-text1</title><g id="Layer_2" data-name="Layer 2"><g id="SVG"><path class="cls-1" d="M635.84 41.28c.27-.13.12-.43-.63-.37l-.53.5zm-5.02-.92c-.88.24-1.89.66-1.32 1.12.87-.48 1.08-.28 2-.85.75-.06 1.31.16 1.18.34.27-.13 1.16.11 1.56-.2a5.75 5.75 0 0 0-3.48-.08c-.27-.11 0-.24.06-.33zm-73-.78l.47.06a2.85 2.85 0 0 0-.47-.06zm-45.23-.27c.35 0 .49-.06.51-.11-.32.04-.58.07-.51.11zm-7.72-.55h.46a1 1 0 0 0-.46 0zm52.95.82l-1.21-.15c-.08.16.62.12 1.21.15zm62.93 1.97a2.85 2.85 0 0 0 .66-.13l-.62.06a.25.25 0 0 1-.04.07zm-42.99-2.37h.37a2.23 2.23 0 0 0 .3-.2zm15.3-.08c-.34 0-.46.41-.6.59a1.33 1.33 0 0 1 .76-.29.46.46 0 0 0-.16-.3zm24.26.75l.44-.06c-.12.02-.31.03-.44.06zm-50.51-.76a.34.34 0 0 0-.14-.15c0 .06.05.06.14.15zm-427.97 3.17v-.08c0-.08-.12.07 0 .08zm-17.74-2.09h.25a1 1 0 0 0 .05-.24zm369.64-1.95h.06c.38-.04.2-.03-.06 0zM361 38.53c1.47.38-2.39.49-.17.91-.21-.17 2.01-.66.17-.91zm259.36 2.97h-.63a3.22 3.22 0 0 0 .63 0zm-259.53-2.06h.22zm97.35-.96a.84.84 0 0 0 .33.18s-.09-.1-.33-.18zm24.26.6l-.6-.06a5 5 0 0 0 .6.06zm-36.86-.01a2.72 2.72 0 0 0-.88 0l.14.05a1.32 1.32 0 0 1 .74-.05zm-13.11 0a1.45 1.45 0 0 0 .25.09h.41zm-253.79 2.98a2 2 0 0 1-.61-.37c.21.32-1.72.4.61.37z"/><path class="cls-1" d="M620.75 41.32a.52.52 0 0 1-.39.18h.43c.04-.09.05-.15-.04-.18zm-175.7 1.08l-2.05-.07c.55.05 1.31.07 2.05.07zM272.73 42h-.48a1.16 1.16 0 0 0 .48 0zm164.06.4a4.74 4.74 0 0 0-1.18-.29 1.33 1.33 0 0 0-.24.1zm-258.72-.73z"/><path class="cls-1" d="M164.35 42.67c2 0 .93-.54 1.35-.86 2.37-.16 1.1.41 1.91.69 1.48-.14 2.61-.65 3.71-.63.08.09.3.12.05.24 1.56-.44 4.64 0 6.46-.58a.52.52 0 0 1 .24.14.74.74 0 0 1-.28-.76c.89 0 1.65-.35 2 0a1.29 1.29 0 0 0-.85.25l.93-.16c.84.52-1.27.18-1.27.57a33.65 33.65 0 0 1 5.33-.45c.29.51-3.26.17-1.4.62l-2.16-.19c1.65.8-1.31-.06.21.8 2.83.15 3.17-.26 6-.11.64-.28-.21-.42.43-.7 4-.51 3.16 1.28 6.12.6a3.62 3.62 0 0 1 3.17-.64l-.72.57c2.74.06 1.57-.83 4.44-.44-.51.23-2.16.19-1.74.26 1.86.46 1.32-.33 2.75-.33l.3.51c2.92-.08 6.14-.44 9.38-.54-.18.15-.73.31 0 .47a94.9 94.9 0 0 1 12.66.36l1.5-.44c.35 0 .65.2.28.29 1.53.17.07-.28.81-.45s1.16.25.6.38c2.71-.37 7.72-.8 10.57-.33l-.55.13c2.22.18 2.51-.9 4.57-.49l-.4.08c4.83.19 10.16-.22 13.84.45.7-.64 4.77.28 5.08-.6a38.61 38.61 0 0 0 5.85.89c1 0 1.54-.55 2.82-.65v.47l1.73-.49.93.55 1.2-.12c-.48 0-1-.2-.94-.34 1.87-.21 4.57.33 4.62.56l4.44-.39c-.1.19-.84.25-1.43.37 2.37-.47.43.49 2.6 0-.29-.1.16-.27.21-.36a22.63 22.63 0 0 0 5.37.16l-.35.32c3.29.08 6.94-.15 10.64-.15-1.33-.15-1-.7.06-.75l.43.49c.7-.31-1.13-.19.31-.56 1.38.06.93.56.13.72L300 42c.1.14-.29.22-.4.41.69-.31 2.9.49 3.89 0l.1.14c3.69 0 5.37-.16 8.38-.18.06-.43 1.24-.33 2.13-.67 2.21.13 4.67.46 7.33.43 1.88-.21.55-.36 1.39-.61.14.38 2.8.35 1.42.62 3.2-.06 4.09-.07 8.13-.38-.44-.16-.93-.23-.67-.36.73-.06 1.67.16 1.56.34h-.19c4.54-.57 10.48 1.12 14.09.32h-.2l3.75-.41c1.72.06-1 .28.24.52 4-.64 6.39.09 9.72-.33 2.58 1.13 9.15-.08 12.63.64l-.2-.27c.9-.26 1.09.16 1.75.22-.09-.21-1-.24-.42-.39 7.62-.32 15.73.39 23.54.63 2.86.08 1.62-1.38 5.23-.74l-1 .5c5.77-.6 11.79 0 17.44-.49-.34.12-.35.27-.9.26 1.19.36 4.41 0 4.43-.27.88 0 .2.26.74.41 1.2.21 3-.46 3.64-.1.11.06-.33.12-.55.15.78-.18 3.63 0 2.88-.38 2.12.2 4.05-.18 5.74.07 1.11-.47 3.63.22 4-.44-.15.68 3.71.55 5.05.23-.45.21 1.17.21.64.5 1.53 0 2.93-.14 2.67-.49 2.81.81 5.66-.65 7.24.39 4.54-.36 8.74-.61 12.83-.77-.15.68-4.52.07-4.34.78 3.87-.28 6.11-.86 9.95-.7 1 .09-.56.3-.9.41 3.87-.28 7.49.06 10.93-.31 0 .07-.38.14-.73.19.68 0 1.58.1 1.5-.21l-.66.08c-1.09-.44 2.69-.93 2.82-1.17-1.16.89 3.4.23 1.57 1.34.44-.06 1-.2.9-.41.66.06.88.18.2.41 2.43-.16 1.57-.49 3.77-.48 0 .15-.45.2-.68.38a11.49 11.49 0 0 1 4.1-.46c-.11.09.11.21-.45.21 3.2-.05 5.45-.78 9-.5-1 .65 1.19.22 1.38.78l1.88-.17-.75-.27c1.65 0 3.11-.4 4.53-.22l-1.23.23 3.1-.1-1.76-.21c1.68-.29-.17-.71 2-.56a19.51 19.51 0 0 1 2.52.34 8.15 8.15 0 0 1 2.88-.23c.32.18-.25.62 0 .74.81-.46 3.87-.13 4.9-.63-.35.12-.36.42-.25.48l.68-.38c.76.12.87.18.75.41 2.3.07-.73-.71 2-.4a3.45 3.45 0 0 1-.66.13c2.75.16 5.3-.24 7.82 0 .75.56-2.2.14-1.35.61 3.64-.1 7.53-.67 11-.54l-.66-.06c.49-.8 2.63.39 4.4 0-.43.06-.57.45-.45.36a79.88 79.88 0 0 0 8.58-.45l-.45.21c1.42.18 3.74.1 5.27.19.45-.2 1.33-.17.8-.46 4.73 1.16 9-.63 13.22.34-.5 0-1.2.18-.8.18l3.57-.19c-.28-.34-.46-.21-1.22-.48a7.15 7.15 0 0 1 2.35-.36c-1.61.23 0 .55.71.75-.12-.11.12-.23.06-.33 1.87.61.32-.7 2.87-.29l-.14.19a17.54 17.54 0 0 1 2.86-.29c.43.41-1 .19-1.08.52 1.45 0 2.85-.76 4.16-.36-.61.11-1.5.12-2.11.23a7.05 7.05 0 0 0 2.65.42H589l2.45.21-.62-.12c1.81-1.05 3.68-.19 6.12-.88-2.37.65-.4.38-.58.83.63.13 1.57.27 1.3.4 1.15-.37 1.92.29 3.55-.25.07.15 1.23 0 1 .38 1.5-.11-.35-.25-.23-.44 2.31-.5 5.43.61 8.74-.08 2.87-.28 3.4-.77 6-1 .9.24-.73.53-.73.53a13.08 13.08 0 0 0 3.9 0c-.28.13 0 .24.42.4 1.09 0 .73-.53 2.17-.31a3.8 3.8 0 0 1-1.09.58c1.29-.13 2.56-.4 3.9-.54.35.26-.81.39-1.28.56 1.5-.12 3.89-.23 4.35-.64l-1-.14c.54 0 .28.34-.13.42-1.28.31-1.85-.14-1.92-.29l1-.09c-1-.86-3.82.14-5.73.09l.8-.63-2 .52c-.42-.16-.71-.51.24-.6-1.37-.31-1.22.22-2.39-.13-.13-.05-.08-.08 0-.1L616 40c.27-.13-.22-.44.61-.35-2.41-.36-3.88.47-4.79 0h.2c-3.33.21-.32.46-2.82 1l-1.69-1.13-.32.46c-.35 0-1-.05-.9-.23-1.28.31.21.2-.53.49-1.66-.41-4.57.2-4.94-.53-.59.35 1.58.27-.18.51-.51-.79-2 .13-3.56-.23.46-.4 1.9-.19.38-.55-.91.69-3-.15-4.22 0-.06.55-2.78.23-4.92.41.13-.18-4-.3-6-.5l.05-.09c-.38.55-2.44.45-3.93.56.06-.33.32-.46 1.14-.6h-1.41a4.08 4.08 0 0 1-1.69.33l.36-.41c-1.87 0-3.77.48-6.18.21-.14.38 1.91 1.07-.63 1.33-.1-.21-.19-.57.47-.65a3.65 3.65 0 0 1-1.22.08l1-.35c-1.09-.15-.57.29-1.45.26 0-.29-.65-.21-.52-.44a4.47 4.47 0 0 0 1.1 0 8.28 8.28 0 0 1-2.58-.45c.09.17 0 .4-.73.44-1.87 0-.64-.36-1.73-.51-.45.2-1.65 0-1.68.43a1.2 1.2 0 0 1-.86-.33c-1 .2-4.53.06-3.43.53h.24-.15c-3.18.44-6.6-.25-9.76-.06v-.15a53.59 53.59 0 0 0-5.53.42c-.56 0-1.32-.27-1.08-.45a12.51 12.51 0 0 1-3.68 0c1.45-.26-.49-.23 1.49-.19a11.54 11.54 0 0 0-4.3 0c.68-.38-1.41-.48-2.3-.37l1.31.27a25.29 25.29 0 0 1-2.76 0l.48-.5c-3.82-.6-6.9 1-9.81 0-1 .35 2.08.25 1.18.66a36.08 36.08 0 0 1-4.15-.79c-2.41-.28-2.25.73-4.77.54.32.18.63.65-1.26.82-1.76-.06-2.16-.75-1-.89.42 0 .63 0 .61.1.57-.06 1.32-.14.62-.33l-.23.18c-.87-.18-3.3-.17-2.73-.46-1.33.17-.57.29.42.39-2.26-.26-3.53 0-5.85-.18.37.09.71.3.34.3-3.41-.22-1.5.34-3.81.42-1.31-.27.47-.65-1.86-.42-1.42-.19-.3-.48.27-.62-2.12.34-4-.23-5.17-.29l1.12-.14a14.1 14.1 0 0 1-1.78.08l.64.36c-.65-.07-1.21-.07-1.2-.22-.67.24.52.6-.82.91-.87-.18-2.66.2-3-.27 2.75.16-.3-.48 2-.55a8.29 8.29 0 0 1-1.65 0c-.1-.06.09-.1.27-.13-2.63-.42-1.21.54-3.93.53.34-.27-.63-.51-1.08-.45 1.1 0 .53.44-.48.65a11 11 0 0 0-2.81.13l1 .09a6.57 6.57 0 0 1-2.44.32c-.11-.21 1.1-.14.67-.24-1.36.47-3.06-.48-4.94-.16-.88-.18-.09-.51-.86-.63-2.11.35-2.28-.36-4.5-.08.64.36.75.27-.82.62l3.65-.25-2.34.52c1.1 0 2.33-.22 3-.16-1.12.29-1 .2-.48.5-1.51-.54-3 .31-4.73 0l.05-.89c-2.62-.39-4.65.46-8.05.23l1.09.16c-.46.35-2.1 0-3.2.19.1-.3-.59-.41-1.06-.59.06.22-2.49 0-2.8.57l-1.52-.39c-2.75-.16-3.13.85-5.77.74.79-.32-.41-.53 1.36-.76-.88 0-1.67 0-1.69.15-.51-.18-2.44.4-3.25.12a2.41 2.41 0 0 1-1.49.41c-.11-.06 0-.14 0-.14s-1.55.2-.69.52c-2.71-.92-7.59.07-9.95-.72-1.93.1-4.25.19-6 .21.11-.08 0-.14.33-.11-2.41-.28-1.48.85-4.22.54-1.4-.48 1.45-.26.58-.44-.38-1-3.31.13-5.15-.44l.44-.05c-1.41-.33-3.44.37-5.74.3 0 0 .11-.09 0-.15a35.85 35.85 0 0 1-6.78.8c.69-.38 1-.2.59-.59-1 .05.29.62-1.69.73-.65-.21-2.08-.39-2.27-.8h1.87c-1-.53-2.42 0-3.41-.07l.13-.24c-2.87.08-2.91.67-6 .63l.32.18c-1.69.58-1.41-.33-3.09.1l-.51-.59c-1.11.14-3.89.57-5.89.68a35.25 35.25 0 0 1 4.91-.92 18.31 18.31 0 0 0-4.32.33 5 5 0 0 1 1.44-.11 16.35 16.35 0 0 1-5.32.69c.38-1.15-5.73-.29-7.32-1.18-3.88.42-7.7-.19-12.23-.12 1.61.9-1.32 0-1 1a5.17 5.17 0 0 1-1.55 0l-3.19-.55c-.76-.27 1-.2.9-.41-2.31-.07-1-.39-2.49-.63.31.33-.81.47-2.12.35l1.85.42c-3.22.49-2.79-.77-6-.29l1-.29c-1.67.17-6.15 0-7.79.73-.29-.1-.68-.35 0-.42-4-.11-8.87.79-12 .33l.31-.22a5.53 5.53 0 0 1-2.23.19c.05-.09.3-.22 0-.23a11.62 11.62 0 0 1-3 .26l.85-.25c-3.89-.3-6 .61-9.23.76 0-.66-3.05-.87-4.58-1l.06-.09c-4.53-.08-7.69.55-11.89.81-2.6-.72-8.81-.3-13-.71.63.12-.11.52-.85.58-1-.13-2.72.46-2.56-.14h.35c-.74-.6-2.76-.44-4.33-.45l-.26.79c-4.12-1.15-10.8.42-13-.61-1 .2-2.23.2-3.22.39l.06-.42c-2.76-.11-4.13-.16-7.54-.06l.7-.31c-1.92 0-2.43 1.23-4.2 1.25l-.53-.63c-3.35 0-6.74-.55-10.05 0 .05-.09.15-.28.69-.3-1.58 0-6.1-.43-5.53.44 0-.57-3.45-.06-5.26.19l.28-.42a9.42 9.42 0 0 1-3.71.83c-.5 0-.44-.33.23-.23-1.69-.21-1.31.4-3.36.18l.77-.27a4.68 4.68 0 0 0-2.55.42c-1.09.17-3.29-.1-3.55-.48a3.36 3.36 0 0 1-2.2.43c-.14-.14.23-.23.42-.28-2.9-.28-4.31.49-6.3.08 0-.14-.17-.21-.34-.25 2.31 0 4.16 0 4 .06 0-.38-1.86-.45-.38-1a23.09 23.09 0 0 1-5.86.74.78.78 0 0 1-.24-.13h.19a3.89 3.89 0 0 0-1.15.07 11.08 11.08 0 0 0-1.5-.12c-.21-.32-2.13-.17-3.06-.19.08.42-1.14.36 0 .7-.15 0 .18-.05.79-.06a3.34 3.34 0 0 0 .4-.05h-.07 2.31a4.52 4.52 0 0 1-2.52.16c-.48.27-1 .55-1.3.68-1.27-.59-3.71-.9-4-1.27-2.83.24-6.67.16-8.45.95-.81.1-.93-.23-1.23-.35a8.92 8.92 0 0 0 1.27-.18c-1.61.2-4.77.08-5.15.63-2-.25 1.14-.51-1.65-.42l.38-.17c-5.49-.88-8.92 1.42-15 .28.43.07.64.1.72.19-6.93-.5-14.28.47-21.12-.32a7.11 7.11 0 0 0-3.34.46l-.42-.45-2 .52c-2.87.38-5-1.11-8.62-.39l.47.31c-1.31-.06-4.14.18-3.92-.17a1.11 1.11 0 0 1-.94.16v-.24l-3.22.41c-2.49-.18.39-.94-3.24-1-1.35.09-3.85.69-3.34.85.54 0 1.39.15 1.43.38l-1.23.13c-.23.69-1.18 1.41 1.86 1.9l2.11-.43.61.37h-1.78a3.57 3.57 0 0 0 2.37-.16 1.54 1.54 0 0 0 .88.38l2.08-.67c.25.27-.93.54.46.69 1-.31-.93-.61.68-.81 1 .31.71.57 1.9.3.17.18-.09.3-.56.38 1.06-.22 2.8-.1 3.34-.47 1.06.39 3.57-.1 3.47.56a10.53 10.53 0 0 1 2.83-.54c-1.78.79 3.63 0 3.16.89 1.31-.71 4.74-.32 7.06-.71a1.08 1.08 0 0 1-.59.13 14.94 14.94 0 0 1 2.53.41c.17-.59 2.21-.72 3.3-1.08 1.61.56-1 .69-.47 1.23-.08-.47 2.79-.47 2.24-.87 1.23.35 1.06.17 1.69.66.22-.74 1.14-.13 2.16-.58 1.77.36.46.69 2.41.47.92.2-.81.46-.81.46zm46.35-1.27h-.95zm3.9 0h-1.69c-.14-.15 0-.3.4-.29-.21.08.69.16 1.29.28zm-8.24-2.92c.62-.06.82 0 .91.11l-1.08.05h-.07a.63.63 0 0 1 .24-.17z"/><path class="cls-1" d="M205.25 39H205c.12 0 .24.07.37.09l.21-.13zm353.13.65h-.09a.76.76 0 0 1 .18.06.24.24 0 0 1-.09-.06zM268.39 42.2l-.01-.11-.33.1.34.01zm311.44-1.1a.81.81 0 0 0 .28.11s-.11-.07-.28-.11zm9.27.09l1.31.15c-.57-.08-.98-.12-1.31-.15zm7.12.21a.4.4 0 0 0 .14-.18zm-113.29.5h-.28c-.65.1-.2.1.28 0zm33.71-.99c-.35.08-.71.15-1.08.2.6.03 1.07.04 1.08-.2zm-2.64.19a5.51 5.51 0 0 0 1.57 0 9.14 9.14 0 0 0-1.57 0zm113.11.49h.34a.1.1 0 0 1 0-.07zm.38-.05h.38a.88.88 0 0 0-.38 0zm1.19-.15l-.81.1a1.72 1.72 0 0 0 .81-.1zm-11.01.01l-.1.15a.18.18 0 0 0 .1-.15zm-2.86.04a14.59 14.59 0 0 0 2.67.23l.09-.12c-.45.23-2.11-.37-2.76-.11zm-11.97-1.89l2.41.12c-.42-.16-1-.38.12-.42-3.03-.48.63.37-2.53.3zm-7.45-.23c1.3-.08 0-.24.06-.33-.82.15-1.02.18-.06.33zm-53.82-.01l.13-.38c-.99.07-.01.15-.13.38zm-10.29 1.99l.97.24.46-.36-1.43.12zm-6.08-2.74l.44-.05-1.66.14 1.22-.09zm-90.39.14l.3.47c.67-.08.81-.61-.3-.47zm-39.03.48a3.4 3.4 0 0 0-2.2-.15c.88.03 1.75.21 2.2.15zm-117.04-.77l.79-.16-1.48.14.69.02zm210.26.87c-.08.13 0 .42.19.36l.15-.49zm1.47.92a1.08 1.08 0 0 0 .38-1.12c-.25.48-.31.28-.58.85a.3.3 0 0 1-.35-.35c-.08.13-.34-.11-.45.21a.62.62 0 0 0 1 .08c.09.13.02.24 0 .33zm21.29.8l-.14-.06a.18.18 0 0 0 .14.06zm13.24.25c-.1 0-.14.06-.15.1s.15-.06.15-.1zm2.2.54h-.13c.05.02.1.04.13 0zM511.76 41l.35.16c.02-.16-.18-.16-.35-.16zm-18.36-2a.59.59 0 0 0-.19.13l.18-.05a.22.22 0 0 0 .01-.08zm12.54 2.38h-.1a.53.53 0 0 0-.09.2zm-4.46.07c.1 0 .14-.4.17-.59 0 .18-.13.26-.22.29a1.33 1.33 0 0 0 .05.3zm-7.08-.74l-.12.06zm14.74.76a.33.33 0 0 0 0 .15.33.33 0 0 0 0-.15zM634 38.3zm5.12 2.09h-.07v.24zm-107.8 1.94c-.13.04-.06.03 0 0zm37.84-.33c-.43-.37.7-.48.05-.9.06.18-.59.68-.05.9zm-75.64-2.94h.18a.33.33 0 0 0-.18 0zm75.69 2.06h-.07zm-28.39.96a.52.52 0 0 0-.1-.18s.03.1.1.18zm-7.08-.6l.18.06a.38.38 0 0 0-.18-.06zm10.75 0c.1 0 .13.1.26 0v-.05c-.09.09-.15.12-.26.05zm3.82 0l-.07-.08h-.12zm74.02-2.98a1.2 1.2 0 0 1 .18.38c-.06-.3.49-.41-.18-.38z"/><path class="cls-1" d="M493.41 39.24c0-.11 0-.16.11-.18h-.13a.21.21 0 0 0 .02.18zm51.24-1.08l.6.06a2.77 2.77 0 0 0-.6-.06zm50.25.4l.14-.05a.13.13 0 0 0-.14.05zm-47.84-.4a.9.9 0 0 0 .34.29.52.52 0 0 0 .07-.11z"/><path class="cls-1" d="M626.51 37.88c-.58 0-.27.55-.39.86-.69.16-.32-.4-.56-.69-.43.15-.76.66-1.08.64 0-.1-.09-.13 0-.24-.45.44-1.35 0-1.88.57a.31.31 0 0 1-.07-.14 2 2 0 0 1 .08.77c-.26 0-.48.35-.58 0 .16 0 .17-.13.25-.25l-.27.16c-.25-.52.37-.18.37-.56-.53.17-1.15.6-1.56.45-.08-.51 1-.17.41-.62l.63.19c-.48-.8.38.06-.06-.8-.83-.15-.92.26-1.75.11-.18.28.06.42-.12.7-1.18.51-.93-1.28-1.79-.6-.22.34-.31 1-.92.64l.21-.58c-.8 0-.46.83-1.3.44.15-.22.63-.19.51-.26-.54-.45-.39.33-.8.33l-.09-.51c-.85.08-1.79.45-2.74.54.06-.15.22-.31 0-.46a8.4 8.4 0 0 1-3.69-.37l-.44.44a.16.16 0 0 1-.08-.28c-.45-.17 0 .28-.24.45a.22.22 0 0 1-.18-.39c-.79.38-2.25.81-3.08.34l.16-.13c-.64-.18-.73.9-1.33.49l.12-.08c-1.41-.19-3 .21-4-.45-.2.63-1.39-.29-1.48.6-.81-.44-.58-.6-1.71-.89-.3 0-.45.55-.82.64v-.46l-.51.49-.27-.56-.35.12c.14 0 .3.21.28.34a1.23 1.23 0 0 1-1.35-.56l-1.29.39c0-.18.24-.25.41-.36-.69.47-.12-.49-.76-.06.09.11 0 .28-.06.37a2 2 0 0 0-1.56-.16l.1-.32c-1-.08-2 .15-3.1.14a.41.41 0 0 1 0 .76l-.13-.49c-.2.3.33.18-.09.55-.4 0-.27-.55 0-.71l-.49.17c0-.15.09-.22.12-.41-.2.3-.85-.49-1.14 0v-.15c-1.08 0-1.57.16-2.45.19 0 .42-.36.33-.62.67a7.81 7.81 0 0 0-2.14-.43c-.54.21-.16.36-.4.61 0-.39-.82-.35-.42-.63a9.3 9.3 0 0 0-2.37.39c.13.16.27.23.2.36s-.49-.16-.46-.35h.06c-1.32.58-3.06-1.12-4.11-.32h.06l-1.1.42c-.5-.07.31-.29-.07-.53-1.18.64-1.86-.09-2.83.34-.75-1.14-2.67.08-3.68-.65v.27c-.26.26-.31-.15-.51-.21 0 .2.29.24.13.38-2.23.32-4.59-.39-6.87-.63-.83-.07-.47 1.38-1.52.74l.3-.49c-1.69.59-3.44 0-5.09.48.1-.11.1-.26.26-.26-.34-.36-1.28 0-1.29.28-.26 0-.06-.27-.22-.42-.34-.21-.87.46-1.06.1 0-.05.1-.11.16-.14-.22.17-1 0-.84.37-.61-.2-1.18.19-1.67-.06-.32.46-1.06-.22-1.16.43 0-.68-1.08-.54-1.47-.23.13-.2-.34-.21-.19-.49-.45 0-.86.13-.78.48-.82-.81-1.65.66-2.11-.38A29 29 0 0 1 538 39c0-.68 1.31-.07 1.26-.78-1.13.28-1.78.86-2.9.69-.29-.09.17-.29.26-.4-1.13.27-2.18-.07-3.18.3 0-.06.11-.13.21-.18-.2 0-.46-.1-.44.21l.19-.09c.32.45-.78.94-.82 1.17.34-.88-1-.22-.46-1.33a.4.4 0 0 0-.26.41c-.19-.06-.25-.18-.06-.42-.71.17-.46.5-1.1.49 0-.15.13-.21.2-.38a1.23 1.23 0 0 1-1.19.45c0-.09 0-.2.13-.2-.94 0-1.59.77-2.62.49.31-.65-.34-.21-.4-.77l-.55.16.22.28c-.48 0-.9.4-1.32.21l.36-.23-.9.11.51.21c-.49.29 0 .71-.59.55.13-.06-.48 0-.73-.33a.81.81 0 0 1-.84.23c-.1-.18.07-.62 0-.74-.23.47-1.13.13-1.43.63a.65.65 0 0 0 .08-.47l-.2.38c-.22-.12-.26-.18-.22-.41-.67-.07.21.71-.58.4.06 0 0-.09.16-.15-.8-.16-1.55.25-2.28.06-.22-.57.64-.14.39-.62-1.06.11-2.19.68-3.22.55l.19.06c-.14.8-.76-.39-1.28 0 .12-.06.16-.44.13-.35a6.84 6.84 0 0 0-2.5.44l.13-.2a9.53 9.53 0 0 0-1.54-.2c-.13.21-.39.17-.23.47-1.38-1.16-2.63.62-3.86-.35.15 0 .35-.17.24-.18l-1.05.19c.09.35.14.21.36.48a.87.87 0 0 1-.68.37c.46-.23 0-.56-.21-.75v.33c-.54-.62-.09.7-.83.28v-.18c-.28.09-.54.33-.84.28-.12-.4.3-.19.32-.52-.43 0-.84.76-1.22.36.18-.11.44-.11.62-.22-.42-.47-.47-.35-.77-.43l-.72-.21.18.13c-.52 1-1.07.19-1.78.87.69-.64.11-.37.17-.83-.18-.12-.46-.26-.38-.39-.34.37-.56-.29-1 .25 0-.15-.36 0-.28-.38-.44.11.1.25.07.43-.68.5-1.58-.6-2.55.08-.84.28-1 .78-1.77 1-.26-.23.22-.53.22-.53a1.24 1.24 0 0 0-1.14 0c.08-.12 0-.23-.12-.4-.32 0-.22.54-.64.32a2.65 2.65 0 0 1 .32-.59c-.37.14-.74.41-1.13.54-.11-.25.23-.38.37-.55-.44.11-1.14.23-1.27.63l.28.15c-.16 0-.08-.35 0-.42.37-.32.54.14.56.28l-.28.1c.29.86 1.11-.14 1.67-.09l-.23.62.57-.51c.12.16.21.51-.07.6.4.31.35-.22.7.12v.11l.39-.19c-.07.14.07.45-.17.35.7.36 1.13-.46 1.39 0h-.05c1-.21.09-.46.82-1l.49 1.13.1-.46c.1 0 .3.06.26.24.37-.32-.06-.2.15-.5.49.42 1.33-.19 1.44.54.18-.35-.46-.27.06-.51.14.78.59-.14 1 .22-.13.41-.55.19-.11.55.27-.68.86.15 1.23 0 0-.54.81-.22 1.44-.41 0 .19 1.17.3 1.76.5v.09c.11-.55.71-.44 1.15-.56a.63.63 0 0 1-.34.61h.42a.64.64 0 0 1 .49-.34l-.11.42c.55 0 1.1-.49 1.81-.21 0-.39-.56-1.07.18-1.33 0 .21.05.56-.14.65.06 0 .23-.17.36-.09l-.3.35c.32.16.17-.29.42-.26 0 .3.19.22.16.45-.07 0-.23-.12-.33 0a1.17 1.17 0 0 1 .76.46c0-.17 0-.4.21-.44.54 0 .18.36.5.51.14-.21.48 0 .49-.44.16 0 .19.21.25.33.29-.19 1.32 0 1-.53h-.08.05c.93-.44 1.92.26 2.84.07v.14c.55-.17 1.22-.1 1.62-.41.16 0 .38.27.31.44.42-.11.47-.28 1.07 0-.42.26.15.23-.43.19.54.13.67.36 1.25 0-.2.38.41.48.67.36l-.38-.27a2.73 2.73 0 0 1 .81 0l-.14.5c1.11.61 2-1 2.86 0 .29-.34-.61-.24-.35-.65.52.07 1 .78 1.21.79.71.27.66-.73 1.39-.54a.57.57 0 0 1 .37-.83c.51.07.63.75.31.89-.13 0-.19 0-.18-.1-.17.07-.38.14-.18.34l.07-.18c.25.18 1 .16.79.45.39-.17.17-.29-.12-.38.66.26 1 0 1.71.18-.11-.1-.21-.31-.1-.31 1 .22.43-.33 1.11-.41.38.27-.14.65.54.42.41.18.09.47-.08.62.62-.35 1.16.22 1.51.28l-.33.15a1.12 1.12 0 0 1 .52-.08l-.18-.36c.19.06.35.06.34.21.2-.23-.15-.59.24-.91.26.18.78-.19.87.28-.8-.16.09.47-.59.55a.66.66 0 0 1 .48 0s0 .1-.08.12c.77.43.35-.53 1.15-.52-.1.27.18.5.31.45-.32 0-.15-.45.14-.65.51.21.56-.15.82-.13l-.3-.1c.1-.26.36-.23.71-.31 0 .2-.32.14-.19.23.39-.47.89.49 1.44.17.25.18 0 .5.25.62.61-.34.66.37 1.31.08-.19-.36-.22-.27.24-.62l-1.07.26.69-.53c-.33 0-.68.23-.88.17.33-.29.3-.2.14-.5.44.54.88-.31 1.38 0v.88c.76.4 1.36-.45 2.35-.23l-.32-.15c.13-.35.61 0 .93-.19 0 .29.17.4.31.59 0-.22.73 0 .82-.58l.44.39c.8.16.91-.84 1.69-.74-.24.32.11.53-.4.76.25 0 .49.06.49-.15.15.19.71-.39 1-.11.11-.13.14-.44.43-.42a.23.23 0 0 1 0 .15c0-.15.45-.2.2-.53.79.92 2.21-.07 2.9.73a14.42 14.42 0 0 1 1.75-.22c0 .09 0 .15-.1.12.71.27.44-.85 1.23-.54.41.47-.42.25-.17.44.12 1 1-.14 1.51.43l-.13.06c.41.33 1-.37 1.67-.3a.23.23 0 0 0 0 .15 3.75 3.75 0 0 1 2-.8c-.2.38-.3.2-.17.59.29-.06-.09-.63.49-.73.19.2.6.39.66.8h-.55c.28.54.71 0 1 .08v.23c.84-.08.85-.66 1.75-.62l-.09-.18c.49-.58.41.33.9-.1l.15.59a8.39 8.39 0 0 1 1.71-.69 4.89 4.89 0 0 1-1.43.93c.32 0 1.09 0 1.26-.34-.13.06-.29.2-.42.11a1.9 1.9 0 0 1 1.55-.68c-.11 1.15 1.67.29 2.14 1.18 1.13-.42 2.24.18 3.56.11-.47-.89.39 0 .31-.94.3-.06.42 0 .45 0l.93.54c.22.27-.29.21-.26.41.67.07.28.39.72.63-.09-.32.24-.47.62-.34l-.54-.42c.94-.49.81.77 1.76.28l-.3.29c.49-.17 1.8 0 2.27-.73.09.11.2.36 0 .42 1.16.11 2.59-.78 3.49-.33l-.09.23c.22-.07.38-.42.65-.2 0 .09-.09.23 0 .24s.58-.39.87-.26l-.25.25c1.14.29 1.74-.62 2.69-.77 0 .66.89.88 1.34 1v.1c1.32.08 2.25-.55 3.47-.81.76.72 2.57.3 3.79.7-.19-.12 0-.51.25-.58.28.13.79-.46.74.15h-.1c.22.59.8.43 1.26.45l.08-.79c1.2 1.15 3.15-.43 3.8.61.29-.2.65-.2.94-.4v.43a7.53 7.53 0 0 0 2.2.06l-.2.3c.56 0 .71-1.22 1.22-1.25l.16.64c1 0 2 .54 2.93 0 0 .09-.05.27-.2.3.46 0 1.78.43 1.61-.44 0 .56 1 0 1.53-.2l-.08.42c.45-.53.46-.68 1.08-.83.15.06.13.34-.06.23.49.22.38-.39 1-.17l-.23.26c.51 0 .47-.11.75-.42a.83.83 0 0 1 1 .49c.07-.23.35-.54.64-.43a.24.24 0 0 1-.12.27c.85.29 1.26-.49 1.84-.07a.32.32 0 0 0 .1.24 6.09 6.09 0 0 1-1.16-.06c0 .39.54.45.11 1 .43-.29 1.18-.93 1.7-.74a.32.32 0 0 1 .07.13h-.05a.36.36 0 0 0 .33-.06 1.53 1.53 0 0 0 .44.12c.06.32.62.17.89.18 0-.42.34-.35 0-.7.05 0 0 0-.23.07a.28.28 0 0 0-.11 0h-.68c.22-.21.44-.39.74-.16.14-.27.29-.55.38-.68.37.59 1.08.91 1.18 1.27.83-.23 1.94-.15 2.46-1 .24-.1.27.23.36.36-.13.08-.3.06-.37.18.47-.21 1.39-.08 1.5-.64.6.25-.33.51.48.42l-.11.17c1.6.89 2.6-1.41 4.38-.27-.13-.07-.19-.11-.21-.2 2 .5 4.16-.47 6.16.33.56.16.63-.2 1-.47l.12.46.6-.53c.83-.38 1.45 1.11 2.51.39l-.14-.3c.38.05 1.21-.18 1.15.17 0-.06.12-.32.27-.16v.24l.94-.41c.73.17-.11.94.95 1 .39-.09 1.12-.69 1-.85a.45.45 0 0 1-.42-.39l.36-.12c.07-.7.35-1.41-.54-1.9l-.62.43-.19-.34h.51c-.29-.32-.48 0-.69.15a.54.54 0 0 0-.25-.37l-.61.67c-.07-.28.27-.55-.13-.7-.29.31.27.62-.2.82-.3-.32-.21-.58-.56-.31a.31.31 0 0 1 .17-.37c-.31.22-.82.09-1 .46-.31-.39-1 .1-1-.56a1.55 1.55 0 0 1-.82.55c.51-.79-1.06-.05-.93-.89-.38.71-1.38.31-2.06.71 0-.06.12-.18.18-.14-.38-.06-.5-.27-.74-.41-.05.59-.64.73-1 1.09-.47-.57.28-.69.13-1.24 0 .48-.81.48-.65.88-.36-.36-.31-.17-.49-.66-.07.73-.34.12-.63.57-.52-.36-.14-.68-.7-.46-.4-.16.11-.42.11-.42zM613 39.15h.28zm-1.13 0a3.62 3.62 0 0 0 .49 0c0 .14 0 .29-.12.29.05-.07-.24-.16-.38-.28zm2.4 2.92c-.18.06-.24 0-.27-.11a1.48 1.48 0 0 0 .32 0v-.05a.86.86 0 0 1-.06.17z"/><path class="cls-1" d="M614.58 41.53h.08l-.11-.1-.06.14zM511.6 40.9a.1.1 0 0 1-.05-.06s.04.05.05.06zm84.57-2.55v.11l.1-.09-.1-.02zm-90.83 1.11a.21.21 0 0 0-.08-.11s.04.07.08.11zm-2.7-.1l-.39-.15a1.42 1.42 0 0 0 .39.15zm-2.08-.21a.49.49 0 0 0 0 .18zm33.04-.49h.08c.19-.1.06-.07-.08 0zm-9.83.98a2 2 0 0 1 .31-.2c-.17-.03-.31-.04-.31.2zm20.81-1.49zm-20.04 1.3a.57.57 0 0 0-.46 0 .73.73 0 0 0 .46 0zM491.55 39h-.1v.06zm-.11 0l-.11.05c.05.01.09.01.11-.05zm-.35.17l.24-.11c-.08 0-.18-.01-.24.11zm3.21-.01V39a.57.57 0 0 0 0 .16zm.84-.05c-.2 0-.5-.32-.78-.23V39c.1-.22.64.37.78.11zm3.49 1.89l-.7-.12c.12.16.28.38 0 .42.84.49-.22-.36.7-.3zm2.17.24c-.38.08 0 .24 0 .33.2-.15.28-.19 0-.33zm15.7 0v.38c.25-.05-.04-.14 0-.38zm3-1.98l-.28-.24-.14.35.42-.11zm1.77 2.73l-.13.06.49-.14-.36.08zm26.36-.14l-.08-.47c-.2.09-.24.62.08.47zm11.37-.48c.12.24.44.39.64.16-.24-.03-.49-.22-.64-.16zm34.15.77l-.23.16.43-.13-.2-.03zM760.12 118c.4-.13.17-.43-.93-.37l-.78.5zm-7.42-.89c-1.29.24-2.79.66-2 1.12 1.29-.48 1.6-.28 3-.85 1.1-.06 1.92.16 1.74.34.39-.13 1.71.11 2.3-.2a12.41 12.41 0 0 0-5.15-.08c-.38-.11.02-.24.11-.33zm-107.78-.78l.7.06a6.11 6.11 0 0 0-.7-.06zm-66.78-.27c.51 0 .72-.06.75-.11-.47.05-.89.05-.75.11zm-11.4-.55h.67a2 2 0 0 0-.67 0zm78.18.82l-1.78-.15c-.14.16.91.12 1.78.15zm92.92 1.97a6.34 6.34 0 0 0 1-.13l-.91.06s-.06.05-.09.07zm-63.48-2.37h.54a4.68 4.68 0 0 0 .45-.2zm22.64-.08c-.51 0-.69.41-.88.59a2.55 2.55 0 0 1 1.11-.29c-.04-.08-.11-.15-.23-.3zm35.78.74h.63zm-74.59-.75a.44.44 0 0 0-.2-.15s.08.1.2.15zM26.29 119v-.08c0-.03-.17.08 0 .08zM.11 116.92h.36a.57.57 0 0 0 .08-.24zM545.88 115h.12c.52-.07.21-.06-.12 0zm-191.56.28c2.17.38-3.53.49-.26.91-.31-.19 2.94-.66.26-.91zm382.94 2.97h-.93a7 7 0 0 0 .93 0zm-383.2-2.06h.33zm143.74-.96a1.69 1.69 0 0 0 .49.18s-.13-.1-.49-.18zm35.82.6l-.89-.06c.35.04.64.05.89.06zm-54.42-.01a5.94 5.94 0 0 0-1.3 0h.2a2.87 2.87 0 0 1 1.1 0zm-19.35 0a3 3 0 0 0 .35.09h.62zM85.12 118.8a3.24 3.24 0 0 1-.89-.37c.29.29-2.55.4.89.37zm652.71-.73a.91.91 0 0 1-.57.18h.64c.1-.09.1-.15-.07-.18zm-259.42 1.08l-3.07-.07c.86.05 1.98.07 3.07.07zM224 118.74l-.7.05a2.47 2.47 0 0 0 .7-.05zm242.21.41a9.61 9.61 0 0 0-1.73-.29 2.28 2.28 0 0 0-.36.1zm-381.99-.73z"/><path class="cls-1" d="M64 119.42c2.93 0 1.38-.54 2-.86 3.5-.16 1.62.41 2.81.69 2.18-.14 3.86-.65 5.49-.63.12.09.44.12.06.24 2.31-.44 6.86 0 9.55-.58a1 1 0 0 1 .35.14c-.44-.28-.5-.56-.41-.76 1.31 0 2.43-.35 2.93 0a2.58 2.58 0 0 0-1.25.25l1.38-.16c1.23.52-1.88.18-1.88.57a72.7 72.7 0 0 1 7.87-.45c.43.51-4.81.17-2.07.62l-3.18-.19c2.43.8-1.94-.06.3.8 4.19.15 4.68-.26 8.86-.11.94-.28-.31-.42.63-.7 5.94-.51 4.67 1.28 9 .6a7.34 7.34 0 0 1 4.68-.64l-1.06.57c4 .06 2.31-.83 6.56-.44-.76.23-3.19.19-2.58.26 2.76.46 1.95-.33 4.07-.33l.43.51c4.32-.08 9.08-.44 13.86-.54-.27.15-1.09.31 0 .47 6-.26 12.87.06 18.69.36l2.22-.44c.52 0 1 .2.4.29 2.27.17.12-.28 1.21-.45 1.29 0 1.7.25.88.38 4-.37 11.4-.8 15.61-.33l-.82.13c3.28.18 3.71-.9 6.75-.49l-.58.08c7.12.19 15-.22 20.42.45 1-.64 7 .28 7.51-.6a82.12 82.12 0 0 0 8.63.89c1.53 0 2.28-.55 4.17-.65v.46l2.57-.48 1.36.55 1.78-.12c-.71 0-1.5-.2-1.4-.34 2.77-.21 6.76.33 6.83.56l6.55-.39a7.4 7.4 0 0 1-2.11.37c3.5-.47.64.49 3.84.05-.43-.1.24-.27.31-.36a49.26 49.26 0 0 0 7.93.16l-.52.32c4.86.08 10.25-.15 15.71-.15-2-.15-1.51-.7.09-.75l.64.49c1-.31-1.67-.19.45-.56 2 .06 1.37.56.2.72l2.48-.17c.15.14-.44.22-.59.41 1-.31 4.28.49 5.75 0l.14.14c5.45 0 7.93-.16 12.37-.18.09-.43 1.83-.33 3.15-.67 3.27.13 6.89.46 10.83.43 2.76-.21.8-.36 2.05-.61.2.38 4.13.35 2.09.62 4.72-.06 6-.07 12-.39-.65-.15-1.38-.22-1-.35 1.08-.06 2.46.16 2.31.34h-.29c6.71-.57 15.48 1.12 20.81.32h-.3l5.54-.41c2.55.06-1.53.28.36.52 6-.64 9.43.09 14.35-.33 3.81 1.13 13.51-.08 18.65.64l-.3-.27c1.33-.26 1.61.16 2.59.22-.14-.21-1.44-.24-.62-.39 11.25-.32 23.22.39 34.75.63 4.22.08 2.4-1.38 7.72-.74l-1.51.5c8.51-.6 17.4 0 25.74-.49a3.19 3.19 0 0 1-1.33.26c1.76.36 6.51 0 6.54-.27 1.3 0 .3.26 1.1.41 1.77.21 4.43-.46 5.37-.1.16.06-.49.12-.82.15 1.15-.18 5.36 0 4.26-.38 3.13.2 6-.18 8.48.07 1.63-.47 5.36.22 5.87-.44-.22.68 5.49.55 7.46.23-.66.21 1.72.21.95.5 2.25 0 4.32-.14 3.93-.49 4.16.81 8.36-.65 10.7.39 6.7-.36 12.91-.61 18.94-.77-.22.68-6.67.07-6.41.78 5.72-.28 9-.86 14.69-.7 1.47.09-.83.29-1.33.41 5.72-.28 11.06.06 16.14-.31a3.3 3.3 0 0 1-1.08.19c1 0 2.33.1 2.22-.21l-1 .08c-1.6-.44 4-.93 4.16-1.17-1.7.89 5 .23 2.32 1.34.66-.06 1.49-.2 1.34-.41 1 .06 1.29.18.29.41 3.6-.16 2.32-.49 5.57-.48 0 .15-.67.2-1 .38a24.55 24.55 0 0 1 6-.46c-.17.09.15.21-.67.21 4.72 0 8.05-.78 13.23-.5-1.53.65 1.76.22 2 .78l2.79-.17-1.12-.27c2.44 0 4.6-.4 6.69-.22l-1.81.23 4.57-.1-2.58-.21c2.46-.29-.27-.71 3-.56-.66.06 2.44 0 3.71.34a17.57 17.57 0 0 1 4.25-.23c.47.18-.37.62-.07.74 1.19-.47 5.72-.13 7.22-.63-.5.12-.53.42-.36.48l1-.38c1.13.12 1.29.18 1.11.41 3.4.07-1.08-.71 3-.4a7.09 7.09 0 0 1-.82.14c4.05.16 7.83-.24 11.55-.05 1.1.56-3.25.14-2 .61 5.36-.1 11.11-.67 16.31-.54l-1-.06c.72-.8 3.87.39 6.5 0-.65.06-.85.45-.67.36 3.55.12 7.27-.2 12.66-.45l-.67.21c2.1.18 5.52.1 7.79.19.67-.2 2-.17 1.18-.46 7 1.16 13.32-.63 19.52.34-.75 0-1.77.18-1.18.18l5.28-.19c-.42-.34-.7-.21-1.8-.48a14.93 14.93 0 0 1 3.46-.36c-2.37.23 0 .55 1 .75-.18-.11.18-.23.09-.33 2.76.61.46-.7 4.23-.29l-.2.19a37.79 37.79 0 0 1 4.22-.29c.63.41-1.5.19-1.59.52 2.13 0 4.21-.76 6.14-.36-.91.11-2.21.12-3.12.23a15 15 0 0 0 3.91.42h.1l3.61.21-.92-.12c2.67-1 5.44-.19 9-.88-3.49.65-.57.38-.84.83.92.13 2.31.27 1.91.4 1.7-.37 2.84.28 5.24-.25.11.15 1.82 0 1.44.38 2.21-.11-.53-.25-.34-.44 3.41-.5 8 .61 12.91-.08 4.22-.28 5-.77 8.93-1 1.32.24-1.09.53-1.09.53a28.44 28.44 0 0 0 5.76 0c-.41.13 0 .24.62.4 1.62 0 1.08-.53 3.21-.31a6.68 6.68 0 0 1-1.61.58c1.9-.13 3.78-.4 5.75-.54.52.26-1.19.39-1.88.56 2.21-.12 5.73-.23 6.42-.64l-1.42-.14c.8 0 .41.34-.18.42-1.9.31-2.74-.14-2.85-.29l1.41-.09c-1.44-.86-5.64.14-8.46.09l1.18-.63-2.9.52c-.62-.16-1-.51.36-.6-2-.31-1.8.22-3.54-.13-.19 0-.1-.08.08-.11l-2 .19c.39-.13-.33-.44.89-.35-3.56-.36-5.73.47-7.07 0h.3c-4.93.21-.48.46-4.17 1l-2.49-1.13-.48.46c-.51 0-1.52 0-1.33-.23-1.89.31.32.2-.78.49-2.44-.41-6.74.2-7.29-.53-.88.35 2.34.27-.27.51-.75-.79-3 .13-5.26-.23.69-.4 2.81-.19.57-.55-1.35.69-4.35-.15-6.24 0-.09.55-4.1.23-7.26.41.2-.18-5.95-.3-8.89-.5l.08-.09c-.57.55-3.6.45-5.81.56.09-.33.48-.46 1.68-.6h-2.08a8.46 8.46 0 0 1-2.48.33l.52-.41c-2.76 0-5.57.48-9.13.21-.2.38 2.83 1.07-.93 1.33-.14-.21-.28-.57.71-.65a7.92 7.92 0 0 1-1.8.08l1.5-.35c-1.62-.15-.85.29-2.14.26 0-.29-1-.21-.77-.44a9.68 9.68 0 0 0 1.62 0 17.59 17.59 0 0 1-3.81-.45c.13.17 0 .4-1.07.44-2.76 0-1-.36-2.56-.51-.67.2-2.43 0-2.48.43a2.26 2.26 0 0 1-1.27-.33c-1.43.2-6.68.06-5.07.53h.37-.24c-4.69.44-9.74-.25-14.4-.06v-.15c-2.78.17-6.18.1-8.17.42-.82 0-1.94-.27-1.58-.45a27.16 27.16 0 0 1-5.43 0c2.13-.26-.74-.23 2.18-.19a25 25 0 0 0-6.34 0c1-.38-2.08-.48-3.39-.37l1.93.27c-1.47.06-2.76 0-4.07 0l.71-.5c-5.65-.6-10.19 1-14.49 0-1.49.35 3.07.25 1.73.66-2.59-.07-5.3-.79-6.11-.79-3.56-.28-3.32.73-7.05.54.48.18.93.65-1.85.82-2.6-.06-3.2-.75-1.56-.89.63 0 .93 0 .9.1.84-.06 1.94-.14.91-.33l-.33.18c-1.29-.18-4.87-.17-4-.46-2 .17-.84.29.61.39-3.33-.26-5.2 0-8.64-.18.55.09 1.05.3.51.3-5-.22-2.22.34-5.63.42-1.94-.27.7-.65-2.74-.42-2.09-.19-.44-.48.39-.62-3.13.34-5.84-.23-7.63-.29l1.65-.14c-1 .08-1.79.08-2.61.08l.94.36c-1-.07-1.79-.07-1.77-.22-1 .24.76.6-1.22.91-1.29-.18-3.92.2-4.37-.27 4.06.16-.45-.48 3-.55a18.26 18.26 0 0 1-2.45 0c-.14-.06.14-.1.41-.13-3.88-.42-1.79.54-5.81.53.51-.27-.93-.51-1.59-.45 1.62 0 .78.44-.71.65a24 24 0 0 0-4.15.13l1.54.09a14.08 14.08 0 0 1-3.61.32c-.16-.21 1.63-.14 1-.24-2 .47-4.51-.48-7.3-.16-1.29-.19-.12-.51-1.25-.63-3.12.35-3.38-.36-6.66-.08.94.36 1.11.27-1.2.62l5.39-.25-3.46.52c1.63 0 3.43-.22 4.41-.16-1.65.29-1.48.2-.7.5-2.23-.54-4.42.31-7 0l.08-.89c-3.87-.39-6.87.46-11.9.23l1.62.16c-.68.35-3.1 0-4.73.19.15-.3-.87-.41-1.56-.59.08.22-3.68 0-4.13.57l-2.25-.39c-4.05-.16-4.63.85-8.53.74 1.18-.32-.59-.53 2-.76-1.3 0-2.47 0-2.49.15-.77-.18-3.62.4-4.81.12a4.74 4.74 0 0 1-2.19.41c-.16-.06 0-.14 0-.14s-2.28.2-1 .52c-4-.92-11.21.07-14.7-.72-2.84.1-6.26.19-8.84.21.16-.08 0-.14.49-.11-3.55-.28-2.18.85-6.23.54-2.07-.48 2.15-.26.86-.44-.56-1-4.89.13-7.61-.44h.66c-2.09-.33-5.08.37-8.49.3 0 0 .17-.09 0-.15a76.91 76.91 0 0 1-10 .8c1-.38 1.48-.2.86-.59-1.46 0 .43.62-2.5.73-.95-.21-3.06-.39-3.34-.8h2.76c-1.41-.53-3.58 0-5-.07l.18-.24c-4.23.08-4.29.67-8.84.63l.47.17c-2.49.59-2.08-.32-4.56.11l-.75-.59c-1.65.14-5.75.57-8.7.68 1.67-.44 5.11-.66 7.25-.92a39.77 39.77 0 0 0-6.38.33 10.91 10.91 0 0 1 2.13-.11 35 35 0 0 1-7.86.69c.57-1.15-8.45-.29-10.8-1.18-5.74.42-11.38-.19-18.06-.12 2.37.9-1.95 0-1.54.94a10.94 10.94 0 0 1-2.29 0l-4.71-.55c-1.12-.27 1.48-.2 1.34-.41-3.41-.07-1.43-.39-3.69-.63.46.33-1.18.47-3.12.35l2.73.42c-4.76.49-4.12-.77-8.91-.29l1.51-.29c-2.46.17-9.08 0-11.49.73-.44-.1-1-.35.07-.42-5.89-.11-13.1.79-17.68.33l.45-.22a11.86 11.86 0 0 1-3.29.19c.08-.09.45-.22-.06-.23a24.92 24.92 0 0 1-4.37.26l1.24-.25c-5.74-.3-8.81.61-13.62.76 0-.66-4.51-.87-6.76-1l.08-.09c-6.69-.08-11.36.55-17.55.81-3.84-.72-13-.3-19.19-.71.94.12-.15.52-1.25.58-1.45-.13-4 .46-3.78-.14h.52c-1.09-.6-4.07-.44-6.4-.45l-.38.79c-6.08-1.15-15.94.42-19.26-.61-1.46.2-3.28.2-4.74.39l.08-.42c-4.07-.11-6.1-.16-11.12-.06l1-.31c-2.83 0-3.58 1.23-6.19 1.25l-.79-.63c-4.95 0-10-.55-14.84 0 .08-.09.22-.28 1-.3-2.33 0-9-.43-8.16.44-.06-.57-5.1-.06-7.77.19l.41-.42a19.51 19.51 0 0 1-5.47.83c-.75 0-.66-.33.33-.23-2.48-.21-1.93.4-5 .18l1.12-.27a9.88 9.88 0 0 0-3.76.42c-1.61.17-4.85-.1-5.23-.48a7 7 0 0 1-3.25.43c-.21-.14.34-.23.62-.28-4.28-.28-6.36.49-9.31.08-.06-.14-.25-.21-.49-.25 3.39 0 6.13 0 5.88.06 0-.38-2.75-.45-.57-1a49.33 49.33 0 0 1-8.64.74 1.69 1.69 0 0 1-.36-.13l.28-.05a8.37 8.37 0 0 0-1.69.07c-.86-.07-1.4-.12-2.22-.12-.31-.32-3.15-.17-4.51-.19.11.42-1.68.36 0 .7-.22 0 .25 0 1.16-.06h.59-.1 3.41a9.73 9.73 0 0 1-3.73.16c-.7.27-1.47.55-1.91.68-1.87-.59-5.48-.9-6-1.27-4.18.24-9.84.16-12.47 1a3 3 0 0 1-1.81-.35c.69-.08 1.5-.07 1.87-.18-2.37.2-7 .08-7.6.63-3-.25 1.68-.51-2.44-.42l.56-.17c-8.1-.88-13.16 1.42-22.14.28a3.26 3.26 0 0 1 1.06.19c-10.23-.5-21.08.47-31.18-.32a15.05 15.05 0 0 0-4.93.46l-.63-.45-3 .52c-4.25.38-7.35-1.11-12.73-.39l.69.31c-1.93-.06-6.11.18-5.79-.17a2.27 2.27 0 0 1-1.39.16l-.06-.24-4.74.41c-3.68-.18.57-.94-4.79-1-2 .09-5.68.69-4.93.85s2.05.15 2.11.38l-1.82.13c-.33.69-1.73 1.41 2.74 1.9l3.12-.43 1 .34H4.62a7.58 7.58 0 0 0 3.49-.16 3 3 0 0 0 1.31.38l3.07-.67c.37.27-1.38.54.68.69 1.43-.31-1.38-.61 1-.81 1.49.31 1.05.57 2.81.3.24.18-.13.3-.82.38 1.56-.22 4.13-.1 4.93-.47 1.56.39 5.27-.1 5.11.56a22.28 22.28 0 0 1 4.18-.54c-2.62.79 5.36 0 4.67.89 1.94-.71 7-.32 10.43-.71a2.25 2.25 0 0 1-.87.13 31.81 31.81 0 0 1 3.73.41c.25-.59 3.26-.72 4.88-1.08 2.37.56-1.44.69-.7 1.23-.11-.47 4.12-.47 3.31-.87 1.81.35 1.56.17 2.49.66.32-.74 1.69-.13 3.19-.58 2.62.36.68.69 3.55.47 1.46.2-1.06.46-1.06.46zm68.45-1.27h-1.42zm5.75 0h-2.5c-.2-.15 0-.3.6-.29-.36.08 1 .14 1.86.28zm-12.2-2.93c.91-.06 1.22 0 1.34.11h-1.59l-.11.05a1 1 0 0 1 .36-.16z"/><path class="cls-1" d="M124.35 115.78h-.37l.54.09.32-.13zm521.39.62h-.12a1.15 1.15 0 0 1 .25.06.59.59 0 0 1-.13-.06zm-428.16 2.55l-.01-.11-.5.1.51.01zm459.84-1.1a1.6 1.6 0 0 0 .41.11 1.26 1.26 0 0 0-.41-.11zm13.68.09l1.94.15c-.84-.09-1.45-.09-1.94-.15zm10.52.21a.57.57 0 0 0 .21-.18zm-167.28.5a2.75 2.75 0 0 0-.41 0c-.93.1-.3.07.41 0zm49.78-.99c-.53.08-1 .15-1.6.2.89.03 1.58.04 1.6-.2zm-105.37 1.49zm101.46-1.3a11.91 11.91 0 0 0 2.31 0 19.78 19.78 0 0 0-2.31 0zm167.01.49h.51l.06-.07zm.57-.05l.56-.05a1.79 1.79 0 0 0-.56.05zm1.75-.15l-1.19.1a3.62 3.62 0 0 0 1.19-.1zm-16.25.01l-.16.15c.09-.03.15-.08.16-.15zm-4.23.04a31.69 31.69 0 0 0 3.94.23l.13-.12c-.66.23-3.13-.37-4.07-.11zm-17.66-1.89l3.54.12c-.62-.16-1.43-.38.18-.42-4.47-.48.88.37-3.72.3zm-11-.23c1.9-.08 0-.24.08-.33-1.21.15-1.48.18-.08.33zm-79.47-.01l.19-.38c-1.47.06-.02.15-.19.38zm-15.19 1.99l1.42.24.68-.36-2.1.12zm-8.98-2.74l.64-.05-2.45.14 1.81-.09zm-133.47.14l.44.47c.99-.08 1.2-.61-.44-.47zm-57.62.48a7.3 7.3 0 0 0-3.25-.15c1.3.03 2.58.22 3.25.15zm-172.81-.77l1.16-.16-2.18.14 1.02.02zm294.51.84c-.13.13-.06.42.28.36l.24-.49zm2.27 1c.39-.24.85-.66.59-1.12-.39.48-.48.28-.91.85-.33 0-.59-.16-.53-.35-.12.13-.52-.11-.71.21a1.31 1.31 0 0 0 1.58.08c.13.06.01.19-.02.33zm33 .72l-.21-.06a.47.47 0 0 0 .21.06zm20.46.28c-.16 0-.22.06-.23.1s.26-.1.23-.1zm3.49.54h-.21c.08.01.16.04.21 0zm-23.95-.82l.55.16c.04-.16-.28-.12-.55-.16zm-28.45-1.97a.91.91 0 0 0-.3.13h.28s.01-.1.02-.13zm19.44 2.38h-.17a.77.77 0 0 0-.13.2zm-6.92.07c.16 0 .21-.4.27-.59a.48.48 0 0 1-.34.29.79.79 0 0 0 .07.3zm-10.97-.74l-.2.06zm22.84.76a.52.52 0 0 0 .06.15.2.2 0 0 0-.06-.15zm193.52-3.17a.16.16 0 0 0 0 .07s.05-.07 0-.07zm8.02 2.09h-.11a2 2 0 0 0 0 .24zM593 119.08c-.22.04-.12.03 0 0zm58.64-.31c-.66-.37 1.08-.48.08-.9.1.13-.91.66-.08.9zm-117.27-2.96h.28a.8.8 0 0 0-.28 0zm117.35 2.06h-.1zm-44.02.96a.52.52 0 0 0-.15-.18s.04.09.15.18zm-10.97-.6l.27.06a.74.74 0 0 0-.27-.06zm16.67 0a.57.57 0 0 0 .4 0 .18.18 0 0 0-.07 0 .31.31 0 0 1-.33 0zm5.92 0l-.1-.08h-.19zm114.76-2.98a1.2 1.2 0 0 1 .28.38c-.09-.3.78-.41-.28-.38z"/><path class="cls-1" d="M534.19 116a.24.24 0 0 1 .18-.18h-.2a.15.15 0 0 0 .02.18zm79.45-1.09l.94.06a6.65 6.65 0 0 0-.94-.06zm77.92.4h.21a.25.25 0 0 0-.21 0zm-74.19-.4a1.43 1.43 0 0 0 .54.29s.08-.06.1-.11z"/><path class="cls-1" d="M740.56 114.63c-.89 0-.42.55-.61.86-1.07.16-.49-.4-.86-.69-.67.15-1.18.66-1.68.64 0-.1-.13-.13 0-.24-.71.44-2.1 0-2.92.57a.34.34 0 0 1-.11-.14 1.51 1.51 0 0 1 .13.77c-.41 0-.75.35-.9 0 .25 0 .27-.13.38-.25l-.42.16c-.38-.52.58-.18.58-.56a7.22 7.22 0 0 1-2.41.45c-.14-.51 1.47-.17.63-.63l1 .2c-.74-.8.59.06-.09-.8-1.28-.15-1.43.26-2.71.11-.29.28.09.42-.2.7-1.82.51-1.43-1.28-2.76-.6-.35.34-.49 1-1.44.64l.33-.58c-1.24 0-.71.83-2 .44.23-.22 1-.19.79-.26-.85-.45-.6.33-1.25.33l-.13-.51c-1.32.08-2.78.45-4.24.54.08-.15.33-.31 0-.46a20 20 0 0 1-5.73-.37l-.68.44c-.16 0-.29-.2-.12-.28-.7-.17 0 .28-.37.45s-.52-.25-.27-.39c-1.23.38-3.49.81-4.78.34l.25-.13c-1-.18-1.13.9-2.07.49l.18-.08c-2.18-.19-4.59.21-6.25-.45-.32.63-2.16-.29-2.3.6a8.49 8.49 0 0 0-2.65-.89c-.47 0-.69.55-1.27.64v-.46l-.78.49-.42-.56-.55.12c.22 0 .46.21.43.34a2.4 2.4 0 0 1-2.09-.56l-2 .39c0-.18.38-.25.65-.36-1.07.47-.19-.49-1.18-.06.13.11-.07.28-.09.37a4.73 4.73 0 0 0-2.43-.16l.16-.32c-1.49-.08-3.14.15-4.81.14.6.15.46.7 0 .76l-.2-.49c-.31.3.52.18-.13.55-.63 0-.42-.55-.06-.71l-.76.17c-.05-.15.13-.22.18-.41-.31.3-1.31-.49-1.76 0v-.15c-1.67 0-2.42.16-3.79.19 0 .42-.55.33-1 .67a18.19 18.19 0 0 0-3.31-.43c-.85.21-.25.36-.63.61-.07-.39-1.27-.35-.64-.63a21.78 21.78 0 0 0-3.68.39c.2.16.42.23.31.36-.34.06-.76-.16-.71-.35h.09c-2.06.58-4.74-1.12-6.38-.32h.09l-1.69.42c-.78-.07.47-.29-.11-.53-1.83.64-2.89-.09-4.4.34-1.16-1.14-4.13.08-5.71-.65l.09.27c-.4.26-.49-.15-.79-.21 0 .2.44.24.19.38-3.45.32-7.11-.39-10.64-.63-1.3-.07-.74 1.38-2.37.74l.47-.49c-2.61.59-5.33 0-7.89.48.16-.11.16-.26.41-.26-.54-.36-2 0-2 .28-.4 0-.1-.27-.34-.42-.54-.21-1.36.46-1.65.1 0 0 .16-.11.26-.14-.36.17-1.65 0-1.31.37-1-.2-1.83.19-2.59-.06-.5.46-1.64-.22-1.8.43.07-.68-1.68-.54-2.29-.23.2-.2-.52-.21-.29-.49-.69 0-1.32.13-1.2.48-1.27-.81-2.56.66-3.28-.38-2 .36-3.95.61-5.8.77.07-.68 2-.07 2-.78-1.75.28-2.76.86-4.5.69-.45-.09.26-.29.41-.4-1.75.27-3.38-.07-4.94.3 0-.06.17-.13.33-.18-.31 0-.71-.1-.68.21l.3-.09c.49.45-1.22.94-1.27 1.17.52-.88-1.54-.22-.71-1.33-.21 0-.46.2-.41.41-.3-.06-.4-.18-.09-.42-1.1.17-.71.5-1.71.49 0-.15.21-.21.31-.38a2.56 2.56 0 0 1-1.85.45c.05-.09 0-.2.2-.2-1.45 0-2.46.77-4.05.49.47-.65-.54-.21-.62-.77l-.86.16.34.28c-.74 0-1.4.39-2 .21l.55-.23-1.4.11.79.21c-.75.29.08.71-.91.55.2-.06-.75 0-1.14-.33a1.75 1.75 0 0 1-1.31.23c-.14-.18.12-.62 0-.74-.36.47-1.74.13-2.21.63a.42.42 0 0 0 .11-.47l-.3.38c-.35-.12-.4-.18-.34-.41-1-.07.33.71-.91.4.1 0 0-.09.26-.15-1.24-.16-2.4.25-3.54.06-.34-.57 1-.14.61-.62-1.64.11-3.4.68-5 .55l.3.06c-.22.8-1.18-.39-2 0 .2-.06.26-.44.21-.35a16 16 0 0 0-3.88.44l.2-.2a20.27 20.27 0 0 0-2.38-.2c-.21.21-.6.17-.36.47-2.14-1.16-4.08.62-6-.35.23 0 .54-.17.36-.18l-1.62.19c.13.35.22.21.56.48a1.68 1.68 0 0 1-1.24.32c.73-.23 0-.56-.32-.75.06.1-.05.22 0 .33-.85-.62-.15.7-1.3.28l.06-.18a4.08 4.08 0 0 1-1.29.28c-.2-.4.46-.19.49-.52-.66 0-1.29.76-1.88.36.27-.11.67-.11 1-.22a1.74 1.74 0 0 0-1.2-.43l-1.11-.21.29.13c-.82 1-1.67.19-2.77.87 1.07-.64.18-.37.26-.83-.28-.12-.71-.26-.59-.39-.52.37-.87-.29-1.6.25 0-.15-.56 0-.44-.39-.68.12.16.26.1.44-1 .5-2.45-.6-4 .08-1.3.28-1.54.78-2.74 1-.4-.23.33-.53.33-.53a2.86 2.86 0 0 0-1.76 0c.13-.12 0-.23-.19-.4-.49 0-.33.54-1 .32a2.1 2.1 0 0 1 .49-.59c-.58.14-1.16.41-1.76.54-.16-.25.36-.38.58-.55-.68.11-1.76.23-2 .63l.44.15c-.25 0-.13-.35.05-.42a.55.55 0 0 1 .87.28l-.43.1c.44.86 1.73-.14 2.59-.09l-.36.62.89-.51c.19.16.32.51-.11.6.62.31.55-.22 1.08.12.06.06 0 .09 0 .11l.61-.19c-.12.14.1.44-.28.35 1.09.36 1.76-.46 2.17 0h-.09c1.5-.21.14-.46 1.27-1l.76 1.13.15-.46c.16 0 .47.06.41.24.58-.32-.1-.2.24-.5.75.42 2.06-.19 2.23.54.27-.35-.71-.27.08-.51.23.78.93-.14 1.61.22-.21.41-.85.19-.17.55.41-.68 1.33.15 1.91 0 0-.54 1.26-.22 2.22-.41-.06.19 1.83.3 2.73.5v.09c.18-.55 1.11-.44 1.78-.56 0 .33-.15.46-.51.61h.63a1.13 1.13 0 0 1 .76-.34l-.16.42c.85 0 1.71-.49 2.8-.21.06-.39-.87-1.07.28-1.33.05.21.09.56-.21.65.1 0 .35-.17.55-.09l-.46.35c.5.16.26-.29.66-.26 0 .3.29.22.23.45-.1 0-.34-.12-.5 0a2.07 2.07 0 0 1 1.17.46.34.34 0 0 1 .33-.44c.85 0 .29.36.78.51.21-.21.75 0 .76-.44.25 0 .3.21.39.33.44-.19 2-.05 1.55-.53h-.11.07c1.44-.44 3 .26 4.41.07v.14a12.07 12.07 0 0 0 2.5-.41c.25 0 .6.27.49.44a2.55 2.55 0 0 1 1.66 0c-.65.26.23.23-.67.19.85.13 1 .36 2 0-.31.38.63.48 1 .36l-.59-.27a6.49 6.49 0 0 1 1.25 0l-.22.5c1.73.61 3.12-1 4.44 0 .45-.35-.94-.24-.53-.65.79.07 1.62.78 1.87.79 1.09.27 1-.73 2.16-.55-.15-.17-.29-.65.57-.82.79.07 1 .75.47.89-.19 0-.28 0-.27-.1-.26.07-.6.14-.28.34l.1-.18c.4.18 1.49.16 1.23.45.61-.17.26-.29-.18-.38a25.43 25.43 0 0 0 2.64.18c-.17-.1-.32-.31-.15-.31 1.54.22.68-.33 1.72-.41.59.27-.21.65.84.42.64.18.14.47-.12.62 1-.35 1.79.22 2.34.28l-.51.15a2.56 2.56 0 0 1 .8-.08l-.29-.36c.3.06.55.06.55.21.3-.23-.24-.59.37-.91.39.18 1.2-.19 1.34.28-1.24-.16.13.47-.92.55a1.59 1.59 0 0 1 .75 0c0 .05 0 .1-.12.12 1.19.43.54-.53 1.78-.52-.16.27.28.5.48.45-.49 0-.23-.45.22-.65.79.21.86-.15 1.27-.13l-.47-.1c.16-.26.56-.23 1.11-.31 0 .2-.5.14-.31.23.61-.47 1.38.49 2.24.17.39.18 0 .5.38.62 1-.34 1 .37 2 .08-.29-.36-.34-.27.37-.62l-1.65.25 1.06-.52c-.5 0-1.06.23-1.35.17.5-.29.45-.2.21-.5.68.54 1.35-.31 2.14 0v.88c1.18.4 2.1-.45 3.64-.23l-.49-.15c.2-.35 1 0 1.44-.19 0 .29.27.4.48.59 0-.22 1.13 0 1.27-.58l.68.39c1.25.16 1.42-.84 2.62-.74-.36.32.18.53-.62.76.4 0 .76.06.76-.15.24.19 1.11-.39 1.47-.11.17-.13.23-.44.68-.42v.15c0-.15.7-.2.31-.53 1.23.92 3.44-.07 4.51.73.87-.1 1.91-.2 2.7-.22 0 .09 0 .15-.15.12 1.09.27.67-.85 1.91-.54.64.47-.66.25-.26.44.17 1 1.49-.14 2.33.43l-.2.06c.63.33 1.55-.37 2.6-.3 0 0-.06.09 0 .15a7.8 7.8 0 0 1 3.06-.8c-.31.38-.45.2-.26.59.45-.06-.13-.63.76-.73.3.2.94.39 1 .8h-.85c.44.54 1.1 0 1.54.08v.23c1.29-.08 1.31-.66 2.7-.62l-.14-.18c.76-.58.64.33 1.4-.11l.23.6a17.92 17.92 0 0 1 2.66-.69 8.66 8.66 0 0 1-2.22.93c.5 0 1.7 0 2-.34-.21.06-.46.2-.66.11a3.85 3.85 0 0 1 2.41-.68c-.17 1.15 2.59.29 3.31 1.18 1.75-.42 3.48.18 5.53.11-.73-.89.6 0 .47-.94.48-.06.66 0 .7 0l1.44.54c.35.27-.45.21-.4.41 1 .07.43.39 1.12.63-.14-.32.37-.47 1-.34l-.84-.42c1.46-.49 1.26.77 2.73.28l-.46.29c.75-.17 2.78 0 3.52-.73.13.11.31.36 0 .42 1.8.11 4-.78 5.41-.33l-.14.23c.34-.07.59-.42 1-.2 0 .09-.14.23 0 .24a2.42 2.42 0 0 1 1.34-.26l-.38.25c1.76.29 2.7-.62 4.17-.77 0 .66 1.38.88 2.07 1v.1c2 .08 3.47-.55 5.37-.81 1.18.72 4 .3 5.88.7-.29-.12 0-.51.38-.58.44.13 1.23-.46 1.16.15h-.16c.33.59 1.24.43 2 .45l.11-.79c1.87 1.15 4.88-.43 5.9.61.45-.2 1-.2 1.45-.4v.43a18.85 18.85 0 0 0 3.41.06l-.32.3c.87 0 1.1-1.22 1.9-1.25l.24.63c1.52 0 3 .55 4.55 0a.36.36 0 0 1-.32.3c.71 0 2.76.43 2.5-.44 0 .56 1.56 0 2.38-.2l-.12.42a2.6 2.6 0 0 1 1.67-.83c.23.06.2.34-.1.23.76.22.59-.4 1.52-.17l-.35.26c.79 0 .72-.11 1.15-.42s1.49.11 1.61.49a.93.93 0 0 1 1-.43c.06.14-.1.23-.19.27 1.31.29 2-.49 2.85-.07a.31.31 0 0 0 .15.24 14.79 14.79 0 0 1-1.8-.06c0 .39.84.45.17 1 .68-.29 1.83-.93 2.65-.74a.36.36 0 0 1 .11.13h-.08a.79.79 0 0 0 .51-.06 3.48 3.48 0 0 0 .68.12c.1.31 1 .17 1.39.18 0-.42.51-.35 0-.7.06 0-.08.05-.36.07a.8.8 0 0 0-.18 0h-1a1.05 1.05 0 0 1 1.14-.16 8.73 8.73 0 0 1 .58-.68c.58.59 1.68.91 1.84 1.27 1.28-.23 3-.15 3.82-.95.36-.1.42.23.55.36-.21.08-.46.06-.57.18.73-.21 2.15-.08 2.33-.64.91.25-.52.51.74.42l-.17.17c2.48.89 4-1.41 6.78-.27-.19-.07-.28-.11-.32-.2 3.13.5 6.45-.47 9.55.32.88.16 1-.19 1.51-.46l.19.46.91-.53c1.31-.38 2.26 1.11 3.9.39l-.21-.3c.59 0 1.87-.18 1.78.17.06-.06.19-.32.42-.16v.24l1.45-.41c1.13.17-.18.94 1.47 1 .61-.09 1.74-.69 1.51-.85s-.63-.15-.65-.39l.56-.12c.1-.7.53-1.41-.84-1.9l-1 .42-.31-.33h.81c-.46-.31-.75 0-1.07.16a.67.67 0 0 0-.4-.37l-.94.67c-.11-.28.42-.55-.21-.7-.44.31.42.62-.3.82-.46-.32-.33-.58-.86-.31-.08-.18 0-.29.25-.37-.48.22-1.27.09-1.51.46-.48-.39-1.62.1-1.57-.56a2.77 2.77 0 0 1-1.28.55c.8-.79-1.64 0-1.43-.9-.59.72-2.14.32-3.19.72.06-.06.17-.18.26-.14a3.33 3.33 0 0 1-1.14-.41c-.08.59-1 .73-1.49 1.09-.73-.57.44-.69.21-1.24 0 .48-1.26.48-1 .88-.56-.36-.48-.18-.77-.66-.09.73-.51.12-1 .57-.81-.36-.21-.68-1.09-.46-.51-.25.27-.51.27-.51zm-21 1.27h.44zm-1.76 0h.77a.19.19 0 0 1-.19.28c.14-.06-.28-.18-.54-.27zm3.73 2.92c-.28.06-.37 0-.41-.11a3.4 3.4 0 0 0 .48 0 .6.6 0 0 1-.03.12z"/><path class="cls-1" d="M722.07 118.28a.35.35 0 0 1 .11 0l-.16-.1-.1.14zm-159.68-.63a.16.16 0 0 1-.08-.06s.07.05.08.06zm131.13-2.55v.11l.15-.09-.15-.02zm-140.83 1.11a.19.19 0 0 0-.12-.11s.06.07.12.11zm-4.19-.1l-.59-.15a3 3 0 0 0 .59.15zm-3.22-.21a.62.62 0 0 0-.06.18zm51.23-.49h.12c.3-.1.1-.07-.12 0zm-15.24.98a4.19 4.19 0 0 1 .49-.2c-.28-.03-.49-.04-.49.2zm32.26-1.49zm-31.07 1.3a1.28 1.28 0 0 0-.7 0 1.65 1.65 0 0 0 .7 0zm-51.14-.49h-.16a.11.11 0 0 1 0 .06zm-.18.05h-.17c.08.05.15.05.17 0zm-.53.16l.36-.11c-.13 0-.28-.01-.36.11zm4.97-.01v-.16a.34.34 0 0 0 0 .16zm1.3-.05c-.31 0-.78-.32-1.21-.23v.12c.16-.22.91.37 1.21.11zm5.41 1.89l-1.09-.12c.19.16.44.38-.05.42 1.37.49-.29-.36 1.14-.3zm3.37.25c-.59.08 0 .24 0 .33.34-.16.43-.2 0-.33zm24.34 0l-.06.38c.44-.06 0-.15.06-.38zm4.65-1.99l-.44-.24-.21.35.65-.11zm2.74 2.73l-.19.06.75-.14-.56.08zm40.88-.14l-.14-.47c-.3.09-.36.62.14.47zm17.65-.48a.79.79 0 0 0 1 .16c-.41-.03-.8-.22-1-.16zm52.92.77l-.36.16.67-.13-.31-.03z"/><path d="M157 20.79c2.13 2.4 5.49 3.78 10.23 4.29a13.88 13.88 0 0 0-2.1 3.12c-5.7-.9-9.27-3-11.64-6.75-1.77 2.67-5.1 5-11.22 6.69a14.56 14.56 0 0 0-2.27-2.88c5-1.14 7.92-2.7 9.57-4.47h-9V17.7h10.77a13.75 13.75 0 0 0 .3-1.89H144v-2.88h7.71v-1.8h-8.19v-2h-2.72V2.76h10.95V.15h3.66v2.61h11v6.39H164v2h-8.76v1.8h8.16v2.88h-8.2a10.19 10.19 0 0 1-.2 1.87h11.85v3.09zm-5.34-12.54V6.54h3.57v1.71h7.47V5.88h-18.36v2.37zm28.53-5.79a25 25 0 0 0-.72 2.64 78.57 78.57 0 0 0-1.41 11.49 13.75 13.75 0 0 0 .12 1.92c.39-1.05.87-2 1.32-3l1.83 1.49a70.87 70.87 0 0 0-2.13 7 5.86 5.86 0 0 0-.15 1.38v1.23l-3.36.24a35.84 35.84 0 0 1-1.17-9.48A88.05 88.05 0 0 1 175.78 5a22.29 22.29 0 0 0 .27-2.91zm18.24 22.41a30.3 30.3 0 0 0-3.6-3c-.18 2.82-1.8 4.86-5.82 4.86s-6.66-1.74-6.66-4.86 2.55-5.1 6.6-5.1a13.35 13.35 0 0 1 2 .12c-.09-1.83-.18-4-.21-6.09h-2.13c-1.74 0-3.42-.06-5.19-.18V7.14a49.26 49.26 0 0 0 5.19.27h2.1c0-1.47 0-2.67-.06-3.3a16.81 16.81 0 0 0-.18-1.95h4.26a19 19 0 0 0-.18 1.92c0 .66-.09 1.77-.09 3.09 1.54-.17 3.13-.42 4.54-.72v3.69c-1.44.21-3 .39-4.62.51.06 2.88.21 5.25.33 7.26a18.86 18.86 0 0 1 5.73 3.84zM191.05 20a9.26 9.26 0 0 0-2.4-.33c-1.68 0-2.82.69-2.82 1.8s1.2 1.74 2.76 1.74c1.83 0 2.46-1 2.46-2.7zm21.21 7.6a56.31 56.31 0 0 0-6.45-6.6l3.12-2.7a56.23 56.23 0 0 1 6.54 6.57zm35.85-25.68v25.8h-3.84v-1.89H231v2h-3.69V1.92zM231 5.52V12h13.32V5.52zm13.32 16.71v-6.72H231v6.72zm30.31-12.69a26.21 26.21 0 0 0 10.47 10.89 15.17 15.17 0 0 0-2.76 3.24 24.54 24.54 0 0 1-4.89-4v3.42h-5v5.07h-3.75v-5.09h-5.16v-3.15a26.76 26.76 0 0 1-4.68 3.84 17.64 17.64 0 0 0-2.61-3 26.65 26.65 0 0 0 10.34-11.22h-9.15v-3.6h11.28V.15h3.75v5.79h11.37v3.6zm-5.91 9.9V12.9a35 35 0 0 1-4.72 6.54zm8.52 0a33.44 33.44 0 0 1-4.77-6.6v6.6zm19.95-16.98a25 25 0 0 0-.72 2.64 78.57 78.57 0 0 0-1.41 11.49 13.75 13.75 0 0 0 .12 1.92c.39-1.05.87-2 1.32-3l1.83 1.49a70.87 70.87 0 0 0-2.13 7 5.86 5.86 0 0 0-.15 1.38v1.23l-3.36.24a35.84 35.84 0 0 1-1.17-9.48A88.05 88.05 0 0 1 292.78 5a22.29 22.29 0 0 0 .27-2.91zm18.24 22.41a30.3 30.3 0 0 0-3.6-3c-.18 2.82-1.8 4.86-5.82 4.86s-6.66-1.74-6.66-4.86 2.55-5.1 6.6-5.1a13.35 13.35 0 0 1 1.95.12c-.09-1.83-.18-4-.21-6.09h-2.13c-1.74 0-3.42-.06-5.19-.18V7.14a49.26 49.26 0 0 0 5.19.27h2.1c0-1.47 0-2.67-.06-3.3a16.81 16.81 0 0 0-.18-1.95h4.26a19 19 0 0 0-.18 1.92c0 .66-.09 1.77-.09 3.09 1.59-.17 3.18-.42 4.59-.72v3.69c-1.44.21-3 .39-4.62.51.06 2.88.21 5.25.33 7.26a18.86 18.86 0 0 1 5.73 3.84zM308.05 20a9.26 9.26 0 0 0-2.4-.33c-1.68 0-2.82.69-2.82 1.8s1.2 1.74 2.76 1.74c1.83 0 2.46-1 2.46-2.7zm42.66-6.74h-2.64v14.85h-3.39V13.26h-2.91c0 4.47-.66 10.8-4.53 14.94a8.58 8.58 0 0 0-2.55-2.43c.15-.18.33-.36.48-.54h-8.52v2.1h-3.09V1.14h3.09V17.4a17 17 0 0 0 3.9-5.64h-3.33v-3h3.63V.42h2.91v7a34.1 34.1 0 0 0 1.38-5.13l2.79.66c-.75 1.8-1.53 3.9-2.19 5.22l-2-.66v1.25h3.6v3h-3.6v.42c.84.69 3.24 2.91 3.81 3.48l-1.9 2.34c-.39-.63-1.14-1.65-1.89-2.61v6.15h-2.91v-5.16a15.7 15.7 0 0 1-2.94 4.08 15.63 15.63 0 0 0-1.26-2.82v4.5h10.23v.21a24.1 24.1 0 0 0 1.47-9.45V2.49l2.1.57a33.94 33.94 0 0 0 7.23-2.58l2.88 2.61a47.78 47.78 0 0 1-8.79 2.7V10h8.94zm-22.41-5.1a20.11 20.11 0 0 0-1-5.16l2.16-.69a18.64 18.64 0 0 1 1.17 5.07zm52.98 9.6a.38.38 0 0 0 .33-.15 1.86 1.86 0 0 0 .18-.93c.06-.57.09-1.77.09-3.33a7.73 7.73 0 0 0 2.19 1.2 25.06 25.06 0 0 1-.33 4.05 2.6 2.6 0 0 1-.84 1.53 2.55 2.55 0 0 1-1.59.45H380a2.76 2.76 0 0 1-1.95-.72c-.45-.54-.66-1.17-.66-3.36v-2.19l-1.2 2.37a19.2 19.2 0 0 0-1.74-1.62 12.37 12.37 0 0 1-3.87 6.12 9 9 0 0 0-1.26-1.56v.06c-4.65.48-9.51 1-13 1.29l-.21-2.91c1.47-.09 3.27-.21 5.25-.36v-1.83h-4.41v-2.49h4.41v-1.62h3c-.63-.36-.78-1.11-.78-2.43V8.1H362c-.36 2.46-1.44 4-4.92 4.77a6 6 0 0 0-1.41-2.1c2.52-.45 3.33-1.26 3.6-2.67h-3V5.64h5V4.17h-4v-2.4h4V.15h3.15v1.62h4v2.4h-4v1.47h4.83V8.1H366v1.23c0 .54.06.6.39.6h.69c.36 0 .45-.15.51-1.38a6.46 6.46 0 0 0 2.13.84c-.21 2.16-.87 2.67-2.28 2.67H366a3.91 3.91 0 0 1-1.47-.21v1.53h4.08v2.49h-4.08v1.59c1.59-.15 3.21-.27 4.8-.42V18a11 11 0 0 0 2.49-4.92 41.27 41.27 0 0 0-2.4-1.59l1.44-2.64q.72.4 1.53.9.14-1.26.18-2.61H370V4h2.61c0-1.23.06-2.49.06-3.84h3.21c0 1.32 0 2.61-.06 3.84h4.77v12.44a4.63 4.63 0 0 0 .06 1.17.26.26 0 0 0 .27.15zm-25.5 9a14.6 14.6 0 0 0 3.48-5.25l3.45.9a17 17 0 0 1-3.54 5.7zm12-4.56a33.07 33.07 0 0 1 .69 5.19l-3.54.45a35.86 35.86 0 0 0-.48-5.31zm6-.24a28.69 28.69 0 0 1 1.62 5.16l-3.57.69a26.51 26.51 0 0 0-1.41-5.31zm1.86-14.88a39.35 39.35 0 0 1-.45 4.5 26 26 0 0 1 2.16 1.71V7.11zm4.2 14.31a43.1 43.1 0 0 1 3.69 5.61l-3.66 1.17a34.77 34.77 0 0 0-3.45-5.7zm15.27-11.1a3.84 3.84 0 1 1-3.84 3.84 3.87 3.87 0 0 1 3.84-3.84zm34.17-3.15a22.82 22.82 0 0 1-8.07 5.46h9.6V28h-3.63v-.87h-11.07v1h-3.45V15.3c-1.35.3-2.67.57-4 .78a23.24 23.24 0 0 0-2.21-3.08 46.71 46.71 0 0 0 14.34-3.72h-.09a15.21 15.21 0 0 1-5.07.51 11.88 11.88 0 0 0-1.44-3.06c1.56.09 3.45.09 4 .06s.66-.09.66-.48V.12h3.6v6.33c0 1.23-.21 2-.87 2.43a15.3 15.3 0 0 0 4.32-3.27zm-12.75-4.59a23.88 23.88 0 0 1-6.9 6.87c-.66-.63-2-1.89-2.79-2.49a17.34 17.34 0 0 0 6.24-5.49zm10.65 12.72h-11.07v1.41h11.07zm-11.07 5.34h11.07v-1.53h-11.07zm11.07 3.9V23h-11.07v1.47zm.93-23.34a34.61 34.61 0 0 1 6.42 5.64l-3.09 2a31.9 31.9 0 0 0-6.21-5.85zm35.46 19.65a17.58 17.58 0 0 0 2.79-.24v4.35a23.26 23.26 0 0 0-2.79-.15H443.8a25.07 25.07 0 0 0-2.94.15v-4.35a16.2 16.2 0 0 0 2.94.24h7.62V8.58h-5.79c-.81 0-2.1.06-2.85.12V4.59a22 22 0 0 0 2.85.18H462c.9 0 1.95-.09 2.82-.18V8.7c-.9-.06-1.95-.12-2.82-.12h-6.33v12.24zm33.72-13.35c-.75.75-1.68 1.77-2.31 2.49a45.27 45.27 0 0 1-6.3 5.88v7.56c0 1.2.12 2.91.21 3.84h-4.32a34.56 34.56 0 0 0 .24-3.84v-5.13a52.67 52.67 0 0 1-9.24 3.73l-2.31-3.54a37 37 0 0 0 12.24-5 19.29 19.29 0 0 0 5-4.5h-10.82c-1.08 0-3 .06-3.9.15V5.13a28.22 28.22 0 0 0 3.84.21h5.19V3.78a19.38 19.38 0 0 0-.18-2.78h4.29a24.59 24.59 0 0 0-.18 2.76v1.58h3.6a9 9 0 0 0 2.49-.3zm-4.23 7.14a67.63 67.63 0 0 1 7.2 4.35l-2.52 3.3a47.18 47.18 0 0 0-7.17-4.77zM515 7.71a40.2 40.2 0 0 1-2.28 3.63V28.2h-3.33V15.36a26.56 26.56 0 0 1-2.39 2.22 21.67 21.67 0 0 0-1.86-3.33 25.18 25.18 0 0 0 6.69-7.71zm-.51-6.33a36.88 36.88 0 0 1-7.17 7.32 27.3 27.3 0 0 0-1.86-2.61 25.07 25.07 0 0 0 5.87-5.94zM531.1 16.5a16.39 16.39 0 0 1-4.56 6.5 26.92 26.92 0 0 0 7.46 2.17 13.34 13.34 0 0 0-2.13 3.06 24.3 24.3 0 0 1-8.28-3.15 29.32 29.32 0 0 1-8.49 3.21 11.6 11.6 0 0 0-1.71-3 25.94 25.94 0 0 0 7.38-2.34 16.34 16.34 0 0 1-2.37-2.61 29 29 0 0 1-2.7 1.86 20.79 20.79 0 0 0-2.31-2.64 19.36 19.36 0 0 0 6.7-5.56l-6 .18-.3-3.15h4.62c.42-.36.87-.75 1.29-1.14a34.13 34.13 0 0 0-5.28-4.26l2.13-2.31c.51.33 1.08.69 1.65 1.08a31.07 31.07 0 0 0 3.21-4.4l3.09 1.59a72.698 72.698 0 0 1-4 4.44 22.56 22.56 0 0 1 1.71 1.5A53.83 53.83 0 0 0 527 2.22L530.17 4a95.87 95.87 0 0 1-7.35 7l5.37-.09c-.48-.69-1-1.32-1.5-1.92l2.76-1.53A29.58 29.58 0 0 1 534 14l-3 1.68a17.32 17.32 0 0 0-1-2c-2 .09-4 .15-6 .21-.36.6-.75 1.2-1.17 1.77h5.43l.57-.12zm-10.5 1.83a13.7 13.7 0 0 0 3 2.91 13.36 13.36 0 0 0 2.88-2.94h-5.82zm24.99 3c1.17 2 3.27 2.85 6.33 3 3.6.15 10.68.06 14.82-.27a16.27 16.27 0 0 0-1.11 3.48c-3.72.18-10.08.24-13.74.09s-6-1-7.77-3.33c-1.2 1.17-2.43 2.31-4 3.6l-1.68-3.54a36 36 0 0 0 3.72-2.76V15h-3.36v-3.24h6.75zm-2.13-13.44a23.38 23.38 0 0 0-4.5-5l2.73-2a26.07 26.07 0 0 1 4.71 4.77zm5.28 2.7c-.54.57-1.08 1.08-1.62 1.56a25.28 25.28 0 0 0-2.61-2.82 21.75 21.75 0 0 0 6.63-9.12l3.54 1a34.29 34.29 0 0 1-1.53 3.18h3.42a37.2 37.2 0 0 0 1.26-4l3.93.75c-.54 1.08-1.08 2.19-1.62 3.21h5.31v3h-5.94V9.3h5.13v2.88h-5.13v2h5V17h-5v2H566v3h-17.26zm7.35-3.18h-3.9V9.3h3.9zm0 4.77h-3.9v2h3.9zm0 4.86h-3.9v2h3.9zm42.09-15.75v26.85h-3.81v-1.5h-17.76v1.5H573V1.29zm-3.81 22.05V4.56h-17.76v18.78zm-1-4.65v2.91h-15.59v-2.91h6v-3.54h-4.95v-3h4.95V9.33h-5.7V6.21h14.73v3.12h-5.73v2.82h5.07v3h-1.65a23.15 23.15 0 0 1 2.25 2.67l-1.56.87zm-6.21 0h3a22.84 22.84 0 0 0-2-2.61l1.83-.93h-2.79zm27.1 4.31a4.85 4.85 0 1 1-4.86-4.86 4.86 4.86 0 0 1 4.86 4.86zm-2.16 0a2.69 2.69 0 1 0-2.7 2.67 2.69 2.69 0 0 0 2.7-2.67zM33.24 94.15c0 1.29.6 1.62 1.92 1.89a28.06 28.06 0 0 0 3.48.18 50.6 50.6 0 0 0 10.44-1v4.38a85.25 85.25 0 0 1-10.68.63 33.39 33.39 0 0 1-5-.33c-2.61-.48-4.11-1.89-4.11-4.5V79a25.24 25.24 0 0 0-.29-3.12h4.44a22.71 22.71 0 0 0-.2 3.12v5.67a84.7 84.7 0 0 0 10.47-3.36A25.35 25.35 0 0 0 47 79.69l1.62 3.78c-1.17.48-2.49 1-3.51 1.44a119.08 119.08 0 0 1-11.87 3.69zm25.59-8.52c1.08.09 3.27.18 4.83.18h16.11c1.38 0 2.73-.12 3.51-.18v4.71c-.72 0-2.25-.15-3.51-.15H63.66c-1.71 0-3.72.06-4.83.15zm54.6 6.99a86.65 86.65 0 0 0-10.83-4.47v8.49c0 .87.15 3 .27 4.17h-4.68a32.1 32.1 0 0 0 .3-4.17V79.42a20.92 20.92 0 0 0-.3-3.63h4.68a32.63 32.63 0 0 0-.27 3.63v4.41a98 98 0 0 1 12.54 4.65zm20.13-5.79l-2.19 3.36a78.35 78.35 0 0 0-6.84-4.26l2.19-3.33c2.01 1.08 5.28 3.15 6.84 4.23zM136 93.7a30.58 30.58 0 0 0 11.67-11.25l2.33 4.08A35.6 35.6 0 0 1 128 101l-2.25-4A33.29 33.29 0 0 0 136 93.7zm2.19-13.65l-2.25 3.33c-1.68-1.17-4.8-3.21-6.78-4.32l2.19-3.3c1.97 1.11 5.27 3.24 6.83 4.29zm40.61 19.68v2h-3.78v-1.2h-11.31c-.84 0-2.07.06-2.58.09V97a25.74 25.74 0 0 0 2.61.12h11.34v-4h-9.57c-1.14 0-2.58 0-3.27.06v-3.56c.78.06 2.13.09 3.27.09h9.57v-3.63h-9.9c-1.11 0-3 .06-3.72.12v-3.63c.78.09 2.61.15 3.72.15h11.34c.72 0 1.83 0 2.31-.06v2zm20.25-9.63l-3.66 1.38a60.6 60.6 0 0 0-2.73-6.93l3.6-1.29c.74 1.53 2.19 5.16 2.79 6.84zm15.24-6.24c-.36 1-.54 1.59-.72 2.19a24.19 24.19 0 0 1-4.08 8.79 23.43 23.43 0 0 1-10.05 7.44l-3.15-3.21a20.19 20.19 0 0 0 10-6.27 20.22 20.22 0 0 0 3.81-10.29zm-8.61 4.38l-3.6 1.26a50 50 0 0 0-2.43-6.66l3.57-1.17c.57 1.33 2.04 5.19 2.46 6.57zM248 80.86a12 12 0 0 0-1 2.16 31.3 31.3 0 0 1-5.22 10c-2.85 3.48-6.48 6.21-12.12 8.46l-3.54-3.18c6.15-1.83 9.48-4.44 12.09-7.41a21.33 21.33 0 0 0 4.26-8.19h-8.43a34.2 34.2 0 0 1-7.51 7.3l-3.36-2.49a26.42 26.42 0 0 0 9.36-9.66 14.43 14.43 0 0 0 1.35-3.15l4.38 1.44c-.72 1-1.47 2.4-1.83 3.06l-.09.15h6A9.62 9.62 0 0 0 245 79zm15-4.23a25 25 0 0 0-.72 2.64 73.45 73.45 0 0 0-1.44 10.89 14.34 14.34 0 0 0 .12 1.92c.42-1 .9-2 1.32-3l1.86 1.44a71.63 71.63 0 0 0-2.14 7.29 8.73 8.73 0 0 0-.18 1.38c0 .33 0 .81.06 1.23l-3.42.24a37.93 37.93 0 0 1-1.17-9.72 82.37 82.37 0 0 1 1.23-11.76 22.2 22.2 0 0 0 .3-2.91zm7 14.67a9.78 9.78 0 0 0-.36 2.49c0 1.32 1.14 2.1 4.14 2.1a34.24 34.24 0 0 0 7.44-.78l.09 4a41.29 41.29 0 0 1-7.68.6c-5.13 0-7.56-1.86-7.56-4.89a18.31 18.31 0 0 1 .51-3.87zm10.38-12.72v3.84a82.23 82.23 0 0 1-12.75 0v-3.84a60.62 60.62 0 0 0 12.66 0zM311 99.67a23 23 0 0 0-6.62-4.67v1c0 2.61-1.35 5.13-6.33 5.13-4.23 0-7.71-1.38-7.71-5.43 0-3.09 2.64-5.55 8.1-5.55a17 17 0 0 1 1.77.09c-.09-2.31-.21-4.86-.21-6.42 0-1.8 0-3.57-.06-4.83a18.85 18.85 0 0 0-.3-3.48h4.47c-.12.87-.21 2.31-.27 3.48v2.16c2.34-.06 5.82-.18 8.28-.45l.15 3.54c-2.49.24-6 .36-8.43.42.06 1.8.18 4.14.33 6.33a23.49 23.49 0 0 1 9 5.1zm-10.59-5.94a16.32 16.32 0 0 0-2.46-.21c-2.31 0-3.69.78-3.69 2 0 1.47 1.5 2 3.57 2s2.61-.87 2.61-2.82c-.05-.22-.05-.58-.08-.97zm42.85-14.79q-1.08.68-2.07 1.35c-1.59 1.11-4.71 3.75-6.57 5.25a10 10 0 0 1 2.79-.33c5 0 8.88 3.15 8.88 7.47 0 4.68-3.57 8.4-10.74 8.4-4.14 0-7.26-1.89-7.26-4.86 0-2.4 2.19-4.62 5.34-4.62a6 6 0 0 1 6.37 5.07 4.33 4.33 0 0 0 2.43-4c0-2.67-2.7-4.47-6.15-4.47-4.56 0-7.53 2.43-10.71 6l-2.7-2.79c2.1-1.71 5.67-4.74 7.44-6.18s4.74-3.87 6.21-5.16c-1.53 0-5.61.21-7.17.33a19.61 19.61 0 0 0-2.43.24l-.12-3.87c.84.09 1.86.15 2.7.15 1.56 0 7.92-.15 9.6-.3a14.33 14.33 0 0 0 2.28-.3zm-6.72 18.69c-.18-1.92-1.29-3.18-2.91-3.18-1.11 0-1.83.66-1.83 1.41 0 1.11 1.26 1.86 3 1.86a15.66 15.66 0 0 0 1.74-.09zm41.19.93c1 0 1.2-.81 1.35-4.5a10.19 10.19 0 0 0 3.24 1.47c-.39 4.71-1.29 6.33-4.26 6.33h-4c-3.36 0-4.29-1.14-4.29-5V79.69h-6.69l.51.12c-.33 1-.72 2-1.17 3.09h3.72l.6-.12 2.31.78c-1.56 9.63-5.67 15.6-11.4 18.51a12.84 12.84 0 0 0-2.58-2.82 16.33 16.33 0 0 0 6.81-5.73 43.45 43.45 0 0 0-4.05-2.79 15.7 15.7 0 0 1-1.5 1.62 19.42 19.42 0 0 0-2.6-2.35c2.85-2.49 4.95-6.72 6.06-10.35h-5.07v-3.38h26.76v3.42h-8v7.8a41.31 41.31 0 0 0 5.34-4.11l2.67 3.09a76 76 0 0 1-8 4.74v5.7c0 1.44.15 1.65 1.2 1.65zm-16.8-12.42c-.36.66-.75 1.29-1.14 1.92a36.9 36.9 0 0 1 3.81 2.34 23.65 23.65 0 0 0 1.4-4.26zm42.78.18c-1.17.84-2.31 1.62-3.54 2.4h10.89V102h-3.72v-.78H397v.9h-3.57v-9.77a86.8 86.8 0 0 1-4.59 1.89 19.66 19.66 0 0 0-2.19-2.94 53.4 53.4 0 0 0 11.16-5h-10.2v-3.13h9.63v-2.73h-7.05v-3.09h7.05v-3.24h3.54v3.24h6.51v1.47A36.53 36.53 0 0 0 410.4 75l3.06 1.56a43.88 43.88 0 0 1-5.91 6.6h7v3.15zm3.63 5.31H397v1.92h10.32zm0 6.66v-2H397v2zm-6.54-15.12h1.65a41 41 0 0 0 3.24-2.73h-4.89zm26.85-6.72a25 25 0 0 0-.72 2.64 78.57 78.57 0 0 0-1.41 11.49 13.75 13.75 0 0 0 .12 1.92c.39-1 .87-2 1.32-3l1.83 1.47a70.87 70.87 0 0 0-2.13 7.03 5.86 5.86 0 0 0-.15 1.38v1.23l-3.36.24a35.84 35.84 0 0 1-1.15-9.46A88.05 88.05 0 0 1 423.24 79a22.29 22.29 0 0 0 .27-2.91zm18.24 22.41a30.3 30.3 0 0 0-3.6-3c-.18 2.82-1.8 4.86-5.82 4.86s-6.66-1.74-6.66-4.86 2.55-5.1 6.6-5.1a13.35 13.35 0 0 1 1.95.12c-.09-1.83-.18-4-.21-6.09h-2.13c-1.74 0-3.42-.06-5.19-.18v-3.48a49.26 49.26 0 0 0 5.19.27h2.1c0-1.47 0-2.67-.06-3.3a16.81 16.81 0 0 0-.18-1.95h4.26A19 19 0 0 0 442 78c0 .66-.09 1.77-.09 3.09 1.62-.18 3.18-.39 4.59-.69v3.69c-1.44.21-3 .39-4.62.51.06 2.88.21 5.25.33 7.26a18.86 18.86 0 0 1 5.73 3.84zM438.51 94a9.26 9.26 0 0 0-2.4-.33c-1.68 0-2.82.69-2.82 1.8s1.2 1.74 2.76 1.74c1.83 0 2.46-1 2.46-2.7zm35.94-6.48a22.26 22.26 0 0 1-4.59 7 26.16 26.16 0 0 0 11.28 4.2 16.13 16.13 0 0 0-2.31 3.39A25.93 25.93 0 0 1 467 97.06a32.8 32.8 0 0 1-11.7 5.13 19.33 19.33 0 0 0-2.25-3.36 29.71 29.71 0 0 0 11.31-4.32 25.72 25.72 0 0 1-4.14-6.9l3.42-1a17.85 17.85 0 0 0 3.45 5.55 16.57 16.57 0 0 0 3.51-5.73zm-9.75-4.8a33.62 33.62 0 0 1-8.28 7.35 29.21 29.21 0 0 0-3-2.76 23 23 0 0 0 7.59-6zm8.07-1.72h-18.93v-3.44h11.34v-3.48h3.66v3.48h11.49V81H473a49.14 49.14 0 0 1 7.77 6.3l-3.18 2.46a45.82 45.82 0 0 0-7.62-6.69zm20.58 14.32c1.17 2 3.24 2.85 6.3 3 3.57.15 10.68.06 14.79-.27a14.74 14.74 0 0 0-1.11 3.48c-3.69.18-10.05.24-13.71.08s-6-1-7.77-3.32c-1.38 1.17-2.79 2.34-4.47 3.6l-1.65-3.57a41.29 41.29 0 0 0 4.2-2.73V89h-3.81v-3.25h7.23zm-1.77-13.41a24.35 24.35 0 0 0-5-4.89l2.42-2.28a25.7 25.7 0 0 1 5.22 4.62zm7.68 15.15h-3.36V81.61h6.72c-1.35-.63-2.79-1.23-4-1.71l2.29-1.9c1 .39 2.31.87 3.54 1.41a27.72 27.72 0 0 0 2.4-1.59h-10.68V75.1h13.77l.69-.18 2.13 1.71a34.15 34.15 0 0 1-5.34 4.05c.66.33 1.29.63 1.8.93h3.63V94c0 1.44-.27 2.19-1.23 2.67s-2.25.51-4.05.51a9.76 9.76 0 0 0-.87-2.79h2.28c.28 0 .45-.15.45-.45v-1.38h-3.54v4.38h-3.18v-4.38h-3.45zm0-12.87v1.62h3.45v-1.62zm3.45 5.81v-1.7h-3.45V90zm6.72-5.79h-3.54v1.62h3.54zm0 5.79v-1.7h-3.54V90zm37.5 3.79h-3.12V99h-3.63v-1.22h-5.4v.93c0 1.77-.42 2.49-1.59 3s-2.76.51-5.31.51a11 11 0 0 0-1.17-2.82c1.44.06 3.21.06 3.69.06s.75-.21.75-.75v-.93H522V95.2h9.12v-1.41h-11.85v-2.73h11.88v-1.29h-8.88v-2.4h8.88v-1.32H523v-5.94h8.13v-1.23H520v-2.82h11.19v-2h3.63v2h11.46v2.82h-11.5v1.23h8.52v5.94h-8.52v1.32h9v3.69h3.12zm-15.78-10v-1.43h-4.71v1.44zm3.63-1.44v1.45h4.86v-1.44zm0 8.7h5.4v-1.28h-5.4zm5.4 2.73h-5.4v1.42h5.4zm38.01-10.97a32.87 32.87 0 0 1-3.75 11.4 14.85 14.85 0 0 0 6 4.83 12.87 12.87 0 0 0-2.43 3.09 16.5 16.5 0 0 1-5.85-4.83 21.41 21.41 0 0 1-6.75 4.8 14.58 14.58 0 0 0-1.89-3.1h-6.93v1.77h-3.3V87.55h4v-4.62h-5.22V79.6h5.22v-5.49h3.57v5.49h4.92v3.33h-4.92v4.62h3.3a9.22 9.22 0 0 0-.84-.6c2.67-2.91 4.32-7.71 5.13-12.84l3.66.57a48.09 48.09 0 0 1-1.11 4.77h9.15v3.36zm-16.8 8.07h-4.8v4.83h4.8zm3.39 7.44a15.65 15.65 0 0 0 5.4-4.11 34.64 34.64 0 0 1-2.58-6.78 16 16 0 0 1-1.32 1.89c-.33-.3-.9-.81-1.5-1.29zm5.1-15.51a33.13 33.13 0 0 0 2.46 8 27.51 27.51 0 0 0 2.28-8zm28.32 14.43c1.14-.15 2-.3 2.76-.48 3.81-.9 6.75-3.63 6.75-8 0-4.11-2.22-7.17-6.21-7.86a64.56 64.56 0 0 1-1.77 8.1c-1.77 6-4.35 9.66-7.59 9.66s-6.06-3.63-6.06-8.64c0-6.84 6-12.72 13.68-12.72 7.35 0 12 5.13 12 11.61 0 6.24-3.84 10.68-11.34 11.82zm-2.31-9a47.69 47.69 0 0 0 1.59-7.2 9.32 9.32 0 0 0-7.48 8.61c0 3 1.2 4.47 2.31 4.47s2.38-1.86 3.58-5.88zm38.01 5.52h-2.64v5.76h-4.11v-5.76h-9.45v-3l8.3-13.44h5.28V90.4h2.64zm-6.75-3.36v-4.53c0-1.29.12-3.3.18-4.59h-.12c-.54 1.17-1.14 2.4-1.77 3.6L622 90.4zm12.72 6.66a2.75 2.75 0 1 1 2.73 2.88 2.76 2.76 0 0 1-2.73-2.88zm11.4-.15l2-2.82a6.9 6.9 0 0 0 4.89 2.25 3.73 3.73 0 0 0 3.93-4.08c0-2.58-1.5-4-3.75-4a5.31 5.31 0 0 0-3.33 1.17l-2-1.32.6-10.77h11.88V81h-8.07l-.42 4.72a5.74 5.74 0 0 1 2.67-.63c3.72 0 6.84 2.22 6.84 7a7.5 7.5 0 0 1-7.77 7.8 10.12 10.12 0 0 1-7.47-2.98zm30.45-21.63a47.81 47.81 0 0 1-2.88 6.18v20.61h-3.39V86.74a27.57 27.57 0 0 1-2 2.4 22.6 22.6 0 0 0-1.89-3.69 31.88 31.88 0 0 0 6.81-11.25zm18.57 9.57v3.27h-20v-3.27h4.59a17.55 17.55 0 0 0-1.2-4.11l2-.45h-4.23v-3.18h7.14v-3h3.66v3h7.5v3.18h-4.86l2.37.42c-.6 1.56-1.17 3.06-1.68 4.14zm-17.55 5.46h15.72V102h-3.63v-1.11h-8.61v1.26h-3.48zm3.48 3.24v4h8.61v-4zm.69-13.26a17.69 17.69 0 0 1 1.32 4.14l-1.59.42h7.17l-1.59-.3a32.14 32.14 0 0 0 1.38-4.26zM716 96.85a3.12 3.12 0 0 1 6.24 0 3.13 3.13 0 0 1-6.24 0zm.51-15.3l-.12-4.47h5.49l-.15 4.47-1 10.26h-3.09z"/></g></g></svg>