<svg xmlns="http://www.w3.org/2000/svg" viewBox="0 0 511.63 116.63"><defs><style>.cls-1,.cls-3,.cls-63{fill:none}.cls-2{clip-path:url(#clip-path)}.cls-3{stroke:#060001;stroke-miterlimit:10;stroke-width:.5px}.cls-4{clip-path:url(#clip-path-2)}.cls-5{clip-path:url(#clip-path-3)}.cls-6{fill:url(#Unnamed_Pattern_29)}.cls-7{clip-path:url(#clip-path-4)}.cls-8{fill:url(#Unnamed_Pattern_29-3)}.cls-9{clip-path:url(#clip-path-5)}.cls-10{fill:url(#Unnamed_Pattern_29-5)}.cls-11{clip-path:url(#clip-path-6)}.cls-12{fill:url(#Unnamed_Pattern_29-7)}.cls-13{clip-path:url(#clip-path-7)}.cls-14{fill:url(#Unnamed_Pattern_29-9)}.cls-15{clip-path:url(#clip-path-8)}.cls-16{fill:url(#Unnamed_Pattern_29-11)}.cls-17{clip-path:url(#clip-path-9)}.cls-18{fill:url(#Unnamed_Pattern_29-13)}.cls-19{clip-path:url(#clip-path-10)}.cls-20{fill:url(#Unnamed_Pattern_29-15)}.cls-21{clip-path:url(#clip-path-11)}.cls-22{fill:url(#Unnamed_Pattern_29-17)}.cls-23{clip-path:url(#clip-path-12)}.cls-24{fill:url(#Unnamed_Pattern_29-19)}.cls-25{clip-path:url(#clip-path-13)}.cls-26{fill:url(#Unnamed_Pattern_29-21)}.cls-27{clip-path:url(#clip-path-14)}.cls-28{fill:url(#Unnamed_Pattern_29-23)}.cls-29{clip-path:url(#clip-path-15)}.cls-30{fill:url(#Unnamed_Pattern_29-25)}.cls-31{clip-path:url(#clip-path-16)}.cls-32{fill:url(#Unnamed_Pattern_29-27)}.cls-33{clip-path:url(#clip-path-17)}.cls-34{fill:url(#Unnamed_Pattern_29-29)}.cls-35{clip-path:url(#clip-path-18)}.cls-36{fill:url(#Unnamed_Pattern_29-31)}.cls-37{clip-path:url(#clip-path-19)}.cls-38{fill:url(#Unnamed_Pattern_29-33)}.cls-39{clip-path:url(#clip-path-20)}.cls-40{fill:url(#Unnamed_Pattern_29-35)}.cls-41{clip-path:url(#clip-path-21)}.cls-42{fill:url(#Unnamed_Pattern_29-37)}.cls-43{clip-path:url(#clip-path-22)}.cls-44{fill:url(#Unnamed_Pattern_29-39)}.cls-45{clip-path:url(#clip-path-23)}.cls-46{fill:url(#Unnamed_Pattern_29-41)}.cls-47{clip-path:url(#clip-path-24)}.cls-48{fill:url(#Unnamed_Pattern_29-43)}.cls-49{clip-path:url(#clip-path-25)}.cls-50{fill:url(#Unnamed_Pattern_29-45)}.cls-51{clip-path:url(#clip-path-26)}.cls-52{fill:url(#Unnamed_Pattern_29-47)}.cls-53{clip-path:url(#clip-path-27)}.cls-54{fill:url(#Unnamed_Pattern_29-49)}.cls-55{clip-path:url(#clip-path-28)}.cls-56{fill:url(#Unnamed_Pattern_29-51)}.cls-57{clip-path:url(#clip-path-29)}.cls-58{fill:url(#Unnamed_Pattern_29-53)}.cls-59{clip-path:url(#clip-path-30)}.cls-60{fill:url(#Unnamed_Pattern_29-55)}.cls-61{clip-path:url(#clip-path-31)}.cls-62{fill:url(#Unnamed_Pattern_29-57)}.cls-63{stroke:#f9f1e7}</style><clipPath id="clip-path"><path class="cls-1" d="M0 0h45.25v45H0z"/></clipPath><clipPath id="clip-path-2" transform="translate(254.33 168.04)"><path class="cls-1" d="M-240-150h471.45v79.14H-240z"/></clipPath><clipPath id="clip-path-3" transform="translate(254.33 168.04)"><path class="cls-1" d="M-214.54-137.42h1.29v.89h-1.29zm0-4h1.29v.82h-1.29zm-4-5.32v2.17H-222v3.15h3.47v.82H-224v3.14h5.41v.89H-222v3.14h3.47v.92h-3.78v3.14h3.78v1H-223v3.14h4.46v2.38h4v-2.38h5.78v-3.14h-5.78v-1h5.07v-3.14h-5.07v-.92h5v-4h1.35v-3.14h-1.35v-4h-5v-2.17zm-12.39 17a23.18 23.18 0 0 0 2.06 5.53 9.13 9.13 0 0 1-2.06 2.47zm3.87-3.41h.83a35.91 35.91 0 0 1-.79 4.33 16.87 16.87 0 0 1-.77-2.75l-3.14.89v-2.08l3.38.77zM-231-140c.4-.89.77-1.77 1.11-2.69v1.69h2c-.92 2.38-2.06 5.25-3.14 7.69zm-7 3.87a30.11 30.11 0 0 1 1.91 4.86c.43-.52.86-1.07 1.26-1.65v15h3.83v-2.78a14.73 14.73 0 0 1 1.91 2.78 13.28 13.28 0 0 0 2.76-2.93c2.43 2 5.54 2.63 9.41 2.63h7.66a14.15 14.15 0 0 1 1.38-4c-2 .09-7.13.09-8.79.09-3.14 0-5.78-.49-7.81-2.35a38.13 38.13 0 0 0 2.12-11.44l-2.34-.37-.67.06h-.43c1.1-2.65 2.15-5.4 2.95-7.72l-2.77-.7-.61.15h-3a12.23 12.23 0 0 0 .4-1.16l-4-1.19a31.5 31.5 0 0 1-5.17 10.71"/></clipPath><pattern id="Unnamed_Pattern_29" data-name="Unnamed Pattern 29" width="45.25" height="45" patternTransform="matrix(.61 -.89 -.89 -.61 16147.16 6445.95)" patternUnits="userSpaceOnUse" viewBox="0 0 45.25 45"><path class="cls-1" d="M0 0h45.25v45H0z"/><g class="cls-2"><path class="cls-3" d="M.25 45V0m1.36 45V0m1.37 45V0m1.36 45V0M5.7 45V0m1.37 45V0m1.36 45V0M9.8 45V0m1.36 45V0m1.36 45V0m1.37 45V0m1.36 45V0m1.36 45V0m1.37 45V0m1.36 45V0m1.36 45V0m1.37 45V0m1.36 45V0m1.37 45V0m1.36 45V0m1.36 45V0m1.37 45V0m1.36 45V0m1.36 45V0m1.37 45V0m1.36 45V0m1.36 45V0m1.37 45V0m1.36 45V0m1.37 45V0m1.36 45V0m1.36 45V0m1.37 45V0"/></g></pattern><clipPath id="clip-path-4" transform="translate(254.33 168.04)"><path class="cls-1" d="M-190.1-126.8a21.85 21.85 0 0 0-3.56-2.13h4.82v6.83c0 .46-.18.61-.7.61h-1.23l1.44-.73-.8-3.17-2.21.85zm6.55-2.13h4.74a31 31 0 0 1-3.26 2.41 13.12 13.12 0 0 1-1.48-2.41m-1-3.85h3.29v.95h-3.29zm0-3.91h3.29v.89h-3.29zm-5.75-10.22v2.5h-10.82v8.79c0 4.58-.19 11.05-2.77 15.41a17 17 0 0 1 3.63 2.42c2.89-4.83 3.38-12.7 3.38-17.83v-4.94h8v1h-6v2.9h6v.89h-7.62v3h7.62v.95h-6.42v2.9h.34l-2 2a21.82 21.82 0 0 1 4.12 2.62c-2 .74-3.82 1.41-5.2 1.83l2.06 3.51c1-.45 2-1 3.14-1.49a13.46 13.46 0 0 1 .8 2.62c2.55 0 4.36-.06 5.69-.64s1.75-1.52 1.75-3.57v-1.58a14.7 14.7 0 0 0 7 5.4 15.26 15.26 0 0 1 2.7-3.57 14.66 14.66 0 0 1-4.73-2.29c1.35-.64 2.83-1.5 4.21-2.32l-3.13-2.5h1.47v-3.85h2.61v-3h-2.61v-3.79h-7.5v-1h9.74v-3.85h-10.82v-2.5z"/></clipPath><pattern id="Unnamed_Pattern_29-3" data-name="Unnamed Pattern 29" width="45.25" height="45" patternTransform="matrix(.61 -.89 -.89 -.61 16181.16 6445.95)" patternUnits="userSpaceOnUse" viewBox="0 0 45.25 45"><path class="cls-1" d="M0 0h45.25v45H0z"/><g class="cls-2"><path class="cls-3" d="M.25 45V0m1.36 45V0m1.37 45V0m1.36 45V0M5.7 45V0m1.37 45V0m1.36 45V0M9.8 45V0m1.36 45V0m1.36 45V0m1.37 45V0m1.36 45V0m1.36 45V0m1.37 45V0m1.36 45V0m1.36 45V0m1.37 45V0m1.36 45V0m1.37 45V0m1.36 45V0m1.36 45V0m1.37 45V0m1.36 45V0m1.36 45V0m1.37 45V0m1.36 45V0m1.36 45V0m1.37 45V0m1.36 45V0m1.37 45V0m1.36 45V0m1.36 45V0m1.37 45V0"/></g></pattern><clipPath id="clip-path-5" transform="translate(254.33 168.04)"><path class="cls-1" d="M-160.52-142.52h-1.2a40.53 40.53 0 0 1-5.47-.36v4.24c1.6.15 3.81.21 5.07.21a27.78 27.78 0 0 1-6.51 7.79l3.93 2.93a36.27 36.27 0 0 1 2.83-3.42 7.33 7.33 0 0 1 4.49-2 2.3 2.3 0 0 1 1.66.62c-3.38 1.76-7 4.3-7 8.23s3.6 5.31 8.61 5.31a83.83 83.83 0 0 0 8.79-.51l.16-4.73a45.74 45.74 0 0 1-8.86.94c-2.86 0-3.81-.52-3.81-1.8s.83-2.2 2.73-3.29c0 1.12-.09 2.25-.15 3h4.4c0-1.35-.1-3.39-.13-5 1.6-.7 3.08-1.28 4.25-1.71s3.07-1.16 4.15-1.46l-1.82-4.21c-1.29.61-2.55 1.19-3.87 1.77-1.08.48-2.06.88-3.29 1.46a4.45 4.45 0 0 0-4.06-2.14 14.9 14.9 0 0 0-3 .31 16.86 16.86 0 0 0 1.17-2.14c3.26-.12 7-.39 9.84-.76v-4.24a69.74 69.74 0 0 1-8.21.85 25 25 0 0 0 .67-2.74l-4.85-.4a18.23 18.23 0 0 1-.53 3.29"/></clipPath><pattern id="Unnamed_Pattern_29-5" data-name="Unnamed Pattern 29" width="45.25" height="45" patternTransform="matrix(.61 -.89 -.89 -.61 16213.16 6444.95)" patternUnits="userSpaceOnUse" viewBox="0 0 45.25 45"><path class="cls-1" d="M0 0h45.25v45H0z"/><g class="cls-2"><path class="cls-3" d="M.25 45V0m1.36 45V0m1.37 45V0m1.36 45V0M5.7 45V0m1.37 45V0m1.36 45V0M9.8 45V0m1.36 45V0m1.36 45V0m1.37 45V0m1.36 45V0m1.36 45V0m1.37 45V0m1.36 45V0m1.36 45V0m1.37 45V0m1.36 45V0m1.37 45V0m1.36 45V0m1.36 45V0m1.37 45V0m1.36 45V0m1.36 45V0m1.37 45V0m1.36 45V0m1.36 45V0m1.37 45V0m1.36 45V0m1.37 45V0m1.36 45V0m1.36 45V0m1.37 45V0"/></g></pattern><clipPath id="clip-path-6" transform="translate(254.33 168.04)"><path class="cls-1" d="M-126.48-125.7h10.24v.82h-10.24zm0-3.48h10.24v.83h-10.24zm-2.27-5.95a8.44 8.44 0 0 0 .55-1.13h2.06a3.05 3.05 0 0 1-.52.92.93.93 0 0 1-.77.24h-1.32m14.29.06a4.47 4.47 0 0 0 .74-1.19h2.49a2.24 2.24 0 0 1-.43 1 1 1 0 0 1-.83.24c-.37 0-1.14 0-2-.09M-123.1-147a7.82 7.82 0 0 1-.3 1.34h-9.38v2.53h6.36a31.9 31.9 0 0 1-7.62 1 6.86 6.86 0 0 1 1.41 2.6c.52 0 1-.07 1.54-.13-.06.37-.09.71-.16 1h-4.24v2.41h3.23a7 7 0 0 1-3.84 2.25 8 8 0 0 1 2 2.66 9.24 9.24 0 0 0 5.14-3.39 6.85 6.85 0 0 1 .58 2.38 21.22 21.22 0 0 0 2.86 0 3.26 3.26 0 0 0 2-.8c.65-.61 1.14-1.86 1.54-4.15a10.28 10.28 0 0 0 .18-1.31h-5.69c.1-.43.13-.88.19-1.34h-.7c4.06-.58 6.24-1.56 7.51-3.12h5.38a1.68 1.68 0 0 1-.47.59 1.71 1.71 0 0 1-1.1.21 31.87 31.87 0 0 1-3.48-.12 5.83 5.83 0 0 1 .83 2.59c1 .06 1.94.06 2.74.09a6.48 6.48 0 0 1-.18 1.1h-4.71v2.41h3.35a9.14 9.14 0 0 1-4.24 1.74 7.67 7.67 0 0 1 1.78 2.47H-131v14.16h4.55v-4.24h10.24v.28c0 .45-.19.58-.74.61s-2.58 0-3.93-.1a14.38 14.38 0 0 1 1.35 3.45 19.18 19.18 0 0 0 5.93-.52c1.48-.51 2-1.4 2-3.41V-132h-8.55c2.77-.67 4.49-1.61 5.6-2.9a7.09 7.09 0 0 1 .74 2.66 29.29 29.29 0 0 0 3.35 0 3.4 3.4 0 0 0 2.15-.83c.68-.64 1-1.92 1.32-4.27.06-.46.13-1.25.13-1.25h-6.06c.09-.43.15-.88.21-1.34h-.55a4 4 0 0 0 1.08-.49c.73-.58 1.29-1.68 1.69-3.75a8.28 8.28 0 0 0 .21-1.41h-9A7.74 7.74 0 0 0-119-147z"/></clipPath><pattern id="Unnamed_Pattern_29-7" data-name="Unnamed Pattern 29" width="45.25" height="45" patternTransform="matrix(.61 -.89 -.89 -.61 16247.16 6440.95)" patternUnits="userSpaceOnUse" viewBox="0 0 45.25 45"><path class="cls-1" d="M0 0h45.25v45H0z"/><g class="cls-2"><path class="cls-3" d="M.25 45V0m1.36 45V0m1.37 45V0m1.36 45V0M5.7 45V0m1.37 45V0m1.36 45V0M9.8 45V0m1.36 45V0m1.36 45V0m1.37 45V0m1.36 45V0m1.36 45V0m1.37 45V0m1.36 45V0m1.36 45V0m1.37 45V0m1.36 45V0m1.37 45V0m1.36 45V0m1.36 45V0m1.37 45V0m1.36 45V0m1.36 45V0m1.37 45V0m1.36 45V0m1.36 45V0m1.37 45V0m1.36 45V0m1.37 45V0m1.36 45V0m1.36 45V0m1.37 45V0"/></g></pattern><clipPath id="clip-path-7" transform="translate(254.33 168.04)"><path class="cls-1" d="M-82.23-140.56c2.21 2.81 4.24 8.33 5 11.84l4.7-2.17a55.31 55.31 0 0 0-5.23-11.5zm-12.12 1.31c-1.35.09-2.61.18-3.5.21a32.16 32.16 0 0 1-3.54 0l.4 4.92c1-.19 2.77-.43 3.75-.55.43-.06 1.11-.15 1.91-.28-1.14 4.12-3.11 9.77-6 13.65l4.83 1.92c2.58-4.15 4.86-11.42 6.09-16.11.55 0 1.07-.07 1.41-.07 1.91 0 2.83.28 2.83 2.48 0 2.8-.37 6.25-1.14 7.75a2.07 2.07 0 0 1-2.06 1.16 19.88 19.88 0 0 1-3.72-.64l.8 4.82a18.53 18.53 0 0 0 3.69.42c2.49 0 4.28-.76 5.32-2.93 1.29-2.68 1.69-7.53 1.69-11.07 0-4.52-2.3-6.17-5.81-6.17-.55 0-1.26 0-2.06.09.19-.79.37-1.61.52-2.44s.43-2 .65-2.9l-5.47-.58a30.27 30.27 0 0 1-.59 6.32"/></clipPath><pattern id="Unnamed_Pattern_29-9" data-name="Unnamed Pattern 29" width="45.25" height="45" patternTransform="matrix(.61 -.89 -.89 -.61 16281.16 6444.95)" patternUnits="userSpaceOnUse" viewBox="0 0 45.25 45"><path class="cls-1" d="M0 0h45.25v45H0z"/><g class="cls-2"><path class="cls-3" d="M.25 45V0m1.36 45V0m1.37 45V0m1.36 45V0M5.7 45V0m1.37 45V0m1.36 45V0M9.8 45V0m1.36 45V0m1.36 45V0m1.37 45V0m1.36 45V0m1.36 45V0m1.37 45V0m1.36 45V0m1.36 45V0m1.37 45V0m1.36 45V0m1.37 45V0m1.36 45V0m1.36 45V0m1.37 45V0m1.36 45V0m1.36 45V0m1.37 45V0m1.36 45V0m1.36 45V0m1.37 45V0m1.36 45V0m1.37 45V0m1.36 45V0m1.36 45V0m1.37 45V0"/></g></pattern><clipPath id="clip-path-8" transform="translate(254.33 168.04)"><path class="cls-1" d="M-56.28-130.8a1.85 1.85 0 0 1 1.93-1.95 2 2 0 0 1 1.66.79c.34 2.32-.67 3-1.66 3a1.93 1.93 0 0 1-1.93-1.87m2.37-14.77c.12.58.24 1.87.33 3v.33c-3.93.06-9.31.18-12.85.15l.12 4.4c3.73-.19 8.21-.37 12.79-.43v1.53a6.44 6.44 0 0 0-.77 0c-3.54 0-6.49 2.22-6.49 5.89a5.62 5.62 0 0 0 5.41 5.79 3.32 3.32 0 0 0 .55 0 16.48 16.48 0 0 1-7 2.66l3.9 3.9c7.62-2 10.15-7.29 10.15-11.17a7.88 7.88 0 0 0-1.2-4.36v-4.21c3.84 0 6.7.09 8.51.18l.07-4.33h-8.52v-.34c0-.55.15-2.41.24-3z"/></clipPath><pattern id="Unnamed_Pattern_29-11" data-name="Unnamed Pattern 29" width="45.25" height="45" patternTransform="matrix(.61 -.89 -.89 -.61 16288.63 6481.15)" patternUnits="userSpaceOnUse" viewBox="0 0 45.25 45"><path class="cls-1" d="M0 0h45.25v45H0z"/><g class="cls-2"><path class="cls-3" d="M.25 45V0m1.36 45V0m1.37 45V0m1.36 45V0M5.7 45V0m1.37 45V0m1.36 45V0M9.8 45V0m1.36 45V0m1.36 45V0m1.37 45V0m1.36 45V0m1.36 45V0m1.37 45V0m1.36 45V0m1.36 45V0m1.37 45V0m1.36 45V0m1.37 45V0m1.36 45V0m1.36 45V0m1.37 45V0m1.36 45V0m1.36 45V0m1.37 45V0m1.36 45V0m1.36 45V0m1.37 45V0m1.36 45V0m1.37 45V0m1.36 45V0m1.36 45V0m1.37 45V0"/></g></pattern><clipPath id="clip-path-9" transform="translate(254.33 168.04)"><path class="cls-1" d="M-25.07-122.07a41.78 41.78 0 0 0 4.58-2.68 3 3 0 0 1-.83 2.07 2 2 0 0 1-1.75.67c-.59 0-1.27 0-2-.06M-28-139.34v3.72h3a38.63 38.63 0 0 1-8.46 2.44 23.07 23.07 0 0 1 2.25 3.45 46.5 46.5 0 0 0 7.21-2.44l.4.37a33.37 33.37 0 0 1-9.25 3.57 16.39 16.39 0 0 1 2.21 3.32 46.57 46.57 0 0 0 9-4.33c.12.21.22.4.31.58A36.82 36.82 0 0 1-34-122.92a18.14 18.14 0 0 1 2.34 3.66 52.5 52.5 0 0 0 5.84-2.44 10 10 0 0 1 1 3.78 25.64 25.64 0 0 0 2.59.06 5.34 5.34 0 0 0 4.06-1.43c3.1-2.23 3.47-9.71-2.25-14.77a19.26 19.26 0 0 0 2.18-1.56c1.73 7.05 4.46 12.58 9.81 15.66a17.56 17.56 0 0 1 3.11-3.88 14.81 14.81 0 0 1-6.28-5.71 45.85 45.85 0 0 0 5.26-3.35l-3.5-3a31 31 0 0 1-3.49 2.9 23.57 23.57 0 0 1-.89-2.57h2.43v-3.72zm5.78-7.54v2.23H-33.1v7.32h4.37v-3.32h17.58v3.32h4.59v-7.32h-11v-2.23z"/></clipPath><pattern id="Unnamed_Pattern_29-13" data-name="Unnamed Pattern 29" width="45.25" height="45" patternTransform="matrix(.61 -.89 -.89 -.61 16283.66 6456.85)" patternUnits="userSpaceOnUse" viewBox="0 0 45.25 45"><path class="cls-1" d="M0 0h45.25v45H0z"/><g class="cls-2"><path class="cls-3" d="M.25 45V0m1.36 45V0m1.37 45V0m1.36 45V0M5.7 45V0m1.37 45V0m1.36 45V0M9.8 45V0m1.36 45V0m1.36 45V0m1.37 45V0m1.36 45V0m1.36 45V0m1.37 45V0m1.36 45V0m1.36 45V0m1.37 45V0m1.36 45V0m1.37 45V0m1.36 45V0m1.36 45V0m1.37 45V0m1.36 45V0m1.36 45V0m1.37 45V0m1.36 45V0m1.36 45V0m1.37 45V0m1.36 45V0m1.37 45V0m1.36 45V0m1.36 45V0m1.37 45V0"/></g></pattern><clipPath id="clip-path-10" transform="translate(254.33 168.04)"><path class="cls-1" d="M-.41-125.18a64.2 64.2 0 0 1 6.51 6.68l4-3.39a56 56 0 0 0-6.58-6.62z"/></clipPath><pattern id="Unnamed_Pattern_29-15" data-name="Unnamed Pattern 29" width="45.25" height="45" patternTransform="matrix(.61 -.89 -.89 -.61 16269.68 6434.45)" patternUnits="userSpaceOnUse" viewBox="0 0 45.25 45"><path class="cls-1" d="M0 0h45.25v45H0z"/><g class="cls-2"><path class="cls-3" d="M.25 45V0m1.36 45V0m1.37 45V0m1.36 45V0M5.7 45V0m1.37 45V0m1.36 45V0M9.8 45V0m1.36 45V0m1.36 45V0m1.37 45V0m1.36 45V0m1.36 45V0m1.37 45V0m1.36 45V0m1.36 45V0m1.37 45V0m1.36 45V0m1.37 45V0m1.36 45V0m1.36 45V0m1.37 45V0m1.36 45V0m1.36 45V0m1.37 45V0m1.36 45V0m1.36 45V0m1.37 45V0m1.36 45V0m1.37 45V0m1.36 45V0m1.36 45V0m1.37 45V0"/></g></pattern><clipPath id="clip-path-11" transform="translate(254.33 168.04)"><path class="cls-1" d="M40.66-137.42H42v.89h-1.3zm0-4H42v.82h-1.3zm-4-5.32v2.17h-3.5v3.15h3.48v.82h-5.41v3.14h5.41v.89h-3.48v3.14h3.48v.92h-3.78v3.14h3.78v1h-4.46v3.14h4.46v2.38h4v-2.38h5.78v-3.14h-5.76v-1h5.08v-3.14h-5.08v-.92h5v-4H47v-3.14h-1.32v-4h-5v-2.17zm-12.4 17a24.08 24.08 0 0 0 2.06 5.53 9 9 0 0 1-2.06 2.47zm3.88-3.41H29a34 34 0 0 1-.8 4.33 17.93 17.93 0 0 1-.77-2.75l-3.14.89v-2.08l3.39.77zm-3.9-6.85c.4-.89.77-1.77 1.11-2.69v1.69h2c-.92 2.38-2.06 5.25-3.14 7.69zm-7 3.87a29.21 29.21 0 0 1 1.91 4.86c.43-.52.86-1.07 1.26-1.65v15h3.87v-2.78a14.73 14.73 0 0 1 1.91 2.78 13.09 13.09 0 0 0 2.77-2.93c2.43 2 5.53 2.63 9.41 2.63H46a14.16 14.16 0 0 1 1.39-4c-2 .09-7.14.09-8.8.09-3.13 0-5.78-.49-7.81-2.35a38.11 38.11 0 0 0 2.13-11.44l-2.34-.37-.68.06h-.43c1.11-2.65 2.15-5.4 2.95-7.72l-2.76-.7-.62.15H26c.15-.39.27-.76.4-1.16l-4-1.19a31.32 31.32 0 0 1-5.23 10.71"/></clipPath><pattern id="Unnamed_Pattern_29-17" data-name="Unnamed Pattern 29" width="45.25" height="45" patternTransform="matrix(.61 -.89 -.89 -.61 16297.68 6430.45)" patternUnits="userSpaceOnUse" viewBox="0 0 45.25 45"><path class="cls-1" d="M0 0h45.25v45H0z"/><g class="cls-2"><path class="cls-3" d="M.25 45V0m1.36 45V0m1.37 45V0m1.36 45V0M5.7 45V0m1.37 45V0m1.36 45V0M9.8 45V0m1.36 45V0m1.36 45V0m1.37 45V0m1.36 45V0m1.36 45V0m1.37 45V0m1.36 45V0m1.36 45V0m1.37 45V0m1.36 45V0m1.37 45V0m1.36 45V0m1.36 45V0m1.37 45V0m1.36 45V0m1.36 45V0m1.37 45V0m1.36 45V0m1.36 45V0m1.37 45V0m1.36 45V0m1.37 45V0m1.36 45V0m1.36 45V0m1.37 45V0"/></g></pattern><clipPath id="clip-path-12" transform="translate(254.33 168.04)"><path class="cls-1" d="M65.11-126.8a22 22 0 0 0-3.57-2.13h4.83v6.83c0 .46-.19.61-.71.61h-1.23l1.45-.73-.8-3.17-2.22.85zm6.55-2.13h4.73a31 31 0 0 1-3.26 2.41 13.64 13.64 0 0 1-1.47-2.41m-1-3.85h3.29v.95h-3.31zm0-3.91h3.29v.89h-3.31zm-5.75-10.22v2.5H54.07v8.79c0 4.58-.18 11.05-2.77 15.41a16.77 16.77 0 0 1 3.63 2.42c2.89-4.83 3.38-12.7 3.38-17.83v-4.94h8.06v1h-6v2.9h6v.89h-7.63v3h7.63v.95h-6.43v2.9h.34l-2 2a21.51 21.51 0 0 1 4.12 2.62c-2 .74-3.81 1.41-5.19 1.83l2.06 3.47c1-.45 2-1 3.13-1.49a12.8 12.8 0 0 1 .8 2.62c2.55 0 4.37-.06 5.69-.64s1.75-1.52 1.75-3.57v-1.58a14.7 14.7 0 0 0 7 5.4 15.3 15.3 0 0 1 2.71-3.57 14.71 14.71 0 0 1-4.74-2.29c1.36-.64 2.83-1.5 4.22-2.32l-3.14-2.5h1.47v-3.85h2.62v-3h-2.64v-3.79h-7.5v-1h9.75v-3.85H69.57v-2.5z"/></clipPath><pattern id="Unnamed_Pattern_29-19" data-name="Unnamed Pattern 29" width="45.25" height="45" patternTransform="matrix(.61 -.89 -.89 -.61 16290.7 6406.05)" patternUnits="userSpaceOnUse" viewBox="0 0 45.25 45"><path class="cls-1" d="M0 0h45.25v45H0z"/><g class="cls-2"><path class="cls-3" d="M.25 45V0m1.36 45V0m1.37 45V0m1.36 45V0M5.7 45V0m1.37 45V0m1.36 45V0M9.8 45V0m1.36 45V0m1.36 45V0m1.37 45V0m1.36 45V0m1.36 45V0m1.37 45V0m1.36 45V0m1.36 45V0m1.37 45V0m1.36 45V0m1.37 45V0m1.36 45V0m1.36 45V0m1.37 45V0m1.36 45V0m1.36 45V0m1.37 45V0m1.36 45V0m1.36 45V0m1.37 45V0m1.36 45V0m1.37 45V0m1.36 45V0m1.36 45V0m1.37 45V0"/></g></pattern><clipPath id="clip-path-13" transform="translate(254.33 168.04)"><path class="cls-1" d="M94.69-142.52h-1.2a40.42 40.42 0 0 1-5.47-.36v4.24c1.59.15 3.81.21 5.07.21a28 28 0 0 1-6.52 7.79l3.94 2.93a34.82 34.82 0 0 1 2.82-3.42 7.36 7.36 0 0 1 4.49-2 2.29 2.29 0 0 1 1.66.62c-3.38 1.76-7 4.3-7 8.23s3.6 5.31 8.61 5.31a84 84 0 0 0 8.8-.51l.15-4.73a45.64 45.64 0 0 1-8.85.94c-2.86 0-3.82-.52-3.82-1.8s.83-2.2 2.74-3.29c0 1.12-.09 2.25-.15 3h4.39c0-1.35-.09-3.39-.12-5 1.6-.7 3.07-1.28 4.24-1.71s3.08-1.16 4.15-1.46l-1.81-4.21c-1.29.61-2.55 1.19-3.88 1.77-1.07.48-2.06.88-3.28 1.46a4.45 4.45 0 0 0-4.06-2.14 15.09 15.09 0 0 0-3 .31 16.86 16.86 0 0 0 1.17-2.14c3.26-.12 7-.39 9.84-.76v-4.24a69.3 69.3 0 0 1-8.21.85 25.43 25.43 0 0 0 .68-2.74l-4.86-.4a17.19 17.19 0 0 1-.52 3.29"/></clipPath><pattern id="Unnamed_Pattern_29-21" data-name="Unnamed Pattern 29" width="45.25" height="45" patternTransform="matrix(.61 -.89 -.89 -.61 16295.18 6443.25)" patternUnits="userSpaceOnUse" viewBox="0 0 45.25 45"><path class="cls-1" d="M0 0h45.25v45H0z"/><g class="cls-2"><path class="cls-3" d="M.25 45V0m1.36 45V0m1.37 45V0m1.36 45V0M5.7 45V0m1.37 45V0m1.36 45V0M9.8 45V0m1.36 45V0m1.36 45V0m1.37 45V0m1.36 45V0m1.36 45V0m1.37 45V0m1.36 45V0m1.36 45V0m1.37 45V0m1.36 45V0m1.37 45V0m1.36 45V0m1.36 45V0m1.37 45V0m1.36 45V0m1.36 45V0m1.37 45V0m1.36 45V0m1.36 45V0m1.37 45V0m1.36 45V0m1.37 45V0m1.36 45V0m1.36 45V0m1.37 45V0"/></g></pattern><clipPath id="clip-path-14" transform="translate(254.33 168.04)"><path class="cls-1" d="M123.16-128.66a26.78 26.78 0 0 1 4.46 6.26l3.84-2.54a25.61 25.61 0 0 0-4.73-6zm12.58-10.25v3.38H120v4.34h15.75v8.19c0 .52-.22.67-.86.67s-3 0-4.86-.09a17.42 17.42 0 0 1 1.53 4.51c2.86 0 5.11-.09 6.71-.76s2.09-1.86 2.09-4.24v-8.3h7.35v-4.34h-7.35v-3.38zm-4.37-8v2.72h-11v7.72H125V-140h17.38v3.54h4.79v-7.72h-11v-2.72z"/></clipPath><pattern id="Unnamed_Pattern_29-23" data-name="Unnamed Pattern 29" width="45.25" height="45" patternTransform="matrix(.61 -.89 -.89 -.61 16287.2 6414.85)" patternUnits="userSpaceOnUse" viewBox="0 0 45.25 45"><path class="cls-1" d="M0 0h45.25v45H0z"/><g class="cls-2"><path class="cls-3" d="M.25 45V0m1.36 45V0m1.37 45V0m1.36 45V0M5.7 45V0m1.37 45V0m1.36 45V0M9.8 45V0m1.36 45V0m1.36 45V0m1.37 45V0m1.36 45V0m1.36 45V0m1.37 45V0m1.36 45V0m1.36 45V0m1.37 45V0m1.36 45V0m1.37 45V0m1.36 45V0m1.36 45V0m1.37 45V0m1.36 45V0m1.36 45V0m1.37 45V0m1.36 45V0m1.36 45V0m1.37 45V0m1.36 45V0m1.37 45V0m1.36 45V0m1.36 45V0m1.37 45V0"/></g></pattern><clipPath id="clip-path-15" transform="translate(254.33 168.04)"><path class="cls-1" d="M164.73-124.75c0-.61.59-1.19 1.57-1.19 1.29 0 2.21 1.06 2.37 2.74-.43 0-.9.06-1.39.06-1.54 0-2.55-.67-2.55-1.61m6.76-19.72c-1.81.15-7.9.25-9.53.25a24.12 24.12 0 0 1-3.1-.19l.15 4.73c.74-.12 1.82-.21 2.74-.27 1.63-.12 4.77-.25 6.3-.28-1.47 1.32-4.3 3.48-6 4.89s-5.35 4.45-7.32 6l3.35 3.45c2.92-3.54 6.12-6.2 10.58-6.2 3.35 0 6 1.62 6 4.21a4 4 0 0 1-1.78 3.48c-.52-2.87-2.92-5-6.64-5-3.44 0-5.91 2.47-5.91 5.12 0 3.33 3.57 5.31 7.88 5.31 7.87 0 11.31-4.12 11.31-8.85 0-4.54-4.12-7.87-9.35-7.87a10.53 10.53 0 0 0-2.12.18c1.66-1.28 4.34-3.44 6.06-4.6.77-.52 1.54-1 2.34-1.47l-2.28-3.23a16.58 16.58 0 0 1-2.71.36"/></clipPath><pattern id="Unnamed_Pattern_29-25" data-name="Unnamed Pattern 29" width="45.25" height="45" patternTransform="matrix(.61 -.89 -.89 -.61 16322.2 6412.85)" patternUnits="userSpaceOnUse" viewBox="0 0 45.25 45"><path class="cls-1" d="M0 0h45.25v45H0z"/><g class="cls-2"><path class="cls-3" d="M.25 45V0m1.36 45V0m1.37 45V0m1.36 45V0M5.7 45V0m1.37 45V0m1.36 45V0M9.8 45V0m1.36 45V0m1.36 45V0m1.37 45V0m1.36 45V0m1.36 45V0m1.37 45V0m1.36 45V0m1.36 45V0m1.37 45V0m1.36 45V0m1.37 45V0m1.36 45V0m1.36 45V0m1.37 45V0m1.36 45V0m1.36 45V0m1.37 45V0m1.36 45V0m1.36 45V0m1.37 45V0m1.36 45V0m1.37 45V0m1.36 45V0m1.36 45V0m1.37 45V0"/></g></pattern><clipPath id="clip-path-16" transform="translate(254.33 168.04)"><path class="cls-1" d="M196.31-122.07a40.86 40.86 0 0 0 4.58-2.68 3 3 0 0 1-.83 2.07 1.94 1.94 0 0 1-1.75.67c-.59 0-1.26 0-2-.06m-2.92-17.27v3.72h3a38.7 38.7 0 0 1-8.45 2.44 23.79 23.79 0 0 1 2.24 3.45 47 47 0 0 0 7.17-2.44l.39.37a33.37 33.37 0 0 1-9.25 3.57 16.39 16.39 0 0 1 2.21 3.32 46.57 46.57 0 0 0 9-4.33c.13.21.22.4.31.58a36.73 36.73 0 0 1-12.67 5.74 17.71 17.71 0 0 1 2.34 3.66 51.72 51.72 0 0 0 5.84-2.44 10.22 10.22 0 0 1 1 3.78 25.45 25.45 0 0 0 2.58.06 5.33 5.33 0 0 0 4.06-1.43c3.1-2.23 3.47-9.71-2.25-14.77a20.35 20.35 0 0 0 2.19-1.56c1.72 7.05 4.45 12.58 9.8 15.66a17.56 17.56 0 0 1 3.11-3.88 14.72 14.72 0 0 1-6.27-5.71 46.63 46.63 0 0 0 5.25-3.35l-3.5-3a29.35 29.35 0 0 1-3.51 2.84 25.91 25.91 0 0 1-.89-2.57h2.43v-3.72zm5.78-7.54v2.23h-10.89v7.32h4.37v-3.32h17.59v3.32h4.58v-7.32h-11v-2.23z"/></clipPath><pattern id="Unnamed_Pattern_29-27" data-name="Unnamed Pattern 29" width="45.25" height="45" patternTransform="matrix(.61 -.89 -.89 -.61 16289.7 6426.65)" patternUnits="userSpaceOnUse" viewBox="0 0 45.25 45"><path class="cls-1" d="M0 0h45.25v45H0z"/><g class="cls-2"><path class="cls-3" d="M.25 45V0m1.36 45V0m1.37 45V0m1.36 45V0M5.7 45V0m1.37 45V0m1.36 45V0M9.8 45V0m1.36 45V0m1.36 45V0m1.37 45V0m1.36 45V0m1.36 45V0m1.37 45V0m1.36 45V0m1.36 45V0m1.37 45V0m1.36 45V0m1.37 45V0m1.36 45V0m1.36 45V0m1.37 45V0m1.36 45V0m1.36 45V0m1.37 45V0m1.36 45V0m1.36 45V0m1.37 45V0m1.36 45V0m1.37 45V0m1.36 45V0m1.36 45V0m1.37 45V0"/></g></pattern><clipPath id="clip-path-17" transform="translate(254.33 168.04)"><path class="cls-1" d="M221-125.18a65.32 65.32 0 0 1 6.52 6.68l4-3.39a55.26 55.26 0 0 0-6.58-6.62z"/></clipPath><pattern id="Unnamed_Pattern_29-29" data-name="Unnamed Pattern 29" width="45.25" height="45" patternTransform="matrix(.61 -.89 -.89 -.61 16313.7 6434.65)" patternUnits="userSpaceOnUse" viewBox="0 0 45.25 45"><path class="cls-1" d="M0 0h45.25v45H0z"/><g class="cls-2"><path class="cls-3" d="M.25 45V0m1.36 45V0m1.37 45V0m1.36 45V0M5.7 45V0m1.37 45V0m1.36 45V0M9.8 45V0m1.36 45V0m1.36 45V0m1.37 45V0m1.36 45V0m1.36 45V0m1.37 45V0m1.36 45V0m1.36 45V0m1.37 45V0m1.36 45V0m1.37 45V0m1.36 45V0m1.36 45V0m1.37 45V0m1.36 45V0m1.36 45V0m1.37 45V0m1.36 45V0m1.36 45V0m1.37 45V0m1.36 45V0m1.37 45V0m1.36 45V0m1.36 45V0m1.37 45V0"/></g></pattern><clipPath id="clip-path-18" transform="translate(254.33 168.04)"><path class="cls-1" d="M-231.24-78.61c0-1.32 1.17-3.24 3.05-4.64a45.69 45.69 0 0 0 .55 5.22 5.6 5.6 0 0 1-2.4.7c-.89 0-1.2-.46-1.2-1.28m7.14-6.56a14.65 14.65 0 0 1 3.35-.55 16.91 16.91 0 0 1-3.08 4.72c-.15-1.25-.24-2.6-.27-4.12m-3.26-11.08l-.12 1.22h-.74a50.52 50.52 0 0 1-5.94-.43l.13 4.18c1.5.06 3.87.22 5.65.22h.5c-.13 1.1-.22 2.25-.28 3.38-4.28 2.05-7.41 6.17-7.41 10 0 3.36 2 4.77 4.39 4.77a11.09 11.09 0 0 0 4.46-1c.13.36.22.73.34 1l4.24-1.26c-.24-.7-.46-1.4-.67-2.13a22.76 22.76 0 0 0 6.18-8.75 3.92 3.92 0 0 1 2.49 3.66c0 2.44-1.81 5.46-7.9 6.13l2.43 3.82c7.68-1.13 10.05-5.49 10.05-9.74 0-3.6-2.37-6.31-5.81-7.53.21-.55.4-1.1.52-1.41l-4.46-1a16.44 16.44 0 0 1-.24 1.71h-.19A19.74 19.74 0 0 0-224-89l.18-2.2a85.74 85.74 0 0 0 10.73-1.06v-4.19a48.39 48.39 0 0 1-10.12 1.32c.06-.43.15-.86.24-1.25s.25-1.07.47-1.77l-4.77-.13a15 15 0 0 1-.09 2"/></clipPath><pattern id="Unnamed_Pattern_29-31" data-name="Unnamed Pattern 29" width="45.25" height="45" patternTransform="matrix(.61 -.89 -.89 -.61 16242.19 6439.95)" patternUnits="userSpaceOnUse" viewBox="0 0 45.25 45"><path class="cls-1" d="M0 0h45.25v45H0z"/><g class="cls-2"><path class="cls-3" d="M.25 45V0m1.36 45V0m1.37 45V0m1.36 45V0M5.7 45V0m1.37 45V0m1.36 45V0M9.8 45V0m1.36 45V0m1.36 45V0m1.37 45V0m1.36 45V0m1.36 45V0m1.37 45V0m1.36 45V0m1.36 45V0m1.37 45V0m1.36 45V0m1.37 45V0m1.36 45V0m1.36 45V0m1.37 45V0m1.36 45V0m1.36 45V0m1.37 45V0m1.36 45V0m1.36 45V0m1.37 45V0m1.36 45V0m1.37 45V0m1.36 45V0m1.36 45V0m1.37 45V0"/></g></pattern><clipPath id="clip-path-19" transform="translate(254.33 168.04)"><path class="cls-1" d="M-191-77.27c0-.85.92-1.46 2.43-1.46a11.32 11.32 0 0 1 2.06.21v.15c0 1.68-.55 2.75-2.37 2.75-1.29 0-2.12-.67-2.12-1.65m4-11.41c.09 1.7.21 4.18.34 6.34a14 14 0 0 0-1.6-.09c-4.71 0-7.1 2.6-7.1 5.62 0 3.51 3.13 5.37 7.16 5.37 4.49 0 6.09-2.17 6.18-5.07a31.41 31.41 0 0 1 3.69 3.09l2.43-3.94a19.68 19.68 0 0 0-6.3-3.94c-.07-1.25-.13-2.44-.16-3.14 0-1.5-.09-2.93 0-4.24zm1.87-2.32a43.87 43.87 0 0 1 7.51 4.36l2.61-3.84a60.32 60.32 0 0 0-7.75-4.15zm-10.17-2.69c-.8.06-1.57.09-2.37.09-1 0-2.83-.06-4.24-.21l.33 4.21c1.42.09 2.65.12 3.94.12h1a46.76 46.76 0 0 1-6 10.35l4.46 2.23a55.72 55.72 0 0 0 6.45-13 51.65 51.65 0 0 0 5.17-1l-.13-4.21c-1 .3-2.3.61-3.71.88.43-1.52.76-2.9 1-3.84l-5.05-.49a23.81 23.81 0 0 1-.76 4.94"/></clipPath><pattern id="Unnamed_Pattern_29-33" data-name="Unnamed Pattern 29" width="45.25" height="45" patternTransform="matrix(.61 -.89 -.89 -.61 16235.22 6410.55)" patternUnits="userSpaceOnUse" viewBox="0 0 45.25 45"><path class="cls-1" d="M0 0h45.25v45H0z"/><g class="cls-2"><path class="cls-3" d="M.25 45V0m1.36 45V0m1.37 45V0m1.36 45V0M5.7 45V0m1.37 45V0m1.36 45V0M9.8 45V0m1.36 45V0m1.36 45V0m1.37 45V0m1.36 45V0m1.36 45V0m1.37 45V0m1.36 45V0m1.36 45V0m1.37 45V0m1.36 45V0m1.37 45V0m1.36 45V0m1.36 45V0m1.37 45V0m1.36 45V0m1.36 45V0m1.37 45V0m1.36 45V0m1.36 45V0m1.37 45V0m1.36 45V0m1.37 45V0m1.36 45V0m1.36 45V0m1.37 45V0"/></g></pattern><clipPath id="clip-path-20" transform="translate(254.33 168.04)"><path class="cls-1" d="M-156.83-77.18c0 3.08 2.68 5 8 5a51 51 0 0 0 6.36-.43l.19-4.67a38.61 38.61 0 0 1-6.52.64c-2.68 0-3.48-.79-3.48-2a11.18 11.18 0 0 1 .4-2.41l-4.39-.4a21 21 0 0 0-.56 4.3m2.59-11.63v4.28a45.66 45.66 0 0 1 6-.34 43.09 43.09 0 0 1 5.29.4l.09-4.4c-1.84-.18-3.69-.27-5.38-.27-2 0-4.27.15-6 .33m-6.92-6.22a9.16 9.16 0 0 1-.19 1.22c-.8 0-1.63.06-2.43.06a32.4 32.4 0 0 1-3.93-.24l.12 4.54c1.05.07 2.21.13 3.78.13h1.54c-.15.7-.37 1.43-.55 2.13-1.14 4.21-3.54 10.65-5.35 13.64l5.13 1.71a100 100 0 0 0 4.86-14.07c.31-1.19.62-2.53.92-3.81a48 48 0 0 0 5.66-1v-4.57c-1.54.36-3.11.67-4.67.91l.12-.52c.15-.7.46-2.16.71-3.11l-5.63-.43a16.77 16.77 0 0 1-.09 3.39"/></clipPath><pattern id="Unnamed_Pattern_29-35" data-name="Unnamed Pattern 29" width="45.25" height="45" patternTransform="matrix(.61 -.89 -.89 -.61 16238.69 6454.75)" patternUnits="userSpaceOnUse" viewBox="0 0 45.25 45"><path class="cls-1" d="M0 0h45.25v45H0z"/><g class="cls-2"><path class="cls-3" d="M.25 45V0m1.36 45V0m1.37 45V0m1.36 45V0M5.7 45V0m1.37 45V0m1.36 45V0M9.8 45V0m1.36 45V0m1.36 45V0m1.37 45V0m1.36 45V0m1.36 45V0m1.37 45V0m1.36 45V0m1.36 45V0m1.37 45V0m1.36 45V0m1.37 45V0m1.36 45V0m1.36 45V0m1.37 45V0m1.36 45V0m1.36 45V0m1.37 45V0m1.36 45V0m1.36 45V0m1.37 45V0m1.36 45V0m1.37 45V0m1.36 45V0m1.36 45V0m1.37 45V0"/></g></pattern><clipPath id="clip-path-21" transform="translate(254.33 168.04)"><path class="cls-1" d="M-121.68-77.73c0-.94 1-1.49 2.36-1.49a8 8 0 0 1 2.07.27v.22c0 1.64-.59 2.44-2.07 2.44-1.29 0-2.36-.37-2.36-1.44m3.68-19.74a14.65 14.65 0 0 1 .24 2.07c0 .55 0 1.68.07 3.09h-1.73a54.12 54.12 0 0 1-5.44-.28v4.36c1.82.13 3.63.19 5.44.19h1.73c0 1.89.12 3.75.21 5.34-.49 0-1-.06-1.54-.06-4.24 0-7 2.16-7 5.55s2.83 5.25 7.1 5.25c4 0 5.88-1.77 6.28-4.61a35.1 35.1 0 0 1 3.26 2.75l2.49-3.85a19.38 19.38 0 0 0-5.85-3.9c-.09-1.77-.24-3.94-.3-6.69 1.6-.12 3.1-.3 4.46-.48v-4.55c-1.39.27-2.89.52-4.43.67 0-1.25.06-2.26.09-2.84a20 20 0 0 1 .18-2zm-14.92 3.38a93.49 93.49 0 0 0-1.19 12.55 34.25 34.25 0 0 0 1.26 9.67l4.15-.27v-1.38a9.44 9.44 0 0 1 .18-1.43 78 78 0 0 1 2.22-7.51l-2.25-1.77c-.4.89-.77 1.47-1.14 2.35a5.7 5.7 0 0 1 0-.7 83.88 83.88 0 0 1 1.4-11.42 28.23 28.23 0 0 1 .83-3.09l-5.08-.42a32.22 32.22 0 0 1-.34 3.41"/></clipPath><pattern id="Unnamed_Pattern_29-37" data-name="Unnamed Pattern 29" width="45.25" height="45" patternTransform="matrix(.61 -.89 -.89 -.61 16275.69 6451.75)" patternUnits="userSpaceOnUse" viewBox="0 0 45.25 45"><path class="cls-1" d="M0 0h45.25v45H0z"/><g class="cls-2"><path class="cls-3" d="M.25 45V0m1.36 45V0m1.37 45V0m1.36 45V0M5.7 45V0m1.37 45V0m1.36 45V0M9.8 45V0m1.36 45V0m1.36 45V0m1.37 45V0m1.36 45V0m1.36 45V0m1.37 45V0m1.36 45V0m1.36 45V0m1.37 45V0m1.36 45V0m1.37 45V0m1.36 45V0m1.36 45V0m1.37 45V0m1.36 45V0m1.36 45V0m1.37 45V0m1.36 45V0m1.36 45V0m1.37 45V0m1.36 45V0m1.37 45V0m1.36 45V0m1.36 45V0m1.37 45V0"/></g></pattern><clipPath id="clip-path-22" transform="translate(254.33 168.04)"><path class="cls-1" d="M-98.16-95.67c1.35 3.17 2.77 6.25 4.18 8.85-2.8 2.1-5 4.58-5 8 0 5.59 4.83 7.27 11.1 7.27A58 58 0 0 0-78-72.3l.06-5.28a51.86 51.86 0 0 1-10 1.16c-3.91 0-5.84-.94-5.84-2.92s1.69-3.61 4.05-5.13a67 67 0 0 1 7-3.76c1.24-.61 2.34-1.19 3.42-1.83l-2.31-4.3a22.11 22.11 0 0 1-3.17 2c-1.29.73-3.13 1.67-5.1 2.83a63.61 63.61 0 0 1-3.66-8zM-81.8-97a40.25 40.25 0 0 1 2.36 4.24l2.93-1.24c-.56-1.07-1.64-3.06-2.4-4.18zm3.8-1.48a34.76 34.76 0 0 1 2.43 4.21l2.89-1.22a44.7 44.7 0 0 0-2.43-4.15z"/></clipPath><pattern id="Unnamed_Pattern_29-39" data-name="Unnamed Pattern 29" width="45.25" height="45" patternTransform="matrix(.61 -.89 -.89 -.61 16283.16 6489.95)" patternUnits="userSpaceOnUse" viewBox="0 0 45.25 45"><path class="cls-1" d="M0 0h45.25v45H0z"/><g class="cls-2"><path class="cls-3" d="M.25 45V0m1.36 45V0m1.37 45V0m1.36 45V0M5.7 45V0m1.37 45V0m1.36 45V0M9.8 45V0m1.36 45V0m1.36 45V0m1.37 45V0m1.36 45V0m1.36 45V0m1.37 45V0m1.36 45V0m1.36 45V0m1.37 45V0m1.36 45V0m1.37 45V0m1.36 45V0m1.36 45V0m1.37 45V0m1.36 45V0m1.36 45V0m1.37 45V0m1.36 45V0m1.36 45V0m1.37 45V0m1.36 45V0m1.37 45V0m1.36 45V0m1.36 45V0m1.37 45V0"/></g></pattern><clipPath id="clip-path-23" transform="translate(254.33 168.04)"><path class="cls-1" d="M-60-94.79c0 .25-.07.52-.13.83a48.71 48.71 0 0 1-5.78-.61v4.51c1.42.16 3.11.22 4.92.28A47.72 47.72 0 0 1-64.4-80l4.4 1.57a7.79 7.79 0 0 1 .8-1.28 9.91 9.91 0 0 1 8.08-3.51c2.65 0 4.06 1.4 4.06 2.93 0 4.18-6.67 4.76-13.16 3.63l1.32 4.73c10.18 1.1 16.85-1.43 16.85-8.48 0-4.06-3.53-6.75-8.48-6.75a16.25 16.25 0 0 0-7 1.5c.36-1.28.73-2.75 1.07-4.21 4.15-.19 9-.8 12-1.26l-.09-4.36a74.79 74.79 0 0 1-10.91 1.4l.09-.45c.24-1.1.43-2.17.8-3.39l-5.2-.21a16.71 16.71 0 0 1-.23 3.35"/></clipPath><pattern id="Unnamed_Pattern_29-41" data-name="Unnamed Pattern 29" width="45.25" height="45" patternTransform="matrix(.61 -.89 -.89 -.61 16276.18 6465.65)" patternUnits="userSpaceOnUse" viewBox="0 0 45.25 45"><path class="cls-1" d="M0 0h45.25v45H0z"/><g class="cls-2"><path class="cls-3" d="M.25 45V0m1.36 45V0m1.37 45V0m1.36 45V0M5.7 45V0m1.37 45V0m1.36 45V0M9.8 45V0m1.36 45V0m1.36 45V0m1.37 45V0m1.36 45V0m1.36 45V0m1.37 45V0m1.36 45V0m1.36 45V0m1.37 45V0m1.36 45V0m1.37 45V0m1.36 45V0m1.36 45V0m1.37 45V0m1.36 45V0m1.36 45V0m1.37 45V0m1.36 45V0m1.36 45V0m1.37 45V0m1.36 45V0m1.37 45V0m1.36 45V0m1.36 45V0m1.37 45V0"/></g></pattern><clipPath id="clip-path-24" transform="translate(254.33 168.04)"><path class="cls-1" d="M-30.73-79.74l4.21 1a8 8 0 0 1 1.26-1.9 10.27 10.27 0 0 1 7.87-3.29c2.43 0 4.09 1.28 4.09 3 0 3.69-4.92 5.61-13.8 4.3l1.44 4.79c13.41 1.16 17.56-3.38 17.56-9 0-3.69-3.11-7.23-8.83-7.23a15.46 15.46 0 0 0-8.42 2.44 51.44 51.44 0 0 1 1.08-6.32l-5-.67a114.86 114.86 0 0 1-1.5 12.85m4.61-14.16c2.4.61 9.29 2 12.48 2.47l1.11-4.52a93.49 93.49 0 0 1-12.38-2.32z"/></clipPath><pattern id="Unnamed_Pattern_29-43" data-name="Unnamed Pattern 29" width="45.25" height="45" patternTransform="matrix(.61 -.89 -.89 -.61 16270.21 6437.25)" patternUnits="userSpaceOnUse" viewBox="0 0 45.25 45"><path class="cls-1" d="M0 0h45.25v45H0z"/><g class="cls-2"><path class="cls-3" d="M.25 45V0m1.36 45V0m1.37 45V0m1.36 45V0M5.7 45V0m1.37 45V0m1.36 45V0M9.8 45V0m1.36 45V0m1.36 45V0m1.37 45V0m1.36 45V0m1.36 45V0m1.37 45V0m1.36 45V0m1.36 45V0m1.37 45V0m1.36 45V0m1.37 45V0m1.36 45V0m1.36 45V0m1.37 45V0m1.36 45V0m1.36 45V0m1.37 45V0m1.36 45V0m1.36 45V0m1.37 45V0m1.36 45V0m1.37 45V0m1.36 45V0m1.36 45V0m1.37 45V0"/></g></pattern><clipPath id="clip-path-25" transform="translate(254.33 168.04)"><path class="cls-1" d="M8.6-95.15H7.4a40.66 40.66 0 0 1-5.48-.37v4.24c1.6.15 3.82.22 5.08.22a28.11 28.11 0 0 1-6.52 7.78l3.93 2.93a37.6 37.6 0 0 1 2.83-3.42 7.32 7.32 0 0 1 4.49-2 2.28 2.28 0 0 1 1.66.61c-3.38 1.77-7 4.3-7 8.24s3.61 5.3 8.61 5.3a83.5 83.5 0 0 0 8.79-.52l.16-4.73a45.74 45.74 0 0 1-8.86.94c-2.86 0-3.81-.52-3.81-1.8S12.1-79.93 14-81c0 1.13-.1 2.25-.16 3h4.4c0-1.34-.09-3.39-.12-5 1.6-.7 3.07-1.28 4.24-1.71s3.07-1.16 4.15-1.46l-1.81-4.21c-1.29.61-2.56 1.19-3.88 1.77-1.07.49-2.06.88-3.29 1.46a4.44 4.44 0 0 0-4.06-2.13 15 15 0 0 0-3 .3 16.86 16.86 0 0 0 1.17-2.14c3.26-.12 7-.39 9.84-.76v-4.24a69.3 69.3 0 0 1-8.21.85A28.08 28.08 0 0 0 14-98l-4.86-.4a18.25 18.25 0 0 1-.52 3.3"/></clipPath><pattern id="Unnamed_Pattern_29-45" data-name="Unnamed Pattern 29" width="45.25" height="45" patternTransform="matrix(.61 -.89 -.89 -.61 16272.68 6477.45)" patternUnits="userSpaceOnUse" viewBox="0 0 45.25 45"><path class="cls-1" d="M0 0h45.25v45H0z"/><g class="cls-2"><path class="cls-3" d="M.25 45V0m1.36 45V0m1.37 45V0m1.36 45V0M5.7 45V0m1.37 45V0m1.36 45V0M9.8 45V0m1.36 45V0m1.36 45V0m1.37 45V0m1.36 45V0m1.36 45V0m1.37 45V0m1.36 45V0m1.36 45V0m1.37 45V0m1.36 45V0m1.37 45V0m1.36 45V0m1.36 45V0m1.37 45V0m1.36 45V0m1.36 45V0m1.37 45V0m1.36 45V0m1.36 45V0m1.37 45V0m1.36 45V0m1.37 45V0m1.36 45V0m1.36 45V0m1.37 45V0"/></g></pattern><clipPath id="clip-path-26" transform="translate(254.33 168.04)"><path class="cls-1" d="M46.32-75l-1.17-.09a21.12 21.12 0 0 0 5.78-3.39l-2.49-.86h6.12l-2.27 1.26a33.29 33.29 0 0 1 5 3.08c-2 .06-4.08.09-6 .09s-3.67 0-5-.09M50-84.14h2.74v1.56H50zm2.74-4.45v1.31H50v-1.31h-4.14v1.31H42v3.14h3.84v1.56h-4.7v3.2h5.1a22 22 0 0 1-4.95 1.84 26.81 26.81 0 0 1 2.8 2.22 5.28 5.28 0 0 1-3.72-2.62v-9.8h-7v4.09h2.86v6.07c-1.11.92-2.31 1.77-3.35 2.48L35-70.86c1.44-1.34 2.58-2.44 3.66-3.6 1.81 2.35 4.15 3.17 7.71 3.32 4.06.19 11 .13 15.1-.09a20.09 20.09 0 0 1 1.32-4.12c-1.38.13-3 .22-4.8.28l4.19-1.44a57.65 57.65 0 0 0-5.39-2.87h5.2v-3.2H57v-1.56h4v-3.14h-4v-1.31zm-7.32-3.76v-.09h3.41c-.12.73-.27.89-.79.89h-1.78c-.68 0-.8-.09-.8-.8m-4-6.4V-96h5.45v.86h-5.08v2.87c0 2.8.83 3.63 3.85 3.63h2.86c2.06 0 3-.61 3.38-2.75a9.75 9.75 0 0 1-2.89-1h1.57v-6.31zm14.15 6.4v-.09H59c-.12.73-.28.89-.8.89h-1.82c-.68 0-.8-.09-.8-.8m-4.18-6.4V-96h5.65v.86H52v2.87c0 2.8.83 3.63 3.84 3.63h2.86c2.06 0 3-.61 3.38-2.75a10 10 0 0 1-2.89-1h1.69v-6.31zM33-96.65a23.89 23.89 0 0 1 3.84 5.28l3.81-2.47a23.79 23.79 0 0 0-4.12-5z"/></clipPath><pattern id="Unnamed_Pattern_29-47" data-name="Unnamed Pattern 29" width="45.25" height="45" patternTransform="matrix(.61 -.89 -.89 -.61 16273.7 6451.05)" patternUnits="userSpaceOnUse" viewBox="0 0 45.25 45"><path class="cls-1" d="M0 0h45.25v45H0z"/><g class="cls-2"><path class="cls-3" d="M.25 45V0m1.36 45V0m1.37 45V0m1.36 45V0M5.7 45V0m1.37 45V0m1.36 45V0M9.8 45V0m1.36 45V0m1.36 45V0m1.37 45V0m1.36 45V0m1.36 45V0m1.37 45V0m1.36 45V0m1.36 45V0m1.37 45V0m1.36 45V0m1.37 45V0m1.36 45V0m1.36 45V0m1.37 45V0m1.36 45V0m1.36 45V0m1.37 45V0m1.36 45V0m1.36 45V0m1.37 45V0m1.36 45V0m1.37 45V0m1.36 45V0m1.36 45V0m1.37 45V0"/></g></pattern><clipPath id="clip-path-27" transform="translate(254.33 168.04)"><path class="cls-1" d="M69.72-94.94a17.68 17.68 0 0 1-1.78.09l.64 4.7c.74-.18 1.2-.3 1.85-.43 1-.21 2.37-.42 3.32-.51a18.7 18.7 0 0 0-4.4 11.44c0 5.37 3.65 8.65 8.89 8.65 7.93 0 11.34-6.14 11.25-12.7.74 1.16 1.48 2.23 2.21 3.21l3.42-3.64a25.12 25.12 0 0 1-6.58-12.54l-4.46 1.37c.22.55.4 1.07.62 1.59C87.34-82.7 84.14-76 78.45-76a4.06 4.06 0 0 1-4.36-4.33c0-4.79 4-9.92 6.15-11.66a8.37 8.37 0 0 1 1.47-.73l-1.38-4a58.25 58.25 0 0 1-10.61 1.77m19-2.66a31.55 31.55 0 0 1 1.63 4.52l2.65-.84a45.19 45.19 0 0 0-1.6-4.49zm3.48-1.09a35 35 0 0 1 1.66 4.48l2.7-.85a35.62 35.62 0 0 0-1.75-4.49z"/></clipPath><pattern id="Unnamed_Pattern_29-49" data-name="Unnamed Pattern 29" width="45.25" height="45" patternTransform="matrix(.61 -.89 -.89 -.61 16302.7 6448.05)" patternUnits="userSpaceOnUse" viewBox="0 0 45.25 45"><path class="cls-1" d="M0 0h45.25v45H0z"/><g class="cls-2"><path class="cls-3" d="M.25 45V0m1.36 45V0m1.37 45V0m1.36 45V0M5.7 45V0m1.37 45V0m1.36 45V0M9.8 45V0m1.36 45V0m1.36 45V0m1.37 45V0m1.36 45V0m1.36 45V0m1.37 45V0m1.36 45V0m1.36 45V0m1.37 45V0m1.36 45V0m1.37 45V0m1.36 45V0m1.36 45V0m1.37 45V0m1.36 45V0m1.36 45V0m1.37 45V0m1.36 45V0m1.36 45V0m1.37 45V0m1.36 45V0m1.37 45V0m1.36 45V0m1.36 45V0m1.37 45V0"/></g></pattern><clipPath id="clip-path-28" transform="translate(254.33 168.04)"><path class="cls-1" d="M109.32-77.24c0-.85 1-1.49 2.68-1.49a14.1 14.1 0 0 1 2.27.18v.85c0 1.56-.82 2-2.39 2s-2.59-.52-2.59-1.53m4.49-21.06a13.73 13.73 0 0 1 .19 2.2v1h-1.51a39.16 39.16 0 0 1-6.3-.58v4.15a48.27 48.27 0 0 0 6.3.46H114v2.47h-1.36a50.12 50.12 0 0 1-7.16-.58v4.3c1.94.25 5.5.4 7.13.4H114l.09 2c-.49 0-1-.06-1.48-.06-4.85 0-7.78 2.29-7.78 5.52s2.68 5.38 7.81 5.38c4 0 6.34-1.93 6.34-4.77v-.6a23.9 23.9 0 0 1 5.44 4l2.65-4.09a24.16 24.16 0 0 0-8.34-4.48c-.06-1-.12-2-.18-2.93 2.92-.1 5.16-.28 7.84-.55v-4.31c-2.34.28-4.77.55-7.9.71v-2.51c2.92-.12 5.28-.36 7.1-.55l-.09-4.18c-2.62.4-4.71.61-7 .74v-.92c0-.7.12-1.56.21-2.2z"/></clipPath><pattern id="Unnamed_Pattern_29-51" data-name="Unnamed Pattern 29" width="45.25" height="45" patternTransform="matrix(.61 -.89 -.89 -.61 16338.7 6451.05)" patternUnits="userSpaceOnUse" viewBox="0 0 45.25 45"><path class="cls-1" d="M0 0h45.25v45H0z"/><g class="cls-2"><path class="cls-3" d="M.25 45V0m1.36 45V0m1.37 45V0m1.36 45V0M5.7 45V0m1.37 45V0m1.36 45V0M9.8 45V0m1.36 45V0m1.36 45V0m1.37 45V0m1.36 45V0m1.36 45V0m1.37 45V0m1.36 45V0m1.36 45V0m1.37 45V0m1.36 45V0m1.37 45V0m1.36 45V0m1.36 45V0m1.37 45V0m1.36 45V0m1.36 45V0m1.37 45V0m1.36 45V0m1.36 45V0m1.37 45V0m1.36 45V0m1.37 45V0m1.36 45V0m1.36 45V0m1.37 45V0"/></g></pattern><clipPath id="clip-path-29" transform="translate(254.33 168.04)"><path class="cls-1" d="M146.65-83.43a1.86 1.86 0 0 1 1.94-2 2 2 0 0 1 1.66.8c.34 2.32-.68 3-1.66 3a1.94 1.94 0 0 1-1.94-1.86M149-98.21c.12.59.24 1.87.34 3v.33c-3.94.06-9.32.18-12.85.15l.12 4.4c3.72-.18 8.21-.37 12.79-.43v1.53a6.36 6.36 0 0 0-.77 0c-3.53 0-6.49 2.23-6.49 5.89a5.63 5.63 0 0 0 5.42 5.8 2.59 2.59 0 0 0 .55 0 16.57 16.57 0 0 1-7 2.66l3.9 3.91c7.63-2 10.15-7.3 10.15-11.17a7.89 7.89 0 0 0-1.2-4.37v-4.21c3.84 0 6.7.09 8.52.18l.06-4.33h-8.52v-.33c0-.55.16-2.41.25-3z"/></clipPath><pattern id="Unnamed_Pattern_29-53" data-name="Unnamed Pattern 29" width="45.25" height="45" patternTransform="matrix(.61 -.89 -.89 -.61 16303.2 6462.85)" patternUnits="userSpaceOnUse" viewBox="0 0 45.25 45"><path class="cls-1" d="M0 0h45.25v45H0z"/><g class="cls-2"><path class="cls-3" d="M.25 45V0m1.36 45V0m1.37 45V0m1.36 45V0M5.7 45V0m1.37 45V0m1.36 45V0M9.8 45V0m1.36 45V0m1.36 45V0m1.37 45V0m1.36 45V0m1.36 45V0m1.37 45V0m1.36 45V0m1.36 45V0m1.37 45V0m1.36 45V0m1.37 45V0m1.36 45V0m1.36 45V0m1.37 45V0m1.36 45V0m1.36 45V0m1.37 45V0m1.36 45V0m1.36 45V0m1.37 45V0m1.36 45V0m1.37 45V0m1.36 45V0m1.36 45V0m1.37 45V0"/></g></pattern><clipPath id="clip-path-30" transform="translate(254.33 168.04)"><path class="cls-1" d="M188.35-93.2c2.21 2.81 4.24 8.33 5 11.84l4.7-2.17A55.78 55.78 0 0 0 192.8-95zm-12.12 1.31c-1.35.09-2.61.18-3.5.22a34.83 34.83 0 0 1-3.54 0l.4 4.91c1-.18 2.77-.43 3.75-.55.43-.06 1.11-.15 1.91-.28-1.14 4.12-3.11 9.77-6 13.65l4.83 1.94c2.58-4.15 4.86-11.41 6.09-16.11.55 0 1.07-.07 1.41-.07 1.91 0 2.83.28 2.83 2.48 0 2.8-.37 6.25-1.14 7.75a2.07 2.07 0 0 1-2.06 1.16 19.88 19.88 0 0 1-3.72-.64l.8 4.82a18.53 18.53 0 0 0 3.69.43c2.49 0 4.27-.77 5.32-2.93 1.29-2.69 1.69-7.54 1.69-11.08 0-4.52-2.31-6.17-5.81-6.17-.55 0-1.26 0-2.06.1.18-.8.37-1.62.52-2.45s.43-2 .65-2.89l-5.47-.59a30.27 30.27 0 0 1-.59 6.32"/></clipPath><pattern id="Unnamed_Pattern_29-55" data-name="Unnamed Pattern 29" width="45.25" height="45" patternTransform="matrix(.61 -.89 -.89 -.61 16339.2 6463.85)" patternUnits="userSpaceOnUse" viewBox="0 0 45.25 45"><path class="cls-1" d="M0 0h45.25v45H0z"/><g class="cls-2"><path class="cls-3" d="M.25 45V0m1.36 45V0m1.37 45V0m1.36 45V0M5.7 45V0m1.37 45V0m1.36 45V0M9.8 45V0m1.36 45V0m1.36 45V0m1.37 45V0m1.36 45V0m1.36 45V0m1.37 45V0m1.36 45V0m1.36 45V0m1.37 45V0m1.36 45V0m1.37 45V0m1.36 45V0m1.36 45V0m1.37 45V0m1.36 45V0m1.36 45V0m1.37 45V0m1.36 45V0m1.36 45V0m1.37 45V0m1.36 45V0m1.37 45V0m1.36 45V0m1.36 45V0m1.37 45V0"/></g></pattern><clipPath id="clip-path-31" transform="translate(254.33 168.04)"><path class="cls-1" d="M212.94-76.48a3.39 3.39 0 0 0 3.63 3.39 3.39 3.39 0 0 0 3.63-3.39 3.35 3.35 0 0 0-3.63-3.32 3.35 3.35 0 0 0-3.63 3.32M209-92.8l3 2.74a5.68 5.68 0 0 1 4.4-2.19c2 0 3.47.76 3.47 2.44 0 2.68-6.15 3.6-5.66 8.24H219c-.28-4 6.09-4.34 6.09-8.73s-3.54-6.35-8.06-6.35A10.4 10.4 0 0 0 209-92.8"/></clipPath><pattern id="Unnamed_Pattern_29-57" data-name="Unnamed Pattern 29" width="45.25" height="45" patternTransform="matrix(.61 -.89 -.89 -.61 16335.22 6436.45)" patternUnits="userSpaceOnUse" viewBox="0 0 45.25 45"><path class="cls-1" d="M0 0h45.25v45H0z"/><g class="cls-2"><path class="cls-3" d="M.25 45V0m1.36 45V0m1.37 45V0m1.36 45V0M5.7 45V0m1.37 45V0m1.36 45V0M9.8 45V0m1.36 45V0m1.36 45V0m1.37 45V0m1.36 45V0m1.36 45V0m1.37 45V0m1.36 45V0m1.36 45V0m1.37 45V0m1.36 45V0m1.37 45V0m1.36 45V0m1.36 45V0m1.37 45V0m1.36 45V0m1.36 45V0m1.37 45V0m1.36 45V0m1.36 45V0m1.37 45V0m1.36 45V0m1.37 45V0m1.36 45V0m1.36 45V0m1.37 45V0"/></g></pattern></defs><title>i-title1</title><g id="Layer_2" data-name="Layer 2"><g id="_text" data-name="text"><g class="cls-4" id="Artwork_1" data-name="Artwork 1"><g class="cls-5"><path class="cls-6" d="M62.63 30.46L37.17 67.63 0 42.18 25.46 5l37.17 25.46z"/></g><g class="cls-7"><path class="cls-8" d="M96.63 30.46L71.17 67.63 34 42.18 59.46 5l37.17 25.46z"/></g><g class="cls-9"><path class="cls-10" d="M128.63 29.46l-25.46 37.17L66 41.18 91.46 4l37.17 25.46z"/></g><g class="cls-11"><path class="cls-12" d="M162.63 25.46l-25.45 37.17L100 37.18 125.46 0l37.17 25.46z"/></g><g class="cls-13"><path class="cls-14" d="M196.63 29.46l-25.45 37.17L134 41.18 159.46 4l37.17 25.46z"/></g><g class="cls-15"><path class="cls-16" d="M231.63 25.46l-25.45 37.17L169 37.18 194.46 0l37.17 25.46z"/></g><g class="cls-17"><path class="cls-18" d="M266.63 28.46l-25.45 37.17L204 40.18 229.46 3l37.17 25.46z"/></g><g class="cls-19"><path class="cls-20" d="M292.63 33.46l-25.45 37.17L230 45.18 255.46 8l37.17 25.46z"/></g><g class="cls-21"><path class="cls-22" d="M320.63 29.46l-25.45 37.17L258 41.18 283.46 4l37.17 25.46z"/></g><g class="cls-23"><path class="cls-24" d="M353.63 32.46l-25.45 37.17L291 44.18 316.46 7l37.17 25.46z"/></g><g class="cls-25"><path class="cls-26" d="M385.63 29.46l-25.45 37.17L323 41.18 348.46 4l37.17 25.46z"/></g><g class="cls-27"><path class="cls-28" d="M417.63 28.46l-25.45 37.17L355 40.18 380.46 3l37.17 25.46z"/></g><g class="cls-29"><path class="cls-30" d="M452.63 26.46l-25.45 37.17L390 38.18 415.46 1l37.17 25.46z"/></g><g class="cls-31"><path class="cls-32" d="M487.63 27.46l-25.45 37.17L425 39.18 450.46 2l37.17 25.46z"/></g><g class="cls-33"><path class="cls-34" d="M511.63 35.46l-25.45 37.17L449 47.18 474.46 10l37.17 25.46z"/></g><g class="cls-35"><path class="cls-36" d="M62.63 77.46l-25.46 37.17L0 89.18 25.46 52l37.17 25.46z"/></g><g class="cls-37"><path class="cls-38" d="M95.63 75.46l-25.46 37.17L33 87.18 58.46 50l37.17 25.46z"/></g><g class="cls-39"><path class="cls-40" d="M126.63 79.46l-25.46 37.17L64 91.18 89.46 54l37.17 25.46z"/></g><g class="cls-41"><path class="cls-42" d="M163.63 76.46l-25.45 37.17L101 88.18 126.46 51l37.17 25.46z"/></g><g class="cls-43"><path class="cls-44" d="M198.63 74.46l-25.45 37.17L136 86.18 161.46 49l37.17 25.46z"/></g><g class="cls-45"><path class="cls-46" d="M231.63 77.46l-25.45 37.17L169 89.18 194.46 52l37.17 25.46z"/></g><g class="cls-47"><path class="cls-48" d="M265.63 76.46l-25.45 37.17L203 88.18 228.46 51l37.17 25.46z"/></g><g class="cls-49"><path class="cls-50" d="M295.63 76.46l-25.45 37.17L233 88.18 258.46 51l37.17 25.46z"/></g><g class="cls-51"><path class="cls-52" d="M336.63 77.46l-25.45 37.17L274 89.18 299.46 52l37.17 25.46z"/></g><g class="cls-53"><path class="cls-54" d="M365.63 74.46l-25.45 37.17L303 86.18 328.46 49l37.17 25.46z"/></g><g class="cls-55"><path class="cls-56" d="M401.63 77.46l-25.45 37.17L339 89.18 364.46 52l37.17 25.46z"/></g><g class="cls-57"><path class="cls-58" d="M433.63 76.46l-25.45 37.17L371 88.18 396.46 51l37.17 25.46z"/></g><g class="cls-59"><path class="cls-60" d="M469.63 77.46l-25.45 37.17L407 89.18 432.46 52l37.17 25.46z"/></g><g class="cls-61"><path class="cls-62" d="M505.63 77.46l-25.45 37.17L443 89.18 468.46 52l37.17 25.46z"/></g><g class="cls-4"><path class="cls-63" d="M-224.32-138.92a38.07 38.07 0 0 1-2.12 11.44c2 1.86 4.67 2.32 7.81 2.35 1.66 0 6.79 0 8.79-.09a14.15 14.15 0 0 0-1.38 4h-7.66c-3.87 0-7-.58-9.41-2.63a13.28 13.28 0 0 1-2.76 2.93 14.37 14.37 0 0 0-1.91-2.77v2.77h-3.87v-15c-.4.58-.83 1.13-1.26 1.65a29.21 29.21 0 0 0-1.91-4.86 31.5 31.5 0 0 0 5.23-10.71l4 1.19a12.23 12.23 0 0 1-.4 1.16h3l.61-.15 2.77.7c-.8 2.32-1.85 5.07-2.95 7.72h.43l.67-.06zm-7.53-6.78c-.34.92-.71 1.8-1.11 2.69v6.71c1.08-2.44 2.21-5.31 3.14-7.69h-2zm2 11.2a16.87 16.87 0 0 0 .77 2.75 35.91 35.91 0 0 0 .79-4.33h-.83l-.49 1.16-3.38-.77v2.08zm-3.14 9.83a9.13 9.13 0 0 0 2.06-2.47 23.18 23.18 0 0 1-2.06-5.53zm12.39-19.71h-3.4v-3.15h3.47v-2.17h4v2.17h5v4h1.35v3.14h-1.35v4h-5v.92h5.07v3.14h-5.07v1h5.78v3.14h-5.78v2.38h-4v-2.38H-225v-3.14h4.46v-1h-3.78v-3.14h3.78v-.92H-224v-3.14h3.47v-.89H-226v-3.14h5.41zm4 .82h1.29v-.82h-1.29zm1.29 3.14h-1.29v.89h1.29zm36.25 8.49h-1.47l3.13 2.5c-1.38.82-2.86 1.68-4.21 2.32a14.66 14.66 0 0 0 4.73 2.29 15.26 15.26 0 0 0-2.7 3.57 14.7 14.7 0 0 1-7-5.4v1.58c0 2-.43 3-1.75 3.57s-3.14.64-5.69.64a12.8 12.8 0 0 0-.8-2.62c-1.11.52-2.15 1-3.14 1.49l-2.04-3.51c1.39-.42 3.23-1.09 5.2-1.83a21.82 21.82 0 0 0-4.12-2.62l2-2h-.34v-2.9h6.42v-.95h-7.62v-3h7.62v-.89h-6v-2.89h6v-1h-8v4.94c0 5.13-.49 13-3.38 17.83a17 17 0 0 0-3.63-2.42c2.58-4.36 2.77-10.83 2.77-15.41v-8.79h10.82v-2.5h4.67v2.5h10.83v3.85h-9.75v1h7.5v3.78h2.61v3h-2.61zm-13.71 7.47h1.23c.52 0 .7-.15.7-.61v-6.83h-4.82a21.85 21.85 0 0 1 3.56 2.13l-2.24 2.29 2.21-.85.8 3.17zm6.21-14.34h3.29v-.89h-3.29zm0 4h3.29v-.95h-3.29zm1 2.9a13.69 13.69 0 0 0 1.48 2.41 31 31 0 0 0 3.26-2.41zm28.3 3.54c.06-.77.12-1.9.15-3-1.9 1.09-2.73 2.07-2.73 3.29s1 1.8 3.81 1.8a45.74 45.74 0 0 0 8.86-.94l-.16 4.73a83.83 83.83 0 0 1-8.79.51c-5 0-8.61-1.28-8.61-5.31s3.63-6.47 7-8.24a2.33 2.33 0 0 0-1.66-.61 7.33 7.33 0 0 0-4.49 2 36.27 36.27 0 0 0-2.83 3.42l-3.93-2.93a27.78 27.78 0 0 0 6.51-7.79c-1.26 0-3.47-.06-5.07-.21v-4.24a40.51 40.51 0 0 0 5.47.37h1.2a18.44 18.44 0 0 0 .53-3.3l4.85.4a25 25 0 0 1-.67 2.74 69.74 69.74 0 0 0 8.21-.85v4.24c-2.86.37-6.58.64-9.84.76a16.86 16.86 0 0 1-1.17 2.14 14.9 14.9 0 0 1 3-.31 4.44 4.44 0 0 1 4.06 2.14c1.23-.58 2.21-1 3.29-1.46 1.32-.58 2.58-1.16 3.87-1.77l1.82 4.21c-1.08.3-3 1-4.15 1.46s-2.65 1-4.25 1.71c0 1.65.1 3.69.13 5zm48.37-13.31s-.07.79-.13 1.25c-.27 2.35-.64 3.63-1.32 4.27a3.4 3.4 0 0 1-2.15.83 29.29 29.29 0 0 1-3.35 0 7.09 7.09 0 0 0-.74-2.66c-1.11 1.29-2.83 2.23-5.6 2.9h8.55v10.23c0 2-.52 2.9-2 3.42a19.54 19.54 0 0 1-5.93.51 14.15 14.15 0 0 0-1.35-3.44c1.35.09 3.47.09 3.93.09s.74-.16.74-.61v-.28h-10.24v4.24H-133V-135h10.42a7.67 7.67 0 0 0-1.78-2.47 9.14 9.14 0 0 0 4.24-1.74h-3.35v-2.41h4.71a6.32 6.32 0 0 0 .18-1.1c-.8 0-1.75 0-2.74-.09a6 6 0 0 0-.83-2.59 31.87 31.87 0 0 0 3.48.12 1.76 1.76 0 0 0 1.11-.21 1.85 1.85 0 0 0 .46-.58h-5.38c-1.27 1.55-3.45 2.53-7.51 3.11h.65c-.06.46-.09.91-.19 1.34h5.69a10.28 10.28 0 0 1-.18 1.31c-.4 2.29-.89 3.54-1.54 4.15a3.26 3.26 0 0 1-2 .8 21.22 21.22 0 0 1-2.86 0 6.85 6.85 0 0 0-.58-2.38 9.24 9.24 0 0 1-5.14 3.39 8.13 8.13 0 0 0-2-2.66 7 7 0 0 0 3.84-2.23h-3.23v-2.41h4.24c.07-.3.1-.64.16-1-.49.07-1 .1-1.54.13a6.86 6.86 0 0 0-1.41-2.6 32.56 32.56 0 0 0 7.62-1h-6.36v-2.54h9.37a7 7 0 0 0 .31-1.34h4.14a7.55 7.55 0 0 1-.28 1.34h9a8.28 8.28 0 0 1-.21 1.41c-.4 2.07-1 3.17-1.69 3.75a4 4 0 0 1-1.08.49h.55c-.06.46-.12.91-.21 1.34zm-21.31 2.41a8.44 8.44 0 0 1-.55 1.13h1.32a.93.93 0 0 0 .77-.24 3.05 3.05 0 0 0 .52-.92zm12 7.08h-10.24v.83h10.24zm0 3.48h-10.24v.83h10.24zm2.52-10.56a4.47 4.47 0 0 1-.74 1.19c.83.06 1.6.09 2 .09a1 1 0 0 0 .83-.24 2.24 2.24 0 0 0 .43-1zm25.39-8.74c-.22.92-.46 2.05-.65 2.9s-.33 1.65-.52 2.44c.8-.06 1.51-.09 2.06-.09 3.51 0 5.81 1.65 5.81 6.17 0 3.54-.4 8.39-1.69 11.07-1 2.17-2.83 2.93-5.32 2.93a18.53 18.53 0 0 1-3.69-.42l-.8-4.82a19.88 19.88 0 0 0 3.72.64 2.07 2.07 0 0 0 2.06-1.16c.77-1.5 1.14-4.95 1.14-7.75 0-2.2-.92-2.48-2.83-2.48-.34 0-.86 0-1.41.06-1.23 4.7-3.51 12-6.09 16.12l-4.83-1.92c2.89-3.88 4.86-9.53 6-13.65-.8.13-1.48.22-1.91.28-1 .12-2.73.37-3.75.55l-.4-4.92a29.86 29.86 0 0 0 3.54 0c.89 0 2.15-.12 3.5-.21a30.27 30.27 0 0 0 .59-6.32zm10.51 2.6a55.31 55.31 0 0 1 5.23 11.5l-4.7 2.17c-.74-3.51-2.77-9-5-11.84zm37.39 4.46c-1.81-.09-4.67-.15-8.51-.18v4.21a7.89 7.89 0 0 1 1.2 4.37c0 3.87-2.52 9.12-10.15 11.17l-3.9-3.91a16.48 16.48 0 0 0 7-2.66 3.32 3.32 0 0 1-.55 0 5.62 5.62 0 0 1-5.41-5.79c0-3.67 3-5.89 6.49-5.89a6.44 6.44 0 0 1 .77 0v-1.53c-4.59.06-9.07.24-12.8.43l-.12-4.4c3.54 0 8.92-.09 12.85-.15v-.33c-.09-1.16-.21-2.45-.33-3h5.31c-.09.58-.21 2.45-.24 3v.34c2.83 0 6.92-.06 8.52 0zm-14 9c1 0 2-.71 1.66-3a2 2 0 0 0-1.66-.8 1.85 1.85 0 0 0-1.93 1.95 1.93 1.93 0 0 0 1.97 1.86zm48.07-3.96a48.32 48.32 0 0 1-5.26 3.36 14.85 14.85 0 0 0 6.28 5.7 17.56 17.56 0 0 0-3.11 3.84c-5.35-3.08-8.09-8.61-9.81-15.66a19.26 19.26 0 0 1-2.18 1.56c5.72 5.07 5.35 12.54 2.24 14.77a5.31 5.31 0 0 1-4.05 1.43 25.64 25.64 0 0 1-2.59-.06 10.24 10.24 0 0 0-1-3.78 50.66 50.66 0 0 1-5.84 2.44 18.42 18.42 0 0 0-2.36-3.62 36.82 36.82 0 0 0 12.67-5.74c-.09-.18-.19-.36-.31-.58a46.57 46.57 0 0 1-9 4.33 16.39 16.39 0 0 0-2.21-3.32 33.37 33.37 0 0 0 9.25-3.57l-.4-.37a46.5 46.5 0 0 1-7.16 2.44 23.07 23.07 0 0 0-2.25-3.45 38.24 38.24 0 0 0 8.46-2.44h-3v-3.72h16.2v3.72h-2.43a23.57 23.57 0 0 0 .89 2.57 31 31 0 0 0 3.51-2.84zm-22.41-4.43h-4.37v-7.32h10.89v-2.23h4.61v2.23h11v7.32h-4.59v-3.32h-17.54zm8.24 12.58a41.78 41.78 0 0 1-4.58 2.68c.73.06 1.41.06 2 .06a2 2 0 0 0 1.76-.67 3 3 0 0 0 .82-2.07zM4.1-121.5a64.2 64.2 0 0 0-6.51-6.68l3.9-3.33a55.31 55.31 0 0 1 6.58 6.63zm26.79-17.42a38 38 0 0 1-2.13 11.44c2 1.86 4.68 2.32 7.81 2.35 1.66 0 6.8 0 8.8-.09a14.16 14.16 0 0 0-1.39 4h-7.65c-3.88 0-7-.58-9.41-2.63a13.09 13.09 0 0 1-2.77 2.93 14.75 14.75 0 0 0-1.9-2.77v2.77h-3.88v-15c-.4.58-.83 1.13-1.26 1.65a30 30 0 0 0-1.9-4.86 31.49 31.49 0 0 0 5.22-10.71l4 1.19c-.13.4-.25.77-.4 1.16h3l.62-.15 2.76.7c-.8 2.32-1.84 5.07-2.95 7.72h.43l.68-.06zm-7.54-6.78c-.34.92-.71 1.8-1.1 2.69v6.71c1.07-2.44 2.21-5.31 3.13-7.69h-2zm2 11.2a17.93 17.93 0 0 0 .77 2.75 34 34 0 0 0 .8-4.33h-.83l-.49 1.16-3.38-.77v2.08zm-3.13 9.83a9.32 9.32 0 0 0 2.06-2.47 23.18 23.18 0 0 1-2.06-5.53zm12.39-19.71h-3.45v-3.15h3.48v-2.17h4v2.17h5v4H45v3.14h-1.32v4h-5v.92h5.08v3.14h-5.1v1h5.78v3.14h-5.78v2.38h-4v-2.38h-4.48v-3.14h4.46v-1h-3.79v-3.14h3.79v-.92h-3.48v-3.14h3.48v-.89h-5.41v-3.14h5.41zm4 .82H40v-.82h-1.3zm1.3 3.14h-1.3v.89H40zm36.23 8.49h-1.47l3.14 2.5c-1.39.82-2.86 1.68-4.22 2.32a14.71 14.71 0 0 0 4.74 2.29 15.58 15.58 0 0 0-2.71 3.57 14.7 14.7 0 0 1-7-5.4v1.58c0 2-.43 3-1.75 3.57s-3.14.64-5.69.64a12.8 12.8 0 0 0-.8-2.62c-1.1.52-2.15 1-3.13 1.49l-2.06-3.51c1.38-.42 3.22-1.09 5.19-1.83a21.51 21.51 0 0 0-4.12-2.62l2-2h-.34v-2.9h6.43v-.95h-7.61v-3h7.63v-.89h-6v-2.89h6v-1h-8.06v4.94c0 5.13-.49 13-3.38 17.83a16.77 16.77 0 0 0-3.63-2.42c2.59-4.36 2.77-10.83 2.77-15.41v-8.79h10.82v-2.5h4.68v2.5h10.82v3.85h-9.75v1h7.5v3.78h2.62v3h-2.62zm-13.71 7.47h1.23c.52 0 .71-.15.71-.61v-6.83h-4.83a22 22 0 0 1 3.57 2.13l-2.25 2.29 2.22-.85.8 3.17zm6.21-14.34h3.29v-.89h-3.29zm0 4h3.29v-.95h-3.29zm1 2.9a13.64 13.64 0 0 0 1.47 2.41 31 31 0 0 0 3.26-2.41zM98-128.36c.06-.77.12-1.9.15-3-1.91 1.09-2.74 2.07-2.74 3.29s1 1.8 3.82 1.8a45.64 45.64 0 0 0 8.85-.94l-.15 4.73a84 84 0 0 1-8.8.51c-5 0-8.61-1.28-8.61-5.31s3.63-6.47 7-8.24a2.32 2.32 0 0 0-1.66-.61 7.31 7.31 0 0 0-4.48 2 33.43 33.43 0 0 0-2.83 3.42l-3.94-2.93a28 28 0 0 0 6.52-7.79c-1.26 0-3.48-.06-5.07-.21v-4.24a40.4 40.4 0 0 0 5.47.37h1.2a17.39 17.39 0 0 0 .52-3.3l4.86.4a25.43 25.43 0 0 1-.68 2.74 69.3 69.3 0 0 0 8.21-.85v4.24c-2.86.37-6.58.64-9.84.76a16.86 16.86 0 0 1-1.17 2.14 15.09 15.09 0 0 1 3-.31 4.45 4.45 0 0 1 4.06 2.14c1.22-.58 2.21-1 3.28-1.46 1.33-.58 2.59-1.16 3.88-1.77l1.81 4.21c-1.07.3-3 1-4.15 1.46s-2.64 1-4.24 1.71c0 1.65.09 3.69.12 5zm47.7-5.83h-7.35v8.3c0 2.38-.49 3.57-2.09 4.24s-3.85.76-6.71.76a17.42 17.42 0 0 0-1.55-4.51c1.84.09 4.18.09 4.85.09s.87-.15.87-.67v-8.21H118v-4.33h15.75v-3.39h4.61v3.39h7.35zm-22.7-5.28h-4.55v-7.72h11v-2.72h4.8v2.72h11v7.72h-4.79V-143H123zm1.76 5.55a25.61 25.61 0 0 1 4.73 6l-3.84 2.54a26.78 26.78 0 0 0-4.46-6.26zm49.72-10.68c-.8.49-1.57.95-2.34 1.47-1.72 1.16-4.4 3.32-6.06 4.6a10.53 10.53 0 0 1 2.12-.18c5.23 0 9.35 3.33 9.35 7.87 0 4.73-3.44 8.85-11.31 8.85-4.31 0-7.87-2-7.87-5.31 0-2.65 2.45-5.12 5.9-5.12 3.72 0 6.12 2.13 6.64 5a4 4 0 0 0 1.78-3.48c0-2.59-2.67-4.21-6-4.21-4.46 0-7.66 2.66-10.58 6.2l-3.35-3.45c2-1.53 5.5-4.52 7.32-6s4.52-3.57 6-4.89c-1.54 0-4.67.16-6.3.28-.92.06-2 .15-2.74.27l-.15-4.73a24.12 24.12 0 0 0 3.1.19c1.63 0 7.72-.09 9.54-.25a16.57 16.57 0 0 0 2.7-.36zm-7.81 18.4c-.16-1.68-1.08-2.74-2.37-2.74-1 0-1.57.58-1.57 1.19 0 .94 1 1.61 2.55 1.61.49 0 .96-.03 1.39-.06zm46.39-9.7a48.21 48.21 0 0 1-5.25 3.36 14.76 14.76 0 0 0 6.27 5.7A17.56 17.56 0 0 0 211-123c-5.35-3.08-8.08-8.61-9.8-15.66a20.35 20.35 0 0 1-2.19 1.56c5.72 5.07 5.35 12.54 2.25 14.77a5.33 5.33 0 0 1-4.06 1.43 25.45 25.45 0 0 1-2.58-.06 10.26 10.26 0 0 0-1-3.78 50.66 50.66 0 0 1-5.84 2.44 18 18 0 0 0-2.34-3.66 36.73 36.73 0 0 0 12.67-5.74c-.09-.18-.18-.36-.31-.58a46.57 46.57 0 0 1-9 4.33 16.39 16.39 0 0 0-2.21-3.32 33.56 33.56 0 0 0 9.26-3.57l-.4-.37a47 47 0 0 1-7.17 2.44 23.79 23.79 0 0 0-2.24-3.45 38.16 38.16 0 0 0 8.45-2.44h-3v-3.72h16.2v3.72h-2.43a25.91 25.91 0 0 0 .89 2.57 29.35 29.35 0 0 0 3.51-2.84zm-22.41-4.43h-4.37v-7.32h10.89v-2.23h4.61v2.23h11v7.32h-4.58v-3.32h-17.55zm8.24 12.58a40.86 40.86 0 0 1-4.58 2.68c.74.06 1.41.06 2 .06a1.94 1.94 0 0 0 1.75-.67 3 3 0 0 0 .83-2.07zm26.6 6.25a65.32 65.32 0 0 0-6.52-6.68l3.9-3.33a54.57 54.57 0 0 1 6.58 6.63zm-442.34 28.38c-.12.31-.31.86-.52 1.41 3.44 1.22 5.81 3.93 5.81 7.53 0 4.25-2.37 8.61-10.05 9.74l-2.39-3.82c6.08-.67 7.9-3.69 7.9-6.13a3.92 3.92 0 0 0-2.53-3.61 22.76 22.76 0 0 1-6.18 8.79c.21.73.43 1.43.68 2.13l-4.25 1.26c-.12-.31-.21-.68-.34-1a11.08 11.08 0 0 1-4.45 1c-2.37 0-4.4-1.41-4.4-4.77 0-3.87 3.13-8 7.41-10 .06-1.13.15-2.28.28-3.38h-.5c-1.78 0-4.15-.16-5.65-.22l-.13-4.18a50.52 50.52 0 0 0 5.94.43h.74l.12-1.22a15 15 0 0 0 .09-2l4.77.13c-.22.7-.34 1.25-.46 1.77a11.51 11.51 0 0 0-.25 1.25 48.86 48.86 0 0 0 10.11-1.31v4.18a86.11 86.11 0 0 1-10.74 1.06L-226-92a19.74 19.74 0 0 1 4.24-.46h.19a16.44 16.44 0 0 0 .24-1.71zM-229.64-81a43.54 43.54 0 0 1-.55-5.22c-1.88 1.4-3.05 3.33-3.05 4.64 0 .82.31 1.28 1.2 1.28a5.6 5.6 0 0 0 2.4-.7zm6.89-7.69a14.65 14.65 0 0 0-3.35.55c0 1.52.12 2.87.27 4.12a16.91 16.91 0 0 0 3.08-4.7zm34.1-5.31a51.65 51.65 0 0 1-5.17 1 55.72 55.72 0 0 1-6.45 13l-4.46-2.23a46.76 46.76 0 0 0 6-10.35h-1c-1.29 0-2.52 0-3.94-.12l-.33-4.21c1.41.15 3.22.21 4.24.21.8 0 1.57 0 2.37-.09a24.54 24.54 0 0 0 .77-4.94l5 .49c-.22.94-.56 2.32-1 3.84 1.42-.27 2.71-.58 3.72-.88zm4.27 2.29c-.09 1.31 0 2.74 0 4.24 0 .7.09 1.89.15 3.14a19.63 19.63 0 0 1 6.31 3.94l-2.43 3.94a31.41 31.41 0 0 0-3.65-3.06c-.09 2.9-1.69 5.07-6.18 5.07-4 0-7.16-1.86-7.16-5.37 0-3 2.39-5.62 7.1-5.62a14 14 0 0 1 1.6.09c-.13-2.16-.25-4.63-.34-6.34zm-4.15 10.16a11.32 11.32 0 0 0-2.06-.21c-1.51 0-2.43.61-2.43 1.46s.83 1.65 2.12 1.65c1.82 0 2.37-1.07 2.37-2.75zm8.89-8.12a43.49 43.49 0 0 0-7.51-4.33l2.37-3.63a60.32 60.32 0 0 1 7.78 4.15zm26.04-3.97a48 48 0 0 1-5.66 1c-.3 1.28-.61 2.62-.92 3.81A100 100 0 0 1-165-74.81l-5.13-1.71c1.81-3 4.21-9.43 5.35-13.64.18-.7.4-1.43.55-2.13h-1.54c-1.56 0-2.73-.06-3.78-.12l-.12-4.55a32.4 32.4 0 0 0 3.93.24c.8 0 1.63 0 2.43-.06a9.16 9.16 0 0 0 .19-1.22 16.76 16.76 0 0 0 .09-3.39l5.63.43c-.25 1-.56 2.41-.71 3.11l-.12.52c1.56-.24 3.13-.55 4.67-.91zm-.28 9.56a11.18 11.18 0 0 0-.4 2.41c0 1.25.8 2 3.48 2a38.61 38.61 0 0 0 6.52-.64l-.19 4.67a51 51 0 0 1-6.36.43c-5.32 0-8-1.93-8-5a21 21 0 0 1 .56-4.3zm-2.36-7.73c1.75-.18 4-.33 6-.33 1.69 0 3.54.09 5.38.27l-.09 4.4a43.09 43.09 0 0 0-5.29-.4 45.66 45.66 0 0 0-6 .34zm26.78-8.27a28.23 28.23 0 0 0-.83 3.09 83.88 83.88 0 0 0-1.42 11.41 5.7 5.7 0 0 0 0 .7c.37-.88.74-1.46 1.14-2.35l2.24 1.77c-.92 2.72-1.84 5.77-2.21 7.51a9.44 9.44 0 0 0-.18 1.43v1.38l-4.15.27a34.25 34.25 0 0 1-1.26-9.67 91.56 91.56 0 0 1 1.2-12.55c.12-.91.3-2.28.33-3.41zm18.11 23.26a36.73 36.73 0 0 0-3.26-2.75c-.4 2.84-2.28 4.61-6.27 4.61-4.28 0-7.11-1.83-7.11-5.25s2.8-5.55 7-5.55c.53 0 1 0 1.54.06-.09-1.59-.18-3.45-.21-5.34h-1.73c-1.81 0-3.62-.06-5.44-.19v-4.36a54.12 54.12 0 0 0 5.44.28h1.73c0-1.41 0-2.54-.07-3.09a14.65 14.65 0 0 0-.24-2.07h5.26a17.38 17.38 0 0 0-.19 2c0 .58-.06 1.59-.09 2.84 1.54-.15 3-.4 4.43-.67v4.55c-1.36.18-2.86.36-4.46.48.06 2.75.21 4.92.31 6.69a19.26 19.26 0 0 1 5.84 3.9zm-7.91-5.13a7.87 7.87 0 0 0-2.06-.27c-1.41 0-2.36.55-2.36 1.49s1.07 1.44 2.36 1.44c1.48 0 2.06-.8 2.06-2.44zm37.98-11.11c-1.08.64-2.19 1.22-3.42 1.83a67 67 0 0 0-7 3.76c-2.36 1.52-4.05 3.14-4.05 5.13s1.93 2.93 5.84 2.93a51.86 51.86 0 0 0 10-1.17l-.09 5.29a59.21 59.21 0 0 1-9.87.76c-6.27 0-11.1-1.68-11.1-7.27 0-3.44 2.15-5.92 5-8-1.41-2.6-2.83-5.68-4.18-8.85l4.64-1.86a63.61 63.61 0 0 0 3.66 8c2-1.16 3.81-2.1 5.1-2.83a22.11 22.11 0 0 0 3.17-2zm.37-8.11A47.94 47.94 0 0 1-78.52-97l-2.92 1.22A40.25 40.25 0 0 0-83.8-100zm3.78-1.47a44.7 44.7 0 0 1 2.43 4.15l-2.89 1.22a34.76 34.76 0 0 0-2.41-4.21zm30.59 8.52c-2.92.45-7.81 1.06-12 1.25-.34 1.46-.7 2.93-1.07 4.21a16.25 16.25 0 0 1 7-1.5c5 0 8.48 2.69 8.48 6.75 0 7-6.67 9.58-16.85 8.48l-1.32-4.73c6.49 1.13 13.16.55 13.16-3.63 0-1.53-1.41-2.93-4.06-2.93a9.91 9.91 0 0 0-8.08 3.51 7.79 7.79 0 0 0-.8 1.28l-4.37-1.52A48 48 0 0 0-63-92.78c-1.81-.06-3.5-.12-4.92-.28v-4.51a48.71 48.71 0 0 0 5.78.61 7.76 7.76 0 0 0 .13-.83 16.69 16.69 0 0 0 .15-3.35l5.2.21c-.37 1.22-.56 2.29-.8 3.39l-.09.46a76.25 76.25 0 0 0 10.91-1.41zm19.19 5.52a15.46 15.46 0 0 1 8.42-2.4c5.72 0 8.83 3.54 8.83 7.23 0 5.62-4.15 10.16-17.56 9l-1.44-4.83c8.88 1.31 13.8-.61 13.8-4.3 0-1.71-1.66-3-4.09-3a10.27 10.27 0 0 0-7.87 3.29 8.19 8.19 0 0 0-1.26 1.9l-4.21-1a117.1 117.1 0 0 0 1.51-12.85l4.95.67a51.44 51.44 0 0 0-1.08 6.29zm.4-12.7a93.49 93.49 0 0 0 12.42 2.35l-1.11 4.52c-3.19-.43-10.08-1.86-12.48-2.47zM11.85-81c.06-.77.13-1.89.16-3-1.91 1.1-2.74 2.07-2.74 3.29s1 1.8 3.81 1.8a45.74 45.74 0 0 0 8.86-.94l-.16 4.73a83.5 83.5 0 0 1-8.79.52c-5 0-8.61-1.29-8.61-5.31s3.63-6.47 7-8.24a2.28 2.28 0 0 0-1.66-.61 7.32 7.32 0 0 0-4.49 2 37.6 37.6 0 0 0-2.83 3.42l-3.93-2.93A28 28 0 0 0 5-94.06c-1.26 0-3.48-.06-5.08-.22v-4.24a39.09 39.09 0 0 0 5.48.37h1.2a18.25 18.25 0 0 0 .52-3.3L12-101a27.39 27.39 0 0 1-.68 2.74 69.3 69.3 0 0 0 8.21-.85v4.24c-2.86.37-6.58.64-9.84.77A17.42 17.42 0 0 1 8.47-92a15 15 0 0 1 3-.3 4.44 4.44 0 0 1 4.06 2.13c1.23-.58 2.22-1 3.29-1.46 1.32-.58 2.59-1.16 3.88-1.77l1.81 4.21c-1.08.3-3 1-4.15 1.46s-2.64 1-4.24 1.71c0 1.65.09 3.7.12 5zm44.09 2.93c1.76-.06 3.42-.15 4.8-.28a20.09 20.09 0 0 0-1.32 4.12c-4.15.22-11 .28-15.1.09-3.56-.15-5.9-1-7.71-3.32-1.08 1.16-2.22 2.26-3.66 3.6l-2.06-4.24c1-.7 2.24-1.56 3.35-2.47v-6.08h-2.86v-4.09h7v9.8a5.28 5.28 0 0 0 3.72 2.62 26.81 26.81 0 0 0-2.8-2.22 22.52 22.52 0 0 0 4.95-1.83h-5.1v-3.21h4.7v-1.56H40v-3.14h3.84v-1.31H48v1.31h2.74v-1.31H55v1.31h4v3.14h-4v1.56h4.92v3.21h-5.17a55.25 55.25 0 0 1 5.38 2.86zm-21.12-16.3A23.89 23.89 0 0 0 31-99.65l3.53-2.2a23.49 23.49 0 0 1 4.12 5zM44.88-99h-5.45v-2.71h9.17v6.31H47a9.86 9.86 0 0 0 2.89 1c-.37 2.14-1.32 2.75-3.38 2.75h-2.83c-3 0-3.85-.83-3.85-3.63v-2.87h5.05zm4 17.52a21.12 21.12 0 0 1-5.78 3.39l1.17.09c2.68.12 7 .12 11 0a33.29 33.29 0 0 0-5-3.08l2.27-1.25h-6.1zm-2.86-13c.53 0 .68-.15.8-.89h-3.36v.09c0 .71.12.8.8.8zm2 9h2.74v-1.56H48zm7-13.46H49.4v-2.71h9.43v6.31h-1.69a10 10 0 0 0 2.89 1c-.37 2.14-1.32 2.75-3.38 2.75h-2.86c-3 0-3.84-.83-3.84-3.63v-2.87h5.1zm1.14 4.49c.52 0 .68-.15.8-.89h-3.38v.09c0 .71.12.8.8.8zm30.38-5.2a25.14 25.14 0 0 0 6.58 12.55l-3.41 3.63q-1.11-1.47-2.22-3.21C87.58-80.12 84.17-74 76.24-74c-5.2 0-8.89-3.3-8.89-8.67a18.7 18.7 0 0 1 4.4-11.44 31.61 31.61 0 0 0-3.32.52c-.65.12-1.11.24-1.85.42l-.64-4.7a17.68 17.68 0 0 0 1.78-.09 58.25 58.25 0 0 0 10.61-1.77l1.38 4a8.37 8.37 0 0 0-1.47.73c-2.19 1.74-6.15 6.87-6.15 11.66A4.06 4.06 0 0 0 76.45-79c5.69 0 8.89-6.74 6.24-17.73-.21-.52-.39-1-.61-1.58zm1.81 3.57a31 31 0 0 0-1.63-4.51l2.71-.83A45.19 45.19 0 0 1 91-96.93zm3.51-1.13a35 35 0 0 0-1.66-4.48l2.61-.86a36.22 36.22 0 0 1 1.75 4.49zM122.42-76a23.57 23.57 0 0 0-5.42-4v.61c0 2.83-2.31 4.76-6.34 4.76-5.13 0-7.8-2-7.8-5.37s2.92-5.53 7.77-5.53c.5 0 1 0 1.48.06l-.09-2h-1.48c-1.63 0-5.19-.15-7.13-.4v-4.3a50.12 50.12 0 0 0 7.16.58h1.36L112-94h-1.45a48.27 48.27 0 0 1-6.3-.46v-4.15a39.16 39.16 0 0 0 6.3.58H112v-1a13.73 13.73 0 0 0-.19-2.2h5c-.09.64-.18 1.5-.21 2.2v.92c2.24-.13 4.33-.34 7-.74l.09 4.18c-1.82.19-4.18.43-7.1.55v2.51c3.13-.16 5.56-.43 7.9-.7v4.3c-2.68.27-4.92.46-7.84.55.06.94.12 2 .18 2.93a24.16 24.16 0 0 1 8.34 4.48zm-10.15-5.52a14.1 14.1 0 0 0-2.27-.18c-1.69 0-2.68.64-2.68 1.49 0 1 1 1.53 2.59 1.53s2.4-.43 2.4-2a7.21 7.21 0 0 0-.04-.87zm48.28-12.06c-1.82-.09-4.68-.15-8.52-.18v4.21a7.89 7.89 0 0 1 1.2 4.37c0 3.87-2.52 9.12-10.15 11.17l-3.9-3.91c2.64-.52 5.2-1.25 7-2.66a3.44 3.44 0 0 1-.55 0 5.62 5.62 0 0 1-5.42-5.79c0-3.67 3-5.89 6.49-5.89a6.36 6.36 0 0 1 .77 0v-1.53c-4.58.06-9.07.25-12.79.43l-.12-4.4c3.53 0 8.91-.09 12.85-.15v-.33c-.1-1.16-.22-2.45-.34-3h5.32c-.09.58-.22 2.45-.25 3v.33c2.83 0 6.92-.06 8.52 0zm-14 9c1 0 2-.7 1.66-3a2 2 0 0 0-1.66-.8 1.86 1.86 0 0 0-1.94 2 1.94 1.94 0 0 0 1.98 1.81zm33.74-16.05c-.22.92-.46 2-.65 2.9s-.34 1.65-.52 2.45c.8-.07 1.51-.1 2.06-.1 3.5 0 5.81 1.65 5.81 6.17 0 3.54-.4 8.39-1.69 11.08-1.05 2.13-2.83 2.93-5.3 2.93a18.53 18.53 0 0 1-3.69-.43l-.8-4.82a19.88 19.88 0 0 0 3.72.64 2.08 2.08 0 0 0 2.04-1.19c.77-1.5 1.14-5 1.14-7.75 0-2.2-.92-2.48-2.83-2.48-.34 0-.86 0-1.41.07-1.23 4.7-3.51 12-6.09 16.11l-4.83-1.92c2.89-3.88 4.86-9.53 6-13.65-.8.13-1.48.22-1.91.28-1 .12-2.74.37-3.75.55l-.4-4.91a34.83 34.83 0 0 0 3.54 0c.89 0 2.15-.13 3.5-.22a29.54 29.54 0 0 0 .58-6.32zM190.8-98a55.54 55.54 0 0 1 5.2 11.47l-4.7 2.17c-.74-3.51-2.77-9-5-11.84zm27.03 5.19c0-1.68-1.44-2.44-3.47-2.44a5.68 5.68 0 0 0-4.4 2.19l-3-2.74a10.4 10.4 0 0 1 8.04-3.85c4.52 0 8.06 2 8.06 6.35s-6.37 4.7-6.09 8.73h-4.8c-.49-4.64 5.66-5.56 5.66-8.24zm-3.26 10a3.35 3.35 0 0 1 3.63 3.32 3.39 3.39 0 0 1-3.63 3.39 3.39 3.39 0 0 1-3.63-3.39 3.35 3.35 0 0 1 3.63-3.31z" transform="translate(254.33 168.04)"/><path d="M-224.32-138.92a38.07 38.07 0 0 1-2.12 11.44c2 1.86 4.67 2.32 7.81 2.35 1.66 0 6.79 0 8.79-.09a14.15 14.15 0 0 0-1.38 4h-7.66c-3.87 0-7-.58-9.41-2.63a13.28 13.28 0 0 1-2.76 2.93 14.37 14.37 0 0 0-1.91-2.77v2.77h-3.87v-15c-.4.58-.83 1.13-1.26 1.65a29.21 29.21 0 0 0-1.91-4.86 31.5 31.5 0 0 0 5.23-10.71l4 1.19a12.23 12.23 0 0 1-.4 1.16h3l.61-.15 2.77.7c-.8 2.32-1.85 5.07-2.95 7.72h.43l.67-.06zm-7.53-6.78c-.34.92-.71 1.8-1.11 2.69v6.71c1.08-2.44 2.21-5.31 3.14-7.69h-2zm2 11.2a16.87 16.87 0 0 0 .77 2.75 35.91 35.91 0 0 0 .79-4.33h-.83l-.49 1.16-3.38-.77v2.08zm-3.14 9.83a9.13 9.13 0 0 0 2.06-2.47 23.18 23.18 0 0 1-2.06-5.53zm12.39-19.71h-3.4v-3.15h3.47v-2.17h4v2.17h5v4h1.35v3.14h-1.35v4h-5v.92h5.07v3.14h-5.07v1h5.78v3.14h-5.78v2.38h-4v-2.38H-225v-3.14h4.46v-1h-3.78v-3.14h3.78v-.92H-224v-3.14h3.47v-.89H-226v-3.14h5.41zm4 .82h1.29v-.82h-1.29zm1.29 3.14h-1.29v.89h1.29zm36.25 8.49h-1.47l3.13 2.5c-1.38.82-2.86 1.68-4.21 2.32a14.66 14.66 0 0 0 4.73 2.29 15.26 15.26 0 0 0-2.7 3.57 14.7 14.7 0 0 1-7-5.4v1.58c0 2-.43 3-1.75 3.57s-3.14.64-5.69.64a12.8 12.8 0 0 0-.8-2.62c-1.11.52-2.15 1-3.14 1.49l-2.04-3.51c1.39-.42 3.23-1.09 5.2-1.83a21.82 21.82 0 0 0-4.12-2.62l2-2h-.34v-2.9h6.42v-.95h-7.62v-3h7.62v-.89h-6v-2.89h6v-1h-8v4.94c0 5.13-.49 13-3.38 17.83a17 17 0 0 0-3.63-2.42c2.58-4.36 2.77-10.83 2.77-15.41v-8.79h10.82v-2.5h4.67v2.5h10.83v3.85h-9.75v1h7.5v3.78h2.61v3h-2.61zm-13.71 7.47h1.23c.52 0 .7-.15.7-.61v-6.83h-4.82a21.85 21.85 0 0 1 3.56 2.13l-2.24 2.29 2.21-.85.8 3.17zm6.21-14.34h3.29v-.89h-3.29zm0 4h3.29v-.95h-3.29zm1 2.9a13.69 13.69 0 0 0 1.48 2.41 31 31 0 0 0 3.26-2.41zm28.3 3.54c.06-.77.12-1.9.15-3-1.9 1.09-2.73 2.07-2.73 3.29s1 1.8 3.81 1.8a45.74 45.74 0 0 0 8.86-.94l-.16 4.73a83.83 83.83 0 0 1-8.79.51c-5 0-8.61-1.28-8.61-5.31s3.63-6.47 7-8.24a2.33 2.33 0 0 0-1.66-.61 7.33 7.33 0 0 0-4.49 2 36.27 36.27 0 0 0-2.83 3.42l-3.93-2.93a27.78 27.78 0 0 0 6.51-7.79c-1.26 0-3.47-.06-5.07-.21v-4.24a40.51 40.51 0 0 0 5.47.37h1.2a18.44 18.44 0 0 0 .53-3.3l4.85.4a25 25 0 0 1-.67 2.74 69.74 69.74 0 0 0 8.21-.85v4.24c-2.86.37-6.58.64-9.84.76a16.86 16.86 0 0 1-1.17 2.14 14.9 14.9 0 0 1 3-.31 4.44 4.44 0 0 1 4.06 2.14c1.23-.58 2.21-1 3.29-1.46 1.32-.58 2.58-1.16 3.87-1.77l1.82 4.21c-1.08.3-3 1-4.15 1.46s-2.65 1-4.25 1.71c0 1.65.1 3.69.13 5zm48.37-13.31s-.07.79-.13 1.25c-.27 2.35-.64 3.63-1.32 4.27a3.4 3.4 0 0 1-2.15.83 29.29 29.29 0 0 1-3.35 0 7.09 7.09 0 0 0-.74-2.66c-1.11 1.29-2.83 2.23-5.6 2.9h8.55v10.23c0 2-.52 2.9-2 3.42a19.54 19.54 0 0 1-5.93.51 14.15 14.15 0 0 0-1.35-3.44c1.35.09 3.47.09 3.93.09s.74-.16.74-.61v-.28h-10.24v4.24H-133V-135h10.42a7.67 7.67 0 0 0-1.78-2.47 9.14 9.14 0 0 0 4.24-1.74h-3.35v-2.41h4.71a6.32 6.32 0 0 0 .18-1.1c-.8 0-1.75 0-2.74-.09a6 6 0 0 0-.83-2.59 31.87 31.87 0 0 0 3.48.12 1.76 1.76 0 0 0 1.11-.21 1.85 1.85 0 0 0 .46-.58h-5.38c-1.27 1.55-3.45 2.53-7.51 3.11h.65c-.06.46-.09.91-.19 1.34h5.69a10.28 10.28 0 0 1-.18 1.31c-.4 2.29-.89 3.54-1.54 4.15a3.26 3.26 0 0 1-2 .8 21.22 21.22 0 0 1-2.86 0 6.85 6.85 0 0 0-.58-2.38 9.24 9.24 0 0 1-5.14 3.39 8.13 8.13 0 0 0-2-2.66 7 7 0 0 0 3.84-2.23h-3.23v-2.41h4.24c.07-.3.1-.64.16-1-.49.07-1 .1-1.54.13a6.86 6.86 0 0 0-1.41-2.6 32.56 32.56 0 0 0 7.62-1h-6.36v-2.54h9.37a7 7 0 0 0 .31-1.34h4.14a7.55 7.55 0 0 1-.28 1.34h9a8.28 8.28 0 0 1-.21 1.41c-.4 2.07-1 3.17-1.69 3.75a4 4 0 0 1-1.08.49h.55c-.06.46-.12.91-.21 1.34zm-21.31 2.41a8.44 8.44 0 0 1-.55 1.13h1.32a.93.93 0 0 0 .77-.24 3.05 3.05 0 0 0 .52-.92zm12 7.08h-10.24v.83h10.24zm0 3.48h-10.24v.83h10.24zm2.52-10.56a4.47 4.47 0 0 1-.74 1.19c.83.06 1.6.09 2 .09a1 1 0 0 0 .83-.24 2.24 2.24 0 0 0 .43-1zm25.39-8.74c-.22.92-.46 2.05-.65 2.9s-.33 1.65-.52 2.44c.8-.06 1.51-.09 2.06-.09 3.51 0 5.81 1.65 5.81 6.17 0 3.54-.4 8.39-1.69 11.07-1 2.17-2.83 2.93-5.32 2.93a18.53 18.53 0 0 1-3.69-.42l-.8-4.82a19.88 19.88 0 0 0 3.72.64 2.07 2.07 0 0 0 2.06-1.16c.77-1.5 1.14-4.95 1.14-7.75 0-2.2-.92-2.48-2.83-2.48-.34 0-.86 0-1.41.06-1.23 4.7-3.51 12-6.09 16.12l-4.83-1.92c2.89-3.88 4.86-9.53 6-13.65-.8.13-1.48.22-1.91.28-1 .12-2.73.37-3.75.55l-.4-4.92a29.86 29.86 0 0 0 3.54 0c.89 0 2.15-.12 3.5-.21a30.27 30.27 0 0 0 .59-6.32zm10.51 2.6a55.31 55.31 0 0 1 5.23 11.5l-4.7 2.17c-.74-3.51-2.77-9-5-11.84zm37.39 4.46c-1.81-.09-4.67-.15-8.51-.18v4.21a7.89 7.89 0 0 1 1.2 4.37c0 3.87-2.52 9.12-10.15 11.17l-3.9-3.91a16.48 16.48 0 0 0 7-2.66 3.32 3.32 0 0 1-.55 0 5.62 5.62 0 0 1-5.41-5.79c0-3.67 3-5.89 6.49-5.89a6.44 6.44 0 0 1 .77 0v-1.53c-4.59.06-9.07.24-12.8.43l-.12-4.4c3.54 0 8.92-.09 12.85-.15v-.33c-.09-1.16-.21-2.45-.33-3h5.31c-.09.58-.21 2.45-.24 3v.34c2.83 0 6.92-.06 8.52 0zm-14 9c1 0 2-.71 1.66-3a2 2 0 0 0-1.66-.8 1.85 1.85 0 0 0-1.93 1.95 1.93 1.93 0 0 0 1.93 1.87m48.07-3.98a48.32 48.32 0 0 1-5.26 3.36 14.85 14.85 0 0 0 6.28 5.7 17.56 17.56 0 0 0-3.11 3.84c-5.35-3.08-8.09-8.61-9.81-15.66a19.26 19.26 0 0 1-2.18 1.56c5.72 5.07 5.35 12.54 2.24 14.77a5.31 5.31 0 0 1-4.05 1.43 25.64 25.64 0 0 1-2.59-.06 10.24 10.24 0 0 0-1-3.78 50.66 50.66 0 0 1-5.84 2.44 18.42 18.42 0 0 0-2.36-3.62 36.82 36.82 0 0 0 12.67-5.74c-.09-.18-.19-.36-.31-.58a46.57 46.57 0 0 1-9 4.33 16.39 16.39 0 0 0-2.21-3.32 33.37 33.37 0 0 0 9.25-3.57l-.4-.37a46.5 46.5 0 0 1-7.16 2.44 23.07 23.07 0 0 0-2.25-3.45 38.24 38.24 0 0 0 8.46-2.44h-3v-3.72h16.2v3.72h-2.43a23.57 23.57 0 0 0 .89 2.57 31 31 0 0 0 3.51-2.84zm-22.41-4.43h-4.37v-7.32h10.89v-2.23h4.61v2.23h11v7.32h-4.59v-3.32h-17.54zm8.24 12.58a41.78 41.78 0 0 1-4.58 2.68c.73.06 1.41.06 2 .06a2 2 0 0 0 1.76-.67 3 3 0 0 0 .83-2.07M4.1-121.5a64.2 64.2 0 0 0-6.51-6.68l3.9-3.33a55.31 55.31 0 0 1 6.58 6.63zm26.79-17.42a38 38 0 0 1-2.13 11.44c2 1.86 4.68 2.32 7.81 2.35 1.66 0 6.8 0 8.8-.09a14.16 14.16 0 0 0-1.39 4h-7.65c-3.88 0-7-.58-9.41-2.63a13.09 13.09 0 0 1-2.77 2.93 14.75 14.75 0 0 0-1.9-2.77v2.77h-3.88v-15c-.4.58-.83 1.13-1.26 1.65a30 30 0 0 0-1.9-4.86 31.49 31.49 0 0 0 5.22-10.71l4 1.19c-.13.4-.25.77-.4 1.16h3l.62-.15 2.76.7c-.8 2.32-1.84 5.07-2.95 7.72h.43l.68-.06zm-7.54-6.78c-.34.92-.71 1.8-1.1 2.69v6.71c1.07-2.44 2.21-5.31 3.13-7.69h-2zm2 11.2a17.93 17.93 0 0 0 .77 2.75 34 34 0 0 0 .8-4.33h-.83l-.49 1.16-3.38-.77v2.08zm-3.13 9.83a9.32 9.32 0 0 0 2.06-2.47 23.18 23.18 0 0 1-2.06-5.53zm12.39-19.71h-3.45v-3.15h3.48v-2.17h4v2.17h5v4H45v3.14h-1.32v4h-5v.92h5.08v3.14h-5.1v1h5.78v3.14h-5.78v2.38h-4v-2.38h-4.48v-3.14h4.46v-1h-3.79v-3.14h3.79v-.92h-3.48v-3.14h3.48v-.89h-5.41v-3.14h5.41zm4 .82H40v-.82h-1.3zm1.3 3.14h-1.3v.89H40zm36.23 8.49h-1.47l3.14 2.5c-1.39.82-2.86 1.68-4.22 2.32a14.71 14.71 0 0 0 4.74 2.29 15.58 15.58 0 0 0-2.71 3.57 14.7 14.7 0 0 1-7-5.4v1.58c0 2-.43 3-1.75 3.57s-3.14.64-5.69.64a12.8 12.8 0 0 0-.8-2.62c-1.1.52-2.15 1-3.13 1.49l-2.06-3.51c1.38-.42 3.22-1.09 5.19-1.83a21.51 21.51 0 0 0-4.12-2.62l2-2h-.34v-2.9h6.43v-.95h-7.61v-3h7.63v-.89h-6v-2.89h6v-1h-8.06v4.94c0 5.13-.49 13-3.38 17.83a16.77 16.77 0 0 0-3.63-2.42c2.59-4.36 2.77-10.83 2.77-15.41v-8.79h10.82v-2.5h4.68v2.5h10.82v3.85h-9.75v1h7.5v3.78h2.62v3h-2.62zm-13.71 7.47h1.23c.52 0 .71-.15.71-.61v-6.83h-4.83a22 22 0 0 1 3.57 2.13l-2.25 2.29 2.22-.85.8 3.17zm6.21-14.34h3.29v-.89h-3.29zm0 4h3.29v-.95h-3.29zm1 2.9a13.64 13.64 0 0 0 1.47 2.41 31 31 0 0 0 3.26-2.41zM98-128.36c.06-.77.12-1.9.15-3-1.91 1.09-2.74 2.07-2.74 3.29s1 1.8 3.82 1.8a45.64 45.64 0 0 0 8.85-.94l-.15 4.73a84 84 0 0 1-8.8.51c-5 0-8.61-1.28-8.61-5.31s3.63-6.47 7-8.24a2.32 2.32 0 0 0-1.66-.61 7.31 7.31 0 0 0-4.48 2 33.43 33.43 0 0 0-2.83 3.42l-3.94-2.93a28 28 0 0 0 6.52-7.79c-1.26 0-3.48-.06-5.07-.21v-4.24a40.4 40.4 0 0 0 5.47.37h1.2a17.39 17.39 0 0 0 .52-3.3l4.86.4a25.43 25.43 0 0 1-.68 2.74 69.3 69.3 0 0 0 8.21-.85v4.24c-2.86.37-6.58.64-9.84.76a16.86 16.86 0 0 1-1.17 2.14 15.09 15.09 0 0 1 3-.31 4.45 4.45 0 0 1 4.06 2.14c1.22-.58 2.21-1 3.28-1.46 1.33-.58 2.59-1.16 3.88-1.77l1.81 4.21c-1.07.3-3 1-4.15 1.46s-2.64 1-4.24 1.71c0 1.65.09 3.69.12 5zm47.7-5.83h-7.35v8.3c0 2.38-.49 3.57-2.09 4.24s-3.85.76-6.71.76a17.42 17.42 0 0 0-1.55-4.51c1.84.09 4.18.09 4.85.09s.87-.15.87-.67v-8.21H118v-4.33h15.75v-3.39h4.61v3.39h7.35zm-22.7-5.28h-4.55v-7.72h11v-2.72h4.8v2.72h11v7.72h-4.79V-143H123zm1.76 5.55a25.61 25.61 0 0 1 4.73 6l-3.84 2.54a26.78 26.78 0 0 0-4.46-6.26zm49.72-10.68c-.8.49-1.57.95-2.34 1.47-1.72 1.16-4.4 3.32-6.06 4.6a10.53 10.53 0 0 1 2.12-.18c5.23 0 9.35 3.33 9.35 7.87 0 4.73-3.44 8.85-11.31 8.85-4.31 0-7.87-2-7.87-5.31 0-2.65 2.45-5.12 5.9-5.12 3.72 0 6.12 2.13 6.64 5a4 4 0 0 0 1.78-3.48c0-2.59-2.67-4.21-6-4.21-4.46 0-7.66 2.66-10.58 6.2l-3.35-3.45c2-1.53 5.5-4.52 7.32-6s4.52-3.57 6-4.89c-1.54 0-4.67.16-6.3.28-.92.06-2 .15-2.74.27l-.15-4.73a24.12 24.12 0 0 0 3.1.19c1.63 0 7.72-.09 9.54-.25a16.57 16.57 0 0 0 2.7-.36zm-7.81 18.4c-.16-1.68-1.08-2.74-2.37-2.74-1 0-1.57.58-1.57 1.19 0 .94 1 1.61 2.55 1.61.49 0 1 0 1.39-.06m46.39-9.7a48.21 48.21 0 0 1-5.25 3.36 14.76 14.76 0 0 0 6.27 5.7A17.56 17.56 0 0 0 211-123c-5.35-3.08-8.08-8.61-9.8-15.66a20.35 20.35 0 0 1-2.19 1.56c5.72 5.07 5.35 12.54 2.25 14.77a5.33 5.33 0 0 1-4.06 1.43 25.45 25.45 0 0 1-2.58-.06 10.26 10.26 0 0 0-1-3.78 50.66 50.66 0 0 1-5.84 2.44 18 18 0 0 0-2.34-3.66 36.73 36.73 0 0 0 12.67-5.74c-.09-.18-.18-.36-.31-.58a46.57 46.57 0 0 1-9 4.33 16.39 16.39 0 0 0-2.21-3.32 33.56 33.56 0 0 0 9.26-3.57l-.4-.37a47 47 0 0 1-7.17 2.44 23.79 23.79 0 0 0-2.24-3.45 38.16 38.16 0 0 0 8.45-2.44h-3v-3.72h16.2v3.72h-2.43a25.91 25.91 0 0 0 .89 2.57 29.35 29.35 0 0 0 3.51-2.84zm-22.41-4.43h-4.37v-7.32h10.89v-2.23h4.61v2.23h11v7.32h-4.58v-3.32h-17.55zm8.24 12.58a40.86 40.86 0 0 1-4.58 2.68c.74.06 1.41.06 2 .06a1.94 1.94 0 0 0 1.75-.67 3 3 0 0 0 .83-2.07m26.6 6.25a65.32 65.32 0 0 0-6.52-6.68l3.9-3.33a54.57 54.57 0 0 1 6.58 6.63zm-442.34 28.38c-.12.31-.31.86-.52 1.41 3.44 1.22 5.81 3.93 5.81 7.53 0 4.25-2.37 8.61-10.05 9.74l-2.39-3.82c6.08-.67 7.9-3.69 7.9-6.13a3.92 3.92 0 0 0-2.53-3.61 22.76 22.76 0 0 1-6.18 8.79c.21.73.43 1.43.68 2.13l-4.25 1.26c-.12-.31-.21-.68-.34-1a11.08 11.08 0 0 1-4.45 1c-2.37 0-4.4-1.41-4.4-4.77 0-3.87 3.13-8 7.41-10 .06-1.13.15-2.28.28-3.38h-.5c-1.78 0-4.15-.16-5.65-.22l-.13-4.18a50.52 50.52 0 0 0 5.94.43h.74l.12-1.22a15 15 0 0 0 .09-2l4.77.13c-.22.7-.34 1.25-.46 1.77a11.51 11.51 0 0 0-.25 1.25 48.86 48.86 0 0 0 10.11-1.31v4.18a86.11 86.11 0 0 1-10.74 1.06L-226-92a19.74 19.74 0 0 1 4.24-.46h.19a16.44 16.44 0 0 0 .24-1.71zM-229.64-81a43.54 43.54 0 0 1-.55-5.22c-1.88 1.4-3.05 3.33-3.05 4.64 0 .82.31 1.28 1.2 1.28a5.6 5.6 0 0 0 2.4-.7m6.89-7.69a14.65 14.65 0 0 0-3.35.55c0 1.52.12 2.87.27 4.12a16.91 16.91 0 0 0 3.08-4.67m34.1-5.31a51.65 51.65 0 0 1-5.17 1 55.72 55.72 0 0 1-6.45 13l-4.46-2.23a46.76 46.76 0 0 0 6-10.35h-1c-1.29 0-2.52 0-3.94-.12l-.33-4.21c1.41.15 3.22.21 4.24.21.8 0 1.57 0 2.37-.09a24.54 24.54 0 0 0 .77-4.94l5 .49c-.22.94-.56 2.32-1 3.84 1.42-.27 2.71-.58 3.72-.88zm4.27 2.29c-.09 1.31 0 2.74 0 4.24 0 .7.09 1.89.15 3.14a19.63 19.63 0 0 1 6.31 3.94l-2.43 3.94a31.41 31.41 0 0 0-3.65-3.06c-.09 2.9-1.69 5.07-6.18 5.07-4 0-7.16-1.86-7.16-5.37 0-3 2.39-5.62 7.1-5.62a14 14 0 0 1 1.6.09c-.13-2.16-.25-4.63-.34-6.34zm-4.15 10.16a11.32 11.32 0 0 0-2.06-.21c-1.51 0-2.43.61-2.43 1.46s.83 1.65 2.12 1.65c1.82 0 2.37-1.07 2.37-2.75zm8.89-8.12a43.49 43.49 0 0 0-7.51-4.33l2.37-3.63a60.32 60.32 0 0 1 7.78 4.15zm26.04-3.97a48 48 0 0 1-5.66 1c-.3 1.28-.61 2.62-.92 3.81A100 100 0 0 1-165-74.81l-5.13-1.71c1.81-3 4.21-9.43 5.35-13.64.18-.7.4-1.43.55-2.13h-1.54c-1.56 0-2.73-.06-3.78-.12l-.12-4.55a32.4 32.4 0 0 0 3.93.24c.8 0 1.63 0 2.43-.06a9.16 9.16 0 0 0 .19-1.22 16.76 16.76 0 0 0 .09-3.39l5.63.43c-.25 1-.56 2.41-.71 3.11l-.12.52c1.56-.24 3.13-.55 4.67-.91zm-.28 9.56a11.18 11.18 0 0 0-.4 2.41c0 1.25.8 2 3.48 2a38.61 38.61 0 0 0 6.52-.64l-.19 4.67a51 51 0 0 1-6.36.43c-5.32 0-8-1.93-8-5a21 21 0 0 1 .56-4.3zm-2.36-7.73c1.75-.18 4-.33 6-.33 1.69 0 3.54.09 5.38.27l-.09 4.4a43.09 43.09 0 0 0-5.29-.4 45.66 45.66 0 0 0-6 .34zm26.78-8.27a28.23 28.23 0 0 0-.83 3.09 83.88 83.88 0 0 0-1.42 11.41 5.7 5.7 0 0 0 0 .7c.37-.88.74-1.46 1.14-2.35l2.24 1.77c-.92 2.72-1.84 5.77-2.21 7.51a9.44 9.44 0 0 0-.18 1.43v1.38l-4.15.27a34.25 34.25 0 0 1-1.26-9.67 91.56 91.56 0 0 1 1.2-12.55c.12-.91.3-2.28.33-3.41zm18.11 23.26a36.73 36.73 0 0 0-3.26-2.75c-.4 2.84-2.28 4.61-6.27 4.61-4.28 0-7.11-1.83-7.11-5.25s2.8-5.55 7-5.55c.53 0 1 0 1.54.06-.09-1.59-.18-3.45-.21-5.34h-1.73c-1.81 0-3.62-.06-5.44-.19v-4.36a54.12 54.12 0 0 0 5.44.28h1.73c0-1.41 0-2.54-.07-3.09a14.65 14.65 0 0 0-.24-2.07h5.26a17.38 17.38 0 0 0-.19 2c0 .58-.06 1.59-.09 2.84 1.54-.15 3-.4 4.43-.67v4.55c-1.36.18-2.86.36-4.46.48.06 2.75.21 4.92.31 6.69a19.26 19.26 0 0 1 5.84 3.9zm-7.91-5.13a7.87 7.87 0 0 0-2.06-.27c-1.41 0-2.36.55-2.36 1.49s1.07 1.44 2.36 1.44c1.48 0 2.06-.8 2.06-2.44zm37.98-11.11c-1.08.64-2.19 1.22-3.42 1.83a67 67 0 0 0-7 3.76c-2.36 1.52-4.05 3.14-4.05 5.13s1.93 2.93 5.84 2.93a51.86 51.86 0 0 0 10-1.17l-.09 5.29a59.21 59.21 0 0 1-9.87.76c-6.27 0-11.1-1.68-11.1-7.27 0-3.44 2.15-5.92 5-8-1.41-2.6-2.83-5.68-4.18-8.85l4.64-1.86a63.61 63.61 0 0 0 3.66 8c2-1.16 3.81-2.1 5.1-2.83a22.11 22.11 0 0 0 3.17-2zm.37-8.11A47.94 47.94 0 0 1-78.52-97l-2.92 1.22A40.25 40.25 0 0 0-83.8-100zm3.78-1.47a44.7 44.7 0 0 1 2.43 4.15l-2.89 1.22a34.76 34.76 0 0 0-2.41-4.21zm30.59 8.52c-2.92.45-7.81 1.06-12 1.25-.34 1.46-.7 2.93-1.07 4.21a16.25 16.25 0 0 1 7-1.5c5 0 8.48 2.69 8.48 6.75 0 7-6.67 9.58-16.85 8.48l-1.32-4.73c6.49 1.13 13.16.55 13.16-3.63 0-1.53-1.41-2.93-4.06-2.93a9.91 9.91 0 0 0-8.08 3.51 7.79 7.79 0 0 0-.8 1.28l-4.37-1.52A48 48 0 0 0-63-92.78c-1.81-.06-3.5-.12-4.92-.28v-4.51a48.71 48.71 0 0 0 5.78.61 7.76 7.76 0 0 0 .13-.83 16.69 16.69 0 0 0 .15-3.35l5.2.21c-.37 1.22-.56 2.29-.8 3.39l-.09.46a76.25 76.25 0 0 0 10.91-1.41zm19.19 5.52a15.46 15.46 0 0 1 8.42-2.4c5.72 0 8.83 3.54 8.83 7.23 0 5.62-4.15 10.16-17.56 9l-1.44-4.83c8.88 1.31 13.8-.61 13.8-4.3 0-1.71-1.66-3-4.09-3a10.27 10.27 0 0 0-7.87 3.29 8.19 8.19 0 0 0-1.26 1.9l-4.21-1a117.1 117.1 0 0 0 1.51-12.85l4.95.67a51.44 51.44 0 0 0-1.08 6.32m.4-12.7a93.49 93.49 0 0 0 12.42 2.35l-1.11 4.52c-3.19-.43-10.08-1.86-12.48-2.47zM11.85-81c.06-.77.13-1.89.16-3-1.91 1.1-2.74 2.07-2.74 3.29s1 1.8 3.81 1.8a45.74 45.74 0 0 0 8.86-.94l-.16 4.73a83.5 83.5 0 0 1-8.79.52c-5 0-8.61-1.29-8.61-5.31s3.63-6.47 7-8.24a2.28 2.28 0 0 0-1.66-.61 7.32 7.32 0 0 0-4.49 2 37.6 37.6 0 0 0-2.83 3.42l-3.93-2.93A28 28 0 0 0 5-94.06c-1.26 0-3.48-.06-5.08-.22v-4.24a39.09 39.09 0 0 0 5.48.37h1.2a18.25 18.25 0 0 0 .52-3.3L12-101a27.39 27.39 0 0 1-.68 2.74 69.3 69.3 0 0 0 8.21-.85v4.24c-2.86.37-6.58.64-9.84.77A17.42 17.42 0 0 1 8.47-92a15 15 0 0 1 3-.3 4.44 4.44 0 0 1 4.06 2.13c1.23-.58 2.22-1 3.29-1.46 1.32-.58 2.59-1.16 3.88-1.77l1.81 4.21c-1.08.3-3 1-4.15 1.46s-2.64 1-4.24 1.71c0 1.65.09 3.7.12 5zm44.09 2.93c1.76-.06 3.42-.15 4.8-.28a20.09 20.09 0 0 0-1.32 4.12c-4.15.22-11 .28-15.1.09-3.56-.15-5.9-1-7.71-3.32-1.08 1.16-2.22 2.26-3.66 3.6l-2.06-4.24c1-.7 2.24-1.56 3.35-2.47v-6.08h-2.86v-4.09h7v9.8a5.28 5.28 0 0 0 3.72 2.62 26.81 26.81 0 0 0-2.8-2.22 22.52 22.52 0 0 0 4.95-1.83h-5.1v-3.21h4.7v-1.56H40v-3.14h3.84v-1.31H48v1.31h2.74v-1.31H55v1.31h4v3.14h-4v1.56h4.92v3.21h-5.17a55.25 55.25 0 0 1 5.38 2.86zm-21.12-16.3A23.89 23.89 0 0 0 31-99.65l3.53-2.2a23.49 23.49 0 0 1 4.12 5zM44.88-99h-5.45v-2.71h9.17v6.31H47a9.86 9.86 0 0 0 2.89 1c-.37 2.14-1.32 2.75-3.38 2.75h-2.83c-3 0-3.85-.83-3.85-3.63v-2.87h5.05zm4 17.52a21.12 21.12 0 0 1-5.78 3.39l1.17.09c2.68.12 7 .12 11 0a33.29 33.29 0 0 0-5-3.08l2.27-1.25h-6.1zm-2.86-13c.53 0 .68-.15.8-.89h-3.36v.09c0 .71.12.8.8.8zm2 9h2.74v-1.56H48zm7-13.46H49.4v-2.71h9.43v6.31h-1.69a10 10 0 0 0 2.89 1c-.37 2.14-1.32 2.75-3.38 2.75h-2.86c-3 0-3.84-.83-3.84-3.63v-2.87h5.1zm1.14 4.49c.52 0 .68-.15.8-.89h-3.38v.09c0 .71.12.8.8.8zm30.38-5.2a25.14 25.14 0 0 0 6.58 12.55l-3.41 3.63q-1.11-1.47-2.22-3.21C87.58-80.12 84.17-74 76.24-74c-5.2 0-8.89-3.3-8.89-8.67a18.7 18.7 0 0 1 4.4-11.44 31.61 31.61 0 0 0-3.32.52c-.65.12-1.11.24-1.85.42l-.64-4.7a17.68 17.68 0 0 0 1.78-.09 58.25 58.25 0 0 0 10.61-1.77l1.38 4a8.37 8.37 0 0 0-1.47.73c-2.19 1.74-6.15 6.87-6.15 11.66A4.06 4.06 0 0 0 76.45-79c5.69 0 8.89-6.74 6.24-17.73-.21-.52-.39-1-.61-1.58zm1.81 3.57a31 31 0 0 0-1.63-4.51l2.71-.83A45.19 45.19 0 0 1 91-96.93zm3.51-1.13a35 35 0 0 0-1.66-4.48l2.61-.86a36.22 36.22 0 0 1 1.75 4.49zM122.42-76a23.57 23.57 0 0 0-5.42-4v.61c0 2.83-2.31 4.76-6.34 4.76-5.13 0-7.8-2-7.8-5.37s2.92-5.53 7.77-5.53c.5 0 1 0 1.48.06l-.09-2h-1.48c-1.63 0-5.19-.15-7.13-.4v-4.3a50.12 50.12 0 0 0 7.16.58h1.36L112-94h-1.45a48.27 48.27 0 0 1-6.3-.46v-4.15a39.16 39.16 0 0 0 6.3.58H112v-1a13.73 13.73 0 0 0-.19-2.2h5c-.09.64-.18 1.5-.21 2.2v.92c2.24-.13 4.33-.34 7-.74l.09 4.18c-1.82.19-4.18.43-7.1.55v2.51c3.13-.16 5.56-.43 7.9-.7v4.3c-2.68.27-4.92.46-7.84.55.06.94.12 2 .18 2.93a24.16 24.16 0 0 1 8.34 4.48zm-10.15-5.52a14.1 14.1 0 0 0-2.27-.18c-1.69 0-2.68.64-2.68 1.49 0 1 1 1.53 2.59 1.53s2.4-.43 2.4-2a7.21 7.21 0 0 0 0-.85m48.24-12.05c-1.82-.09-4.68-.15-8.52-.18v4.21a7.89 7.89 0 0 1 1.2 4.37c0 3.87-2.52 9.12-10.15 11.17l-3.9-3.91c2.64-.52 5.2-1.25 7-2.66a3.44 3.44 0 0 1-.55 0 5.62 5.62 0 0 1-5.42-5.79c0-3.67 3-5.89 6.49-5.89a6.36 6.36 0 0 1 .77 0v-1.53c-4.58.06-9.07.25-12.79.43l-.12-4.4c3.53 0 8.91-.09 12.85-.15v-.33c-.1-1.16-.22-2.45-.34-3h5.32c-.09.58-.22 2.45-.25 3v.33c2.83 0 6.92-.06 8.52 0zm-14 9c1 0 2-.7 1.66-3a2 2 0 0 0-1.66-.8 1.86 1.86 0 0 0-1.94 2 1.94 1.94 0 0 0 1.94 1.86m33.74-16.11c-.22.92-.46 2-.65 2.9s-.34 1.65-.52 2.45c.8-.07 1.51-.1 2.06-.1 3.5 0 5.81 1.65 5.81 6.17 0 3.54-.4 8.39-1.69 11.08-1.05 2.13-2.83 2.93-5.3 2.93a18.53 18.53 0 0 1-3.69-.43l-.8-4.82a19.88 19.88 0 0 0 3.72.64 2.08 2.08 0 0 0 2.04-1.19c.77-1.5 1.14-5 1.14-7.75 0-2.2-.92-2.48-2.83-2.48-.34 0-.86 0-1.41.07-1.23 4.7-3.51 12-6.09 16.11l-4.83-1.92c2.89-3.88 4.86-9.53 6-13.65-.8.13-1.48.22-1.91.28-1 .12-2.74.37-3.75.55l-.4-4.91a34.83 34.83 0 0 0 3.54 0c.89 0 2.15-.13 3.5-.22a29.54 29.54 0 0 0 .58-6.32zM190.8-98a55.54 55.54 0 0 1 5.2 11.47l-4.7 2.17c-.74-3.51-2.77-9-5-11.84zm27.03 5.19c0-1.68-1.44-2.44-3.47-2.44a5.68 5.68 0 0 0-4.4 2.19l-3-2.74a10.4 10.4 0 0 1 8.04-3.85c4.52 0 8.06 2 8.06 6.35s-6.37 4.7-6.09 8.73h-4.8c-.49-4.64 5.66-5.56 5.66-8.24m-3.26 10a3.35 3.35 0 0 1 3.63 3.32 3.39 3.39 0 0 1-3.63 3.39 3.39 3.39 0 0 1-3.63-3.39 3.35 3.35 0 0 1 3.63-3.32" transform="translate(254.33 168.04)"/></g></g></g></g></svg>