<svg xmlns="http://www.w3.org/2000/svg" viewBox="0 0 578.86 54.18"><defs><style>.cls-1{fill:#fff}</style></defs><title>sp-bannertext2</title><g id="Layer_2" data-name="Layer 2"><path class="cls-1" d="M16.81 2.82A17.68 17.68 0 0 1 12 8.69a29 29 0 0 0 8.65 3.19 7.72 7.72 0 0 0-1 1.48 28.18 28.18 0 0 1-9-3.66A29.86 29.86 0 0 1 .84 14 6.18 6.18 0 0 0 0 12.45a28.14 28.14 0 0 0 9.15-3.69A19.13 19.13 0 0 1 5.5 5.3a23.58 23.58 0 0 1-3.89 3.15A10.79 10.79 0 0 0 .29 7.28 20.38 20.38 0 0 0 7.68 0l1.58.55c-.35.57-.72 1.14-1.12 1.69h7.26l.31-.08zM4.4 16.13a82.16 82.16 0 0 1 12.19 2.75l-.92 1.56a71.05 71.05 0 0 0-12.24-2.9zm2.18-12a17.47 17.47 0 0 0 3.94 3.63 16 16 0 0 0 3.85-4H7zm1.21 7.57a38.55 38.55 0 0 1 6.6 2.57l-.92 1.32a31 31 0 0 0-6.63-2.68zM24.4 16v1.72H23V1.78h5.6V16zm0-12.72V8h2.75V3.23zm2.75 11.22v-5H24.4v5zm13.46-2.2a11.09 11.09 0 0 1-3 4.88 15.63 15.63 0 0 0 4.88 1.68 6 6 0 0 0-1 1.38 14.89 14.89 0 0 1-5.15-2.07 14.65 14.65 0 0 1-4.8 2 5.16 5.16 0 0 0-.91-1.17 14.36 14.36 0 0 0 4.48-1.72 11.3 11.3 0 0 1-2.57-2.86 11.5 11.5 0 0 1-4.33 5.75A4.58 4.58 0 0 0 27.08 19c3.15-2 4.34-5.37 4.87-8.56H29V9.09h3.22c.06-.6.13-1.19.17-1.74h-2.78V6h7.81a24.14 24.14 0 0 0 2-3.7l1.58.52c-.6 1.05-1.32 2.24-2 3.19h2.66v1.34h-7.73c0 .55-.11 1.14-.18 1.74h8.36v1.38h-8.58c-.07.49-.18 1-.26 1.48h6.44zm.64-10.83A65.93 65.93 0 0 1 29.68 2.6a4 4 0 0 0-.4-1.28 72.77 72.77 0 0 0 11-1.08zm-9.7 1.41a18.21 18.21 0 0 1 1.1 2.69L31.31 6a17 17 0 0 0-1-2.78zm1.89 10.34a10.52 10.52 0 0 0 2.93 3.22 9 9 0 0 0 2.35-3.22zm1.34-7.48a23.37 23.37 0 0 0-.59-3l1.32-.22c.26 1 .55 2.18.66 2.91zm18.11-4.33c-.09.39-.18.86-.26 1.27-.11.64-.31 1.92-.55 3.09 1-.07 1.91-.14 2.44-.14 1.93 0 3.54.75 3.54 3.7 0 2.6-.37 6-1.28 7.85A3.06 3.06 0 0 1 53.59 19a13.34 13.34 0 0 1-2.59-.32l-.29-1.85a10.65 10.65 0 0 0 2.67.49 1.83 1.83 0 0 0 1.91-1.13 18.75 18.75 0 0 0 1-6.66c0-2-.9-2.33-2.28-2.33-.53 0-1.39.06-2.34.15a43.75 43.75 0 0 1-4.57 11.71l-1.81-.73c2.22-3 3.85-7.9 4.58-10.8l-2.75.28c-.51.07-1.39.18-2 .27L45 6.16a17.93 17.93 0 0 0 1.94 0c.73 0 2-.13 3.32-.24a25.45 25.45 0 0 0 .55-4.73zm7.5 2.31a38 38 0 0 1 4 7.79l-1.72.81a26.36 26.36 0 0 0-3.9-7.9zM80.7 2.33c-.49.35-1.15.93-1.5 1.23-1.52 1.3-4.64 3.81-6.2 5.13-1.32 1.15-1.32 1.48.09 2.64 2 1.59 6 4.93 8.14 7L79.6 19.8c-.44-.53-1-1.07-1.5-1.58-1.19-1.28-4.82-4.38-6.86-6s-1.83-2.71.15-4.36c1.63-1.38 4.93-4 6.4-5.48a9.85 9.85 0 0 0 1.26-1.5zm12.54 17.41a35.36 35.36 0 0 0-4.87-4.91l1.43-1.25a39.83 39.83 0 0 1 4.93 4.88zm22.5-6.16a11.81 11.81 0 0 1-4.55 3.69 33.07 33.07 0 0 0 8.25 1.46 7.28 7.28 0 0 0-.92 1.49 29.43 29.43 0 0 1-9.2-2.11 39.33 39.33 0 0 1-9.57 2.09 5.68 5.68 0 0 0-.64-1.37 36.26 36.26 0 0 0 8.52-1.58 12.55 12.55 0 0 1-3.13-2.53 22.9 22.9 0 0 1-4.18 2 5.45 5.45 0 0 0-1-1.14 16.13 16.13 0 0 0 6.68-3.76h-3.87v-8.1h5.79c.11-.42.22-.84.31-1.26H100V1.1h18.5v1.36H110c-.16.47-.31.86-.46 1.26h6.88v8.1h-8.47a9.38 9.38 0 0 1-1.16 1.18h7.63l.31-.09zm-12.08-7.53h11.09V4.77h-11.09zm0 2.36h11.09v-1.3h-11.09zm0 2.37h11.09V9.46h-11.09zm2.27 3.41a11 11 0 0 0 3.5 2.4 13 13 0 0 0 3.83-2.4zM125 9.73a16.42 16.42 0 0 0-3.87-2.38l.93-1.21A15.89 15.89 0 0 1 126 8.36zm1.74 3.12c-1 2.29-2.4 5-3.54 7l-1.43-1.06a60.73 60.73 0 0 0 3.72-7zM126.1 4a16.21 16.21 0 0 0-3.78-2.51l.92-1.18a14.92 14.92 0 0 1 3.83 2.37zm5 10.15a20.21 20.21 0 0 1-3.5 4.95 8.79 8.79 0 0 0-1.3-1 15.86 15.86 0 0 0 3.28-4.42zm2-11.29V.11h1.65v2.73h6.33v1.52H127V2.84zm1.69 9.57v6c0 .86-.15 1.3-.81 1.57a10.41 10.41 0 0 1-3.17.24 5.61 5.61 0 0 0-.49-1.5c1.15.05 2.18.05 2.49 0s.4-.09.4-.35v-5.98h-4.38V6.12h10.45v6.29zM130.44 11h7.28V7.55h-7.28zm7.56 2.64a29.62 29.62 0 0 1 3.45 4.45l-1.39.81a29 29 0 0 0-3.38-4.53zm11.75-12.21c-.1.7-.17 1.47-.21 2.18-.09 2.46-.27 7.61-.27 10.87 0 2.4 1.54 3.23 3.57 3.23 4 0 6.27-2.24 7.83-4.51l1.21 1.52a10.86 10.86 0 0 1-9.09 4.8c-3.12 0-5.28-1.32-5.28-4.87 0-3.23.22-8.73.22-11a11.37 11.37 0 0 0-.2-2.2zm29.95.9c-.49.35-1.15.93-1.5 1.23-1.52 1.3-4.64 3.81-6.25 5.13-1.32 1.15-1.32 1.48.09 2.64 2 1.59 6 4.93 8.14 7l-1.58 1.47c-.44-.53-1-1.07-1.5-1.58-1.19-1.28-4.82-4.38-6.86-6s-1.83-2.71.15-4.36c1.63-1.38 4.93-4 6.4-5.48a9.85 9.85 0 0 0 1.26-1.5zm12.54 17.41a35.36 35.36 0 0 0-4.87-4.91l1.43-1.25a39.83 39.83 0 0 1 4.93 4.88zM201 3.92c1.43-.14 5.55-.53 9.55-.88 2.38-.2 4.42-.31 5.88-.38v1.76a18 18 0 0 0-4.27.35 7.64 7.64 0 0 0-5 6.89c0 4.25 4 5.59 7.5 5.72l-.66 1.85c-4-.17-8.62-2.33-8.62-7.19a8.81 8.81 0 0 1 4-7.35c-1.91.22-7.85.79-10.21 1.27L199.06 4c.83 0 1.51 0 1.94-.08zm14.15 6.22l-1.12.53a21 21 0 0 0-1.81-3.1l1.13-.48a26.71 26.71 0 0 1 1.79 3.05zm2.51-.94l-1.15.53a18.28 18.28 0 0 0-1.87-3.06l1.1-.51a33.59 33.59 0 0 1 1.91 3.04zm18.42-.05a7.21 7.21 0 0 1 2.25 5c0 3.24-2.93 5.22-7.22 5.22-3 0-5.37-1.3-5.37-4.87 0-.59.07-1.47.18-2.5a21.42 21.42 0 0 1-4.53-.8l.08-1.67a17.76 17.76 0 0 0 4.6.88l.49-3.91a30.94 30.94 0 0 1-4.65-.75l.09-1.59a20.06 20.06 0 0 0 4.75.79c.12-.88.2-1.67.25-2.27a9.49 9.49 0 0 0 0-1.51l2 .11a13.59 13.59 0 0 0-.29 1.51c-.06.55-.17 1.32-.28 2.23a31.94 31.94 0 0 0 4.4-.27l-.05 1.65a41.27 41.27 0 0 1-4.42.22h-.15c-.18 1.28-.33 2.64-.49 3.9h.42a34.73 34.73 0 0 0 4.53-.27v1.68a40.31 40.31 0 0 1-4.27.19h-.79c-.09.86-.13 1.63-.13 2.16 0 2.07 1.19 3.39 3.67 3.39 3.3 0 5.41-1.41 5.41-3.68a6 6 0 0 0-2.39-4.44zm25.63-6.97v1.43h-19V2.18h8.54V.09h1.65v2.09zm-.83 16.06c0 .88-.2 1.36-.88 1.65a14.11 14.11 0 0 1-3.7.24 6.7 6.7 0 0 0-.53-1.52 28.91 28.91 0 0 0 3 0c.37 0 .44-.11.44-.41v-6.1h-14v8.08h-1.56v-9.46h17.16zm-2.75-13.4v4.49h-11.77V4.84zM256.5 6h-8.58v2.14h8.58zm-7 12.14v1.1h-1.46v-5.73h8.32v4.64zm0-3.45v2.24h5.41V14.7zm17.67 4.08v1h-1.41v-6.04c-.35.2-.68.35-1 .51a6.76 6.76 0 0 0-.88-1.17 13.91 13.91 0 0 0 4.64-3l-2.05-1.48q-.69.69-1.38 1.26a10.17 10.17 0 0 0-1.1-1 12 12 0 0 0 4-4.91l1.38.35a11.07 11.07 0 0 1-.66 1.28h2.84l.25-.07.94.42a12.61 12.61 0 0 1-2.18 3.92 36.16 36.16 0 0 1 3.28 2.66l-1 1.14-.55-.52v5.63zm-1.26-13.53h-1.36V2.09h3.74v-2h1.52v2h3.74v3.15h-1.41V3.41h-6.23zm6.23 7.76c-.7-.64-1.6-1.37-2.55-2.12A15.67 15.67 0 0 1 267 13zm-1.32 1.29h-3.65v3.13h3.65zm-2.9-7.54c-.2.26-.4.55-.62.79.68.46 1.39 1 2.11 1.47a10.51 10.51 0 0 0 1.43-2.26zm10 10.49a14 14 0 0 1-4.55 2.86c-.26-.28-.73-.77-1.08-1.07a11.83 11.83 0 0 0 4.23-2.6zm-.37-12.63a21 21 0 0 0 .45-2.06h-4.16V1.12H284v1.43h-4.25c-.22.71-.44 1.45-.66 2.09h4.34V16h-8.76V4.64zm4.36 1.3h-5.75v2.14h5.75zm0 3.3h-5.75v2.11h5.75zm0 3.35h-5.75v2.13h5.75zm-1 4a25.2 25.2 0 0 1 3.72 2.81l-1.26.86a26.39 26.39 0 0 0-3.69-2.88zM297.77 5.3a26.3 26.3 0 0 1-3.94.8 39 39 0 0 1-4.75 9.21l-1.72-.88A31 31 0 0 0 292 6.29c-.64 0-1.28.07-1.92.07-.81 0-1.71 0-2.53-.07l-.13-1.65a20.59 20.59 0 0 0 2.69.16c.77 0 1.58 0 2.42-.11a17.62 17.62 0 0 0 .68-3.77l2 .18c-.22.79-.51 2.11-.86 3.37a22 22 0 0 0 3.39-.8zm2.55 2.53a23.43 23.43 0 0 0 0 2.36c0 .79.11 2.22.16 3.54a14.73 14.73 0 0 1 4.52 2.73L304 18a15.15 15.15 0 0 0-3.5-2.48v.88c0 1.74-1.14 3.17-3.82 3.17-2.4 0-4.36-1-4.36-3.15 0-2 1.89-3.3 4.36-3.3a10.36 10.36 0 0 1 2.06.2c-.06-1.78-.17-3.92-.22-5.44zm-1.47 7a7.85 7.85 0 0 0-2.2-.31c-1.61 0-2.66.73-2.66 1.72s.81 1.69 2.51 1.69 2.37-1 2.37-2.07c0-.3 0-.66-.02-1.05zm5.81-6.38a26.33 26.33 0 0 0-5-3l.85-1.37A32.07 32.07 0 0 1 305.65 7zm20.99 10.16c.85 0 1-.55 1.12-3.69a4.53 4.53 0 0 0 1.5.72c-.2 3.55-.64 4.49-2.49 4.49h-3.17c-1.94 0-2.49-.53-2.49-2.37V10h-4c-.42 4.8-1.52 8.38-7 10.19a5.2 5.2 0 0 0-1-1.39c5.12-1.54 5.94-4.64 6.29-8.8h-5.85V8.43h8.84V.09h1.6v8.34h9V10h-6.25v7.74c0 .73.18.88 1 .88zM312.93 7.17a23.76 23.76 0 0 0-2.6-5.45l1.48-.55a21.47 21.47 0 0 1 2.66 5.39zm13.42-5.63a46 46 0 0 1-3.06 5.57l-1.36-.55A33.58 33.58 0 0 0 324.7.92zm8.18 4.23c-.3 1.84-1.16 2.94-3.52 3.56a3.21 3.21 0 0 0-.75-1c2-.44 2.71-1.19 2.95-2.55h-2.55V4.53h4V2.88h-3.16V1.67h3.19V.2h1.49v1.47h3.26v1.21h-3.26v1.65h4v1.24h-2.68v1.4c0 .36 0 .4.38.4h1c.33 0 .39-.11.44-1.1a3.6 3.6 0 0 0 1.07.46c-.11 1.37-.46 1.74-1.32 1.74h-1.37c-1.17 0-1.43-.31-1.43-1.5v-1.4zm-4.13 13.79a10.12 10.12 0 0 0 2.7-3.83l1.5.42a11.1 11.1 0 0 1-2.69 4.05zm18.43-6.07a.51.51 0 0 0 .38-.11c.09-.09.13-.31.18-.73s0-1.38 0-2.64a3 3 0 0 0 1.12.6 28.64 28.64 0 0 1-.17 3 1.43 1.43 0 0 1-.53 1 1.68 1.68 0 0 1-1 .26H348a1.64 1.64 0 0 1-1.1-.4c-.28-.28-.39-.63-.39-2.11V4.69h-2.12a30.38 30.38 0 0 1-.39 3.76 18.6 18.6 0 0 1 2.24 1.83l-.77 1.34a18.45 18.45 0 0 0-1.8-1.61 9.2 9.2 0 0 1-3.24 5.22 4.68 4.68 0 0 0-1.05-1.08l.22-.16c-3.3.36-6.67.71-9.05.95l-.15-1.41c1.17-.06 2.64-.2 4.25-.35v-2h-3.5V9.92h3.5V8.34h1.49v1.58h3.44v1.26h-3.44V13c1.28-.11 2.62-.27 3.94-.4v.9a8.53 8.53 0 0 0 2.29-4.46c-.68-.51-1.38-1-2-1.39l.72-1.17c.51.31 1.06.64 1.61 1 .11-.88.2-1.83.24-2.84h-2.38V3.21H343V.09h1.5c0 1.1 0 2.13-.07 3.12H348v9.2a2.85 2.85 0 0 0 .09 1 .4.4 0 0 0 .29.07zm-10.53 2.66a20.24 20.24 0 0 1 .5 3.63l-1.58.2a23.37 23.37 0 0 0-.44-3.7zm4.51-.18a19.32 19.32 0 0 1 1.27 3.66l-1.6.33a19.8 19.8 0 0 0-1.21-3.7zm4.51-.3a25.21 25.21 0 0 1 2.81 4l-1.63.57a23 23 0 0 0-2.7-4zm13.13 2.13a30.55 30.55 0 0 1-6.78 2.44 10.38 10.38 0 0 0-1.19-1.24 29 29 0 0 0 6.5-1.89zm-5.17-7.8c-.6.15-1.23.31-2 .46a4.64 4.64 0 0 0-.77-1.25c2.9-.55 4.53-1.28 5.43-2.18h-3l-.11.28-1.52-.08a30.59 30.59 0 0 0 1.3-3.55H359V2.4h-5.37V1.32H359V.11h1.5v1.21h3.39V.11h1.54v1.21h4.88v3.41h-4.88v1.19h6.29v.53c-.16 1.34-.29 2-.64 2.33a1.6 1.6 0 0 1-1.06.4h-.53v7.74h-14.21zm.13-4.05h3.3a3.06 3.06 0 0 0 .29-1.22h-3.17zm12.45 3.83h-11v1.36h11zm0 2.37h-11v1.35h11zm0 2.38h-11v1.36h11zM365.47 7v1.65h-1.54V7h-4a4.8 4.8 0 0 1-1.65 1.69H368a6.65 6.65 0 0 0-.24-.64c.68 0 1.29.07 1.51.07a.84.84 0 0 0 .53-.11 2.42 2.42 0 0 0 .29-1zm-1.54-2.27h-3.41a7.4 7.4 0 0 1-.18 1.19h3.59zm-3.39-1.08h3.39V2.4h-3.39zm4.77 13.51a67 67 0 0 1 6.69 2.18l-1.74.86A54.63 54.63 0 0 0 364 18zm.16-14.76v1.25h3.41V2.4zm13.44-.64a9.89 9.89 0 0 0-.38 1.47 53.63 53.63 0 0 0-1.08 8.77 19.68 19.68 0 0 0 .2 3c.35-1 .86-2.28 1.24-3.16l.92.72a47.05 47.05 0 0 0-1.54 4.82 3.66 3.66 0 0 0-.11 1 6.34 6.34 0 0 0 .07.75l-1.57.13a26.36 26.36 0 0 1-.83-6.91 66.81 66.81 0 0 1 1-9.15 10.68 10.68 0 0 0 .17-1.59zm14.17 15.86a16.46 16.46 0 0 0-3.28-2.48v.39c0 1.81-.84 3.57-3.79 3.57s-4.53-1.21-4.53-3.15 1.63-3.32 4.49-3.32a9.74 9.74 0 0 1 2 .2c-.06-1.67-.19-3.76-.22-5.57h-2.09c-1.23 0-2.37-.07-3.65-.14V5.5a34.56 34.56 0 0 0 3.7.2h2V3a8.3 8.3 0 0 0-.11-1.32h2c-.07.42-.11.86-.14 1.3s0 1.6-.06 2.61a26.9 26.9 0 0 0 3.76-.5v1.67c-1.19.19-2.46.33-3.76.41 0 2.18.17 4.36.26 6.19a14.75 14.75 0 0 1 4.34 2.83zm-5-3.23a6.84 6.84 0 0 0-2.22-.35c-1.63 0-2.75.72-2.75 1.74s1.05 1.69 2.62 1.69c1.84 0 2.37-.9 2.37-2.35-.02-.2-.02-.47-.04-.73zm16.81-12.98c-.09.39-.18.86-.26 1.27-.11.64-.31 1.92-.55 3.09 1-.07 1.91-.14 2.44-.14 1.93 0 3.54.75 3.54 3.7 0 2.6-.37 6-1.28 7.85a3.06 3.06 0 0 1-3.19 1.82 13.34 13.34 0 0 1-2.55-.33l-.28-1.85a10.51 10.51 0 0 0 2.66.49 1.83 1.83 0 0 0 1.91-1.13 18.75 18.75 0 0 0 1-6.66c0-2-.9-2.33-2.28-2.33-.53 0-1.39.06-2.34.15a43.75 43.75 0 0 1-4.57 11.71l-1.81-.73c2.22-3 3.85-7.9 4.58-10.8l-2.75.28c-.51.07-1.39.18-2 .27L397 6.16a17.93 17.93 0 0 0 1.94 0c.73 0 2-.13 3.32-.24a25.45 25.45 0 0 0 .55-4.73zm7.5 2.31a38 38 0 0 1 4 7.79l-1.72.81a26.36 26.36 0 0 0-3.9-7.9zm10.54-1.98c-.13.39-.29 1-.4 1.41-.68 3.16-1.41 7.9-.61 11.46.31-.92.74-2.22 1.14-3.3l1 .59a47.86 47.86 0 0 0-1.41 4.8 6.39 6.39 0 0 0-.11 1l.07.75-1.5.17a24.14 24.14 0 0 1-1.14-6.91 59.62 59.62 0 0 1 .78-8.71 8.79 8.79 0 0 0 .11-1.45zm14.5 5.52a33.51 33.51 0 0 1-3.52.4v.75c0 5 0 8.55-4.62 11.28l-1.61-1.27a7.5 7.5 0 0 0 2.14-1.37c2.33-2 2.44-4.46 2.44-8.67v-.63c-.93 0-1.87.06-2.77.06s-2.58-.06-3.52-.15V5.9a24.74 24.74 0 0 0 3.49.24c.91 0 1.83 0 2.75-.07 0-1.36-.08-2.81-.13-3.36a10.61 10.61 0 0 0-.2-1.3h2.05c0 .37 0 .79-.07 1.27s0 1.92 0 3.28a26.23 26.23 0 0 0 3.54-.5zm15.02-1.72a38.22 38.22 0 0 1-4.51.75c-.19 1-.44 2-.68 2.89a65.12 65.12 0 0 1-3.41 10l-1.94-.64a48.83 48.83 0 0 0 3.66-9.75c.2-.73.37-1.52.55-2.31-.71 0-1.37.07-2 .07-1 0-1.76 0-2.53-.09l-.07-1.72a19.7 19.7 0 0 0 2.62.15c.73 0 1.49 0 2.33-.08.16-.8.27-1.48.33-1.92a10.37 10.37 0 0 0 .07-1.8l2.13.17c-.15.49-.31 1.3-.39 1.74l-.31 1.6a32.72 32.72 0 0 0 4.15-.79zm-.85 7.64a7.73 7.73 0 0 0-.31 2c0 1 .48 2 3.58 2a23.64 23.64 0 0 0 4.25-.42l-.06 1.79a33.28 33.28 0 0 1-4.21.28c-3.43 0-5.23-1-5.23-3.21A11.92 11.92 0 0 1 450 13zm-.55-5.3c1.14-.11 2.57-.18 4-.18a35.35 35.35 0 0 1 3.76.18v1.67a31.86 31.86 0 0 0-3.68-.26 33.63 33.63 0 0 0-4 .24zm25.65-5.55c-.49.35-1.15.93-1.5 1.23-1.52 1.3-4.64 3.81-6.25 5.13-1.32 1.15-1.32 1.48.09 2.64 2 1.59 6 4.93 8.14 7l-1.58 1.47c-.44-.53-1-1.07-1.5-1.58-1.19-1.28-4.82-4.38-6.86-6s-1.83-2.71.15-4.36c1.63-1.38 4.93-4 6.4-5.48a9.85 9.85 0 0 0 1.26-1.5zm19.07 2.97a26.3 26.3 0 0 1-3.94.8 38.64 38.64 0 0 1-4.75 9.21l-1.72-.88A31 31 0 0 0 490 6.29c-.64 0-1.28.07-1.92.07-.81 0-1.71 0-2.53-.07l-.13-1.65a20.59 20.59 0 0 0 2.69.16c.77 0 1.58 0 2.42-.11a18.27 18.27 0 0 0 .68-3.77l2 .18c-.22.79-.51 2.11-.86 3.37a22 22 0 0 0 3.39-.8zm2.55 2.53a23.43 23.43 0 0 0 0 2.36c0 .79.11 2.22.16 3.54a14.73 14.73 0 0 1 4.52 2.73L502 18a15.15 15.15 0 0 0-3.5-2.48v.88c0 1.74-1.14 3.17-3.82 3.17-2.4 0-4.36-1-4.36-3.15 0-2 1.89-3.3 4.36-3.3a10.36 10.36 0 0 1 2.06.2c-.06-1.78-.17-3.92-.22-5.44zm-1.47 7a7.85 7.85 0 0 0-2.2-.31c-1.61 0-2.66.73-2.66 1.72s.81 1.69 2.51 1.69 2.37-1 2.37-2.07c0-.3 0-.66-.02-1.05zm5.81-6.38a26.33 26.33 0 0 0-5-3l.85-1.37A32.07 32.07 0 0 1 503.65 7zM510 5.3c0 1.37 0 3.37.15 5.15.35 3.65 1.41 6.05 2.95 6.05 1.12 0 2.13-2.24 2.71-4.44l1.38 1.58c-1.3 3.7-2.64 4.95-4.13 4.95-2.05 0-4-2-4.63-7.7a57.58 57.58 0 0 1-.24-5.81 11.52 11.52 0 0 0-.13-1.93h2.11A20.48 20.48 0 0 0 510 5.3zm15.36 9.16l-1.79.7c-.37-3.92-1.69-8.23-3.76-10.78l1.72-.6a22.55 22.55 0 0 1 3.86 10.68zm9.5 2.02a3.36 3.36 0 1 1-3.36-3.34 3.36 3.36 0 0 1 3.36 3.34zm-1.14 0a2.21 2.21 0 0 0-2.22-2.22 2.24 2.24 0 0 0 0 4.47 2.22 2.22 0 0 0 2.22-2.25zM6.78 36.18c.94 0 5.43-.18 6.69-.33a5.66 5.66 0 0 0 1.18-.22l1.13 1.27a9.24 9.24 0 0 0-1.17.82c-1.63 1.34-4.77 4-6.51 5.35a102.74 102.74 0 0 1 10.34-.66v1.65a30.74 30.74 0 0 0-5.52.11c-2.12.28-4.18 2.09-4.18 4.11 0 2.18 1.76 2.93 3.74 3.19a14.23 14.23 0 0 0 3.12.09l-.35 1.78C9.92 53.56 7 51.89 7 48.54a5.18 5.18 0 0 1 2.53-4.09c-2.33.2-5.24.55-7.83 1l-.16-1.67c1.17-.11 2.64-.31 3.74-.44a88.33 88.33 0 0 0 7.2-5.88c-1 .07-4.75.27-5.7.35-.55 0-1.21.09-1.67.14L5 36.11a10.61 10.61 0 0 0 1.78.07zm25.94.82c-1 1.5-3.08 5.35-4.21 7.46a4.77 4.77 0 0 1 3.19-1.32 2.5 2.5 0 0 1 2.58 2.67c0 1.29 0 3 .09 4a1.55 1.55 0 0 0 1.73 1.54c2.42 0 3.85-3 4.43-5.3l1.47 1.2c-1.15 3.52-3 6-6.16 6a2.83 2.83 0 0 1-3.15-2.77c-.09-1.28 0-3-.11-4.14A1.43 1.43 0 0 0 31 44.78c-1.76 0-3.37 1.76-4.23 3.48a34.75 34.75 0 0 0-1.87 5l-1.9-.69c1.6-4.4 6.51-13.62 7.7-15.71.24-.53.53-1.06.79-1.69l2 .79a8.63 8.63 0 0 0-.77 1.04zm23.05 2.3a26.3 26.3 0 0 1-3.94.8 39 39 0 0 1-4.75 9.21l-1.72-.88A31 31 0 0 0 50 40.29c-.64.05-1.28.07-1.92.07-.81 0-1.71 0-2.53-.07l-.13-1.65a20.59 20.59 0 0 0 2.69.16c.77 0 1.58 0 2.42-.11a17.62 17.62 0 0 0 .68-3.77l2 .18c-.22.79-.51 2.11-.86 3.37a22 22 0 0 0 3.39-.8zm2.55 2.53a23.43 23.43 0 0 0 0 2.36c0 .79.11 2.22.16 3.54A14.73 14.73 0 0 1 63 50.46L62 52a15.15 15.15 0 0 0-3.5-2.48v.88c0 1.74-1.14 3.17-3.82 3.17-2.4 0-4.36-1-4.36-3.15 0-2 1.89-3.3 4.36-3.3a10.36 10.36 0 0 1 2.06.2c-.06-1.78-.17-3.92-.22-5.44zm-1.47 7a7.85 7.85 0 0 0-2.2-.31C53 48.5 52 49.23 52 50.22s.81 1.69 2.51 1.69 2.37-1 2.37-2.07c-.01-.28-.01-.64-.03-1.03zm5.81-6.38a26.33 26.33 0 0 0-5-3l.85-1.37A32.07 32.07 0 0 1 63.65 41zM74 39.17c-.26.4-.64 1-1 1.52 0 .44-.06.92-.11 1.39a11 11 0 0 1 6.91-2.71 5.49 5.49 0 0 1 5.74 5.5c0 4.38-3.19 6.71-7.94 7.61l-.79-1.65c3.67-.55 7-2.24 7-6A4 4 0 0 0 79.6 41a10.07 10.07 0 0 0-6.8 3.12c0 .9-.07 1.78-.07 2.55 0 2 0 3.3.09 5.26 0 .37.07.92.11 1.32H71c0-.31.06-.95.06-1.3 0-2.09 0-3.17.07-5.59v-.83c-1.06 1.6-2.49 3.69-3.54 5.15l-1.1-1.52c1.21-1.52 3.72-4.91 4.82-6.62 0-.71.09-1.41.13-2.09-1 .11-2.88.37-4.25.55l-.17-1.83a11.5 11.5 0 0 0 1.43 0c.7-.05 2-.18 3.1-.36.06-1 .11-1.8.11-2a8.27 8.27 0 0 0-.09-1.63l2.09.07c-.11.52-.28 1.76-.44 3.27h.11zm22.6-3.7c-.08.42-.19.86-.26 1.3-.13.64-.33 1.92-.57 3.08 1-.08 1.91-.15 2.44-.15 2 0 3.54.77 3.54 3.72 0 2.59-.35 6-1.25 7.85a3.08 3.08 0 0 1-3.19 1.81 13.7 13.7 0 0 1-2.58-.31l-.28-1.87a9.82 9.82 0 0 0 2.68.48A1.81 1.81 0 0 0 99 50.26a17.93 17.93 0 0 0 1-6.64c0-2-.9-2.34-2.31-2.34-.53 0-1.39.07-2.33.16a44 44 0 0 1-4.58 11.68L89 52.4c2.22-3 3.82-7.88 4.57-10.79-1.14.11-2.18.22-2.75.29s-1.41.15-2 .26l-.17-1.91h1.93c.7 0 2-.13 3.3-.24a24 24 0 0 0 .56-4.73zm7.48 2.53a36.7 36.7 0 0 1 4 7.75l-1.7.83a26.32 26.32 0 0 0-3.89-7.83zm.91.35a26.49 26.49 0 0 0-1.79-3.06l1.17-.48a33 33 0 0 1 1.83 3zm2.48-.9a24.93 24.93 0 0 0-1.82-3l1.16-.48a29.86 29.86 0 0 1 1.85 3zm19.74 14.79A16.11 16.11 0 0 0 122 49v1.37c0 1.49-1 3.06-3.85 3.06-3.12 0-4.86-1.13-4.86-3.24s1.91-3.32 5.06-3.32a12.13 12.13 0 0 1 1.83.13c0-1-.09-2-.11-2.9h-1.21c-1.5 0-3.92-.14-5.48-.31v-1.71a39.32 39.32 0 0 0 5.48.41H120v-3.12h-1.08c-1.51 0-3.83-.18-5.12-.33v-1.63a35 35 0 0 0 5.1.42h1.1V36.4c0-.35 0-1-.06-1.3h1.87a10.22 10.22 0 0 0-.11 1.45v1.21a46.16 46.16 0 0 0 5.58-.53v1.61c-1.72.18-3.59.35-5.64.46v3.13c2.09-.09 4.1-.29 6-.57v1.65c-2.05.26-4 .41-6.05.5 0 1.12.11 2.27.15 3.3a18 18 0 0 1 6.34 3.39zm-7-3.76a11.19 11.19 0 0 0-2.11-.2c-2.07 0-3.19.79-3.19 1.78s.86 1.76 3 1.76c1.26 0 2.31-.37 2.31-1.87.03-.37.01-.88.01-1.47zm29 3.76A16.11 16.11 0 0 0 144 49v1.37c0 1.49-1 3.06-3.85 3.06-3.12 0-4.86-1.13-4.86-3.24s1.91-3.32 5.06-3.32a12.13 12.13 0 0 1 1.83.13c0-1-.09-2-.11-2.9h-1.21c-1.5 0-3.92-.14-5.48-.31v-1.71a39.32 39.32 0 0 0 5.48.41H142v-3.12h-1.08c-1.51 0-3.83-.18-5.12-.33v-1.63a35 35 0 0 0 5.1.42h1.1V36.4c0-.35 0-1-.06-1.3h1.87a10.22 10.22 0 0 0-.11 1.45v1.21a46.16 46.16 0 0 0 5.58-.53v1.61c-1.72.18-3.59.35-5.64.46v3.13c2.09-.09 4.1-.29 6-.57v1.65c-2 .26-4 .41-6 .5 0 1.12.11 2.27.15 3.3a18 18 0 0 1 6.34 3.39zm-7-3.76a11.19 11.19 0 0 0-2.11-.2c-2.07 0-3.19.79-3.19 1.78s.86 1.76 3 1.76c1.26 0 2.31-.37 2.31-1.87.03-.37.01-.88.01-1.47zm22.35 1.05c.07-.83.09-2.24.09-3.38-2 1.1-3.43 2.22-3.43 3.65 0 1.71 1.69 2 3.94 2a38.48 38.48 0 0 0 5.94-.53v1.78a55.59 55.59 0 0 1-6 .35c-3.12 0-5.63-.66-5.63-3.32s2.59-4.2 5.12-5.52a1.84 1.84 0 0 0-2-1.34 5.84 5.84 0 0 0-3.77 1.6c-.61.6-1.23 1.41-2 2.29L155.39 46a23 23 0 0 0 5-6.65h-.9c-.92 0-2.4 0-3.59-.13v-1.7c1.17.13 2.69.22 3.68.22h1.43a11.52 11.52 0 0 0 .55-2.71l1.8.16c-.15.61-.35 1.51-.66 2.5a56.64 56.64 0 0 0 6.67-.66v1.63a67.88 67.88 0 0 1-7.22.62 15.13 15.13 0 0 1-2 3.34 6.28 6.28 0 0 1 3-.81 2.73 2.73 0 0 1 2.88 2c1.5-.7 2.82-1.23 4-1.76.66-.29 1.19-.55 1.8-.86l.71 1.65c-.55.16-1.34.46-1.92.68-1.23.49-2.79 1.13-4.44 1.9 0 1.25 0 3.1.07 4.15zm31.77-6.35h-5.83v11h-1.67v-11h-5.37v5.47h-5v1.76H177v-14h6.49v5.17h5.37v-7.07h1.67v7.08h5.83zm-14.43-5.26h-3.44v9.24h3.44zm30.1 4.51c-.83.75-3.25 3-4.07 3.85a2.79 2.79 0 0 1 .82.06 2 2 0 0 1 1.67 1.57c.2.63.48 1.73.73 2.44s.74 1.16 1.87 1.16a18.07 18.07 0 0 0 4.11-.46l-.13 1.87a31.54 31.54 0 0 1-4.09.31c-1.74 0-2.84-.4-3.32-1.85-.2-.64-.53-1.91-.73-2.55a1.43 1.43 0 0 0-1.32-1.14 2.34 2.34 0 0 0-1.61.79 65.23 65.23 0 0 0-4.4 4.82l-1.69-1.15a10.66 10.66 0 0 0 1.08-1c.88-.86 6.82-6.8 9-8.95-1.71.11-5.36.44-6.71.55-.7 0-1.27.13-1.76.2l-.17-1.95a15.33 15.33 0 0 0 1.85 0c1.25 0 6.31-.37 8-.57a4.22 4.22 0 0 0 1-.24l1.05 1.19a13.54 13.54 0 0 0-1.18 1.05zm.75-6.08L212.5 38c-2.18-.2-6-.68-8.65-1.16l.29-1.61a74.66 74.66 0 0 0 8.6 1.12zm22.96.88c-.4.27-.88.6-1.21.84-1.08.81-4 3.39-5.68 4.8a9.26 9.26 0 0 1 3-.46c3.63 0 6.25 2.2 6.25 5.14 0 3.52-2.93 5.81-7.52 5.81-3 0-4.8-1.32-4.8-3.12a3.09 3.09 0 0 1 3.37-2.86 4.29 4.29 0 0 1 4.48 3.85 3.8 3.8 0 0 0 2.71-3.7c0-2.13-2.16-3.69-4.91-3.69-3.58 0-5.56 1.51-8.34 4.33l-1.27-1.3 5.82-4.87c1.21-1 3.92-3.3 5-4.27-1.15 0-5.44.24-6.56.31a9.8 9.8 0 0 0-1.47.13l-.05-1.83a11.71 11.71 0 0 0 1.54.07c1.13 0 6.3-.16 7.44-.27a8 8 0 0 0 1.19-.14zM232 51.65c-.2-1.72-1.23-2.91-2.88-2.91-1 0-1.74.6-1.74 1.34 0 1.08 1.25 1.7 2.88 1.7a11.74 11.74 0 0 0 1.74-.13zm19.92-.22a14.18 14.18 0 0 0 1.87-.27c2.8-.61 5.53-2.68 5.53-6.44a6 6 0 0 0-5.79-6.32 45.38 45.38 0 0 1-1.3 6.27c-1.34 4.47-3.08 6.78-5.1 6.78s-3.9-2.25-3.9-5.83c0-4.73 4.23-8.87 9.55-8.87 5.11 0 8.36 3.61 8.36 8 0 4.58-3 7.64-8.2 8.32zm-1.43-7.13a35 35 0 0 0 1.21-5.88 7.6 7.6 0 0 0-6.73 7c0 2.75 1.28 4 2.22 4s2.18-1.42 3.3-5.12zm22.11-8.83c-.08.42-.19.86-.26 1.3-.13.64-.33 1.92-.57 3.08 1-.08 1.91-.15 2.44-.15 2 0 3.54.77 3.54 3.72 0 2.59-.35 6-1.25 7.85a3.08 3.08 0 0 1-3.19 1.81 13.7 13.7 0 0 1-2.58-.31l-.28-1.87a9.82 9.82 0 0 0 2.68.48 1.81 1.81 0 0 0 1.87-1.12 17.93 17.93 0 0 0 1-6.64c0-2-.9-2.34-2.31-2.34-.53 0-1.39.07-2.33.16a44 44 0 0 1-4.58 11.68L265 52.4c2.22-3 3.82-7.88 4.57-10.79-1.14.11-2.18.22-2.75.29s-1.41.15-2 .26l-.17-1.91h1.93c.7 0 2-.13 3.3-.24a24 24 0 0 0 .56-4.73zm7.48 2.53a36.7 36.7 0 0 1 4 7.75l-1.7.83a26.32 26.32 0 0 0-3.89-7.83zm.91.35a26.49 26.49 0 0 0-1.79-3.06l1.17-.48a33 33 0 0 1 1.83 3zm2.48-.9a24.93 24.93 0 0 0-1.82-3l1.16-.48a29.86 29.86 0 0 1 1.85 3zm8.65-1.45a15.31 15.31 0 0 0-.07 1.58v7.35a16.71 16.71 0 0 0 .07 1.68h-2c0-.33.09-1 .09-1.7v-7.35c0-.39 0-1.16-.09-1.58zm10.18-.15c0 .52-.08 1.16-.08 1.89v3.56c0 5.28-.71 7-2.29 8.91a11.73 11.73 0 0 1-5.24 3.22l-1.43-1.52a10.14 10.14 0 0 0 5.28-2.91c1.59-1.82 1.85-3.61 1.85-7.76v-3.52c0-.73-.07-1.37-.11-1.89zm22.53 1.93a6.44 6.44 0 0 0-.55 1 27.81 27.81 0 0 1-3.69 6.45 62.63 62.63 0 0 1 6.41 6.53l-1.54 1.34a51.08 51.08 0 0 0-6.05-6.54 27.91 27.91 0 0 1-8.57 6.44l-1.41-1.48A25.15 25.15 0 0 0 318.5 45a19.61 19.61 0 0 0 3.65-6.12h-8.58c-.77 0-2 .09-2.23.11V37c.31 0 1.57.15 2.23.15h8.49a5.89 5.89 0 0 0 1.65-.19zm23.59.62a9.06 9.06 0 0 0-.51 1.19 22.23 22.23 0 0 1-3.21 6.53c.83.53 1.58 1 2.13 1.43l-1.21 1.59c-.53-.42-1.25-1-2.09-1.52a20.8 20.8 0 0 1-8.62 5.85l-1.59-1.36a19.29 19.29 0 0 0 8.68-5.48 84.176 84.176 0 0 0-4.82-2.9l1.13-1.3c1.27.66 3.12 1.71 4.84 2.75A18.49 18.49 0 0 0 346 39.3h-7.48a23.79 23.79 0 0 1-5.84 5.79L331.21 44a19.72 19.72 0 0 0 7.06-7.64 10.06 10.06 0 0 0 .71-1.76l2 .64c-.35.57-.75 1.32-1 1.74-.13.26-.29.52-.46.81h6a4 4 0 0 0 1.46-.22zm13.5 13.03a14.18 14.18 0 0 0 1.87-.27c2.8-.61 5.53-2.68 5.53-6.44a6 6 0 0 0-5.79-6.32 45.38 45.38 0 0 1-1.3 6.27c-1.34 4.47-3.08 6.78-5.1 6.78s-3.9-2.25-3.9-5.83c0-4.73 4.23-8.87 9.55-8.87 5.11 0 8.36 3.61 8.36 8 0 4.58-3 7.64-8.2 8.32zm-1.43-7.13a35 35 0 0 0 1.21-5.88 7.6 7.6 0 0 0-6.73 7c0 2.75 1.28 4 2.22 4s2.18-1.42 3.3-5.12zm19.63-8.3a15.31 15.31 0 0 0-.07 1.58v7.35a16.71 16.71 0 0 0 .07 1.68h-2c0-.33.09-1 .09-1.7v-7.35c0-.39 0-1.16-.09-1.58zm10.18-.15c0 .52-.08 1.16-.08 1.89v3.56c0 5.28-.71 7-2.29 8.91a11.73 11.73 0 0 1-5.24 3.22l-1.43-1.52a10.14 10.14 0 0 0 5.28-2.91c1.59-1.82 1.85-3.61 1.85-7.76v-3.52c0-.73-.07-1.37-.11-1.89zm21.87 2.75a30.39 30.39 0 0 1-4 8 22.13 22.13 0 0 1-8.3 6.27l-1.54-1.61a19 19 0 0 0 8.32-5.83 22.56 22.56 0 0 0 4.13-9.33l2.12.57c-.29.61-.55 1.38-.73 1.93zm7.83 6.67c1.05-1.08 3-3.52 4.35-5.15 1.17-1.39 2.07-1.54 3.66-.22a55.72 55.72 0 0 1 4.55 4.55c1.48 1.59 3.72 4 5.33 5.88l-1.43 1.56c-1.54-2-3.55-4.25-4.95-5.85a59.5 59.5 0 0 0-4.29-4.47c-.93-.77-1.24-.75-2 .18-1.05 1.27-2.9 3.69-3.89 4.9-.46.57-.95 1.26-1.28 1.7l-1.6-1.63c.55-.49.94-.88 1.55-1.45zm14.54-4.21l-1.27.6a22.51 22.51 0 0 0-2.05-3.52l1.25-.55a32.8 32.8 0 0 1 2.03 3.47zm2.91-1.16l-1.28.61A22.75 22.75 0 0 0 434 37l1.23-.58a33 33 0 0 1 2.18 3.48zm4.02 3.1c.66 0 1.83.11 3.06.11h12.06c1.1 0 1.89-.07 2.38-.11v2.15c-.44 0-1.37-.11-2.36-.11h-12.08c-1.21 0-2.37 0-3.06.11zm27.9.53l-1 1.54a50.48 50.48 0 0 0-4.8-3l1-1.49a56.06 56.06 0 0 1 4.8 2.95zm2.55 5.23a22.38 22.38 0 0 0 8.34-8l1.06 1.81a25.91 25.91 0 0 1-8.45 7.87 27.29 27.29 0 0 1-7.31 2.73l-1-1.8a23.27 23.27 0 0 0 7.36-2.61zm.71-10l-1 1.5c-1-.8-3.43-2.38-4.73-3.13l1-1.47c1.25.67 3.78 2.34 4.73 3.05zm25.89 14.98v-.91h-8.86c-.69 0-1.45.05-1.81.07v-1.76a18 18 0 0 0 1.81.09h8.86v-3.92h-9.92v-1.7c.42 0 1.21.09 2 .09h8v-3.62h-8.16c-.57 0-1.85 0-2.24.06v-1.71c.42 0 1.67.08 2.24.08h9.86v13.31zm18.61-5.83a20.69 20.69 0 0 0 7.35-8.1l1.06 1.87a22 22 0 0 1-7.39 7.81 23.7 23.7 0 0 1-8.65 3.43l-1.17-1.8a22.81 22.81 0 0 0 8.8-3.21zm-1.29-7l-1.39 1.39a45 45 0 0 0-5.48-4.6l1.26-1.34a48.79 48.79 0 0 1 5.61 4.57zM531 37.92c1.43-.14 5.55-.53 9.55-.88 2.38-.2 4.42-.31 5.88-.38v1.76a18 18 0 0 0-4.27.35 7.64 7.64 0 0 0-5 6.89c0 4.25 4 5.59 7.5 5.72l-.66 1.85c-4-.17-8.62-2.33-8.62-7.19a8.81 8.81 0 0 1 4-7.35c-1.91.22-7.85.79-10.21 1.27l-.11-1.96c.83 0 1.51 0 1.94-.08zm14.15 6.22l-1.12.53a21 21 0 0 0-1.81-3.1l1.13-.48a26.71 26.71 0 0 1 1.79 3.05zm2.51-.94l-1.15.53a18.28 18.28 0 0 0-1.87-3.06l1.1-.51a33.59 33.59 0 0 1 1.91 3.04zm15.21-3.72v3.56a5.36 5.36 0 0 1 .7 2.8c0 2.95-1.43 6.22-6.49 7.74l-1.52-1.47c2.86-.66 4.89-1.85 5.79-3.79a3.1 3.1 0 0 1-1.87.55 3.5 3.5 0 0 1-3.61-3.65 3.83 3.83 0 0 1 3.85-3.8 4.2 4.2 0 0 1 1.45.24V39.5c-3.3 0-7 .18-9.73.38v-1.72c2.42 0 6.51-.18 9.75-.22v-1.43a13.08 13.08 0 0 0-.13-1.37h2l-.11 1.37v1.41h6.71v1.65c-1.23-.07-3.21-.11-6.4-.11zm-1.16 4.77a2 2 0 0 0-1.94-1.34 2.21 2.21 0 0 0-2.2 2.29 2.1 2.1 0 0 0 2.22 2.16c1.28 0 2.11-1.04 1.92-3.11zm17.15 6.23a3.36 3.36 0 1 1-3.36-3.34 3.36 3.36 0 0 1 3.36 3.34zm-1.14 0a2.21 2.21 0 0 0-2.22-2.22 2.24 2.24 0 0 0 0 4.47 2.22 2.22 0 0 0 2.22-2.25z" id="SVG"/></g></svg>