<svg xmlns="http://www.w3.org/2000/svg" viewBox="0 0 517.09 155.56"><defs><style>.cls-1{fill:#85cbcb}</style></defs><title>sp-text1</title><g id="Layer_2" data-name="Layer 2"><g id="SVG"><path class="cls-1" d="M410.7 41.18c.21-.13.09-.43-.5-.37l-.43.5zm-4.01-.92c-.7.24-1.51.66-1.05 1.12.69-.48.86-.28 1.6-.85.6-.06 1 .16.94.34.21-.13.93.11 1.25-.2a3.77 3.77 0 0 0-2.78-.08c-.22-.11-.01-.24.04-.33zm-58.23-.78l.37.06a1.79 1.79 0 0 0-.37-.06zm-36.09-.27c.28 0 .39-.06.41-.11-.26.04-.47.07-.41.11zm-6.16-.55h.37a.63.63 0 0 0-.37 0zm42.25.82l-1-.15c-.04.16.54.12 1 .15zm50.2 1.97a1.88 1.88 0 0 0 .52-.13l-.49.06zm-34.3-2.37h.29a2.43 2.43 0 0 0 .25-.2zm12.21-.08c-.28 0-.37.41-.48.59a1 1 0 0 1 .6-.29.47.47 0 0 0-.12-.3zm19.35.75l.35-.06c-.09.02-.27.03-.35.06zm-40.3-.75a.28.28 0 0 0-.11-.15s.05.09.11.15zM14.21 42.16v-.08c0-.08-.1.07 0 .08zM.06 40.07h.19a1 1 0 0 0 0-.24zm294.88-1.95h.06c.29-.04.12-.03-.06 0zm-103.5.31c1.17.38-1.91.49-.14.91-.17-.17 1.6-.66.14-.91zm206.9 2.97h-.5a2 2 0 0 0 .5 0zM191.3 39.34h.18zm77.7-.96a.8.8 0 0 0 .27.18s-.11-.1-.27-.18zm19.32.62l-.48-.06a3.29 3.29 0 0 0 .48.06zm-29.4 0a1.79 1.79 0 0 0-.71 0l.11.05a.88.88 0 0 1 .6-.05zm-10.46 0a1.11 1.11 0 0 0 .19.09h.33zM46 42a1.38 1.38 0 0 1-.48-.37c.15.25-1.39.37.48.37z"/><path class="cls-1" d="M398.65 41.22a.38.38 0 0 1-.31.18h.35c.03-.09.04-.15-.04-.18zM258.49 42.3l-1.66-.06c.46.04 1.07.06 1.66.06zM121 41.89h-.38a.75.75 0 0 0 .38 0zm130.9.41a3.11 3.11 0 0 0-.9-.3.67.67 0 0 0-.19.1zm-206.4-.73z"/><path class="cls-1" d="M34.56 42.57c1.58 0 .74-.54 1.08-.86 1.89-.16.87.41 1.52.69 1.18-.14 2.08-.65 3-.63.07.09.24.12 0 .24 1.25-.44 3.7 0 5.15-.58a.39.39 0 0 1 .19.14.88.88 0 0 1-.22-.76c.71 0 1.32-.35 1.59 0-.44 0-.48.14-.68.25l.74-.16c.67.52-1 .18-1 .57a21.52 21.52 0 0 1 4.24-.47c.23.51-2.6.17-1.12.62l-1.71-.19c1.31.8-1.05-.06.16.8 2.26.15 2.53-.26 4.79-.11.5-.28-.17-.42.34-.7 3.2-.51 2.52 1.28 4.88.6a2.5 2.5 0 0 1 2.49-.61l-.58.57c2.2.06 1.26-.83 3.55-.44-.41.23-1.72.19-1.39.26 1.49.46 1.05-.33 2.19-.33l.24.51c2.33-.08 4.9-.44 7.48-.54-.14.15-.58.31 0 .47a61.56 61.56 0 0 1 10.1.36l1.2-.44c.28 0 .52.2.22.29 1.22.17.06-.28.65-.45s.92.25.48.38c2.16-.37 6.16-.8 8.43-.33l-.44.13c1.77.18 2-.9 3.64-.49l-.31.08c3.85.19 8.1-.22 11 .45.55-.64 3.81.28 4-.6a24.23 24.23 0 0 0 4.67.89c.82 0 1.23-.55 2.25-.65V42l1.39-.49.74.55 1-.12c-.38 0-.81-.2-.75-.34 1.49-.21 3.64.33 3.68.56l3.54-.39c-.07.19-.67.25-1.14.37 1.89-.47.35.49 2.08.06-.23-.11.12-.28.16-.37a14.5 14.5 0 0 0 4.29.16l-.28.32c2.63.08 5.54-.15 8.49-.15-1.06-.15-.82-.7 0-.75l.34.49c.56-.31-.9-.19.25-.56 1.1.06.74.56.1.72l1.34-.17c.08.14-.23.22-.31.41.54-.31 2.31.49 3.1 0l.07.15c2.95 0 4.29-.17 6.69-.19 0-.43 1-.33 1.7-.67 1.77.13 3.72.46 5.85.43 1.49-.21.44-.36 1.11-.61.11.38 2.23.35 1.13.62 2.55-.06 3.26-.07 6.49-.38-.35-.16-.75-.23-.54-.36.58-.06 1.33.16 1.25.34h-.16c3.62-.57 8.36 1.12 11.25.32h-.17l3-.41c1.37.06-.83.28.19.52 3.22-.64 5.1.1 7.75-.33 2.06 1.13 7.3-.08 10.08.64l-.16-.27c.72-.26.87.16 1.39.22-.07-.21-.77-.24-.33-.39 6.08-.32 12.55.39 18.78.63 2.28.08 1.29-1.38 4.17-.74l-.82.5c4.6-.6 9.41 0 13.91-.49-.27.12-.28.27-.72.26.95.36 3.52 0 3.54-.27.7 0 .16.26.59.41 1 .21 2.4-.46 2.9-.1.09.06-.27.12-.44.15.62-.18 2.9 0 2.3-.38 1.69.2 3.23-.18 4.58.07.88-.47 2.89.22 3.17-.44-.12.68 3 .55 4 .23-.36.21.92.21.51.5 1.21 0 2.33-.14 2.12-.49 2.25.82 4.52-.65 5.78.39 3.62-.36 7-.61 10.23-.77-.11.68-3.6.07-3.46.78 3.09-.28 4.88-.86 7.94-.7.79.09-.45.3-.72.41 3.09-.28 6 .06 8.72-.31 0 .07-.3.14-.58.19.54 0 1.26.1 1.2-.21l-.53.08c-.87-.44 2.15-.93 2.25-1.17-.92.89 2.71.23 1.25 1.34.36-.06.8-.2.72-.41.53.06.7.18.16.41 1.94-.16 1.25-.49 3-.48 0 .15-.36.2-.54.38a7.41 7.41 0 0 1 3.27-.46c-.09.09.08.21-.36.21 2.55-.05 4.34-.78 7.14-.5-.82.65 1 .22 1.1.78l1.51-.17-.61-.27c1.32 0 2.49-.4 3.62-.22l-1 .23 2.47-.1L312 41c1.34-.29-.14-.71 1.61-.56a12.64 12.64 0 0 1 2 .34 5.27 5.27 0 0 1 2.3-.23c.26.18-.2.62 0 .74.65-.46 3.09-.13 3.9-.62-.27.11-.28.41-.19.47l.54-.38c.61.12.7.18.6.41 1.84.07-.58-.71 1.6-.4-.18 0-.09.08-.45.14 2.19.16 4.23-.24 6.24 0 .59.56-1.76.14-1.08.61 2.9-.1 6-.67 8.82-.54l-.53-.06c.39-.8 2.09.39 3.51 0-.35.06-.45.45-.36.36a50.91 50.91 0 0 0 6.84-.45l-.36.21c1.14.18 3 .1 4.21.19.36-.2 1.06-.17.64-.46 3.77 1.16 7.19-.63 10.54.34-.4 0-.95.18-.63.18l2.85-.19c-.23-.34-.38-.21-1-.48a4.68 4.68 0 0 1 1.88-.36c-1.29.23 0 .55.56.75-.09-.11.1-.23.05-.33 1.49.61.25-.7 2.29-.29l-.11.19a10.62 10.62 0 0 1 2.28-.28c.34.4-.81.18-.86.51 1.15 0 2.27-.76 3.32-.36-.49.11-1.2.12-1.69.23a4.63 4.63 0 0 0 2.12.42h-.09l1.95.22-.49-.13c1.44-1.05 2.94-.19 4.88-.88-1.89.65-.31.38-.46.83.5.13 1.25.27 1 .4.92-.37 1.53.29 2.83-.25.05.15 1 0 .77.38 1.2-.11-.28-.25-.18-.44 1.84-.5 4.33.61 7-.08 2.29-.28 2.71-.77 4.83-1 .71.24-.59.53-.59.53a8.34 8.34 0 0 0 3.11 0c-.22.13 0 .24.34.4.87 0 .58-.53 1.73-.31a2.83 2.83 0 0 1-.87.58c1-.13 2.05-.4 3.11-.54.28.26-.64.39-1 .56 1.2-.12 3.1-.23 3.47-.64l-.77-.14c.44 0 .23.35-.09.42-1 .32-1.48-.14-1.54-.29l.76-.09c-.78-.86-3.05.14-4.57.09l.63-.63-1.56.52c-.33-.16-.56-.51.19-.6-1.09-.31-1 .22-1.91-.13-.1-.05-.05-.08 0-.1l-1.07.18c.21-.13-.17-.44.48-.35-1.91-.36-3.09.47-3.81 0h.16c-2.66.21-.26.46-2.26 1l-1.34-1.13-.26.46c-.28 0-.82 0-.72-.23-1 .31.18.2-.42.49-1.32-.41-3.64.2-3.94-.53-.47.35 1.26.27-.15.51-.4-.79-1.63.13-2.83-.23.37-.4 1.51-.19.3-.55-.73.69-2.35-.15-3.37 0-.05.55-2.21.23-3.92.41.11-.18-3.22-.3-4.81-.5l.05-.09c-.31.55-1.95.45-3.14.56.05-.33.26-.46.91-.6h-1.13a2.67 2.67 0 0 1-1.34.33l.28-.41c-1.49 0-3 .48-4.93.21-.11.38 1.53 1.07-.5 1.33-.08-.21-.15-.57.38-.65a2.34 2.34 0 0 1-1 .08l.81-.35c-.88-.15-.46.29-1.16.26 0-.29-.52-.21-.42-.44.18 0 .62.12.88 0a5.49 5.49 0 0 1-2.06-.45c.07.17 0 .4-.57.44-1.5 0-.51-.36-1.39-.51-.36.2-1.31 0-1.34.43-.43 0-.51-.21-.68-.33-.78.2-3.61.06-2.74.53h.19-.12c-2.54.44-5.27-.25-7.78-.06v-.15a34.28 34.28 0 0 0-4.41.42c-.44 0-1-.27-.86-.45a7.74 7.74 0 0 1-2.93 0c1.15-.26-.4-.23 1.18-.19a7.38 7.38 0 0 0-3.43 0c.55-.38-1.12-.48-1.83-.37l1 .27a16.08 16.08 0 0 1-2.2 0l.39-.49c-3.06-.61-5.51 1-7.83 0-.81.35 1.66.25.94.66a23.5 23.5 0 0 1-3.31-.79c-1.92-.28-1.79.73-3.8.54.25.18.5.65-1 .82-1.4-.06-1.72-.75-.84-.89.34 0 .5 0 .49.1.45-.06 1.05-.14.49-.33l-.18.18c-.7-.18-2.63-.16-2.18-.46-1.06.17-.45.3.34.39-1.81-.26-2.82 0-4.67-.18.29.09.56.3.27.3-2.72-.22-1.2.34-3 .42-1.05-.27.38-.65-1.48-.42-1.13-.19-.24-.48.21-.62-1.69.34-3.16-.23-4.12-.29l.89-.14a8.88 8.88 0 0 1-1.41.08l.5.36c-.52-.07-1-.07-.95-.22-.54.24.41.6-.66.91-.7-.18-2.12.2-2.36-.27 2.19.16-.24-.48 1.61-.55a5.31 5.31 0 0 1-1.32 0c-.08-.06.08-.1.22-.13-2.1-.42-1 .54-3.14.53.28-.27-.5-.51-.86-.45.88 0 .42.44-.38.65-1.39-.21-1.51.15-2.24.13l.83.09c-.28.27-1 .23-1.95.32-.09-.21.88-.14.53-.24-1.08.47-2.43-.48-3.94-.16-.69-.18-.07-.5-.68-.63-1.68.35-1.82-.36-3.59-.08.51.36.6.27-.65.62l2.91-.25-1.87.52c.88 0 1.86-.22 2.38-.16-.89.29-.8.2-.38.5-1.2-.54-2.38.31-3.77 0v-.89c-2.09-.39-3.71.46-6.43.23l.88.16c-.37.35-1.68 0-2.56.19.08-.3-.47-.41-.84-.59 0 .22-2 0-2.24.57l-1.21-.39c-2.19-.16-2.5.85-4.6.74.63-.32-.33-.53 1.08-.76-.7 0-1.33 0-1.34.15-.41-.18-1.95.4-2.6.12-.3.13-.39.44-1.18.41-.09-.06 0-.14 0-.14s-1.24.2-.55.52c-2.16-.92-6 .07-7.94-.72-1.54.1-3.38.19-4.78.21.09-.08 0-.14.27-.11-1.92-.28-1.18.85-3.37.54-1.12-.48 1.16-.26.47-.44-.31-1-2.65.13-4.12-.44h.36c-1.13-.33-2.75.37-4.58.3 0 0 .08-.09 0-.15a23.14 23.14 0 0 1-5.41.8c.55-.38.8-.2.47-.59-.8 0 .23.62-1.35.73-.52-.21-1.66-.39-1.81-.8h1.49c-.76-.53-1.93 0-2.72-.07l.1-.23c-2.28.07-2.32.66-4.77.62l.25.18c-1.34.58-1.13-.33-2.47.1l-.4-.59c-.89.14-3.11.57-4.7.68a23.15 23.15 0 0 1 3.91-.92 11.77 11.77 0 0 0-3.44.33 3.22 3.22 0 0 1 1.15-.11 10.63 10.63 0 0 1-4.25.69c.31-1.15-4.56-.29-5.83-1.18-3.1.42-6.15-.19-9.76-.12 1.28.9-1.05 0-.83 1a3.35 3.35 0 0 1-1.24 0l-2.54-.55c-.61-.27.79-.2.72-.41-1.84-.07-.77-.39-2-.63.25.33-.64.47-1.69.35l1.48.42c-2.58.49-2.23-.77-4.82-.29l.82-.29c-1.33.17-4.91 0-6.21.74-.24-.11-.55-.36 0-.43-3.18-.11-7.08.79-9.55.33l.24-.22c-.6.06-1 .42-1.78.19 0-.09.24-.22 0-.23a7.48 7.48 0 0 1-2.37.26l.68-.25c-3.11-.3-4.76.61-7.36.76 0-.66-2.44-.87-3.66-1l.05-.09c-3.62-.08-6.14.55-9.48.81-2.08-.72-7-.3-10.37-.71.51.12-.09.52-.68.59-.78-.14-2.16.45-2-.15h.29c-.59-.59-2.2-.44-3.46-.45l-.2.79c-3.29-1.15-8.61.42-10.41-.61-.79.2-1.77.2-2.56.39v-.42a55.73 55.73 0 0 0-6-.06l.56-.3c-1.54 0-1.94 1.22-3.35 1.24l-.43-.63c-2.67 0-5.37-.55-8 0 0-.09.13-.28.56-.3-1.26 0-4.87-.43-4.41.44 0-.57-2.76-.06-4.2.19l.22-.42a6.25 6.25 0 0 1-3 .83c-.4 0-.35-.33.19-.23-1.35-.21-1 .4-2.68.18l.61-.27a3.15 3.15 0 0 0-2 .42c-.87.17-2.62-.1-2.82-.48a2.28 2.28 0 0 1-1.76.43c-.11-.14.19-.23.34-.28-2.32-.28-3.44.49-5 .08a.35.35 0 0 0-.27-.25c1.84 0 3.32 0 3.18.06 0-.38-1.49-.45-.31-1a14.84 14.84 0 0 1-4.67.74.64.64 0 0 1-.19-.13h.15a2.46 2.46 0 0 0-.91.07 8.55 8.55 0 0 0-1.2-.12c-.17-.32-1.7-.17-2.44-.19.06.42-.91.36 0 .7-.12 0 .14-.05.63-.06a2 2 0 0 0 .31 0h1.84a2.91 2.91 0 0 1-2 .16c-.38.27-.8.55-1 .68-1-.59-3-.9-3.24-1.27-2.26.24-5.32.16-6.74.95-.64.1-.74-.23-1-.35a5.8 5.8 0 0 0 1-.18c-1.29.2-3.81.08-4.11.63-1.62-.25.91-.51-1.32-.42l.3-.17c-4.37-.88-7.11 1.42-12 .28.34.07.51.1.57.2-5.52-.51-11.39.46-16.84-.33a4.66 4.66 0 0 0-2.67.46l-.34-.45-1.61.52c-2.3.39-4-1.11-6.88-.39l.37.31c-1-.06-3.3.18-3.13-.17a.74.74 0 0 1-.75.16v-.24l-2.56.41c-2-.18.31-.94-2.59-1-1.08.09-3.07.69-2.66.85s1.11.15 1.14.38l-1 .13c-.18.69-.93 1.41 1.49 1.9l1.68-.43.55.34H2.56a2.3 2.3 0 0 0 1.88-.16 1.18 1.18 0 0 0 .71.38l1.66-.67c.2.27-.75.54.36.69.78-.31-.74-.61.54-.81.81.31.57.57 1.52.3.13.18-.07.3-.44.38.84-.22 2.23-.1 2.66-.47.84.39 2.85-.1 2.77.56a6.89 6.89 0 0 1 2.25-.54c-1.41.79 2.9 0 2.53.89 1-.71 3.78-.32 5.63-.71a.72.72 0 0 1-.47.13 9.83 9.83 0 0 1 2 .41c.13-.58 1.76-.72 2.63-1.08 1.28.56-.77.69-.37 1.23-.07-.47 2.22-.47 1.78-.87 1 .35.85.17 1.35.66.17-.74.91-.13 1.72-.58 1.42.36.37.69 1.92.47.75.06-.63.32-.63.32zm37-1.27h-.76zm3.11 0h-1.35c-.11-.15 0-.3.32-.29-.19.08.54.16 1.01.29zm-6.58-2.93c.5-.06.66 0 .73.11l-.86.05h-.06a.63.63 0 0 1 .17-.16z"/><path class="cls-1" d="M67.19 38.93L67 39c.1 0 .19.07.29.09l.17-.13zm281.71.62h-.07a.37.37 0 0 1 .14.06.14.14 0 0 1-.07-.06zM117.56 42.1l-.01-.11-.27.1.28.01zM366 41a.48.48 0 0 0 .23.11s-.1-.11-.23-.11zm7.41.09l1 .15c-.41-.08-.74-.12-1-.15zm5.68.21a.46.46 0 0 0 .11-.18zm-90.38.5h-.22c-.49.1-.17.07.22 0zm26.89-.99a7.71 7.71 0 0 1-.86.2c.48-.01.85.04.86-.2zm-56.93 1.49zm54.82-1.3a3.51 3.51 0 0 0 1.25 0 5.8 5.8 0 0 0-1.25 0zm90.24.49h.27a.09.09 0 0 1 0-.07zm.27-.05h.31a.6.6 0 0 0-.31 0zm1-.15l-.64.1a1.1 1.1 0 0 0 .64-.1zm-8.8.01l-.08.15a.22.22 0 0 0 .08-.15zm-2.28.04a9.31 9.31 0 0 0 2.13.23l.07-.12c-.36.23-1.69-.37-2.2-.11zm-9.55-1.89l1.92.12c-.34-.16-.78-.38.09-.42-2.38-.48.5.37-2.01.3zm-5.94-.23c1-.08 0-.24 0-.33-.61.11-.77.18 0 .33zm-42.94-.01l.1-.38c-.79.06 0 .17-.1.38zm-8.21 1.99l.77.24.37-.36-1.14.12zm-4.85-2.73l.35-.06-1.32.14.97-.08zm-72.11.13l.24.47c.53-.07.65-.61-.24-.47zm-31.14.48a2.2 2.2 0 0 0-1.75-.15 16.82 16.82 0 0 0 1.75.15zm-93.36-.77l.62-.16-1.18.14.56.02zm148.52.87c-.13.13-.06.42.3.36l.25-.49zm2.37.92c.41-.24.89-.66.62-1.12-.41.48-.51.28-.95.85-.35.05-.61-.16-.56-.35-.12.13-.54-.11-.73.21a1.4 1.4 0 0 0 1.64.08c.13.11.01.23-.02.33zm34.42.77l-.22-.06a.38.38 0 0 0 .22.06zm21.32.28c-.16 0-.23.06-.23.1s.27-.06.23-.1zm3.65.54h-.22c.12.02.17.04.22 0zm-24.97-.82l.57.16c.04-.16-.29-.12-.57-.16zm-29.68-1.97a1.07 1.07 0 0 0-.31.13l.3-.05s.01-.05.01-.08zm20.28 2.38h-.18a.78.78 0 0 0-.14.2zm-7.22.07c.16 0 .22-.4.28-.59a.49.49 0 0 1-.35.29.79.79 0 0 0 .07.3zm-11.44-.74l-.2.06zm23.82.76a.3.3 0 0 0 .07.15.23.23 0 0 0-.07-.15zm201.8-3.17v.07c0 .07.06-.07 0-.07zm8.37 2.09h-.12a1.94 1.94 0 0 0 0 .24zm-174.3 1.94c-.21.04-.11.03 0 0z"/><path class="cls-1" d="M403.93 41.92c-.69-.37 1.13-.48.09-.9.1.16-.95.66-.09.9zM281.64 39h.3a.91.91 0 0 0-.3 0zM404 41h-.11zm-45.89 1a.52.52 0 0 0-.15-.18s.04.07.15.18zm-11.43-.62l.28.06a.83.83 0 0 0-.28-.06zm17.37 0c.16 0 .21.1.42 0l-.06-.05a.36.36 0 0 1-.36.05zm6.18 0l-.11-.08h-.2zm119.68-2.98a1.2 1.2 0 0 1 .28.38c-.09-.3.81-.41-.28-.38zm-208.45.74a.22.22 0 0 1 .18-.18h-.2c-.02.04-.03.14.02.18zm82.84-1.08l1 .06a7.41 7.41 0 0 0-1-.06zm81.26.4l.22-.05a.28.28 0 0 0-.22.05zm-77.36-.4a1.54 1.54 0 0 0 .55.29.41.41 0 0 0 .12-.11z"/><path class="cls-1" d="M496.66 37.78c-.93 0-.44.55-.63.86-1.12.16-.52-.4-.9-.69-.7.15-1.23.66-1.75.64 0-.09-.14-.13 0-.24-.73.44-2.18 0-3 .57a.3.3 0 0 1-.12-.14 1.34 1.34 0 0 1 .14.77c-.42 0-.78.35-.94 0 .26 0 .28-.13.4-.25l-.44.16c-.4-.52.6-.18.6-.56a7.81 7.81 0 0 1-2.51.45c-.14-.51 1.53-.17.66-.62l1 .19c-.77-.8.62.06-.09-.8-1.34-.15-1.5.26-2.83.11-.3.28.1.42-.2.7-1.9.51-1.5-1.28-2.89-.6-.36.34-.5 1-1.5.64l.34-.58c-1.29 0-.74.83-2.09.44.24-.22 1-.19.82-.25-.88-.46-.62.32-1.3.32l-.14-.51c-1.38.08-2.89.45-4.42.54.08-.15.34-.31 0-.46a21.66 21.66 0 0 1-6-.37l-.71.44c-.17 0-.31-.2-.13-.28-.72-.17 0 .28-.38.45s-.55-.25-.29-.39c-1.27.38-3.64.81-5 .34l.26-.13c-1.05-.18-1.18.9-2.15.49l.18-.08c-2.27-.19-4.79.21-6.52-.45-.33.63-2.25-.29-2.4.6a9.11 9.11 0 0 0-2.76-.89c-.48 0-.72.55-1.33.64v-.46l-.82.49-.44-.56-.57.12c.23 0 .48.21.45.34a2.58 2.58 0 0 1-2.18-.56l-2.09.39c0-.18.39-.25.67-.36-1.12.47-.2-.49-1.23-.06.14.11-.07.28-.09.37a5.16 5.16 0 0 0-2.54-.16l.17-.32c-1.55-.08-3.27.15-5 .14.63.15.48.71 0 .76l-.2-.49c-.33.3.53.18-.14.55-.66 0-.44-.55-.07-.71l-.79.17c-.05-.15.14-.22.19-.41-.33.3-1.37-.49-1.84 0v-.15c-1.74 0-2.53.16-3.95.19 0 .42-.59.33-1 .67a19.7 19.7 0 0 0-3.46-.43c-.88.21-.25.36-.65.61-.07-.39-1.32-.35-.67-.63a23.5 23.5 0 0 0-3.83.39c.2.16.44.23.32.36-.35.06-.79-.16-.74-.35h.09c-2.14.58-4.94-1.12-6.65-.32h.1l-1.77.42c-.81-.07.49-.29-.11-.53-1.91.65-3-.09-4.59.34-1.21-1.14-4.31.08-5.95-.65l.09.27c-.42.26-.51-.15-.82-.21 0 .2.46.24.19.38-3.59.32-7.41-.39-11.1-.63-1.34-.07-.76 1.38-2.46.75l.48-.5c-2.72.59-5.56 0-8.22.48.16-.11.17-.26.42-.26-.56-.36-2.07 0-2.08.28-.42 0-.1-.27-.35-.42-.57-.21-1.42.46-1.72.1-.05 0 .16-.11.26-.14-.37.17-1.71 0-1.36.37-1-.2-1.91.19-2.71-.06-.52.46-1.71-.22-1.87.43.07-.68-1.75-.54-2.38-.22.21-.21-.55-.22-.31-.5-.72 0-1.38.13-1.25.48-1.33-.81-2.67.66-3.42-.38-2.14.36-4.12.61-6 .77.07-.68 2.13-.07 2-.78-1.83.28-2.88.86-4.69.69-.47-.09.26-.29.42-.4-1.82.27-3.53-.07-5.15.3 0-.06.18-.13.34-.18-.32 0-.74-.1-.7.21l.31-.09c.51.45-1.27.94-1.33 1.17.54-.88-1.61-.22-.74-1.33-.21 0-.48.2-.43.41-.31-.06-.41-.18-.09-.42-1.15.17-.74.5-1.78.49 0-.15.21-.21.32-.38a2.76 2.76 0 0 1-1.93.45c.05-.09-.05-.2.21-.2-1.51 0-2.57.77-4.22.49.48-.65-.57-.21-.65-.77l-.89.17.35.27c-.78 0-1.46.4-2.13.21l.57-.23-1.46.11.83.21c-.79.29.09.71-.95.55.21-.06-.78 0-1.19-.33a1.89 1.89 0 0 1-1.36.23c-.15-.18.12-.62 0-.74-.38.47-1.82.13-2.31.63a.42.42 0 0 0 .12-.47l-.32.38c-.36-.12-.41-.18-.35-.41-1.09-.07.34.71-1 .4.1 0 .06-.09.27-.15-1.3-.16-2.5.25-3.69.06-.35-.56 1-.14.63-.61-1.71.1-3.55.67-5.2.54l.3.06c-.23.8-1.23-.39-2.07 0 .21-.06.27-.44.21-.35a17.36 17.36 0 0 0-4 .44l.21-.2a24.65 24.65 0 0 0-2.48-.2c-.22.21-.63.17-.38.47-2.23-1.16-4.25.62-6.23-.35.23 0 .56-.17.37-.18l-1.68.19c.13.35.22.21.57.48a1.76 1.76 0 0 1-1.11.37c.76-.23 0-.56-.33-.75.06.1-.06.22 0 .33-.88-.62-.15.7-1.35.28l.07-.18a4.45 4.45 0 0 1-1.35.28c-.21-.4.47-.19.51-.52-.69 0-1.35.76-2 .36.29-.11.71-.11 1-.22a1.87 1.87 0 0 0-1.25-.43h.05l-1.15-.21.29.13c-.85 1-1.74.19-2.88.87 1.11-.64.18-.37.27-.82-.3-.13-.74-.27-.62-.4-.54.37-.9-.29-1.67.25 0-.15-.58 0-.46-.38-.7.11.17.25.11.43-1.09.5-2.56-.6-4.12.08-1.35.29-1.6.78-2.85 1-.43-.23.34-.53.34-.53a3.12 3.12 0 0 0-1.84 0c.13-.12 0-.23-.2-.4-.51 0-.34.54-1 .32a2.41 2.41 0 0 1 .51-.59c-.6.14-1.2.41-1.83.54-.17-.25.38-.38.6-.55-.71.11-1.83.23-2.05.63l.45.15c-.26 0-.13-.35.06-.42a.58.58 0 0 1 .91.28l-.45.1c.46.86 1.8-.14 2.7-.09l-.37.62.92-.51c.2.16.33.51-.11.6.64.31.57-.22 1.12.12.07.06 0 .09 0 .11l.63-.19c-.12.14.11.45-.28.36 1.13.36 1.83-.47 2.26 0h-.1c1.57-.21.15-.46 1.33-1l.8 1.13.15-.46c.16 0 .48.06.43.24.6-.31-.11-.2.24-.5.78.42 2.16-.19 2.33.54.28-.35-.74-.27.09-.51.24.78 1-.14 1.68.22-.22.41-.9.19-.18.55.43-.68 1.39.15 2 0 0-.54 1.31-.22 2.32-.41-.07.19 1.9.3 2.84.5v.09c.18-.55 1.15-.44 1.86-.56 0 .33-.16.46-.54.61h.66a1.22 1.22 0 0 1 .8-.34l-.17.42c.88 0 1.78-.49 2.92-.21.06-.39-.91-1.07.29-1.33.05.21.09.56-.22.65a.89.89 0 0 1 .57-.09l-.48.35c.52.16.27-.29.69-.26 0 .3.3.22.24.45-.1 0-.36-.12-.52 0a2.22 2.22 0 0 1 1.22.46c0-.17 0-.4.34-.44.89 0 .3.36.82.51.21-.21.78 0 .79-.44.26 0 .31.21.41.33.45-.19 2.13 0 1.62-.52h-.12.08c1.49-.44 3.11.26 4.59.07v.1a13 13 0 0 0 2.61-.41c.26 0 .62.27.51.44a2.76 2.76 0 0 1 1.73 0c-.68.26.24.23-.7.19.88.13 1.08.36 2 0-.32.38.66.48 1.08.36l-.62-.27a7 7 0 0 1 1.3 0l-.22.5c1.8.61 3.25-1 4.62 0 .48-.34-1-.24-.55-.65.83.07 1.69.78 2 .79 1.14.27 1.06-.73 2.25-.54-.15-.18-.29-.66.6-.83.83.07 1 .75.49.89-.2 0-.29 0-.28-.1-.27.07-.62.14-.3.34l.11-.18c.41.18 1.56.16 1.29.45.63-.17.27-.29-.2-.38 1.07.26 1.67 0 2.76.18-.17-.1-.33-.31-.16-.31 1.61.22.71-.33 1.8-.41.62.27-.22.65.87.42.67.18.14.47-.12.62 1-.35 1.86.22 2.43.28l-.52.15a2.74 2.74 0 0 1 .83-.08l-.3-.36c.31.06.57.06.57.21.32-.23-.25-.59.39-.91.41.18 1.25-.19 1.39.28-1.29-.16.15.47-.95.55a1.72 1.72 0 0 1 .78 0s-.05.1-.13.12c1.24.43.57-.53 1.85-.52-.16.27.3.51.51.45-.52 0-.25-.45.23-.65.82.21.89-.15 1.33-.13l-.5-.1c.17-.26.58-.23 1.16-.31.05.2-.53.14-.32.23.64-.47 1.44.49 2.33.17.41.18 0 .5.4.62 1-.34 1.08.37 2.13.08-.3-.36-.36-.27.38-.62l-1.72.26 1.1-.53c-.52 0-1.09.23-1.4.17.52-.29.47-.2.22-.5.71.54 1.41-.31 2.23 0v.88c1.23.4 2.19-.45 3.79-.23l-.67-.21c.21-.35 1 0 1.51-.19 0 .29.28.4.5.59 0-.22 1.17 0 1.32-.58l.71.39c1.3.16 1.48-.84 2.73-.74-.38.32.19.53-.65.76.42 0 .79.06.8-.14.24.18 1.15-.4 1.54-.12.17-.13.23-.44.69-.42.06.06 0 .15 0 .15s.73-.2.33-.53c1.28.93 3.58-.07 4.69.73.91-.1 2-.2 2.83-.22-.06.09 0 .15-.16.12 1.13.27.7-.85 2-.54.66.47-.69.25-.28.44.18 1 1.56-.14 2.43.43l-.21.06c.67.33 1.63-.37 2.71-.3 0 0-.05.09 0 .15a8.6 8.6 0 0 1 3.19-.8c-.32.38-.47.2-.27.59.46-.06-.14-.63.79-.73.31.2 1 .39 1.07.8h-.88c.45.54 1.14 0 1.61.08l-.06.23c1.35-.07 1.37-.66 2.82-.62l-.15-.18c.8-.58.67.33 1.46-.1l.24.59a21 21 0 0 1 2.77-.69 9.31 9.31 0 0 1-2.31.93c.52 0 1.77-.05 2-.34-.21.06-.47.2-.68.11a4.12 4.12 0 0 1 2.51-.68c-.18 1.15 2.7.29 3.45 1.18 1.83-.42 3.63.18 5.76.11-.75-.89.63 0 .5-.94.49-.06.68 0 .73 0l1.5.54c.36.27-.47.21-.42.41 1.08.07.45.39 1.17.63-.15-.32.38-.47 1-.34l-.87-.42c1.52-.49 1.31.77 2.84.28l-.48.29c.79-.17 2.9 0 3.67-.73.14.11.32.36 0 .42 1.88.11 4.18-.78 5.64-.33l-.14.23c.35-.07.61-.42 1-.2 0 .1-.14.23 0 .24a2.63 2.63 0 0 1 1.4-.26L420 42c1.83.29 2.81-.62 4.35-.77 0 .66 1.44.88 2.16 1v.1c2.14.08 3.63-.55 5.61-.81 1.22.72 4.15.3 6.13.7-.31-.12.05-.51.4-.58.46.13 1.28-.46 1.2.15h-.16c.35.59 1.3.43 2 .45l.12-.79c1.94 1.15 5.09-.43 6.15.61.47-.2 1.05-.2 1.52-.4v.43a19.5 19.5 0 0 0 3.55.06l-.32.3c.9 0 1.14-1.22 2-1.25l.26.64c1.58 0 3.18.54 4.74 0a.37.37 0 0 1-.33.3c.74 0 2.87.43 2.6-.44 0 .56 1.63 0 2.49-.2l-.13.42a2.76 2.76 0 0 1 1.74-.83c.24.06.21.34-.1.23.79.22.62-.39 1.58-.17l-.36.26c.82 0 .75-.11 1.2-.42s1.55.11 1.67.49a1 1 0 0 1 1-.43c.07.14-.11.23-.2.27 1.37.29 2-.48 3-.07a.33.33 0 0 0 .16.25 17.47 17.47 0 0 1-1.88-.07c0 .39.88.45.18 1a5.65 5.65 0 0 1 2.77-.74.36.36 0 0 1 .11.13h-.09a.89.89 0 0 0 .54-.06 3.64 3.64 0 0 0 .71.12c.1.32 1 .17 1.44.18 0-.42.54-.35 0-.7.07 0-.08 0-.37.07a.78.78 0 0 0-.19 0h-1.09a1.14 1.14 0 0 1 1.19-.16c.23-.27.47-.55.61-.68.6.59 1.76.91 1.92 1.27 1.33-.23 3.14-.15 4-1 .38-.1.44.23.58.36-.22.08-.48.06-.6.18.76-.21 2.25-.08 2.43-.64 1 .25-.54.51.78.42l-.18.17c2.58.89 4.2-1.41 7.07-.27-.2-.07-.3-.11-.34-.2 3.27.5 6.73-.47 10 .33.91.16 1-.2 1.57-.47l.2.46 1-.53c1.35-.38 2.35 1.11 4.06.39l-.22-.3c.62 0 2-.18 1.85.17.07-.06.21-.32.45-.16v.24l1.51-.41c1.17.17-.18.94 1.53 1 .64-.09 1.81-.69 1.57-.85s-.65-.15-.67-.39l.58-.12c.11-.7.56-1.41-.88-1.9l-1 .43-.32-.34h.84c-.48-.32-.78 0-1.12.15a.68.68 0 0 0-.42-.37l-1 .67c-.11-.28.44-.55-.21-.7-.46.31.44.62-.32.82-.48-.32-.34-.58-.9-.31-.08-.18 0-.29.26-.37-.5.22-1.32.09-1.57.46-.5-.39-1.68.1-1.64-.56a2.9 2.9 0 0 1-1.33.55c.84-.79-1.71 0-1.49-.89-.62.71-2.24.31-3.33.71.06-.06.18-.17.28-.14a3.64 3.64 0 0 1-1.2-.41c-.08.59-1 .73-1.55 1.09-.76-.57.46-.69.22-1.24 0 .48-1.32.48-1.06.88-.58-.36-.5-.17-.79-.66-.11.73-.54.12-1 .57-.84-.36-.22-.68-1.14-.46-.53-.22.28-.44.28-.44zm-21.85 1.27h.45zm-1.84 0h.8a.2.2 0 0 1-.19.29c.1-.07-.34-.16-.58-.28zm3.88 2.95c-.29.06-.38 0-.42-.11a4.08 4.08 0 0 0 .51 0 .48.48 0 0 1-.09.11z"/><path class="cls-1" d="M477.38 41.43a.35.35 0 0 1 .12 0l-.18-.1-.1.14zm-166.51-.62a.1.1 0 0 1-.08-.06zm136.74-2.56v.11l.16-.09-.16-.02zm-146.86 1.11a.25.25 0 0 0-.13-.11s.06.07.13.11zm-4.37-.1l-.62-.15a3.33 3.33 0 0 0 .62.15zm-3.38-.21a.58.58 0 0 0-.06.19zm53.44-.49h.13c.31-.1.1-.07-.13 0zm-15.89.98a3.86 3.86 0 0 1 .51-.2c-.29-.03-.51-.04-.51.2zm33.65-1.49zm-32.4 1.3a1.43 1.43 0 0 0-.74 0 1.84 1.84 0 0 0 .74 0zm-53.34-.49h-.16a.11.11 0 0 1 0 .06zm-.18.05l-.18.05c.08.04.15.04.18-.05zm-.56.16l.38-.11c-.1.04-.3.04-.38.11zm5.19-.01v-.15a.21.21 0 0 0 0 .15zm1.35-.06c-.32 0-.81-.32-1.26-.23v.13c.17-.22 1 .37 1.26.1zm5.64 1.9l-1.13-.12c.19.16.46.38-.06.42 1.43.49-.29-.36 1.19-.3zm3.51.24c-.61.08 0 .24 0 .33.36-.15.46-.19 0-.33zm25.38 0l-.06.39c.47-.06 0-.15.06-.39zm4.85-1.98l-.45-.24-.22.35.67-.11zm2.87 2.73l-.2.06.78-.14-.58.08zm42.63-.13l-.15-.48c-.31.09-.38.62.15.48zm18.4-.49a.84.84 0 0 0 1 .16c-.38-.03-.79-.22-1-.16zm55.19.77l-.37.16.69-.13-.32-.03zm48.33 55.48c.24-.13.1-.42-.57-.36l-.47.5zm-4.5-.92c-.79.24-1.69.67-1.19 1.12.78-.47 1-.28 1.81-.84.67-.06 1.17.16 1.06.34.23-.13 1 .11 1.39-.2a4.7 4.7 0 0 0-3.12-.09c-.25-.11-.01-.24.05-.33zm-65.38-.77l.42.06a2.22 2.22 0 0 0-.42-.06zm-40.5-.27c.3 0 .43-.06.45-.11-.29.03-.52.06-.45.11zm-6.92-.56h.41a.75.75 0 0 0-.41 0zm47.42.83l-1.08-.16c-.1.16.55.12 1.08.16zm56.36 1.97a2.34 2.34 0 0 0 .59-.13h-.55a.3.3 0 0 1-.04.13zM439 95.43h.33a1.78 1.78 0 0 0 .27-.21zm13.74-.08c-.31 0-.42.4-.53.59a1 1 0 0 1 .67-.29.4.4 0 0 0-.14-.3zm21.73.74l.39-.06zm-45.24-.75a.33.33 0 0 0-.12-.16c0 .06.04.11.12.16zM45.94 98.5a.16.16 0 0 0 0-.07c-.08.04-.1.07 0 .07zm-15.88-2.08h.22a1.06 1.06 0 0 0 0-.23zm331.04-1.95h.06c.33-.04.14-.03-.06 0zm-116.19.31c1.32.38-2.14.48-.16.9-.18-.16 1.8-.68.16-.9zm232.28 2.97h-.56a5.12 5.12 0 0 0 .56 0zm-232.44-2.07h.21zm87.19-.96a.86.86 0 0 0 .3.19s-.08-.1-.3-.19zm21.73.6h-.54a4 4 0 0 0 .54 0zm-33.01 0a2.43 2.43 0 0 0-.79 0l.12.06a1.09 1.09 0 0 1 .67-.06zm-11.74 0l.22.09h.37zM81.62 98.3a1.88 1.88 0 0 1-.54-.38c.18.3-1.54.41.54.38z"/><path class="cls-1" d="M477.54 97.56a.45.45 0 0 1-.35.19h.39c.03-.09.04-.15-.04-.19zm-157.36 1.08l-1.86-.06c.52.04 1.2.06 1.86.06zm-154.33-.4l-.42.05a.92.92 0 0 0 .42-.05zm146.93.4a4.52 4.52 0 0 0-1-.29 1 1 0 0 0-.21.11z"/><path class="cls-1" d="M68.79 98.92c1.78 0 .84-.54 1.21-.86 2.12-.16 1 .41 1.71.69a33 33 0 0 1 3.29-.63c.07.09.26.12 0 .24 1.4-.45 4.15 0 5.78-.58a.48.48 0 0 1 .22.14.78.78 0 0 1-.25-.76c.79 0 1.48-.35 1.78 0a1 1 0 0 0-.76.25l.83-.16c.75.52-1.14.18-1.14.57a28.18 28.18 0 0 1 4.78-.46c.26.51-2.92.17-1.26.63l-1.93-.2c1.48.81-1.17 0 .19.81 2.54.14 2.84-.26 5.37-.11.57-.29-.19-.42.38-.71 3.6-.51 2.84 1.28 5.49.61a3 3 0 0 1 2.83-.65l-.64.58c2.46.06 1.4-.83 4-.44-.46.22-1.93.19-1.56.26 1.67.45 1.18-.33 2.46-.33l.27.51c2.62-.08 5.5-.45 8.4-.54-.16.15-.66.31 0 .47a76.2 76.2 0 0 1 11.34.36l1.35-.44c.31 0 .58.2.24.29 1.37.16.07-.28.73-.46s1 .26.54.39c2.42-.37 6.91-.81 9.47-.33l-.5.13c2 .18 2.24-.91 4.09-.5l-.35.08c4.32.19 9.09-.21 12.39.46.62-.64 4.27.28 4.55-.61a29.21 29.21 0 0 0 5.24.89c.92 0 1.38-.55 2.53-.64v.46l1.56-.48.83.55 1.08-.12c-.43 0-.91-.21-.85-.34 1.68-.21 4.1.32 4.14.56l4-.39c-.09.18-.76.25-1.28.37 2.12-.47.38.48 2.33.05-.27-.1.14-.27.18-.37a18.58 18.58 0 0 0 4.81.17l-.31.32c2.95.08 6.21-.16 9.53-.15-1.19-.15-.92-.7 0-.76l.39.49c.63-.3-1-.18.27-.55 1.24.06.83.55.12.71l1.51-.17c.09.15-.27.23-.36.41.62-.3 2.6.49 3.49 0l.08.14c3.31 0 4.81-.16 7.51-.19 0-.42 1.1-.32 1.91-.67 2 .14 4.18.47 6.56.43 1.68-.21.49-.35 1.25-.6.12.38 2.5.34 1.27.62 2.86-.06 3.66-.08 7.28-.39-.39-.16-.84-.22-.61-.35.66-.07 1.5.16 1.4.34h-.17c4.07-.58 9.39 1.12 12.62.32h-.18l3.36-.42c1.55.07-.93.29.22.53 3.62-.64 5.72.09 8.7-.34 2.31 1.14 8.2-.08 11.31.65l-.18-.27c.81-.26 1 .15 1.57.22-.08-.21-.87-.24-.37-.39 6.95-.26 14.17.45 21.17.74 2.56.07 1.45-1.38 4.68-.74l-.92.49c5.17-.59 10.56 0 15.62-.48-.31.11-.31.26-.81.26 1.07.36 3.95 0 4-.28.79 0 .18.27.67.42 1.07.21 2.68-.46 3.25-.1.1.06-.3.11-.49.14.69-.17 3.25 0 2.58-.37 1.9.2 3.63-.18 5.14.06 1-.46 3.25.23 3.56-.43-.13.68 3.33.55 4.53.23-.4.2 1 .21.57.49 1.37 0 2.63-.13 2.39-.48 2.52.81 5.07-.65 6.49.39 4.06-.37 7.83-.61 11.48-.77-.13.67-4 .06-3.88.77 3.47-.27 5.47-.86 8.91-.69.89.09-.51.29-.81.41 3.47-.28 6.71.06 9.79-.31 0 .06-.34.13-.65.18.6 0 1.41.1 1.34-.2l-.59.08c-1-.45 2.41-.93 2.52-1.17-1 .88 3.05.22 1.41 1.34.4-.06.9-.21.81-.41.59.06.78.18.18.41 2.18-.17 1.4-.49 3.38-.49 0 .15-.41.21-.61.38a9.1 9.1 0 0 1 3.67-.45c-.1.09.09.21-.41.2 2.87 0 4.89-.77 8-.49-.93.65 1.07.21 1.23.77l1.69-.16-.68-.27c1.48 0 2.79-.4 4.06-.22l-1.1.23 2.78-.1-1.57-.22c1.49-.29-.16-.71 1.81-.55a15.84 15.84 0 0 1 2.25.34 6.39 6.39 0 0 1 2.58-.23c.29.18-.23.62 0 .74.72-.47 3.46-.13 4.38-.63-.31.12-.32.41-.22.47l.6-.38c.69.12.79.18.68.42 2.06.07-.66-.71 1.79-.41-.19 0-.1.09-.5.15 2.46.16 4.75-.24 7-.06.66.57-2 .14-1.21.62 3.25-.1 6.74-.68 9.89-.55l-.59-.06c.44-.79 2.35.4 3.94 0-.39.06-.51.44-.4.35a61.75 61.75 0 0 0 7.68-.44l-.41.2c1.28.18 3.35.11 4.73.2.4-.2 1.19-.17.71-.47 4.24 1.17 8.08-.62 11.84.35-.45 0-1.07.18-.71.18l3.2-.19c-.26-.35-.42-.21-1.09-.48a5.45 5.45 0 0 1 2.1-.37c-1.44.23 0 .56.63.75-.1-.1.11-.22.06-.33 1.67.62.28-.69 2.56-.28l-.12.18a15.2 15.2 0 0 1 2.56-.28c.39.4-.91.19-1 .52 1.29 0 2.55-.76 3.72-.36-.55.11-1.34.11-1.89.22a5.93 5.93 0 0 0 2.37.43h-.09l2.19.21-.56-.13c1.62-1 3.3-.19 5.48-.87-2.12.65-.35.37-.51.83.56.12 1.4.27 1.16.39 1-.36 1.72.29 3.18-.24.06.14 1.1 0 .87.38 1.34-.12-.32-.26-.21-.44 2.07-.5 4.86.61 7.83-.08 2.57-.28 3-.78 5.42-1 .8.23-.66.53-.66.53a10.49 10.49 0 0 0 3.49 0c-.24.13 0 .24.38.4 1 0 .66-.53 1.95-.32a3.14 3.14 0 0 1-1 .59c1.16-.13 2.29-.41 3.49-.54.32.26-.72.39-1.14.55 1.34-.11 3.48-.23 3.89-.63l-.86-.14c.49 0 .25.34-.11.42-1.15.31-1.66-.14-1.72-.29l.85-.1c-.88-.85-3.42.14-5.13.09l.71-.62-1.76.52c-.37-.17-.63-.51.22-.61-1.23-.31-1.09.22-2.14-.12-.12 0-.07-.08 0-.11l-1.2.19c.24-.13-.2-.44.54-.35-2.15-.36-3.47.47-4.28 0h.18c-3 .22-.29.46-2.53 1l-1.51-1.13-.3.46c-.3 0-.91 0-.8-.24-1.15.32.19.2-.47.5-1.49-.42-4.09.19-4.43-.54-.53.35 1.42.27-.16.52-.45-.79-1.83.13-3.19-.23.42-.41 1.7-.19.34-.55-.81.68-2.63-.15-3.78 0-.05.54-2.48.23-4.4.41.12-.19-3.61-.3-5.4-.5l.06-.09c-.35.55-2.19.45-3.53.56.05-.33.29-.46 1-.61h-1.26a3.49 3.49 0 0 1-1.51.33l.32-.41c-1.68 0-3.38.48-5.54.21-.12.38 1.72 1.07-.56 1.32-.09-.2-.17-.56.42-.65a2.89 2.89 0 0 1-1.09.09l.91-.35c-1-.15-.51.29-1.3.26 0-.3-.58-.21-.46-.45.2 0 .68.12 1 0a6.77 6.77 0 0 1-2.31-.45c.08.16 0 .39-.65.43-1.68 0-.57-.35-1.55-.51-.41.21-1.48 0-1.51.44a1 1 0 0 1-.77-.33c-.86.2-4.05.06-3.07.53h.22-.14c-2.85.44-5.91-.25-8.74-.06v-.15a42.91 42.91 0 0 0-4.95.42c-.5 0-1.18-.27-1-.45a9.79 9.79 0 0 1-3.29 0c1.29-.25-.45-.23 1.33-.19a9.62 9.62 0 0 0-3.85 0c.61-.38-1.26-.47-2.06-.36l1.17.27a22.51 22.51 0 0 1-2.47 0l.43-.5c-3.42-.61-6.18 1-8.78 0-.91.35 1.86.24 1.05.65a29.38 29.38 0 0 1-3.71-.78c-2.16-.28-2 .73-4.28.54.29.17.57.65-1.12.82-1.58-.07-1.94-.75-.95-.89.38 0 .57 0 .55.1.51-.06 1.18-.14.55-.33l-.2.17c-.78-.18-3-.16-2.44-.45-1.2.17-.51.29.37.38-2-.25-3.16 0-5.24-.18.33.1.63.31.3.31-3.05-.22-1.34.34-3.41.41-1.17-.27.42-.64-1.66-.42-1.27-.18-.27-.47.24-.61-1.9.34-3.55-.23-4.63-.29l1-.15a10 10 0 0 1-1.59.09l.57.35c-.58-.06-1.08-.06-1.07-.21-.61.23.46.59-.74.91-.78-.18-2.38.2-2.65-.28 2.46.16-.27-.47 1.81-.55a5.64 5.64 0 0 1-1.48 0c-.09 0 .08-.09.24-.12-2.35-.42-1.08.53-3.52.52.31-.26-.56-.5-1-.45 1 0 .47.45-.43.65a9.73 9.73 0 0 0-2.52.13l.93.1c-.31.27-1.1.23-2.19.32-.09-.21 1-.15.6-.24-1.21.47-2.73-.48-4.42-.17-.78-.18-.08-.5-.76-.62-1.9.34-2.05-.37-4-.08.57.36.67.27-.73.62l3.27-.25-2.1.52c1 0 2.08-.23 2.68-.17-1 .3-.9.21-.43.5-1.35-.53-2.68.32-4.24 0l.05-.88c-2.35-.4-4.17.45-7.22.23l1 .15c-.41.36-1.88 0-2.87.2.1-.3-.52-.41-.94-.59.05.22-2.23 0-2.51.57l-1.36-.39c-2.46-.16-2.81.84-5.17.74.71-.32-.36-.53 1.22-.76-.79 0-1.5-.06-1.51.15-.46-.19-2.19.4-2.92.12a2 2 0 0 1-1.33.41c-.09-.06 0-.15 0-.15 0 .15-1.39.2-.62.53-2.43-.92-6.8.07-8.91-.72-1.73.09-3.8.19-5.37.21.1-.09 0-.15.3-.12-2.15-.27-1.32.85-3.78.55-1.25-.48 1.3-.26.52-.44-.34-1-3 .13-4.61-.44l.4-.06c-1.27-.33-3.09.37-5.15.3 0 0 .1-.08 0-.14a29.51 29.51 0 0 1-6.07.8c.62-.39.9-.21.53-.59-.89 0 .26.62-1.52.73-.58-.21-1.86-.39-2-.81h1.68c-.86-.54-2.17 0-3.05-.07l.11-.24c-2.57.08-2.61.67-5.37.62l.29.18c-1.51.59-1.26-.33-2.77.11l-.45-.59c-1 .14-3.49.57-5.28.68a30.06 30.06 0 0 1 4.4-.93 15.15 15.15 0 0 0-3.87.34 3.79 3.79 0 0 1 1.29-.11 13.47 13.47 0 0 1-4.77.68c.35-1.14-5.12-.29-6.55-1.18-3.48.43-6.9-.18-10.95-.11 1.44.89-1.18 0-.94.94a4 4 0 0 1-1.38 0l-2.86-.55c-.68-.27.89-.2.81-.41-2.07-.07-.87-.39-2.24-.63.28.33-.72.47-1.89.34l1.66.43c-2.89.48-2.5-.77-5.41-.29l.92-.29c-1.49.17-5.51 0-7 .73-.26-.1-.61-.36 0-.42-3.57-.11-7.95.78-10.72.33l.27-.23c-.67.07-1.16.43-2 .2 0-.09.26-.22 0-.24a9 9 0 0 1-2.66.27l.76-.26c-3.48-.29-5.35.62-8.27.77 0-.66-2.73-.87-4.1-1l.05-.09c-4.05-.09-6.88.54-10.64.8-2.33-.71-7.89-.3-11.64-.7.57.12-.09.52-.76.58-.88-.13-2.43.46-2.29-.15h.31c-.66-.6-2.47-.44-3.88-.46l-.23.8c-3.69-1.16-9.67.42-11.68-.61-.89.19-2 .19-2.88.39v-.42a67.19 67.19 0 0 0-6.75-.06l.63-.31c-1.72 0-2.18 1.23-3.76 1.25l-.48-.63c-3 0-6-.55-9 0 0-.1.14-.28.62-.31-1.41 0-5.46-.43-5 .44 0-.56-3.1 0-4.72.2l.26-.42a7.74 7.74 0 0 1-3.33.83c-.45-.06-.39-.34.21-.23-1.51-.22-1.18.4-3 .17l.68-.26a3.86 3.86 0 0 0-2.29.42c-1 .17-2.94-.11-3.17-.48a2.77 2.77 0 0 1-2 .43c-.13-.15.21-.24.37-.28-2.59-.28-3.85.49-5.64.08a.37.37 0 0 0-.3-.25c2.06 0 3.72 0 3.57.06 0-.38-1.67-.45-.34-1a18.65 18.65 0 0 1-5.25.74.64.64 0 0 1-.21-.14h.16a3.38 3.38 0 0 0-1 .06 10.52 10.52 0 0 0-1.35-.11c-.19-.32-1.91-.18-2.74-.19.07.42-1 .35 0 .7-.13 0 .16 0 .71-.07h.36-.06 2.06a3.8 3.8 0 0 1-2.26.16 13.26 13.26 0 0 1-1.16.68c-1.13-.59-3.32-.91-3.63-1.27-2.53.24-6 .16-7.56 1-.72.1-.83-.23-1.1-.35a7.24 7.24 0 0 0 1.13-.18c-1.44.2-4.27.07-4.61.63-1.82-.25 1-.51-1.47-.42l.33-.17c-4.91-.88-8 1.41-13.42.28.37.07.56.1.64.19-6.21-.5-12.79.47-18.92-.32a5.75 5.75 0 0 0-3 .46l-.38-.45-1.54.48c-2.58.38-4.46-1.11-7.72-.39l.42.31c-1.18-.06-3.71.18-3.52-.17a.91.91 0 0 1-.84.15v-.23L36 96c-2.23-.17.35-.94-2.91-1-1.21.09-3.44.69-3 .84s1.25.15 1.28.39l-1.1.12c-.2.7-1.05 1.42 1.66 1.9l1.9-.42.6.34h-1.59a2.93 2.93 0 0 0 2.16-.1 1.27 1.27 0 0 0 .79.37l1.86-.66c.23.27-.83.54.42.69.87-.31-.84-.61.6-.82.91.32.64.58 1.71.31.14.18-.08.29-.5.37.94-.21 2.5-.09 3-.46.94.39 3.19-.1 3.1.56a8.93 8.93 0 0 1 2.54-.55c-1.59.79 3.25.05 2.83.9 1.17-.71 4.24-.32 6.32-.71a.93.93 0 0 1-.52.13 11.28 11.28 0 0 1 2.26.41c.15-.59 2-.72 3-1.09 1.43.57-.87.69-.42 1.24-.08-.48 2.49-.48 2-.87 1.1.35 1 .17 1.52.65.19-.73 1-.12 1.93-.57 1.59.36.41.69 2.15.46.75.23-.8.49-.8.49zm41.52-1.27h-.86zm3.48 0h-1.51c-.12-.15 0-.3.36-.29-.19.07.63.16 1.15.28zm-7.37-2.92c.55-.06.73 0 .81.11h-1s-.05 0-.06.05a.56.56 0 0 1 .25-.17z"/><path class="cls-1" d="M105.42 95.27a1.29 1.29 0 0 1-.23 0l.33.1.2-.13zm316.26.63h-.08a.38.38 0 0 1 .16.06c-.05-.03-.05-.05-.08-.06zm-259.71 2.55l-.01-.11-.3.1.31.01zm278.92-1.11a.48.48 0 0 0 .25.11 1.06 1.06 0 0 0-.25-.11zm8.3.1l1.18.15a10.78 10.78 0 0 0-1.18-.15zm6.38.21a.51.51 0 0 0 .13-.18zm-101.46.49h-.25c-.58.1-.18.07.25 0zm30.19-.98a9.79 9.79 0 0 1-1 .2c.57.03.99.04 1-.2zm-63.91 1.49a1.47 1.47 0 0 1-.21 0zm61.54-1.3a4.7 4.7 0 0 0 1.4 0 7.28 7.28 0 0 0-1.4 0zm101.3.49h.31a.08.08 0 0 1 0-.07zm.35-.05l.34-.05c-.16 0-.29 0-.34.05zm1.06-.16l-.72.11a1.37 1.37 0 0 0 .72-.11zm-9.85.01l-.1.16a.21.21 0 0 0 .1-.16zm-2.57.05a12.49 12.49 0 0 0 2.39.23l.08-.12c-.4.2-1.89-.37-2.47-.11zM461.5 95.8l2.15.12c-.37-.16-.87-.38.11-.42-2.71-.5.56.36-2.26.3zm-6.67-.24c1.16-.07 0-.23.05-.33-.73.15-.88.19-.05.33zm-48.2 0l.11-.38c-.89.05-.01.15-.11.38zm-9.22 1.98l.87.24.41-.35-1.28.11zm-5.44-2.73l.39-.05-1.49.14 1.1-.09zM311 95l.27.47c.61-.13.73-.67-.27-.47zm-34.94.43a2.76 2.76 0 0 0-2-.16 18.5 18.5 0 0 0 2 .16zm-104.82-.77l.7-.16-1.32.13.62.03zm195.76.87c-.08.13 0 .42.17.36l.14-.5zm1.41.92a1.12 1.12 0 0 0 .36-1.12c-.23.47-.29.27-.55.84-.2.06-.35-.16-.32-.34-.07.13-.32-.11-.43.2a.57.57 0 0 0 1 .09c.03.1-.04.23-.06.33zm19.99.77l-.13-.06a.31.31 0 0 0 .13.06zm12.38.27a.14.14 0 0 0-.14.11c.09-.03.16-.06.14-.11zm2.12.51h-.13c.05.05.1.08.13 0zm-14.5-.78l.33.16c.02-.17-.17-.12-.33-.16zm-17.23-1.97a.38.38 0 0 0-.18.13h.17a.22.22 0 0 1 .01-.13zm11.77 2.37h-.1a1 1 0 0 0-.08.21zm-4.19.08c.1 0 .13-.4.16-.59-.05.18-.12.26-.2.29a1.24 1.24 0 0 0 .04.3zm-6.64-.7H372zm13.83.71a.39.39 0 0 0 0 .15.42.42 0 0 0 0-.15zm117.18-3.16v.07c0 .07.03-.07 0-.07zm4.88 2.08h-.06a1.79 1.79 0 0 0 0 .23zm-101.23 1.95c-.12.04-.07.03 0 0zm35.52-.31c-.4-.38.65-.48 0-.9.1.16-.5.63 0 .9zm-71.01-2.97zm71.06 2.07h-.07zm-26.66.96a.56.56 0 0 0-.09-.19.31.31 0 0 0 .09.19zm-6.68-.6h.16a.27.27 0 0 0-.16 0zm10.13 0c.09 0 .12.09.24 0a.13.13 0 0 0 0-.06c-.08.1-.14.13-.24.06zm3.59 0l-.07-.09h-.11zm69.49-2.98a1.14 1.14 0 0 1 .16.38c-.05-.3.48-.41-.16-.38z"/><path class="cls-1" d="M371.17 95.49c0-.11.05-.16.11-.19h-.12a.21.21 0 0 0 .01.19zm48.11-1.08l.57.06a2.49 2.49 0 0 0-.57-.06zm47.18.4h.13a.11.11 0 0 0-.13 0zm-44.92-.4a1 1 0 0 0 .32.29 1.05 1.05 0 0 0 .07-.11z"/><path class="cls-1" d="M496.13 94.13c-.54 0-.25.54-.37.86-.65.16-.3-.41-.52-.69-.41.15-.72.65-1 .63 0-.09-.08-.12 0-.24-.43.44-1.27 0-1.77.58a.37.37 0 0 1-.07-.14 1.93 1.93 0 0 1 .08.76c-.24 0-.45.35-.54 0 .15 0 .16-.14.23-.25l-.26.16c-.23-.52.35-.18.35-.57-.5.17-1.08.6-1.46.46-.08-.51.9-.18.39-.63l.59.2c-.45-.81.36 0-.06-.81-.78-.14-.87.26-1.64.11-.18.29.06.42-.12.71-1.1.5-.87-1.29-1.68-.61-.21.34-.29 1-.86.65l.19-.58c-.75-.06-.43.83-1.21.44.14-.23.59-.19.47-.26-.51-.45-.36.33-.75.33l-.08-.51c-.8.08-1.68.45-2.57.54.05-.15.2-.31 0-.47a7.31 7.31 0 0 1-3.46-.36l-.41.44a.18.18 0 0 1-.08-.29c-.42-.16 0 .28-.22.46a.22.22 0 0 1-.17-.39c-.74.37-2.11.81-2.89.33l.15-.13c-.61-.18-.68.91-1.25.49l.11-.07c-1.32-.19-2.78.21-3.79-.46-.19.64-1.31-.28-1.39.61-.76-.44-.54-.6-1.6-.9-.28 0-.42.56-.77.65v-.46l-.48.48-.25-.55-.33.12a.37.37 0 0 1 .26.34 1.14 1.14 0 0 1-1.27-.56l-1.21.39c0-.19.23-.25.39-.37-.65.47-.12-.48-.72 0 .08.1 0 .27-.05.37a1.81 1.81 0 0 0-1.47-.17l.09-.32c-.9-.08-1.9.16-2.91.15a.41.41 0 0 1 0 .75l-.12-.48c-.19.3.31.18-.08.55-.38-.06-.25-.56 0-.71l-.46.16c0-.14.09-.22.11-.4-.18.3-.79-.49-1.06 0v-.14c-1 0-1.47.16-2.29.19 0 .42-.34.32-.59.67a7.24 7.24 0 0 0-2-.44c-.52.21-.15.36-.38.61 0-.38-.77-.35-.39-.62a8.24 8.24 0 0 0-2.23.39c.12.15.26.22.19.35a.36.36 0 0 1-.43-.34h.05c-1.24.57-2.87-1.12-3.86-.32h.06l-1 .42c-.47-.07.28-.29-.07-.53-1.1.64-1.75-.09-2.66.33-.7-1.13-2.5.08-3.45-.64l.05.27c-.25.26-.3-.15-.48-.22 0 .21.27.24.11.39-2.08.32-4.3-.39-6.44-.63-.78-.07-.44 1.38-1.43.74l.28-.49c-1.58.59-3.23 0-4.77.48.09-.11.09-.26.24-.26-.32-.36-1.2 0-1.21.27-.24 0-.06-.26-.2-.41-.33-.21-.83.46-1 .1 0-.06.09-.12.15-.14-.21.17-1 0-.79.37-.58-.2-1.11.18-1.57-.06-.3.46-1-.23-1.09.43 0-.68-1-.55-1.38-.23.12-.2-.32-.21-.18-.49-.42 0-.8.13-.73.48-.77-.81-1.55.65-2-.39a24 24 0 0 1-3.51.77c0-.67 1.23-.06 1.19-.78-1.07.28-1.68.86-2.73.7-.27-.09.16-.29.25-.41-1.06.28-2.05-.06-3 .31 0-.06.11-.13.21-.18-.19 0-.44-.1-.42.2l.19-.08c.29.45-.74.93-.78 1.17.32-.88-.93-.22-.43-1.34a.41.41 0 0 0-.24.41c-.19-.06-.24-.18-.06-.41-.67.17-.43.49-1 .49 0-.15.12-.21.18-.39a1.13 1.13 0 0 1-1.12.46c0-.09 0-.21.13-.21-.88.05-1.5.78-2.46.5.29-.65-.32-.22-.37-.78l-.52.17.21.27c-.46 0-.86.4-1.24.22l.33-.23-.85.1.48.22c-.45.28 0 .71-.55.55.12-.06-.45 0-.69-.34-.22.18-.45.37-.78.23-.09-.18.07-.62 0-.74-.22.47-1.06.13-1.34.63a.7.7 0 0 0 .07-.47l-.19.38c-.21-.12-.24-.18-.2-.42-.63-.07.2.71-.55.41.06 0 0-.09.15-.15-.75-.16-1.45.24-2.14 0-.21-.56.6-.13.37-.61-1 .1-2.06.68-3 .54l.18.07c-.13.79-.71-.4-1.2 0 .12-.06.16-.44.12-.35a6.09 6.09 0 0 0-2.35.44l.13-.2a6.94 6.94 0 0 0-1.45-.2c-.12.2-.36.17-.21.47-1.3-1.17-2.47.62-3.62-.35.13 0 .32-.18.21-.18l-1 .19c.07.35.12.21.33.48a.79.79 0 0 1-.64.36c.44-.23 0-.55-.2-.75v.34c-.52-.62-.09.69-.79.28v-.18c-.26.09-.5.33-.78.28-.12-.4.27-.19.29-.52-.39 0-.78.76-1.14.36.17-.11.41-.11.58-.22-.39-.48-.43-.36-.72-.43l-.67-.21.18.13c-.5 1-1 .19-1.68.87.65-.65.11-.37.16-.83-.17-.12-.43-.27-.36-.39-.31.36-.53-.29-1 .24 0-.14-.34 0-.27-.38-.41.12.1.26.07.44-.64.5-1.49-.61-2.4.08-.78.28-.93.77-1.65 1-.25-.23.2-.53.2-.53a1.05 1.05 0 0 0-1.07 0c.08-.13 0-.24-.12-.4-.29 0-.2.53-.59.32a1.94 1.94 0 0 1 .3-.59c-.35.13-.7.41-1.07.54-.09-.26.22-.39.35-.55-.41.11-1.06.23-1.19.63l.26.14c-.15 0-.07-.34 0-.42.35-.31.51.14.53.29l-.27.09c.27.86 1.05-.13 1.57-.08l-.21.62.53-.52c.12.17.19.51-.06.61.37.31.33-.22.65.12a.07.07 0 0 1 0 .11l.36-.19c-.07.13.07.44-.16.35.66.36 1.06-.47 1.31 0h-.06c.92-.21.09-.45.78-1l.46 1.13.09-.46c.09 0 .28 0 .25.24.35-.32-.06-.2.14-.5.45.42 1.25-.19 1.35.53.16-.34-.43-.26.05-.51.14.79.56-.13 1 .23-.13.4-.52.19-.11.55.25-.68.81.15 1.16 0 0-.54.76-.23 1.34-.41 0 .18 1.11.3 1.65.5v.09c.1-.55.67-.45 1.08-.56a.64.64 0 0 1-.32.61h.39a.62.62 0 0 1 .46-.33l-.1.41c.52 0 1-.48 1.7-.21 0-.38-.53-1.07.17-1.32 0 .2.05.56-.13.64.06 0 .21-.17.33-.08l-.28.35c.3.15.16-.29.4-.26 0 .3.18.21.14.45-.06 0-.21-.13-.3 0a1.07 1.07 0 0 1 .71.45c0-.16 0-.4.2-.43.51 0 .17.35.47.51.13-.21.45 0 .46-.44.15 0 .18.21.24.33.26-.2 1.24-.06.94-.53h-.07c.87-.44 1.81.25 2.67.06v.15c.52-.17 1.15-.1 1.52-.42a.39.39 0 0 1 .29.45c.39-.11.44-.28 1 0-.4.25.13.22-.41.18.51.13.63.37 1.18 0-.19.37.38.47.63.36l-.36-.27a2.09 2.09 0 0 1 .75 0l-.13.5c1.05.6 1.89-1 2.69 0 .28-.35-.57-.24-.32-.65.48.06 1 .78 1.13.78.66.28.62-.73 1.31-.54a.57.57 0 0 1 .34-.82c.48.07.59.75.29.89-.12 0-.17 0-.17-.1s-.36.14-.17.33l.07-.18c.24.19.9.17.74.46.37-.17.16-.29-.11-.38.62.25 1 0 1.6.18-.1-.1-.19-.31-.09-.31.93.22.41-.34 1-.41.36.27-.13.64.51.42.39.18.08.47-.07.61.58-.34 1.08.23 1.41.29l-.3.15a1 1 0 0 1 .48-.09l-.17-.35c.18.06.33.06.33.21.18-.23-.15-.59.22-.91.24.18.73-.2.81.28-.75-.16.08.47-.55.55a.54.54 0 0 1 .45 0c0 .05 0 .09-.07.12.72.42.33-.53 1.07-.52-.09.26.18.5.3.44-.3 0-.15-.44.13-.64.48.2.52-.16.77-.13l-.29-.1c.1-.27.34-.23.67-.32 0 .21-.3.15-.18.24.37-.47.84.48 1.35.17.24.18 0 .5.24.62.57-.35.62.36 1.23.08-.18-.36-.21-.27.22-.62l-1 .25.64-.52c-.3 0-.63.23-.81.17.3-.3.27-.21.13-.5.41.53.82-.32 1.29 0v.88c.72.4 1.27-.45 2.2-.23l-.3-.15c.13-.36.58 0 .88-.2 0 .3.16.41.29.59 0-.22.68 0 .77-.57l.41.39c.76.16.86-.84 1.58-.74-.21.32.12.53-.37.76.24 0 .46.06.46-.15.14.19.67-.4.89-.12.11-.13.14-.44.41-.41a.2.2 0 0 1 0 .14c0-.14.42-.19.19-.52.74.92 2.08-.07 2.72.72a12.49 12.49 0 0 1 1.64-.21c0 .09 0 .15-.09.11.66.28.41-.85 1.16-.54.38.48-.4.26-.16.44.1 1 .9-.13 1.41.44l-.12.06c.38.33.94-.37 1.57-.3a.2.2 0 0 0 0 .14 3.56 3.56 0 0 1 1.85-.8c-.19.38-.27.21-.16.59.27 0-.08-.62.47-.73.17.21.56.39.62.81h-.52c.27.53.67 0 .94.07v.24c.79-.08.8-.67 1.64-.63l-.09-.17c.47-.59.39.33.85-.11l.14.59a8.37 8.37 0 0 1 1.61-.68 4.58 4.58 0 0 1-1.34.92c.3 0 1 0 1.18-.33-.12.06-.27.2-.39.11a1.71 1.71 0 0 1 1.45-.68c-.1 1.14 1.57.29 2 1.18 1.06-.43 2.11.18 3.35.11-.44-.89.36 0 .28-.94.29-.06.4 0 .43 0l.87.55c.21.27-.27.2-.25.41.63.07.27.39.69.63-.09-.33.21-.47.57-.34l-.5-.43c.88-.48.76.77 1.65.29l-.28.29c.46-.17 1.68 0 2.13-.73.08.1.19.35 0 .42 1.09.11 2.43-.78 3.28-.33l-.09.22c.21-.06.36-.42.61-.19 0 .09-.08.22 0 .24s.55-.4.81-.27l-.23.26c1.07.29 1.64-.62 2.53-.77 0 .66.84.87 1.25 1v.09c1.24.08 2.1-.54 3.25-.8.72.71 2.42.3 3.56.7-.17-.12 0-.52.23-.58.27.13.75-.46.7.15h-.09c.2.6.75.44 1.18.46l.08-.8c1.12 1.16 3-.42 3.57.61.27-.2.61-.19.88-.39v.42a6.61 6.61 0 0 0 2.06.06l-.19.31c.53 0 .67-1.23 1.15-1.25l.15.63c.92 0 1.84.55 2.75 0 0 .1 0 .28-.19.31.43 0 1.67.42 1.51-.45 0 .57.95.06 1.45-.19l-.08.42c.42-.54.43-.68 1-.83.14 0 .13.33-.06.23.46.22.36-.4.92-.18l-.21.27c.48 0 .44-.11.7-.42a.77.77 0 0 1 1 .48c.06-.23.32-.54.6-.43a.27.27 0 0 1-.11.28c.79.28 1.18-.49 1.72-.08a.33.33 0 0 0 .1.25 5.6 5.6 0 0 1-1.1-.06c0 .38.51.45.11 1 .41-.29 1.11-.92 1.6-.74a.46.46 0 0 1 .07.14h-.05a.35.35 0 0 0 .31-.06 1.09 1.09 0 0 0 .41.11c.06.32.59.18.84.19 0-.42.31-.35 0-.7 0 0 0 .05-.22.07h-.74c.2-.21.41-.39.69-.16a6.42 6.42 0 0 1 .36-.68c.34.59 1 .91 1.11 1.27.77-.24 1.82-.16 2.31-.95.22-.1.25.23.33.35-.12.08-.27.07-.34.18.44-.2 1.3-.08 1.41-.63.55.25-.31.51.45.42l-.1.17c1.5.88 2.44-1.41 4.1-.28-.11-.07-.17-.1-.2-.19 1.9.5 3.91-.47 5.79.32.53.16.59-.19.91-.46l.12.45.55-.52c.79-.38 1.37 1.11 2.36.39l-.13-.31c.36.06 1.14-.18 1.08.17 0 0 .12-.31.26-.15v.23l.88-.4c.68.17-.11.94.89 1 .37-.09 1.05-.69.91-.85a.42.42 0 0 1-.39-.38l.34-.12c.06-.7.32-1.42-.51-1.91l-.58.43-.19-.34h.49c-.28-.32-.45 0-.65.16a.58.58 0 0 0-.24-.37l-.57.66c-.07-.27.26-.54-.13-.69-.26.31.26.61-.18.82-.28-.32-.2-.58-.52-.31a.3.3 0 0 1 .15-.37c-.29.21-.77.09-.92.46-.28-.39-1 .1-.94-.56a1.48 1.48 0 0 1-.78.55c.49-.79-1 0-.86-.9-.36.71-1.3.32-1.94.71 0 0 .11-.17.16-.13-.35-.06-.46-.28-.69-.41 0 .59-.6.72-.9 1.08-.44-.56.26-.69.13-1.23 0 .48-.77.48-.62.87-.33-.35-.29-.17-.46-.66-.06.74-.31.13-.59.58-.49-.36-.13-.69-.66-.46-.31-.33.16-.59.16-.59zm-12.69 1.27h.26zm-1.07 0a3.48 3.48 0 0 0 .47 0c0 .15 0 .3-.11.29s-.2-.16-.36-.28zm2.26 2.92c-.17.06-.23 0-.25-.11h.3a1 1 0 0 1-.05.12z"/><path class="cls-1" d="M484.93 97.78h.07a.94.94 0 0 0-.1-.1l-.06.13zm-96.68-.63v-.06c0-.06-.01.05 0 .06zm79.39-2.55l.01.11.09-.1-.1-.01zm-85.27 1.1a.2.2 0 0 0-.07-.1.22.22 0 0 0 .07.1zm-2.53-.09l-.36-.15a1.2 1.2 0 0 0 .36.15zm-1.96-.21a.67.67 0 0 0 0 .18zm31.03-.49h.07c.18-.11.02-.07-.07 0zm-9.24.98a1.74 1.74 0 0 1 .3-.2c-.16-.03-.29-.04-.3.2zm19.54-1.49zm-18.81 1.3a.44.44 0 0 0-.43 0 .7.7 0 0 0 .43 0zm-30.97-.49h-.1a.08.08 0 0 1 0 .07zm-.11.05h-.1s.09.05.1 0zm-.32.16l.22-.11c-.08 0-.17-.01-.22.11zm3-.02v-.15a.43.43 0 0 0 0 .15zm.8-.04c-.19 0-.47-.33-.73-.23v.12c.09-.25.55.37.73.11zm3.27 1.89l-.66-.12c.12.16.27.38 0 .42.8.45-.2-.37.66-.3zm2.04.24c-.35.07 0 .23 0 .32.21-.14.27-.18 0-.32zm14.74 0v.38c.24-.05-.03-.15 0-.38zm2.82-1.99l-.27-.23-.13.35.4-.12zm1.66 2.74l-.12.05.46-.14-.34.09zm24.75-.14l-.08-.47c-.19.08-.22.61.08.47zm10.69-.48c.11.24.41.39.6.16-.24-.04-.48-.22-.6-.16zm32.04.77l-.21.16.4-.13-.19-.03zm-147.75 55.74c.11-.13.05-.42-.26-.37l-.22.5zm-2.06-.92c-.37.24-.79.66-.55 1.12.36-.48.45-.28.84-.85.31-.06.54.16.49.34.11-.12.48.11.65-.2a1.13 1.13 0 0 0-1.45-.08c-.15-.11-.04-.24.02-.33zm-30.38-.78l.2.06a.59.59 0 0 0-.2-.06zm-18.8-.27c.14 0 .2-.06.21-.1s-.24.06-.21.1zm-3.21-.55h.19c-.08-.01-.15-.03-.19 0zm22.01.82l-.5-.15c-.04.16.26.12.5.15zm26.16 1.98a.8.8 0 0 0 .28-.13l-.26.05a.31.31 0 0 1-.02.08zM292.91 152h.15a1 1 0 0 0 .13-.2zm6.36 0c-.14 0-.19.4-.25.58a.5.5 0 0 1 .32-.29.75.75 0 0 0-.07-.29zm10.09.7l.18-.06a1.27 1.27 0 0 0-.18.06zm-21-.76a.42.42 0 0 0-.06-.15.24.24 0 0 0 .06.15zm-177.93 3.17a.22.22 0 0 0 0-.08c-.04.05-.05.08 0 .08zm-7.37-2.11h.1a1.94 1.94 0 0 0 0-.24zm153.67-1.93c.18-.07.1-.07 0 0zm-53.93.32c.61.37-1 .48-.08.9-.08-.17.84-.66.08-.9zm107.82 2.96a1.13 1.13 0 0 1-.26 0 .55.55 0 0 0 .26 0zm-107.9-2.06h.1zm40.47-.96a.62.62 0 0 0 .14.18s-.03-.09-.14-.18zm10.09.6l-.25-.06a1 1 0 0 0 .25.06zm-15.28-.01c-.14 0-.18-.09-.37 0l.06.05c.02-.09.11-.11.31-.05zm-5.49.01l.1.08h.17zM127 154.91a1.47 1.47 0 0 1-.25-.38c.08.3-.75.4.25.38z"/><path class="cls-1" d="M310.78 154.17a.22.22 0 0 1-.16.18h.18a.15.15 0 0 0-.02-.18zm-73.04 1.08l-.87-.06a5.66 5.66 0 0 0 .87.06zm-71.64-.4l-.2.05a.29.29 0 0 0 .2-.05zm68.2.4a1.14 1.14 0 0 0-.49-.29.55.55 0 0 0-.1.11zm-107.56-.73z"/><path class="cls-1" d="M121 155.52c.82 0 .39-.54.56-.86 1-.15.46.41.79.7.62-.15 1.09-.66 1.55-.64 0 .09.12.13 0 .24.65-.44 1.93 0 2.68-.57a.23.23 0 0 1 .1.13 1.44 1.44 0 0 1-.11-.76c.36 0 .68-.35.82 0-.23 0-.24.14-.35.25l.39-.15c.35.52-.53.18-.53.56.75-.17 1.63-.6 2.21-.45.12.51-1.35.17-.58.62l-.89-.19c.68.8-.55-.06.08.8 1.18.15 1.32-.26 2.5-.11.26-.28-.09-.42.17-.7 1.67-.51 1.32 1.28 2.55.6.32-.34.44-1 1.31-.64l-.29.57c1.14.06.65-.82 1.84-.44-.21.23-.89.19-.72.26.77.46.55-.32 1.14-.32l.13.51c1.21-.08 2.55-.45 3.9-.55-.08.16-.31.32 0 .47a16.59 16.59 0 0 1 5.26.37l.62-.44c.15 0 .27.2.12.28.64.17 0-.28.34-.45s.48.25.25.38c1.12-.37 3.2-.8 4.39-.33l-.23.13c.92.18 1-.9 1.9-.49l-.16.08c2 .19 4.22-.21 5.75.45.29-.63 2 .28 2.11-.6a7.43 7.43 0 0 0 2.43.89c.43 0 .64-.55 1.18-.64v.52l.72-.49.39.56.5-.12c-.2 0-.43-.21-.4-.34a2.15 2.15 0 0 1 1.93.55l1.84-.39c0 .19-.35.25-.59.37 1-.47.18.49 1.08.06-.12-.11.06-.28.08-.37a4 4 0 0 0 2.24.16l-.15.32c1.37.08 2.89-.15 4.42-.15-.55-.14-.42-.7 0-.75l.18.49c.29-.3-.47-.19.13-.56.57.06.38.56.05.72l.7-.17c0 .15-.12.22-.16.41.28-.31 1.2.49 1.61 0v.15c1.54 0 2.24-.17 3.49-.19 0-.42.51-.33.88-.67a16.24 16.24 0 0 0 3 .43c.78-.21.23-.36.58-.61.06.39 1.16.35.59.63a19.36 19.36 0 0 0 3.38-.39c-.18-.16-.39-.23-.28-.36.3-.06.69.16.65.35h-.08c1.89-.58 4.36 1.12 5.86.32h-.09l1.56-.41c.72.06-.43.29.1.52 1.69-.64 2.66.1 4-.33 1.07 1.13 3.8-.08 5.25.64l-.09-.26c.38-.26.45.15.73.21 0-.21-.41-.24-.17-.38 3.16-.33 6.54.39 9.78.63 1.19.07.68-1.38 2.17-.75l-.42.5c2.4-.6 4.9 0 7.25-.49-.14.12-.15.27-.38.27.5.36 1.84 0 1.85-.28.36 0 .08.27.31.41.49.22 1.24-.46 1.51-.1 0 .06-.14.12-.23.15.32-.18 1.51 0 1.2-.37.88.19 1.68-.19 2.38.06.46-.47 1.51.22 1.66-.44-.07.68 1.54.55 2.1.23-.19.21.48.22.26.5.64 0 1.22-.14 1.11-.48 1.17.81 2.35-.66 3 .38 1.89-.36 3.64-.61 5.34-.77-.07.68-1.88.07-1.81.78 1.61-.28 2.54-.86 4.14-.7.41.1-.24.3-.38.41 1.61-.28 3.12.06 4.55-.3 0 .06-.16.13-.31.18.29 0 .66.1.63-.21l-.28.08c-.45-.44 1.12-.93 1.17-1.16-.47.88 1.42.22.66 1.33.18-.06.42-.2.37-.41.28.06.37.18.09.42 1-.17.65-.5 1.57-.49 0 .15-.19.21-.29.38a2.23 2.23 0 0 1 1.71-.45c-.05.09 0 .2-.19.2 1.33-.05 2.26-.77 3.72-.49-.43.64.5.21.58.77l.78-.17-.31-.27c.68 0 1.29-.4 1.88-.21l-.51.23 1.29-.11-.73-.21c.69-.29-.08-.71.84-.55-.19 0 .69 0 1 .33a1.54 1.54 0 0 1 1.2-.22c.13.18-.11.62 0 .74.33-.47 1.61-.13 2-.63a.46.46 0 0 0-.1.47l.28-.38c.32.12.36.18.31.41 1 .07-.3-.71.84-.4-.09 0-.05.09-.24.14 1.14.16 2.21-.24 3.26 0 .3.56-.92.14-.57.61 1.52-.1 3.13-.67 4.6-.54l-.28-.06c.21-.8 1.09.39 1.83 0-.18 0-.23.44-.19.35a13.66 13.66 0 0 0 3.57-.45l-.19.21a19.36 19.36 0 0 0 2.19.2c.19-.21.56-.18.34-.47 2 1.16 3.75-.63 5.49.34-.21 0-.49.18-.33.18L293 154c-.12-.34-.2-.21-.51-.48a1.49 1.49 0 0 1 1-.36c-.67.23 0 .56.29.75 0-.11.05-.22 0-.33.77.62.13-.7 1.19-.28l-.06.18a3.51 3.51 0 0 1 1.19-.28c.18.4-.42.18-.45.51.6 0 1.19-.76 1.73-.36-.26.12-.62.12-.88.23a1.46 1.46 0 0 0 1.1.42l1 .22-.26-.13c.75-1.05 1.53-.19 2.54-.88-1 .65-.16.38-.24.83.26.13.66.27.54.4.48-.37.8.29 1.48-.25 0 .15.51 0 .4.38.62-.11-.15-.25-.09-.44 1-.49 2.25.61 3.63-.07 1.19-.29 1.41-.78 2.52-1 .37.24-.31.54-.31.54a2.37 2.37 0 0 0 1.62 0c-.11.13 0 .24.18.4.45 0 .3-.53.9-.31a2.06 2.06 0 0 1-.45.59c.53-.14 1.06-.41 1.62-.54.14.25-.34.38-.53.55.62-.12 1.61-.23 1.8-.64l-.4-.14c.23 0 .12.35-.05.42a.49.49 0 0 1-.8-.29l.4-.09c-.41-.86-1.59.14-2.38.09l.33-.63-.82.52c-.17-.16-.29-.51.1-.6-.57-.31-.5.22-1-.12-.06-.06 0-.09 0-.11l-.56.18c.11-.13-.09-.44.25-.35-1-.36-1.61.47-2 0h.09c-1.39.21-.14.46-1.18 1l-.7-1.13-.14.45c-.14 0-.42-.05-.37-.23-.53.31.09.2-.22.49-.69-.41-1.9.2-2.05-.53-.25.35.66.27-.08.51-.21-.78-.85.14-1.48-.22.2-.41.79-.2.16-.56-.38.69-1.22-.15-1.75 0 0 .55-1.16.23-2 .41.06-.18-1.67-.3-2.5-.49v-.09c-.16.55-1 .44-1.64.56 0-.33.14-.46.48-.61h-.59a1 1 0 0 1-.7.33l.15-.41c-.78 0-1.57.49-2.57.21-.06.39.8 1.07-.26 1.33 0-.21-.08-.56.2-.65-.09 0-.33.17-.51.08l.42-.35c-.45-.15-.24.3-.6.26 0-.29-.27-.21-.22-.44.09 0 .32.12.46 0a1.74 1.74 0 0 1-1.07-.45.34.34 0 0 1-.3.44c-.78 0-.27-.36-.73-.51-.18.21-.68 0-.69.43-.23 0-.27-.2-.36-.32-.4.19-1.88.05-1.43.52h.1-.06c-1.32.44-2.75-.25-4.06-.06v-.15a9.55 9.55 0 0 0-2.3.42c-.24 0-.55-.27-.45-.44a2.23 2.23 0 0 1-1.53 0c.6-.26-.21-.23.62-.19-.78-.13-1-.37-1.79 0 .28-.38-.59-.48-1-.36l.55.27a5.49 5.49 0 0 1-1.15 0l.2-.5c-1.59-.61-2.87 1-4.08 0-.42.35.87.25.49.66-.73-.07-1.49-.79-1.72-.79-1-.27-.94.73-2 .54.13.18.26.66-.53.82-.73-.06-.9-.74-.44-.89.18 0 .27.05.26.11.23-.07.54-.15.25-.34l-.09.18c-.36-.18-1.37-.16-1.13-.45-.56.16-.24.29.17.38a21.71 21.71 0 0 0-2.43-.18c.15.1.29.31.14.3-1.42-.22-.63.34-1.59.42-.54-.27.2-.65-.77-.42-.59-.18-.12-.47.11-.62-.88.34-1.64-.22-2.15-.29l.47-.14a2.5 2.5 0 0 1-.74.08l.27.36c-.28-.06-.51-.07-.5-.21-.28.23.21.59-.34.91-.37-.18-1.11.19-1.23-.28 1.14.16-.13-.48.84-.55a1.47 1.47 0 0 1-.69 0s0-.1.11-.13c-1.09-.42-.5.54-1.63.53.14-.27-.27-.51-.45-.45.46 0 .22.44-.2.65-.73-.21-.79.15-1.17.13l.43.1c-.14.26-.51.23-1 .31 0-.21.46-.14.28-.23-.57.46-1.27-.49-2.06-.17-.36-.18 0-.5-.35-.63-.88.35-.95-.36-1.88-.07.27.35.32.27-.33.61l1.51-.25-1 .52c.46 0 1-.22 1.24-.16-.46.29-.42.2-.2.5-.62-.54-1.24.31-2-.05v-.89c-1.09-.39-1.94.46-3.35.23l.45.16c-.19.35-.87.05-1.33.19 0-.3-.24-.4-.44-.59 0 .22-1 0-1.16.57l-.63-.39c-1.15-.16-1.31.85-2.4.75.33-.33-.17-.53.56-.77-.36 0-.69 0-.7.15-.21-.18-1 .4-1.35.12-.16.13-.21.44-.62.42a.18.18 0 0 1 0-.15c0 .15-.64.2-.28.53-1.13-.93-3.16.06-4.14-.73-.8.1-1.77.2-2.49.22 0-.09 0-.15.14-.12-1-.28-.62.85-1.76.54-.58-.48.61-.26.24-.44-.15-1-1.37.14-2.14-.43l.19-.06c-.59-.33-1.43.37-2.39.3a.18.18 0 0 0 0-.15 6.84 6.84 0 0 1-2.81.8c.28-.38.41-.2.24-.59-.41.06.12.62-.7.73-.27-.21-.87-.39-.95-.8h.78c-.4-.54-1 0-1.41-.08v-.23c-1.19.07-1.21.66-2.49.62l.13.18c-.7.58-.59-.33-1.29.1l-.21-.59a16.89 16.89 0 0 1-2.44.68 8 8 0 0 1 2-.92c-.45 0-1.55 0-1.79.34.18-.06.42-.21.6-.12a3.27 3.27 0 0 1-2.21.69c.16-1.15-2.38-.29-3.05-1.18-1.61.42-3.2-.18-5.08-.12.67.9-.55 0-.43.95-.44.06-.61 0-.65 0l-1.33-.55c-.31-.26.42-.2.38-.4-1-.07-.4-.39-1-.64.13.33-.33.47-.88.35l.77.42c-1.34.49-1.16-.77-2.51-.29l.43-.28c-.69.17-2.56 0-3.24.73-.12-.11-.28-.36 0-.43-1.65-.11-3.68.79-5 .33l.12-.22c-.31.07-.54.42-.92.2 0-.1.12-.23 0-.24a2.07 2.07 0 0 1-1.23.26l.35-.25c-1.62-.3-2.48.61-3.84.77 0-.66-1.27-.88-1.9-1v-.1c-1.88-.08-3.2.55-4.94.81-1.08-.72-3.66-.3-5.4-.7.26.12-.05.51-.35.58-.41-.14-1.13.45-1.07-.15h.15c-.31-.59-1.15-.43-1.8-.45l-.11.79c-1.71-1.15-4.49.42-5.42-.61-.42.2-.93.2-1.34.4v-.43a15.15 15.15 0 0 0-3.13-.06l.29-.3c-.8 0-1 1.22-1.74 1.25l-.23-.64c-1.39 0-2.8-.54-4.18 0 0-.09.07-.28.29-.3-.65 0-2.53-.43-2.29.44 0-.57-1.44-.06-2.19.19l.11-.41c-.63.53-.65.68-1.54.82-.21-.05-.18-.33.1-.22-.7-.22-.55.39-1.4.17l.32-.27c-.72 0-.67.11-1.06.43-.45.16-1.37-.11-1.47-.49a.85.85 0 0 1-.92.43c-.06-.14.1-.23.17-.27-1.2-.29-1.79.48-2.62.07a.28.28 0 0 0-.14-.25 11.41 11.41 0 0 1 1.66.07c0-.39-.77-.46-.16-1-.62.29-1.68.92-2.43.74a.32.32 0 0 1-.1-.13h.08a.71.71 0 0 0-.48.06 2.34 2.34 0 0 0-.62-.12c-.09-.32-.89-.17-1.28-.19 0 .43-.47.36 0 .71-.06 0 .08 0 .33-.07a.42.42 0 0 0 .17 0h1a.88.88 0 0 1-1 .16c-.2.27-.42.55-.54.68-.53-.58-1.54-.9-1.68-1.26-1.18.23-2.78.15-3.52.94-.33.11-.38-.22-.51-.35.2-.08.43-.07.53-.18-.67.2-2 .08-2.14.63-.84-.25.47-.51-.69-.42l.16-.16c-2.28-.89-3.71 1.41-6.23.27.17.07.26.1.3.2-2.89-.5-5.94.47-8.78-.33-.81-.16-.9.2-1.39.46l-.18-.45-.84.52c-1.2.39-2.07-1.11-3.59-.38l.2.3c-.54-.06-1.72.18-1.63-.17-.06.06-.18.32-.39.16v-.24l-1.34.41c-1-.17.17-.94-1.34-1-.57.09-1.6.69-1.39.85.22 0 .58.15.59.39l-.51.12c-.09.7-.49 1.41.77 1.9l.88-.43.28.34h-.74c.42.32.69 0 1-.15a.62.62 0 0 0 .37.37l.86-.67c.1.28-.39.54.19.7.4-.31-.39-.62.28-.82.42.32.3.58.79.3.07.18 0 .3-.23.38.44-.22 1.16-.09 1.39-.47.44.4 1.48-.1 1.44.56a2.54 2.54 0 0 1 1.18-.54c-.74.79 1.51 0 1.31.89.55-.71 2-.31 2.94-.71-.06.06-.16.17-.25.14a3 3 0 0 1 1 .4c.07-.58.92-.72 1.38-1.08.66.57-.41.69-.2 1.23 0-.47 1.16-.47.93-.87.51.35.44.17.71.66.08-.73.47-.12.89-.58.74.37.19.69 1 .47.56.25-.2.51-.2.51zm19.27-1.27h-.4zm1.62 0h-.7c-.06-.14 0-.29.16-.29-.04.04.34.16.58.29zm-3.43-2.92c.26-.06.35 0 .38.1l-.45.06a.59.59 0 0 1 .11-.16z"/><path class="cls-1" d="M138 151.88a.29.29 0 0 1-.1 0l.15.09.09-.13zm146.85.62l.07.06zm-120.56 2.55v-.1l-.14.09.14.01zM293.77 154a.22.22 0 0 0 .12.11.33.33 0 0 0-.12-.11zm3.85 0l.55.15a4.84 4.84 0 0 0-.55-.15zm2.97.25a.83.83 0 0 0 .05-.18zm-47.11.5h-.11c-.27.1-.09.07.11 0zm14.02-.99a2 2 0 0 1-.45.2c.25.04.44.04.45-.2zm-29.67 1.5zM266.4 154a1 1 0 0 0 .65 0 1.58 1.58 0 0 0-.65 0zm47.03.45h.14a.08.08 0 0 1 0-.07zm.16-.06h.15c-.07-.05-.13-.04-.15 0zm.49-.15l-.34.1c.12.01.26.02.34-.1zm-4.58.01v.15a.27.27 0 0 0 0-.15zm-1.19.04c.29 0 .72.33 1.11.23v-.12c-.15.23-.84-.4-1.11-.11zm-4.97-1.89l1 .13c-.18-.17-.41-.39.05-.42-1.26-.49.26.36-1.05.29zm-3.1-.23c.54-.08 0-.24 0-.33-.32.16-.4.16 0 .33zm-22.38 0l.06-.39c-.42.06-.01.15-.06.39zm-4.27 1.98l.4.24.19-.35-.59.11zm-2.53-2.73l.18-.06-.69.14.51-.08zm-37.58.13l.12.48c.28-.09.34-.62-.12-.48zm-16.23.45a.69.69 0 0 0-.91-.15c.36.06.73.24.91.15zm-48.66-.74l.33-.15-.61.13.28.02zm56.47.87a.23.23 0 0 0 .22.37l.19-.5zm1.79.92c.32-.24.68-.66.48-1.12-.32.48-.39.28-.73.85a.33.33 0 0 1-.42-.34c-.09.12-.41-.11-.55.2a.86.86 0 0 0 1.24.08c.13.11.01.28-.02.33zm26.15.78l-.17-.06a.38.38 0 0 0 .17.06zm16.11.27c-.12 0-.17.06-.18.1s.21-.06.18-.1zm2.76.55h-.16c.06.01.13.03.16 0zm-18.87-.82l.43.15c-.02-.16-.27-.12-.43-.15zm-22.55-1.98a.65.65 0 0 0-.23.13h.22a.25.25 0 0 1 .01-.13zm15.37 2.38h-.13a1 1 0 0 0-.11.2zm-5.47.07c.12 0 .17-.4.21-.58a.46.46 0 0 1-.27.29.93.93 0 0 0 .06.29zm-8.67-.74l-.16.06a1.66 1.66 0 0 0 .16-.06zm18.05.76a.44.44 0 0 0 .05.15.3.3 0 0 0-.05-.15zm152.99-3.17a.22.22 0 0 0 0 .08s.04-.08 0-.08zm6.34 2.09h-.09a1.94 1.94 0 0 0 0 .24zm-132.13 1.95c-.16.04-.08.03 0 0zm46.37-.32c-.52-.37.86-.48.07-.9.07.17-.72.66-.07.9zm-92.71-2.96h.23a.44.44 0 0 0-.23 0zm92.78 2.09h-.09zm-34.8.93a.57.57 0 0 0-.12-.18s.03.09.12.18zm-8.68-.6l.22.06a.82.82 0 0 0-.22-.06zm13.18.01c.11 0 .15.09.31 0v-.05c-.1.09-.18.11-.31.05zm4.68-.01a.6.6 0 0 0-.08-.08h-.15zm90.73-2.98a1.3 1.3 0 0 1 .21.38c-.07-.3.62-.4-.21-.38z"/><path class="cls-1" d="M230.45 152.09c0-.11.07-.16.14-.18h-.15a.18.18 0 0 0 .01.18zm62.81-1.09l.74.06a4.18 4.18 0 0 0-.74-.06zm61.6.41h.17a.2.2 0 0 0-.17 0zm-58.65-.41a1.06 1.06 0 0 0 .42.29.33.33 0 0 0 .09-.11zm92.48.74z"/><path class="cls-1" d="M393.6 150.74c-.71 0-.34.54-.49.86-.84.15-.39-.41-.68-.7-.53.15-.93.66-1.32.64 0-.09-.11-.13 0-.24-.56.44-1.66 0-2.31.57a.34.34 0 0 1-.09-.13 1.52 1.52 0 0 1 .1.76c-.31 0-.59.35-.71 0 .2 0 .21-.14.31-.25l-.34.15c-.3-.52.46-.18.46-.56-.65.17-1.41.6-1.91.45-.1-.51 1.17-.17.5-.62l.77.19c-.59-.8.47.06-.07-.8-1-.15-1.13.26-2.15.11-.22.28.08.42-.15.7-1.44.51-1.13-1.28-2.19-.6-.27.34-.38 1-1.13.64l.26-.57c-1-.06-.56.82-1.59.44.18-.23.77-.19.62-.26-.66-.46-.47.32-1 .32l-.11-.51c-1 .08-2.19.45-3.35.55.06-.16.26-.32 0-.47a12.28 12.28 0 0 1-4.52-.37l-.54.44c-.13 0-.23-.2-.1-.28-.55-.17 0 .28-.29.45s-.41-.25-.21-.38c-1 .37-2.76.8-3.78.33l.2-.13c-.8-.18-.9.9-1.64.49l.14-.08c-1.72-.19-3.63.21-4.94-.45-.25.63-1.71-.28-1.82.6-1-.44-.7-.6-2.09-.89-.37 0-.55.55-1 .64v-.46l-.62.49-.33-.56-.43.12c.17 0 .36.21.33.34a1.68 1.68 0 0 1-1.65-.55l-1.58.39c0-.19.3-.25.51-.37-.85.47-.16-.49-.93-.06.1.11-.06.28-.08.37a3 3 0 0 0-1.92-.16l.13-.32c-1.18-.08-2.48.15-3.8.15a.38.38 0 0 1 0 .75l-.15-.49c-.25.3.4.19-.11.56-.49-.06-.33-.56-.05-.72l-.6.17c0-.15.11-.22.14-.41-.24.31-1-.49-1.39 0v-.15c-1.32 0-1.92.17-3 .19 0 .42-.44.33-.76.67a12.15 12.15 0 0 0-2.62-.43c-.67.21-.2.36-.5.61-.05-.39-1-.35-.5-.63a14.36 14.36 0 0 0-2.91.39c.16.16.33.23.24.36-.26.06-.6-.16-.56-.35h.07c-1.62.58-3.75-1.12-5-.32h.07l-1.34.41c-.61-.06.37-.29-.08-.52-1.45.64-2.29-.1-3.48.33-.92-1.13-3.27.08-4.51-.64l.07.26c-.32.26-.39-.15-.63-.21 0 .21.35.24.15.38-2.72.33-5.62-.39-8.41-.63-1-.07-.58 1.38-1.87.75l.37-.5c-2.06.6-4.22 0-6.23.49.12-.12.12-.27.32-.27-.43-.36-1.58 0-1.59.28-.31 0-.07-.27-.26-.41-.43-.22-1.08.46-1.3.1 0-.06.12-.12.2-.15-.28.18-1.3 0-1 .37-.75-.19-1.44.19-2.05-.06-.39.47-1.29-.22-1.42.44.05-.68-1.33-.55-1.81-.23.16-.21-.41-.22-.22-.5-.55 0-1.05.14-1 .48-1-.81-2 .66-2.59-.38a42.11 42.11 0 0 1-4.58.77c.05-.68 1.61-.07 1.55-.78-1.39.28-2.18.86-3.56.7-.35-.1.2-.3.32-.41-1.38.28-2.67-.06-3.9.3 0-.06.13-.13.26-.18-.24 0-.57-.1-.54.21l.24-.08c.39.44-1 .93-1 1.16.41-.88-1.22-.22-.56-1.33-.16.06-.36.2-.32.41-.24-.06-.32-.18-.08-.42-.87.17-.56.5-1.34.49 0-.15.16-.21.24-.38a1.72 1.72 0 0 1-1.47.45c0-.09 0-.2.17-.2-1.15.05-1.95.77-3.21.49.37-.64-.42-.21-.49-.77l-.67.17.27.27c-.59 0-1.12.4-1.62.21l.44-.23-1.11.11.63.21c-.6.29.06.71-.73.55.16-.05-.59 0-.9-.33a1.18 1.18 0 0 1-1 .22c-.12-.18.09-.62 0-.74-.28.47-1.38.13-1.74.63a.53.53 0 0 0 .08-.47l-.24.38c-.27-.12-.31-.18-.27-.41-.82-.07.26.71-.71.4.07 0 0-.09.2-.14-1-.16-1.9.24-2.8 0-.26-.56.79-.14.48-.61-1.3.1-2.69.67-3.94.54l.23.06c-.17.8-.94-.39-1.57 0 .15-.06.2-.44.16-.35a10.24 10.24 0 0 0-3.07.45l.16-.21a14.06 14.06 0 0 0-1.88-.2c-.16.21-.48.17-.29.47-1.69-1.16-3.22.63-4.72-.34.18 0 .43-.18.28-.18l-1.27.19c.1.34.16.21.43.48a1.17 1.17 0 0 1-.84.36c.58-.23 0-.56-.25-.75v.33c-.67-.62-.11.7-1 .28l.05-.18c-.34.09-.65.33-1 .28-.15-.4.36-.18.39-.51-.52 0-1 .76-1.49.36.22-.12.53-.12.75-.23a1.15 1.15 0 0 0-.94-.42l-.87-.22.22.13c-.64 1.05-1.31.19-2.18.88.84-.65.14-.38.2-.83-.22-.13-.56-.27-.46-.4-.42.37-.69-.29-1.27.25 0-.15-.44 0-.35-.38-.53.11.13.25.08.44-.82.49-1.94-.61-3.12.07-1 .29-1.22.78-2.16 1-.33-.24.26-.54.26-.54a1.79 1.79 0 0 0-1.4 0c.1-.13 0-.24-.15-.41-.39 0-.26.54-.77.32a1.94 1.94 0 0 1 .39-.59c-.46.14-.92.41-1.4.54-.12-.25.29-.38.46-.55-.54.12-1.39.23-1.55.64l.34.14c-.2 0-.1-.35 0-.42a.42.42 0 0 1 .69.29l-.34.09c.35.86 1.37-.14 2-.09l-.29.63.71-.52c.15.16.25.51-.09.6.49.31.43-.22.85.12.05.06 0 .09 0 .11l.48-.18c-.1.13.08.44-.22.35.86.36 1.39-.47 1.71 0h-.07c1.19-.21.11-.46 1-1l.6 1.13.12-.45c.12 0 .36.05.32.23.46-.31-.08-.2.19-.49.59.41 1.63-.2 1.76.53.22-.35-.56-.27.07-.51.18.78.73-.14 1.27.22-.16.41-.68.2-.14.56.33-.69 1.06.15 1.51 0 0-.55 1-.23 1.76-.41-.05.18 1.44.3 2.16.49v.09c.14-.55.88-.44 1.41-.56a.61.61 0 0 1-.4.61h.5a.78.78 0 0 1 .6-.33l-.13.41c.67 0 1.35-.49 2.21-.21 0-.39-.68-1.07.23-1.33 0 .21.07.56-.17.65.08 0 .28-.17.43-.08l-.36.35c.39.15.2-.3.52-.26 0 .29.23.21.19.44-.08 0-.28-.12-.4 0a1.39 1.39 0 0 1 .92.45c0-.17 0-.4.26-.44.67 0 .23.36.62.51.17-.21.59 0 .6-.43.2 0 .24.2.31.32.35-.19 1.62-.05 1.23-.52h-.09.06c1.13-.44 2.36.25 3.48.06v.15a7.35 7.35 0 0 0 2-.42c.2 0 .47.27.38.44a1.68 1.68 0 0 1 1.32 0c-.52.26.18.23-.53.19.67.13.82.37 1.53 0-.24.38.51.48.82.36l-.46-.27a4 4 0 0 1 1 0l-.17.5c1.37.61 2.47-1 3.51 0 .36-.35-.74-.25-.42-.66.63.07 1.28.79 1.48.79.86.27.8-.73 1.7-.54-.11-.18-.22-.66.45-.82.63.06.78.74.38.89-.15 0-.22-.05-.22-.11-.2.07-.47.15-.22.34l.08-.18c.32.18 1.18.16 1 .45.47-.16.2-.29-.15-.38.81.26 1.26 0 2.09.18-.13-.1-.25-.31-.12-.3 1.22.22.54-.34 1.36-.42.47.27-.17.65.66.42.51.18.11.47-.09.62.76-.35 1.42.22 1.85.29l-.4.14a1.82 1.82 0 0 1 .63-.08l-.23-.36c.24.06.44.07.43.21.24-.23-.18-.59.3-.91.31.18.95-.19 1 .28-1-.16.11.48-.72.55a1.08 1.08 0 0 1 .59 0c0 .05 0 .1-.09.13.94.42.43-.54 1.4-.53-.12.27.23.51.39.45-.4 0-.19-.44.17-.65.62.21.68-.15 1-.13l-.37-.1c.13-.26.44-.23.87-.31 0 .21-.39.14-.24.23.49-.46 1.1.49 1.77.17.31.18 0 .5.31.63.75-.35.81.36 1.61.07-.23-.35-.27-.27.29-.61l-1.31.25.84-.52c-.39 0-.83.22-1.07.16.4-.29.36-.2.17-.5.54.54 1.07-.31 1.69 0v.89c.94.39 1.67-.46 2.89-.24l-.4-.15c.17-.35.76 0 1.15-.19 0 .3.21.4.38.59 0-.22.89 0 1-.57l.54.39c1 .16 1.12-.85 2.07-.75-.29.33.14.53-.49.76.31 0 .6.06.6-.14.19.18.88-.4 1.17-.12.13-.13.17-.44.53-.42a.21.21 0 0 1 0 .15c0-.15.56-.2.25-.53 1 .93 2.71-.06 3.56.73a21 21 0 0 1 2.14-.22c0 .09 0 .15-.12.12.86.28.53-.85 1.51-.54.5.48-.52.26-.21.44.14 1 1.18-.14 1.84.43l-.16.06c.51.33 1.23-.37 2.06-.3a.21.21 0 0 0 0 .15 5.34 5.34 0 0 1 2.42-.8c-.24.38-.36.2-.2.59.35-.06-.11-.62.6-.73.23.21.74.39.81.8h-.67c.34.54.87 0 1.22.08v.23c1-.07 1-.66 2.15-.62l-.12-.18c.6-.58.51.33 1.11-.1l.18.59a13 13 0 0 1 2.1-.68 6.35 6.35 0 0 1-1.75.92c.39 0 1.34 0 1.54-.34-.16.06-.36.21-.51.12a2.56 2.56 0 0 1 1.9-.69c-.14 1.15 2.05.29 2.62 1.18 1.38-.42 2.75.18 4.37.12-.58-.9.47 0 .37-1 .38-.06.52 0 .55 0l1.15.55c.27.26-.36.2-.33.4.83.07.35.39.89.64-.11-.33.29-.47.76-.35l-.66-.42c1.15-.49 1 .77 2.16.29l-.37.28c.6-.17 2.2 0 2.78-.73.11.11.25.36 0 .43 1.42.11 3.17-.79 4.27-.33l-.1.22c.26-.06.46-.42.79-.2 0 .1-.11.23 0 .24s.7-.39 1.06-.26l-.31.25c1.39.3 2.14-.61 3.3-.77 0 .66 1.09.88 1.64 1v.1c1.62.08 2.75-.55 4.25-.81.93.72 3.15.3 4.64.7-.22-.12 0-.51.31-.58.35.14 1-.45.91.15h-.12c.26.59 1 .43 1.54.45l.1-.79c1.47 1.15 3.86-.42 4.66.61.36-.2.8-.2 1.15-.4v.43a11.2 11.2 0 0 0 2.69.06l-.25.3c.69 0 .87-1.22 1.5-1.25l.19.64c1.2 0 2.41.54 3.6 0 0 .09-.06.28-.25.3.56 0 2.18.43 2-.44 0 .57 1.24.06 1.89-.19l-.1.41c.54-.53.56-.68 1.32-.82.18 0 .16.33-.08.22.6.22.47-.39 1.2-.17l-.27.27c.62 0 .57-.11.91-.43.39-.16 1.17.11 1.27.49a.69.69 0 0 1 .78-.43c.05.14-.08.23-.15.27 1 .29 1.54-.48 2.26-.07a.3.3 0 0 0 .12.25 8.45 8.45 0 0 1-1.43-.07c0 .39.67.46.14 1 .53-.29 1.44-.92 2.09-.74a.73.73 0 0 1 .09.13h-.07a.53.53 0 0 0 .41-.06 1.82 1.82 0 0 0 .54.12c.07.32.76.17 1.09.19 0-.43.41-.36 0-.71.05 0-.06.05-.28.07a.29.29 0 0 0-.14.05h-.83c.27-.22.54-.4.91-.16a7.68 7.68 0 0 1 .46-.68c.45.58 1.33.9 1.45 1.26 1-.23 2.38-.15 3-.94.29-.11.33.22.44.35-.17.08-.37.07-.46.18.58-.2 1.71-.08 1.84-.63.73.25-.4.51.59.42l-.13.16c2 .89 3.19-1.41 5.36-.27-.15-.07-.23-.1-.26-.2 2.48.5 5.11-.47 7.55.33.7.16.77-.2 1.2-.46l.15.45.72-.52c1-.39 1.78 1.11 3.08.38l-.16-.3c.46.06 1.48-.18 1.4.17.05-.06.15-.32.33-.16v.24l1.15-.41c.89.17-.14.94 1.16 1 .48-.09 1.37-.69 1.19-.85s-.5-.15-.51-.38l.44-.13c.08-.7.42-1.41-.67-1.9l-.75.43-.24-.34h.63c-.36-.32-.59 0-.84.15a.6.6 0 0 0-.32-.37l-.74.67c-.09-.28.33-.54-.17-.7-.34.31.34.62-.24.82-.36-.32-.25-.58-.68-.3-.06-.18 0-.3.2-.38-.38.22-1 .09-1.19.46-.38-.39-1.28.11-1.24-.55a2.11 2.11 0 0 1-1 .54c.63-.79-1.3 0-1.14-.89-.46.71-1.69.31-2.52.71.05-.06.14-.17.21-.14-.47-.06-.6-.27-.9-.4-.06.58-.79.72-1.18 1.08-.58-.57.34-.69.16-1.23 0 .47-1 .47-.8.87-.43-.35-.37-.17-.6-.66-.08.73-.41.12-.77.58-.63-.37-.16-.69-.86-.47-.55-.17.05-.43.05-.43zM377 152h.34zm-1.4 0a5.72 5.72 0 0 0 .61 0c.05.14 0 .29-.15.29.11-.07-.22-.15-.43-.29zm2.95 2.92c-.22.06-.29 0-.32-.1l.38-.06v-.05a.58.58 0 0 1-.03.22z"/><path class="cls-1" d="M379 154.38a.24.24 0 0 1 .09 0l-.13-.09-.08.13zm-126.25-.62l-.06-.06a.13.13 0 0 1 .06.06zm103.66-2.55v.1l.12-.09-.12-.01zm-111.33 1.1a.17.17 0 0 0-.1-.11s.02.07.1.11zm-3.31-.09l-.47-.15a3.42 3.42 0 0 0 .47.15zm-2.55-.22a.83.83 0 0 0-.05.18zm40.5-.49h.1c.23-.1.07-.07-.1 0zm-12.05.99a1.54 1.54 0 0 1 .38-.2c-.21-.04-.38-.04-.38.2zm25.51-1.5zm-24.57 1.3a.77.77 0 0 0-.56 0 1.18 1.18 0 0 0 .56 0zm-40.43-.49h-.12a.14.14 0 0 1 0 .07zm-.18.06h-.13c.13.05.13.04.13 0zm-.38.13l.29-.1c-.1.01-.23 0-.29.1zm3.93 0v-.15a.39.39 0 0 0 0 .15zm1.03 0c-.25 0-.62-.33-1-.23v.12c.17-.26.76.33 1 .11zm4.27 1.86l-.86-.13c.16.17.35.39 0 .42 1.01.49-.26-.36.86-.29zm2.67.23c-.47.08 0 .24 0 .33.27-.15.34-.19 0-.33zm19.24 0l-.05.39c.36-.06 0-.15.05-.39zm3.67-1.98l-.34-.24-.17.35.51-.11zm2.18 2.73l-.16.06.6-.14-.44.08zm32.31-.13l-.11-.48c-.24.09-.29.62.11.48zm13.95-.48a.55.55 0 0 0 .79.15c-.32-.03-.66-.21-.79-.15zm41.84.77l-.28.15.52-.13-.24-.02z"/><path d="M25 22.17c2.27 2.56 5.86 4 10.91 4.58a14.62 14.62 0 0 0-2.24 3.33c-6.08-1-9.89-3.23-12.41-7.2-1.89 2.85-5.44 5.37-12 7.13A15.75 15.75 0 0 0 7 26.94c5.38-1.21 8.45-2.88 10.21-4.77H7.54v-3.29H19a13.92 13.92 0 0 0 .32-2h-8.17v-3.09h8.23v-1.92h-8.74V9.76H7.79V2.94h11.68V.16h3.91v2.78h11.71v6.82h-2.56v2.11h-9.35v1.92h8.71v3.07h-8.74a10.63 10.63 0 0 1-.25 2h12.63v3.29zM19.38 8.8V7h3.8v1.8h8V6.27H11.57V8.8zm30.43-6.18A26 26 0 0 0 49 5.44a83.84 83.84 0 0 0-1.5 12.26 15.61 15.61 0 0 0 .12 2c.42-1.12.93-2.17 1.41-3.23l2 1.57a76.26 76.26 0 0 0-2.27 7.55 6.72 6.72 0 0 0-.16 1.47v1.31l-3.6.3a38.19 38.19 0 0 1-1.25-10.11 93 93 0 0 1 1.36-13.22 25.14 25.14 0 0 0 .28-3.1zm19.45 23.91a31.47 31.47 0 0 0-3.84-3.17c-.19 3-1.92 5.18-6.2 5.18s-7.11-1.85-7.11-5.18 2.72-5.44 7-5.44a13.66 13.66 0 0 1 2.08.13c-.09-1.95-.19-4.26-.22-6.5H58.7c-1.86 0-3.65-.06-5.54-.19V7.62a53.1 53.1 0 0 0 5.54.28h2.24c0-1.57 0-2.85-.07-3.52a17.06 17.06 0 0 0-.19-2.08h4.54c-.09.61-.16 1.38-.19 2.05S65 6.21 65 7.62c1.72-.2 3.39-.42 4.89-.74v3.94c-1.53.22-3.2.41-4.93.54.07 3.07.23 5.6.36 7.74a20.12 20.12 0 0 1 6.11 4.1zm-7.87-5.15a9.59 9.59 0 0 0-2.56-.38c-1.79 0-3 .74-3 1.92s1.28 1.86 3 1.86c1.95 0 2.62-1 2.62-2.88zM84 29.44a60.68 60.68 0 0 0-6.88-7.07l3.32-2.88a59.06 59.06 0 0 1 7 7zm38.26-27.39v27.52h-4.1v-2H104v2.08h-4V2.05zM104 5.89v6.88h14.21V5.89zm14.21 17.82v-7.17H104v7.17zm32.33-13.53a27.94 27.94 0 0 0 11.17 11.61 16.13 16.13 0 0 0-2.94 3.46 26.24 26.24 0 0 1-5.22-4.25v3.65h-5.31V30h-4v-5.4h-5.5v-3.35a29.07 29.07 0 0 1-5 4.09 18.7 18.7 0 0 0-2.74-3.17c4.51-2.46 8.54-7.07 11-12h-9.76V6.34h12V.16h4v6.18h12.13v3.84zm-6.3 10.56v-7a37.74 37.74 0 0 1-5 7zm9.09 0a35.79 35.79 0 0 1-5.09-7v7zm21.28-18.12a26 26 0 0 0-.77 2.82 83.84 83.84 0 0 0-1.5 12.26 15.61 15.61 0 0 0 .12 2c.42-1.12.93-2.17 1.41-3.23l1.95 1.57a76.26 76.26 0 0 0-2.27 7.55 6.72 6.72 0 0 0-.16 1.47v1.31l-3.58.26a38.19 38.19 0 0 1-1.25-10.11 94.78 94.78 0 0 1 1.34-13.18 23.3 23.3 0 0 0 .29-3.1zm19.45 23.91a31.47 31.47 0 0 0-3.84-3.17c-.19 3-1.92 5.18-6.2 5.18s-7.11-1.85-7.11-5.18 2.72-5.44 7-5.44a13.66 13.66 0 0 1 2.08.13c-.09-1.95-.19-4.26-.22-6.5h-2.27c-1.86 0-3.65-.06-5.54-.19V7.62a53.1 53.1 0 0 0 5.54.28h2.24c0-1.57 0-2.85-.07-3.52a17.06 17.06 0 0 0-.19-2.08h4.54c-.09.61-.16 1.38-.19 2.05s-.09 1.89-.09 3.3c1.72-.2 3.39-.42 4.89-.74v3.94c-1.53.22-3.2.41-4.93.54.07 3.07.23 5.6.36 7.74a20.12 20.12 0 0 1 6.11 4.1zm-7.87-5.15a9.59 9.59 0 0 0-2.56-.36c-1.79 0-3 .74-3 1.92s1.28 1.86 2.95 1.86c2 0 2.62-1 2.62-2.88zm45.5-7.24h-2.81V30h-3.62V14.14h-3.1c0 4.77-.7 11.52-4.83 15.94a9.22 9.22 0 0 0-2.72-2.59c.16-.2.35-.39.51-.58H206v2.24h-3.29V1.22H206v17.34a18.07 18.07 0 0 0 4.16-6h-3.55V9.34h3.87V.45h3.11V7.9a37.11 37.11 0 0 0 1.47-5.47l3 .71c-.8 1.92-1.63 4.16-2.33 5.56l-2.11-.7v1.34h3.84v3.2h-3.84V13c.89.74 3.45 3.11 4.06 3.71l-2.05 2.53c-.41-.67-1.21-1.76-2-2.78V23h-3.11v-5.53a16.68 16.68 0 0 1-3.13 4.35 17 17 0 0 0-1.35-3v4.79h10.91v.23a25.69 25.69 0 0 0 1.57-10.08V2.66l2.24.6a36 36 0 0 0 7.7-2.75l3.08 2.79a51.94 51.94 0 0 1-9.38 2.88v4.44h9.53zm-23.9-5.44a21.23 21.23 0 0 0-1.09-5.5l2.3-.74a20.19 20.19 0 0 1 1.25 5.41zm56.51 10.24a.42.42 0 0 0 .36-.16 2 2 0 0 0 .19-1c.06-.61.09-1.89.09-3.55a8.39 8.39 0 0 0 2.34 1.28 26.81 26.81 0 0 1-.35 4.32 2.35 2.35 0 0 1-2.59 2.17h-1.41a2.91 2.91 0 0 1-2.08-.77c-.48-.57-.71-1.25-.71-3.58v-2.39l-1.28 2.53a21.78 21.78 0 0 0-1.86-1.73 13.17 13.17 0 0 1-4.13 6.53 9.65 9.65 0 0 0-1.34-1.66V21c-5 .51-10.15 1-13.89 1.38l-.23-3.11c1.57-.09 3.49-.22 5.6-.38v-1.96h-4.7v-2.66H243v-1.73h3.17c-.67-.38-.83-1.18-.83-2.59V8.64h-1.6c-.38 2.62-1.54 4.22-5.25 5.09a6.31 6.31 0 0 0-1.5-2.24c2.69-.48 3.55-1.35 3.84-2.85h-3.2V6H243V4.45h-4.25V1.89H243V.16h3.36v1.73h4.26v2.56h-4.26V6h5.16v2.64H248V10c0 .58.06.64.41.64h.74c.38 0 .48-.16.54-1.47A7 7 0 0 0 252 10c-.22 2.3-.92 2.84-2.43 2.84H248a4.22 4.22 0 0 1-1.57-.22v1.63h4.36v2.66h-4.36v1.69c1.7-.16 3.43-.29 5.12-.45v1a11.59 11.59 0 0 0 2.66-5.25 41.89 41.89 0 0 0-2.56-1.7l1.54-2.81c.51.29 1.05.61 1.63 1 .09-.9.16-1.83.19-2.79h-2.69V4.22h2.79c0-1.31.06-2.65.06-4.09h3.42c0 1.41 0 2.78-.06 4.09h5.09v13.32a5.15 5.15 0 0 0 .06 1.24.28.28 0 0 0 .29.16zm-27.19 9.63a15.53 15.53 0 0 0 3.71-5.6l3.68 1a18.09 18.09 0 0 1-3.78 6.03zm12.83-4.86a35.39 35.39 0 0 1 .73 5.54l-3.77.48a38.47 38.47 0 0 0-.52-5.67zm6.4-.25a30.25 30.25 0 0 1 1.72 5.5l-3.8.73a28.39 28.39 0 0 0-1.51-5.69zm2-15.88a41.89 41.89 0 0 1-.48 4.8 24.63 24.63 0 0 1 2.3 1.83V7.58zm4.48 15.27a45.65 45.65 0 0 1 3.9 5.95l-3.9 1.25a36.35 36.35 0 0 0-3.7-6.05zM279.06 11a4.1 4.1 0 1 1-4.1 4.09 4.11 4.11 0 0 1 4.1-4.09zm36.44-3.38a24.28 24.28 0 0 1-8.6 5.82h10.24v16.45h-3.88V29h-11.8v1.09h-3.68V16.32c-1.44.32-2.85.61-4.29.83a24.49 24.49 0 0 0-2.34-3.29c5.6-.68 11.07-1.92 15.3-4h-.1a16.27 16.27 0 0 1-5.41.54 12.28 12.28 0 0 0-1.53-3.26c1.66.1 3.68.1 4.22.06s.71-.09.71-.51V.13h3.84v6.75c0 1.31-.23 2.08-.93 2.59A16.36 16.36 0 0 0 311.86 6zm-13.6-4.9a25.52 25.52 0 0 1-7.35 7.33c-.71-.67-2.15-2-3-2.66a18.56 18.56 0 0 0 6.66-5.85zm11.36 13.57h-11.8v1.5h11.8zM301.46 22h11.8v-1.65h-11.8zm11.8 4.16v-1.59h-11.8v1.57zm1-24.89a36.83 36.83 0 0 1 6.84 6l-3.29 2.08a34.2 34.2 0 0 0-6.63-6.24zm37.82 20.94a18.55 18.55 0 0 0 3-.26v4.64a24.47 24.47 0 0 0-3-.16H331a26.15 26.15 0 0 0-3.13.16V22a17.4 17.4 0 0 0 3.13.26h8.13V9.15h-6.18c-.86 0-2.23.07-3 .13V4.9a25.19 25.19 0 0 0 3 .19h17.41c1 0 2.08-.1 3-.19v4.38c-1-.06-2.08-.13-3-.13h-6.76v13.06zM388.05 8c-.8.8-1.79 1.89-2.47 2.65a48 48 0 0 1-6.72 6.28v8.06c0 1.28.13 3.1.23 4.09h-4.61a36.3 36.3 0 0 0 .22-4.08v-5.51a56 56 0 0 1-9.82 3.93l-2.46-3.77a39.5 39.5 0 0 0 13.05-5.35 20.44 20.44 0 0 0 5.38-4.8h-11.58c-1.16 0-3.17.07-4.16.16V5.47a30.32 30.32 0 0 0 4.09.23h5.54V4a20.28 20.28 0 0 0-.2-2.94h4.58a25.33 25.33 0 0 0-.19 2.94v1.7h3.84a9.67 9.67 0 0 0 2.65-.32zm-4.51 7.61a73.7 73.7 0 0 1 7.68 4.64l-2.69 3.52a50.92 50.92 0 0 0-7.65-5.08zm23.39-7.39a43.41 43.41 0 0 1-2.43 3.88v18H401V16.38a28.61 28.61 0 0 1-2.5 2.37 23.68 23.68 0 0 0-2-3.55 27 27 0 0 0 7.1-8.2zm-.54-6.75a39.64 39.64 0 0 1-7.65 7.81 28 28 0 0 0-2-2.78A26.75 26.75 0 0 0 403 .16zm17.72 16.13a17.43 17.43 0 0 1-4.86 6.91 28.65 28.65 0 0 0 8 2.34 14.28 14.28 0 0 0-2.28 3.26 25.88 25.88 0 0 1-8.83-3.36 31 31 0 0 1-9.05 3.42 12.42 12.42 0 0 0-1.83-3.23 27.86 27.86 0 0 0 7.88-2.49 17.2 17.2 0 0 1-2.53-2.79 31 31 0 0 1-2.88 2 21.41 21.41 0 0 0-2.47-2.82 20.61 20.61 0 0 0 7.14-5.92l-6.4.19-.32-3.36h4.93c.45-.38.92-.8 1.37-1.21A36.09 36.09 0 0 0 406.32 6l2.27-2.46c.55.35 1.15.73 1.76 1.15A33.69 33.69 0 0 0 413.78 0l3.29 1.7a67.884 67.884 0 0 1-4.29 4.73A24 24 0 0 1 414.61 8a58.36 58.36 0 0 0 5.15-5.66l3.36 1.85a99.36 99.36 0 0 1-7.84 7.43l5.73-.1c-.51-.73-1.06-1.41-1.6-2.05l2.94-1.63a31.55 31.55 0 0 1 4.87 7L424 16.67a18.89 18.89 0 0 0-1-2.11c-2.11.1-4.29.16-6.37.22-.38.64-.8 1.28-1.25 1.89h5.8l.6-.13zm-11.2 1.95a14.65 14.65 0 0 0 3.17 3.11 14.25 14.25 0 0 0 3.07-3.14h-6.21zm26.66 3.2c1.25 2.14 3.49 3 6.75 3.17 3.84.16 11.39.06 15.81-.29a17.88 17.88 0 0 0-1.19 3.71c-4 .19-10.75.26-14.65.1s-6.37-1.09-8.29-3.55a82.048 82.048 0 0 1-4.22 3.84L432 26a40.35 40.35 0 0 0 4-3v-7h-3.58v-3.46h7.2zM437.3 8.42a25.17 25.17 0 0 0-4.8-5.32l2.91-2.17a27.6 27.6 0 0 1 5 5.09zm5.63 2.88c-.58.6-1.15 1.15-1.73 1.66a27.69 27.69 0 0 0-2.78-3 23.21 23.21 0 0 0 7.07-9.74l3.77 1.09a36.26 36.26 0 0 1-1.63 3.39h3.65a39.76 39.76 0 0 0 1.34-4.22l4.2.8c-.58 1.15-1.16 2.34-1.73 3.42h5.66v3.2h-6.33v2h5.47V13h-5.47v2.1h5.34v3.07h-5.34v2.18h6.88v3.2h-18.37zm7.84-3.4h-4.16v2h4.16zm0 5.09h-4.16v2.11h4.16zm0 5.18h-4.16v2.18h4.16zm44.89-16.79V30h-4.06v-1.6h-18.94V30h-3.88V1.38zm-4.06 23.51v-20h-18.94v20zm-1.12-5V23H473.9v-3.07h6.44v-3.77h-5.28V13h5.28v-3h-6.08V6.62H490V10h-6.11v3h5.4v3.2h-1.79a24.08 24.08 0 0 1 2.4 2.8l-1.66.92zm-6.62 0h3.2a24.78 24.78 0 0 0-2.18-2.78l1.95-1h-3zm28.96 4.59a5.17 5.17 0 1 1-5.19-5.19 5.18 5.18 0 0 1 5.19 5.19zm-2.31 0a2.86 2.86 0 1 0-2.88 2.85 2.87 2.87 0 0 0 2.88-2.85zM45.1 78.11c0 1.37.64 1.73 2 2a29.32 29.32 0 0 0 3.71.2A54.27 54.27 0 0 0 62 79.2v4.67a90.56 90.56 0 0 1-11.39.67 36.28 36.28 0 0 1-5.38-.35c-2.78-.51-4.38-2-4.38-4.8V62a27.06 27.06 0 0 0-.26-3.33h4.74A24.22 24.22 0 0 0 45.1 62v6a89.33 89.33 0 0 0 11.17-3.59 28 28 0 0 0 3.49-1.72l1.73 4c-1.25.51-2.66 1.12-3.75 1.53a127.34 127.34 0 0 1-12.64 3.97zM72.4 69c1.15.1 3.49.19 5.15.19h17.19c1.47 0 2.91-.13 3.74-.19v5c-.77 0-2.4-.16-3.74-.16H77.55c-1.82 0-4 .07-5.15.16zm58.24 7.48a92.13 92.13 0 0 0-11.55-4.77v9.05c0 .93.16 3.17.29 4.45h-5a32.94 32.94 0 0 0 .32-4.45V62.4a21.74 21.74 0 0 0-.32-3.87h5a34.16 34.16 0 0 0-.29 3.87v4.7a104.36 104.36 0 0 1 13.37 5zm21.47-6.18l-2.33 3.58a85.93 85.93 0 0 0-7.3-4.54l2.34-3.55c2.18 1.15 5.66 3.36 7.29 4.51zm2.59 7.33a32.6 32.6 0 0 0 12.45-12l2.46 4.37a38.52 38.52 0 0 1-12.73 11.49 39.35 39.35 0 0 1-10.69 4l-2.4-4.23a35.37 35.37 0 0 0 10.91-3.63zm2.3-14.56l-2.4 3.55c-1.79-1.25-5.12-3.42-7.23-4.61l2.33-3.52c2.16 1.19 5.68 3.43 7.3 4.58zm43.37 20.99v2.18h-4v-1.28h-12.1c-.89 0-2.21.06-2.75.09v-3.93c.54.06 1.63.12 2.78.12h12.1V77h-10.21c-1.21 0-2.75 0-3.49.06v-3.78c.84.06 2.28.09 3.49.09h10.21V69.5h-10.56c-1.18 0-3.2.07-4 .13v-3.87c.83.09 2.79.16 4 .16h12.1c.76 0 1.95 0 2.46-.07V68zM222 73.79l-3.91 1.47a63.51 63.51 0 0 0-2.91-7.39l3.82-1.38c.79 1.64 2.33 5.51 3 7.3zm16.25-6.66c-.38 1-.57 1.7-.76 2.34a25.83 25.83 0 0 1-4.36 9.37 25 25 0 0 1-10.72 7.94L219 83.36a21.57 21.57 0 0 0 10.63-6.69 21.61 21.61 0 0 0 4.06-11zM229 71.8l-3.84 1.35a53 53 0 0 0-2.55-7.15l3.81-1.24c.58 1.41 2.17 5.57 2.58 7.04zm45.22-7.87a12.66 12.66 0 0 0-1.05 2.31 33.53 33.53 0 0 1-5.57 10.68c-3 3.72-6.91 6.63-12.93 9l-3.77-3.39c6.56-2 10.11-4.74 12.89-7.91a22.76 22.76 0 0 0 4.55-8.73h-9a36.26 36.26 0 0 1-8.06 7.74L247.7 71a28.14 28.14 0 0 0 10-10.3 15.45 15.45 0 0 0 1.44-3.36l4.67 1.54c-.77 1.12-1.57 2.56-2 3.26l-.1.16h6.44a10.43 10.43 0 0 0 2.78-.38zm15.91-4.51a26 26 0 0 0-.77 2.82 77.89 77.89 0 0 0-1.54 11.61 16.36 16.36 0 0 0 .18 2.05c.45-1.12 1-2.18 1.41-3.2l2 1.54a75.65 75.65 0 0 0-2.34 7.76 10.05 10.05 0 0 0-.19 1.47c0 .36 0 .87.06 1.32l-3.64.25a40.46 40.46 0 0 1-1.25-10.37 88.24 88.24 0 0 1 1.31-12.54 23.21 23.21 0 0 0 .32-3.1zm7.42 15.65a10.64 10.64 0 0 0-.38 2.65c0 1.41 1.21 2.24 4.41 2.24a36.29 36.29 0 0 0 7.94-.83l.1 4.29a44.46 44.46 0 0 1-8.2.64c-5.47 0-8.06-2-8.06-5.22a19.44 19.44 0 0 1 .54-4.12zm11.07-13.57v4.1a88.08 88.08 0 0 1-13.59 0v-4.1a64 64 0 0 0 13.59 0zM341.33 84a24.25 24.25 0 0 0-7-5v1.08c0 2.79-1.44 5.48-6.75 5.48-4.51 0-8.22-1.48-8.22-5.8 0-3.29 2.81-5.92 8.64-5.92.64 0 1.28 0 1.88.1-.09-2.46-.22-5.18-.22-6.85 0-1.92 0-3.8-.06-5.15a21 21 0 0 0-.32-3.71h4.76c-.12.93-.22 2.46-.28 3.71v2.31c2.49-.07 6.2-.2 8.83-.48l.16 3.77c-2.66.26-6.43.38-9 .45.06 1.92.19 4.41.35 6.75a25.12 25.12 0 0 1 9.63 5.44zM330 77.66a17.15 17.15 0 0 0-2.62-.22c-2.47 0-3.94.83-3.94 2.17 0 1.57 1.6 2.15 3.81 2.15 2.05 0 2.78-.93 2.78-3 .03-.3.03-.68-.03-1.1zm45.79-15.77c-.77.48-1.5 1-2.21 1.44-1.69 1.18-5 4-7 5.59a10.91 10.91 0 0 1 3-.35c5.38 0 9.47 3.36 9.47 8 0 5-3.8 9-11.45 9-4.42 0-7.75-2-7.75-5.18 0-2.56 2.34-4.93 5.7-4.93 3.9 0 6.27 2.4 6.75 5.41a4.62 4.62 0 0 0 2.59-4.32c0-2.85-2.88-4.77-6.56-4.77-4.86 0-8 2.59-11.42 6.43l-2.88-3c2.24-1.83 6.05-5.06 7.94-6.6s5.05-4.12 6.62-5.5c-1.63 0-6 .22-7.65.35a20.26 20.26 0 0 0-2.59.26l-.13-4.13a28 28 0 0 0 2.88.16c1.67 0 8.45-.16 10.24-.32a15.21 15.21 0 0 0 2.43-.32zm-7.17 19.93c-.19-2-1.37-3.39-3.1-3.39-1.18 0-1.95.7-1.95 1.5 0 1.19 1.34 2 3.2 2a17.5 17.5 0 0 0 1.85-.11zm43.94.99c1.09 0 1.28-.86 1.44-4.8a11 11 0 0 0 3.45 1.57c-.41 5-1.37 6.75-4.54 6.75h-4.22c-3.59 0-4.58-1.21-4.58-5.28V62.69H397l.54.12c-.35 1.09-.77 2.18-1.25 3.3h4l.64-.13 2.46.83c-1.66 10.27-6 16.64-12.15 19.75a13.64 13.64 0 0 0-2.76-3 17.47 17.47 0 0 0 7.27-6.11 48 48 0 0 0-4.32-3 18 18 0 0 1-1.6 1.73 20.79 20.79 0 0 0-2.83-2.46c3-2.65 5.28-7.16 6.46-11H388V59h28.54v3.65H408V71a42.59 42.59 0 0 0 5.7-4.38l2.85 3.3A81.7 81.7 0 0 1 408 75v6.08c0 1.54.16 1.76 1.28 1.76zm-17.92-13.24c-.38.7-.8 1.37-1.22 2a40.92 40.92 0 0 1 4.07 2.5 24.92 24.92 0 0 0 1.51-4.5zm45.63.19c-1.25.89-2.46 1.72-3.77 2.56h11.61v14.2h-4v-.83h-11v1h-3.81v-10.5c-1.6.7-3.26 1.41-4.9 2a21.51 21.51 0 0 0-2.33-3.13 57.17 57.17 0 0 0 11.93-5.3h-10.88V66.4h10.27v-2.91h-7.52v-3.3h7.52v-3.46h3.78v3.46h6.94v1.57a37.92 37.92 0 0 0 3.3-4.07l3.26 1.67a47.08 47.08 0 0 1-6.3 7h7.42v3.36zm3.87 5.66h-11v2h11zm0 7.1v-2.17h-11v2.17zm-7-16.12h1.76a44.52 44.52 0 0 0 3.45-2.91h-5.21zm28.67-7.17a26 26 0 0 0-.77 2.82 83.69 83.69 0 0 0-1.5 12.25 14.11 14.11 0 0 0 .13 2c.41-1.12.92-2.18 1.4-3.23l2 1.56a77.56 77.56 0 0 0-2.28 7.56 6.66 6.66 0 0 0-.16 1.47v1.31l-3.59.26a38.25 38.25 0 0 1-1.25-10.11A92.86 92.86 0 0 1 461.11 62a25.32 25.32 0 0 0 .28-3.1zm19.45 23.9a32.42 32.42 0 0 0-3.84-3.13c-.19 3-1.92 5.19-6.2 5.19s-7.11-1.86-7.11-5.19 2.72-5.44 7-5.44a15.07 15.07 0 0 1 2.08.13c-.09-2-.19-4.25-.22-6.49h-2.27c-1.86 0-3.65-.06-5.54-.19v-3.79a53.22 53.22 0 0 0 5.54.29h2.24c0-1.57 0-2.85-.07-3.52a17.06 17.06 0 0 0-.19-2.08h4.54c-.09.61-.16 1.37-.19 2s-.09 1.88-.09 3.29c1.72-.19 3.39-.41 4.89-.73v3.93c-1.53.23-3.2.42-4.93.54.07 3.08.23 5.6.36 7.75a20.29 20.29 0 0 1 6.11 4.09zM477.39 78a10 10 0 0 0-2.56-.35c-1.79 0-3 .73-3 1.92s1.29 1.85 2.95 1.85c2 0 2.62-1 2.62-2.88zm-342.51 49.64a23.68 23.68 0 0 1-4.9 7.49 28 28 0 0 0 12 4.48 16.69 16.69 0 0 0-2.47 3.62 27.82 27.82 0 0 1-12.61-5.41 34.77 34.77 0 0 1-12.48 5.47 20.3 20.3 0 0 0-2.39-3.58 31.73 31.73 0 0 0 12.06-4.61 27.74 27.74 0 0 1-4.42-7.36l3.65-1.09a19.12 19.12 0 0 0 3.68 5.92 17.62 17.62 0 0 0 3.74-6.11zm-10.4-5.12a35.72 35.72 0 0 1-8.83 7.84 30.9 30.9 0 0 0-3.2-2.94 24.55 24.55 0 0 0 8.09-6.43zm8.61-1.79H112.9V117H125v-3.71h3.91V117h12.25v3.71h-7.87a52.42 52.42 0 0 1 8.29 6.72l-3.39 2.62c-1.6-2-5.25-5-8.13-7.13zM155 136c1.25 2.15 3.46 3 6.72 3.17 3.81.16 11.39.06 15.78-.29a15.78 15.78 0 0 0-1.19 3.71c-3.93.2-10.72.26-14.62.1s-6.37-1.09-8.29-3.55c-1.47 1.25-3 2.49-4.77 3.84l-1.76-3.81a43.36 43.36 0 0 0 4.48-2.91v-7h-4.06v-3.49H155zm-1.89-14.3a26.06 26.06 0 0 0-5.34-5.22l2.62-2.43a27.22 27.22 0 0 1 5.57 4.93zm8.19 16.16h-3.58v-16.52h7.17c-1.44-.67-3-1.31-4.29-1.83l2.46-2c1.12.41 2.47.92 3.78 1.5a29.84 29.84 0 0 0 2.56-1.69h-11.35v-2.92h14.69l.73-.2 2.27 1.83a36.61 36.61 0 0 1-5.69 4.32c.7.35 1.37.67 1.92 1h3.87v13.18c0 1.54-.29 2.34-1.31 2.85s-2.4.54-4.32.54a10.39 10.39 0 0 0-.93-3h2.43c.32 0 .48-.16.48-.48V133h-3.77v4.67H165V133h-3.68zm0-13.73v1.73h3.7v-1.73zm3.68 6.18v-1.8h-3.68v1.8zm7.17-6.18h-3.77v1.73h3.77zm0 6.18v-1.8h-3.77v1.8zm40.04 4.02h-3.33v5.57H205v-1.31h-5.76v1c0 1.88-.45 2.65-1.69 3.2s-2.95.54-5.67.54a11.62 11.62 0 0 0-1.25-3c1.54.07 3.43.07 3.94.07s.8-.23.8-.8v-1h-9.73v-2.76h9.73v-1.5h-12.68v-2.91h12.67V130h-9.47v-2.56h9.47v-1.41h-8.67v-6.33h8.67v-1.31h-11.94v-3h11.94v-2.08h3.87v2.08h12.23v3h-12.23v1.31h9.09v6.33h-9.09v1.41h9.63v3.94h3.33zm-16.83-10.66v-1.53h-5v1.53zm3.87-1.53v1.53h5.19v-1.53zm0 9.28H205V130h-5.76zm5.76 2.91h-5.76v1.5H205zm40.55-11.71a35.13 35.13 0 0 1-4 12.16 15.75 15.75 0 0 0 6.4 5.15 13.74 13.74 0 0 0-2.6 3.3 17.62 17.62 0 0 1-6.24-5.16 22.66 22.66 0 0 1-7.2 5.12 15.63 15.63 0 0 0-2-3.26h-7.4v1.89H219v-14.15h4.25v-4.92h-5.56v-3.55h5.56v-5.86H227v5.86h5.25v3.55H227v4.92h3.52a10.5 10.5 0 0 0-.9-.64c2.85-3.1 4.61-8.22 5.48-13.69l3.9.61c-.32 1.72-.74 3.45-1.22 5.09h9.76v3.58zm-17.92 8.61h-5.12v5.15h5.12zm3.61 7.93a16.65 16.65 0 0 0 5.76-4.38 37.49 37.49 0 0 1-2.75-7.23 17.26 17.26 0 0 1-1.41 2c-.35-.32-1-.86-1.6-1.37zm5.44-16.54a35.32 35.32 0 0 0 2.63 8.51 29.45 29.45 0 0 0 2.43-8.51zM266.88 138c1.22-.16 2.11-.32 2.94-.51 4.07-1 7.2-3.87 7.2-8.48 0-4.39-2.36-7.65-6.62-8.39a68.25 68.25 0 0 1-1.89 8.61c-1.89 6.4-4.64 10.31-8.09 10.31s-6.47-3.88-6.47-9.22c0-7.29 6.37-13.57 14.59-13.57 7.84 0 12.8 5.47 12.8 12.39 0 6.65-4.09 11.39-12.09 12.6zm-2.46-9.6a51.33 51.33 0 0 0 1.69-7.68 9.94 9.94 0 0 0-8 9.18c0 3.2 1.28 4.77 2.46 4.77s2.57-1.97 3.85-6.26zm40.58 5.9h-2.81v6.14h-4.39v-6.14h-10.12v-3.2l8.83-14.34h5.64v14H305zm-7.2-3.59v-4.83c0-1.37.13-3.52.19-4.89h-.12c-.58 1.24-1.22 2.56-1.89 3.84l-3.68 5.88zm13.53 7.11a2.93 2.93 0 1 1 2.91 3.07 2.94 2.94 0 0 1-2.91-3.07zm12.16-.16l2.18-3a7.34 7.34 0 0 0 5.21 2.4 4 4 0 0 0 4.19-4.35c0-2.75-1.6-4.29-4-4.29a5.66 5.66 0 0 0-3.55 1.25l-2.14-1.41.64-11.49h12.67v3.94h-8.61l-.45 5a6.11 6.11 0 0 1 2.85-.67c4 0 7.3 2.37 7.3 7.52a8 8 0 0 1-8.29 8.32 10.8 10.8 0 0 1-8-3.22zM356 114.59a51.48 51.48 0 0 1-3.07 6.59v22h-3.62v-16.37a29.72 29.72 0 0 1-2.17 2.56 24.9 24.9 0 0 0-2-3.94 34 34 0 0 0 7.26-12zm19.81 10.2v3.49h-21.38v-3.49h4.9a18.55 18.55 0 0 0-1.28-4.38l2.08-.48h-4.51v-3.39h7.61v-3.17h3.91v3.17h8v3.39H370l2.53.45c-.64 1.66-1.25 3.26-1.79 4.41zm-18.72 5.83h16.76v12.45H370v-1.19h-9.18v1.35h-3.71zm3.71 3.45v4.29h9.2v-4.29zm.73-14.14a18.36 18.36 0 0 1 1.41 4.42l-1.69.44h7.64l-1.69-.32a34.42 34.42 0 0 0 1.47-4.54zm31.05 17.66a3.33 3.33 0 0 1 6.65 0 3.33 3.33 0 0 1-6.65 0zm.54-16.32l-.13-4.76h5.86l-.16 4.76-1.12 11h-3.3z"/></g></g></svg>