<svg xmlns="http://www.w3.org/2000/svg" viewBox="0 0 545.26 124.3"><defs><style>.cls-1,.cls-2,.cls-61{fill:none}.cls-2{stroke:#060001;stroke-miterlimit:10;stroke-width:.5px}.cls-3{clip-path:url(#clip-path)}.cls-4{fill:url(#新規パターンスウォッチ_5)}.cls-5{clip-path:url(#clip-path-2)}.cls-6{fill:url(#新規パターンスウォッチ_5-3)}.cls-7{clip-path:url(#clip-path-3)}.cls-8{fill:url(#新規パターンスウォッチ_5-5)}.cls-9{clip-path:url(#clip-path-4)}.cls-10{fill:url(#新規パターンスウォッチ_5-7)}.cls-11{clip-path:url(#clip-path-5)}.cls-12{fill:url(#新規パターンスウォッチ_5-9)}.cls-13{clip-path:url(#clip-path-6)}.cls-14{fill:url(#新規パターンスウォッチ_5-11)}.cls-15{clip-path:url(#clip-path-7)}.cls-16{fill:url(#新規パターンスウォッチ_5-13)}.cls-17{clip-path:url(#clip-path-8)}.cls-18{fill:url(#新規パターンスウォッチ_5-15)}.cls-19{clip-path:url(#clip-path-9)}.cls-20{fill:url(#新規パターンスウォッチ_5-17)}.cls-21{clip-path:url(#clip-path-10)}.cls-22{fill:url(#新規パターンスウォッチ_5-19)}.cls-23{clip-path:url(#clip-path-11)}.cls-24{fill:url(#新規パターンスウォッチ_5-21)}.cls-25{clip-path:url(#clip-path-12)}.cls-26{fill:url(#新規パターンスウォッチ_5-23)}.cls-27{clip-path:url(#clip-path-13)}.cls-28{fill:url(#新規パターンスウォッチ_5-25)}.cls-29{clip-path:url(#clip-path-14)}.cls-30{fill:url(#新規パターンスウォッチ_5-27)}.cls-31{clip-path:url(#clip-path-15)}.cls-32{fill:url(#新規パターンスウォッチ_5-29)}.cls-33{clip-path:url(#clip-path-16)}.cls-34{fill:url(#新規パターンスウォッチ_5-31)}.cls-35{clip-path:url(#clip-path-17)}.cls-36{fill:url(#新規パターンスウォッチ_5-33)}.cls-37{clip-path:url(#clip-path-18)}.cls-38{fill:url(#新規パターンスウォッチ_5-35)}.cls-39{clip-path:url(#clip-path-19)}.cls-40{fill:url(#新規パターンスウォッチ_5-37)}.cls-41{clip-path:url(#clip-path-20)}.cls-42{fill:url(#新規パターンスウォッチ_5-39)}.cls-43{clip-path:url(#clip-path-21)}.cls-44{fill:url(#新規パターンスウォッチ_5-41)}.cls-45{clip-path:url(#clip-path-22)}.cls-46{fill:url(#新規パターンスウォッチ_5-43)}.cls-47{clip-path:url(#clip-path-23)}.cls-48{fill:url(#新規パターンスウォッチ_5-45)}.cls-49{clip-path:url(#clip-path-24)}.cls-50{fill:url(#新規パターンスウォッチ_5-47)}.cls-51{clip-path:url(#clip-path-25)}.cls-52{fill:url(#新規パターンスウォッチ_5-49)}.cls-53{clip-path:url(#clip-path-26)}.cls-54{fill:url(#新規パターンスウォッチ_5-51)}.cls-55{clip-path:url(#clip-path-27)}.cls-56{fill:url(#新規パターンスウォッチ_5-53)}.cls-57{clip-path:url(#clip-path-28)}.cls-58{fill:url(#新規パターンスウォッチ_5-55)}.cls-59{clip-path:url(#clip-path-29)}.cls-60{fill:url(#新規パターンスウォッチ_5-57)}.cls-61{stroke:#f9f1e7}</style><clipPath id="clip-path"><path class="cls-1" d="M34.12 34.23a40.69 40.69 0 0 1-2.27 12.2c2.17 2 5 2.47 8.33 2.5 1.77 0 7.24 0 9.37-.1a15.27 15.27 0 0 0-1.48 4.23h-8.15c-4.13 0-7.44-.62-10-2.8a14 14 0 0 1-2.95 3.13 15.51 15.51 0 0 0-2-3v3h-4.19v-16c-.43.62-.89 1.2-1.34 1.75a32 32 0 0 0-2-5.17A33.59 33.59 0 0 0 23 22.59l4.22 1.26c-.13.43-.26.82-.42 1.24H30l.65-.16 3 .75c-.85 2.47-2 5.39-3.14 8.22h.45l.73-.06zm-8-7.22c-.36 1-.76 1.92-1.18 2.86V37c1.15-2.6 2.36-5.66 3.34-8.2h-2.19zm2.16 11.93a18.22 18.22 0 0 0 .82 2.93 38 38 0 0 0 .85-4.62H29l-.53 1.24-3.6-.81v2.21zm-3.37 10.48a9.71 9.71 0 0 0 2.19-2.64 24.87 24.87 0 0 1-2.19-5.88zm13.2-21h-3.7v-3.36h3.7v-2.31h4.3v2.31h5.34v4.23h1.44v3.35h-1.44v4.29h-5.34v1h5.4v3.35h-5.4v1.08h6.16v3.35h-6.16v2.53h-4.3v-2.56h-4.75v-3.35h4.75v-1.08h-4V37.9h4v-1h-3.7v-3.32h3.7v-.94h-5.76v-3.35h5.76zm4.3 0v.88h1.37v-.88zm1.37 4.23h-1.37v.94h1.37z"/></clipPath><pattern id="新規パターンスウォッチ_5" data-name="新規パターンスウォッチ 5" width="45.25" height="45" patternTransform="rotate(-55.6 13.244 111.308) scale(1.15)" patternUnits="userSpaceOnUse" viewBox="0 0 45.25 45"><path class="cls-1" d="M0 0h45.25v45H0z"/><path class="cls-2" d="M.25 0v45M1.61 0v45M2.98 0v45M4.34 0v45M5.7 0v45M7.07 0v45M8.43 0v45M9.8 0v45m1.36-45v45m1.36-45v45m1.37-45v45m1.36-45v45m1.36-45v45m1.37-45v45m1.36-45v45M20.7 0v45m1.37-45v45m1.36-45v45M24.8 0v45m1.36-45v45m1.36-45v45m1.37-45v45m1.36-45v45m1.36-45v45m1.37-45v45m1.36-45v45M35.7 0v45m1.37-45v45m1.36-45v45M39.8 0v45m1.36-45v45m1.36-45v45m1.37-45v45"/><path class="cls-1" d="M.25 0h45v45h-45z"/></pattern><clipPath id="clip-path-2"><path class="cls-1" d="M82.35 41.68h-1.57l3.34 2.66c-1.48.88-3.05 1.79-4.49 2.48a15.61 15.61 0 0 0 5.05 2.44 16.32 16.32 0 0 0-2.89 3.8 15.61 15.61 0 0 1-7.44-5.76V49c0 2.17-.45 3.18-1.86 3.8s-3.35.68-6.07.68a13.39 13.39 0 0 0-.85-2.79c-1.18.55-2.29 1.1-3.34 1.59L60 48.54c1.47-.46 3.44-1.17 5.53-1.95a22.91 22.91 0 0 0-4.39-2.8l2.13-2.11H63v-3.09h6.8v-1h-8.13v-3.23h8.13v-.94h-6.42v-3.09h6.42v-1h-8.59v5.27c0 5.46-.52 13.85-3.6 19a18 18 0 0 0-3.87-2.6c2.76-4.65 2.95-11.55 2.95-16.42v-9.39h11.54v-2.67h5v2.67h11.51v4.1H74.35v1h8v4h2.79v3.22h-2.79zm-14.61 8h1.31c.55 0 .75-.16.75-.65v-7.35h-5.14a24 24 0 0 1 3.8 2.32l-2.4 2.44 2.36-.91.86 3.39zm6.61-15.29h3.51v-.94h-3.51zm0 4.23h3.51v-1h-3.51zm1.09 3.09A13.93 13.93 0 0 0 77 44.25a34 34 0 0 0 3.47-2.57z"/></clipPath><pattern id="新規パターンスウォッチ_5-3" data-name="新規パターンスウォッチ 5" width="45.25" height="45" patternTransform="rotate(-55.6 31.359 76.95) scale(1.15)" patternUnits="userSpaceOnUse" viewBox="0 0 45.25 45"><path class="cls-1" d="M0 0h45.25v45H0z"/><path class="cls-2" d="M.25 0v45M1.61 0v45M2.98 0v45M4.34 0v45M5.7 0v45M7.07 0v45M8.43 0v45M9.8 0v45m1.36-45v45m1.36-45v45m1.37-45v45m1.36-45v45m1.36-45v45m1.37-45v45m1.36-45v45M20.7 0v45m1.37-45v45m1.36-45v45M24.8 0v45m1.36-45v45m1.36-45v45m1.37-45v45m1.36-45v45m1.36-45v45m1.37-45v45m1.36-45v45M35.7 0v45m1.37-45v45m1.36-45v45M39.8 0v45m1.36-45v45m1.36-45v45m1.37-45v45"/><path class="cls-1" d="M.25 0h45v45h-45z"/></pattern><clipPath id="clip-path-3"><path class="cls-1" d="M105.58 45.48c.07-.81.13-2 .17-3.22-2 1.17-2.92 2.21-2.92 3.52s1 1.91 4.06 1.91a49.29 49.29 0 0 0 9.44-1l-.16 5a88.12 88.12 0 0 1-9.37.55c-5.35 0-9.18-1.37-9.18-5.66s3.87-6.89 7.47-8.78a2.44 2.44 0 0 0-1.77-.65 7.77 7.77 0 0 0-4.78 2.15 37.13 37.13 0 0 0-3 3.64l-4.19-3.12a29.83 29.83 0 0 0 7-8.3c-1.35 0-3.71-.06-5.41-.22v-4.49a42.49 42.49 0 0 0 5.83.39H100a19.21 19.21 0 0 0 .56-3.51l5.17.42A27.44 27.44 0 0 1 105 27a74 74 0 0 0 8.75-.91v4.52c-3 .39-7 .69-10.49.82a19 19 0 0 1-1.26 2.31 16.06 16.06 0 0 1 3.21-.32 4.75 4.75 0 0 1 4.33 2.27c1.31-.61 2.35-1 3.5-1.56 1.41-.62 2.75-1.23 4.13-1.88l1.93 4.48c-1.14.33-3.18 1.08-4.42 1.57s-2.82 1.07-4.52 1.82c0 1.75.1 3.93.13 5.36z"/></clipPath><pattern id="新規パターンスウォッチ_5-5" data-name="新規パターンスウォッチ 5" width="45.25" height="45" patternTransform="rotate(-55.6 47.399 44.067) scale(1.15)" patternUnits="userSpaceOnUse" viewBox="0 0 45.25 45"><path class="cls-1" d="M0 0h45.25v45H0z"/><path class="cls-2" d="M.25 0v45M1.61 0v45M2.98 0v45M4.34 0v45M5.7 0v45M7.07 0v45M8.43 0v45M9.8 0v45m1.36-45v45m1.36-45v45m1.37-45v45m1.36-45v45m1.36-45v45m1.37-45v45m1.36-45v45M20.7 0v45m1.37-45v45m1.36-45v45M24.8 0v45m1.36-45v45m1.36-45v45m1.37-45v45m1.36-45v45m1.36-45v45m1.37-45v45m1.36-45v45M35.7 0v45m1.37-45v45m1.36-45v45M39.8 0v45m1.36-45v45m1.36-45v45m1.37-45v45"/><path class="cls-1" d="M.25 0h45v45h-45z"/></pattern><clipPath id="clip-path-4"><path class="cls-1" d="M157.13 31.3s-.07.85-.13 1.34c-.3 2.5-.69 3.87-1.41 4.55a3.69 3.69 0 0 1-2.3.88 33.22 33.22 0 0 1-3.57 0 7.34 7.34 0 0 0-.79-2.83c-1.17 1.37-3 2.37-6 3.09h9.11v10.9c0 2.14-.56 3.09-2.13 3.64s-3.67.55-6.32.55a14.55 14.55 0 0 0-1.45-3.67c1.45.09 3.71.09 4.2.09s.79-.16.79-.65v-.29h-10.88v4.52h-4.85V38.36h11.11a8.2 8.2 0 0 0-1.9-2.63 9.7 9.7 0 0 0 4.52-1.86h-3.57V31.3h5a7.32 7.32 0 0 0 .19-1.17c-.85 0-1.87 0-2.91-.1a6.48 6.48 0 0 0-.89-2.76 34 34 0 0 0 3.7.13 1.8 1.8 0 0 0 1.18-.23 1.57 1.57 0 0 0 .49-.62h-5.73c-1.34 1.66-3.67 2.7-8 3.32h.68c-.06.49-.09 1-.19 1.43h6.06a11.13 11.13 0 0 1-.2 1.4c-.42 2.44-.95 3.77-1.64 4.42a3.47 3.47 0 0 1-2.09.85 20.88 20.88 0 0 1-3.05 0 7.27 7.27 0 0 0-.62-2.53 9.87 9.87 0 0 1-5.48 3.61 8.78 8.78 0 0 0-2.06-2.8 7.46 7.46 0 0 0 4.09-2.38h-3.44V31.3h4.52c.07-.32.1-.68.17-1.07-.53.06-1.08.1-1.64.13a7.49 7.49 0 0 0-1.51-2.77 33.7 33.7 0 0 0 8.13-1h-6.78v-2.7h10a8.87 8.87 0 0 0 .33-1.43h4.32a8.61 8.61 0 0 1-.29 1.43h9.6a9 9 0 0 1-.23 1.5c-.43 2.21-1 3.38-1.8 4a4 4 0 0 1-1.15.52h.59c-.06.49-.13 1-.23 1.43zm-22.71 2.57a9 9 0 0 1-.59 1.21h1.41a1 1 0 0 0 .82-.26 3 3 0 0 0 .55-1zm12.75 7.55h-10.92v.88h10.92zm0 4.58v-.88h-10.92V46zm2.68-12.13a5.05 5.05 0 0 1-.78 1.27c.88.07 1.7.1 2.09.1a1.08 1.08 0 0 0 .89-.26 2.4 2.4 0 0 0 .46-1.11z"/></clipPath><pattern id="新規パターンスウォッチ_5-7" data-name="新規パターンスウォッチ 5" width="45.25" height="45" patternTransform="rotate(-55.6 61.474 7.579) scale(1.15)" patternUnits="userSpaceOnUse" viewBox="0 0 45.25 45"><path class="cls-1" d="M0 0h45.25v45H0z"/><path class="cls-2" d="M.25 0v45M1.61 0v45M2.98 0v45M4.34 0v45M5.7 0v45M7.07 0v45M8.43 0v45M9.8 0v45m1.36-45v45m1.36-45v45m1.37-45v45m1.36-45v45m1.36-45v45m1.37-45v45m1.36-45v45M20.7 0v45m1.37-45v45m1.36-45v45M24.8 0v45m1.36-45v45m1.36-45v45m1.37-45v45m1.36-45v45m1.36-45v45m1.37-45v45m1.36-45v45M35.7 0v45m1.37-45v45m1.36-45v45M39.8 0v45m1.36-45v45m1.36-45v45m1.37-45v45"/><path class="cls-1" d="M.25 0h45v45h-45z"/></pattern><clipPath id="clip-path-5"><path class="cls-1" d="M177 24.57c-.23 1-.49 2.18-.69 3.09s-.36 1.76-.55 2.6c.85-.06 1.6-.1 2.19-.1 3.74 0 6.19 1.76 6.19 6.57 0 3.78-.42 9-1.8 11.81-1.11 2.31-3 3.12-5.67 3.12a19.47 19.47 0 0 1-3.93-.45l-.85-5.14a21.21 21.21 0 0 0 4 .68 2.22 2.22 0 0 0 2.2-1.23c.82-1.6 1.21-5.27 1.21-8.27 0-2.34-1-2.63-3-2.63-.36 0-.92 0-1.51.07-1.31 5-3.73 12.74-6.49 17.17l-5.14-2c3.08-4.13 5.18-10.15 6.39-14.54l-2 .29c-1 .13-2.92.39-4 .59l-.55-5.29a36.47 36.47 0 0 0 3.77 0c1 0 2.3-.13 3.74-.23a32.29 32.29 0 0 0 .62-6.73zm11.21 2.76a59.83 59.83 0 0 1 5.57 12.27l-5 2.3c-.79-3.74-2.95-9.62-5.31-12.61z"/></clipPath><pattern id="新規パターンスウォッチ_5-9" data-name="新規パターンスウォッチ 5" width="45.25" height="45" patternTransform="rotate(-55.6 83.629 -24.65) scale(1.15)" patternUnits="userSpaceOnUse" viewBox="0 0 45.25 45"><path class="cls-1" d="M0 0h45.25v45H0z"/><path class="cls-2" d="M.25 0v45M1.61 0v45M2.98 0v45M4.34 0v45M5.7 0v45M7.07 0v45M8.43 0v45M9.8 0v45m1.36-45v45m1.36-45v45m1.37-45v45m1.36-45v45m1.36-45v45m1.37-45v45m1.36-45v45M20.7 0v45m1.37-45v45m1.36-45v45M24.8 0v45m1.36-45v45m1.36-45v45m1.37-45v45m1.36-45v45m1.36-45v45m1.37-45v45m1.36-45v45M35.7 0v45m1.37-45v45m1.36-45v45M39.8 0v45m1.36-45v45m1.36-45v45m1.37-45v45"/><path class="cls-1" d="M.25 0h45v45h-45z"/></pattern><clipPath id="clip-path-6"><path class="cls-1" d="M228 32.08c-1.93-.09-5-.16-9.07-.19v4.49a8.4 8.4 0 0 1 1.31 4.62c0 4.13-2.69 9.72-10.81 11.9l-4.17-4.16c2.82-.56 5.54-1.34 7.44-2.83a3.82 3.82 0 0 1-.59 0 6 6 0 0 1-5.77-6.18c0-3.9 3.15-6.28 6.92-6.28a5.43 5.43 0 0 1 .82 0v-1.63c-4.89.07-9.67.26-13.64.46l-.13-4.69c3.77 0 9.51-.1 13.7-.16v-.36c-.1-1.23-.23-2.6-.36-3.22h5.67c-.1.62-.23 2.6-.27 3.19v.36c3 0 7.38-.07 9.08 0zm-14.87 9.6c1.05 0 2.13-.75 1.77-3.22a2.12 2.12 0 0 0-1.77-.85 2 2 0 0 0-2.07 2.08 2.06 2.06 0 0 0 2.07 1.99z"/></clipPath><pattern id="新規パターンスウォッチ_5-11" data-name="新規パターンスウォッチ 5" width="45.25" height="45" patternTransform="rotate(-55.6 124.2 -12.918) scale(1.15)" patternUnits="userSpaceOnUse" viewBox="0 0 45.25 45"><path class="cls-1" d="M0 0h45.25v45H0z"/><path class="cls-2" d="M.25 0v45M1.61 0v45M2.98 0v45M4.34 0v45M5.7 0v45M7.07 0v45M8.43 0v45M9.8 0v45m1.36-45v45m1.36-45v45m1.37-45v45m1.36-45v45m1.36-45v45m1.37-45v45m1.36-45v45M20.7 0v45m1.37-45v45m1.36-45v45M24.8 0v45m1.36-45v45m1.36-45v45m1.37-45v45m1.36-45v45m1.36-45v45m1.37-45v45m1.36-45v45M35.7 0v45m1.37-45v45m1.36-45v45M39.8 0v45m1.36-45v45m1.36-45v45m1.37-45v45"/><path class="cls-1" d="M.25 0h45v45h-45z"/></pattern><clipPath id="clip-path-7"><path class="cls-1" d="M264.31 37.45a51.57 51.57 0 0 1-5.6 3.58 15.82 15.82 0 0 0 6.68 6.08 18.55 18.55 0 0 0-3.31 4.13c-5.7-3.29-8.61-9.17-10.45-16.68a20.94 20.94 0 0 1-2.33 1.65c6.1 5.4 5.71 13.37 2.4 15.74a5.65 5.65 0 0 1-4.33 1.53 26 26 0 0 1-2.75-.06 10.77 10.77 0 0 0-1.05-4 55.67 55.67 0 0 1-6.23 2.6 19.09 19.09 0 0 0-2.49-3.91 38.88 38.88 0 0 0 13.5-6.11c-.09-.2-.19-.39-.32-.62a50.15 50.15 0 0 1-9.64 4.62 17.06 17.06 0 0 0-2.39-3.57 35.66 35.66 0 0 0 9.87-3.81c-.13-.13-.3-.26-.43-.39a50.85 50.85 0 0 1-7.63 2.6 24 24 0 0 0-2.4-3.67 41.77 41.77 0 0 0 9-2.6h-3.25v-4h17.27v4h-2.59a24.42 24.42 0 0 0 .95 2.73 31.43 31.43 0 0 0 3.74-3zm-23.89-4.72h-4.65v-7.8h11.6v-2.38h4.92v2.38h11.76v7.8h-4.88v-3.54h-18.75zm8.79 13.4a44 44 0 0 1-4.89 2.87c.79.06 1.51.06 2.13.06a2.08 2.08 0 0 0 1.87-.72 3.18 3.18 0 0 0 .89-2.21z"/></clipPath><pattern id="新規パターンスウォッチ_5-13" data-name="新規パターンスウォッチ 5" width="45.25" height="45" patternTransform="rotate(-55.6 96.908 -20.872) scale(1.15)" patternUnits="userSpaceOnUse" viewBox="0 0 45.25 45"><path class="cls-1" d="M0 0h45.25v45H0z"/><path class="cls-2" d="M.25 0v45M1.61 0v45M2.98 0v45M4.34 0v45M5.7 0v45M7.07 0v45M8.43 0v45M9.8 0v45m1.36-45v45m1.36-45v45m1.37-45v45m1.36-45v45m1.36-45v45m1.37-45v45m1.36-45v45M20.7 0v45m1.37-45v45m1.36-45v45M24.8 0v45m1.36-45v45m1.36-45v45m1.37-45v45m1.36-45v45m1.36-45v45m1.37-45v45m1.36-45v45M35.7 0v45m1.37-45v45m1.36-45v45M39.8 0v45m1.36-45v45m1.36-45v45m1.37-45v45"/><path class="cls-1" d="M.25 0h45v45h-45z"/></pattern><clipPath id="clip-path-8"><path class="cls-1" d="M277.55 52.8a66.79 66.79 0 0 0-6.95-7.12l4.17-3.55a59.53 59.53 0 0 1 7 7.06z"/></clipPath><pattern id="新規パターンスウォッチ_5-15" data-name="新規パターンスウォッチ 5" width="45.25" height="45" patternTransform="rotate(-55.6 66.845 -18.676) scale(1.15)" patternUnits="userSpaceOnUse" viewBox="0 0 45.25 45"><path class="cls-1" d="M0 0h45.25v45H0z"/><path class="cls-2" d="M.25 0v45M1.61 0v45M2.98 0v45M4.34 0v45M5.7 0v45M7.07 0v45M8.43 0v45M9.8 0v45m1.36-45v45m1.36-45v45m1.37-45v45m1.36-45v45m1.36-45v45m1.37-45v45m1.36-45v45M20.7 0v45m1.37-45v45m1.36-45v45M24.8 0v45m1.36-45v45m1.36-45v45m1.37-45v45m1.36-45v45m1.36-45v45m1.37-45v45m1.36-45v45M35.7 0v45m1.37-45v45m1.36-45v45M39.8 0v45m1.36-45v45m1.36-45v45m1.37-45v45"/><path class="cls-1" d="M.25 0h45v45h-45z"/></pattern><clipPath id="clip-path-9"><path class="cls-1" d="M306.09 34.23a40.4 40.4 0 0 1-2.26 12.2c2.16 2 5 2.47 8.32 2.5 1.77 0 7.24 0 9.37-.1a15.25 15.25 0 0 0-1.47 4.23h-8.16c-4.13 0-7.44-.62-10-2.8a14.14 14.14 0 0 1-2.94 3.13 15.13 15.13 0 0 0-2-3v3h-4.12v-16c-.43.62-.89 1.2-1.35 1.75a31 31 0 0 0-2-5.17A33.58 33.58 0 0 0 295 22.59l4.23 1.26c-.13.43-.26.82-.43 1.24h3.2l.66-.16 2.95.75c-.86 2.47-2 5.39-3.15 8.22h.46l.72-.06zm-8-7.22c-.36 1-.75 1.92-1.18 2.86V37c1.15-2.6 2.36-5.66 3.35-8.2h-2.17zm2.17 11.93a18.22 18.22 0 0 0 .82 2.93 38 38 0 0 0 .85-4.62H301l-.52 1.24-3.61-.81v2.21zm-3.35 10.48a9.56 9.56 0 0 0 2.2-2.64 24.85 24.85 0 0 1-2.2-5.88zm13.21-21h-3.7v-3.36h3.7v-2.31h4.29v2.31h5.34v4.23h1.44v3.35h-1.44v4.29h-5.34v1h5.41v3.35h-5.41v1.08h6.16v3.35h-6.16v2.53h-4.29v-2.56h-4.75v-3.35h4.75v-1.08h-4V37.9h4v-1h-3.7v-3.32h3.7v-.94h-5.77v-3.35h5.77zm4.29 0v.88h1.38v-.88zm1.38 4.23h-1.38v.94h1.38z"/></clipPath><pattern id="新規パターンスウォッチ_5-17" data-name="新規パターンスウォッチ 5" width="45.25" height="45" patternTransform="rotate(-55.6 77.725 -49.105) scale(1.15)" patternUnits="userSpaceOnUse" viewBox="0 0 45.25 45"><path class="cls-1" d="M0 0h45.25v45H0z"/><path class="cls-2" d="M.25 0v45M1.61 0v45M2.98 0v45M4.34 0v45M5.7 0v45M7.07 0v45M8.43 0v45M9.8 0v45m1.36-45v45m1.36-45v45m1.37-45v45m1.36-45v45m1.36-45v45m1.37-45v45m1.36-45v45M20.7 0v45m1.37-45v45m1.36-45v45M24.8 0v45m1.36-45v45m1.36-45v45m1.37-45v45m1.36-45v45m1.36-45v45m1.37-45v45m1.36-45v45M35.7 0v45m1.37-45v45m1.36-45v45M39.8 0v45m1.36-45v45m1.36-45v45m1.37-45v45"/><path class="cls-1" d="M.25 0h45v45h-45z"/></pattern><clipPath id="clip-path-10"><path class="cls-1" d="M354.33 41.68h-1.58l3.35 2.66c-1.48.88-3.05 1.79-4.49 2.48a15.65 15.65 0 0 0 5 2.44 16.28 16.28 0 0 0-2.88 3.8 15.61 15.61 0 0 1-7.44-5.76V49c0 2.17-.46 3.18-1.87 3.8s-3.34.68-6.06.68a14 14 0 0 0-.85-2.79c-1.18.55-2.3 1.1-3.34 1.59L332 48.54c1.48-.46 3.44-1.17 5.54-1.95a22.91 22.91 0 0 0-4.39-2.8l2.13-2.11h-.36v-3.09h6.85v-1h-8.13v-3.23h8.13v-.94h-6.43v-3.09h6.43v-1h-8.59v5.27c0 5.46-.52 13.85-3.6 19a18 18 0 0 0-3.86-2.6c2.75-4.65 2.95-11.55 2.95-16.42v-9.39h11.53v-2.67h5v2.67h11.54v4.1h-10.41v1h8v4h2.78v3.22h-2.78zm-14.62 8h1.31c.56 0 .76-.16.76-.65v-7.35h-5.15a23.08 23.08 0 0 1 3.8 2.27L338 46.39l2.36-.91.85 3.39zm6.62-15.29h3.51v-.94h-3.51zm0 4.23h3.51v-1h-3.51zm1.08 3.09a14.5 14.5 0 0 0 1.59 2.54 33.15 33.15 0 0 0 3.48-2.57z"/></clipPath><pattern id="新規パターンスウォッチ_5-19" data-name="新規パターンスウォッチ 5" width="45.25" height="45" patternTransform="rotate(-55.6 49.373 -55.049) scale(1.15)" patternUnits="userSpaceOnUse" viewBox="0 0 45.25 45"><path class="cls-1" d="M0 0h45.25v45H0z"/><path class="cls-2" d="M.25 0v45M1.61 0v45M2.98 0v45M4.34 0v45M5.7 0v45M7.07 0v45M8.43 0v45M9.8 0v45m1.36-45v45m1.36-45v45m1.37-45v45m1.36-45v45m1.36-45v45m1.37-45v45m1.36-45v45M20.7 0v45m1.37-45v45m1.36-45v45M24.8 0v45m1.36-45v45m1.36-45v45m1.37-45v45m1.36-45v45m1.36-45v45m1.37-45v45m1.36-45v45M35.7 0v45m1.37-45v45m1.36-45v45M39.8 0v45m1.36-45v45m1.36-45v45m1.37-45v45"/><path class="cls-1" d="M.25 0h45v45h-45z"/></pattern><clipPath id="clip-path-11"><path class="cls-1" d="M377.56 45.48c.06-.81.13-2 .16-3.22-2 1.17-2.91 2.21-2.91 3.52s1 1.91 4.06 1.91a49.38 49.38 0 0 0 9.44-1l-.17 5a88.12 88.12 0 0 1-9.37.55c-5.34 0-9.17-1.37-9.17-5.66s3.86-6.89 7.47-8.78a2.44 2.44 0 0 0-1.77-.65 7.82 7.82 0 0 0-4.79 2.15 37.16 37.16 0 0 0-3 3.64l-4.2-3.12a29.66 29.66 0 0 0 6.95-8.3c-1.34 0-3.7-.06-5.4-.22v-4.49a42.38 42.38 0 0 0 5.83.39H372a18.2 18.2 0 0 0 .55-3.51l5.18.42A27.44 27.44 0 0 1 377 27a74.21 74.21 0 0 0 8.75-.91v4.52c-3 .39-7 .69-10.48.82a17.66 17.66 0 0 1-1.27 2.31 16.24 16.24 0 0 1 3.22-.32 4.73 4.73 0 0 1 4.32 2.27c1.31-.61 2.36-1 3.51-1.56 1.41-.62 2.75-1.23 4.12-1.88l1.94 4.48c-1.15.33-3.18 1.08-4.43 1.57s-2.81 1.07-4.52 1.82c0 1.75.1 3.93.13 5.36z"/></clipPath><pattern id="新規パターンスウォッチ_5-21" data-name="新規パターンスウォッチ 5" width="45.25" height="45" patternTransform="rotate(-55.6 89.354 -39.738) scale(1.15)" patternUnits="userSpaceOnUse" viewBox="0 0 45.25 45"><path class="cls-1" d="M0 0h45.25v45H0z"/><path class="cls-2" d="M.25 0v45M1.61 0v45M2.98 0v45M4.34 0v45M5.7 0v45M7.07 0v45M8.43 0v45M9.8 0v45m1.36-45v45m1.36-45v45m1.37-45v45m1.36-45v45m1.36-45v45m1.37-45v45m1.36-45v45M20.7 0v45m1.37-45v45m1.36-45v45M24.8 0v45m1.36-45v45m1.36-45v45m1.37-45v45m1.36-45v45m1.36-45v45m1.37-45v45m1.36-45v45M35.7 0v45m1.37-45v45m1.36-45v45M39.8 0v45m1.36-45v45m1.36-45v45m1.37-45v45"/><path class="cls-1" d="M.25 0h45v45h-45z"/></pattern><clipPath id="clip-path-12"><path class="cls-1" d="M428.45 39.27h-7.83v8.85c0 2.53-.53 3.8-2.23 4.52s-4.1.81-7.15.81a18.47 18.47 0 0 0-1.63-4.81c2 .1 4.45.1 5.17.1s.92-.17.92-.72v-8.75h-16.78v-4.62h16.78V31h4.92v3.61h7.83zm-24.22-5.63h-4.85v-8.22h11.67v-2.9h5.11v2.9h11.7v8.22h-5.11v-3.77h-18.52zm1.87 5.92a27.47 27.47 0 0 1 5 6.38l-4.1 2.7a28.42 28.42 0 0 0-4.7-6.64z"/></clipPath><pattern id="新規パターンスウォッチ_5-23" data-name="新規パターンスウォッチ 5" width="45.25" height="45" patternTransform="rotate(-55.6 56.426 -46.797) scale(1.15)" patternUnits="userSpaceOnUse" viewBox="0 0 45.25 45"><path class="cls-1" d="M0 0h45.25v45H0z"/><path class="cls-2" d="M.25 0v45M1.61 0v45M2.98 0v45M4.34 0v45M5.7 0v45M7.07 0v45M8.43 0v45M9.8 0v45m1.36-45v45m1.36-45v45m1.37-45v45m1.36-45v45m1.36-45v45m1.37-45v45m1.36-45v45M20.7 0v45m1.37-45v45m1.36-45v45M24.8 0v45m1.36-45v45m1.36-45v45m1.37-45v45m1.36-45v45m1.36-45v45m1.37-45v45m1.36-45v45M35.7 0v45m1.37-45v45m1.36-45v45M39.8 0v45m1.36-45v45m1.36-45v45m1.37-45v45"/><path class="cls-1" d="M.25 0h45v45h-45z"/></pattern><clipPath id="clip-path-13"><path class="cls-1" d="M459.12 28.18c-.85.52-1.67 1-2.49 1.56-1.84 1.24-4.69 3.55-6.46 4.91a11.18 11.18 0 0 1 2.26-.19c5.57 0 10 3.54 10 8.39 0 5-3.66 9.43-12.05 9.43-4.59 0-8.39-2.11-8.39-5.66 0-2.83 2.62-5.46 6.29-5.46 4 0 6.52 2.27 7.08 5.33a4.27 4.27 0 0 0 1.9-3.71c0-2.76-2.85-4.48-6.42-4.48-4.76 0-8.16 2.82-11.28 6.6L436 41.22c2.1-1.62 5.87-4.81 7.8-6.37s4.82-3.81 6.39-5.21c-1.64 0-5 .17-6.72.3-1 .06-2.13.16-2.91.29l-.17-5a27.52 27.52 0 0 0 3.31.19c1.74 0 8.23-.09 10.16-.26a17.23 17.23 0 0 0 2.88-.39zm-8.32 19.61c-.17-1.79-1.15-2.93-2.53-2.93-1 0-1.67.62-1.67 1.27 0 1 1.08 1.73 2.72 1.73.53 0 1.02-.04 1.48-.07z"/></clipPath><pattern id="新規パターンスウォッチ_5-25" data-name="新規パターンスウォッチ 5" width="45.25" height="45" patternTransform="rotate(-55.6 73.056 -83.235) scale(1.15)" patternUnits="userSpaceOnUse" viewBox="0 0 45.25 45"><path class="cls-1" d="M0 0h45.25v45H0z"/><path class="cls-2" d="M.25 0v45M1.61 0v45M2.98 0v45M4.34 0v45M5.7 0v45M7.07 0v45M8.43 0v45M9.8 0v45m1.36-45v45m1.36-45v45m1.37-45v45m1.36-45v45m1.36-45v45m1.37-45v45m1.36-45v45M20.7 0v45m1.37-45v45m1.36-45v45M24.8 0v45m1.36-45v45m1.36-45v45m1.37-45v45m1.36-45v45m1.36-45v45m1.37-45v45m1.36-45v45M35.7 0v45m1.37-45v45m1.36-45v45M39.8 0v45m1.36-45v45m1.36-45v45m1.37-45v45"/><path class="cls-1" d="M.25 0h45v45h-45z"/></pattern><clipPath id="clip-path-14"><path class="cls-1" d="M500.24 37.45a51.57 51.57 0 0 1-5.6 3.58 15.82 15.82 0 0 0 6.68 6.08 18.55 18.55 0 0 0-3.32 4.13c-5.7-3.29-8.61-9.17-10.45-16.68a21.76 21.76 0 0 1-2.32 1.65c6.09 5.4 5.7 13.37 2.39 15.74a5.65 5.65 0 0 1-4.33 1.53 26 26 0 0 1-2.75-.06 10.77 10.77 0 0 0-1.05-4 55.67 55.67 0 0 1-6.23 2.6 19.09 19.09 0 0 0-2.49-3.91A38.88 38.88 0 0 0 484.28 42c-.09-.2-.19-.39-.32-.62a50.15 50.15 0 0 1-9.64 4.62 17.06 17.06 0 0 0-2.32-3.57 35.66 35.66 0 0 0 9.87-3.81c-.13-.13-.3-.26-.43-.39a50.85 50.85 0 0 1-7.63 2.6 24 24 0 0 0-2.4-3.67 41.77 41.77 0 0 0 9-2.6h-3.25v-4h17.27v4h-2.59a24.42 24.42 0 0 0 .95 2.73 31.43 31.43 0 0 0 3.74-3zm-23.89-4.72h-4.65v-7.8h11.6v-2.38h4.92v2.38H500v7.8h-4.9v-3.54h-18.75zm8.79 13.4a44 44 0 0 1-4.89 2.87c.79.06 1.51.06 2.13.06a2.08 2.08 0 0 0 1.87-.72 3.18 3.18 0 0 0 .89-2.21z"/></clipPath><pattern id="新規パターンスウォッチ_5-27" data-name="新規パターンスウォッチ 5" width="45.25" height="45" patternTransform="rotate(-55.6 69.705 -43.02) scale(1.15)" patternUnits="userSpaceOnUse" viewBox="0 0 45.25 45"><path class="cls-1" d="M0 0h45.25v45H0z"/><path class="cls-2" d="M.25 0v45M1.61 0v45M2.98 0v45M4.34 0v45M5.7 0v45M7.07 0v45M8.43 0v45M9.8 0v45m1.36-45v45m1.36-45v45m1.37-45v45m1.36-45v45m1.36-45v45m1.37-45v45m1.36-45v45M20.7 0v45m1.37-45v45m1.36-45v45M24.8 0v45m1.36-45v45m1.36-45v45m1.37-45v45m1.36-45v45m1.36-45v45m1.37-45v45m1.36-45v45M35.7 0v45m1.37-45v45m1.36-45v45M39.8 0v45m1.36-45v45m1.36-45v45m1.37-45v45"/><path class="cls-1" d="M.25 0h45v45h-45z"/></pattern><clipPath id="clip-path-15"><path class="cls-1" d="M513.48 52.8a66.79 66.79 0 0 0-7-7.12l4.17-3.55a59.53 59.53 0 0 1 7 7.06z"/></clipPath><pattern id="新規パターンスウォッチ_5-29" data-name="新規パターンスウォッチ 5" width="45.25" height="45" patternTransform="rotate(-55.6 90.575 -63.018) scale(1.15)" patternUnits="userSpaceOnUse" viewBox="0 0 45.25 45"><path class="cls-1" d="M0 0h45.25v45H0z"/><path class="cls-2" d="M.25 0v45M1.61 0v45M2.98 0v45M4.34 0v45M5.7 0v45M7.07 0v45M8.43 0v45M9.8 0v45m1.36-45v45m1.36-45v45m1.37-45v45m1.36-45v45m1.36-45v45m1.37-45v45m1.36-45v45M20.7 0v45m1.37-45v45m1.36-45v45M24.8 0v45m1.36-45v45m1.36-45v45m1.37-45v45m1.36-45v45m1.36-45v45m1.37-45v45m1.36-45v45M35.7 0v45m1.37-45v45m1.36-45v45M39.8 0v45m1.36-45v45m1.36-45v45m1.37-45v45"/><path class="cls-1" d="M.25 0h45v45h-45z"/></pattern><clipPath id="clip-path-16"><path class="cls-1" d="M42.08 83.05c-.13.32-.33.9-.56 1.49 3.67 1.3 6.19 4.2 6.19 8 0 4.53-2.52 9.18-10.71 10.38l-2.59-4.07c6.49-.71 8.42-3.93 8.42-6.53a4.2 4.2 0 0 0-2.65-3.91 24.24 24.24 0 0 1-6.59 9.37c.23.78.46 1.53.72 2.28l-4.52 1.33c-.13-.33-.23-.72-.36-1.11a11.82 11.82 0 0 1-4.75 1.11c-2.52 0-4.69-1.5-4.69-5.07 0-4.13 3.35-8.52 7.9-10.7.07-1.21.16-2.44.29-3.61h-.52c-1.9 0-4.42-.17-6-.23l-.13-4.46a51.66 51.66 0 0 0 6.32.46h.79l.13-1.3a15.26 15.26 0 0 0 .1-2.15l5.08.13c-.23.75-.36 1.33-.49 1.89s-.2.88-.26 1.33A52 52 0 0 0 44 76.31v4.46a92.44 92.44 0 0 1-11.44 1.14c-.06.78-.13 1.56-.19 2.34a20.39 20.39 0 0 1 4.52-.49h.19a17.16 17.16 0 0 0 .27-1.82zM28.45 95.92a46.7 46.7 0 0 1-.59-5.56c-2 1.5-3.25 3.55-3.25 5 0 .87.33 1.36 1.28 1.36a5.87 5.87 0 0 0 2.56-.8zm7.34-8.19a15.76 15.76 0 0 0-3.57.58 43.08 43.08 0 0 0 .29 4.39 18.1 18.1 0 0 0 3.28-4.97z"/></clipPath><pattern id="新規パターンスウォッチ_5-31" data-name="新規パターンスウォッチ 5" width="45.25" height="45" patternTransform="rotate(-55.6 57.79 12.06) scale(1.15)" patternUnits="userSpaceOnUse" viewBox="0 0 45.25 45"><path class="cls-1" d="M0 0h45.25v45H0z"/><path class="cls-2" d="M.25 0v45M1.61 0v45M2.98 0v45M4.34 0v45M5.7 0v45M7.07 0v45M8.43 0v45M9.8 0v45m1.36-45v45m1.36-45v45m1.37-45v45m1.36-45v45m1.36-45v45m1.37-45v45m1.36-45v45M20.7 0v45m1.37-45v45m1.36-45v45M24.8 0v45m1.36-45v45m1.36-45v45m1.37-45v45m1.36-45v45m1.36-45v45m1.37-45v45m1.36-45v45M35.7 0v45m1.37-45v45m1.36-45v45M39.8 0v45m1.36-45v45m1.36-45v45m1.37-45v45"/><path class="cls-1" d="M.25 0h45v45h-45z"/></pattern><clipPath id="clip-path-17"><path class="cls-1" d="M72.13 82.13a52.77 52.77 0 0 1-5.51 1.11 60 60 0 0 1-6.88 13.86L55 94.72a49.55 49.55 0 0 0 6.45-11 9.39 9.39 0 0 1-1 0c-1.38 0-2.69 0-4.2-.13l-.36-4.49c1.51.16 3.44.23 4.52.23.85 0 1.67 0 2.53-.1a26.39 26.39 0 0 0 .77-5.23l5.37.52c-.23 1-.59 2.47-1 4.1 1.51-.29 2.88-.62 4-.94zm4.55 2.44c-.1 1.4 0 2.93 0 4.52 0 .75.1 2 .16 3.35a20.94 20.94 0 0 1 6.72 4.2L81 100.83a34.2 34.2 0 0 0-4-3.28c-.1 3.09-1.8 5.4-6.58 5.4-4.3 0-7.64-2-7.64-5.73 0-3.21 2.56-6 7.57-6a13.39 13.39 0 0 1 1.7.1c-.13-2.31-.26-5-.36-6.77zM72.26 95.4a12 12 0 0 0-2.2-.22c-1.6 0-2.59.65-2.59 1.56s.89 1.75 2.26 1.75c1.94 0 2.53-1.13 2.53-2.92zm9.47-8.65a47.54 47.54 0 0 0-8-4.65l2.53-3.87a65.46 65.46 0 0 1 8.25 4.42z"/></clipPath><pattern id="新規パターンスウォッチ_5-33" data-name="新規パターンスウォッチ 5" width="45.25" height="45" patternTransform="rotate(-55.6 24.383 3.45) scale(1.15)" patternUnits="userSpaceOnUse" viewBox="0 0 45.25 45"><path class="cls-1" d="M0 0h45.25v45H0z"/><path class="cls-2" d="M.25 0v45M1.61 0v45M2.98 0v45M4.34 0v45M5.7 0v45M7.07 0v45M8.43 0v45M9.8 0v45m1.36-45v45m1.36-45v45m1.37-45v45m1.36-45v45m1.36-45v45m1.37-45v45m1.36-45v45M20.7 0v45m1.37-45v45m1.36-45v45M24.8 0v45m1.36-45v45m1.36-45v45m1.37-45v45m1.36-45v45m1.36-45v45m1.37-45v45m1.36-45v45M35.7 0v45m1.37-45v45m1.36-45v45M39.8 0v45m1.36-45v45m1.36-45v45m1.37-45v45"/><path class="cls-1" d="M.25 0h45v45h-45z"/></pattern><clipPath id="clip-path-18"><path class="cls-1" d="M109.48 82.49a53.71 53.71 0 0 1-6 1c-.32 1.37-.65 2.8-1 4.07a106.21 106.21 0 0 1-5.18 15l-5.47-1.82c1.93-3.19 4.49-10 5.7-14.54.2-.75.43-1.53.59-2.28h-1.64c-1.67 0-2.91-.06-4-.12l-.17-4.8a35.14 35.14 0 0 0 4.2.26c.85 0 1.73 0 2.59-.07a12.38 12.38 0 0 0 .19-1.3 16.88 16.88 0 0 0 .1-3.61l6 .46c-.27 1-.59 2.57-.76 3.32l-.13.55c1.67-.26 3.34-.59 5-1zm-.29 10.18a11.66 11.66 0 0 0-.43 2.57c0 1.33.85 2.18 3.7 2.18a41.73 41.73 0 0 0 7-.68l-.2 5a53.1 53.1 0 0 1-6.78.46c-5.67 0-8.52-2-8.52-5.34a22.79 22.79 0 0 1 .59-4.58zm-2.53-8.23c1.87-.19 4.3-.35 6.43-.35 1.8 0 3.76.09 5.73.29l-.1 4.68a48.38 48.38 0 0 0-5.63-.42 50.13 50.13 0 0 0-6.43.36z"/></clipPath><pattern id="新規パターンスウォッチ_5-35" data-name="新規パターンスウォッチ 5" width="45.25" height="45" patternTransform="rotate(-55.6 70.909 23.497) scale(1.15)" patternUnits="userSpaceOnUse" viewBox="0 0 45.25 45"><path class="cls-1" d="M0 0h45.25v45H0z"/><path class="cls-2" d="M.25 0v45M1.61 0v45M2.98 0v45M4.34 0v45M5.7 0v45M7.07 0v45M8.43 0v45M9.8 0v45m1.36-45v45m1.36-45v45m1.37-45v45m1.36-45v45m1.36-45v45m1.37-45v45m1.36-45v45M20.7 0v45m1.37-45v45m1.36-45v45M24.8 0v45m1.36-45v45m1.36-45v45m1.37-45v45m1.36-45v45m1.36-45v45m1.37-45v45m1.36-45v45M35.7 0v45m1.37-45v45m1.36-45v45M39.8 0v45m1.36-45v45m1.36-45v45m1.37-45v45"/><path class="cls-1" d="M.25 0h45v45h-45z"/></pattern><clipPath id="clip-path-19"><path class="cls-1" d="M135.21 75.63a29.59 29.59 0 0 0-.89 3.28 90.57 90.57 0 0 0-1.51 12.17 4.91 4.91 0 0 0 0 .75c.39-1 .78-1.57 1.21-2.51l2.39 1.89c-1 2.89-2 6.15-2.36 8a9.47 9.47 0 0 0-.2 1.53v1.46l-4.43.29a37.06 37.06 0 0 1-1.34-10.31 97.64 97.64 0 0 1 1.28-13.36 36.68 36.68 0 0 0 .36-3.65zm19.3 24.78a38.19 38.19 0 0 0-3.51-2.93c-.42 3-2.42 4.92-6.68 4.92-4.56 0-7.57-2-7.57-5.6s3-5.92 7.5-5.92c.56 0 1.12 0 1.64.07-.1-1.69-.2-3.68-.23-5.69h-1.83c-1.94 0-3.87-.07-5.8-.2v-4.65a55.47 55.47 0 0 0 5.8.3h1.84c0-1.49 0-2.7-.07-3.28a15.39 15.39 0 0 0-.26-2.21h5.6c-.09.61-.16 1.43-.19 2.14s-.07 1.69-.1 3a46.76 46.76 0 0 0 4.72-.72v4.85c-1.44.19-3.05.39-4.75.52.06 2.93.23 5.23.32 7.12a20.57 20.57 0 0 1 6.23 4.16zM146.08 95a8.08 8.08 0 0 0-2.19-.29c-1.51 0-2.52.58-2.52 1.59s1.14 1.53 2.52 1.53c1.57 0 2.19-.85 2.19-2.6z"/></clipPath><pattern id="新規パターンスウォッチ_5-37" data-name="新規パターンスウォッチ 5" width="45.25" height="45" patternTransform="rotate(-55.6 87.59 -15.496) scale(1.15)" patternUnits="userSpaceOnUse" viewBox="0 0 45.25 45"><path class="cls-1" d="M0 0h45.25v45H0z"/><path class="cls-2" d="M.25 0v45M1.61 0v45M2.98 0v45M4.34 0v45M5.7 0v45M7.07 0v45M8.43 0v45M9.8 0v45m1.36-45v45m1.36-45v45m1.37-45v45m1.36-45v45m1.36-45v45m1.37-45v45m1.36-45v45M20.7 0v45m1.37-45v45m1.36-45v45M24.8 0v45m1.36-45v45m1.36-45v45m1.37-45v45m1.36-45v45m1.36-45v45m1.37-45v45m1.36-45v45M35.7 0v45m1.37-45v45m1.36-45v45M39.8 0v45m1.36-45v45m1.36-45v45m1.37-45v45"/><path class="cls-1" d="M.25 0h45v45h-45z"/></pattern><clipPath id="clip-path-20"><path class="cls-1" d="M186.55 83.11c-1.14.68-2.32 1.3-3.63 2a68.44 68.44 0 0 0-7.51 4c-2.52 1.63-4.32 3.35-4.32 5.47s2.06 3.12 6.22 3.12A55.56 55.56 0 0 0 188 96.41V102a62 62 0 0 1-10.52.81c-6.68 0-11.83-1.79-11.83-7.74 0-3.67 2.3-6.31 5.28-8.55-1.51-2.77-3-6-4.46-9.43l4.95-2a67.54 67.54 0 0 0 3.9 8.59c2.1-1.24 4.06-2.25 5.44-3a22.93 22.93 0 0 0 3.37-2.18zm.4-8.65c.81 1.2 2 3.32 2.55 4.45l-3.11 1.31a44.81 44.81 0 0 0-2.52-4.53zm4-1.56a43.94 43.94 0 0 1 2.58 4.42l-3.08 1.3a36.64 36.64 0 0 0-2.58-4.49z"/></clipPath><pattern id="新規パターンスウォッチ_5-39" data-name="新規パターンスウォッチ 5" width="45.25" height="45" patternTransform="rotate(-55.6 130.181 -2.699) scale(1.15)" patternUnits="userSpaceOnUse" viewBox="0 0 45.25 45"><path class="cls-1" d="M0 0h45.25v45H0z"/><path class="cls-2" d="M.25 0v45M1.61 0v45M2.98 0v45M4.34 0v45M5.7 0v45M7.07 0v45M8.43 0v45M9.8 0v45m1.36-45v45m1.36-45v45m1.37-45v45m1.36-45v45m1.36-45v45m1.37-45v45m1.36-45v45M20.7 0v45m1.37-45v45m1.36-45v45M24.8 0v45m1.36-45v45m1.36-45v45m1.37-45v45m1.36-45v45m1.36-45v45m1.37-45v45m1.36-45v45M35.7 0v45m1.37-45v45m1.36-45v45M39.8 0v45m1.36-45v45m1.36-45v45m1.37-45v45"/><path class="cls-1" d="M.25 0h45v45h-45z"/></pattern><clipPath id="clip-path-21"><path class="cls-1" d="M223.58 82a127.85 127.85 0 0 1-12.75 1.34c-.36 1.56-.75 3.12-1.14 4.48a17.33 17.33 0 0 1 7.47-1.59c5.27 0 9 2.86 9 7.19 0 7.51-7.11 10.21-17.95 9l-1.41-5c6.91 1.2 14 .58 14-3.87 0-1.63-1.51-3.13-4.32-3.13-3.67 0-6.82 1.37-8.62 3.75a8.34 8.34 0 0 0-.85 1.36l-4.66-1.62a50.54 50.54 0 0 0 3.64-10.48c-1.93-.06-3.74-.13-5.24-.29V78.3a52.82 52.82 0 0 0 6.25.7c.06-.33.1-.62.13-.88a16.89 16.89 0 0 0 .16-3.58l5.54.23c-.39 1.3-.59 2.44-.85 3.61l-.1.49a80.77 80.77 0 0 0 11.63-1.5z"/></clipPath><pattern id="新規パターンスウォッチ_5-41" data-name="新規パターンスウォッチ 5" width="45.25" height="45" patternTransform="rotate(-55.6 101.823 -8.633) scale(1.15)" patternUnits="userSpaceOnUse" viewBox="0 0 45.25 45"><path class="cls-1" d="M0 0h45.25v45H0z"/><path class="cls-2" d="M.25 0v45M1.61 0v45M2.98 0v45M4.34 0v45M5.7 0v45M7.07 0v45M8.43 0v45M9.8 0v45m1.36-45v45m1.36-45v45m1.37-45v45m1.36-45v45m1.36-45v45m1.37-45v45m1.36-45v45M20.7 0v45m1.37-45v45m1.36-45v45M24.8 0v45m1.36-45v45m1.36-45v45m1.37-45v45m1.36-45v45m1.36-45v45m1.37-45v45m1.36-45v45M35.7 0v45m1.37-45v45m1.36-45v45M39.8 0v45m1.36-45v45m1.36-45v45m1.37-45v45"/><path class="cls-1" d="M.25 0h45v45h-45z"/></pattern><clipPath id="clip-path-22"><path class="cls-1" d="M244 87.86a16.49 16.49 0 0 1 9-2.6c6.09 0 9.4 3.77 9.4 7.7 0 6-4.42 10.83-18.71 9.6l-1.54-5.11c9.47 1.4 14.71-.65 14.71-4.58 0-1.82-1.77-3.19-4.35-3.19a10.93 10.93 0 0 0-8.39 3.51 8.17 8.17 0 0 0-1.35 2l-4.49-1.11a120.73 120.73 0 0 0 1.61-13.69l5.28.72a53.68 53.68 0 0 0-1.17 6.75zm.43-13.53a99.82 99.82 0 0 0 13.23 2.5l-1.18 4.82c-3.4-.46-10.74-2-13.3-2.64z"/></clipPath><pattern id="新規パターンスウォッチ_5-43" data-name="新規パターンスウォッチ 5" width="45.25" height="45" patternTransform="rotate(-55.6 69.96 -17.712) scale(1.15)" patternUnits="userSpaceOnUse" viewBox="0 0 45.25 45"><path class="cls-1" d="M0 0h45.25v45H0z"/><path class="cls-2" d="M.25 0v45M1.61 0v45M2.98 0v45M4.34 0v45M5.7 0v45M7.07 0v45M8.43 0v45M9.8 0v45m1.36-45v45m1.36-45v45m1.37-45v45m1.36-45v45m1.36-45v45m1.37-45v45m1.36-45v45M20.7 0v45m1.37-45v45m1.36-45v45M24.8 0v45m1.36-45v45m1.36-45v45m1.37-45v45m1.36-45v45m1.36-45v45m1.37-45v45m1.36-45v45M35.7 0v45m1.37-45v45m1.36-45v45M39.8 0v45m1.36-45v45m1.36-45v45m1.37-45v45"/><path class="cls-1" d="M.25 0h45v45h-45z"/></pattern><clipPath id="clip-path-23"><path class="cls-1" d="M285.81 96c.06-.82.13-2 .16-3.22-2 1.17-2.91 2.21-2.91 3.51s1 1.92 4.06 1.92a48.68 48.68 0 0 0 9.44-1l-.17 5a88.12 88.12 0 0 1-9.37.55c-5.34 0-9.17-1.36-9.17-5.65s3.86-6.9 7.47-8.79a2.5 2.5 0 0 0-1.77-.65 7.87 7.87 0 0 0-4.79 2.15 39.71 39.71 0 0 0-3 3.64l-4.2-3.12A29.62 29.62 0 0 0 278.5 82c-1.34 0-3.7-.07-5.41-.23v-4.48a42.64 42.64 0 0 0 5.84.39h1.27a17.81 17.81 0 0 0 .56-3.51l5.18.42a28.66 28.66 0 0 1-.72 2.93 78.7 78.7 0 0 0 8.75-.91v4.52c-3 .39-7 .68-10.48.81a17.16 17.16 0 0 1-1.25 2.28 15.46 15.46 0 0 1 3.21-.33 4.72 4.72 0 0 1 4.33 2.28c1.31-.62 2.36-1 3.51-1.56 1.41-.62 2.75-1.24 4.12-1.89l1.94 4.49c-1.15.32-3.18 1.07-4.43 1.56s-2.81 1.07-4.52 1.82c0 1.76.1 3.94.13 5.37z"/></clipPath><pattern id="新規パターンスウォッチ_5-45" data-name="新規パターンスウォッチ 5" width="45.25" height="45" patternTransform="rotate(-55.6 111.907 1.204) scale(1.15)" patternUnits="userSpaceOnUse" viewBox="0 0 45.25 45"><path class="cls-1" d="M0 0h45.25v45H0z"/><path class="cls-2" d="M.25 0v45M1.61 0v45M2.98 0v45M4.34 0v45M5.7 0v45M7.07 0v45M8.43 0v45M9.8 0v45m1.36-45v45m1.36-45v45m1.37-45v45m1.36-45v45m1.36-45v45m1.37-45v45m1.36-45v45M20.7 0v45m1.37-45v45m1.36-45v45M24.8 0v45m1.36-45v45m1.36-45v45m1.37-45v45m1.36-45v45m1.36-45v45m1.37-45v45m1.36-45v45M35.7 0v45m1.37-45v45m1.36-45v45M39.8 0v45m1.36-45v45m1.36-45v45m1.37-45v45"/><path class="cls-1" d="M.25 0h45v45h-45z"/></pattern><clipPath id="clip-path-24"><path class="cls-1" d="M332.8 99.08c1.86-.07 3.63-.16 5.11-.29a21.71 21.71 0 0 0-1.41 4.39c-4.42.22-11.76.29-16.09.09-3.8-.16-6.29-1-8.22-3.54-1.15 1.23-2.36 2.41-3.9 3.84l-2.2-4.52a44 44 0 0 0 3.57-2.64v-6.47h-3v-4.36h7.47V96a5.62 5.62 0 0 0 4 2.8 29.24 29.24 0 0 0-3-2.38 23.44 23.44 0 0 0 5.28-2h-5.44v-3.34h5v-1.66h-4.1v-3.35h4.1v-1.4h4.46v1.4h2.91v-1.4h4.52v1.4H336v3.35h-4.23v1.66h5.25v3.41h-5.54a57.44 57.44 0 0 1 5.73 3.06zm-22.51-17.37a25.71 25.71 0 0 0-4.1-5.63l3.81-2.34a25.42 25.42 0 0 1 4.39 5.34zm10.71-5h-5.8v-2.9h9.8v6.73h-1.68a10.87 10.87 0 0 0 3.08 1.08c-.39 2.27-1.4 2.92-3.6 2.92h-3c-3.21 0-4.09-.88-4.09-3.87v-3H321zm4.33 18.66a22.17 22.17 0 0 1-6.16 3.63l1.24.1c2.85.13 7.47.13 11.73 0a35.47 35.47 0 0 0-5.37-3.28l2.42-1.34h-6.52zm-3.05-13.88c.56 0 .72-.17.85-1h-3.64v.1c0 .75.13.85.86.85zm2.1 9.56h2.91v-1.63h-2.91zm7.47-14.34h-6v-2.9h10.06v6.73h-1.8a10.66 10.66 0 0 0 3.08 1.08c-.4 2.27-1.41 2.92-3.61 2.92h-3.08c-3.21 0-4.09-.88-4.09-3.87v-3h5.44zm1.21 4.78c.56 0 .72-.17.85-1h-3.64v.1c0 .75.13.85.86.85z"/></clipPath><pattern id="新規パターンスウォッチ_5-47" data-name="新規パターンスウォッチ 5" width="45.25" height="45" patternTransform="rotate(-55.6 85.795 -13.885) scale(1.15)" patternUnits="userSpaceOnUse" viewBox="0 0 45.25 45"><path class="cls-1" d="M0 0h45.25v45H0z"/><path class="cls-2" d="M.25 0v45M1.61 0v45M2.98 0v45M4.34 0v45M5.7 0v45M7.07 0v45M8.43 0v45M9.8 0v45m1.36-45v45m1.36-45v45m1.37-45v45m1.36-45v45m1.36-45v45m1.37-45v45m1.36-45v45M20.7 0v45m1.37-45v45m1.36-45v45M24.8 0v45m1.36-45v45m1.36-45v45m1.37-45v45m1.36-45v45m1.36-45v45m1.37-45v45m1.36-45v45M35.7 0v45m1.37-45v45m1.36-45v45M39.8 0v45m1.36-45v45m1.36-45v45m1.37-45v45"/><path class="cls-1" d="M.25 0h45v45h-45z"/></pattern><clipPath id="clip-path-25"><path class="cls-1" d="M365.4 76.08a26.86 26.86 0 0 0 7 13.37l-3.63 3.87c-.79-1-1.58-2.18-2.36-3.41.1 7-3.54 13.53-12 13.53-5.53 0-9.47-3.52-9.47-9.24a20 20 0 0 1 4.7-12.2c-1 .1-2.46.33-3.54.56-.69.13-1.18.26-2 .45l-.69-5c.62 0 1.28 0 1.9-.09A62.73 62.73 0 0 0 356.65 76l1.48 4.29a10 10 0 0 0-1.58.78C354.23 83 350 88.41 350 93.52a4.34 4.34 0 0 0 4.65 4.62c6.07 0 9.47-7.19 6.66-18.9-.23-.55-.43-1.11-.66-1.69zm1.93 3.81a33.49 33.49 0 0 0-1.73-4.81l2.88-.88a49.53 49.53 0 0 1 1.71 4.8zm3.74-1.2a36.13 36.13 0 0 0-1.77-4.78l2.79-.92a38.43 38.43 0 0 1 1.91 4.79z"/></clipPath><pattern id="新規パターンスウォッチ_5-49" data-name="新規パターンスウォッチ 5" width="45.25" height="45" patternTransform="rotate(-55.6 98.21 -44.788) scale(1.15)" patternUnits="userSpaceOnUse" viewBox="0 0 45.25 45"><path class="cls-1" d="M0 0h45.25v45H0z"/><path class="cls-2" d="M.25 0v45M1.61 0v45M2.98 0v45M4.34 0v45M5.7 0v45M7.07 0v45M8.43 0v45M9.8 0v45m1.36-45v45m1.36-45v45m1.37-45v45m1.36-45v45m1.36-45v45m1.37-45v45m1.36-45v45M20.7 0v45m1.37-45v45m1.36-45v45M24.8 0v45m1.36-45v45m1.36-45v45m1.37-45v45m1.36-45v45m1.36-45v45m1.37-45v45m1.36-45v45M35.7 0v45m1.37-45v45m1.36-45v45M39.8 0v45m1.36-45v45m1.36-45v45m1.37-45v45"/><path class="cls-1" d="M.25 0h45v45h-45z"/></pattern><clipPath id="clip-path-26"><path class="cls-1" d="M403.64 101.26a25 25 0 0 0-5.8-4.2v.65c0 3-2.46 5.08-6.75 5.08-5.47 0-8.32-2.15-8.32-5.73s3.11-5.88 8.29-5.88c.52 0 1.05 0 1.57.06l-.1-2.15H391c-1.74 0-5.54-.16-7.6-.42v-4.58a52.56 52.56 0 0 0 7.64.61h1.44v-2.63H391a51.09 51.09 0 0 1-6.72-.49v-4.42a41.07 41.07 0 0 0 6.72.62h1.6v-1.11a15.32 15.32 0 0 0-.19-2.34h5.31c-.1.68-.2 1.59-.23 2.34v1c2.4-.13 4.62-.36 7.41-.78l.1 4.45c-1.94.2-4.46.46-7.57.59v2.66c3.35-.16 5.94-.45 8.43-.74v4.58c-2.85.29-5.24.49-8.36.59.07 1 .13 2.08.2 3.12a25.56 25.56 0 0 1 8.88 4.78zm-10.81-5.89a15 15 0 0 0-2.43-.19c-1.8 0-2.85.68-2.85 1.59 0 1.07 1.08 1.63 2.76 1.63s2.55-.46 2.55-2.12c0-.23 0-.52-.03-.91z"/></clipPath><pattern id="新規パターンスウォッチ_5-51" data-name="新規パターンスウォッチ 5" width="45.25" height="45" patternTransform="rotate(-55.6 120.43 -79.576) scale(1.15)" patternUnits="userSpaceOnUse" viewBox="0 0 45.25 45"><path class="cls-1" d="M0 0h45.25v45H0z"/><path class="cls-2" d="M.25 0v45M1.61 0v45M2.98 0v45M4.34 0v45M5.7 0v45M7.07 0v45M8.43 0v45M9.8 0v45m1.36-45v45m1.36-45v45m1.37-45v45m1.36-45v45m1.36-45v45m1.37-45v45m1.36-45v45M20.7 0v45m1.37-45v45m1.36-45v45M24.8 0v45m1.36-45v45m1.36-45v45m1.37-45v45m1.36-45v45m1.36-45v45m1.37-45v45m1.36-45v45M35.7 0v45m1.37-45v45m1.36-45v45M39.8 0v45m1.36-45v45m1.36-45v45m1.37-45v45"/><path class="cls-1" d="M.25 0h45v45h-45z"/></pattern><clipPath id="clip-path-27"><path class="cls-1" d="M444.27 82.56c-1.93-.1-5-.17-9.07-.2v4.49a8.4 8.4 0 0 1 1.28 4.65c0 4.13-2.69 9.72-10.81 11.9l-4.17-4.16c2.82-.55 5.54-1.33 7.44-2.83a3.82 3.82 0 0 1-.59 0 6 6 0 0 1-5.76-6.18c0-3.9 3.14-6.27 6.91-6.27a7.22 7.22 0 0 1 .82 0v-1.63c-4.89.07-9.67.26-13.64.46l-.13-4.68c3.77 0 9.51-.1 13.7-.17v-.35c-.1-1.24-.23-2.61-.36-3.22h5.67c-.1.61-.23 2.6-.27 3.18V78c3 0 7.38-.06 9.08 0zm-14.87 9.59c1.05 0 2.13-.75 1.77-3.22a2.14 2.14 0 0 0-1.77-.84 2 2 0 0 0-2.07 2.08 2.05 2.05 0 0 0 2.07 1.98z"/></clipPath><pattern id="新規パターンスウォッチ_5-53" data-name="新規パターンスウォッチ 5" width="45.25" height="45" patternTransform="rotate(-55.6 113.459 -37.39) scale(1.15)" patternUnits="userSpaceOnUse" viewBox="0 0 45.25 45"><path class="cls-1" d="M0 0h45.25v45H0z"/><path class="cls-2" d="M.25 0v45M1.61 0v45M2.98 0v45M4.34 0v45M5.7 0v45M7.07 0v45M8.43 0v45M9.8 0v45m1.36-45v45m1.36-45v45m1.37-45v45m1.36-45v45m1.36-45v45m1.37-45v45m1.36-45v45M20.7 0v45m1.37-45v45m1.36-45v45M24.8 0v45m1.36-45v45m1.36-45v45m1.37-45v45m1.36-45v45m1.36-45v45m1.37-45v45m1.36-45v45M35.7 0v45m1.37-45v45m1.36-45v45M39.8 0v45m1.36-45v45m1.36-45v45m1.37-45v45"/><path class="cls-1" d="M.25 0h45v45h-45z"/></pattern><clipPath id="clip-path-28"><path class="cls-1" d="M465.31 75c-.23 1-.49 2.18-.69 3.09s-.36 1.76-.55 2.61c.85-.07 1.6-.1 2.19-.1 3.74 0 6.19 1.75 6.19 6.57 0 3.77-.42 8.94-1.8 11.8-1.11 2.31-3 3.13-5.67 3.13a19.47 19.47 0 0 1-3.93-.46l-.85-5.14a20.41 20.41 0 0 0 4 .68 2.2 2.2 0 0 0 2.2-1.23c.82-1.59 1.21-5.27 1.21-8.26 0-2.34-1-2.64-3-2.64-.36 0-.92 0-1.51.07-1.31 5-3.73 12.75-6.49 17.17l-5.14-2c3.08-4.13 5.18-10.15 6.39-14.54l-2 .3c-1 .13-2.92.39-4 .58l-.43-5.23c1.25.09 2.49 0 3.77 0 .95 0 2.3-.13 3.74-.23a32.41 32.41 0 0 0 .62-6.73zm11.21 2.77a59.75 59.75 0 0 1 5.57 12.26l-5 2.31c-.79-3.74-2.95-9.63-5.31-12.62z"/></clipPath><pattern id="新規パターンスウォッチ_5-55" data-name="新規パターンスウォッチ 5" width="45.25" height="45" patternTransform="rotate(-55.6 133.658 -73.243) scale(1.15)" patternUnits="userSpaceOnUse" viewBox="0 0 45.25 45"><path class="cls-1" d="M0 0h45.25v45H0z"/><path class="cls-2" d="M.25 0v45M1.61 0v45M2.98 0v45M4.34 0v45M5.7 0v45M7.07 0v45M8.43 0v45M9.8 0v45m1.36-45v45m1.36-45v45m1.37-45v45m1.36-45v45m1.36-45v45m1.37-45v45m1.36-45v45M20.7 0v45m1.37-45v45m1.36-45v45M24.8 0v45m1.36-45v45m1.36-45v45m1.37-45v45m1.36-45v45m1.36-45v45m1.37-45v45m1.36-45v45M35.7 0v45m1.37-45v45m1.36-45v45M39.8 0v45m1.36-45v45m1.36-45v45m1.37-45v45"/><path class="cls-1" d="M.25 0h45v45h-45z"/></pattern><clipPath id="clip-path-29"><path class="cls-1" d="M505.32 83.37c0-1.79-1.54-2.6-3.7-2.6a6 6 0 0 0-4.69 2.34l-3.21-2.93a11.11 11.11 0 0 1 8.59-4.1c4.81 0 8.58 2.12 8.58 6.77s-6.78 5-6.49 9.3h-5.11c-.52-4.94 6.03-5.92 6.03-8.78zM501.85 94a3.56 3.56 0 0 1 3.86 3.54 3.87 3.87 0 0 1-7.73 0 3.57 3.57 0 0 1 3.87-3.54z"/></clipPath><pattern id="新規パターンスウォッチ_5-57" data-name="新規パターンスウォッチ 5" width="45.25" height="45" patternTransform="rotate(-55.6 103.866 -83.813) scale(1.15)" patternUnits="userSpaceOnUse" viewBox="0 0 45.25 45"><path class="cls-1" d="M0 0h45.25v45H0z"/><path class="cls-2" d="M.25 0v45M1.61 0v45M2.98 0v45M4.34 0v45M5.7 0v45M7.07 0v45M8.43 0v45M9.8 0v45m1.36-45v45m1.36-45v45m1.37-45v45m1.36-45v45m1.36-45v45m1.37-45v45m1.36-45v45M20.7 0v45m1.37-45v45m1.36-45v45M24.8 0v45m1.36-45v45m1.36-45v45m1.37-45v45m1.36-45v45m1.36-45v45m1.37-45v45m1.36-45v45M35.7 0v45m1.37-45v45m1.36-45v45M39.8 0v45m1.36-45v45m1.36-45v45m1.37-45v45"/><path class="cls-1" d="M.25 0h45v45h-45z"/></pattern></defs><title>sp-title1</title><g id="Layer_2" data-name="Layer 2"><g id="SVG"><g class="cls-3"><path class="cls-4" d="M66.75 32.46L39.62 72.08 0 44.95 27.13 5.33l39.62 27.13z"/></g><g class="cls-5"><path class="cls-6" d="M102.98 32.46L75.85 72.08 36.23 44.95 63.37 5.33l39.61 27.13z"/></g><g class="cls-7"><path class="cls-8" d="M137.09 31.39l-27.13 39.62-39.62-27.13L97.47 4.26l39.62 27.13z"/></g><g class="cls-9"><path class="cls-10" d="M173.32 27.13l-27.13 39.62-39.62-27.13L133.7 0l39.62 27.13z"/></g><g class="cls-11"><path class="cls-12" d="M209.56 31.39l-27.13 39.62-39.62-27.13 27.13-39.62 39.62 27.13z"/></g><g class="cls-13"><path class="cls-14" d="M246.86 27.13l-27.14 39.62-39.61-27.13L207.24 0l39.62 27.13z"/></g><g class="cls-15"><path class="cls-16" d="M284.16 30.33l-27.14 39.62-39.61-27.13L244.54 3.2l39.62 27.13z"/></g><g class="cls-17"><path class="cls-18" d="M311.86 35.66l-27.13 39.62-39.61-27.13 27.13-39.62 39.61 27.13z"/></g><g class="cls-19"><path class="cls-20" d="M341.7 31.39l-27.13 39.62-39.62-27.13 27.13-39.62 39.62 27.13z"/></g><g class="cls-21"><path class="cls-22" d="M376.87 34.59l-27.13 39.62-39.62-27.13 27.13-39.62 39.62 27.13z"/></g><g class="cls-23"><path class="cls-24" d="M410.98 31.39l-27.13 39.62-39.62-27.13 27.13-39.62 39.62 27.13z"/></g><g class="cls-25"><path class="cls-26" d="M445.08 30.33l-27.13 39.62-39.62-27.13L405.46 3.2l39.62 27.13z"/></g><g class="cls-27"><path class="cls-28" d="M482.38 28.2l-27.13 39.61-39.62-27.12 27.13-39.62 39.62 27.13z"/></g><g class="cls-29"><path class="cls-30" d="M519.68 29.26l-27.13 39.62-39.62-27.13 27.13-39.62 39.62 27.13z"/></g><g class="cls-31"><path class="cls-32" d="M545.26 37.79l-27.13 39.62-39.62-27.13 27.13-39.62 39.62 27.13z"/></g><g class="cls-33"><path class="cls-34" d="M66.75 82.55l-27.13 39.62L0 95.04l27.13-39.62 39.62 27.13z"/></g><g class="cls-35"><path class="cls-36" d="M101.92 80.42l-27.13 39.61-39.62-27.12L62.3 53.29l39.62 27.13z"/></g><g class="cls-37"><path class="cls-38" d="M134.96 84.68l-27.13 39.62-39.62-27.13 27.13-39.62 39.62 27.13z"/></g><g class="cls-39"><path class="cls-40" d="M174.39 81.48l-27.13 39.62-39.62-27.13 27.13-39.62 39.62 27.13z"/></g><g class="cls-41"><path class="cls-42" d="M211.69 79.35l-27.13 39.62-39.62-27.13 27.13-39.62 39.62 27.13z"/></g><g class="cls-43"><path class="cls-44" d="M246.86 82.55l-27.14 39.62-39.61-27.13 27.13-39.62 39.62 27.13z"/></g><g class="cls-45"><path class="cls-46" d="M283.09 81.48l-27.13 39.62-39.62-27.13 27.13-39.62 39.62 27.13z"/></g><g class="cls-47"><path class="cls-48" d="M315.06 81.48l-27.13 39.62-39.62-27.13 27.13-39.62 39.62 27.13z"/></g><g class="cls-49"><path class="cls-50" d="M358.76 82.55l-27.13 39.62-39.62-27.13 27.13-39.62 39.62 27.13z"/></g><g class="cls-51"><path class="cls-52" d="M389.66 79.35l-27.13 39.62-39.62-27.13 27.13-39.62 39.62 27.13z"/></g><g class="cls-53"><path class="cls-54" d="M428.03 82.55l-27.13 39.62-39.62-27.13 27.13-39.62 39.62 27.13z"/></g><g class="cls-55"><path class="cls-56" d="M462.13 81.48L435 121.1l-39.62-27.13 27.13-39.62 39.62 27.13z"/></g><g class="cls-57"><path class="cls-58" d="M500.5 82.55l-27.13 39.62-39.62-27.13 27.13-39.62 39.62 27.13z"/></g><g class="cls-59"><path class="cls-60" d="M538.86 82.55l-27.13 39.62-39.62-27.13 27.13-39.62 39.62 27.13z"/></g><path class="cls-61" d="M32 31a40.4 40.4 0 0 1-2.26 12.2c2.16 2 5 2.47 8.32 2.5 1.77 0 7.24 0 9.37-.1a15.25 15.25 0 0 0-1.47 4.23h-8.18c-4.13 0-7.44-.62-10-2.79a14.31 14.31 0 0 1-2.94 3.12 15.82 15.82 0 0 0-2-3v3h-4.19v-16c-.43.61-.89 1.2-1.35 1.75a30.66 30.66 0 0 0-2-5.17 33.36 33.36 0 0 0 5.57-11.42l4.23 1.27c-.13.42-.26.81-.43 1.24h3.21l.66-.17 2.95.75c-.86 2.47-2 5.4-3.15 8.23h.46l.72-.06zm-8-7.22c-.36 1-.75 1.91-1.17 2.86v7.16c1.14-2.61 2.35-5.67 3.34-8.2H24zm2.17 11.93a18.22 18.22 0 0 0 .82 2.93 38 38 0 0 0 .85-4.62h-.94l-.52 1.24-3.6-.81v2.21zm-3.39 10.51A9.56 9.56 0 0 0 25 43.58a24.44 24.44 0 0 1-2.19-5.88zM36 25.2h-3.7v-3.35H36v-2.31h4.29v2.31h5.34v4.23h1.44v3.35h-1.46v4.3h-5.34v1h5.4v3.35h-5.4v1.08h6.16v3.35h-6.16V45H36v-2.52h-4.77v-3.35H36v-1.08h-4V34.7h4v-1h-3.7v-3.32H36v-.95h-5.79v-3.35H36zm4.29 0v.88h1.38v-.88zm1.38 4.23h-1.4v.95h1.38zm38.54 9.05h-1.57L82 41.14c-1.47.88-3 1.79-4.49 2.48a15.81 15.81 0 0 0 5.05 2.44 16.49 16.49 0 0 0-2.88 3.8 15.6 15.6 0 0 1-7.44-5.75v1.69c0 2.18-.46 3.19-1.87 3.8s-3.34.69-6.06.69a14.1 14.1 0 0 0-.85-2.8c-1.18.55-2.29 1.1-3.34 1.59l-2.2-3.74c1.48-.45 3.44-1.17 5.54-2a22.91 22.91 0 0 0-4.39-2.8l2.13-2.11h-.36v-3.04h6.85v-1h-8.15v-3.23h8.13v-.95h-6.43v-3.09h6.43v-1h-8.59v5.27c0 5.47-.52 13.86-3.6 19a18.34 18.34 0 0 0-3.87-2.57c2.75-4.65 3-11.55 3-16.43V22h11.48v-2.68h5V22H82.6v4.1H72.22v1h8v4H83v3.22h-2.79zm-14.61 8h1.31c.56 0 .76-.16.76-.65v-7.35h-5.15a23.08 23.08 0 0 1 3.8 2.27l-2.39 2.44 2.36-.91.85 3.39zm6.62-15.29h3.5v-.95h-3.5zm0 4.23h3.5v-1h-3.5zm1.08 3.09a14.5 14.5 0 0 0 1.57 2.57 33.15 33.15 0 0 0 3.48-2.57zm30.15 3.77c.06-.81.13-2 .16-3.22-2 1.17-2.91 2.22-2.91 3.52s1 1.92 4.06 1.92a48.5 48.5 0 0 0 9.43-1l-.16 5a88.12 88.12 0 0 1-9.37.55c-5.34 0-9.17-1.36-9.17-5.66s3.86-6.89 7.47-8.78a2.44 2.44 0 0 0-1.77-.65 7.86 7.86 0 0 0-4.79 2.14 38.63 38.63 0 0 0-3 3.65l-4.2-3.09a29.75 29.75 0 0 0 6.94-8.3c-1.34 0-3.7-.07-5.4-.23v-4.52a42.38 42.38 0 0 0 5.83.39h1.28a18.31 18.31 0 0 0 .55-3.51l5.18.42a28 28 0 0 1-.72 2.93 76.39 76.39 0 0 0 8.75-.91v4.52c-3 .39-7 .68-10.48.81a17.16 17.16 0 0 1-1.25 2.28 15.46 15.46 0 0 1 3.21-.33 4.72 4.72 0 0 1 4.33 2.28c1.31-.62 2.36-1 3.5-1.56 1.41-.62 2.76-1.24 4.13-1.89l1.95 4.49c-1.15.33-3.18 1.08-4.43 1.56s-2.81 1.08-4.52 1.83c0 1.75.1 3.93.13 5.36zM155 28.1s-.07.85-.13 1.33c-.3 2.51-.69 3.87-1.41 4.56a3.7 3.7 0 0 1-2.29.88 33.26 33.26 0 0 1-3.57 0 7.71 7.71 0 0 0-.79-2.83c-1.18 1.36-3 2.37-6 3.09h9.1v10.9c0 2.14-.55 3.09-2.13 3.64s-3.66.55-6.32.55a14.82 14.82 0 0 0-1.44-3.67c1.44.1 3.7.1 4.19.1s.79-.17.79-.66v-.29h-10.88v4.52h-4.85V35.16h11.11a8.35 8.35 0 0 0-1.9-2.64 9.65 9.65 0 0 0 4.52-1.85h-3.57V28.1h5a7.33 7.33 0 0 0 .2-1.17c-.86 0-1.87 0-2.92-.1a6.33 6.33 0 0 0-.88-2.76 33.83 33.83 0 0 0 3.7.13 1.81 1.81 0 0 0 1.18-.23 1.75 1.75 0 0 0 .49-.62h-5.73c-1.35 1.66-3.67 2.7-8 3.32h.69c-.07.49-.1 1-.2 1.43H139a10.41 10.41 0 0 1-.19 1.4c-.43 2.44-1 3.77-1.64 4.42a3.47 3.47 0 0 1-2.1.85 22.23 22.23 0 0 1-3 0 7.58 7.58 0 0 0-.63-2.54 9.7 9.7 0 0 1-5.44 3.64 9 9 0 0 0-2.13-2.87 7.43 7.43 0 0 0 4.13-2.33h-3.44V28.1H129c.07-.33.1-.68.17-1.07-.53.06-1.08.09-1.64.13a7.42 7.42 0 0 0-1.51-2.77 34.3 34.3 0 0 0 8.13-1h-6.75v-2.7h10a7.94 7.94 0 0 0 .32-1.43h4.33a10 10 0 0 1-.3 1.43h9.6a8 8 0 0 1-.23 1.5c-.42 2.21-1 3.38-1.8 4a4 4 0 0 1-1.15.52h.59c-.06.49-.13 1-.23 1.43zm-22.7 2.57a8.9 8.9 0 0 1-.59 1.2h1.4a1 1 0 0 0 .82-.26 3.11 3.11 0 0 0 .56-1zm12.7 7.55h-10.88v.88H145zm0 4.58v-.87h-10.88v.87zm2.69-12.13a5.27 5.27 0 0 1-.79 1.27c.88.06 1.7.1 2.1.1a1.1 1.1 0 0 0 .88-.26 2.45 2.45 0 0 0 .46-1.11zm27.13-9.3c-.23 1-.49 2.17-.69 3.09s-.36 1.75-.56 2.6c.85-.07 1.61-.1 2.2-.1 3.73 0 6.19 1.76 6.19 6.57 0 3.78-.43 8.95-1.8 11.81-1.12 2.31-3 3.12-5.67 3.12a19.39 19.39 0 0 1-3.93-.45l-.85-5.14a21.07 21.07 0 0 0 4 .68 2.22 2.22 0 0 0 2.2-1.23c.81-1.6 1.21-5.27 1.21-8.27 0-2.34-1-2.63-3-2.63-.36 0-.91 0-1.5.06-1.31 5-3.74 12.76-6.49 17.18l-5.14-2c3.08-4.13 5.17-10.15 6.39-14.54l-2 .29c-1 .13-2.91.39-4 .59l-.43-5.24a36.47 36.47 0 0 0 3.77 0c1 0 2.29-.13 3.73-.23a32.42 32.42 0 0 0 .63-6.73zM186 24.13a59.3 59.3 0 0 1 5.57 12.27l-5 2.3c-.79-3.74-3-9.62-5.31-12.62zm39.87 4.75c-1.94-.1-5-.16-9.08-.19v4.48a8.38 8.38 0 0 1 1.28 4.66c0 4.13-2.68 9.72-10.81 11.9l-4.16-4.16c2.82-.55 5.54-1.33 7.44-2.83a4 4 0 0 1-.59 0 6 6 0 0 1-5.77-6.18c0-3.9 3.15-6.28 6.91-6.28a7.13 7.13 0 0 1 .82 0v-1.62c-4.88.06-9.66.26-13.63.45l-.13-4.68c3.77 0 9.5-.1 13.69-.16v-.36c-.1-1.24-.23-2.6-.36-3.22h5.67c-.1.62-.23 2.6-.26 3.19v.35c3 0 7.37-.06 9.07 0zM211 38.48c1 0 2.13-.75 1.77-3.22a2.1 2.1 0 0 0-1.77-.85 2 2 0 0 0-2.06 2.08 2.06 2.06 0 0 0 2.06 1.99zm51.17-4.23a51.57 51.57 0 0 1-5.6 3.58 15.82 15.82 0 0 0 6.68 6.08A18.51 18.51 0 0 0 260 48c-5.7-3.28-8.62-9.17-10.46-16.69a20.48 20.48 0 0 1-2.37 1.69c6.09 5.4 5.7 13.37 2.39 15.75a5.68 5.68 0 0 1-4.32 1.53 26.27 26.27 0 0 1-2.76-.07 10.79 10.79 0 0 0-1-4 53.85 53.85 0 0 1-6.23 2.6 19.18 19.18 0 0 0-2.49-3.9 39.17 39.17 0 0 0 13.5-6.12c-.1-.19-.2-.39-.33-.62a50.07 50.07 0 0 1-9.63 4.62 17.47 17.47 0 0 0-2.36-3.54 35.59 35.59 0 0 0 9.86-3.81l-.42-.39a50.59 50.59 0 0 1-7.64 2.6 24.76 24.76 0 0 0-2.43-3.65 41.28 41.28 0 0 0 9-2.6h-3.24v-4h17.26v4h-2.59a26 26 0 0 0 .95 2.74 31.62 31.62 0 0 0 3.74-3zm-23.88-4.72h-4.65v-7.81h11.6v-2.37h4.91v2.37h11.76v7.81H257V26h-18.71zm8.78 13.4a42.94 42.94 0 0 1-4.88 2.87c.79.06 1.51.06 2.13.06a2.12 2.12 0 0 0 1.87-.71 3.19 3.19 0 0 0 .88-2.22zm28.35 6.67a68.77 68.77 0 0 0-6.95-7.12l4.16-3.55a58.78 58.78 0 0 1 7 7.06zM304 31a41 41 0 0 1-2.26 12.2c2.16 2 5 2.47 8.32 2.5 1.77 0 7.24 0 9.37-.1a15 15 0 0 0-1.48 4.23h-8.16c-4.12 0-7.43-.62-10-2.79a14.12 14.12 0 0 1-3 3.12 14.92 14.92 0 0 0-2-3v3h-4.13v-16c-.42.61-.88 1.2-1.34 1.75a31.53 31.53 0 0 0-2-5.17 33.54 33.54 0 0 0 5.57-11.42l4.11 1.33c-.13.42-.26.81-.42 1.24h3.21l.65-.17 2.95.75c-.85 2.47-2 5.4-3.14 8.23h.46l.72-.06zm-8-7.22c-.36 1-.75 1.91-1.18 2.86v7.16c1.15-2.61 2.36-5.67 3.34-8.2H296zm2.16 11.93a18.22 18.22 0 0 0 .82 2.93 36.18 36.18 0 0 0 .85-4.62h-.88l-.53 1.24-3.6-.81v2.21zm-3.34 10.48a9.77 9.77 0 0 0 2.2-2.64 24.43 24.43 0 0 1-2.2-5.88zm13.2-21h-3.7v-3.34H308v-2.31h4.29v2.31h5.34v4.23H319v3.35h-1.45v4.3h-5.34v1h5.41v3.35h-5.41v1.08h6.16v3.35h-6.16V45H308v-2.52h-4.8v-3.35h4.8v-1.08h-4V34.7h4v-1h-3.7v-3.32h3.7v-.95h-5.76v-3.35H308zm4.29 0v.88h1.38v-.87zm1.38 4.23h-1.38v.95h1.38zm38.5 9.06h-1.58l3.39 2.66c-1.48.88-3 1.79-4.49 2.48a15.65 15.65 0 0 0 5 2.44 16.49 16.49 0 0 0-2.88 3.8 15.65 15.65 0 0 1-7.44-5.75v1.69c0 2.18-.45 3.19-1.86 3.8s-3.35.69-6.06.69a14.18 14.18 0 0 0-.86-2.8c-1.18.55-2.29 1.1-3.34 1.59l-2.19-3.74c1.47-.45 3.44-1.17 5.53-2a22.91 22.91 0 0 0-4.39-2.8l2.13-2.11h-.36v-3.04h6.85v-1h-8.12v-3.23h8.12v-.95h-6.42v-3.09h6.42v-1h-8.58v5.27c0 5.47-.53 13.86-3.61 19a18.27 18.27 0 0 0-3.86-2.57c2.75-4.65 3-11.55 3-16.43V22h11.53v-2.68h5V22h11.53v4.1h-10.46v1h8v4H355v3.22h-2.78zm-14.61 8h1.31c.55 0 .75-.16.75-.65v-7.35h-5.14a24 24 0 0 1 3.8 2.27l-2.39 2.44 2.35-.91.86 3.39zm6.61-15.29h3.51v-.95h-3.51zm0 4.23h3.51v-1h-3.51zm1.08 3.09a14 14 0 0 0 1.58 2.57 34 34 0 0 0 3.47-2.57zm30.15 3.77c.07-.81.13-2 .17-3.22-2 1.17-2.92 2.22-2.92 3.52s1 1.92 4.06 1.92a48.52 48.52 0 0 0 9.44-1l-.17 5a87.78 87.78 0 0 1-9.37.55c-5.33 0-9.17-1.36-9.17-5.66s3.87-6.89 7.47-8.78a2.44 2.44 0 0 0-1.77-.65 7.81 7.81 0 0 0-4.78 2.14 38.63 38.63 0 0 0-3 3.65l-4.2-3.12a29.8 29.8 0 0 0 6.95-8.3c-1.35 0-3.7-.07-5.41-.23v-4.49a42.6 42.6 0 0 0 5.83.39h1.28a19.34 19.34 0 0 0 .56-3.51l5.17.42a28 28 0 0 1-.72 2.93 76.15 76.15 0 0 0 8.75-.91v4.52c-3.05.39-7 .68-10.49.81a17.17 17.17 0 0 1-1.24 2.28 15.31 15.31 0 0 1 3.21-.33 4.71 4.71 0 0 1 4.32 2.28c1.31-.62 2.36-1 3.51-1.56 1.41-.62 2.75-1.24 4.13-1.89l1.93 4.49c-1.15.33-3.18 1.08-4.42 1.56s-2.82 1.08-4.52 1.83c0 1.75.09 3.93.13 5.36zm50.89-6.21h-7.83v8.85c0 2.54-.52 3.8-2.23 4.52s-4.09.81-7.14.81a18.62 18.62 0 0 0-1.64-4.81c2 .1 4.46.1 5.18.1s.92-.17.92-.72v-8.75h-16.78v-4.62h16.78v-3.61h4.91v3.61h7.83zm-24.21-5.63h-4.85v-8.23h11.66v-2.89H414v2.89h11.7v8.23h-5.11v-3.77H402.1zm1.9 5.92a27.41 27.41 0 0 1 5 6.38l-4.09 2.7a28.71 28.71 0 0 0-4.75-6.67zM457 25c-.85.52-1.67 1-2.49 1.56-1.83 1.23-4.68 3.54-6.45 4.91a11.13 11.13 0 0 1 2.26-.19c5.57 0 10 3.54 10 8.39 0 5-3.67 9.43-12.06 9.43-4.58 0-8.39-2.11-8.39-5.66 0-2.83 2.63-5.46 6.29-5.46 4 0 6.52 2.27 7.08 5.33a4.27 4.27 0 0 0 1.9-3.71c0-2.76-2.85-4.49-6.42-4.49-4.75 0-8.16 2.83-11.27 6.61L433.82 38c2.1-1.62 5.86-4.81 7.8-6.37s4.81-3.81 6.39-5.21c-1.64 0-5 .16-6.72.29-1 .07-2.13.17-2.92.3l-.16-5.01a27.38 27.38 0 0 0 3.31.2c1.74 0 8.22-.1 10.15-.26a17.6 17.6 0 0 0 2.89-.39zm-8.32 19.61c-.16-1.79-1.15-2.92-2.52-2.92-1.05 0-1.67.61-1.67 1.26 0 1 1.08 1.73 2.72 1.73.5-.02.99-.05 1.45-.09zm49.43-10.36a51.68 51.68 0 0 1-5.61 3.58 15.85 15.85 0 0 0 6.69 6.08 18.55 18.55 0 0 0-3.31 4.09c-5.7-3.28-8.62-9.17-10.45-16.69A20.62 20.62 0 0 1 483.1 33c6.09 5.4 5.7 13.37 2.39 15.75a5.67 5.67 0 0 1-4.32 1.53 26.08 26.08 0 0 1-2.75-.07 11 11 0 0 0-1.05-4 53.85 53.85 0 0 1-6.23 2.6 18.76 18.76 0 0 0-2.49-3.9 39.08 39.08 0 0 0 13.5-6.12c-.1-.19-.2-.39-.33-.62a49.79 49.79 0 0 1-9.63 4.62 17.47 17.47 0 0 0-2.36-3.54 35.47 35.47 0 0 0 9.86-3.81l-.42-.39a50.59 50.59 0 0 1-7.64 2.6 23.26 23.26 0 0 0-2.39-3.65 41 41 0 0 0 9-2.6H475v-4h17.26v4h-2.58a23.9 23.9 0 0 0 .95 2.74 32.3 32.3 0 0 0 3.73-3zm-23.89-4.72h-4.65v-7.81h11.6v-2.37h4.91v2.37h11.76v7.81H493V26h-18.78zm8.78 13.4a42.94 42.94 0 0 1-4.88 2.87c.79.06 1.51.06 2.13.06a2.1 2.1 0 0 0 1.87-.71 3.14 3.14 0 0 0 .88-2.22zm28.35 6.67a67.77 67.77 0 0 0-7-7.12l4.16-3.55a59.67 59.67 0 0 1 7 7.06zM39.94 79.84c-.13.33-.33.91-.56 1.5 3.67 1.3 6.2 4.2 6.2 8 0 4.53-2.53 9.18-10.72 10.38l-2.58-4.06c6.48-.72 8.42-3.94 8.42-6.54a4.21 4.21 0 0 0-2.7-3.88 24.23 24.23 0 0 1-6.58 9.37c.23.78.46 1.53.72 2.28l-4.52 1.33c-.13-.32-.23-.71-.36-1.1a11.85 11.85 0 0 1-4.75 1.1c-2.53 0-4.69-1.49-4.69-5.07 0-4.13 3.34-8.53 7.9-10.71.06-1.2.16-2.44.29-3.61h-.52c-1.9 0-4.43-.16-6-.22l-.13-4.46a53.8 53.8 0 0 0 6.32.45h.79l.13-1.3a16.69 16.69 0 0 0 .1-2.14l5.07.13c-.23.74-.36 1.33-.49 1.88s-.19.88-.26 1.34a51.94 51.94 0 0 0 10.78-1.4v4.45a88.38 88.38 0 0 1-11.39 1.14c-.07.78-.13 1.56-.2 2.35a20.39 20.39 0 0 1 4.52-.49h.2a17.15 17.15 0 0 0 .26-1.82zM26.31 92.72a48.88 48.88 0 0 1-.59-5.56c-2 1.5-3.24 3.55-3.24 5 0 .88.33 1.36 1.28 1.36a5.83 5.83 0 0 0 2.55-.8zm7.34-8.19a16 16 0 0 0-3.57.58 40.24 40.24 0 0 0 .3 4.39 18.09 18.09 0 0 0 3.27-4.97zM70 78.93A52.51 52.51 0 0 1 64.49 80a60 60 0 0 1-6.88 13.9l-4.75-2.38a50.33 50.33 0 0 0 6.45-11 9.48 9.48 0 0 1-1.05 0c-1.37 0-2.68 0-4.19-.13l-.36-4.49c1.51.16 3.44.22 4.52.22.85 0 1.67 0 2.52-.09a25.12 25.12 0 0 0 .82-5.27l5.37.52c-.22 1-.58 2.47-1 4.1 1.5-.3 2.88-.62 4-1zm4.56 2.44c-.1 1.4 0 2.93 0 4.52 0 .75.09 2 .16 3.35a20.89 20.89 0 0 1 6.71 4.2l-2.58 4.2a34.9 34.9 0 0 0-3.93-3.29c-.1 3.09-1.81 5.4-6.59 5.4-4.29 0-7.63-2-7.63-5.72 0-3.22 2.55-6 7.57-6a13.62 13.62 0 0 1 1.7.1c-.13-2.31-.26-5-.36-6.77zM70.12 92.2a12 12 0 0 0-2.19-.2c-1.61 0-2.59.65-2.59 1.56s.88 1.75 2.26 1.75c1.93 0 2.52-1.13 2.52-2.92zm9.47-8.65a45.77 45.77 0 0 0-8-4.65l2.53-3.9a64.77 64.77 0 0 1 8.25 4.42zm27.76-4.26a54.1 54.1 0 0 1-6 1c-.33 1.36-.66 2.8-1 4.06a107.18 107.18 0 0 1-5.18 15l-5.47-1.82c1.93-3.19 4.49-10.05 5.7-14.54.2-.75.43-1.53.59-2.28h-1.64c-1.67 0-2.92-.06-4-.13l-.13-4.84a35.1 35.1 0 0 0 4.19.26c.86 0 1.74 0 2.59-.07a10.65 10.65 0 0 0 .2-1.3 18.34 18.34 0 0 0 .1-3.61l6 .45c-.26 1-.59 2.57-.75 3.32l-.13.56c1.67-.27 3.34-.59 5-1zm-.3 10.18a11.59 11.59 0 0 0-.42 2.57c0 1.33.85 2.18 3.7 2.18a41.71 41.71 0 0 0 6.94-.68l-.19 5a55.53 55.53 0 0 1-6.78.45c-5.67 0-8.52-2-8.52-5.33a22.8 22.8 0 0 1 .59-4.59zm-2.52-8.23c1.87-.19 4.29-.36 6.42-.36a57.36 57.36 0 0 1 5.73.3l-.09 4.68a46.61 46.61 0 0 0-5.64-.42 49.86 49.86 0 0 0-6.42.36zm28.54-8.82a31.94 31.94 0 0 0-.88 3.29 88.77 88.77 0 0 0-1.51 12.17 6.61 6.61 0 0 0 0 .75c.4-.95.79-1.57 1.22-2.51l2.42 1.88a81.61 81.61 0 0 0-2.32 8 9.61 9.61 0 0 0-.2 1.53v1.46l-4.42.3A36.76 36.76 0 0 1 126 89a98 98 0 0 1 1.28-13.37c.13-1 .32-2.44.36-3.64zm19.3 24.79a37.94 37.94 0 0 0-3.47-2.92c-.43 3-2.43 4.91-6.69 4.91-4.55 0-7.57-2-7.57-5.6s3-5.92 7.51-5.92c.55 0 1.11 0 1.63.07-.09-1.69-.19-3.68-.22-5.7h-1.84c-1.93 0-3.86-.07-5.8-.2V77.2q2.85.29 5.8.29h1.83c0-1.5 0-2.7-.06-3.29a15.71 15.71 0 0 0-.29-2.2h5.6a19.68 19.68 0 0 0-.2 2.15c0 .62-.07 1.69-.1 3 1.64-.16 3.25-.42 4.72-.71v4.85c-1.44.19-3.05.39-4.75.52.06 2.92.23 5.23.33 7.12a20.46 20.46 0 0 1 6.2 4.19zM144 91.75a8.1 8.1 0 0 0-2.2-.29c-1.5 0-2.52.58-2.52 1.59s1.15 1.53 2.52 1.53c1.58 0 2.2-.85 2.2-2.6zm40.42-11.84c-1.15.68-2.33 1.3-3.64 2a69.35 69.35 0 0 0-7.5 4c-2.52 1.63-4.33 3.35-4.33 5.47s2.07 3.12 6.23 3.12a55.45 55.45 0 0 0 10.71-1.24l-.07 5.63a61.84 61.84 0 0 1-10.51.81c-6.68 0-11.83-1.78-11.83-7.74 0-3.67 2.3-6.31 5.28-8.55-1.51-2.77-3-6.06-4.46-9.44l4.95-2a67.54 67.54 0 0 0 3.9 8.59c2.09-1.24 4.06-2.25 5.43-3a23.08 23.08 0 0 0 3.42-2.24zm.39-8.66a50.68 50.68 0 0 1 2.55 4.46L184.25 77a45.77 45.77 0 0 0-2.52-4.52zm4-1.56a47.48 47.48 0 0 1 2.59 4.43l-3.08 1.3a36.52 36.52 0 0 0-2.59-4.49zm32.63 9.08a125.29 125.29 0 0 1-12.74 1.33c-.36 1.56-.75 3.13-1.15 4.49A17.36 17.36 0 0 1 215 83c5.28 0 9 2.86 9 7.19 0 7.51-7.1 10.21-17.95 9l-1.41-5c6.92 1.2 14 .58 14-3.87 0-1.63-1.5-3.13-4.32-3.13-3.67 0-6.81 1.37-8.62 3.75a10 10 0 0 0-.85 1.36l-4.65-1.63a50.25 50.25 0 0 0 3.64-10.47c-1.94-.07-3.74-.13-5.24-.29v-4.82a48.66 48.66 0 0 0 6.15.65c.07-.32.1-.62.14-.87a18.37 18.37 0 0 0 .16-3.58l5.54.22c-.4 1.31-.59 2.44-.86 3.61l-.09.49a79.5 79.5 0 0 0 11.63-1.49zm20.45 5.89a16.53 16.53 0 0 1 9-2.61c6.09 0 9.4 3.78 9.4 7.71 0 6-4.42 10.84-18.7 9.6L240 94.25c9.46 1.4 14.71-.65 14.71-4.58 0-1.83-1.77-3.19-4.36-3.19A10.9 10.9 0 0 0 242 90a8.39 8.39 0 0 0-1.34 2l-4.49-1.11a123.06 123.06 0 0 0 1.61-13.69l5.27.71a56.07 56.07 0 0 0-1.16 6.75zm.43-13.54a101.69 101.69 0 0 0 13.24 2.51l-1.18 4.81c-3.41-.45-10.75-2-13.3-2.63zm41.35 21.64c.07-.82.13-2 .17-3.22-2 1.17-2.92 2.21-2.92 3.51S281.94 95 285 95a48.52 48.52 0 0 0 9.44-1l-.17 5a87.63 87.63 0 0 1-9.37.56c-5.34 0-9.17-1.37-9.17-5.66s3.87-6.9 7.47-8.79a2.44 2.44 0 0 0-1.77-.65 7.82 7.82 0 0 0-4.78 2.15 41.36 41.36 0 0 0-3 3.64l-4.19-3.12a29.83 29.83 0 0 0 6.95-8.3c-1.35 0-3.71-.06-5.41-.22v-4.53a42.6 42.6 0 0 0 5.83.39h1.28a19.34 19.34 0 0 0 .56-3.51l5.17.42a27.44 27.44 0 0 1-.72 2.93 74 74 0 0 0 8.75-.91v4.52c-3.05.39-7 .69-10.49.82a19 19 0 0 1-1.31 2.26 16.06 16.06 0 0 1 3.21-.32A4.73 4.73 0 0 1 287.6 83c1.31-.61 2.36-1 3.51-1.56 1.41-.61 2.75-1.23 4.13-1.88l1.93 4.44c-1.15.32-3.18 1.07-4.42 1.56s-2.82 1.07-4.52 1.82c0 1.76.09 3.94.13 5.37zm46.99 3.12c1.87-.06 3.64-.16 5.11-.29a21.71 21.71 0 0 0-1.41 4.39c-4.42.23-11.76.29-16.08.1-3.8-.17-6.29-1-8.23-3.55-1.14 1.24-2.36 2.41-3.9 3.84L304 95.85c1.11-.75 2.39-1.66 3.57-2.64v-6.47h-3v-4.36H312v10.44a5.62 5.62 0 0 0 4 2.8 31.94 31.94 0 0 0-3-2.38 23.35 23.35 0 0 0 5.27-1.95h-5.44v-3.41h5v-1.66h-4.09v-3.35h4.09v-1.4h4.46v1.4h2.92v-1.4h4.52v1.4h4.22v3.35h-4.22v1.66h5.24v3.41h-5.54a57.44 57.44 0 0 1 5.73 3.06zm-22.51-17.37a25.09 25.09 0 0 0-4.09-5.63l3.77-2.34a25.64 25.64 0 0 1 4.39 5.33zm10.72-5h-5.8v-2.87h9.76v6.73h-1.67a10.46 10.46 0 0 0 3.08 1.07c-.4 2.28-1.41 2.93-3.61 2.93h-3c-3.21 0-4.1-.88-4.1-3.87v-3.06h5.38zm4.32 18.67a22.44 22.44 0 0 1-6.19 3.64l1.25.09c2.85.13 7.47.13 11.72 0a35.47 35.47 0 0 0-5.37-3.28l2.43-1.34h-6.52zm-3.05-13.89c.56 0 .72-.16.86-.94h-3.64v.1c0 .75.13.84.85.84zm2.1 9.57h2.92v-1.64h-2.92zm7.47-14.35h-6v-2.87h10.06v6.73h-1.8a10.36 10.36 0 0 0 3.03 1.07c-.4 2.28-1.41 2.93-3.61 2.93h-3c-3.21 0-4.1-.88-4.1-3.87v-3.06h5.44zm1.21 4.78c.56 0 .72-.16.85-.94h-3.63v.1c0 .75.13.84.85.84zm32.34-5.41a26.89 26.89 0 0 0 7 13.37l-3.64 3.87c-.79-1-1.57-2.18-2.36-3.41.1 7-3.54 13.53-12 13.53-5.54 0-9.47-3.51-9.47-9.24a20 20 0 0 1 4.69-12.2c-1 .1-2.46.33-3.54.55-.69.13-1.18.26-2 .46l-.68-5a17.41 17.41 0 0 0 1.9-.1 63 63 0 0 0 11.3-1.88l1.54 4.28a8.19 8.19 0 0 0-1.57.78c-2.33 1.85-6.55 7.32-6.55 12.43a4.34 4.34 0 0 0 4.65 4.62c6.06 0 9.47-7.19 6.65-18.9-.23-.56-.43-1.11-.66-1.7zm1.94 3.81a33.65 33.65 0 0 0-1.74-4.82l2.88-.88a46.28 46.28 0 0 1 1.71 4.79zm3.73-1.21a36.66 36.66 0 0 0-1.77-4.78l2.79-.91a39.43 39.43 0 0 1 1.87 4.78zm32.58 22.58a25.48 25.48 0 0 0-5.8-4.2v.65c0 3-2.46 5.08-6.75 5.08-5.47 0-8.32-2.15-8.32-5.73s3.11-5.86 8.28-5.86c.53 0 1.05 0 1.58.07l-.1-2.15h-1.57c-1.74 0-5.54-.16-7.6-.42v-4.59a52.37 52.37 0 0 0 7.63.62h1.44V78.9h-1.54a51.09 51.09 0 0 1-6.72-.49v-4.43a40.86 40.86 0 0 0 6.71.62h1.61v-1.1a15.64 15.64 0 0 0-.2-2.35h5.31c-.1.69-.2 1.6-.23 2.35v1c2.39-.13 4.62-.36 7.4-.78l.1 4.46c-1.93.19-4.46.45-7.57.58v2.67c3.34-.16 5.93-.45 8.42-.75v4.59c-2.85.29-5.24.49-8.35.59.06 1 .13 2.08.19 3.12a25.47 25.47 0 0 1 8.88 4.78zm-10.82-5.89a14.82 14.82 0 0 0-2.42-.19c-1.8 0-2.85.68-2.85 1.59 0 1.07 1.08 1.63 2.75 1.63s2.56-.46 2.56-2.12a8.26 8.26 0 0 0-.04-.91zm51.45-12.82c-1.94-.09-5-.16-9.08-.19v4.49a8.32 8.32 0 0 1 1.28 4.65c0 4.13-2.68 9.73-10.81 11.91L419.4 96c2.82-.55 5.54-1.33 7.44-2.83a4 4 0 0 1-.59 0 6 6 0 0 1-5.77-6.18c0-3.9 3.15-6.27 6.91-6.27a7.13 7.13 0 0 1 .82 0v-1.63c-4.88.07-9.66.26-13.63.46l-.16-4.55c3.77 0 9.5-.09 13.69-.16v-.36c-.1-1.23-.23-2.6-.36-3.22h5.67c-.1.62-.23 2.6-.26 3.19v.36c3 0 7.37-.07 9.07 0zM427.26 89c1.05 0 2.13-.75 1.77-3.22a2.13 2.13 0 0 0-1.77-.85A2 2 0 0 0 425.2 87a2.05 2.05 0 0 0 2.06 2zm35.92-17.16c-.23 1-.49 2.18-.69 3.09s-.36 1.76-.56 2.6c.85-.06 1.61-.1 2.2-.1 3.73 0 6.19 1.76 6.19 6.58 0 3.77-.43 8.94-1.8 11.81-1.12 2.3-3 3.12-5.67 3.12a19.3 19.3 0 0 1-3.93-.46l-.85-5.14a20.38 20.38 0 0 0 4 .69 2.19 2.19 0 0 0 2.19-1.24c.82-1.59 1.22-5.27 1.22-8.26 0-2.35-1-2.64-3-2.64-.36 0-.91 0-1.5.07-1.31 5-3.74 12.75-6.49 17.17l-5.14-2c3.08-4.13 5.17-10.15 6.38-14.54l-2 .29c-1.05.13-2.91.4-4 .59l-.43-5.24a33.87 33.87 0 0 0 3.77 0c.95 0 2.29-.13 3.73-.23a31.63 31.63 0 0 0 .62-6.73zm11.2 2.76A59.54 59.54 0 0 1 480 86.87l-5 2.31c-.79-3.74-2.95-9.63-5.31-12.62zm28.81 5.57c0-1.79-1.54-2.61-3.71-2.61a6.05 6.05 0 0 0-4.68 2.35L491.59 77a11.11 11.11 0 0 1 8.58-4.1c4.82 0 8.59 2.11 8.59 6.77s-6.79 5-6.49 9.3h-5.11c-.53-4.97 6.03-5.97 6.03-8.8zm-3.48 10.67a3.57 3.57 0 0 1 3.87 3.54 3.87 3.87 0 0 1-7.73 0 3.56 3.56 0 0 1 3.86-3.54z"/><path d="M32 31a40.4 40.4 0 0 1-2.26 12.2c2.16 2 5 2.47 8.32 2.5 1.77 0 7.24 0 9.37-.1a15.25 15.25 0 0 0-1.47 4.23h-8.18c-4.13 0-7.44-.62-10-2.79a14.31 14.31 0 0 1-2.94 3.12 15.82 15.82 0 0 0-2-3v3h-4.19v-16c-.43.61-.89 1.2-1.35 1.75a30.66 30.66 0 0 0-2-5.17 33.36 33.36 0 0 0 5.57-11.42l4.23 1.27c-.13.42-.26.81-.43 1.24h3.21l.66-.17 2.95.75c-.86 2.47-2 5.4-3.15 8.23h.46l.72-.06zm-8-7.22c-.36 1-.75 1.91-1.17 2.86v7.16c1.14-2.61 2.35-5.67 3.34-8.2H24zm2.17 11.93a18.22 18.22 0 0 0 .82 2.93 38 38 0 0 0 .85-4.62h-.94l-.52 1.24-3.6-.81v2.21zm-3.39 10.51A9.56 9.56 0 0 0 25 43.58a24.44 24.44 0 0 1-2.19-5.88zM36 25.2h-3.7v-3.35H36v-2.31h4.29v2.31h5.34v4.23h1.44v3.35h-1.46v4.3h-5.34v1h5.4v3.35h-5.4v1.08h6.16v3.35h-6.16V45H36v-2.52h-4.77v-3.35H36v-1.08h-4V34.7h4v-1h-3.7v-3.32H36v-.95h-5.79v-3.35H36zm4.29 0v.88h1.38v-.88zm1.38 4.23h-1.4v.95h1.38zm38.54 9.05h-1.57L82 41.14c-1.47.88-3 1.79-4.49 2.48a15.81 15.81 0 0 0 5.05 2.44 16.49 16.49 0 0 0-2.88 3.8 15.6 15.6 0 0 1-7.44-5.75v1.69c0 2.18-.46 3.19-1.87 3.8s-3.34.69-6.06.69a14.1 14.1 0 0 0-.85-2.8c-1.18.55-2.29 1.1-3.34 1.59l-2.2-3.74c1.48-.45 3.44-1.17 5.54-2a22.91 22.91 0 0 0-4.39-2.8l2.13-2.11h-.36v-3.04h6.85v-1h-8.15v-3.23h8.13v-.95h-6.43v-3.09h6.43v-1h-8.59v5.27c0 5.47-.52 13.86-3.6 19a18.34 18.34 0 0 0-3.87-2.57c2.75-4.65 3-11.55 3-16.43V22h11.48v-2.68h5V22H82.6v4.1H72.22v1h8v4H83v3.22h-2.79zm-14.61 8h1.31c.56 0 .76-.16.76-.65v-7.35h-5.15a23.08 23.08 0 0 1 3.8 2.27l-2.39 2.44 2.36-.91.85 3.39zm6.62-15.29h3.5v-.95h-3.5zm0 4.23h3.5v-1h-3.5zm1.08 3.09a14.5 14.5 0 0 0 1.57 2.57 33.15 33.15 0 0 0 3.48-2.57zm30.15 3.77c.06-.81.13-2 .16-3.22-2 1.17-2.91 2.22-2.91 3.52s1 1.92 4.06 1.92a48.5 48.5 0 0 0 9.43-1l-.16 5a88.12 88.12 0 0 1-9.37.55c-5.34 0-9.17-1.36-9.17-5.66s3.86-6.89 7.47-8.78a2.44 2.44 0 0 0-1.77-.65 7.86 7.86 0 0 0-4.79 2.14 38.63 38.63 0 0 0-3 3.65l-4.2-3.09a29.75 29.75 0 0 0 6.94-8.3c-1.34 0-3.7-.07-5.4-.23v-4.52a42.38 42.38 0 0 0 5.83.39h1.28a18.31 18.31 0 0 0 .55-3.51l5.18.42a28 28 0 0 1-.72 2.93 76.39 76.39 0 0 0 8.75-.91v4.52c-3 .39-7 .68-10.48.81a17.16 17.16 0 0 1-1.25 2.28 15.46 15.46 0 0 1 3.21-.33 4.72 4.72 0 0 1 4.33 2.28c1.31-.62 2.36-1 3.5-1.56 1.41-.62 2.76-1.24 4.13-1.89l1.95 4.49c-1.15.33-3.18 1.08-4.43 1.56s-2.81 1.08-4.52 1.83c0 1.75.1 3.93.13 5.36zM155 28.1s-.07.85-.13 1.33c-.3 2.51-.69 3.87-1.41 4.56a3.7 3.7 0 0 1-2.29.88 33.26 33.26 0 0 1-3.57 0 7.71 7.71 0 0 0-.79-2.83c-1.18 1.36-3 2.37-6 3.09h9.1v10.9c0 2.14-.55 3.09-2.13 3.64s-3.66.55-6.32.55a14.82 14.82 0 0 0-1.44-3.67c1.44.1 3.7.1 4.19.1s.79-.17.79-.66v-.29h-10.88v4.52h-4.85V35.16h11.11a8.35 8.35 0 0 0-1.9-2.64 9.65 9.65 0 0 0 4.52-1.85h-3.57V28.1h5a7.33 7.33 0 0 0 .2-1.17c-.86 0-1.87 0-2.92-.1a6.33 6.33 0 0 0-.88-2.76 33.83 33.83 0 0 0 3.7.13 1.81 1.81 0 0 0 1.18-.23 1.75 1.75 0 0 0 .49-.62h-5.73c-1.35 1.66-3.67 2.7-8 3.32h.69c-.07.49-.1 1-.2 1.43H139a10.41 10.41 0 0 1-.19 1.4c-.43 2.44-1 3.77-1.64 4.42a3.47 3.47 0 0 1-2.1.85 22.23 22.23 0 0 1-3 0 7.58 7.58 0 0 0-.63-2.54 9.7 9.7 0 0 1-5.44 3.64 9 9 0 0 0-2.13-2.87 7.43 7.43 0 0 0 4.13-2.33h-3.44V28.1H129c.07-.33.1-.68.17-1.07-.53.06-1.08.09-1.64.13a7.42 7.42 0 0 0-1.51-2.77 34.3 34.3 0 0 0 8.13-1h-6.75v-2.7h10a7.94 7.94 0 0 0 .32-1.43h4.33a10 10 0 0 1-.3 1.43h9.6a8 8 0 0 1-.23 1.5c-.42 2.21-1 3.38-1.8 4a4 4 0 0 1-1.15.52h.59c-.06.49-.13 1-.23 1.43zm-22.7 2.57a8.9 8.9 0 0 1-.59 1.2h1.4a1 1 0 0 0 .82-.26 3.11 3.11 0 0 0 .56-1zm12.7 7.55h-10.88v.88H145zm0 4.58v-.87h-10.88v.87zm2.69-12.13a5.27 5.27 0 0 1-.79 1.27c.88.06 1.7.1 2.1.1a1.1 1.1 0 0 0 .88-.26 2.45 2.45 0 0 0 .46-1.11zm27.13-9.3c-.23 1-.49 2.17-.69 3.09s-.36 1.75-.56 2.6c.85-.07 1.61-.1 2.2-.1 3.73 0 6.19 1.76 6.19 6.57 0 3.78-.43 8.95-1.8 11.81-1.12 2.31-3 3.12-5.67 3.12a19.39 19.39 0 0 1-3.93-.45l-.85-5.14a21.07 21.07 0 0 0 4 .68 2.22 2.22 0 0 0 2.2-1.23c.81-1.6 1.21-5.27 1.21-8.27 0-2.34-1-2.63-3-2.63-.36 0-.91 0-1.5.06-1.31 5-3.74 12.76-6.49 17.18l-5.14-2c3.08-4.13 5.17-10.15 6.39-14.54l-2 .29c-1 .13-2.91.39-4 .59l-.43-5.24a36.47 36.47 0 0 0 3.77 0c1 0 2.29-.13 3.73-.23a32.42 32.42 0 0 0 .63-6.73zM186 24.13a59.3 59.3 0 0 1 5.57 12.27l-5 2.3c-.79-3.74-3-9.62-5.31-12.62zm39.87 4.75c-1.94-.1-5-.16-9.08-.19v4.48a8.38 8.38 0 0 1 1.28 4.66c0 4.13-2.68 9.72-10.81 11.9l-4.16-4.16c2.82-.55 5.54-1.33 7.44-2.83a4 4 0 0 1-.59 0 6 6 0 0 1-5.77-6.18c0-3.9 3.15-6.28 6.91-6.28a7.13 7.13 0 0 1 .82 0v-1.62c-4.88.06-9.66.26-13.63.45l-.13-4.68c3.77 0 9.5-.1 13.69-.16v-.36c-.1-1.24-.23-2.6-.36-3.22h5.67c-.1.62-.23 2.6-.26 3.19v.35c3 0 7.37-.06 9.07 0zM211 38.48c1 0 2.13-.75 1.77-3.22a2.1 2.1 0 0 0-1.77-.85 2 2 0 0 0-2.06 2.08 2.06 2.06 0 0 0 2.06 1.99zm51.17-4.23a51.57 51.57 0 0 1-5.6 3.58 15.82 15.82 0 0 0 6.68 6.08A18.51 18.51 0 0 0 260 48c-5.7-3.28-8.62-9.17-10.46-16.69a20.48 20.48 0 0 1-2.37 1.69c6.09 5.4 5.7 13.37 2.39 15.75a5.68 5.68 0 0 1-4.32 1.53 26.27 26.27 0 0 1-2.76-.07 10.79 10.79 0 0 0-1-4 53.85 53.85 0 0 1-6.23 2.6 19.18 19.18 0 0 0-2.49-3.9 39.17 39.17 0 0 0 13.5-6.12c-.1-.19-.2-.39-.33-.62a50.07 50.07 0 0 1-9.63 4.62 17.47 17.47 0 0 0-2.36-3.54 35.59 35.59 0 0 0 9.86-3.81l-.42-.39a50.59 50.59 0 0 1-7.64 2.6 24.76 24.76 0 0 0-2.43-3.65 41.28 41.28 0 0 0 9-2.6h-3.24v-4h17.26v4h-2.59a26 26 0 0 0 .95 2.74 31.62 31.62 0 0 0 3.74-3zm-23.88-4.72h-4.65v-7.81h11.6v-2.37h4.91v2.37h11.76v7.81H257V26h-18.71zm8.78 13.4a42.94 42.94 0 0 1-4.88 2.87c.79.06 1.51.06 2.13.06a2.12 2.12 0 0 0 1.87-.71 3.19 3.19 0 0 0 .88-2.22zm28.35 6.67a68.77 68.77 0 0 0-6.95-7.12l4.16-3.55a58.78 58.78 0 0 1 7 7.06zM304 31a41 41 0 0 1-2.26 12.2c2.16 2 5 2.47 8.32 2.5 1.77 0 7.24 0 9.37-.1a15 15 0 0 0-1.48 4.23h-8.16c-4.12 0-7.43-.62-10-2.79a14.12 14.12 0 0 1-3 3.12 14.92 14.92 0 0 0-2-3v3h-4.13v-16c-.42.61-.88 1.2-1.34 1.75a31.53 31.53 0 0 0-2-5.17 33.54 33.54 0 0 0 5.57-11.42l4.11 1.33c-.13.42-.26.81-.42 1.24h3.21l.65-.17 2.95.75c-.85 2.47-2 5.4-3.14 8.23h.46l.72-.06zm-8-7.22c-.36 1-.75 1.91-1.18 2.86v7.16c1.15-2.61 2.36-5.67 3.34-8.2H296zm2.16 11.93a18.22 18.22 0 0 0 .82 2.93 36.18 36.18 0 0 0 .85-4.62h-.88l-.53 1.24-3.6-.81v2.21zm-3.34 10.48a9.77 9.77 0 0 0 2.2-2.64 24.43 24.43 0 0 1-2.2-5.88zm13.2-21h-3.7v-3.34H308v-2.31h4.29v2.31h5.34v4.23H319v3.35h-1.45v4.3h-5.34v1h5.41v3.35h-5.41v1.08h6.16v3.35h-6.16V45H308v-2.52h-4.8v-3.35h4.8v-1.08h-4V34.7h4v-1h-3.7v-3.32h3.7v-.95h-5.76v-3.35H308zm4.29 0v.88h1.38v-.87zm1.38 4.23h-1.38v.95h1.38zm38.5 9.06h-1.58l3.39 2.66c-1.48.88-3 1.79-4.49 2.48a15.65 15.65 0 0 0 5 2.44 16.49 16.49 0 0 0-2.88 3.8 15.65 15.65 0 0 1-7.44-5.75v1.69c0 2.18-.45 3.19-1.86 3.8s-3.35.69-6.06.69a14.18 14.18 0 0 0-.86-2.8c-1.18.55-2.29 1.1-3.34 1.59l-2.19-3.74c1.47-.45 3.44-1.17 5.53-2a22.91 22.91 0 0 0-4.39-2.8l2.13-2.11h-.36v-3.04h6.85v-1h-8.12v-3.23h8.12v-.95h-6.42v-3.09h6.42v-1h-8.58v5.27c0 5.47-.53 13.86-3.61 19a18.27 18.27 0 0 0-3.86-2.57c2.75-4.65 3-11.55 3-16.43V22h11.53v-2.68h5V22h11.53v4.1h-10.46v1h8v4H355v3.22h-2.78zm-14.61 8h1.31c.55 0 .75-.16.75-.65v-7.35h-5.14a24 24 0 0 1 3.8 2.27l-2.39 2.44 2.35-.91.86 3.39zm6.61-15.29h3.51v-.95h-3.51zm0 4.23h3.51v-1h-3.51zm1.08 3.09a14 14 0 0 0 1.58 2.57 34 34 0 0 0 3.47-2.57zm30.15 3.77c.07-.81.13-2 .17-3.22-2 1.17-2.92 2.22-2.92 3.52s1 1.92 4.06 1.92a48.52 48.52 0 0 0 9.44-1l-.17 5a87.78 87.78 0 0 1-9.37.55c-5.33 0-9.17-1.36-9.17-5.66s3.87-6.89 7.47-8.78a2.44 2.44 0 0 0-1.77-.65 7.81 7.81 0 0 0-4.78 2.14 38.63 38.63 0 0 0-3 3.65l-4.2-3.12a29.8 29.8 0 0 0 6.95-8.3c-1.35 0-3.7-.07-5.41-.23v-4.49a42.6 42.6 0 0 0 5.83.39h1.28a19.34 19.34 0 0 0 .56-3.51l5.17.42a28 28 0 0 1-.72 2.93 76.15 76.15 0 0 0 8.75-.91v4.52c-3.05.39-7 .68-10.49.81a17.17 17.17 0 0 1-1.24 2.28 15.31 15.31 0 0 1 3.21-.33 4.71 4.71 0 0 1 4.32 2.28c1.31-.62 2.36-1 3.51-1.56 1.41-.62 2.75-1.24 4.13-1.89l1.93 4.49c-1.15.33-3.18 1.08-4.42 1.56s-2.82 1.08-4.52 1.83c0 1.75.09 3.93.13 5.36zm50.89-6.21h-7.83v8.85c0 2.54-.52 3.8-2.23 4.52s-4.09.81-7.14.81a18.62 18.62 0 0 0-1.64-4.81c2 .1 4.46.1 5.18.1s.92-.17.92-.72v-8.75h-16.78v-4.62h16.78v-3.61h4.91v3.61h7.83zm-24.21-5.63h-4.85v-8.23h11.66v-2.89H414v2.89h11.7v8.23h-5.11v-3.77H402.1zm1.9 5.92a27.41 27.41 0 0 1 5 6.38l-4.09 2.7a28.71 28.71 0 0 0-4.75-6.67zM457 25c-.85.52-1.67 1-2.49 1.56-1.83 1.23-4.68 3.54-6.45 4.91a11.13 11.13 0 0 1 2.26-.19c5.57 0 10 3.54 10 8.39 0 5-3.67 9.43-12.06 9.43-4.58 0-8.39-2.11-8.39-5.66 0-2.83 2.63-5.46 6.29-5.46 4 0 6.52 2.27 7.08 5.33a4.27 4.27 0 0 0 1.9-3.71c0-2.76-2.85-4.49-6.42-4.49-4.75 0-8.16 2.83-11.27 6.61L433.82 38c2.1-1.62 5.86-4.81 7.8-6.37s4.81-3.81 6.39-5.21c-1.64 0-5 .16-6.72.29-1 .07-2.13.17-2.92.3l-.16-5.01a27.38 27.38 0 0 0 3.31.2c1.74 0 8.22-.1 10.15-.26a17.6 17.6 0 0 0 2.89-.39zm-8.32 19.61c-.16-1.79-1.15-2.92-2.52-2.92-1.05 0-1.67.61-1.67 1.26 0 1 1.08 1.73 2.72 1.73.5-.02.99-.05 1.45-.09zm49.43-10.36a51.68 51.68 0 0 1-5.61 3.58 15.85 15.85 0 0 0 6.69 6.08 18.55 18.55 0 0 0-3.31 4.09c-5.7-3.28-8.62-9.17-10.45-16.69A20.62 20.62 0 0 1 483.1 33c6.09 5.4 5.7 13.37 2.39 15.75a5.67 5.67 0 0 1-4.32 1.53 26.08 26.08 0 0 1-2.75-.07 11 11 0 0 0-1.05-4 53.85 53.85 0 0 1-6.23 2.6 18.76 18.76 0 0 0-2.49-3.9 39.08 39.08 0 0 0 13.5-6.12c-.1-.19-.2-.39-.33-.62a49.79 49.79 0 0 1-9.63 4.62 17.47 17.47 0 0 0-2.36-3.54 35.47 35.47 0 0 0 9.86-3.81l-.42-.39a50.59 50.59 0 0 1-7.64 2.6 23.26 23.26 0 0 0-2.39-3.65 41 41 0 0 0 9-2.6H475v-4h17.26v4h-2.58a23.9 23.9 0 0 0 .95 2.74 32.3 32.3 0 0 0 3.73-3zm-23.89-4.72h-4.65v-7.81h11.6v-2.37h4.91v2.37h11.76v7.81H493V26h-18.78zm8.78 13.4a42.94 42.94 0 0 1-4.88 2.87c.79.06 1.51.06 2.13.06a2.1 2.1 0 0 0 1.87-.71 3.14 3.14 0 0 0 .88-2.22zm28.35 6.67a67.77 67.77 0 0 0-7-7.12l4.16-3.55a59.67 59.67 0 0 1 7 7.06zM39.94 79.84c-.13.33-.33.91-.56 1.5 3.67 1.3 6.2 4.2 6.2 8 0 4.53-2.53 9.18-10.72 10.38l-2.58-4.06c6.48-.72 8.42-3.94 8.42-6.54a4.21 4.21 0 0 0-2.7-3.88 24.23 24.23 0 0 1-6.58 9.37c.23.78.46 1.53.72 2.28l-4.52 1.33c-.13-.32-.23-.71-.36-1.1a11.85 11.85 0 0 1-4.75 1.1c-2.53 0-4.69-1.49-4.69-5.07 0-4.13 3.34-8.53 7.9-10.71.06-1.2.16-2.44.29-3.61h-.52c-1.9 0-4.43-.16-6-.22l-.13-4.46a53.8 53.8 0 0 0 6.32.45h.79l.13-1.3a16.69 16.69 0 0 0 .1-2.14l5.07.13c-.23.74-.36 1.33-.49 1.88s-.19.88-.26 1.34a51.94 51.94 0 0 0 10.78-1.4v4.45a88.38 88.38 0 0 1-11.39 1.14c-.07.78-.13 1.56-.2 2.35a20.39 20.39 0 0 1 4.52-.49h.2a17.15 17.15 0 0 0 .26-1.82zM26.31 92.72a48.88 48.88 0 0 1-.59-5.56c-2 1.5-3.24 3.55-3.24 5 0 .88.33 1.36 1.28 1.36a5.83 5.83 0 0 0 2.55-.8zm7.34-8.19a16 16 0 0 0-3.57.58 40.24 40.24 0 0 0 .3 4.39 18.09 18.09 0 0 0 3.27-4.97zM70 78.93A52.51 52.51 0 0 1 64.49 80a60 60 0 0 1-6.88 13.9l-4.75-2.38a50.33 50.33 0 0 0 6.45-11 9.48 9.48 0 0 1-1.05 0c-1.37 0-2.68 0-4.19-.13l-.36-4.49c1.51.16 3.44.22 4.52.22.85 0 1.67 0 2.52-.09a25.12 25.12 0 0 0 .82-5.27l5.37.52c-.22 1-.58 2.47-1 4.1 1.5-.3 2.88-.62 4-1zm4.56 2.44c-.1 1.4 0 2.93 0 4.52 0 .75.09 2 .16 3.35a20.89 20.89 0 0 1 6.71 4.2l-2.58 4.2a34.9 34.9 0 0 0-3.93-3.29c-.1 3.09-1.81 5.4-6.59 5.4-4.29 0-7.63-2-7.63-5.72 0-3.22 2.55-6 7.57-6a13.62 13.62 0 0 1 1.7.1c-.13-2.31-.26-5-.36-6.77zM70.12 92.2a12 12 0 0 0-2.19-.2c-1.61 0-2.59.65-2.59 1.56s.88 1.75 2.26 1.75c1.93 0 2.52-1.13 2.52-2.92zm9.47-8.65a45.77 45.77 0 0 0-8-4.65l2.53-3.9a64.77 64.77 0 0 1 8.25 4.42zm27.76-4.26a54.1 54.1 0 0 1-6 1c-.33 1.36-.66 2.8-1 4.06a107.18 107.18 0 0 1-5.18 15l-5.47-1.82c1.93-3.19 4.49-10.05 5.7-14.54.2-.75.43-1.53.59-2.28h-1.64c-1.67 0-2.92-.06-4-.13l-.13-4.84a35.1 35.1 0 0 0 4.19.26c.86 0 1.74 0 2.59-.07a10.65 10.65 0 0 0 .2-1.3 18.34 18.34 0 0 0 .1-3.61l6 .45c-.26 1-.59 2.57-.75 3.32l-.13.56c1.67-.27 3.34-.59 5-1zm-.3 10.18a11.59 11.59 0 0 0-.42 2.57c0 1.33.85 2.18 3.7 2.18a41.71 41.71 0 0 0 6.94-.68l-.19 5a55.53 55.53 0 0 1-6.78.45c-5.67 0-8.52-2-8.52-5.33a22.8 22.8 0 0 1 .59-4.59zm-2.52-8.23c1.87-.19 4.29-.36 6.42-.36a57.36 57.36 0 0 1 5.73.3l-.09 4.68a46.61 46.61 0 0 0-5.64-.42 49.86 49.86 0 0 0-6.42.36zm28.54-8.82a31.94 31.94 0 0 0-.88 3.29 88.77 88.77 0 0 0-1.51 12.17 6.61 6.61 0 0 0 0 .75c.4-.95.79-1.57 1.22-2.51l2.42 1.88a81.61 81.61 0 0 0-2.32 8 9.61 9.61 0 0 0-.2 1.53v1.46l-4.42.3A36.76 36.76 0 0 1 126 89a98 98 0 0 1 1.28-13.37c.13-1 .32-2.44.36-3.64zm19.3 24.79a37.94 37.94 0 0 0-3.47-2.92c-.43 3-2.43 4.91-6.69 4.91-4.55 0-7.57-2-7.57-5.6s3-5.92 7.51-5.92c.55 0 1.11 0 1.63.07-.09-1.69-.19-3.68-.22-5.7h-1.84c-1.93 0-3.86-.07-5.8-.2V77.2q2.85.29 5.8.29h1.83c0-1.5 0-2.7-.06-3.29a15.71 15.71 0 0 0-.29-2.2h5.6a19.68 19.68 0 0 0-.2 2.15c0 .62-.07 1.69-.1 3 1.64-.16 3.25-.42 4.72-.71v4.85c-1.44.19-3.05.39-4.75.52.06 2.92.23 5.23.33 7.12a20.46 20.46 0 0 1 6.2 4.19zM144 91.75a8.1 8.1 0 0 0-2.2-.29c-1.5 0-2.52.58-2.52 1.59s1.15 1.53 2.52 1.53c1.58 0 2.2-.85 2.2-2.6zm40.42-11.84c-1.15.68-2.33 1.3-3.64 2a69.35 69.35 0 0 0-7.5 4c-2.52 1.63-4.33 3.35-4.33 5.47s2.07 3.12 6.23 3.12a55.45 55.45 0 0 0 10.71-1.24l-.07 5.63a61.84 61.84 0 0 1-10.51.81c-6.68 0-11.83-1.78-11.83-7.74 0-3.67 2.3-6.31 5.28-8.55-1.51-2.77-3-6.06-4.46-9.44l4.95-2a67.54 67.54 0 0 0 3.9 8.59c2.09-1.24 4.06-2.25 5.43-3a23.08 23.08 0 0 0 3.42-2.24zm.39-8.66a50.68 50.68 0 0 1 2.55 4.46L184.25 77a45.77 45.77 0 0 0-2.52-4.52zm4-1.56a47.48 47.48 0 0 1 2.59 4.43l-3.08 1.3a36.52 36.52 0 0 0-2.59-4.49zm32.63 9.08a125.29 125.29 0 0 1-12.74 1.33c-.36 1.56-.75 3.13-1.15 4.49A17.36 17.36 0 0 1 215 83c5.28 0 9 2.86 9 7.19 0 7.51-7.1 10.21-17.95 9l-1.41-5c6.92 1.2 14 .58 14-3.87 0-1.63-1.5-3.13-4.32-3.13-3.67 0-6.81 1.37-8.62 3.75a10 10 0 0 0-.85 1.36l-4.65-1.63a50.25 50.25 0 0 0 3.64-10.47c-1.94-.07-3.74-.13-5.24-.29v-4.82a48.66 48.66 0 0 0 6.15.65c.07-.32.1-.62.14-.87a18.37 18.37 0 0 0 .16-3.58l5.54.22c-.4 1.31-.59 2.44-.86 3.61l-.09.49a79.5 79.5 0 0 0 11.63-1.49zm20.45 5.89a16.53 16.53 0 0 1 9-2.61c6.09 0 9.4 3.78 9.4 7.71 0 6-4.42 10.84-18.7 9.6L240 94.25c9.46 1.4 14.71-.65 14.71-4.58 0-1.83-1.77-3.19-4.36-3.19A10.9 10.9 0 0 0 242 90a8.39 8.39 0 0 0-1.34 2l-4.49-1.11a123.06 123.06 0 0 0 1.61-13.69l5.27.71a56.07 56.07 0 0 0-1.16 6.75zm.43-13.54a101.69 101.69 0 0 0 13.24 2.51l-1.18 4.81c-3.41-.45-10.75-2-13.3-2.63zm41.35 21.64c.07-.82.13-2 .17-3.22-2 1.17-2.92 2.21-2.92 3.51S281.94 95 285 95a48.52 48.52 0 0 0 9.44-1l-.17 5a87.63 87.63 0 0 1-9.37.56c-5.34 0-9.17-1.37-9.17-5.66s3.87-6.9 7.47-8.79a2.44 2.44 0 0 0-1.77-.65 7.82 7.82 0 0 0-4.78 2.15 41.36 41.36 0 0 0-3 3.64l-4.19-3.12a29.83 29.83 0 0 0 6.95-8.3c-1.35 0-3.71-.06-5.41-.22v-4.53a42.6 42.6 0 0 0 5.83.39h1.28a19.34 19.34 0 0 0 .56-3.51l5.17.42a27.44 27.44 0 0 1-.72 2.93 74 74 0 0 0 8.75-.91v4.52c-3.05.39-7 .69-10.49.82a19 19 0 0 1-1.31 2.26 16.06 16.06 0 0 1 3.21-.32A4.73 4.73 0 0 1 287.6 83c1.31-.61 2.36-1 3.51-1.56 1.41-.61 2.75-1.23 4.13-1.88l1.93 4.44c-1.15.32-3.18 1.07-4.42 1.56s-2.82 1.07-4.52 1.82c0 1.76.09 3.94.13 5.37zm46.99 3.12c1.87-.06 3.64-.16 5.11-.29a21.71 21.71 0 0 0-1.41 4.39c-4.42.23-11.76.29-16.08.1-3.8-.17-6.29-1-8.23-3.55-1.14 1.24-2.36 2.41-3.9 3.84L304 95.85c1.11-.75 2.39-1.66 3.57-2.64v-6.47h-3v-4.36H312v10.44a5.62 5.62 0 0 0 4 2.8 31.94 31.94 0 0 0-3-2.38 23.35 23.35 0 0 0 5.27-1.95h-5.44v-3.41h5v-1.66h-4.09v-3.35h4.09v-1.4h4.46v1.4h2.92v-1.4h4.52v1.4h4.22v3.35h-4.22v1.66h5.24v3.41h-5.54a57.44 57.44 0 0 1 5.73 3.06zm-22.51-17.37a25.09 25.09 0 0 0-4.09-5.63l3.77-2.34a25.64 25.64 0 0 1 4.39 5.33zm10.72-5h-5.8v-2.87h9.76v6.73h-1.67a10.46 10.46 0 0 0 3.08 1.07c-.4 2.28-1.41 2.93-3.61 2.93h-3c-3.21 0-4.1-.88-4.1-3.87v-3.06h5.38zm4.32 18.67a22.44 22.44 0 0 1-6.19 3.64l1.25.09c2.85.13 7.47.13 11.72 0a35.47 35.47 0 0 0-5.37-3.28l2.43-1.34h-6.52zm-3.05-13.89c.56 0 .72-.16.86-.94h-3.64v.1c0 .75.13.84.85.84zm2.1 9.57h2.92v-1.64h-2.92zm7.47-14.35h-6v-2.87h10.06v6.73h-1.8a10.36 10.36 0 0 0 3.03 1.07c-.4 2.28-1.41 2.93-3.61 2.93h-3c-3.21 0-4.1-.88-4.1-3.87v-3.06h5.44zm1.21 4.78c.56 0 .72-.16.85-.94h-3.63v.1c0 .75.13.84.85.84zm32.34-5.41a26.89 26.89 0 0 0 7 13.37l-3.64 3.87c-.79-1-1.57-2.18-2.36-3.41.1 7-3.54 13.53-12 13.53-5.54 0-9.47-3.51-9.47-9.24a20 20 0 0 1 4.69-12.2c-1 .1-2.46.33-3.54.55-.69.13-1.18.26-2 .46l-.68-5a17.41 17.41 0 0 0 1.9-.1 63 63 0 0 0 11.3-1.88l1.54 4.28a8.19 8.19 0 0 0-1.57.78c-2.33 1.85-6.55 7.32-6.55 12.43a4.34 4.34 0 0 0 4.65 4.62c6.06 0 9.47-7.19 6.65-18.9-.23-.56-.43-1.11-.66-1.7zm1.94 3.81a33.65 33.65 0 0 0-1.74-4.82l2.88-.88a46.28 46.28 0 0 1 1.71 4.79zm3.73-1.21a36.66 36.66 0 0 0-1.77-4.78l2.79-.91a39.43 39.43 0 0 1 1.87 4.78zm32.58 22.58a25.48 25.48 0 0 0-5.8-4.2v.65c0 3-2.46 5.08-6.75 5.08-5.47 0-8.32-2.15-8.32-5.73s3.11-5.86 8.28-5.86c.53 0 1.05 0 1.58.07l-.1-2.15h-1.57c-1.74 0-5.54-.16-7.6-.42v-4.59a52.37 52.37 0 0 0 7.63.62h1.44V78.9h-1.54a51.09 51.09 0 0 1-6.72-.49v-4.43a40.86 40.86 0 0 0 6.71.62h1.61v-1.1a15.64 15.64 0 0 0-.2-2.35h5.31c-.1.69-.2 1.6-.23 2.35v1c2.39-.13 4.62-.36 7.4-.78l.1 4.46c-1.93.19-4.46.45-7.57.58v2.67c3.34-.16 5.93-.45 8.42-.75v4.59c-2.85.29-5.24.49-8.35.59.06 1 .13 2.08.19 3.12a25.47 25.47 0 0 1 8.88 4.78zm-10.82-5.89a14.82 14.82 0 0 0-2.42-.19c-1.8 0-2.85.68-2.85 1.59 0 1.07 1.08 1.63 2.75 1.63s2.56-.46 2.56-2.12a8.26 8.26 0 0 0-.04-.91zm51.45-12.82c-1.94-.09-5-.16-9.08-.19v4.49a8.32 8.32 0 0 1 1.28 4.65c0 4.13-2.68 9.73-10.81 11.91L419.4 96c2.82-.55 5.54-1.33 7.44-2.83a4 4 0 0 1-.59 0 6 6 0 0 1-5.77-6.18c0-3.9 3.15-6.27 6.91-6.27a7.13 7.13 0 0 1 .82 0v-1.63c-4.88.07-9.66.26-13.63.46l-.16-4.55c3.77 0 9.5-.09 13.69-.16v-.36c-.1-1.23-.23-2.6-.36-3.22h5.67c-.1.62-.23 2.6-.26 3.19v.36c3 0 7.37-.07 9.07 0zM427.26 89c1.05 0 2.13-.75 1.77-3.22a2.13 2.13 0 0 0-1.77-.85A2 2 0 0 0 425.2 87a2.05 2.05 0 0 0 2.06 2zm35.92-17.16c-.23 1-.49 2.18-.69 3.09s-.36 1.76-.56 2.6c.85-.06 1.61-.1 2.2-.1 3.73 0 6.19 1.76 6.19 6.58 0 3.77-.43 8.94-1.8 11.81-1.12 2.3-3 3.12-5.67 3.12a19.3 19.3 0 0 1-3.93-.46l-.85-5.14a20.38 20.38 0 0 0 4 .69 2.19 2.19 0 0 0 2.19-1.24c.82-1.59 1.22-5.27 1.22-8.26 0-2.35-1-2.64-3-2.64-.36 0-.91 0-1.5.07-1.31 5-3.74 12.75-6.49 17.17l-5.14-2c3.08-4.13 5.17-10.15 6.38-14.54l-2 .29c-1.05.13-2.91.4-4 .59l-.43-5.24a33.87 33.87 0 0 0 3.77 0c.95 0 2.29-.13 3.73-.23a31.63 31.63 0 0 0 .62-6.73zm11.2 2.76A59.54 59.54 0 0 1 480 86.87l-5 2.31c-.79-3.74-2.95-9.63-5.31-12.62zm28.81 5.57c0-1.79-1.54-2.61-3.71-2.61a6.05 6.05 0 0 0-4.68 2.35L491.59 77a11.11 11.11 0 0 1 8.58-4.1c4.82 0 8.59 2.11 8.59 6.77s-6.79 5-6.49 9.3h-5.11c-.53-4.97 6.03-5.97 6.03-8.8zm-3.48 10.67a3.57 3.57 0 0 1 3.87 3.54 3.87 3.87 0 0 1-7.73 0 3.56 3.56 0 0 1 3.86-3.54z"/></g></g></svg>