<svg xmlns="http://www.w3.org/2000/svg" viewBox="0 0 250.18 46.51"><defs><style>.cls-1{fill:#b18021;}</style></defs><title>i-advance3</title><g id="Layer_2" data-name="Layer 2"><g id="SVG"><path class="cls-1" d="M46.69,11C39,21.72,32.32,33.43,33.08,41.26c.14,1.45.76,2,1.61,1.92,1.63-.16,4.38-2.5,6.93-5.65,1.65-2.06,3.69-5.15,4.55-6.49l.36.18a54.58,54.58,0,0,1-4.92,7.09c-2.63,3.2-5.29,5.66-8.2,5.94s-3.83-1.61-4-3.75a20.91,20.91,0,0,1,1.93-9.91l-6,.58C21.19,37.14,15,45.7,7.14,46.46c-3.38.33-6.78-.9-7.12-4.41-.16-1.62.62-3.38,2.42-3.56a2,2,0,0,1,2.23,1.64c.15,1.54-.77,2.28-2.27,2.43.24,2.44,2.86,3.56,4.91,3.36C15,45.18,21.4,35.74,25.51,30.07c5.57-7.62,12.14-15.61,20.85-19.26Zm-15.18,19a65.16,65.16,0,0,1,10.6-16.37l-.1-.07c-6.38,4.16-11.32,10.17-16.27,17Z"/><path class="cls-1" d="M67.23,10.72,72,10c-4.75,9.83-14.7,27.05-14.38,30.34.06.6.4,1,1,.94,1.2-.12,3.27-1.48,5.58-4.39a73.06,73.06,0,0,0,5.49-8l.45.17A84.09,84.09,0,0,1,65,36.69c-2.47,3.09-4.68,5.2-7.5,5.48A2.76,2.76,0,0,1,54.17,39l-.1-.08c-1.57,2-3.49,3.62-6.23,3.89s-3.93-1.74-4.15-4.05c-.56-5.73,5.4-12.4,11-12.95a3.86,3.86,0,0,1,4.11,2.37ZM57.34,28.53a2.12,2.12,0,0,0-2.5-2.17c-3.56.34-7.42,8.1-7,12.34.13,1.37.81,2.6,2.35,2.45C53.86,40.79,57.71,32.38,57.34,28.53Z"/><path class="cls-1" d="M75.44,24.35C73.76,27.5,69,34.83,69.32,38.3A1.67,1.67,0,0,0,71.44,40c4.32-.42,8.3-8.36,7.94-13a4.21,4.21,0,0,1-.51-1.64,1.94,1.94,0,0,1,1.79-2.11c1.41-.14,2.34,1,2.5,3.51a12.67,12.67,0,0,1,0,2,5,5,0,0,0,3.5.91,5.41,5.41,0,0,0,4-3l.37.18a5.67,5.67,0,0,1-4.43,3.32,6,6,0,0,1-3.54-.86A13.71,13.71,0,0,1,71.4,40.56c-2.78.27-5-.64-5.33-3.72-.28-2.91,1.52-5.76,4.72-11.86Z"/><path class="cls-1" d="M102.8,22.12l4.43-.69c-1.29,3.2-6.63,11.36-6.33,14.4a1,1,0,0,0,1.17,1c1.37-.14,3.73-2.14,6-5a81,81,0,0,0,5-7.18l.31.14a69.43,69.43,0,0,1-5.37,7.78c-2.43,3-4.94,5.19-7.55,5.44-1.8.18-3-.79-3.11-2.16a2.82,2.82,0,0,1,.06-1.13h-.08c-1.57,2.14-3.72,3.95-6.25,4.19-2.78.27-4-1.89-4.26-4.29-.54-5.57,5.66-12.43,11-13a3.66,3.66,0,0,1,4,2.29ZM93.47,37.2c3.61-.61,7.49-9.63,7.18-12.84-.15-1.54-.71-2.39-2.34-2.23-3.93.38-7.62,8.73-7.28,12.2C91.19,36,91.72,37.37,93.47,37.2Z"/><path class="cls-1" d="M114.35,28.52c1.42-2.21,5.52-9,10-9.44a2.63,2.63,0,0,1,3.13,2.46c.38,3.85-5.09,8.92-4.78,12.09a1,1,0,0,0,1.22,1c.81-.08,2.52-1.24,5.31-4.89,2.19-2.84,4.14-5.84,5.05-7.18l.45.17c-1.33,1.9-3.32,5-5.51,7.79-2.69,3.42-4.37,4.79-6.6,5a2.88,2.88,0,0,1-3.45-2.65c-.37-3.85,5.08-9,4.83-11.7a1.08,1.08,0,0,0-1.31-.95c-3.38.33-10,11.43-11.76,15.87l-4.31.55c2.51-5.3,5.15-10.52,7.61-15.94l4.86-.65-4.81,8.33Z"/><path class="cls-1" d="M131.9,19.81l.23-.8,3.29-.32,2.69-5.7,4.6-.62-3,5.91,5.44-.53-.31.81-5.53.53c-4.31,9-5.81,11.71-5.65,13.38a1.13,1.13,0,0,0,1.28,1.13c1.41-.13,3.79-1.92,6.19-4.75a67.21,67.21,0,0,0,5.36-7.52l.28.19a65.94,65.94,0,0,1-5.12,7.33c-2.4,2.91-5.18,5.38-7.79,5.64-1.8.17-3.5-.4-3.7-2.45-.29-3,2.11-6.3,5-12.54Z"/><path class="cls-1" d="M158.54,16.7,163,16c-1.29,3.2-6.63,11.36-6.33,14.4a1,1,0,0,0,1.17,1c1.37-.14,3.73-2.14,6-5a81,81,0,0,0,5.05-7.18l.31.14a69.71,69.71,0,0,1-5.38,7.78c-2.43,3-4.93,5.19-7.54,5.44-1.8.18-3-.79-3.11-2.16a2.82,2.82,0,0,1,.06-1.13h-.08c-1.57,2.14-3.72,3.95-6.25,4.19-2.78.27-4-1.89-4.26-4.29-.54-5.57,5.66-12.43,11-12.95a3.66,3.66,0,0,1,4,2.29Zm-9.33,15.08c3.61-.61,7.49-9.63,7.18-12.84-.15-1.54-.71-2.39-2.34-2.23-3.93.38-7.62,8.73-7.28,12.2C146.93,30.53,147.46,32,149.21,31.78Z"/><path class="cls-1" d="M159.21,35c-3,.34-4.37,2.2-4.1,5a4.63,4.63,0,0,0,5.26,4.33c8-.78,12.44-12,15.82-18.17l-.09-.08c-1.64,2.32-4,4.63-7,4.92-2.31.23-3.79-1.57-4-3.71-.55-5.61,5.11-12.73,10.76-13.28,2.14-.21,3.4.36,4.29,2.39l.81-1.93,4.34-.68c-2.58,5.52-4.91,11.27-7.69,16.86,6.19-2.46,10.3-8.22,13.65-13.73l.27.1c-3.27,5.9-7.92,11.79-14.21,14.26-3.42,7.5-9.21,12.82-17.38,13.61-4.19.41-8-.64-8.41-4.75-.31-3.13,2.43-5.16,5.3-5.44.51,0,1.82,0,2.38,0Zm12.53-5.71c3.59-.35,7.28-9.13,7-12.38-.12-1.2-.47-2.59-2-2.44-4.19.4-7.91,8.33-7.55,12.09C169.3,28.27,169.81,29.52,171.74,29.33Z"/><path class="cls-1" d="M209.19,15.41a48.58,48.58,0,0,1-5.75,7.86c-3.6,3.93-7.17,5.4-10.34,5.71a5,5,0,0,1-5.77-4.71c-.53-5.48,6.31-11.93,11.67-12.45,2.43-.24,4,.61,4.15,2.32.4,4.15-8.75,6.85-11.68,7.79a6.28,6.28,0,0,0-.07,1.56c.24,2.44,1.86,4,4.3,3.77s5.25-2,7.9-5a61.42,61.42,0,0,0,5.27-7.12Zm-10.83-3c-2.87.28-6.4,6.15-6.85,9.09,4.57-1.39,8.38-5.31,8.11-8.09A1,1,0,0,0,198.36,12.4Z"/><path class="cls-1" d="M236,12.11c4.44-.6,10.86-2.09,10.31-7.79A3.66,3.66,0,1,0,239,5a2.22,2.22,0,0,0,2.36,2.06,2.3,2.3,0,0,0,1.53-.71,3.93,3.93,0,0,1-3.46,3.06,2.93,2.93,0,0,1-3.31-2.92c-.23-2.39,2-5.94,7.45-6.47,3-.29,6.24.65,6.55,3.81.49,5.05-5.92,6.67-9.62,7.72v.09c2.82-.32,6.21.34,6.54,3.73.61,6.29-6.53,8.8-10.85,9.22-4.84.47-8.77-.84-9.17-5a4.24,4.24,0,0,1,3.86-4.74,5.26,5.26,0,0,1,3.89,1.44l-.14.32a4.67,4.67,0,0,0-1.3-.09c-2,.19-2.78,2-2.61,3.79.25,2.66,2.68,4,5.42,3.75A7.69,7.69,0,0,0,243,15.67c-.28-2.87-2.22-3.68-5-3.41a9.39,9.39,0,0,0-2,.42Z"/></g></g></svg>