<svg xmlns="http://www.w3.org/2000/svg" viewBox="0 0 246.28 46.69"><defs><style>.cls-1{fill:#b18021;}</style></defs><title>i-advance1</title><g id="Layer_2" data-name="Layer 2"><g id="SVG"><path class="cls-1" d="M46.69,11.21C39,21.9,32.32,33.6,33.08,41.44c.14,1.45.76,2,1.61,1.91,1.63-.16,4.38-2.5,6.93-5.64,1.65-2.06,3.69-5.15,4.55-6.49l.36.18a54.58,54.58,0,0,1-4.92,7.09c-2.63,3.19-5.29,5.66-8.2,5.94s-3.83-1.62-4-3.76a20.9,20.9,0,0,1,1.93-9.9l-6,.58C21.19,37.32,15,45.88,7.14,46.64,3.76,47,.36,45.74,0,42.23c-.16-1.63.62-3.39,2.42-3.56a2,2,0,0,1,2.23,1.64c.15,1.54-.77,2.28-2.27,2.42.24,2.44,2.86,3.57,4.91,3.37C15,45.36,21.4,35.92,25.51,30.25,31.08,22.62,37.65,14.64,46.36,11Zm-15.18,19a64.8,64.8,0,0,1,10.6-16.37l-.1-.08C35.63,18,30.69,24,25.74,30.79Z"/><path class="cls-1" d="M67.23,10.9,72,10.18c-4.75,9.83-14.7,27-14.38,30.34.06.6.4,1,1,.94,1.2-.12,3.27-1.49,5.58-4.39a74,74,0,0,0,5.49-8l.45.17A82.7,82.7,0,0,1,65,36.86c-2.47,3.09-4.68,5.21-7.5,5.49a2.76,2.76,0,0,1-3.33-3.14l-.1-.07c-1.57,2-3.49,3.62-6.23,3.89S43.91,41.29,43.69,39c-.56-5.74,5.4-12.41,11-12.95a3.83,3.83,0,0,1,4.11,2.37ZM57.34,28.71a2.13,2.13,0,0,0-2.5-2.18c-3.56.35-7.42,8.11-7,12.35.13,1.37.81,2.6,2.35,2.45C53.86,41,57.71,32.56,57.34,28.71Z"/><path class="cls-1" d="M75.44,24.53C73.76,27.67,69,35,69.32,38.47a1.68,1.68,0,0,0,2.12,1.74c4.32-.42,8.3-8.37,7.94-12.95a4.21,4.21,0,0,1-.51-1.64,2,2,0,0,1,1.79-2.12c1.41-.13,2.34,1,2.5,3.52a12.67,12.67,0,0,1,0,2,5,5,0,0,0,3.5.91,5.41,5.41,0,0,0,4-3l.37.18a5.69,5.69,0,0,1-4.43,3.32,6.09,6.09,0,0,1-3.54-.86A13.69,13.69,0,0,1,71.4,40.73c-2.78.27-5-.63-5.33-3.71-.28-2.91,1.52-5.77,4.72-11.87Z"/><path class="cls-1" d="M102.8,22.3l4.43-.69C105.94,24.8,100.6,33,100.9,36a.94.94,0,0,0,1.17,1c1.37-.13,3.73-2.13,6-5a80.91,80.91,0,0,0,5-7.19l.31.15a70.36,70.36,0,0,1-5.37,7.78c-2.43,3-4.94,5.19-7.55,5.44-1.8.17-3-.79-3.11-2.16a2.82,2.82,0,0,1,.06-1.13h-.08c-1.57,2.14-3.72,3.95-6.25,4.19-2.78.27-4-1.9-4.26-4.29-.54-5.57,5.66-12.43,11-13a3.66,3.66,0,0,1,4,2.29ZM93.47,37.38c3.61-.61,7.49-9.63,7.18-12.84-.15-1.54-.71-2.39-2.34-2.23C94.38,22.69,90.69,31,91,34.5,91.19,36.13,91.72,37.55,93.47,37.38Z"/><path class="cls-1" d="M114.35,28.7c1.42-2.22,5.52-9,10-9.44a2.63,2.63,0,0,1,3.13,2.46c.38,3.85-5.09,8.92-4.78,12.09a1,1,0,0,0,1.22,1c.81-.08,2.52-1.24,5.31-4.88,2.19-2.84,4.14-5.84,5.05-7.18l.45.17c-1.33,1.9-3.32,5-5.51,7.79-2.69,3.42-4.37,4.79-6.6,5a2.88,2.88,0,0,1-3.45-2.65c-.37-3.85,5.08-9,4.83-11.7a1.08,1.08,0,0,0-1.31-.95c-3.38.32-10,11.43-11.76,15.87l-4.31.55c2.51-5.3,5.15-10.52,7.61-16l4.86-.64-4.81,8.33Z"/><path class="cls-1" d="M131.9,20l.23-.8,3.29-.32,2.69-5.7,4.6-.63-3,5.91,5.44-.52-.31.8-5.53.54c-4.31,9-5.81,11.71-5.65,13.38a1.13,1.13,0,0,0,1.28,1.13c1.41-.14,3.79-1.92,6.19-4.75a68.15,68.15,0,0,0,5.36-7.52l.28.19A65.94,65.94,0,0,1,141.64,29c-2.4,2.91-5.18,5.39-7.79,5.64-1.8.18-3.5-.39-3.7-2.45-.29-2.95,2.11-6.29,5-12.53Z"/><path class="cls-1" d="M158.54,16.88l4.43-.69c-1.29,3.19-6.63,11.36-6.33,14.4a.94.94,0,0,0,1.17,1c1.37-.13,3.73-2.13,6-5a80.91,80.91,0,0,0,5.05-7.19l.31.15a70.65,70.65,0,0,1-5.38,7.78c-2.43,3-4.93,5.19-7.54,5.44-1.8.17-3-.79-3.11-2.16a2.82,2.82,0,0,1,.06-1.13h-.08c-1.57,2.14-3.72,3.95-6.25,4.19-2.78.27-4-1.9-4.26-4.29-.54-5.57,5.66-12.43,11-12.95a3.66,3.66,0,0,1,4,2.29ZM149.21,32c3.61-.61,7.49-9.63,7.18-12.84-.15-1.54-.71-2.39-2.34-2.23-3.93.38-7.62,8.73-7.28,12.19C146.93,30.71,147.46,32.13,149.21,32Z"/><path class="cls-1" d="M159.21,35.22c-3,.33-4.37,2.2-4.1,5a4.63,4.63,0,0,0,5.26,4.33c8-.78,12.44-12,15.82-18.17l-.09-.08c-1.64,2.32-4,4.62-7,4.92-2.31.22-3.79-1.58-4-3.72-.55-5.6,5.11-12.72,10.76-13.27,2.14-.21,3.4.36,4.29,2.39l.81-1.94,4.34-.68c-2.58,5.52-4.91,11.28-7.69,16.87,6.19-2.46,10.3-8.22,13.65-13.73l.27.1c-3.27,5.89-7.92,11.79-14.21,14.26-3.42,7.5-9.21,12.82-17.38,13.61-4.19.41-8-.64-8.41-4.75-.31-3.13,2.43-5.17,5.3-5.44.51,0,1.82,0,2.38,0Zm12.53-5.71c3.59-.35,7.28-9.13,7-12.39-.12-1.19-.47-2.59-2-2.44-4.19.41-7.91,8.33-7.55,12.1C169.3,28.45,169.81,29.7,171.74,29.51Z"/><path class="cls-1" d="M209.19,15.59a48.58,48.58,0,0,1-5.75,7.86c-3.6,3.93-7.17,5.4-10.34,5.71a5,5,0,0,1-5.77-4.71C186.8,19,193.64,12.52,199,12c2.43-.24,4,.6,4.15,2.31.4,4.16-8.75,6.86-11.68,7.79a6.38,6.38,0,0,0-.07,1.57c.24,2.43,1.86,4,4.3,3.77s5.25-2,7.9-5a62.34,62.34,0,0,0,5.27-7.13Zm-10.83-3c-2.87.28-6.4,6.15-6.85,9.09,4.57-1.4,8.38-5.31,8.11-8.09A1,1,0,0,0,198.36,12.58Z"/><path class="cls-1" d="M229,10A49.12,49.12,0,0,0,246,0l.32.23C242.36,8,238,16.5,234.62,23.83l4-.61-.15.31c-2.93.55-5.86,1-8.81,1.38L239.86,5.3l-.09-.08a53.8,53.8,0,0,1-10.64,5.19Z"/></g></g></svg>