<svg xmlns="http://www.w3.org/2000/svg" viewBox="0 0 409.81 98.96"><defs><style>.cls-1{fill:#fff;}</style></defs><title>i-bantext2</title><g id="Layer_2" data-name="Layer 2"><g id="SVG"><rect width="345.49" height="49.48"/><path class="cls-1" d="M42.59,33.26v3.09H18.35V33.26H28.88V19H20.34V16H40.77V19H32.12V33.26Z"/><path class="cls-1" d="M54.66,29.79c-.82,2-1.87,4.4-3,6.87a2.41,2.41,0,0,0-.22.74c0,.09.08.51.08.6s0,.19-.14.19a1,1,0,0,1-.51-.19l-2.75-1.85a32.42,32.42,0,0,0,4.34-8Zm-4.77-9.11a29.21,29.21,0,0,1,4.12,3L52.16,26a33.71,33.71,0,0,0-3.88-2.89Zm2.39-6.75a27.25,27.25,0,0,1,3.8,3.43L54,19.41a30.87,30.87,0,0,0-3.58-3.27ZM65.19,27c-1.3,3.35-2,5-2.69,6.53,3.6-.37,4.85-.57,5.56-.68a31.48,31.48,0,0,0-2.24-3l2.38-1.53a36.32,36.32,0,0,1,5.68,7.86L71,37.77c-.37-.71-.48-.88-1.5-2.64-3.75.71-7.53,1.22-11.3,1.76-.62.08-.85.14-.91.28-.14.32-.2.46-.42.46s-.34-.49-.46-.91L55.77,34c1,0,1.65-.05,3.38-.17A53.44,53.44,0,0,0,62,27H55.83V24.43H63v-4H57.27V17.87H63V13.81l2.72.15c.71,0,1.22.08,1.22.42a.42.42,0,0,1-.23.31c-.65.4-.73.46-.73.66v2.52h6.47V20.4H66v4h7.66V27Z"/><path class="cls-1" d="M88.15,25.9a2.84,2.84,0,1,1-2.84-2.83A2.84,2.84,0,0,1,88.15,25.9Z"/><path class="cls-1" d="M103.76,38.08H101V27.72a22.89,22.89,0,0,1-2.32,4.77l-2.22-1.67a28.63,28.63,0,0,0,4.34-10H97V18.1H101V13.73l2.67.17c.4,0,.74.11.74.4,0,.11-.17.22-.46.39a.5.5,0,0,0-.16.46v3h2.8v2.7h-2.8V22a13.91,13.91,0,0,0,3.66,4.77l-2,1.9a9.11,9.11,0,0,1-1.67-2.13Zm3.8-12.8h4.85V23.75h-6.53V21.62h4.06V20.34h-2.38V18.55h2.38V17.36h-3.66v-2h3.66V13.73l2.67.17c.23,0,.57,0,.57.26s-.43.45-.57.56a1.87,1.87,0,0,0-.06.68h2.59V13.81l2.64.18c.25,0,.76,0,.76.34,0,.14-.62.45-.74.56a.89.89,0,0,0-.08.51h3.83v2h-3.83v1.19h2.81v1.79h-2.81v1.28h4.08v2.13h-6.72v1.53h5v6.3h1.75V34h-1.75v1.9c0,1.59-.88,2.21-3.07,2.21h-1.47l-1-2.58h1.9c.4,0,1,0,1-.8V34h-7.15v4.11h-2.67V34h-2.24V31.58h2.24Zm4.85,3.24V27.27h-2.18v1.25Zm-2.18,3.06h2.18V30.16h-2.18Zm4.91-13V17.36h-2.59v1.19Zm-2.59,1.79v1.28h2.59V20.34Zm4.83,6.93h-2.3v1.25h2.3Zm-2.3,2.89v1.42h2.3V30.16Z"/><path class="cls-1" d="M133.55,31c0,3.29,1,4.28,7.21,4.28,3.55,0,8.66-.17,12.12-.48l-1,2.84c-1.84,0-9.9.08-11.55.08-6,0-6.93-1.33-7.95-2.75-.51.45-3.18,2.67-3.29,2.81s-.2.74-.31.74-.4-.32-.51-.6l-1.17-2.75a12.4,12.4,0,0,0,3.67-1.93v-6.7h-3V24h5.87Zm-3-17A12.2,12.2,0,0,1,134,18.24l-2.27,1.56a13.88,13.88,0,0,0-3.35-4.11Zm11.16-.23,2.75.28c.65.06.88.12.88.4s-.09.26-.51.48a.45.45,0,0,0-.23.46v1.59H150v2.27h-5.34v2.58h7.1v2.27H135.09V21.79h6.64V19.21h-3.38a14.64,14.64,0,0,1-1.42,2.38l-2.53-1.25a14.47,14.47,0,0,0,2.9-5.79l2.44.6c.48.11.54.14.54.25s-.4.37-.45.43a6.29,6.29,0,0,0-.52,1.11h2.42Zm-5.2,11.89h13v8h-3v-.93h-7.07v1h-3Zm10.05,2.27h-7.07v2.5h7.07Z"/><path class="cls-1" d="M160.73,36.83a19.33,19.33,0,0,1-2.07-9.31c0-3.15.37-4.91,2-12.74l2.81,1.13c.56.23.73.32.73.54,0,.06,0,.15,0,.17a1.92,1.92,0,0,1-.43.17c-.57.23-2.18,6.56-2.18,10.93a17.86,17.86,0,0,0,.22,2.81,17,17,0,0,0,1.11-1.87l1.87,1.42a14.34,14.34,0,0,0-1.84,6Zm18.82-1.59a34.74,34.74,0,0,1-5.68.37c-6,0-7.27-1.25-7-6.64l2.89-.26a6,6,0,0,0-.2,1.57c0,1.47.94,2.29,3.38,2.29a29.4,29.4,0,0,0,6.67-.85Zm-.83-15.61a37.62,37.62,0,0,1-7.18.77,13.71,13.71,0,0,1-3.66-.37l0-3a15.56,15.56,0,0,0,4.35.57,22.17,22.17,0,0,0,6.58-1Z"/><path class="cls-1" d="M185.93,35.24A19.25,19.25,0,0,0,187,28.83l2.5.42c.31.06.48.12.48.26s-.06.17-.37.34c-.14.09-.2.17-.23.45a23.47,23.47,0,0,1-.82,5.57Zm25.2-19v2.3h-6.67v1h5.25v8.88h-1.93v1.31h3v2.44h-3v3.09c0,2.62-1.1,3-4.34,3l-1.08-2.75a21.53,21.53,0,0,0,2.22,0c.42-.09.62-.51.62-1.31v-2h-8.6V29.68h8.6V28.37h-8.29V19.49h5v-1h-6.3v-.6a1.08,1.08,0,0,0-.66.46,46.34,46.34,0,0,1-4.31,6.52c.91,0,2.16-.11,2.87-.2a10.15,10.15,0,0,0-.6-2l2.36-.59a22.05,22.05,0,0,1,1.25,5.13l-2.45.68a9.14,9.14,0,0,0-.17-1.33c-.28.06-.65.14-1.27.25V38.25h-2.59v-11l-2.35.34c-.23,0-.29.23-.4.54a.29.29,0,0,1-.23.17c-.25,0-.34-.51-.36-.68l-.4-2.7,1.84,0a20.23,20.23,0,0,0,1.56-2.27,15.39,15.39,0,0,0-3.32-3l1.37-2.13a7.5,7.5,0,0,1,.79.65,19.35,19.35,0,0,0,2-4.65l2,.62c.23.09.77.29.77.6s-.23.23-.68.37c-.2.05-.23.14-.63,1a27.51,27.51,0,0,1-1.93,3.49l.88,1a19.84,19.84,0,0,0,2.27-4.49l1.93,1a1.72,1.72,0,0,1,.49.32V16.2h6.3V13.81l2.41.23c.6.06.85.17.85.4s-.11.2-.45.37-.29.2-.29.4v1h2.7c-.88-1-1-1.16-1.5-1.65l1.87-1.22a11.76,11.76,0,0,1,2.1,2.22l-1,.65ZM195.61,28.91a51.51,51.51,0,0,0,.68,5.85l-2.47.31a47.35,47.35,0,0,1-.54-5.93ZM200,32.4a11.37,11.37,0,0,1,2,2.73l-2.16,1.5a9.72,9.72,0,0,0-1.84-2.92Zm-.69-9.56h2.59V21.42h-2.59Zm0,2v1.53h2.59V24.8Zm5.11-2h2.73V21.42h-2.73Zm2.73,3.49V24.8h-2.73v1.53Z"/><path class="cls-1" d="M218.87,29.51c.71-5.59,1.28-8.12,2.59-11l2.86,1.28a21.49,21.49,0,0,0-1.9,6.5,12.39,12.39,0,0,1,7-2.53c3.95,0,6.39,2.58,6.39,6.27,0,7.55-9.6,7.84-13.26,7.92l-1.22-3.15c.57,0,1.42.09,2.36.09,1.42,0,8.94-.15,8.94-5a3.26,3.26,0,0,0-3.41-3.38,9.31,9.31,0,0,0-4.62,1.59,12.5,12.5,0,0,0-3.18,3Zm10.65-9.34a20.69,20.69,0,0,0-6.87-3.49l1.19-2.84a25.56,25.56,0,0,1,7.27,3.47Z"/><path class="cls-1" d="M252.79,18.84l1.27,1.25c-.19.34-1.07,1.9-1.24,2.24.42-.34,2.12-1.9,2.52-2.19,1.62-1.22,2.47-1.61,3.58-1.61,1.87,0,3.12,1.53,3.12,3.6a34.33,34.33,0,0,1-.51,4.68,35.14,35.14,0,0,0-.4,4.37c0,.26,0,1.82,1.11,1.82.85,0,1.81-.82,3.15-2.36l1,3.24a7.4,7.4,0,0,1-5.13,2.55c-1.65,0-3.07-1.19-3.07-4,0-1.39.8-8.43.8-8.68,0-1.59-.77-2-1.2-2-1.56,0-4.88,3.78-6.07,5.23a101.69,101.69,0,0,0,.23,10.64l-3.29.11c.17-2,.25-5,.28-6.75-.17.28-1.16,1.84-2.13,3.52l-3-1.93a30.73,30.73,0,0,0,5.25-7c0-.34.06-.54.17-2.3-.88.37-1.84.74-4,1.51L244,21.56a17.11,17.11,0,0,0,5.51-1.47c.08-1,.11-1.9.11-2.76a14.2,14.2,0,0,0-.34-3.34l2.87.53c.93.17,1,.29,1,.49s-.48.51-.51.62a20.42,20.42,0,0,0-.48,3.63Z"/><path class="cls-1" d="M283.85,14.27c.31.11.91.31.91.57,0,.08-.49.39-.63.48A15.52,15.52,0,0,0,283,18.19a14.29,14.29,0,0,0,3.66-1l-.2,3.21a29.74,29.74,0,0,1-4.48.8A86.36,86.36,0,0,1,276,33.11l-3.15-1.47a33.07,33.07,0,0,0,5.85-10.25c-1.17.06-2.7.12-3.86.14l-.14-3c.62,0,1.61.17,2.69.17.8,0,1.54-.06,2.33-.12a49.41,49.41,0,0,0,1.45-5.19Zm7.29,22.9a17.24,17.24,0,0,0-2.7-2.21c-.22,1.19-.76,3.35-4.71,3.35-3.15,0-5.67-1.59-5.67-4.15,0-2.21,2-4,4.79-4a10.15,10.15,0,0,1,2.64.34c0-.62-.11-3.35-.11-3.91a3.72,3.72,0,0,1,1.42-3.35l2.81,1.7c-1.34,1.11-1.34,1.56-1.34,2.36s.12,3.66.12,4.25A21.34,21.34,0,0,1,293,34.62Zm-8.49-4.4c-1.64,0-1.81,1-1.81,1.37,0,1.22,1.7,1.5,2.5,1.5,2,0,2.12-1.39,2.18-2.19A8.18,8.18,0,0,0,282.65,32.77Zm10.42-7.91a17.11,17.11,0,0,0-6.22-3.44l1.54-2.24a16.33,16.33,0,0,1,6.38,3.23Z"/><path class="cls-1" d="M312.22,29.85C310,34.59,308.39,36,306.68,36c-2.81,0-4.93-4.54-4.93-10.22a25.22,25.22,0,0,1,.54-5.16c.11-.57.68-3.24.79-3.86l3,1.39c.28.14.76.37.76.62s-.2.31-.57.6a17,17,0,0,0-1.41,7c0,3.83,1.19,5.7,2.1,5.7s2.18-2.64,2.86-4.28Zm8.57,1.65a20.81,20.81,0,0,0-3.72-11.78l3-1.28c2.72,3.83,3.83,8.8,4.17,12.6Z"/><path class="cls-1" d="M326.58,32.32a12.06,12.06,0,0,1,5.59,4L330,38.48a13.59,13.59,0,0,0-4.54-4.54Z"/><rect y="49.48" width="409.81" height="49.48"/><path class="cls-1" d="M31.25,77.62c-.54,0-1.47.12-2.52.12a19.29,19.29,0,0,1-2.87-.2,15,15,0,0,0-.34,2.64c0,2.47,1.7,3.52,3.86,3.52,3.55,0,5.42-2.47,5.42-4.74a7.26,7.26,0,0,0-1.59-4.23l2.64-1.51a12.2,12.2,0,0,1,1.9,6.13c0,3.86-2.89,7.21-8.45,7.21-5.17,0-6.9-3.35-6.9-5.87A15.11,15.11,0,0,1,23,77a23.66,23.66,0,0,1-3.84-1.11l.57-3.21a15,15,0,0,0,4,1.54c.37-1.31,1-3.13,1.25-4a46,46,0,0,1-4.48-1.08L21,65.93a15.71,15.71,0,0,0,5,1.62,49.26,49.26,0,0,0,1.81-5.74l3,1.42c.26.12.74.37.74.6s-.23.23-.6.4A28.2,28.2,0,0,0,29,68c.31,0,1.08.09,1.68.09a19.13,19.13,0,0,0,2.35-.2l-.79,3.06a40,40,0,0,1-4.32-.25c-.65,1.76-1,2.84-1.33,4,.51,0,1.3.09,2.44.09a13.48,13.48,0,0,0,3.09-.32Z"/><path class="cls-1" d="M52.7,82c7.94-.59,8.8-4.14,8.8-5.67a3.62,3.62,0,0,0-3.75-3.52c-1.68,0-3,.48-6.56,1.87A26.68,26.68,0,0,1,46.82,76L45.6,73.34a23.37,23.37,0,0,0,5-1.08c5.11-1.73,5.67-1.93,7.49-1.93a5.79,5.79,0,0,1,6,5.93c0,6.36-7.32,7.8-10,8.31Z"/><path class="cls-1" d="M90.12,85.54c-2.92.2-5.88.4-8.8.4-2.24,0-8.31,0-8.31-5.76,0-2.81,1.53-4.83,5.87-7.38A3,3,0,0,1,77.55,71a74,74,0,0,1-1-8.15l3.67-.48c-.06,1.45-.09,2.84-.09,4.51,0,3.18.31,3.89,1.62,4.43,1.08-.48,6.47-2.78,7.66-3.32l.91,3.41C84.39,73.14,76,75.86,76,80.18,76,82.87,79.11,83,81.41,83A45.43,45.43,0,0,0,90.12,82Z"/><path class="cls-1" d="M117.62,65.47v21h-2.89V84.89h-12v1.59H99.8v-21h5A14.16,14.16,0,0,0,106,62l2.86.2c.6,0,.94.11.94.34s-.14.26-.51.43a.73.73,0,0,0-.34.39c-.26.66-.66,1.65-.85,2.07Zm-2.89,2.64h-12V71h12Zm0,5.51h-12v2.95h12Zm0,5.53h-12v3.1h12Z"/><path class="cls-1" d="M135.82,62.1l3.24.22c.48,0,.65.09.65.32s-.06.17-.37.48-.28.31-.28.71v3.43h9.39v19.1h-3V85.17H129.55v1.19h-3V67.26h9.28Zm0,8h-6.27v4.77h6.27Zm0,7.41h-6.27v5h6.27Zm9.6-7.41h-6.36v4.77h6.36Zm0,7.41h-6.36v5h6.36Z"/><path class="cls-1" d="M166.62,62.75c.31.11.91.31.91.57,0,.08-.48.39-.63.48a15.81,15.81,0,0,0-1.16,2.87,13.74,13.74,0,0,0,3.66-1l-.2,3.21a29.74,29.74,0,0,1-4.48.8,86.36,86.36,0,0,1-5.91,11.94l-3.15-1.47a33.07,33.07,0,0,0,5.85-10.25c-1.16.06-2.7.12-3.86.15l-.14-3c.62,0,1.62.17,2.7.17.79,0,1.53-.06,2.32-.12A49.41,49.41,0,0,0,164,61.87Zm7.29,22.9a17.19,17.19,0,0,0-2.69-2.21c-.23,1.19-.77,3.35-4.71,3.35-3.15,0-5.68-1.59-5.68-4.14,0-2.22,2-4,4.8-4a10,10,0,0,1,2.63.34c0-.62-.11-3.35-.11-3.91a3.73,3.73,0,0,1,1.42-3.35l2.81,1.7c-1.33,1.11-1.33,1.56-1.33,2.36s.11,3.66.11,4.25a21.81,21.81,0,0,1,4.63,3.07Zm-8.48-4.4c-1.65,0-1.82,1-1.82,1.37,0,1.22,1.7,1.5,2.5,1.5,2,0,2.13-1.39,2.18-2.18A7.92,7.92,0,0,0,165.43,81.25Zm10.41-7.91a17.15,17.15,0,0,0-6.21-3.44l1.53-2.24a16.45,16.45,0,0,1,6.39,3.24Z"/><path class="cls-1" d="M182.83,64.17h10.7V61.78l2.67.09c.28,0,.74.06.74.37a.49.49,0,0,1-.23.37c-.37.25-.4.28-.4.37v1.19H207v2.67H196.31v1.47H204v9.85h-5.19a29.74,29.74,0,0,0,8.6,5.68l-2.24,2.38a35.18,35.18,0,0,1-8.86-6.64V87h-2.78V80.09c-2.18,2.56-6.41,5.39-8.43,6.61l-2.24-2.41a35.37,35.37,0,0,0,8.66-6.13H186V68.31h7.58V66.84h-10.7Zm10.7,8V70.5h-4.77v1.64Zm0,3.84V74.24h-4.77V76Zm7.64-3.84V70.5h-4.86v1.64Zm0,3.84V74.24h-4.86V76Z"/><path class="cls-1" d="M213,67.21V64.45h10.55V62l3,.15c.54,0,.83,0,.83.31s-.2.28-.26.31c-.37.17-.37.23-.37.28v1.42h10.45v2.76Zm8.23,11.92c.25.14.59.34.59.68s0,.2-.62.25c-.23,0-.28.12-.51.46A30.54,30.54,0,0,1,216,86.08l-2.45-2a20.66,20.66,0,0,0,5.25-6.38Zm-4.83-2V69h17.43v8.18h-7.1V84c0,3.06-2.86,3-4.85,3l-1.25-3.18c2.13,0,2.16,0,2.39-.06s.53-.51.53-1.1V77.17Zm14.48-2.53V71.52H219.33v3.12Zm-.6,3a40.34,40.34,0,0,1,6.16,6.22L233.83,86a27.75,27.75,0,0,0-5.68-6.3Z"/><path class="cls-1" d="M254.49,82.93c1.79-.51,7.46-2.07,7.46-8.54s-5.39-7.21-7.06-7.47a47.37,47.37,0,0,1-3.52,13.48c-.29.66-1.65,3.75-3.32,3.75s-5.85-2.5-5.85-8.17a11.86,11.86,0,0,1,12.23-11.75c6.56,0,10.7,4.22,10.7,10.18,0,8-6.38,10.34-8.51,11.13ZM245,76c0,2.52,1.45,4.37,2.44,4.37.63,0,1.14-1.17,1.51-2a35,35,0,0,0,2.72-11.1C245.72,69.28,245,74,245,76Z"/><path class="cls-1" d="M294.55,73.56c.22.2.31.29.31.4,0,.26-.28.31-.48.31l-.51,0c-.12,0-.15,0-.4.25a36.77,36.77,0,0,1-4.17,3.29,18.33,18.33,0,0,0,6.38,5.37l-2.24,2.1c-7.09-4.26-8.68-10.79-9.36-14.11a20.2,20.2,0,0,1-1.82,1.31c1,1,3.6,3.69,3.6,9.34,0,4.91-2.3,4.91-5.87,4.91l-1.14-2.84c1.28.11,1.93.14,2.13.14,1.82,0,2.19-.51,2.19-2.27a15.5,15.5,0,0,0-.09-1.62,33.24,33.24,0,0,1-10.36,5.14l-1.62-2.3a27.91,27.91,0,0,0,11.39-5.48,8.57,8.57,0,0,0-.52-1.19,29.45,29.45,0,0,1-8.45,4L272,78a27.11,27.11,0,0,0,8.91-3.46c-.43-.51-.63-.71-.8-.88a29.14,29.14,0,0,1-6.69,2.47l-1.79-2.3a26.51,26.51,0,0,0,9.11-3.12h-5.17V68.48h15.78V70.7h-4.77a20,20,0,0,0,1.51,4.93,31.54,31.54,0,0,0,4-4.11Zm.42-9.22v5.11h-2.75v-2.7H274.51v2.7h-2.72V64.34h10.1V62l3.12.17c.31,0,.65.06.65.29a.55.55,0,0,1-.28.4c-.37.17-.37.17-.37.39v1.11Z"/><path class="cls-1" d="M309.89,80.86c2.92-.17,5.56-.43,7.95-1.73,2.86-1.57,3.43-3.69,3.43-5.17a4.52,4.52,0,0,0-4.83-4.54c-2.12,0-3.91.62-9.93,2.7a31.89,31.89,0,0,1-3.83,1l-1.42-3.41a27.93,27.93,0,0,0,6.58-1.27c6.19-1.82,6.73-2,8.86-2,3.75,0,7.69,2.33,7.69,7.63,0,7.21-7.58,9.17-12.88,10.13Zm10.27-15a10.5,10.5,0,0,0-2.41-2.53l1.39-1.16a11.36,11.36,0,0,1,2.47,2.55Zm3.86-.6a14.76,14.76,0,0,0-2.13-2.55l1.25-1.08a11.68,11.68,0,0,1,2.36,2.56Z"/><path class="cls-1" d="M344.52,87.21a45.52,45.52,0,0,0-7.92-8.65c-3.06-2.56-3.6-3-3.6-4.4a2.77,2.77,0,0,1,.91-2c.39-.43,2.52-2.25,3-2.67.82-.77,5.19-4.88,7-7.84l2.33,2c.62.54.68.6.68.8s-.12.22-.4.28-.43.06-.65.31a76.72,76.72,0,0,1-7.64,7.07c-.76.62-1.9,1.59-1.9,2.07s.14.43,1.36,1.31a42.31,42.31,0,0,1,9.54,9.48Z"/><path class="cls-1" d="M358.62,80.12a16.11,16.11,0,0,1-1.48-7.41,55.37,55.37,0,0,1,1.25-9.48l2.53.54c.62.14,1,.23,1,.46s-.51.56-.57.71A21.74,21.74,0,0,0,360,72.29c0,.88.06,1.9.09,2.29,1.07-2.55,1.67-3.8,2.24-4.93l2.1,1.19a87.29,87.29,0,0,0-3.72,8.94Zm6.1,4.43c3.92-4.2,5.45-7.35,5.45-13.23a44.21,44.21,0,0,0-.65-7.66l2.92-.31c.68-.09,1-.12,1,.17,0,.11-.4.68-.4.82,0,.91.29,5.33.29,6.36,0,9-2.87,12.51-5.79,15.92Z"/><path class="cls-1" d="M384.21,83.92A2.9,2.9,0,1,1,381.32,81,2.88,2.88,0,0,1,384.21,83.92Zm-4.94,0a2,2,0,1,0,4.09,0,2,2,0,0,0-2-2A2,2,0,0,0,379.27,83.92Z"/></g></g></svg>