<svg xmlns="http://www.w3.org/2000/svg" viewBox="0 0 413.59 102.64"><defs><style>.cls-1{fill:#fff;}.cls-2{font-size:12.92px;font-family:MiGoMB1Std-DeBold, MiGoMB1Std DeBold-83pv-RKSJ-H;font-weight:700;letter-spacing:0.02em;}.cls-3{letter-spacing:0.01em;}.cls-4{letter-spacing:0em;}.cls-5{letter-spacing:0em;}.cls-6{letter-spacing:0em;}.cls-7{letter-spacing:-0.02em;}.cls-8{letter-spacing:0.1em;}</style></defs><title>i-bantext1_2</title><g id="Layer_2" data-name="Layer 2"><g id="SVG"><rect class="cls-1" width="413.59" height="102.64"/><text class="cls-2" transform="translate(300.09 88.97)">オ<tspan class="cls-3" x="13.12" y="0">ー</tspan><tspan class="cls-4" x="26.12" y="0">ツ</tspan><tspan class="cls-5" x="39.1" y="0">ー</tspan><tspan class="cls-6" x="52.02" y="0">ハ</tspan><tspan class="cls-7" x="64.98" y="0">ウ</tspan><tspan class="cls-8" x="77.62" y="0">ス</tspan></text><path d="M59.91,16.68a31.37,31.37,0,0,0-15.8,58.48l.39.23A31.38,31.38,0,1,0,59.91,16.68ZM32.63,48.07a27.12,27.12,0,0,1,5.43-16.32V64.38A27.11,27.11,0,0,1,32.63,48.07ZM62.26,31.92a8,8,0,1,1,16,0c0,5.23-4.43,8.47-9.12,11.9a47.43,47.43,0,0,0-6.88,5.73V31.92Zm-4.07-.51h0V64.7a8,8,0,0,1-8,8,7.86,7.86,0,0,1-3.7-.92c-.14-.07-.27-.15-.4-.23a8,8,0,0,1-3.89-6.85V27.37a27.16,27.16,0,0,1,22.48-6.16A12.08,12.08,0,0,0,58.19,31.41Zm4.05,33.8h0V61.46H83.67A27.31,27.31,0,0,1,59.91,75.35a26.5,26.5,0,0,1-3.59-.25A12.11,12.11,0,0,0,62.24,65.21Zm.25-7.85c.95-4.29,4.9-7.18,9.08-10.23C76.72,43.36,82,39.46,82.33,32.55a27.24,27.24,0,0,1,3.23,24.81Z"/><path d="M126.81,29.2a18.94,18.94,0,0,1,6.49,1.2A18.35,18.35,0,0,1,143.8,40a20,20,0,0,1,1.74,8.66,20,20,0,0,1-1.74,8.66,18.39,18.39,0,0,1-4.47,6,17.06,17.06,0,0,1-6,3.48,19.87,19.87,0,0,1-13,0,17,17,0,0,1-6-3.48,18.39,18.39,0,0,1-4.47-6,20,20,0,0,1-1.74-8.66A20,20,0,0,1,109.82,40a18.35,18.35,0,0,1,10.5-9.63A18.9,18.9,0,0,1,126.81,29.2Zm0,6.67a11.94,11.94,0,0,0-4.41.87,12.63,12.63,0,0,0-4,2.5,12.43,12.43,0,0,0-2.87,4,14,14,0,0,0,0,10.87,12.46,12.46,0,0,0,6.84,6.52,11.61,11.61,0,0,0,8.82,0,12.46,12.46,0,0,0,6.84-6.52,14,14,0,0,0,0-10.87,12.43,12.43,0,0,0-2.87-4,12.74,12.74,0,0,0-4-2.5A11.94,11.94,0,0,0,126.81,35.87Z"/><path d="M161.1,30.94a1.13,1.13,0,0,0-1.27,1.3V54q0,4.58,2.34,6.27C163.74,61.39,166,62,169,62s5.31-.56,6.87-1.7S178.26,57,178.26,54V32.24c0-.87-.58-1.3-1.74-1.3V29.63h9.28v1.31c-.93,0-1.39.43-1.39,1.3V53.62a21.44,21.44,0,0,1-1,7.07,10,10,0,0,1-3,4.45,10.64,10.64,0,0,1-4.89,2.25,39.63,39.63,0,0,1-13.51,0,10.67,10.67,0,0,1-4.9-2.25,10,10,0,0,1-3-4.45,21.47,21.47,0,0,1-1-7.07V32.24c0-.87-.55-1.3-1.63-1.3V29.63h9.51Z"/><path d="M220,68.69h-.69c0-.53-.19-.82-.55-.87a11,11,0,0,0-1.19-.07H193.17a4.24,4.24,0,0,0-1,.11c-.27.07-.41.33-.41.76H191V66a13.35,13.35,0,0,1,1.53-6.59,19,19,0,0,1,3.86-4.86,30.86,30.86,0,0,1,5-3.69c1.78-1.06,3.44-2.12,5-3.16a21.28,21.28,0,0,0,3.85-3.22,5.57,5.57,0,0,0,1.54-3.91,5,5,0,0,0-.55-2.5,4.78,4.78,0,0,0-1.42-1.6,5,5,0,0,0-1.91-.83,9.69,9.69,0,0,0-2-.22,8.83,8.83,0,0,0-2.44.44,10.64,10.64,0,0,0-2.78,1.3,9.66,9.66,0,0,0-2.29,2.07,4.2,4.2,0,0,0-1,2.71,4,4,0,0,0,.15.95,1.61,1.61,0,0,0,.37.79l-.58.51-6-8,.58-.51.47.29a.93.93,0,0,0,.52.15c.23,0,.66-.37,1.27-1.09a18.6,18.6,0,0,1,2.56-2.39,18.27,18.27,0,0,1,4-2.39,14.09,14.09,0,0,1,5.8-1.09,14.73,14.73,0,0,1,4.32.65,10.61,10.61,0,0,1,3.77,2.07,10.3,10.3,0,0,1,2.66,3.62,12.82,12.82,0,0,1,1,5.4,13.35,13.35,0,0,1-1,5.65,11.72,11.72,0,0,1-2.75,3.81A17.05,17.05,0,0,1,210.74,53q-2.15,1.1-4.38,2.14t-4.29,2.21a13.4,13.4,0,0,0-3.62,3v.72h19.13a2.46,2.46,0,0,0,1.19-.29c.36-.19.55-.77.55-1.73H220Z"/><path d="M266.35,32.24a1.13,1.13,0,0,0-1.27-1.3V29.63H274v1.31a1,1,0,0,0-.72.32,1.38,1.38,0,0,0-.32,1v32.9a1.36,1.36,0,0,0,.32,1,1,1,0,0,0,.72.33v1.3h-8.92v-1.3a1.14,1.14,0,0,0,1.27-1.31V51.52H247.68V65.14a1.36,1.36,0,0,0,.32,1,1,1,0,0,0,.73.33v1.3H240v-1.3c.74,0,1.1-.44,1.1-1.31V32.24c0-.87-.36-1.3-1.1-1.3V29.63h8.76v1.31a1,1,0,0,0-.73.32,1.38,1.38,0,0,0-.32,1V44.56h18.67Z"/><path d="M279.85,66.45a1.7,1.7,0,0,0,1.19-.94,17.41,17.41,0,0,0,.84-1.82L292.61,35.5q.4-.93.72-1.74a3.82,3.82,0,0,0,.32-1.37,1.19,1.19,0,0,0-.41-1,3.21,3.21,0,0,0-.87-.43V29.63h9.8v1.31a4.34,4.34,0,0,0-.81.4,1.15,1.15,0,0,0-.41,1.05,3.39,3.39,0,0,0,.21,1.16c.13.39.34.89.61,1.52l12.05,29.49a2.41,2.41,0,0,0,.79,1.16,11.1,11.1,0,0,0,1.13.73v1.3h-10.2v-1.3a1.21,1.21,0,0,0,.57-.22.71.71,0,0,0,.35-.65,5.41,5.41,0,0,0-.46-1.89l-2.2-5.36H289.65l-2.09,5.15a7.41,7.41,0,0,0-.58,2.17c0,.53.37.8,1.11.8v1.3h-8.24ZM301.71,53l-4.87-13.48L291.39,53Z"/><path d="M327.65,30.94a1.14,1.14,0,0,0-1.28,1.3V54q0,4.58,2.35,6.27c1.56,1.14,3.85,1.7,6.87,1.7s5.3-.56,6.87-1.7S344.81,57,344.81,54V32.24c0-.87-.58-1.3-1.74-1.3V29.63h9.27v1.31c-.93,0-1.39.43-1.39,1.3V53.62a21.44,21.44,0,0,1-1,7.07A10,10,0,0,1,347,65.14a10.72,10.72,0,0,1-4.9,2.25,39.63,39.63,0,0,1-13.51,0,10.72,10.72,0,0,1-4.9-2.25,10,10,0,0,1-2.95-4.45,21.44,21.44,0,0,1-1-7.07V32.24c0-.87-.54-1.3-1.62-1.3V29.63h9.51Z"/><path d="M361.26,55.79l.58.37a2.7,2.7,0,0,0,.24,1.16,4.61,4.61,0,0,0,1.59,1.7,14.66,14.66,0,0,0,2.73,1.49,20.79,20.79,0,0,0,3.21,1.05,13.52,13.52,0,0,0,3,.39,23.47,23.47,0,0,0,2.55-.18,12.43,12.43,0,0,0,3.07-.76,8.09,8.09,0,0,0,2.61-1.59,3.49,3.49,0,0,0,1.1-2.68,3,3,0,0,0-1-2.47,6.71,6.71,0,0,0-2.67-1.16,23.2,23.2,0,0,0-3.77-.47c-1.41-.07-2.85-.18-4.32-.32a32.46,32.46,0,0,1-4.32-.73,10.6,10.6,0,0,1-3.77-1.7,8.63,8.63,0,0,1-2.66-3.26,12.26,12.26,0,0,1-1-5.4,12.16,12.16,0,0,1,.84-4.42A10.63,10.63,0,0,1,361.84,33a13.37,13.37,0,0,1,4.41-2.72,17,17,0,0,1,6.26-1.05,21.54,21.54,0,0,1,5.34.58A35.27,35.27,0,0,1,381.76,31c1.1.44,2,.85,2.78,1.23a4.3,4.3,0,0,0,1.88.58,1.39,1.39,0,0,0,1.16-.43l.7.58-4,9.06-.58-.29a4.74,4.74,0,0,0-.46-1.67,5.56,5.56,0,0,0-1.54-1.7,12.7,12.7,0,0,0-2.52-1.49,18.25,18.25,0,0,0-3.13-1.05,14.85,14.85,0,0,0-3.37-.4,14.28,14.28,0,0,0-2.63.26,10.06,10.06,0,0,0-2.47.76,5.17,5.17,0,0,0-1.82,1.34,3,3,0,0,0-.73,2.06,3.24,3.24,0,0,0,1,2.61,6.57,6.57,0,0,0,2.66,1.31,19.84,19.84,0,0,0,3.77.57c1.41.1,2.85.22,4.32.37a28.29,28.29,0,0,1,4.32.76,11,11,0,0,1,3.77,1.74,8.69,8.69,0,0,1,2.67,3.22,12,12,0,0,1,1,5.29A10.92,10.92,0,0,1,387,61.88a11.93,11.93,0,0,1-4,3.77,15.31,15.31,0,0,1-5.13,1.85,30.85,30.85,0,0,1-5.13.47,27.59,27.59,0,0,1-5.53-.47,17.55,17.55,0,0,1-3.71-1.16,22.81,22.81,0,0,1-2.35-1.23,2.92,2.92,0,0,0-1.51-.55c-.27,0-.52.2-.75.58l-.81-.58Z"/></g></g></svg>