<svg xmlns="http://www.w3.org/2000/svg" viewBox="0 0 236 76"><defs><style>.cls-1{fill:#f6f6f6;}.cls-2,.cls-5{fill:#fff;}.cls-2{stroke:#fff;stroke-linejoin:bevel;stroke-width:0.59px;}.cls-3{fill:#e31718;}.cls-4{fill:#0074bb;}.cls-6{fill:#2e2624;}</style></defs><title>i-com1</title><g id="Layer_2" data-name="Layer 2"><g id="SVG"><rect class="cls-1" width="236" height="76"/><polygon class="cls-2" points="23.83 38.33 26.51 38.76 26.24 43.63 23.07 43.09 23.83 38.33"/><polygon class="cls-2" points="34.94 38.48 37.67 38.23 38.51 43.23 35.08 43.36 34.94 38.48"/><path class="cls-2" d="M23.23,46.9c2,.56,8.77,1.9,15,.06l.46,1.31s-9.5,2.75-15.21-.1Z"/><path class="cls-3" d="M20,24.45c.73-.21,15.49-3.88,15.49-3.88L45.57,34Z"/><path class="cls-4" d="M44.64,48.23c3.47-1.54,6.69-4.88,7.59-8.36a13.43,13.43,0,0,0-.31-8.72c-1.08-2.86-3.65-5.86-6.66-6.34a9.51,9.51,0,0,0-7.13,1.67c-.65.47-.4.61,0,.63,1.61.08,2.69-.23,4.12.24a4.47,4.47,0,0,0-3.49.79c-.31.48.38.74.87.84,1.13.21,1.55.31,2.5.47-.79.63-3.57,1.94-1.63,2a17.87,17.87,0,0,1,4.13.16,3.62,3.62,0,0,1,2.85,2.54c.71,2.85,0,6.33-2.66,8.16h0l.2-7C39.36,34.48,17,35,17,35c-1.51,3.86.46,17.38.46,17.38l27,.21.12-4.37Z"/><polygon class="cls-5" points="23.83 38.33 26.51 38.76 26.24 43.63 23.07 43.09 23.83 38.33"/><polygon class="cls-5" points="34.94 38.48 37.67 38.23 38.51 43.23 35.08 43.36 34.94 38.48"/><path class="cls-5" d="M23.23,46.9c2,.56,8.77,1.9,15,.06l.46,1.31s-9.5,2.75-15.21-.1Z"/><path class="cls-4" d="M68.16,27.76c-.1-1.28-.71-2-1.69-2S64.73,27,64.73,29.32c0,1.72.29,3.33,1.86,3.33,1,0,1.47-.9,1.59-2.07h3c-.28,3.16-2,5.07-4.51,5.07-3.13,0-5-2.48-5-6.47s2.07-6.43,4.71-6.43c2.89,0,4.5,1.86,4.75,5Z"/><path class="cls-4" d="M75.76,35.33V23.08h3.09v9.39H83.1v2.86Z"/><path class="cls-4" d="M87,35.33V23.08h7.71v2.85H90.13v1.76H94v2.86h-3.9v1.92h4.78v2.86Z"/><path class="cls-4" d="M99.14,23.08h3.12l1.66,8.15,1.72-8.15h3.12l-3.28,12.25h-3.11Z"/><path class="cls-4" d="M113.17,35.33V23.08h7.71v2.85h-4.61v1.76h3.9v2.86h-3.9v1.92h4.79v2.86Z"/><path class="cls-4" d="M129.63,31.06v4.27h-3.1V23.08H131c3.15,0,4.19,1.1,4.19,3.49,0,1.41-.48,2.6-1.59,3,1,.48,1.6.78,1.6,3.25,0,1.6,0,2.14.33,2.14v.38h-3.14a11.34,11.34,0,0,1-.15-2.15c0-1.6-.21-2.12-1.65-2.12Zm0-2.69h1.22c1,0,1.47-.31,1.47-1.16a1.15,1.15,0,0,0-1.25-1.28h-1.44Z"/><path class="cls-4" d="M140.51,35.33V23.08h3.1v9.39h4.25v2.86Z"/><path class="cls-4" d="M156.18,35.33h-3.1V30.87l-3.52-7.79H153l1.63,4.15,1.62-4.15h3.42l-3.52,7.72Z"/><path class="cls-4" d="M169.74,35.33V23.08h3.1v4.13h2.92V23.08h3.1V35.33h-3.1V30.58h-2.92v4.75Z"/><path class="cls-4" d="M193.53,29.13c0,4.17-2.16,6.52-5,6.52-3,0-4.95-2.38-4.95-6.55,0-3.84,2-6.35,4.95-6.35C191.94,22.75,193.53,25.9,193.53,29.13Zm-6.81,0c0,1.57.36,3.53,1.85,3.53s1.86-1.5,1.86-3.53c0-1.67-.52-3.43-1.88-3.38S186.72,27.59,186.72,29.13Z"/><path class="cls-4" d="M198,35.33V23.08h3.74l1.67,7.64,1.66-7.64h3.74V35.33H206V31.58l0-1.9.16-2.22h0l-1.72,7.87h-2.15l-1.72-7.87h0l.14,1.81.06,1.91v4.15Z"/><path class="cls-4" d="M214.11,35.33V23.08h7.71v2.85h-4.61v1.76h3.9v2.86h-3.9v1.92H222v2.86Z"/><path class="cls-6" d="M64.12,48.78c1.08-2,2.8-4.42,5.43-4.42,1,0,1.74.36,1.74,1.27,0,.75-.76,1.14-1.41,1.14a1.24,1.24,0,0,1-.6-.12,1.9,1.9,0,0,0,.63-1.27c0-.41-.17-.81-.65-.81-1,0-2.25,1.82-3.54,4.21H68.8l-.11.2H65.62c-1.82,3.52-3.72,8.47-8.53,8.47-1.05,0-2.4-.62-2.4-1.86s1.28-1.76,2.38-1.76a3.53,3.53,0,0,1,.7.1V54a1.44,1.44,0,0,0-1.54,1.51,1.51,1.51,0,0,0,1.43,1.7C60.4,57.25,62.13,52,64,49H63l.1-.2Z"/><path class="cls-6" d="M74.69,50a1.91,1.91,0,0,1-1.32.74,1.36,1.36,0,0,1-1.08-.59h0a3.66,3.66,0,0,1-3.72,3.31c-1.14,0-2.21-.44-2.21-1.75,0-2,2-3.18,3.82-3.18,2.21,0,1.92,2,3.21,2a1.69,1.69,0,0,0,1.22-.68Zm-7,2.65c0,.4.19.65.51.65,1.23,0,2.64-2.76,2.64-4,0-.4-.19-.66-.51-.66C69.14,48.67,67.73,51.43,67.73,52.64Z"/><path class="cls-6" d="M72.67,53.29l2.59-4.57,1.85,0-2,2.9,0,0a7,7,0,0,1,2.38-2.44c.49-.58.57-.65,2.33-.72A2.78,2.78,0,0,0,79,50.1c0,.36.17.73.57.73a2.12,2.12,0,0,0,1.38-.92L81,50a2.77,2.77,0,0,1-2.35,1.18A1.24,1.24,0,0,1,77.32,50a1.34,1.34,0,0,1,.11-.6v0c-1,.54-2.56,2.79-3,3.83Z"/><path class="cls-6" d="M91.32,43.89h-2.6v10H86.31v-10H83.7v-2h7.62Z"/><path class="cls-6" d="M93.71,45.39a5.57,5.57,0,0,1,.55-2,3.09,3.09,0,0,1,1.23-1.28,5.28,5.28,0,0,1,4.31,0A3.16,3.16,0,0,1,101,43.42a5.57,5.57,0,0,1,.55,2,24.1,24.1,0,0,1,0,5,5.57,5.57,0,0,1-.55,2A3,3,0,0,1,99.8,53.6a5.62,5.62,0,0,1-4.31,0,2.91,2.91,0,0,1-1.23-1.25,5.57,5.57,0,0,1-.55-2,24.1,24.1,0,0,1,0-5Zm2.34,4.54a6.15,6.15,0,0,0,.23,1.37,1.59,1.59,0,0,0,.5.77,1.43,1.43,0,0,0,.86.24,1.39,1.39,0,0,0,.86-.24A1.54,1.54,0,0,0,99,51.3a6.15,6.15,0,0,0,.23-1.37c0-.56.06-1.24.06-2s0-1.48-.06-2A6.36,6.36,0,0,0,99,44.47a1.54,1.54,0,0,0-.51-.77,1.4,1.4,0,0,0-.86-.25,1.44,1.44,0,0,0-.86.25,1.59,1.59,0,0,0-.5.77,6.36,6.36,0,0,0-.23,1.37q-.06.84-.06,2C96,48.69,96,49.37,96.05,49.93Z"/><path class="cls-6" d="M107,46.7h0l3-4.78h2.61L109.43,47,113,53.85h-2.71L107.87,49,107,50.31v3.54h-2.41V41.92H107Z"/><path class="cls-6" d="M119.06,46.53h0l1.67-4.61h2.61l-3.09,7.23v4.7h-2.41v-4.7l-3.09-7.23h2.71Z"/><path class="cls-6" d="M125.28,45.39a5.78,5.78,0,0,1,.55-2,3.22,3.22,0,0,1,1.23-1.28,4.44,4.44,0,0,1,2.16-.46,4.37,4.37,0,0,1,2.15.46,3.09,3.09,0,0,1,1.23,1.28,5.37,5.37,0,0,1,.55,2,24.1,24.1,0,0,1,0,5,5.37,5.37,0,0,1-.55,2,2.91,2.91,0,0,1-1.23,1.25,4.51,4.51,0,0,1-2.15.43,4.58,4.58,0,0,1-2.16-.43,3,3,0,0,1-1.23-1.25,5.79,5.79,0,0,1-.55-2,26.1,26.1,0,0,1,0-5Zm2.34,4.54a5.57,5.57,0,0,0,.24,1.37,1.46,1.46,0,0,0,.5.77,1.66,1.66,0,0,0,1.72,0,1.52,1.52,0,0,0,.5-.77,5.18,5.18,0,0,0,.23-1.37c0-.56.06-1.24.06-2s0-1.48-.06-2a5.33,5.33,0,0,0-.23-1.37,1.52,1.52,0,0,0-.5-.77,1.6,1.6,0,0,0-1.72,0,1.46,1.46,0,0,0-.5.77,5.75,5.75,0,0,0-.24,1.37q-.06.84-.06,2C127.56,48.69,127.58,49.37,127.62,49.93Z"/></g></g></svg>