<svg xmlns="http://www.w3.org/2000/svg" viewBox="0 0 236 76"><defs><style>.cls-1{fill:#f6f6f6;}.cls-2{fill:#231815;}.cls-3{fill:#7b191e;}</style></defs><title>i-com4</title><g id="Layer_2" data-name="Layer 2"><g id="SVG"><rect class="cls-1" width="236" height="76"/><rect class="cls-2" x="23" y="43.73" width="11.17" height="11.17"/><rect class="cls-3" x="35.17" y="43.73" width="11.17" height="11.17"/><rect class="cls-3" x="47.34" y="43.73" width="11.17" height="11.17"/><rect class="cls-3" x="23" y="31.56" width="11.17" height="11.17"/><rect class="cls-2" x="35.17" y="31.56" width="11.17" height="11.17"/><rect class="cls-3" x="47.34" y="31.56" width="11.17" height="11.17"/><rect class="cls-3" x="23" y="19.39" width="11.17" height="11.17"/><rect class="cls-3" x="35.17" y="19.39" width="11.17" height="11.17"/><polygon class="cls-2" points="58.51 30.55 47.34 30.55 47.34 19.39 58.51 30.55"/><path class="cls-2" d="M65.19,47.05V23.72h15q6.47,0,9.91,3t3.43,8.5A12.87,12.87,0,0,1,92,41.58a9.94,9.94,0,0,1-4.79,4.3,22.84,22.84,0,0,1-8.37,1.17Zm5.42-4.38h7q5.38,0,7.74-1.59c1.72-1.14,2.58-3.12,2.58-5.92q0-7.27-7.69-7.28H70.61Z"/><path class="cls-2" d="M97.88,37.33V32.67h10.54v4.66Z"/><path class="cls-2" d="M114.21,47.05V23.72h5.43v19h17.5v4.38Z"/><path class="cls-2" d="M142.75,47.05V23.72h5.43V47.05Z"/><path class="cls-2" d="M156.36,47.05V23.72h3.71l16.42,13.75A25.5,25.5,0,0,1,179.16,40c-.15-2.17-.23-3.51-.23-4V23.72h4.89V47.05h-3.71L163,32.63a17.61,17.61,0,0,1-1.95-1.9c.15,1.5.23,2.74.23,3.71V47.05Z"/><path class="cls-2" d="M189.88,47.05V23.72h23.88v4H195.31v5.2h13.1v4h-13.1v5.79H214v4.38Z"/><path class="cls-2" d="M65.21,54.82V49.93h3.94a1.12,1.12,0,0,1,.78.22.91.91,0,0,1,.25.72V52a.91.91,0,0,1-.25.72,1.12,1.12,0,0,1-.78.23h-.72l2.24,1.9H69.45l-2-1.9H66v1.9Zm3.62-4.26H66v1.72h2.81a.59.59,0,0,0,.41-.11.49.49,0,0,0,.12-.39v-.72a.5.5,0,0,0-.12-.39A.59.59,0,0,0,68.83,50.56Z"/><path class="cls-2" d="M72.58,54.82V49.93H77.3v.65H73.4V52h2.38v.64H73.4v1.56h3.94v.67Z"/><path class="cls-2" d="M79.42,54.82V49.93h.52L83.6,53.2a4.44,4.44,0,0,1,.56.62,7.76,7.76,0,0,1-.08-1.21V49.93h.76v4.89h-.45l-3.77-3.4-.24-.22a1.42,1.42,0,0,1-.25-.34,10.75,10.75,0,0,1,.05,1.08v2.88Z"/><path class="cls-2" d="M87.45,51.08a1.24,1.24,0,0,1,.25-.91,1.28,1.28,0,0,1,.9-.24H92a.93.93,0,0,1,1.14,1.15v2.58a1.32,1.32,0,0,1-.24.92,1.28,1.28,0,0,1-.9.24H88.6a.94.94,0,0,1-1.15-1.16Zm.82,3.06h4V50.58h-4Z"/><path class="cls-2" d="M97.48,54.82,94.8,49.93h.88L97.85,54l2.07-4.08h.8l-2.56,4.89Z"/><path class="cls-2" d="M101.49,54.82l2.68-4.89H105l2.72,4.89h-.9l-.62-1.2h-3.32l-.62,1.2ZM103.27,53h2.63l-1.31-2.5Z"/><path class="cls-2" d="M111.39,50.59v4.23h-.82V50.59h-2.24v-.66h5.31v.66Z"/><path class="cls-2" d="M115.16,54.82V49.93H116v4.89Z"/><path class="cls-2" d="M118.59,51.08a.94.94,0,0,1,1.15-1.15h3.4a.93.93,0,0,1,1.14,1.15v2.58a1.32,1.32,0,0,1-.24.92,1.28,1.28,0,0,1-.9.24h-3.4a1.28,1.28,0,0,1-.9-.24,1.31,1.31,0,0,1-.25-.92Zm.82,3.06h4V50.58h-4Z"/><path class="cls-2" d="M126.9,54.82V49.93h.51l3.67,3.27a5.17,5.17,0,0,1,.56.62,6.69,6.69,0,0,1-.08-1.21V49.93h.76v4.89h-.46l-3.77-3.4-.23-.22a1.46,1.46,0,0,1-.26-.34,8.22,8.22,0,0,1,.06,1.08v2.88Z"/><path class="cls-2" d="M140,54.53a1.1,1.1,0,0,1-.39.25,1.88,1.88,0,0,1-.48,0h-1.6a.94.94,0,0,1-1.15-1.16v-.32a.94.94,0,0,1,.13-.54,1.47,1.47,0,0,1,.44-.37l.94-.6a1,1,0,0,1-.4-.74v-.27a.8.8,0,0,1,.27-.7,1.53,1.53,0,0,1,.88-.19h.92a1.4,1.4,0,0,1,.89.2,1,1,0,0,1,.25.78v.26l-.65.12v-.77h-1.87v.72l2.38,1.94,1.14-1.07.41.4-1.1,1,1.56,1.27h-1l-1-.82Zm-2.93-.33h2.38l.63-.59-1.75-1.41-1.26.9Z"/><path class="cls-2" d="M146.26,54.82V49.93h3.94a1.17,1.17,0,0,1,.79.22,1,1,0,0,1,.25.72V52a1,1,0,0,1-.25.72,1.16,1.16,0,0,1-.79.23h-.72l2.24,1.9h-1.21l-2-1.9h-1.44v1.9Zm3.63-4.26h-2.81v1.72h2.81a.63.63,0,0,0,.41-.11.49.49,0,0,0,.12-.39v-.72a.5.5,0,0,0-.12-.39A.63.63,0,0,0,149.89,50.56Z"/><path class="cls-2" d="M153.64,54.82V49.93h4.71v.65h-3.9V52h2.38v.64h-2.38v1.56h3.94v.67Z"/><path class="cls-2" d="M159.52,54.82l2.68-4.89h.87l2.72,4.89h-.9l-.62-1.2H161l-.62,1.2ZM161.3,53h2.63l-1.32-2.5Z"/><path class="cls-2" d="M167.52,54.82V49.93h.82v4.21h3.71v.68Z"/><path class="cls-2" d="M176.47,54.82V49.93h4.72v.65h-3.9V52h2.38v.64h-2.38v1.56h3.94v.67Z"/><path class="cls-2" d="M187.49,50.58H184V52h3.08a1.26,1.26,0,0,1,.9.24,1.32,1.32,0,0,1,.24.91v.55a1.32,1.32,0,0,1-.24.92,1.26,1.26,0,0,1-.9.24h-2.86a1.28,1.28,0,0,1-.9-.24,1.32,1.32,0,0,1-.24-.92v-.13l.76-.18v.79h3.64V52.67h-3.07a1.28,1.28,0,0,1-.9-.24,1.34,1.34,0,0,1-.24-.92v-.43a1.32,1.32,0,0,1,.24-.92,1.34,1.34,0,0,1,.9-.23h2.61a1.35,1.35,0,0,1,.88.22,1.06,1.06,0,0,1,.26.84v.1l-.7.2Z"/><path class="cls-2" d="M192.77,50.59v4.23H192V50.59h-2.24v-.66H195v.66Z"/><path class="cls-2" d="M195.58,54.82l2.67-4.89h.88l2.72,4.89H201l-.63-1.2H197l-.63,1.2ZM197.35,53H200l-1.32-2.5Z"/><path class="cls-2" d="M205.48,50.59v4.23h-.82V50.59h-2.24v-.66h5.31v.66Z"/><path class="cls-2" d="M209.25,54.82V49.93H214v.65h-3.9V52h2.38v.64h-2.38v1.56H214v.67Z"/></g></g></svg>