<svg xmlns="http://www.w3.org/2000/svg" viewBox="0 0 236 76"><defs><style>.cls-1{fill:#f6f6f6;}.cls-2{fill:#896456;}.cls-3{fill:#7d7d7d;}</style></defs><title>i-com3</title><g id="Layer_2" data-name="Layer 2"><g id="SVG"><rect class="cls-1" width="236" height="76"/><polygon class="cls-2" points="54.82 46.68 45.57 29.39 36.41 29.39 45.65 46.68 54.82 46.68"/><path class="cls-3" d="M34.53,53.13V48.49h3.31V61.75H34.53V56.31H31.9v5.44H28.59V48.49H31.9v4.64Z"/><path class="cls-2" d="M50,55.12a3.43,3.43,0,1,1-3.43-3.49A3.45,3.45,0,0,1,50,55.12Zm3.35,0A6.78,6.78,0,1,0,46.53,62,6.83,6.83,0,0,0,53.31,55.12Z"/><path class="cls-3" d="M54.26,61.75l1.07-10.61c.19-1.93.62-2.88,2.6-2.88,1.3,0,2.14.76,2.38,2.43l1,6.38h.1l1-6.38c.25-1.67,1.08-2.43,2.38-2.43,2,0,2.41,1,2.61,2.88L68.4,61.75H65.24L64.65,51h0v.3l-1.63,9c-.19,1-.84,1.71-1.66,1.71s-1.46-.69-1.65-1.71l-1.64-9h0l-.57,10.5Z"/><path class="cls-2" d="M77.46,51.56c-3.07,0-3.6.34-4.44,2.12h4.44v2.88H73c.88,1.93,1.45,2.12,4.44,2.12v3.07H75.58c-3.58,0-6.1-3-6.1-6.63s2.52-6.63,6.1-6.63h1.88Z"/><path class="cls-3" d="M28.63,24c0-5.69,2.47-8.66,2.47-8.66a12.08,12.08,0,0,1,11.83-4.83c8,.8,10.15,9,10.15,9A12.58,12.58,0,0,1,49.8,31.5c-3.47,4-11.95,3.22-11.95,3.22v12l-9.22,0Zm8.9,5.31h9.25v-9.7h2l-6.59-5.2-6.69,5.2h2Z"/><path class="cls-2" d="M64.38,36.5C62.22,37.93,61.46,39,61,40.36H77.32v6.32H51.8c.24-4.64.5-10,8.17-15.22l4.63-3.1c3.9-2.61,4.91-4.33,4.91-6.76,0-2.18-1.06-4.66-4.41-4.66-4.79,0-4.79,4.95-4.79,7.85H52.68c0-2.86,0-6.13,2.12-9.24S60,10.47,65.32,10.47c7.5,0,12.06,4.58,12.06,11,0,4.75-2.61,8-8.42,11.92Z"/><path class="cls-2" d="M96.5,40.36a1,1,0,0,1,1.12,1.08c0,1.6-4.7,7.17-5.71,7.17a.75.75,0,0,1-.68-.75,1.27,1.27,0,0,1,.37-.78,15.44,15.44,0,0,0,2-3.5A7.41,7.41,0,0,0,94,42.07s0-.33-.39-.33H82.23a.65.65,0,0,1-.74-.69.66.66,0,0,1,.74-.69Zm-6.08,6c0,2.49-.23,6-3.18,8.15a11.76,11.76,0,0,1-4.78,2.11.67.67,0,0,1-.66-.69c0-.52.31-.6.82-.78,4.6-1.51,4.83-5.81,4.83-8.05V45.26a1.49,1.49,0,1,1,3,0Z"/><path class="cls-2" d="M108.62,47.19c.68,0,.8.69.8.9,0,.54-.29.93-.8.93H97.05a.83.83,0,0,1-.8-.9c0-.18.06-.93.8-.93Z"/><path class="cls-2" d="M115.4,46.3c0,3.74-.54,6.57-2.77,8.79a9.11,9.11,0,0,1-3.28,2.14.73.73,0,0,1-.66-.76c0-.34.11-.43,1.06-1.18,2.7-2.12,2.86-6,2.86-8.77v-6c0-1,.42-1.51,1.37-1.51a1.3,1.3,0,0,1,1.42,1.51Zm4.76,5.51c0,.19,0,.56.35.56s2.42-.91,4.34-4.64c.24-.46.35-.67.68-.67a.67.67,0,0,1,.63.64,15.93,15.93,0,0,1-2.47,5c-1.26,1.71-3.75,3.89-5,3.89a1.42,1.42,0,0,1-1.38-1.62V40.56c0-1,.45-1.51,1.4-1.51a1.3,1.3,0,0,1,1.42,1.51Z"/><path class="cls-2" d="M128.89,45.74a19,19,0,0,0-1.22-3.2c-.42-.77-.46-.84-.46-1a.73.73,0,0,1,.68-.74c.27,0,.34,0,1.45,1.43.88,1.12,2.41,3.41,2.41,4.27a1.49,1.49,0,0,1-1.4,1.49C129.52,47.92,129.44,47.68,128.89,45.74Zm14-5.1c0,.5-.6,6.55-3.45,10.67a15.63,15.63,0,0,1-8.66,5.88.69.69,0,0,1-.64-.74.71.71,0,0,1,.56-.71c1.71-.67,8.37-3.24,9.06-14.43.08-1.31.14-2.16,1.56-2.16A1.5,1.5,0,0,1,142.89,40.64Zm-8.64,3.67a19.83,19.83,0,0,0-1.06-3c-.34-.77-.39-.88-.39-1a.73.73,0,0,1,.7-.72c.21,0,.4.07,1.66,1.75.7.95,1.77,2.49,1.77,3.22a1.48,1.48,0,0,1-1.3,1.43C134.64,46,134.54,45.48,134.25,44.31Z"/><path class="cls-2" d="M159.52,51.79A19.67,19.67,0,0,0,162,47.62c.33-.78.41-1,.79-1a.67.67,0,0,1,.64.73,20.21,20.21,0,0,1-1.24,4.39C161.1,54.7,160.59,55,159.93,55a1.47,1.47,0,0,1-1.4-1.4C158.53,53,158.61,52.87,159.52,51.79Zm8.56,2.76c0,1.21,0,2.64-2.15,2.64a8.35,8.35,0,0,1-3.18-.72.78.78,0,0,1-.61-.75.67.67,0,0,1,.61-.71,6,6,0,0,1,.85.25,3.15,3.15,0,0,0,.91.18c.62,0,.7-.41.7-1.08V44.55H159.6c-.39,0-.76-.17-.76-.67a.67.67,0,0,1,.76-.71h5.61V40.36a1.29,1.29,0,0,1,1.42-1.51,1.27,1.27,0,0,1,1.45,1.49v2.83h5.65c.76,0,.76.6.76.69a.65.65,0,0,1-.76.69h-5.65Zm3.85-1.42a32.44,32.44,0,0,0-2-5.08c-.33-.65-.37-.73-.37-.91a.74.74,0,0,1,.7-.73c.25,0,.35,0,1.3,1.25s3.22,4.49,3.22,5.55a1.58,1.58,0,0,1-1.44,1.54C172.37,54.75,172.24,54.29,171.93,53.13Z"/><path class="cls-2" d="M190.53,56.32c-1.16,0-1.28-1.1-1.28-1.57a1.08,1.08,0,0,1,1.16-1.24c.57,0,.7,0,1.58-.1.95-3.37,2.52-8.88,3.39-12.85.27-1.23.41-1.9,1.56-1.9a1.63,1.63,0,0,1,1.78,1.53c0,.63-2.56,7.64-4.77,13,.87-.06,2.62-.26,3.49-.38l4.68-.72a20.68,20.68,0,0,0-1.57-3.21c-.72-1.17-.76-1.22-.76-1.43a.78.78,0,0,1,.74-.76c.23,0,.35,0,1.39,1.28,2,2.39,4.08,5.92,4.08,6.93a1.65,1.65,0,0,1-1.63,1.51c-.85,0-1.07-.71-1.18-1.14-.26-.87-.39-1.28-.59-1.82C199.79,54.29,191,56.32,190.53,56.32Z"/><path class="cls-2" d="M156.16,47.19c.68,0,.79.69.79.9,0,.54-.29.93-.79.93H144.58a.82.82,0,0,1-.79-.9c0-.18.06-.93.79-.93Z"/><path class="cls-2" d="M189.09,47.19c.68,0,.8.69.8.9,0,.54-.29.93-.8.93H177.52a.83.83,0,0,1-.8-.9c0-.18.06-.93.8-.93Z"/><path class="cls-2" d="M96.22,32H94.75A6.5,6.5,0,0,0,97,33.28a3.54,3.54,0,0,0-.58.7,6.74,6.74,0,0,1-2.25-1.59v1.66h-.84V32.42A6.87,6.87,0,0,1,91.08,34a4.05,4.05,0,0,0-.56-.68A6.46,6.46,0,0,0,92.68,32H91.29V29.37h2V29H90.71v-.76h2.58v-.57l1,.06c0,.07-.06.11-.19.13v.38h2.64V29H94.13v.39h2.09Zm-4.13-2v.41h1.2V30Zm0,1v.42h1.2V31Zm3.3-1H94.13v.41h1.26Zm0,1.4V31H94.13v.42Z"/><path class="cls-2" d="M99.81,32.33a.18.18,0,0,1-.18.07,7.14,7.14,0,0,1-1.26,1.41,4.34,4.34,0,0,0-.67-.48A4.08,4.08,0,0,0,98.86,32Zm4.19-4v.78H97.85v-.78h2.61v-.66l1.07.06c0,.07-.06.11-.2.13v.47Zm-.8,3.44h-1.87V33.2c0,.74-.29.85-1.63.85a3.25,3.25,0,0,0-.26-.78l.74,0c.26,0,.3,0,.3-.12V31.75h-1.8V29.56h4.52Zm-3.71-1.49v.79h2.85v-.79Zm3.76,3.6a10.07,10.07,0,0,0-1.17-1.49l.74-.35a10.29,10.29,0,0,1,1.23,1.42Z"/><path class="cls-2" d="M108.57,29.26a.23.23,0,0,1-.2.12c-.28,2.32-1,3.66-2.13,3.66-.74,0-1.27-.62-1.27-1.78a3,3,0,0,1,3.11-3c1.92,0,2.91,1.14,2.91,2.61s-.82,2.43-2.53,2.86a4.46,4.46,0,0,0-.55-.72c1.55-.31,2.17-1,2.17-2.12a1.8,1.8,0,0,0-2-1.84c-.12,0-.23,0-.35,0Zm-1.08-.13a2.16,2.16,0,0,0-1.69,2.1c0,.57.17,1,.47,1C106.94,32.2,107.38,30.71,107.49,29.13Z"/><path class="cls-2" d="M112.83,31.66V28.33l1.06.05c0,.07-.07.12-.2.14v3.14Zm4-3.63c0,.07-.06.12-.2.14v2.12a3.49,3.49,0,0,1-2.38,3.57,4.39,4.39,0,0,0-.65-.64,2.85,2.85,0,0,0,2.15-2.93V28Z"/><path class="cls-2" d="M123.91,28.81a.28.28,0,0,1-.13.11,6.19,6.19,0,0,1-4.06,4.88,4.9,4.9,0,0,0-.58-.7,5.05,5.05,0,0,0,3.54-3.74h-4.07v-.82H123l.15-.1Z"/><path class="cls-2" d="M129.86,30.84h-1.47l0,2.17c0,.73-.42.82-1.54.82a3.51,3.51,0,0,0-.17-.63h.79a.22.22,0,0,0,.21-.21V31.43a8.1,8.1,0,0,1-2,1.64,2.31,2.31,0,0,0-.47-.52,6.45,6.45,0,0,0,2.07-1.71H125.5v-.67h2.18V29l.85,0c0,.06,0,.11-.15.13v1h1.48Z"/><path class="cls-2" d="M131.22,30.32h5.66v.86H131.5a.32.32,0,0,1-.23.12Z"/><path class="cls-2" d="M142.72,33.72c-.11-.27-.22-.52-.33-.74-1.49.17-3.36.32-4.37.37a.23.23,0,0,1-.15.15l-.28-1h.7c.41-1.26,1-3.19,1.3-4.49l1.09.28a.2.2,0,0,1-.21.12c-.33,1.15-.85,2.77-1.29,4.06.8,0,2.1-.13,2.81-.21a10,10,0,0,0-.93-1.33l.73-.4a13.93,13.93,0,0,1,1.77,2.81Z"/><path class="cls-2" d="M147.29,33.55c-.1-.1-.2-.2-.31-.33a1.71,1.71,0,0,1-1.16.39,1.22,1.22,0,0,1-1.36-1.18,1.29,1.29,0,0,1,.79-1.19v0a1.35,1.35,0,0,1-.33-.84,1.1,1.1,0,0,1,1.18-1.09,1,1,0,0,1,1.05,1c0,.42-.22.77-.85,1.1v0c.28.34.59.71.8.91a2.86,2.86,0,0,0,.35-1.06h.71a2.91,2.91,0,0,1-.65,1.55l.71.78Zm-.68-.78c-.22-.23-.62-.67-1-1.12a.8.8,0,0,0-.39.65A.7.7,0,0,0,146,33,.94.94,0,0,0,146.61,32.77Zm-1-2.46a.93.93,0,0,0,.29.64c.34-.21.52-.4.52-.68a.4.4,0,0,0-.39-.45A.44.44,0,0,0,145.65,30.31Z"/><path class="cls-2" d="M150.21,31.66V28.33l1.06.05c0,.07-.07.12-.19.14v3.14Zm4-3.63c0,.07-.06.12-.2.14v2.12a3.49,3.49,0,0,1-2.38,3.57,4.39,4.39,0,0,0-.65-.64,2.85,2.85,0,0,0,2.15-2.93V28Z"/><path class="cls-2" d="M161.12,28.33a.32.32,0,0,1-.23.11,10.5,10.5,0,0,1-4.47,5.39,5.61,5.61,0,0,0-.7-.64A9.31,9.31,0,0,0,160,27.91Z"/><path class="cls-2" d="M161.82,31.15c.5-.5,1.43-1.56,1.87-2a.94.94,0,0,1,.68-.35,1.25,1.25,0,0,1,.73.36,32.56,32.56,0,0,1,3.15,3.4l-.73.7a31.62,31.62,0,0,0-2.81-3.31c-.15-.13-.23-.2-.31-.2s-.16.08-.28.21-1.05,1.27-1.48,1.75a.26.26,0,0,1-.08.24Zm4.68-2.8a5,5,0,0,1,.82.93l-.4.32a6.4,6.4,0,0,0-.8-1Zm.84-.61a5.27,5.27,0,0,1,.82.91l-.4.33a6.83,6.83,0,0,0-.79-.93Z"/><path class="cls-2" d="M168.6,30.32h5.67v.86h-5.38a.37.37,0,0,1-.24.12Z"/><path class="cls-2" d="M175.43,29.74a8.94,8.94,0,0,1,1.73.63l-.36.74a10,10,0,0,0-1.74-.67Zm.19,3.16a6.8,6.8,0,0,0,4.52-3.76c.17.15.56.44.74.56a7.57,7.57,0,0,1-4.52,3.88.18.18,0,0,1-.11.18Zm.62-4.83a10.47,10.47,0,0,1,1.75.67l-.42.72a8.88,8.88,0,0,0-1.71-.72Z"/><path class="cls-2" d="M186.06,29.61v4.2h-.67v-.28h-2.9V32.9h2.9v-1h-2.6v-.63h2.6v-1h-2.74v-.64Z"/><path class="cls-2" d="M188.57,28.31a8.92,8.92,0,0,1,2,.89l-.45.77a10.6,10.6,0,0,0-1.94-.93Zm-.23,4.59A7,7,0,0,0,193,29a5.75,5.75,0,0,0,.79.5,7.84,7.84,0,0,1-4.7,4.09.27.27,0,0,1-.12.18Z"/></g></g></svg>