<svg xmlns="http://www.w3.org/2000/svg" viewBox="0 0 236 76"><defs><style>.cls-1{fill:#f6f6f6;}.cls-2{fill:#231815;}.cls-3{fill:#80919a;}</style></defs><title>i-com2</title><g id="Layer_2" data-name="Layer 2"><g id="SVG"><rect class="cls-1" width="236" height="76"/><path class="cls-2" d="M101.2,39.1V36.27h6.08V39.1Z"/><path class="cls-2" d="M72.12,30.83,75,28H83v2.84Z"/><path class="cls-2" d="M114,48V28h3.33V45.22h15.15V48Z"/><path class="cls-2" d="M141.07,48V28h3.33V48Z"/><rect class="cls-2" x="69.2" y="27.99" width="2.91" height="19.95"/><rect class="cls-2" x="80.12" y="27.99" width="2.91" height="19.95"/><path class="cls-2" d="M157.5,30.83,160.32,28h16.21v2.84Z"/><path class="cls-2" d="M187.53,39l2.82-2.82h13.49V39Z"/><path class="cls-2" d="M185.07,30.83,186.8,28h17v2.84Z"/><rect class="cls-2" x="154.59" y="27.99" width="2.91" height="19.95"/><rect class="cls-2" x="173.62" y="27.99" width="2.91" height="19.95"/><path class="cls-2" d="M203.84,45.17V48H184.58V45.17Z"/><rect class="cls-2" x="184.58" y="27.99" width="2.91" height="20.02"/><rect class="cls-2" x="200.92" y="27.99" width="2.92" height="9.45"/><path class="cls-2" d="M83,30.83,85.87,28H94v2.84Z"/><rect class="cls-2" x="91.08" y="27.99" width="2.91" height="19.95"/><polygon class="cls-2" points="43.02 18.7 48.11 18.7 53 13.8 43.02 13.8 43.02 18.7"/><polygon class="cls-3" points="33.11 58.65 28.23 58.65 28.23 23.58 33.11 18.7 33.11 58.65"/><polygon class="cls-3" points="43.02 58.65 38.13 58.65 38.13 18.68 43.02 13.8 43.02 58.65"/><polygon class="cls-3" points="53 58.65 48.11 58.65 48.11 18.7 53 13.8 53 58.65"/><polygon class="cls-2" points="33.12 23.59 38.13 23.59 43.03 18.7 33.12 18.7 33.12 23.59"/></g></g></svg>