<svg xmlns="http://www.w3.org/2000/svg" viewBox="0 0 255.76 62.25"><defs><style>.cls-1{font-size:14px;font-family:MiGoMB1Std-DeBold, MiGoMB1Std DeBold-83pv-RKSJ-H;font-weight:700;letter-spacing:0.01em;}.cls-2{letter-spacing:0em;}.cls-3{letter-spacing:0em;}.cls-4{letter-spacing:0em;}.cls-5{letter-spacing:0em;}.cls-6{letter-spacing:-0.02em;}.cls-7{letter-spacing:0.1em;}</style></defs><title>i-haus1</title><g id="Layer_2" data-name="Layer 2"><g id="SVG"><text class="cls-1" transform="translate(156.32 57.5)">オ<tspan class="cls-2" x="14.21" y="0">ー</tspan><tspan class="cls-3" x="28.28" y="0">ツ</tspan><tspan class="cls-4" x="42.33" y="0">ー</tspan><tspan class="cls-5" x="56.33" y="0">ハ</tspan><tspan class="cls-6" x="70.35" y="0">ウ</tspan><tspan class="cls-7" x="84.04" y="0">ス</tspan></text><path d="M22,0A22,22,0,0,0,10.92,41l.28.15A22,22,0,1,0,22,0ZM2.88,22a19,19,0,0,1,3.8-11.44V33.44A19,19,0,0,1,2.88,22ZM23.65,10.68a5.61,5.61,0,1,1,11.21,0c0,3.67-3.1,5.94-6.39,8.34a33.69,33.69,0,0,0-4.82,4V10.68Zm-2.86-.36h0V33.66a5.6,5.6,0,0,1-8.2,5l-.28-.17a5.6,5.6,0,0,1-2.73-4.8V7.49A19.1,19.1,0,0,1,25.32,3.17,8.49,8.49,0,0,0,20.79,10.32ZM23.63,34h0V31.39h15A19.15,19.15,0,0,1,22,41.12,18.93,18.93,0,0,1,19.48,41,8.47,8.47,0,0,0,23.63,34Zm.17-5.51c.67-3,3.44-5,6.37-7.17C33.78,18.7,37.5,16,37.72,11.12A19.13,19.13,0,0,1,40,28.51Z"/><path d="M68.9,8.77a13.31,13.31,0,0,1,4.55.84,13.12,13.12,0,0,1,4.22,2.52,12.73,12.73,0,0,1,3.13,4.24A13.9,13.9,0,0,1,82,22.44a13.9,13.9,0,0,1-1.22,6.07,12.83,12.83,0,0,1-3.13,4.24,12.07,12.07,0,0,1-4.22,2.44,14,14,0,0,1-9.11,0,12.07,12.07,0,0,1-4.22-2.44A12.83,12.83,0,0,1,57,28.51a14,14,0,0,1-1.22-6.07A14,14,0,0,1,57,16.37a12.73,12.73,0,0,1,3.13-4.24,13.12,13.12,0,0,1,4.22-2.52A13.37,13.37,0,0,1,68.9,8.77Zm0,4.68a8.29,8.29,0,0,0-3.09.61A8.69,8.69,0,0,0,61,18.63a9.1,9.1,0,0,0-.77,3.81A9.1,9.1,0,0,0,61,26.25a8.9,8.9,0,0,0,2,2.82,9.05,9.05,0,0,0,2.79,1.75,8.11,8.11,0,0,0,6.17,0,9.05,9.05,0,0,0,2.79-1.75,8.9,8.9,0,0,0,2-2.82,9.1,9.1,0,0,0,.77-3.81,9.1,9.1,0,0,0-.77-3.81A8.69,8.69,0,0,0,72,14.06,8.28,8.28,0,0,0,68.9,13.45Z"/><path d="M92.93,10a.8.8,0,0,0-.89.92V26.15c0,2.13.55,3.6,1.65,4.39a8.09,8.09,0,0,0,4.81,1.2,8.12,8.12,0,0,0,4.82-1.2c1.1-.79,1.64-2.26,1.64-4.39V10.91c0-.61-.4-.92-1.22-.92V9.08h6.51V10c-.65,0-1,.31-1,.92v15a15.15,15.15,0,0,1-.69,5A7.08,7.08,0,0,1,106.51,34a7.55,7.55,0,0,1-3.44,1.58,28.17,28.17,0,0,1-9.46,0A7.55,7.55,0,0,1,90.17,34a7.08,7.08,0,0,1-2.07-3.12,15.15,15.15,0,0,1-.69-5v-15c0-.61-.38-.92-1.14-.92V9.08h6.66Z"/><path d="M134.23,36.46h-.49c0-.37-.12-.58-.38-.61a7.26,7.26,0,0,0-.83-.05H115.42a3,3,0,0,0-.74.08c-.19,0-.28.22-.28.53h-.49V34.58A9.34,9.34,0,0,1,115,30a13.55,13.55,0,0,1,2.7-3.41,22.15,22.15,0,0,1,3.5-2.59c1.24-.74,2.41-1.48,3.49-2.21a14.27,14.27,0,0,0,2.7-2.26,3.9,3.9,0,0,0,1.08-2.74,3.49,3.49,0,0,0-.39-1.75,3.25,3.25,0,0,0-1-1.12,3.49,3.49,0,0,0-1.34-.58,6.44,6.44,0,0,0-1.42-.16,5.92,5.92,0,0,0-1.71.31,7.51,7.51,0,0,0-2,.91,7,7,0,0,0-1.61,1.45,3,3,0,0,0-.67,1.9,3.5,3.5,0,0,0,.1.67,1.12,1.12,0,0,0,.27.55l-.41.36-4.18-5.59.4-.35.33.2a.65.65,0,0,0,.36.1c.17,0,.46-.25.9-.76a13,13,0,0,1,1.79-1.68,12.37,12.37,0,0,1,2.84-1.67,9.87,9.87,0,0,1,4.06-.77,10.4,10.4,0,0,1,3,.46,7.4,7.4,0,0,1,2.64,1.45,7.15,7.15,0,0,1,1.87,2.54,8.92,8.92,0,0,1,.71,3.78,9.39,9.39,0,0,1-.73,4,8.18,8.18,0,0,1-1.93,2.66,12.22,12.22,0,0,1-2.7,1.86c-1,.51-2,1-3.07,1.5s-2,1-3,1.55a9.54,9.54,0,0,0-2.54,2.08v.51h13.42a1.73,1.73,0,0,0,.83-.21c.26-.13.38-.54.38-1.22h.49Z"/><path d="M166.72,10.91a.81.81,0,0,0-.9-.92V9.08h6.26V10a.71.71,0,0,0-.51.23.94.94,0,0,0-.22.69V34a1,1,0,0,0,.22.69.71.71,0,0,0,.51.23v.91h-6.26v-.91a.81.81,0,0,0,.9-.92V24.42H153.63V34a1,1,0,0,0,.22.69.71.71,0,0,0,.51.23v.91h-6.13v-.91c.51,0,.77-.31.77-.92V10.91c0-.61-.26-.92-.77-.92V9.08h6.13V10a.71.71,0,0,0-.51.23.94.94,0,0,0-.22.69v8.63h13.09Z"/><path d="M176.18,34.89a1.19,1.19,0,0,0,.83-.67A10.12,10.12,0,0,0,177.6,33l7.52-19.76c.19-.44.36-.84.51-1.22a2.61,2.61,0,0,0,.22-1,.8.8,0,0,0-.28-.71A2.07,2.07,0,0,0,185,10V9.08h6.87V10a3,3,0,0,0-.57.28A.82.82,0,0,0,191,11a2.32,2.32,0,0,0,.15.81c.09.27.23.63.42,1.07L200,33.56a1.59,1.59,0,0,0,.55.82,7.75,7.75,0,0,0,.79.51v.91h-7.15v-.91a.87.87,0,0,0,.4-.16.5.5,0,0,0,.25-.45,3.8,3.8,0,0,0-.33-1.33L193,29.2h-9.92l-1.46,3.6a5.1,5.1,0,0,0-.41,1.53c0,.37.26.56.77.56v.91h-5.77Zm15.32-9.45L188.09,16l-3.82,9.45Z"/><path d="M209.68,10a.8.8,0,0,0-.89.92V26.15c0,2.13.55,3.6,1.65,4.39a10.26,10.26,0,0,0,9.63,0c1.1-.79,1.64-2.26,1.64-4.39V10.91c0-.61-.4-.92-1.21-.92V9.08H227V10c-.65,0-1,.31-1,.92v15a15.15,15.15,0,0,1-.69,5A7.08,7.08,0,0,1,223.26,34a7.55,7.55,0,0,1-3.44,1.58,28.17,28.17,0,0,1-9.46,0A7.55,7.55,0,0,1,206.92,34a7.08,7.08,0,0,1-2.07-3.12,15.15,15.15,0,0,1-.69-5v-15c0-.61-.38-.92-1.14-.92V9.08h6.66Z"/><path d="M233.25,27.42l.41.25a1.86,1.86,0,0,0,.16.81,3.18,3.18,0,0,0,1.12,1.2,10.42,10.42,0,0,0,1.91,1,15.2,15.2,0,0,0,2.25.74,9.67,9.67,0,0,0,2.12.28,17.6,17.6,0,0,0,1.79-.13,9,9,0,0,0,2.15-.53A6,6,0,0,0,247,30a2.46,2.46,0,0,0,.77-1.88,2.07,2.07,0,0,0-.71-1.73,4.61,4.61,0,0,0-1.87-.81,16.1,16.1,0,0,0-2.64-.33c-1-.05-2-.13-3-.23a21.78,21.78,0,0,1-3-.51,7.38,7.38,0,0,1-2.64-1.19A6.1,6.1,0,0,1,232,21a8.67,8.67,0,0,1-.71-3.78,8.57,8.57,0,0,1,.59-3.1,7.35,7.35,0,0,1,1.81-2.69,9.27,9.27,0,0,1,3.09-1.91,11.94,11.94,0,0,1,4.39-.74,15.27,15.27,0,0,1,3.74.41,24.35,24.35,0,0,1,2.74.86q1.15.46,1.95.87a3.06,3.06,0,0,0,1.32.4,1,1,0,0,0,.81-.3l.49.41-2.8,6.35-.41-.21a3.32,3.32,0,0,0-.32-1.17,4,4,0,0,0-1.08-1.19,8.34,8.34,0,0,0-1.77-1,12.25,12.25,0,0,0-2.19-.74,10.63,10.63,0,0,0-2.36-.28,10,10,0,0,0-1.85.18,7.79,7.79,0,0,0-1.73.53,4,4,0,0,0-1.28.94,2.14,2.14,0,0,0-.51,1.45,2.27,2.27,0,0,0,.72,1.83,4.48,4.48,0,0,0,1.87.91,13.82,13.82,0,0,0,2.64.41c1,.07,2,.15,3,.26a19.2,19.2,0,0,1,3,.53,7.61,7.61,0,0,1,2.64,1.22,6,6,0,0,1,1.87,2.26,8.23,8.23,0,0,1,.71,3.71,7.64,7.64,0,0,1-1.11,4.31,8.49,8.49,0,0,1-2.79,2.65,10.8,10.8,0,0,1-3.59,1.29,21.5,21.5,0,0,1-3.6.33,19.14,19.14,0,0,1-3.88-.33,12.15,12.15,0,0,1-2.6-.81,16.93,16.93,0,0,1-1.65-.86,2.07,2.07,0,0,0-1.06-.39c-.19,0-.36.14-.52.41l-.57-.41Z"/></g></g></svg>