<svg xmlns="http://www.w3.org/2000/svg" viewBox="0 0 65 61.44"><defs><style>.cls-1{fill:none;stroke:#393c45;stroke-miterlimit:10;stroke-width:2px;}.cls-2{fill:#393c45;}</style></defs><title>i-icon14</title><g id="Layer_2" data-name="Layer 2"><g id="SVG"><polygon class="cls-1" points="34.22 1.08 1 13.76 1 60.44 64 60.44 64 13.76 34.22 1.08"/><path class="cls-2" d="M29.3,34.12a15.91,15.91,0,0,0-1.56,2.4,6.73,6.73,0,0,1,2.19,2.62,20,20,0,0,0,2.73-1.52c4.74-4,16.33-18.28,15.93-18.69S33.47,29.54,29.3,34.12Zm-2.92,3.51c-2.06-.36-4.09.94-5.44,4.19s-3.78,4.55-4.25,4.47c2.53.91,10.24,3.25,12.15-5.65A5.91,5.91,0,0,0,26.38,37.63Z"/></g></g></svg>