<svg xmlns="http://www.w3.org/2000/svg" viewBox="0 0 65 61.44"><defs><style>.cls-1{fill:none;stroke:#393c45;stroke-miterlimit:10;stroke-width:2px;}.cls-2{fill:#393c45;}</style></defs><title>i-icon17</title><g id="Layer_2" data-name="Layer 2"><g id="SVG"><polygon class="cls-1" points="34.22 1.08 1 13.76 1 60.44 64 60.44 64 13.76 34.22 1.08"/><path class="cls-2" d="M47.15,31.75A8.26,8.26,0,0,0,39,24.59a7.29,7.29,0,0,0-1,.07,9.23,9.23,0,0,0-11.54.26,10.88,10.88,0,0,0-10,9.35,6.49,6.49,0,0,0,4.78,10.58,10.84,10.84,0,0,0,13.26-1H41.3a6.74,6.74,0,1,0,5.85-12.12ZM44.53,43.11a5.17,5.17,0,0,1-2.62-.72.72.72,0,0,0-.4-.12h-6a3.76,3.76,0,0,0,.26-1.38,3.81,3.81,0,0,0-1.13-2.72.76.76,0,1,0-1.07,1.07,2.32,2.32,0,0,1,.15,3.14.91.91,0,0,0-.16.11,9.28,9.28,0,0,1-11.69.92l-.07,0A3,3,0,0,1,22,39.24a.75.75,0,0,0,0-1.07.77.77,0,0,0-1.07,0,4.57,4.57,0,0,0-1,4.83,4.9,4.9,0,0,1-2.11-7.88.84.84,0,0,0,.19-.43,9.29,9.29,0,0,1,7.24-8,4.48,4.48,0,0,0-.29,1.59,4.38,4.38,0,0,0,1.29,3.12.76.76,0,0,0,1.07,0,.77.77,0,0,0,0-1.07,2.9,2.9,0,0,1-.15-3.94.71.71,0,0,0,.14-.1,7.64,7.64,0,0,1,8.93-.92,3.39,3.39,0,0,0-1.4,3.2.75.75,0,0,0,.74.66h.1a.75.75,0,0,0,.66-.84,1.87,1.87,0,0,1,1.62-2.11l.12,0a6.52,6.52,0,0,1,.95-.08,6.68,6.68,0,0,1,6.5,5.23,3.84,3.84,0,0,0-3.6,2.47.75.75,0,0,0,.43,1,.65.65,0,0,0,.27,0,.76.76,0,0,0,.71-.48A2.33,2.33,0,0,1,46,33a.93.93,0,0,0,.2.1,5.15,5.15,0,0,1-1.63,10Z"/><path class="cls-2" d="M46.08,36.94a2.79,2.79,0,0,0-2.79,2.79.76.76,0,1,0,1.51,0,1.28,1.28,0,0,1,1.28-1.28.76.76,0,1,0,0-1.51Z"/><path class="cls-2" d="M28.68,36a3.32,3.32,0,0,0-3.32,3.32.76.76,0,1,0,1.52,0,1.81,1.81,0,0,1,1.8-1.8.76.76,0,1,0,0-1.52Z"/><path class="cls-2" d="M37.71,33.61a4,4,0,0,0-5.23-2A.76.76,0,1,0,33.1,33a2.46,2.46,0,0,1,3.24,1.23.74.74,0,0,0,.69.44.8.8,0,0,0,.3-.06A.74.74,0,0,0,37.71,33.61Z"/></g></g></svg>