<svg xmlns="http://www.w3.org/2000/svg" viewBox="0 0 65 61.44"><defs><style>.cls-1{fill:none;stroke:#393c45;stroke-miterlimit:10;stroke-width:2px;}.cls-2{fill:#393c45;}</style></defs><title>i-icon13</title><g id="Layer_2" data-name="Layer 2"><g id="SVG"><polygon class="cls-1" points="34.22 1.08 1 13.76 1 60.44 64 60.44 64 13.76 34.22 1.08"/><path class="cls-2" d="M21.27,28.63c2.79-2.39,5-4.28,11-.91A14.63,14.63,0,0,0,39.33,30c3.38,0,5.56-1.88,7.45-3.5a1.66,1.66,0,0,0,.19-2.3,1.57,1.57,0,0,0-2.24-.2c-2.79,2.4-5,4.29-11,.91-7.89-4.45-11.58-1.28-14.55,1.27a1.66,1.66,0,0,0-.19,2.3A1.57,1.57,0,0,0,21.27,28.63Zm23.46,3.48c-2.79,2.39-5,4.28-11,.91-7.89-4.46-11.58-1.29-14.55,1.26a1.66,1.66,0,0,0-.19,2.3,1.56,1.56,0,0,0,2.24.2c2.79-2.4,5-4.29,11-.91a14.6,14.6,0,0,0,7.1,2.23c3.38,0,5.56-1.88,7.45-3.5A1.66,1.66,0,0,0,47,32.3,1.57,1.57,0,0,0,44.73,32.11Zm0,8.14c-2.79,2.39-5,4.28-11,.91-7.89-4.46-11.58-1.28-14.55,1.27A1.65,1.65,0,0,0,19,44.72a1.56,1.56,0,0,0,2.24.2c2.79-2.4,5-4.29,11-.91a14.6,14.6,0,0,0,7.1,2.23c3.38,0,5.56-1.88,7.45-3.5A1.65,1.65,0,0,0,47,40.45,1.56,1.56,0,0,0,44.73,40.25Z"/></g></g></svg>