<svg xmlns="http://www.w3.org/2000/svg" viewBox="0 0 65.4 61.44"><defs><style>.cls-1{fill:none;stroke:#393c45;stroke-miterlimit:10;stroke-width:2px;}.cls-2{fill:#393c45;}</style></defs><title>i-icon6</title><g id="Layer_2" data-name="Layer 2"><g id="SVG"><polygon class="cls-1" points="34.43 1.08 1 13.76 1 22.4 1 35.08 1 47.76 1 60.44 64.4 60.44 64.4 47.76 64.4 35.08 64.4 22.4 64.4 13.76 34.43 1.08"/><path class="cls-2" d="M41.35,30.36a39.51,39.51,0,0,1-3.78-7.06,16.53,16.53,0,0,0-1.93,3.53c-.39-1.35-1.1-1.95-1.93-3.36a10.81,10.81,0,0,1-1.26-4.11,8.17,8.17,0,0,0-2.94,3.52c-1.18,2.52-1.09,5.46-2.44,6.8-.5-2.68-1.76-3.44-1.76-3.44s-.75,2.27-1.26,3.78a18.19,18.19,0,0,0-2.18,8.31,10.83,10.83,0,1,0,21.66,0A16.61,16.61,0,0,0,41.35,30.36Z"/></g></g></svg>