<svg xmlns="http://www.w3.org/2000/svg" viewBox="0 0 93.73 34.05"><defs><style>.cls-1{fill:#393c45;}</style></defs><title>i-texttel1</title><g id="Layer_2" data-name="Layer 2"><g id="SVG"><path class="cls-1" d="M4.08,6c-.8.06-1.62.13-2.69.13C1.12,6.14,1,6,1,5.8S.9,5,.83,4.41a8.75,8.75,0,0,0,1.25.08,19.76,19.76,0,0,0,2-.13c0-.53,0-1.13,0-1.82A6.34,6.34,0,0,0,4,1.24a9,9,0,0,1,1.9.29c.19.05.32.16.32.3a.57.57,0,0,1-.09.26,1.74,1.74,0,0,0-.23.62c0,.42-.06.82-.08,1.33a14.94,14.94,0,0,0,2.05-.59c.15-.05.26,0,.27.14a7.44,7.44,0,0,1,.1,1.25c0,.16,0,.21-.21.26a18.73,18.73,0,0,1-2.29.61c0,.76,0,1.55,0,2.32a10,10,0,0,1,3.94-.88,3.17,3.17,0,0,1,3.41,3.2c0,2.05-1.32,3.25-3.48,3.25a6.22,6.22,0,0,1-1.31-.15A.43.43,0,0,1,7.94,13a2.87,2.87,0,0,0-.48-1.36,5.89,5.89,0,0,0,2,.29,1.59,1.59,0,0,0,1.73-1.65c0-1-.64-1.61-1.76-1.61A8,8,0,0,0,5.76,9.72c0,.68,0,1.22.07,1.92S6,13.36,6,13.73c0,.22,0,.46-.24.52a6.47,6.47,0,0,1-1.18.2c-.18,0-.24-.12-.38-.32a9.67,9.67,0,0,0-2.28-2.05,2.56,2.56,0,0,0-.51.35.39.39,0,0,1-.27.11.44.44,0,0,1-.35-.26c-.18-.28-.5-1-.74-1.48a6.38,6.38,0,0,0,1.47-.56L4.08,8.75ZM2.59,11.52c.45.24,1,.51,1.51.72.13,0,.17,0,.16-.13,0-.42-.07-1.15-.1-1.68C3.71,10.73,3.17,11.1,2.59,11.52Zm7.65-8.41c.12-.17.16-.22.28-.19a7.65,7.65,0,0,1,3.39,2c.06.07.1.12.1.16a.43.43,0,0,1-.07.16c-.21.32-.62.82-.86,1.14-.05.06-.28.08-.32,0a7.43,7.43,0,0,0-3.25-2A10.45,10.45,0,0,1,10.24,3.11Z"/><path class="cls-1" d="M23.36,9.79a9.81,9.81,0,0,1,1.4,1.47c.11.14.09.18-.08.29l-.9.64a.48.48,0,0,1-.19.09c-.05,0-.08,0-.15-.12a10.78,10.78,0,0,0-1.28-1.56c-.13-.12-.11-.16.07-.27L23,9.79H20.15c-1.49,0-2,0-2.1,0s-.19,0-.19-.19v-1c0-.16,0-.17.19-.17s.61,0,2.1,0H26.5V7.67H20.43c-1.52,0-2.05,0-2.14,0s-.18,0-.18-.2V6.62c0-.18,0-.19.18-.19s.62,0,2.14,0H26.5v-.8H20.39c-1.54,0-2.09,0-2.18,0s-.18,0-.18-.18V5.16c-.29.18-.57.37-.88.55a1,1,0,0,1-.37.17c-.11,0-.17-.11-.28-.38a3,3,0,0,0-.64-.9,10.51,10.51,0,0,0,3.92-3.34,4.57,4.57,0,0,0,.51-1,15.38,15.38,0,0,1,1.6.33c.14.05.22.1.22.21A.28.28,0,0,1,22,1a2.06,2.06,0,0,0-.51.61l-.06.1h2.75a.77.77,0,0,0,.37-.05.68.68,0,0,1,.22-.05c.13,0,.29.08.68.38s.48.44.48.56-.1.25-.26.33a1.77,1.77,0,0,0-.5.49,11.83,11.83,0,0,1-.83,1h1.09c1.66,0,2.48,0,2.58,0s.19,0,.19.18,0,.56,0,1.55v2c0,1,0,1.47,0,1.57s0,.19-.19.19-.92,0-2.58,0ZM18.66,11c.16.06.19.11.14.27a9.72,9.72,0,0,1-1.42,3.07c-.1.13-.13.13-.31,0L16,13.69c-.18-.12-.18-.2-.1-.32a7,7,0,0,0,1.39-2.69c.05-.17.08-.16.29-.08Zm3.71-6.63a14.65,14.65,0,0,0,1-1.29h-3a11.32,11.32,0,0,1-1.3,1.29Zm-2.69,7.27a8.34,8.34,0,0,0-.08-1.33c.59,0,1.15,0,1.62.1.21,0,.3.09.3.16a.63.63,0,0,1-.08.27,1.51,1.51,0,0,0-.11.7v1c0,.35.06.52.26.64a3,3,0,0,0,1.36.17c1.25,0,1.65,0,2-.29s.41-.65.45-1.47a4.69,4.69,0,0,0,1.16.51c.42.13.42.13.36.55A2.3,2.3,0,0,1,26,14.4c-.62.37-1.42.43-3.12.43a6,6,0,0,1-2.63-.34c-.36-.2-.59-.52-.59-1.39Zm8.21-1.14c.16-.08.23-.08.32,0a16.12,16.12,0,0,1,1.91,2.66c.06.15,0,.21-.15.32l-1,.59a.42.42,0,0,1-.19.1c-.06,0-.09,0-.14-.14a13.88,13.88,0,0,0-1.76-2.73c-.11-.12-.1-.22.09-.32Z"/><path class="cls-1" d="M37.22,2.31a4.3,4.3,0,0,0-.56-1,11.46,11.46,0,0,1,1.93-.18c.23,0,.36.13.36.29s0,.21,0,.3a2.93,2.93,0,0,0,.07.48c.11.42.16.57.25.84a20.49,20.49,0,0,0,2.9-.72c.15-.07.23,0,.27.08.1.3.21.75.28,1.07a.25.25,0,0,1-.2.29,22.39,22.39,0,0,1-2.77.69c.15.4.36.89.57,1.34a18.61,18.61,0,0,0,2.91-.83c.16-.08.24-.05.29.09a6.63,6.63,0,0,1,.28,1.06c0,.14,0,.22-.12.29a20.49,20.49,0,0,1-2.72.8A11.52,11.52,0,0,0,43,9.93c.16.15.16.21.08.39a5,5,0,0,1-.66,1c-.09.11-.16.16-.25.16a.4.4,0,0,1-.23-.1,3.77,3.77,0,0,0-.94-.51,7.87,7.87,0,0,0-3-.51c-1.51,0-2.39.46-2.39,1.21,0,1,1.36,1.38,3.81,1.38.6,0,1.19-.06,1.76-.1.16,0,.21.08.2.21a12,12,0,0,1-.32,1.46c0,.16-.12.22-.34.24-.37,0-.75.05-1.15.05-3.68,0-5.64-1-5.64-3,0-1.71,1.48-2.79,4-2.79a7.49,7.49,0,0,1,2.76.4,15.09,15.09,0,0,1-1.33-1.89A39.07,39.07,0,0,1,35,8c-.17,0-.24-.07-.29-.23a8.91,8.91,0,0,1-.29-1.31,27.57,27.57,0,0,0,4.31-.4l-.61-1.33a27.26,27.26,0,0,1-3.89.38c-.19,0-.29-.06-.32-.22s-.16-.77-.25-1.28a26.6,26.6,0,0,0,4-.26C37.47,3,37.38,2.71,37.22,2.31ZM43.4,1.08c.08-.06.14-.05.24,0a7.69,7.69,0,0,1,1.52,1.72.16.16,0,0,1,0,.25l-.67.5a.18.18,0,0,1-.28-.05,7.91,7.91,0,0,0-1.61-1.86Zm1.42-1c.1-.06.14,0,.24,0a6.72,6.72,0,0,1,1.52,1.65.18.18,0,0,1,0,.29l-.64.49c-.12.1-.2,0-.27,0A7.34,7.34,0,0,0,44,.62Z"/><path class="cls-1" d="M56,4a20.1,20.1,0,0,1-2,6.9,3,3,0,0,1-2.72,1.84c-1.41,0-2.83-1.5-2.83-4.11a5.88,5.88,0,0,1,1.8-4.16,7,7,0,0,1,5.21-2c3.84,0,6.1,2.37,6.1,5.55,0,3-1.69,4.85-4.93,5.83-.34.09-.48,0-.69-.29a3.57,3.57,0,0,0-1.12-1c2.7-.64,4.83-1.76,4.83-4.79A3.63,3.63,0,0,0,56,4ZM51.38,5.51a4.62,4.62,0,0,0-1.25,3c0,1.47.59,2.28,1.09,2.28s.77-.2,1.2-1a18.37,18.37,0,0,0,1.69-5.73A4.79,4.79,0,0,0,51.38,5.51Z"/><path class="cls-1" d="M66.06,4.66c-1.42,0-1.9,0-2,0s-.18,0-.18-.19V3.21c0-.18,0-.19.18-.19s.59,0,2,0H70V2A7.85,7.85,0,0,0,69.87.44c.58,0,1.2,0,1.75.08.16,0,.26.08.26.18a1,1,0,0,1-.1.33,2.16,2.16,0,0,0-.1.93V3.05h4.21c1.44,0,1.92,0,2,0s.16,0,.16.19v1.3c0,.17,0,.19-.16.19s-.58,0-2,0H70.35c0,.71-.06,1.37-.12,2h3.92c1.34,0,1.79,0,1.89,0s.19.05.19.23c0,.41,0,.84-.07,1.25a29.71,29.71,0,0,1-.52,4.75c-.36,1.52-1,2-2.58,2-.29,0-.74,0-1.27,0s-.44-.06-.51-.57A3.54,3.54,0,0,0,70.93,13a16.16,16.16,0,0,0,2,.15.89.89,0,0,0,.94-.8,19.49,19.49,0,0,0,.5-4.07H70A9,9,0,0,1,65.3,14.7a1.25,1.25,0,0,1-.39.18c-.11,0-.17-.11-.32-.35a3.45,3.45,0,0,0-1-1c3.68-1.81,4.88-4,4.91-8.89Z"/><path class="cls-1" d="M83.65,1.85c.18.09.24.19.24.32a.88.88,0,0,1-.11.35,3.26,3.26,0,0,0-.29.88,31.67,31.67,0,0,0-.8,5.83c0,.64,0,1.37,0,2,.32-.74.65-1.43,1-2.23a4.07,4.07,0,0,0,.56,1,.36.36,0,0,1,.1.22.53.53,0,0,1-.1.26A9.81,9.81,0,0,0,83.47,13a3,3,0,0,0,0,.85c0,.11,0,.16-.19.21a6.63,6.63,0,0,1-1.21.27c-.17,0-.24,0-.32-.19a15.16,15.16,0,0,1-.68-4.88,34.41,34.41,0,0,1,.65-6.07,7.76,7.76,0,0,0,.11-1.89A12.54,12.54,0,0,1,83.65,1.85Zm5.51,4.27c-1.09,0-2.21.07-3.3,0-.21,0-.27-.05-.29-.21a10.48,10.48,0,0,1-.11-1.46,23.42,23.42,0,0,0,3.65,0c0-.58,0-1.09,0-1.68a6.05,6.05,0,0,0-.21-1.57,9,9,0,0,1,1.94.3c.18.05.29.13.29.28s0,.12-.1.27a2,2,0,0,0-.13.56c0,.54,0,1,0,1.7.75-.07,1.59-.18,2.28-.29.19,0,.22,0,.25.19a5.9,5.9,0,0,1,.1,1.14.22.22,0,0,1-.18.24A18.18,18.18,0,0,1,90.84,6c0,1.79,0,2.92.11,4.29a10.65,10.65,0,0,1,2.66,1.54c.14.09.16.14.08.32A9.55,9.55,0,0,1,93,13.34a.19.19,0,0,1-.15.1.23.23,0,0,1-.14-.08,8.93,8.93,0,0,0-1.73-1.28c-.13,1.34-1,2.08-2.93,2.08s-2.86-.87-2.86-2.24,1.18-2.26,2.8-2.26a6.61,6.61,0,0,1,1.28.13C89.19,8.56,89.17,7.39,89.16,6.12Zm-1.3,5c-.75,0-1.2.27-1.2.77s.35.8,1.3.8,1.31-.47,1.31-1a1.83,1.83,0,0,0,0-.32A4.43,4.43,0,0,0,87.86,11.1Z"/><path class="cls-1" d="M4.08,25c-.8.06-1.62.13-2.69.13-.27,0-.35-.1-.38-.34S.9,24,.83,23.41a8.75,8.75,0,0,0,1.25.08,19.76,19.76,0,0,0,2-.13c0-.53,0-1.13,0-1.82A6.34,6.34,0,0,0,4,20.24a9,9,0,0,1,1.9.29c.19,0,.32.16.32.3a.57.57,0,0,1-.09.26,1.74,1.74,0,0,0-.23.62c0,.42-.06.82-.08,1.33a14.94,14.94,0,0,0,2.05-.59c.15-.05.26,0,.27.14a7.44,7.44,0,0,1,.1,1.25c0,.16,0,.21-.21.26a18.73,18.73,0,0,1-2.29.61c0,.76,0,1.55,0,2.32a10,10,0,0,1,3.94-.88,3.17,3.17,0,0,1,3.41,3.2c0,2-1.32,3.25-3.48,3.25a6.22,6.22,0,0,1-1.31-.15A.43.43,0,0,1,7.94,32a2.87,2.87,0,0,0-.48-1.36,5.89,5.89,0,0,0,2,.29,1.59,1.59,0,0,0,1.73-1.65c0-1-.64-1.61-1.76-1.61a8,8,0,0,0-3.67,1.08c0,.68,0,1.22.07,1.92S6,32.36,6,32.73s0,.46-.24.52a6.47,6.47,0,0,1-1.18.2c-.18,0-.24-.12-.38-.32a9.67,9.67,0,0,0-2.28-2.05,2.56,2.56,0,0,0-.51.35.39.39,0,0,1-.27.11.44.44,0,0,1-.35-.26c-.18-.28-.5-1-.74-1.48a6.38,6.38,0,0,0,1.47-.56l2.61-1.49ZM2.59,30.52c.45.24,1,.51,1.51.72.13,0,.17,0,.16-.13,0-.42-.07-1.15-.1-1.68C3.71,29.73,3.17,30.1,2.59,30.52Zm7.65-8.41c.12-.17.16-.22.28-.19a7.65,7.65,0,0,1,3.39,1.95c.06.07.1.12.1.16a.43.43,0,0,1-.07.16c-.21.32-.62.82-.86,1.14-.05.06-.28.08-.32,0a7.43,7.43,0,0,0-3.25-2A10.45,10.45,0,0,1,10.24,22.11Z"/><path class="cls-1" d="M19.39,21.2c-1.55,0-2.08,0-2.17,0s-.2,0-.2-.17V20c0-.16,0-.18.2-.18s.62,0,2.17,0h7.17c1.57,0,2.1,0,2.2,0s.17,0,.17.18v1c0,.16,0,.17-.17.17s-.63,0-2.2,0H23.67v.64h3.92c1.47,0,2,0,2.1,0s.17,0,.17.18,0,.38,0,.8v.83c0,1.28,0,1.53,0,1.63s0,.18-.17.18H28.44c-.16,0-.18,0-.18-.18V23.06H23.67v1.36c0,1,0,1.5,0,1.6s0,.16-.18.16H22.21c-.16,0-.18,0-.18-.16s0-.58,0-1.6V23.06H17.63v2.19c0,.16,0,.18-.17.18H16.21c-.15,0-.16,0-.16-.18s0-.35,0-1.63v-.71c0-.54,0-.83,0-.92s0-.18.16-.18.62,0,2.09,0h3.77V21.2Zm6.25,5.33c1.61,0,2.4,0,2.51,0s.17,0,.17.19,0,.42,0,1.46V30c0,.93,0,1.36,0,1.46s0,.17-.17.17-.9,0-2.51,0h-2v.24c0,.44.1.5.31.56a13.2,13.2,0,0,0,2.13.1c1.39,0,2-.08,2.35-.34s.35-.38.4-1.61a5.3,5.3,0,0,0,1.14.46c.41.11.41.13.38.56a2.29,2.29,0,0,1-.91,1.86c-.52.32-1.41.49-3.33.49a12.28,12.28,0,0,1-3.2-.25c-.5-.18-.82-.51-.82-1.48v-.59H19.11v.66c0,.16,0,.18-.18.18H17.66c-.14,0-.16,0-.16-.18s0-.5,0-1.47V28.18c0-1,0-1.39,0-1.49s0-.19.16-.19.88,0,2.41,0Zm-5.41-2.91c.64,0,.8,0,.89,0s.18,0,.18.15v.64c0,.09,0,.11-.18.11s-.25,0-.89,0h-.77c-.64,0-.8,0-.9,0s-.18,0-.18-.13v-.64c0-.11,0-.13.18-.13s.26,0,.9,0Zm0,1.41c.64,0,.8,0,.89,0s.18,0,.18.14v.61c0,.13,0,.15-.18.15s-.25,0-.89,0h-.77c-.64,0-.8,0-.9,0s-.18,0-.18-.15v-.62c0-.11,0-.13.18-.13s.26,0,.9,0Zm1.82,3.45v-.8H19.11v.8Zm0,1.94v-.83H19.11v.83Zm1.55-2.74v.8h3.11v-.8Zm3.11,1.91H23.6v.83h3.11Zm-.35-6c.68,0,.84,0,.94,0s.18,0,.18.14v.63c0,.13,0,.14-.18.14s-.26,0-.94,0h-.79c-.69,0-.85,0-.94,0s-.18,0-.18-.16V23.7c0-.11,0-.13.18-.13s.25,0,.94,0Zm0,1.4h.94c.16,0,.18,0,.18.14v.63c0,.11,0,.12-.18.12H24.63c-.16,0-.18,0-.18-.12v-.64c0-.12,0-.13.18-.13h1.73Z"/><path class="cls-1" d="M35.79,22.19c1.22,0,1.62,0,1.72,0s.17,0,.17.18v1.13c0,.18,0,.19-.17.19s-.5,0-1.72,0H33.6c-1.22,0-1.62,0-1.71,0s-.16,0-.16-.19V22.34c0-.16,0-.18.16-.18s.49,0,1.71,0Zm1.4,9.09c0,1.86,0,2.21,0,2.31s0,.18-.18.18H35.87c-.16,0-.17,0-.17-.18v-.43H33.92v.73c0,.15,0,.16-.18.16H32.58c-.18,0-.2,0-.2-.16s0-.48,0-2.41V30.4c0-1,0-1.39,0-1.5s0-.18.2-.18.43,0,1.45,0h1.54c1,0,1.36,0,1.47,0s.18,0,.18.18,0,.48,0,1.23ZM35.62,20c1,0,1.34,0,1.44,0s.19,0,.19.17V21.2c0,.16,0,.18-.19.18s-.42,0-1.44,0H34.08c-1,0-1.36,0-1.46,0s-.17,0-.17-.18V20.14c0-.16,0-.17.17-.17s.42,0,1.46,0Zm-.13,4.45c1,0,1.25,0,1.34,0s.2,0,.2.17v1c0,.16,0,.18-.2.18s-.36,0-1.34,0H34.13c-1,0-1.27,0-1.36,0s-.18,0-.18-.18v-1c0-.16,0-.17.18-.17s.38,0,1.36,0Zm0,2.14c1,0,1.25,0,1.34,0s.2,0,.2.18v1c0,.16,0,.18-.2.18s-.36,0-1.34,0H34.13c-1,0-1.27,0-1.36,0s-.18,0-.18-.18v-1c0-.16,0-.18.18-.18s.38,0,1.36,0Zm-1.57,3.49v1.76H35.7V30.08Zm6-4.3c-1.49,0-2,0-2.08,0s-.18,0-.18-.18V24.42c0-.15,0-.16.18-.16s.59,0,2.08,0h1V22.16c-.72.13-1.46.24-2.21.34-.38.05-.38,0-.51-.35a2.83,2.83,0,0,0-.56-1.09,22.91,22.91,0,0,0,6.07-1.22,3.4,3.4,0,0,0,.81-.4,12.7,12.7,0,0,1,1,1.15.45.45,0,0,1,.12.27c0,.12-.1.18-.32.18a2.36,2.36,0,0,0-.63.13c-.64.22-1.33.43-2.05.61v2.51H44c1.49,0,2,0,2.1,0s.18,0,.18.16v1.21c0,.16,0,.18-.18.18s-.61,0-2.1,0H42.69v2.16h.67c1.35,0,1.83,0,1.93,0s.17,0,.17.17,0,.55,0,1.57v1.44c0,2.2,0,2.61,0,2.71s0,.16-.17.16H44c-.16,0-.17,0-.17-.16v-.58H40v.66c0,.14,0,.16-.18.16H38.5c-.16,0-.18,0-.18-.16s0-.53,0-2.74V29.89c0-1.26,0-1.71,0-1.81s0-.17.18-.17.57,0,1.92,0H41V25.78Zm0,6H43.8V29.38H40Z"/><path class="cls-1" d="M55.92,23.17c-2,.37-3.66.7-5.38,1.06-.6.14-.76.17-1,.25a1,1,0,0,1-.36.13.37.37,0,0,1-.3-.24,11,11,0,0,1-.59-1.73,20.83,20.83,0,0,0,2.54-.27c2-.29,5.49-.82,9.62-1.36.24,0,.32.06.34.17A8.64,8.64,0,0,1,61,22.59c0,.2-.09.24-.3.24a7,7,0,0,0-1.95.36c-2.72.92-4.08,2.8-4.08,4.72s1.47,3.18,4.25,3.36c.26,0,.36.06.36.24a5.87,5.87,0,0,1-.18,1.38c-.05.24-.11.33-.3.33-2.82,0-5.91-1.62-5.91-4.94,0-2.28,1.14-3.81,3.07-5.08Zm3.17,1.73c.08-.07.15,0,.24,0a7.19,7.19,0,0,1,1.52,1.71.16.16,0,0,1-.05.26l-.67.5c-.11.08-.19.06-.27,0a7.72,7.72,0,0,0-1.62-1.86Zm1.43-1c.09-.07.14-.05.24,0a6.72,6.72,0,0,1,1.52,1.65.19.19,0,0,1-.05.29l-.64.49a.16.16,0,0,1-.27-.05,8.17,8.17,0,0,0-1.6-1.84Z"/></g></g></svg>