<svg xmlns="http://www.w3.org/2000/svg" viewBox="0 0 126.61 31.22"><defs><style>.cls-1{fill:#393c45;}</style></defs><title>i-texttel4</title><g id="Layer_2" data-name="Layer 2"><g id="SVG"><path class="cls-1" d="M10.56,3.32c0,1.13,0,1.3,0,1.37s0,.1-.1.1H9.89c-.09,0-.1,0-.1-.1V2.78h-9V4.69c0,.09,0,.1-.1.1H.1c-.09,0-.1,0-.1-.1s0-.25,0-1.37V2.89c0-.42,0-.62,0-.68S0,2.1.1,2.1s.54,0,1.81,0H7.38A12.72,12.72,0,0,0,8.26.54,2.22,2.22,0,0,0,8.42,0a7.83,7.83,0,0,1,.75.26c.1,0,.15.09.15.15a.15.15,0,0,1-.1.16,1,1,0,0,0-.28.34A13.87,13.87,0,0,1,8.2,2.13h.48c1.27,0,1.72,0,1.8,0s.1,0,.1.11,0,.26,0,.61Zm-1,6.44c0,1.51,0,1.75,0,1.83s0,.09-.09.09h-.6c-.09,0-.1,0-.1-.09V11.1h-7v.54c0,.08,0,.1-.09.1H1.11c-.1,0-.11,0-.11-.1s0-.32,0-1.86V9.1C1,8.37,1,8.1,1,8s0-.1.11-.1h3a9.44,9.44,0,0,0,.5-1.28h-.7c-1.2,0-1.62,0-1.69,0s-.09,0-.09-.1,0-.26,0-.89V4.84c0-.62,0-.81,0-.88s0-.1.09-.1.49,0,1.69,0h2.7c1.2,0,1.61,0,1.69,0s.09,0,.09.1,0,.26,0,.88V5.7c0,.63,0,.82,0,.89s0,.1-.09.1-.49,0-1.69,0H5.43a10.15,10.15,0,0,1-.49,1.28H9.48c.09,0,.09,0,.09.1s0,.34,0,.92ZM1.83.16c.13,0,.17,0,.22,0a6.6,6.6,0,0,1,.89,1.39c0,.08,0,.09-.11.15l-.36.17C2.3,2,2.28,2,2.21,1.8A6.36,6.36,0,0,0,1.39.46C1.33.39,1.33.36,1.5.29Zm7,8.45h-7v1.81h7ZM7.63,4.51H2.93V6h4.7ZM4.88,0C5,0,5,0,5.07.07a6.42,6.42,0,0,1,.77,1.41c0,.09,0,.1-.13.18l-.34.16c-.17.07-.18.06-.23-.07A7.43,7.43,0,0,0,4.41.32c-.07-.09,0-.1.1-.16Z"/><path class="cls-1" d="M19.18,8.38a11.91,11.91,0,0,0,5,2.19,2.2,2.2,0,0,0-.34.46c-.13.25-.13.25-.37.17a11,11,0,0,1-4.89-2.57c0,2,.06,2.78.06,3s0,.11-.1.11h-.62c-.1,0-.11,0-.11-.11s.05-1,.07-3a10.81,10.81,0,0,1-4.71,2.62c-.23.08-.26.08-.38-.16a1.39,1.39,0,0,0-.35-.44,10.82,10.82,0,0,0,4.79-2.29H14.48c-1.23,0-1.64,0-1.7,0s-.12,0-.12-.11V7.83c0-.09,0-.1.12-.1s.47,0,1.7,0h3.33v-1H15.87c-1.32,0-1.78,0-1.84,0s-.11,0-.11-.09V6.2c0-.11,0-.12.11-.12s.52,0,1.84,0h1.94v-1H15.24c-1.3,0-1.73,0-1.8,0s-.11,0-.11-.1V4.56c0-.09,0-.11.11-.11s.5,0,1.8,0h1a5.08,5.08,0,0,0-.55-1.12c-.06-.09,0-.11.1-.17l.34-.11c.13-.05.16-.05.21,0a6.81,6.81,0,0,1,.69,1.38h2.4a7,7,0,0,0,.49-1A3.34,3.34,0,0,0,20.11,3a7.07,7.07,0,0,1,.69.18c.08,0,.14.08.14.15s-.06.11-.11.15a.91.91,0,0,0-.19.28,6.49,6.49,0,0,1-.42.71h1.13c1.31,0,1.73,0,1.8,0s.11,0,.11.11V5c0,.09,0,.1-.11.1s-.49,0-1.8,0H18.56v1h2.2c1.33,0,1.77,0,1.85,0s.1,0,.1.12v.45c0,.08,0,.09-.1.09s-.52,0-1.85,0h-2.2v1h3.58c1.24,0,1.64,0,1.72,0s.1,0,.1.1V8.3c0,.09,0,.11-.1.11s-.48,0-1.72,0ZM24,2.8c0,.09,0,.11-.1.11s-.48,0-1.72,0H14.48c-1.23,0-1.64,0-1.7,0s-.12,0-.12-.11V2.34c0-.11,0-.12.12-.12s.47,0,1.7,0h.46A5.76,5.76,0,0,0,14,.87c0-.07,0-.11.08-.17l.35-.18c.09-.06.13-.06.19,0a7.58,7.58,0,0,1,.93,1.31c0,.08,0,.1-.08.17l-.43.23h1.72v-1A5.2,5.2,0,0,0,16.69.09c.28,0,.59,0,.8.06s.13.05.13.12a.38.38,0,0,1-.06.18,2.37,2.37,0,0,0-.07.82v1h1.39v-1A4.68,4.68,0,0,0,18.79.1c.27,0,.59,0,.8.06s.13.06.13.12a.41.41,0,0,1,0,.17,2.57,2.57,0,0,0-.08.82v1H20.8A8.94,8.94,0,0,0,21.53,1a2,2,0,0,0,.21-.61,7.08,7.08,0,0,1,.74.25.16.16,0,0,1,.13.13c0,.08,0,.12-.11.17a.82.82,0,0,0-.22.26c-.21.34-.44.69-.69,1h.55c1.24,0,1.64,0,1.72,0s.1,0,.1.12Z"/><path class="cls-1" d="M29.25,6.24c0,3.25,0,3.78,0,3.84s0,.11-.11.11h-.53c-.09,0-.1,0-.1-.11V9.43H26.85v1.08c0,.09,0,.11-.11.11H26.2c-.1,0-.11,0-.11-.11s0-.65,0-4V4c0-2.38,0-3,0-3s0-.11.11-.11.29,0,1,0h.89c.74,0,1,0,1,0s.11,0,.11.11,0,.62,0,2.62Zm-.71-4.72H26.85V4.7h1.69Zm0,3.86H26.85V8.74h1.69Zm8.61-.6c0,.09,0,.1-.1.1s-.51,0-1.79,0h-3.7c-1.27,0-1.7,0-1.78,0s-.1,0-.1-.1V4.25c0-.09,0-.11.1-.11s.51,0,1.78,0h1.21V2.44H32c-1.2,0-1.6,0-1.67,0s-.11,0-.11-.11V1.84c0-.1,0-.12.11-.12s.47,0,1.67,0h.8A8.62,8.62,0,0,0,32.68.09a6.93,6.93,0,0,1,.85.06c.09,0,.15.05.15.12a1.58,1.58,0,0,1-.06.23,4.83,4.83,0,0,0-.08,1.25h1.18c1.2,0,1.59,0,1.67,0s.1,0,.1.12v.52c0,.09,0,.11-.1.11s-.47,0-1.67,0H33.54V4.17h1.72c1.28,0,1.71,0,1.79,0s.1,0,.1.11ZM37,7.09c0,.1,0,.11-.11.11s-.46,0-1.56,0V8.94c0,.59,0,1.14,0,1.66a.94.94,0,0,1-.37.87c-.22.16-.57.23-1.5.23-.25,0-.26,0-.33-.25a1.6,1.6,0,0,0-.26-.59,11.87,11.87,0,0,0,1.22.06c.28,0,.46-.12.46-.48V7.17H31.63c-1.27,0-1.7,0-1.77,0s-.1,0-.1-.11V6.56c0-.09,0-.09.1-.09h4.71v0a7,7,0,0,0-.09-1.38,5.53,5.53,0,0,1,.83.09c.1,0,.17.06.17.1a.42.42,0,0,1-.08.22,3,3,0,0,0-.07.93v.06h1.56c.1,0,.11,0,.11.09Zm-5.73.84c.1-.07.13-.08.2,0a7.31,7.31,0,0,1,1.29,1.58c.05.07,0,.11-.06.19l-.36.23c-.13.1-.16.12-.22,0a7.45,7.45,0,0,0-1.24-1.62c-.08-.08-.06-.12.07-.2Z"/><path class="cls-1" d="M43.56,3.23c0,.81,0,1.13,0,1.2s0,.1-.1.1-.39,0-1.3,0H39.88V8.86c0,1.86,0,2.63,0,2.71s0,.1-.1.1H39.2c-.1,0-.11,0-.11-.1s0-.85,0-2.71V3.36c0-1.86,0-2.65,0-2.73s0-.1.11-.1.5,0,1.46,0h1.53c.91,0,1.23,0,1.3,0s.1,0,.1.1,0,.4,0,1.2Zm-.74-2H39.88v1h2.94Zm0,1.64H39.88v1h2.94Zm3.59,5.36c0,1.87,0,2.18,0,2.25s0,.1-.11.1H45.8c-.09,0-.1,0-.1-.1V9.89H42.76v.68c0,.1,0,.11-.11.11h-.53c-.09,0-.1,0-.1-.11s0-.38,0-2.29V7.19c0-1.1,0-1.44,0-1.51s0-.11.1-.11.38,0,1.35,0H45c1,0,1.27,0,1.35,0s.11,0,.11.11,0,.4,0,1.31Zm-.71-2H42.76V7.41H45.7Zm0,1.8H42.76V9.27H45.7Zm3.77.37c0,.69,0,1.37,0,1.86s-.09.8-.33,1-.59.26-1.63.26c-.23,0-.23,0-.3-.25a2,2,0,0,0-.23-.57,8.17,8.17,0,0,0,1,.05c.57,0,.69-.1.69-.62V4.51H46.33c-1,0-1.34,0-1.4,0s-.12,0-.12-.1,0-.31,0-1.12V1.75c0-.79,0-1,0-1.12s0-.1.12-.1.39,0,1.4,0H48c1,0,1.34,0,1.41,0s.1,0,.1.1,0,.6,0,1.86Zm-.77-7.2H45.58v1H48.7Zm0,1.64H45.58v1H48.7Z"/><path class="cls-1" d="M53.34,5.36H51.92V4h1.42Zm0,5.23H51.92V9.17h1.42Z"/><path class="cls-1" d="M56.51,9a1.26,1.26,0,0,0,1.21.9c1.26,0,2-1,2.08-4a2.27,2.27,0,0,1-2.08,1.32c-1.4,0-2.5-1.17-2.5-3S56.34,1,57.92,1c1.75,0,2.91,1.36,2.91,4.43,0,3.76-1.15,5.32-3.11,5.32a2.25,2.25,0,0,1-2.25-1.29ZM58,1.88c-1,0-1.64.9-1.64,2.35S57,6.35,57.9,6.35A2,2,0,0,0,59.75,5C59.72,3,59.11,1.88,58,1.88Z"/><path class="cls-1" d="M64.23,5.36H62.82V4h1.41Zm0,5.23H62.82V9.17h1.41Z"/><path class="cls-1" d="M71.83,5.83c0,3.45-1,4.93-2.86,4.93s-2.85-1.46-2.85-4.9S67.17,1,69,1,71.83,2.4,71.83,5.83Zm-4.61,0c0,2.91.57,4,1.75,4s1.75-1.1,1.75-4S70.16,1.91,69,1.91,67.22,2.92,67.22,5.85Z"/><path class="cls-1" d="M79,5.83c0,3.45-1,4.93-2.86,4.93s-2.85-1.46-2.85-4.9S74.39,1,76.21,1,79,2.4,79,5.83Zm-4.6,0c0,2.91.57,4,1.74,4s1.76-1.1,1.76-4-.56-3.94-1.73-3.94S74.44,2.92,74.44,5.85Z"/><path class="cls-1" d="M80.63,6.37a4.1,4.1,0,0,1,3.05-1.71,5.45,5.45,0,0,1,2.61.82,5.68,5.68,0,0,0,2.75,1,3.39,3.39,0,0,0,2.51-1.32l.41.36a4,4,0,0,1-3.08,1.76,5.22,5.22,0,0,1-2.61-.85,5.54,5.54,0,0,0-2.74-1A3.51,3.51,0,0,0,81,6.72Z"/><path class="cls-1" d="M97.1,9.72h1.77v.87h-4.7V9.72h1.89V2.21a9.41,9.41,0,0,1-1.88.93l-.18-1a8.51,8.51,0,0,0,2.21-1.12h.89Z"/><path class="cls-1" d="M106.55,8.17c0,1.61-1.18,2.59-2.94,2.59s-2.93-.95-2.93-2.55c0-1.12.62-1.81,2-2.47C101.41,5.11,101,4.39,101,3.35a2.71,2.71,0,0,1,5.36,0c0,1-.5,1.69-1.78,2.25C106,6.25,106.55,7,106.55,8.17Zm-3.08-2c-1.25.58-1.75,1.17-1.75,2a1.71,1.71,0,0,0,1.89,1.75,1.67,1.67,0,0,0,1.9-1.71c0-.83-.4-1.38-1.77-2Zm.31-.93c1.17-.5,1.51-1.05,1.51-1.85a1.51,1.51,0,0,0-1.68-1.48A1.48,1.48,0,0,0,102,3.35c0,.73.35,1.2,1.55,1.73Z"/><path class="cls-1" d="M109.77,5.36h-1.42V4h1.42Zm0,5.23h-1.42V9.17h1.42Z"/><path class="cls-1" d="M117.36,5.83c0,3.45-1,4.93-2.86,4.93s-2.84-1.46-2.84-4.9,1-4.85,2.87-4.85S117.36,2.4,117.36,5.83Zm-4.6,0c0,2.91.57,4,1.74,4s1.76-1.1,1.76-4-.56-3.94-1.73-3.94S112.76,2.92,112.76,5.85Z"/><path class="cls-1" d="M124.58,5.83c0,3.45-1,4.93-2.86,4.93s-2.85-1.46-2.85-4.9,1-4.85,2.87-4.85S124.58,2.4,124.58,5.83Zm-4.6,0c0,2.91.57,4,1.74,4s1.75-1.1,1.75-4-.56-3.94-1.73-3.94S120,2.92,120,5.85Z"/><path class="cls-1" d="M4.73,18.93a7.18,7.18,0,0,0-2.88,5.95,7.18,7.18,0,0,0,2.88,6l-.32.38C2,29.33,1,27.42,1,24.88s1-4.44,3.41-6.33Z"/><path class="cls-1" d="M12.22,29.34a19.26,19.26,0,0,0,2.94.17c.65,0,1.39,0,2.16-.06a2.32,2.32,0,0,0-.19.54c-.05.26-.05.28-.31.29l-1.22,0c-5.13,0-6-.84-6.82-2.51a6.49,6.49,0,0,1-1.92,2.61c-.09.08-.14.13-.18.13s-.09-.05-.18-.16A1.34,1.34,0,0,0,6.06,30a6.16,6.16,0,0,0,2.51-4.52,3.77,3.77,0,0,0,0-.73c.3,0,.53.09.75.14s.2.08.2.15a.5.5,0,0,1-.1.21.81.81,0,0,0-.13.32,9.72,9.72,0,0,1-.28,1.33,3.26,3.26,0,0,0,2.39,2.23V23.65H10c-1.3,0-1.72,0-1.78,0s-.12,0-.12-.11V23c0-.09,0-.11.12-.11s.48,0,1.78,0h3.61c1.29,0,1.72,0,1.78,0s.11,0,.11.11v.54c0,.09,0,.11-.11.11s-.49,0-1.78,0H12.22v2.18h1.94c.92,0,1.19,0,1.27,0s.11,0,.11.1v.55c0,.09,0,.1-.11.1s-.35,0-1.27,0H12.22Zm4.84-7.63c0,1.11,0,1.26,0,1.34s0,.11-.1.11h-.6c-.09,0-.1,0-.1-.11V21.26H7.41v1.79c0,.09,0,.11-.1.11h-.6c-.09,0-.11,0-.11-.11s0-.23,0-1.34v-.4c0-.43,0-.61,0-.69s0-.09.11-.09.51,0,1.79,0h2.81v-.19a5.44,5.44,0,0,0-.09-1.32,6.21,6.21,0,0,1,.84.06c.11,0,.16.05.16.11a.53.53,0,0,1-.08.23,3.27,3.27,0,0,0-.05.92v.19h3.08c1.29,0,1.73,0,1.81,0s.1,0,.1.09,0,.26,0,.6Z"/><path class="cls-1" d="M20.46,25.34c0-.48,0-1.21,0-1.83a16.47,16.47,0,0,1-1.17,1.58c-.07.08-.12.13-.17.13s-.08,0-.13-.14a1.51,1.51,0,0,0-.34-.48,13,13,0,0,0,2.69-4.66,4.25,4.25,0,0,0,.2-.87,7.24,7.24,0,0,1,.8.29c.12.05.13.08.13.14a.21.21,0,0,1-.1.17,1.47,1.47,0,0,0-.26.51,19,19,0,0,1-.9,2v6.44c0,1.38,0,2,0,2s0,.1-.11.1h-.62c-.09,0-.1,0-.1-.1s0-.65,0-2ZM26.81,23a12.36,12.36,0,0,0,4,5,1.64,1.64,0,0,0-.39.5c-.07.11-.11.16-.15.16s-.1,0-.18-.11a12.23,12.23,0,0,1-3.64-5c0,3.93.11,6.83.11,7s0,.1-.11.1h-.64c-.09,0-.1,0-.1-.1s.05-3.11.09-7a10.88,10.88,0,0,1-3.38,5c-.08.07-.13.11-.17.11s-.09-.05-.15-.15a1.59,1.59,0,0,0-.42-.44A11.32,11.32,0,0,0,25.44,23H24.21c-1.33,0-1.76,0-1.82,0s-.11,0-.11-.1v-.57c0-.1,0-.11.11-.11s.49,0,1.82,0h1.56V20.82a8.71,8.71,0,0,0-.09-1.58c.31,0,.62,0,.85.07s.17.06.17.11a.66.66,0,0,1-.07.25,3.25,3.25,0,0,0-.08,1.13v1.5H28.6c1.31,0,1.76,0,1.83,0s.09,0,.09.11V23c0,.09,0,.1-.09.1s-.52,0-1.83,0Z"/><path class="cls-1" d="M41.6,25.77c0,3.72,0,4.37,0,4.43s0,.11-.11.11H40.9c-.09,0-.11,0-.11-.11v-.79h-6v.82c0,.09,0,.1-.1.1h-.63c-.09,0-.11,0-.11-.1s0-.73,0-4.46V23.26c0-2.52,0-3.2,0-3.28s0-.1.11-.1.52,0,1.8,0h3.87c1.28,0,1.72,0,1.8,0s.11,0,.11.1,0,.76,0,3Zm-.81-5.12h-6v3.52h6Zm0,4.25h-6v3.77h6Z"/><path class="cls-1" d="M48.45,22.27a.91.91,0,1,1-.91-.91A.89.89,0,0,1,48.45,22.27Zm0,5.27a.91.91,0,0,1-1.82,0,.91.91,0,0,1,1.82,0Z"/><path class="cls-1" d="M55.2,22.71a.54.54,0,0,0,.25,0,.28.28,0,0,1,.13,0c.07,0,.16,0,.35.23s.26.3.26.38,0,.11-.11.17a.72.72,0,0,0-.23.39A10.8,10.8,0,0,1,52.13,29c-.09.08-.14.12-.18.12s-.11-.06-.18-.17a1.42,1.42,0,0,0-.43-.42,9.61,9.61,0,0,0,3.79-5.11H53.27c-1,0-1.26,0-1.32,0s-.11,0-.11-.11v-.58c0-.08,0-.09.11-.09s.36,0,1.32,0Zm2.49-1.48a10.74,10.74,0,0,0,1.25,3.11A14.81,14.81,0,0,0,61,22.22a2.32,2.32,0,0,0,.36-.62,3.74,3.74,0,0,1,.7.48c.09.06.12.11.12.18s-.07.12-.16.17a3,3,0,0,0-.59.54,23.27,23.27,0,0,1-2.11,2,10.56,10.56,0,0,0,3.91,3.5,1.86,1.86,0,0,0-.45.5c-.08.12-.11.17-.17.17s-.09,0-.2-.09a11,11,0,0,1-4.78-6.19c0,2.27.1,4.93.1,6.56a1,1,0,0,1-.46.92,3.29,3.29,0,0,1-1.62.22c-.26,0-.26,0-.33-.26a2,2,0,0,0-.28-.6c.33,0,.77,0,1.12,0,.53,0,.74-.12.74-.48V20.63a6.58,6.58,0,0,0-.09-1.43l.87.07c.11,0,.17.06.17.12a.84.84,0,0,1-.08.27,3.24,3.24,0,0,0-.08,1Z"/><path class="cls-1" d="M76.05,30c0,.09,0,.1-.1.1s-.47,0-1.68,0H69.94v.57c0,.09,0,.1-.1.1H69.3c-.09,0-.1,0-.1-.1s0-.31,0-1.16V27.15c0-.37,0-.91,0-1.39-.2.26-.42.53-.66.8-.08.09-.12.13-.16.13s-.09-.05-.17-.13a3.38,3.38,0,0,0-.36-.25c0,2.1,0,2.54,0,2.6s0,.11-.1.11h-.53c-.1,0-.11,0-.11-.11v-.64H65.66v1.07c0,.1,0,.11-.11.11H65c-.09,0-.11,0-.11-.11s0-.66,0-4.09V22.86c0-2.38,0-3,0-3.08s0-.11.11-.11.28,0,1,0h.82c.69,0,.9,0,1,0s.1,0,.1.11,0,.65,0,2.67v3.84a6.81,6.81,0,0,0,1.63-2,3.21,3.21,0,0,0,.3-.89c.25.07.48.15.67.22s.13.08.13.13-.06.11-.12.16a2.18,2.18,0,0,0-.38.56.89.89,0,0,1-.09.16h2.13a3.88,3.88,0,0,0,.25-.51,2.34,2.34,0,0,0,.17-.68,6.51,6.51,0,0,1,.65.2c.08,0,.14.08.14.13s0,.1-.1.15a.64.64,0,0,0-.16.2c-.1.18-.18.36-.27.51H74.1c1.16,0,1.53,0,1.6,0s.12,0,.12.1v.43c0,.09,0,.11-.12.11s-.44,0-1.6,0H72.84v1h.74c1.25,0,1.66,0,1.73,0s.1,0,.1.1v.43c0,.09,0,.11-.1.11s-.48,0-1.73,0h-.74v1h.71c1.25,0,1.66,0,1.73,0s.11,0,.11.11v.43c0,.09,0,.1-.11.1s-.48,0-1.73,0h-.71v1.12h1.43c1.21,0,1.6,0,1.68,0s.1,0,.1.09ZM67.17,20.4H65.66v3.12h1.51Zm0,3.79H65.66v3.39h1.51ZM71.85,22c0,.75,0,1.05,0,1.12s0,.1-.11.1-.35,0-1.13,0H69.52c-.65,0-.79,0-.87,0s-.09,0-.09-.1v-.45c0-.09,0-.1.09-.1s.22,0,.87,0h1.66v-.94H69.8c-.7,0-.87,0-.94,0s-.1,0-.1-.12v-.42c0-.09,0-.1.1-.1s.24,0,.94,0h1.38v-.91H69.73c-.78,0-1,0-1.08,0s-.09,0-.09-.1v-.44c0-.1,0-.11.09-.11s.3,0,1.08,0h.91c.78,0,1.07,0,1.13,0s.11,0,.11.11,0,.37,0,1.13Zm.29,3.17h-2.2v1h2.2Zm0,1.6h-2.2v1h2.2Zm0,1.62h-2.2v1.12h2.2ZM75.63,22c0,.76,0,1.06,0,1.13s0,.1-.1.1-.35,0-1.13,0H73.35a8.34,8.34,0,0,0-.84,0c-.1,0-.11,0-.11-.1v-.45c0-.09,0-.1.11-.1a8.34,8.34,0,0,0,.84,0H75v-.94H73.62c-.69,0-.85,0-.92,0s-.11,0-.11-.12v-.42c0-.09,0-.1.11-.1s.23,0,.92,0H75v-.91H73.57c-.8,0-1,0-1.06,0s-.11,0-.11-.1v-.44c0-.1,0-.11.11-.11s.26,0,1.06,0h.86c.78,0,1,0,1.13,0s.1,0,.1.11,0,.37,0,1.13Z"/><path class="cls-1" d="M87.1,25.77c0,3.72,0,4.37,0,4.43s0,.11-.11.11H86.4c-.09,0-.11,0-.11-.11v-.79h-6v.82c0,.09,0,.1-.1.1h-.63c-.09,0-.11,0-.11-.1s0-.73,0-4.46V23.26c0-2.52,0-3.2,0-3.28s0-.1.11-.1.52,0,1.8,0h3.86c1.29,0,1.73,0,1.81,0s.11,0,.11.1,0,.76,0,3Zm-.81-5.12h-6v3.52h6Zm0,4.25h-6v3.77h6Z"/><path class="cls-1" d="M94.12,24.88A1.08,1.08,0,0,1,93,26a1.08,1.08,0,1,1,0-2.15A1.07,1.07,0,0,1,94.12,24.88Z"/><path class="cls-1" d="M100.57,21.27a.46.46,0,0,0,.26-.05.35.35,0,0,1,.12,0c.07,0,.15,0,.33.22s.21.25.21.3a.23.23,0,0,1-.13.2.76.76,0,0,0-.25.36,14.07,14.07,0,0,1-1.19,2.06A6.9,6.9,0,0,0,101.74,26a2.09,2.09,0,0,0-.41.48c0,.08-.07.12-.11.12s-.09,0-.17-.11A7.4,7.4,0,0,1,99.71,25V29c0,1,0,1.64,0,1.7s0,.1-.11.1H99c-.09,0-.1,0-.1-.1S99,30,99,29V25.51A16.6,16.6,0,0,1,97.34,27a.31.31,0,0,1-.19.1c-.05,0-.08,0-.12-.13a2,2,0,0,0-.31-.53A10.52,10.52,0,0,0,100.44,22H98.61c-1,0-1.24,0-1.32,0s-.1,0-.1-.11v-.53c0-.09,0-.11.1-.11s.37,0,1.32,0H99v-.75a6.19,6.19,0,0,0-.11-1.47,5.67,5.67,0,0,1,.86.09c.09,0,.16.05.16.1a.53.53,0,0,1-.08.25,2.64,2.64,0,0,0-.08,1v.78Zm5.63,7.67c0,.39,0,.51.14.59a1.37,1.37,0,0,0,.7.11c.55,0,.73,0,.83-.19s.2-.51.21-1.51a1.76,1.76,0,0,0,.51.26c.23.08.23.09.22.31,0,1-.18,1.3-.45,1.55a1.94,1.94,0,0,1-1.34.31c-.81,0-1.1-.08-1.25-.19s-.35-.36-.35-1V24.72h-1.24c0,3.09-.69,4.64-2.91,5.78a.42.42,0,0,1-.18.07c-.07,0-.11-.06-.2-.16a1.51,1.51,0,0,0-.45-.39c2.26-1,3-2.25,3-5.3l-1.22,0c-.09,0-.1,0-.1-.1s0-.39,0-1.28v-2c0-.89,0-1.2,0-1.28s0-.1.1-.1.47,0,1.6,0h2.34c1.13,0,1.52,0,1.6,0s.1,0,.1.1,0,.39,0,1.28v2c0,.89,0,1.21,0,1.28s0,.1-.1.1-.46,0-1.52,0ZM107,20.7h-4.17V24H107Z"/><path class="cls-1" d="M119.6,25.77c0,3.72,0,4.37,0,4.43s0,.11-.11.11h-.62c-.09,0-.11,0-.11-.11v-.79h-6v.82c0,.09,0,.1-.1.1h-.63c-.09,0-.11,0-.11-.1s0-.73,0-4.46V23.26c0-2.52,0-3.2,0-3.28s0-.1.11-.1.52,0,1.8,0h3.86c1.29,0,1.73,0,1.81,0s.11,0,.11.1,0,.76,0,3Zm-.81-5.12h-6v3.52h6Zm0,4.25h-6v3.77h6Z"/><path class="cls-1" d="M123.2,18.55c2.46,1.89,3.41,3.8,3.41,6.33s-1,4.45-3.41,6.34l-.32-.38a7.18,7.18,0,0,0,2.88-6,7.18,7.18,0,0,0-2.88-5.95Z"/></g></g></svg>