<svg xmlns="http://www.w3.org/2000/svg" viewBox="0 0 284.5 286.09"><defs><style>.cls-1{opacity:0.4;}.cls-2{fill:#b18021;}</style></defs><title>i-title3</title><g id="Layer_2" data-name="Layer 2"><g id="SVG"><g class="cls-1"><path class="cls-2" d="M63.33,121.4V83.83H16.79V81.12h96.92v2.71H66.18V121.4h59.35v2.7H3.84v-2.7ZM48.53,26.47C46,48.1,37.57,60.91,7,68.31L5.12,65.89c30.17-6.68,38.29-19.35,40.56-39.56ZM80,54.22c0,5,2,6.12,9,6.27,6.69.14,19.78.14,27.32,0,8.4-.29,9-.86,9.26-11.67l2.84.85c-.85,12.24-1.85,13.24-11.53,13.38-8.25.14-21.2.14-28.32,0-8.68-.14-11.38-1.85-11.38-8.83v-33H9.82V41.56H7V18.5H63.33V0h2.85V18.5h56.5V41.56h-3V21.21H80Z"/><path class="cls-2" d="M164.81,5h44V48h-44v80H162V5h2.85Zm41,19.78V7.69h-41V24.76Zm-41,2.71V45.26h41V27.47Zm79.55,36.29v45.83H191.85V63.76ZM194.69,85h46.68V66.46H194.69Zm0,21.92h46.68V87.67H194.69ZM273.82,5h1.28V118c0,5.27-1.42,9-7.4,9.68-3.84.57-13.66.29-21.49,0v-2.85c7,.43,16.65.43,19.64.29,5.27-.43,6.41-3,6.41-7.4V48H226.57V5h47.25Zm-1.56,19.78V7.69h-42.7V24.76Zm-42.7,2.71V45.26h42.7V27.47Z"/><path class="cls-2" d="M25.33,231v47.11c0,4.13-1,6.83-5.41,7.54A97.77,97.77,0,0,1,5,285.8V283c4.56.14,11,.28,13.09.14,3.7-.29,4.42-2.14,4.42-5.12V232.15c-7.83,3.13-15.94,6.12-21.35,8.25L0,237.7c5.55-2,14.09-5.27,22.49-8.54V191H1v-2.71H22.49V158h2.84v30.31h15.8V191H25.33v37.14c4.56-1.85,8.83-3.55,12.53-5.12l.42,2.7C34.44,227.31,30,229.16,25.33,231Zm30,22.49c7.12,13.8,16.08,21.2,26.76,24.62V224.75H42.55V222h85.54v2.71H85v23.48h34.59v2.7H85v28a58.81,58.81,0,0,0,15.23,1.85c4.27,0,25.19,0,29.32-.14l-.14,2.85c-4.27.14-25.05.28-29.46.14-19.22-.29-34.3-6.55-45.83-26.62C49.67,268.3,43,279,32,286.09l-2.27-2c18.78-11.95,25.33-35.57,27.75-52.94l3.13.29A137.69,137.69,0,0,1,55.36,253.5Zm-3.7-48.39v-43h65.9v43Zm62.91-40.28H54.51v17.08h60.06Zm0,19.93H54.51V202.4h60.06Z"/><path class="cls-2" d="M284.5,279.54l-2.28,2.56c-22.91-6.4-48.67-19.07-62.48-36h-.42v39.7h-2.85V246.1h-.14c-13.81,16.36-39.43,29.46-61.34,36.43l-2.28-2.42c21.21-6.4,46.25-18.93,60.06-34H154.56v-2.71h61.91V228h2.85v15.37h63v2.71H223.44C237.1,261.75,262.15,273.85,284.5,279.54Zm-10.25-47.11-2.42,2.14a485.68,485.68,0,0,0-47.68-16.08c-13.23,7.25-32.87,12.66-62.05,16.36l-1.42-2.56c27.89-3.13,46.82-8.11,59.92-14.94-10.82-3-22.35-6-34.45-8.83-1.42,1.71-3,3.42-4.27,4.84l-2.56-1c4.56-4.84,10.54-11.67,16.23-18.65H157.12V191h40.71c4.69-5.69,9.1-11.53,12.52-16.23l3,.72c-3.42,4.55-7.69,10-12.24,15.51h78.7v2.7H247.21a48,48,0,0,1-20.07,22.92C244.79,221.76,260.59,227,274.25,232.43ZM216.47,170V158h2.85v12h55.07V186h-2.84V172.66h-106V186h-2.85V170Zm7.4,45.68c10.39-6.12,16.51-13.52,20.21-21.92H199c-3.7,4.41-7.4,8.83-10.81,12.67C200.67,209.38,212.63,212.51,223.87,215.64Z"/></g></g></g></svg>