<svg xmlns="http://www.w3.org/2000/svg" viewBox="0 0 377 70.04"><defs><style>.cls-1{fill:#ac7e24;}</style></defs><title>sp-advance3</title><g id="Layer_2" data-name="Layer 2"><g id="SVG"><path class="cls-1" d="M70.26,16.65C58.63,32.74,48.64,50.35,49.78,62.14c.22,2.19,1.14,3,2.43,2.89,2.45-.24,6.59-3.77,10.42-8.49,2.5-3.11,5.55-7.76,6.85-9.77L70,47a82.51,82.51,0,0,1-7.42,10.67c-4,4.8-8,8.51-12.32,8.93S44.52,64.21,44.21,61c-.51-5.21,1-10.3,2.91-14.91l-9,.88c-6.21,9-15.56,21.86-27.35,23C5.66,70.46.54,68.62,0,63.34-.21,60.89,1,58.24,3.67,58A3,3,0,0,1,7,60.45c.23,2.32-1.16,3.43-3.42,3.64C4,67.77,7.91,69.46,11,69.16,22.53,68,32.2,53.84,38.39,45.3c8.38-11.47,18.26-23.49,31.38-29ZM47.43,45.27A97.17,97.17,0,0,1,63.37,20.64l-.14-.12c-9.6,6.27-17,15.31-24.5,25.6Z"/><path class="cls-1" d="M101.23,16.18l7.18-1.09C101.27,29.89,86.3,55.8,86.78,60.75c.08.91.6,1.51,1.5,1.42,1.8-.18,4.92-2.24,8.4-6.6a112.26,112.26,0,0,0,8.26-12l.67.26a122,122,0,0,1-7.73,11.41c-3.71,4.66-7,7.84-11.29,8.25-3.93.39-5.24-2.41-5-4.71l-.14-.12c-2.37,3-5.26,5.46-9.38,5.86s-5.91-2.61-6.25-6.09C65,49.81,73.94,39.77,82.32,39a5.78,5.78,0,0,1,6.19,3.56ZM86.35,43c-.24-2.51-1.77-3.47-3.76-3.27-5.35.52-11.17,12.2-10.55,18.58.2,2.06,1.22,3.91,3.54,3.68C81.12,61.43,86.91,48.78,86.35,43Z"/><path class="cls-1" d="M113.66,36.68c-2.53,4.74-9.72,15.77-9.21,21,.18,1.87,1.06,2.82,3.18,2.62,6.51-.64,12.5-12.6,12-19.5a6.34,6.34,0,0,1-.76-2.46,2.92,2.92,0,0,1,2.69-3.19c2.12-.21,3.53,1.54,3.76,5.29a19.81,19.81,0,0,1,0,3,7.51,7.51,0,0,0,5.27,1.38c3-.29,4.83-2.42,6.06-4.49l.55.27a8.55,8.55,0,0,1-6.67,5,9.11,9.11,0,0,1-5.32-1.3c-1.28,8.32-8.86,15.88-17.62,16.73-4.19.41-7.57-1-8-5.59-.43-4.38,2.27-8.67,7.1-17.85Z"/><path class="cls-1" d="M154.89,33.33l6.66-1c-1.93,4.8-10,17.09-9.53,21.67a1.44,1.44,0,0,0,1.77,1.45c2.06-.2,5.6-3.21,9.09-7.52a118.72,118.72,0,0,0,7.59-10.81l.48.21A106.53,106.53,0,0,1,162.85,49c-3.65,4.52-7.43,7.81-11.36,8.19-2.7.27-4.47-1.19-4.67-3.25a4.08,4.08,0,0,1,.09-1.7h-.12c-2.36,3.22-5.6,5.94-9.4,6.31-4.19.41-6.07-2.85-6.42-6.46-.81-8.37,8.52-18.71,16.51-19.48,3-.29,4.7.84,6.05,3.44ZM140.85,56c5.43-.92,11.26-14.49,10.8-19.32-.23-2.32-1.07-3.61-3.52-3.37-5.92.58-11.46,13.15-11,18.36C137.41,54.14,138.2,56.27,140.85,56Z"/><path class="cls-1" d="M172.34,42.94c2.15-3.33,8.3-13.55,15-14.2a4,4,0,0,1,4.72,3.7c.56,5.8-7.67,13.43-7.2,18.19a1.55,1.55,0,0,0,1.84,1.58c1.22-.12,3.78-1.86,8-7.35,3.29-4.28,6.23-8.79,7.59-10.81l.68.26c-2,2.86-5,7.5-8.29,11.73-4.05,5.14-6.58,7.2-9.93,7.53s-5-1.66-5.2-4C179,43.79,187.2,36,186.81,32a1.63,1.63,0,0,0-2-1.44c-5.09.5-15.1,17.21-17.7,23.89l-6.49.83c3.78-8,7.76-15.84,11.45-24l7.32-1L172.2,42.83Z"/><path class="cls-1" d="M198.83,29.83l.34-1.2,5-.48,4-8.59,6.93-.93-4.53,8.89,8.18-.79-.47,1.21-8.31.81c-6.49,13.5-8.75,17.63-8.51,20.14a1.71,1.71,0,0,0,1.92,1.7c2.13-.21,5.7-2.9,9.32-7.15a102.1,102.1,0,0,0,8.07-11.32l.42.29a99.75,99.75,0,0,1-7.71,11c-3.61,4.38-7.79,8.1-11.72,8.49-2.71.26-5.26-.6-5.56-3.69-.44-4.44,3.17-9.48,7.46-18.87Z"/><path class="cls-1" d="M239,25.15l6.66-1c-1.93,4.81-10,17.1-9.53,21.67a1.43,1.43,0,0,0,1.77,1.45c2.06-.2,5.6-3.21,9.09-7.51a120.06,120.06,0,0,0,7.59-10.82l.48.22a106.53,106.53,0,0,1-8.1,11.71c-3.65,4.51-7.43,7.8-11.36,8.19-2.7.26-4.47-1.19-4.67-3.25a4.07,4.07,0,0,1,.09-1.7h-.13c-2.35,3.22-5.59,5.94-9.39,6.31-4.19.41-6.07-2.86-6.42-6.46-.81-8.38,8.52-18.71,16.51-19.49,3-.29,4.69.84,6.05,3.44ZM224.92,47.84c5.44-.92,11.27-14.49,10.8-19.32-.22-2.32-1.06-3.6-3.51-3.36-5.92.57-11.46,13.14-11,18.36C221.49,46,222.28,48.1,224.92,47.84Z"/><path class="cls-1" d="M240,52.75c-4.51.5-6.57,3.3-6.16,7.55a7,7,0,0,0,7.91,6.51c12.11-1.17,18.72-18.14,23.81-27.34l-.14-.12c-2.46,3.49-6,7-10.6,7.4-3.48.34-5.69-2.37-6-5.59-.82-8.44,7.69-19.15,16.2-20,3.22-.31,5.12.55,6.46,3.6l1.21-2.91,6.53-1c-3.87,8.31-7.39,17-11.58,25.38,9.33-3.7,15.51-12.37,20.56-20.66l.4.16c-4.92,8.86-11.93,17.74-21.38,21.45-5.15,11.3-13.86,19.3-26.16,20.49-6.32.61-12.06-1-12.66-7.15-.46-4.71,3.66-7.77,8-8.19.77-.08,2.73,0,3.57,0Zm18.86-8.6c5.41-.53,10.95-13.74,10.48-18.64-.18-1.8-.71-3.9-3-3.67C260,22.45,254.43,34.38,255,40,255.22,42.55,256,44.43,258.89,44.15Z"/><path class="cls-1" d="M315.32,23.19A72.8,72.8,0,0,1,306.65,35c-5.4,5.92-10.78,8.13-15.55,8.6s-8.23-2.45-8.68-7.09c-.8-8.24,9.5-18,17.55-18.74,3.67-.36,6,.91,6.26,3.49.6,6.24-13.17,10.31-17.59,11.72a9.79,9.79,0,0,0-.1,2.35c.36,3.67,2.8,6,6.47,5.68s7.9-3.05,11.88-7.53a91.44,91.44,0,0,0,7.93-10.72ZM299,18.66c-4.31.42-9.63,9.26-10.3,13.68,6.88-2.1,12.61-8,12.21-12.17A1.56,1.56,0,0,0,299,18.66Z"/><path class="cls-1" d="M355.67,18.22c6.67-.91,16.34-3.15,15.51-11.71a5.5,5.5,0,1,0-10.95,1.06,3.32,3.32,0,0,0,3.55,3.1,3.44,3.44,0,0,0,2.3-1.07,5.91,5.91,0,0,1-5.21,4.61c-2.9.28-4.71-1.63-5-4.39-.35-3.61,3-8.94,11.22-9.74,4.57-.45,9.39,1,9.85,5.74.74,7.6-8.91,10-14.47,11.61v.13c4.24-.48,9.35.52,9.84,5.61.92,9.47-9.83,13.24-16.33,13.88-7.28.7-13.19-1.26-13.8-7.5A6.39,6.39,0,0,1,348,22.41c2.32-.22,4.1.78,5.86,2.16l-.21.48a7.3,7.3,0,0,0-2-.13c-3,.29-4.19,3.07-3.93,5.71.38,4,4,6,8.15,5.64,6.83-.66,10.77-7,10.21-12.69-.42-4.32-3.33-5.53-7.52-5.12a14.45,14.45,0,0,0-3.06.62Z"/></g></g></svg>