<svg xmlns="http://www.w3.org/2000/svg" viewBox="0 0 518.65 171.67"><defs><style>.cls-1{fill:#ac7e24;}.cls-2{opacity:0.4;}</style></defs><title>sp-title2</title><g id="Layer_2" data-name="Layer 2"><g id="SVG"><rect class="cls-1" x="158.17" y="158.08" width="197.23" height="4.65"/><polygon class="cls-1" points="256.78 171.67 265.43 159.26 248.13 159.26 256.78 171.67"/><g class="cls-2"><path class="cls-1" d="M2.57,109.57v6.3H0V18.26H33.31A125.43,125.43,0,0,0,41.54,0l2.57.77A182,182,0,0,1,36,18.26h47.2v97.61H80.63v-6.3ZM80.63,47.33V20.71H2.57V47.33Zm0,29.7V49.77H2.57V77Zm0,30.1V79.48H2.57v27.65Z"/><path class="cls-1" d="M134.39,109.18v6.56h-2.57V27.26h46.55V.13h2.57V27.26H229.3v88.48h-2.7v-6.56Zm44-43.72V29.71h-44V65.46Zm0,41.28V67.9h-44v38.84ZM226.6,65.46V29.71H180.94V65.46Zm0,41.28V67.9H180.94v38.84Z"/><path class="cls-1" d="M310.83,22.51V25H261.58V22.51ZM270.07,74.33h35v34.6h-35v6.68h-2.58V74.33h2.58ZM304.4,39.87v2.44H268.14V39.87Zm0,17.23v2.44H268.14V57.1ZM303,5.53V8H269.55V5.53Zm-.51,101V76.77H270.07v29.71Zm40.63-13.89c10.8-9.64,18.78-21.22,23-34.46H312.51V55.68h55.17l2.05.78c-4.37,14.79-13,27.52-24.56,37.93a89.29,89.29,0,0,0,32.92,18.78l-2.18,2.44A95.34,95.34,0,0,1,343,96.32a115.9,115.9,0,0,1-33.69,19.55l-2.19-2.31a114.78,114.78,0,0,0,34-19.17,89.34,89.34,0,0,1-21.35-32.92l2.57-1A86,86,0,0,0,343.11,92.59Zm14.79-89h1V37.29c0,3.61.64,4.25,3.73,4.38h9.39c3.08-.13,3.47-.52,3.6-13.76l2.31.64c-.51,14.66-1,15.69-5.53,15.82H362.15c-4.25-.13-5.79-1.67-5.79-7.08V6H324.85V23.15c0,10.54-4.89,19.67-15.82,27.52l-1.8-1.93c10.55-7.33,15-16.07,15-25.72V3.6H357.9Z"/><path class="cls-1" d="M454.23,22.51V25H403V22.51ZM411.79,74.33h36.65v34.6H411.79v6.68h-2.57V74.33h2.57Zm36.13-34.46v2.44H409.86V39.87Zm0,17.23v2.44H409.86V57.1ZM446.64,5.53V8H411.27V5.53Zm-.77,101V76.77H411.79v29.71Zm41.41-63V.13h2.57V43.47h28.8v2.44h-28.8v70h-2.57v-70h-31V43.47Z"/></g></g></g></svg>