<svg xmlns="http://www.w3.org/2000/svg" viewBox="0 0 163.18 64.19"><defs><style>.cls-1{fill:#3a3c45;}</style></defs><title>sp-texttel1</title><g id="Layer_2" data-name="Layer 2"><g id="SVG"><path class="cls-1" d="M7.1,10.46c-1.39.11-2.81.22-4.68.22-.47,0-.61-.16-.66-.58s-.2-1.45-.31-2.43a13.18,13.18,0,0,0,2.17.14c1.17,0,2.37-.11,3.54-.22,0-.92,0-2,0-3.17A10.11,10.11,0,0,0,7,2.16a15.71,15.71,0,0,1,3.32.5c.33.08.56.28.56.53a1,1,0,0,1-.17.44,3.26,3.26,0,0,0-.39,1.09c-.08.73-.11,1.42-.14,2.31a26.84,26.84,0,0,0,3.57-1c.25-.08.44,0,.47.25a14.25,14.25,0,0,1,.17,2.18c0,.28-.09.36-.36.44a27.35,27.35,0,0,1-4,1.06c0,1.34,0,2.7,0,4a17.58,17.58,0,0,1,6.85-1.53c3.45,0,5.93,2.23,5.93,5.57,0,3.57-2.28,5.66-6,5.66a10.83,10.83,0,0,1-2.29-.25.75.75,0,0,1-.61-.84A4.9,4.9,0,0,0,13,20.21a10.37,10.37,0,0,0,3.49.51,2.77,2.77,0,0,0,3-2.88C19.48,16,18.36,15,16.41,15A13.75,13.75,0,0,0,10,16.93c0,1.17.06,2.11.11,3.34s.22,3,.22,3.62c0,.39.06.81-.41.92a10.6,10.6,0,0,1-2.06.33c-.31,0-.42-.19-.67-.55a17.29,17.29,0,0,0-4-3.57,5.18,5.18,0,0,0-.89.61.72.72,0,0,1-.48.2.79.79,0,0,1-.61-.45C1,20.88.42,19.71,0,18.79a10.09,10.09,0,0,0,2.56-1c1.2-.67,2.51-1.42,4.54-2.59ZM4.51,20.05c.78.41,1.73.89,2.62,1.25.23.06.31,0,.28-.22,0-.73-.11-2-.17-2.93C6.46,18.68,5.52,19.32,4.51,20.05ZM17.83,5.42c.2-.31.28-.39.48-.34a13.38,13.38,0,0,1,5.9,3.4.46.46,0,0,1,.17.28.77.77,0,0,1-.11.28c-.36.56-1.09,1.42-1.51,2-.08.11-.47.14-.55,0a12.91,12.91,0,0,0-5.66-3.43A16.92,16.92,0,0,1,17.83,5.42Z"/><path class="cls-1" d="M40.67,17A18,18,0,0,1,43.1,19.6c.19.25.16.31-.14.5L41.4,21.22c-.17.11-.25.16-.34.16s-.14-.08-.25-.22a19.31,19.31,0,0,0-2.23-2.7c-.22-.22-.19-.28.11-.48L40.11,17h-5c-2.59,0-3.48.05-3.65.05s-.33,0-.33-.33V15c0-.27,0-.3.33-.3s1.06.05,3.65.05H46.13V13.36H35.57c-2.64,0-3.56.06-3.73.06s-.31,0-.31-.34V11.52c0-.31,0-.33.31-.33s1.09.05,3.73.05H46.13V9.85H35.49c-2.68,0-3.62.05-3.79.05s-.31,0-.31-.3V9c-.5.31-1,.65-1.53.95-.33.2-.5.31-.64.31s-.31-.2-.5-.67A5,5,0,0,0,27.6,8a18,18,0,0,0,6.83-5.82A7.29,7.29,0,0,0,35.32.43,24.48,24.48,0,0,1,38.11,1c.25.08.39.16.39.36a.53.53,0,0,1-.28.42,3.43,3.43,0,0,0-.89,1.05L37.22,3H42a1.42,1.42,0,0,0,.64-.08A1,1,0,0,1,43,2.85c.22,0,.5.14,1.17.67s.84.76.84,1-.17.42-.45.56a3.29,3.29,0,0,0-.86.86c-.45.56-.92,1.11-1.45,1.67h1.89c2.9,0,4.32,0,4.49,0s.33,0,.33.3,0,1,0,2.71V14c0,1.75,0,2.56,0,2.73s0,.33-.33.33S47.08,17,44.18,17Zm-8.19,2.09c.28.11.33.19.25.47A17.16,17.16,0,0,1,30.25,25c-.17.22-.22.22-.53,0l-1.84-1.14c-.3-.23-.3-.37-.16-.56a12.13,12.13,0,0,0,2.42-4.68c.08-.31.14-.28.5-.14ZM38.94,7.59a24.83,24.83,0,0,0,1.82-2.25H35.49a20,20,0,0,1-2.26,2.25ZM34.26,20.24a14.78,14.78,0,0,0-.14-2.31c1,0,2,.08,2.82.17.36,0,.53.16.53.27a1.22,1.22,0,0,1-.14.48,2.61,2.61,0,0,0-.2,1.22v1.79c0,.61.11.92.45,1.11a5.14,5.14,0,0,0,2.37.31c2.17,0,2.87-.09,3.48-.5.45-.28.72-1.15.78-2.57a8.67,8.67,0,0,0,2,.89c.73.23.73.23.62.95-.31,1.7-.78,2.51-1.56,3-1.09.64-2.48.75-5.44.75-2.36,0-3.79-.14-4.57-.58s-1-.92-1-2.43Zm14.3-2c.28-.14.39-.14.55.06a27.81,27.81,0,0,1,3.32,4.62c.11.25.06.37-.25.56l-1.76,1a.82.82,0,0,1-.33.17c-.11,0-.17-.08-.25-.25a24,24,0,0,0-3.07-4.74c-.19-.22-.16-.39.17-.56Z"/><path class="cls-1" d="M64.79,4a7,7,0,0,0-1-1.79,20.1,20.1,0,0,1,3.37-.3c.39,0,.61.22.61.5s0,.36,0,.53a4.41,4.41,0,0,0,.11.83c.19.73.28,1,.44,1.45a34.52,34.52,0,0,0,5-1.25c.25-.11.39-.09.47.14.17.53.36,1.31.47,1.86a.43.43,0,0,1-.33.51A36.93,36.93,0,0,1,69.14,7.7c.25.7.61,1.56,1,2.34a31.54,31.54,0,0,0,5.08-1.45c.27-.13.41-.08.5.17a10.65,10.65,0,0,1,.5,1.84c0,.25,0,.39-.22.5a35.82,35.82,0,0,1-4.74,1.4,20.25,20.25,0,0,0,3.68,4.79c.28.25.28.36.14.67a8.07,8.07,0,0,1-1.15,1.72c-.16.2-.27.28-.44.28a.74.74,0,0,1-.39-.16,6.75,6.75,0,0,0-1.65-.9A13.6,13.6,0,0,0,66.19,18c-2.62,0-4.16.81-4.16,2.12,0,1.81,2.37,2.4,6.64,2.4,1,0,2.06-.12,3.06-.17.28,0,.36.14.34.36a19.78,19.78,0,0,1-.56,2.54c-.09.28-.2.39-.59.41-.64.06-1.31.09-2,.09-6.41,0-9.81-1.81-9.81-5.24,0-3,2.56-4.85,6.91-4.85a12.75,12.75,0,0,1,4.79.7,26.91,26.91,0,0,1-2.31-3.29,65.89,65.89,0,0,1-7.64.84c-.3,0-.41-.12-.5-.39a15.84,15.84,0,0,1-.5-2.29,48.91,48.91,0,0,0,7.5-.69C67.08,10,66.66,9,66.3,8.23a48.77,48.77,0,0,1-6.77.67c-.34,0-.5-.11-.56-.39s-.28-1.34-.45-2.23a49.07,49.07,0,0,0,6.94-.44C65.24,5.2,65.07,4.72,64.79,4ZM75.55,1.88c.14-.11.25-.08.42.06a12.66,12.66,0,0,1,2.64,3,.28.28,0,0,1-.08.44l-1.17.87a.28.28,0,0,1-.47-.09,13.85,13.85,0,0,0-2.82-3.23ZM78,.07c.17-.11.25-.08.42,0A11.65,11.65,0,0,1,81.09,3,.33.33,0,0,1,81,3.5l-1.12.86a.28.28,0,0,1-.47-.08,13,13,0,0,0-2.79-3.21Z"/><path class="cls-1" d="M97.44,6.89C96.8,11.63,95.63,16,94,18.9c-1.2,2.09-2.65,3.21-4.74,3.21-2.45,0-4.93-2.62-4.93-7.16A10.26,10.26,0,0,1,87.44,7.7a12.18,12.18,0,0,1,9-3.56c6.69,0,10.62,4.12,10.62,9.66,0,5.19-2.93,8.45-8.58,10.15-.59.16-.84.05-1.2-.5a5.86,5.86,0,0,0-2-1.76c4.71-1.11,8.41-3.06,8.41-8.33a6.33,6.33,0,0,0-6.24-6.47Zm-8,2.71a8,8,0,0,0-2.17,5.15c0,2.57,1,4,1.9,4,.72,0,1.33-.37,2.08-1.7a31.91,31.91,0,0,0,3-10A8.4,8.4,0,0,0,89.44,9.6Z"/><path class="cls-1" d="M115,8.12c-2.48,0-3.31.06-3.51.06s-.3,0-.3-.34V5.59c0-.31,0-.34.3-.34s1,.06,3.51.06h6.83V3.5a14.84,14.84,0,0,0-.19-2.74c1,0,2.09.06,3,.14.28,0,.45.14.45.31a1.84,1.84,0,0,1-.17.59,3.93,3.93,0,0,0-.17,1.61v1.9h7.33c2.51,0,3.35-.06,3.51-.06s.28,0,.28.34V7.84c0,.31,0,.34-.28.34s-1-.06-3.51-.06h-9.64c0,1.23-.11,2.37-.22,3.43h6.82c2.35,0,3.13-.06,3.29-.06s.34.09.34.39c-.06.73-.09,1.48-.11,2.18a52.18,52.18,0,0,1-.92,8.27c-.62,2.65-1.7,3.46-4.49,3.46-.5,0-1.28,0-2.2-.06s-.78-.11-.89-1a6.06,6.06,0,0,0-.62-2.15,26.25,26.25,0,0,0,3.43.25c.92,0,1.39-.44,1.65-1.39a34.55,34.55,0,0,0,.86-7.08h-7.58c-1.06,5.16-3.43,8.42-8.16,11.23-.37.2-.53.31-.67.31s-.31-.2-.56-.62a6.11,6.11,0,0,0-1.67-1.69c6.41-3.15,8.5-7,8.55-15.47Z"/><path class="cls-1" d="M145.63,3.22c.3.16.42.33.42.55a1.49,1.49,0,0,1-.2.62,5.56,5.56,0,0,0-.5,1.53A55.27,55.27,0,0,0,144,16.06c0,1.12,0,2.4.08,3.57.56-1.28,1.14-2.48,1.73-3.87a7.4,7.4,0,0,0,1,1.75.61.61,0,0,1,.17.39.84.84,0,0,1-.17.45,16.6,16.6,0,0,0-1.42,4.23,5.73,5.73,0,0,0,0,1.48c0,.19-.08.28-.33.36a11.21,11.21,0,0,1-2.09.47c-.31.09-.42.06-.56-.33a26,26,0,0,1-1.2-8.5A60.78,60.78,0,0,1,142.26,5.5a14.05,14.05,0,0,0,.19-3.29A21.61,21.61,0,0,1,145.63,3.22Zm9.58,7.44c-1.89.05-3.84.11-5.74,0-.36,0-.47-.08-.5-.36a17.43,17.43,0,0,1-.19-2.54,39.61,39.61,0,0,0,6.35.08c0-1,0-1.89,0-2.92a11.63,11.63,0,0,0-.36-2.73,15.52,15.52,0,0,1,3.37.53c.31.08.5.22.5.47a1.07,1.07,0,0,1-.17.47,3.37,3.37,0,0,0-.22,1c-.05.95-.05,1.67-.05,2.95,1.31-.11,2.75-.3,4-.5.34-.08.39,0,.45.34a11.23,11.23,0,0,1,.17,2,.36.36,0,0,1-.31.41,31.12,31.12,0,0,1-4.29.59c0,3.12.05,5.07.19,7.46A18.09,18.09,0,0,1,163,20.52c.25.17.28.25.14.56a15.33,15.33,0,0,1-1.28,2.14c-.09.11-.17.17-.26.17a.43.43,0,0,1-.25-.14,16.71,16.71,0,0,0-3-2.23c-.23,2.34-1.82,3.62-5.1,3.62s-5-1.5-5-3.9,2.06-3.93,4.87-3.93a11.46,11.46,0,0,1,2.23.23C155.27,14.89,155.24,12.86,155.21,10.66ZM153,19.32c-1.31,0-2.09.48-2.09,1.34s.61,1.39,2.25,1.39c1.4,0,2.29-.81,2.29-1.81a3.76,3.76,0,0,0,0-.56A8,8,0,0,0,153,19.32Z"/><path class="cls-1" d="M7.1,48.45c-1.39.11-2.81.22-4.68.22-.47,0-.61-.17-.66-.59s-.2-1.44-.31-2.42a14.38,14.38,0,0,0,2.17.14c1.17,0,2.37-.11,3.54-.22,0-.92,0-2,0-3.18A10.22,10.22,0,0,0,7,40.14a15.6,15.6,0,0,1,3.32.51c.33.08.56.27.56.52a1,1,0,0,1-.17.45,3.11,3.11,0,0,0-.39,1.09c-.08.72-.11,1.42-.14,2.31a26.84,26.84,0,0,0,3.57-1c.25-.08.44,0,.47.25a14.22,14.22,0,0,1,.17,2.17c0,.28-.09.36-.36.45a30.15,30.15,0,0,1-4,1.06c0,1.34,0,2.7,0,4a17.62,17.62,0,0,1,6.85-1.54c3.45,0,5.93,2.23,5.93,5.58,0,3.56-2.28,5.65-6,5.65a10.83,10.83,0,0,1-2.29-.25.75.75,0,0,1-.61-.83A4.86,4.86,0,0,0,13,58.2a10.59,10.59,0,0,0,3.49.5,2.77,2.77,0,0,0,3-2.87C19.48,54,18.36,53,16.41,53A13.71,13.71,0,0,0,10,54.91c0,1.17.06,2.12.11,3.34s.22,3,.22,3.63c0,.39.06.8-.41.92a12.38,12.38,0,0,1-2.06.33c-.31,0-.42-.19-.67-.56a17.28,17.28,0,0,0-4-3.56,4.67,4.67,0,0,0-.89.61.7.7,0,0,1-.48.19.77.77,0,0,1-.61-.44C1,58.87.42,57.7,0,56.78a10.55,10.55,0,0,0,2.56-1c1.2-.67,2.51-1.42,4.54-2.59ZM4.51,58c.78.42,1.73.89,2.62,1.26.23.05.31,0,.28-.23,0-.72-.11-2-.17-2.92C6.46,56.67,5.52,57.31,4.51,58ZM17.83,43.4c.2-.3.28-.39.48-.33a13.19,13.19,0,0,1,5.9,3.4c.11.11.17.19.17.28a.93.93,0,0,1-.11.28c-.36.55-1.09,1.42-1.51,2-.08.12-.47.14-.55,0a12.89,12.89,0,0,0-5.66-3.42A17,17,0,0,1,17.83,43.4Z"/><path class="cls-1" d="M33.76,41.82c-2.7,0-3.62,0-3.79,0s-.33,0-.33-.31V39.75c0-.28,0-.3.33-.3s1.09,0,3.79,0H46.24c2.74,0,3.65,0,3.82,0s.31,0,.31.3v1.81c0,.28,0,.31-.31.31s-1.08,0-3.82,0h-5v1.11H48c2.56,0,3.45-.06,3.65-.06s.3,0,.3.31,0,.67,0,1.39V46c0,2.23,0,2.68,0,2.84s0,.31-.3.31H49.5c-.27,0-.3,0-.3-.31V45.05h-8v2.37c0,1.84.06,2.62.06,2.78s0,.28-.31.28H38.67c-.28,0-.31,0-.31-.28s.06-1,.06-2.78V45.05H30.7v3.81c0,.28,0,.31-.31.31H28.22c-.25,0-.28,0-.28-.31s0-.61,0-2.84V44.8c0-.95,0-1.45,0-1.62s0-.31.28-.31,1.08.06,3.65.06h6.55V41.82Zm10.87,9.27c2.81,0,4.18-.05,4.37-.05s.31,0,.31.33-.06.73-.06,2.54v3.17c0,1.62.06,2.37.06,2.54s0,.31-.31.31-1.56-.06-4.37-.06H41.09v.42c0,.75.17.86.53,1a23,23,0,0,0,3.7.17c2.43,0,3.54-.14,4.1-.58s.61-.67.7-2.82a9.46,9.46,0,0,0,2,.81c.72.19.72.22.66,1-.22,1.82-.72,2.68-1.58,3.24s-2.46.86-5.8.86a21.3,21.3,0,0,1-5.57-.44c-.87-.31-1.42-.9-1.42-2.57v-1H33.26V61c0,.28,0,.31-.31.31h-2.2c-.25,0-.28,0-.28-.31s.06-.86.06-2.56V54c0-1.67-.06-2.42-.06-2.59s0-.33.28-.33,1.54.05,4.18.05ZM35.21,46c1.12,0,1.39,0,1.56,0s.31,0,.31.25v1.11c0,.17,0,.19-.31.19s-.44,0-1.56,0H33.87c-1.11,0-1.39,0-1.56,0s-.3,0-.3-.22V46.22c0-.2,0-.22.3-.22s.45,0,1.56,0Zm0,2.45c1.12,0,1.39,0,1.56,0s.31,0,.31.25v1.06c0,.22,0,.25-.31.25s-.44,0-1.56,0H33.87c-1.11,0-1.39,0-1.56,0s-.3,0-.3-.25V48.67c0-.2,0-.22.3-.22s.45,0,1.56,0Zm3.18,6V53.1H33.26v1.39Zm0,3.37V56.42H33.26v1.44Zm2.7-4.76v1.39H46.5V53.1Zm5.41,3.32H41.09v1.44H46.5ZM45.88,46c1.2,0,1.48,0,1.65,0s.3,0,.3.25v1.09c0,.22,0,.25-.3.25s-.45-.06-1.65-.06H44.52c-1.2,0-1.48.06-1.65.06s-.3,0-.3-.28V46.16c0-.19,0-.22.3-.22s.45,0,1.65,0Zm0,2.45c1.2,0,1.48,0,1.65,0s.3,0,.3.25v1.09c0,.19,0,.22-.3.22s-.45,0-1.65,0H44.52c-1.2,0-1.48,0-1.65,0s-.3,0-.3-.22V48.61c0-.19,0-.22.3-.22s.45,0,1.65,0Z"/><path class="cls-1" d="M62.31,43.54c2.12,0,2.82,0,3,0s.31,0,.31.3v2c0,.31,0,.34-.31.34s-.86-.06-3-.06H58.5c-2.12,0-2.82.06-3,.06s-.28,0-.28-.34v-2c0-.28,0-.3.28-.3s.86,0,3,0Zm2.43,15.83c0,3.23.05,3.84.05,4s0,.31-.3.31h-2c-.28,0-.3,0-.3-.31v-.75h-3.1v1.28c0,.25,0,.28-.3.28h-2c-.3,0-.33,0-.33-.28s0-.84,0-4.21V57.84c0-1.76,0-2.43,0-2.62s0-.31.33-.31.76.06,2.54.06h2.67c1.81,0,2.37-.06,2.57-.06s.3,0,.3.31-.05.83-.05,2.14ZM62,39.73c1.78,0,2.34-.06,2.5-.06s.34,0,.34.31v1.84c0,.27,0,.3-.34.3s-.72,0-2.5,0H59.33c-1.81,0-2.37,0-2.53,0s-.31,0-.31-.3V40c0-.28,0-.31.31-.31s.72.06,2.53.06Zm-.23,7.74c1.7,0,2.18,0,2.34,0,.31,0,.34,0,.34.3v1.81c0,.28,0,.31-.34.31s-.64-.06-2.34-.06H59.42c-1.7,0-2.21.06-2.37.06s-.31,0-.31-.31V47.72c0-.28,0-.3.31-.3s.67,0,2.37,0Zm0,3.74c1.7,0,2.18-.06,2.34-.06.31,0,.34,0,.34.31v1.78c0,.28,0,.31-.34.31s-.64-.06-2.34-.06H59.42c-1.7,0-2.21.06-2.37.06s-.31,0-.31-.31V51.46c0-.28,0-.31.31-.31s.67.06,2.37.06Zm-2.73,6.07v3.06h3.1V57.28Zm10.54-7.5c-2.6,0-3.46.06-3.63.06s-.3,0-.3-.31V47.42c0-.25,0-.28.3-.28s1,0,3.63,0H71.4v-3.7c-1.26.22-2.54.42-3.85.58-.67.09-.67.06-.89-.61a5.24,5.24,0,0,0-1-1.9,39.33,39.33,0,0,0,10.55-2.11,6.35,6.35,0,0,0,1.43-.7,19.91,19.91,0,0,1,1.67,2,.72.72,0,0,1,.19.47c0,.19-.16.31-.55.31a4.48,4.48,0,0,0-1.09.22c-1.12.39-2.31.75-3.57,1.06v4.37h2.29c2.59,0,3.48,0,3.65,0s.3,0,.3.28v2.11c0,.28,0,.31-.3.31s-1.06-.06-3.65-.06H74.32v3.77h1.17c2.34,0,3.18-.06,3.35-.06s.3,0,.3.31,0,.94,0,2.73V59c0,3.82,0,4.55,0,4.71s0,.28-.3.28H76.55c-.28,0-.31,0-.31-.28v-1H69.61v1.14c0,.25,0,.28-.3.28H67c-.28,0-.3,0-.3-.28s0-.92,0-4.76V56.94c0-2.2,0-3,0-3.14s0-.31.3-.31,1,.06,3.35.06h1V49.78Zm0,10.48h6.63V56.05H69.61Z"/><path class="cls-1" d="M97.36,45.24C94,45.88,91,46.47,88,47.08c-1.06.25-1.34.31-1.76.45a1.72,1.72,0,0,1-.61.22.65.65,0,0,1-.53-.42,19.42,19.42,0,0,1-1-3,36.48,36.48,0,0,0,4.43-.47c3.42-.5,9.55-1.42,16.74-2.37.42-.06.56.11.59.31a14.92,14.92,0,0,1,.3,2.45c0,.33-.16.42-.53.42a12.18,12.18,0,0,0-3.39.61c-4.74,1.62-7.11,4.88-7.11,8.22,0,3.59,2.56,5.54,7.41,5.85.45,0,.61.11.61.42a10.24,10.24,0,0,1-.3,2.4c-.09.41-.2.58-.53.58C97.38,62.74,92,59.93,92,54.13c0-4,2-6.63,5.35-8.83Zm5.51,3c.14-.11.25-.08.42.06a12.67,12.67,0,0,1,2.65,3,.27.27,0,0,1-.09.44l-1.16.87a.3.3,0,0,1-.48-.09,13.82,13.82,0,0,0-2.81-3.23Zm2.48-1.81c.17-.11.25-.08.42.06a11.52,11.52,0,0,1,2.65,2.87.32.32,0,0,1-.09.5l-1.11.86a.28.28,0,0,1-.47-.08A13.46,13.46,0,0,0,104,47.44Z"/></g></g></svg>