<svg xmlns="http://www.w3.org/2000/svg" viewBox="0 0 533.7 171.54"><defs><style>.cls-1{fill:#ac7e24;}.cls-2{opacity:0.4;}</style></defs><title>sp-title1</title><g id="Layer_2" data-name="Layer 2"><g id="SVG"><rect class="cls-1" x="173.86" y="157.96" width="197.23" height="4.65"/><polygon class="cls-1" points="272.47 171.54 281.12 159.13 263.82 159.13 272.47 171.54"/><g class="cls-2"><path class="cls-1" d="M55.68,100.44V18.52H8.75V16.08h96.83v2.44H58.26v81.92h56.32v2.44H0v-2.44Z"/><path class="cls-1" d="M162,54.91c-5.66-5.78-13.76-11.7-23.53-17.36l1.54-1.93c10,5.79,18,11.71,23.79,17.36Zm-17.75,60.7L142,114.2c6.3-10.16,15.94-30.1,21.47-44.63l2.06,1.67C160,85.52,150.47,105.32,144.29,115.61Zm22.12-96.06c-5.53-5.66-13.37-11.45-22.89-17L145.06.64c9.65,5.66,17.49,11.45,23.15,17Zm4.37,90.92-.77-2.83c4.12-.39,9-.77,14.53-1.29C192.39,90.92,200,73.3,204,61.21H168.34V58.77h40.77V29.06H176.7V26.62h32.41V0h2.57V26.62h33v2.44h-33V58.77H254v2.44H206.92a450,450,0,0,1-19.55,44.89c17.49-1.55,39.61-3.73,55.17-5.28a232.17,232.17,0,0,0-20.31-25.07L224,74.2c13.37,14.28,23.4,28,29.83,40l-2.19,1.41a131.12,131.12,0,0,0-7.45-12.47C222.87,105.45,188.92,108.67,170.78,110.47Z"/><path class="cls-1" d="M299.52,66v42.57c0,3.73-.9,6.17-4.89,6.81a88.35,88.35,0,0,1-13.5.13v-2.57c4.11.13,9.9.26,11.83.13,3.34-.26,4-1.93,4-4.63V67c-7.08,2.83-14.41,5.53-19.29,7.46l-1-2.44c5-1.8,12.73-4.76,20.32-7.72V29.84H277.53V27.39H297V0h2.57V27.39h14.27v2.45H299.52V63.4c4.11-1.67,8-3.21,11.31-4.63l.39,2.44C307.75,62.63,303.76,64.3,299.52,66Zm27.13,20.32c6.43,12.48,14.53,19.16,24.18,22.25V60.31H315.08V57.87h77.29v2.44h-39V81.53h31.25V84H353.4v25.33A53,53,0,0,0,367.16,111c3.86,0,22.76,0,26.49-.13l-.13,2.58c-3.85.12-22.63.25-26.62.12-17.36-.25-31-5.91-41.4-24-4,10.16-10,19.8-19.94,26.23l-2.06-1.8c17-10.8,22.9-32.15,25.08-47.84l2.83.26A123.28,123.28,0,0,1,326.65,86.29Zm-3.34-43.72V3.73h59.54V42.57Zm56.84-36.4H325.88V21.6h54.27Zm0,18H325.88V40.12h54.27Z"/><path class="cls-1" d="M533.7,109.83l-2.05,2.31c-20.71-5.79-44-17.23-56.46-32.54h-.39v35.88h-2.57V79.6h-.13c-12.47,14.79-35.62,26.62-55.42,32.93l-2.06-2.19c19.16-5.79,41.79-17.1,54.27-30.74h-52.6V77.16h55.94V63.27h2.57V77.16h57V79.6H478.53C490.88,93.75,513.51,104.68,533.7,109.83Zm-9.26-42.57-2.18,1.93a440.25,440.25,0,0,0-43.08-14.53c-12,6.55-29.71,11.44-56.07,14.78l-1.29-2.31C447,64.3,464.13,59.8,476,53.63c-9.77-2.7-20.19-5.4-31.12-8-1.29,1.55-2.7,3.09-3.86,4.38l-2.31-.9c4.11-4.38,9.51-10.55,14.66-16.85H418.6V29.84h36.78c4.25-5.15,8.24-10.42,11.32-14.67l2.7.65c-3.08,4.11-6.94,9-11.06,14h71.12v2.44H500A43.28,43.28,0,0,1,481.88,53C497.82,57.61,512.1,62.37,524.44,67.26ZM472.23,10.8V0h2.57V10.8h49.77V25.33H522V13.25H426.19V25.33h-2.57V10.8Zm6.69,41.28c9.39-5.53,14.92-12.21,18.26-19.8H456.41c-3.34,4-6.68,8-9.77,11.44C458,46.42,468.76,49.25,478.92,52.08Z"/></g></g></g></svg>