<svg xmlns="http://www.w3.org/2000/svg" viewBox="0 0 583.79 109.57"><defs><style>.cls-1{fill:#fff;}</style></defs><title>i-bannertext1</title><g id="Layer_2" data-name="Layer 2"><g id="SVG"><path class="cls-1" d="M7.05,26.37a19.38,19.38,0,0,0-.8,4.69c0,3,2.82,5.13,9.54,5.13a65.92,65.92,0,0,0,16.36-1.84l0,6.54A71.38,71.38,0,0,1,16,42.49c-10.67,0-16-3.58-16-10A29.76,29.76,0,0,1,.94,25.8ZM3.1,6.63a123.8,123.8,0,0,0,12.69.56c4.61,0,9.92-.28,13.49-.66v6.25c-3.24.24-9,.57-13.44.57-4.89,0-8.93-.24-12.74-.52Z"/><path class="cls-1" d="M58.75,26.37a19.38,19.38,0,0,0-.8,4.69c0,3,2.82,5.13,9.54,5.13a65.92,65.92,0,0,0,16.36-1.84l0,6.54a71.38,71.38,0,0,1-16.16,1.6c-10.67,0-16-3.58-16-10a29.76,29.76,0,0,1,.94-6.72Zm-4-19.74a123.8,123.8,0,0,0,12.69.56c4.61,0,9.92-.28,13.49-.66v6.25c-3.24.24-9,.57-13.44.57-4.89,0-8.93-.24-12.74-.52Z"/><path class="cls-1" d="M117.55,4c-.29,1.22-.57,2.68-.8,3.86-.28,1.4-.66,3.1-1,4.79,1.55-.1,3-.19,3.9-.19,4.94,0,8.41,2.21,8.41,8.88,0,5.5-.65,12.93-2.63,17-1.55,3.24-4.09,4.28-7.66,4.28a26.68,26.68,0,0,1-5.54-.66l-1-6.16a27,27,0,0,0,5.74,1,3.41,3.41,0,0,0,3.47-2c1.27-2.59,1.88-8.13,1.88-12.74,0-3.71-1.59-4.23-4.51-4.23-.75,0-1.88.1-3.19.19-1.84,7.05-5.22,18-9.5,24.86L99,40.42c4.51-6.11,7.71-15.42,9.35-21.76-1.64.19-3.1.37-4,.51-1.32.15-3.72.47-5.17.71l-.52-6.3a42.85,42.85,0,0,0,4.94,0c1.45,0,3.66-.19,6-.37a51.24,51.24,0,0,0,1-9.87Zm16.68,5.55A92.41,92.41,0,0,1,141.8,25.8l-5.92,2.77C134.65,23.4,131.36,15.18,128,11l4.32-1.83a52.21,52.21,0,0,0-3.19-5.54l3.71-1.56c1.17,1.74,2.82,4.7,3.76,6.44ZM138.51,8a46.56,46.56,0,0,0-3.81-6.49L138.41,0a56.43,56.43,0,0,1,3.81,6.39Z"/><path class="cls-1" d="M160.36,34.12c1.84,3.15,5.13,4.46,9.92,4.65,5.64.24,16.73.1,23.22-.42a25.33,25.33,0,0,0-1.74,5.45c-5.83.28-15.79.38-21.53.14-5.59-.23-9.35-1.6-12.17-5.21-1.88,1.83-3.81,3.61-6.2,5.64l-2.63-5.55a58.49,58.49,0,0,0,5.82-4.32V24.25h-5.26V19.13h10.57Zm-4-21.24a34,34,0,0,0-6.44-7.62l4.37-3a34.85,34.85,0,0,1,6.82,7.38Zm36.24.56H161.68V9.68H170c.24-.66.43-1.31.66-2h-6V4h7.05c.33-1.08.61-2.16.85-3.15l5.4.57c-.23.84-.51,1.69-.75,2.58h10.11V9.68h5.17ZM177.28,37.79V35H162V31.16h4.89V29h-3.57V25.24h14V23.69h-12V15h23.41v8.74h-6.11v1.55H191V29h-8.46v2.16h9.72V35h-9.72v2.82Zm-6.95-17.35H183.2v-2.3H170.33Zm6.95,10.72V29h-5.36v2.16ZM175.5,9.68h6.72v-2h-6.07Z"/><path class="cls-1" d="M224.89,19.69A41.57,41.57,0,0,0,212.77,22c-1.36.42-3.15,1.13-4.51,1.59l-1.74-6.62a45,45,0,0,0,5.07-.8C215,15.37,220.24,14,225.65,14c7.37,0,12.54,4.19,12.54,11.47,0,10-9.21,16.17-22.13,18l-3.39-5.82c11.57-1.32,18.94-5.08,18.94-12.36C231.61,22.18,229.26,19.64,224.89,19.69ZM234.29,5l-.94,5.73c-5.45-.37-15.55-1.26-20.91-2.2l.94-5.64A132,132,0,0,0,234.29,5Z"/><path class="cls-1" d="M269.87,36.52a4.9,4.9,0,0,1,9.78,0,4.9,4.9,0,0,1-9.78,0Zm.8-24-.19-7h8.6l-.23,7-1.64,16.07h-4.85Z"/><path class="cls-1" d="M8.84,69.34a35.25,35.25,0,0,0-.15,3.57V88.79c0,1.18.05,3,.15,4.09h-7c.05-.89.24-2.72.24-4.13V72.91a32.18,32.18,0,0,0-.19-3.57Zm21.66-.43c-.09,1.32-.19,2.82-.19,4.7v9.31c0,10.1-2,14.43-5.45,18.28-3.1,3.43-8,5.73-11.42,6.82l-4.93-5.17c4.7-1.09,8.64-2.87,11.51-5.93,3.2-3.52,3.81-7,3.81-14.38V73.61a34.47,34.47,0,0,0-.28-4.7Z"/><path class="cls-1" d="M83.66,73.52A22.65,22.65,0,0,0,82,76.43a68.51,68.51,0,0,1-7.38,12.93A132.47,132.47,0,0,1,87.75,102.8l-5.36,4.65a108.41,108.41,0,0,0-11.84-13.3,62.13,62.13,0,0,1-17.67,13.21L48,102.28A53,53,0,0,0,67.3,88.79c3.11-3.52,6-8.17,7-11.51H58.37c-2,0-4.55.28-5.54.33V70.93a51.88,51.88,0,0,0,5.54.33H74.92a16.87,16.87,0,0,0,4.88-.61Z"/><path class="cls-1" d="M138.41,75.4a23.2,23.2,0,0,0-1.55,3.34,54,54,0,0,1-6.48,12.87c1.74,1.08,3.33,2.17,4.51,3l-4.28,5.5a53.38,53.38,0,0,0-4.37-3.34,44.92,44.92,0,0,1-17.34,11.71l-5.45-4.75A39.7,39.7,0,0,0,121,93.21c-3.2-2.07-6.39-4-8.79-5.36l4-4.46c2.49,1.27,5.69,3,8.84,4.93a34.36,34.36,0,0,0,4.89-10H116.42A55.23,55.23,0,0,1,104,90.44l-5.07-3.9a43.06,43.06,0,0,0,15-15.61A20.6,20.6,0,0,0,116,66l6.82,2.12c-1.13,1.64-2.35,3.8-2.92,4.79l0,0h9.63a14.85,14.85,0,0,0,4.09-.52Z"/><path class="cls-1" d="M170,101.81a43.83,43.83,0,0,0,4.32-.75c6-1.41,10.58-5.69,10.58-12.45,0-6.44-3.48-11.24-9.73-12.32a100.71,100.71,0,0,1-2.78,12.64c-2.77,9.4-6.81,15.14-11.89,15.14S151,98.38,151,90.53c0-10.71,9.35-19.92,21.43-19.92,11.52,0,18.8,8,18.8,18.18,0,9.78-6,16.73-17.76,18.52Zm-3.62-14.1a74.16,74.16,0,0,0,2.49-11.28c-7.71,1.6-11.8,8.37-11.8,13.49,0,4.7,1.88,7,3.62,7C162.62,96.92,164.5,94,166.38,87.71Z"/><path class="cls-1" d="M245.15,86.16H241v23.27H235.7V86.16h-4.56c0,7-1,16.92-7.09,23.41a13.35,13.35,0,0,0-4-3.81c.24-.28.52-.56.76-.85H207.46v3.29h-4.84v-41h4.84V92.65a26.71,26.71,0,0,0,6.11-8.84h-5.22v-4.7H214V66.05h4.56V77a55.17,55.17,0,0,0,2.16-8l4.37,1c-1.18,2.81-2.4,6.1-3.43,8.17l-3.1-1v2h5.64v4.7H218.6v.66c1.31,1.08,5.07,4.56,6,5.45l-3,3.71c-.61-1-1.79-2.58-3-4.08v9.63H214V91.05a24.75,24.75,0,0,1-4.61,6.39,24.62,24.62,0,0,0-2-4.42v7h16v.33c2.07-4.84,2.31-10.24,2.31-14.8V69.29l3.29.89a52.61,52.61,0,0,0,11.32-4l4.52,4.09a74.45,74.45,0,0,1-13.78,4.23V81h14Zm-35.11-8a31.42,31.42,0,0,0-1.59-8.08L211.83,69A29,29,0,0,1,213.66,77Z"/><path class="cls-1" d="M293,93.21a.62.62,0,0,0,.52-.23,3,3,0,0,0,.28-1.46c.1-.89.14-2.77.14-5.22a12.24,12.24,0,0,0,3.43,1.88,38.89,38.89,0,0,1-.51,6.35,4.06,4.06,0,0,1-1.32,2.39,4,4,0,0,1-2.49.71H291a4.32,4.32,0,0,1-3-1.13c-.71-.84-1-1.83-1-5.26V87.81l-1.88,3.71A30.68,30.68,0,0,0,282.33,89a19.36,19.36,0,0,1-6.07,9.59,13.34,13.34,0,0,0-2-2.44v.09c-7.28.75-14.9,1.5-20.4,2l-.32-4.56c2.3-.14,5.12-.33,8.22-.56V90.25h-6.91v-3.9h6.91V83.81h4.65c-1-.56-1.22-1.74-1.22-3.8V78.08h-2.35c-.56,3.85-2.25,6.2-7.71,7.47A9.36,9.36,0,0,0,253,82.26c3.95-.7,5.22-2,5.64-4.18h-4.7V74.22h7.9v-2.3h-6.25V68.16h6.25V65.62h4.93v2.54H273v3.76h-6.26v2.3h7.57v3.86h-5.17V80c0,.84.1.94.61.94h1.08c.57,0,.71-.24.8-2.17A10.19,10.19,0,0,0,275,80.1c-.33,3.38-1.36,4.18-3.57,4.18H269a6.08,6.08,0,0,1-2.31-.33v2.4h6.4v3.9h-6.4v2.49c2.5-.23,5-.42,7.52-.66v1.46a17.17,17.17,0,0,0,3.91-7.71c-1.27-.89-2.59-1.78-3.76-2.49l2.25-4.13q1.13.63,2.4,1.41c.14-1.32.23-2.68.28-4.09h-3.95V71.59h4.09c.05-1.92.09-3.9.09-6h5c0,2.07,0,4.09-.09,6H292V91.14a6.87,6.87,0,0,0,.1,1.84.41.41,0,0,0,.42.23ZM253.1,107.36a23,23,0,0,0,5.45-8.23l5.4,1.41a26.44,26.44,0,0,1-5.54,8.93Zm18.84-7.15a51.56,51.56,0,0,1,1.08,8.13l-5.54.71a56.28,56.28,0,0,0-.76-8.32Zm9.4-.37a45.33,45.33,0,0,1,2.54,8.08L278.29,109a42.6,42.6,0,0,0-2.21-8.32Zm2.91-23.31a60.5,60.5,0,0,1-.7,7,39.21,39.21,0,0,1,3.38,2.68V76.53ZM290.83,99a66.49,66.49,0,0,1,5.74,8.74l-5.74,1.83a54.29,54.29,0,0,0-5.4-8.93Z"/><path class="cls-1" d="M314.71,81.51a6,6,0,1,1-6,6A6.07,6.07,0,0,1,314.71,81.51Z"/><path class="cls-1" d="M368.24,76.57a35.56,35.56,0,0,1-12.64,8.56h15v24.15H365v-1.36H347.61v1.6h-5.4V89.36c-2.12.47-4.19.89-6.3,1.22a35.92,35.92,0,0,0-3.43-4.84c8.22-1,16.26-2.82,22.46-5.83l-.14,0c-2,.75-4.56.8-7.94.8A18.63,18.63,0,0,0,344.6,76c2.45.14,5.41.14,6.21.1s1-.14,1-.75V65.58h5.64v9.91c0,1.93-.33,3.06-1.36,3.81a24.21,24.21,0,0,0,6.77-5.12Zm-20-7.19a37.45,37.45,0,0,1-10.81,10.77c-1-1-3.15-3-4.37-3.9a27.35,27.35,0,0,0,9.78-8.6ZM365,89.31H347.61v2.21H365Zm-17.34,8.37H365v-2.4H347.61ZM365,103.79v-2.31H347.61v2.31Zm1.46-36.57a54.4,54.4,0,0,1,10.06,8.84l-4.84,3c-1.84-2.63-6.11-6.48-9.73-9.16Z"/><path class="cls-1" d="M422,98a27.23,27.23,0,0,0,4.37-.37v6.81a38,38,0,0,0-4.37-.23H391a40.93,40.93,0,0,0-4.6.23V97.63A25.49,25.49,0,0,0,391,98h11.94V78.83h-9.07c-1.27,0-3.29.09-4.47.19V72.58a34.28,34.28,0,0,0,4.47.28h25.57c1.41,0,3.05-.14,4.41-.28V79c-1.41-.1-3-.19-4.41-.19h-9.92V98Z"/><path class="cls-1" d="M474.79,77.09c-1.17,1.18-2.63,2.77-3.62,3.9a70.29,70.29,0,0,1-9.87,9.21c0,3.76,0,8.89,0,11.85,0,1.88.18,4.56.33,6h-6.77a53.58,53.58,0,0,0,.37-6V94a82.64,82.64,0,0,1-14.42,5.78l-3.62-5.54a58.17,58.17,0,0,0,19.17-7.85,30.43,30.43,0,0,0,7.9-7.05h-17c-1.7,0-4.66.09-6.12.23V73.43a44.63,44.63,0,0,0,6,.32h8.13V71.31A30,30,0,0,0,455,67h6.72a38.7,38.7,0,0,0-.28,4.32v2.44H467a14.49,14.49,0,0,0,3.9-.46Zm-6.62,11.19a106.31,106.31,0,0,1,11.27,6.81l-3.94,5.17a73.72,73.72,0,0,0-11.24-7.47Z"/><path class="cls-1" d="M531.47,102.66V108H502.24v-5.31h12.55v-9.4h-9.07V88h9.07V80.33h-5.17A31.64,31.64,0,0,1,507,86.82a52.75,52.75,0,0,0-5-2.54c.47-.84.94-1.74,1.41-2.72l-2.68,1.22A32.58,32.58,0,0,0,499,77.37v32.1h-5.59V75.87a59,59,0,0,1-2.12,12.45l-4.13-1.5a55.83,55.83,0,0,0,2.3-12.22l3.95.57V65.58H499v8.88l2.73-1.13a55,55,0,0,1,2.58,5.92,56.52,56.52,0,0,0,2.49-11.46l5.46.75c-.33,2.21-.71,4.42-1.18,6.53h3.76V65.86h5.59v9.21H530v5.26h-9.59V88H529v5.22h-8.6v9.4Z"/><path class="cls-1" d="M557.65,68.68c2.31,3.38,4.8,7.85,5.69,10.9l-5.12,2.07a17.12,17.12,0,0,0-.85-2.49c-6.2.42-12.59.8-17.39,1.08l-.47-5.31c1.13,0,2.35-.05,3.67-.09a73.6,73.6,0,0,0,3.43-9.45l5.83,1.17c-1.08,2.73-2.35,5.55-3.53,8l6.25-.28c-.7-1.32-1.45-2.63-2.2-3.86ZM560,103.79c0,2.44-.47,3.8-2,4.6s-3.76.94-6.58.94a20.77,20.77,0,0,0-1.78-4.93c1.64.09,3.52,0,4.13,0s.76-.14.76-.71v-3.15h-7v8.89h-5.17v-27H560ZM547.46,87.05V89.5h7V87.05Zm7,9.36V93.63h-7v2.78Zm16-9.73c-5.5,0-6.81-1.65-6.81-6.82V65.72h5.54v6.72a73.23,73.23,0,0,0,8.46-3.9l3.57,4a85.93,85.93,0,0,1-12,4.42v2.77c0,1.69.28,1.88,2.07,1.88h5.12c1.51,0,1.84-.7,2-4.79a15.45,15.45,0,0,0,4.94,2.06c-.61,6-2.07,7.76-6.39,7.76Zm6.21,17.58c1.59,0,1.92-.9,2.16-5.64a17.3,17.3,0,0,0,4.89,2.06c-.62,6.63-2,8.46-6.54,8.46h-6.67c-5.5,0-6.86-1.59-6.86-6.76V87.62h5.5V94a53.29,53.29,0,0,0,8.83-4.41l3.71,4.08a71,71,0,0,1-12.54,5v3.76c0,1.64.32,1.88,2.16,1.88Z"/></g></g></svg>