<svg xmlns="http://www.w3.org/2000/svg" viewBox="0 0 621.05 122.43"><defs><style>.cls-1{fill:#fff;}</style></defs><title>sp-bannertext1</title><g id="Layer_2" data-name="Layer 2"><g id="SVG"><path class="cls-1" d="M7.5,28.05a20.54,20.54,0,0,0-.85,5c0,3.15,3,5.45,10.15,5.45a70.21,70.21,0,0,0,17.4-2l0,7a75.6,75.6,0,0,1-17.2,1.7C5.7,45.2,0,41.4,0,34.6a31.85,31.85,0,0,1,1-7.15Zm-4.2-21a129.77,129.77,0,0,0,13.5.6c4.9,0,10.55-.3,14.35-.7V13.6c-3.45.25-9.6.6-14.3.6-5.2,0-9.5-.25-13.55-.55Z"/><path class="cls-1" d="M62.5,28.05a20.54,20.54,0,0,0-.85,5c0,3.15,3,5.45,10.15,5.45a70.21,70.21,0,0,0,17.4-2l0,7a75.6,75.6,0,0,1-17.2,1.7c-11.35,0-17-3.8-17-10.6a31.85,31.85,0,0,1,1-7.15Zm-4.2-21a129.77,129.77,0,0,0,13.5.6c4.9,0,10.55-.3,14.35-.7V13.6c-3.45.25-9.6.6-14.3.6-5.2,0-9.5-.25-13.55-.55Z"/><path class="cls-1" d="M125.05,4.3c-.3,1.3-.6,2.85-.85,4.1-.3,1.5-.7,3.3-1,5.1,1.65-.1,3.15-.2,4.15-.2,5.25,0,9,2.35,9,9.45,0,5.85-.7,13.75-2.8,18-1.65,3.45-4.35,4.55-8.15,4.55a28,28,0,0,1-5.9-.7l-1.1-6.55a28.89,28.89,0,0,0,6.1,1A3.64,3.64,0,0,0,128.1,37c1.35-2.75,2-8.65,2-13.55,0-3.95-1.7-4.5-4.8-4.5-.8,0-2,.1-3.4.2-2,7.5-5.55,19.15-10.1,26.45L105.35,43c4.8-6.5,8.2-16.4,10-23.15-1.75.2-3.3.4-4.25.55-1.4.15-4,.5-5.5.75l-.55-6.7a46,46,0,0,0,5.25,0c1.55,0,3.9-.2,6.4-.4a54.82,54.82,0,0,0,1-10.5Zm17.75,5.9a98.39,98.39,0,0,1,8,17.25l-6.3,2.95c-1.3-5.5-4.8-14.25-8.35-18.65l4.6-1.95a55.28,55.28,0,0,0-3.4-5.9l3.95-1.65c1.25,1.85,3,5,4,6.85Zm4.55-1.65a49.89,49.89,0,0,0-4-6.9L147.25,0a59.17,59.17,0,0,1,4.05,6.8Z"/><path class="cls-1" d="M170.6,36.3c2,3.35,5.45,4.75,10.55,5,6,.25,17.8.1,24.7-.45A27.11,27.11,0,0,0,204,46.6c-6.2.3-16.8.4-22.9.15-5.95-.25-9.95-1.7-12.95-5.55-2,1.95-4.05,3.85-6.6,6l-2.8-5.9a59.92,59.92,0,0,0,6.2-4.6V25.8h-5.6V20.35H170.6Zm-4.3-22.6a36.45,36.45,0,0,0-6.85-8.1l4.65-3.25c2.65,2.25,5.85,5.45,7.25,7.85Zm38.55.6H172v-4h8.9c.25-.7.45-1.4.7-2.15h-6.35V4.3h7.5c.35-1.15.65-2.3.9-3.35l5.75.6c-.25.9-.55,1.8-.8,2.75h10.75v6h5.5ZM188.6,40.2v-3H172.3V33.15h5.2v-2.3h-3.8v-4h14.9V25.2H175.8V15.9h24.9v9.3h-6.5v1.65h9v4h-9v2.3h10.35V37.2H194.2v3Zm-7.4-18.45h13.7V19.3H181.2Zm7.4,11.4v-2.3h-5.7v2.3ZM186.7,10.3h7.15V8.15H187.4Z"/><path class="cls-1" d="M239.25,21c-5.45,0-10.35,1.65-12.9,2.4-1.45.45-3.35,1.2-4.8,1.7l-1.85-7a48.55,48.55,0,0,0,5.4-.85c3.65-.8,9.2-2.25,15-2.25,7.85,0,13.35,4.45,13.35,12.2,0,10.6-9.8,17.2-23.55,19.1l-3.6-6.2c12.3-1.4,20.15-5.4,20.15-13.15C246.4,23.6,243.9,20.9,239.25,21Zm10-15.65-1,6.1c-5.8-.4-16.55-1.35-22.25-2.35l1-6A139.86,139.86,0,0,0,249.25,5.3Z"/><path class="cls-1" d="M287.1,38.85a5.21,5.21,0,0,1,10.4,0,5.21,5.21,0,0,1-10.4,0Zm.85-25.5-.2-7.45h9.15l-.25,7.45-1.75,17.1h-5.15Z"/><path class="cls-1" d="M9.4,79.62c-.1,1.1-.15,2.2-.15,3.8v16.9c0,1.25.05,3.2.15,4.35H2c0-1,.25-2.9.25-4.4V83.42a34,34,0,0,0-.2-3.8Zm23.05-.45c-.1,1.4-.2,3-.2,5v9.9c0,10.75-2.1,15.35-5.8,19.45-3.3,3.66-8.5,6.11-12.15,7.26l-5.25-5.51c5-1.14,9.2-3,12.25-6.3,3.4-3.75,4.05-7.5,4.05-15.3v-9.5a35.27,35.27,0,0,0-.3-5Z"/><path class="cls-1" d="M89,84.07a23.63,23.63,0,0,0-1.75,3.1,73.51,73.51,0,0,1-7.85,13.75,139.54,139.54,0,0,1,13.95,14.31l-5.7,5A113.36,113.36,0,0,0,75.05,106a65.9,65.9,0,0,1-18.8,14.06l-5.15-5.41a56.65,56.65,0,0,0,20.5-14.35c3.3-3.75,6.35-8.7,7.45-12.25H62.1c-2.1,0-4.85.3-5.9.35v-7.1a55.86,55.86,0,0,0,5.9.35H79.7A18.05,18.05,0,0,0,84.9,81Z"/><path class="cls-1" d="M147.25,86.07a23.52,23.52,0,0,0-1.65,3.55,57.55,57.55,0,0,1-6.9,13.7c1.85,1.15,3.55,2.3,4.8,3.2L139,112.37a57.9,57.9,0,0,0-4.65-3.55,47.74,47.74,0,0,1-18.45,12.46l-5.8-5A42.38,42.38,0,0,0,128.7,105c-3.4-2.2-6.8-4.25-9.35-5.7l4.25-4.75c2.65,1.35,6.05,3.25,9.4,5.25a36.42,36.42,0,0,0,5.2-10.65H123.85a58.84,58.84,0,0,1-13.2,12.9l-5.4-4.15a45.77,45.77,0,0,0,16-16.6,22.12,22.12,0,0,0,2.25-5.25l7.25,2.25c-1.2,1.75-2.5,4.05-3.1,5.1l0,0H137.8a15.88,15.88,0,0,0,4.35-.55Z"/><path class="cls-1" d="M180.85,114.17c1.9-.25,3.3-.5,4.6-.79,6.35-1.51,11.25-6.06,11.25-13.26,0-6.85-3.7-12-10.35-13.1a107.61,107.61,0,0,1-2.95,13.45c-3,10-7.25,16.11-12.65,16.11s-10.1-6.06-10.1-14.41c0-11.4,9.95-21.2,22.8-21.2,12.25,0,20,8.55,20,19.35,0,10.4-6.4,17.81-18.9,19.71Zm-3.85-15a79.48,79.48,0,0,0,2.65-12c-8.2,1.7-12.55,8.9-12.55,14.35,0,5,2,7.45,3.85,7.45C173,109,175,105.87,177,99.17Z"/><path class="cls-1" d="M260.8,97.52h-4.4v24.76h-5.65V97.52H245.9c-.05,7.45-1.1,18-7.55,24.91a14.3,14.3,0,0,0-4.25-4.05c.25-.3.55-.61.8-.9H220.7V121h-5.15V77.32h5.15v27.1a28.35,28.35,0,0,0,6.5-9.4h-5.55V90h6V76.12h4.85V87.77a56.83,56.83,0,0,0,2.3-8.55l4.65,1.1c-1.25,3-2.55,6.5-3.65,8.7l-3.3-1.1V90h6v5h-6v.7c1.4,1.15,5.4,4.85,6.35,5.8l-3.2,4c-.65-1-1.9-2.75-3.15-4.35v10.25H227.7v-8.65a26.16,26.16,0,0,1-4.9,6.8,26,26,0,0,0-2.1-4.7v7.5h17.05v.35c2.2-5.15,2.45-10.9,2.45-15.75V79.57l3.5,1a56.57,56.57,0,0,0,12.05-4.3l4.8,4.35a79.63,79.63,0,0,1-14.65,4.5v7h14.9ZM223.45,89a33.52,33.52,0,0,0-1.7-8.6l3.6-1.15a31.06,31.06,0,0,1,2,8.45Z"/><path class="cls-1" d="M311.75,105a.64.64,0,0,0,.55-.25,3.11,3.11,0,0,0,.3-1.55c.1-1,.15-3,.15-5.55a12.88,12.88,0,0,0,3.65,2,41.76,41.76,0,0,1-.55,6.75,4.34,4.34,0,0,1-1.4,2.55,4.25,4.25,0,0,1-2.65.75h-2.2a4.61,4.61,0,0,1-3.25-1.2c-.75-.9-1.1-2-1.1-5.6V99.27l-2,4a32,32,0,0,0-2.9-2.7,20.61,20.61,0,0,1-6.45,10.2,15,15,0,0,0-2.1-2.6v.1c-7.75.8-15.85,1.6-21.7,2.15l-.35-4.85c2.45-.15,5.45-.35,8.75-.6v-3h-7.35V97.72h7.35V95h4.95c-1.05-.6-1.3-1.85-1.3-4v-2h-2.5c-.6,4.1-2.4,6.6-8.2,8a10,10,0,0,0-2.35-3.5c4.2-.75,5.55-2.1,6-4.45h-5v-4.1h8.4V82.37h-6.65v-4h6.65v-2.7h5.25v2.7h6.65v4h-6.65v2.45h8.05v4.1h-5.5v2c0,.9.1,1,.65,1h1.15c.6,0,.75-.25.85-2.3a10.76,10.76,0,0,0,3.55,1.4c-.35,3.6-1.45,4.45-3.8,4.45h-2.5a6.52,6.52,0,0,1-2.45-.35v2.55h6.8v4.15h-6.8v2.65c2.65-.25,5.35-.45,8-.7v1.55a18.25,18.25,0,0,0,4.15-8.2c-1.35-1-2.75-1.9-4-2.65l2.4-4.4q1.2.67,2.55,1.5.22-2.1.3-4.35H293V82h4.35c.05-2,.1-4.15.1-6.4h5.35c-.05,2.2-.05,4.35-.1,6.4h8v20.8a7.72,7.72,0,0,0,.1,2,.44.44,0,0,0,.45.25Zm-42.5,15.06a24.38,24.38,0,0,0,5.8-8.76l5.75,1.5a28.22,28.22,0,0,1-5.9,9.51Zm20.05-7.61a55.22,55.22,0,0,1,1.15,8.66l-5.9.75a60,60,0,0,0-.8-8.86Zm10-.4a47.89,47.89,0,0,1,2.7,8.61l-5.95,1.15A44.26,44.26,0,0,0,293.7,113Zm3.1-24.8a65.59,65.59,0,0,1-.75,7.5,43.26,43.26,0,0,1,3.6,2.85V87.27Zm7,23.85a72.59,72.59,0,0,1,6.1,9.31l-6.1,1.95a57.53,57.53,0,0,0-5.75-9.5Z"/><path class="cls-1" d="M334.8,92.57a6.4,6.4,0,1,1-6.4,6.4A6.44,6.44,0,0,1,334.8,92.57Z"/><path class="cls-1" d="M391.75,87.32a38,38,0,0,1-13.45,9.1h16v25.71h-6.05v-1.45H369.8v1.7h-5.75V100.92c-2.25.5-4.45,1-6.7,1.3a38.74,38.74,0,0,0-3.65-5.15c8.75-1,17.3-3,23.9-6.2l-.15,0c-2.15.8-4.85.85-8.45.85a19.8,19.8,0,0,0-2.4-5.1c2.6.15,5.75.15,6.6.1s1.1-.15,1.1-.8V75.62h6V86.17c0,2-.35,3.25-1.45,4a25.51,25.51,0,0,0,7.2-5.45ZM370.5,79.67A39.8,39.8,0,0,1,359,91.12c-1.1-1.05-3.35-3.15-4.65-4.15a28.91,28.91,0,0,0,10.4-9.15Zm17.75,21.2H369.8v2.35h18.45Zm-18.45,8.9h18.45v-2.55H369.8Zm18.45,6.5v-2.45H369.8v2.45Zm1.55-38.9c3.8,2.65,8.45,6.55,10.7,9.4L395.35,90c-2-2.8-6.5-6.9-10.35-9.75Z"/><path class="cls-1" d="M448.9,110.12a29.3,29.3,0,0,0,4.65-.4V117a36.8,36.8,0,0,0-4.65-.25H416a39.72,39.72,0,0,0-4.9.25v-7.26a27,27,0,0,0,4.9.4h12.7V89.72H419c-1.35,0-3.5.1-4.75.2V83.07a36.7,36.7,0,0,0,4.75.3h27.2c1.5,0,3.25-.15,4.7-.3v6.85c-1.5-.1-3.25-.2-4.7-.2H435.65v20.4Z"/><path class="cls-1" d="M505.1,87.87c-1.25,1.25-2.8,2.95-3.85,4.15a75.45,75.45,0,0,1-10.5,9.8c0,4-.05,9.45-.05,12.6,0,2,.2,4.86.35,6.41h-7.2a57.79,57.79,0,0,0,.4-6.41v-8.55A87.79,87.79,0,0,1,468.9,112l-3.85-5.9a61.62,61.62,0,0,0,20.4-8.35,32.16,32.16,0,0,0,8.4-7.5h-18.1c-1.8,0-4.95.1-6.5.25V84a47,47,0,0,0,6.4.35h8.65v-2.6a32.3,32.3,0,0,0-.3-4.6h7.15a41,41,0,0,0-.3,4.6v2.6h6a15,15,0,0,0,4.15-.5Zm-7.05,11.9a112.71,112.71,0,0,1,12,7.25l-4.2,5.5a78.64,78.64,0,0,0-12-8Z"/><path class="cls-1" d="M565.4,115.07v5.66H534.3v-5.66h13.35v-10H538V99.52h9.65v-8.2h-5.5a34.16,34.16,0,0,1-2.8,6.9,52.58,52.58,0,0,0-5.3-2.7c.5-.9,1-1.85,1.5-2.9l-2.85,1.3a34.77,34.77,0,0,0-1.9-5.75v34.16h-5.95V86.57a63.72,63.72,0,0,1-2.25,13.25l-4.4-1.6a59.42,59.42,0,0,0,2.45-13l4.2.6V75.62h5.95v9.45l2.9-1.2a57.33,57.33,0,0,1,2.75,6.3A60.51,60.51,0,0,0,539.1,78l5.8.8c-.35,2.35-.75,4.7-1.25,7h4v-9.8h6v9.8h10.2v5.6H553.6v8.2h9.15v5.55H553.6v10Z"/><path class="cls-1" d="M593.25,78.92c2.45,3.6,5.1,8.35,6,11.6l-5.45,2.2a18.47,18.47,0,0,0-.9-2.65c-6.6.45-13.4.85-18.5,1.15l-.5-5.65c1.2,0,2.5,0,3.9-.1a79,79,0,0,0,3.65-10l6.2,1.25c-1.15,2.9-2.5,5.9-3.75,8.55l6.65-.3c-.75-1.4-1.55-2.8-2.35-4.1Zm2.5,37.35c0,2.61-.5,4.06-2.15,4.91s-4,1-7,1a22.23,22.23,0,0,0-1.9-5.26,39,39,0,0,0,4.4,0c.6,0,.8-.15.8-.75v-3.35h-7.5v9.46h-5.5V93.57h18.85ZM582.4,98.47v2.6h7.5v-2.6Zm7.5,10v-3h-7.5v3ZM607,98.07c-5.85,0-7.25-1.75-7.25-7.25v-15h5.9v7.15a77.9,77.9,0,0,0,9-4.15l3.8,4.3a91.74,91.74,0,0,1-12.8,4.7v3c0,1.8.3,2,2.2,2h5.45c1.6,0,2-.75,2.15-5.1a16.44,16.44,0,0,0,5.25,2.2c-.65,6.4-2.2,8.25-6.8,8.25Zm6.6,18.7c1.7,0,2.05-.94,2.3-6a18.51,18.51,0,0,0,5.2,2.2c-.65,7.06-2.15,9-6.95,9H607c-5.85,0-7.3-1.7-7.3-7.21V99.07h5.85v6.75a56.63,56.63,0,0,0,9.4-4.7l3.95,4.35a75.8,75.8,0,0,1-13.35,5.3v4c0,1.75.35,2,2.3,2Z"/></g></g></svg>