<svg xmlns="http://www.w3.org/2000/svg" viewBox="0 0 400.49 109.47"><defs><style>.cls-1{fill:#fff;}</style></defs><title>i-banner1</title><g id="Layer_2" data-name="Layer 2"><g id="SVG"><path class="cls-1" d="M7.05,26.37a19.38,19.38,0,0,0-.8,4.69c0,3,2.82,5.13,9.54,5.13a65.92,65.92,0,0,0,16.36-1.84l0,6.54A71.38,71.38,0,0,1,16,42.49c-10.67,0-16-3.58-16-10A29.76,29.76,0,0,1,.94,25.8ZM3.1,6.63a123.8,123.8,0,0,0,12.69.56c4.61,0,9.92-.28,13.49-.66v6.25c-3.24.24-9,.57-13.44.57-4.89,0-8.93-.24-12.74-.52Z"/><path class="cls-1" d="M58.75,26.37a19.38,19.38,0,0,0-.8,4.69c0,3,2.82,5.13,9.54,5.13a65.92,65.92,0,0,0,16.36-1.84l0,6.54a71.38,71.38,0,0,1-16.16,1.6c-10.67,0-16-3.58-16-10a29.76,29.76,0,0,1,.94-6.72Zm-4-19.74a123.8,123.8,0,0,0,12.69.56c4.61,0,9.92-.28,13.49-.66v6.25c-3.24.24-9,.57-13.44.57-4.89,0-8.93-.24-12.74-.52Z"/><path class="cls-1" d="M117.55,4c-.29,1.22-.57,2.68-.8,3.86-.28,1.41-.66,3.1-1,4.79,1.55-.1,3-.19,3.9-.19,4.94,0,8.41,2.21,8.41,8.88,0,5.5-.65,12.93-2.63,17-1.55,3.24-4.09,4.28-7.66,4.28a26.68,26.68,0,0,1-5.54-.66l-1-6.16a27,27,0,0,0,5.74,1,3.41,3.41,0,0,0,3.47-2c1.27-2.59,1.88-8.13,1.88-12.74,0-3.71-1.59-4.23-4.51-4.23-.75,0-1.88.1-3.19.19-1.84,7.05-5.22,18-9.5,24.86L99,40.42c4.51-6.11,7.71-15.42,9.35-21.76-1.64.19-3.1.37-4,.51-1.32.15-3.72.47-5.17.71l-.52-6.3a42.85,42.85,0,0,0,4.94,0c1.45,0,3.66-.19,6-.37a51.24,51.24,0,0,0,1-9.87Zm16.68,5.55A92.41,92.41,0,0,1,141.8,25.8l-5.92,2.77C134.65,23.4,131.36,15.18,128,11l4.32-1.83a52.21,52.21,0,0,0-3.19-5.54l3.71-1.56c1.17,1.74,2.82,4.7,3.76,6.44ZM138.51,8a46.56,46.56,0,0,0-3.81-6.49L138.41,0a56.43,56.43,0,0,1,3.81,6.39Z"/><path class="cls-1" d="M160.36,34.12c1.84,3.15,5.13,4.46,9.92,4.65,5.64.24,16.73.1,23.22-.42a25.33,25.33,0,0,0-1.74,5.45c-5.83.28-15.79.38-21.53.14-5.59-.23-9.35-1.6-12.17-5.21-1.88,1.83-3.81,3.61-6.2,5.64l-2.63-5.55a58.49,58.49,0,0,0,5.82-4.32V24.25h-5.26V19.13h10.57Zm-4-21.24a34,34,0,0,0-6.44-7.62l4.37-3a34.85,34.85,0,0,1,6.82,7.38Zm36.24.56H161.68V9.68H170c.24-.66.43-1.31.66-2h-6V4h7.05c.33-1.08.61-2.16.85-3.15l5.4.57c-.23.84-.51,1.69-.75,2.58h10.11V9.68h5.17ZM177.28,37.79V35H162V31.16h4.89V29h-3.57V25.24h14V23.69h-12V14.94h23.41v8.75h-6.11v1.55H191V29h-8.46v2.16h9.72V35h-9.72v2.82Zm-6.95-17.35H183.2v-2.3H170.33Zm6.95,10.72V29h-5.36v2.16ZM175.5,9.68h6.72v-2h-6.07Z"/><path class="cls-1" d="M224.89,19.69A41.57,41.57,0,0,0,212.77,22c-1.36.42-3.15,1.13-4.51,1.6l-1.74-6.63a45,45,0,0,0,5.07-.8C215,15.37,220.24,14,225.65,14c7.37,0,12.54,4.19,12.54,11.47,0,10-9.21,16.17-22.13,18l-3.39-5.82c11.57-1.32,18.94-5.08,18.94-12.36C231.61,22.18,229.26,19.64,224.89,19.69ZM234.29,5l-.94,5.73c-5.45-.37-15.55-1.26-20.91-2.2l.94-5.64A132,132,0,0,0,234.29,5Z"/><path class="cls-1" d="M269.87,36.52a4.9,4.9,0,0,1,9.78,0,4.9,4.9,0,0,1-9.78,0Zm.8-24-.19-7h8.6l-.23,7-1.64,16.07h-4.85Z"/><path class="cls-1" d="M8.84,69.34a35.12,35.12,0,0,0-.15,3.57V88.79c0,1.18.05,3,.15,4.09h-7c.05-.89.24-2.72.24-4.13V72.91a32.18,32.18,0,0,0-.19-3.57Zm21.66-.43c-.09,1.32-.19,2.82-.19,4.7v9.31c0,10.1-2,14.43-5.45,18.28-3.1,3.43-8,5.73-11.42,6.82l-4.93-5.17c4.7-1.09,8.64-2.87,11.51-5.93,3.2-3.52,3.81-7,3.81-14.38V73.61a34.47,34.47,0,0,0-.28-4.7Z"/><path class="cls-1" d="M83.66,73.52A22.65,22.65,0,0,0,82,76.43a68.51,68.51,0,0,1-7.38,12.93A131.44,131.44,0,0,1,87.75,102.8l-5.36,4.65a108.41,108.41,0,0,0-11.84-13.3,62.32,62.32,0,0,1-17.67,13.21L48,102.28A53.18,53.18,0,0,0,67.3,88.79c3.11-3.52,6-8.17,7-11.51H58.37c-2,0-4.55.28-5.54.33V70.93a51.88,51.88,0,0,0,5.54.33H74.92a16.87,16.87,0,0,0,4.88-.61Z"/><path class="cls-1" d="M138.41,75.4a23.2,23.2,0,0,0-1.55,3.34,54.15,54.15,0,0,1-6.48,12.87c1.74,1.08,3.33,2.16,4.51,3l-4.28,5.5a53.38,53.38,0,0,0-4.37-3.34,44.92,44.92,0,0,1-17.34,11.71l-5.45-4.75A39.7,39.7,0,0,0,121,93.21c-3.2-2.07-6.39-4-8.79-5.36l4-4.46c2.49,1.27,5.69,3,8.84,4.93a34.36,34.36,0,0,0,4.89-10H116.42A55.23,55.23,0,0,1,104,90.44l-5.07-3.9a43.06,43.06,0,0,0,15-15.61A20.78,20.78,0,0,0,116,66l6.82,2.11c-1.13,1.65-2.35,3.81-2.92,4.8l0,0h9.63a14.85,14.85,0,0,0,4.09-.52Z"/><path class="cls-1" d="M170,101.81a43.83,43.83,0,0,0,4.32-.75c6-1.41,10.58-5.69,10.58-12.45,0-6.44-3.48-11.24-9.73-12.32a100.71,100.71,0,0,1-2.78,12.64c-2.77,9.4-6.81,15.14-11.89,15.14S151,98.38,151,90.53c0-10.71,9.35-19.92,21.43-19.92,11.52,0,18.8,8,18.8,18.18,0,9.78-6,16.73-17.76,18.52Zm-3.62-14.1a74.16,74.16,0,0,0,2.49-11.28c-7.71,1.6-11.8,8.37-11.8,13.49,0,4.7,1.88,7,3.62,7C162.62,96.92,164.5,94,166.38,87.71Z"/><path class="cls-1" d="M201.49,67.74h24.67V73.1H216c-.51,1.55-1.08,3-1.64,4.32h11.42v27c0,2-.28,3.25-1.5,4s-2.64.85-4.7.85a18.73,18.73,0,0,0-1.08-3.81h-3.11V82.21h-2.16v23.22h-3.62V82.21h-2.44v27h-4.51V77.42h6.67c.42-1.36.85-2.82,1.18-4.32h-9Zm19.69,14.47h-2.25V105h1.73c.38,0,.52-.14.52-.56ZM245,80.62h-3v22.6c0,2.77-.61,4.14-2.21,5.08s-3.95,1.08-7.28,1.08a22.79,22.79,0,0,0-1.88-5.27c2.21.1,4.32.1,5,.1s1-.24,1-1V80.62h-9.87V75.4h9.87V65.81H242V75.4h3Zm-13.53,3.71a33.32,33.32,0,0,1,3.8,10.29l-4.79,1.74a36.83,36.83,0,0,0-3.52-10.48Z"/><path class="cls-1" d="M293.51,100.82a41.33,41.33,0,0,1-5.5,3,43.9,43.9,0,0,0,9,1.41,14.78,14.78,0,0,0-2.73,4.22c-6.58-.7-11.47-2.34-15-5.31l.14,3c-6.25.75-12.78,1.55-17.67,2.16L260.9,105c1.31-.14,2.82-.28,4.46-.47V99.27h-4a18.73,18.73,0,0,1-5.17,9.78,18.12,18.12,0,0,0-3.9-3.43c4.32-4,4.84-9.54,4.84-13.68V86h37.27V89.5H262.07V92a30.58,30.58,0,0,1-.19,3.61h34.69v3.62h-6.11Zm-34.4-19.88h-4.93V72.67h17.71V71.08H257.37v-4H292v4H277.35v1.59h18.09v8.27h-5.17V76H277.35v9.12h-5.46V76H259.11Zm.52.71h10.81v2.77H259.63Zm10.76-4.23v2.77h-9.73V77.42ZM263.81,94.1V91h27.92V94.1Zm7.29,9.78,7.09-.8a19,19,0,0,1-2.86-3.81H271.1Zm17.57-26.46v2.77h-9.82V77.42Zm-9.82,4.23H289.8v2.77H278.85Zm1.46,17.62a11.69,11.69,0,0,0,3.76,3,48.74,48.74,0,0,0,4.65-3Z"/><path class="cls-1" d="M348.17,102.66V108H318.94v-5.31h12.55v-9.4h-9.07V88h9.07V80.33h-5.17a31.64,31.64,0,0,1-2.63,6.49,50.48,50.48,0,0,0-5-2.54c.47-.84.94-1.74,1.41-2.72l-2.68,1.22a32.58,32.58,0,0,0-1.79-5.41v32.1h-5.59V75.87a59,59,0,0,1-2.12,12.45l-4.13-1.5a55.83,55.83,0,0,0,2.3-12.22l3.95.56V65.58h5.59v8.88l2.73-1.13A54.2,54.2,0,0,1,321,79.25a56.52,56.52,0,0,0,2.49-11.46l5.46.75c-.33,2.21-.71,4.42-1.18,6.53h3.76V65.86h5.59v9.21h9.59v5.26h-9.59V88h8.6v5.22h-8.6v9.4Z"/><path class="cls-1" d="M374.35,68.68c2.31,3.38,4.8,7.85,5.69,10.9l-5.12,2.07a17.12,17.12,0,0,0-.85-2.49c-6.2.42-12.59.8-17.39,1.08l-.47-5.31c1.13,0,2.35-.05,3.67-.1a73.48,73.48,0,0,0,3.43-9.44l5.83,1.17c-1.08,2.73-2.35,5.55-3.53,8l6.25-.28c-.7-1.32-1.45-2.63-2.2-3.86Zm2.36,35.11c0,2.44-.48,3.8-2,4.6s-3.76.94-6.58.94a20.62,20.62,0,0,0-1.78-4.93c1.64.09,3.52,0,4.13,0s.76-.14.76-.71v-3.15h-7v8.88H359v-27h17.72ZM364.16,87.05V89.5h7V87.05Zm7,9.36V93.63h-7v2.78Zm16-9.73c-5.5,0-6.81-1.65-6.81-6.82V65.72H386v6.72a73.23,73.23,0,0,0,8.46-3.9l3.57,4A85.93,85.93,0,0,1,386,77v2.77c0,1.69.29,1.88,2.07,1.88h5.12c1.51,0,1.84-.71,2-4.79a15.68,15.68,0,0,0,4.94,2.06c-.61,6-2.07,7.76-6.39,7.76Zm6.21,17.58c1.59,0,1.92-.9,2.16-5.64a17.3,17.3,0,0,0,4.89,2.06c-.62,6.63-2,8.46-6.54,8.46h-6.67c-5.5,0-6.86-1.6-6.86-6.76V87.62h5.5V94a53.29,53.29,0,0,0,8.83-4.41l3.71,4.08a71,71,0,0,1-12.54,5v3.76c0,1.64.33,1.88,2.16,1.88Z"/></g></g></svg>