<svg xmlns="http://www.w3.org/2000/svg" viewBox="0 0 708.28 381.32"><defs><style>.cls-1,.cls-2,.cls-3{fill:none;stroke:#73c3c4;stroke-miterlimit:10;}.cls-1,.cls-3{stroke-width:3px;}.cls-1{stroke-dasharray:5;}.cls-2{stroke-width:2px;}.cls-3{stroke-dasharray:5 5;}.cls-4{fill:#73c3c4;}</style></defs><title>i-img1</title><g id="Layer_2" data-name="Layer 2"><g id="SVG"><path d="M26.7,14.73H19.35v9.15c0,2-.42,3-1.8,3.54s-3.39.63-6.21.63a13.38,13.38,0,0,0-1.26-3.63c1.95.09,4.17.06,4.77.06s.84-.15.84-.66V14.73H0V11.25H15.69V7.56h3.66v3.69H26.7ZM4.14,10H.51v-7H11.37V0h3.78V2.94H26.07V10H22.26V6.27H4.14Zm2,5.46a27.33,27.33,0,0,1,4.74,6L7.8,23.49a26.17,26.17,0,0,0-4.53-6.21Z"/><path d="M54.54,4.83q-1.08.68-2.07,1.35c-1.59,1.11-4.71,3.75-6.57,5.25a10,10,0,0,1,2.79-.33c5,0,8.88,3.15,8.88,7.47,0,4.68-3.57,8.4-10.74,8.4-4.14,0-7.26-1.89-7.26-4.86,0-2.4,2.19-4.62,5.34-4.62a6,6,0,0,1,6.33,5.07,4.33,4.33,0,0,0,2.43-4c0-2.67-2.7-4.47-6.15-4.47-4.56,0-7.53,2.43-10.71,6l-2.7-2.79c2.1-1.71,5.67-4.74,7.44-6.18s4.74-3.87,6.21-5.16c-1.53,0-5.61.21-7.17.33a19.61,19.61,0,0,0-2.43.24L38,2.64c.84.09,1.86.15,2.7.15,1.56,0,7.92-.15,9.6-.3a14.33,14.33,0,0,0,2.28-.3ZM47.82,23.52c-.18-1.92-1.29-3.18-2.91-3.18-1.11,0-1.83.66-1.83,1.41,0,1.11,1.26,1.86,3,1.86A15.66,15.66,0,0,0,47.82,23.52Z"/><path d="M92.13,13.14a54.5,54.5,0,0,1-5.52,3.63,15.29,15.29,0,0,0,6.69,6,15,15,0,0,0-2.49,3.09c-5.34-2.85-8.31-8.37-10-15.36h-.06a19.29,19.29,0,0,1-2.49,1.74c5.67,4.92,5.43,12.39,2.46,14.55A4.93,4.93,0,0,1,77,28.08,24.87,24.87,0,0,1,74.49,28a7.48,7.48,0,0,0-1-3.42c1.14.09,2.1.15,2.88.15a2.13,2.13,0,0,0,1.8-.63,3.92,3.92,0,0,0,1-3.36A46.26,46.26,0,0,1,67.68,26.7a15.38,15.38,0,0,0-1.86-3,34.5,34.5,0,0,0,12.51-6.06,11.7,11.7,0,0,0-.57-1.05,44.2,44.2,0,0,1-9.09,4.5,12.83,12.83,0,0,0-1.8-2.7,32.3,32.3,0,0,0,9.27-3.9c-.24-.24-.48-.48-.75-.72a44.75,44.75,0,0,1-7.11,2.55,21.15,21.15,0,0,0-1.83-2.79,36.26,36.26,0,0,0,9.18-3H71.25v-3H87.36v3H83.94A26.52,26.52,0,0,0,85.17,14a36.09,36.09,0,0,0,4.17-3.27ZM70.2,9.06H66.69V2.37h10.8V0h3.66V2.37h11V9.06H88.47V5.61H70.2Z"/><path d="M111.21,1.8c-.18.78-.39,1.71-.54,2.46-.15.9-.39,2-.6,3.06,1-.06,1.89-.12,2.49-.12,3.15,0,5.37,1.41,5.37,5.67,0,3.51-.42,8.25-1.68,10.83-1,2.07-2.64,2.73-4.89,2.73a16.58,16.58,0,0,1-3.54-.42l-.66-3.93a17.1,17.1,0,0,0,3.63.63A2.16,2.16,0,0,0,113,21.42c.84-1.65,1.23-5.19,1.23-8.13,0-2.37-1-2.7-2.91-2.7-.48,0-1.2.06-2,.12-1.14,4.5-3.3,11.49-6,15.87L99.36,25c2.91-3.9,4.92-9.84,6-13.89-1,.12-2,.24-2.55.33-.84.09-2.37.3-3.3.45l-.33-4a27.59,27.59,0,0,0,3.15,0c.93,0,2.34-.12,3.84-.24a32.89,32.89,0,0,0,.63-6.3Zm10.26,2.79a53.55,53.55,0,0,1,5.19,11l-3.75,1.77c-.78-3.3-2.91-8.67-5-11.31Z"/><path d="M139.5,14.25a14.57,14.57,0,0,1,8.73-2.82c5.22,0,8.25,3.21,8.25,6.81,0,5.43-4.29,9.6-16.65,8.52l-1.14-3.9c8.91,1.26,13.62-.93,13.62-4.71,0-1.92-1.83-3.33-4.44-3.33a10.42,10.42,0,0,0-8.19,3.48A6.44,6.44,0,0,0,138.57,20l-3.45-.87a108.17,108.17,0,0,0,1.47-12.39l4,.54C140.22,9,139.71,12.54,139.5,14.25Zm.93-12.9a94.05,94.05,0,0,0,11.88,2.31l-.9,3.66c-3-.39-9.63-1.77-11.94-2.37Z"/><path d="M171,27.48a56.31,56.31,0,0,0-6.45-6.63l3.12-2.7a56.23,56.23,0,0,1,6.54,6.57Z"/><path d="M209.7,14.73h-7.35v9.15c0,2-.42,3-1.8,3.54s-3.39.63-6.21.63a13.38,13.38,0,0,0-1.26-3.63c1.95.09,4.17.06,4.77.06s.84-.15.84-.66V14.73H183V11.25h15.69V7.56h3.66v3.69h7.35ZM187.14,10h-3.63v-7h10.86V0h3.78V2.94h10.92V10h-3.81V6.27H187.14Zm2,5.46a27.33,27.33,0,0,1,4.74,6l-3.06,2.07a26.17,26.17,0,0,0-4.53-6.21Z"/><path d="M225.24,1.41A48.51,48.51,0,0,0,224,7.56c1.41-2.28,4-4.8,7.35-4.8,4.14,0,7.35,4.05,7.35,10.59,0,8.4-5.16,12.42-13,13.86l-2.25-3.45c6.6-1,11.22-3.18,11.22-10.38,0-4.59-1.53-7.14-4-7.14-3.51,0-6.57,5.28-6.72,9.18a17.84,17.84,0,0,0,.15,3.15l-3.69.24a38.43,38.43,0,0,1-.36-4.95,72,72,0,0,1,.84-9.51c.15-1.08.21-2.28.24-3.12Z"/><path d="M252.21,18a27.54,27.54,0,0,1-1.77,7.74,15,15,0,0,0-2.61-1.26,21.86,21.86,0,0,0,1.53-7Zm3.48-2.43V28h-3.06V15.84l-4.17.33-.36-3.09,2.16-.12c.45-.54.9-1.14,1.35-1.77A27.61,27.61,0,0,0,248.19,7l1.74-2.4c.21.21.45.42.69.63A36.81,36.81,0,0,0,252.78,0l3.09,1.08a67.54,67.54,0,0,1-3.39,6.12,15.09,15.09,0,0,1,1,1.17,48.36,48.36,0,0,0,2.7-4.86l2.91,1.35c-1.65,2.52-3.69,5.49-5.58,7.89l2.61-.15c-.3-.66-.63-1.32-1-1.92l2.52-1.05a31,31,0,0,1,2.07,4.41V11.25h16.47v5.94h-3.12V14H262.68v3.18h-3v-.9l-2.07,1c-.09-.51-.27-1.11-.45-1.77Zm2.76,1.83A21.92,21.92,0,0,1,260,22.71l-2.64.87a23.85,23.85,0,0,0-1.38-5.4Zm4.86-1.92h3.21v2.4c0,3.09-.81,7.41-6.39,10.14a16.59,16.59,0,0,0-2.43-2.37c4.92-2.34,5.61-5.64,5.61-7.83ZM266,5.25H259.8V2.34H266V0h3.54V2.34h6.33V5.25h-6.33V7H275V9.87H260.88V7H266Zm7.35,19.47c.42,0,.57-.48.63-3.72a8,8,0,0,0,2.85,1.32c-.3,4.29-1.11,5.4-3.15,5.4h-1.92c-2.55,0-3.09-1-3.09-3.93V15.51h3.21v8.28c0,.81.06.93.45.93Z"/><path d="M288.84,2.16a23,23,0,0,0-.69,2.4c-.72,3.3-1.77,9.51-1,13.2.39-.9.9-2.34,1.38-3.42l1.89,1.17a74.55,74.55,0,0,0-2,7.26,6.94,6.94,0,0,0-.21,1.44c0,.3.06.81.09,1.23l-3.33.33a33.12,33.12,0,0,1-1.71-9.63,77.69,77.69,0,0,1,1-11.85,15.56,15.56,0,0,0,.18-2.58Zm19.05,8.64c-1.2.15-2.73.27-4.41.36v1.23c0,7-.54,11.31-6.45,15.09l-3.45-2.7a11.55,11.55,0,0,0,3.48-2.37c2.28-2.37,2.76-5,2.76-10V11.31c-1.11,0-2.25.06-3.33.06-1.29,0-3.12-.09-4.59-.15V7.44a31.2,31.2,0,0,0,4.5.3c1.08,0,2.22,0,3.36-.06,0-1.65-.09-3.18-.15-4a13.18,13.18,0,0,0-.33-2h4.35a15.11,15.11,0,0,0-.15,2c0,.66,0,2.19,0,3.81a38.87,38.87,0,0,0,4.47-.54Z"/><path d="M336.54,4.83q-1.08.68-2.07,1.35c-1.59,1.11-4.71,3.75-6.57,5.25a10,10,0,0,1,2.79-.33c5,0,8.88,3.15,8.88,7.47,0,4.68-3.57,8.4-10.74,8.4-4.14,0-7.26-1.89-7.26-4.86,0-2.4,2.19-4.62,5.34-4.62a6,6,0,0,1,6.33,5.07,4.33,4.33,0,0,0,2.43-4c0-2.67-2.7-4.47-6.15-4.47-4.56,0-7.53,2.43-10.71,6l-2.7-2.79c2.1-1.71,5.67-4.74,7.44-6.18s4.74-3.87,6.21-5.16c-1.53,0-5.61.21-7.17.33a19.61,19.61,0,0,0-2.43.24L320,2.64c.84.09,1.86.15,2.7.15,1.56,0,7.92-.15,9.6-.3a14.33,14.33,0,0,0,2.28-.3Zm-6.72,18.69c-.18-1.92-1.29-3.18-2.91-3.18-1.11,0-1.83.66-1.83,1.41,0,1.11,1.26,1.86,3,1.86A15.66,15.66,0,0,0,329.82,23.52Z"/><path d="M374.13,13.14a54.5,54.5,0,0,1-5.52,3.63,15.29,15.29,0,0,0,6.69,6,15,15,0,0,0-2.49,3.09c-5.34-2.85-8.31-8.37-10-15.36h-.06a19.29,19.29,0,0,1-2.49,1.74c5.67,4.92,5.43,12.39,2.46,14.55A4.93,4.93,0,0,1,359,28.08a24.87,24.87,0,0,1-2.55-.06,7.48,7.48,0,0,0-1-3.42c1.14.09,2.1.15,2.88.15a2.13,2.13,0,0,0,1.8-.63,3.92,3.92,0,0,0,1-3.36,46.26,46.26,0,0,1-11.46,5.94,15.38,15.38,0,0,0-1.86-3,34.5,34.5,0,0,0,12.51-6.06,11.7,11.7,0,0,0-.57-1.05,44.2,44.2,0,0,1-9.09,4.5,12.83,12.83,0,0,0-1.8-2.7,32.3,32.3,0,0,0,9.27-3.9c-.24-.24-.48-.48-.75-.72a44.75,44.75,0,0,1-7.11,2.55,21.15,21.15,0,0,0-1.83-2.79,36.26,36.26,0,0,0,9.18-3h-4.38v-3h16.11v3h-3.42A26.52,26.52,0,0,0,367.17,14a36.09,36.09,0,0,0,4.17-3.27ZM352.2,9.06h-3.51V2.37h10.8V0h3.66V2.37h11V9.06h-3.66V5.61H352.2Z"/><path d="M388.23,2.52a25,25,0,0,0-.72,2.64,73.45,73.45,0,0,0-1.44,10.89,14.34,14.34,0,0,0,.12,1.92c.42-1,.9-2,1.32-3l1.86,1.44a71.63,71.63,0,0,0-2.13,7.29,8.73,8.73,0,0,0-.18,1.38c0,.33,0,.81.06,1.23l-3.42.24a37.93,37.93,0,0,1-1.17-9.72,82.37,82.37,0,0,1,1.23-11.76,22.2,22.2,0,0,0,.3-2.91Zm7,14.67a9.78,9.78,0,0,0-.36,2.49c0,1.32,1.14,2.1,4.14,2.1a34.24,34.24,0,0,0,7.44-.78l.09,4a41.29,41.29,0,0,1-7.68.6c-5.13,0-7.56-1.86-7.56-4.89a18.31,18.31,0,0,1,.51-3.87ZM405.57,4.47V8.31a82.23,82.23,0,0,1-12.75,0l0-3.84A60.62,60.62,0,0,0,405.57,4.47Z"/><path d="M423,22.83A4.85,4.85,0,1,1,418.14,18,4.86,4.86,0,0,1,423,22.83Zm-2.16,0a2.69,2.69,0,1,0-2.7,2.67A2.69,2.69,0,0,0,420.84,22.83Z"/><circle class="cls-1" cx="201.93" cy="281.04" r="98.78"/><line class="cls-2" x1="161.67" y1="326.13" x2="242.18" y2="326.13"/><circle class="cls-1" cx="530.06" cy="209.65" r="170.16"/><path d="M157.77,235.12H169v2.44h-4.64c-.23.7-.49,1.37-.75,2h5.2v12.29c0,.92-.13,1.47-.69,1.79A3.77,3.77,0,0,1,166,254a8.49,8.49,0,0,0-.5-1.73h-1.41V241.71h-1v10.56h-1.65V241.71h-1.11V254h-2.05V239.53h3c.19-.62.38-1.29.53-2h-4.08Zm8.95,6.59h-1v10.34h.79c.17,0,.23-.06.23-.25Zm10.82-.73h-1.35v10.28c0,1.26-.27,1.88-1,2.31a7.32,7.32,0,0,1-3.31.49,10.56,10.56,0,0,0-.86-2.39c1,0,2,0,2.29,0s.45-.11.45-.45V241h-4.49v-2.37h4.49v-4.36h2.43v4.36h1.35Zm-6.16,1.69a15,15,0,0,1,1.74,4.68l-2.18.79a16.77,16.77,0,0,0-1.61-4.77Z"/><path d="M199.69,250.17a18.09,18.09,0,0,1-2.5,1.35,20.16,20.16,0,0,0,4.11.64,6.73,6.73,0,0,0-1.24,1.92c-3-.32-5.22-1.07-6.82-2.41l.06,1.34-8,1-.41-1.95,2-.21v-2.37h-1.84a8.53,8.53,0,0,1-2.35,4.44,8.29,8.29,0,0,0-1.77-1.56c2-1.79,2.2-4.34,2.2-6.22v-2.71h17V245H185.39v1.15a16,16,0,0,1-.08,1.65h15.77v1.65h-2.77Zm-15.64-9H181.8v-3.76h8.06v-.73h-6.6v-1.8H199v1.8h-6.67v.73h8.23v3.76h-2.35v-2.27h-5.88V243h-2.48v-4.15h-5.81Zm.23.32h4.92v1.26h-4.92Zm4.9-1.92v1.26h-4.43v-1.26Zm-3,7.58v-1.43h12.7v1.43Zm3.32,4.45,3.23-.36a9,9,0,0,1-1.31-1.73H189.5Zm8-12v1.26H193v-1.26ZM193,241.45h5v1.26h-5Zm.66,8a5.4,5.4,0,0,0,1.71,1.34,22.46,22.46,0,0,0,2.11-1.34Z"/><path d="M213.29,239.67h-8.36v-2h8.36ZM212.5,253H208v.84h-2.15v-7.29h6.62Zm-6.56-12.33h6.58v1.94h-6.58Zm0,2.93h6.58v1.9h-6.58Zm6.54-6.85H206V234.8h6.46ZM208,248.53V251h2.27v-2.45Zm16.87-1.69h-4.72v7.24h-2.5v-7.24H213v-2.42h4.73v-6.86h-4v-2.37h10.82v2.37h-4.34v6.86h4.72Zm-9-8.4a25.07,25.07,0,0,1,1,4.91l-2.13.52a26.2,26.2,0,0,0-.88-5Zm4.9,4.89a31,31,0,0,0,1.17-5.07l2.42.47c-.53,1.8-1.11,3.81-1.65,5.09Z"/><path d="M227.47,252.89a11.75,11.75,0,0,0,2.67-4.17l2.46.6a13.66,13.66,0,0,1-2.78,4.7Zm17.46-5H230.12v-7.42h6v-6.28h2.59V236h7.65v2.37h-7.65v2h6.24Zm-2.58-5.07h-9.82v2.72h9.82Zm-6.29,6.46a28.33,28.33,0,0,1,.6,4.4l-2.59.33a31.26,31.26,0,0,0-.42-4.49Zm4.28-.26a23.07,23.07,0,0,1,1.62,4.24l-2.46.64a26,26,0,0,0-1.49-4.36Zm4.29-.42a24.92,24.92,0,0,1,2.81,4.46L245,254a23.93,23.93,0,0,0-2.63-4.6Z"/><path d="M159.93,304.29h9v-26.5h-7.59v-5.15a27.16,27.16,0,0,0,9.74-3.51h6.17v35.16h7.87V311h-25.2Z"/><path d="M198.09,306.39a5.19,5.19,0,1,1,5.15,5.44A5.21,5.21,0,0,1,198.09,306.39Z"/><path d="M218.93,289.91c0-14.49,5.66-21.57,14.21-21.57s14.16,7.13,14.16,21.57-5.66,21.92-14.16,21.92S218.93,304.35,218.93,289.91Zm20.5,0c0-11.72-2.72-15.12-6.29-15.12s-6.34,3.4-6.34,15.12,2.72,15.4,6.34,15.4S239.43,301.69,239.43,289.91Z"/><line class="cls-2" x1="460.71" y1="287.33" x2="599.42" y2="287.33"/><path d="M451.36,130.55H470.7v4.2h-8c-.41,1.21-.85,2.36-1.29,3.39h8.95v21.18c0,1.58-.22,2.54-1.18,3.09a6.66,6.66,0,0,1-3.68.66,14.57,14.57,0,0,0-.85-3h-2.43v-18.2h-1.69v18.2H457.7v-18.2h-1.92v21.18h-3.53V138.14h5.23c.33-1.07.66-2.21.92-3.39h-7Zm15.44,11.34H465v17.83h1.36c.3,0,.41-.11.41-.44Zm18.64-1.25h-2.32v17.72c0,2.17-.48,3.24-1.74,4s-3.09.85-5.7.85a18.27,18.27,0,0,0-1.48-4.13c1.73.07,3.39.07,3.94.07s.78-.18.78-.77V140.64h-7.74v-4.09h7.74V129h4.2v7.51h2.32Zm-10.61,2.91a26.28,26.28,0,0,1,3,8.07L474.05,153a28.35,28.35,0,0,0-2.76-8.21Z"/><path d="M523.41,156.48a32.59,32.59,0,0,1-4.31,2.32,34.39,34.39,0,0,0,7.07,1.11,11.51,11.51,0,0,0-2.13,3.31c-5.16-.55-9-1.84-11.75-4.16l.11,2.32-13.85,1.69-.7-3.35c1-.11,2.21-.22,3.5-.37v-4.08h-3.17a14.7,14.7,0,0,1-4.05,7.66,13.88,13.88,0,0,0-3.06-2.69c3.39-3.1,3.79-7.48,3.79-10.72v-4.68h29.21v2.76h-25.3v2a25.78,25.78,0,0,1-.15,2.84h27.19v2.84H521Zm-27-15.58h-3.87v-6.48h13.89v-1.25H495.09v-3.1h27.14v3.1H510.74v1.25h14.18v6.48h-4V137H510.74v7.14h-4.27V137h-10Zm.4.55h8.48v2.18h-8.48Zm8.44-3.31v2.17h-7.63v-2.17Zm-5.16,13.07v-2.46H522v2.46Zm5.71,7.67,5.56-.63a15.1,15.1,0,0,1-2.24-3h-3.32Zm13.78-20.74v2.17h-7.7v-2.17Zm-7.7,3.31h8.58v2.18h-8.58Zm1.14,13.82a9.36,9.36,0,0,0,3,2.32,42.16,42.16,0,0,0,3.64-2.32Z"/><path d="M546.65,138.4h-14.4v-3.47h14.4Zm-1.36,22.91h-7.7v1.43h-3.72V150.18h11.42ZM534,140.05h11.34v3.35H534Zm0,5h11.34v3.28H534Zm11.27-11.79H534.13V130h11.12Zm-7.66,20.34v4.23h3.9v-4.23Zm29.06-2.92h-8.14v12.49H554.2V150.73h-8.14v-4.16h8.14V134.75h-6.85v-4.09H566v4.09h-7.48v11.82h8.14Zm-15.47-14.47a44.1,44.1,0,0,1,1.66,8.47l-3.69.89a43.6,43.6,0,0,0-1.51-8.62Zm8.44,8.43a53.76,53.76,0,0,0,2-8.73l4.16.81c-.92,3.1-1.91,6.56-2.83,8.77Z"/><path d="M570.83,161.16a20.33,20.33,0,0,0,4.6-7.18l4.24,1a23.61,23.61,0,0,1-4.79,8.1Zm30.09-8.69H575.4V139.68h10.31V128.85h4.46v3.25h13.18v4.09H590.17v3.49h10.75Zm-4.45-8.73H579.56v4.67h16.91Zm-10.83,11.12a49.22,49.22,0,0,1,1,7.59l-4.46.55a52.9,52.9,0,0,0-.73-7.73Zm7.36-.44a39.36,39.36,0,0,1,2.8,7.29l-4.23,1.11A45.81,45.81,0,0,0,589,155.3Zm7.41-.74a42.94,42.94,0,0,1,4.82,7.7L601,163a41.55,41.55,0,0,0-4.53-7.92Z"/><path d="M453.76,249.72h15.51V204.08H456.2V195.2c7.22-1.37,12.2-3.22,16.78-6h10.63v60.57h13.56v11.61H453.76Z"/><path d="M519,253.33c0-5.27,3.8-9.36,8.87-9.36s9,4.09,9,9.36-3.81,9.36-9,9.36S519,258.6,519,253.33Z"/><path d="M555.69,252.84l6.64-9.17c4.09,4,9.16,7.32,15.89,7.32,7.51,0,12.78-4.78,12.78-13.27s-4.88-13.06-12.19-13.06c-4.29,0-6.63,1.07-10.83,3.8l-6.53-4.29,1.95-35H602v12H575.79l-1.37,15.31a18.73,18.73,0,0,1,8.68-2.05c12.09,0,22.24,7.22,22.24,22.92,0,16.1-11.9,25.36-25.26,25.36C568.67,262.69,561.06,258.21,555.69,252.84Z"/><polyline class="cls-3" points="200.31 155.26 200.31 93.39 331.67 93.39"/><path class="cls-4" d="M315.27,104.91a1.2,1.2,0,0,1,.37-1.66l15.48-9.86-15.48-9.86a1.2,1.2,0,1,1,1.29-2L334,92.38a1.2,1.2,0,0,1,0,2l-17.07,10.88a1.3,1.3,0,0,1-.65.18A1.18,1.18,0,0,1,315.27,104.91Z"/><polygon class="cls-4" points="687.29 29.79 658.75 57.35 685.13 27.71 687.29 29.79"/><polygon class="cls-4" points="708.28 58.38 673.54 70.69 707.17 55.59 708.28 58.38"/><polygon class="cls-4" points="658.31 8.9 644.76 43.17 655.48 7.91 658.31 8.9"/></g></g></svg>