<svg xmlns="http://www.w3.org/2000/svg" viewBox="0 0 612.52 117.77"><defs><style>.cls-1{fill:#85cbcb;}</style></defs><title>i-text1</title><g id="Layer_2" data-name="Layer 2"><g id="SVG"><path class="cls-1" d="M562,41.22c.27-.13.12-.43-.63-.37l-.53.5Z"/><path class="cls-1" d="M556.94,40.3c-.88.24-1.89.66-1.32,1.12.87-.48,1.08-.28,2-.85.75-.06,1.31.16,1.18.34.26-.13,1.16.11,1.56-.2a5.78,5.78,0,0,0-3.49-.08C556.61,40.52,556.87,40.39,556.94,40.3Z"/><path class="cls-1" d="M483.94,39.52l.47.06A2.85,2.85,0,0,0,483.94,39.52Z"/><path class="cls-1" d="M438.71,39.25c.35,0,.49-.06.51-.11C438.9,39.18,438.64,39.21,438.71,39.25Z"/><path class="cls-1" d="M431,38.7l.46,0A1,1,0,0,0,431,38.7Z"/><path class="cls-1" d="M483.94,39.52l-1.21-.15C482.65,39.53,483.35,39.49,483.94,39.52Z"/><path class="cls-1" d="M546.87,41.49a3.09,3.09,0,0,0,.66-.13l-.62.06A.25.25,0,0,1,546.87,41.49Z"/><path class="cls-1" d="M503.88,39.12h.37l.3-.2Z"/><path class="cls-1" d="M519.18,39c-.35,0-.47.41-.6.59a1.33,1.33,0,0,1,.76-.29A.46.46,0,0,0,519.18,39Z"/><path class="cls-1" d="M543.44,39.79l.43-.06C543.76,39.75,543.57,39.76,543.44,39.79Z"/><path class="cls-1" d="M492.93,39a.34.34,0,0,0-.14-.15S492.84,39,492.93,39Z"/><path class="cls-1" d="M65,42.2s0-.05,0-.08S64.84,42.19,65,42.2Z"/><path class="cls-1" d="M47.22,40.11l.24,0a.71.71,0,0,0,.06-.24Z"/><path class="cls-1" d="M416.86,38.16h.06C417.29,38.12,417.08,38.13,416.86,38.16Z"/><path class="cls-1" d="M287.12,38.47c1.47.38-2.39.49-.18.91C286.74,39.21,289,38.72,287.12,38.47Z"/><path class="cls-1" d="M546.47,41.44c-.2,0-.41,0-.62,0A3.12,3.12,0,0,0,546.47,41.44Z"/><path class="cls-1" d="M286.94,39.38h0l.23,0Z"/><path class="cls-1" d="M384.3,38.42a.84.84,0,0,0,.33.18S384.54,38.5,384.3,38.42Z"/><path class="cls-1" d="M408.55,39,408,39A5.26,5.26,0,0,0,408.55,39Z"/><path class="cls-1" d="M371.7,39a2.75,2.75,0,0,0-.88,0L371,39A1.35,1.35,0,0,1,371.7,39Z"/><path class="cls-1" d="M358.59,39a1.7,1.7,0,0,0,.24.09l.42,0Z"/><path class="cls-1" d="M104.8,42a2,2,0,0,1-.61-.37C104.39,41.91,102.47,42,104.8,42Z"/><path class="cls-1" d="M546.86,41.26a.48.48,0,0,1-.39.18l.44,0C547,41.35,547,41.29,546.86,41.26Z"/><path class="cls-1" d="M371.17,42.34l-2.09-.07C369.67,42.32,370.42,42.34,371.17,42.34Z"/><path class="cls-1" d="M198.85,41.93l-.48,0A1.2,1.2,0,0,0,198.85,41.93Z"/><path class="cls-1" d="M362.9,42.34a4.56,4.56,0,0,0-1.17-.29,1.08,1.08,0,0,0-.24.1Z"/><path class="cls-1" d="M104.19,41.61h0Z"/><path class="cls-1" d="M90.47,42.61c2,0,.93-.54,1.35-.86,2.37-.16,1.1.41,1.9.69,1.48-.14,2.62-.65,3.72-.63.08.09.3.12,0,.24,1.56-.44,4.64,0,6.46-.58a.67.67,0,0,1,.24.14.74.74,0,0,1-.28-.76c.89,0,1.65-.35,2,0a1.28,1.28,0,0,0-.84.25L106,41c.84.52-1.27.18-1.27.57a33.47,33.47,0,0,1,5.33-.45c.29.51-3.26.17-1.4.62l-2.16-.19c1.65.8-1.31-.06.21.8,2.83.15,3.17-.26,6-.11.63-.28-.21-.42.42-.7,4-.51,3.17,1.28,6.13.6a3.61,3.61,0,0,1,3.16-.64l-.71.57c2.74.06,1.56-.83,4.44-.44-.51.23-2.16.19-1.74.26,1.86.46,1.32-.33,2.75-.33l.29.51c2.93-.08,6.15-.44,9.39-.54-.18.15-.74.31,0,.47a94.94,94.94,0,0,1,12.66.36l1.5-.44c.35,0,.65.2.27.29,1.54.17.08-.28.82-.45s1.15.25.6.38c2.71-.37,7.72-.8,10.57-.33l-.55.13c2.22.18,2.5-.9,4.57-.49l-.4.08c4.82.19,10.16-.22,13.84.45.7-.64,4.77.28,5.08-.6a38.61,38.61,0,0,0,5.85.89c1,0,1.54-.55,2.82-.65l0,.47,1.74-.49.93.55,1.2-.12c-.48,0-1-.2-1-.34,1.88-.21,4.58.33,4.63.56l4.44-.39c-.1.19-.85.25-1.43.37,2.37-.47.43.49,2.6,0-.29-.1.16-.27.2-.36a22.67,22.67,0,0,0,5.37.16l-.34.32c3.29.08,6.94-.15,10.63-.15-1.32-.15-1-.7.07-.75l.43.49c.7-.31-1.13-.19.3-.56,1.39.06.93.56.14.72l1.68-.17c.1.14-.3.22-.4.41.69-.31,2.9.49,3.89,0l.1.14c3.69,0,5.37-.16,8.38-.18.06-.43,1.23-.33,2.13-.67,2.21.13,4.67.46,7.33.43,1.87-.21.55-.36,1.39-.61.14.38,2.8.35,1.42.62,3.2-.06,4.08-.07,8.13-.38-.44-.16-.93-.23-.68-.36.74-.06,1.67.16,1.57.34l-.2,0c4.55-.57,10.48,1.12,14.1.32l-.2,0,3.75-.41c1.72.06-1,.28.24.52,4-.64,6.39.09,9.72-.33,2.58,1.13,9.15-.08,12.63.64l-.2-.27c.9-.26,1.09.16,1.75.22-.09-.21-1-.24-.42-.39,7.62-.32,15.73.39,23.54.63,2.86.08,1.62-1.38,5.22-.74l-1,.5c5.77-.6,11.79,0,17.43-.49-.33.12-.34.27-.89.26,1.19.36,4.41,0,4.43-.27.88,0,.2.26.74.41,1.2.21,3-.46,3.64-.1.11.06-.34.12-.56.15.78-.18,3.63,0,2.89-.38,2.12.2,4.05-.18,5.74.07,1.1-.47,3.63.22,4-.44-.15.68,3.71.55,5.05.23-.45.21,1.17.21.64.5,1.53,0,2.93-.14,2.66-.49,2.82.81,5.66-.65,7.25.39,4.54-.36,8.74-.61,12.83-.77-.15.68-4.52.07-4.34.78,3.87-.28,6.11-.86,9.95-.7,1,.09-.57.3-.9.41,3.87-.28,7.48.06,10.93-.31,0,.07-.38.14-.74.19.68,0,1.58.1,1.51-.21l-.66.08c-1.09-.44,2.69-.93,2.81-1.17-1.15.89,3.4.23,1.57,1.34.45-.06,1-.2.91-.41.66.06.87.18.2.41,2.43-.16,1.57-.49,3.77-.48,0,.15-.45.2-.68.38a11.49,11.49,0,0,1,4.1-.46c-.11.09.1.21-.45.21,3.2-.05,5.45-.78,9-.5-1,.65,1.19.22,1.37.78l1.89-.17-.76-.27c1.66,0,3.12-.4,4.54-.22l-1.23.23,3.09-.1-1.75-.21c1.67-.29-.18-.71,2-.56a19.51,19.51,0,0,1,2.52.34h0a8.15,8.15,0,0,1,2.88-.23c.32.18-.25.62-.05.74.81-.46,3.87-.13,4.89-.63-.34.12-.36.42-.24.48l.67-.38c.77.12.88.18.76.41,2.3.07-.74-.71,2-.4a3.8,3.8,0,0,1-.56.14c2.74.16,5.3-.24,7.82,0,.75.56-2.2.14-1.35.61,3.64-.1,7.53-.67,11.05-.54l-.66-.06c.49-.8,2.62.39,4.4,0-.43.06-.57.45-.45.36a80,80,0,0,0,8.58-.45l-.46.21c1.42.18,3.74.1,5.28.19.45-.2,1.33-.17.8-.46,4.73,1.16,9-.63,13.21.34-.5,0-1.19.18-.79.18l3.57-.19c-.28-.34-.47-.21-1.22-.48a7.06,7.06,0,0,1,2.35-.36c-1.61.23,0,.55.71.75-.12-.11.12-.23.06-.33,1.87.61.31-.7,2.86-.29l-.13.19a17.54,17.54,0,0,1,2.86-.29c.43.41-1,.19-1.08.52,1.44,0,2.85-.76,4.16-.36-.62.11-1.5.12-2.11.23a7.05,7.05,0,0,0,2.65.42h-.11l2.45.21-.63-.12c1.81-1.05,3.69-.19,6.12-.88-2.36.65-.39.38-.57.83.62.13,1.57.27,1.3.4,1.15-.37,1.92.29,3.55-.25.07.15,1.23,0,1,.38,1.49-.11-.36-.25-.23-.44,2.31-.5,5.42.61,8.74-.08,2.86-.28,3.39-.77,6.05-1,.9.24-.73.53-.73.53a13,13,0,0,0,3.89,0c-.27.13,0,.24.43.4,1.09,0,.73-.53,2.17-.31a4,4,0,0,1-1.09.58c1.29-.13,2.56-.4,3.89-.54.36.26-.8.39-1.27.56,1.5-.12,3.88-.23,4.35-.64l-1-.14c.55,0,.29.34-.12.42-1.28.31-1.85-.14-1.92-.29l1-.09c-1-.86-3.82.14-5.73.09l.79-.63-2,.52c-.41-.16-.7-.51.24-.6-1.37-.31-1.21.22-2.39-.13-.13,0-.07-.08.05-.1L542.1,40c.26-.13-.22-.44.6-.35-2.4-.36-3.88.47-4.78,0l.2,0c-3.34.21-.32.46-2.82,1l-1.69-1.13-.33.46c-.34,0-1,0-.9-.23-1.28.31.22.2-.52.49-1.66-.41-4.57.2-4.94-.53-.6.35,1.58.27-.19.51-.5-.79-2,.13-3.56-.23.47-.4,1.9-.19.39-.55-.91.69-2.95-.15-4.22,0-.06.55-2.78.23-4.92.41.13-.18-4-.3-6-.5l.06-.09c-.38.55-2.44.45-3.94.56.06-.33.33-.46,1.14-.6h-1.4a4.16,4.16,0,0,1-1.69.33l.36-.41c-1.88,0-3.78.48-6.19.21-.13.38,1.92,1.07-.63,1.33-.09-.21-.19-.57.48-.65a3.68,3.68,0,0,1-1.22.08l1-.35c-1.1-.15-.57.29-1.45.26,0-.29-.65-.21-.52-.44a4.47,4.47,0,0,0,1.1,0,8.28,8.28,0,0,1-2.58-.45c.08.17,0,.4-.73.44-1.87,0-.64-.36-1.73-.51-.45.2-1.65,0-1.68.43a1.2,1.2,0,0,1-.86-.33c-1,.2-4.53.06-3.44.53l.25,0-.16,0h0c-3.17.44-6.6-.25-9.75-.06v-.15a53.81,53.81,0,0,0-5.54.42c-.55,0-1.31-.27-1.07-.45a12.51,12.51,0,0,1-3.68,0c1.45-.26-.5-.23,1.48-.19a11.48,11.48,0,0,0-4.29,0c.68-.38-1.41-.48-2.3-.37l1.31.27a25.29,25.29,0,0,1-2.76,0l.48-.5c-3.83-.6-6.9,1-9.81,0-1,.35,2.08.25,1.17.66a35.79,35.79,0,0,1-4.14-.79c-2.41-.28-2.25.73-4.77.54.32.18.63.65-1.26.82-1.76-.06-2.16-.75-1.05-.89.42,0,.63,0,.61.1.57-.06,1.31-.14.62-.33l-.23.18c-.88-.18-3.3-.17-2.73-.46-1.33.17-.57.29.42.39-2.26-.26-3.53,0-5.85-.18.36.09.71.3.34.3-3.41-.22-1.5.34-3.81.42-1.32-.27.47-.65-1.86-.42-1.42-.19-.3-.48.27-.62-2.12.34-4-.23-5.17-.29l1.11-.14a13.87,13.87,0,0,1-1.77.08l.64.36c-.66-.07-1.21-.07-1.2-.22-.67.24.52.6-.82.91-.87-.18-2.66.2-3-.27,2.74.16-.31-.48,2-.55a8.29,8.29,0,0,1-1.65,0c-.1-.06.09-.1.27-.13-2.63-.42-1.21.54-3.93.53.34-.27-.64-.51-1.08-.45,1.1,0,.52.44-.48.65a11.14,11.14,0,0,0-2.82.13l1.05.09a6.64,6.64,0,0,1-2.45.32c-.1-.21,1.11-.14.67-.24-1.35.47-3.05-.48-4.94-.16-.87-.18-.08-.51-.85-.63-2.11.35-2.29-.36-4.51-.08.64.36.75.27-.81.62l3.65-.25-2.34.52c1.1,0,2.32-.22,3-.16-1.11.29-1,.2-.47.5-1.51-.54-3,.31-4.73,0l.05-.89c-2.62-.39-4.65.46-8.06.23l1.1.16c-.46.35-2.1,0-3.21.19.11-.3-.58-.41-1.05-.59.05.22-2.49,0-2.8.57l-1.52-.39c-2.75-.16-3.14.85-5.78.74.8-.32-.4-.53,1.37-.76-.88,0-1.68,0-1.69.15-.52-.18-2.45.4-3.26.12a2.35,2.35,0,0,1-1.48.41c-.11-.06,0-.14,0-.14s-1.55.2-.68.52c-2.72-.92-7.59.07-10-.72-1.92.1-4.24.19-6,.21.11-.08,0-.14.34-.11-2.41-.28-1.48.85-4.22.54-1.41-.48,1.45-.26.58-.44-.38-1-3.31.13-5.16-.44l.45,0c-1.41-.33-3.44.37-5.75.3,0,0,.12-.09,0-.15a35.85,35.85,0,0,1-6.78.8c.69-.38,1-.2.59-.59-1,0,.29.62-1.7.73-.64-.21-2.07-.39-2.26-.8l1.87,0c-1-.53-2.42,0-3.41-.07l.13-.24c-2.87.08-2.91.67-6,.63l.32.18c-1.69.58-1.42-.33-3.1.1l-.5-.59c-1.12.14-3.9.57-5.89.68a35.38,35.38,0,0,1,4.9-.92,18.26,18.26,0,0,0-4.31.33,5,5,0,0,1,1.44-.11,16.37,16.37,0,0,1-5.33.69c.39-1.15-5.72-.29-7.31-1.18-3.88.42-7.71-.19-12.23-.12,1.6.9-1.32,0-1,.95a5.14,5.14,0,0,1-1.55,0l-3.2-.55c-.75-.27,1-.2.91-.41-2.31-.07-1-.39-2.5-.63.32.33-.8.47-2.11.35l1.85.42c-3.23.49-2.79-.77-6-.29l1-.29c-1.67.17-6.15,0-7.79.73-.29-.1-.68-.35,0-.42-4-.11-8.87.79-12,.33l.3-.22a5.46,5.46,0,0,1-2.22.19c.05-.09.3-.22,0-.23a11.49,11.49,0,0,1-3,.26l.84-.25c-3.88-.3-6,.61-9.22.76,0-.66-3.05-.87-4.58-1l.05-.09c-4.52-.08-7.69.55-11.88.81-2.6-.72-8.81-.3-13-.71.64.12-.1.52-.84.58-1-.13-2.72.46-2.56-.14h.35c-.74-.6-2.76-.44-4.33-.45l-.26.79c-4.12-1.15-10.8.42-13-.61-1,.2-2.22.2-3.21.39l.06-.42c-2.76-.11-4.13-.16-7.54-.06l.7-.31c-1.93,0-2.43,1.23-4.2,1.25l-.53-.63c-3.35,0-6.75-.55-10.06,0,.06-.09.16-.28.7-.3-1.58,0-6.1-.43-5.53.44,0-.57-3.46-.06-5.26.19l.28-.42a9.42,9.42,0,0,1-3.71.83c-.51,0-.44-.33.23-.23-1.69-.21-1.32.4-3.36.18l.76-.27a4.73,4.73,0,0,0-2.55.42c-1.09.17-3.28-.1-3.54-.48a3.36,3.36,0,0,1-2.2.43c-.14-.14.23-.23.42-.28-2.9-.28-4.31.49-6.3.08,0-.14-.17-.21-.34-.25,2.3,0,4.16,0,4,.06,0-.38-1.86-.45-.38-1a23,23,0,0,1-5.85.74.78.78,0,0,1-.24-.13l.18,0a3.85,3.85,0,0,0-1.14.07,11.21,11.21,0,0,0-1.5-.12c-.22-.32-2.13-.17-3.06-.19.07.42-1.14.36,0,.7-.15,0,.17-.05.79-.06a3.14,3.14,0,0,0,.39,0,.15.15,0,0,1-.06,0l2.31,0a4.55,4.55,0,0,1-2.53.16c-.47.27-1,.55-1.29.68-1.27-.59-3.72-.9-4.06-1.27-2.83.24-6.66.16-8.44,1-.81.1-.93-.23-1.23-.35a9.15,9.15,0,0,0,1.27-.18c-1.61.2-4.77.08-5.15.63-2-.25,1.14-.51-1.65-.42l.37-.17c-5.48-.88-8.91,1.42-15,.28.42.07.63.1.72.19-6.93-.5-14.28.47-21.12-.32a7.11,7.11,0,0,0-3.34.46l-.42-.45-2,.52c-2.88.38-5-1.11-8.62-.39l.47.31c-1.31-.06-4.15.18-3.93-.17a1.1,1.1,0,0,1-.94.16l0-.24-3.21.41c-2.49-.18.39-.94-3.24-1-1.35.09-3.85.69-3.34.85s1.39.15,1.43.38l-1.24.13c-.22.69-1.17,1.41,1.86,1.9l2.12-.43.68.34-1.78,0a3.54,3.54,0,0,0,2.36-.16,1.57,1.57,0,0,0,.89.38l2.07-.67c.26.27-.93.54.47.69,1-.31-.94-.61.67-.81,1,.31.72.57,1.91.3.16.18-.09.3-.56.38,1.06-.22,2.8-.1,3.34-.47,1.06.39,3.57-.1,3.46.56a10.62,10.62,0,0,1,2.84-.54c-1.78.79,3.63,0,3.16.89,1.31-.71,4.74-.32,7.06-.71a1.08,1.08,0,0,1-.59.13A14.94,14.94,0,0,1,80,42.3c.17-.59,2.2-.72,3.3-1.08,1.6.56-1,.69-.47,1.23C82.7,42,85.57,42,85,41.58c1.23.35,1.06.17,1.69.66.21-.74,1.14-.13,2.16-.58,1.77.36.45.69,2.4.47C92.2,42.35,90.47,42.61,90.47,42.61Zm46.35-1.27h0l-.95,0Zm3.9,0H139c-.14-.15,0-.3.4-.29C139.22,41.13,140.14,41.21,140.72,41.33Zm-8.24-2.92c.61-.06.82,0,.91.11l-1.08,0-.08,0A.67.67,0,0,1,132.48,38.41Z"/><path class="cls-1" d="M131.37,39l-.25,0,.36.09.22-.13Z"/><path class="cls-1" d="M484.49,39.59h-.08a.56.56,0,0,1,.17.06Z"/><polygon class="cls-1" points="194.51 42.14 194.5 42.03 194.16 42.13 194.51 42.14"/><path class="cls-1" d="M506,41a.81.81,0,0,0,.28.11S506.1,41.08,506,41Z"/><path class="cls-1" d="M515.22,41.13l1.31.15C516,41.2,515.55,41.16,515.22,41.13Z"/><path class="cls-1" d="M522.34,41.34a.4.4,0,0,0,.14-.18h0Z"/><path class="cls-1" d="M409,41.84l-.27,0C408.13,41.94,408.56,41.91,409,41.84Z"/><path class="cls-1" d="M442.76,40.85c-.36.08-.71.15-1.08.2C442.28,41.08,442.74,41.09,442.76,40.85Z"/><path class="cls-1" d="M371.4,42.34Z"/><path class="cls-1" d="M440.11,41a5.51,5.51,0,0,0,1.57,0A9.15,9.15,0,0,0,440.11,41Z"/><path class="cls-1" d="M553.22,41.53l.35,0s0,0,0-.07Z"/><path class="cls-1" d="M553.61,41.48l.38,0A.85.85,0,0,0,553.61,41.48Z"/><path class="cls-1" d="M554.79,41.33l-.8.1A1.66,1.66,0,0,0,554.79,41.33Z"/><path class="cls-1" d="M543.79,41.34l-.11.15A.19.19,0,0,0,543.79,41.34Z"/><path class="cls-1" d="M540.93,41.38a14.56,14.56,0,0,0,2.66.23l.09-.12C543.24,41.72,541.57,41.12,540.93,41.38Z"/><path class="cls-1" d="M529,39.49l2.4.12c-.42-.16-1-.38.12-.42C528.46,38.71,532.11,39.56,529,39.49Z"/><path class="cls-1" d="M521.51,39.26c1.29-.08,0-.24.06-.33C520.75,39.08,520.55,39.11,521.51,39.26Z"/><path class="cls-1" d="M467.69,39.25l.13-.38C466.82,38.93,467.81,39,467.69,39.25Z"/><polygon class="cls-1" points="457.4 41.24 458.37 41.48 458.83 41.12 457.4 41.24"/><polygon class="cls-1" points="451.32 38.5 451.75 38.45 450.1 38.59 451.32 38.5"/><path class="cls-1" d="M360.92,38.64l.3.47C361.9,39,362,38.5,360.92,38.64Z"/><path class="cls-1" d="M321.9,39.12a3.42,3.42,0,0,0-2.2-.15C320.58,39,321.45,39.18,321.9,39.12Z"/><polygon class="cls-1" points="204.86 38.35 205.64 38.19 204.16 38.33 204.86 38.35"/><path class="cls-1" d="M415.12,39.22c-.08.13,0,.42.18.36l.16-.49Z"/><path class="cls-1" d="M416.59,40.14A1.08,1.08,0,0,0,417,39c-.25.48-.31.28-.59.85a.29.29,0,0,1-.34-.35c-.08.13-.34-.11-.46.21a.63.63,0,0,0,1,.08C416.68,39.92,416.6,40.05,416.59,40.14Z"/><path class="cls-1" d="M437.87,40.91l-.13-.06A.2.2,0,0,0,437.87,40.91Z"/><path class="cls-1" d="M451.07,41.19c-.11,0-.15.06-.15.1S451.09,41.23,451.07,41.19Z"/><path class="cls-1" d="M453.32,41.73l-.14,0C453.24,41.74,453.29,41.77,453.32,41.73Z"/><path class="cls-1" d="M437.87,40.91l.36.16C438.25,40.91,438.05,41,437.87,40.91Z"/><path class="cls-1" d="M419.52,38.94a.59.59,0,0,0-.19.13l.18,0S419.52,39,419.52,38.94Z"/><path class="cls-1" d="M432.06,41.32H432a1.29,1.29,0,0,0-.09.2Z"/><path class="cls-1" d="M427.6,41.39c.1,0,.13-.4.17-.59,0,.18-.13.26-.22.29A.93.93,0,0,0,427.6,41.39Z"/><path class="cls-1" d="M420.52,40.65l-.12.06Z"/><path class="cls-1" d="M435.25,41.41a1.55,1.55,0,0,0,0,.15A.24.24,0,0,0,435.25,41.41Z"/><path class="cls-1" d="M560.07,38.24v.07S560.1,38.24,560.07,38.24Z"/><path class="cls-1" d="M565.24,40.33l-.07,0a1.93,1.93,0,0,0,0,.24Z"/><path class="cls-1" d="M457.44,42.27h0C457.31,42.31,457.37,42.3,457.44,42.27Z"/><path class="cls-1" d="M495.28,42c-.43-.37.69-.48.05-.9C495.39,41.22,494.74,41.72,495.28,42Z"/><path class="cls-1" d="M419.64,39h.18A.33.33,0,0,0,419.64,39Z"/><path class="cls-1" d="M495.33,41.06h0l-.07,0Z"/><path class="cls-1" d="M466.94,42a.52.52,0,0,0-.1-.18S466.86,41.93,466.94,42Z"/><path class="cls-1" d="M459.86,41.42l.18.06A.38.38,0,0,0,459.86,41.42Z"/><path class="cls-1" d="M470.61,41.42c.09,0,.13.1.26,0l0-.05C470.78,41.46,470.72,41.49,470.61,41.42Z"/><path class="cls-1" d="M474.43,41.42l-.07-.08-.12,0Z"/><path class="cls-1" d="M548.45,38.44a1.46,1.46,0,0,1,.18.38C548.57,38.52,549.13,38.41,548.45,38.44Z"/><path class="cls-1" d="M419.52,39.18c0-.11.06-.16.12-.18l-.13,0A.28.28,0,0,0,419.52,39.18Z"/><path class="cls-1" d="M470.76,38.1l.61.06A2.8,2.8,0,0,0,470.76,38.1Z"/><path class="cls-1" d="M521,38.5l.14,0A.13.13,0,0,0,521,38.5Z"/><path class="cls-1" d="M473.17,38.1a.92.92,0,0,0,.35.29.52.52,0,0,0,.07-.11Z"/><path class="cls-1" d="M548.63,38.82Z"/><path class="cls-1" d="M552.63,37.82c-.58,0-.27.55-.4.86-.69.16-.32-.4-.55-.69-.43.15-.76.66-1.08.64,0-.1-.09-.13,0-.24-.45.44-1.35,0-1.88.57a.31.31,0,0,1-.07-.14,2.17,2.17,0,0,1,.08.77c-.26,0-.48.35-.58,0,.16,0,.17-.13.25-.25l-.28.16c-.24-.52.38-.18.38-.56-.53.17-1.15.6-1.56.45-.08-.51,1-.17.41-.63l.63.2c-.48-.8.38.06-.06-.8-.83-.15-.93.26-1.75.11-.19.28.06.42-.13.7-1.17.51-.92-1.28-1.78-.6-.22.34-.31,1-.93.64l.21-.58c-.8,0-.45.83-1.29.44.15-.22.63-.19.51-.26-.55-.45-.39.33-.81.33l-.08-.51c-.85.08-1.79.45-2.74.54,0-.15.22-.31,0-.46a8.42,8.42,0,0,1-3.69-.37l-.44.44a.16.16,0,0,1-.07-.28c-.45-.17,0,.28-.24.45a.22.22,0,0,1-.18-.39c-.79.38-2.25.81-3.08.34l.16-.13c-.65-.18-.73.9-1.33.49l.11-.08c-1.4-.19-3,.21-4-.45-.21.63-1.39-.29-1.48.6-.81-.44-.58-.6-1.71-.89-.3,0-.45.55-.82.64V38.4l-.51.49-.27-.56-.35.12c.14,0,.3.21.28.34a1.23,1.23,0,0,1-1.35-.56l-1.3.39c0-.18.25-.25.42-.36-.69.47-.13-.49-.76-.06.09.11,0,.28-.06.37a2,2,0,0,0-1.57-.16l.11-.32c-1-.08-2,.15-3.11.14a.41.41,0,0,1,0,.76l-.13-.49c-.21.3.33.18-.09.55-.4,0-.27-.55,0-.71l-.49.17c0-.15.09-.22.12-.41-.2.3-.85-.49-1.14,0l0-.15c-1.07,0-1.56.16-2.44.19,0,.42-.36.33-.62.67a7.89,7.89,0,0,0-2.14-.43c-.55.21-.16.36-.4.61,0-.39-.82-.35-.42-.63a9.3,9.3,0,0,0-2.37.39c.13.16.27.23.2.36s-.49-.16-.46-.35l.06,0c-1.33.58-3.06-1.12-4.11-.32l.06,0-1.1.42c-.5-.07.3-.29-.07-.53-1.18.64-1.86-.09-2.83.34-.76-1.14-2.67.08-3.69-.65l.06.27c-.26.26-.32-.15-.51-.21,0,.2.29.24.12.38-2.22.32-4.58-.39-6.86-.63-.83-.07-.47,1.38-1.53.74l.3-.49c-1.68.59-3.44,0-5.08.48.1-.11.1-.26.26-.26-.35-.36-1.29,0-1.29.28-.26,0-.06-.27-.22-.42-.35-.21-.87.46-1.06.1,0,0,.1-.11.16-.14-.22.17-1.06,0-.84.37-.62-.2-1.18.19-1.67-.06-.32.46-1.06-.22-1.16.43,0-.68-1.09-.54-1.48-.23.13-.2-.34-.21-.18-.49-.45,0-.86.13-.78.48-.82-.81-1.65.66-2.11-.38a29,29,0,0,1-3.74.77c0-.68,1.31-.07,1.26-.78-1.13.28-1.78.86-2.9.69-.29-.09.16-.29.26-.4-1.13.27-2.18-.07-3.19.3,0-.06.12-.13.22-.18-.2,0-.46-.1-.44.21l.19-.09c.32.45-.78.94-.82,1.17.34-.88-1-.22-.46-1.33a.4.4,0,0,0-.26.41c-.2-.06-.26-.18-.06-.42-.71.17-.46.5-1.1.49,0-.15.13-.21.2-.38a1.25,1.25,0,0,1-1.2.45c0-.09,0-.2.13-.2-.93,0-1.58.77-2.61.49.3-.65-.35-.21-.4-.77l-.55.16.22.28c-.48,0-.91.39-1.32.21l.36-.23-.91.11.52.21c-.49.29.05.71-.59.55.13-.06-.49,0-.74-.33h0a.8.8,0,0,1-.84.23c-.09-.18.08-.62,0-.74-.24.47-1.13.13-1.43.63a.6.6,0,0,0,.07-.47l-.19.38c-.23-.12-.26-.18-.22-.41-.67-.07.21.71-.59.4.07,0,0-.09.17-.15-.8-.16-1.55.25-2.29.06-.21-.57.65-.14.4-.62-1.06.11-2.2.68-3.22.55l.19.06c-.14.8-.77-.39-1.28,0,.12-.06.16-.44.13-.35a6.81,6.81,0,0,0-2.5.44l.13-.2a9.68,9.68,0,0,0-1.54-.2c-.13.21-.39.17-.23.47-1.38-1.16-2.63.62-3.86-.35.15,0,.35-.17.23-.18l-1,.19c.08.35.14.21.36.48a.87.87,0,0,1-.69.37c.47-.23,0-.56-.2-.75,0,.1,0,.22,0,.33-.55-.62-.09.7-.84.28l0-.18c-.28.09-.53.33-.83.28-.13-.4.29-.19.31-.52-.42,0-.83.76-1.21.36.18-.11.44-.11.62-.22-.42-.47-.47-.35-.78-.43h0l-.71-.21.18.13c-.53,1-1.07.19-1.78.87.69-.64.11-.37.16-.83-.18-.12-.45-.26-.37-.39-.34.37-.56-.29-1,.25,0-.15-.36,0-.28-.39-.44.12.1.26.06.44-.67.5-1.58-.6-2.55.08-.83.28-1,.78-1.76,1-.26-.23.22-.53.22-.53a1.24,1.24,0,0,0-1.14,0c.08-.12,0-.23-.12-.4-.32,0-.22.54-.64.32a2.3,2.3,0,0,1,.32-.59c-.38.14-.75.41-1.14.54-.1-.25.24-.38.38-.55-.44.11-1.14.23-1.27.63l.28.15c-.16,0-.08-.35,0-.42.38-.32.54.14.57.28l-.28.1c.28.86,1.11-.14,1.67-.09l-.23.62.57-.51c.12.16.2.51-.07.6.4.31.35-.22.7.12,0,.06,0,.09,0,.11l.39-.19c-.07.14.07.44-.17.35.7.36,1.13-.46,1.39,0l-.06,0c1-.21.1-.46.83-1l.49,1.13.09-.46c.1,0,.3.06.27.24.37-.32-.07-.2.15-.5.48.42,1.33-.19,1.44.54.17-.35-.46-.27.05-.51.15.78.6-.14,1,.22-.13.41-.55.19-.11.55.27-.68.86.15,1.23,0,0-.54.81-.22,1.44-.41,0,.19,1.17.3,1.75.5v.09c.11-.55.71-.44,1.14-.56a.61.61,0,0,1-.33.61H432a.68.68,0,0,1,.49-.34l-.1.42c.55,0,1.1-.49,1.8-.21,0-.39-.56-1.07.19-1.33,0,.21.05.56-.14.65.06,0,.23-.17.35-.09l-.29.35c.32.16.16-.29.42-.26,0,.3.19.22.15.45-.06,0-.22-.12-.32,0a1.12,1.12,0,0,1,.75.46c0-.17,0-.4.22-.44.54,0,.18.36.5.51.13-.21.48,0,.49-.44.16,0,.19.21.25.33.28-.19,1.32,0,1-.53l-.07,0,.05,0h0c.92-.44,1.92.26,2.84.07V41c.55-.17,1.22-.1,1.61-.41.17,0,.39.27.32.44.42-.11.46-.28,1.07,0-.42.26.14.23-.43.19.54.13.67.36,1.25,0-.2.38.41.48.67.36l-.38-.27a2.67,2.67,0,0,1,.8,0l-.14.5c1.12.61,2-1,2.86,0,.3-.35-.6-.24-.34-.65.51.07,1.05.78,1.21.79.7.27.66-.73,1.39-.55a.56.56,0,0,1,.37-.82c.51.07.63.75.31.89-.13,0-.19,0-.18-.1-.17.07-.39.14-.18.34l.06-.18c.26.18,1,.16.8.45.39-.17.17-.29-.12-.38.66.26,1,0,1.7.18-.1-.1-.2-.31-.1-.31,1,.22.44-.33,1.12-.41.38.27-.14.65.54.42.41.18.08.47-.08.62.62-.35,1.15.22,1.51.28l-.33.15a1.12,1.12,0,0,1,.52-.08l-.19-.36c.19.06.36.06.35.21.2-.23-.15-.59.24-.91.26.18.78-.19.87.28-.81-.16.08.47-.59.55a.66.66,0,0,1,.48,0c0,.05,0,.1-.08.12.77.43.35-.53,1.15-.52-.11.27.18.5.31.45-.32,0-.15-.45.14-.65.51.21.55-.15.82-.13l-.3-.1c.1-.26.35-.23.71-.31,0,.2-.32.14-.2.23.4-.47.89.49,1.44.17.26.18,0,.5.25.62.62-.34.67.37,1.32.08-.19-.36-.22-.27.23-.62l-1.06.25.68-.52c-.32,0-.67.23-.87.17.33-.29.29-.2.14-.5.44.54.87-.31,1.38,0v.88c.76.4,1.35-.45,2.35-.23l-.32-.15c.13-.35.61,0,.93-.19,0,.29.17.4.31.59,0-.22.72,0,.82-.58l.44.39c.8.16.91-.84,1.68-.74-.23.32.12.53-.4.76.26,0,.49.06.5-.15.15.19.71-.39.95-.11.11-.13.14-.44.43-.42a.23.23,0,0,1,0,.15c0-.15.45-.2.2-.53.79.92,2.21-.07,2.9.73a14.18,14.18,0,0,1,1.75-.22c0,.09,0,.15-.1.12.7.27.43-.85,1.23-.54.41.47-.42.25-.17.44.11,1,1-.14,1.51.43l-.13.06c.41.33,1-.37,1.67-.3a.23.23,0,0,0,0,.15,3.75,3.75,0,0,1,2-.8c-.2.38-.29.2-.17.59.29-.06-.08-.63.5-.73.18.2.6.39.66.8l-.55,0c.28.54.71,0,1,.08l0,.23c.84-.08.85-.66,1.75-.62l-.1-.18c.49-.58.41.33.9-.1l.15.59a8.75,8.75,0,0,1,1.72-.69,4.89,4.89,0,0,1-1.43.93c.32,0,1.09-.05,1.26-.34-.13.06-.29.2-.42.11a1.9,1.9,0,0,1,1.55-.68c-.11,1.15,1.67.29,2.13,1.18,1.14-.42,2.25.18,3.57.11-.47-.89.39,0,.3-.94.31-.06.43,0,.46,0l.93.54c.22.27-.29.21-.27.41.68.07.29.39.73.63-.09-.32.24-.47.62-.34l-.54-.42c.94-.49.81.77,1.76.28l-.3.29c.49-.17,1.79,0,2.27-.73.09.11.2.36,0,.42,1.16.11,2.58-.78,3.49-.33l-.09.23c.22-.07.38-.42.65-.2,0,.09-.09.23,0,.24s.58-.39.87-.26l-.25.25c1.13.29,1.74-.62,2.69-.77,0,.66.89.88,1.34,1l0,.1c1.32.08,2.24-.55,3.47-.81.75.72,2.57.3,3.79.7-.19-.12,0-.51.24-.58.29.13.79-.46.75.15h-.1c.21.59.8.43,1.26.45l.08-.79c1.2,1.15,3.14-.43,3.8.61.29-.2.65-.2.94-.4l0,.43a7.52,7.52,0,0,0,2.2.06l-.2.3c.56,0,.7-1.22,1.22-1.25l.16.64c1,0,2,.54,2.93,0,0,.09-.05.27-.21.3.46,0,1.78.43,1.62-.44,0,.56,1,0,1.53-.2l-.08.42c.45-.53.46-.68,1.08-.83.15.06.13.34-.06.23.49.22.38-.4,1-.17l-.22.26c.51,0,.47-.11.74-.42a.85.85,0,0,1,1,.49c.07-.23.34-.54.64-.43a.26.26,0,0,1-.12.27c.84.29,1.25-.49,1.84-.07a.36.36,0,0,0,.09.24,6.19,6.19,0,0,1-1.16-.06c0,.39.54.45.11,1,.44-.29,1.18-.93,1.71-.74a.32.32,0,0,1,.07.13l-.05,0a.36.36,0,0,0,.33-.06,1.53,1.53,0,0,0,.44.12c.06.32.62.17.89.18,0-.42.33-.35,0-.7,0,0,0,.05-.23.07a.42.42,0,0,0-.12,0s0,0,0,0l-.67,0c.21-.21.44-.39.74-.16.14-.27.29-.55.37-.68.37.59,1.09.91,1.19,1.27.82-.23,1.94-.15,2.46-1,.24-.1.27.23.36.36-.14.08-.3.06-.37.18.47-.21,1.39-.08,1.5-.64.59.25-.33.51.48.42l-.11.17c1.6.89,2.6-1.41,4.37-.27-.12-.07-.18-.11-.21-.2,2,.5,4.17-.47,6.16.32.57.17.63-.19,1-.46l.12.46.59-.53c.84-.38,1.46,1.11,2.52.39l-.14-.3c.38,0,1.21-.18,1.15.17,0-.06.12-.32.27-.16v.24l.94-.41c.72.17-.12.94.94,1,.4-.09,1.13-.69,1-.85a.45.45,0,0,1-.42-.39l.36-.12c.07-.7.34-1.41-.54-1.9l-.62.43-.2-.34.52,0c-.29-.32-.48,0-.69.15a.55.55,0,0,0-.26-.37l-.6.67c-.07-.28.27-.55-.14-.7-.28.31.28.62-.19.82-.3-.32-.21-.58-.56-.31a.3.3,0,0,1,.16-.37c-.3.22-.81.09-1,.46-.31-.39-1,.1-1-.56a1.58,1.58,0,0,1-.83.55c.52-.79-1.06,0-.92-.9-.38.72-1.38.32-2.06.72,0-.06.11-.18.17-.14-.38-.06-.49-.27-.73-.41-.05.59-.65.73-1,1.09-.46-.57.29-.69.14-1.24,0,.48-.81.48-.65.88-.36-.36-.31-.18-.5-.66-.06.73-.33.12-.62.57-.52-.36-.14-.68-.71-.46C552.12,38.08,552.63,37.82,552.63,37.82Zm-13.52,1.27h0l.28,0Zm-1.14,0a3.78,3.78,0,0,0,.5,0c0,.14,0,.29-.12.28C538.41,39.31,538.14,39.22,538,39.1ZM540.38,42c-.18.06-.24,0-.27-.11a1.48,1.48,0,0,0,.32,0l0,0A.86.86,0,0,1,540.38,42Z"/><path class="cls-1" d="M540.7,41.47s0,0,.07,0a.94.94,0,0,0-.1-.1l-.07.14Z"/><path class="cls-1" d="M437.71,40.84h0a.1.1,0,0,1-.05-.06S437.7,40.83,437.71,40.84Z"/><polygon class="cls-1" points="522.29 38.29 522.29 38.4 522.39 38.31 522.29 38.29"/><path class="cls-1" d="M431.46,39.4a.23.23,0,0,0-.09-.11A.27.27,0,0,0,431.46,39.4Z"/><path class="cls-1" d="M428.75,39.3l-.38-.15A1.51,1.51,0,0,0,428.75,39.3Z"/><path class="cls-1" d="M426.68,39.09a1,1,0,0,0-.05.18h0Z"/><path class="cls-1" d="M459.72,38.6l.08,0C460,38.5,459.86,38.53,459.72,38.6Z"/><path class="cls-1" d="M449.88,39.58a2.8,2.8,0,0,1,.32-.2C450,39.35,449.89,39.34,449.88,39.58Z"/><path class="cls-1" d="M470.7,38.09h0Z"/><path class="cls-1" d="M450.66,39.39a.57.57,0,0,0-.46,0A.72.72,0,0,0,450.66,39.39Z"/><path class="cls-1" d="M417.67,38.9h-.1s0,0,0,.06Z"/><path class="cls-1" d="M417.56,39l-.12,0C417.5,39,417.54,39,417.56,39Z"/><path class="cls-1" d="M417.21,39.11l.23-.11C417.36,39,417.26,39,417.21,39.11Z"/><path class="cls-1" d="M420.42,39.1l0-.16A.35.35,0,0,0,420.42,39.1Z"/><path class="cls-1" d="M421.26,39.05c-.2,0-.51-.32-.78-.23l0,.12C420.58,38.72,421.07,39.31,421.26,39.05Z"/><path class="cls-1" d="M424.74,40.94l-.7-.12c.13.16.29.38,0,.42C424.89,41.73,423.83,40.88,424.74,40.94Z"/><path class="cls-1" d="M426.92,41.18c-.38.08,0,.24,0,.33C427.14,41.36,427.2,41.32,426.92,41.18Z"/><path class="cls-1" d="M442.61,41.18l0,.38C442.87,41.51,442.58,41.42,442.61,41.18Z"/><polygon class="cls-1" points="445.62 39.2 445.33 38.96 445.2 39.31 445.62 39.2"/><polygon class="cls-1" points="447.39 41.93 447.26 41.99 447.75 41.85 447.39 41.93"/><path class="cls-1" d="M473.75,41.79l-.09-.47C473.47,41.41,473.43,41.94,473.75,41.79Z"/><path class="cls-1" d="M485.13,41.31c.13.24.45.39.64.16C485.52,41.44,485.26,41.25,485.13,41.31Z"/><polygon class="cls-1" points="519.27 42.08 519.04 42.24 519.47 42.11 519.27 42.08"/><path class="cls-1" d="M612.38,116.34c.32-.13.14-.42-.75-.36l-.63.49Z"/><path class="cls-1" d="M606.4,115.42c-1,.24-2.25.66-1.57,1.12,1-.48,1.28-.28,2.4-.85.89,0,1.55.16,1.4.35.31-.13,1.38.11,1.86-.21a8.26,8.26,0,0,0-4.16-.08C606,115.64,606.33,115.51,606.4,115.42Z"/><path class="cls-1" d="M519.57,114.65l.56.06A2.91,2.91,0,0,0,519.57,114.65Z"/><path class="cls-1" d="M465.77,114.37c.41,0,.58-.06.6-.1C466,114.3,465.68,114.33,465.77,114.37Z"/><path class="cls-1" d="M456.58,113.83l.55,0A1.34,1.34,0,0,0,456.58,113.83Z"/><path class="cls-1" d="M519.57,114.65l-1.44-.16C518,114.65,518.87,114.61,519.57,114.65Z"/><path class="cls-1" d="M594.43,116.62a5.06,5.06,0,0,0,.78-.13l-.74.05A.3.3,0,0,1,594.43,116.62Z"/><path class="cls-1" d="M543.29,114.24h.43a1.9,1.9,0,0,0,.37-.2Z"/><path class="cls-1" d="M561.49,114.17c-.41,0-.56.4-.72.59a1.69,1.69,0,0,1,.9-.29Q561.68,114.35,561.49,114.17Z"/><path class="cls-1" d="M590.35,114.91l.51-.06Z"/><path class="cls-1" d="M530.26,114.15a.42.42,0,0,0-.17-.15C530.09,114.06,530.16,114.11,530.26,114.15Z"/><path class="cls-1" d="M21.18,117.32s0,0,0-.07S21,117.32,21.18,117.32Z"/><path class="cls-1" d="M.09,115.23l.29,0A.71.71,0,0,0,.44,115Z"/><path class="cls-1" d="M439.77,113.29h.08C440.29,113.25,440,113.26,439.77,113.29Z"/><path class="cls-1" d="M285.45,113.6c1.75.37-2.84.48-.21.9C285,114.34,287.63,113.84,285.45,113.6Z"/><path class="cls-1" d="M594,116.56h-.74A5.49,5.49,0,0,0,594,116.56Z"/><path class="cls-1" d="M285.24,114.5h0l.27,0Z"/><path class="cls-1" d="M401,113.54a1.25,1.25,0,0,0,.4.18S401.33,113.63,401,113.54Z"/><path class="cls-1" d="M429.9,114.14l-.72-.06A5.33,5.33,0,0,0,429.9,114.14Z"/><path class="cls-1" d="M386.06,114.14a3.84,3.84,0,0,0-1.05,0l.16.05A2.08,2.08,0,0,1,386.06,114.14Z"/><path class="cls-1" d="M370.47,114.14l.28.08.5,0Z"/><path class="cls-1" d="M68.58,117.12a2.23,2.23,0,0,1-.72-.38C68.1,117,65.8,117.15,68.58,117.12Z"/><path class="cls-1" d="M594.42,116.38a.62.62,0,0,1-.47.18l.52,0C594.52,116.48,594.53,116.42,594.42,116.38Z"/><path class="cls-1" d="M385.43,117.46,383,117.4C383.64,117.44,384.54,117.46,385.43,117.46Z"/><path class="cls-1" d="M180.45,117.06l-.57,0A1.66,1.66,0,0,0,180.45,117.06Z"/><path class="cls-1" d="M375.6,117.46a7.25,7.25,0,0,0-1.4-.29,1.1,1.1,0,0,0-.29.11Z"/><path class="cls-1" d="M67.85,116.74h0Z"/><path class="cls-1" d="M51.53,117.74c2.36,0,1.11-.55,1.61-.86,2.82-.16,1.3.4,2.26.69,1.76-.15,3.11-.66,4.42-.64.1.1.36.13.06.24,1.86-.44,5.52,0,7.69-.57a.58.58,0,0,1,.28.14c-.35-.28-.41-.56-.33-.77,1.06,0,2-.35,2.36,0a1.7,1.7,0,0,0-1,.25l1.11-.16c1,.52-1.51.18-1.51.56a47.32,47.32,0,0,1,6.34-.45c.34.51-3.88.17-1.67.63l-2.56-.2c2,.8-1.56-.06.24.8,3.38.15,3.78-.26,7.14-.11.76-.28-.25-.42.51-.7,4.78-.51,3.76,1.28,7.28.6a5,5,0,0,1,3.77-.64l-.85.58c3.26,0,1.86-.83,5.28-.44-.61.22-2.57.19-2.07.26,2.21.45,1.57-.33,3.27-.33l.35.51c3.48-.08,7.31-.45,11.16-.54-.21.15-.87.31,0,.46a136.64,136.64,0,0,1,15.06.37l1.79-.44c.41,0,.77.2.32.28,1.82.17.09-.28,1-.45,1,0,1.37.25.72.39,3.22-.38,9.17-.81,12.57-.34l-.66.13c2.64.18,3-.9,5.43-.49l-.47.08c5.74.19,12.08-.21,16.46.45.83-.63,5.68.29,6.05-.6a50.57,50.57,0,0,0,6.95.89c1.24,0,1.84-.55,3.36-.64l0,.46,2.07-.49,1.1.56,1.43-.12c-.57,0-1.21-.21-1.12-.34,2.23-.21,5.44.32,5.49.56l5.28-.39c-.11.18-1,.25-1.7.36,2.82-.47.52.49,3.1.06-.35-.11.19-.28.24-.37a32,32,0,0,0,6.39.16l-.41.32c3.91.08,8.26-.15,12.65-.14-1.58-.15-1.21-.7.08-.76l.51.49c.83-.3-1.34-.18.36-.55,1.65,0,1.11.55.17.71l2-.17c.12.15-.35.22-.47.41.82-.3,3.45.49,4.63,0l.11.15c4.4,0,6.39-.16,10-.19.07-.42,1.47-.33,2.54-.67,2.63.14,5.55.47,8.72.43,2.22-.21.65-.36,1.65-.61.16.39,3.33.35,1.69.63,3.8-.06,4.86-.08,9.67-.39-.52-.16-1.11-.23-.81-.36.88-.06,2,.16,1.86.35l-.23,0c5.41-.58,12.47,1.12,16.77.32l-.24,0,4.46-.42c2,.07-1.23.29.29.53,4.81-.64,7.6.09,11.56-.34,3.07,1.14,10.88-.08,15,.65l-.24-.27c1.07-.26,1.3.15,2.09.21-.11-.2-1.16-.24-.5-.38,9.06-.32,18.71.39,28,.63,3.4.07,1.93-1.38,6.21-.74l-1.21.49c6.86-.59,14,0,20.73-.48a2.37,2.37,0,0,1-1.06.26c1.42.36,5.24,0,5.27-.28,1,0,.24.27.88.42,1.42.21,3.57-.46,4.33-.1.13,0-.4.11-.66.14.93-.17,4.32,0,3.43-.37,2.52.2,4.82-.19,6.83.06,1.31-.46,4.31.22,4.73-.43-.18.68,4.42.54,6,.23-.53.2,1.39.21.76.49,1.82,0,3.49-.13,3.17-.48,3.35.81,6.73-.66,8.62.38,5.4-.36,10.4-.61,15.26-.77-.18.68-5.37.07-5.17.78,4.61-.28,7.27-.86,11.84-.69,1.19.09-.67.29-1.07.4,4.61-.27,8.9.07,13-.3a2.53,2.53,0,0,1-.87.18c.81,0,1.88.1,1.79-.21l-.79.09c-1.29-.45,3.21-.94,3.35-1.17-1.37.88,4.05.22,1.87,1.33.53,0,1.2-.2,1.08-.41.79.06,1,.18.24.42,2.89-.17,1.86-.5,4.48-.49,0,.15-.54.21-.81.38a15.84,15.84,0,0,1,4.88-.45c-.14.09.12.2-.54.2,3.8,0,6.48-.77,10.66-.49-1.23.65,1.42.21,1.64.77l2.24-.16-.9-.28c2,0,3.7-.39,5.39-.21l-1.46.23,3.68-.11-2.08-.21c2-.29-.21-.71,2.4-.55a26,26,0,0,1,3,.33h0a11.1,11.1,0,0,1,3.42-.23c.38.18-.3.62-.06.74,1-.47,4.61-.13,5.82-.63-.4.12-.43.41-.29.47l.8-.38c.91.12,1.05.18.9.41,2.74.07-.87-.71,2.38-.4a4.47,4.47,0,0,1-.67.15c3.27.16,6.31-.25,9.31-.06.89.57-2.62.14-1.61.62,4.33-.11,9-.68,13.14-.55l-.78-.06c.58-.8,3.12.39,5.24,0-.52.06-.68.44-.54.35,2.86.13,5.86-.19,10.2-.44l-.54.2c1.69.18,4.45.11,6.28.2.54-.21,1.58-.17.95-.47,5.62,1.16,10.73-.62,15.72.35-.6,0-1.42.17-1,.18l4.25-.19c-.33-.35-.55-.21-1.45-.48a9.49,9.49,0,0,1,2.79-.37c-1.91.23,0,.56.85.75-.14-.1.14-.22.07-.33,2.22.62.37-.7,3.41-.28l-.16.18a26.43,26.43,0,0,1,3.4-.28c.51.4-1.21.19-1.29.52,1.72,0,3.4-.76,5-.36-.73.11-1.78.11-2.51.22a10.23,10.23,0,0,0,3.15.43h-.12l2.91.21-.74-.13c2.15-1,4.38-.19,7.27-.87-2.81.64-.46.37-.68.83.74.12,1.87.26,1.55.39,1.37-.37,2.28.29,4.22-.25.08.15,1.46,0,1.15.39,1.78-.12-.42-.26-.27-.44,2.75-.5,6.45.6,10.4-.08,3.41-.28,4-.78,7.19-1,1.07.23-.87.53-.87.53a19.47,19.47,0,0,0,4.64,0c-.33.12,0,.23.5.4,1.3,0,.87-.54,2.59-.32a5.41,5.41,0,0,1-1.3.59c1.53-.14,3-.41,4.63-.54.42.25-1,.38-1.52.55,1.79-.11,4.63-.23,5.18-.63l-1.15-.15c.65,0,.34.35-.14.42-1.53.32-2.21-.14-2.29-.28l1.13-.1c-1.17-.86-4.54.14-6.82.09l.95-.62-2.33.51c-.5-.16-.84-.51.28-.6-1.63-.31-1.44.22-2.84-.12-.16-.06-.09-.09.06-.11l-1.6.19c.32-.14-.26-.44.72-.35-2.86-.36-4.62.46-5.69,0l.24,0c-4,.21-.39.46-3.36,1l-2-1.13-.39.46c-.41,0-1.22-.06-1.07-.24-1.52.32.26.2-.62.5-2-.42-5.44.19-5.88-.54-.71.35,1.89.27-.22.51-.6-.78-2.43.14-4.23-.22.55-.41,2.26-.19.46-.55-1.09.68-3.51-.15-5,0-.07.54-3.3.22-5.85.41.16-.19-4.79-.3-7.16-.5l.07-.09c-.46.55-2.91.44-4.69.56.07-.33.39-.46,1.36-.61h-1.68a5.75,5.75,0,0,1-2,.34l.42-.42c-2.23,0-4.49.49-7.35.21-.16.39,2.28,1.07-.75,1.33-.12-.21-.23-.56.57-.65a5.52,5.52,0,0,1-1.45.09l1.21-.35c-1.31-.16-.69.29-1.73.26,0-.3-.77-.22-.62-.45a7,7,0,0,0,1.31,0,11.49,11.49,0,0,1-3.07-.46c.1.17,0,.4-.86.44-2.23,0-.77-.36-2.07-.51-.53.21-2,0-2,.44a1.64,1.64,0,0,1-1-.33c-1.15.19-5.38,0-4.08.53l.29,0-.19,0h0c-3.77.44-7.85-.26-11.6-.07v-.14c-2.24.17-5,.1-6.58.41-.66,0-1.56-.27-1.28-.44a17.21,17.21,0,0,1-4.37,0c1.72-.26-.6-.23,1.76-.19a16.55,16.55,0,0,0-5.11,0c.81-.38-1.68-.48-2.73-.36l1.55.27c-1.18.05-2.22,0-3.28,0l.57-.5c-4.55-.61-8.2,1-11.67,0-1.2.35,2.47.24,1.4.65a47.52,47.52,0,0,1-4.93-.79c-2.87-.27-2.67.73-5.67.55.38.17.74.65-1.5.82-2.09-.07-2.57-.75-1.25-.89.5,0,.74,0,.72.1.68-.07,1.57-.14.74-.34l-.28.18c-1-.18-3.91-.16-3.24-.45-1.58.17-.67.29.5.38-2.69-.26-4.2,0-7-.18.44.1.84.31.4.31-4-.22-1.78.33-4.53.41-1.56-.27.56-.65-2.21-.42-1.69-.18-.35-.47.32-.62-2.52.35-4.71-.22-6.15-.28l1.33-.15a17.53,17.53,0,0,1-2.11.08l.76.36c-.78-.06-1.44-.06-1.43-.21-.8.23.62.59-1,.91-1-.18-3.17.19-3.53-.28,3.27.16-.36-.47,2.41-.55a10.82,10.82,0,0,1-2,0c-.12,0,.11-.1.32-.12-3.12-.43-1.43.53-4.67.52.41-.27-.75-.5-1.28-.45,1.3,0,.62.45-.58.65a15.56,15.56,0,0,0-3.34.13l1.24.1a9.31,9.31,0,0,1-2.91.31c-.12-.2,1.32-.14.8-.23-1.61.47-3.64-.49-5.88-.17-1-.18-.1-.5-1-.62-2.51.34-2.72-.37-5.36-.08.76.36.89.27-1,.62l4.34-.25-2.78.52c1.31,0,2.76-.23,3.55-.17-1.33.29-1.2.2-.57.5-1.79-.54-3.55.31-5.63,0l.07-.88c-3.12-.4-5.54.45-9.59.23l1.3.15c-.54.35-2.5,0-3.81.19.12-.29-.69-.4-1.25-.59.06.22-3,0-3.33.58l-1.81-.39c-3.27-.16-3.73.84-6.87.74.94-.32-.48-.53,1.62-.76-1.05,0-2-.06-2,.15-.61-.19-2.91.39-3.87.11a3.26,3.26,0,0,1-1.76.42c-.13-.06,0-.15,0-.15s-1.84.2-.81.53c-3.23-.92-9,.07-11.85-.73-2.29.1-5,.2-7.12.22.13-.09,0-.15.4-.12-2.87-.27-1.76.85-5,.54-1.66-.47,1.74-.25.7-.44-.46-1-3.94.14-6.14-.43l.54-.06c-1.68-.33-4.1.37-6.84.3,0,0,.13-.09,0-.15a49.31,49.31,0,0,1-8.06.8c.82-.38,1.19-.2.69-.59-1.18.06.35.63-2,.73-.77-.2-2.47-.39-2.7-.8l2.23,0c-1.14-.54-2.88,0-4.05-.08l.15-.23c-3.41.08-3.46.66-7.13.62l.38.18c-2,.58-1.68-.33-3.68.11l-.6-.6c-1.32.15-4.63.58-7,.69a48.84,48.84,0,0,1,5.83-.93,26.64,26.64,0,0,0-5.14.34,6.67,6.67,0,0,1,1.72-.11,23.35,23.35,0,0,1-6.33.68c.46-1.15-6.81-.29-8.71-1.18-4.61.42-9.16-.18-14.54-.11,1.91.89-1.57,0-1.24.94a6.82,6.82,0,0,1-1.85,0l-3.79-.54c-.9-.27,1.19-.21,1.07-.41-2.74-.07-1.15-.39-3-.63.38.32-.95.47-2.51.34l2.2.42c-3.84.49-3.32-.77-7.18-.28l1.22-.29c-2,.17-7.32,0-9.26.73-.35-.11-.82-.36.06-.42-4.75-.11-10.56.78-14.24.33l.36-.23a7.73,7.73,0,0,1-2.65.2c.06-.09.36-.23-.05-.24a15.67,15.67,0,0,1-3.53.26l1-.25c-4.63-.29-7.1.62-11,.77,0-.66-3.63-.88-5.44-1l.06-.1c-5.39-.08-9.15.55-14.14.81-3.09-.72-10.48-.3-15.46-.7.76.12-.12.51-1,.58-1.17-.13-3.23.46-3.05-.15h.42c-.88-.59-3.28-.43-5.15-.45l-.31.79c-4.9-1.15-12.84.43-15.52-.61-1.18.2-2.64.2-3.82.4l.07-.43c-3.28-.1-4.92-.16-9-.06l.83-.3c-2.28,0-2.88,1.22-5,1.25l-.63-.63c-4,0-8-.55-12,0,.06-.09.18-.27.83-.3-1.88,0-7.26-.43-6.58.44-.05-.56-4.11,0-6.26.2l.33-.42a13.2,13.2,0,0,1-4.41.83c-.6-.06-.53-.34.27-.23-2-.22-1.56.4-4,.17l.91-.26a6.42,6.42,0,0,0-3,.42c-1.29.17-3.91-.11-4.21-.49a4.65,4.65,0,0,1-2.62.43c-.17-.14.28-.23.5-.27-3.45-.29-5.13.49-7.5.07,0-.13-.2-.2-.4-.24,2.74,0,5,0,4.74.06,0-.39-2.21-.45-.45-1a31.71,31.71,0,0,1-7,.74.8.8,0,0,1-.28-.13l.22,0a5.46,5.46,0,0,0-1.36.06c-.69-.06-1.13-.11-1.79-.12-.25-.31-2.54-.17-3.64-.18.09.42-1.35.35,0,.7-.17,0,.21,0,.94-.07.17,0,.36,0,.47,0l-.07,0,2.74,0a6.61,6.61,0,0,1-3,.16c-.57.27-1.19.55-1.54.68-1.51-.59-4.42-.91-4.82-1.27-3.37.23-7.94.15-10,1a2,2,0,0,1-1.46-.36A11,11,0,0,0,84,114c-1.92.21-5.67.08-6.13.64-2.41-.25,1.35-.51-2-.42l.45-.17c-6.53-.89-10.61,1.41-17.84.27a2.19,2.19,0,0,1,.86.2c-8.25-.5-17,.47-25.13-.32a9.88,9.88,0,0,0-4,.46l-.5-.46-2.41.53c-3.42.38-5.93-1.11-10.26-.39l.56.3c-1.56-.05-4.93.18-4.67-.17a1.46,1.46,0,0,1-1.12.16l0-.24L8,114.84c-3-.17.47-.94-3.86-1-1.6.09-4.57.69-4,.85.65,0,1.66.15,1.71.39l-1.47.12c-.27.7-1.4,1.41,2.21,1.9l2.51-.42.81.33-2.11,0a5.15,5.15,0,0,0,2.81-.16,2,2,0,0,0,1,.37l2.47-.67c.3.28-1.1.55.55.7,1.16-.31-1.11-.62.81-.82,1.2.32.85.58,2.26.31.2.18-.1.29-.66.37,1.26-.22,3.32-.09,4-.46,1.26.39,4.25-.1,4.12.56a15.26,15.26,0,0,1,3.37-.55c-2.11.79,4.32,0,3.76.9,1.56-.72,5.64-.32,8.4-.72a1.48,1.48,0,0,1-.7.14,19.54,19.54,0,0,1,3,.41c.2-.59,2.62-.73,3.93-1.09,1.9.57-1.16.69-.56,1.24-.1-.48,3.31-.48,2.66-.88,1.46.36,1.26.18,2,.66.26-.73,1.36-.12,2.57-.57,2.11.36.54.68,2.86.46C53.59,117.48,51.53,117.74,51.53,117.74Zm55.14-1.27h0l-1.14,0Zm4.63,0c-.56,0-1.26,0-2,0-.16-.14,0-.29.48-.28C109.52,116.25,110.61,116.34,111.3,116.46Zm-9.8-2.92c.74-.06,1,0,1.08.11-.34,0-.75,0-1.28,0l-.09,0A.66.66,0,0,1,101.5,113.54Z"/><path class="cls-1" d="M100.18,114.09a2.16,2.16,0,0,1-.3,0l.44.1.26-.14Z"/><path class="cls-1" d="M520.23,114.72h-.1a.52.52,0,0,1,.2.06C520.27,114.75,520.27,114.73,520.23,114.72Z"/><polygon class="cls-1" points="175.29 117.27 175.28 117.16 174.88 117.25 175.29 117.27"/><path class="cls-1" d="M545.75,116.16a.7.7,0,0,0,.33.11A.88.88,0,0,0,545.75,116.16Z"/><path class="cls-1" d="M556.77,116.26l1.56.15C557.66,116.32,557.16,116.28,556.77,116.26Z"/><path class="cls-1" d="M565.25,116.47a.47.47,0,0,0,.16-.18h0Z"/><path class="cls-1" d="M430.48,117l-.33,0C429.39,117.06,429.91,117,430.48,117Z"/><path class="cls-1" d="M470.59,116c-.43.07-.85.15-1.29.2C470,116.21,470.57,116.22,470.59,116Z"/><path class="cls-1" d="M385.7,117.47h0Z"/><path class="cls-1" d="M467.43,116.17a9,9,0,0,0,1.87,0A11.68,11.68,0,0,0,467.43,116.17Z"/><path class="cls-1" d="M602,116.66h.41a.07.07,0,0,1,.05-.06Z"/><path class="cls-1" d="M602.44,116.61l.45,0A1,1,0,0,0,602.44,116.61Z"/><path class="cls-1" d="M603.85,116.45l-1,.11A2.37,2.37,0,0,0,603.85,116.45Z"/><path class="cls-1" d="M590.76,116.46l-.12.16A.24.24,0,0,0,590.76,116.46Z"/><path class="cls-1" d="M587.35,116.51a23.63,23.63,0,0,0,3.18.23l.11-.12C590.1,116.84,588.13,116.25,587.35,116.51Z"/><path class="cls-1" d="M573.12,114.62l2.86.12c-.5-.16-1.16-.38.14-.42C572.52,113.83,576.86,114.68,573.12,114.62Z"/><path class="cls-1" d="M564.26,114.38c1.54-.08,0-.24.07-.33C563.35,114.2,563.12,114.24,564.26,114.38Z"/><path class="cls-1" d="M500.24,114.38l.15-.38C499.21,114.05,500.38,114.14,500.24,114.38Z"/><polygon class="cls-1" points="488 116.36 489.15 116.6 489.7 116.25 488 116.36"/><polygon class="cls-1" points="480.77 113.63 481.29 113.57 479.31 113.71 480.77 113.63"/><path class="cls-1" d="M373.24,113.77l.36.47C374.4,114.15,374.56,113.62,373.24,113.77Z"/><path class="cls-1" d="M326.82,114.25a4.78,4.78,0,0,0-2.62-.16C325.25,114.12,326.29,114.31,326.82,114.25Z"/><polygon class="cls-1" points="187.6 113.48 188.53 113.32 186.77 113.45 187.6 113.48"/><path class="cls-1" d="M424.86,114.34c-.1.13,0,.43.23.37l.19-.5Z"/><path class="cls-1" d="M426.69,115.26c.32-.24.69-.66.48-1.12-.31.48-.39.28-.73.85-.27.06-.48-.16-.43-.34-.1.13-.42-.11-.57.2a.89.89,0,0,0,1.27.08C426.81,115,426.71,115.17,426.69,115.26Z"/><path class="cls-1" d="M453.28,116l-.17-.06A.49.49,0,0,0,453.28,116Z"/><path class="cls-1" d="M469.76,116.31c-.13,0-.18.06-.18.11S469.79,116.35,469.76,116.31Z"/><path class="cls-1" d="M472.57,116.86l-.16,0C472.47,116.87,472.53,116.89,472.57,116.86Z"/><path class="cls-1" d="M453.28,116l.44.15C453.75,116,453.5,116.07,453.28,116Z"/><path class="cls-1" d="M430.36,114.07a.56.56,0,0,0-.24.13l.22-.06S430.35,114.09,430.36,114.07Z"/><path class="cls-1" d="M446,116.44h-.13a1.28,1.28,0,0,0-.11.2Z"/><path class="cls-1" d="M440.45,116.52c.12,0,.17-.41.21-.59a.44.44,0,0,1-.27.29A.79.79,0,0,0,440.45,116.52Z"/><path class="cls-1" d="M431.61,115.78l-.16,0Z"/><path class="cls-1" d="M450,116.53a.44.44,0,0,0,.05.15A.3.3,0,0,0,450,116.53Z"/><path class="cls-1" d="M605.91,113.36a.22.22,0,0,1,0,.08S606,113.37,605.91,113.36Z"/><path class="cls-1" d="M612.38,115.45l-.09,0a1.94,1.94,0,0,0,0,.24Z"/><path class="cls-1" d="M477.72,117.4h0C477.56,117.44,477.64,117.43,477.72,117.4Z"/><path class="cls-1" d="M525,117.09c-.53-.38.87-.49.07-.91C525.12,116.35,524.31,116.84,525,117.09Z"/><path class="cls-1" d="M430.5,114.12a1.77,1.77,0,0,1,.23,0A.44.44,0,0,0,430.5,114.12Z"/><path class="cls-1" d="M525.05,116.18h0l-.09,0Z"/><path class="cls-1" d="M489.58,117.14a.44.44,0,0,0-.12-.18A.34.34,0,0,0,489.58,117.14Z"/><path class="cls-1" d="M480.75,116.54l.21.06A.68.68,0,0,0,480.75,116.54Z"/><path class="cls-1" d="M494.17,116.55c.12,0,.16.09.32,0,0,0,0,0-.05,0S494.31,116.62,494.17,116.55Z"/><path class="cls-1" d="M499,116.55a.76.76,0,0,0-.09-.09l-.15,0Z"/><path class="cls-1" d="M591.4,113.57a1.1,1.1,0,0,1,.22.37C591.55,113.65,592.25,113.54,591.4,113.57Z"/><path class="cls-1" d="M430.36,114.3c0-.1.07-.16.14-.18l-.16,0A.2.2,0,0,0,430.36,114.3Z"/><path class="cls-1" d="M494.37,113.22l.75.07A3.42,3.42,0,0,0,494.37,113.22Z"/><path class="cls-1" d="M557.14,113.63l.17,0A.18.18,0,0,0,557.14,113.63Z"/><path class="cls-1" d="M497.38,113.22a.94.94,0,0,0,.42.29.43.43,0,0,0,.09-.1Z"/><path class="cls-1" d="M591.62,114h0Z"/><path class="cls-1" d="M596.62,113c-.72,0-.34.54-.49.86-.87.16-.4-.41-.7-.69-.53.14-.95.65-1.35.63,0-.09-.11-.12,0-.24-.57.44-1.69,0-2.35.58a.46.46,0,0,1-.09-.14,1.54,1.54,0,0,1,.1.76c-.32,0-.6.35-.72,0,.2,0,.22-.14.31-.25l-.34.16c-.31-.52.46-.18.46-.57-.66.17-1.43.6-1.94.45-.1-.51,1.19-.17.51-.62l.79.19c-.6-.8.47.06-.08-.8-1-.15-1.15.26-2.18.11-.24.28.07.42-.16.7-1.46.51-1.15-1.28-2.23-.6-.28.34-.39,1-1.15.64l.26-.57c-1-.06-.57.83-1.62.44.19-.23.79-.19.63-.26-.67-.46-.48.33-1,.33l-.11-.51c-1.06.08-2.23.44-3.41.54.06-.15.26-.31,0-.47a12.77,12.77,0,0,1-4.61-.36l-.55.44c-.13,0-.24-.2-.1-.29-.56-.17,0,.28-.3.45s-.42-.25-.22-.38c-1,.37-2.81.8-3.85.33l.21-.13c-.81-.18-.92.9-1.67.49l.14-.08c-1.75-.19-3.7.22-5-.45-.25.64-1.74-.28-1.85.6-1-.43-.71-.59-2.13-.89-.37,0-.56.55-1,.65v-.46l-.63.48-.34-.55-.44.12c.18,0,.37.2.35.34a1.74,1.74,0,0,1-1.69-.56l-1.61.39c0-.19.3-.25.52-.37-.87.47-.16-.49-1,0,.11.1-.06.27-.08.36a3.09,3.09,0,0,0-2-.16l.13-.32c-1.2-.08-2.53.15-3.88.15a.38.38,0,0,1,0,.75l-.16-.49c-.26.31.41.19-.11.56-.5-.06-.34-.56-.05-.72l-.61.17c0-.14.1-.22.14-.41-.25.31-1.05-.49-1.42,0l0-.14c-1.35,0-2,.16-3,.18,0,.43-.45.33-.78.67a13.31,13.31,0,0,0-2.67-.43c-.68.21-.2.36-.51.61,0-.38-1-.35-.51-.62a13.7,13.7,0,0,0-3,.39c.16.15.34.22.25.35-.27.06-.61-.16-.57-.34l.07,0c-1.65.57-3.82-1.12-5.13-.32l.07,0-1.37.41c-.62-.06.38-.28-.08-.52-1.48.64-2.33-.09-3.54.33-.94-1.13-3.34.08-4.61-.64l.08.27c-.33.26-.4-.16-.64-.22,0,.21.36.24.15.39-2.77.32-5.73-.39-8.57-.63-1-.08-.59,1.38-1.91.74l.38-.5c-2.1.6-4.3,0-6.35.49.12-.12.12-.27.32-.26-.43-.36-1.6,0-1.61.27-.32,0-.07-.26-.27-.41-.44-.21-1.1.46-1.33.1,0-.06.13-.12.21-.15-.29.18-1.33,0-1.06.38-.77-.2-1.47.18-2.09-.07-.4.47-1.32-.22-1.45.44.06-.68-1.35-.55-1.84-.23.17-.21-.42-.21-.23-.5-.56,0-1.07.14-1,.49-1-.81-2.06.65-2.64-.39a43.58,43.58,0,0,1-4.67.77c.05-.68,1.64-.07,1.58-.78-1.41.28-2.23.86-3.63.7-.36-.09.21-.29.33-.41-1.41.28-2.73-.06-4,.31,0-.07.14-.14.27-.19-.25,0-.58-.1-.55.21l.24-.08c.4.44-1,.93-1,1.17.42-.89-1.23-.23-.57-1.34-.16.06-.37.2-.33.41-.24-.06-.32-.18-.07-.41-.89.16-.57.49-1.37.48,0-.15.16-.2.24-.38a1.79,1.79,0,0,1-1.49.46c0-.09,0-.21.16-.21-1.16,0-2,.78-3.26.5.38-.65-.43-.22-.5-.78l-.69.17.28.27c-.6,0-1.14.4-1.65.22l.44-.23-1.12.1.63.21c-.6.29.07.71-.73.56.16-.06-.6,0-.92-.34h0a1.19,1.19,0,0,1-1,.23c-.12-.18.09-.62,0-.74-.29.47-1.41.13-1.78.63a.53.53,0,0,0,.09-.48l-.25.38c-.27-.12-.31-.18-.27-.41-.84-.07.27.71-.73.4.08,0,0-.08.21-.14-1-.16-1.94.24-2.85,0-.28-.56.8-.14.49-.61-1.33.1-2.75.67-4,.54l.24.06c-.18.8-.95-.39-1.6,0,.16-.06.21-.45.16-.36a10.92,10.92,0,0,0-3.12.45l.16-.21a13.15,13.15,0,0,0-1.92-.19c-.16.2-.48.17-.29.46-1.72-1.16-3.28.63-4.81-.34.18,0,.43-.18.29-.18l-1.3.19c.1.34.17.21.44.48a1.22,1.22,0,0,1-.86.36c.59-.23,0-.55-.25-.75,0,.11,0,.23,0,.33-.68-.61-.11.7-1,.29l.05-.19c-.35.1-.67.34-1,.29-.16-.41.37-.19.39-.52-.52,0-1,.76-1.51.36.22-.11.54-.12.76-.23a1.17,1.17,0,0,0-1-.42h0l-.89-.21.22.12c-.65,1.05-1.34.19-2.22.88.86-.65.14-.38.2-.83-.22-.13-.57-.27-.47-.4-.42.37-.7-.28-1.29.25,0-.15-.45,0-.36-.38-.54.11.13.25.09.44-.84.5-2-.61-3.19.08-1,.28-1.23.77-2.2,1-.33-.24.27-.53.27-.53a1.8,1.8,0,0,0-1.42,0c.1-.13,0-.24-.16-.4-.39,0-.26.53-.79.31a2,2,0,0,1,.4-.58c-.47.13-.93.4-1.42.54-.13-.26.29-.39.47-.56-.55.12-1.42.23-1.59.64l.35.14c-.2,0-.1-.34.05-.42a.43.43,0,0,1,.7.29l-.35.09c.36.86,1.39-.14,2.09-.09l-.29.63.71-.52c.15.16.26.51-.09.6.5.31.45-.22.88.13,0,0,0,.08,0,.11l.49-.19c-.1.13.08.44-.22.35.87.36,1.41-.47,1.74,0l-.07,0c1.21-.21.11-.46,1-1l.61,1.13.12-.46c.12,0,.37,0,.33.23.46-.31-.08-.2.19-.49.6.41,1.66-.2,1.8.53.21-.35-.58-.27.06-.51.19.79.75-.13,1.3.23-.17.4-.69.19-.14.55.33-.69,1.07.15,1.54,0,0-.55,1-.23,1.79-.41-.05.18,1.47.3,2.2.5l0,.09c.14-.55.89-.45,1.44-.56a.59.59,0,0,1-.42.6h.52a.81.81,0,0,1,.61-.33l-.13.41c.68,0,1.37-.48,2.25-.21.05-.38-.7-1.07.23-1.33,0,.21.07.57-.17.65.08,0,.28-.17.44-.08l-.37.35c.4.15.21-.29.53-.26,0,.29.24.21.19.44-.08,0-.28-.12-.4,0a1.49,1.49,0,0,1,.94.45c0-.17,0-.4.26-.44.69,0,.24.36.64.51.16-.2.6,0,.61-.43.2,0,.23.21.31.33.35-.2,1.65-.06,1.25-.53l-.09,0,.06,0h0c1.16-.44,2.4.25,3.55.06v.15a7.57,7.57,0,0,0,2-.42c.2,0,.47.27.39.45a1.72,1.72,0,0,1,1.34,0c-.53.26.18.23-.54.19.68.13.83.37,1.56,0-.25.38.52.48.84.37l-.48-.27a3.4,3.4,0,0,1,1,0l-.18.5c1.4.6,2.51-1,3.58,0,.36-.35-.76-.25-.43-.66.64.07,1.31.79,1.51.79.88.28.82-.73,1.74-.54-.12-.18-.23-.65.45-.82.64.06.79.75.39.89-.16,0-.23,0-.22-.1-.21.06-.48.14-.23.33l.08-.18c.32.18,1.2.17,1,.46.48-.17.2-.29-.15-.39.82.26,1.28,0,2.13.18-.14-.09-.26-.3-.13-.3,1.24.22.55-.34,1.39-.42.48.27-.17.65.68.42.51.19.11.48-.1.62.77-.34,1.44.23,1.88.29l-.4.14a1.87,1.87,0,0,1,.64-.08l-.23-.36c.24.07.44.07.44.22.24-.24-.19-.6.3-.91.31.18,1-.2,1.07.27-1-.16.11.48-.73.55a1.11,1.11,0,0,1,.6,0c0,.06,0,.1-.1.13,1,.42.44-.54,1.43-.53-.12.27.23.51.4.45-.4,0-.2-.44.17-.65.64.21.69-.15,1-.13l-.38-.09c.12-.27.44-.23.89-.32,0,.21-.41.14-.25.24.49-.47,1.11.48,1.8.16.32.19,0,.51.31.63.77-.35.84.36,1.64.08-.23-.36-.27-.27.3-.62l-1.33.25.85-.52c-.4,0-.84.22-1.08.16.4-.29.36-.2.17-.5.55.54,1.09-.31,1.72,0l0,.89c1,.39,1.7-.46,2.94-.23l-.4-.16c.17-.35.77,0,1.17-.19,0,.3.21.41.38.59,0-.22.91,0,1-.57l.56.39c1,.16,1.14-.85,2.1-.74-.29.32.15.53-.5.76.32,0,.61,0,.62-.15.18.18.89-.4,1.18-.12.14-.13.18-.44.54-.41a.16.16,0,0,1,0,.14c0-.14.57-.2.25-.52,1,.92,2.77-.07,3.63.72a21.64,21.64,0,0,1,2.18-.21c0,.08,0,.14-.12.11.88.28.54-.85,1.54-.54.51.48-.53.26-.22.44.14,1,1.21-.13,1.88.44l-.16,0c.51.33,1.25-.37,2.09-.3a.18.18,0,0,0,0,.15,5.47,5.47,0,0,1,2.47-.8c-.25.38-.37.2-.22.59.37,0-.1-.62.62-.73.23.21.76.39.83.8l-.69,0c.35.53.89,0,1.25.07l-.05.24c1-.08,1.06-.67,2.18-.63l-.11-.17c.61-.59.51.32,1.12-.11l.19.59a13,13,0,0,1,2.14-.68,6.32,6.32,0,0,1-1.79.92c.41,0,1.37,0,1.58-.33-.16,0-.37.2-.53.11a2.64,2.64,0,0,1,1.94-.69c-.14,1.15,2.09.29,2.67,1.18,1.41-.42,2.8.19,4.45.12-.58-.9.48,0,.38-.94.38-.06.53,0,.57,0l1.16.55c.27.27-.37.2-.33.41.84.07.35.39.91.63-.12-.33.29-.47.77-.35l-.68-.42c1.18-.49,1,.77,2.2.29l-.37.29c.61-.17,2.24,0,2.84-.73.1.1.25.35,0,.42,1.45.11,3.23-.79,4.36-.33l-.11.22c.27-.06.47-.42.81-.19,0,.09-.11.22,0,.23s.72-.39,1.07-.26l-.3.25c1.41.3,2.17-.61,3.36-.76,0,.66,1.11.87,1.67,1l0,.09c1.65.08,2.8-.55,4.33-.81.94.72,3.21.3,4.73.71-.23-.12,0-.52.31-.58.36.13,1-.46.93.14h-.13c.27.6,1,.44,1.58.45l.1-.79c1.5,1.15,3.93-.42,4.75.61.36-.2.81-.2,1.17-.39l0,.42a11.63,11.63,0,0,0,2.74.06l-.25.31c.7,0,.88-1.23,1.53-1.25l.19.63c1.22,0,2.46.55,3.66,0,0,.09,0,.28-.25.3.58,0,2.22.43,2-.44,0,.57,1.26.06,1.92-.19l-.1.42c.56-.54.57-.68,1.35-.83.19,0,.16.33-.08.23.61.21.48-.4,1.22-.18l-.28.27c.63,0,.58-.11.93-.42s1.2.1,1.29.48a.72.72,0,0,1,.81-.43c0,.14-.09.23-.16.28,1.06.28,1.57-.49,2.3-.08a.3.3,0,0,0,.12.25,9.65,9.65,0,0,1-1.45-.06c0,.38.68.45.14,1,.54-.29,1.47-.92,2.13-.74a.73.73,0,0,1,.09.13l-.07,0a.56.56,0,0,0,.42-.07,1.55,1.55,0,0,0,.54.12c.08.32.78.17,1.12.19,0-.42.41-.36,0-.7,0,0-.06,0-.29.06-.05,0-.11,0-.14,0a.08.08,0,0,1,0,0l-.84,0c.27-.22.55-.4.92-.16a7.4,7.4,0,0,1,.47-.68c.46.59,1.35.9,1.48,1.27,1-.24,2.43-.16,3.08-1,.29-.1.33.23.44.35-.17.08-.37.07-.46.18.59-.2,1.74-.08,1.88-.63.74.25-.42.51.6.42l-.14.17c2,.88,3.25-1.42,5.46-.28-.15-.07-.23-.1-.26-.19,2.52.5,5.2-.47,7.69.32.71.16.79-.19,1.22-.46l.15.45.74-.52c1.05-.38,1.82,1.11,3.14.39L607,116c.48.06,1.51-.18,1.43.17.05,0,.16-.32.34-.16l0,.24,1.17-.41c.91.18-.14.94,1.18,1,.49-.09,1.4-.69,1.22-.85s-.51-.15-.52-.38l.45-.13c.08-.69.42-1.41-.68-1.9l-.77.43-.25-.34.65,0c-.37-.32-.6,0-.86.16a.6.6,0,0,0-.33-.38l-.75.67c-.09-.27.34-.54-.17-.69-.35.31.34.61-.25.81-.36-.31-.26-.57-.69-.3-.06-.18,0-.3.2-.38-.38.22-1,.1-1.21.47-.39-.39-1.3.1-1.27-.56a1.94,1.94,0,0,1-1,.54c.65-.79-1.32,0-1.15-.89-.48.71-1.73.32-2.57.71.05-.06.14-.17.21-.13-.47-.06-.61-.28-.92-.41-.06.59-.8.72-1.2,1.08-.58-.56.35-.69.17-1.23,0,.47-1,.47-.82.87-.44-.35-.38-.17-.61-.66-.08.74-.42.13-.79.58-.64-.36-.16-.69-.87-.47C596,113.21,596.62,113,596.62,113Zm-16.89,1.27h0l.35,0Zm-1.42,0h.62c.05.15,0,.3-.15.29C578.86,114.43,578.53,114.35,578.31,114.23Zm3,2.92c-.23.06-.3,0-.33-.11l.39-.05,0,0A1,1,0,0,1,581.32,117.15Z"/><path class="cls-1" d="M581.72,116.59l.09,0-.13-.09-.08.13Z"/><path class="cls-1" d="M453.08,116h0s-.05,0-.06-.06A.13.13,0,0,1,453.08,116Z"/><polygon class="cls-1" points="558.72 113.42 558.72 113.53 558.85 113.43 558.72 113.42"/><path class="cls-1" d="M445.27,114.52a.37.37,0,0,0-.11-.11A.28.28,0,0,0,445.27,114.52Z"/><path class="cls-1" d="M441.89,114.43l-.48-.15A4,4,0,0,0,441.89,114.43Z"/><path class="cls-1" d="M439.29,114.22a.83.83,0,0,0-.05.18h0Z"/><path class="cls-1" d="M480.57,113.72a.18.18,0,0,0,.1,0C480.9,113.62,480.74,113.65,480.57,113.72Z"/><path class="cls-1" d="M468.28,114.71a2.49,2.49,0,0,1,.4-.2C468.46,114.48,468.29,114.47,468.28,114.71Z"/><path class="cls-1" d="M494.28,113.22Z"/><path class="cls-1" d="M469.25,114.52a.75.75,0,0,0-.57,0A1.22,1.22,0,0,0,469.25,114.52Z"/><path class="cls-1" d="M428,114l-.12,0a.14.14,0,0,1,0,.07Z"/><path class="cls-1" d="M427.9,114.08l-.13,0C427.83,114.13,427.88,114.12,427.9,114.08Z"/><path class="cls-1" d="M427.47,114.23l.3-.1C427.66,114.13,427.54,114.11,427.47,114.23Z"/><path class="cls-1" d="M431.48,114.22l0-.15A.27.27,0,0,0,431.48,114.22Z"/><path class="cls-1" d="M432.52,114.18c-.24,0-.62-.33-1-.23l0,.12C431.68,113.84,432.29,114.44,432.52,114.18Z"/><path class="cls-1" d="M436.88,116.07,436,116c.15.16.35.38-.05.42C437.07,116.85,435.74,116,436.88,116.07Z"/><path class="cls-1" d="M439.6,116.3c-.47.08,0,.24,0,.33C439.88,116.48,440,116.45,439.6,116.3Z"/><path class="cls-1" d="M459.2,116.31l0,.38C459.52,116.63,459.16,116.54,459.2,116.31Z"/><polygon class="cls-1" points="462.95 114.32 462.6 114.08 462.43 114.44 462.95 114.32"/><polygon class="cls-1" points="465.17 117.06 465.01 117.11 465.61 116.97 465.17 117.06"/><path class="cls-1" d="M498.1,116.92l-.11-.47C497.74,116.53,497.69,117.06,498.1,116.92Z"/><path class="cls-1" d="M512.31,116.44a.55.55,0,0,0,.8.15C512.8,116.56,512.48,116.38,512.31,116.44Z"/><polygon class="cls-1" points="554.95 117.21 554.66 117.37 555.2 117.23 554.95 117.21"/><path d="M74.86,21.9h4.77v-14h-4V5.13a14.27,14.27,0,0,0,5.15-1.86H84V21.9h4.17v3.57H74.86Z"/><path d="M120.9,1.05v27H117V26.46H99v1.59H95.25v-27ZM117,23.13V4.71H99V23.13ZM114.09,8.25v11.4H101.85V8.25Zm-3.6,3.12h-5.28v5.19h5.28Z"/><path d="M140.19,23.19c1.14-.15,2-.3,2.76-.48,3.81-.9,6.75-3.63,6.75-8,0-4.11-2.22-7.17-6.21-7.86A64.56,64.56,0,0,1,141.72,15c-1.76,6-4.34,9.66-7.59,9.66s-6-3.63-6-8.64c0-6.84,6-12.72,13.67-12.72,7.35,0,12,5.13,12,11.61,0,6.24-3.84,10.68-11.34,11.82Zm-2.31-9A47.69,47.69,0,0,0,139.47,7,9.3,9.3,0,0,0,132,15.6c0,3,1.19,4.47,2.3,4.47S136.68,18.21,137.88,14.19Z"/><path d="M167,17.43l2.76-1.17.8,3.15c-3.17,1.59-6.59,3.18-9.35,4.47l-1.45-3.6c1.08-.39,2.41-.9,3.91-1.5V10.35h-3.51V7h3.51V.45H167V7h3v3.39h-3Zm16,6.9c1.65,0,1.95-.69,2.22-3.75a9,9,0,0,0,3.12,1.29c-.48,4.2-1.53,5.64-5,5.64h-6.39c-4,0-5.22-1.11-5.22-5.25V14.55l-1.61.69-1.33-3.18,2.94-1.23V2.94h3.42V9.36l2.49-1V0h3.33V6.87l2.37-1,.63-.42.63-.42,2.49.87-.12.6c0,5.7-.06,9.3-.21,10.53a2.56,2.56,0,0,1-1.53,2.49,8.36,8.36,0,0,1-3.12.42,9.79,9.79,0,0,0-.75-3,13.65,13.65,0,0,0,1.44.06c.36,0,.54-.12.66-.66s.09-2.67.09-6.93l-2.58,1.14V21.12H177.6V12l-2.49,1.08v9.24c0,1.77.27,2,2.1,2Z"/><path d="M219,22.56a26.9,26.9,0,0,1-3.51,1.89,27.64,27.64,0,0,0,5.76.9,9.47,9.47,0,0,0-1.74,2.7c-4.2-.45-7.32-1.5-9.57-3.39l.09,1.89-11.27,1.38-.58-2.73,2.85-.3V21.57h-2.57a12.11,12.11,0,0,1-3.3,6.24,11.65,11.65,0,0,0-2.49-2.19c2.76-2.52,3.09-6.09,3.09-8.73V13.08h23.78v2.25H199V17a20.93,20.93,0,0,1-.12,2.31H221v2.31h-3.9ZM197.08,9.87h-3.16V4.59h11.31v-1H196V1.05h22.11V3.57h-9.36v1h11.55V9.87H217V6.69h-8.25v5.82h-3.48V6.69h-8.15Zm.33.45h6.89v1.77h-6.89Zm6.86-2.7V9.39h-6.2V7.62Zm-4.19,10.65v-2h17.81v2Zm4.64,6.24,4.53-.51a12.28,12.28,0,0,1-1.83-2.43h-2.7ZM215.94,7.62V9.39h-6.27V7.62Zm-6.27,2.7h7v1.77h-7Zm.93,11.25a7.63,7.63,0,0,0,2.4,1.89,31.51,31.51,0,0,0,3-1.89Z"/><path d="M238.92,1.86c-.17.78-.39,1.71-.54,2.46s-.38,2-.59,3.06c1-.06,1.88-.12,2.48-.12,3.15,0,5.37,1.41,5.37,5.67,0,3.51-.42,8.25-1.68,10.83-1,2.07-2.64,2.73-4.89,2.73a16.41,16.41,0,0,1-3.53-.42l-.66-3.93a16.91,16.91,0,0,0,3.62.63,2.16,2.16,0,0,0,2.22-1.29c.84-1.65,1.23-5.19,1.23-8.13,0-2.37-1-2.7-2.91-2.7-.48,0-1.2.06-2,.12-1.13,4.5-3.29,11.49-6,15.87l-3.89-1.56c2.91-3.9,4.92-9.84,6-13.89-1.05.12-2,.24-2.55.33-.85.09-2.37.3-3.3.45l-.33-4A27.41,27.41,0,0,0,230,8c.93,0,2.34-.12,3.84-.24a32.89,32.89,0,0,0,.63-6.3Zm10.26,2.79a53.55,53.55,0,0,1,5.19,11l-3.75,1.77c-.78-3.3-2.91-8.67-5-11.31Z"/><path d="M267.21,14.31a14.59,14.59,0,0,1,8.73-2.82c5.22,0,8.25,3.21,8.25,6.81,0,5.43-4.29,9.6-16.65,8.52l-1.13-3.9C275.31,24.18,280,22,280,18.21c0-1.92-1.83-3.33-4.44-3.33a10.42,10.42,0,0,0-8.19,3.48,6.15,6.15,0,0,0-1.1,1.74l-3.46-.87A103.88,103.88,0,0,0,264.3,6.84l4,.54C267.93,9,267.42,12.6,267.21,14.31Zm.93-12.9A94.05,94.05,0,0,0,280,3.72l-.9,3.66c-3-.39-9.62-1.77-11.94-2.37Z"/><path d="M319.71,10.71a35.74,35.74,0,0,1-5,6v7c0,2-.39,3.12-1.71,3.69s-3.24.69-6.12.66a14.93,14.93,0,0,0-1.26-3.75c1.86.12,4,.09,4.59.06s.81-.18.81-.69V19.86a52.08,52.08,0,0,1-16.41,8,30.29,30.29,0,0,0-2.39-3.27,50.18,50.18,0,0,0,12.56-4.92c-4.32.36-8.42.69-11.67.9L292.66,17l4.41-.18V2.91h6.2a25.18,25.18,0,0,0,1-2.91l4.38.42c-.42.87-.9,1.71-1.35,2.49h7.47v8.31c.54-.69,1-1.44,1.53-2.19ZM300.63,6V7.71H311V6ZM311,10.26H300.63v1.8H311Zm-10.41,6.39c2.94-.15,6.12-.33,9.3-.51.39-.3.75-.63,1.11-.93v-.54H300.63Z"/><path d="M339.18,21.15c.06-.87.09-2.25.12-3.54-2.19,1.2-3.38,2.37-3.38,3.84,0,1.65,1.4,2.1,4.31,2.1a45.44,45.44,0,0,0,8.43-.87l-.12,3.87a82.2,82.2,0,0,1-8.4.48c-4.64,0-8.15-1.11-8.15-5s3.59-6.18,7-7.92a2.32,2.32,0,0,0-2.07-1,7.35,7.35,0,0,0-4.65,2,36.35,36.35,0,0,0-2.75,3.27l-3.18-2.37a29,29,0,0,0,6.53-8.16h-.35c-1.21,0-3.39-.06-5-.21V4.23a38.12,38.12,0,0,0,5.22.33h1.43a17.39,17.39,0,0,0,.61-3.39l3.89.33c-.15.72-.36,1.74-.72,2.94a68.6,68.6,0,0,0,8.4-.87l0,3.48a96.78,96.78,0,0,1-9.69.78,17.46,17.46,0,0,1-1.71,3,9.3,9.3,0,0,1,3.36-.6,4,4,0,0,1,4,2.31c1.53-.72,2.79-1.23,4-1.77s2.19-1,3.27-1.53l1.5,3.45A31.5,31.5,0,0,0,347.46,14c-1.32.51-3,1.17-4.83,2,0,1.65.09,3.84.12,5.19Z"/><path d="M385.41,14.79h-7.35v9.15c0,2-.42,3-1.8,3.54s-3.38.63-6.21.63a13.38,13.38,0,0,0-1.26-3.63c2,.09,4.17.06,4.77.06s.84-.15.84-.66V14.79H358.71V11.31H374.4V7.62h3.66v3.69h7.35Zm-22.56-4.74h-3.62V3h10.85V.06h3.78V3h10.92v7.05H381V6.33H362.85Zm2,5.46a27,27,0,0,1,4.74,6l-3.06,2.07A26.1,26.1,0,0,0,362,17.34Z"/><path d="M413.25,4.89q-1.08.67-2.07,1.35c-1.59,1.11-4.71,3.75-6.57,5.25a10,10,0,0,1,2.79-.33c5,0,8.88,3.15,8.88,7.47,0,4.68-3.57,8.4-10.74,8.4-4.14,0-7.25-1.89-7.25-4.86,0-2.4,2.18-4.62,5.34-4.62A6,6,0,0,1,410,22.62a4.33,4.33,0,0,0,2.43-4.05c0-2.67-2.7-4.47-6.15-4.47-4.56,0-7.52,2.43-10.7,6l-2.7-2.79c2.09-1.71,5.67-4.74,7.43-6.18S405,7.29,406.47,6c-1.53,0-5.6.21-7.17.33a19.44,19.44,0,0,0-2.42.24l-.13-3.87c.84.09,1.87.15,2.71.15,1.55,0,7.91-.15,9.59-.3a14.33,14.33,0,0,0,2.28-.3Zm-6.72,18.69c-.18-1.92-1.29-3.18-2.9-3.18-1.12,0-1.84.66-1.84,1.41,0,1.11,1.26,1.86,3,1.86A15.66,15.66,0,0,0,406.53,23.58Z"/><path d="M450.84,13.2a54.5,54.5,0,0,1-5.52,3.63,15.29,15.29,0,0,0,6.69,6A15,15,0,0,0,449.52,26c-5.34-2.85-8.31-8.37-10-15.36h-.06A19.88,19.88,0,0,1,437,12.33c5.66,4.92,5.42,12.39,2.45,14.55a4.93,4.93,0,0,1-3.66,1.26,24.68,24.68,0,0,1-2.54-.06,7.62,7.62,0,0,0-1-3.42c1.15.09,2.11.15,2.88.15a2.13,2.13,0,0,0,1.8-.63,3.92,3.92,0,0,0,1-3.36,46.38,46.38,0,0,1-11.45,5.94,15.88,15.88,0,0,0-1.86-3A34.45,34.45,0,0,0,437,17.73a11.7,11.7,0,0,0-.57-1.05,44,44,0,0,1-9.09,4.5,12.1,12.1,0,0,0-1.8-2.7,32.19,32.19,0,0,0,9.27-3.9c-.24-.24-.47-.48-.75-.72a44.29,44.29,0,0,1-7.1,2.55,22.21,22.21,0,0,0-1.83-2.79,36.06,36.06,0,0,0,9.17-3H430v-3h16.11v3h-3.42a26.52,26.52,0,0,0,1.23,3.48,36.09,36.09,0,0,0,4.17-3.27ZM428.92,9.12h-3.51V2.43h10.8V.09h3.65V2.43h11V9.12h-3.66V5.67H428.92Z"/><path d="M469.92,1.86c-.17.78-.39,1.71-.54,2.46s-.38,2-.59,3.06c1-.06,1.88-.12,2.48-.12,3.15,0,5.37,1.41,5.37,5.67,0,3.51-.42,8.25-1.68,10.83-1,2.07-2.64,2.73-4.89,2.73a16.41,16.41,0,0,1-3.53-.42l-.66-3.93a16.91,16.91,0,0,0,3.62.63,2.16,2.16,0,0,0,2.22-1.29c.84-1.65,1.23-5.19,1.23-8.13,0-2.37-1-2.7-2.91-2.7-.48,0-1.2.06-2,.12-1.13,4.5-3.29,11.49-6,15.87l-3.89-1.56c2.91-3.9,4.92-9.84,6-13.89-1.05.12-2,.24-2.55.33-.85.09-2.37.3-3.3.45l-.33-4A27.41,27.41,0,0,0,461,8c.93,0,2.34-.12,3.84-.24a32.89,32.89,0,0,0,.63-6.3Zm10.26,2.79a53.55,53.55,0,0,1,5.19,11l-3.75,1.77c-.78-3.3-2.91-8.67-5-11.31Z"/><path d="M498.21,14.31a14.59,14.59,0,0,1,8.73-2.82c5.22,0,8.25,3.21,8.25,6.81,0,5.43-4.29,9.6-16.65,8.52l-1.13-3.9C506.31,24.18,511,22,511,18.21c0-1.92-1.83-3.33-4.44-3.33a10.42,10.42,0,0,0-8.19,3.48,6.15,6.15,0,0,0-1.1,1.74l-3.46-.87A103.88,103.88,0,0,0,495.3,6.84l4,.54C498.93,9,498.42,12.6,498.21,14.31Zm.93-12.9A94.05,94.05,0,0,0,511,3.72l-.9,3.66c-3-.39-9.62-1.77-11.94-2.37Z"/><path d="M529.71,27.54a56.23,56.23,0,0,0-6.44-6.63l3.11-2.7a56.23,56.23,0,0,1,6.54,6.57Z"/><path d="M27.56,75.1a49,49,0,0,1-2.46,5.49V102H21.53V86.29a31.12,31.12,0,0,1-2.1,2.52,23.13,23.13,0,0,0-1.92-3.72A30.86,30.86,0,0,0,24.2,74Zm18.21,5H44V97.84c0,2.07-.45,3-1.74,3.6s-3.3.66-6.09.66a13.41,13.41,0,0,0-1.2-3.66c2,.09,4.05.09,4.65.09s.78-.18.78-.75V80.05H27.29V76.63H45.77ZM31,94.15V96.1H27.65V83.29h10V94.15Zm0-7.77v4.68h3.33V86.38Z"/><path d="M77.57,75v27h-3.9v-1.59h-18V102H51.92V75Zm-3.9,22.08V78.7h-18V97.12ZM70.76,82.24v11.4H58.52V82.24Zm-3.6,3.12H61.88v5.19h5.28Z"/><path d="M106.49,86.29c2,2.52,2.88,4.62,2.88,7.14,0,4.47-4,7.71-10.53,7.71-4.68,0-8-2-8-7,0-.72.09-1.77.21-3a33.31,33.31,0,0,1-5.7-1l.21-3.6a25.29,25.29,0,0,0,5.85,1.17c.18-1.32.33-2.7.51-4A37.13,37.13,0,0,1,86,82.63l.21-3.45a27.54,27.54,0,0,0,6.09,1.11c.12-.9.18-1.71.24-2.37a18.71,18.71,0,0,0,.06-2.64l4.17.24c-.24,1.08-.39,1.86-.51,2.64-.09.51-.18,1.29-.33,2.25a43.6,43.6,0,0,0,5.46-.36l-.12,3.54a53.24,53.24,0,0,1-5.79.27c-.18,1.32-.36,2.73-.51,4h.21a58.93,58.93,0,0,0,6-.36l-.09,3.54c-1.68.15-3.42.27-5.25.27h-1.2c-.06.87-.12,1.62-.12,2.16C94.52,96,96,97.3,99,97.3c4.14,0,6.42-1.89,6.42-4.35,0-2-1.14-3.93-3.06-5.76Z"/><path d="M133.49,85.78c2,5.85,5.61,10.56,11.22,12.84a14.36,14.36,0,0,0-2.64,3.36c-5.43-2.55-8.91-6.93-11.25-12.72A20.65,20.65,0,0,1,119.6,102a10.57,10.57,0,0,0-2.67-3,18,18,0,0,0,10.89-13.2H117.5V82.09h10.92c.3-2.82.27-5.55.3-8h3.9c0,2.46-.06,5.22-.36,8h11.79v3.69Z"/><path d="M174.8,85.78a34.57,34.57,0,0,1-4.59,1.2c.75,1.59,1.59,3.33,2.46,5l-1.77,2.25c-1.65-.3-4.5-.75-6.48-1l.33-2.85c1.17.15,2.34.24,3.15.33l-1.35-3.09a74.64,74.64,0,0,1-13.05.18l-.15-3.42a60.3,60.3,0,0,0,11.85.06l-.51-1.17L164,81.55a58.91,58.91,0,0,1-10.23-.12L153.56,78a55.93,55.93,0,0,0,9,.33v0a26.72,26.72,0,0,0-1.44-2.55l4.23-.81a25.4,25.4,0,0,0,.93,3,36,36,0,0,0,5.7-1.38l.63,3.33a42.87,42.87,0,0,1-5.1,1.2l.57,1.29.69,1.5a31.8,31.8,0,0,0,5.31-1.47Zm-16.65,5.58a8.8,8.8,0,0,0-.72,2.88c0,1.86,1.32,3.12,5.19,3.12a43.22,43.22,0,0,0,7.86-.66l-.12,3.81a52.61,52.61,0,0,1-7.65.57c-5.55,0-9-1.89-9-6a15.42,15.42,0,0,1,.72-4Z"/><path d="M199,82a43.54,43.54,0,0,1-5.16,1,54.84,54.84,0,0,1-6.36,12.72l-3.63-1.83a45.33,45.33,0,0,0,6.06-10.5c-.51,0-1,0-1.53,0-1.23,0-2.43,0-3.72-.09l-.27-3.48a37.76,37.76,0,0,0,4,.21c.87,0,1.77,0,2.67-.09a25.3,25.3,0,0,0,.81-5l4.11.42c-.24,1-.6,2.46-1,4a31.38,31.38,0,0,0,4-.93Zm3.9,2.67c-.09,1.26,0,2.49,0,3.81,0,.84.09,2.28.18,3.75A19.79,19.79,0,0,1,209.18,96l-2,3.18a26.45,26.45,0,0,0-4-3.15v.27c0,2.76-1.5,4.92-5.73,4.92-3.69,0-6.6-1.65-6.6-4.92,0-2.91,2.43-5.16,6.57-5.16.69,0,1.38.06,2,.12-.09-2.22-.24-4.83-.33-6.63Zm-3.27,9.84a10.51,10.51,0,0,0-2.4-.3c-1.71,0-2.82.72-2.82,1.77s.93,1.86,2.55,1.86c2,0,2.67-1.17,2.67-2.76ZM208,86.23A39.61,39.61,0,0,0,200.81,82l1.92-2.94a53.46,53.46,0,0,1,7.32,4Z"/><path d="M222.65,91.42l2.76-1.17.81,3.15c-3.18,1.59-6.6,3.18-9.36,4.47l-1.44-3.6c1.08-.39,2.4-.9,3.9-1.5V84.34h-3.51V81h3.51V74.44h3.33V81h3v3.39h-3Zm16,6.9c1.65,0,2-.69,2.22-3.75A9,9,0,0,0,244,95.86c-.48,4.2-1.53,5.64-5,5.64h-6.39c-4.05,0-5.22-1.11-5.22-5.25V88.54l-1.62.69-1.32-3.18,2.94-1.23V76.93h3.42v6.42l2.49-1V74h3.33v6.84l2.37-1,.63-.42.63-.42,2.49.87-.12.6c0,5.7-.06,9.3-.21,10.53a2.56,2.56,0,0,1-1.53,2.49,8.36,8.36,0,0,1-3.12.42,9.79,9.79,0,0,0-.75-3,13.65,13.65,0,0,0,1.44.06c.36,0,.54-.12.66-.66s.09-2.67.09-6.93l-2.58,1.14V95.11h-3.33V86L230.78,87v9.24c0,1.77.27,2,2.1,2Z"/><path d="M274.7,96.55a26.9,26.9,0,0,1-3.51,1.89,27.64,27.64,0,0,0,5.76.9,9.47,9.47,0,0,0-1.74,2.7c-4.2-.45-7.32-1.5-9.57-3.39l.09,1.89c-4,.48-8.16,1-11.28,1.38l-.57-2.73,2.85-.3V95.56h-2.58a12,12,0,0,1-3.3,6.24,12,12,0,0,0-2.49-2.2c2.76-2.51,3.09-6.08,3.09-8.72V87.07h23.79v2.25H254.63v1.62a20.93,20.93,0,0,1-.12,2.31h22.14v2.31h-3.9Zm-22-12.69h-3.15V78.58H260.9v-1h-9.27V75h22.11v2.52h-9.36v1h11.55v5.28h-3.3V80.68h-8.25V86.5H260.9V80.68h-8.16Zm.33.45H260v1.77h-6.9Zm6.87-2.7v1.77h-6.21V81.61Zm-4.2,10.65v-2h17.82v2Zm4.65,6.24,4.53-.51a12.28,12.28,0,0,1-1.83-2.43h-2.7Zm11.22-16.89v1.77h-6.27V81.61Zm-6.27,2.7h7v1.77h-7Zm.93,11.25a7.63,7.63,0,0,0,2.4,1.89,31.51,31.51,0,0,0,3-1.89Z"/><path d="M294.59,75.85c-.18.78-.39,1.71-.54,2.46s-.39,2-.6,3.06c1-.06,1.89-.12,2.49-.12,3.15,0,5.37,1.41,5.37,5.67,0,3.51-.42,8.25-1.68,10.83-1,2.07-2.64,2.73-4.89,2.73a16.58,16.58,0,0,1-3.54-.42l-.66-3.93a17.1,17.1,0,0,0,3.63.63,2.16,2.16,0,0,0,2.22-1.29c.84-1.65,1.23-5.19,1.23-8.13,0-2.37-1-2.7-2.91-2.7-.48,0-1.2.06-2,.12-1.14,4.5-3.3,11.49-6,15.87l-3.9-1.56c2.91-3.9,4.92-9.84,6-13.89-1.05.12-2,.24-2.55.33-.84.09-2.37.3-3.3.45l-.33-4a27.59,27.59,0,0,0,3.15,0c.93,0,2.34-.12,3.84-.24a32.89,32.89,0,0,0,.63-6.3Zm10.26,2.79a53.55,53.55,0,0,1,5.19,11l-3.75,1.77c-.78-3.3-2.91-8.67-5-11.31Z"/><path d="M322.88,88.3a14.57,14.57,0,0,1,8.73-2.82c5.22,0,8.25,3.21,8.25,6.81,0,5.43-4.29,9.6-16.65,8.52l-1.14-3.9c8.91,1.26,13.62-.93,13.62-4.71,0-1.92-1.83-3.33-4.44-3.33a10.42,10.42,0,0,0-8.19,3.48A6.44,6.44,0,0,0,322,94.09l-3.45-.87A108.17,108.17,0,0,0,320,80.83l4,.54C323.6,83,323.09,86.59,322.88,88.3Zm.93-12.9a94.05,94.05,0,0,0,11.88,2.31l-.9,3.66c-3-.39-9.63-1.77-11.94-2.37Z"/><path d="M374.51,87.19A54.5,54.5,0,0,1,369,90.82a15.29,15.29,0,0,0,6.69,6,15,15,0,0,0-2.49,3.09c-5.34-2.85-8.31-8.37-10-15.36h-.06a19.29,19.29,0,0,1-2.49,1.74c5.67,4.92,5.43,12.39,2.46,14.55a4.93,4.93,0,0,1-3.66,1.26,22.43,22.43,0,0,1-2.55-.07,7.48,7.48,0,0,0-1-3.41c1.14.09,2.1.15,2.88.15a2.13,2.13,0,0,0,1.8-.63,3.92,3.92,0,0,0,1-3.36,46.26,46.26,0,0,1-11.46,5.94,15.38,15.38,0,0,0-1.86-3,34.5,34.5,0,0,0,12.51-6.06,11.7,11.7,0,0,0-.57-1,44.2,44.2,0,0,1-9.09,4.5,12.83,12.83,0,0,0-1.8-2.7,32.3,32.3,0,0,0,9.27-3.9c-.24-.24-.48-.48-.75-.72a44.75,44.75,0,0,1-7.11,2.55,21.15,21.15,0,0,0-1.83-2.79,36.26,36.26,0,0,0,9.18-3h-4.38v-3h16.11v3h-3.42a26.52,26.52,0,0,0,1.23,3.48,36.09,36.09,0,0,0,4.17-3.27Zm-21.93-4.08h-3.51V76.42h10.8V74.08h3.66v2.34h11v6.69h-3.66V79.66H352.58Z"/><path d="M393,85.42s0,1-.06,1.41c-.33,9.21-.66,12.72-1.5,13.86a2.78,2.78,0,0,1-2.07,1.23,14.44,14.44,0,0,1-3.09.12,8.32,8.32,0,0,0-.9-3.24,17.74,17.74,0,0,0,2.25.12,1,1,0,0,0,.9-.45c.48-.63.81-3.12,1-9.81h-2.58c-.42,5.28-1.44,10-4,13.44a9.54,9.54,0,0,0-2.49-2.5c3-4,3.3-10.58,3.39-17.42H381v-3.3h5v-4.8h3.45v4.8h3.9v1.83A21.3,21.3,0,0,0,396.41,74l3.24.72a25.29,25.29,0,0,1-1,2.88h9.69V80.8H397.07a22.78,22.78,0,0,1-2.46,3.54,19.81,19.81,0,0,0-2.79-1.92l.24-.24h-4.83l-.09,3.24Zm10.41,7.8a11.55,11.55,0,0,0,5.88,6.09A12.41,12.41,0,0,0,407,102a12.94,12.94,0,0,1-5.34-5.82,14,14,0,0,1-6.42,5.82A11.1,11.1,0,0,0,393,99.6c4.17-1.76,5.76-4.16,6.36-6.38H394V90h5.73V87h-1.41a17.85,17.85,0,0,1-1.74,2.73,18.36,18.36,0,0,0-2.76-1.83,16.16,16.16,0,0,0,3.33-6.78l3.21.72c-.18.69-.42,1.38-.66,2H408V87h-4.92V90h5.37v3.18Z"/><path d="M427.85,95.14c.06-.87.09-2.25.12-3.54-2.19,1.2-3.39,2.37-3.39,3.84,0,1.65,1.41,2.1,4.32,2.1a45.44,45.44,0,0,0,8.43-.87l-.12,3.87a82.2,82.2,0,0,1-8.4.48c-4.65,0-8.16-1.11-8.16-5s3.6-6.18,7-7.92a2.32,2.32,0,0,0-2.07-1,7.35,7.35,0,0,0-4.65,2,38,38,0,0,0-2.76,3.27L415,90.07a29,29,0,0,0,6.54-8.16h-.36c-1.2,0-3.39-.06-5-.21V78.22a38.12,38.12,0,0,0,5.22.33h1.44a16.53,16.53,0,0,0,.6-3.39l3.9.33c-.15.72-.36,1.74-.72,2.94a68.6,68.6,0,0,0,8.4-.87L435,81a96.78,96.78,0,0,1-9.69.78,18.15,18.15,0,0,1-1.71,3,9.3,9.3,0,0,1,3.36-.6,4,4,0,0,1,4,2.31c1.53-.72,2.79-1.23,4-1.77s2.19-1,3.27-1.53l1.5,3.45a31.5,31.5,0,0,0-3.54,1.26c-1.32.51-3,1.17-4.83,2,0,1.65.09,3.84.12,5.19Z"/><path d="M474.08,88.78h-7.35v9.15c0,2-.42,3-1.8,3.54s-3.39.63-6.21.63a13.38,13.38,0,0,0-1.26-3.63c2,.09,4.17.06,4.77.06s.84-.15.84-.66V88.78H447.38V85.3h15.69V81.61h3.66V85.3h7.35ZM451.52,84h-3.63V77h10.86V74.05h3.78V77h10.92V84h-3.81V80.32H451.52Zm2,5.46a27.33,27.33,0,0,1,4.74,6l-3.06,2.07a26.17,26.17,0,0,0-4.53-6.21Z"/><path d="M501.92,78.88q-1.08.68-2.07,1.35c-1.59,1.11-4.71,3.75-6.57,5.25a10,10,0,0,1,2.79-.33c5,0,8.88,3.15,8.88,7.47,0,4.68-3.57,8.4-10.74,8.4-4.14,0-7.26-1.89-7.26-4.86,0-2.4,2.19-4.62,5.34-4.62a6,6,0,0,1,6.33,5.07,4.33,4.33,0,0,0,2.43-4c0-2.67-2.7-4.47-6.15-4.47-4.56,0-7.53,2.43-10.71,6l-2.7-2.79c2.1-1.71,5.67-4.74,7.44-6.18s4.74-3.87,6.21-5.16c-1.53,0-5.61.21-7.17.33a19.61,19.61,0,0,0-2.43.24l-.12-3.87c.84.09,1.86.15,2.7.15,1.56,0,7.92-.15,9.6-.3a14.33,14.33,0,0,0,2.28-.3ZM495.2,97.57c-.18-1.92-1.29-3.18-2.91-3.18-1.11,0-1.83.66-1.83,1.41,0,1.11,1.26,1.86,3,1.86A15.66,15.66,0,0,0,495.2,97.57Z"/><path d="M539.51,87.19A54.5,54.5,0,0,1,534,90.82a15.29,15.29,0,0,0,6.69,6,15,15,0,0,0-2.49,3.09c-5.34-2.85-8.31-8.37-10-15.36h-.06a19.29,19.29,0,0,1-2.49,1.74c5.67,4.92,5.43,12.39,2.46,14.55a4.93,4.93,0,0,1-3.66,1.26,22.43,22.43,0,0,1-2.55-.07,7.48,7.48,0,0,0-1-3.41c1.14.09,2.1.15,2.88.15a2.13,2.13,0,0,0,1.8-.63,3.92,3.92,0,0,0,1-3.36,46.26,46.26,0,0,1-11.46,5.94,15.38,15.38,0,0,0-1.86-3,34.5,34.5,0,0,0,12.51-6.06,11.7,11.7,0,0,0-.57-1,44.2,44.2,0,0,1-9.09,4.5,12.83,12.83,0,0,0-1.8-2.7,32.3,32.3,0,0,0,9.27-3.9c-.24-.24-.48-.48-.75-.72a44.75,44.75,0,0,1-7.11,2.55,21.15,21.15,0,0,0-1.83-2.79,36.26,36.26,0,0,0,9.18-3h-4.38v-3h16.11v3h-3.42a26.52,26.52,0,0,0,1.23,3.48,36.09,36.09,0,0,0,4.17-3.27Zm-21.93-4.08h-3.51V76.42h10.8V74.08h3.66v2.34h11v6.69h-3.66V79.66H517.58Z"/><path d="M548.48,88.12c1.38-1.41,3.69-4.47,5.52-6.6,2.07-2.37,4-2.58,6.18-.48s4.38,5,6.15,7a102.81,102.81,0,0,0,7.26,7.29l-3.06,3.51c-2.13-2-4.68-4.86-6.57-7.08s-4.05-5-5.46-6.57c-1-1.14-1.59-1-2.46.09-1.17,1.5-3.3,4.44-4.56,6.12-.69,1-1.35,2-1.89,2.82L546,90.46A25.2,25.2,0,0,0,548.48,88.12Z"/><path d="M588.38,96.88A4.85,4.85,0,1,1,583.52,92,4.86,4.86,0,0,1,588.38,96.88Zm-2.16,0a2.69,2.69,0,1,0-2.7,2.67A2.69,2.69,0,0,0,586.22,96.88Z"/></g></g></svg>