<svg xmlns="http://www.w3.org/2000/svg" viewBox="0 0 426.05 122.33"><defs><style>.cls-1{fill:#fff;}</style></defs><title>sp-banner1</title><g id="Layer_2" data-name="Layer 2"><g id="SVG"><path class="cls-1" d="M7.5,28.05a20.54,20.54,0,0,0-.85,5c0,3.15,3,5.45,10.15,5.45a70.21,70.21,0,0,0,17.4-2l0,7a75.6,75.6,0,0,1-17.2,1.7C5.7,45.2,0,41.4,0,34.6a31.85,31.85,0,0,1,1-7.15Zm-4.2-21a129.77,129.77,0,0,0,13.5.6c4.9,0,10.55-.3,14.35-.7V13.6c-3.45.25-9.6.6-14.3.6-5.2,0-9.5-.25-13.55-.55Z"/><path class="cls-1" d="M62.5,28.05a20.54,20.54,0,0,0-.85,5c0,3.15,3,5.45,10.15,5.45a70.21,70.21,0,0,0,17.4-2l0,7a75.6,75.6,0,0,1-17.2,1.7c-11.35,0-17-3.8-17-10.6a31.85,31.85,0,0,1,1-7.15Zm-4.2-21a129.77,129.77,0,0,0,13.5.6c4.9,0,10.55-.3,14.35-.7V13.6c-3.45.25-9.6.6-14.3.6-5.2,0-9.5-.25-13.55-.55Z"/><path class="cls-1" d="M125.05,4.3c-.3,1.3-.6,2.85-.85,4.1-.3,1.5-.7,3.3-1,5.1,1.65-.1,3.15-.2,4.15-.2,5.25,0,9,2.35,9,9.45,0,5.85-.7,13.75-2.8,18-1.65,3.45-4.35,4.55-8.15,4.55a28,28,0,0,1-5.9-.7l-1.1-6.55a28.89,28.89,0,0,0,6.1,1A3.64,3.64,0,0,0,128.1,37c1.35-2.75,2-8.65,2-13.55,0-3.95-1.7-4.5-4.8-4.5-.8,0-2,.1-3.4.2-2,7.5-5.55,19.15-10.1,26.45L105.35,43c4.8-6.5,8.2-16.4,10-23.15-1.75.2-3.3.4-4.25.55-1.4.15-4,.5-5.5.75l-.55-6.7a46,46,0,0,0,5.25,0c1.55,0,3.9-.2,6.4-.4a54.82,54.82,0,0,0,1-10.5Zm17.75,5.9a98.39,98.39,0,0,1,8,17.25l-6.3,2.95c-1.3-5.5-4.8-14.25-8.35-18.65l4.6-1.95a55.28,55.28,0,0,0-3.4-5.9l3.95-1.65c1.25,1.85,3,5,4,6.85Zm4.55-1.65a49.89,49.89,0,0,0-4-6.9L147.25,0a59.17,59.17,0,0,1,4.05,6.8Z"/><path class="cls-1" d="M170.6,36.3c2,3.35,5.45,4.75,10.55,5,6,.25,17.8.1,24.7-.45A27.11,27.11,0,0,0,204,46.6c-6.2.3-16.8.4-22.9.15-5.95-.25-9.95-1.7-12.95-5.55-2,1.95-4.05,3.85-6.6,6l-2.8-5.9a59.92,59.92,0,0,0,6.2-4.6V25.8h-5.6V20.35H170.6Zm-4.3-22.6a36.45,36.45,0,0,0-6.85-8.1l4.65-3.25c2.65,2.25,5.85,5.45,7.25,7.85Zm38.55.6H172v-4h8.9c.25-.7.45-1.4.7-2.15h-6.35V4.3h7.5c.35-1.15.65-2.3.9-3.35l5.75.6c-.25.9-.55,1.8-.8,2.75h10.75v6h5.5ZM188.6,40.2v-3H172.3V33.15h5.2v-2.3h-3.8v-4h14.9V25.2H175.8V15.9h24.9v9.3h-6.5v1.65h9v4h-9v2.3h10.35V37.2H194.2v3Zm-7.4-18.45h13.7V19.3H181.2Zm7.4,11.4v-2.3h-5.7v2.3ZM186.7,10.3h7.15V8.15H187.4Z"/><path class="cls-1" d="M239.25,21c-5.45,0-10.35,1.65-12.9,2.4-1.45.45-3.35,1.2-4.8,1.7l-1.85-7a48.55,48.55,0,0,0,5.4-.85c3.65-.8,9.2-2.25,15-2.25,7.85,0,13.35,4.45,13.35,12.2,0,10.6-9.8,17.2-23.55,19.1l-3.6-6.2c12.3-1.4,20.15-5.4,20.15-13.15C246.4,23.6,243.9,20.9,239.25,21Zm10-15.65-1,6.1c-5.8-.4-16.55-1.35-22.25-2.35l1-6A139.86,139.86,0,0,0,249.25,5.3Z"/><path class="cls-1" d="M287.1,38.85a5.21,5.21,0,0,1,10.4,0,5.21,5.21,0,0,1-10.4,0Zm.85-25.5-.2-7.45h9.15l-.25,7.45-1.75,17.1h-5.15Z"/><path class="cls-1" d="M9.4,79.62c-.1,1.1-.15,2.2-.15,3.8v16.9c0,1.25.05,3.2.15,4.35H2c0-1,.25-2.9.25-4.4V83.42a34,34,0,0,0-.2-3.8Zm23.05-.45c-.1,1.4-.2,3-.2,5v9.9c0,10.75-2.1,15.35-5.8,19.45-3.3,3.66-8.5,6.11-12.15,7.26l-5.25-5.51c5-1.14,9.2-3,12.25-6.3,3.4-3.75,4.05-7.5,4.05-15.3v-9.5a35.27,35.27,0,0,0-.3-5Z"/><path class="cls-1" d="M89,84.07a23.63,23.63,0,0,0-1.75,3.1,73.51,73.51,0,0,1-7.85,13.75,139.54,139.54,0,0,1,13.95,14.31l-5.7,5A113.36,113.36,0,0,0,75.05,106a65.9,65.9,0,0,1-18.8,14.06l-5.15-5.41a56.65,56.65,0,0,0,20.5-14.35c3.3-3.75,6.35-8.7,7.45-12.25H62.1c-2.1,0-4.85.3-5.9.35v-7.1a55.86,55.86,0,0,0,5.9.35H79.7A18.05,18.05,0,0,0,84.9,81Z"/><path class="cls-1" d="M147.25,86.07a23.52,23.52,0,0,0-1.65,3.55,57.55,57.55,0,0,1-6.9,13.7c1.85,1.15,3.55,2.3,4.8,3.2L139,112.37a57.9,57.9,0,0,0-4.65-3.55,47.74,47.74,0,0,1-18.45,12.46l-5.8-5A42.38,42.38,0,0,0,128.7,105c-3.4-2.2-6.8-4.25-9.35-5.7l4.25-4.75c2.65,1.35,6.05,3.25,9.4,5.25a36.42,36.42,0,0,0,5.2-10.65H123.85a58.84,58.84,0,0,1-13.2,12.9l-5.4-4.15a45.77,45.77,0,0,0,16-16.6,22.12,22.12,0,0,0,2.25-5.25l7.25,2.25c-1.2,1.75-2.5,4.05-3.1,5.1l0,0H137.8a15.88,15.88,0,0,0,4.35-.55Z"/><path class="cls-1" d="M180.85,114.17c1.9-.25,3.3-.5,4.6-.79,6.35-1.51,11.25-6.06,11.25-13.26,0-6.85-3.7-12-10.35-13.1a107.61,107.61,0,0,1-2.95,13.45c-3,10-7.25,16.11-12.65,16.11s-10.1-6.06-10.1-14.41c0-11.4,9.95-21.2,22.8-21.2,12.25,0,20,8.55,20,19.35,0,10.4-6.4,17.81-18.9,19.71Zm-3.85-15a79.48,79.48,0,0,0,2.65-12c-8.2,1.7-12.55,8.9-12.55,14.35,0,5,2,7.45,3.85,7.45C173,109,175,105.87,177,99.17Z"/><path class="cls-1" d="M214.35,77.92H240.6v5.7H229.75c-.55,1.65-1.15,3.2-1.75,4.6h12.15V117c0,2.15-.3,3.45-1.6,4.2s-2.8.9-5,.9A20.26,20.26,0,0,0,232.4,118h-3.3V93.32h-2.3V118H223V93.32h-2.6v28.76h-4.8V88.22h7.1c.45-1.45.9-3,1.25-4.6h-9.55Zm21,15.4h-2.4v24.2h1.85c.4,0,.55-.14.55-.6Zm25.3-1.7h-3.15v24c0,3-.65,4.41-2.35,5.41s-4.2,1.15-7.75,1.15a24.25,24.25,0,0,0-2-5.6c2.35.1,4.6.1,5.35.1s1.05-.25,1.05-1.06v-24h-10.5V86.07h10.5V75.87h5.7v10.2h3.15Zm-14.4,3.95a35.58,35.58,0,0,1,4.05,11l-5.1,1.85a39,39,0,0,0-3.75-11.15Z"/><path class="cls-1" d="M312.25,113.13a44.72,44.72,0,0,1-5.85,3.14,45.42,45.42,0,0,0,9.6,1.5,16,16,0,0,0-2.9,4.51c-7-.75-12.2-2.5-16-5.65l.15,3.15c-6.65.8-13.6,1.65-18.8,2.3l-.95-4.56c1.4-.14,3-.29,4.75-.5v-5.55H278a19.93,19.93,0,0,1-5.5,10.41,19.42,19.42,0,0,0-4.15-3.65c4.6-4.21,5.15-10.16,5.15-14.56V97.32h39.65v3.75H278.8v2.7a34.88,34.88,0,0,1-.2,3.85h36.9v3.85H309ZM275.65,92H270.4v-8.8h18.85v-1.7H273.8v-4.2h36.85v4.2h-15.6v1.7H314.3V92h-5.5v-5.3H295.05v9.7h-5.8v-9.7h-13.6Zm.55.75h11.5v3H276.2Zm11.45-4.5v3H277.3v-3Zm-7,17.75v-3.35h29.7V106Zm7.75,10.41,7.55-.86a20.47,20.47,0,0,1-3.05-4h-4.5Zm18.7-28.16v3H296.65v-3Zm-10.45,4.5H308.3v3H296.65Zm1.55,18.75a12.89,12.89,0,0,0,4,3.16,54.66,54.66,0,0,0,4.95-3.16Z"/><path class="cls-1" d="M370.4,115.07v5.66H339.3v-5.66h13.35v-10H343V99.52h9.65v-8.2h-5.5a34.16,34.16,0,0,1-2.8,6.9,52.58,52.58,0,0,0-5.3-2.7c.5-.9,1-1.85,1.5-2.9l-2.85,1.3a34.77,34.77,0,0,0-1.9-5.75v34.16h-5.95V86.57a63.72,63.72,0,0,1-2.25,13.25l-4.4-1.6a59.42,59.42,0,0,0,2.45-13l4.2.6V75.62h5.95v9.45l2.9-1.2a57.33,57.33,0,0,1,2.75,6.3A60.51,60.51,0,0,0,344.1,78l5.8.8c-.35,2.35-.75,4.7-1.25,7h4v-9.8h6v9.8h10.2v5.6H358.6v8.2h9.15v5.55H358.6v10Z"/><path class="cls-1" d="M398.25,78.92c2.45,3.6,5.1,8.35,6.05,11.6l-5.45,2.2a18.47,18.47,0,0,0-.9-2.65c-6.6.45-13.4.85-18.5,1.15l-.5-5.65c1.2,0,2.5,0,3.9-.1a79,79,0,0,0,3.65-10l6.2,1.25c-1.15,2.9-2.5,5.9-3.75,8.55l6.65-.3c-.75-1.4-1.55-2.8-2.35-4.1Zm2.5,37.35c0,2.61-.5,4.06-2.15,4.91s-4,1-7,1a22.23,22.23,0,0,0-1.9-5.26,39,39,0,0,0,4.4,0c.6,0,.8-.15.8-.75v-3.35h-7.5v9.46h-5.5V93.57h18.85ZM387.4,98.47v2.6h7.5v-2.6Zm7.5,10v-3h-7.5v3ZM412,98.07c-5.85,0-7.25-1.75-7.25-7.25v-15h5.9v7.15a77.9,77.9,0,0,0,9-4.15l3.8,4.3a91.74,91.74,0,0,1-12.8,4.7v3c0,1.8.3,2,2.2,2h5.45c1.6,0,1.95-.75,2.15-5.1a16.44,16.44,0,0,0,5.25,2.2c-.65,6.4-2.2,8.25-6.8,8.25Zm6.6,18.7c1.7,0,2.05-.94,2.3-6a18.51,18.51,0,0,0,5.2,2.2c-.65,7.06-2.15,9-6.95,9H412c-5.85,0-7.3-1.7-7.3-7.21V99.07h5.85v6.75a56.63,56.63,0,0,0,9.4-4.7l3.95,4.35a75.8,75.8,0,0,1-13.35,5.3v4c0,1.75.35,2,2.3,2Z"/></g></g></svg>