<?xml version="1.0" encoding="UTF-8"?>
<svg width="324px" height="676px" viewBox="0 0 324 676" version="1.1" xmlns="http://www.w3.org/2000/svg" xmlns:xlink="http://www.w3.org/1999/xlink">
    <!-- Generator: Sketch 51.3 (57544) - http://www.bohemiancoding.com/sketch -->
    <title>Combined Shape Copy 2</title>
    <desc>Created with Sketch.</desc>
    <defs>
        <linearGradient x1="119.400132%" y1="87.7997279%" x2="119.400132%" y2="0%" id="linearGradient-1">
            <stop stop-color="#6F6F6F" offset="0%"></stop>
            <stop stop-color="#000000" offset="100%"></stop>
        </linearGradient>
    </defs>
    <g id="Page-1" stroke="none" stroke-width="1" fill="none" fill-rule="evenodd" opacity="0.6">
        <g id="01-Homepage" transform="translate(-1079.000000, -1584.000000)" fill="url(#linearGradient-1)">
            <path d="M1161.3068,2087.0053 C1162.9298,2087.4583 1164.1218,2088.9313 1164.1198,2090.6963 C1164.1168,2092.8223 1162.3968,2094.5403 1160.2668,2094.5373 C1158.1468,2094.5343 1156.4298,2092.8103 1156.4318,2090.6863 C1156.4358,2088.9163 1157.6328,2087.4493 1159.2578,2087.0033 L1159.3618,2017.8513 L1134.9248,1993.3403 L1135.0708,1894.4043 L1156.5798,1894.4353 L1156.8398,1766.3963 L1158.8788,1766.3963 L1158.6188,1896.4853 L1137.1098,1896.4533 L1136.9688,1992.4993 L1161.4098,2017.0113 L1161.3068,2087.0053 Z M1169.6632,2069.8837 C1171.2912,2070.3357 1172.4842,2071.8087 1172.4822,2073.5807 C1172.4772,2075.7017 1170.7532,2077.4217 1168.6362,2077.4187 C1166.5122,2077.4157 1164.7912,2075.6907 1164.7952,2073.5697 C1164.7972,2071.7977 1165.9992,2070.3287 1167.6252,2069.8807 L1167.7072,2013.6727 L1143.2642,1989.1567 L1143.3922,1902.6817 L1164.9002,1902.7157 L1165.1802,1766.3967 L1167.2252,1766.3967 L1166.9462,1904.7627 L1145.4372,1904.7317 L1145.3162,1988.3147 L1169.7492,2012.8277 L1169.6632,2069.8837 Z M1178.9767,2066.4906 C1180.6007,2066.9446 1181.7967,2068.4186 1181.7947,2070.1836 C1181.7927,2072.3076 1180.0667,2074.0256 1177.9467,2074.0226 C1175.8247,2074.0186 1174.1007,2072.2956 1174.1037,2070.1726 C1174.1067,2068.4076 1175.3077,2066.9336 1176.9327,2066.4876 L1177.0177,2010.2726 L1152.5747,1985.7626 L1152.6867,1912.3236 L1174.1967,1912.3546 L1174.4927,1766.3966 L1176.5387,1766.3966 L1176.2417,1914.4036 L1154.7287,1914.3696 L1154.6237,1984.9216 L1179.0617,2009.4306 L1178.9767,2066.4906 Z M1208.4513,1922.9496 L1208.5013,1890.3866 L1184.0663,1865.8746 L1184.2143,1766.9376 L1205.7173,1766.9696 L1205.9713,1619.4196 C1204.3343,1618.9496 1203.1293,1617.4576 1203.1293,1615.6696 C1203.1293,1613.5046 1204.8843,1611.7496 1207.0493,1611.7496 C1209.2133,1611.7496 1210.9683,1613.5046 1210.9683,1615.6696 C1210.9683,1617.4966 1209.7113,1619.0186 1208.0193,1619.4526 L1207.7643,1769.0156 L1186.2503,1768.9836 L1186.1093,1865.0296 L1210.5463,1889.5396 L1210.4963,1924.9986 L1171.3473,1924.9396 C1170.8943,1926.5636 1169.4143,1927.7596 1167.6503,1927.7566 C1165.5273,1927.7556 1163.8113,1926.0316 1163.8133,1923.9046 C1163.8153,1921.7826 1165.5393,1920.0646 1167.6643,1920.0686 C1169.4303,1920.0706 1170.9033,1921.2726 1171.3483,1922.8926 L1208.4513,1922.9496 Z M1194.5783,1777.267 L1194.4553,1860.851 L1218.8933,1885.36 L1218.8163,1936.861 L1186.3263,1936.813 C1185.8703,1938.434 1184.3943,1939.632 1182.6293,1939.63 C1180.5043,1939.626 1178.7883,1937.901 1178.7913,1935.779 C1178.7943,1933.656 1180.5153,1931.94 1182.6403,1931.943 C1184.4053,1931.946 1185.8773,1933.144 1186.3303,1934.769 L1216.7713,1934.814 L1216.8423,1886.203 L1192.4103,1861.693 L1192.5353,1775.215 L1214.0413,1775.25 L1214.3103,1591.698 C1212.6273,1591.257 1211.3793,1589.74 1211.3793,1587.919 C1211.3793,1585.755 1213.1343,1584 1215.2993,1584 C1217.4633,1584 1219.2183,1585.755 1219.2183,1587.919 C1219.2183,1589.714 1218.0043,1591.211 1216.3573,1591.676 L1216.0853,1777.3 L1194.5783,1777.267 Z M1275.1867,2118.7494 C1276.8077,2119.2004 1278.0017,2120.6744 1277.9987,2122.4374 C1277.9957,2124.5644 1276.2747,2126.2814 1274.1507,2126.2794 C1272.0247,2126.2754 1270.3077,2124.5544 1270.3117,2122.4254 C1270.3137,2120.6604 1271.5117,2119.1874 1273.1367,2118.7454 L1273.2377,2049.5934 L1259.1727,2035.4794 L1259.0857,2095.4214 C1260.7057,2095.8744 1261.9037,2097.3494 1261.9007,2099.1144 C1261.8977,2101.2374 1260.1757,2102.9564 1258.0467,2102.9524 C1255.9237,2102.9494 1254.2087,2101.2264 1254.2127,2099.1034 C1254.2147,2097.3354 1255.4087,2095.8644 1257.0397,2095.4174 L1257.1287,2033.4314 L1250.8457,2027.1294 L1250.7927,2063.1924 C1252.4167,2063.6454 1253.6147,2065.1164 1253.6117,2066.8854 C1253.6087,2069.0074 1251.8787,2070.7264 1249.7587,2070.7224 C1247.6407,2070.7194 1245.9157,2068.9954 1245.9197,2066.8744 C1245.9217,2065.1074 1247.1247,2063.6364 1248.7497,2063.1874 L1248.8067,2025.0814 L1248.8477,1997.2684 L1248.9517,1926.1454 L1270.4597,1926.1774 L1270.7127,1745.9654 C1269.0587,1745.5064 1267.8357,1744.0054 1267.8357,1742.2044 C1267.8357,1740.0404 1269.5907,1738.2854 1271.7557,1738.2854 C1273.9197,1738.2854 1275.6747,1740.0404 1275.6747,1742.2044 C1275.6747,1744.0204 1274.4327,1745.5344 1272.7557,1745.9784 L1272.4987,1928.2274 L1250.9927,1928.1964 L1250.8887,1997.2714 L1250.8497,2024.2434 L1275.2907,2048.7524 L1275.1867,2118.7494 Z M1283.5451,2101.6264 C1285.1651,2102.0814 1286.3651,2103.5554 1286.3631,2105.3194 C1286.3591,2107.4454 1284.6361,2109.1614 1282.5101,2109.1584 C1280.3901,2109.1544 1278.6691,2107.4344 1278.6721,2105.3084 C1278.6751,2103.5434 1279.8771,2102.0724 1281.5021,2101.6234 L1281.5851,2045.4114 L1257.1481,2020.9014 L1257.2751,1934.4274 L1278.7831,1934.4594 L1279.0591,1711.7274 C1277.4831,1711.2194 1276.3371,1709.7584 1276.3371,1708.0144 C1276.3371,1705.8504 1278.0921,1704.0954 1280.2561,1704.0954 C1282.4211,1704.0954 1284.1761,1705.8504 1284.1761,1708.0144 C1284.1761,1709.8894 1282.8581,1711.4524 1281.0981,1711.8384 L1280.8221,1936.5054 L1259.3191,1936.4744 L1259.1961,2020.0564 L1283.6291,2044.5674 L1283.5451,2101.6264 Z M1228.84,1972.913 C1230.463,1973.367 1231.657,1974.838 1231.655,1976.603 C1231.652,1978.728 1229.926,1980.447 1227.806,1980.443 C1225.68,1980.439 1223.959,1978.716 1223.963,1976.591 C1223.967,1974.825 1225.171,1973.356 1226.789,1972.911 L1226.92,1883.461 L1202.488,1858.951 L1202.596,1785.511 L1224.11,1785.544 L1224.399,1605.815 C1222.659,1605.414 1221.359,1603.864 1221.359,1602.002 C1221.359,1599.838 1223.113,1598.083 1225.277,1598.083 C1227.443,1598.083 1229.197,1599.838 1229.197,1602.002 C1229.197,1603.761 1228.031,1605.231 1226.438,1605.727 L1226.145,1787.592 L1204.641,1787.56 L1204.536,1858.111 L1228.975,1882.621 L1228.84,1972.913 Z M1214.7492,1841.0053 L1214.8142,1796.2763 L1236.3292,1796.3083 L1236.5872,1613.8573 L1238.6272,1613.8573 L1238.3672,1798.3533 L1216.8582,1798.3213 L1216.7972,1841.0103 C1218.4202,1841.4593 1219.6132,1842.9343 1219.6112,1844.7043 C1219.6052,1846.8233 1217.8852,1848.5453 1215.7672,1848.5453 C1213.6362,1848.5413 1211.9262,1846.8153 1211.9282,1844.6943 C1211.9312,1842.9233 1213.1282,1841.4563 1214.7492,1841.0053 Z M1223.0666,1853.8041 L1223.1396,1804.5511 L1244.6526,1804.5851 L1244.9266,1613.8571 L1246.9716,1613.8571 L1246.6946,1806.6311 L1225.1816,1806.5971 L1225.1126,1853.8061 C1226.7386,1854.2581 1227.9336,1855.7301 1227.9316,1857.5011 C1227.9276,1859.6231 1226.2036,1861.3391 1224.0806,1861.3381 C1221.9546,1861.3341 1220.2386,1859.6141 1220.2396,1857.4881 C1220.2426,1855.7181 1221.4456,1854.2511 1223.0666,1853.8041 Z M1234.4025,1863.0204 C1236.0285,1863.4734 1237.2255,1864.9494 1237.2235,1866.7194 C1237.2195,1868.8414 1235.5005,1870.5574 1233.3705,1870.5524 C1231.2485,1870.5494 1229.5335,1868.8294 1229.5375,1866.7074 C1229.5375,1864.9374 1230.7405,1863.4664 1232.3675,1863.0204 L1232.4375,1814.1884 L1253.9455,1814.2224 L1254.2395,1613.8564 L1256.2835,1613.8564 L1255.9855,1816.2704 L1234.4755,1816.2394 L1234.4025,1863.0204 Z M1265.8185,1855.7748 L1265.7285,1916.1118 L1242.1725,1916.0758 L1242.2845,1839.8888 L1263.7975,1839.9208 L1264.0455,1673.3348 C1262.3395,1672.9098 1261.0705,1671.3798 1261.0705,1669.5438 C1261.0705,1667.3788 1262.8255,1665.6238 1264.9905,1665.6238 C1267.1545,1665.6238 1268.9095,1667.3788 1268.9095,1669.5438 C1268.9095,1671.3238 1267.7145,1672.8098 1266.0895,1673.2868 L1265.8385,1841.9738 L1244.3305,1841.9418 L1244.2255,1914.0348 L1263.6895,1914.0638 L1263.7705,1857.8158 L1255.6495,1857.8048 L1255.6015,1890.1518 C1257.2235,1890.6068 1258.4225,1892.0818 1258.4205,1893.8458 C1258.4175,1895.9688 1256.6895,1897.6908 1254.5685,1897.6888 C1252.4455,1897.6818 1250.7275,1895.9598 1250.7305,1893.8368 C1250.7345,1892.0698 1251.9375,1890.5978 1253.5555,1890.1498 L1253.6075,1855.7578 L1265.8185,1855.7748 Z M1382.4982,1932.0214 L1382.4452,1967.4794 L1362.1372,1967.4514 C1361.6862,1969.0664 1360.2072,1970.2724 1358.4422,1970.2714 C1356.3182,1970.2654 1354.6012,1968.5374 1354.6022,1966.4204 C1354.6042,1964.2934 1356.3342,1962.5704 1358.4582,1962.5764 C1360.2232,1962.5784 1361.6912,1963.7844 1362.1412,1965.4074 L1380.4042,1965.4364 L1380.4522,1932.8644 L1356.0142,1908.3604 L1356.1652,1809.4204 L1377.6732,1809.4524 L1377.9242,1672.3944 C1376.0722,1672.0814 1374.6602,1670.4814 1374.6602,1668.5414 C1374.6602,1666.3764 1376.4142,1664.6224 1378.5792,1664.6224 C1380.7442,1664.6224 1382.4982,1666.3764 1382.4982,1668.5414 C1382.4982,1670.2144 1381.4442,1671.6334 1379.9682,1672.1954 L1379.7092,1811.4994 L1358.2022,1811.4704 L1358.0612,1907.5174 L1382.4982,1932.0214 Z M1366.5294,1819.7499 L1366.4044,1903.3299 L1390.8404,1927.8419 L1390.7664,1979.3449 L1377.1194,1979.3269 C1376.6634,1980.9479 1375.1864,1982.1459 1373.4224,1982.1439 C1371.2984,1982.1379 1369.5834,1980.4129 1369.5794,1978.2909 C1369.5854,1976.1669 1371.3104,1974.4519 1373.4334,1974.4569 C1375.1994,1974.4589 1376.6724,1975.6569 1377.1204,1977.2799 L1388.7204,1977.2979 L1388.7934,1928.6849 L1364.3584,1904.1729 L1364.4884,1817.6969 L1385.9974,1817.7289 L1386.2644,1707.7899 C1384.7204,1707.2639 1383.6024,1705.8169 1383.6024,1704.0949 C1383.6024,1701.9309 1385.3574,1700.1759 1387.5214,1700.1759 C1389.6864,1700.1759 1391.4414,1701.9309 1391.4414,1704.0949 C1391.4414,1705.9909 1390.0954,1707.5709 1388.3084,1707.9359 L1388.0374,1819.7819 L1366.5294,1819.7499 Z M1400.0597,1989.4862 C1401.6837,1989.9402 1402.8747,1991.4212 1402.8727,1993.1862 C1402.8717,1995.3022 1401.1487,1997.0202 1399.0207,1997.0232 C1396.9027,1997.0132 1395.1787,1995.2902 1395.1807,1993.1742 C1395.1827,1991.4092 1396.3887,1989.9342 1398.0097,1989.4832 L1398.1017,1925.2922 L1373.6687,1900.7822 L1373.7757,1827.3392 L1395.2887,1827.3662 L1395.5777,1665.5142 C1393.8417,1665.1112 1392.5447,1663.5632 1392.5447,1661.7042 C1392.5447,1659.5402 1394.2997,1657.7852 1396.4647,1657.7852 C1398.6287,1657.7852 1400.3837,1659.5402 1400.3837,1661.7042 C1400.3837,1663.4652 1399.2157,1664.9362 1397.6197,1665.4312 L1397.3277,1829.4162 L1375.8187,1829.3842 L1375.7187,1899.9312 L1400.1527,1924.4442 L1400.0597,1989.4862 Z M1322.9679,1980.8056 L1322.8799,2041.1416 L1299.3259,2041.1076 L1299.4379,1964.9206 L1320.9469,1964.9526 L1321.1919,1786.5726 C1319.3699,1786.2346 1317.9899,1784.6446 1317.9899,1782.7256 C1317.9899,1780.5616 1319.7439,1778.8066 1321.9089,1778.8066 C1324.0739,1778.8066 1325.8279,1780.5616 1325.8279,1782.7256 C1325.8279,1784.4216 1324.7449,1785.8516 1323.2389,1786.3976 L1322.9889,1966.9986 L1301.4799,1966.9666 L1301.3739,2039.0616 L1320.8369,2039.0916 L1320.9199,1982.8456 L1312.8029,1982.8326 L1312.7549,2015.1836 C1314.3769,2015.6386 1315.5759,2017.1136 1315.5719,2018.8756 C1315.5709,2021.0006 1313.8439,2022.7176 1311.7229,2022.7146 C1309.6009,2022.7126 1307.8799,2020.9876 1307.8839,2018.8646 C1307.8869,2017.0986 1309.0869,2015.6286 1310.7129,2015.1826 L1310.7639,1980.7876 L1322.9679,1980.8056 Z M1105.338,2194.4857 C1106.955,2194.9447 1108.153,2196.4207 1108.149,2198.1817 C1108.144,2200.3067 1106.424,2202.0277 1104.302,2202.0257 C1102.178,2202.0207 1100.46,2200.2917 1100.459,2198.1727 C1100.461,2196.4077 1101.661,2194.9377 1103.291,2194.4847 L1103.435,2094.3177 L1079,2069.8057 L1079.147,1970.8737 L1100.657,1970.9037 L1100.91,1799.7987 C1099.246,1799.3457 1098.016,1797.8397 1098.016,1796.0317 C1098.016,1793.8677 1099.771,1792.1127 1101.936,1792.1127 C1104.1,1792.1127 1105.855,1793.8677 1105.855,1796.0317 C1105.855,1797.8427 1104.619,1799.3517 1102.951,1799.8017 L1102.696,1972.9527 L1081.188,1972.9217 L1081.045,2068.9627 L1105.486,2093.4747 L1105.338,2194.4857 Z M1113.7052,2171.9979 C1115.3292,2172.4519 1116.5262,2173.9279 1116.5272,2175.6959 C1116.5212,2177.8199 1114.7912,2179.5399 1112.6692,2179.5379 C1110.5472,2179.5359 1108.8302,2177.8079 1108.8352,2175.6829 C1108.8372,2173.9179 1110.0372,2172.4479 1111.6582,2171.9979 L1111.7812,2090.1329 L1087.3442,2065.6239 L1087.4712,1979.1499 L1108.9782,1979.1819 L1109.2512,1760.6829 C1107.5372,1760.2629 1106.2622,1758.7289 1106.2622,1756.8859 C1106.2622,1754.7219 1108.0172,1752.9669 1110.1822,1752.9669 C1112.3462,1752.9669 1114.1012,1754.7219 1114.1012,1756.8859 C1114.1012,1758.6609 1112.9142,1760.1419 1111.2972,1760.6249 L1111.0212,1981.2279 L1089.5122,1981.1979 L1089.3902,2064.7809 L1113.8242,2089.2929 L1113.7052,2171.9979 Z M1123.0421,2152.2455 C1124.6601,2152.6995 1125.8611,2154.1725 1125.8561,2155.9395 C1125.8551,2158.0595 1124.1271,2159.7835 1122.0021,2159.7785 C1119.8841,2159.7795 1118.1661,2158.0505 1118.1621,2155.9285 C1118.1701,2154.1585 1119.3711,2152.6885 1120.9971,2152.2435 L1121.0921,2086.7375 L1096.6571,2062.2305 L1096.7631,1988.7875 L1118.2711,1988.8195 L1118.5631,1781.8715 C1116.8561,1781.4475 1115.5871,1779.9165 1115.5871,1778.0785 C1115.5871,1775.9145 1117.3421,1774.1595 1119.5061,1774.1595 C1121.6701,1774.1595 1123.4261,1775.9145 1123.4261,1778.0785 C1123.4261,1779.8585 1122.2321,1781.3435 1120.6081,1781.8215 L1120.3141,1990.8705 L1098.8031,1990.8405 L1098.6971,2061.3825 L1123.1391,2085.8945 L1123.0421,2152.2455 Z M1334.6515,2169.3886 L1334.5995,2204.8446 L1295.4555,2204.7866 C1295.0025,2206.4106 1293.5235,2207.6056 1291.7575,2207.6036 C1289.6345,2207.5986 1287.9135,2205.8776 1287.9185,2203.7546 C1287.9235,2201.6296 1289.6435,2199.9096 1291.7695,2199.9126 C1293.5385,2199.9156 1295.0105,2201.1196 1295.4595,2202.7436 L1332.5595,2202.7976 L1332.6085,2170.2346 L1308.1705,2145.7246 L1308.3155,2046.7846 L1329.8255,2046.8156 L1330.0805,1834.8546 C1328.3065,1834.5096 1326.9665,1832.9536 1326.9705,1831.0806 C1326.9735,1829.3156 1328.1725,1827.8436 1329.7955,1827.3946 L1329.8635,1782.6626 L1351.3725,1782.6946 L1351.6215,1702.8796 C1349.8805,1702.4786 1348.5815,1700.9286 1348.5815,1699.0676 C1348.5815,1696.9036 1350.3365,1695.1486 1352.5005,1695.1486 C1354.6655,1695.1486 1356.4205,1696.9036 1356.4205,1699.0676 C1356.4205,1700.8246 1355.2565,1702.2926 1353.6655,1702.7906 L1353.4155,1784.7406 L1331.9075,1784.7076 L1331.8435,1827.3986 C1333.4645,1827.8486 1334.6635,1829.3256 1334.6615,1831.0906 C1334.6575,1832.7496 1333.5975,1834.1486 1332.1255,1834.6856 L1331.8705,2048.8646 L1310.3565,2048.8326 L1310.2145,2144.8776 L1334.6515,2169.3886 Z M1318.6837,2057.1156 L1318.5597,2140.6966 L1342.9967,2165.2056 L1342.9237,2216.7086 L1310.4297,2216.6586 C1309.9817,2218.2836 1308.5057,2219.4816 1306.7357,2219.4786 C1304.6137,2219.4766 1302.8987,2217.7516 1302.9007,2215.6296 C1302.9027,2213.5026 1304.6237,2211.7856 1306.7477,2211.7906 C1308.5147,2211.7916 1309.9867,2212.9906 1310.4327,2214.6156 L1340.8797,2214.6596 L1340.9517,2166.0486 L1316.5137,2141.5386 L1316.6407,2055.0656 L1338.1487,2055.0976 L1338.4177,1847.6536 C1336.6367,1847.3176 1335.2887,1845.7556 1335.2877,1843.8766 C1335.2947,1842.1066 1336.4957,1840.6366 1338.1187,1840.1886 L1338.1897,1790.9426 L1359.6987,1790.9746 L1359.9667,1642.5416 C1358.3267,1642.0736 1357.1177,1640.5796 1357.1177,1638.7886 C1357.1177,1636.6236 1358.8717,1634.8696 1361.0377,1634.8696 C1363.2017,1634.8696 1364.9557,1636.6236 1364.9557,1638.7886 C1364.9557,1640.6146 1363.7017,1642.1356 1362.0117,1642.5716 L1361.7397,1793.0166 L1340.2337,1792.9866 L1340.1647,1840.1896 C1341.7837,1840.6476 1342.9787,1842.1216 1342.9767,1843.8856 C1342.9747,1845.5386 1341.9267,1846.9306 1340.4667,1847.4736 L1340.1957,2057.1446 L1318.6837,2057.1156 Z M1352.1789,2252.1049 C1353.7999,2252.5559 1354.9939,2254.0299 1354.9929,2255.7929 C1354.9889,2257.9179 1353.2679,2259.6389 1351.1419,2259.6349 C1349.0179,2259.6299 1347.2999,2257.9069 1347.3019,2255.7799 C1347.3049,2254.0149 1348.5079,2252.5479 1350.1309,2252.0999 L1350.2619,2162.6529 L1325.8279,2138.1449 L1325.9359,2064.6999 L1347.4449,2064.7319 L1347.7339,1856.8729 C1345.9409,1856.5469 1344.5749,1854.9829 1344.5799,1853.0939 C1344.5819,1851.3289 1345.7879,1849.8539 1347.4109,1849.4059 L1347.4799,1800.5769 L1368.9879,1800.6089 L1369.2679,1735.5599 C1367.3329,1735.3199 1365.8299,1733.6879 1365.8299,1731.6889 C1365.8299,1729.5239 1367.5849,1727.7699 1369.7499,1727.7699 C1371.9139,1727.7699 1373.6689,1729.5239 1373.6689,1731.6889 C1373.6689,1733.2949 1372.7009,1734.6709 1371.3189,1735.2769 L1371.0339,1802.6569 L1349.5259,1802.6249 L1349.4529,1849.4119 C1351.0739,1849.8619 1352.2779,1851.3329 1352.2719,1853.1059 C1352.2679,1854.7519 1351.2279,1856.1429 1349.7739,1856.6879 L1349.4829,2066.7819 L1327.9759,2066.7529 L1327.8699,2137.2999 L1352.3079,2161.8099 L1352.1789,2252.1049 Z M1288.3644,1731.5473 C1286.6874,1731.1033 1285.4454,1729.5893 1285.4454,1727.7733 C1285.4454,1725.6083 1287.2014,1723.8543 1289.3654,1723.8543 C1291.5294,1723.8543 1293.2854,1725.6083 1293.2854,1727.7733 C1293.2854,1729.5713 1292.0664,1731.0703 1290.4164,1731.5323 L1290.1224,1946.1453 L1268.6104,1946.1123 L1268.5064,2016.6613 L1292.9374,2041.1713 L1292.8544,2098.2293 C1294.4784,2098.6833 1295.6804,2100.1603 1295.6764,2101.9263 C1295.6744,2104.0493 1293.9444,2105.7703 1291.8234,2105.7643 C1289.7014,2105.7623 1287.9784,2104.0363 1287.9824,2101.9143 C1287.9844,2100.1493 1289.1854,2098.6783 1290.8144,2098.2273 L1290.8974,2042.0163 L1266.4594,2017.5053 L1266.5664,1944.0643 L1288.0744,1944.0953 L1288.3644,1731.5473 Z" id="Combined-Shape-Copy-2"></path>
        </g>
    </g>
</svg>