<?xml version="1.0" encoding="UTF-8"?>
<svg width="1440px" height="701px" viewBox="0 0 1440 701" version="1.1" xmlns="http://www.w3.org/2000/svg" xmlns:xlink="http://www.w3.org/1999/xlink">
    <!-- Generator: Sketch 51.3 (57544) - http://www.bohemiancoding.com/sketch -->
    <title>Group 8</title>
    <desc>Created with Sketch.</desc>
    <defs>
        <linearGradient x1="119.400132%" y1="87.7997279%" x2="119.400132%" y2="0%" id="linearGradient-1">
            <stop stop-color="#9D9FA2" offset="0%"></stop>
            <stop stop-color="#27282B" offset="100%"></stop>
        </linearGradient>
        <linearGradient x1="57.0591905%" y1="68.619039%" x2="57.0591905%" y2="0%" id="linearGradient-2">
            <stop stop-color="#000000" stop-opacity="0" offset="0%"></stop>
            <stop stop-color="#000000" offset="100%"></stop>
        </linearGradient>
    </defs>
    <g id="Page-1" stroke="none" stroke-width="1" fill="none" fill-rule="evenodd">
        <g id="14-Tin-túc/-Sự-kiện">
            <g id="Group-8" transform="translate(0.000000, -200.000000)">
                <g id="Group-7" opacity="0.4" transform="translate(33.000000, 0.000000)" fill="url(#linearGradient-1)">
                    <path d="M282.5584,183.0591 C284.1794,183.5101 285.3784,184.9831 285.3784,186.7501 C285.3784,188.8731 283.6604,190.5941 281.5354,190.5941 C279.4134,190.5941 277.6914,188.8731 277.6914,186.7501 C277.6914,184.9831 278.8864,183.5101 280.5114,183.0591 L280.5114,140.3701 L259.0034,140.3701 L259.0034,9.99999997e-05 L261.0464,9.99999997e-05 L261.0464,138.3271 L282.5584,138.3271 L282.5584,183.0591 Z M274.2185,195.8443 C275.8435,196.2933 277.0425,197.7643 277.0425,199.5333 C277.0425,201.6563 275.3205,203.3793 273.1985,203.3793 C271.0775,203.3793 269.3515,201.6563 269.3515,199.5333 C269.3515,197.7643 270.5505,196.2953 272.1755,195.8443 L272.1755,148.6353 L250.6635,148.6353 L250.6635,0.0003 L252.7105,0.0003 L252.7105,146.5923 L274.2185,146.5923 L274.2185,195.8443 Z M264.9139,205.0454 C266.5349,205.4984 267.7379,206.9714 267.7379,208.7364 C267.7379,210.8594 266.0159,212.5804 263.8909,212.5804 C261.7659,212.5804 260.0469,210.8594 260.0469,208.7364 C260.0469,206.9694 261.2459,205.4944 262.8709,205.0454 L262.8709,158.2604 L241.3589,158.2604 L241.3589,0.0004 L243.4059,0.0004 L243.4059,156.2154 L264.9139,156.2154 L264.9139,205.0454 Z M199.4353,370.0659 C201.0603,370.5149 202.2593,371.9879 202.2593,373.7569 C202.2593,375.8739 200.5403,377.6009 198.4153,377.6009 C196.2943,377.6009 194.5683,375.8739 194.5683,373.7569 C194.5683,371.9879 195.7673,370.5149 197.3923,370.0659 L197.3923,300.9199 L172.9153,276.4419 L172.9153,187.0089 L152.1263,187.0089 L152.1263,0.0009 L154.1653,0.0009 L154.1653,184.9639 L174.9623,184.9639 L174.9623,275.5969 L199.4353,300.0679 L199.4353,370.0659 Z M207.7674,352.9331 C209.3964,353.3821 210.5914,354.8581 210.5914,356.6241 C210.5914,358.7451 208.8764,360.4681 206.7474,360.4681 C204.6264,360.4681 202.9084,358.7451 202.9084,356.6241 C202.9084,354.8581 204.0994,353.3821 205.7284,352.9331 L205.7284,296.7221 L181.2554,272.2491 L181.2554,177.6321 L160.4584,177.6321 L160.4584,9.99999997e-05 L162.5054,9.99999997e-05 L162.5054,175.5871 L183.2984,175.5871 L183.2984,271.4021 L207.7674,295.8781 L207.7674,352.9331 Z M137.9881,0.0005 L137.9881,280.5705 L159.5001,280.5705 L159.5001,379.5065 L135.0271,403.9825 L135.0271,473.1335 C136.6521,473.5825 137.8481,475.0515 137.8481,476.8205 C137.8481,478.9455 136.1291,480.6665 134.0081,480.6665 C131.8791,480.6665 130.1601,478.9455 130.1601,476.8205 C130.1601,475.0555 131.3551,473.5845 132.9811,473.1335 L132.9811,403.1395 L157.4571,378.6625 L157.4571,282.6175 L135.9491,282.6175 L135.9491,0.0005 L137.9881,0.0005 Z M126.6873,455.9981 C128.3123,456.4501 129.5113,457.9201 129.5113,459.6921 C129.5113,461.8121 127.7893,463.5361 125.6643,463.5361 C123.5473,463.5361 121.8243,461.8121 121.8243,459.6921 C121.8243,457.9201 123.0193,456.4501 124.6483,455.9981 L124.6483,398.9421 L149.1173,374.4651 L149.1173,290.8831 L127.6093,290.8831 L127.6093,9.99999997e-05 L129.6563,9.99999997e-05 L129.6563,288.8381 L151.1643,288.8381 L151.1643,375.3121 L126.6873,399.7901 L126.6873,455.9981 Z M117.3826,452.5923 C119.0076,453.0413 120.2066,454.5163 120.2066,456.2813 C120.2066,458.4043 118.4806,460.1253 116.3596,460.1253 C114.2376,460.1253 112.5156,458.4043 112.5156,456.2813 C112.5156,454.5163 113.7156,453.0433 115.3396,452.5923 L115.3396,395.5293 L139.8126,371.0593 L139.8126,300.5083 L118.3006,300.5083 L118.3006,0.0003 L120.3476,0.0003 L120.3476,298.4633 L141.8596,298.4633 L141.8596,371.9043 L117.3826,396.3773 L117.3826,452.5923 Z M232.1326,229.1392 C234.2536,229.1392 235.9806,230.8602 235.9806,232.9832 C235.9806,235.1042 234.2536,236.8282 232.1326,236.8282 C230.3636,236.8282 228.8946,235.6292 228.4416,234.0062 L208.1326,234.0062 L208.1326,198.5512 L232.6096,174.0752 L232.6096,78.0322 L211.0976,78.0322 L211.0976,0.000199999999 L213.1446,0.000199999999 L213.1446,75.9872 L234.6526,75.9872 L234.6526,174.9222 L210.1796,199.3972 L210.1796,231.9612 L228.4416,231.9612 C228.8906,230.3382 230.3636,229.1392 232.1326,229.1392 Z M217.1365,240.9907 C219.2575,240.9907 220.9805,242.7117 220.9805,244.8347 C220.9805,246.9557 219.2575,248.6797 217.1365,248.6797 C215.3705,248.6797 213.8985,247.4807 213.4455,245.8577 L199.7975,245.8577 L199.7975,194.3537 L224.2695,169.8817 L224.2695,86.2977 L202.7615,86.2977 L202.7615,0.0007 L204.8085,0.0007 L204.8085,84.2547 L226.3165,84.2547 L226.3165,170.7287 L201.8395,195.2017 L201.8395,243.8127 L213.4455,243.8127 C213.8945,242.1897 215.3705,240.9907 217.1365,240.9907 Z M191.5154,263.522 C189.3864,263.522 187.6674,261.801 187.6674,259.676 C187.6674,257.911 188.8674,256.44 190.4884,255.991 L190.4884,190.946 L214.9644,166.473 L214.9644,95.922 L193.4604,95.922 L193.4604,0.001 L195.4994,0.001 L195.4994,93.876 L217.0074,93.876 L217.0074,167.315 L192.5354,191.792 L192.5354,255.991 C194.1604,256.44 195.3594,257.913 195.3594,259.676 C195.3594,261.801 193.6364,263.522 191.5154,263.522 Z M144.7815,0.0005 L144.7815,194.3245 L166.2925,194.3245 L166.2925,270.5125 L142.7345,270.5125 L142.7345,210.1765 L154.9455,210.1765 L154.9455,244.5685 C156.5665,245.0205 157.7655,246.4925 157.7655,248.2585 C157.7655,250.3815 156.0425,252.1025 153.9215,252.1025 C151.8005,252.1025 150.0775,250.3815 150.0775,248.2585 C150.0775,246.4945 151.2775,245.0215 152.8985,244.5685 L152.8985,212.2195 L144.7815,212.2195 L144.7815,268.4655 L164.2465,268.4655 L164.2465,196.3715 L142.7345,196.3715 L142.7345,0.0005 L144.7815,0.0005 Z M46.9842,477.9732 C48.6092,478.4222 49.8082,479.8942 49.8082,481.6622 C49.8082,483.7842 48.0822,485.5062 45.9652,485.5062 C43.8432,485.5062 42.1172,483.7842 42.1172,481.6622 C42.1172,479.8942 43.3162,478.4242 44.9412,477.9732 L44.9412,441.9102 L38.6492,448.2032 L38.6492,510.1902 C40.2772,510.6392 41.4682,512.1112 41.4682,513.8792 C41.4682,516.0022 39.7502,517.7232 37.6292,517.7232 C35.5002,517.7232 33.7812,516.0022 33.7812,513.8792 C33.7812,512.1132 34.9812,510.6392 36.6012,510.1902 L36.6012,450.2482 L22.5152,464.3422 L22.5152,533.4942 C24.1402,533.9402 25.3362,535.4122 25.3362,537.1782 C25.3362,539.3072 23.6172,541.0262 21.4922,541.0262 C19.3672,541.0262 17.6492,539.3072 17.6492,537.1782 C17.6492,535.4162 18.8432,533.9432 20.4652,533.4942 L20.4652,463.4982 L44.9412,439.0242 L44.9412,412.0532 L44.9412,342.9772 L23.4332,342.9772 L23.4332,0.000199999999 L25.4762,0.000199999999 L25.4762,340.9302 L46.9842,340.9302 L46.9842,412.0532 L46.9842,439.8662 L46.9842,477.9732 Z M14.1756,516.3599 C15.8006,516.8109 16.9996,518.2839 16.9996,520.0489 C16.9996,522.1739 15.2776,523.8929 13.1556,523.8929 C11.0316,523.8929 9.3086,522.1739 9.3086,520.0489 C9.3086,518.2839 10.5116,516.8109 12.1326,516.3599 L12.1326,459.3009 L36.6016,434.8249 L36.6016,351.2429 L15.0976,351.2429 L15.0976,0.0009 L17.1406,0.0009 L17.1406,349.1999 L38.6486,349.1999 L38.6486,435.6739 L14.1756,460.1469 L14.1756,516.3599 Z M4.867,512.9497 C6.496,513.4027 7.696,514.8757 7.696,516.6407 C7.696,518.7637 5.969,520.4867 3.848,520.4867 C1.726,520.4867 0,518.7637 0,516.6407 C0,514.8757 1.203,513.3987 2.828,512.9497 L2.828,455.8887 L27.297,431.4167 L27.297,360.8677 L5.785,360.8677 L5.785,0.0007 L7.836,0.0007 L7.836,358.8227 L29.344,358.8227 L29.344,432.2637 L4.867,456.7387 L4.867,512.9497 Z M109.1443,280.5625 L109.1443,184.5185 L87.6323,184.5185 L87.6323,0.0005 L89.6833,0.0005 L89.6833,182.4735 L111.1873,182.4735 L111.1873,281.4125 L86.7183,305.8855 L86.7183,338.4495 L123.8203,338.4495 C124.2693,336.8265 125.7463,335.6265 127.5113,335.6265 C129.6363,335.6265 131.3553,337.3475 131.3553,339.4695 C131.3553,341.5955 129.6363,343.3165 127.5113,343.3165 C125.7493,343.3165 124.2693,342.1195 123.8203,340.4945 L84.6713,340.4945 L84.6713,305.0375 L109.1443,280.5625 Z M116.3592,351.3247 C116.3592,353.4457 114.6402,355.1687 112.5152,355.1687 C110.7502,355.1687 109.2772,353.9677 108.8242,352.3457 L76.3322,352.3457 L76.3322,300.8437 L100.8082,276.3697 L100.8082,192.7877 L79.3002,192.7877 L79.3002,0.0007 L81.3482,0.0007 L81.3482,190.7407 L102.8512,190.7407 L102.8512,277.2177 L78.3822,301.6897 L78.3822,350.3017 L108.8242,350.3017 C109.2772,348.6777 110.7502,347.4807 112.5152,347.4807 C114.6402,347.4807 116.3592,349.1997 116.3592,351.3247 Z M69.0779,387.7271 C70.6959,388.1761 71.8989,389.6441 71.8989,391.4121 C71.8989,393.5381 70.1759,395.2581 68.0509,395.2581 C65.9299,395.2581 64.2069,393.5381 64.2069,391.4121 C64.2069,389.6491 65.4019,388.1781 67.0269,387.7271 L67.0269,297.4341 L91.4999,272.9611 L91.4999,202.4111 L69.9959,202.4111 L69.9959,9.99999997e-05 L72.0349,9.99999997e-05 L72.0349,200.3641 L93.5469,200.3641 L93.5469,273.8051 L69.0779,298.2771 L69.0779,387.7271 Z M79.2654,255.8404 L79.2654,213.1524 L57.7574,213.1524 L57.7574,0.0004 L59.8004,0.0004 L59.8004,211.1104 L81.3124,211.1104 L81.3124,255.8404 C82.9334,256.2934 84.1294,257.7624 84.1294,259.5314 C84.1294,261.6524 82.4144,263.3774 80.2854,263.3774 C78.1644,263.3774 76.4454,261.6524 76.4454,259.5314 C76.4454,257.7624 77.6404,256.2894 79.2654,255.8404 Z M70.93,268.6255 L70.93,221.4185 L49.418,221.4185 L49.418,0.0005 L51.465,0.0005 L51.465,219.3735 L72.976,219.3735 L72.976,268.6255 C74.598,269.0745 75.797,270.5455 75.797,272.3145 C75.797,274.4395 74.078,276.1585 71.953,276.1585 C69.828,276.1585 68.105,274.4395 68.105,272.3145 C68.105,270.5455 69.305,269.0745 70.93,268.6255 Z M66.4881,281.52 C66.4881,283.643 64.7691,285.36 62.6491,285.36 C60.5191,285.36 58.8011,283.643 58.8011,281.52 C58.8011,279.75 60.0001,278.277 61.6251,277.828 L61.6251,231.043 L40.1131,231.043 L40.1131,0 L42.1561,0 L42.1561,228.999 L63.6641,228.999 L63.6641,277.828 C65.2891,278.277 66.4881,279.75 66.4881,281.52 Z M32.2654,0.0005 L32.2654,254.6845 L53.7774,254.6845 L53.7774,330.8715 L30.2224,330.8715 L30.2224,270.5335 L42.4334,270.5335 L42.4334,304.9275 C44.0504,305.3765 45.2534,306.8505 45.2534,308.6175 C45.2534,310.7405 43.5314,312.4625 41.4104,312.4625 C39.2884,312.4625 37.5624,310.7405 37.5624,308.6175 C37.5624,306.8545 38.7654,305.3785 40.3864,304.9275 L40.3864,272.5785 L32.2654,272.5785 L32.2654,328.8245 L51.7304,328.8245 L51.7304,256.7325 L30.2224,256.7325 L30.2224,0.0005 L32.2654,0.0005 Z" id="Combined-Shape"></path>
                    <path d="M524.1117,521.0024 L524.1117,556.4594 L503.8027,556.4594 C503.3517,558.0804 501.8797,559.2834 500.1137,559.2834 C497.9907,559.2834 496.2677,557.5574 496.2677,555.4404 C496.2677,553.3144 497.9907,551.5924 500.1137,551.5924 C501.8797,551.5924 503.3517,552.7914 503.8027,554.4164 L522.0667,554.4164 L522.0667,521.8454 L497.5937,497.3754 L497.5937,398.4394 L519.1017,398.4394 L519.1017,0.0004 L521.1467,0.0004 L521.1467,400.4824 L499.6387,400.4824 L499.6387,496.5294 L524.1117,521.0024 Z M507.975,408.7524 L507.975,492.3344 L532.448,516.8074 L532.448,568.3144 L518.799,568.3144 C518.348,569.9364 516.875,571.1354 515.11,571.1354 C512.987,571.1354 511.264,569.4124 511.264,567.2874 C511.264,565.1664 512.987,563.4474 515.11,563.4474 C516.877,563.4474 518.352,564.6434 518.801,566.2684 L530.403,566.2684 L530.403,517.6564 L505.93,493.1824 L505.93,406.7034 L527.44,406.7034 L527.44,0.0004 L529.483,0.0004 L529.483,408.7524 L507.975,408.7524 Z M541.7543,578.4399 C543.3793,578.8929 544.5743,580.3699 544.5743,582.1349 C544.5743,584.2519 542.8563,585.9749 540.7313,585.9749 C538.6093,585.9749 536.8853,584.2519 536.8853,582.1349 C536.8853,580.3699 538.0843,578.8929 539.7073,578.4399 L539.7073,514.2459 L515.2343,489.7739 L515.2343,416.3279 L536.7463,416.3279 L536.7463,0.0009 L538.7873,0.0009 L538.7873,418.3739 L517.2793,418.3739 L517.2793,488.9219 L541.7543,513.3989 L541.7543,578.4399 Z M527.4711,471.8071 L527.4711,427.0751 L548.9831,427.0751 L548.9831,0.0001 L551.0281,0.0001 L551.0281,429.1181 L529.5181,429.1181 L529.5181,471.8071 C531.1411,472.2581 532.3401,473.7301 532.3401,475.4961 C532.3401,477.6191 530.6171,479.3421 528.4941,479.3421 C526.3691,479.3421 524.6511,477.6191 524.6511,475.4961 C524.6511,473.7301 525.8461,472.2581 527.4711,471.8071 Z M535.8109,484.5903 L535.8109,435.3403 L557.3189,435.3403 L557.3189,0.0003 L559.3639,0.0003 L559.3639,437.3833 L537.8559,437.3833 L537.8559,484.5903 C539.4769,485.0433 540.6739,486.5113 540.6739,488.2813 C540.6739,490.4043 538.9539,492.1253 536.8319,492.1253 C534.7089,492.1253 532.9869,490.4043 532.9869,488.2813 C532.9869,486.5113 534.1859,485.0393 535.8109,484.5903 Z M547.1605,493.7934 C548.7835,494.2424 549.9825,495.7154 549.9825,497.4844 C549.9825,499.6074 548.2625,501.3284 546.1395,501.3284 C544.0155,501.3284 542.2915,499.6074 542.2915,497.4844 C542.2915,495.7174 543.4925,494.2464 545.1155,493.7934 L545.1155,444.9624 L566.6235,444.9624 L566.6235,0.0004 L568.6705,0.0004 L568.6705,447.0084 L547.1605,447.0084 L547.1605,493.7934 Z M576.514,470.6489 L576.514,0.0009 L578.561,0.0009 L578.561,472.6929 L557.051,472.6929 L557.051,544.7919 L576.514,544.7919 L576.514,488.5469 L568.399,488.5469 L568.399,520.8929 C570.022,521.3459 571.219,522.8149 571.219,524.5879 C571.219,526.7059 569.498,528.4239 567.375,528.4239 C565.248,528.4239 563.528,526.7059 563.528,524.5879 C563.528,522.8149 564.729,521.3379 566.354,520.8929 L566.354,486.5009 L578.561,486.5009 L578.561,546.8379 L555.004,546.8379 L555.004,470.6489 L576.514,470.6489 Z M749.0746,665.0161 C750.6976,665.4611 751.8966,666.9381 751.8966,668.7041 C751.8966,670.8281 750.1746,672.5471 748.0536,672.5471 C745.9296,672.5471 744.2056,670.8281 744.2056,668.7041 C744.2056,666.9381 745.4066,665.4691 747.0296,665.0161 L747.0296,595.8701 L722.5536,571.3931 L722.5536,434.9571 L710.5776,434.9571 L710.5776,529.6521 L689.0656,529.6521 L689.0656,580.2011 L713.5346,604.6731 L713.5346,751.7341 C715.1596,752.1831 716.3626,753.6601 716.3626,755.4251 C716.3626,757.5481 714.6366,759.2711 712.5146,759.2711 C710.3936,759.2711 708.6676,757.5481 708.6676,755.4251 C708.6676,753.6601 709.8666,752.1871 711.4956,751.7341 L711.4956,605.5231 L687.0186,581.0481 L687.0186,527.6071 L708.5266,527.6071 L708.5266,434.9571 L701.2646,434.9571 L701.2646,520.0271 L679.7616,520.0271 L679.7616,583.6091 L704.2296,608.0851 L704.2296,755.1441 C705.8506,755.5951 707.0536,757.0681 707.0536,758.8331 C707.0536,760.9581 705.3316,762.6771 703.2066,762.6771 C701.0856,762.6771 699.3626,760.9581 699.3626,758.8331 C699.3626,757.0681 700.5616,755.5951 702.1866,755.1441 L702.1866,608.9311 L677.7146,584.4581 L677.7146,517.9841 L699.2216,517.9841 L699.2216,434.9571 L692.9286,434.9571 L692.9286,511.7611 L671.4216,511.7611 L671.4216,587.8081 L695.8976,612.2831 L695.8976,772.2781 C697.5186,772.7271 698.7146,774.2011 698.7146,775.9621 C698.7146,778.0911 696.9956,779.8101 694.8706,779.8101 C692.7456,779.8101 691.0266,778.0911 691.0266,775.9621 C691.0266,774.1961 692.2216,772.7241 693.8466,772.2781 L693.8466,613.1261 L679.7616,599.0331 L679.7616,748.9741 C681.3826,749.4231 682.5816,750.8971 682.5816,752.6631 C682.5816,754.7871 680.8626,756.5071 678.7336,756.5071 C676.6126,756.5071 674.8936,754.7871 674.8936,752.6631 C674.8936,750.8951 676.0856,749.4231 677.7146,748.9741 L677.7146,596.9881 L671.4216,590.6941 L671.4216,650.8371 L671.4216,716.7571 C673.0466,717.2081 674.2456,718.6791 674.2456,720.4461 C674.2456,722.5681 672.5186,724.2901 670.3976,724.2901 C668.2806,724.2901 666.5536,722.5681 666.5536,720.4461 C666.5536,718.6791 667.7536,717.2061 669.3786,716.7571 L669.3786,650.8371 L669.3786,588.6501 L669.3786,509.7141 L690.8866,509.7141 L690.8866,434.9571 L661.7616,434.9571 L661.7616,0.0001 L663.8036,0.0001 L663.8036,432.9141 L724.5996,432.9141 L724.5996,570.5451 L749.0746,595.0181 L749.0746,665.0161 Z M962.9164,733.1723 C964.5104,733.6413 965.6864,735.0933 965.6864,736.8433 C965.6864,738.9693 963.9594,740.6883 961.8344,740.6883 C959.7174,740.6883 957.9944,738.9693 957.9944,736.8433 C957.9944,735.0553 959.2174,733.5703 960.8694,733.1413 L960.8694,660.1563 L936.3964,635.6823 L936.3964,539.5333 L955.0764,539.5333 L955.0764,409.5803 L935.2644,391.1703 L935.2644,331.4833 L956.9674,331.4833 L956.9674,240.8503 C955.3504,240.3973 954.1464,238.9243 954.1464,237.1603 C954.1464,235.0353 955.8734,233.3153 957.9904,233.3153 C960.1154,233.3153 961.8344,235.0353 961.8344,237.1603 C961.8344,238.9263 960.6394,240.4013 959.0144,240.8503 L959.0144,333.5333 L937.3114,333.5333 L937.3114,390.2813 L957.1234,408.6863 L957.1234,541.5763 L938.4434,541.5763 L938.4434,634.8383 L962.9164,659.3123 L962.9164,733.1723 Z M971.2601,720.0864 C972.7641,720.6094 973.8621,722.0234 973.8621,723.7114 C973.8621,725.8284 972.1311,727.5464 970.0141,727.5464 C967.8891,727.5464 966.1701,725.8284 966.1701,723.7114 C966.1701,721.8594 967.4711,720.3204 969.2091,719.9534 L969.2091,659.9614 L944.7331,635.4824 L944.7331,549.0104 L966.2441,549.0104 L966.2441,404.2854 L944.7331,382.5554 L944.7331,341.4824 L966.2761,341.4824 L966.2761,207.1254 C964.6551,206.6744 963.4551,205.2014 963.4551,203.4344 C963.4551,201.3134 965.1781,199.5904 967.3031,199.5904 C969.4241,199.5904 971.1471,201.3134 971.1471,203.4344 C971.1471,205.2014 969.9441,206.6744 968.3261,207.1254 L968.3261,343.5294 L946.7801,343.5294 L946.7801,381.7154 L968.2871,403.4454 L968.2871,551.0574 L946.7801,551.0574 L946.7801,634.6354 L971.2601,659.1094 L971.2601,720.0864 Z M757.4066,647.8833 C759.0336,648.3283 760.2306,649.8053 760.2306,651.5783 C760.2306,653.6953 758.5116,655.4223 756.3866,655.4223 C754.2636,655.4223 752.5436,653.6953 752.5436,651.5783 C752.5436,649.8053 753.7426,648.3283 755.3656,647.8833 L755.3656,591.6743 L730.8886,567.1973 L730.8886,425.5823 L670.0956,425.5823 L670.0956,0.0003 L672.1426,0.0003 L672.1426,423.5373 L732.9376,423.5373 L732.9376,566.3503 L757.4066,590.8263 L757.4066,647.8833 Z M769.5843,580.9941 C771.2093,581.4471 772.4043,582.9161 772.4043,584.6821 C772.4043,586.8071 770.6863,588.5261 768.5593,588.5261 C766.4383,588.5261 764.7153,586.8071 764.7153,584.6821 C764.7153,582.9121 765.9143,581.4431 767.5373,580.9941 L767.5373,511.8421 L743.0643,487.3681 L743.0643,388.4321 L764.5763,388.4321 L764.5763,0.0001 L766.6173,0.0001 L766.6173,390.4781 L745.1093,390.4781 L745.1093,486.5241 L769.5843,510.9981 L769.5843,580.9941 Z M777.9203,563.8613 C779.5433,564.3073 780.7423,565.7833 780.7423,567.5533 C780.7423,569.6743 779.0203,571.3933 776.8973,571.3933 C774.7753,571.3933 773.0553,569.6743 773.0553,567.5533 C773.0553,565.7833 774.2523,564.3073 775.8773,563.8613 L775.8773,507.6493 L751.4023,483.1743 L751.4023,396.6993 L772.9103,396.6993 L772.9103,0.0003 L774.9573,0.0003 L774.9573,398.7423 L753.4473,398.7423 L753.4473,482.3263 L777.9203,506.8033 L777.9203,563.8613 Z M787.2269,560.4555 C788.8499,560.9045 790.0489,562.3765 790.0489,564.1435 C790.0489,566.2675 788.3269,567.9865 786.2059,567.9865 C784.0819,567.9865 782.3599,566.2675 782.3599,564.1435 C782.3599,562.3765 783.5609,560.9005 785.1839,560.4555 L785.1839,504.2385 L760.7089,479.7665 L760.7089,406.3245 L782.2169,406.3245 L782.2169,0.0005 L784.2639,0.0005 L784.2639,408.3695 L762.7539,408.3695 L762.7539,478.9205 L787.2269,503.3925 L787.2269,560.4555 Z M681.3832,390.8188 C679.2582,390.8188 677.5352,389.0938 677.5352,386.9728 C677.5352,384.8498 679.2582,383.1288 681.3832,383.1288 C683.1512,383.1288 684.6232,384.3278 685.0712,385.9518 L703.3342,385.9518 L703.3342,353.3868 L678.8632,328.9118 L678.8632,229.9768 L700.3712,229.9768 L700.3712,0.0008 L702.4162,0.0008 L702.4162,232.0218 L680.9042,232.0218 L680.9042,328.0648 L705.3812,352.5418 L705.3812,387.9958 L685.0712,387.9958 C684.6212,389.6198 683.1492,390.8188 681.3832,390.8188 Z M687.1957,324.7192 L687.1957,238.2442 L708.7077,238.2442 L708.7077,0.000199999999 L710.7527,0.000199999999 L710.7527,240.2872 L689.2447,240.2872 L689.2447,323.8712 L713.7167,348.3442 L713.7167,399.8472 L700.0687,399.8472 C699.6177,401.4712 698.1427,402.6702 696.3777,402.6702 C694.2567,402.6702 692.5317,400.9452 692.5317,398.8242 C692.5317,396.7012 694.2567,394.9802 696.3777,394.9802 C698.1447,394.9802 699.6197,396.1792 700.0687,397.8032 L711.6727,397.8032 L711.6727,349.1922 L687.1957,324.7192 Z M696.5062,321.3052 L696.5062,247.8662 L718.0142,247.8662 L718.0142,0.000199999999 L720.0572,0.000199999999 L720.0572,249.9122 L698.5472,249.9122 L698.5472,320.4632 L723.0242,344.9362 L723.0242,409.9802 C724.6472,410.4302 725.8462,411.8992 725.8462,413.6662 C725.8462,415.7912 724.1252,417.5122 722.0002,417.5122 C719.8772,417.5122 718.1522,415.7912 718.1522,413.6662 C718.1522,411.9032 719.3542,410.4302 720.9772,409.9802 L720.9772,345.7812 L696.5062,321.3052 Z M708.7406,303.3437 L708.7406,258.6097 L730.2486,258.6097 L730.2486,0.0007 L732.2956,0.0007 L732.2956,260.6527 L710.7876,260.6527 L710.7876,303.3437 C712.4106,303.7937 713.6096,305.2657 713.6096,307.0317 C713.6096,309.1547 711.8856,310.8787 709.7656,310.8787 C707.6386,310.8787 705.9206,309.1547 705.9206,307.0317 C705.9206,305.2677 707.1156,303.7947 708.7406,303.3437 Z M717.0785,316.1269 L717.0785,266.8759 L738.5885,266.8759 L738.5885,0.0009 L740.6335,0.0009 L740.6335,268.9199 L719.1235,268.9199 L719.1235,316.1269 C720.7465,316.5769 721.9455,318.0469 721.9455,319.8149 C721.9455,321.9379 720.2235,323.6599 718.0995,323.6599 C715.9785,323.6599 714.2565,321.9379 714.2565,319.8149 C714.2565,318.0469 715.4555,316.5769 717.0785,316.1269 Z M726.3832,325.3301 L726.3832,276.5001 L747.8952,276.5001 L747.8952,0.0001 L749.9422,0.0001 L749.9422,278.5451 L728.4282,278.5451 L728.4282,325.3301 C730.0512,325.7791 731.2542,327.2521 731.2542,329.0221 C731.2542,331.1441 729.5292,332.8631 727.4082,332.8631 C725.2852,332.8631 723.5612,331.1441 723.5612,329.0221 C723.5612,327.2541 724.7602,325.7841 726.3832,325.3301 Z M736.2738,378.3735 L736.2738,302.1855 L757.7818,302.1855 L757.7818,0.0005 L759.8288,0.0005 L759.8288,304.2305 L738.3208,304.2305 L738.3208,376.3265 L757.7818,376.3265 L757.7818,320.0805 L749.6668,320.0805 L749.6668,352.4325 C751.2898,352.8835 752.4888,354.3555 752.4888,356.1195 C752.4888,358.2425 750.7658,359.9625 748.6428,359.9625 C746.5218,359.9625 744.7988,358.2425 744.7988,356.1195 C744.7988,354.3525 745.9988,352.8805 747.6238,352.4325 L747.6238,318.0375 L759.8288,318.0375 L759.8288,378.3735 L736.2738,378.3735 Z M616.2484,480.977 L616.2484,574.237 L640.7214,598.709 L640.7214,676.243 L638.6724,676.243 L638.6724,599.557 L614.2034,575.084 L614.2034,478.93 L632.8814,478.93 L632.8814,348.975 L613.0704,330.571 L613.0704,270.885 L634.7734,270.885 L634.7734,180.248 C633.1504,179.795 631.9534,178.321 631.9534,176.553 C631.9534,174.432 633.6744,172.713 635.7974,172.713 C637.9204,172.713 639.6414,174.432 639.6414,176.553 C639.6414,178.323 638.4414,179.795 636.8184,180.248 L636.8184,272.928 L615.1154,272.928 L615.1154,329.676 L634.9264,348.088 L634.9264,480.977 L616.2484,480.977 Z M624.5843,490.4497 L624.5843,574.0337 L649.0573,598.5067 L649.0573,663.1017 L647.0123,663.1017 L647.0123,599.3537 L622.5393,574.8767 L622.5393,488.4047 L644.0473,488.4047 L644.0473,343.6817 L622.5393,321.9497 L622.5393,280.8807 L644.0823,280.8807 L644.0823,146.5237 C642.4573,146.0747 641.2603,144.6017 641.2603,142.8347 C641.2603,140.7097 642.9793,138.9887 645.1043,138.9887 C647.2273,138.9887 648.9493,140.7097 648.9493,142.8347 C648.9493,144.5997 647.7503,146.0727 646.1273,146.5237 L646.1273,282.9277 L624.5843,282.9277 L624.5843,321.1137 L646.0943,342.8407 L646.0943,490.4497 L624.5843,490.4497 Z M657.2308,648.2739 C658.8558,648.7269 660.0528,650.1949 660.0528,651.9689 C660.0528,654.0939 658.3348,655.8129 656.2078,655.8129 C654.0848,655.8129 652.3638,654.0939 652.3638,651.9689 C652.3638,650.1949 653.5628,648.7269 655.1858,648.2739 L655.1858,592.0649 L630.7128,567.5879 L630.7128,494.1469 L652.2208,494.1469 L652.2208,0.0009 L654.2658,0.0009 L654.2658,496.1929 L632.7578,496.1929 L632.7578,566.7439 L657.2308,591.2169 L657.2308,648.2739 Z M609.7093,465.2602 C611.3303,465.7132 612.5273,467.1882 612.5273,468.9512 C612.5273,471.0742 610.8093,472.7972 608.6863,472.7972 C606.5613,472.7972 604.8403,471.0742 604.8403,468.9512 C604.8403,467.1862 606.0373,465.7132 607.6623,465.2602 L607.6623,365.0922 L583.1893,340.6152 L583.1893,241.6842 L604.7013,241.6842 L604.7013,0.000199999999 L606.7423,0.000199999999 L606.7423,243.7292 L585.2343,243.7292 L585.2343,339.7722 L609.7093,364.2462 L609.7093,465.2602 Z M613.1781,446.4516 C613.1781,444.6876 614.3771,443.2126 616.0001,442.7606 L616.0001,360.8966 L591.5261,336.4226 L591.5261,249.9476 L613.0351,249.9476 L613.0351,0.000599999999 L615.0801,0.000599999999 L615.0801,251.9926 L593.5711,251.9926 L593.5711,335.5766 L618.0431,360.0516 L618.0431,442.7606 C619.6681,443.2096 620.8691,444.6856 620.8691,446.4516 C620.8691,448.5766 619.1451,450.2966 617.0241,450.2966 C614.9011,450.2966 613.1781,448.5766 613.1781,446.4516 Z M600.8343,333.0161 L600.8343,259.5731 L622.3423,259.5731 L622.3423,0.0001 L624.3893,0.0001 L624.3893,261.6211 L602.8773,261.6211 L602.8773,332.1641 L627.3523,356.6411 L627.3523,422.9931 C628.9733,423.4431 630.1743,424.9141 630.1743,426.6801 C630.1743,428.8051 628.4493,430.5261 626.3263,430.5261 C624.2073,430.5261 622.4823,428.8051 622.4823,426.6801 C622.4823,424.9141 623.6843,423.4421 625.3073,422.9931 L625.3073,357.4891 L600.8343,333.0161 Z M882.0961,641.352 C883.7211,641.805 884.9161,643.274 884.9161,645.04 C884.9161,647.164 883.1981,648.891 881.0751,648.891 C878.9481,648.891 877.2291,647.164 877.2291,645.04 C877.2291,643.274 878.4261,641.797 880.0511,641.352 L880.0511,572.206 L855.5801,547.728 L855.5801,448.79 L877.0881,448.79 L877.0881,0 L879.1331,0 L879.1331,450.838 L857.6251,450.838 L857.6251,546.885 L882.0961,571.358 L882.0961,641.352 Z M890.4339,624.2212 C892.0569,624.6702 893.2559,626.1432 893.2559,627.9092 C893.2559,630.0332 891.5319,631.7522 889.4109,631.7522 C887.2889,631.7522 885.5669,630.0332 885.5669,627.9092 C885.5669,626.1432 886.7659,624.6702 888.3889,624.2212 L888.3889,568.0102 L863.9159,543.5372 L863.9159,457.0602 L885.4239,457.0602 L885.4239,0.000199999999 L887.4689,0.000199999999 L887.4689,459.1022 L865.9609,459.1022 L865.9609,542.6862 L890.4339,567.1622 L890.4339,624.2212 Z M899.7367,620.8105 C901.3617,621.2605 902.5627,622.7365 902.5627,624.5025 C902.5627,626.6265 900.8387,628.3455 898.7167,628.3455 C896.5937,628.3455 894.8737,626.6265 894.8737,624.5025 C894.8737,622.7365 896.0727,621.2635 897.6957,620.8105 L897.6957,564.6005 L873.2207,540.1265 L873.2207,466.6825 L894.7287,466.6825 L894.7287,0.0005 L896.7757,0.0005 L896.7757,468.7275 L875.2677,468.7275 L875.2677,539.2755 L899.7367,563.7525 L899.7367,620.8105 Z M815.848,446.3105 L815.848,413.7465 L791.373,389.2735 L791.373,290.3345 L812.883,290.3345 L812.883,0.0005 L814.93,0.0005 L814.93,292.3785 L793.418,292.3785 L793.418,388.4245 L817.891,412.8985 L817.891,448.3555 L778.746,448.3555 C778.293,449.9805 776.819,451.1765 775.053,451.1765 C772.928,451.1765 771.207,449.4575 771.207,447.3305 C771.207,445.2095 772.928,443.4865 775.053,443.4865 C776.821,443.4865 778.295,444.6875 778.746,446.3105 L815.848,446.3105 Z M801.7562,300.6489 L801.7562,384.2309 L826.2312,408.7059 L826.2312,460.2059 L793.7382,460.2059 C793.2912,461.8279 791.8172,463.0289 790.0492,463.0289 C787.9262,463.0289 786.2052,461.3069 786.2052,459.1859 C786.2052,457.0609 787.9262,455.3419 790.0492,455.3419 C791.8172,455.3419 793.2892,456.5379 793.7382,458.1599 L824.1842,458.1599 L824.1842,409.5489 L799.7112,385.0769 L799.7112,298.6019 L821.2192,298.6019 L821.2192,0.0009 L823.2682,0.0009 L823.2682,300.6489 L801.7562,300.6489 Z M835.5375,495.5884 C837.1605,496.0374 838.3575,497.5104 838.3575,499.2724 C838.3575,501.3994 836.6375,503.1194 834.5125,503.1194 C832.3895,503.1194 830.6685,501.3994 830.6685,499.2724 C830.6685,497.5064 831.8675,496.0374 833.4905,495.5884 L833.4905,406.1394 L809.0195,381.6664 L809.0195,308.2254 L830.5295,308.2254 L830.5295,0.0004 L832.5705,0.0004 L832.5705,310.2724 L811.0625,310.2724 L811.0625,380.8224 L835.5375,405.2954 L835.5375,495.5884 Z M821.2543,363.7036 L821.2543,318.9716 L842.7643,318.9716 L842.7643,0.000599999999 L844.8113,0.000599999999 L844.8113,321.0136 L823.2993,321.0136 L823.2993,363.7036 C824.9223,364.1506 826.1213,365.6236 826.1213,367.3916 C826.1213,369.5136 824.4003,371.2386 822.2773,371.2386 C820.1523,371.2386 818.4363,369.5136 818.4363,367.3916 C818.4363,365.6236 819.6313,364.1546 821.2543,363.7036 Z M829.5902,376.4868 L829.5902,327.2328 L851.1002,327.2328 L851.1002,0.0008 L853.1432,0.0008 L853.1432,329.2788 L831.6352,329.2788 L831.6352,376.4868 C833.2602,376.9358 834.4572,378.4068 834.4572,380.1748 C834.4572,382.3008 832.7362,384.0198 830.6112,384.0198 C828.4902,384.0198 826.7682,382.3008 826.7682,380.1748 C826.7682,378.4068 827.9672,376.9358 829.5902,376.4868 Z M840.9398,385.6899 C842.5648,386.1389 843.7638,387.6109 843.7638,389.3809 C843.7638,391.5019 842.0448,393.2209 839.9188,393.2209 C837.7968,393.2209 836.0768,391.5019 836.0768,389.3809 C836.0768,387.6109 837.2738,386.1389 838.8988,385.6899 L838.8988,336.8579 L860.4088,336.8579 L860.4088,0.0009 L862.4558,0.0009 L862.4558,338.9029 L840.9398,338.9029 L840.9398,385.6899 Z M872.3402,378.3945 L872.3402,438.7325 L848.7872,438.7325 L848.7872,362.5445 L870.2952,362.5445 L870.2952,0.0005 L872.3402,0.0005 L872.3402,364.5925 L850.8322,364.5925 L850.8322,436.6865 L870.2952,436.6865 L870.2952,380.4395 L862.1782,380.4395 L862.1782,412.7895 C863.8012,413.2405 865.0002,414.7155 865.0002,416.4785 C865.0002,418.6025 863.2772,420.3245 861.1542,420.3245 C859.0332,420.3245 857.3112,418.6025 857.3112,416.4785 C857.3112,414.7105 858.5102,413.2385 860.1332,412.7895 L860.1332,378.3945 L872.3402,378.3945 Z M1071.2679,725.6177 C1072.8929,726.0627 1074.0919,727.5317 1074.0919,729.3057 C1074.0919,731.4297 1072.3699,733.1487 1070.2479,733.1487 C1068.1229,733.1487 1066.4009,731.4297 1066.4009,729.3057 C1066.4009,727.5317 1067.5999,726.0707 1069.2249,725.6177 L1069.2249,656.4697 L1044.7479,631.9937 L1044.7479,495.5607 L1033.1799,495.5607 L1033.1799,696.8677 L1011.6719,696.8677 L1011.6719,767.4207 L1036.1449,791.8967 L1036.1449,858.2447 C1037.7679,858.6977 1038.9669,860.1667 1038.9669,861.9317 C1038.9669,864.0567 1037.2429,865.7797 1035.1219,865.7797 C1032.9979,865.7797 1031.2779,864.0567 1031.2779,861.9317 C1031.2779,860.1667 1032.4769,858.6937 1034.0999,858.2447 L1034.0999,792.7367 L1009.6269,768.2637 L1009.6269,694.8227 L1031.1349,694.8227 L1031.1349,495.5607 L1023.8729,495.5607 L1023.8729,683.8367 L1002.3659,683.8367 L1002.3659,767.4227 L1026.8379,791.8947 L1026.8379,874.6057 C1028.4609,875.0547 1029.6609,876.5277 1029.6609,878.2977 C1029.6609,880.4227 1027.9399,882.1407 1025.8169,882.1407 C1023.6939,882.1407 1021.9689,880.4227 1021.9689,878.2977 C1021.9689,876.5277 1023.1699,875.0587 1024.7929,874.6057 L1024.7929,792.7427 L1000.3209,768.2657 L1000.3209,681.7917 L1021.8289,681.7917 L1021.8289,495.5607 L1015.5379,495.5607 L1015.5379,671.3797 L994.0279,671.3797 L994.0279,767.4227 L1018.5019,791.8927 L1018.5019,892.9127 C1020.1249,893.3617 1021.3269,894.8307 1021.3269,896.6037 C1021.3269,898.7267 1019.6019,900.4457 1017.4809,900.4457 C1015.3559,900.4457 1013.6329,898.7267 1013.6329,896.6037 C1013.6329,894.8387 1014.8319,893.3617 1016.4569,892.9127 L1016.4569,792.7447 L991.9829,768.2697 L991.9829,669.3307 L1013.4929,669.3307 L1013.4929,495.5607 L983.9549,495.5607 L983.9549,0.0007 L985.9979,0.0007 L985.9979,493.5157 L1046.7989,493.5157 L1046.7989,631.1507 L1071.2679,655.6257 L1071.2679,725.6177 Z M1079.6078,708.4848 C1081.2288,708.9378 1082.4238,710.4068 1082.4238,712.1798 C1082.4238,714.2968 1080.7098,716.0238 1078.5808,716.0238 C1076.4628,716.0238 1074.7368,714.2968 1074.7368,712.1798 C1074.7368,710.4068 1075.9358,708.9378 1077.5648,708.4848 L1077.5648,652.2738 L1053.0848,627.7988 L1053.0848,486.1838 L992.2918,486.1838 L992.2918,0.0008 L994.3348,0.0008 L994.3348,484.1388 L1055.1308,484.1388 L1055.1308,626.9558 L1079.6078,651.4298 L1079.6078,708.4848 Z M1003.5804,451.4204 C1001.4514,451.4204 999.7284,449.6954 999.7284,447.5764 C999.7284,445.4534 1001.4514,443.7304 1003.5804,443.7304 C1005.3464,443.7304 1006.8184,444.9294 1007.2684,446.5534 L1025.5294,446.5534 L1025.5294,413.9864 L1001.0604,389.5134 L1001.0604,290.5784 L1022.5644,290.5784 L1022.5644,0.0004 L1024.6114,0.0004 L1024.6114,292.6214 L1003.1034,292.6214 L1003.1034,388.6664 L1027.5764,413.1434 L1027.5764,448.5974 L1007.2684,448.5974 C1006.8184,450.2214 1005.3464,451.4204 1003.5804,451.4204 Z M1009.3968,385.3208 L1009.3968,298.8418 L1030.9048,298.8418 L1030.9048,0.0008 L1032.9478,0.0008 L1032.9478,300.8908 L1011.4398,300.8908 L1011.4398,384.4728 L1035.9128,408.9458 L1035.9128,460.4538 L1022.2638,460.4538 C1021.8148,462.0748 1020.3418,463.2718 1018.5768,463.2718 C1016.4518,463.2718 1014.7288,461.5508 1014.7288,459.4258 C1014.7288,457.3028 1016.4518,455.5868 1018.5768,455.5868 C1020.3418,455.5868 1021.8148,456.7808 1022.2638,458.4048 L1033.8658,458.4048 L1033.8658,409.7948 L1009.3968,385.3208 Z M1018.6976,381.9121 L1018.6976,308.4671 L1040.2136,308.4671 L1040.2136,0.0001 L1042.2526,0.0001 L1042.2526,310.5121 L1020.7446,310.5121 L1020.7446,381.0621 L1045.2176,405.5371 L1045.2176,470.5801 C1046.8426,471.0311 1048.0376,472.5061 1048.0376,474.2721 C1048.0376,476.3931 1046.3226,478.1131 1044.1976,478.1131 C1042.0766,478.1131 1040.3496,476.3931 1040.3496,474.2721 C1040.3496,472.5061 1041.5496,471.0311 1043.1706,470.5801 L1043.1706,406.3851 L1018.6976,381.9121 Z M1030.9359,363.9453 L1030.9359,319.2133 L1052.4479,319.2133 L1052.4479,0.0003 L1054.4909,0.0003 L1054.4909,321.2563 L1032.9829,321.2563 L1032.9829,363.9453 C1034.6079,364.3963 1035.8029,365.8693 1035.8029,367.6373 C1035.8029,369.7603 1034.0809,371.4803 1031.9589,371.4803 C1029.8339,371.4803 1028.1159,369.7603 1028.1159,367.6373 C1028.1159,365.8693 1029.3149,364.3963 1030.9359,363.9453 Z M1039.2757,376.7304 L1039.2757,327.4784 L1060.7837,327.4784 L1060.7837,0.0004 L1062.8307,0.0004 L1062.8307,329.5224 L1041.3187,329.5224 L1041.3187,376.7304 C1042.9437,377.1824 1044.1427,378.6504 1044.1427,380.4204 C1044.1427,382.5434 1042.4167,384.2664 1040.2957,384.2664 C1038.1737,384.2664 1036.4517,382.5434 1036.4517,380.4204 C1036.4517,378.6504 1037.6507,377.1794 1039.2757,376.7304 Z M1048.5804,385.9321 L1048.5804,337.1021 L1070.0884,337.1021 L1070.0884,0.0001 L1072.1354,0.0001 L1072.1354,339.1461 L1050.6234,339.1461 L1050.6234,385.9321 C1052.2484,386.3811 1053.4474,387.8561 1053.4474,389.6231 C1053.4474,391.7461 1051.7284,393.4671 1049.6034,393.4671 C1047.4784,393.4671 1045.7564,391.7461 1045.7564,389.6231 C1045.7564,387.8581 1046.9594,386.3851 1048.5804,385.9321 Z M1058.4672,438.977 L1058.4672,362.788 L1079.9792,362.788 L1079.9792,0 L1082.0262,0 L1082.0262,364.832 L1060.5182,364.832 L1060.5182,436.93 L1079.9792,436.93 L1079.9792,380.686 L1071.8652,380.686 L1071.8652,413.034 C1073.4832,413.483 1074.6822,414.956 1074.6822,416.725 C1074.6822,418.846 1072.9632,420.564 1070.8382,420.564 C1068.7132,420.564 1066.9942,418.846 1066.9942,416.725 C1066.9942,414.954 1068.1942,413.478 1069.8192,413.034 L1069.8192,378.639 L1082.0262,378.639 L1082.0262,438.977 L1058.4672,438.977 Z M979.4281,708.8755 C981.0491,709.3285 982.2481,710.7965 982.2481,712.5625 C982.2481,714.6955 980.5301,716.4145 978.4051,716.4145 C976.2801,716.4145 974.5611,714.6955 974.5611,712.5625 C974.5611,710.7965 975.7601,709.3285 977.3811,708.8755 L977.3811,652.6645 L952.9081,628.1935 L952.9081,554.7485 L974.4161,554.7485 L974.4161,0.0005 L976.4631,0.0005 L976.4631,556.7915 L954.9511,556.7915 L954.9511,627.3455 L979.4281,651.8205 L979.4281,708.8755 Z M931.9047,525.8613 C933.5297,526.3103 934.7287,527.7833 934.7287,529.5533 C934.7287,531.6743 933.0067,533.3933 930.8817,533.3933 C928.7567,533.3933 927.0377,531.6743 927.0377,529.5533 C927.0377,527.7873 928.2327,526.3103 929.8577,525.8613 L929.8577,425.6933 L905.3847,401.2213 L905.3847,302.2813 L926.8967,302.2813 L926.8967,0.0003 L928.9397,0.0003 L928.9397,304.3303 L907.4297,304.3303 L907.4297,400.3733 L931.9047,424.8453 L931.9047,525.8613 Z M935.3734,507.0532 C935.3734,505.2872 936.5724,503.8172 938.1934,503.3652 L938.1934,421.4982 L913.7234,397.0262 L913.7234,310.5492 L935.2324,310.5492 L935.2324,0.000199999999 L937.2754,0.000199999999 L937.2754,312.5942 L915.7684,312.5942 L915.7684,396.1792 L940.2404,420.6532 L940.2404,503.3652 C941.8654,503.8142 943.0604,505.2852 943.0604,507.0532 C943.0604,509.1792 941.3424,510.9012 939.2174,510.9012 C937.1004,510.9012 935.3734,509.1792 935.3734,507.0532 Z M923.0297,393.6133 L923.0297,320.1723 L944.5377,320.1723 L944.5377,0.0003 L946.5847,0.0003 L946.5847,322.2173 L925.0767,322.2173 L925.0767,392.7703 L949.5457,417.2443 L949.5457,483.5933 C951.1707,484.0453 952.3697,485.5183 952.3697,487.2813 C952.3697,489.4083 950.6467,491.1293 948.5217,491.1293 C946.3967,491.1293 944.6777,489.4083 944.6777,487.2813 C944.6777,485.5163 945.8777,484.0433 947.5027,483.5933 L947.5027,418.0903 L923.0297,393.6133 Z M1252.5375,557.1548 C1254.1625,557.6038 1255.3615,559.0768 1255.3615,560.8458 C1255.3615,562.9628 1253.6425,564.6898 1251.5175,564.6898 C1249.3965,564.6898 1247.6705,562.9628 1247.6705,560.8458 C1247.6705,559.0768 1248.8695,557.6038 1250.4945,557.1548 L1250.4945,488.0088 L1226.0175,463.5308 L1226.0175,327.0978 L1165.2285,327.0978 L1165.2285,0.0008 L1167.2675,0.0008 L1167.2675,325.0528 L1228.0645,325.0528 L1228.0645,462.6858 L1252.5375,487.1568 L1252.5375,557.1548 Z M1260.8695,540.0219 C1262.4985,540.4709 1263.6935,541.9469 1263.6935,543.7129 C1263.6935,545.8339 1261.9785,547.5569 1259.8495,547.5569 C1257.7285,547.5569 1256.0105,545.8339 1256.0105,543.7129 C1256.0105,541.9469 1257.2015,540.4709 1258.8305,540.0219 L1258.8305,483.8109 L1234.3575,459.3379 L1234.3575,317.7209 L1173.5605,317.7209 L1173.5605,0.0009 L1175.6075,0.0009 L1175.6075,315.6759 L1236.4005,315.6759 L1236.4005,458.4909 L1260.8695,482.9669 L1260.8695,540.0219 Z M1273.0492,473.1333 C1274.6742,473.5843 1275.8692,475.0553 1275.8692,476.8213 C1275.8692,478.9453 1274.1512,480.6663 1272.0222,480.6663 C1269.9012,480.6663 1268.1822,478.9453 1268.1822,476.8213 C1268.1822,475.0513 1269.3772,473.5823 1271.0022,473.1333 L1271.0022,403.9833 L1246.5292,379.5063 L1246.5292,280.5713 L1268.0412,280.5713 L1268.0412,0.0003 L1270.0802,0.0003 L1270.0802,282.6173 L1248.5722,282.6173 L1248.5722,378.6623 L1273.0492,403.1393 L1273.0492,473.1333 Z M1281.3812,455.998 C1283.0102,456.45 1284.2052,457.92 1284.2052,459.692 C1284.2052,461.812 1282.4832,463.536 1280.3652,463.536 C1278.2402,463.536 1276.5182,461.812 1276.5182,459.692 C1276.5182,457.92 1277.7172,456.45 1279.3422,455.998 L1279.3422,399.79 L1254.8652,375.312 L1254.8652,288.838 L1276.3732,288.838 L1276.3732,0 L1278.4202,0 L1278.4202,290.883 L1256.9122,290.883 L1256.9122,374.465 L1281.3812,398.942 L1281.3812,455.998 Z M1290.6898,452.5923 C1292.3148,453.0433 1293.5138,454.5163 1293.5138,456.2813 C1293.5138,458.4043 1291.7918,460.1253 1289.6698,460.1253 C1287.5488,460.1253 1285.8228,458.4043 1285.8228,456.2813 C1285.8228,454.5163 1287.0218,453.0413 1288.6468,452.5923 L1288.6468,396.3773 L1264.1698,371.9043 L1264.1698,298.4633 L1285.6818,298.4633 L1285.6818,0.0003 L1287.7288,0.0003 L1287.7288,300.5083 L1266.2168,300.5083 L1266.2168,371.0593 L1290.6898,395.5293 L1290.6898,452.5923 Z M1184.8461,282.9575 C1182.7251,282.9575 1180.9981,281.2325 1180.9981,279.1115 C1180.9981,276.9885 1182.7251,275.2685 1184.8461,275.2685 C1186.6161,275.2685 1188.0881,276.4675 1188.5371,278.0905 L1206.7991,278.0905 L1206.7991,245.5255 L1182.3261,221.0515 L1182.3261,122.1155 L1203.8341,122.1155 L1203.8341,0.0005 L1205.8811,0.0005 L1205.8811,124.1605 L1184.3691,124.1605 L1184.3691,220.2035 L1208.8461,244.6805 L1208.8461,280.1355 L1188.5371,280.1355 C1188.0841,281.7585 1186.6161,282.9575 1184.8461,282.9575 Z M1190.6625,216.8579 L1190.6625,130.3829 L1212.1705,130.3829 L1212.1705,0.0009 L1214.2175,0.0009 L1214.2175,132.4259 L1192.7095,132.4259 L1192.7095,216.0099 L1217.1825,240.4829 L1217.1825,291.9869 L1203.5335,291.9869 C1203.0805,293.6099 1201.6075,294.8089 1199.8425,294.8089 C1197.7215,294.8089 1195.9985,293.0849 1195.9985,290.9629 C1195.9985,288.8399 1197.7215,287.1199 1199.8425,287.1199 C1201.6075,287.1199 1203.0845,288.3189 1203.5335,289.9419 L1215.1395,289.9419 L1215.1395,241.3309 L1190.6625,216.8579 Z M1199.9711,213.4438 L1199.9711,140.0048 L1221.4791,140.0048 L1221.4791,0.0008 L1223.5181,0.0008 L1223.5181,142.0508 L1202.0141,142.0508 L1202.0141,212.6018 L1226.4911,237.0748 L1226.4911,302.1198 C1228.1121,302.5688 1229.3111,304.0398 1229.3111,305.8048 C1229.3111,307.9298 1227.5921,309.6508 1225.4631,309.6508 C1223.3421,309.6508 1221.6191,307.9298 1221.6191,305.8048 C1221.6191,304.0418 1222.8191,302.5688 1224.4441,302.1198 L1224.4441,237.9208 L1199.9711,213.4438 Z M1263.2953,210.1762 L1263.2953,270.5122 L1239.7363,270.5122 L1239.7363,194.3242 L1261.2483,194.3242 L1261.2483,0.000199999999 L1263.2953,0.000199999999 L1263.2953,196.3712 L1241.7833,196.3712 L1241.7833,268.4652 L1261.2483,268.4652 L1261.2483,212.2192 L1253.1313,212.2192 L1253.1313,244.5692 C1254.7523,245.0222 1255.9513,246.4942 1255.9513,248.2582 C1255.9513,250.3812 1254.2293,252.1022 1252.1073,252.1022 C1249.9863,252.1022 1248.2643,250.3812 1248.2643,248.2582 C1248.2643,246.4922 1249.4633,245.0202 1251.0843,244.5692 L1251.0843,210.1762 L1263.2953,210.1762 Z M1144.4515,564.8852 C1145.1815,565.0182 1146.8965,567.1822 1144.9355,569.0102 C1144.7055,569.2252 1143.6235,569.6312 1143.1075,569.6272 C1142.4245,569.6232 1141.6705,569.2482 1141.4515,569.0572 C1139.1275,566.9752 1141.1195,565.0412 1142.1385,564.8852 C1142.1925,564.8772 1142.2105,564.8742 1142.2285,564.8712 C1142.1915,564.8772 1142.1385,564.8852 1142.1385,564.8852 L1142.1385,491.6952 L1117.6665,467.2232 L1117.6665,371.0692 L1136.3465,371.0692 L1136.3465,241.1142 L1116.5335,222.7092 L1116.5335,163.0242 L1138.2405,163.0242 L1138.2405,72.3872 C1136.6155,71.9362 1135.4165,70.4592 1135.4165,68.6922 C1135.4165,66.5712 1137.1395,64.8522 1139.2645,64.8522 C1141.3855,64.8522 1143.1075,66.5712 1143.1075,68.6922 C1143.1075,70.4612 1141.9085,71.9362 1140.2835,72.3872 L1140.2835,165.0672 L1118.5805,165.0672 L1118.5805,221.8172 L1138.3925,240.2272 L1138.3925,373.1152 L1119.7135,373.1152 L1119.7135,466.3752 L1144.1855,490.8472 L1144.1855,564.7762 C1144.1855,564.7762 1144.3655,564.8692 1144.4515,564.8852 Z M1128.0492,382.5903 L1128.0492,466.1723 L1152.5222,490.6443 L1152.5222,555.2403 L1150.4792,555.2403 L1150.4792,491.4943 L1126.0022,467.0203 L1126.0022,380.5433 L1147.5142,380.5433 L1147.5142,235.8203 L1126.0022,214.0883 L1126.0022,173.0203 L1147.5492,173.0203 L1147.5492,38.6623 C1145.9242,38.2133 1144.7252,36.7403 1144.7252,34.9753 C1144.7252,32.8503 1146.4442,31.1273 1148.5692,31.1273 C1150.6942,31.1273 1152.4162,32.8503 1152.4162,34.9753 C1152.4162,36.7383 1151.2132,38.2113 1149.5922,38.6623 L1149.5922,175.0673 L1128.0492,175.0673 L1128.0492,213.2523 L1149.5572,234.9793 L1149.5572,382.5903 L1128.0492,382.5903 Z M1160.6976,540.4165 C1162.3186,540.8655 1163.5176,542.3385 1163.5176,544.1045 C1163.5176,546.2285 1161.7996,547.9475 1159.6706,547.9475 C1157.5496,547.9475 1155.8266,546.2285 1155.8266,544.1045 C1155.8266,542.3385 1157.0256,540.8655 1158.6506,540.4165 L1158.6506,484.2035 L1134.1776,459.7305 L1134.1776,386.2855 L1155.6856,386.2855 L1155.6856,0.0005 L1157.7326,0.0005 L1157.7326,388.3325 L1136.2246,388.3325 L1136.2246,458.8835 L1160.6976,483.3575 L1160.6976,540.4165 Z M1113.1742,357.3989 C1114.7952,357.8519 1115.9902,359.3269 1115.9902,361.0919 C1115.9902,363.2129 1114.2722,364.9339 1112.1512,364.9339 C1110.0292,364.9339 1108.3032,363.2129 1108.3032,361.0919 C1108.3032,359.3249 1109.5022,357.8519 1111.1272,357.3989 L1111.1272,257.2309 L1106.4592,252.5629 L1106.4592,468.9709 L1084.9472,468.9709 L1084.9472,539.5219 L1109.4202,563.9939 L1109.4202,621.0569 C1111.0492,621.5029 1112.2442,622.9789 1112.2442,624.7439 C1112.2442,626.8699 1110.5222,628.5879 1108.4012,628.5879 C1106.2792,628.5879 1104.5532,626.8699 1104.5532,624.7439 C1104.5532,622.9789 1105.7522,621.5099 1107.3772,621.0569 L1107.3772,564.8459 L1082.9042,540.3699 L1082.9042,466.9219 L1104.4122,466.9219 L1104.4122,250.5179 L1097.1512,243.2539 L1097.1512,459.3479 L1075.6472,459.3479 L1075.6472,542.9279 L1100.1152,567.4089 L1100.1152,624.4629 C1101.7402,624.9169 1102.9362,626.3849 1102.9362,628.1509 C1102.9362,630.2759 1101.2132,632.0029 1099.0962,632.0029 C1096.9712,632.0029 1095.2522,630.2759 1095.2522,628.1509 C1095.2522,626.3849 1096.4472,624.9169 1098.0762,624.4629 L1098.0762,568.2529 L1073.5962,543.7759 L1073.5962,457.3009 L1095.1082,457.3009 L1095.1082,241.2079 L1088.8152,234.9149 L1088.8152,451.0829 L1067.3032,451.0829 L1067.3032,547.1269 L1091.7792,571.5959 L1091.7792,641.5939 C1093.4012,642.0469 1094.6042,643.5159 1094.6042,645.2809 C1094.6042,647.4069 1092.8812,649.1329 1090.7562,649.1329 C1088.6312,649.1329 1086.9122,647.4069 1086.9122,645.2809 C1086.9122,643.5159 1088.1082,642.0469 1089.7332,641.5939 L1089.7332,572.4469 L1065.2642,547.9709 L1065.2642,449.0339 L1086.7722,449.0339 L1086.7722,232.8739 L1086.6542,232.7559 L1086.6542,133.8229 L1108.1622,133.8229 L1108.1622,0.0009 L1110.2092,0.0009 L1110.2092,135.8679 L1088.6972,135.8679 L1088.6972,231.9109 L1113.1742,256.3849 L1113.1742,357.3989 Z M1116.6429,338.5903 C1116.6429,336.8263 1117.8419,335.3523 1119.4629,334.8993 L1119.4629,253.0353 L1094.9909,228.5633 L1094.9909,142.0863 L1116.4979,142.0863 L1116.4979,0.0003 L1118.5449,0.0003 L1118.5449,144.1313 L1097.0339,144.1313 L1097.0339,227.7153 L1121.5099,252.1903 L1121.5099,334.8993 C1123.1309,335.3473 1124.3339,336.8243 1124.3339,338.5903 C1124.3339,340.7153 1122.6119,342.4383 1120.4909,342.4383 C1118.3659,342.4383 1116.6429,340.7153 1116.6429,338.5903 Z M1104.2992,225.1528 L1104.2992,151.7108 L1125.8072,151.7108 L1125.8072,0.0008 L1127.8542,0.0008 L1127.8542,153.7578 L1106.3422,153.7578 L1106.3422,224.3028 L1130.8152,248.7798 L1130.8152,315.1308 C1132.4362,315.5828 1133.6392,317.0528 1133.6392,318.8188 C1133.6392,320.9438 1131.9122,322.6668 1129.7912,322.6668 C1127.6702,322.6668 1125.9472,320.9438 1125.9472,318.8188 C1125.9472,317.0528 1127.1472,315.5798 1128.7722,315.1308 L1128.7722,249.6278 L1104.2992,225.1528 Z M386.848,232.2563 L386.848,267.7113 L366.539,267.7113 C366.09,269.3343 364.618,270.5333 362.852,270.5333 C360.723,270.5333 359,268.8093 359,266.6903 C359,264.5673 360.723,262.8443 362.852,262.8443 C364.618,262.8443 366.09,264.0433 366.539,265.6663 L384.801,265.6663 L384.801,233.1003 L360.332,208.6273 L360.332,109.6923 L381.836,109.6923 L381.836,0.0003 L383.883,0.0003 L383.883,111.7353 L362.375,111.7353 L362.375,207.7793 L386.848,232.2563 Z M370.7113,120.0044 L370.7113,203.5864 L395.1843,228.0594 L395.1843,279.5664 L381.5353,279.5664 C381.0863,281.1884 379.6133,282.3854 377.8483,282.3854 C375.7233,282.3854 374.0003,280.6644 374.0003,278.5394 C374.0003,276.4164 375.7233,274.6994 377.8483,274.6994 C379.6133,274.6994 381.0863,275.8954 381.5353,277.5184 L393.1373,277.5184 L393.1373,228.9084 L368.6683,204.4344 L368.6683,117.9554 L390.1763,117.9554 L390.1763,0.0004 L392.2193,0.0004 L392.2193,120.0044 L370.7113,120.0044 Z M404.4886,289.6938 C406.1136,290.1448 407.3086,291.6198 407.3086,293.3848 C407.3086,295.5058 405.5936,297.2268 403.4686,297.2268 C401.3476,297.2268 399.6216,295.5058 399.6216,293.3848 C399.6216,291.6198 400.8206,290.1448 402.4416,289.6938 L402.4416,225.4988 L377.9686,201.0258 L377.9686,127.5808 L399.4846,127.5808 L399.4846,0.0008 L401.5236,0.0008 L401.5236,129.6258 L380.0156,129.6258 L380.0156,200.1758 L404.4886,224.6508 L404.4886,289.6938 Z M390.2074,183.0591 L390.2074,138.3271 L411.7194,138.3271 L411.7194,0.0001 L413.7624,0.0001 L413.7624,140.3701 L392.2544,140.3701 L392.2544,183.0591 C393.8794,183.5101 395.0744,184.9831 395.0744,186.7501 C395.0744,188.8731 393.3524,190.5941 391.2304,190.5941 C389.1054,190.5941 387.3874,188.8731 387.3874,186.7501 C387.3874,184.9831 388.5864,183.5101 390.2074,183.0591 Z M398.5472,195.8442 L398.5472,146.5922 L420.0552,146.5922 L420.0552,0.000199999999 L422.1022,0.000199999999 L422.1022,148.6352 L400.5902,148.6352 L400.5902,195.8442 C402.2152,196.2952 403.4142,197.7642 403.4142,199.5332 C403.4142,201.6562 401.6882,203.3792 399.5672,203.3792 C397.4452,203.3792 395.7232,201.6562 395.7232,199.5332 C395.7232,197.7642 396.9222,196.2932 398.5472,195.8442 Z M409.8949,205.0454 C411.5199,205.4944 412.7189,206.9694 412.7189,208.7364 C412.7189,210.8594 410.9999,212.5804 408.8749,212.5804 C406.7499,212.5804 405.0279,210.8594 405.0279,208.7364 C405.0279,206.9714 406.2309,205.4984 407.8519,205.0454 L407.8519,156.2154 L429.3599,156.2154 L429.3599,0.0004 L431.4069,0.0004 L431.4069,158.2604 L409.8949,158.2604 L409.8949,205.0454 Z M441.2972,197.7524 L441.2972,258.0904 L417.7382,258.0904 L417.7382,181.9004 L439.2502,181.9004 L439.2502,0.0004 L441.2972,0.0004 L441.2972,183.9454 L419.7892,183.9454 L419.7892,256.0434 L439.2502,256.0434 L439.2502,199.7994 L431.1372,199.7994 L431.1372,232.1474 C432.7542,232.5964 433.9532,234.0684 433.9532,235.8384 C433.9532,237.9594 432.2342,239.6784 430.1092,239.6784 C427.9842,239.6784 426.2662,237.9594 426.2662,235.8384 C426.2662,234.0664 427.4652,232.5924 429.0902,232.1474 L429.0902,197.7524 L441.2972,197.7524 Z M501.4105,383.9985 L501.4105,310.8095 L476.9375,286.3365 L476.9375,190.1825 L495.6175,190.1825 L495.6175,60.2275 L475.8055,41.8225 L475.8055,0.0005 L477.8515,0.0005 L477.8515,40.9305 L497.6645,59.3405 L497.6645,192.2285 L478.9845,192.2285 L478.9845,285.4885 L503.4575,309.9615 L503.4575,383.8895 C503.4575,383.8895 503.6375,383.9825 503.7235,383.9985 C504.4535,384.1315 506.1685,386.2955 504.2075,388.1235 C503.9765,388.3385 502.8945,388.7445 502.3795,388.7405 C501.6955,388.7365 500.9415,388.3615 500.7235,388.1705 C498.3985,386.0885 500.3905,384.1545 501.4105,383.9985 C501.4645,383.9905 501.4815,383.9875 501.5005,383.9845 C501.4635,383.9905 501.4105,383.9985 501.4105,383.9985 Z M472.4457,176.5122 C474.0667,176.9652 475.2617,178.4402 475.2617,180.2052 C475.2617,182.3262 473.5437,184.0472 471.4227,184.0472 C469.3007,184.0472 467.5747,182.3262 467.5747,180.2052 C467.5747,178.4382 468.7737,176.9652 470.3987,176.5122 L470.3987,76.3442 L465.7307,71.6762 L465.7307,288.0842 L444.2187,288.0842 L444.2187,358.6352 L468.6917,383.1082 L468.6917,440.1702 C470.3207,440.6162 471.5157,442.0922 471.5157,443.8582 C471.5157,445.9832 469.7937,447.7012 467.6727,447.7012 C465.5507,447.7012 463.8247,445.9832 463.8247,443.8582 C463.8247,442.0922 465.0237,440.6232 466.6487,440.1702 L466.6487,383.9592 L442.1757,359.4832 L442.1757,286.0352 L463.6837,286.0352 L463.6837,69.6312 L456.4227,62.3672 L456.4227,278.4612 L434.9187,278.4612 L434.9187,362.0412 L459.3867,386.5222 L459.3867,443.5762 C461.0117,444.0302 462.2077,445.4982 462.2077,447.2642 C462.2077,449.3892 460.4847,451.1162 458.3677,451.1162 C456.2427,451.1162 454.5237,449.3892 454.5237,447.2642 C454.5237,445.4982 455.7187,444.0302 457.3477,443.5762 L457.3477,387.3662 L432.8677,362.8892 L432.8677,276.4142 L454.3797,276.4142 L454.3797,60.3212 L448.0867,54.0282 L448.0867,270.1962 L426.5747,270.1962 L426.5747,366.2412 L451.0507,390.7092 L451.0507,460.7072 C452.6727,461.1602 453.8757,462.6292 453.8757,464.3952 C453.8757,466.5202 452.1527,468.2462 450.0277,468.2462 C447.9027,468.2462 446.1837,466.5202 446.1837,464.3952 C446.1837,462.6292 447.3797,461.1602 449.0047,460.7072 L449.0047,391.5612 L424.5357,367.0842 L424.5357,268.1472 L446.0437,268.1472 L446.0437,51.9872 L445.9257,51.8692 L445.9257,0.000199999999 L447.9687,0.000199999999 L447.9687,51.0242 L472.4457,75.4982 L472.4457,176.5122 Z M475.9144,157.7036 C475.9144,155.9396 477.1134,154.4656 478.7344,154.0126 L478.7344,72.1486 L454.2624,47.6766 L454.2624,0.0006 L456.3054,0.0006 L456.3054,46.8286 L480.7814,71.3036 L480.7814,154.0126 C482.4024,154.4616 483.6054,155.9376 483.6054,157.7036 C483.6054,159.8286 481.8834,161.5516 479.7624,161.5516 C477.6374,161.5516 475.9144,159.8286 475.9144,157.7036 Z M488.0433,134.2446 L488.0433,68.7406 L463.5703,44.2656 L463.5703,0.000599999999 L465.6133,0.000599999999 L465.6133,43.4166 L490.0863,67.8926 L490.0863,134.2446 C491.7073,134.6956 492.9103,136.1666 492.9103,137.9326 C492.9103,140.0566 491.1843,141.7796 489.0633,141.7796 C486.9413,141.7796 485.2193,140.0566 485.2193,137.9326 C485.2193,136.1666 486.4183,134.6936 488.0433,134.2446 Z M1385.5648,533.4941 C1387.1858,533.9431 1388.3808,535.4161 1388.3808,537.1781 C1388.3808,539.3071 1386.6628,541.0261 1384.5378,541.0261 C1382.4128,541.0261 1380.6938,539.3071 1380.6938,537.1781 C1380.6938,535.4121 1381.8888,533.9401 1383.5138,533.4941 L1383.5138,464.3421 L1369.4278,450.2481 L1369.4278,510.1901 C1371.0488,510.6391 1372.2488,512.1131 1372.2488,513.8791 C1372.2488,516.0021 1370.5298,517.7231 1368.4008,517.7231 C1366.2798,517.7231 1364.5608,516.0021 1364.5608,513.8791 C1364.5608,512.1111 1365.7528,510.6391 1367.3808,510.1901 L1367.3808,448.2031 L1361.0878,441.9101 L1361.0878,477.9731 C1362.7128,478.4241 1363.9128,479.8941 1363.9128,481.6621 C1363.9128,483.7841 1362.1858,485.5061 1360.0648,485.5061 C1357.9478,485.5061 1356.2208,483.7841 1356.2208,481.6621 C1356.2208,479.8941 1357.4198,478.4221 1359.0448,477.9731 L1359.0448,439.8661 L1359.0448,412.0531 L1359.0448,340.9301 L1380.5528,340.9301 L1380.5528,0.0001 L1382.5958,0.0001 L1382.5958,342.9771 L1361.0878,342.9771 L1361.0878,412.0531 L1361.0878,439.0241 L1385.5648,463.4981 L1385.5648,533.4941 Z M1393.8968,516.3598 C1395.5178,516.8108 1396.7208,518.2838 1396.7208,520.0488 C1396.7208,522.1738 1394.9988,523.8928 1392.8738,523.8928 C1390.7518,523.8928 1389.0298,522.1738 1389.0298,520.0488 C1389.0298,518.2838 1390.2288,516.8108 1391.8538,516.3598 L1391.8538,460.1468 L1367.3808,435.6738 L1367.3808,349.1998 L1388.8888,349.1998 L1388.8888,0.0008 L1390.9318,0.0008 L1390.9318,351.2428 L1369.4278,351.2428 L1369.4278,434.8248 L1393.8968,459.3008 L1393.8968,516.3598 Z M1403.2015,512.9497 C1404.8265,513.3987 1406.0295,514.8757 1406.0295,516.6407 C1406.0295,518.7637 1404.3035,520.4867 1402.1815,520.4867 C1400.0605,520.4867 1398.3345,518.7637 1398.3345,516.6407 C1398.3345,514.8757 1399.5335,513.4027 1401.1625,512.9497 L1401.1625,456.7387 L1376.6855,432.2637 L1376.6855,358.8227 L1398.1935,358.8227 L1398.1935,0.0007 L1400.2445,0.0007 L1400.2445,360.8677 L1378.7325,360.8677 L1378.7325,431.4167 L1403.2015,455.8887 L1403.2015,512.9497 Z M1319.3109,338.4497 L1319.3109,305.8857 L1294.8419,281.4117 L1294.8419,182.4727 L1316.3459,182.4727 L1316.3459,0.0007 L1318.3969,0.0007 L1318.3969,184.5177 L1296.8849,184.5177 L1296.8849,280.5627 L1321.3579,305.0377 L1321.3579,340.4937 L1282.2089,340.4937 C1281.7599,342.1197 1280.2799,343.3167 1278.5179,343.3167 C1276.3929,343.3167 1274.6739,341.5957 1274.6739,339.4697 C1274.6739,337.3477 1276.3929,335.6267 1278.5179,335.6267 C1280.2839,335.6267 1281.7599,336.8267 1282.2089,338.4497 L1319.3109,338.4497 Z M1305.2211,192.7876 L1305.2211,276.3696 L1329.6981,300.8436 L1329.6981,352.3456 L1297.2051,352.3456 C1296.7521,353.9676 1295.2801,355.1686 1293.5141,355.1686 C1291.3891,355.1686 1289.6701,353.4456 1289.6701,351.3246 C1289.6701,349.1996 1291.3891,347.4806 1293.5141,347.4806 C1295.2801,347.4806 1296.7521,348.6776 1297.2051,350.3016 L1327.6471,350.3016 L1327.6471,301.6896 L1303.1781,277.2176 L1303.1781,190.7406 L1324.6821,190.7406 L1324.6821,0.000599999999 L1326.7291,0.000599999999 L1326.7291,192.7876 L1305.2211,192.7876 Z M1339.0023,387.727 C1340.6273,388.178 1341.8223,389.649 1341.8223,391.412 C1341.8223,393.538 1340.1003,395.258 1337.9793,395.258 C1335.8543,395.258 1334.1313,393.538 1334.1313,391.412 C1334.1313,389.644 1335.3343,388.176 1336.9513,387.727 L1336.9513,298.277 L1312.4823,273.805 L1312.4823,200.364 L1333.9943,200.364 L1333.9943,0 L1336.0333,0 L1336.0333,202.411 L1314.5293,202.411 L1314.5293,272.961 L1339.0023,297.434 L1339.0023,387.727 Z M1324.7172,255.8403 L1324.7172,211.1103 L1346.2292,211.1103 L1346.2292,0.0003 L1348.2722,0.0003 L1348.2722,213.1523 L1326.7642,213.1523 L1326.7642,255.8403 C1328.3892,256.2893 1329.5842,257.7623 1329.5842,259.5313 C1329.5842,261.6523 1327.8652,263.3773 1325.7442,263.3773 C1323.6152,263.3773 1321.9012,261.6523 1321.9012,259.5313 C1321.9012,257.7623 1323.0962,256.2933 1324.7172,255.8403 Z M1333.0531,268.6255 L1333.0531,219.3735 L1354.5651,219.3735 L1354.5651,0.0005 L1356.6121,0.0005 L1356.6121,221.4185 L1335.1001,221.4185 L1335.1001,268.6255 C1336.7251,269.0745 1337.9241,270.5455 1337.9241,272.3145 C1337.9241,274.4395 1336.2011,276.1585 1334.0761,276.1585 C1331.9511,276.1585 1330.2331,274.4395 1330.2331,272.3145 C1330.2331,270.5455 1331.4321,269.0745 1333.0531,268.6255 Z M1344.4047,277.8281 C1346.0297,278.2771 1347.2287,279.7501 1347.2287,281.5201 C1347.2287,283.6431 1345.5097,285.3601 1343.3817,285.3601 C1341.2597,285.3601 1339.5417,283.6431 1339.5417,281.5201 C1339.5417,279.7501 1340.7407,278.2771 1342.3657,277.8281 L1342.3657,228.9981 L1363.8737,228.9981 L1363.8737,0.0001 L1365.9167,0.0001 L1365.9167,231.0431 L1344.4047,231.0431 L1344.4047,277.8281 Z M1375.807,270.5337 L1375.807,330.8717 L1352.252,330.8717 L1352.252,254.6837 L1373.764,254.6837 L1373.764,0.0007 L1375.807,0.0007 L1375.807,256.7327 L1354.299,256.7327 L1354.299,328.8247 L1373.764,328.8247 L1373.764,272.5787 L1365.643,272.5787 L1365.643,304.9277 C1367.264,305.3787 1368.467,306.8537 1368.467,308.6177 C1368.467,310.7407 1366.741,312.4627 1364.619,312.4627 C1362.498,312.4627 1360.776,310.7407 1360.776,308.6177 C1360.776,306.8497 1361.979,305.3767 1363.596,304.9277 L1363.596,270.5337 L1375.807,270.5337 Z M506.7855,199.6567 L506.7855,54.9337 L485.2735,33.2017 L485.2735,0.0007 L487.3205,0.0007 L487.3205,32.3657 L508.8285,54.0927 L508.8285,201.7037 L487.3205,201.7037 L487.3205,285.2857 L511.7935,309.7587 L511.7935,372.0117 C512.7575,372.4397 513.4315,373.4027 513.4315,374.5247 C513.4315,376.0457 512.1995,377.2777 510.6805,377.2777 C509.1595,377.2777 507.9285,376.0457 507.9285,374.5247 C507.9285,373.3327 508.6895,372.3277 509.7505,371.9447 L509.7505,310.6077 L485.2735,286.1337 L485.2735,199.6567 L506.7855,199.6567 Z" id="Combined-Shape"></path>
                </g>
                <rect id="Rectangle" fill="url(#linearGradient-2)" x="0" y="200" width="1440" height="200"></rect>
            </g>
        </g>
    </g>
</svg>