<?xml version="1.0" encoding="UTF-8"?>
<svg width="188px" height="45px" viewBox="0 0 188 45" version="1.1" xmlns="http://www.w3.org/2000/svg" xmlns:xlink="http://www.w3.org/1999/xlink">
    <!-- Generator: Sketch 51.3 (57544) - http://www.bohemiancoding.com/sketch -->
    <title>AMD_Logo_White-01</title>
    <desc>Created with Sketch.</desc>
    <defs></defs>
    <g id="Page-1" stroke="none" stroke-width="1" fill="none" fill-rule="evenodd">
        <g id="01-Homepage" transform="translate(-50.000000, -25.000000)" fill="#FFFFFF" fill-rule="nonzero">
            <g id="Group-39" transform="translate(50.000000, 0.000000)">
                <g id="AMD_Logo_White-01" transform="translate(0.000000, 25.000000)">
                    <path d="M27.0666833,3.58125 C26.8606394,3.13125 26.6171329,2.98125 26.1301199,2.98125 C22.9083417,3 19.6865634,3.01875 16.4647852,2.98125 C15.7904595,2.98125 15.5094905,3.20625 15.265984,3.80625 C10.8079421,14.94375 6.33116883,26.0625 1.8543956,37.18125 C1.27372627,38.6625 0.618131868,40.125 0,41.60625 C0,41.6625 0,41.7 0,41.75625 C3.2967033,41.775 6.57467532,41.79375 9.87137862,41.775 C10.0586913,41.775 10.3209291,41.45625 10.4145854,41.23125 C11.2574925,39.075 12.0816683,36.91875 12.8683816,34.74375 C13.036963,34.275 13.243007,34.125 13.7487512,34.125 C19.0871628,34.14375 24.4255744,34.14375 29.763986,34.125 C30.3071928,34.125 30.5132368,34.3125 30.7005495,34.78125 C31.5621878,36.9375 32.48002,39.05625 33.3229271,41.2125 C33.5102398,41.68125 33.735015,41.83125 34.222028,41.83125 C37.219031,41.8125 40.216034,41.8125 43.213037,41.8125 C43.4190809,41.8125 43.6251249,41.775 43.9060939,41.75625 C43.8124376,41.5125 43.7562438,41.325 43.6813187,41.15625 C38.1555944,28.6125 32.5924076,16.10625 27.0666833,3.58125 Z M15.6780719,27.31875 C17.5511988,22.33125 19.4055944,17.41875 21.3349151,12.28125 C23.4515485,17.38125 25.4932567,22.29375 27.5724276,27.31875 C23.5639361,27.31875 19.6678322,27.31875 15.6780719,27.31875 Z" id="Shape"></path>
                    <path d="M143.125624,-2.84217094e-14 C143.256743,0.16875 155.151099,12.1875 155.151099,12.1875 C155.151099,12.1875 174.893856,12.1875 175.174825,12.1875 C175.174825,12.58125 175.174825,32.19375 175.174825,32.19375 L187.331419,43.95 C187.331419,43.95 187.331419,14.55 187.331419,-2.84217094e-14 C172.58991,-2.30926389e-14 157.848402,-2.30926389e-14 143.125624,-2.84217094e-14 Z" id="Shape"></path>
                    <path d="M155.132368,14.75625 C154.963786,14.8875 142.676074,27.43125 142.676074,27.69375 C142.657343,29.175 142.676074,40.6125 142.676074,44.83125 C148.52023,44.83125 154.383117,44.83125 160.246004,44.83125 C160.395854,44.64375 172.402597,32.5125 172.721029,32.19375 C166.745754,32.19375 160.976523,32.19375 155.132368,32.19375 C155.132368,26.3625 155.132368,20.625 155.132368,14.75625 Z" id="Shape"></path>
                    <path d="M82.4175824,2.98125 C81.9305694,2.98125 81.6121379,3.13125 81.2937063,3.4875 C78.5964036,6.6375 75.8803696,9.76875 73.1643357,12.91875 C71.8906094,14.4 70.6168831,15.8625 69.3056943,17.38125 C69.0996503,17.15625 68.9310689,16.96875 68.7812188,16.8 C64.96004,12.39375 61.1575924,7.9875 57.3551449,3.5625 C56.9992507,3.15 56.6433566,3 56.1001499,3 C53.8336663,3.01875 51.5671828,3.01875 49.3006993,3.01875 C49.0384615,3.01875 48.7762238,3.01875 48.4952547,3.01875 C48.4952547,15.99375 48.4952547,28.875 48.4952547,41.775 C51.6983017,41.775 54.8638861,41.775 58.1043956,41.775 C58.1043956,33.75 58.1043956,25.78125 58.1043956,17.60625 C58.4602897,18 58.6850649,18.2625 58.8911089,18.50625 C61.9817682,22.10625 65.0536963,25.6875 68.1256244,29.2875 C68.7062937,29.9625 69.8114386,29.98125 70.3921079,29.325 C73.1456044,26.11875 75.8803696,22.9125 78.6338661,19.70625 C79.1958042,19.05 79.7577423,18.39375 80.4695305,17.56875 C80.4695305,25.7625 80.4695305,33.75 80.4695305,41.775 C83.71004,41.775 86.8756244,41.775 90.0786713,41.775 C90.0786713,28.85625 90.0786713,15.975 90.0786713,3.01875 C89.8164336,3.01875 89.5729271,3.01875 89.3481518,3.01875 C87.0442058,3 84.7215285,3 82.4175824,2.98125 Z" id="Shape"></path>
                    <path d="M130.781718,8.94375 C126.923077,5.04375 122.09041,3.3 116.751998,3.1125 C110.514486,2.90625 104.276973,3.01875 98.0394605,3 C97.8708791,3 97.721029,3.0375 97.5337163,3.075 C97.5337163,15.975 97.5337163,28.81875 97.5337163,41.75625 C97.795954,41.775 97.9832667,41.79375 98.1893107,41.79375 C103.228022,41.79375 108.285465,41.79375 113.324176,41.79375 C116.19006,41.79375 119.018482,41.56875 121.790709,40.85625 C126.642108,39.6 130.706793,37.21875 133.366633,32.8125 C135.633117,29.0625 136.251249,24.91875 135.914086,20.625 C135.558192,16.14375 133.966034,12.16875 130.781718,8.94375 Z M124.787712,28.425 C123.139361,31.89375 120.310939,33.91875 116.583417,34.36875 C113.511489,34.74375 110.364635,34.6875 107.161588,34.81875 C107.161588,26.45625 107.161588,18.31875 107.161588,10.10625 C107.573676,10.10625 107.948302,10.0875 108.341658,10.10625 C111.057692,10.2 113.82992,10.05 116.508492,10.425 C122.127872,11.2125 125.649351,15.24375 125.986513,20.925 C126.155095,23.5125 125.93032,26.04375 124.787712,28.425 Z" id="Shape"></path>
                </g>
            </g>
        </g>
    </g>
</svg>