<?xml version="1.0" encoding="UTF-8"?>
<svg width="26px" height="35px" viewBox="0 0 26 35" version="1.1" xmlns="http://www.w3.org/2000/svg" xmlns:xlink="http://www.w3.org/1999/xlink">
    <!-- Generator: Sketch 51.3 (57544) - http://www.bohemiancoding.com/sketch -->
    <title>Fill 1</title>
    <desc>Created with Sketch.</desc>
    <defs></defs>
    <g id="Page-1" stroke="none" stroke-width="1" fill="none" fill-rule="evenodd">
        <g id="18-Where-to-buy" transform="translate(-1029.000000, -740.000000)" fill="#ED1C24">
            <g id="Group" transform="translate(135.000000, 642.000000)">
                <path d="M906.999458,117.578609 C903.276189,117.578609 900.246765,114.575856 900.246765,110.885367 C900.246765,107.194521 903.276189,104.191768 906.999458,104.191768 C910.722726,104.191768 913.752151,107.194521 913.752151,110.885367 C913.752512,114.575856 910.723088,117.578609 906.999458,117.578609 M906.999458,98 C899.831904,98 894,103.780559 894,110.885725 C894,112.739029 894.382698,114.508515 895.136892,116.145468 C898.387118,123.195114 904.618705,130.638059 906.45161,132.750696 C906.588934,132.909018 906.789136,133 906.999819,133 C907.210502,133 907.410705,132.909018 907.548028,132.750696 C909.38021,130.638417 915.611798,123.195831 918.863108,116.145468 C919.617663,114.508515 920,112.739029 920,110.885725 C919.999277,103.780559 914.167373,98 906.999458,98" id="Fill-1"></path>
            </g>
        </g>
    </g>
</svg>