<svg xmlns="http://www.w3.org/2000/svg" viewBox="0 0 207 44"><defs><style>.cls-1{fill:#73c6c7}.cls-2{fill:#fff}</style></defs><title>h-btn1</title><g id="Layer_2" data-name="Layer 2"><g id="SVG"><rect class="cls-1" width="207" height="44" rx="5" ry="5"/><path class="cls-2" d="M30 21.69a13.65 13.65 0 0 1 3.71-.56c2.64 0 4.64 1.42 4.64 3.71 0 2.12-1.22 3.6-3.85 4.23a12.07 12.07 0 0 1-2.25.25l-.65-1.8a11.51 11.51 0 0 0 2.14-.13c1.5-.27 2.81-1.06 2.81-2.57s-1.24-2.13-2.86-2.13a11.94 11.94 0 0 0-3.66.6c0 1.47.08 3 .08 3.67 0 1.89-.71 2.43-1.75 2.43-1.55 0-3.93-1.4-3.93-3.13 0-1.51 1.82-3.08 3.93-4v-3.11c-.43 0-.83.06-1.17.06-.8 0-1.64 0-2.34-.09l-.06-1.73a18.68 18.68 0 0 0 2.36.14h1.23v-1.79a12.29 12.29 0 0 0-.1-1.4h1.94c0 .34-.09.94-.11 1.37s0 1-.07 1.64a22 22 0 0 0 3.51-.69v1.77A35.4 35.4 0 0 1 30 19v2.05zm-1.55 5c0-.56 0-1.58-.05-2.73-1.3.63-2.2 1.53-2.2 2.25s1 1.31 1.66 1.31c.38-.02.6-.25.6-.85zm7.18-10.39a33.87 33.87 0 0 1 4.21 2.56L39 20.3a26.43 26.43 0 0 0-4.13-2.63zm9.42 4.54v9.36H43.4V14.39H50v6.45zm0-5.11V17h3.39v-1.27zm3.39 3.79v-1.35h-3.39v1.35zm.41 8.16v1.05h-1.54v-6.45h6.78v5.4zm0-4v2.61h3.68v-2.61zm9.38 4.4c0 1-.23 1.53-.88 1.82a10.4 10.4 0 0 1-3.35.28 5.83 5.83 0 0 0-.57-1.71c1.13.06 2.3 0 2.66 0s.43-.13.43-.45v-7.2h-5.07v-6.43h6.78zm-5.18-12.37V17h3.47v-1.29zm3.47 3.83v-1.37h-3.47v1.37zm14.04-5.83a20 20 0 0 0 7.8 6.29 7.72 7.72 0 0 0-1.1 1.5 25.32 25.32 0 0 1-2.92-1.82V21h-9v-1.28a24 24 0 0 1-2.9 1.84 6.42 6.42 0 0 0-1-1.33 20 20 0 0 0 7.4-6.52zM64.35 23h11.09v7.24h-1.71v-.7H66v.7h-1.65zM74 19.45a20.86 20.86 0 0 1-4.25-4.1 19.25 19.25 0 0 1-4.05 4.1zm-8.05 5V28h7.74v-3.51zm27.46-9.61a9.63 9.63 0 0 0-.09 1.41c0 .75 0 1.53-.06 2.23l1.74-.13c.49 0 1.09-.05 1.53-.1V20H95c-.45 0-1.06 0-1.72.09a28 28 0 0 1-.28 3.7c-.17.85-.58 1.08-1.44 1.08A20.86 20.86 0 0 1 89 24.6v-1.56a12.92 12.92 0 0 0 1.71.21c.39 0 .57-.05.63-.43a22.43 22.43 0 0 0 .16-2.58c-1.71.13-3.66.33-5.31.49v4.23c0 1.84.12 2.4 3 2.4a34.57 34.57 0 0 0 5.31-.44v1.93c-1.21.13-3.38.29-5.15.29-4.34 0-4.81-1-4.88-3.91v-4.32l-1.6.18-1.87.27-.2-1.82a19.35 19.35 0 0 0 2-.11l1.73-.16v-2.18a12 12 0 0 0-.11-1.71h2a12.93 12.93 0 0 0-.14 1.62v2.11l5.35-.5V16.3a12.58 12.58 0 0 0-.13-1.46zm10.09 5.01a2.09 2.09 0 1 1-2.09 2.09 2.09 2.09 0 0 1 2.09-2.09zm11.65-1.21c-1.57.52-3.24 1-4.58 1.42l-.66-1.47c1.31-.27 3.22-.78 5.08-1.26zM116.8 28a23.38 23.38 0 0 1-5.51 2.24A10.64 10.64 0 0 0 110 29a19.67 19.67 0 0 0 5.24-1.69zm-2.28-11.39a25.36 25.36 0 0 0-3.77-1.48l.74-1.14a22.81 22.81 0 0 1 3.77 1.34zm3.4-.49a8.66 8.66 0 0 1-1.53 1.49 5.32 5.32 0 0 0-1.26-.81 7.46 7.46 0 0 0 2.66-3.15l1.52.24a10.3 10.3 0 0 1-.56 1h6.03l1.12.29a11.65 11.65 0 0 1-1.75 2.61l-1.31-.42a9 9 0 0 0 .9-1.22h-2.49c.4 1.3 1.41 2.45 5.06 2.93a4.9 4.9 0 0 0-.85 1.37c-.5-.09-1-.2-1.38-.3v7.14h-11.74v-7.24H116a4.33 4.33 0 0 0-.74-1.1c2.9-.47 3.93-1.33 4.34-2.81zm4.48 5H114v1h8.44zm0 2H114v1h8.44zm0 2.05H114v1h8.44zm1.39-5.13a5.32 5.32 0 0 1-3.29-2.36c-.69 1.1-1.88 1.85-4 2.36zm-3 7.31a53.67 53.67 0 0 1 5.38 2.09l-1.92.79a36.74 36.74 0 0 0-4.83-2zm12.59-5.93c.54.57 2.27 2.77 2.65 3.31L135 26c-.31-.65-1-1.78-1.59-2.73v6.87h-1.56v-6.85a18.93 18.93 0 0 1-2.29 4.77 9.26 9.26 0 0 0-.81-1.68 17.67 17.67 0 0 0 2.59-5.16H129v-1.57h2.8v-5.89h1.56v5.89h2.81v1.57h-2.81zM130 19.15a19.11 19.11 0 0 0-.9-4l1.19-.31a19.18 19.18 0 0 1 1 4zm6.33-4.15c-.46 1.41-1 3.08-1.47 4.11l-1.06-.33a34.15 34.15 0 0 0 1.08-4.1zm7 10.19v5h-1.56v-4.67l-5.33 1-.27-1.55 5.6-1V13.69h1.56v10l2-.34.24 1.53zm-3.87-2.61a13.83 13.83 0 0 0-3-2.16l.79-1.21a15.61 15.61 0 0 1 3 2zm.72-4.34a13.11 13.11 0 0 0-2.84-2.24l.85-1.13A14.44 14.44 0 0 1 141 17zm14.5-.24H148v-1.36h6.72zm-.6 11.23h-3.87V30h-1.44v-6h5.31zm0-8.82h-5.27v-1.3h5.27zm-5.27 1.1h5.27v1.29h-5.27zm5.19-5.93h-5.17v-1.31H154zm-3.82 9.69v2.59h2.43v-2.59zm14.24-6.21v1.22h-9.81v-1.22h4.09v-1h-3.19V16.9h3.19V16h-3.66v-1.23h3.66v-1.1h1.58v1.1h3.78V16h-3.78v.9h3.49v1.17h-3.49v1zm-1 9.47c0 .75-.17 1.15-.67 1.38a7.35 7.35 0 0 1-2.47.22 4.52 4.52 0 0 0-.43-1.35h1.69c.21 0 .31-.07.31-.29v-1.64h-4.38v3.32h-1.54v-9h7.49zm-6-6.12v1.08h4.38v-1.08zm4.38 3.29v-1.08h-4.38v1.08zm11.72-.5c-1.85 1.17-3.92 2.39-5.49 3.29L167 27c1.53-.76 3.83-2.05 6-3.3zm9-5.44a39.56 39.56 0 0 1-3.69 3.65 12.8 12.8 0 0 0 4.88 4 7.61 7.61 0 0 0-1.2 1.49 14.82 14.82 0 0 1-6.38-7V28c0 1.06-.25 1.57-.9 1.86a10.11 10.11 0 0 1-3.33.32 8.89 8.89 0 0 0-.59-1.76h2.66c.36 0 .45-.1.45-.43v-9.83h-6.89v-1.62h6.89v-2.83h1.71v2.83h4.41a21.78 21.78 0 0 0-2.95-1.8l1-1.07a20.8 20.8 0 0 1 3.31 1.95l-.83.92h2.11v1.62h-7.06v.19a18.42 18.42 0 0 0 1.88 3.82 24 24 0 0 0 3.08-3.46zm-11.36 3.44a16.11 16.11 0 0 0-2.79-3.3l1.26-.88a15.9 15.9 0 0 1 2.88 3.17z"/></g></g></svg>