<svg xmlns="http://www.w3.org/2000/svg" viewBox="0 0 261.14 56.34"><defs><style>.cls-1{fill:#231815}</style></defs><title>h-logo2</title><g id="Layer_2" data-name="Layer 2"><g id="SVG"><path class="cls-1" d="M31.35 56.34A7.68 7.68 0 0 1 24 51.07a65 65 0 0 1-1.72-6.48C20.76 38 19.58 34 14.54 34a8.16 8.16 0 0 0-3.64.73v19.91a.78.78 0 0 1-.78.79H.79a.79.79 0 0 1-.79-.79V1.69A.78.78 0 0 1 .79.91h17.38c12.13 0 16.45 8.73 16.45 16.9 0 6.11-2.65 11.47-6.91 14 2.32 2.32 4 7.1 5.18 11l.14.44c.86 2.81 1.56 4.65 3.32 4.65a4.43 4.43 0 0 0 1.1-.16h.2a.77.77 0 0 1 .48.16.8.8 0 0 1 .31.62v5.38a.8.8 0 0 1-.42.7 14.05 14.05 0 0 1-6.67 1.74zM10.9 24.44h7c3.81 0 5.91-2.35 5.91-6.63s-2.1-6.63-5.91-6.63h-7z"/><rect class="cls-1" x="54.18" y=".91" width="10.9" height="54.52" rx=".79" ry=".79"/><path class="cls-1" d="M98.89 56.34c-7.28 0-11.25-2.9-14.75-5.46l-.91-.67a.77.77 0 0 1-.33-.64v-9.64a.78.78 0 0 1 .48-.72.79.79 0 0 1 .85.16c4.42 4.32 9.46 6.7 14.21 6.7 2.85 0 6.18-1.6 6.18-6.09 0-2.65-2.2-4.91-6.73-6.9l-.23-.08c-6.83-3.11-14.58-6.64-14.58-17.34C83.08 6.43 89.58 0 98.89 0A26.63 26.63 0 0 1 111 3.32a.79.79 0 0 1 .43.7v8.9a.79.79 0 0 1-.4.69.85.85 0 0 1-.38.09.78.78 0 0 1-.42-.11 19.27 19.27 0 0 0-10.7-3.32c-3.53 0-5.73 2-5.73 5.27 0 3.05 2.87 4.59 5.82 5.9 7 3.17 15.81 7.12 15.81 18.72 0 9.84-6.49 16.18-16.54 16.18zm49.6 0c-10.6 0-17.45-6.64-17.45-16.9V1.69a.78.78 0 0 1 .79-.78h9.33a.79.79 0 0 1 .79.78v37.75c0 4.27 2.32 6.63 6.54 6.63s6.51-2.36 6.51-6.63V1.69a.78.78 0 0 1 .79-.78h9.33a.78.78 0 0 1 .78.78v37.75c.03 10.26-6.81 16.9-17.41 16.9zm43.51-.91a.78.78 0 0 1-.78-.79V11.18H180.9a.79.79 0 0 1-.79-.79v-8.7a.78.78 0 0 1 .79-.78h31.5a.79.79 0 0 1 .79.78v8.7a.8.8 0 0 1-.79.79h-10.3v43.46a.79.79 0 0 1-.79.79zm59.44 0a.8.8 0 0 1-.76-.58l-2.56-9.33h-16l-2.56 9.33a.8.8 0 0 1-.76.58h-8.91a.81.81 0 0 1-.63-.31.76.76 0 0 1-.13-.68L233.6 1.49a.78.78 0 0 1 .76-.58h11.52a.78.78 0 0 1 .76.58l14.47 53a.76.76 0 0 1-.13.68.81.81 0 0 1-.63.31zm-16.5-20.17h10.36l-5.18-19.08z"/></g></g></svg>