<svg xmlns="http://www.w3.org/2000/svg" viewBox="0 0 347.68 53.42"><title>h-logo1</title><path d="M121.73 17a13.15 13.15 0 0 0 5.43 1.44 5.44 5.44 0 0 0-.58 1.34 14.2 14.2 0 0 1-5.66-1.91l1 3.44-1.31.38-1-3.39a14.32 14.32 0 0 1-3.69 4.56 5.77 5.77 0 0 0-1.17-.8 13.31 13.31 0 0 0 3.71-4.11l-3 .88-1.44-5 4-1.16-.28-1-5.14 1.5-.36-1.17 5.14-1.49-.38-1.19 1.31-.38.34 1.2 5.26-1.53.34 1.16-5.25 1.52.28 1 4.2-1.22 1.44 5zm-5.91-1.47l2.77-.81-.31-1.07-2.77.8zm.58 2l2.77-.81-.32-1.08-2.77.8zm3.18-4.25l.31 1.08 2.93-.86-.31-1.07zm3.51 1.12l-2.93.86.31 1.09 2.93-.86zm16.68-7.83l-11.88 2.57-.26-1.22 5.23-1.13-.32-1.46L133.9 5l.31 1.47 5.3-1.15zm-7.11 8.2a12.58 12.58 0 0 1-2 3.62 6.66 6.66 0 0 0-1.2-.53 9.21 9.21 0 0 0 1.84-3.22zm3-1.78l.7 3.21c.15.69.07 1.07-.41 1.36a8.3 8.3 0 0 1-2.42.72 5.19 5.19 0 0 0-.67-1.12c.82-.15 1.69-.34 1.9-.4s.31-.12.27-.3l-.69-3.19-3.64.79-.9-4.16 8.71-1.9.9 4.17zm-3.93-.3l6.15-1.33-.42-1.94-6.15 1.33zm7 .34a25.31 25.31 0 0 1 3.15 2.37l-1.11.91a20.83 20.83 0 0 0-3.1-2.46zm6.1-7.73c1-.24 3.41-.83 5.9-1.4 1.44-.33 2.81-.61 3.73-.77l.22 1.39a13.74 13.74 0 0 0-2.68.58 4.6 4.6 0 0 0-2.43 4.55c.36 2.51 2.8 3 5.08 2.78l-.26 1.57c-2.71.24-5.73-.79-6.16-3.81a5.47 5.47 0 0 1 1.68-4.78c-1.18.29-4.5 1.11-6 1.66l-.35-1.49c.53-.12 1-.21 1.27-.28zm9.53 2.76l-.8.51a13.2 13.2 0 0 0-1.39-1.78l.78-.48a17.94 17.94 0 0 1 1.41 1.75zm1.49-.86l-.78.54A13.3 13.3 0 0 0 153.63 6l.78-.49a19.16 19.16 0 0 1 1.44 1.69zm3.07.19a16.14 16.14 0 0 0 .43-3.64l1 .07a17.1 17.1 0 0 1-.39 3.83zm4-1.3a14 14 0 0 0-1-2.3l.72 9.89-1.27.09L160.38 1l1.27-.1.19 2.57.74-.37a11.82 11.82 0 0 1 1.25 2.49zm5.44 1.83a6.74 6.74 0 0 0 4.11 3.87 5.46 5.46 0 0 0-.83 1.27 7.47 7.47 0 0 1-4.15-4.16 7.57 7.57 0 0 1-3.4 4.74 5.33 5.33 0 0 0-1-.94 6.09 6.09 0 0 0 3.24-4.63l-3 .22-.09-1.23 3.23-.23c0-.54 0-1.07-.06-1.56l-.1-1.35-2.57.19-.09-1.2 2.57-.19L166 .55l1.31-.09.16 2.16 3-.22.3 4.1 1-.07.23 1.23zm-.68-2.74a13.2 13.2 0 0 1 0 1.55l1.85-.13-.22-2.91-1.77.13zM177.7 10a3.71 3.71 0 0 0 3.3 1.39c1.59.06 4.83 0 6.61-.14a5.26 5.26 0 0 0-.41 1.27c-1.61.08-4.58.14-6.2.09a4.66 4.66 0 0 1-3.84-1.61c-.58.58-1.19 1.14-1.87 1.75l-.65-1.28a21.11 21.11 0 0 0 1.82-1.44V6.66h-1.68V5.5h2.93zm-.7-6.54a10.28 10.28 0 0 0-2.17-2.32l1-.73A10.35 10.35 0 0 1 178 2.63zm3.42-1.34h-2.06v-1h3.73V0h1.26v1.06h3.93v1h-1.89.16c-.2.44-.42.85-.6 1.2h1.92v6.06c0 .59-.09.9-.49 1.1a5.07 5.07 0 0 1-1.79.21 4.6 4.6 0 0 0-.39-1.09 12.53 12.53 0 0 0 1.26 0c.15 0 .21-.05.21-.21v-5h-2.39v.84h1.89V6h-1.89v.9h1.41v2.57h-2.83V10H181V6.94h1.36V6h-1.87v-.79h1.87v-.85h-2.3l.05 6.31h-1.19l-.05-7.33h1.72a6.61 6.61 0 0 0-.5-1.13zm3.33 1.21a10 10 0 0 0 .5-1.24h-3a4.55 4.55 0 0 1 .52 1.21h2zm0 4.36h-1.89v1h1.89zM194 1.45c-.11.26-.29.79-.36 1a33.56 33.56 0 0 0-1 5.17 11.85 11.85 0 0 0 0 1.46c.25-.54.57-1.2.82-1.69l.69.61a26.15 26.15 0 0 0-1.2 3.16 2.49 2.49 0 0 0-.12.63v.52h-1.26a17.17 17.17 0 0 1-.25-4.51 41 41 0 0 1 1-5.48 10.87 10.87 0 0 0 .2-1.14zm2.75 7a5.13 5.13 0 0 0-.24 1.22c0 .63.39 1.15 2.06 1.25a15.44 15.44 0 0 0 3.48-.14l-.07 1.49a18.62 18.62 0 0 1-3.52 0c-2.35-.15-3.39-1-3.3-2.37a8.3 8.3 0 0 1 .34-1.69zM202.1 3l-.1 1.39a34.31 34.31 0 0 1-5.8-.37l.09-1.41a26.15 26.15 0 0 0 5.81.39zm8.9-.76a22.23 22.23 0 0 1-1.73 2.57L208 14.33l-1.23-.17 1-7.65a15.69 15.69 0 0 1-1.58 1.42 10.67 10.67 0 0 0-.53-1.4 15 15 0 0 0 4.16-4.85zM218 14l-.17 1.23-8.9-1.2.16-1.24 3.86.52.43-3.15-3.07-.41.17-1.22 3.06.41.37-2.74-3.52-.48.17-1.23 4.38.59a20 20 0 0 0-2.38-2.16l1-.8a18.93 18.93 0 0 1 2.81 2.46l-.71.59 3.29.45-.17 1.23-3.53-.48-.37 2.75 3.13.42-.17 1.22-3.13-.42-.43 3.15zm12.75 3.09a10.6 10.6 0 0 0-2.62-2.6c-.06.28-.1.51-.14.7-.21 1-1.14 1.82-2.91 1.46-2.06-.43-3-1.41-2.73-2.78s1.68-1.94 3.71-1.52a10 10 0 0 1 1 .26c.08-.51.18-1.06.27-1.56l-.74-.15c-.86-.18-2.38-.57-3.31-.87l.28-1.29a24 24 0 0 0 3.29.95l.7.15.36-1.71-.69-.13a26.71 26.71 0 0 1-3-.85l.25-1.24a21.47 21.47 0 0 0 3 .89l.7.15.16-.77c.05-.25.1-.65.12-.88l1.45.31c-.08.24-.18.53-.27.9 0 .15-.1.39-.15.67a31.46 31.46 0 0 0 3.45.35l-.24 1.25c-1-.1-2.17-.22-3.47-.43l-.36 1.73a43 43 0 0 0 3.78.41l-.26 1.29c-1.29-.11-2.43-.26-3.74-.48-.12.62-.21 1.27-.29 1.87a11.07 11.07 0 0 1 3.44 2.9zm-3.91-3.29a7.3 7.3 0 0 0-1.2-.37c-1.15-.23-1.85.08-2 .64s.31 1.08 1.47 1.32c.77.16 1.37 0 1.56-.82.06-.19.12-.46.17-.77zm16.79 0a12.36 12.36 0 0 0-3.75-.33 11 11 0 0 0-1.32.08V11.9c.41.08.95.13 1.37.17a18.6 18.6 0 0 1 4.2.49c2 .56 3.11 2.1 2.56 4.08-.81 2.87-3.9 3.83-7.6 3.36l-.42-1.53c3.39.52 5.93 0 6.56-2.3a1.93 1.93 0 0 0-1.6-2.37zm3.57-3.1l-.58 1.3c-1.48-.54-4.19-1.57-5.63-2.27l.56-1.22a39.9 39.9 0 0 0 5.65 2.19zM17 48.28h-2.44v-1.22H4.9a10.41 10.41 0 0 1-3 6.36A8.2 8.2 0 0 0 0 51.76c2.48-2.22 2.7-5.43 2.7-7.87v-4.4H17zm1.34-12.67v2.28H.86v-2.28zM5.12 41.69v3.16h9.46v-3.16zm23.36-.04a27.49 27.49 0 0 1-1.42 7.13c1.86 1.48 4.38 1.78 7.3 1.8 1.18 0 5.24 0 6.7-.06a8.39 8.39 0 0 0-.92 2.32H34.3c-3.38 0-6.1-.4-8.22-2a8.55 8.55 0 0 1-2.22 2.58 8.44 8.44 0 0 0-1.78-1.6 7.68 7.68 0 0 0 2.34-2.68 13.56 13.56 0 0 1-1.88-3.89l1.86-.68a9.66 9.66 0 0 0 1 2.26 21.1 21.1 0 0 0 .7-3.36h-1.38l-.26.58-2.16-.56c.86-1.76 1.82-3.92 2.56-5.66h-2.6v-2.08h3.66l.36-.08 1.62.44c-.6 1.56-1.42 3.46-2.24 5.28h1l.42-.06zm4.36-3.92h-3.66v-1.8h3.66v-1.14h2.32v1.14h4.16v2.62h1.5v1.82h-1.5V43h-4.16v.88h4.32v1.72h-4.32v.95h5.24v1.85h-5.24V50h-2.32v-1.6H28.1v-1.86h4.74v-.95H29v-1.72h3.88V43h-3.8v-1.8h3.76v-.82h-5v-1.83h5zm2.32 0v.82H37v-.82zM37 40.37h-1.84v.82H37zm10-2.6c1.64-.16 4.92-.44 8.54-.76 2-.16 4.22-.28 5.6-.34v2.56a20.45 20.45 0 0 0-3.82.26A6 6 0 0 0 53.16 45c0 3.27 3.06 4.43 6.4 4.61l-.92 2.74c-4.16-.28-8.08-2.52-8.08-6.81a7.92 7.92 0 0 1 2.92-6.1c-1.7.18-5.88.62-8.18 1.12l-.24-2.72c.78.01 1.54-.03 1.94-.07zm25.38-1.52c0 .44-.06.88-.06 1.52v6.76c0 .5 0 1.28.06 1.74h-3c0-.37.1-1.16.1-1.76v-6.74a13.6 13.6 0 0 0-.08-1.52zm9.22-.18c0 .56-.08 1.2-.08 2v4c0 4.3-.84 6.15-2.32 7.79a11.62 11.62 0 0 1-4.86 2.9l-2.1-2.2a9.36 9.36 0 0 0 4.9-2.56c1.36-1.5 1.62-3 1.62-6.13v-3.8a14.11 14.11 0 0 0-.12-2zm21.74 3.12a28 28 0 0 1-3.76 7.35 20 20 0 0 1-7.58 5.8L89.72 50a17.37 17.37 0 0 0 7.6-5.21 20.3 20.3 0 0 0 3.78-8.64l3.12.8a23.4 23.4 0 0 0-.88 2.24zm8.56 5.2c.92-.92 2.48-2.88 3.84-4.52 1.2-1.42 2.28-1.56 3.92-.18a52.05 52.05 0 0 1 4.08 4.06c1.34 1.46 3.48 3.75 4.92 5.41l-2.14 2.32c-1.28-1.64-3.1-3.86-4.28-5.25a43.68 43.68 0 0 0-3.68-4c-.7-.6-1-.6-1.62.12-.78 1-2.22 3-3 4.09-.46.62-.94 1.34-1.28 1.86l-2.36-2.42c.56-.46 1-.88 1.6-1.49zm13.7-3.46l-1.8.78a18.85 18.85 0 0 0-1.8-3.26l1.74-.72a31.91 31.91 0 0 1 1.86 3.2zm2.74-1.18l-1.74.84a20.92 20.92 0 0 0-1.92-3.18l1.72-.78a29.11 29.11 0 0 1 1.94 3.12zm5.04 2.58c.72.06 2.18.12 3.22.12h10.74c.92 0 1.82-.08 2.34-.12v3.15c-.48 0-1.5-.1-2.34-.1H136.6c-1.14 0-2.48 0-3.22.1zm27.82.8l-1.46 2.25a50 50 0 0 0-4.56-2.85l1.46-2.22c1.36.69 3.54 2.1 4.56 2.82zm1.62 4.59a20.48 20.48 0 0 0 7.78-7.51l1.54 2.72a23.7 23.7 0 0 1-14.64 9.67L156 50a22.19 22.19 0 0 0 6.82-2.28zm1.46-9.11l-1.5 2.22c-1.12-.78-3.2-2.14-4.52-2.88l1.46-2.2c1.28.74 3.52 2.14 4.56 2.86zm27.08 13.13v1.36h-2.52v-.8h-7.54c-.56 0-1.38 0-1.72.06V49.9a17.16 17.16 0 0 0 1.74.08h7.56v-2.66h-8.56V45c.52 0 1.42.06 2.18.06h6.38v-2.43h-6.6c-.74 0-2 0-2.48.08v-2.42c.52.06 1.74.1 2.48.1h9.1v1.34zm16.16-4.64a19 19 0 0 0 7.28-7.79l1.56 2.82a21.29 21.29 0 0 1-7.4 7.41 21.66 21.66 0 0 1-7.42 2.82l-1.68-2.64a20.61 20.61 0 0 0 7.66-2.62zm0-6.49l-2 2.1a41.58 41.58 0 0 0-5-4.32l1.88-2a42 42 0 0 1 5.12 4.22zm31.08 8.09h-4.3V51c0 1.14-.24 1.68-1.08 2a11.76 11.76 0 0 1-3.62.32 8.09 8.09 0 0 0-.74-2.08h2.66c.34 0 .44-.1.44-.36V48.7h-6.5a13.74 13.74 0 0 1 2.64 2.42l-1.9 1.4a14.68 14.68 0 0 0-2.86-2.8l1.44-1h-4.28v-2H232v-1.09h-9.54v-6.8h5.88v-.9H221V36h7.34v-1.33h2.32V36h7.5v1.94h-7.5v.9h6.14v6.8h-2.5v1.06h4.3zm-14-7.23h3.68v-1h-3.68zm0 2.54h3.68V43h-3.68zm6-3.56v1h3.82v-1zm3.84 2.55h-3.82v1h3.82zm16.36.15h-5.26v10.19h-2.36V35.45h7.62zm-5.26-5.78v1h3v-1zm3 3.88v-1.14h-3v1.14zM260 50.46c0 1.36-.28 2.06-1.16 2.42a10.88 10.88 0 0 1-4.12.44 8.62 8.62 0 0 0-.84-2.44c1.26.08 2.74.06 3.16.06s.56-.14.56-.52v-7.21h-5.4v-7.76h7.8zm-5.56-13.09v1h3.16v-1zm3.16 3.92v-1.18h-3.16v1.18zm21.92-3.6l1.26.82a10.1 10.1 0 0 0-.44 1.38 20.3 20.3 0 0 1-3 7.29 15.83 15.83 0 0 1-8 5.52l-2.18-2.38a13.1 13.1 0 0 0 7.84-4.71 12.84 12.84 0 0 0 2.32-5.61H268c-.92 0-1.86 0-2.38.08v-2.85a22.27 22.27 0 0 0 2.38.16h9.26a8.39 8.39 0 0 0 .94 0c-.34-.66-.74-1.36-1.12-1.94l1.64-.68a26.38 26.38 0 0 1 1.54 2.64zm2-3.46c.5.72 1.22 1.94 1.6 2.64l-1.66.72a23.71 23.71 0 0 0-1.6-2.68zm22.1 7.82a7.41 7.41 0 0 0-.38.84 14.41 14.41 0 0 1-3 5.55 15 15 0 0 1-7.14 4.32l-2-2.26a13.48 13.48 0 0 0 6.94-3.5 8.71 8.71 0 0 0 2.06-3.47h-9.66c-.48 0-1.48 0-2.32.1V41c.84.08 1.7.12 2.32.12h9.9a4.22 4.22 0 0 0 1.46-.2zM290 36.25a16.86 16.86 0 0 0 2.08.1h7.7a18.86 18.86 0 0 0 2.16-.1v2.58c-.54 0-1.48-.06-2.2-.06h-7.66c-.64 0-1.5 0-2.08.06zm27.52 10.85a19 19 0 0 0 7.28-7.79l1.56 2.82a21.29 21.29 0 0 1-7.4 7.41 21.66 21.66 0 0 1-7.42 2.82l-1.68-2.64a20.61 20.61 0 0 0 7.66-2.62zm0-6.49l-2 2.1a41.58 41.58 0 0 0-5-4.32l1.88-2a42 42 0 0 1 5.12 4.22zm20.42.78a69.58 69.58 0 0 1 8.36 3.12l-1.12 2.79a52.38 52.38 0 0 0-7.24-3V50c0 .56.1 2 .2 2.78H335a21.66 21.66 0 0 0 .2-2.78V38.47a14.11 14.11 0 0 0-.2-2.42h3.12a21.75 21.75 0 0 0-.18 2.42zm5.32-.88a16.3 16.3 0 0 0-1.76-3.08l1.68-.72c.56.84 1.36 2.12 1.82 3zm2.74-1.12a18.73 18.73 0 0 0-1.86-3l1.66-.78a26.49 26.49 0 0 1 1.88 3z" data-name="Layer 2"/></svg>