<svg xmlns="http://www.w3.org/2000/svg" viewBox="0 0 196.09 42.3"><defs><style>.cls-1{fill:#231815}</style></defs><title>h-risuta2</title><g id="Layer_2" data-name="Layer 2"><g id="SVG"><path class="cls-1" d="M23.54 42.3A5.77 5.77 0 0 1 18 38.35a50.29 50.29 0 0 1-1.29-4.87c-1.13-4.94-2-8-5.8-8a6.17 6.17 0 0 0-2.73.54V41a.59.59 0 0 1-.59.59h-7A.58.58 0 0 1 0 41V1.27A.59.59 0 0 1 .59.68h13.06C22.75.68 26 7.24 26 13.37 26 18 24 22 20.81 23.88c1.74 1.74 3 5.33 3.89 8.26l.1.33C25.45 34.58 26 36 27.29 36a3.08 3.08 0 0 0 .83-.12h.15a.59.59 0 0 1 .36.13.56.56 0 0 1 .23.46v4a.59.59 0 0 1-.31.52 10.42 10.42 0 0 1-5.01 1.31zM8.19 18.35h5.25c2.86 0 4.44-1.77 4.44-5s-1.58-5-4.44-5H8.19z"/><rect class="cls-1" x="40.68" y=".68" width="8.19" height="40.94" rx=".59" ry=".59"/><path class="cls-1" d="M74.26 42.3c-5.47 0-8.45-2.18-11.08-4.1l-.69-.5a.6.6 0 0 1-.24-.48V30a.57.57 0 0 1 .59-.59.57.57 0 0 1 .41.16c3.31 3.25 7.1 5 10.67 5A4.33 4.33 0 0 0 78.56 30c0-2-1.66-3.68-5-5.18l-.17-.08c-5.14-2.34-11-5-11-13C62.38 4.83 67.27 0 74.26 0a20 20 0 0 1 9.09 2.49.6.6 0 0 1 .32.53V9.7a.58.58 0 0 1-.59.59.61.61 0 0 1-.31-.09 14.56 14.56 0 0 0-8-2.49c-2.65 0-4.29 1.52-4.29 4s2.15 3.44 4.36 4.43c5.29 2.38 11.87 5.34 11.87 14.06-.04 7.34-4.91 12.1-12.45 12.1zm37.24 0c-8 0-13.1-5-13.1-12.69V1.27a.59.59 0 0 1 .6-.59h7a.6.6 0 0 1 .59.59v28.34c0 3.21 1.74 5 4.91 5s4.91-1.77 4.91-5V1.27a.6.6 0 0 1 .59-.59h7a.59.59 0 0 1 .59.59v28.34c.01 7.71-5.13 12.69-13.09 12.69zm32.66-.68a.58.58 0 0 1-.59-.59V8.39h-7.74a.59.59 0 0 1-.59-.59V1.27a.6.6 0 0 1 .59-.59h23.66a.59.59 0 0 1 .59.59V7.8a.58.58 0 0 1-.59.59h-7.73V41a.59.59 0 0 1-.59.59zm44.64 0a.59.59 0 0 1-.56-.43l-1.93-7h-12l-1.93 7a.59.59 0 0 1-.57.43h-6.69a.61.61 0 0 1-.47-.23.59.59 0 0 1-.1-.51l10.86-39.76a.59.59 0 0 1 .59-.44h8.65a.59.59 0 0 1 .57.44l10.87 39.76a.59.59 0 0 1-.1.51.61.61 0 0 1-.47.23zm-12.38-15.15h7.77l-3.89-14.32z"/></g></g></svg>