<svg xmlns="http://www.w3.org/2000/svg" viewBox="0 0 362.38 12.48"><defs><style>.cls-1{fill:#73c3c4}</style></defs><title>h-toptext</title><g id="Layer_2" data-name="Layer 2"><path class="cls-1" d="M8 8.5a12.39 12.39 0 0 0 4.22 2.5 6.44 6.44 0 0 0-1.1 1.34 12.89 12.89 0 0 1-4.27-3v3.16h-1.6V9.32a12.66 12.66 0 0 1-4.18 2.94A8.31 8.31 0 0 0 0 11a11.81 11.81 0 0 0 4.1-2.5H1.47v-5h3.78v-.71H.36V1.35h4.89V.29h1.6v1.06h5v1.44h-5v.75h4v5zM3 5.46h2.25v-.77H3zm0 1.89h2.25v-.8H3zm3.85-2.66v.77h2.39v-.77zm2.39 1.86H6.85v.8h2.39zm8.83 2.51A11.76 11.76 0 0 1 15.55 12a11.28 11.28 0 0 0-1.26-.9 7.82 7.82 0 0 0 2.19-2.5zM26.1 3H14.65V1.52h4.88V.27h1.63v1.25h4.94zm-4.94 5.05v2.74c0 .78-.14 1.17-.71 1.39a7.08 7.08 0 0 1-2.38.24 6.67 6.67 0 0 0-.49-1.49h1.69c.21 0 .28-.05.28-.22V8.05h-3.42V3.9h8.6v4.15zm-3.48-1.33h5.41V5.23h-5.41zM24 8.55a20.79 20.79 0 0 1 2.35 2.75l-1.52.76a19.51 19.51 0 0 0-2.25-2.83zm8-7.19a11.68 11.68 0 0 0-.31 1.15 32.13 32.13 0 0 0-.62 4.72 6 6 0 0 0 0 .83c.18-.46.39-.88.57-1.3l.81.62a29.83 29.83 0 0 0-.93 3.16 3.69 3.69 0 0 0-.07.6v.53l-1.48.11a16.43 16.43 0 0 1-.51-4.21 34.58 34.58 0 0 1 .54-5.1 9.94 9.94 0 0 0 .13-1.26zm3 6.36a4 4 0 0 0-.16 1.08c0 .57.5.91 1.8.91a14.5 14.5 0 0 0 3.22-.34v1.75a18.41 18.41 0 0 1-3.33.26c-2.22 0-3.27-.81-3.27-2.12a7.92 7.92 0 0 1 .22-1.68zm4.5-5.51v1.66a34 34 0 0 1-5.53 0V2.21a26.29 26.29 0 0 0 5.58 0zm3.23 4.02a15.67 15.67 0 0 0 .64-3.4l1.1.15a17.08 17.08 0 0 1-.58 3.65zm3.87-.82a11.18 11.18 0 0 0-.6-1.76v8.75h-1.51V.27H46v2.45l.7-.3a14 14 0 0 1 1 2.46zm5.3 2.1A5.79 5.79 0 0 0 55.22 11a6.33 6.33 0 0 0-1.09 1.45 6.8 6.8 0 0 1-3.38-3.82 7.09 7.09 0 0 1-3.3 3.85 6.77 6.77 0 0 0-1.09-1.2 5.47 5.47 0 0 0 3.16-3.77h-2.59V6h2.8V3.67h-2.2V2.24h2.23v-2h1.56v2h2.83V6H55v1.51zm-.58-2.65v1.18h1.35V3.67h-1.35zm8.92 4.6A3 3 0 0 0 63 10.75a63.77 63.77 0 0 0 6.42-.12 6.83 6.83 0 0 0-.48 1.51c-1.62.08-4.37.11-6 0a4 4 0 0 1-3.36-1.44c-.52.51-1.06 1-1.72 1.56l-.73-1.54a14.76 14.76 0 0 0 1.61-1.19v-2.8h-1.42V5.32h2.92zm-.92-5.82a10 10 0 0 0-2-2.16L58.55.6a10.73 10.73 0 0 1 2 2.07zm3.18-1.27h-1.71v-1.2h3.31v-.9h1.5v.9h3.51v1.2h-1.5l-.46.91h1.69v5.57c0 .63-.11 1-.52 1.2a4.14 4.14 0 0 1-1.76.22 4.92 4.92 0 0 0-.3-1h-2v.39h-1.08V6.77h1.2v-.71h-1.52v-.94h1.52v-.67h-1.86v5.77h-1.39V3.28h1.48a3.33 3.33 0 0 0-.33-.86zm3.24.91c.12-.28.24-.61.34-.91H63.7a2.89 2.89 0 0 1 .31.91zm-.1 4.36h-1.41v.72h1.41zm1.78-3.19h-1.94v.67H67v.94h-1.52v.71h1.22V9h.52c.15 0 .2-.06.2-.21zm7.51-3.09a11.68 11.68 0 0 0-.31 1.15A32.13 32.13 0 0 0 74 7.23a6 6 0 0 0 0 .83c.18-.46.39-.88.57-1.3l.81.62a29.83 29.83 0 0 0-.93 3.16 3.69 3.69 0 0 0-.07.6v.53l-1.38.11a16.43 16.43 0 0 1-.51-4.21 34.58 34.58 0 0 1 .51-5.1 9.94 9.94 0 0 0 .13-1.26zm3 6.36a4 4 0 0 0-.16 1.08c0 .57.5.91 1.8.91a14.5 14.5 0 0 0 3.22-.34v1.75a18.41 18.41 0 0 1-3.33.26c-2.22 0-3.27-.81-3.27-2.12a7.92 7.92 0 0 1 .22-1.68zm4.5-5.51v1.66a34 34 0 0 1-5.53 0V2.21a26.29 26.29 0 0 0 5.55 0zM90.14.77a21.33 21.33 0 0 1-1.21 2.51v9.1h-1.47V5.51a10.9 10.9 0 0 1-1.08 1.22 9.69 9.69 0 0 0-.8-1.57A13.82 13.82 0 0 0 88.71.3zM98 10.54V12h-8.39v-1.46h3.46V8h-2.75V6.5h2.75V4.24h-3.16V2.78h3.69a20.3 20.3 0 0 0-2.17-1.43l1-1.1a17.22 17.22 0 0 1 2.93 1.88l-.57.65h3v1.46h-3.15V6.5h2.81V8h-2.81v2.58zm12.11.81a9.76 9.76 0 0 0-2.6-1.78v.45c0 1.11-.83 2-2.53 2-2.06 0-3.15-.78-3.15-2.14S103 7.62 105 7.62a6.85 6.85 0 0 1 .79 0V6.45h-.66c-.76 0-2.24-.07-3.1-.17V4.8a24 24 0 0 0 3.11.23h.61V3.69h-.61a22.64 22.64 0 0 1-2.79-.19V2.03a17.84 17.84 0 0 0 2.8.24h.64v-.58a5.3 5.3 0 0 0-.07-.88h1.76c0 .26-.08.58-.1.91v.5a27.05 27.05 0 0 0 3.07-.31v1.48c-.85.08-1.89.18-3.12.25V5c1.3-.05 2.37-.17 3.43-.3v1.5c-1.16.13-2.16.22-3.41.26 0 .48 0 1 .09 1.5a9.7 9.7 0 0 1 3.6 2zM105.87 9a6 6 0 0 0-1.05-.1c-.91 0-1.4.35-1.4.8s.45.79 1.33.79c.69 0 1.14-.21 1.14-.95 0-.1 0-.28-.02-.54zM121 5.47a11.28 11.28 0 0 0-3.35.63c-.38.11-.87.31-1.25.44l-.48-1.83a10.76 10.76 0 0 0 1.4-.23 18.36 18.36 0 0 1 3.89-.58c2 0 3.47 1.16 3.47 3.17 0 2.76-2.55 4.47-6.12 5l-.94-1.61c3.2-.37 5.24-1.41 5.24-3.42-.01-.88-.66-1.58-1.86-1.57zm2.6-4.07l-.27 1.6c-1.51-.1-4.3-.35-5.78-.61l.26-1.56a36.87 36.87 0 0 0 5.78.57zm8 10.78a24.56 24.56 0 0 0-2.8-2.87l1.36-1.17A23.74 23.74 0 0 1 133 11zm15.82-3.05h-1.57v-.8h-6.28a6.79 6.79 0 0 1-2 4.14 5.21 5.21 0 0 0-1.21-1.08c1.62-1.44 1.76-3.52 1.76-5.11V3.42h9.28zm.87-8.23v1.48h-11.35V.9zm-8.58 4v2h6.15V4.85zm15.19-.08a17.72 17.72 0 0 1-.9 4.63c1.21 1 2.85 1.16 4.75 1.17h4.35a5.88 5.88 0 0 0-.6 1.51h-3.79c-2.2 0-4-.26-5.35-1.3a5.54 5.54 0 0 1-1.44 1.68 5.21 5.21 0 0 0-1.16-1 5 5 0 0 0 1.53-1.74A8.64 8.64 0 0 1 151 7.16l1.21-.44a6.44 6.44 0 0 0 .64 1.47 13.94 13.94 0 0 0 .48-2.19h-.88l-.17.37-1.4-.37c.56-1.14 1.18-2.55 1.66-3.68h-1.69V1h2.38l.23-.05 1.06.28c-.39 1-.93 2.25-1.46 3.43h.92zm2.83-2.55h-2.38V1.1h2.38V.36h1.51v.74h2.7v1.71h1V4h-1v1.7h-2.7v.58h2.81v1.1h-2.81V8h3.4v1.2h-3.4v1.06h-1.51V9.2h-3.08V8h3.08v-.62h-2.52V6.27h2.52v-.58h-2.44V4.52h2.44V4h-3.26V2.81h3.26zm1.51 0v.54h1.18v-.54zM160.42 4h-1.18v.53h1.18zm6.51-1.7l5.55-.49c1.33-.11 2.75-.18 3.64-.22v1.66a13 13 0 0 0-2.49.17A3.92 3.92 0 0 0 170.94 7c0 2.12 2 2.87 4.16 3l-.6 1.78c-2.7-.18-5.25-1.64-5.25-4.42a5.13 5.13 0 0 1 1.9-4c-1.11.11-3.83.4-5.32.72l-.16-1.76c.51.03 1 .01 1.26-.02zm16.5-.99a9.21 9.21 0 0 0 0 1v5.52h-1.92c0-.25.06-.76.06-1.15V2.3a8.63 8.63 0 0 0 0-1zm6-.11v3.87c0 2.8-.54 4-1.51 5.06A7.49 7.49 0 0 1 184.7 12l-1.36-1.43a6 6 0 0 0 3.18-1.64c.89-1 1.06-1.95 1.06-4V2.5a9.4 9.4 0 0 0-.08-1.3zm14.12 2.02A18 18 0 0 1 201.11 8a13 13 0 0 1-4.93 3.77l-1.48-1.53a11.27 11.27 0 0 0 4.94-3.38 13.09 13.09 0 0 0 2.46-5.61l2 .52c-.21.47-.39 1.04-.55 1.45zm5.57 3.38c.6-.59 1.61-1.87 2.49-2.93s1.49-1 2.55-.12a33 33 0 0 1 2.65 2.64c.88.95 2.27 2.43 3.2 3.51l-1.39 1.51c-.83-1.07-2-2.51-2.78-3.41a28.87 28.87 0 0 0-2.39-2.57c-.46-.39-.68-.39-1.06.07-.5.65-1.44 1.94-2 2.66-.3.4-.61.87-.83 1.21l-1.54-1.58a13.79 13.79 0 0 0 1.1-.99zM218 4.35l-1.17.51a12 12 0 0 0-1.18-2.12l1.13-.47A19.82 19.82 0 0 1 218 4.35zm1.78-.76l-1.13.54a13.06 13.06 0 0 0-1.24-2.06l1.11-.51a16.8 16.8 0 0 1 1.28 2.03zm3.3 1.68c.47 0 1.42.07 2.09.07h7c.6 0 1.19 0 1.53-.07v2c-.32 0-1-.07-1.53-.07h-7c-.74 0-1.61 0-2.09.07zm18.08.52l-.95 1.45a32.44 32.44 0 0 0-3-1.84l.99-1.4c.87.42 2.3 1.32 2.96 1.79zm1.06 3a13.18 13.18 0 0 0 5.05-4.87l1 1.76a15.54 15.54 0 0 1-5.17 4.67 15.37 15.37 0 0 1-4.34 1.61l-1-1.71a14.47 14.47 0 0 0 4.46-1.49zm.95-5.91l-1 1.44c-.73-.51-2.08-1.39-2.94-1.87L240.2 1c.86.47 2.29 1.38 2.97 1.85zm17.6 8.5v.88h-1.64a4 4 0 0 0 0-.52h-6.05v-1.6a10.12 10.12 0 0 0 1.13.05h4.92V8.5h-5.55V7h5.57V5.46h-5.91V3.94c.34 0 1.13.06 1.62.06h5.91v.87zm10.5-3.02A12.29 12.29 0 0 0 276 3.3l1 1.83a13.92 13.92 0 0 1-4.79 4.87 14.14 14.14 0 0 1-4.83 1.83l-1.09-1.72a13.35 13.35 0 0 0 4.98-1.75zm0-4.21L270 5.51a28.58 28.58 0 0 0-3.3-2.81l1.22-1.3a26.93 26.93 0 0 1 3.35 2.75zm20.2 5.25h-2.79v1.52c0 .74-.16 1.09-.7 1.3a7.55 7.55 0 0 1-2.36.21 4.85 4.85 0 0 0-.48-1.35h1.73c.22 0 .29-.06.29-.23V9.4h-4.23a8.93 8.93 0 0 1 1.72 1.6l-1.24.91a9.49 9.49 0 0 0-1.86-1.82l.94-.66h-2.78V8.1h7.45v-.69H281V3h3.82v-.6H280V1.14h4.77V.29h1.51v.85h4.87V2.4h-4.87V3h4v4.41h-1.6v.69h2.79zm-9.08-4.69h2.39V4h-2.39zm0 1.65h2.39v-.67h-2.39zm3.9-2.36v.67h2.48V4zm2.48 1.65h-2.48v.67h2.48zm10.63.15H296v6.62h-1.53V.79h4.95zM296 2v.68h2V2zm2 2.52v-.7h-2v.74zm7.44 6c0 .89-.19 1.34-.76 1.58a7.09 7.09 0 0 1-2.68.28 5.48 5.48 0 0 0-.54-1.58h2.05c.27 0 .37-.09.37-.33V5.84h-3.53v-5h5.09zM301.78 2v.68h2.06V2zm2.06 2.55v-.73h-2.06v.77zm14.23-2.3l.82.53a6.75 6.75 0 0 0-.29.9 12.82 12.82 0 0 1-2 4.73 10.25 10.25 0 0 1-5.17 3.59L310 10.45a8.59 8.59 0 0 0 5.1-3 8.3 8.3 0 0 0 1.53-3.67h-7.6V2a14.76 14.76 0 0 0 1.54.1h6.61c-.22-.43-.48-.89-.72-1.26l1.06-.45a16.49 16.49 0 0 1 1 1.72zm1.3-2.25c.33.47.79 1.26 1 1.72l-1.08.46a15.09 15.09 0 0 0-1-1.74zm14.37 5.08a5.06 5.06 0 0 0-.25.55 9.41 9.41 0 0 1-1.92 3.6 9.75 9.75 0 0 1-4.65 2.77l-1.3-1.47a8.71 8.71 0 0 0 4.52-2.28A5.55 5.55 0 0 0 331.47 6h-6.28c-.31 0-1 0-1.5.07V4.42c.54 0 1.1.08 1.5.08h6.44a2.68 2.68 0 0 0 .95-.13zm-8.86-3.77a11.37 11.37 0 0 0 1.35.07h5a12.62 12.62 0 0 0 1.4-.07V3h-7.78zm17.89 7.05a12.29 12.29 0 0 0 4.73-5.06l1 1.83a13.92 13.92 0 0 1-4.79 4.87 14.14 14.14 0 0 1-4.83 1.83l-1.09-1.72a13.35 13.35 0 0 0 4.98-1.75zm0-4.21l-1.32 1.36a28.58 28.58 0 0 0-3.25-2.81l1.22-1.3a26.93 26.93 0 0 1 3.35 2.75zm13.23.5a46.4 46.4 0 0 1 5.44 2l-.73 1.81A34.1 34.1 0 0 0 356 6.55v3.68c0 .37.07 1.28.13 1.81h-2a13.77 13.77 0 0 0 .13-1.81V2.76a9.36 9.36 0 0 0-.13-1.58h2a14.75 14.75 0 0 0-.13 1.58zm3.46-.57a10.13 10.13 0 0 0-1.14-2l1.09-.47c.36.55.88 1.38 1.18 2zm1.78-.73a11.16 11.16 0 0 0-1.21-1.95l1.08-.5a17.4 17.4 0 0 1 1.23 1.92z" id="SVG"/></g></svg>