<svg xmlns="http://www.w3.org/2000/svg" viewBox="0 0 58.13 19.9"><defs><style>.cls-1{fill:#fff}</style></defs><title>i-li1</title><g id="Layer_2" data-name="Layer 2"><path class="cls-1" d="M9.77 16.37a20.46 20.46 0 0 0 .23 3.12H6.34a20.63 20.63 0 0 0 .19-3.12V3.26H3.29A23.77 23.77 0 0 0 0 3.43V.22a24.31 24.31 0 0 0 3.26.16h9.51A25.75 25.75 0 0 0 16.3.22v3.21a25.2 25.2 0 0 0-3.53-.17h-3zM35.28 2.4A10.32 10.32 0 0 1 38 9.89c0 6.07-3.53 10-9 10s-9-3.91-9-10a10.26 10.26 0 0 1 2.78-7.49A8.33 8.33 0 0 1 29 0a8.41 8.41 0 0 1 6.28 2.4zm-.67 7.49a7.75 7.75 0 0 0-1.89-5.59A5.19 5.19 0 0 0 29 2.83c-3.46 0-5.64 2.74-5.64 7.08a8 8 0 0 0 1.94 5.67A5.2 5.2 0 0 0 29 17c3.48 0 5.61-2.7 5.61-7.11zm8.85 9.6a18.77 18.77 0 0 0 .19-3.1v-13a20.9 20.9 0 0 0-.19-3.1c1 0 1.78.07 3 .07h5a6.83 6.83 0 0 1 5.11 1.71 5.63 5.63 0 0 1 1.49 4.13 6.13 6.13 0 0 1-1.61 4.41 6.79 6.79 0 0 1-5.11 1.73h-4.52v4a19.79 19.79 0 0 0 .18 3.15zm7.95-9.89c2.2 0 3.4-1.18 3.4-3.29A3.21 3.21 0 0 0 54 4a3.26 3.26 0 0 0-2.61-.87h-4.57V9.6z" id="SVG"/></g></svg>