<svg xmlns="http://www.w3.org/2000/svg" viewBox="0 0 148.87 22.51"><defs><style>.cls-1{fill:#fff}</style></defs><title>i-li4</title><g id="Layer_2" data-name="Layer 2"><path class="cls-1" d="M14.81 9.58a40 40 0 0 1-.67 6.79 13.9 13.9 0 0 1-2.62 6.14 9.66 9.66 0 0 0-1.89-2.16H2.62v1.63H0a23.56 23.56 0 0 0 .14-2.76V3.67A21.8 21.8 0 0 0 0 1h2.76a10.19 10.19 0 0 0-.14 2v11.11a14.39 14.39 0 0 0 2.9-4.53h-.79a10.7 10.7 0 0 0-1.61.09V7.18a12.22 12.22 0 0 0 1.66.09h1.51V2.21a12.91 12.91 0 0 0-.1-1.92h2.48a9 9 0 0 0-.13 1.94v5H10a8.58 8.58 0 0 0 1.58-.09v2.53a12.36 12.36 0 0 0-1.78-.09H9a12.8 12.8 0 0 0 2.9 3.64 9.38 9.38 0 0 0-1.13 2.12A13.85 13.85 0 0 1 8.45 12c.05.58.09 1.32.09 1.68v2.14a10.24 10.24 0 0 0 .1 1.63H6.19a8.61 8.61 0 0 0 .12-1.68V13.9a7.25 7.25 0 0 1 .05-1v-.79a12.83 12.83 0 0 1-2.5 4.19 9.84 9.84 0 0 0-1.24-1.59V18h5.23a23.87 23.87 0 0 0 2.49-.1v1.44c1.59-2.59 2.07-5.74 2.07-13.82a26.87 26.87 0 0 0-.12-3.32 19.53 19.53 0 0 0 5.06-1.1A9.15 9.15 0 0 0 19.63 0l1.9 2.35a.45.45 0 0 1-.17 0l-.74.26a27.2 27.2 0 0 1-5.79 1.56V7.1h4.83a12.58 12.58 0 0 0 2.11-.1v2.7a10.23 10.23 0 0 0-1.92-.12h-.24v10a22.74 22.74 0 0 0 .14 2.74H17a22.5 22.5 0 0 0 .14-2.74v-10zm-10.2-8.4A32.81 32.81 0 0 1 6 5.9l-1.8.77A19.88 19.88 0 0 0 2.74 2zm7.25.82a22.51 22.51 0 0 1-1.54 4.63l-1.61-.82a20 20 0 0 0 1.23-4.63zm17.82 10.58a9 9 0 0 0-1.44.09V11l-.76.36a6.33 6.33 0 0 0-1.11-2.09c1.85-.53 2.67-1.1 3-2.16h-.79a12.85 12.85 0 0 0-1.8.1V4.9a13 13 0 0 0 1.85.1h2.85V3.84h-1.94a16.21 16.21 0 0 0-1.7.07V1.7a10.53 10.53 0 0 0 1.84.12h1.8v-.36a5.9 5.9 0 0 0-.12-1.29h2.57a5.89 5.89 0 0 0-.12 1.27v.38h1.63a8.69 8.69 0 0 0 2-.12v2.21a16.18 16.18 0 0 0-1.68-.07h-1.9V5h2.31a17.3 17.3 0 0 0 1.8-.07v2.22a16 16 0 0 0-1.76-.07h-.57v1c0 .24.07.29.43.29.62 0 .67-.07.74-1.06a6 6 0 0 0 1.76.51C38.28 9.67 37.89 10 35.9 10c-1.46 0-1.94-.16-2.21-.79v1.39h1.92a10.61 10.61 0 0 0 1.39-.09v2.14a11.64 11.64 0 0 0-1.49-.07h-1.9v1.25c1.18-.15 1.85-.25 3.65-.51v1.44a7.58 7.58 0 0 0 2.47-3.48c-.59-.67-.81-.91-1.65-1.75l1.44-1.9.93 1a15 15 0 0 0 .2-2.43h-.53a8.37 8.37 0 0 0-1.59.12v-2.6a10 10 0 0 0 1.59.1h.57V2.45a11.81 11.81 0 0 0-.11-2.16h2.69a15.38 15.38 0 0 0-.14 2c0 .62 0 .91-.05 1.54h1.39a13.72 13.72 0 0 0 2-.12c-.05.48-.1 1.29-.1 2.13a58.7 58.7 0 0 0 .41 6.41 3 3 0 0 0 .41 1.34c.19 0 .36-1.34.43-3.36a6.21 6.21 0 0 0 1.73 1c-.34 3.74-.94 5.18-2.19 5.18-.91 0-1.68-.84-2.18-2.45a26.62 26.62 0 0 1-.87-7.75H43a22.61 22.61 0 0 1-.6 4.49 22.48 22.48 0 0 1 1.94 2.57l-1.54 2.11c-.67-1.06-.93-1.46-1.36-2.06a10.66 10.66 0 0 1-3.1 4 9.71 9.71 0 0 0-1.54-1.87c-2.66.48-2.66.48-5.52.84-2.68.36-3.43.46-3.93.58l-.46-2.55h.7c.72 0 2.11-.09 3.91-.26v-1.48zm-2.9 8.13a10.15 10.15 0 0 0 3.14-3.88l2.21 1.1A14.1 14.1 0 0 1 29 22.39zm4.68-10.29a7.18 7.18 0 0 0-.1-1.49h2.28V7.08h-2A5.26 5.26 0 0 1 29 10.56a6.87 6.87 0 0 0 .7 0h1.75zm2.42 11.81a20.8 20.8 0 0 0-.33-4.52l2.4-.24A22.46 22.46 0 0 1 36.5 22zm5.69 0a17.14 17.14 0 0 0-1.22-4.44l2.37-.51a19 19 0 0 1 1.42 4.35zm6.65.07a21.16 21.16 0 0 0-3.07-4.63l2.14-1A25.73 25.73 0 0 1 48.65 21zM65 11.28a2.86 2.86 0 1 1-2.86-2.86A2.86 2.86 0 0 1 65 11.28zm27.88-5.09l-1.54 1a22.07 22.07 0 0 1-3.74 2.19h5.23c.84 0 1.44 0 2.25-.08a12.67 12.67 0 0 0-.09 2V20a14.55 14.55 0 0 0 .14 2.47H92.4v-1H82.22v1h-2.74a17.48 17.48 0 0 0 .15-2.47v-7.78c-1.13.28-2 .5-3.36.74a11.43 11.43 0 0 0-1.13-2.47A31.17 31.17 0 0 0 82.51 9a22.58 22.58 0 0 0 7.1-3.41 6.16 6.16 0 0 0 1.18-1.1zm-10-4.05a18.14 18.14 0 0 1-2.71 3.57 16.32 16.32 0 0 1-2.81 2.43 12 12 0 0 0-1.8-2 13.6 13.6 0 0 0 3.07-2.45 10.55 10.55 0 0 0 2-2.74zM88.13.05A7.16 7.16 0 0 0 88 1.68v3.38a2 2 0 0 1-1.24 2 5.59 5.59 0 0 1-2.26.31c-.41 0-.94 0-1.78-.07A6.13 6.13 0 0 0 82 5.06a15.15 15.15 0 0 0 2.37.2c.92 0 1.06-.08 1.06-.48V1.73a11.28 11.28 0 0 0-.09-1.68zm-5.91 11.42v1.25H92.4V11.3h-9.65zm0 4.56H92.4v-1.41H82.22zm0 3.41H92.4v-1.51H82.22zM92.18.89a15.87 15.87 0 0 0 2.45 2.42 15.71 15.71 0 0 0 3.22 2.09 12.67 12.67 0 0 0-1.73 2 19.14 19.14 0 0 1-3.32-2.46 18.4 18.4 0 0 1-2.61-2.8zm21.5 15.31h5.81a16.57 16.57 0 0 0 3.12-.17v3a23.76 23.76 0 0 0-3.07-.12h-14.4a23.85 23.85 0 0 0-3.07.12V16a16.57 16.57 0 0 0 3.12.17h5.42V6.34h-3.67a23.85 23.85 0 0 0-3.07.12v-3a17.91 17.91 0 0 0 3.12.16h10.68a17.91 17.91 0 0 0 3.12-.16v3a23.57 23.57 0 0 0-3.07-.12h-4zm22.62 5.74a15.48 15.48 0 0 0 .14-2.14v-6.26a3.85 3.85 0 0 1-.72.45 37.81 37.81 0 0 1-6.72 2.69 10 10 0 0 0-1.41-2.62 29.39 29.39 0 0 0 6.67-2.23 25.72 25.72 0 0 0 7.44-5.09h-.5c-.15 0-.15 0-8.79.08a17.11 17.11 0 0 0-2.54.12V4a11.8 11.8 0 0 0 2.56.22h4v-2a9.22 9.22 0 0 0-.12-1.73h3.22a7.54 7.54 0 0 0-.12 1.68v2h4.06a5.2 5.2 0 0 0 1.59-.17l1.39 1.63a5.85 5.85 0 0 0-1.06 1 30.88 30.88 0 0 1-4.89 4.49 39 39 0 0 1 8.37 3.77l-1.58 2.52a43 43 0 0 0-7.29-3.8c-.31-.15-.36-.15-.6-.27v6.46a10.8 10.8 0 0 0 .12 2.14z" id="SVG"/></g></svg>