<svg xmlns="http://www.w3.org/2000/svg" viewBox="0 0 116.66 20.93"><defs><style>.cls-1{fill:#fff}</style></defs><title>i-li2</title><g id="Layer_2" data-name="Layer 2"><path class="cls-1" d="M19.83 1.92a10.22 10.22 0 0 0-.89.84 42.09 42.09 0 0 1-5.67 4.94V18a19.18 19.18 0 0 0 .12 2.67H10a13.41 13.41 0 0 0 .18-2.67V9.58a38.71 38.71 0 0 1-8.57 3.88A9.23 9.23 0 0 0 0 10.73a35.12 35.12 0 0 0 12.6-6.24A19.25 19.25 0 0 0 17.07 0zm5.96 14.69a22.86 22.86 0 0 0 7.1-1.78A16 16 0 0 0 40 9a19.68 19.68 0 0 0 2.45-4.8A10.18 10.18 0 0 0 45 6.5c-2 4.4-4.32 7.23-7.61 9.41a25.84 25.84 0 0 1-9.14 3.6 9.67 9.67 0 0 0-1.59.41zm2-14.91A34.07 34.07 0 0 1 34 6.34L32 9a25.32 25.32 0 0 0-6.13-4.87zM69 3.31a3.85 3.85 0 0 0-.41 1.08c-1.2 4.59-2.61 7.47-4.92 10.06a23.37 23.37 0 0 1-8.93 6.12 8.8 8.8 0 0 0-2.11-2.86 19.34 19.34 0 0 0 5.26-2.45A16.59 16.59 0 0 0 65.12 4.8H53.7a19.29 19.29 0 0 0-3 .14V1.82a16.34 16.34 0 0 0 3.04.18h11a8.86 8.86 0 0 0 2.57-.24zm21.26 2.43a4.3 4.3 0 0 0-.82.79A32.56 32.56 0 0 1 85 10.46v8.17a13.7 13.7 0 0 0 .12 2.3h-3.1a14 14 0 0 0 .12-2.28v-6.46a34.17 34.17 0 0 1-6.79 3.05 9.62 9.62 0 0 0-1.49-2.49 26 26 0 0 0 5.69-2.17 27.33 27.33 0 0 0 6.82-4.87A8.83 8.83 0 0 0 87.81 4zM102.31.89a47.13 47.13 0 0 0-.24 5.37c-.17 4.68-.7 7.4-1.95 9.87a15 15 0 0 1-3.31 4.44 8.46 8.46 0 0 0-2.42-2.33 10 10 0 0 0 2.47-2.76c1.73-2.76 2.28-5.86 2.28-12.58A11.55 11.55 0 0 0 99 .72zm6.36-.29a12.59 12.59 0 0 0-.17 2.28l-.12 13.66a9.65 9.65 0 0 0 3.67-2.74 11.84 11.84 0 0 0 2.36-4.39 10.26 10.26 0 0 0 2.25 2.26 14.86 14.86 0 0 1-3.82 5.59 15.93 15.93 0 0 1-5.11 2.88c-.52.19-.72.29-1 .43l-1.54-1.63a10.47 10.47 0 0 0 .22-2.55l.12-13.53v-.72a9.52 9.52 0 0 0-.1-1.59z" id="SVG"/></g></svg>