<svg xmlns="http://www.w3.org/2000/svg" viewBox="0 0 37.64 15.52"><defs><style>.cls-1{fill:#231815}</style></defs><title>i-menu2</title><g id="Layer_2" data-name="Layer 2"><path class="cls-1" d="M0 .78h8.72v1.51H5c-.22.68-.45 1.38-.67 2H8.4V14c0 .59-.11 1-.46 1.17a3.27 3.27 0 0 1-1.6.25A4.91 4.91 0 0 0 6 14.26H5V5.63H4v8.63H2.87V5.63H1.73v9.82H.44V4.27h2.4c.19-.6.39-1.31.54-2H0zm7.09 4.85h-1v8.55h.81c.14 0 .19 0 .19-.2zm8.34-.51h-1.27v8.56c0 .85-.2 1.28-.7 1.52a5.8 5.8 0 0 1-2.5.3 6.08 6.08 0 0 0-.52-1.5h1.85c.24 0 .36-.08.36-.36V5.12H8.87V3.64h3.78V0h1.51v3.64h1.27zm-4.91 5.72a14.15 14.15 0 0 0-1.46-3.79l1.29-.44a13.45 13.45 0 0 1 1.55 3.71zm25.82 1.47A15.86 15.86 0 0 1 34 13.53a13.1 13.1 0 0 0 3.69.78 4 4 0 0 0-.82 1.21 10.71 10.71 0 0 1-5.24-1.87l.06.93a304 304 0 0 1-6.6.84l-.27-1.24 1.63-.18v-2.25h-1.72a6.65 6.65 0 0 1-1.85 3.62 4.85 4.85 0 0 0-1.1-1 6.36 6.36 0 0 0 1.71-4.88V7.28h13.23v1.07H24.94v1.19c0 .35 0 .73-.05 1.12h12.58v1.09h-2.23zM23.9 5.39h-1.41V2.48h6.43V1.7h-5.39V.53H35.9V1.7h-5.45v.78H37v2.91h-1.47V3.47h-5.08v3.47h-1.53V3.47h-5zm.36.34h4v.87h-4zm3.94-1.55v.87h-3.58v-.87zM25.72 10V9h10v1zm2.35 3.86l3.28-.37a6.24 6.24 0 0 1-1.45-1.7h-1.83zm6.74-9.64v.87h-3.65v-.91zm-3.65 1.51h4.06v.87h-4.06zm.17 6A5.25 5.25 0 0 0 32.86 13a20 20 0 0 0 2.26-1.29z" id="SVG"/></g></svg>