<svg xmlns="http://www.w3.org/2000/svg" viewBox="0 0 113.22 15.71"><defs><style>.cls-1{fill:#231815}</style></defs><title>i-menu3</title><g id="Layer_2" data-name="Layer 2"><path class="cls-1" d="M15.06 7.09h-1.72v8.51h-1.51V7.09H9.71v.2c0 2.52-.31 6.05-2.54 8.42A3.41 3.41 0 0 0 6 14.62a7.86 7.86 0 0 0 .65-.8H1.38v1.26H0V.61h1.38v11.85h6v.17a13.26 13.26 0 0 0 .87-5.35V1.39l1 .33A21.56 21.56 0 0 0 13.6.25l1.27 1.16a26.29 26.29 0 0 1-5.16 1.51v2.71h5.35zM4 8.46a10 10 0 0 1-1.95 2.83A6.69 6.69 0 0 0 1.43 10a11.28 11.28 0 0 0 2.45-3.68H1.75V5H4V.17h1.34V5h2.22v1.32H5.34v.5c.51.4 1.88 1.7 2.22 2l-.85 1.12c-.27-.39-.85-1.1-1.37-1.7v3.85H4zm-1.44-4a11.33 11.33 0 0 0-.68-2.92l1-.32a10.48 10.48 0 0 1 .74 2.88zm5.12-2.95c-.39 1-.88 2.21-1.26 3l-.91-.31a20.92 20.92 0 0 0 .93-3zM24.9 4.44c-.22 1.41-.85 2.24-2.73 2.72a2.74 2.74 0 0 0-.67-1c1.48-.32 2-.83 2.18-1.76h-1.85V3.3h3V2.21h-2.39V1.1h2.38v-1h1.41v1h2.4v1.11h-2.4V3.3h2.92v1.14h-2v.91c0 .28 0 .31.26.31H28c.22 0 .27-.08.33-.82a2.92 2.92 0 0 0 1 .43c-.1 1.1-.42 1.41-1.14 1.41h-.93c-1 0-1.23-.29-1.23-1.31v-.93zM21.59 15a8.26 8.26 0 0 0 2-2.94l1.52.39a9.07 9.07 0 0 1-2.06 3.16zm14.26-4.84a.35.35 0 0 0 .26-.09 1.56 1.56 0 0 0 .12-.53c0-.34.05-1.05.05-2a2.81 2.81 0 0 0 1 .55 21.08 21.08 0 0 1-.14 2.29 1.35 1.35 0 0 1-.44.82 1.57 1.57 0 0 1-.81.2h-.7a1.37 1.37 0 0 1-.95-.34c-.24-.25-.33-.56-.33-1.73V3.72h-1.34a27.47 27.47 0 0 1-.27 2.76 12.14 12.14 0 0 1 1.56 1.29l-.69 1.32A16.06 16.06 0 0 0 32 8a7.15 7.15 0 0 1-2.36 3.75 4.66 4.66 0 0 0-.8-.9l-7 .72-.12-1.31 3.1-.26V8.7h-2.6V7.55h2.6V6.44h1.41v1.11h2.5V8.7h-2.5v1.18c.95-.09 1.92-.17 2.89-.28v.65a6.52 6.52 0 0 0 1.61-3.16c-.51-.36-1-.72-1.48-1l.65-1.15c.36.2.71.42 1.09.68.08-.6.13-1.22.17-1.89h-1.65V2.31h1.7V.02h1.42v2.29h2.72v7.06a2.28 2.28 0 0 0 0 .73c0 .05.08.07.17.07zM28 12.41a16.31 16.31 0 0 1 .39 2.87l-1.58.19a18 18 0 0 0-.3-2.91zm3.4-.14a13.94 13.94 0 0 1 1 2.88l-1.56.28a15.13 15.13 0 0 0-.89-2.9zm3.45-.27A19.33 19.33 0 0 1 37 15.09l-1.59.55a21.4 21.4 0 0 0-2-3.15zm10.56-6.15a2 2 0 1 1-2 2 2 2 0 0 1 2-2zm20.87-2.08A12.61 12.61 0 0 1 61.3 7h5.87v8.56h-1.6V15h-6.9v.6h-1.52V8.23c-.81.18-1.65.34-2.46.47a8.52 8.52 0 0 0-1-1.39c4.55-.55 9-1.8 11.1-4.2zm-7.22-2.44a13.82 13.82 0 0 1-3.88 3.82A11.22 11.22 0 0 0 53.94 4a10.84 10.84 0 0 0 3.6-3.17zm3.28 2.48c0 .76-.19 1.14-.8 1.36a8.87 8.87 0 0 1-2.69.22A6.12 6.12 0 0 0 58.22 4h2.16c.25 0 .38-.06.38-.27V0h1.58zm3.23 4.38h-6.9v1.12h6.9zm-6.9 3.39h6.9v-1.16h-6.9zm6.9 2.26V12.7h-6.9v1.14zm0-13.13a20.28 20.28 0 0 1 3.73 3.18l-1.3.89a20.35 20.35 0 0 0-3.66-3.28zm23.75 11.21a12.86 12.86 0 0 0 1.48-.12v1.93c-.46-.05-1.13-.06-1.48-.06H78.1c-.5 0-1 0-1.58.06V11.8a10.61 10.61 0 0 0 1.58.12h4.57V4.49h-3.59a12.88 12.88 0 0 0-1.49.07V2.7c.44 0 1.1.09 1.49.09h9.3a14.49 14.49 0 0 0 1.53-.09v1.86a12.76 12.76 0 0 0-1.53-.07h-3.86v7.43zm17.37 1.19c0 .62 0 1.47.09 2h-1.94a17.21 17.21 0 0 0 .12-2V9.74A28 28 0 0 1 99.45 12l-1-1.58a20.36 20.36 0 0 0 6.92-2.87 12.8 12.8 0 0 0 3.2-2.86h-6.67c-.61 0-1.61 0-2.14.07V3c.58.07 1.53.11 2.11.11H105v-1a10.07 10.07 0 0 0-.1-1.53h1.94a13.87 13.87 0 0 0-.1 1.53v1h2.48a4.3 4.3 0 0 0 1.2-.14L111.54 4c-.36.38-.8.83-1.11 1.19a22.91 22.91 0 0 1-3.74 3.45zm2.43-4.85a41 41 0 0 1 4.1 2.45l-1.12 1.48a29.21 29.21 0 0 0-4.1-2.65z" id="SVG"/></g></svg>