<svg xmlns="http://www.w3.org/2000/svg" viewBox="0 0 444 76.46"><defs><style>.cls-1{fill:#fff}.cls-2{fill:#73c6c7}</style></defs><title>i-talk1</title><g id="Layer_2" data-name="Layer 2"><g id="SVG"><path class="cls-1" d="M222 75c-.38 0-.83-.39-1.2-1l-6-10.33a11.08 11.08 0 0 0-8.8-5.08H5A3.5 3.5 0 0 1 1.5 55V5A3.5 3.5 0 0 1 5 1.5h434a3.5 3.5 0 0 1 3.5 3.5v50a3.5 3.5 0 0 1-3.5 3.5H238a11.08 11.08 0 0 0-8.8 5.08l-6 10.33c-.37.66-.82 1.09-1.2 1.09z"/><path class="cls-2" d="M439 3a2 2 0 0 1 2 2v50a2 2 0 0 1-2 2H238a12.54 12.54 0 0 0-10.1 5.83L222 73l-5.86-10.16A12.54 12.54 0 0 0 206 57H5a2 2 0 0 1-2-2V5a2 2 0 0 1 2-2h434m0-3H5a5 5 0 0 0-5 5v50a5 5 0 0 0 5 5h201a9.62 9.62 0 0 1 7.5 4.33l6 10.33a2.64 2.64 0 0 0 5 0l6-10.33A9.62 9.62 0 0 1 238 60h201a5 5 0 0 0 5-5V5a5 5 0 0 0-5-5z"/><path class="cls-2" d="M40.48 31.1a9.39 9.39 0 0 0-.39 2.3c0 1.45 1.38 2.51 4.67 2.51a31.86 31.86 0 0 0 8-.9v3.2a34.87 34.87 0 0 1-7.91.78C39.65 39 37 37.24 37 34.12a14.83 14.83 0 0 1 .46-3.29zm-1.93-9.65a61 61 0 0 0 6.21.27c2.25 0 4.85-.14 6.6-.32v3.06c-1.59.11-4.42.28-6.58.28-2.39 0-4.37-.12-6.23-.26zm32.91.43c-1.13 1.64-2.85 4.81-4 6.81a5.23 5.23 0 0 1 2.6-.69c1.7 0 2.74 1.1 2.83 3 0 1 0 2.85.11 3.79A1.29 1.29 0 0 0 74.47 36c2 0 3.2-2.56 3.84-5.39l2.46 2c-1.17 3.93-3.29 6.5-6.8 6.5-2.49 0-3.68-1.51-3.77-3.17-.1-1.22-.07-3.08-.14-4a1.23 1.23 0 0 0-1.34-1.27c-1.56 0-2.82 1.57-3.63 3.43a42.65 42.65 0 0 0-1.72 5.06l-3.22-1.08c1.68-4.55 6.48-14.12 7.68-16.28.3-.62.71-1.36 1.12-2.32l3.25 1.31c-.2.31-.49.73-.74 1.09zm25.83 2.83a31.51 31.51 0 0 1-4 .78 41.74 41.74 0 0 1-4.87 9.75l-2.78-1.4a34.65 34.65 0 0 0 4.64-8.05h-1.17c-.94 0-1.86 0-2.85-.07l-.21-2.67a30.42 30.42 0 0 0 3 .16c.66 0 1.35 0 2-.07a19 19 0 0 0 .62-3.82l3.15.33c-.18.73-.46 1.88-.78 3.1a24.32 24.32 0 0 0 3.06-.71zm3 2.05c-.07 1 0 1.91 0 2.92 0 .64.07 1.75.14 2.87a15.37 15.37 0 0 1 4.71 2.92l-1.52 2.44a20.54 20.54 0 0 0-3.08-2.41v.2c0 2.12-1.15 3.77-4.39 3.77-2.83 0-5.06-1.26-5.06-3.77 0-2.23 1.86-4 5-4a15.19 15.19 0 0 1 1.54.09c-.07-1.7-.19-3.7-.26-5.08zm-2.52 7.54a7.92 7.92 0 0 0-1.84-.23c-1.31 0-2.16.55-2.16 1.36s.71 1.42 2 1.42c1.54 0 2-.89 2-2.11zm6.42-6.3a29.49 29.49 0 0 0-5.48-3.24l1.48-2.26a41.68 41.68 0 0 1 5.61 3.08zm12.01-7.43a19.42 19.42 0 0 0-.56 2 56.47 56.47 0 0 0-1.1 8.34 10.73 10.73 0 0 0 .09 1.47c.33-.8.69-1.56 1-2.29l1.43 1.1a55.85 55.85 0 0 0-1.63 5.59 6.63 6.63 0 0 0-.14 1v1l-2.63.18a29.08 29.08 0 0 1-.89-7.45 63.55 63.55 0 0 1 .94-9 17.52 17.52 0 0 0 .29-2.21zm5.33 11.25a7.67 7.67 0 0 0-.28 1.91c0 1 .88 1.61 3.18 1.61a26.46 26.46 0 0 0 5.7-.6l.07 3.08a32.17 32.17 0 0 1-5.89.46c-3.93 0-5.79-1.43-5.79-3.75a14.1 14.1 0 0 1 .39-3zm8-9.75V25a63.86 63.86 0 0 1-9.78 0v-2.94a46.49 46.49 0 0 0 9.74.01zm26.71-1.52v2.32h-20.1v-2.32h8.51v-1.93h2.78v1.93zm-.74 16.67c0 1.27-.25 2-1.15 2.42a9.25 9.25 0 0 1-3.72.43 8 8 0 0 0-.53-1.84h-5.94v1h-2.39v-6.15h8.79v4.46a16 16 0 0 0 1.74 0c.35 0 .44-.09.44-.36v-5.13h-13v8.07h-2.67V29.77h18.43zm-3-13.47v5.06h-12.59v-5.06zm-2.78 1.81h-7.17V27h7.17zm-1.54 9.34h-4v1.49h4zm13.47-5.13h8.76V40h-2.74v-1h-3.43v1.15h-2.59zm2.59 2.62v4h3.43v-4zm14-4.53h-13.42v-8.32h13.47zm-2.78-5.7h-8v3.1h8zm5.89 7.61V40h-2.76v-1H175v1.15h-2.62V29.77zm-2.76 6.58v-4H175v4zm22.08-.09a69.31 69.31 0 0 1 6.56 2.74l-3.18 1.21a46 46 0 0 0-6-2.71l2.06-1.19h-6.71l2.09.92a28.81 28.81 0 0 1-7.17 3 25.6 25.6 0 0 0-2-2 27.5 27.5 0 0 0 6.33-1.93h-3.4v-9.43h7.63a6.52 6.52 0 0 0-1.59-1.67 5.63 5.63 0 0 0 1.34-1.2h-2.07v2.4h-2.44V24h-2a7.67 7.67 0 0 1-2.21 3.82 7.87 7.87 0 0 0-1.8-1.7 6.24 6.24 0 0 0 2-4.92v-2.05l1.75.43a27.26 27.26 0 0 0 4.78-.92l1.68 1.61a29.14 29.14 0 0 1-5.84 1v.12a5.55 5.55 0 0 1 0 .69h6.33v1.86a4.19 4.19 0 0 0 .8-2.67v-2.1l1.84.44a35 35 0 0 0 5.15-.95l1.66 1.64a37 37 0 0 1-6.28 1v.78h7.2v2h-2.9v2.42h-2.44V24h-2.32a6 6 0 0 1-2.25 2.83h7.49v9.39zm-8.78-6.77h10v-1h-10zm0 2.56h10v-1h-10zm0 2.55h10v-1h-10zm31.9-9.89a31.51 31.51 0 0 1-4 .78 41.74 41.74 0 0 1-4.79 9.75l-2.78-1.4a34.65 34.65 0 0 0 4.64-8.05h-1.17c-.94 0-1.86 0-2.85-.07l-.21-2.67a30.42 30.42 0 0 0 3 .16c.66 0 1.35 0 2-.07a19 19 0 0 0 .62-3.82l3.15.33c-.18.73-.46 1.88-.78 3.1a24.32 24.32 0 0 0 3.06-.71zm3 2.05c-.07 1 0 1.91 0 2.92 0 .64.07 1.75.14 2.87a15.37 15.37 0 0 1 4.71 2.92l-1.52 2.44A20.54 20.54 0 0 0 227 35.5v.2c0 2.12-1.15 3.77-4.39 3.77-2.83 0-5.06-1.26-5.06-3.77 0-2.23 1.86-4 5-4a15.19 15.19 0 0 1 1.54.09c-.07-1.7-.19-3.7-.26-5.08zm-2.51 7.54a7.92 7.92 0 0 0-1.84-.23c-1.31 0-2.16.55-2.16 1.36s.71 1.42 2 1.42c1.54 0 2-.89 2-2.11zm6.41-6.3a29.49 29.49 0 0 0-5.48-3.24l1.48-2.26a41.68 41.68 0 0 1 5.61 3.08zm16.03 8.37a20.17 20.17 0 0 0 2.12-.37c2.92-.69 5.17-2.78 5.17-6.09 0-3.15-1.7-5.5-4.76-6a47.92 47.92 0 0 1-1.36 6.19c-1.35 4.6-3.33 7.4-5.81 7.4s-4.65-2.78-4.65-6.62c0-5.24 4.58-9.75 10.49-9.75 5.63 0 9.19 3.93 9.19 8.9 0 4.78-2.94 8.19-8.69 9.06zm-1.72-6.9a36.85 36.85 0 0 0 1.17-5.47 7.15 7.15 0 0 0-5.77 6.6c0 2.3.92 3.43 1.77 3.43s1.83-1.48 2.83-4.56zm23-8.9a19.42 19.42 0 0 0-.56 2 56.47 56.47 0 0 0-1.1 8.34 10.73 10.73 0 0 0 .09 1.47c.32-.8.69-1.56 1-2.29l1.43 1.1a55.85 55.85 0 0 0-1.63 5.59 6.63 6.63 0 0 0-.14 1v1l-2.63.18a29.08 29.08 0 0 1-.89-7.45 63.55 63.55 0 0 1 .94-9 17.52 17.52 0 0 0 .23-2.23zm5.33 11.25a7.63 7.63 0 0 0-.27 1.91c0 1 .87 1.61 3.17 1.61a26.46 26.46 0 0 0 5.7-.6l.07 3.08a32.17 32.17 0 0 1-5.89.46c-3.93 0-5.79-1.43-5.79-3.75a14.1 14.1 0 0 1 .39-3zm8-9.75V25a63.86 63.86 0 0 1-9.78 0v-2.94a46.49 46.49 0 0 0 9.74.01zM308 20.55v2.32h-20.1v-2.32h8.51v-1.93h2.78v1.93zm-.74 16.67c0 1.27-.25 2-1.15 2.42a9.25 9.25 0 0 1-3.72.43 8 8 0 0 0-.53-1.84H296v1h-2.39v-6.15h8.79v4.46a16 16 0 0 0 1.74 0c.35 0 .44-.09.44-.36v-5.13h-13v8.07h-2.67V29.77h18.39zm-3-13.47v5.06h-12.55v-5.06zm-2.78 1.81h-7.17V27h7.17zm-1.54 9.34h-4v1.49h4zm28.68-13.29c-.71.53-1.47 1.12-2 1.54-1.47 1.19-4.48 3.52-6 4.83-1.22 1-1.2 1.28.05 2.34 1.7 1.45 6.09 4.92 8.34 7.11l-2.64 2.44c-.65-.72-1.36-1.43-2-2.12-1.24-1.31-4.72-4.28-6.81-6.05-2.25-1.91-2.07-3.17.21-5.06 1.77-1.44 4.9-4 6.44-5.49a16.12 16.12 0 0 0 1.79-1.91zm21.67 3.1a31.51 31.51 0 0 1-4 .78 41.74 41.74 0 0 1-4.87 9.75l-2.78-1.4a34.65 34.65 0 0 0 4.64-8.05h-1.17c-.94 0-1.86 0-2.85-.07l-.21-2.67a30.42 30.42 0 0 0 3 .16c.66 0 1.35 0 2-.07a19 19 0 0 0 .62-3.82l3.15.33c-.18.73-.46 1.88-.78 3.1a24.32 24.32 0 0 0 3.06-.71zm3 2.05c-.07 1 0 1.91 0 2.92 0 .64.07 1.75.14 2.87a15.37 15.37 0 0 1 4.71 2.92l-1.52 2.44a20.54 20.54 0 0 0-3.08-2.41v.2c0 2.12-1.15 3.77-4.39 3.77-2.83 0-5.06-1.26-5.06-3.77 0-2.23 1.86-4 5-4a15.19 15.19 0 0 1 1.54.09c-.07-1.7-.19-3.7-.26-5.08zm-2.51 7.54a7.92 7.92 0 0 0-1.84-.23c-1.31 0-2.16.55-2.16 1.36s.71 1.42 2 1.42c1.54 0 2-.89 2-2.11zm6.41-6.3a29.49 29.49 0 0 0-5.48-3.24l1.48-2.26a41.68 41.68 0 0 1 5.61 3.08zm10.95-3.5c0 1.48 0 3.2.14 4.83.32 3.29 1 5.52 2.43 5.52 1.08 0 2-2.66 2.42-4.46l2.3 2.76c-1.52 4-2.95 5.36-4.78 5.36-2.49 0-4.67-2.25-5.32-8.37-.2-2.09-.25-4.74-.25-6.14a13 13 0 0 0-.16-2.3l3.5.05a16.86 16.86 0 0 0-.28 2.75zM384 33.86L381 35c-.35-3.65-1.57-9-4.05-11.82l2.9-1c2.15 2.69 3.86 8.19 4.15 11.68zm12.8 2.21a2.39 2.39 0 0 1 4.78 0 2.39 2.39 0 0 1-4.78 0zm.39-11.73l-.1-3.42h4.21l-.11 3.42-.81 7.87H398z"/></g></g></svg>