<svg xmlns="http://www.w3.org/2000/svg" viewBox="0 0 43.95 28.83"><defs><style>.cls-1{fill:none}.cls-2{clip-path:url(#clip-path)}</style><clipPath id="clip-path"><path class="cls-1" d="M0 0h43.95v28.83H0z"/></clipPath></defs><title>i-telimg1.svg</title><g id="Layer_2" data-name="Layer 2"><g id="SVG"><g class="cls-2" id="Artwork_3" data-name="Artwork 3"><g class="cls-2"><path d="M0 0v4.5a25.9 25.9 0 0 1 9.45 1.76c.52.21 1 .43 1.52.66a24.72 24.72 0 0 1 3.57-1.37A26.41 26.41 0 0 1 22 4.5a26 26 0 0 1 9.5 1.76c.52.21 1 .43 1.51.66a24.86 24.86 0 0 1 3.58-1.37A26.38 26.38 0 0 1 44 4.5V0zm27.52 17.05a5.41 5.41 0 0 0 .93 3.05 5.52 5.52 0 0 0 2.4 2A5.46 5.46 0 0 0 38 19.17a5.32 5.32 0 0 0 .43-2.12 4.63 4.63 0 0 0-.35-1.72A7.78 7.78 0 0 0 37 13.48a13.82 13.82 0 0 0-4-3.36 15.08 15.08 0 0 0-3.31 2.53 8.3 8.3 0 0 0-1.88 2.88 4.74 4.74 0 0 0-.27 1.52"/><path d="M38.33 10.69a11.11 11.11 0 0 1 2.51 3.9 7.37 7.37 0 0 1 .44 2.46A8.29 8.29 0 0 1 33 25.34a8.3 8.3 0 0 1-7.64-5.06 8.32 8.32 0 0 1-.66-3.23 7.88 7.88 0 0 1 1-3.64 12.33 12.33 0 0 1 2.5-3.23A19.12 19.12 0 0 1 30 8.71c-.44-.16-.88-.3-1.34-.44A23.74 23.74 0 0 0 14 8.71a16 16 0 0 1 2.3 2 10.84 10.84 0 0 1 2.51 3.9 7.13 7.13 0 0 1 .44 2.46 8.3 8.3 0 1 1-16.59 0 7.87 7.87 0 0 1 1-3.64 12.37 12.37 0 0 1 2.51-3.23 17.77 17.77 0 0 1 1.75-1.49c-.43-.16-.87-.3-1.33-.44A23.41 23.41 0 0 0 0 7.33v21.5h44V7.33a23 23 0 0 0-8 1.38 16.66 16.66 0 0 1 2.31 2"/><path d="M5.5 17.05a5.47 5.47 0 0 0 8.5 4.53 5.49 5.49 0 0 0 2-2.41 5.32 5.32 0 0 0 .43-2.12 4.63 4.63 0 0 0-.35-1.72A7.51 7.51 0 0 0 15 13.48a13.77 13.77 0 0 0-4-3.36 15.08 15.08 0 0 0-3.31 2.53 8.3 8.3 0 0 0-1.88 2.88 4.5 4.5 0 0 0-.28 1.52"/></g></g></g></g></svg>