<svg xmlns="http://www.w3.org/2000/svg" viewBox="0 0 63.71 25.05"><title>i-title2</title><path d="M0 1.11h14.17v3.07H8.31a31.9 31.9 0 0 1-.94 2.49h6.56v15.52c0 1.16-.16 1.86-.87 2.27a4.88 4.88 0 0 1-2.69.48 12.42 12.42 0 0 0-.62-2.19H8V9.42H6.72v13.33H4.64V9.42h-1.4v15.52H.65V6.67h3.83c.24-.79.49-1.62.68-2.49H0zm11.31 8.31H10v13.06h1c.22 0 .3-.08.3-.32zM25 8.5h-1.7v13c0 1.59-.35 2.37-1.27 2.91a9.25 9.25 0 0 1-4.18.62 13.67 13.67 0 0 0-1.08-3c1.26.05 2.48.05 2.88.05s.57-.13.57-.56V8.5h-5.7v-3h5.67V0h3.08v5.51H25zm-7.78 2.13a18.93 18.93 0 0 1 2.19 5.92l-2.75 1a20.79 20.79 0 0 0-2-6zm44.47 9.48a25.15 25.15 0 0 1-3.16 1.7 25.38 25.38 0 0 0 5.18.81 8.49 8.49 0 0 0-1.56 2.43c-3.78-.41-6.59-1.35-8.61-3.05l.08 1.7-10.15 1.24-.47-2.46c.75-.08 1.62-.16 2.56-.27v-3H43.2a10.76 10.76 0 0 1-3 5.61 10.63 10.63 0 0 0-2.24-2c2.48-2.27 2.78-5.48 2.78-7.85v-3.39h21.4v2H43.63v1.46a19.11 19.11 0 0 1-.11 2.08h19.92v2.08h-3.51zM41.93 8.69H39.1V3.94h10.17V3h-8.34V.76h19.9V3H52.4v.92h10.4v4.77h-3V5.83h-7.4v5.24h-3.13V5.83h-7.34zm.3.41h6.21v1.59h-6.21zm6.18-2.43v1.59h-5.59V6.67zm-3.78 9.58v-1.81h16v1.81zm4.18 5.61l4.08-.45a11.23 11.23 0 0 1-1.65-2.19h-2.43zm10.1-15.19v1.59h-5.64V6.67zM53.27 9.1h6.29v1.59h-6.29zm.83 10.12a7 7 0 0 0 2.16 1.7 30 30 0 0 0 2.68-1.7z" data-name="Layer 2"/></svg>