<svg xmlns="http://www.w3.org/2000/svg" viewBox="0 0 143.28 24.19"><title>i-title1</title><path d="M15.06 19.46A19.43 19.43 0 0 0 15.3 23H11a29.83 29.83 0 0 0 .19-3.54v-8.85a52.83 52.83 0 0 1-9.29 3.67L0 11a41.65 41.65 0 0 0 12.28-4.9 28.36 28.36 0 0 0 7-6.1l2.88 2.62a44.31 44.31 0 0 1-7.15 5.8zm26.44-3.72a25.68 25.68 0 0 0 9.82-10.5L53.43 9a28.64 28.64 0 0 1-10 10 29.24 29.24 0 0 1-10 3.81l-2.26-3.57a27.88 27.88 0 0 0 10.33-3.5zm0-8.74l-2.76 2.83A54.6 54.6 0 0 0 32 4l2.54-2.7A56.17 56.17 0 0 1 41.5 7zm40.22-3.17a10.92 10.92 0 0 0-.59 1.89c-.62 2.65-1.81 6.83-4 9.83A21.63 21.63 0 0 1 66.23 23l-2.94-3.24c5.34-1.24 8.39-3.59 10.58-6.32A17.06 17.06 0 0 0 77 5.83H64.45c-1.22 0-2.51 0-3.21.11V2.13c.8.08 2.34.22 3.23.22H77a9 9 0 0 0 2.13-.22zM109.4 7.4a33.72 33.72 0 0 1-6.08 4.88v9a15.2 15.2 0 0 0 .19 2.92h-4a28.72 28.72 0 0 0 .13-2.92v-6.95a49.54 49.54 0 0 1-7.61 3l-1.81-3.14a35.82 35.82 0 0 0 9.53-3.64 27 27 0 0 0 6.94-5.61zm8.81 13.41a12.67 12.67 0 0 0 4.58-6.45c.76-2.32.79-7.42.79-10.69a9.48 9.48 0 0 0-.25-2.46h4a18.54 18.54 0 0 0-.19 2.43c0 3.19-.08 8.89-.81 11.61A15.64 15.64 0 0 1 121.5 23zm12.49.41a10.17 10.17 0 0 0 .22-2V3.48a11.56 11.56 0 0 0-.22-2.32h4a13.27 13.27 0 0 0-.19 2.35v14.12a17.11 17.11 0 0 0 6.66-5.7l2.08 3a29.71 29.71 0 0 1-9.15 7.37 6.92 6.92 0 0 0-1.19.81z" data-name="Layer 2"/></svg>