<svg xmlns="http://www.w3.org/2000/svg" viewBox="0 0 45 41.5"><defs><style>.cls-1{fill:#fff}</style></defs><title>icon2-hover</title><g id="Layer_2" data-name="Layer 2"><g id="SVG"><path class="cls-1" d="M31.72 10.72l-8.07-6a1.58 1.58 0 0 0-1.83 0l-8 6a.66.66 0 0 0-.13.92.64.64 0 0 0 .91.13l8-6a.24.24 0 0 1 .27 0l8.07 6a.65.65 0 0 0 .91-.13.66.66 0 0 0-.13-.92z"/><path class="cls-1" d="M44.46 24.83h-9.07c-.5 0-.46-.42-.46-.42V12.85a.28.28 0 0 1 .32-.29h1.28a1 1 0 0 0 1-.63 1 1 0 0 0-.39-1.1l-2.48-1.92a.44.44 0 0 1-.14-.32V4.26A1.25 1.25 0 0 0 33.27 3h-2.94a1.25 1.25 0 0 0-1.25 1.25v.1c0 .24-.17.08-.17.08L23.58.28a1.42 1.42 0 0 0-1.69 0L8.34 10.83a1 1 0 0 0-.34 1.1 1 1 0 0 0 1 .63h1.38c.24 0 .22.26.22.26v11.72s0 .29-.39.29H.54a.54.54 0 0 0-.54.54V41a.54.54 0 0 0 .54.54h.55a.54.54 0 0 0 .54-.54V27a.55.55 0 0 1 .55-.54h40.64a.55.55 0 0 1 .55.54v14a.54.54 0 0 0 .54.54h.55A.54.54 0 0 0 45 41V25.37a.54.54 0 0 0-.54-.54zM30.72 4.74a.09.09 0 0 1 .09-.1h1.95a.12.12 0 0 1 .13.12v2.39c0 .15-.09.07-.09.07l-2-1.69a.14.14 0 0 1-.05-.11zm-10 16a2.54 2.54 0 0 1 .56-1.57 1.83 1.83 0 0 1 1.41-.5 2 2 0 0 1 2.13 2.08v3.75s0 .33-.38.33H21c-.3 0-.28-.23-.28-.23v-2.93c-.02-.24-.03-.67-.04-.89zm6.1 4a.34.34 0 0 1-.37-.34v-3.59a4.05 4.05 0 0 0-1.07-2.71 3.61 3.61 0 0 0-2.69-1 3.41 3.41 0 0 0-2.58 1 4 4 0 0 0-1 2.76v3.78a.21.21 0 0 1-.23.22H12.5a.3.3 0 0 1-.33-.3V12.18a1.35 1.35 0 0 0-1.08-1.24c-.16 0 0-.18 0-.18L22.47 1.9a.47.47 0 0 1 .27-.12.43.43 0 0 1 .24.11l11.35 8.84s.27.17 0 .22a1.23 1.23 0 0 0-1 1.23V24.4a.4.4 0 0 1-.45.43z"/><path class="cls-1" d="M40.27 33.9H36a1.33 1.33 0 0 0-.89.42l-2.7 3.27c-.19.23-.43.19-.53-.09l-1.35-4a.67.67 0 0 0-.71-.42L26 33.8a.53.53 0 0 1-.62-.44l-.78-4.63c-.05-.29-.24-.34-.42-.1l-6.83 8.86c-.18.24-.4.2-.49-.09L14.65 30c-.09-.29-.32-.34-.51-.11L10.63 34a1.34 1.34 0 0 1-.9.42H5.08a.55.55 0 0 0-.55.54v.22a.55.55 0 0 0 .55.54h5.26a1.3 1.3 0 0 0 .89-.41l2.35-2.74c.19-.22.42-.18.51.11l2.28 7.53c.09.29.31.33.5.09l6.54-8.5c.19-.24.38-.19.43.11l.5 3a.54.54 0 0 0 .62.44l4-.72a.67.67 0 0 1 .71.42l1.74 5.1c.1.28.34.32.53.09l3.8-4.59a1.31 1.31 0 0 1 .89-.42h3.67a.55.55 0 0 0 .54-.55v-.21a.55.55 0 0 0-.57-.57z"/></g></g></svg>