<svg xmlns="http://www.w3.org/2000/svg" viewBox="0 0 49.81 50.27"><defs><style>.cls-1{fill:#fff}</style></defs><title>icon1-hover</title><g id="Layer_2" data-name="Layer 2"><g id="SVG"><path class="cls-1" d="M36.57 39.82v-8a2.19 2.19 0 0 0-2.18-2.19H6.15A2.2 2.2 0 0 0 4 31.77v8.05a2.3 2.3 0 0 0 .74 4.47h31.1a2.3 2.3 0 0 0 .73-4.47zm-31.13-8a.71.71 0 0 1 .71-.72h28.24a.71.71 0 0 1 .71.72v7.88H5.44zm30.4 11.05H4.7a.83.83 0 0 1 0-1.65h31.14a.83.83 0 0 1 0 1.65z"/><path class="cls-1" d="M38 32.4h-.64v1.48H38c.83 0 .83.2.83.47v9.84c0 .67-.45 1.46-.83 1.46H2.51c-.44 0-1-.85-1-1.46v-9.84c0-.15 0-.47 1-.47h.63V32.4h-.63a3.28 3.28 0 0 0-1.61.35 1.77 1.77 0 0 0-.9 1.6v9.84a3.24 3.24 0 0 0 .68 1.89 2.34 2.34 0 0 0 1.83 1.05h.63v3.14h1.47v-3.14h32v3.14h1.47v-3.15c1.45 0 2.26-1.74 2.26-2.93v-9.84c0-.73-.34-1.95-2.34-1.95z"/><path class="cls-1" d="M7.85 33.97h1.57v1.47H7.85zm23.26 0h1.67v1.47h-1.67zm-11.58 0h1.57v1.47h-1.57zM.07 17h24.05V0H.07zM1.54 1.47h21.11v14.1H1.54z"/><path class="cls-1" d="M2.41 2.34v12.37h19.37V2.34zm17.9 10.89H3.88V3.81h16.43v9.42zm4.69 3.9v10.81h13.91V17.13zm12.46 9.34h-11V18.6h11z"/><path class="cls-1" d="M27.32 19.46v6.14h9.25v-6.14zm7.78 4.67h-6.31v-3.2h6.31zM32 3.11a6.19 6.19 0 1 0 6.13 6.19A6.2 6.2 0 0 0 32 3.11zM32.68 14v-.78h-1.47V14a4.72 4.72 0 0 1-3.9-3.82h.86V8.65h-.89a4.73 4.73 0 0 1 3.93-4v1.06h1.47V4.64a4.73 4.73 0 0 1 3.93 4h-1v1.48h1A4.73 4.73 0 0 1 32.68 14z"/><path class="cls-1" d="M31.21 6.89v1.76h-2.45v1.48h3.92V6.89h-1.47zm14.72 39.52V29.07h-1.47v17.34h-3.91v3.81h9.26v-3.81zm2.41 2.34H42v-.86h6.32zm-6.23-38.63v17h2.35v1.22h1.47v-1.18h2.32v-17zm4.67 13.25h-2.32v1.48h2.32v.84h-3.2v-14.1h3.2v11.78z"/><path class="cls-1" transform="rotate(-45 10.155 6.964)" d="M9.05 6.23h2.2V7.7h-2.2z"/><path class="cls-1" transform="rotate(-45 12.089 8.133)" d="M8.24 7.4h7.71v1.47H8.24z"/><path class="cls-1" transform="rotate(-45 14.043 10.073)" d="M12.94 9.34h2.2v1.47h-2.2z"/></g></g></svg>