<svg xmlns="http://www.w3.org/2000/svg" viewBox="0 0 122.81 92.86"><defs><style>.cls-1{fill:#73c3c4}.cls-2{fill:#fff}</style></defs><title>sp-hlink1</title><g id="Layer_2" data-name="Layer 2"><g id="SVG"><rect class="cls-1" width="122.81" height="92.86" rx="8" ry="8"/><path class="cls-2" d="M16.12 33.31a14.2 14.2 0 0 1 3.41-.47c2.73 0 4.89 1.45 4.89 3.9 0 2.1-1.09 3.68-3.92 4.38a13.71 13.71 0 0 1-2.33.29l-.83-2.28a13.29 13.29 0 0 0 2.19-.13c1.44-.25 2.59-1 2.59-2.28S21 34.81 19.5 34.81a12.51 12.51 0 0 0-3.35.49c0 1.42.09 2.79.09 3.4 0 2.21-.81 2.78-2 2.78-1.74 0-4.2-1.49-4.2-3.38 0-1.56 1.81-3.16 4-4.11v-2.73h-1c-.81 0-1.71 0-2.48-.09v-2.16a18.93 18.93 0 0 0 2.46.15h1v-1.45a15.34 15.34 0 0 0-.02-1.58h2.4l-.14 1.55c0 .39 0 .83-.05 1.28a26.11 26.11 0 0 0 3.27-.67l.05 2.23c-1 .23-2.23.41-3.4.56v1.6zm-2 5c0-.45 0-1.26-.06-2.19-1.06.55-1.77 1.28-1.77 1.88s.83 1 1.29 1 .58-.09.58-.7zm7.33-10.24a38 38 0 0 1 4.37 2.5l-1.08 1.83a26.44 26.44 0 0 0-4.24-2.6zm8.33 4.75v9.42h-2.13V26.13h6.87v6.69zm0-5.05v1h2.75v-1zm2.75 3.43v-1h-2.75v1zm1.09 8.5v1h-2v-6.64h7v5.64zm0-3.88v2.12h3v-2.12zm9.19 3.87c0 1.18-.25 1.79-1 2.14a9 9 0 0 1-3.52.41 7.71 7.71 0 0 0-.72-2.19c1 .07 2.26.05 2.6 0s.47-.11.47-.43v-6.78h-4.88v-6.71h7.05zm-5-11.94v1h2.84v-1zm2.84 3.47v-1h-2.86v1zM48.29 30a37.78 37.78 0 0 0 .11 3.78c.25 2.57.79 4.31 1.9 4.31.85 0 1.55-2.08 1.89-3.48L54 36.79C52.8 39.88 51.68 41 50.25 41c-1.94 0-3.65-1.76-4.16-6.54-.16-1.64-.19-3.71-.19-4.8a10.11 10.11 0 0 0-.13-1.8h2.73a14.81 14.81 0 0 0-.21 2.14zm12.36 7.32l-2.35.9c-.27-2.86-1.22-7-3.16-9.24l2.26-.76c1.69 2.1 3.06 6.4 3.25 9.13zm10.7-11.85A18 18 0 0 0 79 31.65a10.38 10.38 0 0 0-1.38 1.92 20.66 20.66 0 0 1-2.75-1.7v1.24H66v-1.26a25.58 25.58 0 0 1-2.79 1.76 8.76 8.76 0 0 0-1.35-1.74 19.08 19.08 0 0 0 7.32-6.4zm-6.58 9.42h11.39v7.37H74v-.67h-7.1v.67h-2.1zM74 31.22a19.35 19.35 0 0 1-3.69-3.65 18 18 0 0 1-3.58 3.65zm-7.16 5.55v2.93H74v-2.93zm19.91-7.15c-.23.31-.61.88-.92 1.35v.52A8.65 8.65 0 0 1 91 29.64a4.7 4.7 0 0 1 4.9 4.8c0 3.59-2.24 5.75-6.66 6.63l-1.06-2.16c3.12-.48 5.35-1.74 5.35-4.53a2.71 2.71 0 0 0-2.89-2.64 7.46 7.46 0 0 0-5 2.28v1.48c0 1.45 0 3 .11 4.62 0 .32.09 1 .13 1.36h-2.51v-1.31c0-1.38 0-2.41.08-3.92-.76 1.14-1.64 2.43-2.25 3.29l-1.4-2c1-1.22 2.8-3.59 3.81-5.08l.07-1.24-3.24.41-.21-2.28a13.49 13.49 0 0 0 1.54 0c.53 0 1.3-.13 2.05-.23 0-.67.08-1.17.08-1.37a9.51 9.51 0 0 0-.08-1.58l2.61.07c-.11.5-.25 1.42-.4 2.54zm23.6-2.98a13.93 13.93 0 0 0-.11 1.52v1.93l1.35-.09 1.7-.13v2.19h-1.72l-1.37.07a28.86 28.86 0 0 1-.27 3.56c-.18.94-.63 1.17-1.55 1.17a22.16 22.16 0 0 1-2.67-.27v-2a11 11 0 0 0 1.64.22c.36 0 .5-.07.55-.41a18.63 18.63 0 0 0 .13-2.14c-1.56.12-3.31.28-4.84.45v4c.06 1.75.2 2.14 2.88 2.14a32.18 32.18 0 0 0 5.32-.47l-.09 2.45c-1.2.14-3.38.29-5.07.29-4.62 0-5.17-1-5.25-4.05v-4.15l-1.21.13c-.56.07-1.67.25-2.14.32l-.23-2.28c.5 0 1.33 0 2.23-.11l1.35-.13v-1.8a13.37 13.37 0 0 0-.15-2h2.52a14.27 14.27 0 0 0-.11 1.85v1.71c1.51-.15 3.24-.31 4.86-.45v-2a14.38 14.38 0 0 0-.13-1.61zM35 66.93A54.8 54.8 0 0 1 40.09 69l-2.48 1a36.82 36.82 0 0 0-4.67-2.12l1.62-.93h-5.25l1.63.72a22.16 22.16 0 0 1-5.6 2.33c-.38-.41-1.14-1.18-1.59-1.56a21.43 21.43 0 0 0 4.95-1.51h-2.65v-7.3h3.76a5.5 5.5 0 0 0-.81-1.24v.07c-1.54.45-3.21.94-4.56 1.31l-.79-1.87c1.33-.25 3.25-.7 5.16-1.15l.19 1.62c2.86-.47 3.81-1.24 4.2-2.51h-1.32a9.74 9.74 0 0 1-1.44 1.43 5.67 5.67 0 0 0-1.6-1 7.8 7.8 0 0 0 2.64-3.13l1.89.3a7.56 7.56 0 0 1-.47.89h5.31l.32-.06 1.42.36a13.19 13.19 0 0 1-1.71 2.72l-1.65-.53a11.52 11.52 0 0 0 .7-1h-2c.4 1.16 1.41 2.13 5 2.57a5.65 5.65 0 0 0-1.06 1.74c-.44-.07-.83-.14-1.19-.23v7zm-6.82-10.59a23.29 23.29 0 0 0-3.76-1.46l.93-1.45a23.77 23.77 0 0 1 3.8 1.29zm-.06 5.34h7.79v-.77h-7.79zm0 2h7.79v-.78h-7.79zm0 2h7.79v-.79h-7.79zm9-6a5.42 5.42 0 0 1-2.75-1.94 5.84 5.84 0 0 1-3.27 1.94zm12.3 6.24a23.43 23.43 0 0 0-1.3-2.34v6.31h-2v-6.34A18.79 18.79 0 0 1 44.08 68a12.78 12.78 0 0 0-1-2.21 16.43 16.43 0 0 0 2.37-4.66h-2v-2h2.72v-5.9h2v5.88h2.67v2h-2.72v.13c.53.52 2.23 2.53 2.61 3zm-5.2-7.15a17.71 17.71 0 0 0-.8-4.14l1.49-.39a18.35 18.35 0 0 1 .91 4.11zm6.89-4.23c-.47 1.44-1 3.15-1.44 4.19l-1.35-.38a30.3 30.3 0 0 0 1-4.2zm7 10.54v4.85h-2v-4.49l-5 .89-.32-2 5.34-1V53.14h2V63l1.84-.34.32 2zm-6.14-6.53a16.06 16.06 0 0 1 3 2.07l-1.08 1.71a15.32 15.32 0 0 0-3-2.23zm2.6-.65a14 14 0 0 0-2.78-2.33l1-1.44a13.62 13.62 0 0 1 2.86 2.17zm15.34-.09h-6.83v-1.68h6.83zM69.33 69h-3.66v.7h-1.8v-6.13h5.46zm0-8.74h-5.4v-1.64h5.4zm-5.4.83h5.4v1.6h-5.4zm5.34-5.76H64v-1.61h5.28zm-3.59 9.93v2.06h1.85v-2.06zm14.11-6.8V60h-9.88v-1.54h3.9v-.72h-3V56.3h3v-.64h-3.47v-1.53h3.47v-1h2v1h3.61v1.53h-3.58v.64h3.34v1.44h-3.34v.72zm-1 9.49c0 .9-.17 1.37-.78 1.64a6.3 6.3 0 0 1-2.58.3 6.65 6.65 0 0 0-.56-1.7h1.63c.23 0 .29-.08.29-.27V66.6h-3.7v3.31h-2v-9.24h7.68zm-5.72-5.77V63h3.72v-.81zm3.72 3v-.84h-3.7v.84zM89.45 65c-1.79 1.15-3.78 2.37-5.34 3.27l-1.33-2c1.49-.74 3.81-2 6-3.27zm9.22-5.4a41.15 41.15 0 0 1-3.55 3.56 13 13 0 0 0 4.66 3.67 8.43 8.43 0 0 0-1.58 1.91 14.87 14.87 0 0 1-5.91-6.22v4.81c0 1.26-.24 1.85-1 2.2a8.38 8.38 0 0 1-3.51.43 8.47 8.47 0 0 0-.74-2.25h2.59c.36 0 .47-.11.47-.43v-9.34h-6.77v-2.07h6.78v-2.69h2.18v2.69H96a25 25 0 0 0-2.48-1.45l1.24-1.35a21.14 21.14 0 0 1 3.34 1.87l-.82.93h2v2.07h-6.99v.18A18.13 18.13 0 0 0 94 61.55a22.81 22.81 0 0 0 2.82-3.27zm-11.94 3.32A17.25 17.25 0 0 0 84 59.67l1.64-1.15a16.57 16.57 0 0 1 2.8 3.14z"/></g></g></svg>