<svg xmlns="http://www.w3.org/2000/svg" viewBox="0 0 398.45 72.68"><title>sp-headlogo1</title><path d="M127.35 26.56a18.57 18.57 0 0 0 7.73 1.44 7.8 7.8 0 0 0-.68 1.93 20.06 20.06 0 0 1-8.1-2.09l1.75 4.7-1.78.67-1.72-4.63a19.82 19.82 0 0 1-4.68 6.74 8.1 8.1 0 0 0-1.71-1 18.68 18.68 0 0 0 4.75-6.12l-4.13 1.54-2.53-6.74 5.45-2-.5-1.34-7 2.61-.59-1.58 7-2.61-.61-1.71 1.79-.66.6 1.63 7.18-2.67.59 1.58-7.16 2.67.5 1.34 5.73-2.13 2.53 6.79zM119 25.11l3.78-1.41-.54-1.47-3.79 1.41zm1 2.71l3.78-1.4-.55-1.49-3.78 1.41zm4-6.25l.54 1.47 4-1.5-.54-1.46zm5 1.2l-4 1.5.55 1.48 4-1.49zm22.76-12.27l-16.4 4.5-.46-1.68 7.22-2-.56-2 1.87-.51.56 2 7.31-2zm-5.32 9.27l1.22 4.44c.25.95.18 1.5-.47 1.94a12.13 12.13 0 0 1-3.33 1.18 7 7 0 0 0-1-1.51c1.15-.27 2.34-.6 2.64-.7s.41-.2.34-.44l-1.2-4.4-5 1.37-1.64-5.74 12.1-3.31 1.57 5.74zm-4 2.72a17.68 17.68 0 0 1-2.53 5.2 10 10 0 0 0-1.72-.64 13 13 0 0 0 2.32-4.64zm-1.52-2.83l8.48-2.32-.74-2.69-8.47 2.35zm9.85-.06a35.32 35.32 0 0 1 4.58 3.07L153.88 24a30.19 30.19 0 0 0-4.51-3.21zm8.17-11.22c1.37-.39 4.72-1.33 8.17-2.25 2-.54 3.9-1 5.19-1.27l.37 1.95a18.45 18.45 0 0 0-3.67.93 6.43 6.43 0 0 0-3.18 6.48c.63 3.49 4.07 4 7.24 3.64l-.33 2.14c-3.77.48-8-.82-8.8-5A7.69 7.69 0 0 1 166 8.23c-1.63.48-6.23 1.78-8.28 2.63l-.57-2.07c.77-.15 1.41-.31 1.79-.41zm13.46 3.39l-1.09.75a18 18 0 0 0-2-2.42l1.06-.71a25.73 25.73 0 0 1 2.03 2.38zm2-1.29l-1.07.79a17.83 17.83 0 0 0-2.1-2.36l1.06-.73a27.83 27.83 0 0 1 2.15 2.3zm4.39.16a22.48 22.48 0 0 0 .53-5.1l1.34.08a23.1 23.1 0 0 1-.46 5.38zm5.57-1.91a19.11 19.11 0 0 0-1.52-3.19l1.23 13.81-1.77.16-1.6-17.88 1.77-.16.32 3.59 1-.55A18 18 0 0 1 185.63 8zm7.64 2.44a9.44 9.44 0 0 0 5.84 5.32 7.57 7.57 0 0 0-1.14 1.79 10.36 10.36 0 0 1-5.89-5.72 10.57 10.57 0 0 1-4.65 6.7 7.75 7.75 0 0 0-1.41-1.26 8.51 8.51 0 0 0 4.43-6.55l-4.25.38-.15-1.71 4.5-.4c0-.75-.05-1.49-.11-2.18L189 5.62l-3.59.32-.15-1.67 3.59-.27-.27-3 1.83-.16.27 3 4.25-.38.51 5.74 1.47-.2.15 1.72zm-1-3.82c.06.7.11 1.43.1 2.17l2.57-.23-.36-4-2.48.22zm14.11 6.57c.85 1.35 2.4 1.94 4.58 2s6.75 0 9.24-.21a8 8 0 0 0-.58 1.79c-2.25.12-6.4.19-8.67.13-2.43-.08-4.12-.72-5.32-2.21-.82.81-1.67 1.59-2.63 2.44l-.91-1.79a26.73 26.73 0 0 0 2.55-2V9.35h-2.35V7.69h4.09zm-1-9.07a14 14 0 0 0-3-3.25l1.38-1a14.81 14.81 0 0 1 3.12 3.11zM208.88 3H206V1.54h5.21V0H213v1.49l5.5-.05v1.45h-2.64l.24.06c-.29.61-.6 1.18-.85 1.67h2.68l.07 8.48c0 .82-.13 1.25-.7 1.53a6.7 6.7 0 0 1-2.5.29 6.28 6.28 0 0 0-.54-1.52h1.76c.23 0 .29-.08.29-.3l-.05-7h-3.35v1.16h2.64v1.16h-2.64v1.27h2v3.6h-3.95V14h-1.29V9.74h1.9V8.45h-2.63V7.3h2.63V6.1h-3.21l.07 8.82h-1.67l-.08-10.26h2.41a8.47 8.47 0 0 0-.7-1.58zm4.65 1.69a14.21 14.21 0 0 0 .71-1.73L210 3a6.63 6.63 0 0 1 .72 1.7h-.08zm.05 6.1h-2.64v1.43h2.64zm14.51-8.57a12.76 12.76 0 0 0-.53 1.45 45.82 45.82 0 0 0-1.59 7.2 15.34 15.34 0 0 0 0 2c.36-.76.84-1.66 1.19-2.34l.95.87a37.53 37.53 0 0 0-1.78 4.39 3.61 3.61 0 0 0-.17.87v.72h-1.77a24.25 24.25 0 0 1-.2-6.31 55.28 55.28 0 0 1 1.5-7.64 13.79 13.79 0 0 0 .31-1.58zm3.64 9.83a7.23 7.23 0 0 0-.38 1.7c-.08.87.51 1.61 2.85 1.81a21.84 21.84 0 0 0 4.86-.09l-.14 2.07a26.18 26.18 0 0 1-4.93 0c-3.28-.28-4.7-1.54-4.54-3.42a12.15 12.15 0 0 1 .54-2.35zm7.7-7.46l-.17 2a48.07 48.07 0 0 1-8.1-.7l.17-2a35.9 35.9 0 0 0 8.1.7zM252.15 4a31.83 31.83 0 0 1-2.57 3.51l-2.34 13.23-1.69-.3 1.87-10.64a23.8 23.8 0 0 1-2.28 1.91 16.53 16.53 0 0 0-.66-2 21.12 21.12 0 0 0 6.08-6.54zm9.06 16.84l-.31 1.71-12.38-2.18.31-1.72 5.36.95.77-4.38-4.26-.75.3-1.7 4.26.75.67-3.82-4.93-.85.31-1.72 6.09 1.08a29 29 0 0 0-3.2-3.15L255.63 4a27.45 27.45 0 0 1 3.78 3.59l-1 .8 4.57.8-.31 1.72-4.92-.91-.68 3.82 4.36.77-.3 1.7-4.36-.77-.77 4.41zm17.53 5.37a14.5 14.5 0 0 0-3.44-3.85c-.1.38-.17.7-.24 1-.39 1.42-1.76 2.44-4.2 1.79-2.83-.77-4.09-2.22-3.57-4.12s2.5-2.57 5.29-1.81c.48.13.92.29 1.36.45.16-.71.34-1.47.51-2.16l-1-.27c-1.19-.33-3.28-1-4.54-1.5l.5-1.77a32.88 32.88 0 0 0 4.51 1.61l1 .26.64-2.36-.93-.25a39.28 39.28 0 0 1-4.18-1.44l.47-1.72a30 30 0 0 0 4.08 1.48l1 .26.29-1.06a11.74 11.74 0 0 0 .24-1.21l2 .54c-.13.33-.3.73-.46 1.23-.05.21-.17.55-.27.93a47.14 47.14 0 0 0 4.8.78l-.45 1.73c-1.39-.24-3-.49-4.81-.89l-.64 2.38c1.88.4 3.57.68 5.24.89l-.46 1.78c-1.8-.26-3.38-.57-5.2-1-.21.86-.39 1.76-.56 2.59a15.25 15.25 0 0 1 4.57 4.34zm-5.18-4.93a10.28 10.28 0 0 0-1.64-.61c-1.59-.42-2.6-.05-2.81.73s.33 1.53 1.94 2c1.06.29 1.92.19 2.24-1 .08-.32.17-.68.27-1.12zM297.05 23a17.62 17.62 0 0 0-5.19-.87c-.61-.06-1.3 0-1.85 0l.21-2.3a16.82 16.82 0 0 0 1.9.39 26.22 26.22 0 0 1 5.79 1.15c2.72 1 4.12 3.27 3.12 6-1.44 3.92-5.86 4.92-11 3.85l-.41-2.18c4.67 1.1 8.28.59 9.41-2.48.54-1.51-.18-2.95-1.98-3.56zm5.33-4l-.95 1.67c-2-.91-5.66-2.65-7.6-3.78l.92-1.65a57.2 57.2 0 0 0 7.63 3.76zM19.52 66.77h-2.78v-1.4H5.63a11.93 11.93 0 0 1-3.49 7.31A9.47 9.47 0 0 0 0 70.78c2.85-2.56 3.1-6.24 3.1-9v-5.1h16.42zm1.54-14.55v2.62H1v-2.62zm-15.17 7v3.63h10.85v-3.64zm26.86-.06a31.87 31.87 0 0 1-1.63 8.19c2.14 1.7 5 2.05 8.39 2.07 1.36 0 6 0 7.7-.07A9.72 9.72 0 0 0 46.16 72h-6.72c-3.89 0-7-.46-9.45-2.3a9.65 9.65 0 0 1-2.55 3 9.94 9.94 0 0 0-2.05-1.84 8.73 8.73 0 0 0 2.69-3.08 15.58 15.58 0 0 1-2.16-4.46l2.14-.78a11.37 11.37 0 0 0 1.13 2.6 24.49 24.49 0 0 0 .8-3.86h-1.56l-.3.66-2.49-.64c1-2 2.1-4.51 2.95-6.51h-3v-2.41h4.21l.41-.09 1.86.5c-.69 1.8-1.63 4-2.57 6.07h1.15l.48-.06zm5-4.5h-4.2v-2.07h4.21v-1.31h2.67v1.31h4.78v3h1.73v2.09h-1.73v3h-4.78v1h5v2h-5v1.08h6v2.14h-6v1.87h-2.67v-1.86h-5.45v-2.14h5.45v-1.08H33.3v-2h4.46v-1h-4.32v-2.06h4.32v-.94H32V55.6h5.77zm2.67 0v.94h2.09v-.94zm2.09 3h-2.08v.94h2.09zm11.54-2.96c1.88-.18 5.66-.5 9.82-.87 2.34-.19 4.85-.32 6.44-.39v2.94a23.16 23.16 0 0 0-4.39.3 7 7 0 0 0-4.81 6.37c0 3.75 3.52 5.08 7.36 5.29l-1.06 3.15c-4.78-.32-9.29-2.9-9.29-7.82a9.09 9.09 0 0 1 3.36-7c-2 .2-6.76.71-9.41 1.28l-.27-3.12c.91-.04 1.79-.08 2.25-.13zm27.8-1.7c0 .51-.06 1-.06 1.75v7.77c0 .58 0 1.48.06 2h-3.4c0-.44.12-1.34.12-2V54.7a15.67 15.67 0 0 0-.1-1.75zm10.61-.2c0 .64-.1 1.38-.1 2.3v4.5c0 4.94-1 7.06-2.66 8.95a13.46 13.46 0 0 1-5.59 3.33l-2.42-2.53a10.78 10.78 0 0 0 5.64-2.9c1.56-1.72 1.86-3.45 1.86-7v-4.4a16.45 16.45 0 0 0-.14-2.3zm25 3.53a31.7 31.7 0 0 1-4.33 8.44 22.87 22.87 0 0 1-8.71 6.67l-2.62-2.69a20 20 0 0 0 8.74-6 23.35 23.35 0 0 0 4.34-9.93l3.59.92a24.65 24.65 0 0 0-1.01 2.59zm9.84 5.98c1.06-1.05 2.86-3.31 4.42-5.19 1.38-1.64 2.62-1.8 4.51-.21a60.73 60.73 0 0 1 4.69 4.67c1.54 1.68 4 4.3 5.65 6.21l-2.46 2.66a179.84 179.84 0 0 0-4.92-6 49.28 49.28 0 0 0-4.19-4.57c-.8-.69-1.19-.69-1.86.13-.9 1.15-2.55 3.43-3.5 4.7-.52.71-1.08 1.54-1.47 2.13l-2.71-2.78a25 25 0 0 0 1.84-1.75zm15.76-4l-2.07.89a22.09 22.09 0 0 0-2.1-3.75l2-.82a35.53 35.53 0 0 1 2.17 3.71zm3.15-1.31l-2 1a24.86 24.86 0 0 0-2.21-3.71l2-.9a34.3 34.3 0 0 1 2.21 3.61zm5.79 3c.82.06 2.5.13 3.7.13h12.35c1.05 0 2.09-.09 2.69-.13v3.61c-.55 0-1.73-.12-2.69-.12h-12.34c-1.31 0-2.85.05-3.7.12zm32 .86l-1.68 2.58a58.53 58.53 0 0 0-5.24-3.26l1.67-2.56c1.54.83 4.08 2.38 5.25 3.24zm1.86 5.27a23.3 23.3 0 0 0 8.94-8.62l1.78 3.12a27.65 27.65 0 0 1-9.16 8.26 28.06 28.06 0 0 1-7.68 2.85l-1.72-3a25.59 25.59 0 0 0 7.84-2.61zm1.68-10.46l-1.73 2.55c-1.28-.9-3.68-2.46-5.19-3.31l1.68-2.53c1.51.85 4.04 2.46 5.24 3.29zm31.14 15.08v1.57h-2.9a8.17 8.17 0 0 0 0-.92h-8.72c-.64 0-1.58 0-2 .07v-2.83c.4 0 1.18.09 2 .09h8.69v-3.06h-9.84V63c.59 0 1.63.07 2.5.07h7.34v-2.78h-7.59c-.85 0-2.3.05-2.85.09V57.6c.6.07 2 .11 2.85.11h10.46v1.54zm18.59-5.33a21.83 21.83 0 0 0 8.37-9l1.79 3.25a24.51 24.51 0 0 1-8.51 8.5 24.92 24.92 0 0 1-8.53 3.25l-1.93-3a23.84 23.84 0 0 0 8.81-3zm0-7.45l-2.35 2.41a47.57 47.57 0 0 0-5.75-5l2.16-2.3a48.7 48.7 0 0 1 5.94 4.92zM273 67.26h-4.94V70c0 1.31-.27 1.93-1.24 2.3a13.64 13.64 0 0 1-4.16.37 9.68 9.68 0 0 0-.85-2.4h3.06c.4 0 .5-.12.5-.41v-2.6h-7.47a15.72 15.72 0 0 1 3 2.78l-2.18 1.61a16.83 16.83 0 0 0-3.29-3.22l1.66-1.17h-4.93V65h13.18v-1.26h-11v-7.82h6.76v-1h-8.44v-2.26h8.44v-1.52h2.67v1.52h8.62v2.23h-8.62v1h7.06v7.82H268V65h5zM256.93 59h4.23v-1.22h-4.23zm0 2.92h4.23V60.7h-4.23zm6.9-4.1V59h4.39v-1.22zm4.39 2.92h-4.39v1.18h4.39zm18.78.15h-6v11.7h-2.71V52H287zm-6-6.65v1.2h3.5v-1.2zm3.5 4.46v-1.31H281v1.31zm13.15 10.58c0 1.56-.32 2.37-1.34 2.78s-2.5.51-4.73.51a10 10 0 0 0-1-2.81c1.45.1 3.15.07 3.63.07s.65-.16.65-.6V61h-6.23v-9h9zm-6.39-15v1.2h3.63v-1.2zm3.63 4.51v-1.4h-3.63v1.36zm25.17-4.18l1.45.94a10.5 10.5 0 0 0-.5 1.59c-.53 2.25-1.52 5.82-3.45 8.37a18.2 18.2 0 0 1-9.25 6.35l-2.5-2.74a15.13 15.13 0 0 0 9-5.4 14.72 14.72 0 0 0 2.71-6.49h-10.7c-1.06 0-2.14.05-2.74.09v-3.24a26.19 26.19 0 0 0 2.74.19h10.64a9 9 0 0 0 1.09-.05 25.05 25.05 0 0 0-1.29-2.22l1.88-.78a28.53 28.53 0 0 1 1.77 3zm2.3-4c.58.83 1.41 2.23 1.84 3l-1.91.83a24.94 24.94 0 0 0-1.84-3.09zm25.42 9.01a8.76 8.76 0 0 0-.44 1 16.6 16.6 0 0 1-3.4 6.37 17.29 17.29 0 0 1-8.21 5l-2.3-2.6a15.53 15.53 0 0 0 8-4 10 10 0 0 0 2.37-4h-11.13c-.55 0-1.7 0-2.67.12v-3c1 .09 2 .14 2.67.14h11.38a4.79 4.79 0 0 0 1.68-.23zM332.12 53a17.85 17.85 0 0 0 2.39.12h8.85a20.07 20.07 0 0 0 2.49-.12v3c-.62 0-1.71-.07-2.53-.07h-8.81c-.74 0-1.72 0-2.39.07zm31.65 12.42a21.83 21.83 0 0 0 8.37-9l1.79 3.25a24.51 24.51 0 0 1-8.51 8.5 24.92 24.92 0 0 1-8.53 3.25l-1.93-3a23.84 23.84 0 0 0 8.81-3zm0-7.45l-2.35 2.41a47.57 47.57 0 0 0-5.75-5l2.16-2.3a48.7 48.7 0 0 1 5.94 4.92zm23.48.89a80.32 80.32 0 0 1 9.61 3.59l-1.29 3.2a61.28 61.28 0 0 0-8.32-3.43v6.51c0 .64.11 2.25.23 3.2h-3.61a24.6 24.6 0 0 0 .23-3.2V55.51a16.41 16.41 0 0 0-.23-2.79h3.59a23.34 23.34 0 0 0-.21 2.79zm6.12-1a18.83 18.83 0 0 0-2-3.54l1.93-.83a39.67 39.67 0 0 1 2.1 3.48zm3.15-1.29a22.21 22.21 0 0 0-2.14-3.44l1.91-.9a32.09 32.09 0 0 1 2.16 3.4z" data-name="Layer 2"/></svg>