<svg xmlns="http://www.w3.org/2000/svg" viewBox="0 0 55.71 19.06"><defs><style>.cls-1{fill:#fff}</style></defs><title>sp-menu1</title><g id="Layer_2" data-name="Layer 2"><path class="cls-1" d="M9.36 15.68a20.16 20.16 0 0 0 .18 3H6.07a19 19 0 0 0 .18-3V3.13h-3.1A22 22 0 0 0 0 3.29V.21a24.08 24.08 0 0 0 3.13.16h9.1a25.17 25.17 0 0 0 3.38-.16v3.08a23.4 23.4 0 0 0-3.38-.16H9.36zM33.82 2.3a9.91 9.91 0 0 1 2.57 7.17c0 5.82-3.38 9.59-8.6 9.59s-8.57-3.74-8.57-9.59a9.86 9.86 0 0 1 2.62-7.17A8 8 0 0 1 27.77 0a8.09 8.09 0 0 1 6.05 2.3zm-.65 7.17a7.42 7.42 0 0 0-1.81-5.35 5 5 0 0 0-3.54-1.41c-3.31 0-5.41 2.62-5.41 6.79a7.55 7.55 0 0 0 1.87 5.42 5 5 0 0 0 3.56 1.41c3.29 0 5.33-2.62 5.33-6.86zm8.49 9.2a18.22 18.22 0 0 0 .19-3V3.27a20.41 20.41 0 0 0-.19-3c1 0 1.71.07 2.92.07h4.81A6.56 6.56 0 0 1 54.29 2a5.39 5.39 0 0 1 1.42 4 5.88 5.88 0 0 1-1.54 4.23 6.52 6.52 0 0 1-4.89 1.65h-4.4v3.84a18.22 18.22 0 0 0 .19 3zm7.62-9.47c2.11 0 3.26-1.13 3.26-3.15a3.09 3.09 0 0 0-.76-2.21 3.16 3.16 0 0 0-2.5-.84h-4.4v6.2z" id="SVG"/></g></svg>