<svg xmlns="http://www.w3.org/2000/svg" viewBox="0 0 139.93 21.57"><defs><style>.cls-1{fill:#fff}</style></defs><title>sp-menu4</title><g id="Layer_2" data-name="Layer 2"><path class="cls-1" d="M14.19 9.17a37.85 37.85 0 0 1-.65 6.51A13.37 13.37 0 0 1 11 21.57a9.11 9.11 0 0 0-1.78-2.07c-.64-.05-.9-.05-1.75-.05h-5V21H0a23.85 23.85 0 0 0 .14-2.65V3.52A22 22 0 0 0 0 .92h2.64a10.18 10.18 0 0 0-.13 2v10.6a13.65 13.65 0 0 0 2.78-4.35h-.76a9.68 9.68 0 0 0-1.53.1V6.88A12.88 12.88 0 0 0 4.58 7H6V2.12A12.17 12.17 0 0 0 5.93.28H8.3a9.28 9.28 0 0 0-.11 1.86V7h1.38a8.7 8.7 0 0 0 1.51-.09v2.36a11.05 11.05 0 0 0-1.7-.1H8.6a12.43 12.43 0 0 0 2.78 3.5 8.94 8.94 0 0 0-1.08 2 13.48 13.48 0 0 1-2.21-3.17c.05.55.1 1.26.1 1.61v2a9.6 9.6 0 0 0 .09 1.57H5.93a8.66 8.66 0 0 0 .12-1.61v-1.8a8 8 0 0 1 0-1v-.76a12.31 12.31 0 0 1-2.44 4 8.76 8.76 0 0 0-1.1-1.41v3.12h5a22.45 22.45 0 0 0 2.39-.09v1.38c1.52-2.48 2-5.49 2-13.24a22.93 22.93 0 0 0-.12-3.18 19 19 0 0 0 4.86-1A9.42 9.42 0 0 0 18.81 0l1.82 2.25a.47.47 0 0 1-.16 0l-.72.25A26.06 26.06 0 0 1 14.21 4v2.81h4.62a12.82 12.82 0 0 0 2-.14v2.62A10.31 10.31 0 0 0 19 9.17h-.23v9.57a21 21 0 0 0 .13 2.62h-2.67a18.81 18.81 0 0 0 .14-2.62V9.17zm-9.77-8a32.87 32.87 0 0 1 1.35 4.49L4 6.39A18.8 18.8 0 0 0 2.62 2zm6.94.8a21.56 21.56 0 0 1-1.47 4.4l-1.54-.8a19 19 0 0 0 1.17-4.44zm17.09 10.08a8.19 8.19 0 0 0-1.38.09v-1.63c-.28.14-.37.18-.74.34a5.85 5.85 0 0 0-1-2c1.77-.5 2.55-1 2.87-2.07h-.76a13.49 13.49 0 0 0-1.72.1V4.69a12 12 0 0 0 1.77.09h2.73v-1.1h-1.91a14.92 14.92 0 0 0-1.63.07V1.63a10.71 10.71 0 0 0 1.77.12h1.72V1.4a6.07 6.07 0 0 0-.11-1.24h2.46a5.49 5.49 0 0 0-.11 1.22v.37H34a8.53 8.53 0 0 0 1.86-.12v2.12a14.77 14.77 0 0 0-1.61-.07h-1.84v1.1h2.2a15.84 15.84 0 0 0 1.73-.07v2.14c-.51 0-.85-.07-1.68-.07h-.55v1c0 .23.07.28.41.28.6 0 .65-.07.71-1a5.82 5.82 0 0 0 1.68.48c-.23 1.75-.6 2.05-2.5 2.05-1.41 0-1.87-.16-2.12-.76v1.33h1.84a9.82 9.82 0 0 0 1.41-.07v2a10.82 10.82 0 0 0-1.43-.07h-1.87v1.2c1.13-.14 1.77-.23 3.5-.49v1.38a7.39 7.39 0 0 0 2.37-3.33c-.58-.65-.78-.88-1.59-1.68l1.38-1.79.9.94a14.19 14.19 0 0 0 .2-2.32h-.5a7.68 7.68 0 0 0-1.5.12V3.56a9.17 9.17 0 0 0 1.52.1H39V2.35a11.68 11.68 0 0 0-.11-2.07h2.58a14 14 0 0 0-.14 1.9v1.48h1.34a12.55 12.55 0 0 0 1.93-.12c0 .46-.09 1.24-.09 2.05a54.54 54.54 0 0 0 .39 6.14 2.8 2.8 0 0 0 .34 1.27c.18 0 .34-1.29.41-3.22a6.35 6.35 0 0 0 1.66.94c-.33 3.59-.9 5-2.1 5-.87 0-1.61-.81-2.09-2.35a25.84 25.84 0 0 1-.83-7.43h-1.12a20.81 20.81 0 0 1-.58 4.3 20.37 20.37 0 0 1 1.86 2.46l-1.47 2c-.64-1-.89-1.41-1.31-2a10.23 10.23 0 0 1-3 3.82 9.61 9.61 0 0 0-1.48-1.8c-2.55.46-2.55.46-5.28.81-2.58.34-3.29.43-3.78.55l-.43-2.44h.3a2.33 2.33 0 0 0 .36 0c.69 0 2-.1 3.75-.26v-1.4zm-2.78 7.79a9.7 9.7 0 0 0 3-3.72l2.12 1.06a13.62 13.62 0 0 1-3 4.27zM30.15 10a7.55 7.55 0 0 0-.09-1.43h2.18V6.78h-1.93a5 5 0 0 1-2.5 3.34 6 6 0 0 0 .66 0h1.68zm2.32 11.31a19.71 19.71 0 0 0-.32-4.31l2.3-.23a20.69 20.69 0 0 1 .55 4.32zm5.45 0a16 16 0 0 0-1.17-4.26l2.25-.47a18.14 18.14 0 0 1 1.35 4.16zm6.37.07A20.36 20.36 0 0 0 41.35 17l2-1a24.38 24.38 0 0 1 3.22 4.12zM61 10.81a2.74 2.74 0 1 1-2.74-2.74A2.72 2.72 0 0 1 61 10.81zm25.25-4.88l-1.48 1A21 21 0 0 1 81.19 9h5.01c.8 0 1.38 0 2.16-.07a11.47 11.47 0 0 0-.09 1.95v8.35a13.51 13.51 0 0 0 .14 2.37h-2.62v-1H76v1h-2.58a17.93 17.93 0 0 0 .13-2.35v-7.54c-1.08.27-1.93.48-3.22.71a10.3 10.3 0 0 0-1.08-2.37 29.76 29.76 0 0 0 7.06-1.43 21.83 21.83 0 0 0 6.81-3.26 6.31 6.31 0 0 0 1.13-1.06zm-9.57-3.88a17.22 17.22 0 0 1-2.6 3.42 16.08 16.08 0 0 1-2.69 2.33 11.85 11.85 0 0 0-1.72-1.89 12.86 12.86 0 0 0 2.94-2.35A10.22 10.22 0 0 0 74.5.94zm5-2a7.34 7.34 0 0 0-.11 1.56v3.24a1.92 1.92 0 0 1-1.2 1.93 5.28 5.28 0 0 1-2.16.3c-.39 0-.9 0-1.7-.07a5.84 5.84 0 0 0-.67-2.16 15.09 15.09 0 0 0 2.29.15c.87 0 1-.07 1-.46V1.66A11.85 11.85 0 0 0 79 .05zM76 11v1.2h9.75v-1.37h-9.21zm0 4.37h9.75V14H76zm0 3.27h9.75v-1.46H76zM85.58.85a14.16 14.16 0 0 0 2.34 2.32 15 15 0 0 0 3.09 2 12.63 12.63 0 0 0-1.66 1.94 18.32 18.32 0 0 1-3.17-2.37 17.45 17.45 0 0 1-2.51-2.69zm20.62 14.67h5.56a16.33 16.33 0 0 0 3-.16v2.9a23.72 23.72 0 0 0-2.94-.12H98a23.72 23.72 0 0 0-2.94.12v-2.9a16.27 16.27 0 0 0 3 .16h5.19V6.07h-3.51a22 22 0 0 0-2.95.12V3.31a16.52 16.52 0 0 0 3 .16H110a16.39 16.39 0 0 0 3-.16v2.88a21.61 21.61 0 0 0-2.94-.12h-3.86zM127.88 21a14.24 14.24 0 0 0 .12-2v-6a4.1 4.1 0 0 1-.69.44 36.11 36.11 0 0 1-6.47 2.56 9.4 9.4 0 0 0-1.36-2.5 29.54 29.54 0 0 0 6.4-2.14 24.61 24.61 0 0 0 7.12-4.9h-.48c-.14 0-.14 0-8.42.07a15.65 15.65 0 0 0-2.43.12V3.86a11.65 11.65 0 0 0 2.46.21H128V2.18a8.35 8.35 0 0 0-.12-1.65h3.08a7.64 7.64 0 0 0-.11 1.61v1.91h3.89a4.77 4.77 0 0 0 1.56-.21l1.3 1.56a5.8 5.8 0 0 0-1 1 29.17 29.17 0 0 1-4.69 4.3 38 38 0 0 1 8 3.61l-1.52 2.42a41 41 0 0 0-7-3.68c-.29-.14-.34-.14-.57-.25 0 .27.05.92.05 1.12V19a10.83 10.83 0 0 0 .13 2z" id="SVG"/></g></svg>