<svg xmlns="http://www.w3.org/2000/svg" viewBox="0 0 111.83 20.05"><defs><style>.cls-1{fill:#fff}</style></defs><title>sp-menu2</title><g id="Layer_2" data-name="Layer 2"><path class="cls-1" d="M19 1.84a10.83 10.83 0 0 0-.85.8 40.45 40.45 0 0 1-5.42 4.74v9.82a17.86 17.86 0 0 0 .11 2.55H9.61a12.38 12.38 0 0 0 .14-2.48v-8.1a37.35 37.35 0 0 1-8.21 3.73A8.57 8.57 0 0 0 0 10.28a33.49 33.49 0 0 0 12.07-6A18.42 18.42 0 0 0 16.35 0zm5.72 14.07a21.82 21.82 0 0 0 6.81-1.7 15.4 15.4 0 0 0 6.83-5.63A19.29 19.29 0 0 0 40.7 4a10.08 10.08 0 0 0 2.44 2.25c-2 4.21-4.14 6.92-7.29 9a25 25 0 0 1-8.76 3.45 7.47 7.47 0 0 0-1.52.39zm2-14.28a32.36 32.36 0 0 1 5.94 4.44l-2 2.51a24 24 0 0 0-5.86-4.67zM66.1 3.17a3.3 3.3 0 0 0-.39 1C64.56 8.6 63.2 11.36 61 13.84a22.4 22.4 0 0 1-8.55 5.87 8.5 8.5 0 0 0-2-2.74 18.68 18.68 0 0 0 5-2.34 16 16 0 0 0 7-10h-11a17.45 17.45 0 0 0-2.89.14v-3a16 16 0 0 0 2.94.16h10.57a8.52 8.52 0 0 0 2.46-.23zM86.52 5.5a4.54 4.54 0 0 0-.78.75A30.59 30.59 0 0 1 81.46 10v7.81a12.59 12.59 0 0 0 .12 2.21h-3a14.25 14.25 0 0 0 .11-2.19v-6.15a31.8 31.8 0 0 1-6.5 2.92 9.41 9.41 0 0 0-1.43-2.39 24 24 0 0 0 5.45-2.07 25.92 25.92 0 0 0 6.53-4.67 8.44 8.44 0 0 0 1.4-1.65zM98.08.85A49.37 49.37 0 0 0 97.85 6c-.16 4.49-.66 7.08-1.86 9.45a14.6 14.6 0 0 1-3.17 4.26 8.14 8.14 0 0 0-2.32-2.23 9.46 9.46 0 0 0 2.36-2.65c1.66-2.64 2.19-5.61 2.19-12A11.8 11.8 0 0 0 95 .69zm6.1-.27a11.6 11.6 0 0 0-.18 2.18l-.12 13.08a9.3 9.3 0 0 0 3.52-2.62A11.15 11.15 0 0 0 109.67 9a9.88 9.88 0 0 0 2.16 2.17 14.17 14.17 0 0 1-3.65 5.35 15.1 15.1 0 0 1-4.9 2.76c-.5.19-.69.28-1 .42l-1.47-1.57a10.63 10.63 0 0 0 .21-2.43l.11-13v-.65a9.86 9.86 0 0 0-.09-1.52z" id="SVG"/></g></svg>