<svg xmlns="http://www.w3.org/2000/svg" viewBox="0 0 46.83 21.45"><defs><style>.cls-1{fill:#fff}</style></defs><title>sp-menu3</title><g id="Layer_2" data-name="Layer 2"><path class="cls-1" d="M2.32 2.94A14.92 14.92 0 0 0 0 3.06V.57a14.82 14.82 0 0 0 2.32.14h7.57a15.52 15.52 0 0 0 2.37-.14v2.49a18.39 18.39 0 0 0-2.35-.12H7.38a17.83 17.83 0 0 1-.92 2.39h3.11a12.32 12.32 0 0 0 2-.11 21.09 21.09 0 0 0-.09 2.23v11c0 1.82-.62 2.39-2.57 2.39H7.82a9.15 9.15 0 0 0-.23-1.52h-1.1c.06-.69.09-1.58.09-2.41V7.5h-.9v9.82a20.08 20.08 0 0 0 .09 2.41H3.68c.07-.69.09-1.59.09-2.41V7.5h-.94v10.9a20.37 20.37 0 0 0 .11 2.69H.58a21 21 0 0 0 .11-2.69V7.45c0-.76 0-1.49-.07-2.21a17.81 17.81 0 0 0 2.19.09h1.12a11.2 11.2 0 0 0 1-2.39zm6.17 13.94v1.68h.14a3.21 3.21 0 0 0 .39 0c.3 0 .41-.14.41-.53V7.5h-1zm5.74-1.77A21.87 21.87 0 0 0 12 9.36l2-1a27.27 27.27 0 0 1 2.44 5.68zm-.16-8.26a12.77 12.77 0 0 0-2 .14v-2.6a10.07 10.07 0 0 0 2 .14h2.78V2.71A21.06 21.06 0 0 0 16.74 0h2.74a20.25 20.25 0 0 0-.14 2.71v1.82a16.09 16.09 0 0 0 2.05-.14V7a12.13 12.13 0 0 0-2.05-.14v11.56c0 2-.62 2.48-3.47 2.48-.72 0-1.36 0-2.07-.07a9.92 9.92 0 0 0-.6-2.55 22.68 22.68 0 0 0 2.74.21c.71 0 .94-.14.94-.62v-11zm30.05 9.94l-2 1.44a22.4 22.4 0 0 0 4.71.76 6.74 6.74 0 0 0-1.24 2.28c-4-.53-6.39-1.49-8.28-3.33v2c-1.58.34-2.85.57-4.48.8l-2.55.4a7.8 7.8 0 0 0-.85.18l-.37-2.53h.6c.3 0 .59 0 1.93-.14V16h-2a12 12 0 0 1-2.23 5.49c-.27-.29-.27-.29-1.08-1.24a8.82 8.82 0 0 0-.87-.8c1.49-1.89 2.05-4 2.05-7.73a17.06 17.06 0 0 0-.1-2.11c.76.06 1.34.09 2.4.09h13.51a20.38 20.38 0 0 0 2.27-.09v1.95a18.75 18.75 0 0 0-2.23-.09H29.88c0 1.33 0 1.77-.09 2.83h13.89a13.91 13.91 0 0 0 2.21-.12v1.91a16.57 16.57 0 0 0-2.23-.09h-1.22zM29.91 2.46a20.09 20.09 0 0 0-2.3.09V.32a18.53 18.53 0 0 0 2.46.12h12.3a18.49 18.49 0 0 0 2.44-.12v2.23a20 20 0 0 0-2.3-.09h-5.25v.69H44a21.25 21.25 0 0 0 2.25-.09 12.28 12.28 0 0 0-.09 1.82V6a12 12 0 0 0 .11 1.93h-2.45V4.85h-6.56v2.21a11.28 11.28 0 0 0 .12 2h-2.67a13.29 13.29 0 0 0 .12-2V4.85h-6.3v3.06h-2.46A12.33 12.33 0 0 0 26.18 6V4.88a12.62 12.62 0 0 0-.09-1.82 20.25 20.25 0 0 0 2.28.09h6.46v-.69zm-.42 5.06a8.3 8.3 0 0 0 1.27.07h1.77a7.7 7.7 0 0 0 1.24-.07V9a8.76 8.76 0 0 0-1.24-.07h-1.77a9.61 9.61 0 0 0-1.27.07zm0-2a6.06 6.06 0 0 0 1.26.07h1.77a7.46 7.46 0 0 0 1.24-.07V7a6.11 6.11 0 0 0-1.24-.07h-1.74a8.68 8.68 0 0 0-1.26.07zM30.94 12a14.76 14.76 0 0 0 2.14.09h8.71a14.76 14.76 0 0 0 2.14-.09v1.68a15.45 15.45 0 0 0-2.16-.09H33.1a15.36 15.36 0 0 0-2.16.09zM34 18.35c1.22-.21 1.22-.21 3.13-.6A6.61 6.61 0 0 1 35.82 16H34zM42.85 7a8.38 8.38 0 0 0-1.24-.07H39.5a8.83 8.83 0 0 0-1.27.07V5.47a6.17 6.17 0 0 0 1.27.07h2.11a5.85 5.85 0 0 0 1.24-.07zm0 2a10 10 0 0 0-1.24-.07H39.5a10.58 10.58 0 0 0-1.27.07V7.52a8.83 8.83 0 0 0 1.27.07h2.11a6.21 6.21 0 0 0 1.24-.07zm-4.53 7a6.37 6.37 0 0 0 1.75 1.47A9.83 9.83 0 0 0 41.7 16z" id="SVG"/></g></svg>