<svg xmlns="http://www.w3.org/2000/svg" viewBox="0 0 192.61 41.55"><defs><style>.cls-1{fill:#231815}</style></defs><title>sp-risuta2</title><g id="Layer_2" data-name="Layer 2"><g id="SVG"><path class="cls-1" d="M23.12 41.55a5.66 5.66 0 0 1-5.43-3.89c-.54-1.61-.91-3.22-1.27-4.77-1.11-4.85-2-7.82-5.7-7.82A6 6 0 0 0 8 25.6v14.7a.58.58 0 0 1-.58.58H.58A.58.58 0 0 1 0 40.3v-39A.58.58 0 0 1 .58.67H13.4c9 0 12.13 6.44 12.13 12.47 0 4.5-2 8.46-5.09 10.32 1.71 1.71 2.94 5.23 3.82 8.11l.1.32c.64 2.07 1.15 3.43 2.45 3.43a3.42 3.42 0 0 0 .81-.11.39.39 0 0 1 .15 0 .55.55 0 0 1 .35.12.56.56 0 0 1 .23.46v4a.59.59 0 0 1-.31.51 10.38 10.38 0 0 1-4.92 1.25zM8 18h5.2c2.81 0 4.36-1.74 4.36-4.89S16 8.24 13.2 8.24H8z"/><rect class="cls-1" x="39.96" y=".67" width="8.04" height="40.21" rx=".58" ry=".58"/><path class="cls-1" d="M72.94 41.55c-5.37 0-8.3-2.14-10.88-4l-.68-.5a.58.58 0 0 1-.24-.47v-7.13a.57.57 0 0 1 .36-.53.55.55 0 0 1 .63.12C65.38 32.23 69.1 34 72.6 34a4.25 4.25 0 0 0 4.56-4.49c0-1.95-1.62-3.62-5-5.09l-.16-.1c-5-2.3-10.75-4.9-10.75-12.79C61.28 4.74 66.07 0 72.94 0a19.63 19.63 0 0 1 8.93 2.45.58.58 0 0 1 .32.52v6.56a.58.58 0 0 1-.3.5.6.6 0 0 1-.28.08.59.59 0 0 1-.31-.11 14.28 14.28 0 0 0-7.89-2.45c-2.61 0-4.22 1.49-4.22 3.89 0 2.25 2.11 3.39 4.28 4.36 5.2 2.33 11.67 5.24 11.67 13.8 0 7.27-4.79 11.95-12.2 11.95zm36.58 0c-7.82 0-12.87-4.89-12.87-12.46V1.25a.58.58 0 0 1 .58-.58h6.88a.58.58 0 0 1 .58.58v27.84c0 3.15 1.72 4.89 4.83 4.89s4.82-1.74 4.82-4.89V1.25a.58.58 0 0 1 .58-.58h6.89a.58.58 0 0 1 .58.58v27.84c0 7.57-5.05 12.46-12.87 12.46zm32.08-.67a.58.58 0 0 1-.58-.58V8.24h-7.6a.58.58 0 0 1-.58-.58V1.25a.58.58 0 0 1 .58-.58h23.24a.58.58 0 0 1 .58.58v6.41a.58.58 0 0 1-.58.58h-7.6V40.3a.58.58 0 0 1-.58.58zm43.85 0a.58.58 0 0 1-.56-.42L183 33.58h-11.79l-1.9 6.88a.57.57 0 0 1-.55.42h-6.58a.58.58 0 0 1-.56-.73l10.68-39a.57.57 0 0 1 .55-.43h8.5a.58.58 0 0 1 .56.43l10.68 39.05a.6.6 0 0 1-.1.5.56.56 0 0 1-.46.23zM173.28 26h7.64l-3.82-14.07z"/></g></g></svg>