<svg xmlns="http://www.w3.org/2000/svg" viewBox="0 0 295.53 36.57"><defs><style>.cls-1{fill:#73c3c4}</style></defs><title>sp-toptext</title><g id="Layer_2" data-name="Layer 2"><path class="cls-1" d="M10.64 10.79A16.17 16.17 0 0 0 16.13 14a9 9 0 0 0-1.44 1.75 16.78 16.78 0 0 1-5.58-4v4.13H7v-4.02a16.6 16.6 0 0 1-5.47 3.85A10.92 10.92 0 0 0 .15 14a15.39 15.39 0 0 0 5.36-3.22H2.07V4.3H7v-1H.63V1.44H7V.05h2.11v1.39h6.55v1.89H9.11v1h5.19v6.49zM4 6.82h3v-1H4zm0 2.46h3v-1H4zm5.11-3.47v1h3.13v-1zm3.13 2.43H9.11v1h3.13zm11.54 3.28a15.48 15.48 0 0 1-3.3 3.78 14.2 14.2 0 0 0-1.64-1.17 10.38 10.38 0 0 0 2.87-3.27zm10.51-7.93h-15V1.67h6.38V0h2.14v1.67h6.46zm-6.46 6.61v3.59c0 1-.19 1.53-.94 1.81a9.18 9.18 0 0 1-3.11.31 8.17 8.17 0 0 0-.64-1.91h2.21c.28 0 .37-.07.37-.29V10.2h-4.47V4.78h11.24v5.42zm-4.56-1.73h7.07v-2h-7.07zm8.26 2.39a27.39 27.39 0 0 1 3.08 3.59l-2 1a25.58 25.58 0 0 0-2.94-3.7zM42 1.46A13.53 13.53 0 0 0 41.63 3a41.42 41.42 0 0 0-.81 6.17 8.33 8.33 0 0 0 .06 1.09c.24-.6.51-1.16.75-1.7l1.06.81a39.69 39.69 0 0 0-1.21 4.13 5 5 0 0 0-.1.78v.7l-1.94.14a21.56 21.56 0 0 1-.66-5.51 46.12 46.12 0 0 1 .7-6.66 12.28 12.28 0 0 0 .17-1.65zm4 8.31a5.9 5.9 0 0 0-.2 1.42c0 .74.65 1.19 2.35 1.19a19.12 19.12 0 0 0 4.21-.45v2.28a23.78 23.78 0 0 1-4.35.34c-2.91 0-4.28-1.05-4.28-2.77a10.31 10.31 0 0 1 .29-2.19zm5.89-7.2v2.17a45.92 45.92 0 0 1-7.23 0V2.57a34.43 34.43 0 0 0 7.21 0zM56 7.82a19.78 19.78 0 0 0 .83-4.44l1.45.19a22.2 22.2 0 0 1-.77 4.78zm5.1-1.07a15.86 15.86 0 0 0-.77-2.3v11.44h-2V0h2v3.2l.92-.39a18.8 18.8 0 0 1 1.33 3.21zM68 9.5a7.57 7.57 0 0 0 4.35 4.56A8 8 0 0 0 70.94 16a8.82 8.82 0 0 1-4.42-5 9.26 9.26 0 0 1-4.32 5 8.37 8.37 0 0 0-1.43-1.57 7.14 7.14 0 0 0 4.14-4.93h-3.39V7.58h3.66V4.47H62.3V2.6h2.93V0h2v2.6H71v5h1v1.9zM67.27 6v1.55H69V4.47h-1.73zm11.66 6.05c.66 1.14 1.85 1.62 3.59 1.68 2 .09 6 0 8.39-.15a9.63 9.63 0 0 0-.62 2c-2.11.11-5.72.14-7.79 0s-3.38-.57-4.4-1.88c-.68.66-1.38 1.31-2.25 2l-.95-2a19.66 19.66 0 0 0 2.1-1.51V8.48h-1.9V6.63h3.82zm-1.21-7.61a12.84 12.84 0 0 0-2.55-2.83L76.72.46a14.74 14.74 0 0 1 2.67 2.7zm4.17-1.67h-2.25V1.21H84V0h2v1.21h4.59v1.56h-2c-.22.44-.43.83-.61 1.19h2.21v7.29c0 .82-.14 1.26-.68 1.57a5.47 5.47 0 0 1-2.3.29 6.17 6.17 0 0 0-.39-1.35h-2.67v.51h-1.38V8.53h1.57V7.6h-2V6.37h2v-.88H81.9V13h-1.81V4H82a4.22 4.22 0 0 0-.42-1.12zM86.12 4c.15-.36.31-.8.44-1.19h-3.11A3.75 3.75 0 0 1 83.86 4zM86 9.67h-1.85v.94H86zm2.33-4.18h-2.55v.88h2V7.6h-2v.93h1.6v3h.68c.19 0 .25-.07.25-.27zm9.81-4.03A13.53 13.53 0 0 0 97.73 3a41.42 41.42 0 0 0-.81 6.17 8.33 8.33 0 0 0 .08 1.05c.24-.6.51-1.16.75-1.7l1.06.81a39.69 39.69 0 0 0-1.21 4.13 5 5 0 0 0-.1.78v.7l-1.94.14a21.56 21.56 0 0 1-.66-5.51 46.12 46.12 0 0 1 .7-6.66 12.28 12.28 0 0 0 .17-1.65zm3.94 8.31a5.9 5.9 0 0 0-.2 1.42c0 .74.65 1.19 2.35 1.19a19.12 19.12 0 0 0 4.21-.45v2.28a23.78 23.78 0 0 1-4.35.34c-2.91 0-4.28-1.05-4.28-2.77a10.31 10.31 0 0 1 .29-2.19zm5.92-7.2v2.17a45.92 45.92 0 0 1-7.23 0V2.57a34.43 34.43 0 0 0 7.23 0zm10-1.89A27.33 27.33 0 0 1 116.45 4v11.9h-1.92v-9a16.22 16.22 0 0 1-1.41 1.6 13.34 13.34 0 0 0-1.06-2.05 18.1 18.1 0 0 0 4.1-6.36zm10.3 12.78v1.91h-11v-1.91h4.52v-3.38h-3.58v-1.9h3.58v-3h-4.13V3.31h4.83a27.81 27.81 0 0 0-2.84-1.87L121.06 0a23.78 23.78 0 0 1 3.84 2.46l-.75.85H128v1.91h-4.13v3h3.67v1.9h-3.67v3.38zm15.84 1.06a12.74 12.74 0 0 0-3.4-2.33v.59c0 1.45-1.09 2.55-3.32 2.55-2.68 0-4.11-1-4.11-2.8s1.56-2.89 4.17-2.89h1c0-.51-.05-1-.07-1.53h-.86c-1 0-2.93-.09-4-.22v-2a30 30 0 0 0 4.06.31h.8V4.5h-.8a28.53 28.53 0 0 1-3.61-.25V2.33a22.7 22.7 0 0 0 3.65.32h.84v-.76a6.55 6.55 0 0 0-.09-1.16h2.3a10 10 0 0 0-.12 1.19v.66a35.09 35.09 0 0 0 4-.4l.05 1.93c-1.1.11-2.46.24-4.08.33v1.75c1.7-.07 3.11-.22 4.48-.39v2c-1.51.17-2.82.28-4.45.34 0 .62.07 1.3.12 1.95a13 13 0 0 1 4.71 2.55zm-5.54-3a8.75 8.75 0 0 0-1.38-.12c-1.19 0-1.83.46-1.83 1s.59 1 1.75 1c.9 0 1.48-.28 1.48-1.24 0-.16 0-.38-.02-.67zm19.77-4.69a14.84 14.84 0 0 0-4.38.82c-.5.15-1.14.41-1.64.58l-.63-2.4a15.68 15.68 0 0 0 1.84-.29 23.49 23.49 0 0 1 5.08-.76c2.67 0 4.54 1.51 4.54 4.14 0 3.61-3.33 5.85-8 6.5L154 13.31c4.18-.48 6.85-1.84 6.85-4.47-.05-1.11-.85-2.02-2.48-2.01zm3.4-5.32l-.34 2.08c-2-.14-5.63-.46-7.56-.8l.34-2a48.06 48.06 0 0 0 7.56.72zm10.47 14.09a31.63 31.63 0 0 0-3.65-3.75l1.77-1.53a31.63 31.63 0 0 1 3.7 3.72zM14.43 32.2h-2.06v-1H4.16a8.81 8.81 0 0 1-2.58 5.4A7.1 7.1 0 0 0 0 35.16c2.11-1.89 2.29-4.61 2.29-6.68v-3.74h12.14zm1.14-10.76v1.94H.73v-1.94zM4.35 26.61v2.69h8v-2.69zm19.86-.03A23.37 23.37 0 0 1 23 32.63c1.58 1.26 3.72 1.51 6.21 1.53h5.69a7 7 0 0 0-.78 2h-5c-2.87 0-5.18-.34-7-1.7a7.28 7.28 0 0 1-1.89 2.19 7.21 7.21 0 0 0-1.51-1.36 6.54 6.54 0 0 0 2-2.28 11.33 11.33 0 0 1-1.6-3.29l1.58-.58a8.34 8.34 0 0 0 .87 1.86 17.72 17.72 0 0 0 .6-2.86H21l-.22.5-1.78-.5c.73-1.49 1.54-3.33 2.17-4.81h-2.25v-1.77H22l.31-.07 1.37.38c-.51 1.32-1.2 2.94-1.9 4.49h.85l.36-.05zm3.7-3.33H24.8v-1.53h3.11v-1h2v1h3.54v2.22h1.25v1.55h-1.28v2.23h-3.54v.74h3.68v1.47h-3.68v.79h4.46v1.59h-4.46v1.37h-2v-1.37h-4v-1.59h4v-.79h-3.26v-1.47h3.29v-.74h-3.19v-1.53h3.19v-.7h-4.26v-1.55h4.26zm2 0v.69h1.55v-.69zm1.55 2.24h-1.58v.7h1.55zM40 23.28c1.39-.14 4.18-.37 7.26-.65 1.73-.13 3.58-.23 4.76-.29v2.18a17.65 17.65 0 0 0-3.24.22 5.13 5.13 0 0 0-3.55 4.71c0 2.77 2.6 3.76 5.43 3.91l-.78 2.33c-3.57-.24-6.88-2.14-6.88-5.78a6.72 6.72 0 0 1 2.48-5.19c-1.45.16-5 .53-7 1l-.2-2.32c.72-.05 1.33-.09 1.72-.12zM61.52 22c0 .37-.05.75-.05 1.29V29c0 .43 0 1.09.05 1.48H59c0-.32.08-1 .08-1.49v-5.71A11.78 11.78 0 0 0 59 22zm7.84-.16c0 .48-.07 1-.07 1.7v3.36c0 3.65-.71 5.22-2 6.61a9.88 9.88 0 0 1-4.1 2.49l-1.79-1.89A8 8 0 0 0 65.57 32c1.15-1.28 1.37-2.55 1.37-5.21v-3.26a11.77 11.77 0 0 0-.1-1.7zm18.48 2.65a23.6 23.6 0 0 1-3.2 6.23 16.82 16.82 0 0 1-6.44 4.93l-1.94-2a14.88 14.88 0 0 0 6.46-4.42 17.36 17.36 0 0 0 3.21-7.35l2.66.68a17.44 17.44 0 0 0-.75 1.93zm7.27 4.42c.79-.79 2.11-2.45 3.27-3.85 1-1.2 1.94-1.32 3.33-.15a45.13 45.13 0 0 1 3.47 3.45c1.14 1.24 3 3.18 4.18 4.59l-1.82 2c-1.09-1.39-2.63-3.28-3.64-4.45a36.67 36.67 0 0 0-3.13-3.37c-.59-.51-.88-.51-1.37.11-.66.85-1.89 2.53-2.59 3.46-.39.53-.79 1.14-1.08 1.58l-2-2.05c.5-.46.87-.81 1.38-1.32zM106.76 26l-1.53.66a15.66 15.66 0 0 0-1.55-2.77l1.48-.61a26.21 26.21 0 0 1 1.6 2.72zm2.33-1l-1.48.72A18.33 18.33 0 0 0 106 23l1.46-.66a25.57 25.57 0 0 1 1.63 2.66zm4.28 2.16c.61.05 1.86.1 2.74.1h9.13c.78 0 1.54-.07 2-.1v2.66c-.41 0-1.28-.08-2-.08h-9.13c-1 0-2.11 0-2.74.08zm23.63.67l-1.24 1.91a43.55 43.55 0 0 0-3.88-2.41l1.24-1.89c1.16.61 3.03 1.78 3.88 2.39zm1.38 3.9a17.37 17.37 0 0 0 6.62-6.38l1.31 2.32a20.59 20.59 0 0 1-6.77 6.1 21 21 0 0 1-5.68 2.11l-1.27-2.25a19 19 0 0 0 5.81-1.9zm1.26-7.73l-1.28 1.89c-1-.66-2.72-1.82-3.84-2.45l1.24-1.87c1.12.62 2.99 1.81 3.88 2.43zm23.01 11.14v1.16h-2.14a6.55 6.55 0 0 0 0-.68h-6.41c-.47 0-1.17 0-1.46.05v-2.09c.29 0 .87.07 1.48.07h6.43v-2.26h-7.28v-2h7.28v-1.98h-5.61c-.63 0-1.7 0-2.11.07v-2.06c.44 0 1.48.09 2.11.09h7.73v1.14zm13.74-3.94a16.16 16.16 0 0 0 6.19-6.61L183.9 27a18 18 0 0 1-6.29 6.28 18.27 18.27 0 0 1-6.3 2.4l-1.43-2.24a17.57 17.57 0 0 0 6.51-2.24zm0-5.51l-1.73 1.79a35.43 35.43 0 0 0-4.25-3.67l1.6-1.7a36 36 0 0 1 4.38 3.58zm26.42 6.87h-3.66v2c0 1-.2 1.43-.91 1.7a10.2 10.2 0 0 1-3.08.27 6.94 6.94 0 0 0-.63-1.77h2.26c.26 0 .38-.09.38-.31v-1.89h-5.53a11.39 11.39 0 0 1 2.24 2.06l-1.61 1.19a12.52 12.52 0 0 0-2.43-2.38l1.22-.87h-3.64v-1.7h9.75V30h-8.11v-5.82h5v-.76h-6.23v-1.65h6.23v-1.12h2v1.12h6.37v1.65H196v.76h5.21V30h-2.09v.9h3.66zm-11.88-6.14h3.12v-.86h-3.12zm0 2.16h3.12v-.86h-3.12zm5.1-3v.86h3.24v-.86zm3.24 2.16H196v.86h3.24zm13.91.11h-4.47v8.65h-2V21.31h6.48zm-4.47-4.91v.88h2.58v-.88zm2.58 3.3v-1h-2.58v1zm9.71 7.82c0 1.15-.24 1.75-1 2a9.2 9.2 0 0 1-3.5.38 7.46 7.46 0 0 0-.72-2.08c1.07.07 2.33.05 2.69.05s.48-.11.48-.44V27.9h-4.61v-6.59H221zm-4.73-11.12v.88H219v-.88zm2.73 3.33v-1h-2.69v1zm18.59-3.06l1.07.7a8.41 8.41 0 0 0-.37 1.17 17.11 17.11 0 0 1-2.55 6.19A13.44 13.44 0 0 1 228.9 36l-1.85-2a11.13 11.13 0 0 0 6.66-4 10.85 10.85 0 0 0 2-4.79h-7.91c-.78 0-1.58 0-2 .07v-2.4a18.31 18.31 0 0 0 2 .14h7.87a6.15 6.15 0 0 0 .8 0c-.29-.56-.63-1.15-.95-1.65l1.39-.57a23.12 23.12 0 0 1 1.31 2.24zm1.7-2.94c.43.61 1 1.65 1.36 2.24l-1.41.62a19.06 19.06 0 0 0-1.36-2.28zm18.79 6.65a6.24 6.24 0 0 0-.33.71 12.26 12.26 0 0 1-2.51 4.71 12.79 12.79 0 0 1-6.07 3.66l-1.7-1.92a11.5 11.5 0 0 0 5.9-3 7.56 7.56 0 0 0 1.75-2.94h-8.21c-.41 0-1.26 0-2 .08v-2.17c.71.07 1.44.1 2 .1h8.41a3.61 3.61 0 0 0 1.24-.17zM246.5 22a14 14 0 0 0 1.77.08h6.54a15.69 15.69 0 0 0 1.84-.08v2.19c-.46 0-1.26-.05-1.87-.05h-6.51c-.55 0-1.28 0-1.77.05zm23.39 9.2a16.16 16.16 0 0 0 6.19-6.61L277.4 27a18 18 0 0 1-6.29 6.28 18.27 18.27 0 0 1-6.3 2.4l-1.43-2.24a17.57 17.57 0 0 0 6.51-2.24zm0-5.51l-1.73 1.79a35.43 35.43 0 0 0-4.25-3.67l1.6-1.7a36 36 0 0 1 4.38 3.58zm17.36.67a58 58 0 0 1 7.1 2.65l-1 2.36a46.3 46.3 0 0 0-6.15-2.53v4.81c0 .47.08 1.66.17 2.36h-2.67a18.73 18.73 0 0 0 .17-2.36v-9.78a11.82 11.82 0 0 0-.17-2.05h2.65a17.91 17.91 0 0 0-.15 2.05zm4.52-.75a13.79 13.79 0 0 0-1.5-2.62l1.43-.61a27.81 27.81 0 0 1 1.55 2.62zm2.33-.95a16.33 16.33 0 0 0-1.58-2.55l1.41-.67a22.41 22.41 0 0 1 1.6 2.52z" id="SVG"/></g></svg>