<svg xmlns="http://www.w3.org/2000/svg" viewBox="0 0 567.39 98.41"><defs><style>.cls-1{fill:#fff}.cls-2{fill:#73c6c7}</style></defs><title>sp-talk1</title><g id="Layer_2" data-name="Layer 2"><g id="SVG"><path class="cls-1" d="M283.7 96.91c-.38 0-.83-.39-1.2-1l-9-15.6a11.08 11.08 0 0 0-8.8-5.08H5a3.5 3.5 0 0 1-3.5-3.5V5A3.5 3.5 0 0 1 5 1.5h557.39a3.5 3.5 0 0 1 3.5 3.5v66.69a3.5 3.5 0 0 1-3.5 3.5H302.7a11.07 11.07 0 0 0-8.79 5.08l-9 15.6c-.39.65-.84 1.04-1.21 1.04z"/><path class="cls-2" d="M562.39 3a2 2 0 0 1 2 2v66.69a2 2 0 0 1-2 2H302.71a12.51 12.51 0 0 0-10.1 5.83L283.7 95l-8.91-15.43a12.51 12.51 0 0 0-10.1-5.83H5a2 2 0 0 1-2-2V5a2 2 0 0 1 2-2h557.39m0-3H5a5 5 0 0 0-5 5v66.69a5 5 0 0 0 5 5h259.69a9.62 9.62 0 0 1 7.5 4.33l9 15.61a2.65 2.65 0 0 0 5 0l9-15.61a9.6 9.6 0 0 1 7.5-4.33h259.7a5 5 0 0 0 5-5V5a5 5 0 0 0-5-5z"/><path class="cls-2" d="M46.83 39.56a12.33 12.33 0 0 0-.51 3c0 1.89 1.8 3.27 6.09 3.27a42.13 42.13 0 0 0 10.44-1.17v4.17a45.36 45.36 0 0 1-10.32 1c-6.81 0-10.23-2.28-10.23-6.36a19.11 19.11 0 0 1 .6-4.29zM44.31 27a77.86 77.86 0 0 0 8.1.36c2.94 0 6.33-.18 8.61-.42v4c-2.07.15-5.76.36-8.58.36-3.12 0-5.7-.15-8.13-.33zm42.93.53c-1.47 2.13-3.72 6.27-5.19 8.88a6.76 6.76 0 0 1 3.39-.9c2.22 0 3.57 1.44 3.69 3.9.06 1.32 0 3.72.15 5A1.68 1.68 0 0 0 91.17 46c2.55 0 4.17-3.33 5-7l3.21 2.61c-1.53 5.13-4.29 8.49-8.88 8.49-3.24 0-4.8-2-4.92-4.14-.12-1.59-.09-4-.18-5.22a1.6 1.6 0 0 0-1.74-1.65c-2 0-3.69 2-4.74 4.47a57.34 57.34 0 0 0-2.25 6.6l-4.2-1.41c2.19-5.94 8.46-18.42 10-21.24.39-.81.93-1.77 1.47-3l4.23 1.71c-.27.29-.6.83-.93 1.31zm33.69 3.69a43.54 43.54 0 0 1-5.16 1A54.84 54.84 0 0 1 109.41 45l-3.63-1.83a45.33 45.33 0 0 0 6.06-10.5h-1.53c-1.23 0-2.43 0-3.72-.09l-.27-3.48a37.76 37.76 0 0 0 4 .21c.87 0 1.77 0 2.67-.09a25.3 25.3 0 0 0 .81-5l4.11.42c-.24 1-.6 2.46-1 4.05a31.38 31.38 0 0 0 4-.93zm3.9 2.67c-.09 1.26 0 2.49 0 3.81 0 .84.09 2.28.18 3.75a19.79 19.79 0 0 1 6.15 3.81l-2 3.18a26.45 26.45 0 0 0-4-3.15v.27c0 2.76-1.5 4.92-5.73 4.92-3.69 0-6.6-1.65-6.6-4.92 0-2.91 2.43-5.16 6.57-5.16.69 0 1.38.06 2 .12-.09-2.22-.24-4.83-.33-6.63zm-3.27 9.84a10.51 10.51 0 0 0-2.4-.3c-1.71 0-2.82.72-2.82 1.77s.93 1.86 2.55 1.86c2 0 2.67-1.17 2.67-2.76zm8.37-8.25a39.61 39.61 0 0 0-7.14-4.23l1.92-2.94a53.46 53.46 0 0 1 7.32 4zm15.66-9.66a25 25 0 0 0-.72 2.64 73.45 73.45 0 0 0-1.44 10.89 14.34 14.34 0 0 0 .12 1.92c.42-1.05.9-2 1.32-3l1.86 1.44A71.63 71.63 0 0 0 144.6 47a8.73 8.73 0 0 0-.18 1.38c0 .33 0 .81.06 1.23l-3.42.24a37.93 37.93 0 0 1-1.17-9.72 82.37 82.37 0 0 1 1.23-11.76 22.2 22.2 0 0 0 .3-2.91zm7 14.67a9.78 9.78 0 0 0-.36 2.49c0 1.32 1.14 2.1 4.14 2.1a34.24 34.24 0 0 0 7.44-.78l.09 4a41.29 41.29 0 0 1-7.68.6c-5.13 0-7.56-1.86-7.56-4.89a18.31 18.31 0 0 1 .51-3.87zm10.38-12.72v3.84a82.23 82.23 0 0 1-12.75 0v-3.84a60.62 60.62 0 0 0 12.71 0zm34.85-1.98v3H171.6v-3h11.1v-2.52h3.63v2.52zm-1 21.75c0 1.65-.33 2.61-1.5 3.15s-2.7.57-4.86.57a10.12 10.12 0 0 0-.69-2.4h-7.74v1.35H179v-8.07h11.46V48h2.28c.28 0 .57-.12.57-.48v-6.73h-17v10.53h-3.51v-13.5h24.06zM192.9 30v6.6h-16.38V30zm-3.63 2.37h-9.36v1.83h9.36zm-2 12.18h-5.19v2h5.19zm17.6-6.73h11.43v13.35h-3.57v-1.35h-4.47v1.5h-3.39zm3.39 3.42v5.16h4.47v-5.16zm18.33-5.91H209V24.47h17.58zM223 27.89h-10.5v4.05H223zm7.68 9.93V51.2H227v-1.38h-4.77v1.5h-3.42v-13.5zM227 46.4v-5.16h-4.77v5.16zm28.78-.12c3.06 1.08 6.51 2.52 8.55 3.51l-4.14 1.59a59.15 59.15 0 0 0-7.8-3.54l2.7-1.56h-8.76l2.73 1.2a37.17 37.17 0 0 1-9.36 3.93 36.18 36.18 0 0 0-2.64-2.61 35.23 35.23 0 0 0 8.25-2.52h-4.44V34h10a8.53 8.53 0 0 0-2.07-2.19 7.39 7.39 0 0 0 1.74-1.5h-2.7v3.12h-3.18v-3.08H242a10 10 0 0 1-2.88 5 10.28 10.28 0 0 0-2.34-2.22 8.14 8.14 0 0 0 2.55-6.42V24l2.28.57a36.64 36.64 0 0 0 6.24-1.2l2.19 2.1a38.42 38.42 0 0 1-7.62 1.29v1.05h8.25v2.39a5.43 5.43 0 0 0 1-3.48V24l2.4.57a46.3 46.3 0 0 0 6.72-1.23l2.21 2.12a46.83 46.83 0 0 1-8.19 1.29v1.02h9.39v2.58h-3.78v3.15h-3.18v-3.15h-3a8 8 0 0 1-3.05 3.65H261v12.28zm-11.46-8.82h13v-1.29h-13zm0 3.33h13V39.5h-13zm0 3.33h13V42.8h-13zm41.61-12.9a43.54 43.54 0 0 1-5.16 1A54.84 54.84 0 0 1 274.41 45l-3.63-1.83a45.33 45.33 0 0 0 6.06-10.5h-1.53c-1.23 0-2.43 0-3.72-.09l-.27-3.48a37.76 37.76 0 0 0 4 .21c.87 0 1.77 0 2.67-.09a25.3 25.3 0 0 0 .81-5l4.11.42c-.24 1-.6 2.46-1 4.05a31.38 31.38 0 0 0 4-.93zm3.9 2.67c-.09 1.26 0 2.49 0 3.81 0 .84.09 2.28.18 3.75a19.79 19.79 0 0 1 6.15 3.81l-2 3.18a26.45 26.45 0 0 0-4-3.15v.27c0 2.76-1.5 4.92-5.73 4.92-3.69 0-6.6-1.65-6.6-4.92 0-2.91 2.43-5.16 6.57-5.16.69 0 1.38.06 2 .12-.09-2.22-.24-4.83-.33-6.63zm-3.27 9.84a10.51 10.51 0 0 0-2.4-.3c-1.71 0-2.82.72-2.82 1.77s.93 1.86 2.55 1.86c2 0 2.67-1.17 2.67-2.76zm8.37-8.25a39.61 39.61 0 0 0-7.14-4.23l1.92-2.94a53.46 53.46 0 0 1 7.32 4zm20.91 10.95c1.14-.15 2-.3 2.76-.48 3.81-.9 6.75-3.63 6.75-8 0-4.11-2.22-7.17-6.21-7.86a64.56 64.56 0 0 1-1.77 8.07c-1.77 6-4.35 9.66-7.59 9.66s-6.06-3.63-6.06-8.64c0-6.84 6-12.72 13.68-12.72 7.35 0 12 5.13 12 11.61 0 6.24-3.84 10.68-11.34 11.82zm-2.31-9a47.69 47.69 0 0 0 1.59-7.2 9.32 9.32 0 0 0-7.53 8.61c0 3 1.2 4.47 2.31 4.47s2.43-1.86 3.63-5.88zm30.06-11.61a25 25 0 0 0-.72 2.64 73.45 73.45 0 0 0-1.44 10.89 14.34 14.34 0 0 0 .12 1.92c.42-1.05.9-2 1.32-3l1.86 1.44A71.63 71.63 0 0 0 342.6 47a8.73 8.73 0 0 0-.18 1.38c0 .33 0 .81.06 1.23l-3.42.24a37.93 37.93 0 0 1-1.17-9.72 82.37 82.37 0 0 1 1.23-11.76 22.2 22.2 0 0 0 .3-2.91zm7 14.67a9.78 9.78 0 0 0-.36 2.49c0 1.32 1.14 2.1 4.14 2.1a34.24 34.24 0 0 0 7.44-.78l.09 4a41.29 41.29 0 0 1-7.68.6c-5.13 0-7.56-1.86-7.56-4.89a18.31 18.31 0 0 1 .51-3.87zm10.38-12.72v3.84a82.23 82.23 0 0 1-12.75 0v-3.84a60.62 60.62 0 0 0 12.71 0zm34.85-1.98v3H369.6v-3h11.1v-2.52h3.63v2.52zm-1 21.75c0 1.65-.33 2.61-1.5 3.15s-2.7.57-4.86.57a10.12 10.12 0 0 0-.69-2.4h-7.74v1.35H377v-8.07h11.46V48h2.28c.33 0 .57-.12.57-.48v-6.73h-17v10.53h-3.51v-13.5h24.06zM390.9 30v6.6h-16.38V30zm-3.63 2.37h-9.36v1.83h9.36zm-2 12.18h-5.19v2h5.19zm37.4-17.38c-.93.69-1.92 1.47-2.61 2-1.92 1.56-5.85 4.59-7.83 6.3-1.59 1.35-1.56 1.68.06 3.06 2.22 1.89 7.95 6.42 10.89 9.27l-3.45 3.2c-.84-.93-1.77-1.86-2.61-2.76-1.62-1.71-6.15-5.58-8.88-7.89-2.94-2.49-2.7-4.14.27-6.6 2.31-1.89 6.39-5.19 8.4-7.17a20.52 20.52 0 0 0 2.28-2.49zm28.26 4.05a43.54 43.54 0 0 1-5.16 1A54.84 54.84 0 0 1 439.41 45l-3.63-1.83a45.33 45.33 0 0 0 6.06-10.5h-1.53c-1.23 0-2.43 0-3.72-.09l-.27-3.48a37.76 37.76 0 0 0 4 .21c.87 0 1.77 0 2.67-.09a25.3 25.3 0 0 0 .81-5l4.11.42c-.24 1-.6 2.46-1 4.05a31.38 31.38 0 0 0 4-.93zm3.9 2.67c-.09 1.26 0 2.49 0 3.81 0 .84.09 2.28.18 3.75a19.79 19.79 0 0 1 6.15 3.81l-2 3.18a26.45 26.45 0 0 0-4-3.15v.27c0 2.76-1.5 4.92-5.73 4.92-3.69 0-6.6-1.65-6.6-4.92 0-2.91 2.43-5.16 6.57-5.16.69 0 1.38.06 2 .12-.09-2.22-.24-4.83-.33-6.63zm-3.27 9.84a10.51 10.51 0 0 0-2.4-.3c-1.71 0-2.82.72-2.82 1.77s.93 1.86 2.55 1.86c2 0 2.67-1.17 2.67-2.76zm8.37-8.25a39.61 39.61 0 0 0-7.14-4.23l1.92-2.94a53.46 53.46 0 0 1 7.32 4zM474.21 31c0 1.92 0 4.17.18 6.3.42 4.29 1.32 7.2 3.18 7.2 1.41 0 2.58-3.48 3.15-5.82l3 3.6c-2 5.16-3.84 7-6.24 7-3.24 0-6.09-2.94-6.93-10.92-.27-2.73-.33-6.18-.33-8a17.22 17.22 0 0 0-.21-3l4.56.06a23.54 23.54 0 0 0-.36 3.58zm20.64 12.21l-3.93 1.5c-.45-4.77-2-11.76-5.28-15.42l3.78-1.29c2.82 3.43 5.1 10.6 5.43 15.16zM511.59 46a3.12 3.12 0 0 1 6.24 0 3.13 3.13 0 0 1-6.24 0zm.51-15.3l-.1-4.43h5.49l-.15 4.47L516.27 41h-3.09z"/></g></g></svg>