<svg xmlns="http://www.w3.org/2000/svg" viewBox="0 0 447.11 39.83"><defs><style>.cls-1{fill:#fff;}</style></defs><title>i-bantext2.svg</title><g id="Layer_2" data-name="Layer 2"><g id="SVG"><path class="cls-1" d="M4.77.45A24.12,24.12,0,0,1,3.24,3.66V13.72H2.13V5.38A15.83,15.83,0,0,1,.65,7.17,6.05,6.05,0,0,0,0,6.06,16.83,16.83,0,0,0,3.7.11ZM9.15,3.62V5.76h4.27v1H9.15V9.06h4.48v1H9.15v3.63H8V3.62H7A16.92,16.92,0,0,1,4.86,6.73,8.21,8.21,0,0,0,4,6,16,16,0,0,0,7.29.24L8.35.53c-.24.68-.52,1.36-.82,2h6.24V3.62Z"/><path class="cls-1" d="M19.51.81a28.29,28.29,0,0,0-.68,4.12c.58-1.52,2.14-3.37,4-3.37s3.41,2,3.41,5.1c0,4.13-2.6,5.94-6.29,6.61l-.7-1.08C22.48,11.7,25,10.41,25,6.67c0-2.34-.78-4-2.35-4-1.85,0-3.56,2.68-3.73,4.63a6.13,6.13,0,0,0,0,1.81l-1.17.09a19.29,19.29,0,0,1-.14-2.35A37.12,37.12,0,0,1,18.08,2c.05-.46.1-.91.11-1.28Z"/><path class="cls-1" d="M43.63,8.87H37.49v3.32c0,.8-.24,1.13-.8,1.31a11.56,11.56,0,0,1-3.09.19,5.65,5.65,0,0,0-.48-1.11c1.26.05,2.43,0,2.78,0s.46-.11.46-.42V8.87H30.2V7.77h6.16V5.34H31.2V4.28h5.16V2c-1.65.19-3.34.29-4.89.37a5.25,5.25,0,0,0-.28-1A49.89,49.89,0,0,0,41.33.08l.84.88a28.37,28.37,0,0,1-4.68.88V4.28h5.3V5.34h-5.3V7.77h6.14Z"/><path class="cls-1" d="M51.69,11.86A8.24,8.24,0,0,0,53,11.68a4.45,4.45,0,0,0,3.77-4.39A4.12,4.12,0,0,0,52.79,3a32.76,32.76,0,0,1-.89,4.27c-.91,3-2.1,4.62-3.48,4.62s-2.65-1.53-2.65-4a6.34,6.34,0,0,1,6.51-6A5.39,5.39,0,0,1,58,7.32c0,3.12-2,5.2-5.59,5.67ZM50.71,7a22.85,22.85,0,0,0,.83-4A5.18,5.18,0,0,0,47,7.8c0,1.87.87,2.7,1.51,2.7S50,9.51,50.71,7Z"/><path class="cls-1" d="M68,.87a17.62,17.62,0,0,1-2.17,3.71H67.8v1H65.05A14,14,0,0,1,63.63,7h3.5v6.45H66.06v-.68H62.7v.89h-1V8.54c-.38.25-.78.49-1.19.71a6.93,6.93,0,0,0-.7-.91,14.55,14.55,0,0,0,3.88-2.78H60.11v-1h3V2.78h-2.3v-1h2.3V.18h1V1.79H66v.82A17.67,17.67,0,0,0,67,.58Zm-2,7.06H62.7V9.39h3.36Zm0,3.93V10.29H62.7v1.57ZM64.58,4.58a19.12,19.12,0,0,0,1.3-1.8H64.13v1.8Zm9.22-3.2c-.63,1.41-1.46,3.12-2.17,4.5,1.57,1.39,2,2.56,2,3.63a2.1,2.1,0,0,1-.76,2,2.17,2.17,0,0,1-1,.34,8,8,0,0,1-1.39,0,2.73,2.73,0,0,0-.33-1.1,6.2,6.2,0,0,0,1.27,0,1.62,1.62,0,0,0,.71-.18c.33-.18.45-.63.43-1.17,0-.94-.46-2.07-2-3.37.64-1.28,1.34-2.86,1.82-4.07H69.53V13.75h-1.1V.9h4.4l.17,0Z"/><path class="cls-1" d="M82.37.09A17.88,17.88,0,0,0,89,5.45a5,5,0,0,0-.74,1,20.12,20.12,0,0,1-6.34-5.24A18.56,18.56,0,0,1,75.65,6.5,4.28,4.28,0,0,0,75,5.61,16.83,16.83,0,0,0,81.24.09Zm-5,7.7h9.12v6H85.35v-.61H78.46v.61H77.37Zm8.3-2.87v1H78.15v-1ZM78.46,8.79v3.34h6.89V8.79Z"/><path class="cls-1" d="M92,2.66c1-.09,3.79-.37,6.51-.61,1.62-.13,3-.21,4-.25V3a12.05,12.05,0,0,0-2.91.24,5.21,5.21,0,0,0-3.39,4.69c0,2.9,2.7,3.82,5.11,3.9l-.43,1.26C98.12,13,95,11.5,95,8.19a6,6,0,0,1,2.76-5c-1.3.15-5.35.54-7,.87l-.13-1.32Zm9.65,4.24-.77.36a13.76,13.76,0,0,0-1.22-2.12l.76-.33A19.91,19.91,0,0,1,101.61,6.9Zm1.71-.65-.78.37a12.31,12.31,0,0,0-1.28-2.09l.75-.35A21.26,21.26,0,0,1,103.32,6.25Z"/><path class="cls-1" d="M108.27,1.19a6.09,6.09,0,0,0-.25,1,35.42,35.42,0,0,0-.74,6,12.6,12.6,0,0,0,.14,2c.24-.68.58-1.56.83-2.16l.63.5c-.37,1-.89,2.54-1,3.28a3,3,0,0,0-.07.66,4.4,4.4,0,0,0,0,.51l-1.07.09a18,18,0,0,1-.57-4.71,46.27,46.27,0,0,1,.68-6.24,6.42,6.42,0,0,0,.1-1ZM117.93,12a11.28,11.28,0,0,0-2.23-1.7v.27A2.25,2.25,0,0,1,113.12,13c-2,0-3.09-.82-3.09-2.14s1.1-2.27,3-2.27a6.58,6.58,0,0,1,1.38.14c0-1.14-.13-2.56-.14-3.8-.49,0-.95,0-1.43,0-.84,0-1.62,0-2.49-.08V3.74a23.23,23.23,0,0,0,2.52.13l1.4,0V2a5.59,5.59,0,0,0-.08-.91h1.36c0,.29-.07.59-.09.89s0,1.1,0,1.78A18.35,18.35,0,0,0,118,3.42V4.59c-.82.13-1.69.22-2.57.29,0,1.48.12,3,.18,4.21A10.29,10.29,0,0,1,118.58,11Zm-3.42-2.21A4.77,4.77,0,0,0,113,9.55c-1.12,0-1.88.5-1.88,1.19s.72,1.15,1.79,1.15c1.26,0,1.62-.61,1.62-1.6A4.53,4.53,0,0,0,114.51,9.79Z"/><path class="cls-1" d="M128,3.6a17.13,17.13,0,0,1-2.68.54A26.93,26.93,0,0,1,122,10.42l-1.17-.59A21.93,21.93,0,0,0,124,4.28c-.44,0-.87,0-1.31,0s-1.17,0-1.73,0l-.08-1.13a14.85,14.85,0,0,0,1.83.1c.52,0,1.08,0,1.65-.07a12.44,12.44,0,0,0,.46-2.56l1.34.12c-.16.54-.35,1.43-.59,2.29a15.19,15.19,0,0,0,2.31-.54Zm1.74,1.73a14.41,14.41,0,0,0,0,1.6c0,.54.08,1.51.11,2.41a9.91,9.91,0,0,1,3.07,1.87l-.64,1a10.44,10.44,0,0,0-2.38-1.69c0,.22,0,.43,0,.6,0,1.18-.78,2.16-2.61,2.16-1.64,0-3-.68-3-2.15s1.29-2.25,3-2.25a7,7,0,0,1,1.41.14c0-1.22-.12-2.67-.15-3.7Zm-1,4.75a5.16,5.16,0,0,0-1.49-.21c-1.1,0-1.82.49-1.82,1.17s.55,1.15,1.71,1.15,1.62-.67,1.62-1.4C128.7,10.59,128.7,10.35,128.68,10.08Zm4-4.35a17.14,17.14,0,0,0-3.39-2l.59-.93a22.23,22.23,0,0,1,3.48,2Z"/><path class="cls-1" d="M145,1.58c-.33.24-.78.63-1,.84-1,.88-3.16,2.59-4.25,3.49-.9.78-.9,1,.06,1.8,1.35,1.08,4.09,3.36,5.55,4.8l-1.08,1c-.31-.35-.71-.73-1-1.08-.8-.87-3.28-3-4.67-4.12s-1.25-1.85.1-3c1.11-.94,3.36-2.72,4.36-3.73a6.22,6.22,0,0,0,.86-1Z"/><path class="cls-1" d="M153.5,13.44a23.93,23.93,0,0,0-3.32-3.35l1-.85a28.53,28.53,0,0,1,3.36,3.33Z"/><path class="cls-1" d="M162.12.41a22.75,22.75,0,0,1-1.53,3.09V13.69h-1.05V5.1a16.06,16.06,0,0,1-1.66,2A7.55,7.55,0,0,0,157.25,6,16.71,16.71,0,0,0,161.08.09Zm9.17,11.76v1.06h-9.66V12.17H166V8.42h-3.45V7.35H166V4.07H162V3h5.11A21.1,21.1,0,0,0,164,.81l.73-.8a21.74,21.74,0,0,1,3.3,2.27l-.64.73h3.64V4.07h-4V7.35h3.56V8.42h-3.56v3.75Z"/><path class="cls-1" d="M184.27,8.85c0,.79,0,1,0,1.61a2.25,2.25,0,0,1-1.93,2.41,16.7,16.7,0,0,1-3.08.28c-3,0-3.41-.72-3.41-1.81,0-.26,0-.5,0-.72a2.16,2.16,0,0,1-.46.05c-.84,0-1.92-.62-1.92-2.34a2.68,2.68,0,0,1,2.43-2.93c.13,0,.26,0,.38,0V4h-.52a17.43,17.43,0,0,1-2.37-.14l-.06-1.12a14.73,14.73,0,0,0,2.36.2c.19,0,.38,0,.59,0V2.16a6.57,6.57,0,0,0-.1-1.41h1.32a10.17,10.17,0,0,0-.09,1.41V2.8a16.36,16.36,0,0,0,2.83-.52V3.43a23.12,23.12,0,0,1-2.83.45V6.12a2.35,2.35,0,0,1,.37,1.32A4,4,0,0,1,177,10c0,.31,0,.67,0,.94,0,.83.19,1.13,2.35,1.13a11.84,11.84,0,0,0,2.52-.26,1.5,1.5,0,0,0,1.23-1.64,10.72,10.72,0,0,0-.1-1.69Zm-8.75.7c.85,0,1.18-1.05,1.18-2.05,0-.71-.36-1.12-.85-1.12-.74,0-1.37.78-1.37,1.88C174.48,9.09,175,9.55,175.52,9.55Zm7.19-7.31a16.33,16.33,0,0,1,3,2.74l-.84.85a17.31,17.31,0,0,0-2.9-2.8Z"/><path class="cls-1" d="M194.87.51c0,.2,0,.44,0,.69.14,2,.95,8.91,6.59,11.49a3.37,3.37,0,0,0-.83.91c-3.87-1.83-5.51-5.67-6.23-8.67a12.43,12.43,0,0,1-6,8.67,4.34,4.34,0,0,0-.9-.85c6.07-3.11,6.07-10.26,6.17-12.24Z"/><path class="cls-1" d="M209.19,11.86a8.24,8.24,0,0,0,1.27-.18,4.45,4.45,0,0,0,3.77-4.39A4.12,4.12,0,0,0,210.29,3a32.76,32.76,0,0,1-.89,4.27c-.91,3-2.1,4.62-3.48,4.62s-2.65-1.53-2.65-4a6.34,6.34,0,0,1,6.51-6,5.39,5.39,0,0,1,5.69,5.46c0,3.12-2.05,5.2-5.59,5.67Zm-1-4.86A22.85,22.85,0,0,0,209,3a5.18,5.18,0,0,0-4.59,4.8c0,1.87.87,2.7,1.51,2.7S207.45,9.51,208.21,7Z"/><path class="cls-1" d="M222.84,9.34a22.93,22.93,0,0,0-1.78-2v6.36H220V8a14,14,0,0,1-2.14,1.83,5.67,5.67,0,0,0-.57-1,13,13,0,0,0,4.45-4.92h-3.91v-1H220V.06h1.1V2.85h1.23l.19-.05.61.41a14,14,0,0,1-1.78,3.17c.66.55,1.9,1.72,2.22,2.06ZM230,12.69c.34,0,.41-.21.45-1.8a2.59,2.59,0,0,0,.92.42c-.11,1.86-.4,2.31-1.25,2.31h-1.39c-1,0-1.28-.3-1.28-1.35V9.17h-1.21c-.28,2.15-1,3.7-3.38,4.57a3.92,3.92,0,0,0-.64-.86,4,4,0,0,0,3-3.71H224V.81h6.25V9.17h-1.79v3.1c0,.36.07.42.42.42ZM225,3.3h4.16V1.74H225Zm0,2.46h4.16V4.17H225Zm0,2.47h4.16V6.64H225Z"/><path class="cls-1" d="M232.58,13.24a8.7,8.7,0,0,0,2-3l1,.27a10.38,10.38,0,0,1-2.07,3.21Zm11.81-3.88h-10V4.59h4.31V0h1.1V1.65h5.67V2.7h-5.67V4.59h4.56Zm-1.12-3.72h-7.78V8.31h7.78Zm-5.19,4.93a19.14,19.14,0,0,1,.38,2.9l-1.12.15a17.63,17.63,0,0,0-.32-2.95Zm3-.11a14.43,14.43,0,0,1,1.13,2.86l-1.08.25a14.27,14.27,0,0,0-1-2.89Zm3-.29a15.67,15.67,0,0,1,2,3l-1,.42a15.71,15.71,0,0,0-1.92-3.08Z"/><path class="cls-1" d="M249.46,2.66c1-.09,3.79-.37,6.51-.61,1.62-.13,3-.21,4-.25V3a12.05,12.05,0,0,0-2.91.24,5.21,5.21,0,0,0-3.39,4.69c0,2.9,2.7,3.82,5.11,3.9l-.43,1.26c-2.74-.12-5.88-1.59-5.88-4.9a6,6,0,0,1,2.76-5c-1.3.15-5.35.54-7,.87l-.13-1.32Zm9.65,4.24-.77.36a13.76,13.76,0,0,0-1.22-2.12l.76-.33A19.91,19.91,0,0,1,259.11,6.9Zm1.71-.65-.78.37a12.31,12.31,0,0,0-1.28-2.09l.75-.35A21.26,21.26,0,0,1,260.82,6.25Z"/><path class="cls-1" d="M275.45,6.12a24.66,24.66,0,0,1-3.11,2.11,8,8,0,0,0,3.85,3.38,4.8,4.8,0,0,0-.76,1c-2.84-1.29-4.57-4.14-5.51-7.69h0a10.79,10.79,0,0,1-1.53,1c2.86,2.48,2.89,6.33,1.42,7.35a2.21,2.21,0,0,1-1.59.5c-.36,0-.82,0-1.3,0a2.58,2.58,0,0,0-.32-1.07,13.65,13.65,0,0,0,1.4.08,1.43,1.43,0,0,0,1-.29,2.79,2.79,0,0,0,.49-2.77,21,21,0,0,1-6.17,3.36,5.39,5.39,0,0,0-.59-.93,17.13,17.13,0,0,0,6.43-3.41,5.3,5.3,0,0,0-.52-1,21.12,21.12,0,0,1-4.78,2.51,4.65,4.65,0,0,0-.6-.87,16.75,16.75,0,0,0,4.87-2.31,7.34,7.34,0,0,0-.69-.67,23.93,23.93,0,0,1-3.67,1.42,7,7,0,0,0-.62-.87,18.2,18.2,0,0,0,5.21-2.08h-3.2v-1h8.38v1h-2.63a13.62,13.62,0,0,0,1,2.5,24.11,24.11,0,0,0,2.71-2Zm-11.1-1.79h-1.1V1.38h5.58V.06h1.11V1.38h5.7v3H274.5V2.42H264.35Z"/><path class="cls-1" d="M279.48,4.59c1.26-.39,4.17-1.47,6.35-1.47,2.46,0,4.42,1.44,4.42,3.93,0,3.55-3.54,5.28-8.13,5.53l-.53-1.24c3.89-.11,7.36-1.28,7.36-4.3,0-1.57-1.15-2.79-3.16-2.79-2.42,0-6.22,1.63-7.39,2.11L277.85,5A14.63,14.63,0,0,0,279.48,4.59Zm10-1.68-.81.36a16.48,16.48,0,0,0-1.21-2.1l.79-.33A16.37,16.37,0,0,1,289.47,2.91Zm1.7-.63-.82.36A17.17,17.17,0,0,0,289.11.57l.78-.34A16.86,16.86,0,0,1,291.17,2.28Z"/><path class="cls-1" d="M302.45,1.58c-.33.24-.78.63-1,.84-1,.88-3.16,2.59-4.25,3.49-.9.78-.9,1,.06,1.8,1.35,1.08,4.09,3.36,5.55,4.8l-1.08,1c-.31-.35-.71-.73-1-1.08-.8-.87-3.28-3-4.67-4.12s-1.25-1.85.1-3c1.11-.94,3.36-2.72,4.36-3.73a6.22,6.22,0,0,0,.86-1Z"/><path class="cls-1" d="M312,.81a27.05,27.05,0,0,0-.69,4.12c.58-1.52,2.14-3.37,4-3.37s3.41,2,3.41,5.1c0,4.13-2.59,5.94-6.29,6.61l-.7-1.08c3.23-.49,5.74-1.78,5.74-5.52,0-2.34-.78-4-2.35-4-1.85,0-3.56,2.68-3.73,4.63a5.84,5.84,0,0,0,0,1.81l-1.17.09a17.18,17.18,0,0,1-.15-2.35,39,39,0,0,1,.45-4.8c.05-.46.1-.91.12-1.28Z"/><path class="cls-1" d="M329.63,10.57c0-.57.06-1.53.06-2.31-1.39.75-2.35,1.52-2.35,2.49,0,1.17,1.16,1.34,2.69,1.34a25.55,25.55,0,0,0,4.05-.36l0,1.21a37,37,0,0,1-4.06.24c-2.13,0-3.84-.45-3.84-2.26s1.77-2.87,3.49-3.76a1.26,1.26,0,0,0-1.34-.92,4,4,0,0,0-2.56,1.09c-.42.41-.84,1-1.35,1.56l-1-.76a15.62,15.62,0,0,0,3.42-4.53h-.62c-.63,0-1.63,0-2.44-.09V2.38c.8.09,1.83.16,2.51.16.31,0,.63,0,1,0a8,8,0,0,0,.37-1.85l1.24.11c-.11.42-.24,1-.45,1.71A38.78,38.78,0,0,0,332.91,2l0,1.11a44.66,44.66,0,0,1-4.91.42,10.81,10.81,0,0,1-1.34,2.28,4.18,4.18,0,0,1,2.06-.56,1.87,1.87,0,0,1,2,1.35c1-.47,1.92-.84,2.7-1.19.45-.2.81-.38,1.23-.59L335.07,6c-.37.1-.91.31-1.31.46-.84.33-1.9.76-3,1.29,0,.85,0,2.11,0,2.83Z"/><path class="cls-1" d="M342.5,5c2.54-.5,5.18-1,5.81-1.19a2.48,2.48,0,0,0,.8-.27l.89.69c-.11.16-.28.42-.38.6a21.42,21.42,0,0,1-3.08,4.36l-1-.61A15,15,0,0,0,348.18,5c-.26,0-3,.6-5.68,1.14v4.47c0,1,.38,1.36,2.19,1.36a22.68,22.68,0,0,0,4.66-.45l-.05,1.29a31.19,31.19,0,0,1-4.71.32c-2.78,0-3.31-.74-3.31-2.21V6.41c-1.51.3-2.83.56-3.45.7l-.22-1.26c.67-.08,2.08-.33,3.67-.63V2.66a7.87,7.87,0,0,0-.09-1.38h1.41a10.55,10.55,0,0,0-.1,1.38Zm6.25-1.92A19,19,0,0,0,347.54,1l.79-.34a22.23,22.23,0,0,1,1.23,2.05Zm1.23-3a20.49,20.49,0,0,1,1.26,2l-.81.36a13.68,13.68,0,0,0-1.25-2Z"/><path class="cls-1" d="M364.77,10.89c0,.48,0,1.63,0,1.8h-1.29c0-.11,0-.45,0-.86h-8.2c0,.39,0,.75,0,.86h-1.29c0-.18,0-1.29,0-1.81V3.5c0-.35,0-.82,0-1.17l1.33,0h8.06c.33,0,.87,0,1.32,0,0,.37,0,.79,0,1.17Zm-9.44-7.35v7.13h8.21V3.54Z"/><path class="cls-1" d="M373.49,1c-.07.26-.12.58-.19.87s-.21,1.3-.37,2.1c.69,0,1.31-.09,1.66-.09,1.33,0,2.42.5,2.42,2.51a14.35,14.35,0,0,1-.87,5.36A2.09,2.09,0,0,1,374,12.94a9.18,9.18,0,0,1-1.73-.22l-.2-1.26a7.6,7.6,0,0,0,1.81.33,1.25,1.25,0,0,0,1.31-.77,12.61,12.61,0,0,0,.69-4.54c0-1.35-.62-1.59-1.56-1.59-.36,0-.95,0-1.59.11a29.46,29.46,0,0,1-3.12,8l-1.23-.49a23.3,23.3,0,0,0,3.12-7.36l-1.88.19-1.33.18-.12-1.31a11.63,11.63,0,0,0,1.32,0c.5,0,1.37-.09,2.26-.16a17.43,17.43,0,0,0,.38-3.23Zm5.11,1.57a26.07,26.07,0,0,1,2.71,5.31l-1.17.55A17.76,17.76,0,0,0,377.49,3Z"/><path class="cls-1" d="M386,7.72a7,7,0,0,1,4.8-1.78c2.28,0,3.79,1.36,3.79,3.1,0,2.67-2.35,4.47-7.87,4l-.36-1.23c4.68.57,7-.78,7-2.81,0-1.18-1.1-2-2.62-2a5.79,5.79,0,0,0-4.59,2,2.81,2.81,0,0,0-.44.75l-1.13-.27a52.54,52.54,0,0,0,.75-6l1.28.16C386.43,4.6,386.17,6.76,386,7.72ZM387,.88A38.89,38.89,0,0,0,392.7,2l-.28,1.17C391,3,387.78,2.34,386.64,2Z"/><path class="cls-1" d="M409.47,12.57c.6,0,.72-.27.78-2.11a3,3,0,0,0,1,.44c-.14,2.18-.47,2.72-1.73,2.72h-2.42c-1.4,0-1.78-.33-1.78-1.55v-3H402.9c-.36,2.39-1.32,3.89-4.72,4.67a3.21,3.21,0,0,0-.64-1c3.08-.61,3.88-1.78,4.19-3.7h-2V.57h9.43V9.08h-2.65v3c0,.43.12.51.76.51Zm-8.68-9.46H408V1.58h-7.22Zm0,2.47H408V4h-7.22Zm0,2.5H408V6.52h-7.22Z"/><path class="cls-1" d="M418.7,3.67c.05-.37.12-.78.16-1.21h-6v-1H419c.05-.5.08-1,.09-1.42l1.28.09c0,.44-.11.88-.16,1.33H426v1h-6c-.05.43-.13.84-.19,1.21h4.47v7h-7.87v-7ZM426.1,13H414.75v.79h-1.08V4.09h1.08v7.85H426.1Zm-2.9-8.43h-5.72v1.2h5.72Zm0,2h-5.72V7.75h5.72Zm0,2h-5.72V9.83h5.72Z"/><path class="cls-1" d="M436.2,3.72c0,.84,0,1.75,0,2.43a3.67,3.67,0,0,1,.48,1.9c0,2-1,4.25-4.42,5.28l-1-1c1.95-.45,3.33-1.26,3.95-2.58a2.2,2.2,0,0,1-1.28.38,2.4,2.4,0,0,1-2.46-2.5A2.61,2.61,0,0,1,434.08,5a2.87,2.87,0,0,1,1,.17c0-.44,0-1,0-1.47-2.25,0-4.77.11-6.63.25l0-1.17c1.65,0,4.44-.12,6.64-.15,0-.42,0-.76,0-1a7,7,0,0,0-.09-.94h1.37l-.08.94c0,.22,0,.56,0,1h4.57V3.79c-.84,0-2.19-.07-4.37-.07ZM435.41,7a1.33,1.33,0,0,0-1.33-.91,1.51,1.51,0,0,0-1.5,1.56,1.44,1.44,0,0,0,1.52,1.47C435,9.09,435.54,8.38,435.41,7Z"/><path class="cls-1" d="M447.11,11.22a2.29,2.29,0,1,1-2.3-2.28A2.3,2.3,0,0,1,447.11,11.22Zm-.78,0a1.5,1.5,0,0,0-1.52-1.51,1.52,1.52,0,1,0,0,3A1.51,1.51,0,0,0,446.33,11.22Z"/><path class="cls-1" d="M4.54,27.47c.65,0,3.71-.12,4.56-.22a3.58,3.58,0,0,0,.81-.16l.77.87a6.47,6.47,0,0,0-.8.56c-1.11.91-3.25,2.7-4.44,3.65a68.88,68.88,0,0,1,7.05-.46v1.13a20.1,20.1,0,0,0-3.76.08,3.21,3.21,0,0,0-2.85,2.8c0,1.49,1.2,2,2.55,2.17a10.06,10.06,0,0,0,2.13.07l-.24,1.21c-3.63.15-5.61-1-5.61-3.27a3.53,3.53,0,0,1,1.72-2.79c-1.59.14-3.57.37-5.34.66L1,32.63c.79-.08,1.8-.21,2.55-.3a60,60,0,0,0,4.9-4c-.66,0-3.24.17-3.88.24-.38,0-.83.06-1.14.09l-.06-1.24A6.3,6.3,0,0,0,4.54,27.47Z"/><path class="cls-1" d="M28.93,37.4a3.81,3.81,0,0,1-2.73,1.24c-1,0-1.65-.66-1.65-1.89,0-1.65.56-4.09.56-5.53A1.07,1.07,0,0,0,23.92,30c-1.2,0-3,1.4-4.36,2.87,0,.63,0,1.21,0,1.74,0,1.35,0,2.25.06,3.58,0,.26.05.63.08.9H18.34c0-.21.05-.64.05-.88,0-1.42,0-2.16,0-3.81,0-.15,0-.35,0-.57-.72,1.09-1.7,2.52-2.42,3.51l-.75-1c.83-1,2.54-3.34,3.29-4.51,0-.48.06-1,.09-1.42-.68.07-2,.25-2.9.37l-.11-1.24a8,8,0,0,0,1,0c.48,0,1.35-.12,2.11-.24.05-.7.08-1.23.08-1.4a5.18,5.18,0,0,0-.06-1.1l1.42,0c-.07.36-.19,1.2-.29,2.23L20,29l.43.52-.66,1c0,.27,0,.56-.07.84,1.15-1.06,3.06-2.49,4.54-2.49a1.86,1.86,0,0,1,2.1,2c0,1.49-.55,4-.55,5.55,0,.51.24.9.76.9a3.28,3.28,0,0,0,2.24-1.23Z"/><path class="cls-1" d="M35.79,27c-.06.29-.13.59-.18.89s-.23,1.3-.39,2.09c.69,0,1.31-.1,1.66-.1,1.34,0,2.42.52,2.42,2.54a14.42,14.42,0,0,1-.85,5.35A2.11,2.11,0,0,1,36.27,39a9.42,9.42,0,0,1-1.75-.21l-.2-1.28a6.77,6.77,0,0,0,1.83.33,1.24,1.24,0,0,0,1.29-.76,12.34,12.34,0,0,0,.71-4.53c0-1.35-.62-1.59-1.58-1.59-.36,0-.94.05-1.59.1a29.87,29.87,0,0,1-3.12,8l-1.21-.5a23.76,23.76,0,0,0,3.12-7.35l-1.88.2c-.36.05-1,.1-1.33.18l-.12-1.3c.46,0,.84,0,1.31,0s1.36-.09,2.25-.17a16,16,0,0,0,.38-3.22Zm5.1,1.69A24.88,24.88,0,0,1,43.6,34l-1.15.58a17.7,17.7,0,0,0-2.66-5.34Zm.61.24a17,17,0,0,0-1.21-2.08l.79-.33a20.87,20.87,0,0,1,1.25,2.06Zm1.7-.61A17.17,17.17,0,0,0,42,26.24l.79-.33A21.23,21.23,0,0,1,44,28Z"/><path class="cls-1" d="M47.67,29.6c0,.93,0,2.29.11,3.51.24,2.49,1,4.12,2,4.12.76,0,1.45-1.52,1.84-3l.95,1.08c-.89,2.51-1.8,3.37-2.83,3.37-1.39,0-2.74-1.4-3.14-5.25a39.49,39.49,0,0,1-.17-4,7.45,7.45,0,0,0-.09-1.32l1.44,0C47.73,28.52,47.69,29.21,47.67,29.6Zm10.47,6.24-1.22.48A14.64,14.64,0,0,0,54.36,29l1.17-.4A15.18,15.18,0,0,1,58.14,35.84Z"/><path class="cls-1" d="M71.66,38.42a11.21,11.21,0,0,0-3.59-2.24c0,.38,0,.71,0,.93,0,1-.69,2.09-2.62,2.09-2.13,0-3.32-.77-3.32-2.2s1.3-2.27,3.45-2.27a8.55,8.55,0,0,1,1.25.09c0-.66-.07-1.36-.08-2H66c-1,0-2.67-.09-3.74-.21V31.49a26.48,26.48,0,0,0,3.74.28h.79V29.64H66a34.37,34.37,0,0,1-3.49-.22V28.31a24.4,24.4,0,0,0,3.48.28h.76v-1a8.26,8.26,0,0,0,0-.88H68a5.92,5.92,0,0,0-.08,1c0,.19,0,.47,0,.83a35.11,35.11,0,0,0,3.8-.36l0,1.1c-1.17.12-2.44.24-3.84.31v2.13A38.38,38.38,0,0,0,72,31.34l0,1.12c-1.4.18-2.71.29-4.12.35,0,.77.07,1.54.1,2.25a12.16,12.16,0,0,1,4.32,2.31ZM66.9,35.85a7.49,7.49,0,0,0-1.44-.13c-1.41,0-2.17.54-2.17,1.21s.58,1.2,2.05,1.2c.86,0,1.58-.25,1.58-1.27C66.92,36.6,66.9,36.26,66.9,35.85Z"/><path class="cls-1" d="M86.66,38.42a11.21,11.21,0,0,0-3.59-2.24c0,.38,0,.71,0,.93,0,1-.69,2.09-2.62,2.09-2.13,0-3.32-.77-3.32-2.2s1.3-2.27,3.45-2.27a8.55,8.55,0,0,1,1.25.09c0-.66-.07-1.36-.08-2H81c-1,0-2.67-.09-3.74-.21V31.49a26.48,26.48,0,0,0,3.74.28h.79V29.64H81a34.37,34.37,0,0,1-3.49-.22V28.31a24.4,24.4,0,0,0,3.48.28h.76v-1a8.26,8.26,0,0,0,0-.88H83a5.92,5.92,0,0,0-.08,1c0,.19,0,.47,0,.83a35.11,35.11,0,0,0,3.8-.36l0,1.1c-1.17.12-2.44.24-3.84.31v2.13A38.38,38.38,0,0,0,87,31.34l0,1.12c-1.4.18-2.71.29-4.12.35,0,.77.07,1.54.1,2.25a12.16,12.16,0,0,1,4.32,2.31ZM81.9,35.85a7.49,7.49,0,0,0-1.44-.13c-1.41,0-2.17.54-2.17,1.21s.58,1.2,2,1.2c.86,0,1.58-.25,1.58-1.27C81.92,36.6,81.9,36.26,81.9,35.85Z"/><path class="cls-1" d="M92,28.66c1-.09,3.79-.37,6.51-.61,1.62-.13,3-.21,4-.25V29a12.05,12.05,0,0,0-2.91.24,5.21,5.21,0,0,0-3.39,4.69c0,2.9,2.7,3.82,5.11,3.9l-.43,1.26C98.12,39,95,37.5,95,34.19a6,6,0,0,1,2.76-5c-1.3.15-5.35.54-7,.87l-.13-1.32Zm9.65,4.24-.77.36a13.76,13.76,0,0,0-1.22-2.12l.76-.33A19.91,19.91,0,0,1,101.61,32.9Zm1.71-.65-.78.37a12.31,12.31,0,0,0-1.28-2.09l.75-.35A21.26,21.26,0,0,1,103.32,32.25Z"/><path class="cls-1" d="M112.2,34.43h-4V31.29h4.08v3.09a9.15,9.15,0,0,0,1.92-1.72,15.13,15.13,0,0,1-1.35-4.17h-5.44v1.32a9.47,9.47,0,0,1-1.64,5.85,2.85,2.85,0,0,0-.81-.69,8.15,8.15,0,0,0,1.43-5.18V27.56h6.33c-.07-.49-.11-1-.14-1.52h1.07a12.63,12.63,0,0,0,.12,1.52h2.72a7.49,7.49,0,0,0-1.9-.94l.59-.66a8.13,8.13,0,0,1,2.13,1l-.47.56h1.65v.93h-4.58a14.58,14.58,0,0,0,1,3.24,9.94,9.94,0,0,0,1.21-2.52l1,.24a12.13,12.13,0,0,1-1.71,3.3c.63,1,1.32,1.6,1.93,1.6.38,0,.53-.54.61-1.89a2.56,2.56,0,0,0,.86.5c-.18,1.87-.58,2.4-1.52,2.4a3.34,3.34,0,0,1-2.55-1.76A10,10,0,0,1,113,35.22a6.51,6.51,0,0,0-.8-.76ZM105,38.82a5.47,5.47,0,0,0,2-2.92l1,.33a6,6,0,0,1-2,3.21Zm7.46-8.54h-4.58V29.5h4.58Zm1.18,8.27c.66,0,.77-.17.82-1.57a2.89,2.89,0,0,0,1,.4c-.14,1.76-.47,2.18-1.73,2.18h-2.91c-1.55,0-2-.3-2-1.44V35.79H110V38.1c0,.38.12.45.93.45Zm-2.36-6.47h-2.21v1.55h2.21Zm-.53,2.6a9.68,9.68,0,0,1,2.57,1.73l-.77.7a9.88,9.88,0,0,0-2.54-1.81Zm5.33,1a10.66,10.66,0,0,1,2.65,3l-1,.54a9.89,9.89,0,0,0-2.58-3Z"/><path class="cls-1" d="M124.32,27.05c-.07.49-.12,1-.15,1.49-.06,1.67-.18,5.2-.18,7.42,0,1.62,1.06,2.19,2.45,2.19a6.2,6.2,0,0,0,5.32-3.07l.82,1a7.38,7.38,0,0,1-6.19,3.27c-2.13,0-3.6-.9-3.6-3.32,0-2.2.15-6,.15-7.52a7.62,7.62,0,0,0-.13-1.5Zm5.58,3.58L129,31a18.08,18.08,0,0,0-1.4-2.43l.85-.36A26.69,26.69,0,0,1,129.9,30.63Zm2-.8-.87.42a16,16,0,0,0-1.46-2.37l.84-.39A19.67,19.67,0,0,1,131.88,29.83Z"/><path class="cls-1" d="M143.42,29.76a27.48,27.48,0,0,1-3.08.52c-.13.64-.3,1.33-.46,2a45.11,45.11,0,0,1-2.33,6.81l-1.32-.44A32.37,32.37,0,0,0,138.72,32c.14-.5.26-1,.37-1.58-.47,0-.92.05-1.34.05-.67,0-1.21,0-1.73-.06l0-1.17a13.21,13.21,0,0,0,1.78.11c.49,0,1,0,1.59-.07.11-.54.18-1,.23-1.3a7.55,7.55,0,0,0,0-1.23l1.46.12c-.11.33-.21.88-.28,1.19l-.22,1.09a21.92,21.92,0,0,0,2.84-.54ZM142.83,35a5.5,5.5,0,0,0-.21,1.33c0,.71.33,1.38,2.45,1.38A17.06,17.06,0,0,0,148,37.4l0,1.21a21.27,21.27,0,0,1-2.87.2c-2.34,0-3.57-.72-3.57-2.19a7.94,7.94,0,0,1,.23-1.75Zm-.37-3.62c.78-.07,1.75-.11,2.71-.11a23.56,23.56,0,0,1,2.56.11l0,1.15a21.37,21.37,0,0,0-2.51-.19,24.88,24.88,0,0,0-2.74.17Z"/><path class="cls-1" d="M153.57,34.08a5.86,5.86,0,0,0-.3,1.7c0,1.11,1.14,1.89,3.51,1.89a19.62,19.62,0,0,0,5.09-.57v1.29a22.19,22.19,0,0,1-5.07.51c-3,0-4.77-1-4.77-2.85a9.82,9.82,0,0,1,.3-2.09Zm-.61-6a31.91,31.91,0,0,0,3.92.2c1.43,0,3-.11,4-.21V29.3c-1,.08-2.64.18-4,.18s-2.74-.06-3.92-.16Z"/><path class="cls-1" d="M176.26,29.67c-.33.21-.7.41-1.13.63a49.57,49.57,0,0,0-4.52,2.45c-1.38.9-2.2,1.88-2.2,3s1.17,2,3.51,2a21.82,21.82,0,0,0,4.75-.52v1.35a28.7,28.7,0,0,1-4.7.36c-2.78,0-4.81-.84-4.81-3.06,0-1.53,1-2.74,2.57-3.85a47.22,47.22,0,0,1-2.16-4.57l1.18-.49a33.52,33.52,0,0,0,2,4.4c1.39-.84,3-1.62,3.8-2.08a6.62,6.62,0,0,0,1.07-.71Z"/><path class="cls-1" d="M186.69,37.86a8.24,8.24,0,0,0,1.27-.18,4.45,4.45,0,0,0,3.77-4.39,4.12,4.12,0,0,0-3.94-4.3,32.76,32.76,0,0,1-.89,4.27c-.91,3-2.1,4.62-3.48,4.62s-2.65-1.53-2.65-4a6.34,6.34,0,0,1,6.51-6A5.39,5.39,0,0,1,193,33.32c0,3.12-2.05,5.2-5.59,5.67Zm-1-4.86a22.85,22.85,0,0,0,.83-4A5.18,5.18,0,0,0,182,33.8c0,1.87.87,2.7,1.51,2.7S185,35.51,185.71,33Z"/><path class="cls-1" d="M203,29.6a17.13,17.13,0,0,1-2.68.54A26.93,26.93,0,0,1,197,36.42l-1.17-.59A21.93,21.93,0,0,0,199,30.28c-.44,0-.87,0-1.31,0s-1.17,0-1.73,0l-.08-1.13a14.85,14.85,0,0,0,1.83.1c.52,0,1.08,0,1.65-.07a12.44,12.44,0,0,0,.46-2.56l1.34.12c-.16.54-.35,1.43-.59,2.29a15.19,15.19,0,0,0,2.31-.54Zm1.74,1.73a14.41,14.41,0,0,0,0,1.6c0,.54.08,1.51.11,2.41a9.91,9.91,0,0,1,3.07,1.87l-.64,1a10.44,10.44,0,0,0-2.38-1.69c0,.22,0,.43,0,.6,0,1.18-.78,2.16-2.61,2.16-1.64,0-3-.68-3-2.15s1.29-2.25,3-2.25a7,7,0,0,1,1.41.14c0-1.22-.12-2.67-.15-3.7Zm-1,4.75a5.16,5.16,0,0,0-1.49-.21c-1.1,0-1.82.49-1.82,1.17s.55,1.15,1.71,1.15,1.62-.67,1.62-1.4C203.7,36.59,203.7,36.35,203.68,36.08Zm4-4.35a17.14,17.14,0,0,0-3.39-2l.59-.93a22.23,22.23,0,0,1,3.48,2Z"/><path class="cls-1" d="M212.67,29.6c0,.93,0,2.29.11,3.51.24,2.49,1,4.12,2,4.12.76,0,1.45-1.52,1.84-3l1,1.08c-.89,2.51-1.8,3.37-2.83,3.37-1.39,0-2.74-1.4-3.14-5.25a39.49,39.49,0,0,1-.17-4,7.45,7.45,0,0,0-.09-1.32l1.44,0C212.73,28.52,212.69,29.21,212.67,29.6Zm10.47,6.24-1.22.48A14.64,14.64,0,0,0,219.36,29l1.17-.4A15.18,15.18,0,0,1,223.14,35.84Z"/><path class="cls-1" d="M224.88,32.75a15.88,15.88,0,0,0,.77-3.81l.85.1a17.54,17.54,0,0,1-.75,4ZM227,26h1.09v13.7H227Zm2.23,5.54a15,15,0,0,0-1.1-2.78l.79-.35a16.09,16.09,0,0,1,1.15,2.72Zm5.4,2.38a7.54,7.54,0,0,0,4.32,4.8,4.27,4.27,0,0,0-.79,1,8.36,8.36,0,0,1-4.34-5.1,8,8,0,0,1-4.15,5.11,6.28,6.28,0,0,0-.79-.87,6.83,6.83,0,0,0,4-5h-3.51V32.9H233c.05-.65.07-1.27.07-1.87V29.48h-2.93V28.43h2.93V26h1.11v2.39h3.33V32.9h1.29V34ZM234.21,31a17.23,17.23,0,0,1-.08,1.87h2.32V29.48h-2.24Z"/><path class="cls-1" d="M243.11,36.74c.7,1.11,2,1.62,3.77,1.68s5.11,0,6.91-.09a4,4,0,0,0-.37,1.09c-1.67.08-4.84.11-6.52,0a5.2,5.2,0,0,1-4.24-1.77c-.66.65-1.35,1.28-2.09,1.92L240,38.54a26.72,26.72,0,0,0,2.07-1.73V33h-1.91v-1h3Zm-.45-7.19a11.18,11.18,0,0,0-2.37-2.5l.85-.63a11.15,11.15,0,0,1,2.42,2.45Zm3.68-1.34H244V27.3h4.14V26h1.1V27.3h4.34v.91h-2.3l.39.1c-.28.51-.56,1-.8,1.44H253v6.6c0,.54-.1.82-.5,1a6,6,0,0,1-1.89.17,3.35,3.35,0,0,0-.34-1,14.31,14.31,0,0,0,1.46,0c.17,0,.22-.06.22-.22V30.63h-2.85v1h2.25v.77h-2.25v1.07h1.6v2.7h-3.19v.57h-.81V33.48h1.54V32.41H246v-.77h2.23v-1h-2.74v6.9h-1V29.75h1.95a6,6,0,0,0-.63-1.41Zm3.47,1.5a11.47,11.47,0,0,0,.7-1.5h-3.68a5.46,5.46,0,0,1,.63,1.46l-.27.08H250Zm.09,4.48h-2.37v1.29h2.37Z"/><path class="cls-1" d="M262.13,36.57c0-.57.06-1.53.06-2.31-1.39.75-2.35,1.52-2.35,2.49,0,1.17,1.16,1.34,2.69,1.34a25.55,25.55,0,0,0,4.05-.36l0,1.21a37,37,0,0,1-4.06.24c-2.13,0-3.84-.45-3.84-2.26s1.77-2.87,3.49-3.76a1.26,1.26,0,0,0-1.34-.92,4,4,0,0,0-2.56,1.09c-.42.41-.84,1-1.35,1.56l-1-.76a15.62,15.62,0,0,0,3.42-4.53h-.62c-.63,0-1.63,0-2.44-.09V28.38c.8.09,1.83.16,2.51.16.31,0,.63,0,1,0a8,8,0,0,0,.37-1.85l1.24.11c-.11.42-.24,1-.45,1.71a38.78,38.78,0,0,0,4.54-.45l0,1.11a44.66,44.66,0,0,1-4.91.42,10.81,10.81,0,0,1-1.34,2.28,4.18,4.18,0,0,1,2.06-.56,1.87,1.87,0,0,1,2,1.35c1-.47,1.92-.84,2.7-1.19.45-.2.81-.38,1.23-.59l.48,1.13c-.37.1-.91.31-1.31.46-.84.33-1.9.76-3,1.29,0,.85,0,2.11,0,2.83Z"/><path class="cls-1" d="M278.07,35.85c1.06,1.61,3,2.58,5.6,3a3.8,3.8,0,0,0-.68,1c-2.92-.51-5-1.77-6.11-3.92h-.13c-.78,1.49-2.42,2.87-5.83,3.89a4.84,4.84,0,0,0-.68-.9c2.93-.81,4.46-1.86,5.24-3h-5.09v-1H276a4.77,4.77,0,0,0,.28-1.41h-4.15v-.94h4.18V31.19h-4.42v-.94h4.42V29h1.11v1.25H282V28.52H271.7v1.87h-1.08V27.51h5.71V26.06h1.11v1.45h5.73v2.88H282v.8h-4.63v1.33h4.42v.94h-4.45a6.41,6.41,0,0,1-.24,1.41h6.36v1Z"/><path class="cls-1" d="M290.54,35.83l-5.33,1.57-.3-1.07c.66-.16,1.47-.37,2.36-.62V32.08h-1.89V31h1.89v-3.2H285.2v-1h5.11v1h-2V31h1.84v1h-1.84v3.34l2.07-.59Zm7,2.84c.35,0,.4-.22.45-1.77a2.66,2.66,0,0,0,.93.44c-.07,1.83-.36,2.29-1.26,2.29h-1.45c-1.07,0-1.34-.31-1.34-1.39V34.91h-1.47c-.3,2.38-1.11,4-4,4.92a3.23,3.23,0,0,0-.63-.91c2.64-.73,3.31-2.08,3.55-4H291v-8.2h7v8.2h-2v3.33c0,.37.07.43.44.43Zm-5.52-9.52h4.86v-1.5h-4.86Zm0,2.39h4.86V30h-4.86Zm0,2.42h4.86V32.43h-4.86Z"/><path class="cls-1" d="M304.53,27c-.07.48-.12,1-.15,1.49-.06,1.68-.18,5.18-.18,7.4,0,1.64,1.05,2.21,2.43,2.21A6.19,6.19,0,0,0,312,35l.82,1a7.38,7.38,0,0,1-6.19,3.27c-2.13,0-3.6-.9-3.6-3.32,0-2.2.15-5.95.15-7.52A7.62,7.62,0,0,0,303,27Z"/><path class="cls-1" d="M326.66,38.42a11.21,11.21,0,0,0-3.59-2.24c0,.38,0,.71,0,.93,0,1-.69,2.09-2.62,2.09-2.13,0-3.32-.77-3.32-2.2s1.3-2.27,3.45-2.27a8.55,8.55,0,0,1,1.25.09c0-.66-.07-1.36-.08-2H321c-1,0-2.67-.09-3.74-.21V31.49a26.48,26.48,0,0,0,3.74.28h.79V29.64H321a34.37,34.37,0,0,1-3.49-.22V28.31a24.4,24.4,0,0,0,3.48.28h.76v-1a8.26,8.26,0,0,0,0-.88H323a5.92,5.92,0,0,0-.08,1c0,.19,0,.47,0,.83a35.11,35.11,0,0,0,3.8-.36l0,1.1c-1.17.12-2.44.24-3.84.31v2.13a38.38,38.38,0,0,0,4.12-.39l0,1.12c-1.4.18-2.71.29-4.12.35,0,.77.07,1.54.1,2.25a12.16,12.16,0,0,1,4.32,2.31Zm-4.76-2.57a7.49,7.49,0,0,0-1.44-.13c-1.41,0-2.17.54-2.17,1.21s.58,1.2,2,1.2c.86,0,1.58-.25,1.58-1.27C321.92,36.6,321.9,36.26,321.9,35.85Z"/><path class="cls-1" d="M334.53,27c-.07.48-.12,1-.15,1.49-.06,1.68-.18,5.18-.18,7.4,0,1.64,1.05,2.21,2.43,2.21A6.19,6.19,0,0,0,342,35l.82,1a7.38,7.38,0,0,1-6.19,3.27c-2.13,0-3.6-.9-3.6-3.32,0-2.2.15-5.95.15-7.52A7.62,7.62,0,0,0,333,27Z"/><path class="cls-1" d="M353.42,29.76a27.48,27.48,0,0,1-3.08.52c-.13.64-.3,1.33-.46,2a45.11,45.11,0,0,1-2.33,6.81l-1.32-.44A32.37,32.37,0,0,0,348.72,32c.14-.5.26-1,.37-1.58-.47,0-.92.05-1.34.05-.67,0-1.21,0-1.73-.06l0-1.17a13.21,13.21,0,0,0,1.78.11c.49,0,1,0,1.59-.07.11-.54.18-1,.23-1.3a7.55,7.55,0,0,0,0-1.23l1.46.12c-.11.33-.21.88-.28,1.19l-.22,1.09a21.92,21.92,0,0,0,2.84-.54ZM352.83,35a5.5,5.5,0,0,0-.21,1.33c0,.71.33,1.38,2.45,1.38A17.06,17.06,0,0,0,358,37.4l0,1.21a21.27,21.27,0,0,1-2.87.2c-2.34,0-3.57-.72-3.57-2.19a7.94,7.94,0,0,1,.23-1.75Zm-.37-3.62c.78-.07,1.75-.11,2.71-.11a23.56,23.56,0,0,1,2.56.11l0,1.15a21.37,21.37,0,0,0-2.51-.19,24.88,24.88,0,0,0-2.74.17Z"/><path class="cls-1" d="M364.61,37.22a2.29,2.29,0,1,1-2.3-2.28A2.3,2.3,0,0,1,364.61,37.22Zm-.78,0a1.5,1.5,0,0,0-1.52-1.51,1.52,1.52,0,1,0,0,3A1.51,1.51,0,0,0,363.83,37.22Z"/></g></g></svg>