<svg xmlns="http://www.w3.org/2000/svg" viewBox="0 0 451.9 109.52"><defs><style>.cls-1{fill:#fff;}</style></defs><title>i-bantext1</title><g id="Layer_2" data-name="Layer 2"><g id="SVG"><path class="cls-1" d="M7.05,26.37a19.38,19.38,0,0,0-.8,4.69c0,3,2.82,5.13,9.54,5.13a65.92,65.92,0,0,0,16.36-1.84l0,6.54A71.38,71.38,0,0,1,16,42.49c-10.67,0-16-3.58-16-10A29.76,29.76,0,0,1,.94,25.8ZM3.1,6.63a123.8,123.8,0,0,0,12.69.56c4.61,0,9.92-.28,13.49-.66v6.25c-3.24.24-9,.57-13.44.57-4.89,0-8.93-.24-12.74-.52Z"/><path class="cls-1" d="M58.75,26.37a19.38,19.38,0,0,0-.8,4.69c0,3,2.82,5.13,9.54,5.13a65.92,65.92,0,0,0,16.36-1.84l0,6.54a71.38,71.38,0,0,1-16.16,1.6c-10.67,0-16-3.58-16-10a29.76,29.76,0,0,1,.94-6.72Zm-4-19.74a123.8,123.8,0,0,0,12.69.56c4.61,0,9.92-.28,13.49-.66v6.25c-3.24.24-9,.57-13.44.57-4.89,0-8.93-.24-12.74-.52Z"/><path class="cls-1" d="M117.55,4c-.29,1.22-.57,2.68-.8,3.86-.28,1.4-.66,3.1-1,4.79,1.55-.1,3-.19,3.9-.19,4.94,0,8.41,2.21,8.41,8.88,0,5.5-.65,12.93-2.63,17-1.55,3.24-4.09,4.28-7.66,4.28a26.68,26.68,0,0,1-5.54-.66l-1-6.16a27,27,0,0,0,5.74,1,3.41,3.41,0,0,0,3.47-2c1.27-2.59,1.88-8.13,1.88-12.74,0-3.71-1.59-4.23-4.51-4.23-.75,0-1.88.1-3.19.19-1.84,7.05-5.22,18-9.5,24.86L99,40.42c4.51-6.11,7.71-15.42,9.35-21.76-1.64.19-3.1.37-4,.51-1.32.15-3.72.47-5.17.71l-.52-6.3a42.85,42.85,0,0,0,4.94,0c1.45,0,3.66-.19,6-.37a51.24,51.24,0,0,0,1-9.87Zm16.68,5.55A92.41,92.41,0,0,1,141.8,25.8l-5.92,2.77C134.65,23.4,131.36,15.18,128,11l4.32-1.83a52.21,52.21,0,0,0-3.19-5.54l3.71-1.56c1.17,1.74,2.82,4.7,3.76,6.44ZM138.51,8a46.56,46.56,0,0,0-3.81-6.49L138.41,0a56.43,56.43,0,0,1,3.81,6.39Z"/><path class="cls-1" d="M160.36,34.12c1.84,3.15,5.13,4.46,9.92,4.65,5.64.24,16.73.1,23.22-.42a25.33,25.33,0,0,0-1.74,5.45c-5.83.28-15.79.38-21.53.14-5.59-.23-9.35-1.6-12.17-5.21-1.88,1.83-3.81,3.61-6.2,5.64l-2.63-5.55a58.49,58.49,0,0,0,5.82-4.32V24.25h-5.26V19.13h10.57Zm-4-21.24a34,34,0,0,0-6.44-7.62l4.37-3a34.85,34.85,0,0,1,6.82,7.38Zm36.24.56H161.68V9.68H170c.24-.66.43-1.31.66-2h-6V4h7.05c.33-1.08.61-2.16.85-3.15l5.4.57c-.23.84-.51,1.69-.75,2.58h10.11V9.68h5.17ZM177.28,37.79V35H162V31.16h4.89V29h-3.57V25.24h14V23.69h-12V15h23.41v8.74h-6.11v1.55H191V29h-8.46v2.16h9.72V35h-9.72v2.82Zm-6.95-17.35H183.2v-2.3H170.33Zm6.95,10.72V29h-5.36v2.16ZM175.5,9.68h6.72v-2h-6.07Z"/><path class="cls-1" d="M224.89,19.69A41.57,41.57,0,0,0,212.77,22c-1.36.42-3.15,1.13-4.51,1.59l-1.74-6.62a45,45,0,0,0,5.07-.8C215,15.37,220.24,14,225.65,14c7.37,0,12.54,4.19,12.54,11.47,0,10-9.21,16.17-22.13,18l-3.39-5.82c11.57-1.32,18.94-5.08,18.94-12.36C231.61,22.18,229.26,19.64,224.89,19.69ZM234.29,5l-.94,5.73c-5.45-.37-15.55-1.26-20.91-2.2l.94-5.64A132,132,0,0,0,234.29,5Z"/><path class="cls-1" d="M269.87,36.52a4.9,4.9,0,0,1,9.78,0,4.9,4.9,0,0,1-9.78,0Zm.8-24-.19-7h8.6l-.23,7-1.64,16.07h-4.85Z"/><path class="cls-1" d="M8.84,69.34a35.25,35.25,0,0,0-.15,3.57V88.79c0,1.18.05,3,.15,4.09h-7c.05-.89.24-2.72.24-4.13V72.91a32.18,32.18,0,0,0-.19-3.57Zm21.66-.43c-.09,1.32-.19,2.82-.19,4.7v9.31c0,10.1-2,14.43-5.45,18.28-3.1,3.43-8,5.73-11.42,6.82l-4.93-5.17c4.7-1.09,8.64-2.87,11.51-5.93,3.2-3.52,3.81-7,3.81-14.38V73.61a34.47,34.47,0,0,0-.28-4.7Z"/><path class="cls-1" d="M83.66,73.52A22.65,22.65,0,0,0,82,76.43a68.51,68.51,0,0,1-7.38,12.93A132.47,132.47,0,0,1,87.75,102.8l-5.36,4.65a108.41,108.41,0,0,0-11.84-13.3,62.13,62.13,0,0,1-17.67,13.21L48,102.28A53,53,0,0,0,67.3,88.79c3.11-3.52,6-8.17,7-11.51H58.37c-2,0-4.55.28-5.54.33V70.93a51.88,51.88,0,0,0,5.54.33H74.92a16.87,16.87,0,0,0,4.88-.61Z"/><path class="cls-1" d="M138.41,75.4a23.2,23.2,0,0,0-1.55,3.34,54,54,0,0,1-6.48,12.87c1.74,1.08,3.33,2.17,4.51,3l-4.28,5.5a53.38,53.38,0,0,0-4.37-3.34,44.92,44.92,0,0,1-17.34,11.71l-5.45-4.75A39.7,39.7,0,0,0,121,93.21c-3.2-2.07-6.39-4-8.79-5.36l4-4.46c2.49,1.27,5.69,3,8.84,4.93a34.36,34.36,0,0,0,4.89-10H116.42A55.23,55.23,0,0,1,104,90.44l-5.07-3.9a43.06,43.06,0,0,0,15-15.61A20.6,20.6,0,0,0,116,66l6.82,2.12c-1.13,1.64-2.35,3.8-2.92,4.79l0,0h9.63a14.85,14.85,0,0,0,4.09-.52Z"/><path class="cls-1" d="M170,101.81a43.83,43.83,0,0,0,4.32-.75c6-1.41,10.58-5.69,10.58-12.45,0-6.44-3.48-11.24-9.73-12.32a100.71,100.71,0,0,1-2.78,12.64c-2.77,9.4-6.81,15.14-11.89,15.14S151,98.38,151,90.53c0-10.71,9.35-19.92,21.43-19.92,11.52,0,18.8,8,18.8,18.18,0,9.78-6,16.73-17.76,18.52Zm-3.62-14.1a74.16,74.16,0,0,0,2.49-11.28c-7.71,1.6-11.8,8.37-11.8,13.49,0,4.7,1.88,7,3.62,7C162.62,96.92,164.5,94,166.38,87.71Z"/><path class="cls-1" d="M228.7,101.29a32.25,32.25,0,0,0,.42,6.16H221.7a52.22,52.22,0,0,0,.33-6.16V85.88a91.94,91.94,0,0,1-16.17,6.39l-3.38-5.73A72.37,72.37,0,0,0,223.86,78a49.65,49.65,0,0,0,12.27-10.62l5,4.56a77,77,0,0,1-12.46,10.1Z"/><path class="cls-1" d="M274.71,94.81c8-4.75,14.15-11.94,17.11-18.28l3.67,6.62a49.9,49.9,0,0,1-17.39,17.39,50.9,50.9,0,0,1-17.44,6.63l-4-6.2A48.36,48.36,0,0,0,274.71,94.81Zm0-15.23-4.79,4.94a96.17,96.17,0,0,0-11.75-10.15l4.42-4.7A98.23,98.23,0,0,1,274.71,79.58Z"/><path class="cls-1" d="M344.74,74.08a19.07,19.07,0,0,0-1,3.29c-1.08,4.61-3.15,11.89-7,17.11a37.63,37.63,0,0,1-18.89,13l-5.13-5.64c9.31-2.16,14.62-6.25,18.43-11a29.72,29.72,0,0,0,5.5-13.25h-21.9c-2.12,0-4.38.1-5.6.19V71.12c1.41.14,4.09.38,5.64.38h21.71a15.79,15.79,0,0,0,3.72-.38Z"/><path class="cls-1" d="M392.92,80.29a58.68,58.68,0,0,1-10.58,8.5v15.65a26.33,26.33,0,0,0,.33,5.08h-6.95a49.62,49.62,0,0,0,.23-5.08V92.37a88,88,0,0,1-13.25,5.12L359.55,92a62.86,62.86,0,0,0,16.59-6.35c4.79-2.82,9.73-6.72,12.08-9.77Z"/><path class="cls-1" d="M408.24,103.64a22.07,22.07,0,0,0,8-11.23c1.32-4,1.36-12.92,1.36-18.61a17.17,17.17,0,0,0-.42-4.27h6.91a29.21,29.21,0,0,0-.33,4.22c0,5.55-.14,15.47-1.41,20.21A27.23,27.23,0,0,1,414,107.45Zm21.76.71a17.69,17.69,0,0,0,.38-3.48V73.47a20.42,20.42,0,0,0-.38-4h7a25.31,25.31,0,0,0-.32,4.09V98.1a29.84,29.84,0,0,0,11.6-9.92l3.62,5.17C448,98.43,441.23,103.5,436,106.18a12,12,0,0,0-2.07,1.41Z"/></g></g></svg>