<svg xmlns="http://www.w3.org/2000/svg" viewBox="0 0 235.5 235.5"><defs><style>.cls-1{fill:none;stroke:#73c3c4;stroke-miterlimit:10;stroke-width:3px;stroke-dasharray:5;}</style></defs><title>i-circle3</title><g id="Layer_2" data-name="Layer 2"><g id="SVG"><circle class="cls-1" cx="117.75" cy="117.75" r="116.25"/><line class="cls-1" x1="33.75" y1="102.5" x2="201.75" y2="102.5"/><path d="M49.18,71.38c-2.06.33-5.2.7-7.86.85a35,35,0,0,1-.9,3.42,9.63,9.63,0,0,1,4.92-1.24c3.2,0,5.32,1.72,5.32,4.24,0,4.46-4.28,6.06-10.68,5.38l-.7-2.56c4.34.7,8.72.18,8.72-2.74,0-1.18-1-2.18-3-2.18a6.8,6.8,0,0,0-5.48,2.34,5.81,5.81,0,0,0-.56.86l-2.34-.84a32,32,0,0,0,2.26-6.64c-1.26,0-2.42-.1-3.42-.21V69.6a28,28,0,0,0,3.88.38c0-.3.1-.56.12-.8a12.12,12.12,0,0,0,.1-2l2.8.12a20.7,20.7,0,0,0-.46,2l-.12.6A47.65,47.65,0,0,0,49.14,69Z"/><path d="M60.24,75.75a9.71,9.71,0,0,1,5.82-1.88c3.48,0,5.5,2.14,5.5,4.54,0,3.62-2.86,6.4-11.1,5.68l-.76-2.6c5.94.84,9.08-.62,9.08-3.14,0-1.28-1.22-2.22-3-2.22a6.94,6.94,0,0,0-5.46,2.32,4.29,4.29,0,0,0-.74,1.16L57.32,79a72,72,0,0,0,1-8.27l2.68.37C60.72,72.23,60.38,74.61,60.24,75.75Zm.62-8.61a62.7,62.7,0,0,0,7.92,1.54l-.6,2.45c-2-.27-6.42-1.19-8-1.59Z"/><path d="M84.18,67.44c-.12.52-.26,1.14-.36,1.64s-.26,1.32-.4,2c.66,0,1.26-.09,1.66-.09,2.1,0,3.58.95,3.58,3.79,0,2.34-.28,5.5-1.12,7.22a3.18,3.18,0,0,1-3.26,1.82,11.06,11.06,0,0,1-2.36-.28L81.48,81a11.4,11.4,0,0,0,2.42.42,1.44,1.44,0,0,0,1.48-.86,14.65,14.65,0,0,0,.82-5.42c0-1.58-.68-1.8-1.94-1.8-.32,0-.8,0-1.36.08-.76,3-2.2,7.66-4,10.58l-2.6-1a29.44,29.44,0,0,0,4-9.26c-.7.08-1.32.16-1.7.22-.56.06-1.58.2-2.2.3l-.22-2.69a18.39,18.39,0,0,0,2.1,0c.62,0,1.56-.08,2.56-.16a21.93,21.93,0,0,0,.42-4.2ZM91,69.3a35.77,35.77,0,0,1,3.46,7.37L92,77.85a22.93,22.93,0,0,0-3.36-7.55Z"/><path d="M101.84,75.75a9.71,9.71,0,0,1,5.82-1.88c3.48,0,5.5,2.14,5.5,4.54,0,3.62-2.86,6.4-11.1,5.68l-.76-2.6c5.94.84,9.08-.62,9.08-3.14,0-1.28-1.22-2.22-3-2.22A6.94,6.94,0,0,0,102,78.45a4.29,4.29,0,0,0-.74,1.16L98.92,79a72,72,0,0,0,1-8.27l2.68.37C102.32,72.23,102,74.61,101.84,75.75Zm.62-8.61a62.7,62.7,0,0,0,7.92,1.54l-.6,2.45c-2-.27-6.42-1.19-8-1.59Z"/><path d="M128,71.52a28.83,28.83,0,0,1-3.44.69,36.56,36.56,0,0,1-4.24,8.48l-2.42-1.22a30.22,30.22,0,0,0,4-7c-.34,0-.68,0-1,0-.82,0-1.62,0-2.48-.06l-.18-2.33a25.18,25.18,0,0,0,2.64.14c.58,0,1.18,0,1.78-.06a16.86,16.86,0,0,0,.54-3.32l2.74.28c-.16.64-.4,1.64-.68,2.7a20.92,20.92,0,0,0,2.66-.62Zm2.6,1.79c-.06.84,0,1.66,0,2.54,0,.56.06,1.52.12,2.5a13.19,13.19,0,0,1,4.1,2.54L133.52,83a17.63,17.63,0,0,0-2.68-2.1v.18c0,1.84-1,3.28-3.82,3.28-2.46,0-4.4-1.1-4.4-3.28,0-1.94,1.62-3.44,4.38-3.44.46,0,.92,0,1.34.08-.06-1.48-.16-3.22-.22-4.42Zm-2.18,6.56a7,7,0,0,0-1.6-.2c-1.14,0-1.88.48-1.88,1.18s.62,1.24,1.7,1.24c1.34,0,1.78-.78,1.78-1.84Zm5.58-5.5a27,27,0,0,0-4.76-2.83l1.28-2a34.6,34.6,0,0,1,4.88,2.69Z"/><path d="M142.34,71.34c0,1.29,0,2.79.12,4.21.28,2.86.88,4.8,2.12,4.8.94,0,1.72-2.32,2.1-3.88l2,2.4c-1.32,3.44-2.56,4.66-4.16,4.66-2.16,0-4.06-2-4.62-7.28-.18-1.82-.22-4.12-.22-5.35a11.48,11.48,0,0,0-.14-2l3,0A15.69,15.69,0,0,0,142.34,71.34Zm13.76,8.15-2.62,1c-.3-3.18-1.36-7.84-3.52-10.29l2.52-.84C154.36,71.67,155.88,76.45,156.1,79.49Z"/><path d="M168,70.76c-.44,1.11-.84,2.21-1.18,3h2.32v2.16H158.88V73.73h2.28a12.81,12.81,0,0,0-.7-3l1.94-.4a10.22,10.22,0,0,1,.82,2.93l-1.88.44h5.32l-1.7-.42a20.73,20.73,0,0,0,.82-3Zm.92-.54H159.3V68.16H163V66.38h2.3v1.78h3.68Zm-8.92,7h8.26v7.68H166V84h-3.74v1H160Zm2.2,2.06v2.64H166V79.25Zm15.3-10.89c-.7,1.94-1.58,4.25-2.38,6a6.38,6.38,0,0,1,2,4.68c0,1.46-.32,2.44-1.08,3a3.36,3.36,0,0,1-1.36.5,10.35,10.35,0,0,1-1.6,0,5.45,5.45,0,0,0-.58-2.34,7.56,7.56,0,0,0,1.12,0,2,2,0,0,0,.74-.16c.36-.22.48-.68.48-1.36a5.74,5.74,0,0,0-2-4.08c.58-1.42,1.22-3.46,1.7-5H172.1V84.93h-2.32V67.38h5.64l.36-.1Z"/><path d="M199.08,82.57v1.88H184.5V82.57h6.06V81.19h-4.72V79.31h4.72V78.17l-5,.2-.1-1.86,2.1,0c.28-.46.58-1,.86-1.48h-3.12c-.12,3.26-.64,7.26-2.36,9.94a9.28,9.28,0,0,0-2.12-1.22c2-3.08,2.14-7.58,2.14-10.76V67.16h15.18v5.09h-12.8v.88h13.34V75h-3a21.59,21.59,0,0,1,3.16,2.72l-2,1.22a10,10,0,0,0-.92-1l-3.06.12v1.24h4.8v1.88h-4.8v1.38ZM185.32,69.08v1.24h10.4V69.08ZM191,75c-.32.48-.66,1-1,1.4l3.94-.12a10.82,10.82,0,0,0-1-.76l.86-.52Z"/><path d="M72.84,128.7a10.72,10.72,0,0,1-2.53,1.92,3.66,3.66,0,0,0-.66-.71A9.49,9.49,0,0,0,72.41,128H70.34v-2.73h2.5v-.77H69.9v-.81h2.94v-1h1v1h2.92v.81H73.85v.77h2.56v1.21a7.94,7.94,0,0,0,2.21-3.75l1,.23a12.49,12.49,0,0,1-.54,1.44h4.12v.9h-1a7.29,7.29,0,0,1-1.59,2.95,7.76,7.76,0,0,0,2.81,1.55,4.77,4.77,0,0,0-.65.88A8.18,8.18,0,0,1,80,129a9.81,9.81,0,0,1-3.06,1.69,3.77,3.77,0,0,0-.66-.82,8.14,8.14,0,0,0,3-1.59,8.5,8.5,0,0,1-1.27-2,7.1,7.1,0,0,1-.93,1.08,6,6,0,0,0-.71-.72V128H73.94c.6.28,2.16,1.06,2.58,1.3l-.54.74c-.44-.3-1.41-.87-2.13-1.28v1.82h-1ZM77,135.19h6.25v.93H69.77v-.93h2.46v-2.58h1v2.58H76v-3.25H70.77V131H82.31v.92H77v1.15h4.3V134H77Zm-5.78-7.89h1.59V126H71.25Zm2.6-1.26v1.26h1.62V126Zm4.78-.7,0,0A8.19,8.19,0,0,0,80,127.59a6.31,6.31,0,0,0,1.2-2.25Z"/><path d="M89.49,133.36c-1.6.54-3.31,1.13-4.65,1.56l-.25-1.12,2-.63v-4H84.89v-1H86.6v-3.25H84.74v-1h4.65v1H87.66v3.25h1.52v1H87.66v3.71l1.64-.54Zm9,1.59v1H88.79v-1h4.56v-2H89.94v-1h3.41v-1.76H90.12v-6.67h7.62v6.67H94.47v1.76H98v1h-3.5v2Zm-7.31-8.64h2.28v-1.89H91.14Zm0,2.84h2.28v-1.92H91.14Zm5.54-4.73h-2.3v1.89h2.3Zm0,2.81h-2.3v1.92h2.3Z"/><path d="M104.13,123.67c-.07.48-.12,1-.15,1.49-.06,1.68-.18,5.19-.18,7.41,0,1.63,1,2.2,2.43,2.2a6.21,6.21,0,0,0,5.34-3.07l.83,1a7.42,7.42,0,0,1-6.2,3.27c-2.13,0-3.6-.9-3.6-3.31,0-2.21.15-6,.15-7.53a7.62,7.62,0,0,0-.13-1.5Z"/><path d="M117.6,124.54c.12.24.38.72.53,1,.25.49.55,1.09.85,1.71a15,15,0,0,1,5.34-1.59c2.06,0,3.32,1.18,3.32,2.8s-1.1,3-3.42,3A6.59,6.59,0,0,1,122,131l0-1.2a5,5,0,0,0,2.1.49c1.64,0,2.3-.88,2.3-1.93s-.69-1.7-2.16-1.7a13.54,13.54,0,0,0-4.83,1.5c.19.41.39.83.57,1.23.81,1.83,1.74,4.61,2.25,6.24L121,136a43.45,43.45,0,0,0-2-6.09c-.18-.42-.37-.84-.55-1.23-1.14.55-2.18,1.09-2.85,1.39l-.59-1.23c.44-.12,1-.3,1.23-.4.5-.2,1.1-.47,1.74-.75a15.21,15.21,0,0,0-.84-1.64,9.81,9.81,0,0,0-.72-1Zm4.46,1.07a17.64,17.64,0,0,0-1.94-1.73l.87-.63a19.59,19.59,0,0,1,1.94,1.68Z"/><path d="M138.3,126.43c0,.84,0,1.76,0,2.43a3.59,3.59,0,0,1,.48,1.91c0,2-1,4.24-4.42,5.28l-1-1c2-.45,3.33-1.26,4-2.58a2.11,2.11,0,0,1-1.28.38,2.4,2.4,0,0,1-2.46-2.49,2.62,2.62,0,0,1,2.63-2.6,2.86,2.86,0,0,1,1,.17c0-.44,0-1,0-1.47-2.25,0-4.77.12-6.63.25l0-1.17c1.65,0,4.44-.12,6.65-.15,0-.42,0-.76,0-1s-.06-.75-.09-.93h1.36l-.07.93c0,.22,0,.57,0,1h4.58l0,1.13c-.84-.05-2.19-.08-4.36-.08Zm-.79,3.26a1.32,1.32,0,0,0-1.32-.92,1.51,1.51,0,0,0-1.5,1.56,1.43,1.43,0,0,0,1.51,1.47C137.07,131.8,137.64,131.1,137.51,129.69Z"/><path d="M147.27,126.31c0,.93,0,2.3.11,3.51.24,2.49,1,4.13,2,4.13.76,0,1.45-1.53,1.84-3l1,1.08c-.89,2.52-1.8,3.37-2.82,3.37-1.4,0-2.75-1.39-3.15-5.25a39.49,39.49,0,0,1-.17-4,7.45,7.45,0,0,0-.09-1.32l1.44,0C147.33,125.23,147.29,125.92,147.27,126.31Zm10.47,6.24-1.21.48a14.74,14.74,0,0,0-2.57-7.35l1.17-.4A15.22,15.22,0,0,1,157.74,132.55Z"/><path d="M163.1,136.15a23.84,23.84,0,0,0-3.32-3.34l1-.86a28.54,28.54,0,0,1,3.36,3.33Z"/><path d="M76.59,152.48a10.2,10.2,0,0,1-2.53,1.92,3.35,3.35,0,0,0-.66-.7,9.53,9.53,0,0,0,2.76-1.88H74.09v-2.73h2.5v-.76H73.65v-.81h2.94v-1h1v1h2.92v.81H77.6v.76h2.56v1.22a8,8,0,0,0,2.21-3.75l1,.22a11.24,11.24,0,0,1-.54,1.44H87v.9H86a7.33,7.33,0,0,1-1.59,3,7.75,7.75,0,0,0,2.81,1.54,4.84,4.84,0,0,0-.65.89,8.2,8.2,0,0,1-2.83-1.76,10,10,0,0,1-3.06,1.7,4.07,4.07,0,0,0-.66-.83,8,8,0,0,0,3-1.59,8.66,8.66,0,0,1-1.27-2,8.22,8.22,0,0,1-.93,1.08,5.31,5.31,0,0,0-.71-.72v1.42H77.69c.6.29,2.16,1.07,2.58,1.31l-.54.73c-.44-.3-1.41-.87-2.13-1.27v1.81h-1Zm4.19,6.5H87v.93H73.52V159H76V156.4h1V159H79.7v-3.26H74.52v-.91H86.06v.91H80.78v1.16h4.3v.87h-4.3ZM75,151.09h1.59v-1.26H75Zm2.6-1.26v1.26h1.62v-1.26Zm4.78-.71,0,0a8.14,8.14,0,0,0,1.38,2.2,6.22,6.22,0,0,0,1.2-2.25Z"/><path d="M93.44,158.23c.28,0,.34-.32.37-1.46a2.27,2.27,0,0,0,.87.39c-.09,1.47-.36,2-1.17,2H92.19c-1,0-1.21-.3-1.21-1.52v-2h-1.2v1h-.87V150.5h.87v4.11H91v-5.28c-.8.15-1.61.27-2.36.38a4.58,4.58,0,0,0-.33-.87c.87-.12,1.82-.29,2.69-.47v-1.8h1v1.58a13.66,13.66,0,0,0,1.84-.56l.8.83a19.87,19.87,0,0,1-2.64.72v5.47h1.32v-4.12h.88v5.76h-.88v-.66H91.94v2c0,.51.06.6.39.6Zm4.36,0a10.25,10.25,0,0,1-3.13,2,6.53,6.53,0,0,0-.74-.75,8.81,8.81,0,0,0,2.9-1.83Zm-.34-8.58c.12-.45.24-1,.33-1.42H94.85v-1h7.24v1H99c-.15.49-.32,1-.47,1.42h3v7.76H95.48v-7.76Zm3.07.87h-4V152h4Zm0,2.27h-4v1.44h4Zm0,2.28h-4v1.45h4Zm-.7,2.68a16.54,16.54,0,0,1,2.55,1.88l-.87.61A17.88,17.88,0,0,0,99,158.3Z"/><path d="M107.88,147.46c-.07.48-.12,1-.15,1.48-.06,1.68-.18,5.19-.18,7.41,0,1.64,1,2.21,2.43,2.21a6.19,6.19,0,0,0,5.34-3.08l.83,1a7.42,7.42,0,0,1-6.2,3.27c-2.13,0-3.6-.9-3.6-3.32,0-2.2.15-5.95.15-7.53a7.69,7.69,0,0,0-.13-1.5Z"/><path d="M121.35,148.33c.12.24.38.72.53,1l.85,1.71a15.16,15.16,0,0,1,5.34-1.59c2.06,0,3.32,1.19,3.32,2.81s-1.1,3-3.42,3a6.59,6.59,0,0,1-2.22-.42l0-1.2a5,5,0,0,0,2.1.5c1.64,0,2.3-.89,2.3-1.94s-.69-1.69-2.16-1.69a13.34,13.34,0,0,0-4.83,1.5c.19.4.39.82.57,1.23.81,1.83,1.74,4.6,2.25,6.24l-1.29.34a44.33,44.33,0,0,0-2-6.09c-.18-.42-.37-.84-.55-1.23-1.14.56-2.18,1.1-2.85,1.4l-.59-1.23a12.55,12.55,0,0,0,1.23-.41c.5-.19,1.1-.46,1.74-.75a15,15,0,0,0-.84-1.63,8.9,8.9,0,0,0-.72-1.05Zm4.46,1.06a16.58,16.58,0,0,0-1.94-1.72l.87-.63a17.25,17.25,0,0,1,1.94,1.68Z"/><path d="M142.05,150.22c0,.84,0,1.75,0,2.43a3.57,3.57,0,0,1,.48,1.9c0,2-1,4.25-4.42,5.28l-1-1c2-.45,3.33-1.26,4-2.58a2.17,2.17,0,0,1-1.28.37,2.39,2.39,0,0,1-2.46-2.49,2.61,2.61,0,0,1,2.63-2.59,3.11,3.11,0,0,1,1,.16c0-.43,0-1,0-1.47-2.25,0-4.77.12-6.63.26l0-1.17c1.65,0,4.44-.12,6.65-.15,0-.42,0-.77,0-1s-.06-.75-.09-.93h1.36l-.07.93c0,.23,0,.57,0,1h.23l4.35,0,0,1.12c-.84,0-2.19-.07-4.36-.07Zm-.79,3.25a1.32,1.32,0,0,0-1.32-.91,1.51,1.51,0,0,0-1.5,1.56,1.43,1.43,0,0,0,1.51,1.47C140.82,155.59,141.39,154.88,141.26,153.47Z"/><path d="M151,150.1c0,.93,0,2.29.11,3.51.24,2.49,1,4.12,2,4.12.76,0,1.45-1.53,1.84-3l1,1.08c-.89,2.52-1.8,3.38-2.82,3.38-1.4,0-2.75-1.4-3.15-5.25a39.49,39.49,0,0,1-.17-4,7.39,7.39,0,0,0-.09-1.32l1.44,0C151.08,149,151,149.71,151,150.1Zm10.47,6.24-1.21.48a14.74,14.74,0,0,0-2.57-7.35l1.17-.41A15.26,15.26,0,0,1,161.49,156.34Z"/><path d="M56.54,173.73H50.88v-.91h5.66ZM56,183.17H52.53v.69h-1v-5H56Zm-4.42-8.33H56v.89H51.59Zm0,2H56v.9H51.59ZM56,171.75H51.66v-.9H56Zm-3.45,8v2.52H55v-2.52Zm6.24-7.13a4.4,4.4,0,0,1-1.92,3.92,4.78,4.78,0,0,0-.81-.74,3.46,3.46,0,0,0,1.67-3.19v-1.8h4.68v3.66c0,.33,0,.39.28.39h.75c.27,0,.33-.2.36-1.64a2.52,2.52,0,0,0,.93.41c-.09,1.75-.36,2.19-1.15,2.19h-1c-.91,0-1.18-.29-1.18-1.35V171.8H58.77Zm5,4.4a9.71,9.71,0,0,1-2.53,4.42,9.4,9.4,0,0,0,3.45,1.62A5,5,0,0,0,64,184a10.19,10.19,0,0,1-3.57-1.85A11.26,11.26,0,0,1,56.67,184a3.64,3.64,0,0,0-.6-1,10.16,10.16,0,0,0,3.54-1.65,10.26,10.26,0,0,1-2.1-3.27l1-.3a8.46,8.46,0,0,0,1.94,2.89,8,8,0,0,0,2-2.92H56.73v-1H62.9l.19-.05Z"/><path d="M71.79,173.73H65.88v-.91h5.91Zm-.6,9.44H67.56v.69h-1v-5h4.62Zm-4.6-8.33h4.65v.89H66.59Zm0,2h4.65v.9H66.59Zm4.65-5.07H66.66v-.9h4.58Zm-3.68,8v2.52h2.63v-2.52Zm12.2-3.23H76.4V184H75.29v-7.5H71.78v-1.09h3.51v-5.06H76.4v5.06h3.36Z"/><path d="M82.22,177.74c.79-.81,2-2.49,2.91-3.54s1.65-1.16,2.64-.17,2,2.39,3,3.41,2.37,2.55,3.71,3.75l-.95,1.06c-1.12-1.06-2.49-2.56-3.51-3.72s-2.1-2.52-2.79-3.28-.91-.59-1.41,0c-.69.87-1.92,2.52-2.67,3.42-.31.39-.64.84-.87,1.16l-1.11-1.16A9.11,9.11,0,0,0,82.22,177.74Z"/><path d="M102.54,182.15a10.11,10.11,0,0,0,1.28-.18,4.45,4.45,0,0,0,3.76-4.4,4.11,4.11,0,0,0-3.94-4.3,31.19,31.19,0,0,1-.89,4.27c-.91,3.05-2.1,4.62-3.48,4.62s-2.65-1.53-2.65-4a6.34,6.34,0,0,1,6.51-6.05,5.39,5.39,0,0,1,5.7,5.46c0,3.12-2.06,5.21-5.6,5.67Zm-1-4.86a23.92,23.92,0,0,0,.82-4,5.18,5.18,0,0,0-4.59,4.8c0,1.88.87,2.7,1.52,2.7S100.8,179.79,101.57,177.29Z"/><path d="M114.42,178.37a5.85,5.85,0,0,0-.3,1.69c0,1.11,1.14,1.89,3.51,1.89a19.14,19.14,0,0,0,5.09-.57v1.29a21.51,21.51,0,0,1-5.07.51c-3,0-4.77-1-4.77-2.85a9.63,9.63,0,0,1,.3-2.08Zm-.61-6a34.31,34.31,0,0,0,3.93.19c1.42,0,2.94-.1,4-.21v1.23c-1,.08-2.64.18-4,.18s-2.75-.06-3.93-.16Z"/><path d="M133.82,174.27a30,30,0,0,1-3.08.5c-.13.66-.3,1.33-.46,2a43.76,43.76,0,0,1-2.33,6.79l-1.32-.43a32.46,32.46,0,0,0,2.49-6.65c.14-.49.26-1,.38-1.57-.48,0-.93,0-1.35,0-.66,0-1.2,0-1.73-.06l0-1.17a13.21,13.21,0,0,0,1.78.11c.5,0,1,0,1.59-.06.11-.54.18-1,.23-1.31a7.37,7.37,0,0,0,0-1.21l1.46.12a10.87,10.87,0,0,0-.27,1.17l-.23,1.09a21.6,21.6,0,0,0,2.84-.54Zm-.59,5.19a5.57,5.57,0,0,0-.21,1.35c0,.69.33,1.37,2.45,1.37a15.23,15.23,0,0,0,2.89-.29l0,1.22a22.88,22.88,0,0,1-2.87.21c-2.34,0-3.57-.74-3.57-2.21a8.1,8.1,0,0,1,.23-1.75Zm-.37-3.61c.78-.06,1.75-.12,2.71-.12a23.81,23.81,0,0,1,2.57.12l0,1.14a21.54,21.54,0,0,0-2.51-.17,24.88,24.88,0,0,0-2.74.15Zm4.14-1.67a16.86,16.86,0,0,0-1.22-2.08l.8-.35a17.1,17.1,0,0,1,1.23,2.07Zm1.23-3a19.23,19.23,0,0,1,1.27,2.07l-.81.36a16,16,0,0,0-1.24-2.09Z"/><path d="M146.24,173.79c-.18.27-.44.68-.66,1,0,.3-.05.63-.08.94a7.52,7.52,0,0,1,4.71-1.84,3.76,3.76,0,0,1,3.92,3.75c0,3-2.18,4.57-5.42,5.19l-.54-1.13c2.51-.37,4.76-1.53,4.74-4.09a2.7,2.7,0,0,0-2.86-2.63,6.9,6.9,0,0,0-4.64,2.13c0,.62,0,1.22,0,1.74,0,1.35,0,2.25.06,3.59,0,.25,0,.63.07.9h-1.3c0-.21,0-.65,0-.89,0-1.42,0-2.16,0-3.81,0-.15,0-.34,0-.57-.72,1.1-1.69,2.52-2.41,3.51l-.75-1c.82-1,2.53-3.35,3.28-4.52,0-.48.06-1,.09-1.42-.67.07-2,.25-2.89.37l-.12-1.24a8,8,0,0,0,1,0c.48,0,1.35-.12,2.12-.24,0-.7.07-1.23.07-1.39a5.24,5.24,0,0,0-.06-1.11l1.43,0c-.08.36-.2,1.2-.3,2.24l.07,0Z"/><path d="M160.37,171.09a27,27,0,0,0-.69,4.13c.58-1.53,2.14-3.38,4-3.38s3.4,2,3.4,5.1c0,4.13-2.59,5.94-6.28,6.62l-.71-1.08c3.23-.5,5.75-1.79,5.75-5.52,0-2.34-.78-4-2.36-4-1.84,0-3.55,2.68-3.73,4.63a5.91,5.91,0,0,0,0,1.82l-1.17.09a17.46,17.46,0,0,1-.15-2.36,39,39,0,0,1,.45-4.8c.06-.46.1-.91.12-1.27Z"/><path d="M178,180.86c0-.57.06-1.53.06-2.31-1.38.75-2.34,1.51-2.34,2.49,0,1.17,1.15,1.33,2.68,1.33a25.45,25.45,0,0,0,4.05-.36l0,1.22a39.43,39.43,0,0,1-4.06.24c-2.13,0-3.84-.45-3.84-2.27s1.77-2.86,3.49-3.76a1.25,1.25,0,0,0-1.33-.92,3.94,3.94,0,0,0-2.57,1.1c-.42.4-.84,1-1.35,1.56l-1-.77a15.62,15.62,0,0,0,3.42-4.53h-.61c-.63,0-1.64,0-2.45-.09v-1.12c.8.09,1.83.15,2.51.15.31,0,.63,0,1,0a8,8,0,0,0,.38-1.84l1.23.1c-.11.42-.24,1-.45,1.71a38.78,38.78,0,0,0,4.54-.45v1.11a44.64,44.64,0,0,1-4.92.42,10.56,10.56,0,0,1-1.34,2.28,4.28,4.28,0,0,1,2.06-.55,1.85,1.85,0,0,1,2,1.35c1-.48,1.92-.84,2.7-1.2.45-.2.81-.38,1.23-.59l.48,1.13c-.37.1-.91.31-1.3.46-.84.33-1.91.77-3,1.29,0,.86,0,2.12,0,2.84Z"/></g></g></svg>