<svg xmlns="http://www.w3.org/2000/svg" viewBox="0 0 235.5 235.5"><defs><style>.cls-1{fill:none;stroke:#73c3c4;stroke-miterlimit:10;stroke-width:3px;stroke-dasharray:5;}</style></defs><title>i-circle2</title><g id="Layer_2" data-name="Layer 2"><g id="SVG"><circle class="cls-1" cx="117.75" cy="117.75" r="116.25"/><line class="cls-1" x1="33.75" y1="102.5" x2="201.75" y2="102.5"/><path d="M47.58,67.84c0,.44-.06.88-.06,1.52v6.77c0,.5,0,1.28.06,1.74h-3c0-.38.1-1.16.1-1.76V69.36a13.6,13.6,0,0,0-.08-1.52Zm9.22-.18c0,.56-.08,1.2-.08,2v4c0,4.3-.84,6.14-2.32,7.78a11.62,11.62,0,0,1-4.86,2.9l-2.1-2.2a9.36,9.36,0,0,0,4.9-2.52c1.36-1.5,1.62-3,1.62-6.12V69.66a14.11,14.11,0,0,0-.12-2Z"/><path d="M80.82,73.65a7.41,7.41,0,0,0-.38.84,14.37,14.37,0,0,1-3,5.54,15,15,0,0,1-7.14,4.32l-2-2.26a13.48,13.48,0,0,0,6.94-3.5,8.68,8.68,0,0,0,2.06-3.46H67.68c-.48,0-1.48,0-2.32.1v-2.6c.84.08,1.7.12,2.32.12h9.9a4.22,4.22,0,0,0,1.46-.2ZM67.2,67.84a16.86,16.86,0,0,0,2.08.1H77a18.86,18.86,0,0,0,2.16-.1v2.58c-.54,0-1.48-.06-2.2-.06H69.28c-.64,0-1.5,0-2.08.06Z"/><path d="M92.06,76.91l-2.44.92a40.4,40.4,0,0,0-1.82-4.62l2.4-.86C90.7,73.37,91.66,75.79,92.06,76.91Zm10.16-4.16c-.24.64-.36,1.06-.48,1.46A16.13,16.13,0,0,1,99,80.07a15.62,15.62,0,0,1-6.7,5l-2.1-2.14a13.46,13.46,0,0,0,6.64-4.18,13.48,13.48,0,0,0,2.54-6.86Zm-5.74,2.92-2.4.84a33.94,33.94,0,0,0-1.62-4.45l2.38-.77C95.22,72.15,96.2,74.75,96.48,75.67Z"/><path d="M124.72,70.74a8.45,8.45,0,0,0-.66,1.45,20.87,20.87,0,0,1-3.48,6.68,18.84,18.84,0,0,1-8.08,5.64l-2.36-2.12a15.94,15.94,0,0,0,8.06-4.94A14.22,14.22,0,0,0,121,72h-5.62a22.8,22.8,0,0,1-5,4.84l-2.24-1.66a17.62,17.62,0,0,0,6.24-6.45,9.62,9.62,0,0,0,.9-2.1l2.92,1c-.48.7-1,1.6-1.22,2l-.06.1h4a6.41,6.41,0,0,0,1.74-.24Z"/><path d="M145.42,69.62a9.45,9.45,0,0,0-.7,1.24,29.15,29.15,0,0,1-3.14,5.51,56.22,56.22,0,0,1,5.58,5.72l-2.28,2a45.61,45.61,0,0,0-5-5.66A26.34,26.34,0,0,1,132.32,84l-2.06-2.16a22.66,22.66,0,0,0,8.2-5.74,15.5,15.5,0,0,0,3-4.9h-6.78c-.84,0-1.94.11-2.36.13V68.52a22.34,22.34,0,0,0,2.36.14h7a7.22,7.22,0,0,0,2.08-.26Z"/><path d="M159.76,70.2c-.36,3.33-1.46,5.43-6.54,6.53a6.79,6.79,0,0,0-1.28-2c4.36-.76,5.06-2.16,5.38-4.53h-2.76v2.33h-2.34V68h7.24v-1.8h2.44V68h7.42v4.15h-2.46v-2H164v3.17c0,.54.12.62.74.62h1.78c.5,0,.6-.2.68-1.46a6.42,6.42,0,0,0,2,.82C169,75.45,168.4,76,166.8,76h-2.38c-2.24,0-2.72-.64-2.72-2.62V70.2Zm9.74,12v2.16H152V82.23h7.46v-3H154.1V77.11h13.7v2.14h-5.9v3Z"/><path d="M176.72,74.23v10.7h-2.36V67H182v7.23Zm0-5.51v1.06h3.08V68.72Zm3.08,3.81V71.38h-3.08v1.15Zm11.44,9.58c0,1.28-.26,2-1.06,2.36a8.64,8.64,0,0,1-3.66.46,8.81,8.81,0,0,0-.52-1.86h-5v1h-2.16V75.43h7.7v7.1c.78,0,1.52,0,1.78,0s.48-.12.48-.44V74.27H183.4V67h7.84ZM181,77.19v1.2h3.3v-1.2Zm3.3,4.14V80.09H181v1.24Zm1.32-12.61v1.06h3.18V68.72Zm3.18,3.85V71.38h-3.18v1.19Z"/><path d="M58.93,134.56a9.75,9.75,0,0,0,3.38.44c.72,0,5.28,0,6.18,0a4.17,4.17,0,0,0-.45,1.11H62.32c-3.18,0-5-.5-6-2.54a10.15,10.15,0,0,1-.9,3.05,6.75,6.75,0,0,0-.92-.54c.86-1.5,1-3.89,1.08-6.54l1.05.07c0,.72-.06,1.43-.1,2.09A4.59,4.59,0,0,0,57.91,134v-5.69H54.78v-1h2.86v-1.9H55.17v-1h2.47v-1.66h1.07v1.66h2.41v1H58.71v1.9h2.8v1H58.93v2.22h2.43v1H58.93Zm7.52-10.09H62.07v-1h5.46V129H66.45v-.37H63.3v3.88c0,.5.1.57.82.57h2.45c.63,0,.75-.3.81-2.08a3.6,3.6,0,0,0,1,.43c-.15,2.12-.46,2.67-1.74,2.67H64c-1.4,0-1.8-.33-1.8-1.59v-4.87h4.23Z"/><path d="M81.85,128.31a21.38,21.38,0,0,1-2.52.63c.44.94.92,1.95,1.34,2.73l-.59.73c-.75-.13-2-.3-2.89-.42l.1-.91,1.89.21c-.28-.59-.63-1.37-1-2.15a35.31,35.31,0,0,1-6.65.14l0-1.1a29.32,29.32,0,0,0,6.24,0l-.53-1.21c-.12-.26-.22-.53-.33-.77a29.47,29.47,0,0,1-5.22,0L71.61,125a28,28,0,0,0,4.86.12l-.2-.45a9.74,9.74,0,0,0-.55-1l1.35-.29a15.18,15.18,0,0,0,.55,1.65,16.68,16.68,0,0,0,3-.7l.21,1.06A20,20,0,0,1,78,126l.27.62c.12.31.33.78.58,1.33a16.2,16.2,0,0,0,2.75-.73Zm-8.53,3.09a5,5,0,0,0-.35,1.51c0,1.14.9,1.86,3,1.86a17.85,17.85,0,0,0,3.66-.34l0,1.21a22.39,22.39,0,0,1-3.59.29c-2.65,0-4.21-.92-4.21-2.78a6.89,6.89,0,0,1,.34-1.86Z"/><path d="M86.65,125.28c1-.09,3.78-.38,6.51-.6,1.62-.14,3-.21,4-.26v1.2a12.62,12.62,0,0,0-2.91.24,5.18,5.18,0,0,0-3.39,4.68c0,2.91,2.7,3.83,5.11,3.92l-.43,1.24c-2.75-.1-5.88-1.57-5.88-4.89a6,6,0,0,1,2.76-5c-1.31.15-5.36.54-7,.87l-.14-1.32C85.9,125.34,86.37,125.31,86.65,125.28Z"/><path d="M102.27,126.31c0,.93,0,2.3.1,3.51.24,2.49,1,4.13,2,4.13.77,0,1.46-1.53,1.85-3l.94,1.08c-.88,2.52-1.8,3.37-2.82,3.37-1.39,0-2.74-1.39-3.15-5.25a39.16,39.16,0,0,1-.16-4,8.53,8.53,0,0,0-.09-1.32l1.44,0A13.31,13.31,0,0,0,102.27,126.31Zm10.47,6.24-1.22.48a14.64,14.64,0,0,0-2.56-7.35l1.17-.4A15.32,15.32,0,0,1,112.74,132.55Z"/><path d="M125.23,124.9l-.82.57c-.74.56-2.73,2.31-3.87,3.27a6.42,6.42,0,0,1,2-.31c2.47,0,4.26,1.5,4.26,3.51,0,2.4-2,4-5.13,4-2,0-3.27-.9-3.27-2.13a2.11,2.11,0,0,1,2.29-2,2.93,2.93,0,0,1,3.06,2.62,2.59,2.59,0,0,0,1.85-2.52c0-1.45-1.47-2.52-3.35-2.52-2.44,0-3.79,1-5.68,3l-.87-.89,4-3.33c.83-.69,2.67-2.25,3.41-2.91l-4.47.21a8.07,8.07,0,0,0-1,.09l0-1.24a9.48,9.48,0,0,0,1,0c.77,0,4.29-.1,5.07-.18a4.12,4.12,0,0,0,.81-.12Zm-2.56,9.83a2,2,0,0,0-2-2c-.67,0-1.18.4-1.18.91,0,.74.85,1.16,2,1.16A7.38,7.38,0,0,0,122.67,134.73Z"/><path d="M140.86,126.39c-.33.21-.7.4-1.14.63a49.17,49.17,0,0,0-4.51,2.44c-1.38.9-2.21,1.88-2.21,3s1.17,2,3.51,2a22,22,0,0,0,4.76-.51v1.35a29.86,29.86,0,0,1-4.7.36c-2.79,0-4.81-.84-4.81-3.06,0-1.53,1-2.75,2.56-3.86a48.5,48.5,0,0,1-2.16-4.57l1.19-.48a34.76,34.76,0,0,0,2,4.39c1.4-.84,3-1.62,3.81-2.08a6,6,0,0,0,1.07-.71Z"/><path d="M156.85,128.31a21.38,21.38,0,0,1-2.52.63c.44.94.92,1.95,1.34,2.73l-.59.73c-.75-.13-2-.3-2.89-.42l.1-.91,1.89.21c-.28-.59-.63-1.37-1-2.15a35.31,35.31,0,0,1-6.65.14l0-1.1a29.32,29.32,0,0,0,6.24,0l-.53-1.21c-.12-.26-.22-.53-.33-.77a29.47,29.47,0,0,1-5.22,0l-.07-1.09a28,28,0,0,0,4.86.12c-.08-.17-.14-.32-.2-.45a9.74,9.74,0,0,0-.55-1l1.35-.29a15.18,15.18,0,0,0,.55,1.65,16.68,16.68,0,0,0,3-.7l.21,1.06A20,20,0,0,1,153,126l.27.62c.12.31.33.78.58,1.33a16.2,16.2,0,0,0,2.75-.73Zm-8.53,3.09a5,5,0,0,0-.35,1.51c0,1.14.9,1.86,3,1.86a17.85,17.85,0,0,0,3.66-.34l0,1.21a22.39,22.39,0,0,1-3.59.29c-2.65,0-4.21-.92-4.21-2.78a6.89,6.89,0,0,1,.34-1.86Z"/><path d="M170.49,128.94a4.91,4.91,0,0,1,1.53,3.43c0,2.21-2,3.56-4.92,3.56-2,0-3.66-.89-3.66-3.32a16.55,16.55,0,0,1,.12-1.71,14.09,14.09,0,0,1-3.09-.54l.06-1.14a11.73,11.73,0,0,0,3.13.6c.11-.87.23-1.8.33-2.67a20.25,20.25,0,0,1-3.16-.51l.06-1.11a13.54,13.54,0,0,0,3.24.54c.07-.6.13-1.14.16-1.54a6,6,0,0,0,0-1l1.35.08a8,8,0,0,0-.2,1c0,.38-.12.9-.19,1.52a22.29,22.29,0,0,0,3-.18l0,1.12a29.86,29.86,0,0,1-3,.15h-.1c-.12.87-.23,1.8-.33,2.66h.28a24.85,24.85,0,0,0,3.09-.18l0,1.14a28.08,28.08,0,0,1-2.91.13h-.54c-.06.59-.09,1.11-.09,1.47,0,1.41.81,2.31,2.51,2.31,2.25,0,3.69-1,3.69-2.5a4.06,4.06,0,0,0-1.64-3Z"/><path d="M178.09,136.15a24.34,24.34,0,0,0-3.31-3.34l1-.86a28.54,28.54,0,0,1,3.36,3.33Z"/><path d="M59.94,157.78V159h-1V147.34h4.19v10.44Zm0-9.45v2.11H62v-2.11Zm0,5.25H62v-2.19h-2.1Zm2.1,3.18v-2.22h-2.1v2.22Zm7.12-2.13c.38,2.71,1.14,4.5,1.92,4.5.3,0,.41-.71.45-2.16a4.24,4.24,0,0,0,.9.51c-.16,2.1-.54,2.68-1.44,2.68-1.44,0-2.41-2.29-2.88-5.53H65.52v3.93l3-.54.07,1-5.31,1.07L63,159l1.47-.24V147.23h7.17v4.2h-2.7c0,.75.06,1.49.13,2.16h3v1Zm-3.64-6.39v2.2h5v-2.2ZM68,153.59c-.08-.69-.12-1.41-.15-2.16H65.52v2.16Z"/><path d="M76.59,152.72a20.15,20.15,0,0,1,5.25-1.21c2.1,0,3.63,1.26,3.63,3.28,0,2.87-2.76,4.34-6.77,4.58l-.48-1.16c3.21-.1,6-1,6-3.43a2.25,2.25,0,0,0-2.5-2.18c-1.85,0-5.09,1.35-6,1.73l-.49-1.25A9.38,9.38,0,0,0,76.59,152.72Z"/><path d="M90.4,149.06c1-.09,3.78-.37,6.51-.6,1.62-.13,3-.21,4-.25v1.2a12.09,12.09,0,0,0-2.91.24,5.16,5.16,0,0,0-3.39,4.68c0,2.91,2.7,3.82,5.11,3.91l-.43,1.25c-2.75-.11-5.88-1.58-5.88-4.89a6,6,0,0,1,2.76-5c-1.31.15-5.36.54-7,.87l-.14-1.32C89.65,149.12,90.12,149.09,90.4,149.06Z"/><path d="M106,150.1c0,.93,0,2.29.1,3.51.24,2.49,1,4.12,2,4.12.77,0,1.46-1.53,1.85-3l.94,1.08c-.88,2.52-1.8,3.38-2.82,3.38-1.39,0-2.74-1.4-3.15-5.25a39.16,39.16,0,0,1-.16-4,8.45,8.45,0,0,0-.09-1.32l1.44,0A13.31,13.31,0,0,0,106,150.1Zm10.47,6.24-1.22.48a14.64,14.64,0,0,0-2.56-7.35l1.17-.41A15.36,15.36,0,0,1,116.49,156.34Z"/><path d="M129,148.69c-.27.18-.6.4-.82.57-.74.55-2.73,2.31-3.87,3.27a6.16,6.16,0,0,1,2-.32c2.47,0,4.26,1.5,4.26,3.51,0,2.4-2,4-5.13,4-2,0-3.27-.9-3.27-2.13a2.11,2.11,0,0,1,2.29-2,2.93,2.93,0,0,1,3.06,2.63,2.6,2.6,0,0,0,1.85-2.52c0-1.46-1.47-2.52-3.35-2.52-2.44,0-3.79,1-5.68,2.95l-.87-.88,4-3.33c.83-.69,2.67-2.25,3.41-2.91-.78,0-3.71.16-4.47.21a6.54,6.54,0,0,0-1,.09l0-1.25a7.6,7.6,0,0,0,1,.05c.77,0,4.29-.11,5.07-.18a6.72,6.72,0,0,0,.81-.12Zm-2.56,9.82a2,2,0,0,0-2-2,1.06,1.06,0,0,0-1.18.92c0,.73.85,1.15,2,1.15A7.38,7.38,0,0,0,126.42,158.51Z"/><path d="M144.61,150.17a12.69,12.69,0,0,1-1.14.63,49.56,49.56,0,0,0-4.51,2.45c-1.38.9-2.21,1.87-2.21,3s1.17,2,3.51,2a22,22,0,0,0,4.76-.51v1.35a28.7,28.7,0,0,1-4.7.36c-2.79,0-4.81-.84-4.81-3.06,0-1.53,1-2.74,2.56-3.85a50,50,0,0,1-2.16-4.58l1.19-.48a34.94,34.94,0,0,0,2,4.4c1.4-.84,3-1.62,3.81-2.09a6,6,0,0,0,1.07-.7Z"/><path d="M160.6,152.09a18,18,0,0,1-2.52.63c.44.95.92,1.95,1.34,2.73l-.59.74c-.75-.14-2-.3-2.89-.42l.1-.92c.72.09,1.43.17,1.89.21-.28-.58-.63-1.36-1-2.14a36.21,36.21,0,0,1-6.65.13l0-1.09a30,30,0,0,0,6.24,0l-.53-1.22c-.12-.25-.22-.52-.33-.76a31.51,31.51,0,0,1-5.22,0l-.07-1.1a26.11,26.11,0,0,0,4.86.12c-.08-.16-.14-.31-.2-.45-.22-.46-.36-.73-.55-1.05l1.35-.28a15.18,15.18,0,0,0,.55,1.65,16.67,16.67,0,0,0,3-.71l.21,1.07a21.51,21.51,0,0,1-2.76.63l.27.61c.12.32.33.78.58,1.34a15.2,15.2,0,0,0,2.75-.74Zm-8.53,3.09a5.16,5.16,0,0,0-.35,1.52c0,1.14.9,1.86,3,1.86a17.83,17.83,0,0,0,3.66-.35l0,1.22a23.7,23.7,0,0,1-3.59.28c-2.65,0-4.21-.91-4.21-2.77a6.89,6.89,0,0,1,.34-1.86Z"/><path d="M174.24,152.72a4.93,4.93,0,0,1,1.53,3.44c0,2.2-2,3.55-4.92,3.55-2,0-3.66-.88-3.66-3.31a16.2,16.2,0,0,1,.12-1.71,14.7,14.7,0,0,1-3.09-.54l.06-1.14a12.57,12.57,0,0,0,3.13.6c.11-.87.23-1.8.33-2.67a20.25,20.25,0,0,1-3.16-.51l.06-1.11a13.54,13.54,0,0,0,3.24.54c.07-.6.13-1.14.16-1.55a5.87,5.87,0,0,0,0-1l1.35.07a8.51,8.51,0,0,0-.2,1c0,.37-.12.9-.19,1.51a22.29,22.29,0,0,0,3-.18l0,1.13a29.86,29.86,0,0,1-3,.15h-.1c-.12.87-.23,1.8-.33,2.65h.28a23.07,23.07,0,0,0,3.09-.18l0,1.14a25.55,25.55,0,0,1-2.91.14h-.54c-.06.58-.09,1.11-.09,1.47,0,1.41.81,2.31,2.51,2.31,2.25,0,3.69-1,3.69-2.51a4.09,4.09,0,0,0-1.64-3Z"/><path d="M63.82,178.17a8.49,8.49,0,0,1-2.2,3.53,8.11,8.11,0,0,0,3,1.44A3.73,3.73,0,0,0,64,184a8.68,8.68,0,0,1-3.13-1.65,10.58,10.58,0,0,1-3,1.57,4.05,4.05,0,0,0-.58-.84V184H56.2v-1.45l-5.05.6-.11-1c.42,0,.9-.08,1.43-.14v-5H51.18v-.93H64.29V177h-7v6.08a9.05,9.05,0,0,0,2.82-1.43A8.49,8.49,0,0,1,58.44,179l.64-.19H57.79v-.89H63l.2,0Zm-1.21-2.94H53v-4.42h9.65ZM53.49,177v1H56.2v-1Zm0,2.9H56.2v-1.05H53.49Zm0,2c.85-.09,1.78-.18,2.71-.29v-.91H53.49Zm8-10.34H54v1h7.5Zm0,1.79H54v1.05h7.5Zm-2.14,5.43a7,7,0,0,0,1.47,2.2,7.17,7.17,0,0,0,1.62-2.2Z"/><path d="M79.44,182.21v1.11H66.07v-1.11h5.6V170.57h1.17v4.59h5.58v1.11H72.84v5.94Z"/><path d="M82.62,179a13,13,0,0,1-1.07,3.81,4.39,4.39,0,0,0-.87-.42,10.74,10.74,0,0,0,1-3.57Zm1.63-1.21v6.25h-1v-6.18l-2.35.14-.09-1,1-.05a16.48,16.48,0,0,0,1-1.38,14.12,14.12,0,0,0-1.94-2.13l.57-.72c.15.12.29.26.44.39a19.23,19.23,0,0,0,1.35-2.79l1,.39c-.51,1-1.14,2.18-1.69,3a12,12,0,0,1,.87,1c.58-.93,1.12-1.89,1.51-2.68l1,.42a53.49,53.49,0,0,1-3,4.47l2.37-.12a12.53,12.53,0,0,0-.69-1.32l.78-.32a11.55,11.55,0,0,1,1.41,3.06l-.82.38a8.33,8.33,0,0,0-.29-.9Zm10.1-2.55a14.09,14.09,0,0,1-2.55,5.85,7.25,7.25,0,0,0,3,2,4.07,4.07,0,0,0-.72.92,8.26,8.26,0,0,1-3-2.13,10.69,10.69,0,0,1-2.82,2.1,3.51,3.51,0,0,0-.76-.83,9.86,9.86,0,0,0,2.94-2.1,14.87,14.87,0,0,1-2-4.5A13.32,13.32,0,0,1,85.93,184a4.61,4.61,0,0,0-.82-.58,9.87,9.87,0,0,0,1.2-2l-.65.22a13.84,13.84,0,0,0-.88-2.67l.81-.25a15,15,0,0,1,.87,2.35,17.61,17.61,0,0,0,1-6.58v-2.21H86v-1h5.41l.18,0,.75.1c-.16,1-.42,2.42-.69,3.71h1.83l.2,0Zm-5.88-2.19a17.45,17.45,0,0,0,2.65,7.21,11.35,11.35,0,0,0,2-4.23H91.45l-.15.69-1-.12c.3-1.3.63-3,.85-4.32H88.47Z"/><path d="M102.54,182.15a10.2,10.2,0,0,0,1.27-.18,4.45,4.45,0,0,0,3.77-4.4,4.12,4.12,0,0,0-4-4.3,31.15,31.15,0,0,1-.88,4.27c-.92,3.05-2.1,4.62-3.48,4.62s-2.66-1.53-2.66-4a6.34,6.34,0,0,1,6.51-6.05,5.39,5.39,0,0,1,5.7,5.46c0,3.12-2,5.21-5.59,5.67Zm-1-4.86a23.92,23.92,0,0,0,.83-4,5.18,5.18,0,0,0-4.59,4.8c0,1.88.87,2.7,1.51,2.7S100.8,179.79,101.56,177.29Z"/><path d="M113.85,172.11c.12.24.37.72.52,1,.26.49.56,1.09.86,1.71a14.84,14.84,0,0,1,5.34-1.59c2.05,0,3.31,1.18,3.31,2.8s-1.09,3-3.42,3a6.7,6.7,0,0,1-2.22-.42l.05-1.2a4.89,4.89,0,0,0,2.1.49c1.63,0,2.29-.88,2.29-1.93,0-.9-.69-1.7-2.16-1.7a13.54,13.54,0,0,0-4.83,1.5c.2.41.39.83.57,1.23.81,1.83,1.74,4.61,2.25,6.24l-1.29.35a43.35,43.35,0,0,0-2-6.09c-.18-.42-.38-.84-.56-1.23-1.14.55-2.17,1.09-2.85,1.39l-.58-1.23c.43-.12,1-.3,1.23-.4.49-.2,1.09-.47,1.74-.75a17.29,17.29,0,0,0-.84-1.64,9.81,9.81,0,0,0-.72-1Zm4.45,1.07a18.5,18.5,0,0,0-1.93-1.73l.87-.63a19.55,19.55,0,0,1,1.93,1.68Z"/><path d="M134.55,174c0,.84,0,1.76,0,2.43a3.68,3.68,0,0,1,.48,1.91c0,2-1,4.24-4.43,5.28l-1-1c2-.45,3.33-1.26,3.94-2.58a2.1,2.1,0,0,1-1.27.38,2.4,2.4,0,0,1-2.46-2.49,2.61,2.61,0,0,1,2.62-2.6,2.86,2.86,0,0,1,1,.17c0-.44,0-1,0-1.47-2.25,0-4.77.12-6.63.25l0-1.17c1.65,0,4.44-.12,6.64-.15,0-.42,0-.76,0-1a8.61,8.61,0,0,0-.09-.93h1.37l-.08.93c0,.22,0,.57,0,1h4.57v1.13c-.84-.05-2.19-.08-4.37-.08Zm-.8,3.26a1.31,1.31,0,0,0-1.32-.92,1.51,1.51,0,0,0-1.5,1.56,1.43,1.43,0,0,0,1.52,1.47C133.32,179.37,133.89,178.67,133.75,177.26Z"/><path d="M144.39,178a7,7,0,0,1,4.8-1.79c2.28,0,3.79,1.37,3.79,3.11,0,2.67-2.35,4.47-7.87,4l-.36-1.23c4.68.57,7-.78,7-2.8,0-1.19-1.09-2-2.61-2a5.78,5.78,0,0,0-4.59,2,3.38,3.38,0,0,0-.45.75l-1.12-.27a52.54,52.54,0,0,0,.75-6l1.27.17C144.78,174.89,144.52,177.05,144.39,178Zm.91-6.84a40.61,40.61,0,0,0,5.75,1.14l-.29,1.17c-1.41-.2-4.63-.86-5.77-1.17Z"/><path d="M167.47,176a19.23,19.23,0,0,1-2.52.65c.44.93.92,2,1.32,2.73l-.57.72c-.75-.12-1.95-.29-2.91-.41l.11-.93c.73.09,1.42.17,1.89.21-.29-.58-.63-1.36-1-2.13a36.89,36.89,0,0,1-6.64.14l0-1.11a30,30,0,0,0,6.24,0l-.52-1.22-.33-.76a29.48,29.48,0,0,1-5.22,0l-.08-1.1a26.16,26.16,0,0,0,4.86.12c-.06-.16-.13-.3-.19-.43a7.46,7.46,0,0,0-.56-1.07l1.35-.27c.15.5.35,1.07.57,1.64a11.71,11.71,0,0,0,2.58-.6l.21,1.08a14.88,14.88,0,0,1-2.38.52l.25.62c.14.3.35.78.6,1.33a16.47,16.47,0,0,0,2.75-.73ZM158.92,179a5.19,5.19,0,0,0-.34,1.52c0,1.14.9,1.86,3,1.86a19.17,19.17,0,0,0,3.64-.33l0,1.2a23.45,23.45,0,0,1-3.58.28c-2.64,0-4.2-.91-4.2-2.76a6.82,6.82,0,0,1,.34-1.86Zm7.7-8.19a16.72,16.72,0,0,1,1.24,2.09l-.78.36a13.26,13.26,0,0,0-1.21-2.12Zm1.57-.6a16.28,16.28,0,0,1,1.29,2l-.76.38a14.27,14.27,0,0,0-1.26-2.07Z"/><path d="M178,180.86c.05-.57.06-1.53.06-2.31-1.38.75-2.34,1.51-2.34,2.49,0,1.17,1.16,1.33,2.69,1.33a25.65,25.65,0,0,0,4.05-.36l0,1.22a39.8,39.8,0,0,1-4.07.24c-2.13,0-3.84-.45-3.84-2.27s1.77-2.86,3.5-3.76a1.26,1.26,0,0,0-1.34-.92,3.93,3.93,0,0,0-2.56,1.1c-.42.4-.84,1-1.35,1.56l-1-.77a15.81,15.81,0,0,0,3.42-4.53h-.62c-.63,0-1.63,0-2.44-.09v-1.12c.79.09,1.83.15,2.5.15.32,0,.63,0,1,0a8,8,0,0,0,.37-1.84l1.23.1c-.1.42-.24,1-.45,1.71a38.74,38.74,0,0,0,4.55-.45l0,1.11a44.64,44.64,0,0,1-4.92.42,10.52,10.52,0,0,1-1.33,2.28,4.24,4.24,0,0,1,2-.55,1.87,1.87,0,0,1,2,1.35c1-.48,1.92-.84,2.7-1.2.45-.2.81-.38,1.23-.59l.48,1.13c-.38.1-.92.31-1.31.46-.84.33-1.9.77-3,1.29,0,.86,0,2.12,0,2.84Z"/></g></g></svg>