<svg xmlns="http://www.w3.org/2000/svg" viewBox="0 0 95.78 95.78"><defs><style>.cls-1{fill:#fff;}.cls-2{fill:#73c6c7;}</style></defs><title>i-label3</title><g id="Layer_2" data-name="Layer 2"><g id="SVG"><circle class="cls-1" cx="47.89" cy="47.89" r="46.39" transform="translate(-14.68 21.97) rotate(-22.5)"/><path class="cls-2" d="M47.89,3A44.89,44.89,0,1,1,3,47.89,44.94,44.94,0,0,1,47.89,3m0-3A47.89,47.89,0,1,0,95.78,47.89,47.89,47.89,0,0,0,47.89,0Z"/><path d="M27.39,41.55a11.94,11.94,0,0,0-.34,1.27,40.76,40.76,0,0,0-.78,6.5,11.88,11.88,0,0,0,.12,1.77c.23-.69.58-1.52.85-2.12l.83.67A38,38,0,0,0,26.9,53.4a2.82,2.82,0,0,0-.08.75c0,.17,0,.42,0,.62l-1.5.1a19.9,19.9,0,0,1-.63-5.23,50,50,0,0,1,.7-6.89,10,10,0,0,0,.13-1.36Zm10.66,5.74c-.85.1-1.85.16-2.93.21,0,1,.06,1.94.11,2.8a10.19,10.19,0,0,1,3.45,2.1l-.86,1.45a11,11,0,0,0-2.5-1.93v.5c0,1.4-1,2.28-2.87,2.28s-3.31-.8-3.31-2.45c0-1.28,1.06-2.43,3.26-2.43a7.59,7.59,0,0,1,1.29.1c0-.75-.07-1.58-.09-2.35-1.26,0-2.58,0-3.88,0l0-1.52c1.32.1,2.64.12,3.89.09V43.65c-1.17,0-2.4,0-3.62,0V42.15a39.34,39.34,0,0,0,7.71-.21v1.45c-.73.08-1.61.15-2.58.2V46c1.07-.07,2-.15,2.95-.27Zm-4.32,4a4.56,4.56,0,0,0-1.38-.2c-1.06,0-1.71.43-1.71,1.06s.63,1.08,1.63,1.08,1.48-.56,1.48-1.41A5.16,5.16,0,0,0,33.73,51.29Z"/><path d="M44.38,49.2a6.17,6.17,0,0,0-.3,1.8c0,1.15,1.15,2,3.66,2a22.75,22.75,0,0,0,5.72-.63l0,1.81a24.81,24.81,0,0,1-5.69.57c-3.53,0-5.44-1.19-5.44-3.33a10.13,10.13,0,0,1,.33-2.34Zm-1-6.8a39.85,39.85,0,0,0,4.41.2c1.6,0,3.37-.1,4.6-.23V44.1c-1.13.09-3,.2-4.58.2-1.7,0-3.12-.06-4.43-.18Z"/><path d="M62.05,41.06a28.55,28.55,0,0,0-.71,4.08c.71-1.52,2.31-3.29,4.3-3.29,2.24,0,3.91,2.22,3.91,5.77,0,4.6-2.88,6.71-7.08,7.48l-1-1.5c3.62-.57,6.31-1.9,6.31-6,0-2.57-.85-4.25-2.43-4.25-2,0-3.83,3-4,5.13a7.32,7.32,0,0,0,0,1.9l-1.62.12a20.47,20.47,0,0,1-.2-2.67,42.43,42.43,0,0,1,.5-5.31c.07-.55.12-1.12.13-1.55Z"/></g></g></svg>