<svg xmlns="http://www.w3.org/2000/svg" viewBox="0 0 95.78 95.78"><defs><style>.cls-1{fill:#fff;}.cls-2{fill:#73c6c7;}</style></defs><title>i-label1</title><g id="Layer_2" data-name="Layer 2"><g id="SVG"><circle class="cls-1" cx="47.89" cy="47.89" r="46.39" transform="translate(-14.68 21.97) rotate(-22.5)"/><path class="cls-2" d="M47.89,3A44.89,44.89,0,1,1,3,47.89,44.94,44.94,0,0,1,47.89,3m0-3A47.89,47.89,0,1,0,95.78,47.89,47.89,47.89,0,0,0,47.89,0Z"/><path d="M40.93,33.26c-.63.3-1.27.57-1.93.84h6.28v5.09H43.71v-.41H36.57v.43H35.05V35.43c-.82.23-1.63.43-2.43.63a9,9,0,0,0-.82-1.25,38.42,38.42,0,0,0,5.78-1.55H32.32V32.08h5.35V31.2H33.48V30.06h4.19V29.4h1.55v.66h3.84v.57a12.71,12.71,0,0,0,1.85-1.43H33.85V24.55H45v4.56l.14-.13,1.16.73a15.18,15.18,0,0,1-3.16,2.37h3.63v1.18Zm2.52-7.68h-8.1v.78h8.1Zm0,1.77h-8.1v.81h8.1Zm.26,7.76H36.57v.82h7.14Zm0,2.65v-.88H36.57v.88Zm-3.25-5.68c.59-.27,1.15-.58,1.72-.88h-3v.88Z"/><path d="M51.76,28c0,1,0,2.44.11,3.72.25,2.6.92,4.33,2,4.33.83,0,1.55-1.8,1.92-3.31l1.33,1.55c-1,2.83-2.07,3.81-3.28,3.81-1.67,0-3.2-1.6-3.65-6A42.93,42.93,0,0,1,50,27.7a8.26,8.26,0,0,0-.11-1.55l2,0A13.84,13.84,0,0,0,51.76,28Zm11.56,6.87-1.71.67c-.27-2.84-1.22-6.39-2.89-8.35l1.65-.55A17.44,17.44,0,0,1,63.32,34.83Z"/><path d="M47.89,46.64A1.94,1.94,0,1,1,46,48.58,1.94,1.94,0,0,1,47.89,46.64Z"/><path d="M43.2,67.26a12.42,12.42,0,0,0,4.1,2.46,5.66,5.66,0,0,0-1,1.24,13.37,13.37,0,0,1-4.84-3.7H37.77a11.24,11.24,0,0,1-4.94,3.85,5.61,5.61,0,0,0-1-1.22A10.26,10.26,0,0,0,36,67.26H32.3V66h4.1V65H34.22V63.91H36.4v-1H34v-.63H32.53V59.11h6.2V57.94h1.58v1.17h6.3v3.15H45.16v.63H42.7v1h2.18V65H42.7v1h4.2v1.25Zm-6.8-5.49v-1h1.47v1h3.34v-1H42.7v1h2.35V60.41H34v1.36Zm-.22,8.37A40,40,0,0,1,43.78,72l-.65,1.27a36.2,36.2,0,0,0-7.63-1.93Zm2-2.32A19.31,19.31,0,0,1,42,69.09l-.69,1.08a18.61,18.61,0,0,0-3.81-1.36Zm-.28-3.91h3.34v-1H37.87Zm0,2.1h3.34V65H37.87Z"/><path d="M51.76,62c0,1,0,2.43.11,3.72.25,2.6.92,4.33,2,4.33.83,0,1.55-1.8,1.92-3.32l1.33,1.55c-1,2.84-2.07,3.82-3.28,3.82-1.67,0-3.2-1.6-3.65-6A42.93,42.93,0,0,1,50,61.73a8.26,8.26,0,0,0-.11-1.55l2,0A13.84,13.84,0,0,0,51.76,62Zm11.56,6.87-1.71.66c-.27-2.83-1.22-6.38-2.89-8.34l1.65-.55A17.4,17.4,0,0,1,63.32,68.86Z"/></g></g></svg>