<svg xmlns="http://www.w3.org/2000/svg" viewBox="0 0 133.26 133.26"><defs><style>.cls-1{fill:#fff;}.cls-2{fill:#73c6c7;}</style></defs><title>i-label7</title><g id="Layer_2" data-name="Layer 2"><g id="SVG"><circle class="cls-1" cx="66.63" cy="66.63" r="65.13"/><path class="cls-2" d="M66.63,3A63.63,63.63,0,1,1,3,66.63,63.7,63.7,0,0,1,66.63,3m0-3a66.63,66.63,0,1,0,66.63,66.63A66.63,66.63,0,0,0,66.63,0Z"/><path d="M31,39.91a13.07,13.07,0,0,0-2.74-1.72l.82-1a11.34,11.34,0,0,1,2.76,1.61ZM32,42c-.63,1.63-1.42,3.48-2.16,4.94l-1.28-.83a47.37,47.37,0,0,0,2.3-5Zm-.27-6.15a10.63,10.63,0,0,0-2.67-1.65l.8-1.06a11,11,0,0,1,2.73,1.54Zm10.82,9.71v1.27H31.76V45.56h3.6v-5.4h1.35v5.4H38v-5.4h1.34v5.4ZM33.82,45a13.43,13.43,0,0,0-1.28-3.59l1.17-.4a13.4,13.4,0,0,1,1.37,3.53Zm7.69-5.23H33.27V33.6h8.24Zm-1.43-4.91H34.65v1.28h5.43Zm0,2.42H34.65v1.29h5.43Zm-.53,7.3A27.38,27.38,0,0,0,41,40.88l1.39.41a36.51,36.51,0,0,1-1.75,3.63Z"/><path d="M47.61,35.74a11.91,11.91,0,0,1-2.5,3.47,11,11,0,0,0-1.34-.94,10.68,10.68,0,0,0,3.32-5.37l1.53.33c-.14.44-.29.87-.45,1.3h9.44v1.21Zm4.9,5.14a14.84,14.84,0,0,1-1.83,2.58,18.74,18.74,0,0,1,2.63,2.2l-1.16,1.09a18.76,18.76,0,0,0-2.53-2.22,16.81,16.81,0,0,1-4.31,2.92,8,8,0,0,0-1.06-1.14,14.89,14.89,0,0,0,4.22-2.62c-.94-.64-1.91-1.25-2.81-1.76l1-1c.89.49,1.88,1.06,2.81,1.69a10.92,10.92,0,0,0,1.59-2.25Zm3-1.89c0,3.89.21,6.87,1.25,6.87.28,0,.36-.88.38-2.16a6.17,6.17,0,0,0,1,.89c-.11,1.94-.41,2.69-1.44,2.71-2.17,0-2.54-3-2.63-7.08H45.44V39Zm-8.32-1.05V36.76h9v1.18Z"/><path d="M66.3,45.09a8.29,8.29,0,0,0,1.37-.21,4.44,4.44,0,0,0,3.75-4.39,4.09,4.09,0,0,0-3.72-4.31,32.38,32.38,0,0,1-.92,4.34c-.93,3.15-2.21,4.92-3.76,4.92s-2.93-1.74-2.93-4.31A6.71,6.71,0,0,1,67,34.71a5.72,5.72,0,0,1,6.07,5.84c0,3.23-2.07,5.48-5.85,6Zm-1.09-4.9a21.76,21.76,0,0,0,.84-4A5.17,5.17,0,0,0,61.65,41c0,1.78.79,2.59,1.42,2.59S64.49,42.58,65.21,40.19Z"/><path d="M86.85,34.68c-2,3.66-6.48,5.75-10.72,6.65a4.89,4.89,0,0,0-.68-1.25A19.85,19.85,0,0,0,81,38.26a16,16,0,0,0-2.45-1.6c-.63.33-1.3.64-2,.94a5,5,0,0,0-1-1.08,12.71,12.71,0,0,0,5.79-3.62l1.61.36c-.28.31-.58.63-.89.92h3.59l.23-.06ZM89,40.13c-1.92,4.54-6.58,6.43-11.75,7.17A4.14,4.14,0,0,0,76.66,46a20,20,0,0,0,6.49-1.73,15.22,15.22,0,0,0-2.69-1.89,24,24,0,0,1-2.43,1,4.45,4.45,0,0,0-.87-1.12,14.06,14.06,0,0,0,6.72-4l1.61.37a13.64,13.64,0,0,1-1.06,1.1h3.39l.25-.07ZM80.61,35.4c-.25.19-.54.37-.82.55a15.3,15.3,0,0,1,2.5,1.57,10.1,10.1,0,0,0,2.44-2.12Zm2.27,5.53c-.35.25-.71.48-1.1.71a15.68,15.68,0,0,1,2.68,1.85A8.24,8.24,0,0,0,87,40.93Z"/><path d="M93.68,36.74a32.88,32.88,0,0,0,.11,3.48c.23,2.44.86,4.06,1.89,4.06.78,0,1.45-1.68,1.79-3.1l1.25,1.45c-1,2.65-1.94,3.57-3.08,3.57-1.56,0-3-1.5-3.41-5.57a40.21,40.21,0,0,1-.18-4.14A7.25,7.25,0,0,0,91.94,35l1.89,0A14.18,14.18,0,0,0,93.68,36.74Zm10.83,6.43-1.61.63c-.25-2.66-1.14-6-2.7-7.82l1.55-.52A16.36,16.36,0,0,1,104.51,43.17Z"/><path d="M38.75,61.25A12.54,12.54,0,0,0,36,59.45l.8-1.06a13.91,13.91,0,0,1,2.79,1.69Zm1.27,2c-.67,1.66-1.53,3.55-2.3,5.05l-1.28-.89a43.74,43.74,0,0,0,2.5-5Zm-.66-6.05a11.42,11.42,0,0,0-2.62-1.89l.87-1a10.91,10.91,0,0,1,2.66,1.78ZM48.87,67c.36,0,.42-.33.47-2.28a4.51,4.51,0,0,0,1.26.58c-.12,2.34-.45,3-1.59,3H47.59c-1.27,0-1.58-.42-1.58-1.81V61.87h-1.7c-.23,3.15-.84,5.34-3.9,6.6a3.67,3.67,0,0,0-.89-1.15c2.73-1,3.15-2.81,3.34-5.45H40.3V60.48h4.37V58h-2a9.82,9.82,0,0,1-1.16,2.27,11.46,11.46,0,0,0-1.28-.78,12.1,12.1,0,0,0,1.92-5.08l1.47.27c-.14.67-.3,1.32-.49,2h1.58V54.13h1.45v2.46h3.61V58H46.12v2.53h4.23v1.39H47.42v4.59c0,.45.06.53.4.53Z"/><path d="M59.46,56.47c-.19.58-.38,1.19-.53,1.72H65V68.47H63.53v-.81H54v.81H52.62V58.19h4.81c.13-.53.25-1.16.34-1.72H52V55.1h13.8v1.37ZM54,66.32H56V59.51H54Zm6.15-6.81H57.27V61h2.91Zm0,2.63H57.27v1.48h2.91Zm-2.91,4.18h2.91V64.77H57.27Zm6.26-6.81h-2v6.81h2Z"/><path d="M69.5,62.7a11.71,11.71,0,0,1-1.37,5.77A7,7,0,0,0,67,67.58c1-1.65,1.14-4,1.14-5.82V57.69H74v5Zm4.86-6.43H67.61V54.94h6.75ZM69.52,59v2.39h3.06V59Zm12.14,1.76H80.1v7.7H78.65v-7.7H76.36c-.1,2.41-.61,5.5-2.7,7.67a3.54,3.54,0,0,0-1.08-1C74.73,65.2,75,62.14,75,59.78v-4.2l1.11.26a19.32,19.32,0,0,0,4.11-1.54l1.27,1.08a26.21,26.21,0,0,1-5.07,1.7v2.29h5.29Z"/><path d="M84.92,56.7c1.12-.11,3.88-.37,6.73-.61,1.63-.14,3.2-.23,4.24-.26l0,1.58a14.43,14.43,0,0,0-3,.22,5.1,5.1,0,0,0-3.4,4.63c0,2.83,2.62,3.75,5.17,3.87l-.56,1.66c-3-.16-6.2-1.78-6.2-5.19a6.13,6.13,0,0,1,2.61-5c-1.35.14-5.14.52-6.87.89l-.16-1.7C84.07,56.77,84.6,56.73,84.92,56.7ZM95,61.26l-1,.44a14,14,0,0,0-1.25-2.19l.94-.4A21,21,0,0,1,95,61.26Zm1.78-.72-1,.47a15.19,15.19,0,0,0-1.31-2.15l.93-.42A22.24,22.24,0,0,1,96.78,60.54Z"/><path d="M39.85,86.08c0,.75.32.93,1.06,1.09a13.16,13.16,0,0,0,2,.11,25.35,25.35,0,0,0,5.37-.52v1.8a46,46,0,0,1-5.46.31,18.36,18.36,0,0,1-2.56-.15c-1.27-.24-2-.86-2-2.17V78a8.59,8.59,0,0,0-.11-1.4h1.83a10.51,10.51,0,0,0-.09,1.4v3.28a42.25,42.25,0,0,0,5.69-1.83,8.3,8.3,0,0,0,1.52-.76l.69,1.57c-.52.21-1.14.49-1.64.66a59.88,59.88,0,0,1-6.26,2Zm7.22-7.51a20.36,20.36,0,0,0-1.24-2.16l1-.42a21.9,21.9,0,0,1,1.27,2.14Zm1.53-3.23a19.27,19.27,0,0,1,1.28,2.12l-1,.44a14.71,14.71,0,0,0-1.27-2.14Z"/><path d="M52.42,85.73c.56,0,1.19.1,1.76.1h9.18a11.67,11.67,0,0,0,1.56-.1v1.89c-.51,0-1.12-.08-1.56-.08H54.18c-.57,0-1.21,0-1.76.08Zm1.33-7.68c.51,0,1.14.08,1.65.08H62a15,15,0,0,0,1.62-.08v1.78c-.44,0-1.09-.06-1.62-.06H55.42c-.57,0-1.17,0-1.67.06Z"/><path d="M68.16,81.44c.5,0,1.47.09,2.31.09H79c.76,0,1.37-.06,1.75-.09v1.92c-.35,0-1-.06-1.74-.06H70.47c-.87,0-1.79,0-2.31.06Z"/><path d="M83.11,87.92a7.34,7.34,0,0,0,2.68-3.79,27.26,27.26,0,0,0,.45-6.23,5.11,5.11,0,0,0-.12-1.27h1.81a10.67,10.67,0,0,0-.08,1.25,34.36,34.36,0,0,1-.48,6.67,8.82,8.82,0,0,1-2.78,4.37Zm7.18.14a4.73,4.73,0,0,0,.11-1V77.84a10.44,10.44,0,0,0-.1-1.25h1.81A11.25,11.25,0,0,0,92,77.84v8.63a11,11,0,0,0,4.24-3.59l.94,1.34a16.48,16.48,0,0,1-5.31,4.31,2.87,2.87,0,0,0-.59.39Z"/><path d="M57,99.84a5.19,5.19,0,0,0-.44,1,15.37,15.37,0,0,1-2.75,5.31,14.13,14.13,0,0,1-6.24,4.32l-1.45-1.29a12.72,12.72,0,0,0,6.26-3.9,11.82,11.82,0,0,0,2.37-4.61H49.89a16.28,16.28,0,0,1-4,3.81l-1.37-1a13.26,13.26,0,0,0,4.9-5.17A6.88,6.88,0,0,0,50,96.84l1.81.6c-.31.47-.64,1.07-.81,1.39-.07.12-.14.26-.22.39h3.74a3.7,3.7,0,0,0,1.18-.16Z"/><path d="M72.36,107.74c0,.55,0,1.89,0,2h-1.7c0-.07,0-.43,0-.87H62.63a8.19,8.19,0,0,0,0,.87H61c0-.14,0-1.39,0-2v-7.66c0-.41,0-.94,0-1.36.61,0,1.11,0,1.5,0H71c.36,0,.92,0,1.44,0,0,.42,0,.91,0,1.35Zm-9.74-7.43v7h8.1v-7Z"/><path d="M87.16,99.08a4.89,4.89,0,0,0-.45.81,21.79,21.79,0,0,1-2.56,4.45,39.92,39.92,0,0,1,4.46,4.57l-1.39,1.22a33.08,33.08,0,0,0-4.12-4.56,19.94,19.94,0,0,1-6,4.48l-1.26-1.31a17.42,17.42,0,0,0,6.41-4.58A12.72,12.72,0,0,0,84.73,100H79c-.61,0-1.45.08-1.7.1V98.37a15.64,15.64,0,0,0,1.7.11h5.79a4.94,4.94,0,0,0,1.36-.15Z"/></g></g></svg>