<svg xmlns="http://www.w3.org/2000/svg" viewBox="0 0 133.26 133.26"><defs><style>.cls-1{fill:#fff;}.cls-2{fill:#73c6c7;}</style></defs><title>i-label9</title><g id="Layer_2" data-name="Layer 2"><g id="SVG"><circle class="cls-1" cx="66.63" cy="66.63" r="65.13" transform="translate(-20.43 102.69) rotate(-67.5)"/><path class="cls-2" d="M66.63,3A63.63,63.63,0,1,1,3,66.63,63.7,63.7,0,0,1,66.63,3m0-3a66.63,66.63,0,1,0,66.63,66.63A66.63,66.63,0,0,0,66.63,0Z"/><path d="M43.88,34.69h8V36h-8Zm7.79-3H44.25V30.41h3V28.86h1.4v1.55h3Zm-6.81,5.55h6.23v5.83H49.67v-.78H46.2v.85H44.86Zm.94-2.63a11,11,0,0,0-.61-2.42l1.2-.26a10,10,0,0,1,.69,2.39Zm.4,3.9V41h3.47V38.49Zm2.52-4.16a20.19,20.19,0,0,0,.78-2.5l1.37.31c-.34.88-.69,1.84-1,2.48Zm9.5-4c-.61,1.48-1.36,3.28-2,4.64A5,5,0,0,1,58,38.64a2.42,2.42,0,0,1-.79,2.15,2.48,2.48,0,0,1-1,.37,10.41,10.41,0,0,1-1.28,0,3.45,3.45,0,0,0-.39-1.44,8,8,0,0,0,1.06,0,1.37,1.37,0,0,0,.63-.17c.31-.19.42-.59.42-1.16a4.6,4.6,0,0,0-1.84-3.34c.56-1.21,1.17-2.85,1.6-4.07H53.85V43.12H52.43V29.69h4.48l.24-.06Z"/><path d="M73.54,41.52v1.19H62V41.52h5V40.1H63.16V39H67V37.81L62.88,38l-.08-1.17,1.7,0c.3-.45.63-1,.89-1.48H62.54c-.1,2.52-.46,5.65-1.81,7.82a5.52,5.52,0,0,0-1.3-.75c1.53-2.45,1.67-6,1.67-8.45V29.53H72.7v3.74H62.55v.85H73.12V35.3h-2.9a15.89,15.89,0,0,1,2.9,2.37L72,38.45a8.16,8.16,0,0,0-.78-.81l-2.75.12V39h4V40.1h-4v1.42Zm-11-10.8v1.36h8.68V30.72ZM67,35.3c-.33.48-.66,1-1,1.43L70,36.61c-.37-.28-.75-.57-1.11-.8l.83-.51Z"/><path d="M81.92,40.93a9.6,9.6,0,0,0,1.37-.22A4.44,4.44,0,0,0,87,36.33,4.09,4.09,0,0,0,83.32,32a36.24,36.24,0,0,1-.92,4.34c-.94,3.15-2.22,4.91-3.76,4.91S75.7,39.54,75.7,37a6.72,6.72,0,0,1,6.92-6.42,5.73,5.73,0,0,1,6.07,5.84c0,3.23-2.08,5.48-5.85,6ZM80.82,36a21.76,21.76,0,0,0,.85-4,5.18,5.18,0,0,0-4.41,4.77c0,1.78.8,2.6,1.42,2.6S80.11,38.42,80.82,36Z"/><path d="M18.11,54a7.47,7.47,0,0,0,1.41-.09v1.65a13.44,13.44,0,0,0-1.39-.05H16.79V56c0,4-.81,6.25-4.1,7.89l-1.2-1.25c2.63-1.07,3.87-2.41,3.87-6.55v-.63H11.65v2.35c0,.64,0,1.29.06,1.51H10.16c0-.22.07-.87.07-1.51V55.47H8.85c-.66,0-1.23,0-1.46.05V53.85A10.49,10.49,0,0,0,8.85,54h1.38V52.17c0-.55-.06-1.05-.07-1.25h1.57a11.23,11.23,0,0,0-.08,1.25V54h3.71V52.15a11.66,11.66,0,0,0-.07-1.36h1.59a10.78,10.78,0,0,0-.09,1.36V54Z"/><path d="M29.06,61.8a13,13,0,0,0,.1,1.84H27.42c0-.34.08-1.2.08-1.84V56.24a25.21,25.21,0,0,1-5.08,2.29L21.62,57A20.83,20.83,0,0,0,28,54.18a15.84,15.84,0,0,0,3.67-3.5l1.2,1.2a23.85,23.85,0,0,1-3.76,3.36Z"/><path d="M45.79,52.88a5.34,5.34,0,0,0-.41.8,22.33,22.33,0,0,1-2.3,4.46,41.78,41.78,0,0,1,4,4.58l-1.26,1.2a33.23,33.23,0,0,0-3.71-4.54,18.13,18.13,0,0,1-5.41,4.48l-1.13-1.33A15.89,15.89,0,0,0,41.36,58a13.09,13.09,0,0,0,2.24-4.12H38.44c-.55,0-1.31.08-1.53.09V52.18a12.72,12.72,0,0,0,1.53.11h5.21a4,4,0,0,0,1.23-.17l.54.47a17.7,17.7,0,0,0-1-1.94l.91-.42a21.09,21.09,0,0,1,1.13,2.14l-.8.39ZM47,49.68a21.23,21.23,0,0,1,1.15,2.13l-.91.45A19.24,19.24,0,0,0,46.1,50.1Z"/><path d="M53.06,51.26a11.87,11.87,0,0,0-.33,1.19A35.87,35.87,0,0,0,52,58.27a12.84,12.84,0,0,0,.11,1.62c.24-.62.55-1.37.79-1.93l.81.62a30.85,30.85,0,0,0-1.11,3.61,2.51,2.51,0,0,0-.08.7c0,.16,0,.39,0,.58l-1.4.09a18.93,18.93,0,0,1-.6-5,44.29,44.29,0,0,1,.67-6.16,10.66,10.66,0,0,0,.15-1.28Zm3.56,7.55a5.74,5.74,0,0,0-.19,1.38c0,.7.51,1.25,2.39,1.25A17.34,17.34,0,0,0,62.67,61l0,1.66a21.43,21.43,0,0,1-3.91.31C56.16,63,55,62.09,55,60.59a9.5,9.5,0,0,1,.26-1.9Zm5.6-6.44V54a39,39,0,0,1-6.48,0V52.38A28.63,28.63,0,0,0,62.22,52.37Z"/><path d="M72.72,50a17.34,17.34,0,0,0,6.76,5.44,6.43,6.43,0,0,0-1,1.3A20.49,20.49,0,0,1,76,55.16v1.11H68.22V55.21a21.22,21.22,0,0,1-2.51,1.59,5.31,5.31,0,0,0-.89-1.15A17.24,17.24,0,0,0,71.23,50Zm-5.39,8H77v6.28H75.46V63.7H68.75v.61H67.33ZM75.73,55a17.63,17.63,0,0,1-3.68-3.55A16.78,16.78,0,0,1,68.53,55Zm-7,4.38v3.06h6.71V59.35Z"/><path d="M86.35,53.54c-.2.28-.48.72-.73,1.11,0,.25-.05.51-.06.76a7.64,7.64,0,0,1,4.74-1.78,4,4,0,0,1,4.15,4c0,3.13-2.12,4.86-5.71,5.56L88,61.72c2.65-.39,4.81-1.55,4.81-4.11a2.62,2.62,0,0,0-2.78-2.54,6.83,6.83,0,0,0-4.62,2.09c0,.56,0,1.11,0,1.59,0,1.34,0,2.45.06,3.86,0,.28.06.73.1,1H83.87c0-.26,0-.76,0-1,0-1.44,0-2.33.06-4-.72,1.06-1.62,2.4-2.28,3.29l-1-1.36c.86-1.06,2.55-3.29,3.37-4.54l.08-1.34L81.26,55l-.15-1.59c.39,0,.71,0,1.15,0s1.28-.13,2-.23c0-.68.08-1.18.08-1.35a6.78,6.78,0,0,0-.08-1.25l1.83.07c-.08.39-.21,1.21-.31,2.21Z"/><path d="M104.45,53.82a23.37,23.37,0,0,1-2.75.55,27.26,27.26,0,0,1-3.35,6.57l-1.5-.77a22.37,22.37,0,0,0,3.23-5.63c-.37,0-.73,0-1.11,0-.59,0-1.23,0-1.86-.06L97,53.07c.61.06,1.35.09,2,.09s1,0,1.59-.06a12.55,12.55,0,0,0,.46-2.62l1.7.16c-.13.53-.33,1.38-.56,2.26a16.68,16.68,0,0,0,2.24-.53Zm1.9,1.61c0,.65,0,1.18,0,1.81s.06,1.39.11,2.26a10.47,10.47,0,0,1,3.2,2l-.83,1.33a12.28,12.28,0,0,0-2.31-1.72v.42c0,1.32-.8,2.38-2.82,2.38-1.8,0-3.25-.77-3.25-2.38,0-1.45,1.31-2.48,3.23-2.48a7,7,0,0,1,1.3.11c-.07-1.22-.15-2.67-.18-3.68Zm-1.34,5a5.36,5.36,0,0,0-1.42-.18c-1,0-1.7.45-1.7,1.07s.53,1.11,1.59,1.11S105,61.8,105,61C105,60.84,105,60.67,105,60.45ZM109.24,56a20.28,20.28,0,0,0-3.6-2.15l.78-1.21a26.37,26.37,0,0,1,3.7,2.08Z"/><path d="M114.76,53.76a33,33,0,0,0,.11,3.48c.23,2.43.86,4.06,1.89,4.06.78,0,1.45-1.69,1.79-3.11l1.25,1.45c-1,2.66-1.93,3.58-3.07,3.58-1.56,0-3-1.5-3.42-5.58a39.73,39.73,0,0,1-.17-4.13,8.07,8.07,0,0,0-.11-1.45l1.89,0A12.23,12.23,0,0,0,114.76,53.76Zm10.83,6.43-1.61.62c-.24-2.65-1.13-6-2.7-7.82l1.55-.51A16.32,16.32,0,0,1,125.59,60.19Z"/><path d="M50.34,77.35V79H36.13v-1.6Z"/><path d="M57.59,78.7v5.38c0,.61-.13,1-.52,1.17a4.47,4.47,0,0,1-1.83.22,3.56,3.56,0,0,0-.39-1.15c.58,0,1.13,0,1.28,0s.25-.07.25-.24V78.84l-2.54.28c0,2-.19,4.65-1.28,6.34a4.23,4.23,0,0,0-1-.66,11,11,0,0,0,1.12-5.56l-1,.11-.14-1.18,1.1-.11v-4.8h1.38a16.78,16.78,0,0,0,.51-2.13l1.56.29c-.25.63-.51,1.3-.73,1.84h2.19v4.3l.68-.06,0,1.12Zm-1.21-1V74.42H53.84V78Zm-1.26-2.76a6.7,6.7,0,0,1,.84,2l-1,.4a6.65,6.65,0,0,0-.78-2ZM55.48,83H54.6V79.4h.88Zm9.83-4.92A10.44,10.44,0,0,1,63,82.72a8.28,8.28,0,0,0,3.24,1.55,5.78,5.78,0,0,0-.87,1.19A9,9,0,0,1,62,83.65a11,11,0,0,1-3.34,1.84,5.21,5.21,0,0,0-.79-1.22A9.34,9.34,0,0,0,61,82.65a11,11,0,0,1-1.83-3.31l1-.24H58.63V77.81h5.54l.25-.07Zm-4.66-4.29a4.66,4.66,0,0,1-1.52,3.81,5.25,5.25,0,0,0-1-.84,3.47,3.47,0,0,0,1.26-3v-2H64v3.51c0,.26,0,.43.06.48a.29.29,0,0,0,.22.06h.34a.64.64,0,0,0,.27,0,.52.52,0,0,0,.15-.35c0-.2,0-.67.07-1.26a3.15,3.15,0,0,0,1,.56A8.69,8.69,0,0,1,66,76.22a1,1,0,0,1-.5.56,2,2,0,0,1-.75.14H64a1.32,1.32,0,0,1-.92-.31c-.23-.22-.32-.5-.32-1.39V73H60.65Zm-.3,5.32a8.2,8.2,0,0,0,1.59,2.67,8.27,8.27,0,0,0,1.62-2.67Z"/><path d="M81.15,73.56s0,.5,0,.69c-.22,7-.4,9.46-1,10.24a1.75,1.75,0,0,1-1.36.73,16.55,16.55,0,0,1-2.35,0,3.42,3.42,0,0,0-.47-1.4c1,.07,1.9.09,2.29.09a.71.71,0,0,0,.66-.26c.5-.52.7-2.88.9-8.76H76.09a15.89,15.89,0,0,1-1.42,2.62,7.12,7.12,0,0,0-1.14-.81v7.16H69.3v1.19H68V73.64h1.75a19.08,19.08,0,0,0,.55-2.53l1.57.27c-.26.78-.56,1.6-.81,2.26h2.5v3a14.93,14.93,0,0,0,2.33-5.48l1.4.33c-.19.72-.39,1.43-.64,2.12ZM69.3,74.9v3h2.9v-3Zm2.9,7.68V79.13H69.3v3.45Zm5.2-1.21a24.83,24.83,0,0,0-2.28-3.61l1.14-.64a28.25,28.25,0,0,1,2.36,3.48Z"/><path d="M91.18,75a23.94,23.94,0,0,1-2.75.54,27.18,27.18,0,0,1-3.36,6.58l-1.5-.77a22.58,22.58,0,0,0,3.24-5.63c-.38,0-.74,0-1.11,0-.6,0-1.24,0-1.86-.07l-.11-1.43c.61.06,1.34.09,2,.09s1,0,1.59-.06a12.52,12.52,0,0,0,.45-2.62l1.7.15c-.12.53-.32,1.39-.56,2.27a18.52,18.52,0,0,0,2.25-.53Zm1.9,1.61c0,.65,0,1.18,0,1.81s.07,1.38.11,2.26a10.09,10.09,0,0,1,3.2,1.95L95.55,84a12.28,12.28,0,0,0-2.31-1.72v.42c0,1.31-.8,2.37-2.83,2.37-1.79,0-3.25-.76-3.25-2.37,0-1.45,1.32-2.48,3.24-2.48a6.81,6.81,0,0,1,1.29.11c-.06-1.22-.14-2.67-.17-3.68Zm-1.34,5a5.41,5.41,0,0,0-1.42-.19c-1,0-1.7.46-1.7,1.08s.53,1.11,1.59,1.11a1.34,1.34,0,0,0,1.54-1.45C91.75,82,91.75,81.85,91.74,81.63ZM96,77.2A20.06,20.06,0,0,0,92.36,75l.78-1.2a25.81,25.81,0,0,1,3.7,2.08Z"/><path d="M33.58,104.32a29.13,29.13,0,0,0-1.82-2.45,7.73,7.73,0,0,1-2.59,4.58,5.38,5.38,0,0,0-1-1c1.87-1.39,2.38-3.66,2.52-5.72H28.32V98.38h2.42V96.1H28.62V94.8h2.12V92.48H32.1V94.8h2.09v1.3H32.1v2.28h2.36V99.7H32.05c0,.22,0,.46-.06.68.64.62,2.22,2.42,2.59,2.88Zm7.51.77c.28,0,.34-.22.39-2a3.24,3.24,0,0,0,1.19.55c-.11,2.15-.46,2.7-1.45,2.7H40.06c-1.2,0-1.45-.42-1.45-1.7v-3H37.48c-.28,2.31-1,4-3.69,5a3.72,3.72,0,0,0-.82-1.08,4.09,4.09,0,0,0,3.14-3.92H35V92.9h6.73v8.74H40v3c0,.39,0,.44.35.44Zm-4.74-9.65h4V94.21h-4Zm0,2.45h4V96.61h-4Zm0,2.44h4V99.06h-4Z"/><path d="M57.14,94.33a11.19,11.19,0,0,1-2.43,4.11,10.69,10.69,0,0,0,3.71,1.92,6.41,6.41,0,0,0-.9,1.22l-.52-.21v5.23H55.6V106H51.74v.61H50.4V101.5a10.28,10.28,0,0,1-1,.42,6.1,6.1,0,0,0-.83-1.17l.09,0c-.23-.44-.64-1.06-1-1.63v7.55H46.25V99.89a15.25,15.25,0,0,1-1.86,3.94,5.79,5.79,0,0,0-.7-1.3,16.64,16.64,0,0,0,2.42-5.6H44.05V95.58h2.2V92.32h1.36v3.26h1.9v.85a11.44,11.44,0,0,0,2.7-4.13l1.39.38A12.48,12.48,0,0,1,53,94h3l.27-.06Zm-8.22,6.3a12.43,12.43,0,0,0,3.84-2.21,11.61,11.61,0,0,1-1.42-1.88A13.75,13.75,0,0,1,50,98a7.1,7.1,0,0,0-1.12-1l.11-.09H47.61v.53c.42.45,1.64,2,1.93,2.31Zm7.13.31a12.13,12.13,0,0,1-2.31-1.56,13.31,13.31,0,0,1-2.23,1.56Zm-.45,3.84v-2.61H51.74v2.61Zm-3.31-9.56-.14.22a9.09,9.09,0,0,0,1.56,2.09,9.57,9.57,0,0,0,1.61-2.31Z"/><path d="M66.3,104.47a9.37,9.37,0,0,0,1.37-.22,4.45,4.45,0,0,0,3.75-4.39,4.09,4.09,0,0,0-3.72-4.31,34,34,0,0,1-.92,4.34c-.93,3.15-2.21,4.92-3.76,4.92s-2.93-1.73-2.93-4.31A6.72,6.72,0,0,1,67,94.08a5.73,5.73,0,0,1,6.07,5.84c0,3.23-2.07,5.48-5.85,6Zm-1.09-4.91a21.58,21.58,0,0,0,.84-4,5.19,5.19,0,0,0-4.4,4.78c0,1.78.79,2.59,1.42,2.59S64.49,102,65.21,99.56Z"/><path d="M88.66,98.83a24.74,24.74,0,0,1-3,2,8,8,0,0,0,3.76,3.36,5,5,0,0,0-1,1.26c-2.87-1.39-4.56-4.31-5.49-8h0a9.65,9.65,0,0,1-1.44,1c2.95,2.57,2.89,6.49,1.37,7.58a2.41,2.41,0,0,1-1.74.58c-.39,0-.86,0-1.35,0a3.42,3.42,0,0,0-.4-1.39,13.59,13.59,0,0,0,1.45.07,1.34,1.34,0,0,0,1-.31,2.54,2.54,0,0,0,.51-2.39,22.36,22.36,0,0,1-6.21,3.31,7.32,7.32,0,0,0-.76-1.2,17.45,17.45,0,0,0,6.58-3.36,7.56,7.56,0,0,0-.42-.79,23.33,23.33,0,0,1-4.88,2.48,5.06,5.06,0,0,0-.74-1.12,16.85,16.85,0,0,0,5-2.24,5.06,5.06,0,0,0-.58-.54,23.37,23.37,0,0,1-3.76,1.39,7.21,7.21,0,0,0-.76-1.13,18.58,18.58,0,0,0,5.12-1.9H77.94V96.27h8.53v1.25H84.18A15.07,15.07,0,0,0,85,99.77a19.81,19.81,0,0,0,2.51-1.91Zm-11.43-2H75.8V93.63h5.68V92.32H83v1.31h5.77v3.25H87.29V95H77.23Z"/><path d="M96.81,104.47a24.89,24.89,0,0,1-4.93,2.17,7.41,7.41,0,0,0-1-1.11,20.11,20.11,0,0,0,4.65-2Zm7.93-2.55v1.36H91v-1.36Zm-2.09-9V101H93.21v-8.1Zm-8,2.36h6.52V94.05H94.63Zm0,2.29h6.52V96.35H94.63Zm0,2.31h6.52V98.64H94.63Zm5.4,3.7a45.41,45.41,0,0,1,4.9,2.06l-1.43,1A33,33,0,0,0,99,104.57Z"/></g></g></svg>