<svg xmlns="http://www.w3.org/2000/svg" viewBox="0 0 95.78 95.78"><defs><style>.cls-1{fill:#fff;}.cls-2{fill:#73c6c7;}</style></defs><title>i-label2</title><g id="Layer_2" data-name="Layer 2"><g id="SVG"><circle class="cls-1" cx="47.89" cy="47.89" r="46.39"/><path class="cls-2" d="M47.89,3A44.89,44.89,0,1,1,3,47.89,44.94,44.94,0,0,1,47.89,3m0-3A47.89,47.89,0,1,0,95.78,47.89,47.89,47.89,0,0,0,47.89,0Z"/><path d="M31.73,54.17a7.76,7.76,0,0,0,.84-3.68l.88.18a8,8,0,0,1-.88,3.95Zm6.93-5.77s0,.4,0,.55c-.13,4.12-.28,5.6-.65,6.1a1.18,1.18,0,0,1-.9.48,6.5,6.5,0,0,1-1.45,0,2.93,2.93,0,0,0-.33-1.18c.53,0,1,0,1.16,0a.4.4,0,0,0,.42-.21,4.26,4.26,0,0,0,.35-1.79l-.47.18A9.38,9.38,0,0,0,36,50.45l.65-.21a13.75,13.75,0,0,1,.7,1.5c0-.59.05-1.27.08-2.1H32.72V40.92H38.5V42.2H36.58v1.2h1.65v1.22H36.58v1.27h1.65V47.1H36.58v1.3ZM34.5,50.75a15.61,15.61,0,0,1,.23,3l-.78.11a16.27,16.27,0,0,0-.18-3ZM34,42.2v1.2h1.33V42.2Zm1.33,2.42H34v1.27h1.33ZM34,48.4h1.33V47.1H34Zm1.45,5a13.39,13.39,0,0,0-.57-2.69l.7-.13a12.71,12.71,0,0,1,.62,2.65Zm5.48-11.27h-1.7v-1.3h6.15l.27,0,.9.37a8.18,8.18,0,0,1-2.42,3.6,12,12,0,0,0,3.32,1.1,5.57,5.57,0,0,0-1,1.3,11.62,11.62,0,0,1-3.6-1.49,13,13,0,0,1-3.74,1.54A4.18,4.18,0,0,0,38.43,46a11,11,0,0,0,3.28-1.18,8.89,8.89,0,0,1-1.85-2.33ZM46.26,55.6a8.19,8.19,0,0,0-.46-1c-2.47.28-5,.56-6.89.73L38.68,54l3.45-.29v-2H39.21v-3.9h2.92V46.35h1.43v1.42h3v3.9h-3v1.88l1.52-.15c-.23-.37-.47-.7-.7-1l1.15-.49a15.45,15.45,0,0,1,2,3.13Zm-4.13-5.11V49H40.5v1.54Zm-1-8.37A6.58,6.58,0,0,0,42.91,44a7,7,0,0,0,1.65-1.85ZM43.56,49v1.54h1.7V49Z"/><path d="M63.6,45.54v1.38H48.86V45.54h4A8.56,8.56,0,0,0,52,43.29l1-.2h-3.2v-1.4h5.58V40.27H57v1.42h5.81v1.4h-3l.93.2c-.38.81-.78,1.65-1.13,2.25ZM51.24,48.15H61.47v7.38H59.84V55H52.79v.59H51.24Zm1.55,1.32v1.47h7.05V49.47Zm7.05,4.22V52.14H52.79v1.55Zm-6.28-10.6a7.63,7.63,0,0,1,.93,2.26l-.8.19h5.1l-.73-.19A18.71,18.71,0,0,0,59,43.09Z"/></g></g></svg>