<svg xmlns="http://www.w3.org/2000/svg" viewBox="0 0 655.75 54.29"><defs><style>.cls-1{fill:#fff;}</style></defs><title>sp-bannertext2</title><g id="Layer_2" data-name="Layer 2"><g id="SVG"><path class="cls-1" d="M7,.66A34.92,34.92,0,0,1,4.75,5.37V20.13H3.12V7.9A22.22,22.22,0,0,1,1,10.52,8.22,8.22,0,0,0,0,8.89,24.54,24.54,0,0,0,5.44.15ZM13.42,5.3V8.45h6.27V10H13.42v3.32H20v1.54H13.42v5.33H11.77V5.3H10.25A23.8,23.8,0,0,1,7.13,9.88a9.41,9.41,0,0,0-1.28-1.1A23.26,23.26,0,0,0,10.69.35l1.57.42c-.36,1-.77,2-1.21,3H20.2V5.3Z"/><path class="cls-1" d="M28.62,1.19a40.2,40.2,0,0,0-1,6.05c.86-2.24,3.15-4.95,5.9-4.95,2.9,0,5,2.9,5,7.48,0,6.05-3.8,8.71-9.22,9.7l-1-1.58c4.73-.73,8.43-2.62,8.43-8.1,0-3.43-1.15-5.89-3.46-5.89-2.7,0-5.21,3.93-5.48,6.79a9,9,0,0,0,.05,2.67l-1.72.13A26.81,26.81,0,0,1,25.85,10a58.1,58.1,0,0,1,.66-7c.09-.68.16-1.34.18-1.87Z"/><path class="cls-1" d="M64,13H55v4.89c0,1.17-.35,1.65-1.17,1.91a16.85,16.85,0,0,1-4.53.29,8.26,8.26,0,0,0-.7-1.63c1.85.07,3.56,0,4.07,0s.68-.15.68-.61V13h-9V11.4h9V7.83H45.76V6.27h7.57V2.88c-2.42.27-4.91.42-7.17.53A7.9,7.9,0,0,0,45.74,2c5.19-.24,11.57-.82,14.87-1.85l1.23,1.3A41.38,41.38,0,0,1,55,2.71V6.27h7.79V7.83H55V11.4h9Z"/><path class="cls-1" d="M75.81,17.4a12.78,12.78,0,0,0,1.87-.26c2.8-.62,5.53-2.68,5.53-6.45a6,6,0,0,0-5.79-6.31,46,46,0,0,1-1.3,6.27C74.78,15.12,73,17.43,71,17.43s-3.9-2.25-3.9-5.83c0-4.73,4.23-8.87,9.55-8.87,5.11,0,8.36,3.61,8.36,8,0,4.57-3,7.63-8.2,8.32Zm-1.43-7.12A35.19,35.19,0,0,0,75.59,4.4a7.6,7.6,0,0,0-6.73,7c0,2.75,1.28,4,2.22,4S73.26,14,74.38,10.28Z"/><path class="cls-1" d="M99.79,1.28A25.34,25.34,0,0,1,96.6,6.71h2.84V8.16h-4a24.85,24.85,0,0,1-2.09,2.14h5.12v9.46H96.89v-1H92v1.3H90.44V12.52c-.55.37-1.14.73-1.74,1.06a10.08,10.08,0,0,0-1-1.35,21.46,21.46,0,0,0,5.7-4.07H88.15V6.71h4.36V4.07H89.14V2.62h3.37V.26h1.54V2.62h2.73V3.83a24.54,24.54,0,0,0,1.54-3Zm-2.9,10.36H92v2.13h4.93Zm0,5.76V15.09H92V17.4ZM94.71,6.71a25.45,25.45,0,0,0,1.92-2.64H94.05V6.71ZM108.24,2c-.92,2.07-2.13,4.58-3.19,6.61,2.31,2,2.91,3.76,2.91,5.32a3.07,3.07,0,0,1-1.13,2.86,3.14,3.14,0,0,1-1.47.51,13.88,13.88,0,0,1-2,0,3.68,3.68,0,0,0-.48-1.61,11.2,11.2,0,0,0,1.87,0,2.57,2.57,0,0,0,1-.27c.49-.26.67-.92.64-1.71,0-1.39-.68-3-3-5,1-1.87,2-4.21,2.68-6H102v17.3h-1.6V1.32h6.44l.27-.07Z"/><path class="cls-1" d="M120.8.13A26.17,26.17,0,0,0,130.46,8a7.08,7.08,0,0,0-1.07,1.41,29.45,29.45,0,0,1-9.31-7.68A27.19,27.19,0,0,1,111,9.53a5.7,5.7,0,0,0-1-1.3,24.66,24.66,0,0,0,9.22-8.1Zm-7.32,11.29h13.37v8.76h-1.67v-.91h-10.1v.91h-1.6Zm12.16-4.2V8.67h-11V7.22Zm-10.56,5.67V17.8h10.1V12.89Z"/><path class="cls-1" d="M134.88,3.9c1.43-.14,5.55-.53,9.55-.89,2.38-.19,4.42-.3,5.88-.37V4.4a18,18,0,0,0-4.27.35,7.63,7.63,0,0,0-5,6.89c0,4.25,4,5.59,7.5,5.72l-.64,1.85c-4-.18-8.62-2.33-8.62-7.2a8.79,8.79,0,0,1,4-7.34c-1.91.21-7.85.79-10.21,1.27L133,4C133.78,4,134.46,3.94,134.88,3.9ZM149,10.12l-1.12.53a20.47,20.47,0,0,0-1.81-3.1l1.13-.49A26.89,26.89,0,0,1,149,10.12Zm2.51-.94-1.14.52a19.36,19.36,0,0,0-1.88-3l1.11-.51C150.15,6.87,151,8.21,151.54,9.18Z"/><path class="cls-1" d="M158.8,1.74a11.29,11.29,0,0,0-.38,1.47A53.63,53.63,0,0,0,157.34,12a19.68,19.68,0,0,0,.2,3c.36-1,.86-2.29,1.23-3.17l.93.73a47.05,47.05,0,0,0-1.54,4.82,3.66,3.66,0,0,0-.11,1c0,.22,0,.52.06.75l-1.56.13a26.36,26.36,0,0,1-.83-6.91,67.17,67.17,0,0,1,1-9.16,10.41,10.41,0,0,0,.15-1.54ZM173,17.6a16.46,16.46,0,0,0-3.28-2.48v.39c0,1.81-.84,3.57-3.79,3.57s-4.53-1.21-4.53-3.15,1.63-3.32,4.49-3.32a9.1,9.1,0,0,1,2,.2c-.06-1.68-.19-3.77-.22-5.57-.7,0-1.38,0-2.09,0-1.23,0-2.37-.06-3.65-.13V5.48a34.56,34.56,0,0,0,3.7.2c.68,0,1.36,0,2,0V2.93a8.3,8.3,0,0,0-.11-1.32h2c-.07.41-.11.85-.14,1.29,0,.6,0,1.61-.06,2.62a26.7,26.7,0,0,0,3.76-.5V6.73c-1.19.2-2.46.33-3.76.42,0,2.18.17,4.36.26,6.18a15,15,0,0,1,4.29,2.84Zm-5-3.23a6.84,6.84,0,0,0-2.22-.35c-1.63,0-2.75.72-2.75,1.73s1.05,1.7,2.62,1.7c1.84,0,2.37-.9,2.37-2.36C168,14.9,168,14.63,168,14.37Z"/><path class="cls-1" d="M187.66,5.28a25.15,25.15,0,0,1-3.94.79A38.71,38.71,0,0,1,179,15.29l-1.72-.88a31.16,31.16,0,0,0,4.67-8.14c-.64,0-1.28.07-1.92.07-.81,0-1.71,0-2.53-.07l-.13-1.65a20.67,20.67,0,0,0,2.69.15c.77,0,1.58,0,2.42-.1A17.74,17.74,0,0,0,183.13.9l2,.18c-.22.79-.51,2.11-.86,3.36a21.94,21.94,0,0,0,3.39-.79Zm2.55,2.53a23.41,23.41,0,0,0,0,2.36c0,.79.11,2.22.16,3.54a14.73,14.73,0,0,1,4.51,2.73l-1,1.49a15.15,15.15,0,0,0-3.5-2.48c0,.33,0,.63,0,.88,0,1.73-1.14,3.17-3.82,3.17-2.4,0-4.36-1-4.36-3.15s1.89-3.3,4.36-3.3a9.67,9.67,0,0,1,2.06.2c-.06-1.79-.17-3.92-.22-5.44Zm-1.47,7a7.85,7.85,0,0,0-2.2-.31c-1.61,0-2.66.72-2.66,1.71s.81,1.7,2.51,1.7,2.37-1,2.37-2.07C188.76,15.53,188.76,15.18,188.74,14.79Zm5.81-6.38a26.37,26.37,0,0,0-5-3l.85-1.36A32.87,32.87,0,0,1,195.54,7Z"/><path class="cls-1" d="M212.59,2.31c-.49.35-1.15.92-1.5,1.23-1.52,1.3-4.64,3.81-6.25,5.13-1.32,1.14-1.32,1.47.09,2.64,2,1.58,6,4.93,8.14,7l-1.58,1.43c-.44-.53-1-1.08-1.5-1.58-1.19-1.28-4.82-4.38-6.86-6s-1.83-2.71.15-4.36c1.63-1.39,4.93-4,6.4-5.48A10.39,10.39,0,0,0,210.94.86Z"/><path class="cls-1" d="M225.13,19.71a35.27,35.27,0,0,0-4.87-4.9l1.43-1.26a40.63,40.63,0,0,1,4.93,4.89Z"/><path class="cls-1" d="M237.78.59a32.48,32.48,0,0,1-2.25,4.54v15H234V7.48a23.42,23.42,0,0,1-2.44,2.91,9.59,9.59,0,0,0-.92-1.59A24.67,24.67,0,0,0,236.26.13Zm13.44,17.25v1.57H237.05V17.84h6.36v-5.5h-5.06V10.78h5.06V6h-5.79V4.42h7.51a30.68,30.68,0,0,0-4.56-3.23L241.65,0a30.85,30.85,0,0,1,4.84,3.32l-1,1.08h5.35V6H245v4.82h5.21v1.56H245v5.5Z"/><path class="cls-1" d="M270.27,13c0,1.17.05,1.45,0,2.36a3.3,3.3,0,0,1-2.84,3.54,24,24,0,0,1-4.51.42c-4.35,0-5-1.06-5-2.67,0-.37,0-.72,0-1a3.58,3.58,0,0,1-.68.06c-1.24,0-2.82-.9-2.82-3.43,0-2.24,1.43-4.29,3.57-4.29a3.55,3.55,0,0,1,.57,0V5.81c-.27,0-.53,0-.77,0a25.14,25.14,0,0,1-3.48-.22L254.23,4a22.19,22.19,0,0,0,3.46.29c.28,0,.57,0,.88,0V3.17a9.92,9.92,0,0,0-.16-2.07h1.94a15.28,15.28,0,0,0-.13,2.07v.94a24.49,24.49,0,0,0,4.16-.77V5a33.59,33.59,0,0,1-4.16.66V9a3.47,3.47,0,0,1,.55,1.93,5.77,5.77,0,0,1-1.15,3.7c0,.46,0,1,0,1.39,0,1.21.29,1.65,3.45,1.65a17.41,17.41,0,0,0,3.7-.38,2.21,2.21,0,0,0,1.8-2.42,15.77,15.77,0,0,0-.15-2.46Zm-12.85,1c1.26,0,1.74-1.54,1.74-3,0-1-.53-1.65-1.25-1.65-1.08,0-2,1.15-2,2.77C255.9,13.33,256.63,14,257.42,14ZM268,3.28a24,24,0,0,1,4.34,4l-1.23,1.25a25.27,25.27,0,0,0-4.25-4.12Z"/><path class="cls-1" d="M285.8.75c0,.28,0,.64,0,1,.2,2.91,1.39,13.07,9.66,16.85A5.08,5.08,0,0,0,294.21,20c-5.68-2.69-8.1-8.32-9.15-12.72-1,4.4-3.24,9.7-8.81,12.72a5.93,5.93,0,0,0-1.32-1.26c8.92-4.55,8.92-15,9.07-17.95Z"/><path class="cls-1" d="M306.81,17.4a12.78,12.78,0,0,0,1.87-.26c2.8-.62,5.53-2.68,5.53-6.45a6,6,0,0,0-5.79-6.31,46,46,0,0,1-1.3,6.27c-1.34,4.47-3.08,6.78-5.1,6.78s-3.9-2.25-3.9-5.83c0-4.73,4.23-8.87,9.55-8.87,5.11,0,8.36,3.61,8.36,8,0,4.57-3,7.63-8.2,8.32Zm-1.43-7.12a35.19,35.19,0,0,0,1.21-5.88,7.6,7.6,0,0,0-6.73,7c0,2.75,1.28,4,2.22,4S304.26,14,305.38,10.28Z"/><path class="cls-1" d="M326.83,13.71a31.74,31.74,0,0,0-2.62-2.88v9.33h-1.6V11.68a20.51,20.51,0,0,1-3.15,2.69,7.28,7.28,0,0,0-.83-1.48,19.12,19.12,0,0,0,6.53-7.21h-5.74V4.18h3.19V.09h1.6V4.18H326l.29-.07.9.6a20.48,20.48,0,0,1-2.62,4.64c1,.82,2.79,2.53,3.26,3Zm10.52,4.9c.51,0,.6-.3.66-2.64a3.53,3.53,0,0,0,1.34.62c-.15,2.73-.57,3.39-1.82,3.39h-2c-1.52,0-1.87-.44-1.87-2V13.44h-1.78c-.4,3.17-1.48,5.44-4.95,6.72a5.56,5.56,0,0,0-.95-1.26c3.08-1,4-2.9,4.34-5.46h-1.74V1.19h9.17V13.44h-2.62V18c0,.53.09.61.62.61ZM330,4.84h6.1V2.55H330Zm0,3.61h6.1V6.12H330Zm0,3.63h6.1V9.75H330Z"/><path class="cls-1" d="M341.11,19.43a12.64,12.64,0,0,0,3-4.38l1.54.4a15.27,15.27,0,0,1-3,4.71Zm17.34-5.7H343.82v-7h6.31V.07h1.63V2.42h8.32V4h-8.32V6.73h6.69ZM356.8,8.27H345.38v3.92H356.8Zm-7.61,7.24a29.7,29.7,0,0,1,.55,4.25l-1.63.22a25.06,25.06,0,0,0-.49-4.34Zm4.42-.17a22.52,22.52,0,0,1,1.65,4.2l-1.59.37a20.86,20.86,0,0,0-1.54-4.24Zm4.42-.42A24,24,0,0,1,361,19.36l-1.54.62a23.89,23.89,0,0,0-2.82-4.51Z"/><path class="cls-1" d="M365.88,3.9c1.43-.14,5.55-.53,9.55-.89,2.38-.19,4.42-.3,5.88-.37V4.4a18,18,0,0,0-4.27.35,7.63,7.63,0,0,0-5,6.89c0,4.25,4,5.59,7.5,5.72l-.64,1.85c-4-.18-8.62-2.33-8.62-7.2a8.79,8.79,0,0,1,4-7.34c-1.91.21-7.85.79-10.21,1.27L364,4C364.78,4,365.46,3.94,365.88,3.9ZM380,10.12l-1.12.53a20.47,20.47,0,0,0-1.81-3.1l1.13-.49A26.89,26.89,0,0,1,380,10.12Zm2.51-.94-1.15.52a18.6,18.6,0,0,0-1.87-3l1.11-.51C381.15,6.87,382,8.21,382.54,9.18Z"/><path class="cls-1" d="M404,9a35.19,35.19,0,0,1-4.56,3.1,11.7,11.7,0,0,0,5.66,5A6.69,6.69,0,0,0,404,18.44c-4.16-1.89-6.71-6.07-8.08-11.29h0a15.07,15.07,0,0,1-2.25,1.54c4.21,3.63,4.25,9.29,2.09,10.78a3.3,3.3,0,0,1-2.33.73c-.53,0-1.21,0-1.91,0a4,4,0,0,0-.46-1.57,19,19,0,0,0,2,.11,2.1,2.1,0,0,0,1.52-.42c.79-.59,1.17-2.2.73-4.07a30.9,30.9,0,0,1-9.07,4.93,7.57,7.57,0,0,0-.86-1.36,25,25,0,0,0,9.44-5,8,8,0,0,0-.77-1.4,31.22,31.22,0,0,1-7,3.67,7.12,7.12,0,0,0-.88-1.28,24.49,24.49,0,0,0,7.15-3.38,11.91,11.91,0,0,0-1-1,35.67,35.67,0,0,1-5.39,2.09,10.62,10.62,0,0,0-.9-1.28,26.5,26.5,0,0,0,7.63-3.06h-4.68V5.74h12.3V7.15h-3.88a20.77,20.77,0,0,0,1.41,3.68,32.59,32.59,0,0,0,4-2.93ZM387.71,6.36H386.1V2h8.19V.09h1.62V2h8.37V6.36H402.6V3.54H387.71Z"/><path class="cls-1" d="M409.9,6.73c1.85-.57,6.12-2.15,9.31-2.15,3.61,0,6.49,2.11,6.49,5.76,0,5.22-5.19,7.75-11.92,8.12L413,16.63c5.7-.15,10.78-1.87,10.78-6.31,0-2.29-1.67-4.09-4.62-4.09-3.57,0-9.13,2.4-10.85,3.1l-.81-2A18.44,18.44,0,0,0,409.9,6.73Zm14.66-2.46-1.19.53a24.53,24.53,0,0,0-1.78-3.08l1.16-.49A23.66,23.66,0,0,1,424.56,4.27ZM427,3.34l-1.18.53a24.87,24.87,0,0,0-1.83-3l1.14-.51A23.49,23.49,0,0,1,427,3.34Z"/><path class="cls-1" d="M443.59,2.31c-.49.35-1.15.92-1.5,1.23-1.52,1.3-4.64,3.81-6.25,5.13-1.32,1.14-1.32,1.47.09,2.64,2,1.58,6,4.93,8.14,7l-1.58,1.43c-.44-.53-1-1.08-1.5-1.58-1.19-1.28-4.82-4.38-6.86-6s-1.83-2.71.15-4.36c1.63-1.39,4.93-4,6.4-5.48A10.39,10.39,0,0,0,441.94.86Z"/><path class="cls-1" d="M457.62,1.19a40.2,40.2,0,0,0-1,6.05c.86-2.24,3.15-4.95,5.9-4.95,2.9,0,5,2.9,5,7.48,0,6.05-3.8,8.71-9.22,9.7l-1-1.58c4.73-.73,8.43-2.62,8.43-8.1,0-3.43-1.15-5.89-3.46-5.89-2.7,0-5.21,3.93-5.48,6.79a9,9,0,0,0,.05,2.67l-1.72.13a26.81,26.81,0,0,1-.22-3.46,58.1,58.1,0,0,1,.66-7c.09-.68.16-1.34.18-1.87Z"/><path class="cls-1" d="M483.45,15.51c.07-.83.09-2.24.09-3.39-2,1.1-3.43,2.23-3.43,3.66,0,1.71,1.69,2,3.94,2a38.41,38.41,0,0,0,5.94-.52L489.94,19a55.59,55.59,0,0,1-6,.35c-3.12,0-5.63-.66-5.63-3.32s2.59-4.2,5.12-5.52a1.84,1.84,0,0,0-2-1.35,5.81,5.81,0,0,0-3.77,1.61c-.61.59-1.23,1.41-2,2.29l-1.49-1.12a23,23,0,0,0,5-6.65h-.9c-.92,0-2.4,0-3.59-.13V3.5c1.17.13,2.69.22,3.68.22.46,0,.92,0,1.43,0A11.52,11.52,0,0,0,480.46,1l1.8.15c-.15.62-.35,1.52-.66,2.51A58.85,58.85,0,0,0,488.27,3l0,1.63a67.88,67.88,0,0,1-7.22.62,15.13,15.13,0,0,1-2,3.34,6.28,6.28,0,0,1,3-.81,2.73,2.73,0,0,1,2.88,2c1.5-.71,2.82-1.23,4-1.76.66-.29,1.19-.55,1.8-.86l.71,1.65c-.55.15-1.34.46-1.92.68-1.23.49-2.79,1.12-4.44,1.89,0,1.26,0,3.11.07,4.16Z"/><path class="cls-1" d="M502.33,7.33c3.74-.73,7.61-1.52,8.53-1.74a3.6,3.6,0,0,0,1.17-.4l1.3,1c-.16.24-.4.61-.55.88a32.23,32.23,0,0,1-4.51,6.4l-1.52-.9a21.56,21.56,0,0,0,3.92-5.24c-.38.07-4.45.88-8.34,1.67v6.56c0,1.52.57,2,3.21,2a33.29,33.29,0,0,0,6.84-.66l-.06,1.89a46.51,46.51,0,0,1-6.91.46c-4.09,0-4.87-1.07-4.87-3.23V9.4c-2.22.44-4.15.83-5.06,1l-.33-1.85c1-.11,3.06-.48,5.39-.92V3.9a12.37,12.37,0,0,0-.13-2h2.07a15.4,15.4,0,0,0-.15,2Zm9.17-2.82a27.67,27.67,0,0,0-1.78-3l1.17-.5a33.24,33.24,0,0,1,1.8,3ZM513.31.09a32.32,32.32,0,0,1,1.85,3L514,3.61a21.28,21.28,0,0,0-1.83-3Z"/><path class="cls-1" d="M535,16c0,.71,0,2.4,0,2.64h-1.89c0-.15,0-.65,0-1.25h-12c0,.57,0,1.1,0,1.25h-1.89c0-.26.07-1.89.07-2.66V5.13c0-.51,0-1.19,0-1.72.86,0,1.46,0,2,0h11.82c.48,0,1.27,0,1.93,0,0,.55,0,1.17,0,1.72ZM521.16,5.19V15.64h12V5.19Z"/><path class="cls-1" d="M547.78,1.39c-.09.39-.18.85-.26,1.27-.11.64-.31,1.92-.55,3.08,1-.06,1.91-.13,2.44-.13,1.93,0,3.54.75,3.54,3.7,0,2.59-.37,6-1.28,7.85A3.07,3.07,0,0,1,548.48,19a13.34,13.34,0,0,1-2.55-.33l-.28-1.85a10.44,10.44,0,0,0,2.66.48,1.82,1.82,0,0,0,1.91-1.12,18.75,18.75,0,0,0,1-6.66c0-2-.9-2.34-2.28-2.34-.53,0-1.39.07-2.34.16A43.57,43.57,0,0,1,542,19l-1.81-.72c2.23-3,3.85-7.9,4.58-10.81l-2.75.29-2,.26-.18-1.91c.69,0,1.26,0,1.94,0s2-.13,3.32-.24a25.55,25.55,0,0,0,.55-4.73Zm7.5,2.31a38,38,0,0,1,4,7.79l-1.72.81a26.36,26.36,0,0,0-3.9-7.9Z"/><path class="cls-1" d="M566.19,11.33a10.35,10.35,0,0,1,7-2.62c3.35,0,5.57,2,5.57,4.56,0,3.91-3.45,6.56-11.55,5.87l-.53-1.8c6.87.83,10.23-1.15,10.23-4.12,0-1.73-1.6-2.94-3.83-2.94a8.45,8.45,0,0,0-6.73,2.88,4.33,4.33,0,0,0-.66,1.1l-1.65-.4A76.5,76.5,0,0,0,565.18,5l1.87.24C566.76,6.76,566.39,9.92,566.19,11.33Zm1.35-10A59.43,59.43,0,0,0,576,3l-.42,1.72c-2.06-.29-6.79-1.26-8.47-1.72Z"/><path class="cls-1" d="M600.56,18.44c.88,0,1.06-.4,1.14-3.1a4.62,4.62,0,0,0,1.52.66c-.2,3.19-.68,4-2.53,4h-3.54c-2.07,0-2.62-.48-2.62-2.27v-4.4h-3.61C590.39,16.83,589,19,584,20.18a4.48,4.48,0,0,0-.92-1.43c4.51-.91,5.67-2.62,6.14-5.44h-3V.84h13.84V13.31h-3.89v4.38c0,.64.18.75,1.12.75ZM587.82,4.55h10.6V2.31h-10.6Zm0,3.64h10.6V5.92h-10.6Zm0,3.67h10.6V9.57h-10.6Z"/><path class="cls-1" d="M614.09,5.39c.09-.55.17-1.14.24-1.78h-8.76V2.09h8.91c.07-.75.11-1.47.14-2.09l1.87.13c-.07.64-.16,1.3-.25,2h8.52V3.61H616c-.08.64-.19,1.23-.28,1.78h6.55V15.62H610.74V5.39ZM625,19H608.3v1.17h-1.58V6h1.58v11.5H625ZM620.69,6.65h-8.38V8.41h8.38Zm0,2.94h-8.38v1.79h8.38Zm0,3h-8.38v1.85h8.38Z"/><path class="cls-1" d="M639.76,5.46c0,1.23,0,2.57,0,3.56a5.36,5.36,0,0,1,.7,2.8c0,2.94-1.43,6.22-6.49,7.74l-1.52-1.47c2.86-.66,4.89-1.85,5.79-3.79a3.1,3.1,0,0,1-1.87.55,3.51,3.51,0,0,1-3.61-3.65,3.83,3.83,0,0,1,3.85-3.81,4.2,4.2,0,0,1,1.45.25c0-.64,0-1.41,0-2.16-3.3,0-7,.18-9.73.37l0-1.71c2.42,0,6.51-.18,9.75-.22,0-.62,0-1.13-.05-1.43a12.81,12.81,0,0,0-.13-1.37h2l-.11,1.37c0,.33,0,.83,0,1.41h.33l6.38,0,0,1.65c-1.23-.07-3.21-.11-6.4-.11Zm-1.16,4.77a2,2,0,0,0-1.94-1.34,2.21,2.21,0,0,0-2.2,2.29,2.09,2.09,0,0,0,2.22,2.15C638,13.33,638.79,12.3,638.6,10.23Z"/><path class="cls-1" d="M655.75,16.46a3.36,3.36,0,1,1-3.36-3.35A3.36,3.36,0,0,1,655.75,16.46Zm-1.14,0a2.21,2.21,0,0,0-2.22-2.22,2.23,2.23,0,0,0,0,4.46A2.21,2.21,0,0,0,654.61,16.46Z"/><path class="cls-1" d="M6.67,36.16c.94,0,5.43-.18,6.69-.33a6.41,6.41,0,0,0,1.18-.22l1.13,1.27a9.24,9.24,0,0,0-1.17.82C12.87,39,9.73,41.66,8,43c3.3-.35,7.21-.66,10.34-.66V44a31.71,31.71,0,0,0-5.52.11c-2.12.29-4.18,2.09-4.18,4.12s1.76,2.92,3.74,3.19a14.23,14.23,0,0,0,3.12.09l-.35,1.78c-5.33.22-8.23-1.45-8.23-4.8a5.16,5.16,0,0,1,2.53-4.09c-2.33.2-5.24.55-7.83,1l-.16-1.67c1.17-.11,2.64-.31,3.74-.44a90.48,90.48,0,0,0,7.2-5.88c-1,.07-4.75.26-5.7.35-.55.05-1.21.09-1.67.14l-.09-1.81A10.61,10.61,0,0,0,6.67,36.16Z"/><path class="cls-1" d="M42.44,50.72a5.56,5.56,0,0,1-4,1.83c-1.43,0-2.42-1-2.42-2.77,0-2.42.81-6,.81-8.12a1.55,1.55,0,0,0-1.74-1.78c-1.76,0-4.4,2-6.4,4.2,0,.92-.07,1.78-.07,2.55,0,2,0,3.3.09,5.26,0,.37.07.92.11,1.32H26.91c0-.31.06-1,.06-1.3,0-2.09,0-3.17.07-5.59,0-.22,0-.5,0-.83-1.06,1.6-2.49,3.69-3.54,5.14l-1.1-1.51c1.21-1.52,3.72-4.91,4.82-6.63,0-.7.09-1.4.13-2.09-1,.11-2.88.38-4.25.55L23,39.13a9.9,9.9,0,0,0,1.43,0c.7,0,2-.17,3.1-.35.06-1,.11-1.8.11-2a8.27,8.27,0,0,0-.09-1.63l2.09.06c-.11.53-.28,1.76-.44,3.28l.11,0,.64.77c-.26.39-.64,1-1,1.52,0,.39-.06.81-.11,1.23,1.7-1.56,4.49-3.65,6.67-3.65s3.08,1.14,3.08,2.92c0,2.18-.82,5.94-.82,8.14,0,.75.36,1.32,1.13,1.32a4.8,4.8,0,0,0,3.28-1.8Z"/><path class="cls-1" d="M52.49,35.45c-.08.42-.19.86-.26,1.3-.13.64-.33,1.92-.57,3.08,1-.09,1.91-.15,2.44-.15,2,0,3.54.77,3.54,3.72,0,2.59-.35,6-1.25,7.85a3.09,3.09,0,0,1-3.19,1.81,13.7,13.7,0,0,1-2.58-.31l-.28-1.87a10.21,10.21,0,0,0,2.68.48,1.82,1.82,0,0,0,1.89-1.12,18,18,0,0,0,1-6.65c0-2-.9-2.33-2.31-2.33-.53,0-1.39.07-2.33.16A44,44,0,0,1,46.73,53.1L45,52.37c2.22-3,3.82-7.87,4.57-10.78-1.14.11-2.18.22-2.75.29s-1.41.15-2,.26l-.17-1.91c.68,0,1.23,0,1.93,0s2-.13,3.31-.24a24.73,24.73,0,0,0,.55-4.74ZM60,37.94a36.87,36.87,0,0,1,4,7.74l-1.7.84a26.32,26.32,0,0,0-3.89-7.83Zm.91.35a26.49,26.49,0,0,0-1.79-3.06l1.17-.48a30.88,30.88,0,0,1,1.83,3Zm2.48-.9a24.93,24.93,0,0,0-1.82-3l1.16-.48a29.86,29.86,0,0,1,1.85,3Z"/><path class="cls-1" d="M69.92,39.28c0,1.37,0,3.37.15,5.15.35,3.65,1.41,6,3,6,1.12,0,2.13-2.24,2.71-4.44l1.38,1.58c-1.3,3.7-2.64,5-4.13,5-2,0-4-2-4.63-7.7a57.58,57.58,0,0,1-.24-5.81A11.64,11.64,0,0,0,68,37.12l2.11.05A20.48,20.48,0,0,0,69.92,39.28Zm15.35,9.15-1.78.71c-.37-3.92-1.69-8.23-3.76-10.78l1.72-.6A22.43,22.43,0,0,1,85.27,48.43Z"/><path class="cls-1" d="M105.1,52.22a16.11,16.11,0,0,0-5.26-3.28c0,.55,0,1,0,1.36,0,1.5-1,3.06-3.85,3.06-3.12,0-4.86-1.12-4.86-3.23s1.91-3.32,5.06-3.32a12.13,12.13,0,0,1,1.83.13c0-1-.09-2-.11-2.91H96.74c-1.5,0-3.92-.13-5.48-.3V42.05a37.88,37.88,0,0,0,5.48.42H97.9V39.35H96.82c-1.51,0-3.82-.18-5.12-.33V37.39a35,35,0,0,0,5.1.42h1.12V36.38c0-.36,0-1-.06-1.3h1.87a10.1,10.1,0,0,0-.11,1.45c0,.26,0,.68,0,1.21a48.27,48.27,0,0,0,5.58-.53l0,1.61c-1.72.18-3.59.35-5.64.46v3.13a58.44,58.44,0,0,0,6.06-.58l0,1.65c-2.05.27-4,.42-6.05.51,0,1.12.11,2.27.15,3.3a18,18,0,0,1,6.34,3.39Zm-7-3.76a10.42,10.42,0,0,0-2.11-.2c-2.07,0-3.19.79-3.19,1.78s.86,1.76,3,1.76c1.26,0,2.31-.37,2.31-1.87C98.14,49.56,98.12,49.05,98.12,48.46Z"/><path class="cls-1" d="M127.1,52.22a16.11,16.11,0,0,0-5.26-3.28c0,.55,0,1,0,1.36,0,1.5-1,3.06-3.85,3.06-3.12,0-4.86-1.12-4.86-3.23s1.91-3.32,5.06-3.32a12.13,12.13,0,0,1,1.83.13c0-1-.09-2-.11-2.91h-1.21c-1.5,0-3.92-.13-5.48-.3V42.05a37.88,37.88,0,0,0,5.48.42h1.16V39.35h-1.08c-1.51,0-3.82-.18-5.12-.33V37.39a35,35,0,0,0,5.1.42h1.12V36.38c0-.36,0-1-.06-1.3h1.87a10.1,10.1,0,0,0-.11,1.45c0,.26,0,.68,0,1.21a48.27,48.27,0,0,0,5.58-.53l0,1.61c-1.72.18-3.59.35-5.64.46v3.13a58.44,58.44,0,0,0,6.06-.58l0,1.65c-2.05.27-4,.42-6.05.51,0,1.12.11,2.27.15,3.3a18,18,0,0,1,6.34,3.39Zm-7-3.76a10.42,10.42,0,0,0-2.11-.2c-2.07,0-3.19.79-3.19,1.78s.86,1.76,3,1.76c1.26,0,2.31-.37,2.31-1.87C120.14,49.56,120.12,49.05,120.12,48.46Z"/><path class="cls-1" d="M134.88,37.9c1.43-.14,5.55-.53,9.55-.89,2.38-.19,4.42-.3,5.88-.37V38.4a18,18,0,0,0-4.27.35,7.63,7.63,0,0,0-5,6.89c0,4.25,4,5.59,7.5,5.72l-.64,1.85c-4-.18-8.62-2.33-8.62-7.2a8.79,8.79,0,0,1,4-7.34c-1.91.21-7.85.79-10.21,1.27L133,38C133.78,38,134.46,37.94,134.88,37.9ZM149,44.12l-1.12.53a20.47,20.47,0,0,0-1.81-3.1l1.13-.49A26.89,26.89,0,0,1,149,44.12Zm2.51-.94-1.14.52a19.36,19.36,0,0,0-1.88-3.05l1.11-.51C150.15,40.87,151,42.21,151.54,43.18Z"/><path class="cls-1" d="M164.56,46.37h-5.89v-4.6h6V46.3a13.44,13.44,0,0,0,2.82-2.53,21.79,21.79,0,0,1-2-6.12h-8v1.94c0,2.53-.4,6.12-2.4,8.58a4.29,4.29,0,0,0-1.19-1c1.85-2.27,2.09-5.35,2.09-7.59V36.29h9.29c-.09-.73-.16-1.48-.2-2.22h1.56c0,.74.09,1.49.18,2.22h4A11.54,11.54,0,0,0,168,34.9l.86-1A11.5,11.5,0,0,1,172,35.47l-.68.82h2.42v1.36h-6.71a21.07,21.07,0,0,0,1.43,4.76,15.24,15.24,0,0,0,1.78-3.7l1.52.35a18.17,18.17,0,0,1-2.51,4.84c.92,1.5,1.94,2.36,2.84,2.36.55,0,.77-.8.88-2.78a3.78,3.78,0,0,0,1.28.73c-.27,2.75-.86,3.52-2.25,3.52s-2.64-1-3.74-2.57a14.45,14.45,0,0,1-2.6,2.37,9.79,9.79,0,0,0-1.18-1.12Zm-10.49,6.44A8.09,8.09,0,0,0,157,48.52l1.41.49a8.87,8.87,0,0,1-3,4.7ZM165,40.27h-6.71V39.13H165Zm1.74,12.15c1,0,1.12-.27,1.19-2.31a4.35,4.35,0,0,0,1.49.59c-.22,2.57-.7,3.19-2.55,3.19H162.6c-2.26,0-2.86-.44-2.86-2.11V48.37h1.63v3.39c0,.55.18.66,1.37.66Zm-3.48-9.51H160V45.2h3.23Zm-.77,3.83a13.77,13.77,0,0,1,3.77,2.53l-1.13,1a14.77,14.77,0,0,0-3.71-2.66Zm7.81,1.54a15.36,15.36,0,0,1,3.9,4.4l-1.45.79A14.58,14.58,0,0,0,169,49Z"/><path class="cls-1" d="M182.34,35.54c-.11.73-.18,1.47-.22,2.18-.09,2.46-.27,7.63-.27,10.89,0,2.38,1.57,3.21,3.59,3.21,4,0,6.25-2.24,7.81-4.51l1.21,1.52a10.85,10.85,0,0,1-9.09,4.8c-3.12,0-5.28-1.32-5.28-4.87,0-3.23.22-8.73.22-11a10.64,10.64,0,0,0-.2-2.2Zm8.18,5.26-1.3.59a27.55,27.55,0,0,0-2.06-3.56l1.25-.53A35.54,35.54,0,0,1,190.52,40.8Zm2.91-1.19-1.28.62A25,25,0,0,0,190,36.75l1.23-.57A33.88,33.88,0,0,1,193.43,39.61Z"/><path class="cls-1" d="M210.34,39.52a40.4,40.4,0,0,1-4.51.75c-.19.95-.44,2-.68,2.88a64.39,64.39,0,0,1-3.41,10l-1.94-.64a48.5,48.5,0,0,0,3.66-9.74c.2-.73.37-1.52.55-2.31q-1.06.06-2,.06c-1,0-1.76,0-2.53-.08l-.07-1.72a19.7,19.7,0,0,0,2.62.15c.72,0,1.49,0,2.33-.09.16-.79.27-1.47.33-1.91a10.4,10.4,0,0,0,.07-1.8l2.13.17c-.15.49-.31,1.3-.39,1.74l-.33,1.61a31.06,31.06,0,0,0,4.15-.8Zm-.85,7.64a7.67,7.67,0,0,0-.31,2c0,1,.48,2,3.58,2a24.59,24.59,0,0,0,4.25-.42l-.07,1.78a31.08,31.08,0,0,1-4.2.29c-3.43,0-5.23-1.06-5.23-3.21a12.08,12.08,0,0,1,.33-2.58Zm-.55-5.3c1.14-.11,2.57-.18,4-.18a32.9,32.9,0,0,1,3.76.18l0,1.67a31.77,31.77,0,0,0-3.68-.27,33.63,33.63,0,0,0-4,.25Z"/><path class="cls-1" d="M225.24,45.86a8.38,8.38,0,0,0-.44,2.49c0,1.62,1.67,2.77,5.15,2.77a28.08,28.08,0,0,0,7.45-.84l0,1.89a32,32,0,0,1-7.44.75c-4.42,0-7-1.45-7-4.18a13.82,13.82,0,0,1,.44-3.06Zm-.91-8.8a48.48,48.48,0,0,0,5.77.28c2.09,0,4.31-.15,5.87-.3v1.8c-1.47.11-3.87.26-5.87.26-2.18,0-4-.08-5.77-.24Z"/><path class="cls-1" d="M258.52,39.39a17.66,17.66,0,0,1-1.67.92,73.28,73.28,0,0,0-6.62,3.59c-2,1.32-3.23,2.75-3.23,4.4,0,1.81,1.71,2.93,5.14,2.93a32.15,32.15,0,0,0,7-.75v2a42.3,42.3,0,0,1-6.89.53c-4.09,0-7.06-1.23-7.06-4.49,0-2.24,1.43-4,3.76-5.65a72.94,72.94,0,0,1-3.17-6.72l1.74-.7a49.57,49.57,0,0,0,2.93,6.45c2-1.23,4.4-2.38,5.59-3.06a8.63,8.63,0,0,0,1.56-1Z"/><path class="cls-1" d="M273.81,51.4a12.78,12.78,0,0,0,1.87-.26c2.8-.62,5.53-2.68,5.53-6.45a6,6,0,0,0-5.79-6.31,46,46,0,0,1-1.3,6.27c-1.34,4.47-3.08,6.78-5.1,6.78s-3.9-2.25-3.9-5.83c0-4.73,4.23-8.87,9.55-8.87,5.11,0,8.36,3.61,8.36,8,0,4.57-3,7.63-8.2,8.32Zm-1.43-7.12a35.19,35.19,0,0,0,1.21-5.88,7.6,7.6,0,0,0-6.73,7c0,2.75,1.28,4,2.22,4S271.26,48,272.38,44.28Z"/><path class="cls-1" d="M297.66,39.28a25.15,25.15,0,0,1-3.94.79A38.71,38.71,0,0,1,289,49.29l-1.72-.88a31.16,31.16,0,0,0,4.67-8.14c-.64,0-1.28.07-1.92.07-.81,0-1.71,0-2.53-.07l-.13-1.65a20.67,20.67,0,0,0,2.69.15c.77,0,1.58,0,2.42-.1a17.74,17.74,0,0,0,.68-3.77l2,.18c-.22.79-.51,2.11-.86,3.36a21.94,21.94,0,0,0,3.39-.79Zm2.55,2.53a23.41,23.41,0,0,0,0,2.36c0,.79.11,2.22.16,3.54a14.73,14.73,0,0,1,4.51,2.73l-.95,1.49a15.15,15.15,0,0,0-3.5-2.48c0,.33,0,.63,0,.88,0,1.73-1.14,3.17-3.82,3.17-2.4,0-4.36-1-4.36-3.15s1.89-3.3,4.36-3.3a9.67,9.67,0,0,1,2.06.2c-.06-1.79-.17-3.92-.22-5.44Zm-1.47,7a7.85,7.85,0,0,0-2.2-.31c-1.61,0-2.66.72-2.66,1.71s.81,1.7,2.51,1.7,2.37-1,2.37-2.07C298.76,49.53,298.76,49.18,298.74,48.79Zm5.81-6.38a26.37,26.37,0,0,0-5-3l.85-1.36a32.87,32.87,0,0,1,5.11,2.9Z"/><path class="cls-1" d="M311.92,39.28c0,1.37,0,3.37.15,5.15.35,3.65,1.41,6,2.95,6,1.12,0,2.13-2.24,2.71-4.44l1.38,1.58c-1.3,3.7-2.64,5-4.13,5-2.05,0-4-2-4.63-7.7a57.58,57.58,0,0,1-.24-5.81,11.64,11.64,0,0,0-.13-1.94l2.11.05A20.48,20.48,0,0,0,311.92,39.28Zm15.36,9.15-1.79.71c-.37-3.92-1.69-8.23-3.76-10.78l1.72-.6A22.55,22.55,0,0,1,327.28,48.43Z"/><path class="cls-1" d="M329.82,43.9A22.79,22.79,0,0,0,331,38.31l1.25.16a25.79,25.79,0,0,1-1.1,5.89Zm3.11-9.83h1.6V54.16h-1.6Zm3.28,8.12a23.31,23.31,0,0,0-1.61-4.08l1.14-.52a23.44,23.44,0,0,1,1.7,4Zm7.92,3.49c1.16,3.26,3.27,5.92,6.33,7a6.66,6.66,0,0,0-1.16,1.51c-3.06-1.34-5.11-4.05-6.36-7.48a11.78,11.78,0,0,1-6.1,7.51A8.38,8.38,0,0,0,335.7,53a10,10,0,0,0,5.85-7.31H336.4V44.12h5.37c.09-.94.11-1.87.11-2.75V39.1h-4.29V37.56h4.29V34.07h1.63v3.49h4.88v6.56h1.9v1.56Zm-.62-4.31c0,.88,0,1.81-.11,2.75h3.39v-5h-3.28Z"/><path class="cls-1" d="M356.55,49.75c1,1.63,3,2.38,5.55,2.47,2.42.11,7.48,0,10.12-.13a6,6,0,0,0-.53,1.6c-2.46.11-7.1.16-9.57.05-2.88-.11-4.86-.88-6.23-2.6-1,1-2,1.87-3.05,2.82L352,52.4a37.47,37.47,0,0,0,3-2.54V44.23h-2.79V42.69h4.33Zm-.66-10.54a16.33,16.33,0,0,0-3.47-3.67l1.25-.92a16.33,16.33,0,0,1,3.54,3.58Zm5.42-2h-3.5V35.91h6.07V34.07h1.61v1.84h6.38v1.32h-3.39l.57.16c-.39.75-.81,1.52-1.16,2.11h3.21v9.68c0,.79-.15,1.21-.73,1.48a8.86,8.86,0,0,1-2.77.24,5.34,5.34,0,0,0-.51-1.41c1,0,1.85,0,2.14,0s.33-.09.33-.33V40.8h-4.18v1.47h3.3V43.4h-3.3V45h2.35v4h-4.68v.84h-1.19V45h2.26V43.4h-3.27V42.27h3.27V40.8h-4V50.92h-1.5V39.5h2.86a9,9,0,0,0-.92-2.07Zm5.08,2.21a15.49,15.49,0,0,0,1-2.21H362a8.19,8.19,0,0,1,.93,2.16l-.4.11h4.09Zm.13,6.57h-3.47v1.9h3.47Z"/><path class="cls-1" d="M384.45,49.51c.07-.83.09-2.24.09-3.39-2,1.1-3.43,2.23-3.43,3.66,0,1.71,1.69,1.95,3.94,1.95a38.41,38.41,0,0,0,5.94-.52L390.94,53a55.59,55.59,0,0,1-6,.35c-3.12,0-5.63-.66-5.63-3.32s2.59-4.2,5.12-5.52a1.84,1.84,0,0,0-2-1.35,5.81,5.81,0,0,0-3.77,1.61c-.61.59-1.23,1.41-2,2.29l-1.49-1.12a23,23,0,0,0,5-6.65h-.9c-.92,0-2.4,0-3.59-.13V37.5c1.17.13,2.69.22,3.68.22.46,0,.92,0,1.43,0a11.52,11.52,0,0,0,.55-2.71l1.8.15c-.15.62-.35,1.52-.66,2.51a58.85,58.85,0,0,0,6.67-.66l0,1.63a67.88,67.88,0,0,1-7.22.62,15.13,15.13,0,0,1-2,3.34,6.28,6.28,0,0,1,3-.81,2.73,2.73,0,0,1,2.88,2c1.5-.71,2.82-1.23,4-1.76.66-.29,1.19-.55,1.8-.86l.71,1.65c-.55.15-1.34.46-1.92.68-1.23.49-2.79,1.12-4.44,1.89,0,1.26,0,3.11.07,4.16Z"/><path class="cls-1" d="M407.84,48.46c1.56,2.35,4.38,3.78,8.2,4.33a6.63,6.63,0,0,0-1,1.41c-4.29-.75-7.28-2.6-8.95-5.74h-.2c-1.14,2.17-3.54,4.2-8.56,5.7a6.36,6.36,0,0,0-1-1.33c4.29-1.18,6.54-2.72,7.68-4.37h-7.46V47h8.21a7.2,7.2,0,0,0,.42-2.06h-6.1V43.57h6.14v-2h-6.49V40.23h6.49V38.4h1.63v1.83h6.8V37.7H398.49v2.75H396.9V36.22h8.39V34.09h1.62v2.13h8.41v4.23h-1.65v1.16h-6.8v2h6.49v1.37h-6.53a9.89,9.89,0,0,1-.36,2.06h9.33v1.46Z"/><path class="cls-1" d="M426.12,48.41c-2.75.82-5.68,1.67-7.81,2.31l-.44-1.56c1-.24,2.15-.55,3.45-.92V42.91h-2.77V41.39h2.77V36.71h-3v-1.5h7.5v1.5h-2.91v4.68h2.71v1.52h-2.71v4.91l3-.86Zm10.32,4.18c.51,0,.59-.33.66-2.59a4,4,0,0,0,1.36.63c-.11,2.69-.52,3.37-1.84,3.37h-2.14c-1.56,0-2-.46-2-2V47.07h-2.15c-.44,3.5-1.63,5.9-5.9,7.22a4.6,4.6,0,0,0-.93-1.35c3.88-1,4.87-3,5.22-5.87h-2V35h10.28v12h-3V52c0,.54.09.63.64.63Zm-8.1-14h7.13v-2.2h-7.13Zm0,3.5h7.13v-2.2h-7.13Zm0,3.56h7.13V43.44h-7.13Z"/><path class="cls-1" d="M446.65,35.41c-.11.7-.18,1.47-.23,2.18-.08,2.46-.26,7.61-.26,10.87,0,2.39,1.54,3.23,3.57,3.23,4,0,6.27-2.24,7.83-4.51l1.21,1.52a10.86,10.86,0,0,1-9.09,4.8c-3.12,0-5.28-1.33-5.28-4.87,0-3.23.22-8.73.22-11a11.22,11.22,0,0,0-.2-2.2Z"/><path class="cls-1" d="M479.1,52.22a16.11,16.11,0,0,0-5.26-3.28c0,.55,0,1,0,1.36,0,1.5-1,3.06-3.85,3.06-3.12,0-4.86-1.12-4.86-3.23s1.91-3.32,5.06-3.32a12.13,12.13,0,0,1,1.83.13c-.05-1-.09-2-.11-2.91h-1.21c-1.5,0-3.92-.13-5.48-.3V42.05a37.88,37.88,0,0,0,5.48.42h1.16V39.35h-1.08c-1.51,0-3.82-.18-5.12-.33V37.39a35,35,0,0,0,5.1.42h1.12V36.38c0-.36,0-1-.06-1.3h1.87a10.1,10.1,0,0,0-.11,1.45c0,.26,0,.68,0,1.21a48.27,48.27,0,0,0,5.58-.53l0,1.61c-1.72.18-3.59.35-5.64.46v3.13a58.44,58.44,0,0,0,6.06-.58l0,1.65c-2,.27-4,.42-6,.51,0,1.12.11,2.27.15,3.3a18,18,0,0,1,6.34,3.39Zm-7-3.76a10.42,10.42,0,0,0-2.11-.2c-2.07,0-3.19.79-3.19,1.78s.86,1.76,3,1.76c1.26,0,2.31-.37,2.31-1.87C472.14,49.56,472.12,49.05,472.12,48.46Z"/><path class="cls-1" d="M490.65,35.41c-.11.7-.18,1.47-.23,2.18-.08,2.46-.26,7.61-.26,10.87,0,2.39,1.54,3.23,3.57,3.23,4,0,6.27-2.24,7.83-4.51l1.21,1.52a10.86,10.86,0,0,1-9.09,4.8c-3.12,0-5.28-1.33-5.28-4.87,0-3.23.22-8.73.22-11a11.22,11.22,0,0,0-.2-2.2Z"/><path class="cls-1" d="M518.34,39.52a40.4,40.4,0,0,1-4.51.75c-.19.95-.44,2-.68,2.88a64.39,64.39,0,0,1-3.41,10l-1.94-.64a48.5,48.5,0,0,0,3.66-9.74c.2-.73.37-1.52.55-2.31q-1.06.06-2,.06c-1,0-1.76,0-2.53-.08l-.07-1.72a19.7,19.7,0,0,0,2.62.15c.73,0,1.49,0,2.33-.09.16-.79.27-1.47.33-1.91a10.4,10.4,0,0,0,.07-1.8l2.13.17c-.15.49-.31,1.3-.39,1.74l-.33,1.61a31.06,31.06,0,0,0,4.15-.8Zm-.85,7.64a7.67,7.67,0,0,0-.31,2c0,1,.48,2,3.58,2a24.59,24.59,0,0,0,4.25-.42L525,52.5a31.36,31.36,0,0,1-4.21.29c-3.43,0-5.23-1.06-5.23-3.21a12.08,12.08,0,0,1,.33-2.58Zm-.55-5.3c1.14-.11,2.57-.18,4-.18a32.9,32.9,0,0,1,3.76.18l0,1.67a31.77,31.77,0,0,0-3.68-.27,33.63,33.63,0,0,0-4,.25Z"/><path class="cls-1" d="M534.75,50.46a3.36,3.36,0,1,1-3.36-3.35A3.36,3.36,0,0,1,534.75,50.46Zm-1.14,0a2.21,2.21,0,0,0-2.22-2.22,2.23,2.23,0,0,0,0,4.46A2.21,2.21,0,0,0,533.61,50.46Z"/></g></g></svg>