<svg xmlns="http://www.w3.org/2000/svg" viewBox="0 0 480.75 122.38"><defs><style>.cls-1{fill:#fff;}</style></defs><title>sp-bannertext1</title><g id="Layer_2" data-name="Layer 2"><g id="SVG"><path class="cls-1" d="M7.5,28.05a20.54,20.54,0,0,0-.85,5c0,3.15,3,5.45,10.15,5.45a70.21,70.21,0,0,0,17.4-2l0,7a75.6,75.6,0,0,1-17.2,1.7C5.7,45.2,0,41.4,0,34.6a31.85,31.85,0,0,1,1-7.15Zm-4.2-21a129.77,129.77,0,0,0,13.5.6c4.9,0,10.55-.3,14.35-.7V13.6c-3.45.25-9.6.6-14.3.6-5.2,0-9.5-.25-13.55-.55Z"/><path class="cls-1" d="M62.5,28.05a20.54,20.54,0,0,0-.85,5c0,3.15,3,5.45,10.15,5.45a70.21,70.21,0,0,0,17.4-2l0,7a75.6,75.6,0,0,1-17.2,1.7c-11.35,0-17-3.8-17-10.6a31.85,31.85,0,0,1,1-7.15Zm-4.2-21a129.77,129.77,0,0,0,13.5.6c4.9,0,10.55-.3,14.35-.7V13.6c-3.45.25-9.6.6-14.3.6-5.2,0-9.5-.25-13.55-.55Z"/><path class="cls-1" d="M125.05,4.3c-.3,1.3-.6,2.85-.85,4.1-.3,1.5-.7,3.3-1,5.1,1.65-.1,3.15-.2,4.15-.2,5.25,0,9,2.35,9,9.45,0,5.85-.7,13.75-2.8,18-1.65,3.45-4.35,4.55-8.15,4.55a28,28,0,0,1-5.9-.7l-1.1-6.55a28.89,28.89,0,0,0,6.1,1A3.64,3.64,0,0,0,128.1,37c1.35-2.75,2-8.65,2-13.55,0-3.95-1.7-4.5-4.8-4.5-.8,0-2,.1-3.4.2-2,7.5-5.55,19.15-10.1,26.45L105.35,43c4.8-6.5,8.2-16.4,10-23.15-1.75.2-3.3.4-4.25.55-1.4.15-4,.5-5.5.75l-.55-6.7a46,46,0,0,0,5.25,0c1.55,0,3.9-.2,6.4-.4a54.82,54.82,0,0,0,1-10.5Zm17.75,5.9a98.39,98.39,0,0,1,8,17.25l-6.3,2.95c-1.3-5.5-4.8-14.25-8.35-18.65l4.6-1.95a55.28,55.28,0,0,0-3.4-5.9l3.95-1.65c1.25,1.85,3,5,4,6.85Zm4.55-1.65a49.89,49.89,0,0,0-4-6.9L147.25,0a59.17,59.17,0,0,1,4.05,6.8Z"/><path class="cls-1" d="M170.6,36.3c2,3.35,5.45,4.75,10.55,5,6,.25,17.8.1,24.7-.45A27.11,27.11,0,0,0,204,46.6c-6.2.3-16.8.4-22.9.15-5.95-.25-9.95-1.7-12.95-5.55-2,1.95-4.05,3.85-6.6,6l-2.8-5.9a59.92,59.92,0,0,0,6.2-4.6V25.8h-5.6V20.35H170.6Zm-4.3-22.6a36.45,36.45,0,0,0-6.85-8.1l4.65-3.25c2.65,2.25,5.85,5.45,7.25,7.85Zm38.55.6H172v-4h8.9c.25-.7.45-1.4.7-2.15h-6.35V4.3h7.5c.35-1.15.65-2.3.9-3.35l5.75.6c-.25.9-.55,1.8-.8,2.75h10.75v6h5.5ZM188.6,40.2v-3H172.3V33.15h5.2v-2.3h-3.8v-4h14.9V25.2H175.8V15.9h24.9v9.3h-6.5v1.65h9v4h-9v2.3h10.35V37.2H194.2v3Zm-7.4-18.45h13.7V19.3H181.2Zm7.4,11.4v-2.3h-5.7v2.3ZM186.7,10.3h7.15V8.15H187.4Z"/><path class="cls-1" d="M239.25,21c-5.45,0-10.35,1.65-12.9,2.4-1.45.45-3.35,1.2-4.8,1.7l-1.85-7a48.55,48.55,0,0,0,5.4-.85c3.65-.8,9.2-2.25,15-2.25,7.85,0,13.35,4.45,13.35,12.2,0,10.6-9.8,17.2-23.55,19.1l-3.6-6.2c12.3-1.4,20.15-5.4,20.15-13.15C246.4,23.6,243.9,20.9,239.25,21Zm10-15.65-1,6.1c-5.8-.4-16.55-1.35-22.25-2.35l1-6A139.86,139.86,0,0,0,249.25,5.3Z"/><path class="cls-1" d="M276.1,38.85a5.21,5.21,0,0,1,10.4,0,5.21,5.21,0,0,1-10.4,0Zm.85-25.5-.2-7.45h9.15l-.25,7.45-1.75,17.1h-5.15Z"/><path class="cls-1" d="M9.4,79.62c-.1,1.1-.15,2.2-.15,3.8v16.9c0,1.25.05,3.2.15,4.35H2c0-1,.25-2.9.25-4.4V83.42a34,34,0,0,0-.2-3.8Zm23.05-.45c-.1,1.4-.2,3-.2,5v9.9c0,10.75-2.1,15.35-5.8,19.45-3.3,3.66-8.5,6.11-12.15,7.26l-5.25-5.51c5-1.14,9.2-3,12.25-6.3,3.4-3.75,4.05-7.5,4.05-15.3v-9.5a35.27,35.27,0,0,0-.3-5Z"/><path class="cls-1" d="M89,84.07a23.63,23.63,0,0,0-1.75,3.1,73.51,73.51,0,0,1-7.85,13.75,139.54,139.54,0,0,1,13.95,14.31l-5.7,5A113.36,113.36,0,0,0,75.05,106a65.9,65.9,0,0,1-18.8,14.06l-5.15-5.41a56.65,56.65,0,0,0,20.5-14.35c3.3-3.75,6.35-8.7,7.45-12.25H62.1c-2.1,0-4.85.3-5.9.35v-7.1a55.86,55.86,0,0,0,5.9.35H79.7A18.05,18.05,0,0,0,84.9,81Z"/><path class="cls-1" d="M147.25,86.07a23.52,23.52,0,0,0-1.65,3.55,57.55,57.55,0,0,1-6.9,13.7c1.85,1.15,3.55,2.3,4.8,3.2L139,112.37a57.9,57.9,0,0,0-4.65-3.55,47.74,47.74,0,0,1-18.45,12.46l-5.8-5A42.38,42.38,0,0,0,128.7,105c-3.4-2.2-6.8-4.25-9.35-5.7l4.25-4.75c2.65,1.35,6.05,3.25,9.4,5.25a36.42,36.42,0,0,0,5.2-10.65H123.85a58.84,58.84,0,0,1-13.2,12.9l-5.4-4.15a45.77,45.77,0,0,0,16-16.6,22.12,22.12,0,0,0,2.25-5.25l7.25,2.25c-1.2,1.75-2.5,4.05-3.1,5.1l0,0H137.8a15.88,15.88,0,0,0,4.35-.55Z"/><path class="cls-1" d="M180.85,114.17c1.9-.25,3.3-.5,4.6-.79,6.35-1.51,11.25-6.06,11.25-13.26,0-6.85-3.7-12-10.35-13.1a107.61,107.61,0,0,1-2.95,13.45c-3,10-7.25,16.11-12.65,16.11s-10.1-6.06-10.1-14.41c0-11.4,9.95-21.2,22.8-21.2,12.25,0,20,8.55,20,19.35,0,10.4-6.4,17.81-18.9,19.71Zm-3.85-15a79.48,79.48,0,0,0,2.65-12c-8.2,1.7-12.55,8.9-12.55,14.35,0,5,2,7.45,3.85,7.45C173,109,175,105.87,177,99.17Z"/><path class="cls-1" d="M243.3,113.63a34.37,34.37,0,0,0,.45,6.55h-7.9a56,56,0,0,0,.35-6.55V97.22A97.76,97.76,0,0,1,219,104l-3.6-6.1a76.81,76.81,0,0,0,22.75-9c5-3.15,10.25-7.6,13-11.3l5.35,4.85A81.7,81.7,0,0,1,243.3,93.17Z"/><path class="cls-1" d="M292.25,106.72c8.5-5,15.05-12.7,18.2-19.45l3.9,7a53.17,53.17,0,0,1-18.5,18.5,54,54,0,0,1-18.55,7.06l-4.2-6.61A51.53,51.53,0,0,0,292.25,106.72Zm0-16.2-5.1,5.25A104,104,0,0,0,274.65,85l4.7-5A105,105,0,0,1,292.25,90.52Z"/><path class="cls-1" d="M366.75,84.67a20.36,20.36,0,0,0-1.1,3.5c-1.15,4.9-3.35,12.65-7.5,18.2a40,40,0,0,1-20.1,13.81l-5.45-6c9.9-2.3,15.55-6.65,19.6-11.7a31.65,31.65,0,0,0,5.85-14.1h-23.3c-2.25,0-4.65.1-5.95.2v-7c1.5.15,4.35.4,6,.4h23.1a16.76,16.76,0,0,0,4-.4Z"/><path class="cls-1" d="M418,91.27a62.39,62.39,0,0,1-11.25,9V117a27.84,27.84,0,0,0,.35,5.4h-7.4A52.26,52.26,0,0,0,400,117V104.12a93.66,93.66,0,0,1-14.1,5.45l-3.35-5.8A66.78,66.78,0,0,0,400.15,97c5.1-3,10.35-7.15,12.85-10.4Z"/><path class="cls-1" d="M434.3,116.13a23.65,23.65,0,0,0,8.5-12c1.4-4.3,1.45-13.75,1.45-19.8a18.25,18.25,0,0,0-.45-4.55h7.35a31.89,31.89,0,0,0-.35,4.5c0,5.9-.15,16.45-1.5,21.5a29,29,0,0,1-8.9,14.36Zm23.15.75a19.23,19.23,0,0,0,.4-3.71V84a22.17,22.17,0,0,0-.4-4.3h7.45a25.39,25.39,0,0,0-.35,4.35v26.15A31.66,31.66,0,0,0,476.9,99.67l3.85,5.5c-4.15,5.4-11.35,10.81-16.95,13.66a12.75,12.75,0,0,0-2.2,1.5Z"/></g></g></svg>