<svg xmlns="http://www.w3.org/2000/svg" viewBox="0 0 307.76 307.76"><defs><style>.cls-1{fill:none;stroke:#73c3c4;stroke-miterlimit:10;stroke-width:3px;stroke-dasharray:5;}</style></defs><title>sp-circle1</title><g id="Layer_2" data-name="Layer 2"><g id="SVG"><circle class="cls-1" cx="153.88" cy="153.88" r="152.38"/><line class="cls-1" x1="43.77" y1="121.95" x2="263.99" y2="121.95"/><path d="M90.22,93.89c-.73,0-1.87.25-2.94.41-1.34.23-3.61.59-6.07,1,.45,2.3.84,4.18,1,5s.47,1.85.72,2.75l-4,.73c-.14-1.07-.22-2-.39-2.83s-.51-2.75-1-5.1c-2.86.48-5.49.93-6.69,1.15s-2.16.42-2.81.59l-.78-3.75c.76,0,2-.2,2.91-.31l6.72-1.07L76.08,88l-5.49.89c-1,.2-1.73.36-2.57.59l-.76-3.86c.9,0,1.74-.09,2.61-.2S73,85,75.41,84.62c-.22-1.18-.42-2.1-.5-2.55-.17-.79-.37-1.46-.56-2.13l4-.64c.08.56.16,1.51.3,2.18.06.39.23,1.32.45,2.58,2.38-.39,4.51-.73,5.52-.93s2-.39,2.63-.58l.67,3.66c-.61.06-1.73.23-2.57.34l-5.6.89.86,4.46c2.52-.42,4.82-.79,6.08-1,1.09-.22,2.13-.45,2.85-.67Z"/><path d="M98.1,100.94a3.62,3.62,0,0,0,.36-1.82V83.94a18,18,0,0,0-.3-3.16h4.39a19.64,19.64,0,0,0-.28,3.16V98.48a31.81,31.81,0,0,0,14.39-9.24l2,3.16c-3.83,4.59-9.66,7.92-16.24,10.08a8,8,0,0,0-1.68.76Z"/><path d="M140,99.63a18.87,18.87,0,0,0,.25,3.66h-4.42a31.85,31.85,0,0,0,.19-3.66V90.44a54.55,54.55,0,0,1-9.63,3.81l-2-3.42a42.63,42.63,0,0,0,12.74-5.07,29.5,29.5,0,0,0,7.31-6.32l3,2.71a45.71,45.71,0,0,1-7.42,6Z"/><path d="M167.39,85.74a41.29,41.29,0,0,1-4.81,1,51.3,51.3,0,0,1-5.94,11.87l-3.39-1.71a42,42,0,0,0,5.66-9.8c-.48,0-.95,0-1.43,0-1.15,0-2.27,0-3.47-.08l-.25-3.25a35.09,35.09,0,0,0,3.69.19c.82,0,1.66,0,2.5-.08a23.29,23.29,0,0,0,.75-4.65l3.84.39c-.23.9-.56,2.3-.95,3.79a31.5,31.5,0,0,0,3.72-.87ZM171,88.23c-.08,1.17,0,2.32,0,3.55,0,.79.09,2.13.17,3.5a18.55,18.55,0,0,1,5.74,3.56l-1.85,3a24.26,24.26,0,0,0-3.75-2.94v.25c0,2.58-1.4,4.59-5.35,4.59-3.44,0-6.16-1.54-6.16-4.59,0-2.72,2.27-4.82,6.14-4.82a18.56,18.56,0,0,1,1.87.12c-.08-2.07-.22-4.51-.31-6.19ZM168,97.41a9.68,9.68,0,0,0-2.24-.28c-1.59,0-2.63.67-2.63,1.65s.87,1.74,2.38,1.74c1.88,0,2.49-1.09,2.49-2.58Zm7.81-7.7a37.35,37.35,0,0,0-6.66-3.95L170.92,83a49.75,49.75,0,0,1,6.83,3.75Z"/><path d="M194.29,83.89c-.5,4.65-2,7.59-9.15,9.13a9.67,9.67,0,0,0-1.8-2.8c6.11-1.07,7.09-3,7.53-6.33H187v3.25h-3.28V80.86h10.14V78.35h3.42v2.51h10.38v5.8h-3.44V83.89h-3.95v4.42c0,.76.17.87,1,.87h2.49c.7,0,.84-.28.95-2a9,9,0,0,0,2.86,1.14c-.34,2.94-1.23,3.73-3.47,3.73h-3.34c-3.13,0-3.8-.9-3.8-3.67V83.89Zm13.64,16.83v3h-24.5v-3h10.44V96.55h-7.5v-3h19.18v3h-8.26v4.17Z"/><path d="M234.79,89.21c-.06,6.72.31,12,1.93,12,.42,0,.53-1.48.59-3.75a13.42,13.42,0,0,0,2.16,2.07c-.26,3.5-.84,5-3,5-4.09,0-4.9-5.34-5.07-12.51h-15V89.68l-.25.23a26.41,26.41,0,0,0-3-2.1c2.77-2.1,4.87-5.71,6-9.58l3.47.73c-.22.7-.44,1.4-.7,2.07H238.4V83.8H220.62c-.22.45-.47.9-.73,1.32h16v2.69H219.7V85.46a22.43,22.43,0,0,1-2.83,3.75Zm-5.6,4a25.07,25.07,0,0,1-3,4.34,32.87,32.87,0,0,1,4.43,3.56L228,103.63a31.71,31.71,0,0,0-4.15-3.61,31.21,31.21,0,0,1-7.28,4.92,21.66,21.66,0,0,0-2.49-2.6,24.7,24.7,0,0,0,7.08-4.23c-1.59-1.06-3.22-2-4.7-2.88l2.38-2.18c1.46.75,3.08,1.7,4.68,2.71A18.14,18.14,0,0,0,226,92.15Z"/><path d="M90.28,161.81v1.63h-21v-1.63h9.53V157h-7v-1.61H88.21V157H80.63v4.82ZM78,146.35c-.48,4.25-1.9,6.72-7.54,8a5.27,5.27,0,0,0-1-1.49c5.14-1,6.26-3,6.67-6.51H71.51v3.2H69.76v-4.81h9.07v-2.49h1.8v2.49h9.26V149h-1.8v-2.67H83.25v4.75c0,.61.14.7,1,.7h3.07c.7,0,.84-.26.91-1.94a5.33,5.33,0,0,0,1.54.65c-.17,2.25-.67,2.83-2.28,2.83H84.09c-2.09,0-2.6-.46-2.6-2.24v-4.75Z"/><path d="M98.11,146.3a19,19,0,0,1-3.89,5.41,14.19,14.19,0,0,0-1.63-1.16,17.19,17.19,0,0,0,5.16-8.35l1.85.43c-.24.75-.51,1.47-.79,2.16h15v1.51Zm7.73,7.83a24.2,24.2,0,0,1-3,4.18,30.48,30.48,0,0,1,4.3,3.64l-1.42,1.35a28,28,0,0,0-4.18-3.7,27.46,27.46,0,0,1-6.93,4.75A10.54,10.54,0,0,0,93.24,163a24.3,24.3,0,0,0,6.86-4.4,53.34,53.34,0,0,0-4.56-2.9l1.27-1.18c1.47.82,3,1.78,4.59,2.81a18.61,18.61,0,0,0,2.76-3.77Zm4.63-2.52c0,6.19.36,10.82,2.16,10.82.48,0,.6-1.36.65-3.38a7.05,7.05,0,0,0,1.25,1c-.17,3-.55,4.08-2,4.11-3.17,0-3.67-4.49-3.81-11H95v-1.54ZM97.7,149.69V148.2h13.78v1.49Z"/><path d="M126.87,159.1c.07-.91.09-2.45.09-3.7-2.2,1.2-3.74,2.43-3.74,4,0,1.87,1.85,2.13,4.3,2.13A41.91,41.91,0,0,0,134,161l-.05,1.94a60.22,60.22,0,0,1-6.51.38c-3.4,0-6.14-.72-6.14-3.62s2.83-4.58,5.59-6a2,2,0,0,0-2.13-1.47,6.37,6.37,0,0,0-4.11,1.75c-.67.65-1.34,1.54-2.16,2.5l-1.63-1.22a25.3,25.3,0,0,0,5.47-7.25h-1c-1,0-2.62-.05-3.91-.15V146a38.66,38.66,0,0,0,4,.24c.51,0,1,0,1.56,0a12.35,12.35,0,0,0,.6-3l2,.16c-.17.68-.38,1.66-.72,2.74a64.38,64.38,0,0,0,7.27-.72l0,1.78a74.44,74.44,0,0,1-7.87.67,17.16,17.16,0,0,1-2.14,3.65,6.78,6.78,0,0,1,3.29-.89,3,3,0,0,1,3.14,2.16c1.64-.77,3.08-1.34,4.32-1.92.72-.31,1.3-.6,2-.94l.77,1.8c-.6.17-1.46.51-2.09.75-1.34.53-3.05,1.22-4.85,2.06,0,1.37.05,3.39.08,4.54Z"/><path d="M156.85,151.13a30.91,30.91,0,0,1-4,1c.7,1.51,1.46,3.12,2.14,4.37l-.94,1.17c-1.2-.21-3.12-.48-4.63-.67l.17-1.46c1.15.14,2.28.26,3,.33-.46-.93-1-2.18-1.56-3.43a56.92,56.92,0,0,1-10.63.22l-.08-1.76a48,48,0,0,0,10,0l-.84-2c-.19-.41-.36-.84-.53-1.22a49.77,49.77,0,0,1-8.35,0l-.12-1.75a43.24,43.24,0,0,0,7.78.19c-.12-.27-.22-.51-.32-.72a16.58,16.58,0,0,0-.88-1.68l2.16-.46a22.67,22.67,0,0,0,.88,2.64,25.8,25.8,0,0,0,4.73-1.13l.34,1.71a34.81,34.81,0,0,1-4.42,1l.43,1c.2.5.53,1.25.94,2.14a24.93,24.93,0,0,0,4.39-1.18Zm-13.65,4.94a8.13,8.13,0,0,0-.56,2.43c0,1.82,1.44,3,4.83,3a28.08,28.08,0,0,0,5.85-.55l0,2a37.48,37.48,0,0,1-5.74.45c-4.25,0-6.75-1.46-6.75-4.44a10.44,10.44,0,0,1,.56-3Z"/><path d="M181.9,160.42a6.06,6.06,0,0,1-4.36,2c-1.56,0-2.64-1.06-2.64-3,0-2.64.88-6.56.88-8.86a1.69,1.69,0,0,0-1.89-1.94c-1.92,0-4.8,2.23-7,4.58-.05,1-.07,1.94-.07,2.78,0,2.16,0,3.6.1,5.74,0,.41.07,1,.12,1.44H165c0-.34.07-1,.07-1.42,0-2.28,0-3.45.07-6.09,0-.24,0-.55,0-.91-1.16,1.75-2.72,4-3.87,5.61l-1.2-1.65c1.32-1.66,4.06-5.36,5.26-7.23.05-.77.09-1.53.14-2.28-1.08.12-3.14.41-4.63.6l-.19-2a13.67,13.67,0,0,0,1.56,0c.77-.05,2.16-.2,3.38-.39.07-1.13.12-2,.12-2.23a9,9,0,0,0-.09-1.78l2.28.07c-.12.58-.32,1.93-.48,3.58l.12-.05.69.84c-.29.43-.69,1.08-1.05,1.66,0,.43-.08.89-.12,1.34,1.84-1.7,4.89-4,7.27-4s3.36,1.25,3.36,3.19c0,2.38-.89,6.48-.89,8.88,0,.82.39,1.44,1.23,1.44a5.21,5.21,0,0,0,3.57-2Z"/><path d="M186.49,147.94c0,1.49,0,3.67.16,5.61.39,4,1.54,6.6,3.22,6.6,1.22,0,2.33-2.44,2.95-4.84l1.51,1.72c-1.41,4-2.88,5.4-4.51,5.4-2.23,0-4.39-2.23-5-8.4a62.65,62.65,0,0,1-.26-6.33,12.75,12.75,0,0,0-.15-2.12l2.31,0A21.37,21.37,0,0,0,186.49,147.94Zm16.75,10-1.94.77c-.41-4.27-1.85-9-4.11-11.76l1.87-.65A24.46,24.46,0,0,1,203.24,157.92Z"/><path d="M210.43,144.34a16.41,16.41,0,0,0-.46,1.6,55.52,55.52,0,0,0-1.15,9.1,25.72,25.72,0,0,0,.19,3.27c.41-1.08.94-2.48,1.32-3.41l1,.77a53.18,53.18,0,0,0-1.68,5.32,6.25,6.25,0,0,0-.12,1.06l.08.84-1.73.12a29.74,29.74,0,0,1-.87-7.63,65.51,65.51,0,0,1,1.06-9.53,14.71,14.71,0,0,0,.17-1.68Zm5.42,11.52a9,9,0,0,0-.31,2.18c0,1.08.72,2.14,4,2.14a25.42,25.42,0,0,0,5.88-.63l0,2a31.42,31.42,0,0,1-5.93.48c-4,0-5.76-1.32-5.76-3.55a14.16,14.16,0,0,1,.38-2.81Zm-.93-9.7a41.46,41.46,0,0,0,9.77,0v2a61,61,0,0,1-9.75,0Z"/><path d="M234.52,163.68a38.35,38.35,0,0,0-5.3-5.35l1.56-1.37a45.1,45.1,0,0,1,5.38,5.33Z"/><path d="M85.25,179.53c1,0,5.93-.19,7.29-.36a5.3,5.3,0,0,0,1.3-.24l1.22,1.4a11.66,11.66,0,0,0-1.27.88c-1.77,1.47-5.21,4.32-7.1,5.84A113,113,0,0,1,98,186.33v1.8a33.51,33.51,0,0,0-6,.12c-2.3.31-4.56,2.28-4.56,4.48,0,2.38,1.92,3.2,4.08,3.49a15.62,15.62,0,0,0,3.41.09l-.38,1.95c-5.81.24-9-1.59-9-5.24a5.64,5.64,0,0,1,2.76-4.46c-2.54.21-5.71.6-8.54,1.05l-.17-1.82c1.27-.12,2.88-.34,4.08-.48a97.22,97.22,0,0,0,7.85-6.41c-1.06.07-5.19.29-6.22.39-.6,0-1.32.09-1.82.14l-.1-2A11.45,11.45,0,0,0,85.25,179.53Z"/><path d="M106,178.72c-.12.77-.19,1.61-.24,2.37-.1,2.69-.29,8.31-.29,11.86,0,2.62,1.68,3.53,3.89,3.53,4.37,0,6.84-2.45,8.54-4.92l1.32,1.66a11.84,11.84,0,0,1-9.91,5.23c-3.41,0-5.76-1.44-5.76-5.31,0-3.53.24-9.53.24-12a11.81,11.81,0,0,0-.22-2.4Z"/><path d="M121.18,181.29c1.56-.15,6-.6,10.41-1,2.6-.22,4.83-.34,6.41-.41v1.92a19.75,19.75,0,0,0-4.65.38,8.28,8.28,0,0,0-5.43,7.49c0,4.66,4.32,6.12,8.19,6.26l-.7,2c-4.39-.17-9.41-2.52-9.41-7.83a9.54,9.54,0,0,1,4.42-8c-2.09.24-8.57.86-11.14,1.39l-.21-2.11C120,181.38,120.72,181.33,121.18,181.29Z"/><path d="M144.36,187.79a21.49,21.49,0,0,0-4.42-2.62l1-1.29a19.19,19.19,0,0,1,4.44,2.42Zm-3.65,9.89A77.58,77.58,0,0,0,145,190l1.32,1.13c-1.17,2.52-2.76,5.49-4.08,7.7Zm1.49-20.21a17.53,17.53,0,0,1,4.39,2.62l-1.06,1.41a19.16,19.16,0,0,0-4.32-2.76Zm10.39,8.42c-.26,1.08-.5,2.16-.74,3.15h8.52l-.07.81c-.51,5.53-1,7.73-1.8,8.55a2.54,2.54,0,0,1-2,.72,29.78,29.78,0,0,1-3.82-.05,3.48,3.48,0,0,0-.57-1.68c1.6.15,3.16.15,3.79.15a1.66,1.66,0,0,0,1.08-.24c.6-.56,1-2.38,1.41-6.63h-7c-.12.48-.24.91-.36,1.32l-1.82-.24c.46-1.56,1-3.67,1.49-5.86h-4v-1.68h4.39c.29-1.36.57-2.71.79-3.93h-4.18v-1.66h13.18v1.66h-7.15c-.27,1.25-.53,2.59-.82,3.93h8.93v1.68Z"/><path d="M182.08,182.89c-1.46.39-3,.75-4.49,1,.87,1.89,2.16,4.65,3.19,6.65l-1.1,1.15c-1-.22-3.38-.55-4.92-.7l.19-1.56c.91.07,2.57.27,3.36.34-.67-1.47-1.87-3.94-2.59-5.59a49.89,49.89,0,0,1-10.1,0l-.08-1.92a40.24,40.24,0,0,0,9.44.15l-.8-1.75a18.55,18.55,0,0,0-1-2l2.13-.4c.58,1.58,1,2.64,1.54,3.91a36,36,0,0,0,4.87-1.2ZM168.66,190a9.58,9.58,0,0,0-.67,3c0,2.09,1.42,3.34,5,3.34a25.12,25.12,0,0,0,6.24-.65l0,2a30.32,30.32,0,0,1-6.24.56c-4.42,0-6.87-1.78-6.87-4.76a14,14,0,0,1,.65-3.65Z"/><path d="M197.65,182.94a29.37,29.37,0,0,1-4.3.87,42.69,42.69,0,0,1-5.18,10.05l-1.87-1a34,34,0,0,0,5.08-8.88c-.69,0-1.39.07-2.08.07-.89,0-1.88,0-2.76-.07l-.15-1.8a22.45,22.45,0,0,0,2.93.17c.84,0,1.73,0,2.64-.12a19,19,0,0,0,.74-4.1l2.14.19c-.24.86-.55,2.3-.93,3.67a24.69,24.69,0,0,0,3.69-.86Zm2.78,2.76a24.67,24.67,0,0,0,0,2.57c0,.86.12,2.42.17,3.87a16,16,0,0,1,4.92,3l-1,1.63a16.46,16.46,0,0,0-3.82-2.71c0,.36,0,.7,0,1,0,1.9-1.24,3.46-4.17,3.46-2.62,0-4.76-1.08-4.76-3.44,0-2.18,2.07-3.6,4.76-3.6a11.45,11.45,0,0,1,2.25.22c-.07-1.94-.19-4.27-.24-5.93Zm-1.6,7.61a8.92,8.92,0,0,0-2.4-.34c-1.76,0-2.91.8-2.91,1.88s.89,1.84,2.74,1.84,2.59-1.08,2.59-2.25C198.85,194.13,198.85,193.74,198.83,193.31Zm6.33-7a28.56,28.56,0,0,0-5.42-3.26l.93-1.49a35.65,35.65,0,0,1,5.57,3.17Z"/><path d="M212,182.94c0,1.49,0,3.67.17,5.62.38,4,1.53,6.6,3.21,6.6,1.23,0,2.33-2.45,3-4.85l1.51,1.73c-1.42,4-2.88,5.4-4.51,5.4-2.24,0-4.4-2.23-5-8.4a63,63,0,0,1-.26-6.34,12.68,12.68,0,0,0-.14-2.11l2.3,0A21.19,21.19,0,0,0,212,182.94Zm16.75,10-1.94.76c-.41-4.27-1.85-9-4.11-11.76l1.88-.64A24.45,24.45,0,0,1,228.73,192.93Z"/><path d="M110.09,231.82v1.63h-21v-1.63h9.53V227h-7v-1.61H108V227h-7.58v4.82ZM97.81,216.36c-.48,4.25-1.9,6.72-7.54,8a5.4,5.4,0,0,0-1-1.48c5.14-1,6.27-3,6.68-6.51H91.32v3.19H89.57v-4.8h9.08v-2.49h1.8v2.49h9.26V219h-1.8v-2.67h-4.85v4.75c0,.61.15.7,1,.7h3.08c.69,0,.84-.26.91-1.94a5.25,5.25,0,0,0,1.53.64c-.16,2.26-.67,2.84-2.28,2.84H103.9c-2.09,0-2.59-.46-2.59-2.24v-4.75Z"/><path d="M115.09,221.47V234.2h-1.77V213.29H122v8.18Zm0-6.79v2h5.19v-2Zm5.19,5.43V218h-5.19v2.12ZM120.21,232v1.2H118.6v-9.89h8.9V232Zm0-7.32v2.24h5.64v-2.24Zm5.64,5.91v-2.33h-5.64v2.33Zm7.15,1.27c0,1.13-.26,1.73-1.06,2a13.57,13.57,0,0,1-4,.31,6.65,6.65,0,0,0-.62-1.82c1.46.07,2.93.05,3.36,0s.55-.14.55-.57V221.5h-7.08v-8.21H133Zm-7.18-17.14v2h5.38v-2Zm5.38,5.45V218h-5.38v2.14Z"/><path d="M138.72,219.53c2-.62,6.67-2.35,10.15-2.35,3.93,0,7.08,2.3,7.08,6.29,0,5.69-5.67,8.45-13,8.85l-.84-2c6.22-.17,11.76-2,11.76-6.89,0-2.49-1.82-4.46-5-4.46-3.89,0-10,2.62-11.83,3.38l-.89-2.13A22.67,22.67,0,0,0,138.72,219.53Zm16-2.69-1.29.58a25.91,25.91,0,0,0-1.95-3.36l1.27-.53A26,26,0,0,1,154.7,216.84Zm2.71-1-1.29.58a26.21,26.21,0,0,0-2-3.31l1.25-.55A25.49,25.49,0,0,1,157.41,215.83Z"/><path d="M172.89,214.71c-.53.38-1.25,1-1.63,1.34-1.66,1.42-5.06,4.15-6.82,5.59-1.44,1.25-1.44,1.61.1,2.88,2.16,1.73,6.55,5.38,8.88,7.68l-1.73,1.56c-.48-.57-1.13-1.17-1.63-1.72-1.3-1.4-5.26-4.78-7.49-6.61s-2-3,.17-4.75c1.78-1.51,5.38-4.34,7-6a10.93,10.93,0,0,0,1.37-1.59Z"/><path d="M182.85,213.48a44.17,44.17,0,0,0-1.11,6.6c.94-2.44,3.44-5.4,6.44-5.4,3.16,0,5.44,3.17,5.44,8.16,0,6.6-4.15,9.51-10.05,10.59l-1.13-1.73c5.16-.79,9.19-2.86,9.19-8.83,0-3.75-1.25-6.44-3.77-6.44-3,0-5.68,4.3-6,7.42a10.22,10.22,0,0,0,0,2.91l-1.87.14a29.09,29.09,0,0,1-.24-3.77,62.08,62.08,0,0,1,.72-7.68c.1-.74.17-1.46.2-2Z"/><path d="M208.52,229.11c.07-.91.09-2.45.09-3.7-2.2,1.2-3.74,2.43-3.74,4,0,1.87,1.85,2.13,4.3,2.13a41.91,41.91,0,0,0,6.48-.57l-.05,1.94a60.22,60.22,0,0,1-6.51.38c-3.4,0-6.14-.72-6.14-3.62s2.83-4.58,5.59-6a2,2,0,0,0-2.13-1.47,6.37,6.37,0,0,0-4.11,1.75c-.67.65-1.34,1.54-2.16,2.5l-1.63-1.22A25.3,25.3,0,0,0,204,218h-1c-1,0-2.62,0-3.92-.15V216a39,39,0,0,0,4,.24c.51,0,1,0,1.56,0a12.35,12.35,0,0,0,.6-2.95l2,.16c-.17.68-.38,1.66-.72,2.74a64.38,64.38,0,0,0,7.27-.72l0,1.78a74.44,74.44,0,0,1-7.87.67,17.16,17.16,0,0,1-2.14,3.65,6.78,6.78,0,0,1,3.29-.89,3,3,0,0,1,3.14,2.16c1.64-.77,3.08-1.35,4.32-1.92.72-.31,1.3-.6,2-.94l.77,1.8c-.6.17-1.46.51-2.09.75-1.34.53-3,1.22-4.85,2.06,0,1.37.05,3.39.08,4.54Z"/></g></g></svg>