<svg xmlns="http://www.w3.org/2000/svg" viewBox="0 0 307.76 307.76"><defs><style>.cls-1{fill:none;stroke:#73c3c4;stroke-miterlimit:10;stroke-width:3px;stroke-dasharray:5;}</style></defs><title>sp-circle3</title><g id="Layer_2" data-name="Layer 2"><g id="SVG"><circle class="cls-1" cx="153.88" cy="153.88" r="152.38"/><line class="cls-1" x1="43.77" y1="121.95" x2="263.99" y2="121.95"/><path d="M63.19,85.54c-2.88.45-7.28,1-11,1.18-.37,1.68-.81,3.44-1.26,4.79a13.41,13.41,0,0,1,6.89-1.74c4.48,0,7.44,2.41,7.44,5.93,0,6.25-6,8.49-15,7.54l-1-3.59c6.08,1,12.21.26,12.21-3.83,0-1.65-1.46-3-4.14-3a8.57,8.57,0,0,0-8.46,4.47l-3.28-1.17a44.62,44.62,0,0,0,3.17-9.3c-1.77,0-3.39-.14-4.79-.28V83.05a39.46,39.46,0,0,0,5.43.53c.06-.42.14-.78.17-1.12a16.7,16.7,0,0,0,.14-2.8l3.92.17a26.48,26.48,0,0,0-.64,2.83l-.17.84a67,67,0,0,0,10.25-1.32Z"/><path d="M75.86,91.65A13.6,13.6,0,0,1,84,89c4.87,0,7.7,3,7.7,6.36,0,5.07-4,9-15.54,7.95L75.1,99.68c8.32,1.18,12.72-.87,12.72-4.39,0-1.8-1.71-3.11-4.15-3.11A9.71,9.71,0,0,0,76,95.43a5.93,5.93,0,0,0-1,1.62l-3.22-.81a99.72,99.72,0,0,0,1.37-11.57l3.76.51C76.53,86.72,76.06,90.05,75.86,91.65Zm.87-12a87.92,87.92,0,0,0,11.09,2.15L87,85.18c-2.8-.37-9-1.65-11.15-2.21Z"/><path d="M106.88,80c-.17.72-.37,1.59-.51,2.29s-.36,1.85-.56,2.86c.92-.06,1.76-.11,2.32-.11,2.94,0,5,1.31,5,5.29,0,3.27-.4,7.7-1.57,10.11-.93,1.93-2.47,2.54-4.56,2.54a15.09,15.09,0,0,1-3.31-.39L103.09,99a15.9,15.9,0,0,0,3.39.59,2,2,0,0,0,2.07-1.2c.79-1.54,1.15-4.85,1.15-7.59,0-2.21-1-2.52-2.71-2.52-.45,0-1.12.06-1.91.11-1.06,4.2-3.08,10.73-5.62,14.81l-3.64-1.45c2.71-3.64,4.59-9.19,5.6-13-1,.12-1.85.23-2.38.31-.79.09-2.22.28-3.08.42l-.31-3.75a26.21,26.21,0,0,0,2.94,0c.87,0,2.18-.11,3.58-.22a30.77,30.77,0,0,0,.59-5.88Zm9.57,2.6a50,50,0,0,1,4.85,10.3l-3.5,1.66c-.73-3.08-2.72-8.1-4.71-10.56Z"/><path d="M130.15,91.65A13.6,13.6,0,0,1,138.3,89c4.87,0,7.7,3,7.7,6.36,0,5.07-4,9-15.54,7.95l-1.07-3.64c8.32,1.18,12.71-.87,12.71-4.39,0-1.8-1.7-3.11-4.14-3.11a9.7,9.7,0,0,0-7.64,3.25,5.7,5.7,0,0,0-1,1.62l-3.22-.81a102,102,0,0,0,1.37-11.57l3.75.51C130.82,86.72,130.34,90.05,130.15,91.65Zm.87-12a88.12,88.12,0,0,0,11.08,2.15l-.84,3.42c-2.8-.37-9-1.65-11.14-2.21Z"/><path d="M165.32,85.74a41.72,41.72,0,0,1-4.81,1,51.3,51.3,0,0,1-5.94,11.87l-3.39-1.71a42,42,0,0,0,5.66-9.8c-.48,0-1,0-1.43,0-1.15,0-2.27,0-3.47-.08l-.25-3.25a35.12,35.12,0,0,0,3.69.2c.81,0,1.65,0,2.49-.09a23.33,23.33,0,0,0,.76-4.65l3.84.4c-.23.89-.56,2.29-1,3.78a31.22,31.22,0,0,0,3.73-.87ZM169,88.23c-.08,1.18,0,2.32,0,3.56,0,.78.09,2.12.17,3.5a18.35,18.35,0,0,1,5.74,3.55l-1.85,3a24.26,24.26,0,0,0-3.75-2.94v.25c0,2.58-1.4,4.59-5.35,4.59-3.44,0-6.16-1.54-6.16-4.59,0-2.71,2.27-4.81,6.13-4.81a18.65,18.65,0,0,1,1.88.11c-.08-2.07-.22-4.51-.31-6.19Zm-3.05,9.18a9.74,9.74,0,0,0-2.24-.28c-1.6,0-2.63.68-2.63,1.66s.87,1.73,2.38,1.73c1.87,0,2.49-1.09,2.49-2.57Zm7.81-7.7a37.3,37.3,0,0,0-6.66-3.94L168.85,83a50.84,50.84,0,0,1,6.83,3.75Z"/><path d="M184.28,85.49c0,1.79,0,3.89.17,5.88.39,4,1.23,6.72,3,6.72,1.32,0,2.41-3.25,2.94-5.44l2.8,3.36c-1.84,4.82-3.58,6.53-5.82,6.53-3,0-5.68-2.75-6.47-10.19-.25-2.55-.31-5.77-.31-7.48a15.88,15.88,0,0,0-.19-2.8l4.25.06A22.64,22.64,0,0,0,184.28,85.49Zm19.26,11.39-3.67,1.4c-.42-4.45-1.9-11-4.92-14.39l3.52-1.18C201.11,85.93,203.23,92.63,203.54,96.88Z"/><path d="M219.81,84.67c-.61,1.54-1.17,3.08-1.65,4.15h3.25v3H207v-3h3.19a17.34,17.34,0,0,0-1-4.15l2.71-.56a14,14,0,0,1,1.15,4.09l-2.63.62h7.45l-2.38-.59A30.22,30.22,0,0,0,216.68,84Zm1.29-.75H207.61V81h5.12V78.54H216V81h5.15Zm-12.49,9.74h11.57v10.75h-3.25v-1.28h-5.24v1.4h-3.08Zm3.08,2.89v3.69h5.24V96.55Zm21.42-15.24c-1,2.72-2.21,5.94-3.33,8.32a8.93,8.93,0,0,1,2.8,6.55c0,2-.45,3.42-1.51,4.17a4.62,4.62,0,0,1-1.9.7,13.65,13.65,0,0,1-2.25.06,7.55,7.55,0,0,0-.81-3.28,9.92,9.92,0,0,0,1.57.06,2.9,2.9,0,0,0,1-.22c.5-.31.67-1,.67-1.91,0-1.51-.62-3.53-2.86-5.71.81-2,1.71-4.84,2.38-7h-3.39V104.5h-3.24V79.94h7.89l.51-.14Z"/><path d="M262.61,101.19v2.64H242.2v-2.64h8.48V99.26h-6.61V96.63h6.61V95c-2.63.12-5,.2-7,.28l-.14-2.6,2.94-.06c.39-.64.81-1.37,1.21-2.07h-4.37c-.17,4.57-.9,10.16-3.31,13.92a13,13,0,0,0-3-1.71c2.77-4.31,3-10.61,3-15.06v-8.1h21.25v7.11H243.34V88H262v2.6h-4.2a30.65,30.65,0,0,1,4.42,3.81l-2.77,1.71a12.17,12.17,0,0,0-1.29-1.37l-4.28.16v1.74h6.72v2.63H253.9v1.93ZM243.34,82.32v1.74H257.9V82.32Zm8,8.26c-.45.67-.92,1.35-1.37,2l5.52-.17a15.91,15.91,0,0,0-1.38-1.06l1.21-.73Z"/><path d="M85.8,154.38a17,17,0,0,1-4,3.07,5.36,5.36,0,0,0-1.06-1.13,15,15,0,0,0,4.42-3H81.79V149h4v-1.22H81.1v-1.3h4.7v-1.56h1.61v1.56h4.68v1.3H87.41V149h4.1v2a12.59,12.59,0,0,0,3.53-6l1.64.36a18.14,18.14,0,0,1-.87,2.3h6.6V149h-1.53a11.9,11.9,0,0,1-2.55,4.73,12.44,12.44,0,0,0,4.49,2.47,7.69,7.69,0,0,0-1,1.42,13.25,13.25,0,0,1-4.54-2.81,15.68,15.68,0,0,1-4.89,2.71,6,6,0,0,0-1.06-1.32,12.74,12.74,0,0,0,4.87-2.54,14.42,14.42,0,0,1-2-3.19,12,12,0,0,1-1.49,1.72A8.05,8.05,0,0,0,91.51,151v2.28h-4c1,.46,3.46,1.71,4.13,2.09l-.86,1.18c-.7-.48-2.26-1.4-3.41-2v2.9H85.8Zm6.7,10.39h10v1.49H80.88v-1.49h3.94v-4.13H86.5v4.13h4.27v-5.21H82.49V158.1H101v1.46H92.5v1.85h6.89v1.39H92.5Zm-9.24-12.62H85.8v-2H83.26Zm4.15-2v2H90v-2ZM95.07,149l0,.07a12.42,12.42,0,0,0,2.21,3.53,10.1,10.1,0,0,0,1.92-3.6Z"/><path d="M112.54,161.84c-2.57.87-5.3,1.8-7.44,2.5l-.41-1.8c.89-.27,2-.6,3.22-1v-6.46h-2.74v-1.68h2.74v-5.2h-3V146.5h7.44v1.69h-2.76v5.2H112v1.68h-2.43V161l2.62-.86Zm14.33,2.55V166H111.41v-1.63h7.3V161.1h-5.45v-1.63h5.45v-2.81h-5.16V146h12.19v10.68h-5.23v2.81h5.59v1.63h-5.59v3.29Zm-11.69-13.83h3.65v-3h-3.65Zm0,4.54h3.65V152h-3.65Zm8.86-7.56h-3.67v3H124Zm0,4.49h-3.67v3.07H124Z"/><path d="M133.84,146.34c-.12.77-.19,1.61-.24,2.37-.1,2.69-.29,8.31-.29,11.86,0,2.62,1.68,3.53,3.89,3.53,4.37,0,6.84-2.45,8.55-4.92l1.32,1.65a11.84,11.84,0,0,1-9.92,5.24c-3.4,0-5.76-1.44-5.76-5.31,0-3.53.24-9.53.24-12a12.61,12.61,0,0,0-.21-2.4Z"/><path d="M152.46,147.73c.19.38.6,1.15.84,1.56.41.79.89,1.75,1.37,2.74,2.85-1.28,6.07-2.55,8.54-2.55,3.29,0,5.3,1.9,5.3,4.49,0,2.74-1.75,4.82-5.47,4.82a10.53,10.53,0,0,1-3.55-.67l.07-1.92a7.92,7.92,0,0,0,3.36.79c2.62,0,3.67-1.41,3.67-3.09,0-1.44-1.1-2.71-3.45-2.71-2.07,0-5,1.12-7.73,2.4.31.64.62,1.32.91,2a105.57,105.57,0,0,1,3.6,10l-2.06.55a70.27,70.27,0,0,0-3.24-9.74c-.29-.68-.6-1.35-.89-2-1.82.89-3.48,1.75-4.56,2.23l-.94-2c.7-.19,1.54-.48,2-.65.79-.31,1.75-.74,2.79-1.2a25.4,25.4,0,0,0-1.35-2.61,15.16,15.16,0,0,0-1.15-1.68Zm7.13,1.7a29.84,29.84,0,0,0-3.1-2.76l1.39-1a31.82,31.82,0,0,1,3.1,2.69Z"/><path d="M184.21,150.75c0,1.35,0,2.81,0,3.89a5.85,5.85,0,0,1,.77,3.05c0,3.22-1.56,6.79-7.08,8.45l-1.66-1.61c3.12-.72,5.33-2,6.31-4.13a3.39,3.39,0,0,1-2,.6,3.82,3.82,0,0,1-3.93-4,4.18,4.18,0,0,1,4.2-4.15,4.72,4.72,0,0,1,1.58.26c0-.7,0-1.54,0-2.35-3.6,0-7.64.19-10.61.41l-.05-1.88c2.64,0,7.1-.19,10.63-.24,0-.67,0-1.22-.05-1.56a14.4,14.4,0,0,0-.14-1.48h2.18l-.12,1.48c0,.36,0,.92,0,1.54h.36l7,0,0,1.8c-1.35-.07-3.51-.12-7-.12ZM182.94,156a2.12,2.12,0,0,0-2.11-1.46,2.41,2.41,0,0,0-2.4,2.49,2.29,2.29,0,0,0,2.42,2.36C182.24,159.35,183.15,158.22,182.94,156Z"/><path d="M197.34,150.56c0,1.49,0,3.67.17,5.62.38,4,1.53,6.6,3.21,6.6,1.23,0,2.33-2.45,3-4.85l1.51,1.73c-1.42,4-2.88,5.4-4.51,5.4-2.24,0-4.4-2.23-5-8.4a63.28,63.28,0,0,1-.27-6.34,12.68,12.68,0,0,0-.14-2.11l2.3,0C197.44,148.83,197.36,149.94,197.34,150.56Zm16.75,10-1.94.76c-.41-4.27-1.85-9-4.1-11.76l1.87-.64A24.45,24.45,0,0,1,214.09,160.55Z"/><path d="M222.66,166.31a39.57,39.57,0,0,0-5.3-5.36l1.56-1.36a45.68,45.68,0,0,1,5.37,5.32Z"/><path d="M91.71,189.38a16.34,16.34,0,0,1-4.06,3.07,5,5,0,0,0-1.05-1.12,15.06,15.06,0,0,0,4.41-3H87.7V184h4v-1.23H87v-1.29h4.71v-1.56h1.61v1.56H98v1.29H93.32V184h4.1v1.94a12.7,12.7,0,0,0,3.53-6l1.63.36a20.62,20.62,0,0,1-.86,2.31h6.6V184h-1.54a11.79,11.79,0,0,1-2.54,4.72,12.31,12.31,0,0,0,4.49,2.48,7.79,7.79,0,0,0-1,1.41,13,13,0,0,1-4.53-2.81,15.75,15.75,0,0,1-4.9,2.72,5.69,5.69,0,0,0-1.05-1.32,13,13,0,0,0,4.87-2.55,13.73,13.73,0,0,1-2-3.19,12.06,12.06,0,0,1-1.49,1.73,8.07,8.07,0,0,0-1.13-1.15v2.28h-4c1,.45,3.46,1.7,4.13,2.08l-.86,1.18c-.7-.48-2.26-1.39-3.41-2v2.9H91.71Zm6.7,10.4h10v1.48H86.79v-1.48h3.94v-4.13h1.68v4.13h4.27v-5.21H88.4V193.1h18.46v1.47H98.41v1.84h6.88v1.4H98.41Zm-9.24-12.63h2.54v-2H89.17Zm4.15-2v2h2.59v-2ZM101,184l0,.07a12.75,12.75,0,0,0,2.2,3.53,10.18,10.18,0,0,0,1.92-3.6Z"/><path d="M118.92,198.58c.46,0,.55-.51.6-2.33a3.94,3.94,0,0,0,1.39.62c-.14,2.35-.57,3.15-1.87,3.15h-2.11c-1.56,0-2-.48-2-2.43v-3.24h-1.92V196h-1.39v-9.8h1.39v6.58H115v-8.45c-1.27.24-2.56.43-3.76.6a7.8,7.8,0,0,0-.53-1.39c1.39-.19,2.9-.46,4.29-.74v-2.88h1.54v2.52a23.08,23.08,0,0,0,3-.89l1.28,1.32a30.42,30.42,0,0,1-4.23,1.15v8.76h2.11v-6.6h1.42v9.22h-1.42v-1.06h-2.11v3.27c0,.81.1,1,.63,1Zm7,0a16.49,16.49,0,0,1-5,3.24,10.24,10.24,0,0,0-1.18-1.2,13.9,13.9,0,0,0,4.64-2.93Zm-.56-13.73c.2-.72.39-1.54.53-2.28h-4.7V181h11.59v1.56h-5c-.24.79-.5,1.58-.74,2.28h4.87v12.41h-9.74V184.87Zm4.92,1.39h-6.48v2.33h6.48Zm0,3.63h-6.48v2.3h6.48Zm0,3.65h-6.48v2.32h6.48Zm-1.12,4.29a26.81,26.81,0,0,1,4.08,3l-1.4,1a27.62,27.62,0,0,0-4-3.12Z"/><path d="M139.93,181.34c-.12.77-.19,1.61-.24,2.38-.09,2.69-.29,8.3-.29,11.86,0,2.61,1.69,3.52,3.89,3.52,4.37,0,6.84-2.44,8.55-4.92l1.32,1.66a11.83,11.83,0,0,1-9.91,5.23c-3.41,0-5.77-1.44-5.77-5.3,0-3.53.24-9.53.24-12.05a12.46,12.46,0,0,0-.21-2.4Z"/><path d="M158.55,182.73c.19.39.6,1.16.84,1.56.41.8.89,1.76,1.37,2.74,2.85-1.27,6.07-2.54,8.54-2.54,3.29,0,5.31,1.89,5.31,4.48,0,2.74-1.75,4.83-5.48,4.83a10.78,10.78,0,0,1-3.55-.67l.07-1.92A7.92,7.92,0,0,0,169,192c2.62,0,3.68-1.42,3.68-3.1,0-1.44-1.11-2.71-3.46-2.71-2.06,0-5,1.13-7.73,2.4.31.65.63,1.32.91,2,1.3,2.93,2.79,7.37,3.6,10l-2.06.56a69.5,69.5,0,0,0-3.24-9.75c-.29-.67-.6-1.34-.89-2-1.82.89-3.48,1.75-4.56,2.24l-.93-2c.69-.2,1.53-.48,2-.65.8-.31,1.76-.75,2.79-1.2a24.67,24.67,0,0,0-1.35-2.62,13.55,13.55,0,0,0-1.15-1.68Zm7.13,1.71a27.81,27.81,0,0,0-3.1-2.76l1.39-1a28.34,28.34,0,0,1,3.1,2.69Z"/><path d="M190.3,185.76c0,1.34,0,2.81,0,3.89a5.82,5.82,0,0,1,.77,3c0,3.21-1.56,6.79-7.08,8.44l-1.66-1.6c3.12-.72,5.33-2,6.31-4.13a3.37,3.37,0,0,1-2,.6,3.83,3.83,0,0,1-3.93-4,4.18,4.18,0,0,1,4.2-4.15,5,5,0,0,1,1.58.26c0-.69,0-1.53,0-2.35-3.6,0-7.63.19-10.61.41l-.05-1.87c2.64,0,7.11-.19,10.63-.24,0-.67,0-1.23,0-1.56,0-.51-.1-1.2-.15-1.49h2.19l-.12,1.49c0,.36,0,.91,0,1.53h.36c2.88,0,5.81,0,7,0l0,1.8c-1.35-.07-3.51-.12-7-.12ZM189,191a2.1,2.1,0,0,0-2.11-1.47,2.41,2.41,0,0,0-2.4,2.5,2.28,2.28,0,0,0,2.42,2.35C188.33,194.35,189.25,193.22,189,191Z"/><path d="M203.43,185.57c0,1.48,0,3.67.17,5.61.38,4,1.54,6.6,3.22,6.6,1.22,0,2.32-2.45,3-4.84l1.51,1.72c-1.42,4-2.88,5.4-4.51,5.4-2.23,0-4.39-2.23-5-8.4a63,63,0,0,1-.27-6.33,12.73,12.73,0,0,0-.14-2.12l2.3,0C203.53,183.84,203.46,184.94,203.43,185.57Zm16.76,10-1.95.77c-.41-4.27-1.85-9-4.1-11.76l1.87-.65A24.46,24.46,0,0,1,220.19,195.55Z"/><path d="M61.57,220.33h-9v-1.46h9Zm-.84,15.1H55.16v1.1H53.6v-8h7.13Zm-7.08-13.32h7.11v1.41H53.65Zm0,3.17h7.11v1.44H53.65Zm7-8.12H53.77v-1.44h6.91ZM55.16,230v4h4v-4Zm10-11.4a7,7,0,0,1-3.07,6.26,9.17,9.17,0,0,0-1.3-1.18,5.53,5.53,0,0,0,2.66-5.11v-2.88h7.49v5.86c0,.53.07.62.46.62h1.2c.43,0,.53-.31.58-2.61a3.94,3.94,0,0,0,1.48.64c-.14,2.81-.57,3.51-1.84,3.51H71.15c-1.47,0-1.9-.46-1.9-2.16v-4.27h-4.1Zm8.06,7a15.56,15.56,0,0,1-4,7.08,15.38,15.38,0,0,0,5.52,2.59,7.89,7.89,0,0,0-1.16,1.51,16.39,16.39,0,0,1-5.71-3,18.34,18.34,0,0,1-6,3,6.5,6.5,0,0,0-1-1.56,16.49,16.49,0,0,0,5.66-2.64,16.42,16.42,0,0,1-3.36-5.24l1.59-.48a13.35,13.35,0,0,0,3.09,4.64A12.85,12.85,0,0,0,71,226.84H61.88V225.2h9.87l.31-.07Z"/><path d="M86.36,220.33H76.91v-1.46h9.45Zm-1,15.1H79.59v1.1H78v-8H85.4ZM78,222.11h7.44v1.41H78Zm0,3.17h7.44v1.44H78Zm7.44-8.12H78.15v-1.44h7.32ZM79.59,230v4h4.2v-4Zm19.52-5.16H93.73v12H92v-12H86.34V223H92V215h1.78V223h5.38Z"/><path d="M101.81,226.74c1.27-1.3,3.26-4,4.65-5.66s2.64-1.85,4.23-.27c1.37,1.44,3.26,3.82,4.77,5.45s3.8,4.08,5.93,6l-1.51,1.7c-1.8-1.7-4-4.1-5.62-6s-3.36-4-4.46-5.25-1.46-.94-2.26.07c-1.1,1.39-3.07,4-4.27,5.47-.5.62-1,1.34-1.39,1.85l-1.78-1.85A13.84,13.84,0,0,0,101.81,226.74Z"/><path d="M133.3,233.8a15.15,15.15,0,0,0,2-.29c3-.67,6-2.93,6-7a6.59,6.59,0,0,0-6.32-6.89,51,51,0,0,1-1.41,6.84c-1.47,4.87-3.36,7.39-5.57,7.39s-4.25-2.45-4.25-6.36c0-5.16,4.61-9.67,10.42-9.67,5.57,0,9.12,3.93,9.12,8.73,0,5-3.29,8.33-9,9.08ZM131.74,226a37.89,37.89,0,0,0,1.32-6.41,8.29,8.29,0,0,0-7.34,7.68c0,3,1.39,4.32,2.42,4.32S130.52,230,131.74,226Z"/><path d="M150.13,227.75a9.62,9.62,0,0,0-.48,2.71c0,1.78,1.83,3,5.62,3a31,31,0,0,0,8.14-.91l0,2.07a35.33,35.33,0,0,1-8.11.81c-4.83,0-7.63-1.58-7.63-4.56a14.73,14.73,0,0,1,.48-3.33Zm-1-9.6a54.42,54.42,0,0,0,6.29.31c2.28,0,4.7-.17,6.41-.34v2c-1.61.12-4.23.29-6.41.29-2.38,0-4.39-.1-6.29-.26Z"/><path d="M179.2,221.2a48.08,48.08,0,0,1-4.92.79c-.22,1-.48,2.13-.75,3.17A69.7,69.7,0,0,1,169.81,236l-2.11-.7a52.12,52.12,0,0,0,4-10.63c.22-.79.41-1.66.6-2.52-.76,0-1.48.07-2.16.07-1.05,0-1.92,0-2.76-.09l-.07-1.88a20.3,20.3,0,0,0,2.86.17c.79,0,1.63,0,2.54-.09.17-.87.29-1.61.36-2.09a11.21,11.21,0,0,0,.07-2l2.33.19c-.17.51-.33,1.42-.43,1.88l-.36,1.75a34.7,34.7,0,0,0,4.54-.86Zm-.94,8.3a8.34,8.34,0,0,0-.34,2.16c0,1.1.53,2.18,3.92,2.18a24.31,24.31,0,0,0,4.63-.45l-.07,1.94a34.55,34.55,0,0,1-4.59.34c-3.74,0-5.71-1.18-5.71-3.53a13.2,13.2,0,0,1,.36-2.81Zm-.6-5.78c1.25-.1,2.81-.2,4.34-.2a36.51,36.51,0,0,1,4.11.2l-.05,1.82a35.4,35.4,0,0,0-4-.26,37.63,37.63,0,0,0-4.39.24Zm6.62-2.67a28.11,28.11,0,0,0-1.94-3.34l1.27-.55a26.15,26.15,0,0,1,2,3.32Zm2-4.87a29.62,29.62,0,0,1,2,3.31l-1.29.58a24.59,24.59,0,0,0-2-3.34Z"/><path d="M198.56,220.43c-.29.43-.7,1.08-1.06,1.65-.05.48-.07,1-.12,1.52a12,12,0,0,1,7.54-3,6,6,0,0,1,6.26,6c0,4.78-3.48,7.32-8.66,8.31l-.87-1.8c4-.6,7.61-2.45,7.59-6.55a4.32,4.32,0,0,0-4.59-4.2,11,11,0,0,0-7.41,3.4c-.05,1-.08,1.95-.08,2.79,0,2.16,0,3.6.1,5.73,0,.41.07,1,.12,1.44h-2.09c0-.33.07-1,.07-1.41,0-2.28,0-3.46.08-6.1,0-.24,0-.55,0-.91-1.15,1.75-2.71,4-3.86,5.62l-1.2-1.66c1.32-1.66,4-5.35,5.25-7.22,0-.77.1-1.54.15-2.28-1.08.11-3.15.4-4.64.6l-.19-2a10.22,10.22,0,0,0,1.56,0c.77,0,2.16-.19,3.39-.39.07-1.12.12-2,.12-2.23a9,9,0,0,0-.1-1.77l2.28.07c-.12.57-.31,1.92-.48,3.58l.12,0Z"/><path d="M218.94,216.11a43.9,43.9,0,0,0-1.1,6.6c.93-2.45,3.43-5.4,6.43-5.4,3.17,0,5.45,3.17,5.45,8.16,0,6.6-4.16,9.5-10.06,10.58l-1.13-1.73c5.16-.79,9.19-2.85,9.19-8.83,0-3.74-1.24-6.43-3.76-6.43-3,0-5.69,4.3-6,7.42a9.83,9.83,0,0,0,.05,2.9l-1.87.14a28.91,28.91,0,0,1-.24-3.76,61.71,61.71,0,0,1,.72-7.68c.09-.75.16-1.47.19-2Z"/><path d="M244.61,231.73c.07-.91.1-2.45.1-3.69-2.21,1.2-3.75,2.42-3.75,4,0,1.87,1.85,2.14,4.3,2.14a41.87,41.87,0,0,0,6.48-.58l-.05,1.94a60.1,60.1,0,0,1-6.5.39c-3.41,0-6.15-.72-6.15-3.63s2.83-4.58,5.59-6a2,2,0,0,0-2.13-1.46,6.32,6.32,0,0,0-4.11,1.75c-.67.65-1.34,1.53-2.16,2.49l-1.63-1.22a24.93,24.93,0,0,0,5.47-7.25h-1c-1,0-2.62,0-3.91-.14v-1.8c1.27.14,2.93.24,4,.24.5,0,1,0,1.56,0a13.2,13.2,0,0,0,.6-3l2,.17c-.16.67-.38,1.65-.72,2.73a64.82,64.82,0,0,0,7.28-.71l0,1.77a71.88,71.88,0,0,1-7.87.67,16.69,16.69,0,0,1-2.14,3.65,6.81,6.81,0,0,1,3.29-.89,3,3,0,0,1,3.15,2.16c1.63-.76,3.07-1.34,4.32-1.92.72-.31,1.29-.6,2-.93l.76,1.8c-.6.17-1.46.5-2.08.74-1.35.53-3.05,1.23-4.85,2.07,0,1.36,0,3.38.07,4.53Z"/></g></g></svg>