<svg xmlns="http://www.w3.org/2000/svg" viewBox="0 0 213.02 213.02"><defs><style>.cls-1{fill:#fff;}.cls-2{fill:#73c6c7;}</style></defs><title>sp-lb5</title><g id="Layer_2" data-name="Layer 2"><g id="SVG"><circle class="cls-1" cx="106.51" cy="106.51" r="105.01" transform="translate(-15.69 194.58) rotate(-80.78)"/><path class="cls-2" d="M106.51,3A103.51,103.51,0,1,1,3,106.51,103.63,103.63,0,0,1,106.51,3m0-3A106.51,106.51,0,1,0,213,106.51,106.51,106.51,0,0,0,106.51,0Z"/><path d="M51.3,62.16a44.51,44.51,0,0,1-2.45,5.67v17.4H46.57V71.68a23.81,23.81,0,0,1-1.8,2.26,12.19,12.19,0,0,0-1.35-2.42,28.92,28.92,0,0,0,5.59-10ZM60,76.88a9.15,9.15,0,0,1-1.79,4.18,32.44,32.44,0,0,0,9.52,1.8,8.76,8.76,0,0,0-1.46,2.23,28.74,28.74,0,0,1-9.78-2.34,16.74,16.74,0,0,1-5.46,2.58,8.07,8.07,0,0,0-1.48-2,16.09,16.09,0,0,0,4.81-1.79,12.76,12.76,0,0,1-3.46-3.41L53,77.42a9.36,9.36,0,0,0,3.09,2.68,6.64,6.64,0,0,0,1.54-3.22H51.74v-10H57.9V64.92H51.19V62.81H67v2.11H60.29v1.92h6v10ZM54,71H57.9V68.66H54Zm3.9,4.06c0-.39,0-.83,0-1.22V72.72H54v2.34Zm6-2.34H60.29v1.14c0,.39,0,.81,0,1.2h3.64Zm-3.62-4.06V71h3.62V68.66Z"/><path d="M86.42,73.58a18.8,18.8,0,0,0,7.52,3.69,8.33,8.33,0,0,0-1.54,1.9A14.06,14.06,0,0,1,91,78.7v6.53H88.74v-.84h-4v.91H82.58V76.77h4.47a15.76,15.76,0,0,1-3.69-3.19H79.74a18.47,18.47,0,0,1-3.95,3.19h4.58v8.46H78.13v-.84H74.18v.91H72V78.65c-.44.18-.88.36-1.35.52a10.26,10.26,0,0,0-1.49-1.88,22.24,22.24,0,0,0,7.16-3.71h-6.4V71.44h8.53a12.11,12.11,0,0,0,1.14-1.71h-8V62.45h8.58V68.9l2.18.72a14.42,14.42,0,0,1-1,1.82H93.16v2.14ZM77.9,64.4H73.84v3.4H77.9Zm.23,14.38H74.18v3.58h3.95Zm13.31-9h-8.6V62.45h8.6Zm-2.7,12.63V78.78h-4v3.58Zm.39-18H85.05v3.4h4.08Z"/><path d="M117.52,82.39c0,1.38-.34,2-1.22,2.42s-2.29.42-4.58.42A8.21,8.21,0,0,0,111,83c1.48.05,3.07,0,3.51,0s.62-.18.62-.62V64.89H100.62v6.35c0,4.21-.44,10.24-3.28,14.17a9.21,9.21,0,0,0-2-1.56c2.6-3.62,2.86-8.77,2.86-12.61V62.63h19.29Zm-11-11V69.21h-4.29v-1.9h4.29v-2h2.29v2h4.52v1.9h-4.52v2.16h5.09v1.95H101.61V71.37Zm-1.56,10.68v1.46h-2.18V75.19h10v6.86Zm0-5v3.09h5.54V77.06Z"/><path d="M129.61,62.6A45.47,45.47,0,0,0,128.49,69c1.12-2.36,3.62-5.12,6.71-5.12,3.51,0,6.11,3.46,6.11,9,0,7.17-4.5,10.48-11.05,11.67l-1.56-2.34c5.64-.88,9.85-3,9.85-9.33,0-4-1.32-6.63-3.79-6.63-3.12,0-6,4.63-6.19,8a11.64,11.64,0,0,0,.08,3l-2.52.18a30.78,30.78,0,0,1-.32-4.16,68.84,68.84,0,0,1,.78-8.29c.11-.86.19-1.74.21-2.42Z"/><path d="M157.92,63c-.13.54-.28,1.2-.39,1.77-.13.78-.36,2-.59,3.19,1-.07,2-.12,2.57-.12,2.47,0,4.37,1,4.37,4.62,0,3-.39,7.13-1.46,9.34a3.89,3.89,0,0,1-4,2.24,14.14,14.14,0,0,1-3.06-.4l-.45-2.7a14.14,14.14,0,0,0,3.18.55,2,2,0,0,0,2.1-1.23c.78-1.61,1.15-4.83,1.15-7.51,0-2.21-1-2.57-2.63-2.57-.52,0-1.38,0-2.34.13-.94,3.79-2.76,9.69-5.3,13.8l-2.68-1.06c2.57-3.44,4.42-9,5.33-12.46l-2.81.31c-.68.08-1.82.24-2.55.37l-.26-2.81c.89,0,1.61,0,2.5,0s2.21-.13,3.64-.26a31,31,0,0,0,.62-5.51Zm9.26,3.35a48.6,48.6,0,0,1,4.24,8.71l-2.58,1.23a29.8,29.8,0,0,0-4.49-9.47l2.41-1.06.42.57a27.79,27.79,0,0,0-2.08-3.59l1.69-.7a36.69,36.69,0,0,1,2.11,3.59Zm3-1.11a23.15,23.15,0,0,0-2.14-3.59l1.69-.7a34.5,34.5,0,0,1,2.16,3.56Z"/><path d="M78.23,94.62a24,24,0,0,1-2.73,3.82,19,19,0,0,1,1.69,8.89c0,3.78-.28,7.18-1.43,8.74a2.3,2.3,0,0,1-1.56.94,12.52,12.52,0,0,1-3.3.18,4.76,4.76,0,0,0-.68-2.34,17.14,17.14,0,0,0,2.94,0,1.13,1.13,0,0,0,.86-.5c.65-.81.89-3.74.89-7.1v-.52a22.4,22.4,0,0,1-4,4.19,8.84,8.84,0,0,0-1.61-1.82,18.07,18.07,0,0,0,5.36-5.8,14,14,0,0,0-.78-3.09A32.37,32.37,0,0,1,71,102.71a10.72,10.72,0,0,0-1.69-1.59,21,21,0,0,0,3.43-3,15.68,15.68,0,0,0-3-3.27l1.69-1.3a17.58,17.58,0,0,1,2.79,2.81,28,28,0,0,0,1.84-2.81ZM87,107.78a12.12,12.12,0,0,0,6.71,7.28,7.92,7.92,0,0,0-1.61,2.13,14,14,0,0,1-6.56-7.41,14.12,14.12,0,0,1-7.2,7.51,9.15,9.15,0,0,0-1.71-1.89c4.39-2,6.29-4.76,7.07-7.62H78v-2.29h6.08a27.92,27.92,0,0,0,.16-3.23v-3H78.65V97h5.62V93.37h2.47V97h6v2.23h-6v3.07a27,27,0,0,1-.19,3.2h6.63v2.29Zm-5.72-7.93a19.3,19.3,0,0,1,1.64,4.7l-2.13.65a19.32,19.32,0,0,0-1.46-4.81ZM88,104.66a33.83,33.83,0,0,0,2-4.94l2.27.65a53.45,53.45,0,0,1-2.27,4.88Z"/><path d="M113.1,96.23c-.65.5-1.46,1.2-2,1.59-1.71,1.45-5.27,4.26-7.09,5.8-1.49,1.27-1.49,1.61,0,2.91,2.16,1.79,7,5.72,9.54,8.21l-2.34,2.16c-.62-.73-1.35-1.43-2-2.1-1.4-1.51-5.56-5-7.93-7s-2.23-3.36.19-5.38c2-1.67,5.72-4.63,7.46-6.38a14.61,14.61,0,0,0,1.69-1.92Z"/><path d="M125.06,97.51c1.9-.16,6.47-.6,11.21-1,2.75-.21,5.33-.36,7.09-.41v2.6a22.33,22.33,0,0,0-5,.39,8.47,8.47,0,0,0-5.69,7.72c0,4.68,4.37,6.24,8.63,6.42l-.94,2.78c-5-.26-10.34-3-10.34-8.66A10.23,10.23,0,0,1,134.39,99c-2.26.26-8.58.88-11.44,1.48l-.28-2.83C123.68,97.61,124.57,97.56,125.06,97.51Z"/><path d="M38.17,136.21l.31,2.21c-.86.28-1.72.54-2.57.83v7.25c0,1.2-.24,1.85-.94,2.24a7.83,7.83,0,0,1-3.38.44,7.81,7.81,0,0,0-.65-2.24c1,0,2,0,2.29,0s.47-.07.47-.44v-6.58l-2.84.89-.54-2.34c.93-.24,2.1-.55,3.38-.94v-4.94h-3v-2.23h3v-5h2.21v5h2.73v2.23H35.91v4.29ZM54,140.37H52.42v4.88c0,1-.13,1.56-.81,1.9a7.18,7.18,0,0,1-3,.34,7.2,7.2,0,0,0-.55-2c.89,0,1.67,0,1.93,0s.34-.08.34-.31v-3.77h-3.1v7.72H45.08v-7.72H42.35v5.9H40.2v-7H38.48v-4.94H54Zm-1.66-6.09H39.86v-1.82H50.1V131H40.59v-1.67H50.1v-1.4h-10v-1.82H52.34Zm-7.26,5.31v-2.21H40.59v2.21Zm6.74-2.21H47.24v2.21h4.58Z"/><path d="M65.31,127.23c-.73,2.19-1.64,4.89-2.47,6.92A7.88,7.88,0,0,1,65,139.56c0,1.48-.31,2.57-1.07,3.09a3.37,3.37,0,0,1-1.4.52,10.73,10.73,0,0,1-1.72,0,4.55,4.55,0,0,0-.57-2.08,8.93,8.93,0,0,0,1.33,0,1.35,1.35,0,0,0,.8-.24c.37-.26.47-.88.47-1.64a7.11,7.11,0,0,0-2.1-4.86c.65-1.74,1.32-4,1.82-5.82H59.77v20.59H57.64V126.4h5.72l.37-.08Zm4,14.2a17.8,17.8,0,0,1-3.72,6.22,15.08,15.08,0,0,0-1.74-1.38,13.73,13.73,0,0,0,3.35-5.33Zm4.24-1.71v6.83c0,1.17-.21,1.82-1,2.21a8.41,8.41,0,0,1-3.44.42,7.51,7.51,0,0,0-.78-2.26c1.1.05,2.14,0,2.47,0s.42-.1.42-.41v-6.81H65.81v-2.08h5.43V134.8h-3.8v-1.9a16.42,16.42,0,0,1-2.13,1.54,7.51,7.51,0,0,0-1.22-1.95,19.45,19.45,0,0,0,7.07-7.13h2.16a21.93,21.93,0,0,0,7.44,6.92,12.59,12.59,0,0,0-1.3,2.05,21.49,21.49,0,0,1-2-1.43v1.9h-3.9v2.84h5.85v2.08Zm3.74-6.95a25.19,25.19,0,0,1-4.94-5.25,23.16,23.16,0,0,1-4.7,5.25Zm-.47,8.09a27.39,27.39,0,0,1,3.51,5.67l-2,1A29.58,29.58,0,0,0,75,141.72Z"/><path d="M90.74,126.79c-.16.94-.23,2-.29,2.94-.1,2.86-.31,8.79-.31,12.38,0,2.7,1.72,3.64,3.93,3.64,4.52,0,7.2-2.55,9.05-5.31l1.84,2.27A13.1,13.1,0,0,1,94,148.48c-3.93,0-6.56-1.69-6.56-6,0-3.66.26-10.29.26-12.79a14.18,14.18,0,0,0-.26-3Z"/><path d="M127,129.94c1.67,0,3.15,0,3.9,0l0,2.42c-1.54-.08-4-.13-7.72-.13,0,1.38,0,2.86,0,4a6.26,6.26,0,0,1,.91,3.43c0,3.43-1.82,7.49-7.93,9.26l-2.21-2.19c3-.67,5.38-1.79,6.63-3.74a4.37,4.37,0,0,1-1.77.36,4.3,4.3,0,0,1-4.34-4.5,4.66,4.66,0,0,1,4.81-4.62,5,5,0,0,1,1.41.18l0-2.19c-3.9.06-8.09.21-11.31.45l0-2.53c2.91,0,7.67-.15,11.33-.2,0-.55,0-1,0-1.31a9.63,9.63,0,0,0-.21-1.89h3c0,.36-.13,1.51-.15,1.87s0,.78,0,1.3H127a32.67,32.67,0,0,0-1.87-3.15l1.76-.73a32,32,0,0,1,1.88,3.1Zm-7.74,11.18c1.32,0,2.31-1,2-3.48a2.05,2.05,0,0,0-2-1.2,2.3,2.3,0,0,0-2.34,2.39A2.22,2.22,0,0,0,119.24,141.12Zm11-11.91a24.53,24.53,0,0,0-1.87-3.12l1.74-.73c.62.91,1.4,2.11,1.92,3.07Z"/><path d="M141,138.13a12.48,12.48,0,0,1,8-2.81c4.18,0,6.83,2.58,6.83,5.62,0,4.65-4,8-14,7.15l-.81-2.68c8,1,12-1.12,12-4.52,0-1.9-1.77-3.23-4.24-3.23a9.64,9.64,0,0,0-7.59,3.23,5.76,5.76,0,0,0-.86,1.37l-2.39-.57a97.77,97.77,0,0,0,1.3-10.58l2.75.36C141.67,133.09,141.23,136.54,141,138.13Zm1.23-11.55a73.62,73.62,0,0,0,10.11,2l-.6,2.52c-2.52-.34-8.19-1.51-10.16-2Z"/><path d="M165.54,131.63c0,1.61,0,3.8.18,5.8.39,4,1.43,6.76,3.15,6.76,1.3,0,2.42-2.81,3-5.18l2.08,2.42c-1.64,4.42-3.22,6-5.12,6-2.6,0-5-2.5-5.7-9.29a68.14,68.14,0,0,1-.28-6.89,13.37,13.37,0,0,0-.18-2.41l3.14,0A20.84,20.84,0,0,0,165.54,131.63Zm18.05,10.71-2.68,1c-.42-4.42-1.9-10-4.5-13l2.57-.86C181.35,132.49,183.25,138.15,183.59,142.34Z"/></g></g></svg>