<svg xmlns="http://www.w3.org/2000/svg" viewBox="0 0 179.95 179.95"><defs><style>.cls-1{fill:#fff;}.cls-2{fill:#73c6c7;}</style></defs><title>sp-lb3</title><g id="Layer_2" data-name="Layer 2"><g id="SVG"><circle class="cls-1" cx="89.98" cy="89.98" r="88.48" transform="translate(-18.27 156.87) rotate(-76.72)"/><path class="cls-2" d="M90,3A87,87,0,1,1,3,90,87.07,87.07,0,0,1,90,3m0-3a90,90,0,1,0,90,90A90,90,0,0,0,90,0Z"/><path d="M55.51,81A19.15,19.15,0,0,0,55,83.08,67.88,67.88,0,0,0,53.63,94a21.48,21.48,0,0,0,.2,3c.39-1.15,1-2.55,1.43-3.56l1.4,1.12a61.2,61.2,0,0,0-2,6.33,4.68,4.68,0,0,0-.14,1.26c0,.28,0,.7,0,1l-2.52.17A33.27,33.27,0,0,1,51,94.53,83.1,83.1,0,0,1,52.21,83a20.86,20.86,0,0,0,.22-2.3Zm17.92,9.64c-1.43.16-3.11.28-4.93.36,0,1.62.11,3.25.2,4.7a17.12,17.12,0,0,1,5.79,3.53L73,101.62a18.18,18.18,0,0,0-4.2-3.25v.84c0,2.35-1.6,3.84-4.82,3.84s-5.57-1.35-5.57-4.12c0-2.16,1.79-4.09,5.49-4.09a13.38,13.38,0,0,1,2.15.17c0-1.26-.11-2.66-.14-4-2.12,0-4.34,0-6.52-.08l0-2.55a62.38,62.38,0,0,0,6.52.14V84.48c-2,.06-4,0-6.07,0V82a65.09,65.09,0,0,0,13-.36V84c-1.23.14-2.71.26-4.34.34v4.09c1.8-.11,3.45-.25,5-.45Zm-7.25,6.72A8,8,0,0,0,63.85,97C62.06,97,61,97.7,61,98.76s1.06,1.82,2.74,1.82c1.94,0,2.5-1,2.5-2.38C66.21,98,66.21,97.64,66.18,97.31Z"/><path d="M84.07,93.81a10.54,10.54,0,0,0-.5,3c0,1.93,1.93,3.3,6.16,3.3a38.16,38.16,0,0,0,9.6-1.06l0,3.05a41.38,41.38,0,0,1-9.55.95c-5.94,0-9.16-2-9.16-5.6a17.08,17.08,0,0,1,.56-3.92ZM82.42,82.38a68.4,68.4,0,0,0,7.42.34c2.68,0,5.65-.17,7.73-.39v2.91c-1.91.14-5.13.33-7.71.33-2.85,0-5.23-.11-7.44-.3Z"/><path d="M113.78,80.11A47.87,47.87,0,0,0,112.57,87c1.21-2.54,3.89-5.51,7.23-5.51,3.78,0,6.58,3.72,6.58,9.69,0,7.72-4.85,11.28-11.9,12.57l-1.68-2.52c6.07-1,10.61-3.19,10.61-10,0-4.32-1.43-7.14-4.09-7.14-3.36,0-6.44,5-6.66,8.62a12.06,12.06,0,0,0,.08,3.19L110,96a35.42,35.42,0,0,1-.33-4.48,73.17,73.17,0,0,1,.84-8.93c.11-.93.2-1.88.22-2.61Z"/></g></g></svg>