<svg xmlns="http://www.w3.org/2000/svg" viewBox="0 0 213.02 213.02"><defs><style>.cls-1{fill:#fff;}.cls-2{fill:#73c6c7;}</style></defs><title>sp-lb8</title><g id="Layer_2" data-name="Layer 2"><g id="SVG"><circle class="cls-1" cx="106.51" cy="106.51" r="105.01" transform="translate(-15.69 194.58) rotate(-80.78)"/><path class="cls-2" d="M106.51,3A103.51,103.51,0,1,1,3,106.51,103.63,103.63,0,0,1,106.51,3m0-3A106.51,106.51,0,1,0,213,106.51,106.51,106.51,0,0,0,106.51,0Z"/><path d="M51.45,62.19a41.5,41.5,0,0,1-2.52,5.38V85.23H46.57V71.29a29.58,29.58,0,0,1-2.16,2.62,19.25,19.25,0,0,0-1.33-2.41,28.77,28.77,0,0,0,6.16-10ZM63.28,82.73c1.54,0,1.82-.7,2-3.69a7.37,7.37,0,0,0,2.24,1c-.39,3.69-1.09,4.89-4.11,4.89H57.12c-3.35,0-4.31-.83-4.31-4v-7.8L50.54,74l-1-2.16,3.23-1.24v-6.5H55.2v5.56l3.25-1.25V61.46h2.29v6.06l3.32-1.3.37-.29.44-.34,1.66.68-.1.36a88.44,88.44,0,0,1-.29,9.18,2.13,2.13,0,0,1-1.45,2.06,9.15,9.15,0,0,1-2.76.26,6.73,6.73,0,0,0-.57-2.21c.65,0,1.48,0,1.82,0s.62-.1.75-.67a52.31,52.31,0,0,0,.24-6.61L60.74,70v9.36H58.45V70.9L55.2,72.15v8.76c0,1.51.31,1.82,2.08,1.82Z"/><path d="M81,81.61a15.58,15.58,0,0,0,2.29-.36c3.3-.76,6.24-3.15,6.24-7.31a6.82,6.82,0,0,0-6.19-7.18A58.4,58.4,0,0,1,81.77,74c-1.56,5.25-3.69,8.19-6.27,8.19S70.62,79.3,70.62,75c0-5.72,5.07-10.69,11.51-10.69,6.19,0,10.12,4.32,10.12,9.72s-3.46,9.13-9.75,10Zm-1.82-8.16a35.68,35.68,0,0,0,1.41-6.64,8.64,8.64,0,0,0-7.33,8c0,3,1.32,4.32,2.36,4.32S78,77.42,79.14,73.45Z"/><path d="M95.63,71.21h13.31v2.21H95.63Zm13-5H96.25v-2.1h5V61.51h2.34v2.58h5ZM97.27,75.42h10.37v9.73h-2.37v-1.3H99.5v1.4H97.27Zm1.56-4.37a17,17,0,0,0-1-4l2-.44a15.84,15.84,0,0,1,1.15,4Zm.67,6.5v4.19h5.77V77.55Zm4.19-6.94a31.44,31.44,0,0,0,1.3-4.16l2.29.52c-.58,1.46-1.15,3.07-1.67,4.14Zm15.83-6.71c-1,2.47-2.26,5.46-3.38,7.73,2.39,2.36,3,4.39,3,6.16s-.39,3-1.33,3.59A4.15,4.15,0,0,1,116,82a18.26,18.26,0,0,1-2.13,0,5.86,5.86,0,0,0-.65-2.39,13.86,13.86,0,0,0,1.76,0,2.05,2.05,0,0,0,1-.28c.52-.32.71-1,.71-1.93,0-1.51-.68-3.4-3.07-5.56.93-2,2-4.76,2.68-6.79h-4.14v20.1h-2.36V62.89h7.46l.39-.1Z"/><path d="M145,82.6v2H125.87v-2h8.26V80.23h-6.39V78.31h6.39v-1.9l-6.86.29-.13-2c.83,0,1.79,0,2.83-.06.5-.75,1-1.63,1.49-2.47H126.7c-.16,4.22-.76,9.42-3,13A9.92,9.92,0,0,0,121.52,84c2.55-4.08,2.79-9.93,2.79-14.06V62.63h19.31v6.21h-16.9v1.43h17.61v2h-4.84a26.83,26.83,0,0,1,4.84,4l-2,1.3a15.7,15.7,0,0,0-1.3-1.36l-4.58.21v2h6.6v1.92h-6.6V82.6Zm-18.31-18v2.26h14.46V64.61Zm7.44,7.61c-.55.81-1.09,1.64-1.64,2.4l6.53-.21c-.63-.47-1.25-.94-1.85-1.33l1.38-.86Z"/><path d="M153.82,63.54a17.31,17.31,0,0,0-.55,2A61.11,61.11,0,0,0,152,75.21a19.27,19.27,0,0,0,.18,2.71c.39-1,.91-2.29,1.3-3.23l1.35,1a52.68,52.68,0,0,0-1.85,6,5.51,5.51,0,0,0-.13,1.17c0,.26,0,.65.06,1l-2.34.16a32.2,32.2,0,0,1-1-8.32,72.48,72.48,0,0,1,1.12-10.27,21.34,21.34,0,0,0,.23-2.13Zm5.92,12.58a10.29,10.29,0,0,0-.31,2.29c0,1.17.86,2.08,4,2.08a29.44,29.44,0,0,0,6.42-.67l0,2.75a34.1,34.1,0,0,1-6.52.52c-4.37,0-6.4-1.51-6.4-4a15.87,15.87,0,0,1,.44-3.17Zm9.34-10.73V68a65.89,65.89,0,0,1-10.79,0V65.41A48.62,48.62,0,0,0,169.08,65.39Z"/><path d="M30.55,93.4a28.8,28.8,0,0,0,11.26,9.07,10.84,10.84,0,0,0-1.59,2.16A33.42,33.42,0,0,1,36,102v1.85H23.06v-1.77a33.41,33.41,0,0,1-4.18,2.65,9.46,9.46,0,0,0-1.49-1.92A28.8,28.8,0,0,0,28.08,93.4Zm-9,13.39h16v10.45H35.13v-1H24v1H21.58Zm14-5.1a29.54,29.54,0,0,1-6.14-5.93,27.36,27.36,0,0,1-5.85,5.93ZM24,109v5.1H35.13V109Z"/><path d="M53.25,99.3c-.34.47-.81,1.2-1.22,1.85,0,.41-.08.85-.11,1.27a12.72,12.72,0,0,1,7.91-3,6.63,6.63,0,0,1,6.91,6.68c0,5.2-3.53,8.09-9.51,9.26l-1.17-2.48c4.42-.64,8-2.57,8-6.83a4.34,4.34,0,0,0-4.62-4.24,11.41,11.41,0,0,0-7.7,3.48c-.05.94-.08,1.85-.08,2.65,0,2.24,0,4.09.11,6.43,0,.47.1,1.22.15,1.74H49.11c0-.44.08-1.27.08-1.69,0-2.39.05-3.88.11-6.73-1.2,1.76-2.71,4-3.8,5.48L43.89,111c1.43-1.77,4.24-5.49,5.61-7.57l.13-2.23-4.86.65-.26-2.65c.65,0,1.2,0,1.93,0s2.13-.21,3.38-.39c.07-1.12.13-2,.13-2.24a11.45,11.45,0,0,0-.13-2.08l3,.11c-.13.65-.34,2-.52,3.69Z"/><path d="M88,95a16.31,16.31,0,0,0-.13,2c0,1.1,0,2.21-.07,3.23.88-.08,1.71-.13,2.44-.18s1.56-.08,2.21-.16v2.55c-.42,0-1.56,0-2.21,0s-1.53.06-2.5.13a37.92,37.92,0,0,1-.39,5.31c-.23,1.22-.83,1.56-2.08,1.56a30.17,30.17,0,0,1-3.58-.39l0-2.26a18,18,0,0,0,2.47.31c.57,0,.83-.08.91-.62a30.54,30.54,0,0,0,.23-3.72c-2.47.18-5.28.47-7.67.7,0,2.52,0,5.07,0,6.11.08,2.65.18,3.46,4.37,3.46a49.89,49.89,0,0,0,7.67-.63l-.08,2.79c-1.74.18-4.89.41-7.43.41-6.27,0-7-1.4-7-5.64,0-1.09,0-3.72,0-6.24-1,.1-1.74.18-2.31.26-.81.1-2.13.28-2.81.39l-.28-2.63c.78,0,1.84,0,2.91-.15l2.49-.24V98.29A19.74,19.74,0,0,0,75,95.82h2.86a19.93,19.93,0,0,0-.13,2.34c0,.73,0,1.82,0,3l7.72-.73V97.14A16.29,16.29,0,0,0,85.2,95Z"/><path d="M99.06,97.51c1.9-.16,6.47-.6,11.21-1,2.75-.21,5.33-.36,7.09-.41v2.6a22.33,22.33,0,0,0-5,.39,8.47,8.47,0,0,0-5.69,7.72c0,4.68,4.37,6.24,8.63,6.42l-.94,2.78c-5-.26-10.34-3-10.34-8.66A10.23,10.23,0,0,1,108.39,99c-2.26.26-8.58.88-11.44,1.48l-.28-2.83C97.68,97.61,98.57,97.56,99.06,97.51Z"/><path d="M126.13,98.16h2.18v19h-2.18v-6.53c-1.3.81-2.58,1.59-3.75,2.29l-1-2.18c1.22-.55,3-1.48,4.76-2.47Zm-2.08,8.32a26.71,26.71,0,0,0-2-5l1.84-.83a25.62,25.62,0,0,1,2.08,4.92Zm.62-7h-2.18V95.14h9.82V93.35h2.42v1.79h9.93v4.37h-1.82v5.74H130.49v-1.56h10.09v-1.22h-9.33v-1.35h9.33V100h-9.93V98.42H142.4v-1.3H124.67Zm17.86,10.69a11,11,0,0,1-3.43,3.71,23.94,23.94,0,0,0,6.24,1.38,8.48,8.48,0,0,0-1.3,1.87,23,23,0,0,1-7-2,25.59,25.59,0,0,1-6.92,2.08,7.58,7.58,0,0,0-1-1.85,24.56,24.56,0,0,0,5.92-1.46,10.93,10.93,0,0,1-2.65-2.65l1.22-.42h-2.15v-.64H129.4v-3.85h15.13v3.85Zm-11.07-1h9.59l.39-.08,1,.42V108h-11Zm2.93,1.61a9.58,9.58,0,0,0,2.66,2.14,9.53,9.53,0,0,0,2.67-2.14Z"/><path d="M171,114.33v2.16H148.15v-2.16h10.06v-2.7h-7.75v-2.11h7.75V107c-3,.07-5.88.15-8.09.23L150,105c1.07,0,2.31,0,3.64,0a33.34,33.34,0,0,0,1.72-3.18h-4.29V99.66h17v2.08h-9.91c-.62,1.05-1.3,2.16-2,3.13,2.57-.06,5.38-.14,8.19-.19-.7-.57-1.43-1.14-2.11-1.61l1.74-1.19a33.27,33.27,0,0,1,5.88,5l-1.9,1.33a17.16,17.16,0,0,0-1.38-1.51c-2,.08-4,.13-5.95.21v2.65h8.14v2.11h-8.14v2.7Zm-20.26-14.12h-2.36v-5h9.85V93.35h2.47v1.84h10.06v5h-2.47V97.38H150.72Z"/><path d="M192.71,104c1.74,2.05,2.6,3.84,2.6,6.05,0,3.85-3.48,6.4-8.79,6.4-3.74,0-6.6-1.67-6.6-5.9,0-.68.08-1.64.18-2.78a27.35,27.35,0,0,1-5.15-.92l.13-2.49a21.49,21.49,0,0,0,5.28,1c.16-1.35.34-2.78.52-4.13a32.12,32.12,0,0,1-5.33-.92l.13-2.39a24.74,24.74,0,0,0,5.49,1c.1-.93.18-1.77.23-2.42a10.4,10.4,0,0,0,0-2l2.91.15c-.18.81-.29,1.4-.39,2L183.64,99a29.82,29.82,0,0,0,5-.34l-.08,2.44a48.24,48.24,0,0,1-5.17.26h0c-.19,1.33-.37,2.76-.52,4.11h.36a40,40,0,0,0,5.28-.31l-.08,2.44a40,40,0,0,1-4.81.26h-1c-.08.91-.13,1.7-.13,2.24,0,2.31,1.35,3.69,4.11,3.69,3.77,0,6-1.63,6-4.08a7.08,7.08,0,0,0-2.73-5.15Z"/><path d="M52.21,129.83a7.87,7.87,0,0,0-.47,1.51c-.57,2.65-1.77,6.79-3.87,9.55a20.25,20.25,0,0,1-10.35,7l-2.21-2.44c5.07-1.25,8-3.46,10.14-6.19a18,18,0,0,0,3.25-8H35.93c-1.12,0-2.16.05-2.81.1v-2.91a24.19,24.19,0,0,0,2.81.21H48.54a7,7,0,0,0,1.67-.18Z"/><path d="M78.05,144.06c0,.91,0,3.14,0,3.35H75.27c0-.13,0-.73,0-1.45H61.85c0,.7,0,1.32,0,1.45H59.07c0-.23,0-2.31,0-3.35V131.29c0-.67,0-1.56,0-2.26,1,.05,1.84.05,2.49.05H75.71c.6,0,1.54,0,2.39,0,0,.7,0,1.5,0,2.23ZM61.83,131.68v11.7H75.32v-11.7Z"/><path d="M84.06,135.53c.83.08,2.44.16,3.85.16H102c1.28,0,2.29-.11,2.92-.16v3.2c-.58,0-1.75-.11-2.89-.11H87.91c-1.46,0-3,.06-3.85.11Z"/><path d="M116,127.42a17.34,17.34,0,0,0-.11,1.92v8.71c0,.68.05,1.59.11,2.11h-3c0-.44.13-1.35.13-2.11v-8.71c0-.47,0-1.38-.1-1.92Zm12-.21c0,.68-.11,1.45-.11,2.39v4.63c0,6-.93,8.16-2.86,10.35a14.47,14.47,0,0,1-6.21,3.79l-2.16-2.26a12,12,0,0,0,6.29-3.4c1.82-2.06,2.16-4.09,2.16-8.64V129.6a22.06,22.06,0,0,0-.15-2.39Z"/><path d="M147.11,141.51a24.78,24.78,0,0,0,9-9.8l1.59,2.83a26.74,26.74,0,0,1-9.13,9.41,28.59,28.59,0,0,1-10,3.88l-1.74-2.68A27.13,27.13,0,0,0,147.11,141.51Zm-.89-8.32-2.05,2.11a59.55,59.55,0,0,0-6.5-5.52l1.9-2A53.15,53.15,0,0,1,146.22,133.19Z"/><path d="M177.48,130.48a6.24,6.24,0,0,0,2-.25l2.13,1.3a8.52,8.52,0,0,0-.73,1.58,25.68,25.68,0,0,1-4.58,8.84,23.36,23.36,0,0,1-10.4,7.18L163.44,147a20.84,20.84,0,0,0,10.42-6.47,19.52,19.52,0,0,0,3.95-7.68h-8.13a27,27,0,0,1-6.58,6.35l-2.29-1.69a22.23,22.23,0,0,0,8.16-8.61,11.52,11.52,0,0,0,1-2.34l3,1c-.52.78-1.06,1.77-1.35,2.29a7.73,7.73,0,0,1-.39.67Zm2.08-4.36a36.14,36.14,0,0,1,2.1,3.56l-1.71.73a31.58,31.58,0,0,0-2.06-3.59Zm2.93-1.12a29.5,29.5,0,0,1,2.16,3.54l-1.69.75a25.33,25.33,0,0,0-2.13-3.59Z"/></g></g></svg>