<svg xmlns="http://www.w3.org/2000/svg" viewBox="0 0 213.02 213.02"><defs><style>.cls-1{fill:#fff;}.cls-2{fill:#73c6c7;}</style></defs><title>sp-lb7</title><g id="Layer_2" data-name="Layer 2"><g id="SVG"><circle class="cls-1" cx="106.51" cy="106.51" r="105.01" transform="translate(-9.98 202.01) rotate(-84.35)"/><path class="cls-2" d="M106.51,3A103.51,103.51,0,1,1,3,106.51,103.63,103.63,0,0,1,106.51,3m0-3A106.51,106.51,0,1,0,213,106.51,106.51,106.51,0,0,0,106.51,0Z"/><path d="M48.1,69a20.73,20.73,0,0,0-4.55-2.86l1.35-1.74a19,19,0,0,1,4.6,2.67Zm1.77,3.48c-1,2.71-2.37,5.8-3.59,8.22L44.15,79.3A78.22,78.22,0,0,0,48,71.06Zm-.44-10.24A17.6,17.6,0,0,0,45,59.46l1.32-1.77a18.49,18.49,0,0,1,4.56,2.58Zm18,16.17V80.5h-18V78.39h6v-9h2.23v9h2.19v-9h2.23v9Zm-14.56-1a21.71,21.71,0,0,0-2.13-6l2-.68A21.89,21.89,0,0,1,55,76.6ZM65.7,68.67H52V58.47H65.7Zm-2.39-8.2H54.26v2.14h9.05Zm0,4H54.26v2.15h9.05Zm-.88,12.16a44.09,44.09,0,0,0,2.36-6.08l2.32.68a58.39,58.39,0,0,1-2.92,6Z"/><path d="M75.84,62a19.69,19.69,0,0,1-4.16,5.77,17.65,17.65,0,0,0-2.23-1.56,17.77,17.77,0,0,0,5.53-9l2.55.55c-.23.73-.49,1.45-.75,2.16H92.51v2ZM84,70.59A23.94,23.94,0,0,1,81,74.88a31.6,31.6,0,0,1,4.37,3.67l-1.92,1.82a32,32,0,0,0-4.21-3.7A28.45,28.45,0,0,1,72,81.54a13,13,0,0,0-1.77-1.9,24.75,24.75,0,0,0,7-4.37c-1.56-1.07-3.17-2.08-4.68-2.94l1.74-1.58c1.49.8,3.12,1.76,4.68,2.8a18.83,18.83,0,0,0,2.66-3.74Zm5.07-3.15c0,6.48.33,11.45,2.08,11.45.46,0,.59-1.46.62-3.59a12.39,12.39,0,0,0,1.64,1.48c-.18,3.22-.68,4.47-2.39,4.5-3.62,0-4.24-4.92-4.4-11.78H72.23V67.44ZM75.22,65.7v-2h14.9v2Z"/><path d="M107,77.61a15.58,15.58,0,0,0,2.29-.36c3.3-.76,6.24-3.15,6.24-7.31a6.82,6.82,0,0,0-6.19-7.18A58.4,58.4,0,0,1,107.77,70c-1.56,5.25-3.69,8.19-6.27,8.19S96.61,75.3,96.61,71c0-5.72,5.08-10.69,11.52-10.69,6.19,0,10.12,4.32,10.12,9.72s-3.46,9.13-9.75,10Zm-1.82-8.16a35.68,35.68,0,0,0,1.41-6.64,8.64,8.64,0,0,0-7.33,8c0,3,1.32,4.32,2.36,4.32S104,73.42,105.14,69.45Z"/><path d="M141.18,60.27c-3.3,6.08-10.79,9.57-17.86,11.07a8,8,0,0,0-1.12-2.08,32.93,32.93,0,0,0,9.28-3,24.57,24.57,0,0,0-4.08-2.65A35.56,35.56,0,0,1,124,65.13a7.45,7.45,0,0,0-1.61-1.79c4.57-1.54,7.9-3.88,9.64-6l2.68.6c-.47.52-1,1-1.48,1.54h6l.39-.11Zm3.64,9.07c-3.2,7.57-11,10.71-19.58,11.94a6.88,6.88,0,0,0-1-2.21A33,33,0,0,0,135,76.18,26.54,26.54,0,0,0,130.55,73a41.71,41.71,0,0,1-4.06,1.69A7.18,7.18,0,0,0,125,72.85c5.39-1.66,9.21-4.24,11.21-6.71l2.68.63a25.1,25.1,0,0,1-1.77,1.82h5.64l.42-.11Zm-14-7.88a14.47,14.47,0,0,1-1.35.91A24.41,24.41,0,0,1,133.59,65a16.85,16.85,0,0,0,4-3.54Zm3.8,9.21c-.6.41-1.2.8-1.85,1.19a25.63,25.63,0,0,1,4.47,3.07,13.69,13.69,0,0,0,4.21-4.26Z"/><path d="M152.54,63.7c0,1.61,0,3.8.18,5.8.39,4,1.43,6.76,3.15,6.76,1.3,0,2.42-2.81,3-5.18l2.08,2.42c-1.64,4.42-3.22,6-5.12,6-2.6,0-5-2.5-5.7-9.29a68.14,68.14,0,0,1-.28-6.89,13.37,13.37,0,0,0-.18-2.41l3.14.05A20.84,20.84,0,0,0,152.54,63.7Zm18.05,10.71-2.68,1c-.42-4.42-1.9-10-4.5-13l2.57-.86C168.35,64.56,170.25,70.22,170.59,74.41Z"/><path d="M61.1,101.2a21.86,21.86,0,0,0-4.55-3l1.33-1.77a23.81,23.81,0,0,1,4.65,2.81Zm2.11,3.33c-1.12,2.76-2.55,5.9-3.83,8.4l-2.13-1.48a73.78,73.78,0,0,0,4.16-8.32Zm-1.1-10.09a19.37,19.37,0,0,0-4.36-3.14l1.45-1.67a18.71,18.71,0,0,1,4.42,3ZM78,110.77c.6,0,.7-.55.78-3.8a7.71,7.71,0,0,0,2.1,1c-.2,3.9-.75,5-2.65,5H75.82c-2.11,0-2.63-.7-2.63-3v-7.65H70.36c-.39,5.25-1.41,8.9-6.5,11a6.18,6.18,0,0,0-1.49-1.92c4.55-1.69,5.26-4.68,5.57-9.08H63.67V99.93H71V95.72h-3.4a16.81,16.81,0,0,1-1.93,3.77,19.14,19.14,0,0,0-2.13-1.3c1.56-2,2.63-5.23,3.2-8.45l2.44.44c-.23,1.12-.49,2.21-.8,3.27H71v-4.1h2.42v4.1h6v2.27h-6v4.21h7v2.31H75.53v7.65c0,.75.1.88.68.88Z"/><path d="M95.58,93.25c-.32,1-.63,2-.89,2.86h10.14v17.13h-2.47v-1.35H86.53v1.35H84.19V96.11h8c.2-.89.41-1.93.57-2.86h-9.7V91h23v2.29Zm-9,16.4h3.25V98.32H86.53ZM96.77,98.32H91.94v2.44h4.83Zm0,4.36H91.94v2.47h4.83Zm-4.83,7h4.83v-2.57H91.94Zm10.42-11.33H99v11.33h3.4Z"/><path d="M112.29,103.62c-.1,3.15-.57,7-2.28,9.62a10.49,10.49,0,0,0-1.88-1.48c1.75-2.76,1.9-6.73,1.9-9.7V95.27h9.75v8.35Zm8.09-10.71H109.15V90.7h11.23Zm-8.06,4.55v4h5.1v-4Zm20.23,2.94H130v12.82h-2.42V100.4h-3.82c-.16,4-1,9.15-4.5,12.76a5.71,5.71,0,0,0-1.79-1.63c3.58-3.75,4-8.85,4-12.77v-7l1.84.45a31.83,31.83,0,0,0,6.84-2.58l2.13,1.8a43.61,43.61,0,0,1-8.45,2.83v3.82h8.82Z"/><path d="M138,93.64c1.87-.19,6.47-.63,11.2-1,2.73-.23,5.33-.39,7.07-.44l0,2.63a24.55,24.55,0,0,0-5,.36,8.52,8.52,0,0,0-5.67,7.72c0,4.71,4.37,6.24,8.61,6.45l-.94,2.76c-5-.26-10.32-3-10.32-8.63a10.18,10.18,0,0,1,4.34-8.35c-2.23.23-8.55.86-11.44,1.48l-.26-2.83C136.55,93.74,137.44,93.69,138,93.64Zm16.79,7.59-1.61.73a23.65,23.65,0,0,0-2.08-3.64l1.56-.68A36.17,36.17,0,0,1,154.75,101.23Zm3-1.2-1.59.78A25.38,25.38,0,0,0,154,97.22l1.56-.7C156.13,97.41,157.14,99,157.72,100Z"/><path d="M23.92,139.25c0,1.25.55,1.56,1.77,1.82a22.44,22.44,0,0,0,3.25.18,42.39,42.39,0,0,0,8.94-.86v3a77,77,0,0,1-9.1.52,28.54,28.54,0,0,1-4.26-.26c-2.11-.39-3.3-1.43-3.3-3.62V125.78a15,15,0,0,0-.19-2.34h3a16.22,16.22,0,0,0-.16,2.34v5.46a70.07,70.07,0,0,0,9.49-3,14.89,14.89,0,0,0,2.52-1.27l1.15,2.62c-.86.34-1.9.81-2.73,1.09A100.79,100.79,0,0,1,23.92,134Zm12-12.51a36.94,36.94,0,0,0-2.08-3.58l1.66-.7A36.22,36.22,0,0,1,37.65,126Zm2.55-5.38a35.34,35.34,0,0,1,2.13,3.54l-1.69.73a24.83,24.83,0,0,0-2.11-3.57Z"/><path d="M44.85,138.68c.94.08,2,.16,2.94.16H63.08a22.82,22.82,0,0,0,2.6-.16v3.15c-.86-.08-1.88-.13-2.6-.13H47.79c-1,0-2,.05-2.94.13Zm2.21-12.79c.86.08,1.9.13,2.76.13h11a25.81,25.81,0,0,0,2.7-.13v3c-.73,0-1.82-.1-2.7-.1H49.84c-.93,0-2,.05-2.78.1Z"/><path d="M71.06,131.53c.83.08,2.44.16,3.85.16H89c1.28,0,2.29-.11,2.92-.16v3.2c-.58,0-1.75-.11-2.89-.11H74.91c-1.46,0-3,.06-3.85.11Z"/><path d="M95.94,142.32a12.21,12.21,0,0,0,4.47-6.32c.76-2.31.76-7.38.76-10.37a8.38,8.38,0,0,0-.21-2.11h3c0,.21-.13,1.17-.13,2.08,0,3-.1,8.5-.8,11.1A14.6,14.6,0,0,1,98.41,144Zm12,.23a7.73,7.73,0,0,0,.18-1.63v-15.4a20.07,20.07,0,0,0-.15-2.08h3a17.06,17.06,0,0,0-.13,2.08V139.9a18.22,18.22,0,0,0,7.07-6l1.56,2.24a27.12,27.12,0,0,1-8.84,7.17,5.72,5.72,0,0,0-1,.65Z"/><path d="M143.49,126.9a8.91,8.91,0,0,0-.72,1.59,25.94,25.94,0,0,1-4.58,8.84,23.6,23.6,0,0,1-10.4,7.2l-2.42-2.16a21,21,0,0,0,10.43-6.5,19.56,19.56,0,0,0,3.95-7.67h-8.11a27.34,27.34,0,0,1-6.61,6.35l-2.28-1.69a22.1,22.1,0,0,0,8.16-8.61,11.86,11.86,0,0,0,1-2.34l3,1c-.52.78-1.07,1.79-1.35,2.31-.11.21-.24.44-.37.65h6.24a6.14,6.14,0,0,0,2-.26Z"/><path d="M169.05,140.06c0,.91,0,3.14,0,3.35h-2.83c0-.13,0-.73,0-1.45H152.85c0,.7,0,1.32,0,1.45h-2.81c0-.23.05-2.31.05-3.35V127.29c0-.67,0-1.56,0-2.26,1,0,1.84,0,2.49,0h14.12c.6,0,1.54,0,2.39,0,0,.71,0,1.51,0,2.24Zm-16.22-12.38v11.7h13.49v-11.7Z"/><path d="M193.7,125.63A9.06,9.06,0,0,0,193,127a35.68,35.68,0,0,1-4.27,7.41,68.64,68.64,0,0,1,7.44,7.62l-2.32,2a57,57,0,0,0-6.86-7.6,33.29,33.29,0,0,1-10,7.47l-2.11-2.19a29.06,29.06,0,0,0,10.69-7.62,21.17,21.17,0,0,0,4.13-6.86H180.1c-1,0-2.42.13-2.83.15v-2.93a27.33,27.33,0,0,0,2.83.18h9.65a7.73,7.73,0,0,0,2.26-.26Z"/></g></g></svg>