<svg xmlns="http://www.w3.org/2000/svg" viewBox="0 0 213.02 213.02"><defs><style>.cls-1{fill:#fff;}.cls-2{fill:#73c6c7;}</style></defs><title>sp-lb6</title><g id="Layer_2" data-name="Layer 2"><g id="SVG"><circle class="cls-1" cx="106.51" cy="106.51" r="105.01" transform="translate(-15.69 18.44) rotate(-9.22)"/><path class="cls-2" d="M106.51,3A103.51,103.51,0,1,1,3,106.51,103.63,103.63,0,0,1,106.51,3m0-3A106.51,106.51,0,1,0,213,106.51,106.51,106.51,0,0,0,106.51,0Z"/><path d="M65.78,98.73a27.69,27.69,0,0,0-3.87-2.53c.52,2.73,1.56,4.68,3.58,4.84.37,0,.58-.94.73-2.52a7,7,0,0,0,1.41,1.38c-.32,2.67-1.15,3.64-2.66,3.32-4.42-.52-5.4-5.17-5.72-10.71H55.8v10.43H53.46V92.51H49.74c-.16,3.67-1,7.67-4.53,10.74a9.89,9.89,0,0,0-1.82-1.64c3.12-2.65,3.88-6,4-9.1H43.84V90.28h3.61V87.42a28.28,28.28,0,0,1-2.63,1.09,11.43,11.43,0,0,0-1.4-1.9,18,18,0,0,0,6.76-3.12l2.11.81a15.09,15.09,0,0,1-2.53,1.87v4.11h3.7V83.59H55.8v6.69h5.61c0,1.56.11,3.09.26,4.47l.5-.47a30.32,30.32,0,0,1,5,2.94Zm-.31-11.6a26,26,0,0,0-3.93-2.65c.57,2.52,1.72,4.44,3.85,4.57.34.06.55-.67.68-2a6.16,6.16,0,0,0,1.43,1.3c-.37,2.19-1.17,3-2.58,2.79-4.08-.52-5.35-4.11-5.9-8.38H45.27V80.63H61.05a27,27,0,0,0,.28,2.89l.81-.76a29.18,29.18,0,0,1,4.76,2.86Zm1.4-6.08c-.93,1-1.87,2-2.65,2.62l-1.46-.86A18.64,18.64,0,0,0,64.82,80ZM62.76,94.36a20.18,20.18,0,0,0,2.14-2.78l2,1c-1,1-2,2-2.76,2.63Z"/><path d="M87.13,82.16A21.15,21.15,0,0,0,92.64,92.8l-1.93,2a31.08,31.08,0,0,1-2.78-4.19c.39,6.24-2.36,12.27-9.05,12.27-4.21,0-6.91-2.7-6.91-6.94a16.58,16.58,0,0,1,4.37-10.48c-1.15.18-2.86.44-3.85.65-.47.08-.89.18-1.46.31l-.36-2.7c.41,0,.93,0,1.4-.08a46.31,46.31,0,0,0,8.48-1.48l.78,2.31A10.16,10.16,0,0,0,80,85c-1.69,1.3-5.44,6-5.44,10.61,0,3.22,2.08,4.57,4.45,4.57,5.2,0,8.16-6.11,6.24-15.57-.21-.55-.42-1.09-.6-1.69Zm2.41,2.73a31,31,0,0,0-1.63-3.74l1.58-.52c.52,1,1.28,2.63,1.67,3.69Zm2.79-1a27.42,27.42,0,0,0-1.67-3.72l1.54-.55c.57,1,1.3,2.6,1.76,3.69Z"/><path d="M105.14,99.27c-3.22.89-6.6,1.8-9.17,2.47l-.52-2.21c.41-.1.85-.18,1.35-.31V90.67h1.74V98.8l1.38-.31v-9.7H96.8V80.68h7.59v8.11h-2.5v2.92h2.6v2.1h-2.6V98l3-.73Zm-6.37-12.5h3.57v-4H98.77Zm9.65-7.39h2.21V90.3c0,4.71-.55,10.14-5.25,13a9.72,9.72,0,0,0-1.54-1.77c2.94-1.5,4-4.29,4.37-7.17-1.06.86-2.16,1.69-3.14,2.49l-1.33-2.23c1.17-.6,2.91-1.64,4.65-2.73,0-.55,0-1.07,0-1.59V88.43l-1.77.81a18.55,18.55,0,0,0-2.16-5.57l1.9-.83a22.72,22.72,0,0,1,2,4.42Zm8.63,21.35c.47,0,.55-.68.63-2.94a5,5,0,0,0,2,.94c-.21,3-.76,4.16-2.47,4.16H115c-1.93,0-2.47-.71-2.47-3.38V79.38h2.26v8.45a33.77,33.77,0,0,0,2.34-5.2l2.23,1.07a61.25,61.25,0,0,1-3.17,5.59l-1.4-.78v2.81l.44-.42a39.61,39.61,0,0,1,4.5,3.93l-1.56,1.74a38.66,38.66,0,0,0-3.38-3.28v6.22c0,1,.08,1.22.62,1.22Z"/><path d="M131.25,85.34c-.34.46-.81,1.19-1.22,1.84,0,.29-.06.57-.08.83,2.13-1.87,5.15-4,7.88-4,3.58,0,5.53,3.12,5.53,7.54a22.65,22.65,0,0,1-.31,4.21,18.37,18.37,0,0,1,2.78,2.47l-1.35,2.13a28.32,28.32,0,0,0-2.1-2.13,5,5,0,0,1-5,3.3c-2.62,0-4.78-1.14-4.78-3.9,0-2.15,1.92-3.74,4.76-3.74a9.37,9.37,0,0,1,3.38.62,25.36,25.36,0,0,0,.18-3.25c0-3-1.43-4.94-3.49-4.94-2.36,0-5.43,2.4-7.64,4.76-.05,1-.08,2-.08,2.94,0,2.24,0,4.08.11,6.42,0,.47.1,1.22.15,1.74h-2.81c0-.44.08-1.27.08-1.69,0-2.39,0-3.87.11-6.73-1.2,1.77-2.71,4-3.8,5.49L121.89,97c1.43-1.76,4.24-5.48,5.61-7.56l.13-2.24-4.86.65-.26-2.65a14,14,0,0,0,1.93,0c.8-.05,2.13-.2,3.38-.39.07-1.11.13-2,.13-2.23a11.45,11.45,0,0,0-.13-2.08l3,.1c-.13.65-.34,2-.52,3.69Zm8.94,11.41a6.63,6.63,0,0,0-3.09-.81c-1.22,0-2.32.65-2.32,1.59,0,1.22,1.1,1.69,2.4,1.69C138.71,99.22,139.65,98.28,140.19,96.75Z"/><path d="M157.92,81c-.13.55-.28,1.2-.39,1.77-.13.78-.36,2-.59,3.2,1-.08,2-.13,2.57-.13,2.47,0,4.37,1,4.37,4.62,0,3-.39,7.13-1.46,9.34a3.88,3.88,0,0,1-4,2.23,14.15,14.15,0,0,1-3.06-.39l-.45-2.7a14.14,14.14,0,0,0,3.18.55,2,2,0,0,0,2.1-1.23c.78-1.61,1.15-4.83,1.15-7.51,0-2.21-1-2.57-2.63-2.57-.52,0-1.38,0-2.34.13-.94,3.79-2.76,9.69-5.3,13.8l-2.68-1.06c2.57-3.44,4.42-9,5.33-12.46l-2.81.31c-.68.08-1.82.24-2.55.37l-.26-2.81c.89,0,1.61,0,2.5,0s2.21-.13,3.64-.26a31,31,0,0,0,.62-5.51Zm9.26,3.35a48.6,48.6,0,0,1,4.24,8.71l-2.58,1.23a29.8,29.8,0,0,0-4.49-9.47l2.41-1.06.42.57a27.79,27.79,0,0,0-2.08-3.59l1.69-.7a36.69,36.69,0,0,1,2.11,3.59Zm3-1.11a23.62,23.62,0,0,0-2.14-3.59l1.69-.7a35.6,35.6,0,0,1,2.16,3.56Z"/><path d="M71.66,127.67a21.11,21.11,0,0,0,8.89,5,10.34,10.34,0,0,0-1.61,2,22.89,22.89,0,0,1-9.23-6v6.55H67.26v-6.58a24,24,0,0,1-9.18,6.22,10.72,10.72,0,0,0-1.58-2,22.45,22.45,0,0,0,8.86-5.21H57.1v-2.15H67.26V123h2.45v2.55H80v2.15Zm-10.59-9a24,24,0,0,0-4.42-1.9l1-1.61a22.53,22.53,0,0,1,4.42,1.71Zm-3.79,4.44A50,50,0,0,0,62,118.44l1.45,1.49c-1.43,1.61-3,3.27-4.44,4.73ZM63,115a29.82,29.82,0,0,0-4.47-1.87l.94-1.59a26.86,26.86,0,0,1,4.49,1.72Zm7.65,1.33c-.86,3.92-2.71,6.37-6.27,8a10.21,10.21,0,0,0-1.66-1.8,8.11,8.11,0,0,0,5.51-6.18H64.53v-2.14h4.06c.1-.85.13-1.79.15-2.8l2.42,0a26.4,26.4,0,0,1-.21,2.83h5v6.4c0,.47,0,.75.13.86a.82.82,0,0,0,.47.13h.75a1.24,1.24,0,0,0,.58-.13c.13-.08.26-.26.31-.68s.08-1.32.1-2.49a8,8,0,0,0,2.06,1.11,13.4,13.4,0,0,1-.34,2.86,1.66,1.66,0,0,1-1,1.07,3.75,3.75,0,0,1-1.49.26H76a3.12,3.12,0,0,1-1.77-.52c-.42-.42-.62-.93-.62-2.52v-4.21Z"/><path d="M105,129.29a25.87,25.87,0,0,0-2.47-1.93,12.5,12.5,0,0,1-6.66,7.36l-2.18-1.79a11.07,11.07,0,0,0,6.68-6.92,18.53,18.53,0,0,0-6.79-2.21,48.22,48.22,0,0,1-3.12,6.48,4,4,0,0,1-3.58,2,3.54,3.54,0,0,1-3.62-3.82c0-3.88,3.56-6.87,8.66-7.05.83-1.87,1.69-3.88,2.39-5.28-1,0-3.74.16-4.91.23-.55,0-1.35.11-2,.19l-.11-2.66c.68.06,1.48.08,2,.08,1.4,0,4.5-.13,5.64-.23a5.08,5.08,0,0,0,1.48-.31l1.62,1.3a5,5,0,0,0-.76,1c-.67,1.12-1.71,3.53-2.73,5.85a22.87,22.87,0,0,1,6.37,1.9c.08-.5.13-1,.16-1.46a21.69,21.69,0,0,0,0-2.55l2.65.29a33.35,33.35,0,0,1-.52,4.89c1.17.65,2.16,1.32,3,1.87Zm-14.15-5.52c-3.32.4-5.2,2.37-5.2,4.32a1.35,1.35,0,0,0,1.28,1.48c.54,0,.93-.2,1.45-.88A33.84,33.84,0,0,0,90.84,123.77Z"/><path d="M114.56,129.65c1.14,1.8,3.27,2.63,6.13,2.73s8.66,0,11.91-.18a10.85,10.85,0,0,0-.81,2.47c-2.93.13-8.16.18-11.12.05-3.31-.13-5.54-1-7.18-3-1.22,1.07-2.47,2.11-3.82,3.23l-1.25-2.5a39,39,0,0,0,3.77-2.68v-6.11h-3.33v-2.24h5.7Zm-1.2-12.14A19.62,19.62,0,0,0,109,113.4l1.79-1.46a20.64,20.64,0,0,1,4.45,4Zm11.36-5c.52,7.67,2.34,13.84,7.59,16.51a10.31,10.31,0,0,0-1.89,1.85c-3.44-2-5.44-5.38-6.61-9.6a17.77,17.77,0,0,1-6.5,9.6,15.08,15.08,0,0,0-1.9-1.82c3.7-2.29,5.8-6.24,6.76-11.39l.89.13c-.16-1-.26-2-.37-3h-4.62v-2.29Z"/><path d="M155.25,126.45c0,1.43.05,1.82,0,2.89-.13,2.39-1,3.67-3.57,4.42a27.49,27.49,0,0,1-5.46.52c-5.51,0-6.05-1.53-6.05-3.38,0-.31,0-.62,0-.94a4.4,4.4,0,0,1-.65,0c-1.64,0-3.53-1.19-3.53-4.31,0-2.83,1.82-5.2,4.47-5.2a2.82,2.82,0,0,1,.41,0v-2.15h-.75a36.79,36.79,0,0,1-4.13-.24l-.16-2.42a25.79,25.79,0,0,0,4.13.34c.29,0,.6,0,.91,0v-.81a13,13,0,0,0-.2-2.78h2.86a16.81,16.81,0,0,0-.21,2.78v.62a33.92,33.92,0,0,0,4.78-.88v2.47a33.61,33.61,0,0,1-4.78.75v3.64a4.08,4.08,0,0,1,.7,2.45,7,7,0,0,1-1.35,4.37c0,.47,0,1,0,1.35,0,1.3.31,1.85,3.75,1.85a18,18,0,0,0,4.18-.47,2.55,2.55,0,0,0,2-2.73,21.64,21.64,0,0,0-.18-3Zm-15.45,1.12c1.35,0,1.87-1.56,1.87-3.2,0-1.11-.57-1.79-1.35-1.79-1.17,0-2.13,1.22-2.13,3C138.19,126.84,138.94,127.57,139.8,127.57Zm12.61-12.64a30.81,30.81,0,0,1,5.25,4.81l-1.84,1.88a31.53,31.53,0,0,0-5.12-5Z"/></g></g></svg>