<svg xmlns="http://www.w3.org/2000/svg" viewBox="0 0 213.02 213.02"><defs><style>.cls-1{fill:#fff;}.cls-2{fill:#73c6c7;}</style></defs><title>sp-lb9</title><g id="Layer_2" data-name="Layer 2"><g id="SVG"><circle class="cls-1" cx="106.51" cy="106.51" r="105.01" transform="translate(-15.69 18.44) rotate(-9.22)"/><path class="cls-2" d="M106.51,3A103.51,103.51,0,1,1,3,106.51,103.63,103.63,0,0,1,106.51,3m0-3A106.51,106.51,0,1,0,213,106.51,106.51,106.51,0,0,0,106.51,0Z"/><path d="M22,65.21H35.32v2.21H22Zm13-5H22.63v-2.1h5V55.51H30v2.58h5ZM23.65,69.42H34v9.73H31.66v-1.3H25.88v1.4H23.65Zm1.56-4.37a17,17,0,0,0-1-4l2-.44a16.22,16.22,0,0,1,1.14,4Zm.67,6.5v4.19h5.78V71.55Zm4.19-6.94a31.44,31.44,0,0,0,1.3-4.16l2.29.52C33.09,62.43,32.51,64,32,65.11ZM45.9,57.9c-1,2.47-2.26,5.46-3.38,7.73,2.4,2.36,3,4.39,3,6.16s-.39,3-1.33,3.59a4.1,4.1,0,0,1-1.74.62,18.2,18.2,0,0,1-2.13,0,5.86,5.86,0,0,0-.65-2.39,14,14,0,0,0,1.77,0,2.11,2.11,0,0,0,1-.28c.52-.32.7-1,.7-1.93,0-1.51-.68-3.4-3.07-5.56.94-2,2-4.76,2.68-6.79H38.62v20.1H36.26V56.89h7.46l.39-.1Z"/><path d="M70.89,76.6v2H51.73v-2H60V74.23H53.6V72.31H60v-1.9l-6.87.29-.13-2c.83,0,1.8,0,2.84-.06.49-.75,1-1.63,1.48-2.47H52.56c-.16,4.22-.75,9.42-3,13A9.85,9.85,0,0,0,47.39,78c2.54-4.08,2.78-9.93,2.78-14.06V56.63H69.49v6.21H52.59v1.43h17.6v2H65.35a26.83,26.83,0,0,1,4.84,4l-2,1.3a15.7,15.7,0,0,0-1.3-1.36l-4.58.21v2H69v1.92H62.36V76.6Zm-18.3-18v2.26H67V58.61ZM60,66.22c-.54.81-1.09,1.64-1.64,2.4l6.53-.21c-.62-.47-1.25-.94-1.85-1.33l1.38-.86Z"/><path d="M84.31,75.61a15.43,15.43,0,0,0,2.28-.36c3.31-.76,6.24-3.15,6.24-7.31a6.81,6.81,0,0,0-6.18-7.18A60.37,60.37,0,0,1,85.11,68c-1.56,5.25-3.69,8.19-6.26,8.19S74,73.3,74,69C74,63.29,79,58.32,85.48,58.32c6.18,0,10.11,4.32,10.11,9.72s-3.46,9.13-9.75,10Zm-1.82-8.16a35.74,35.74,0,0,0,1.4-6.63,8.62,8.62,0,0,0-7.33,7.95c0,3,1.32,4.32,2.36,4.32S81.29,71.42,82.49,67.45Z"/><path d="M116.66,62a11.48,11.48,0,0,0,2.35-.16v2.76a22.74,22.74,0,0,0-2.32-.08h-2.23v.88c0,6.71-1.35,10.43-6.83,13.16l-2-2.08c4.38-1.79,6.44-4,6.44-10.92v-1H105.9v3.9c0,1.07.07,2.16.09,2.52h-2.57c0-.36.11-1.45.11-2.52v-3.9h-2.29c-1.1,0-2.06,0-2.43.08V61.86a17.39,17.39,0,0,0,2.43.18h2.29v-3c0-.91-.09-1.74-.11-2.08H106a15.07,15.07,0,0,0-.14,2.08v3h6.18V59a18.88,18.88,0,0,0-.12-2.26h2.65a17.58,17.58,0,0,0-.15,2.26v3Z"/><path d="M134.42,75.09a21.09,21.09,0,0,0,.17,3.07h-2.9c.07-.57.14-2,.14-3.07V65.83a42.16,42.16,0,0,1-8.48,3.83L122,67.13a34.62,34.62,0,0,0,10.56-4.73,26.68,26.68,0,0,0,6.1-5.82l2,2a39.51,39.51,0,0,1-6.25,5.59Z"/><path d="M161.8,60.24a10.13,10.13,0,0,0-.68,1.33A37.15,37.15,0,0,1,157.29,69,66.11,66.11,0,0,1,164,76.62l-2.08,2a56.37,56.37,0,0,0-6.18-7.57,30.46,30.46,0,0,1-9,7.46l-1.9-2.21a26.48,26.48,0,0,0,9.62-7.59,22.09,22.09,0,0,0,3.72-6.86h-8.59c-.91,0-2.18.13-2.55.15V59.07a22.07,22.07,0,0,0,2.55.19h8.69a6.16,6.16,0,0,0,2-.29l.91.78a29.57,29.57,0,0,0-1.68-3.22l1.52-.71a38.33,38.33,0,0,1,1.87,3.57l-1.33.65Zm2-5.33a40,40,0,0,1,1.92,3.54l-1.53.75a29.64,29.64,0,0,0-1.89-3.58Z"/><path d="M173.43,57.54a19.53,19.53,0,0,0-.54,2,61.06,61.06,0,0,0-1.28,9.69,17.91,17.91,0,0,0,.19,2.71c.38-1,.9-2.29,1.3-3.23l1.35,1a50.72,50.72,0,0,0-1.85,6,4.93,4.93,0,0,0-.13,1.17c0,.26,0,.65.05,1l-2.34.16a32.2,32.2,0,0,1-1-8.32,74,74,0,0,1,1.12-10.27,18.75,18.75,0,0,0,.24-2.13Zm5.93,12.58a9.73,9.73,0,0,0-.31,2.29c0,1.17.86,2.08,4,2.08a29.44,29.44,0,0,0,6.42-.67l.05,2.75a34.1,34.1,0,0,1-6.52.52c-4.37,0-6.4-1.51-6.4-4a15.87,15.87,0,0,1,.44-3.17Zm9.34-10.73V62a65.89,65.89,0,0,1-10.79,0V59.41A48.62,48.62,0,0,0,188.7,59.39Z"/><path d="M69.33,87.4a28.8,28.8,0,0,0,11.26,9.07A10.84,10.84,0,0,0,79,98.63,34.5,34.5,0,0,1,74.79,96v1.84h-13V96.08a33.41,33.41,0,0,1-4.18,2.65,9.2,9.2,0,0,0-1.49-1.92A28.8,28.8,0,0,0,66.86,87.4Zm-9,13.39h16v10.45H73.91v-1H62.72v1H60.36Zm14-5.1a29.54,29.54,0,0,1-6.14-5.93,27.36,27.36,0,0,1-5.85,5.93ZM62.72,103v5.1H73.91V103Z"/><path d="M91.51,93.3c-.34.47-.81,1.2-1.22,1.85,0,.41-.08.86-.11,1.27a12.72,12.72,0,0,1,7.91-3,6.63,6.63,0,0,1,6.91,6.68c0,5.2-3.53,8.08-9.51,9.26l-1.17-2.47c4.42-.65,8-2.58,8-6.84a4.35,4.35,0,0,0-4.62-4.24A11.41,11.41,0,0,0,90,99.33c0,.94-.08,1.85-.08,2.65,0,2.24,0,4.09.11,6.43,0,.47.1,1.22.15,1.74H87.37c0-.44.08-1.27.08-1.69,0-2.39,0-3.87.11-6.74-1.2,1.77-2.71,4-3.8,5.49L82.15,105c1.43-1.77,4.24-5.49,5.61-7.57l.13-2.23L83,95.8l-.26-2.66c.65,0,1.2,0,1.93,0s2.13-.21,3.38-.39c.07-1.12.13-2,.13-2.24a11.45,11.45,0,0,0-.13-2.08l3,.11c-.13.65-.34,2-.52,3.69Z"/><path d="M121.12,93.77a39.2,39.2,0,0,1-4.57.91,45.36,45.36,0,0,1-5.6,10.95l-2.49-1.28A37.52,37.52,0,0,0,113.84,95c-.62,0-1.22,0-1.85,0-1,0-2,0-3.09-.11l-.18-2.39a32.11,32.11,0,0,0,3.27.16c.86,0,1.75,0,2.66-.11a20.32,20.32,0,0,0,.75-4.37l2.84.27c-.21.88-.55,2.31-.94,3.76a25.23,25.23,0,0,0,3.74-.88Zm3.17,2.68c-.07,1.09-.05,2,0,3,0,.84.1,2.32.18,3.77a17.25,17.25,0,0,1,5.33,3.25l-1.38,2.21a20.59,20.59,0,0,0-3.85-2.86v.71c0,2.18-1.32,3.95-4.7,3.95-3,0-5.41-1.28-5.41-3.95,0-2.42,2.18-4.14,5.38-4.14a11.66,11.66,0,0,1,2.16.18c-.1-2-.23-4.44-.29-6.13Zm-2.23,8.37a8.65,8.65,0,0,0-2.37-.31c-1.71,0-2.83.75-2.83,1.79s.88,1.85,2.65,1.85a2.24,2.24,0,0,0,2.57-2.42C122.08,105.47,122.08,105.18,122.06,104.82Zm7-7.39a33,33,0,0,0-6-3.58l1.3-2a43.34,43.34,0,0,1,6.16,3.46Z"/><path d="M137.76,93.66c0,1.62,0,3.8.18,5.8.39,4.06,1.43,6.76,3.15,6.76,1.3,0,2.42-2.8,3-5.17l2.08,2.42c-1.64,4.42-3.22,6-5.12,6-2.6,0-5-2.49-5.7-9.28a68.14,68.14,0,0,1-.28-6.89,12.65,12.65,0,0,0-.19-2.42l3.15,0A21,21,0,0,0,137.76,93.66Zm18.05,10.72-2.68,1c-.42-4.42-1.9-10-4.5-13l2.57-.86C153.57,94.52,155.47,100.19,155.81,104.38Z"/><path d="M80.17,129.66v2.65H56.51v-2.65Z"/><path d="M91.72,131.9v9c0,1-.21,1.61-.86,1.95a7.58,7.58,0,0,1-3,.36,6.92,6.92,0,0,0-.65-1.92c1,0,1.87,0,2.13,0s.41-.11.41-.39v-8.74l-4.24.47c0,3.33-.31,7.75-2.13,10.55a8.08,8.08,0,0,0-1.66-1.09c1.61-2.6,1.84-6.24,1.87-9.25l-1.61.18-.24-2,1.85-.18v-8h2.29a28.64,28.64,0,0,0,.86-3.56l2.6.49c-.42,1-.86,2.16-1.22,3.07h3.64V130l1.14-.11,0,1.88Zm-2-1.69v-5.44H85.47v5.88Zm-2.1-4.61a11.17,11.17,0,0,1,1.4,3.33l-1.58.68a11.3,11.3,0,0,0-1.3-3.41Zm.6,13.45H86.75v-6h1.46Zm16.38-8.19a17.47,17.47,0,0,1-3.93,7.74,14.1,14.1,0,0,0,5.41,2.58,9.24,9.24,0,0,0-1.46,2,14.92,14.92,0,0,1-5.59-3,18.29,18.29,0,0,1-5.56,3.07,8.89,8.89,0,0,0-1.33-2,15.26,15.26,0,0,0,5.25-2.71,18.65,18.65,0,0,1-3-5.51l1.72-.39h-2.6v-2.16h9.23l.41-.1Zm-7.78-7.15c0,2.08-.41,4.65-2.52,6.34a9.13,9.13,0,0,0-1.74-1.4,5.76,5.76,0,0,0,2.1-5V120.3h7.78v5.85c0,.44,0,.73.1.81a.56.56,0,0,0,.37.1h.57a1,1,0,0,0,.44-.08.83.83,0,0,0,.26-.57c0-.34.08-1.12.1-2.11a5.16,5.16,0,0,0,1.75.94,15.37,15.37,0,0,1-.29,2.52,1.59,1.59,0,0,1-.83.94,3.24,3.24,0,0,1-1.25.23h-1.33a2.15,2.15,0,0,1-1.53-.52c-.39-.36-.55-.83-.55-2.31v-3.69H96.81Zm-.49,8.86A13.81,13.81,0,0,0,99,137a14.07,14.07,0,0,0,2.7-4.45Z"/><path d="M130.43,123.34s0,.83,0,1.15c-.36,11.72-.67,15.75-1.71,17a2.9,2.9,0,0,1-2.26,1.22,26.81,26.81,0,0,1-3.93,0,5.68,5.68,0,0,0-.78-2.34c1.66.13,3.17.16,3.82.16a1.16,1.16,0,0,0,1.09-.44c.84-.86,1.17-4.79,1.51-14.59H122a26.38,26.38,0,0,1-2.37,4.37,13.12,13.12,0,0,0-1.9-1.35V140.5h-7v2h-2.22v-19h2.92a31.67,31.67,0,0,0,.91-4.21l2.62.44c-.44,1.3-.93,2.68-1.35,3.77h4.16v4.92a24.83,24.83,0,0,0,3.88-9.13l2.34.54c-.32,1.2-.65,2.4-1.07,3.54Zm-19.73,2.24v4.94h4.83v-4.94Zm4.83,12.79v-5.75H110.7v5.75Zm8.66-2a42.58,42.58,0,0,0-3.8-6l1.9-1.07a45.81,45.81,0,0,1,3.93,5.8Z"/><path d="M146.6,125.73a37.22,37.22,0,0,1-4.57.91,45,45,0,0,1-5.6,11l-2.49-1.27a37.45,37.45,0,0,0,5.38-9.39c-.62,0-1.22,0-1.85,0-1,0-2.05,0-3.09-.1l-.18-2.39c1,.1,2.23.15,3.27.15.86,0,1.75,0,2.66-.1a20.43,20.43,0,0,0,.75-4.37l2.84.26c-.21.88-.55,2.31-.94,3.77a28,28,0,0,0,3.74-.88Zm3.17,2.68c-.07,1.09-.05,2,0,3,0,.83.1,2.31.18,3.77a16.87,16.87,0,0,1,5.33,3.25l-1.38,2.21A20.16,20.16,0,0,0,150,137.8v.7c0,2.18-1.32,3.95-4.7,3.95-3,0-5.41-1.27-5.41-3.95,0-2.42,2.18-4.13,5.38-4.13a11.66,11.66,0,0,1,2.16.18c-.1-2-.23-4.45-.29-6.14Zm-2.23,8.37a9,9,0,0,0-2.37-.31c-1.71,0-2.83.76-2.83,1.8s.88,1.84,2.65,1.84,2.57-1.09,2.57-2.42C147.56,137.43,147.56,137.15,147.54,136.78Zm7-7.38a33.09,33.09,0,0,0-6-3.59l1.3-2a42.38,42.38,0,0,1,6.16,3.46Z"/><path d="M52,171.27a44.6,44.6,0,0,0-3-4.08,12.87,12.87,0,0,1-4.31,7.62A8.71,8.71,0,0,0,43,173.09c3.12-2.31,4-6.08,4.21-9.52h-4v-2.21h4v-3.79H43.75v-2.16h3.53v-3.87h2.26v3.87H53v2.16H49.54v3.79h3.93v2.21h-4c0,.37-.08.76-.11,1.12,1.07,1,3.69,4,4.32,4.81Zm12.51,1.28c.47,0,.57-.37.65-3.28a5.59,5.59,0,0,0,2,.91c-.19,3.59-.76,4.5-2.42,4.5H62.8c-2,0-2.41-.71-2.41-2.84v-5H58.51c-.46,3.85-1.71,6.71-6.16,8.32A6.45,6.45,0,0,0,51,173.33c3.87-1.28,4.84-3.52,5.23-6.53H54.35V152.24H65.56V166.8H62.62v5c0,.65.08.73.57.73Zm-7.9-16.07h6.63v-2.06H56.62Zm0,4.08h6.63v-2.13H56.62Zm0,4.05h6.63v-2.1H56.62Z"/><path d="M91.77,154.63a18.88,18.88,0,0,1-4.06,6.84,17.88,17.88,0,0,0,6.19,3.2,11.08,11.08,0,0,0-1.51,2c-.28-.1-.57-.2-.86-.33v8.71H89.19v-.94H82.77v1H80.54v-8.58c-.58.26-1.15.5-1.75.71a8.51,8.51,0,0,0-1.37-2l.15-.06c-.39-.72-1.06-1.76-1.69-2.7v12.56H73.62V163.89a25.51,25.51,0,0,1-3.09,6.55,10.41,10.41,0,0,0-1.17-2.16,27.65,27.65,0,0,0,4-9.33H70v-2.24h3.67v-5.43h2.26v5.43h3.17v1.4a19.09,19.09,0,0,0,4.5-6.86l2.32.62c-.29.73-.63,1.46-1,2.16h4.94l.44-.1Zm-13.7,10.48a20.66,20.66,0,0,0,6.39-3.67,20.29,20.29,0,0,1-2.36-3.14,24.35,24.35,0,0,1-2.29,2.42,12.88,12.88,0,0,0-1.87-1.62l.18-.15H75.88v.88c.7.75,2.73,3.25,3.23,3.85Zm11.88.52A19.82,19.82,0,0,1,86.1,163a21.39,21.39,0,0,1-3.72,2.6ZM89.19,172v-4.34H82.77V172Zm-5.51-15.91-.23.37a15.53,15.53,0,0,0,2.6,3.48,16.7,16.7,0,0,0,2.68-3.85Z"/><path d="M106.48,171.51a14.23,14.23,0,0,0,2.29-.37c3.3-.75,6.24-3.15,6.24-7.31a6.8,6.8,0,0,0-6.19-7.17,58.79,58.79,0,0,1-1.53,7.23c-1.56,5.25-3.69,8.19-6.27,8.19s-4.88-2.89-4.88-7.18c0-5.72,5.07-10.69,11.51-10.69,6.19,0,10.12,4.32,10.12,9.73s-3.46,9.12-9.75,10Zm-1.82-8.17a35.74,35.74,0,0,0,1.41-6.63,8.62,8.62,0,0,0-7.33,8c0,3,1.32,4.31,2.36,4.31S103.47,167.32,104.66,163.34Z"/><path d="M143.2,162.12a41.37,41.37,0,0,1-5.07,3.38,13.29,13.29,0,0,0,6.26,5.59,8.91,8.91,0,0,0-1.69,2.11c-4.78-2.32-7.59-7.18-9.15-13.27h-.05a16.91,16.91,0,0,1-2.39,1.67c4.91,4.29,4.81,10.82,2.28,12.63a4.07,4.07,0,0,1-2.91,1c-.65,0-1.43,0-2.23-.08a6,6,0,0,0-.68-2.32,20.82,20.82,0,0,0,2.42.13,2.25,2.25,0,0,0,1.71-.51c.78-.58,1.17-2.14.86-4A37.72,37.72,0,0,1,122.21,174a11.59,11.59,0,0,0-1.27-2,29.28,29.28,0,0,0,11-5.59c-.21-.45-.44-.89-.7-1.33a39.69,39.69,0,0,1-8.14,4.14,8.64,8.64,0,0,0-1.22-1.88,27.83,27.83,0,0,0,8.24-3.72,8.39,8.39,0,0,0-1-.91,37.7,37.7,0,0,1-6.27,2.32,11.44,11.44,0,0,0-1.27-1.87,31.18,31.18,0,0,0,8.53-3.18h-4.79v-2.08h14.23v2.08h-3.83a26.07,26.07,0,0,0,1.38,3.75,34.92,34.92,0,0,0,4.19-3.17Zm-19-3.25h-2.39v-5.41h9.47v-2.18h2.49v2.18h9.62v5.41h-2.44v-3.2H124.16Z"/><path d="M156.25,171.51a41.37,41.37,0,0,1-8.22,3.61,14.31,14.31,0,0,0-1.69-1.85,33.05,33.05,0,0,0,7.75-3.38Zm13.21-4.24v2.26H146.58v-2.26Zm-3.49-15v13.49H150.24V152.29Zm-13.36,3.93h10.87v-2.06H152.61Zm0,3.82h10.87V158H152.61Zm0,3.85h10.87v-2.08H152.61Zm9,6.16a75.72,75.72,0,0,1,8.17,3.43l-2.39,1.64a53.5,53.5,0,0,0-7.57-3.43Z"/></g></g></svg>