<svg xmlns="http://www.w3.org/2000/svg" viewBox="0 0 631.01 155.53"><defs><style>.cls-1{fill:#85cbcb;}</style></defs><title>sp-text1</title><g id="Layer_2" data-name="Layer 2"><g id="SVG"><path class="cls-1" d="M463.23,41.14c.24-.12.1-.42-.57-.36l-.48.5Z"/><path class="cls-1" d="M458.71,40.22c-.79.24-1.7.67-1.19,1.12.78-.47,1-.27,1.81-.84.67-.06,1.17.16,1.06.34.24-.13,1.05.11,1.41-.2a4.71,4.71,0,0,0-3.14-.08C458.41,40.45,458.65,40.32,458.71,40.22Z"/><path class="cls-1" d="M393,39.45l.43.06A2.34,2.34,0,0,0,393,39.45Z"/><path class="cls-1" d="M352.33,39.18c.31,0,.44-.06.45-.11C352.5,39.1,352.26,39.13,352.33,39.18Z"/><path class="cls-1" d="M345.38,38.63l.41,0A.75.75,0,0,0,345.38,38.63Z"/><path class="cls-1" d="M393,39.45l-1.08-.16C391.86,39.46,392.49,39.41,393,39.45Z"/><path class="cls-1" d="M449.65,41.42a2.34,2.34,0,0,0,.59-.13l-.56.05A.26.26,0,0,1,449.65,41.42Z"/><path class="cls-1" d="M411,39.05h.33a2.83,2.83,0,0,0,.28-.2Z"/><path class="cls-1" d="M424.73,39c-.31,0-.42.4-.54.59a1.14,1.14,0,0,1,.68-.29A.4.4,0,0,0,424.73,39Z"/><path class="cls-1" d="M446.56,39.71l.39-.05Z"/><path class="cls-1" d="M401.11,39a.24.24,0,0,0-.13-.15S401,38.91,401.11,39Z"/><path class="cls-1" d="M16,42.13a.21.21,0,0,0,0-.08C15.94,42.09,15.92,42.12,16,42.13Z"/><path class="cls-1" d="M.06,40l.23,0a.93.93,0,0,0,0-.23Z"/><path class="cls-1" d="M332.66,38.09h.06C333.05,38.05,332.87,38.06,332.66,38.09Z"/><path class="cls-1" d="M215.93,38.4c1.32.38-2.15.49-.16.9C215.58,39.14,217.58,38.65,215.93,38.4Z"/><path class="cls-1" d="M449.29,41.37c-.18,0-.37,0-.56,0A5.1,5.1,0,0,0,449.29,41.37Z"/><path class="cls-1" d="M215.77,39.3h0l.2,0Z"/><path class="cls-1" d="M303.36,38.34a.86.86,0,0,0,.3.19S303.59,38.43,303.36,38.34Z"/><path class="cls-1" d="M325.19,38.94l-.54,0A2.91,2.91,0,0,0,325.19,38.94Z"/><path class="cls-1" d="M292,38.94a2.21,2.21,0,0,0-.79,0l.12.05A1.08,1.08,0,0,1,292,38.94Z"/><path class="cls-1" d="M280.24,38.94l.21.09.38,0Z"/><path class="cls-1" d="M51.87,41.92a1.63,1.63,0,0,1-.54-.38C51.51,41.84,49.78,42,51.87,41.92Z"/><path class="cls-1" d="M449.64,41.18a.45.45,0,0,1-.35.19l.39,0C449.72,41.28,449.73,41.22,449.64,41.18Z"/><path class="cls-1" d="M291.55,42.27l-1.87-.07C290.2,42.24,290.88,42.27,291.55,42.27Z"/><path class="cls-1" d="M136.5,41.86l-.43,0A1,1,0,0,0,136.5,41.86Z"/><path class="cls-1" d="M284.12,42.27a4.29,4.29,0,0,0-1.06-.3.9.9,0,0,0-.22.11Z"/><path class="cls-1" d="M51.32,41.54h0Z"/><path class="cls-1" d="M39,42.54c1.79,0,.84-.54,1.22-.86,2.13-.16,1,.41,1.71.69,1.33-.15,2.35-.65,3.34-.63.08.09.27.12,0,.24,1.41-.44,4.18,0,5.82-.58a.49.49,0,0,1,.21.14.82.82,0,0,1-.25-.76c.8,0,1.49-.35,1.79,0a1.09,1.09,0,0,0-.76.25l.84-.16c.75.52-1.15.18-1.15.57a28.4,28.4,0,0,1,4.8-.46c.26.51-2.93.18-1.26.63l-1.94-.2c1.48.81-1.18-.05.18.81,2.55.15,2.86-.26,5.4-.11.58-.29-.19-.42.39-.71,3.62-.5,2.85,1.29,5.51.61a3,3,0,0,1,2.85-.65l-.65.58c2.47.06,1.41-.83,4-.44-.46.23-1.94.19-1.57.26,1.68.45,1.19-.33,2.47-.33l.27.51c2.63-.08,5.53-.45,8.44-.54-.16.15-.66.31,0,.47a76.74,76.74,0,0,1,11.38.36l1.36-.44c.31,0,.58.2.24.29,1.38.16.07-.28.74-.46s1,.26.54.39c2.44-.37,6.94-.8,9.51-.33l-.5.13c2,.18,2.26-.9,4.11-.49l-.35.07c4.34.19,9.13-.21,12.44.46.63-.64,4.3.28,4.58-.61a30.27,30.27,0,0,0,5.26.9c.93,0,1.39-.56,2.54-.65l0,.46,1.56-.48L135,42l1.08-.12c-.43,0-.92-.21-.85-.34,1.69-.21,4.12.32,4.16.56l4-.39c-.09.19-.76.25-1.28.37,2.13-.47.38.49,2.34,0-.27-.1.14-.27.18-.37a18.3,18.3,0,0,0,4.83.17l-.31.32c3,.08,6.25-.16,9.57-.15-1.19-.15-.92-.7.06-.75l.39.48c.63-.3-1-.18.27-.55,1.25.06.84.56.13.72l1.51-.17c.08.14-.27.22-.36.4.62-.3,2.6.49,3.5,0l.08.14c3.33,0,4.84-.16,7.54-.19.06-.42,1.12-.32,1.92-.66,2,.13,4.2.46,6.6.43,1.69-.21.49-.36,1.25-.61.12.38,2.52.35,1.28.62,2.88-.06,3.67-.07,7.31-.39-.39-.15-.84-.22-.61-.35.66-.07,1.51.16,1.41.34l-.17,0c4.08-.57,9.43,1.12,12.68.32l-.18,0,3.37-.42c1.55.07-.93.29.22.53,3.64-.64,5.75.09,8.75-.33,2.32,1.13,8.23-.08,11.36.64l-.18-.27c.81-.26,1,.16,1.58.22-.09-.21-.88-.24-.38-.39,6.86-.32,14.15.39,21.18.63,2.57.07,1.46-1.38,4.7-.74l-.92.49c5.19-.59,10.61,0,15.69-.48-.31.11-.31.26-.81.26,1.07.36,4,0,4-.27.8,0,.19.26.67.41,1.08.21,2.71-.46,3.28-.1.09.06-.3.12-.5.14.7-.17,3.27,0,2.59-.37,1.91.2,3.65-.18,5.17.06,1-.46,3.26.23,3.58-.43-.14.68,3.34.55,4.55.23-.41.2,1,.21.57.5,1.38,0,2.64-.14,2.4-.49,2.53.81,5.09-.65,6.52.39,4.08-.37,7.86-.61,11.54-.77-.13.67-4.06.07-3.91.78,3.49-.28,5.5-.86,9-.7.89.09-.51.29-.81.41,3.48-.28,6.73.06,9.83-.31,0,.06-.34.13-.66.19.61,0,1.42.09,1.36-.21l-.6.08c-1-.45,2.43-.93,2.53-1.17-1,.88,3.07.22,1.42,1.34.4-.06.91-.21.81-.41.6.06.79.18.18.41,2.19-.17,1.41-.49,3.4-.49,0,.15-.41.21-.61.39a9.31,9.31,0,0,1,3.68-.46c-.1.09.1.21-.4.21,2.87-.05,4.9-.78,8.06-.5-.93.65,1.07.22,1.24.78l1.69-.17-.68-.27c1.49,0,2.8-.4,4.08-.22l-1.1.23,2.78-.1L351.9,41c1.5-.28-.17-.7,1.81-.55a16.1,16.1,0,0,1,2.27.34h0a6.44,6.44,0,0,1,2.59-.23c.29.18-.23.62,0,.74.72-.47,3.48-.13,4.4-.63-.31.12-.32.41-.22.47l.61-.38c.68.13.79.18.67.42,2.08.07-.65-.71,1.8-.41-.19,0-.1.09-.5.15,2.47.16,4.77-.24,7,0,.67.56-2,.13-1.21.61,3.27-.1,6.77-.68,9.94-.54l-.59-.07c.43-.79,2.35.4,4,0-.39.06-.51.44-.4.35a62.28,62.28,0,0,0,7.71-.44l-.4.2c1.27.19,3.36.11,4.74.2.41-.2,1.2-.17.72-.47,4.26,1.17,8.12-.62,11.89.35-.45,0-1.07.18-.71.18l3.21-.19c-.25-.35-.42-.21-1.09-.48a5.73,5.73,0,0,1,2.11-.36c-1.45.23,0,.55.64.75-.11-.11.11-.23.05-.34,1.68.62.28-.69,2.58-.28l-.12.18a15.2,15.2,0,0,1,2.57-.28c.39.4-.91.19-1,.52,1.3,0,2.56-.76,3.74-.36-.55.11-1.35.11-1.9.22a5.65,5.65,0,0,0,2.39.43h-.1l2.2.21-.56-.12c1.63-1,3.32-.2,5.51-.88-2.13.65-.35.37-.52.83.56.12,1.41.27,1.17.39,1-.36,1.73.29,3.19-.24.07.14,1.11,0,.88.38,1.34-.12-.32-.26-.21-.44,2.08-.5,4.88.61,7.87-.08,2.57-.28,3-.77,5.44-1,.81.23-.66.53-.66.53a10.61,10.61,0,0,0,3.51,0c-.25.13,0,.24.38.4,1,0,.65-.53,2-.32a3.14,3.14,0,0,1-1,.59c1.16-.13,2.3-.41,3.5-.54.32.26-.72.39-1.14.56,1.35-.12,3.49-.24,3.91-.64l-.87-.14c.5,0,.26.34-.11.42-1.15.31-1.66-.14-1.73-.29l.86-.09c-.88-.86-3.44.13-5.16.08l.72-.62-1.77.52c-.37-.16-.63-.51.22-.61-1.23-.3-1.09.23-2.15-.12-.12,0-.07-.08,0-.11l-1.2.19c.23-.13-.2-.44.54-.35-2.17-.36-3.49.47-4.31,0l.18,0c-3,.21-.29.45-2.54,1l-1.51-1.13-.3.46c-.31,0-.92,0-.81-.23-1.15.31.2.19-.47.49-1.49-.42-4.11.2-4.45-.53-.53.34,1.43.26-.16.51-.46-.79-1.84.13-3.2-.23.42-.4,1.71-.19.34-.55-.82.68-2.65-.15-3.8,0-.05.54-2.5.23-4.42.41.12-.18-3.63-.3-5.42-.5l.05-.09c-.35.55-2.2.45-3.54.56,0-.33.29-.46,1-.61h-1.27a3.45,3.45,0,0,1-1.51.33l.32-.41c-1.69,0-3.4.48-5.56.21-.13.38,1.72,1.07-.57,1.32-.09-.2-.17-.56.43-.64a3.23,3.23,0,0,1-1.1.08l.92-.35c-1-.15-.52.29-1.31.26,0-.3-.58-.21-.47-.45.2,0,.69.13,1,0a6.84,6.84,0,0,1-2.32-.45c.08.17,0,.4-.65.43-1.69,0-.58-.35-1.56-.5-.41.2-1.49,0-1.51.43a1,1,0,0,1-.78-.33c-.87.2-4.07.06-3.09.53l.22,0-.14,0h0c-2.86.44-5.94-.25-8.77-.06v-.15a43.29,43.29,0,0,0-5,.42c-.51,0-1.19-.27-1-.45a9.91,9.91,0,0,1-3.31,0c1.3-.25-.45-.22,1.33-.18a9.36,9.36,0,0,0-3.87,0c.62-.38-1.26-.48-2.06-.37l1.18.27a22.86,22.86,0,0,1-2.49,0l.44-.5c-3.45-.6-6.21,1-8.83,0-.91.35,1.87.25,1.05.65a27.9,27.9,0,0,1-3.72-.78c-2.17-.28-2,.73-4.3.54.29.18.57.65-1.13.82-1.58-.07-1.94-.75-.94-.89.38,0,.56,0,.54.1.51-.06,1.19-.14.56-.33l-.21.18c-.78-.19-3-.17-2.45-.46-1.2.17-.51.29.37.39-2-.26-3.17,0-5.26-.19.33.1.64.31.31.31-3.07-.22-1.35.34-3.43.42-1.18-.28.42-.65-1.67-.43-1.28-.18-.27-.47.24-.61-1.91.34-3.57-.23-4.65-.29l1-.14A11.27,11.27,0,0,1,336,38l.57.35c-.59-.06-1.09-.06-1.08-.21-.61.24.47.59-.74.91-.78-.18-2.39.2-2.66-.28,2.47.16-.28-.47,1.82-.55a6.14,6.14,0,0,1-1.49,0c-.09-.06.08-.1.24-.13-2.36-.42-1.08.53-3.53.52.31-.26-.57-.5-1-.44,1,0,.47.44-.44.64a9.82,9.82,0,0,0-2.53.13l.94.1c-.32.27-1.1.23-2.2.32-.09-.21,1-.15.61-.24-1.22.47-2.75-.48-4.45-.17-.79-.18-.08-.5-.77-.62-1.9.35-2.06-.36-4.05-.08.57.36.67.27-.73.62l3.28-.25-2.11.52c1,0,2.09-.23,2.69-.17-1,.3-.9.21-.43.5-1.35-.53-2.69.32-4.26,0l.05-.88c-2.36-.4-4.19.45-7.25.23l1,.15c-.42.36-1.89,0-2.89.2.1-.3-.52-.41-.95-.59,0,.22-2.24,0-2.52.57l-1.36-.39c-2.47-.16-2.82.84-5.2.74.72-.32-.36-.53,1.23-.76-.8,0-1.51-.06-1.52.15-.47-.19-2.2.4-2.93.12a2,2,0,0,1-1.34.41c-.09-.06,0-.14,0-.14s-1.4.19-.62.52c-2.44-.92-6.83.07-9-.72-1.73.1-3.81.19-5.39.21.1-.09,0-.15.31-.11-2.17-.28-1.34.85-3.8.54-1.27-.48,1.31-.26.52-.44-.34-1-3,.13-4.64-.44l.4-.06c-1.27-.33-3.09.37-5.17.3,0,0,.1-.08,0-.14a29.92,29.92,0,0,1-6.1.8c.62-.38.9-.21.52-.59-.89,0,.27.62-1.52.73-.58-.21-1.87-.39-2-.81l1.69,0c-.87-.53-2.18,0-3.07-.07l.11-.24c-2.58.08-2.61.67-5.39.63l.29.17c-1.51.59-1.27-.33-2.78.11L244,39c-1,.14-3.5.57-5.3.68a29.12,29.12,0,0,1,4.42-.92,15,15,0,0,0-3.89.33,3.84,3.84,0,0,1,1.3-.11,13.4,13.4,0,0,1-4.79.68c.35-1.14-5.15-.28-6.58-1.18-3.5.43-6.94-.18-11-.11,1.45.89-1.18,0-.93.94a4.12,4.12,0,0,1-1.4,0l-2.87-.55c-.68-.27.9-.2.81-.41-2.07-.07-.87-.39-2.24-.63.28.33-.72.47-1.91.34l1.67.43c-2.9.48-2.51-.77-5.43-.29l.92-.29c-1.5.17-5.54,0-7,.73-.26-.1-.61-.35,0-.42-3.59-.11-8,.78-10.77.33l.27-.22c-.67.06-1.17.42-2,.19,0-.09.27-.22,0-.24a9,9,0,0,1-2.67.27l.76-.26c-3.5-.29-5.37.62-8.3.77,0-.66-2.75-.87-4.12-1l.05-.09c-4.08-.08-6.92.54-10.69.8-2.35-.71-7.94-.3-11.7-.7.58.12-.09.52-.76.58-.89-.13-2.44.46-2.3-.14h.31c-.66-.6-2.48-.44-3.9-.46l-.23.8c-3.71-1.16-9.71.42-11.74-.61-.89.2-2,.19-2.89.39l.05-.42c-2.48-.11-3.71-.16-6.78-.06l.63-.31c-1.73,0-2.18,1.23-3.78,1.25l-.48-.63c-3,0-6.06-.55-9,0,0-.1.13-.28.62-.31-1.42,0-5.49-.42-5,.45,0-.57-3.11-.06-4.74.19l.25-.42a7.7,7.7,0,0,1-3.33.83c-.46,0-.4-.33.2-.23-1.51-.22-1.18.4-3,.18l.69-.27a3.84,3.84,0,0,0-2.29.42c-1,.17-3-.1-3.19-.48a2.81,2.81,0,0,1-2,.43c-.12-.15.21-.23.38-.28-2.6-.28-3.87.49-5.67.08,0-.14-.15-.21-.3-.25,2.07,0,3.74,0,3.58.06,0-.38-1.67-.45-.34-1a18.74,18.74,0,0,1-5.27.74.77.77,0,0,1-.21-.14l.16,0a3.47,3.47,0,0,0-1,.06,10.52,10.52,0,0,0-1.35-.11c-.19-.32-1.92-.17-2.75-.19.07.42-1,.35,0,.7-.13,0,.16-.05.71-.07a1.71,1.71,0,0,0,.36,0l-.06,0,2.08,0a3.84,3.84,0,0,1-2.27.16c-.43.27-.9.55-1.17.68-1.14-.59-3.34-.91-3.65-1.27-2.54.24-6,.16-7.6,1-.72.1-.83-.23-1.1-.35a7.61,7.61,0,0,0,1.14-.18c-1.45.2-4.29.08-4.64.63-1.82-.25,1-.51-1.48-.42l.34-.17c-4.93-.88-8,1.41-13.49.28.38.07.57.1.64.19-6.23-.5-12.85.47-19-.32a5.83,5.83,0,0,0-3,.46l-.37-.45-1.83.52c-2.59.38-4.48-1.11-7.76-.39l.43.31c-1.18-.06-3.73.18-3.54-.17a.91.91,0,0,1-.84.15l0-.23L6,39.64c-2.24-.17.35-.94-2.92-1-1.21.09-3.46.69-3,.85s1.25.14,1.29.38L.29,40c-.21.7-1.06,1.42,1.67,1.91l1.9-.43.61.34-1.6,0A2.91,2.91,0,0,0,5,41.69a1.28,1.28,0,0,0,.8.37l1.86-.66c.23.27-.83.54.42.69.87-.31-.84-.61.61-.81.91.31.64.57,1.71.3.15.18-.08.29-.5.37.95-.21,2.52-.09,3-.46.95.39,3.21-.1,3.11.56a9,9,0,0,1,2.55-.55c-1.59.79,3.27,0,2.85.9,1.18-.71,4.26-.32,6.35-.71a1,1,0,0,1-.53.13,12.31,12.31,0,0,1,2.28.41c.15-.59,2-.72,3-1.08,1.44.56-.88.69-.43,1.23-.07-.48,2.51-.47,2-.87,1.1.35,1,.17,1.52.66.19-.74,1-.13,1.94-.58,1.6.36.41.69,2.17.47C40.54,42.28,39,42.54,39,42.54Zm41.71-1.27h0l-.86,0Zm3.5,0c-.42,0-1,0-1.52,0-.12-.15,0-.3.37-.29C82.85,41.06,83.67,41.14,84.19,41.26Zm-7.41-2.92c.56-.06.74,0,.82.11l-1,0-.07,0A.56.56,0,0,1,76.78,38.34Z"/><path class="cls-1" d="M75.78,38.89a1.29,1.29,0,0,1-.23,0l.34.1.19-.13Z"/><path class="cls-1" d="M393.52,39.52h-.07a.52.52,0,0,1,.15.06A.28.28,0,0,1,393.52,39.52Z"/><polygon class="cls-1" points="132.59 42.07 132.59 41.96 132.28 42.06 132.59 42.07"/><path class="cls-1" d="M412.83,41a.55.55,0,0,0,.25.1A.83.83,0,0,0,412.83,41Z"/><path class="cls-1" d="M421.17,41.06l1.17.15C421.83,41.13,421.46,41.08,421.17,41.06Z"/><path class="cls-1" d="M427.58,41.27a.4.4,0,0,0,.12-.18h0Z"/><path class="cls-1" d="M325.63,41.77h-.24C324.81,41.87,325.2,41.83,325.63,41.77Z"/><path class="cls-1" d="M356,40.78c-.32.08-.64.15-1,.2C355.54,41,356,41,356,40.78Z"/><path class="cls-1" d="M291.76,42.27Z"/><path class="cls-1" d="M353.58,41A4.52,4.52,0,0,0,355,41,7.49,7.49,0,0,0,353.58,41Z"/><path class="cls-1" d="M455.37,41.46l.3,0a.1.1,0,0,1,0-.07Z"/><path class="cls-1" d="M455.71,41.41l.34,0C455.9,41.36,455.76,41.36,455.71,41.41Z"/><path class="cls-1" d="M456.78,41.25l-.73.11A1.32,1.32,0,0,0,456.78,41.25Z"/><path class="cls-1" d="M446.88,41.27l-.1.15A.21.21,0,0,0,446.88,41.27Z"/><path class="cls-1" d="M444.3,41.31a12.6,12.6,0,0,0,2.4.23l.08-.12C446.38,41.65,444.88,41.05,444.3,41.31Z"/><path class="cls-1" d="M433.53,39.42l2.16.12c-.37-.16-.87-.38.11-.42C433.08,38.64,436.36,39.49,433.53,39.42Z"/><path class="cls-1" d="M426.83,39.18c1.16-.07,0-.23.05-.32C426.14,39,426,39,426.83,39.18Z"/><path class="cls-1" d="M378.4,39.18l.12-.38C377.62,38.85,378.51,39,378.4,39.18Z"/><polygon class="cls-1" points="369.14 41.17 370.01 41.4 370.43 41.05 369.14 41.17"/><polygon class="cls-1" points="363.67 38.43 364.06 38.38 362.57 38.52 363.67 38.43"/><path class="cls-1" d="M282.33,38.57l.27.47C283.21,39,283.34,38.43,282.33,38.57Z"/><path class="cls-1" d="M247.22,39.05a2.78,2.78,0,0,0-2-.16A18.85,18.85,0,0,0,247.22,39.05Z"/><polygon class="cls-1" points="141.91 38.28 142.61 38.12 141.28 38.25 141.91 38.28"/><path class="cls-1" d="M326.87,39.15c-.16.13-.07.42.37.36l.31-.49Z"/><path class="cls-1" d="M329.84,40.07c.51-.24,1.11-.67.78-1.12-.52.47-.64.28-1.19.84-.45.06-.77-.16-.7-.34-.16.13-.69-.11-.92.2a2.13,2.13,0,0,0,2.06.09C330,39.85,329.87,40,329.84,40.07Z"/><path class="cls-1" d="M373,40.84l-.28-.06A.77.77,0,0,0,373,40.84Z"/><path class="cls-1" d="M399.68,41.11c-.2,0-.29.07-.3.11C399.57,41.19,399.73,41.16,399.68,41.11Z"/><path class="cls-1" d="M404.24,41.66l-.27,0C404.08,41.67,404.18,41.7,404.24,41.66Z"/><path class="cls-1" d="M373,40.84l.72.16C373.73,40.84,373.31,40.88,373,40.84Z"/><path class="cls-1" d="M335.78,38.87a1.2,1.2,0,0,0-.39.13l.37,0S335.77,38.9,335.78,38.87Z"/><path class="cls-1" d="M361.18,41.24H361a1.29,1.29,0,0,0-.19.21Z"/><path class="cls-1" d="M352.14,41.32c.21,0,.28-.4.36-.59a.63.63,0,0,1-.45.29A.59.59,0,0,0,352.14,41.32Z"/><path class="cls-1" d="M337.81,40.58l-.26.06Z"/><path class="cls-1" d="M367.65,41.34a.53.53,0,0,0,.08.15A.19.19,0,0,0,367.65,41.34Z"/><path class="cls-1" d="M620.49,38.17a.16.16,0,0,0,0,.07S620.56,38.17,620.49,38.17Z"/><path class="cls-1" d="M631,40.25l-.15,0a2.08,2.08,0,0,0,0,.23Z"/><path class="cls-1" d="M412.59,42.2h0C412.34,42.24,412.46,42.23,412.59,42.2Z"/><path class="cls-1" d="M489.24,41.89c-.87-.38,1.41-.48.1-.9C489.47,41.15,488.16,41.65,489.24,41.89Z"/><path class="cls-1" d="M336,38.93h.37A1.37,1.37,0,0,0,336,38.93Z"/><path class="cls-1" d="M489.34,41h0l-.13,0Z"/><path class="cls-1" d="M431.83,42a.61.61,0,0,0-.2-.19C431.64,41.81,431.68,41.86,431.83,42Z"/><path class="cls-1" d="M417.5,41.35l.35,0A1.72,1.72,0,0,0,417.5,41.35Z"/><path class="cls-1" d="M439.27,41.35a1.07,1.07,0,0,0,.52,0l-.08,0A.53.53,0,0,1,439.27,41.35Z"/><path class="cls-1" d="M447,41.35l-.15-.08-.24,0Z"/><path class="cls-1" d="M597,38.37a1.27,1.27,0,0,1,.36.38C597.19,38.45,598.33,38.34,597,38.37Z"/><path class="cls-1" d="M335.79,39.11a.26.26,0,0,1,.23-.18l-.26,0C335.74,39,335.73,39.07,335.79,39.11Z"/><path class="cls-1" d="M439.59,38l1.23.06A11.38,11.38,0,0,0,439.59,38Z"/><path class="cls-1" d="M541.39,38.43l.28,0A.42.42,0,0,0,541.39,38.43Z"/><path class="cls-1" d="M444.47,38a2.07,2.07,0,0,0,.69.29s.11-.06.14-.11Z"/><path class="cls-1" d="M597.31,38.75Z"/><path class="cls-1" d="M605.42,37.75c-1.17,0-.55.54-.8.86-1.4.16-.65-.41-1.12-.69-.88.15-1.55.66-2.2.63,0-.09-.18-.12,0-.23-.92.44-2.74,0-3.82.57a.36.36,0,0,1-.14-.14,1.1,1.1,0,0,1,.17.76c-.53,0-1,.35-1.17,0,.32,0,.34-.13.5-.25l-.56.16c-.49-.52.76-.18.76-.57a12.54,12.54,0,0,1-3.15.46c-.17-.51,1.92-.17.82-.63l1.28.2c-1-.81.77.05-.12-.81-1.68-.14-1.88.26-3.55.12-.37.28.13.41-.25.7-2.38.51-1.87-1.28-3.62-.61-.45.34-.62,1-1.87.65l.43-.58c-1.63-.06-.93.83-2.63.44.3-.22,1.28-.19,1-.26-1.1-.45-.78.33-1.62.33l-.18-.51c-1.73.08-3.63.45-5.54.54.1-.15.43-.31,0-.47a33.3,33.3,0,0,1-7.48-.36l-.88.44c-.21,0-.39-.2-.16-.28-.91-.17,0,.27-.49.45s-.68-.26-.35-.39c-1.6.38-4.56.81-6.25.33l.33-.13c-1.31-.17-1.48.91-2.7.5l.24-.08c-2.85-.19-6,.21-8.18-.45-.41.63-2.82-.29-3,.6a13.46,13.46,0,0,0-3.46-.89c-.61,0-.91.55-1.66.64l0-.46-1,.48-.55-.55-.71.12c.29,0,.6.21.56.34a3.81,3.81,0,0,1-2.73-.56l-2.62.39c.06-.18.49-.25.84-.37-1.4.48-.25-.48-1.54,0,.18.1-.09.27-.12.37a8.13,8.13,0,0,0-3.17-.17l.21-.31c-2-.09-4.1.15-6.29.14.78.15.6.7,0,.76l-.25-.49c-.42.3.67.18-.18.55-.82,0-.55-.55-.08-.71l-1,.17c-.06-.15.17-.23.23-.41-.41.3-1.71-.49-2.3,0l-.05-.14c-2.19,0-3.18.16-4.95.19,0,.42-.73.33-1.26.67a30.8,30.8,0,0,0-4.34-.43c-1.1.21-.32.35-.82.6-.08-.38-1.65-.34-.83-.62a37,37,0,0,0-4.81.39c.26.16.55.22.4.36-.43.06-1-.17-.92-.35l.11,0c-2.68.58-6.19-1.12-8.33-.32l.12,0-2.21.42c-1-.07.61-.29-.14-.53-2.39.64-3.78-.09-5.75.34-1.52-1.14-5.4.08-7.46-.65l.12.27c-.53.26-.64-.15-1-.21.05.2.57.24.24.38-4.5.32-9.29-.39-13.9-.63-1.69-.07-1,1.38-3.09.74l.6-.49c-3.4.59-7,0-10.29.48.19-.11.2-.26.52-.26-.7-.36-2.6,0-2.61.28-.52,0-.12-.27-.44-.42-.71-.21-1.77.46-2.15.1-.06-.06.2-.11.33-.14-.46.17-2.15,0-1.71.37-1.25-.2-2.39.18-3.39-.06-.65.46-2.14-.23-2.35.43.09-.68-2.19-.55-3-.23.26-.2-.69-.21-.38-.49-.9,0-1.73.13-1.57.48-1.67-.81-3.35.65-4.29-.39-2.68.37-5.16.61-7.57.77.08-.67,2.66-.06,2.56-.77-2.29.27-3.61.86-5.88.69-.59-.09.33-.29.53-.41-2.28.28-4.42-.06-6.45.31,0-.06.22-.13.43-.18-.4,0-.93-.1-.89.2l.39-.08c.64.45-1.59.93-1.66,1.17.68-.88-2-.22-.93-1.34-.27.06-.6.21-.54.41-.39-.06-.51-.18-.11-.41-1.44.17-.93.49-2.23.49,0-.15.26-.21.4-.38a4.14,4.14,0,0,1-2.42.45c.06-.09-.06-.21.27-.2-1.89,0-3.22.77-5.3.49.61-.65-.7-.21-.81-.77l-1.12.16.45.27c-1,0-1.84.4-2.68.22l.73-.23-1.83.11,1,.21c-1,.29.11.71-1.19.55.27-.06-1,0-1.48-.34h0a2.85,2.85,0,0,1-1.7.23c-.19-.18.15-.62,0-.74-.48.47-2.29.13-2.89.63a.37.37,0,0,0,.14-.47l-.4.38c-.45-.12-.52-.18-.44-.42-1.36-.07.43.71-1.18.41.12,0,.06-.09.33-.15-1.63-.16-3.14.24-4.63.06-.44-.57,1.31-.14.8-.62-2.15.11-4.45.68-6.52.55l.38.06c-.28.79-1.54-.4-2.6,0,.26-.06.34-.44.27-.35a27.15,27.15,0,0,0-5.07.44l.27-.2c-.84-.18-2.21-.11-3.11-.2-.27.2-.79.17-.48.47-2.79-1.17-5.33.62-7.8-.35.29,0,.7-.18.47-.18l-2.12.19c.17.35.28.21.72.48a2.54,2.54,0,0,1-1.38.37c.95-.23,0-.56-.42-.75.07.1-.07.22,0,.33-1.1-.62-.18.69-1.69.28l.08-.18a6.71,6.71,0,0,1-1.69.28c-.25-.4.6-.19.64-.52-.85,0-1.69.76-2.46.36.36-.11.89-.11,1.25-.22a2.76,2.76,0,0,0-1.57-.43h.07L353.1,39l.37.13c-1.07,1-2.18.19-3.62.87,1.4-.65.24-.37.34-.83-.37-.12-.92-.26-.76-.39-.68.36-1.14-.29-2.1.24,0-.14-.73,0-.57-.38-.89.12.2.26.13.44-1.36.5-3.2-.6-5.16.08-1.7.28-2,.78-3.58,1-.53-.23.44-.53.44-.53a4.64,4.64,0,0,0-2.31,0c.17-.13,0-.23-.25-.4-.64,0-.43.53-1.28.32a2.18,2.18,0,0,1,.64-.59c-.76.13-1.51.41-2.3.54-.21-.25.48-.39.76-.55-.89.11-2.3.23-2.57.63l.57.15c-.33,0-.17-.35.07-.42.76-.32,1.09.13,1.14.28l-.57.1c.58.85,2.26-.14,3.39-.09l-.47.62,1.16-.52c.24.17.41.51-.15.61.81.31.72-.22,1.42.12.07.05,0,.08,0,.11l.79-.19c-.16.13.13.44-.35.35,1.42.36,2.29-.47,2.82,0l-.12,0c2-.21.19-.46,1.67-1l1,1.13.19-.46c.2,0,.61,0,.53.24.76-.32-.13-.2.31-.5,1,.42,2.7-.19,2.92.54.35-.35-.93-.27.11-.51.3.78,1.21-.14,2.1.22-.27.41-1.12.19-.22.55.53-.68,1.74.15,2.49,0,0-.54,1.64-.23,2.91-.41-.08.19,2.38.3,3.55.5l0,.09c.23-.55,1.44-.45,2.33-.56,0,.33-.2.46-.68.61H361a1.73,1.73,0,0,1,1-.33l-.21.41c1.11,0,2.23-.48,3.65-.21.08-.38-1.13-1.07.38-1.32.05.21.11.56-.29.65a1.31,1.31,0,0,1,.72-.09l-.6.35c.65.15.34-.29.86-.26,0,.3.38.21.31.45-.13,0-.45-.12-.65,0a3.18,3.18,0,0,1,1.52.46c0-.17,0-.4.43-.44,1.11,0,.38.35,1,.51.27-.21,1,0,1-.44.32,0,.38.21.51.33.57-.2,2.67-.06,2-.53l-.14,0,.09,0h0c1.88-.44,3.9.25,5.76.06v.15a19.2,19.2,0,0,0,3.27-.42c.33,0,.77.27.63.45a4.34,4.34,0,0,1,2.18,0c-.86.26.29.23-.88.19a4.24,4.24,0,0,0,2.54,0c-.4.38.83.47,1.36.36l-.78-.27a9.8,9.8,0,0,1,1.63,0l-.28.5c2.26.61,4.07-1,5.79,0,.6-.35-1.22-.24-.69-.65a14.24,14.24,0,0,1,2.45.78c1.42.28,1.33-.73,2.82-.54-.19-.17-.37-.65.74-.82,1,.07,1.28.75.62.89-.25,0-.37,0-.36-.1-.33.06-.77.14-.36.33l.13-.17c.52.18,2,.16,1.61.45.79-.17.34-.29-.24-.38,1.33.25,2.08,0,3.45.18-.21-.1-.41-.31-.2-.31,2,.22.89-.34,2.25-.41.78.27-.27.64,1.1.42.84.18.18.47-.16.61,1.26-.34,2.34.23,3.06.29l-.66.15a4.35,4.35,0,0,1,1-.09l-.37-.35c.38.06.71.06.71.21.39-.23-.31-.59.48-.91.52.18,1.57-.2,1.75.28-1.62-.16.18.47-1.19.55a2.44,2.44,0,0,1,1,0c.06.05-.05.09-.16.12,1.56.42.72-.53,2.33-.52-.21.26.37.5.63.45-.65,0-.31-.45.29-.65,1,.21,1.12-.16,1.66-.13l-.62-.1c.21-.27.73-.23,1.45-.31.06.2-.66.14-.4.23.8-.47,1.8.48,2.92.17.51.18,0,.5.5.62,1.25-.34,1.35.37,2.67.08-.38-.36-.45-.27.47-.62l-2.15.25,1.38-.52c-.65,0-1.37.23-1.76.17.66-.3.59-.21.28-.5.89.53,1.76-.32,2.79,0l0,.88c1.55.4,2.75-.45,4.76-.23l-.64-.15c.27-.35,1.24,0,1.89-.19-.06.29.35.4.62.58,0-.22,1.47,0,1.66-.57l.89.39c1.63.16,1.86-.84,3.42-.74-.47.32.24.53-.81.76.52,0,1,.06,1-.15.3.19,1.44-.4,1.92-.11.22-.13.29-.45.88-.42.06.06,0,.15,0,.15s.91-.2.4-.53c1.61.92,4.49-.07,5.88.73,1.14-.1,2.51-.2,3.54-.22-.06.09,0,.15-.2.12,1.43.27.88-.85,2.5-.55.83.48-.86.26-.35.44.23,1,2-.13,3.05.44l-.26.06c.83.33,2-.37,3.39-.3,0,0-.07.08,0,.14a13.38,13.38,0,0,1,4-.8c-.41.39-.6.21-.35.59.59,0-.17-.62,1-.73.38.21,1.23.39,1.34.81l-1.11,0c.57.54,1.43,0,2,.08l-.08.23c1.7-.08,1.72-.67,3.54-.62l-.19-.18c1-.58.84.33,1.83-.11l.3.6a29.58,29.58,0,0,1,3.48-.69,13.69,13.69,0,0,1-2.9.93,6.74,6.74,0,0,0,2.55-.34,1.67,1.67,0,0,1-.85.11,6.17,6.17,0,0,1,3.14-.68c-.23,1.15,3.38.29,4.33,1.18,2.29-.43,4.55.18,7.22.11-.95-.89.78,0,.62-.94.62-.06.86,0,.91,0l1.89.55c.45.27-.59.2-.54.41,1.37.07.58.39,1.48.63-.19-.33.47-.47,1.25-.34l-1.1-.43c1.91-.48,1.65.77,3.57.29l-.61.29c1-.17,3.64,0,4.6-.73.18.1.41.36,0,.42,2.35.11,5.24-.78,7.07-.33l-.18.23c.44-.07.76-.43,1.31-.2,0,.09-.17.22,0,.24a4,4,0,0,1,1.75-.27l-.5.26c2.3.29,3.53-.62,5.45-.77,0,.66,1.81.87,2.71,1l0,.09c2.67.09,4.54-.54,7-.8,1.53.71,5.2.3,7.67.7-.37-.12.07-.51.51-.58.58.13,1.6-.46,1.51.15l-.21,0c.44.6,1.63.44,2.56.46l.15-.8c2.44,1.16,6.38-.42,7.71.61.58-.19,1.31-.19,1.89-.39l0,.42a30.49,30.49,0,0,0,4.45.07l-.41.3c1.14,0,1.44-1.23,2.48-1.25l.32.63c2,0,4,.55,5.94,0a.41.41,0,0,1-.41.31c.93,0,3.6.43,3.26-.44,0,.56,2,0,3.11-.2l-.16.42A3.86,3.86,0,0,1,567,41c.3.06.26.34-.14.23,1,.22.78-.4,2-.17l-.45.26a1.84,1.84,0,0,0,1.51-.42c.64-.17,1.94.11,2.09.48a1.42,1.42,0,0,1,1.31-.43c.08.15-.14.24-.25.28,1.71.28,2.54-.49,3.72-.08a.3.3,0,0,0,.2.25c-1.36,0-2.46,0-2.35-.06,0,.38,1.09.45.22,1a8.45,8.45,0,0,1,3.46-.74.62.62,0,0,1,.14.14l-.11,0a1.52,1.52,0,0,0,.68-.06,4.61,4.61,0,0,0,.89.11c.12.32,1.25.18,1.8.19,0-.42.67-.35,0-.7.09,0-.1.05-.47.07l-.23,0,0,0c-.36,0-.83,0-1.36,0a1.72,1.72,0,0,1,1.49-.16c.28-.27.59-.55.76-.68.75.59,2.2.91,2.4,1.27,1.67-.24,3.94-.16,5-1,.47-.1.55.23.72.35a3.44,3.44,0,0,0-.75.18c1-.2,2.82-.07,3.05-.63,1.2.25-.68.51,1,.42l-.22.17c3.24.89,5.26-1.41,8.86-.28-.25-.07-.38-.1-.43-.19,4.1.5,8.44-.47,12.48.32,1.15.16,1.27-.19,2-.46l.25.45,1.2-.52c1.7-.38,2.94,1.11,5.09.39l-.27-.31c.77.06,2.44-.18,2.31.18.08-.06.26-.32.56-.16l0,.23,1.9-.4c1.47.17-.23.94,1.92,1,.8-.09,2.27-.69,2-.84s-.82-.15-.85-.39l.73-.12c.14-.7.7-1.42-1.09-1.9l-1.25.42-.4-.34,1,0c-.6-.32-1,0-1.4.16a.79.79,0,0,0-.52-.37l-1.23.66c-.15-.27.55-.54-.27-.69-.58.31.55.61-.4.82-.6-.32-.43-.58-1.13-.31-.1-.18.05-.29.33-.37-.62.21-1.65.09-2,.46-.63-.39-2.11.1-2-.56a4.22,4.22,0,0,1-1.67.55c1-.79-2.15,0-1.87-.9-.77.71-2.8.32-4.17.71.08-.05.23-.17.35-.13a5.29,5.29,0,0,1-1.5-.41c-.1.59-1.3.72-2,1.09-.95-.57.58-.69.28-1.24,0,.48-1.65.48-1.32.87-.73-.35-.63-.17-1-.65-.13.73-.68.12-1.28.57-1-.36-.27-.69-1.42-.46C604.39,38,605.42,37.75,605.42,37.75ZM578,39h0l.57,0Zm-2.3,0c.28,0,.63,0,1,0,.08.14,0,.29-.24.28C576.62,39.24,576.08,39.15,575.73,39ZM580.6,42c-.36.06-.49,0-.54-.11l.64-.05,0,0A.43.43,0,0,1,580.6,42Z"/><path class="cls-1" d="M581.25,41.4a.8.8,0,0,1,.15,0l-.21-.1-.13.13Z"/><path class="cls-1" d="M372.63,40.77h.05a.21.21,0,0,1-.1-.06S372.61,40.76,372.63,40.77Z"/><polygon class="cls-1" points="543.95 38.22 543.96 38.33 544.16 38.23 543.95 38.22"/><path class="cls-1" d="M360,39.33a.26.26,0,0,0-.17-.11S359.87,39.28,360,39.33Z"/><path class="cls-1" d="M354.48,39.23l-.77-.15A5,5,0,0,0,354.48,39.23Z"/><path class="cls-1" d="M350.27,39a.83.83,0,0,0-.08.18h0Z"/><path class="cls-1" d="M417.21,38.53l.16,0C417.75,38.43,417.49,38.46,417.21,38.53Z"/><path class="cls-1" d="M397.29,39.51c.21-.07.42-.15.64-.2C397.58,39.28,397.3,39.27,397.29,39.51Z"/><path class="cls-1" d="M439.45,38h0Z"/><path class="cls-1" d="M398.86,39.32a2.09,2.09,0,0,0-.93,0A3.22,3.22,0,0,0,398.86,39.32Z"/><path class="cls-1" d="M332,38.83l-.2,0a.09.09,0,0,1,0,.07Z"/><path class="cls-1" d="M331.8,38.88l-.22,0C331.68,38.93,331.77,38.93,331.8,38.88Z"/><path class="cls-1" d="M331.1,39l.48-.11C331.41,38.93,331.21,38.92,331.1,39Z"/><path class="cls-1" d="M337.6,39l.07-.16A.22.22,0,0,0,337.6,39Z"/><path class="cls-1" d="M339.3,39a6.06,6.06,0,0,0-1.58-.23l-.05.12C337.93,38.65,338.91,39.24,339.3,39Z"/><path class="cls-1" d="M346.36,40.87l-1.42-.12c.25.16.58.38-.07.42C346.66,41.66,344.5,40.81,346.36,40.87Z"/><path class="cls-1" d="M350.76,41.11c-.76.07,0,.23,0,.33C351.22,41.29,351.33,41.25,350.76,41.11Z"/><path class="cls-1" d="M382.56,41.11l-.07.38C383.07,41.44,382.49,41.34,382.56,41.11Z"/><polygon class="cls-1" points="388.64 39.13 388.07 38.89 387.8 39.24 388.64 39.13"/><polygon class="cls-1" points="392.23 41.86 391.98 41.91 392.96 41.77 392.23 41.86"/><path class="cls-1" d="M445.64,41.72l-.18-.47C445.06,41.34,445,41.87,445.64,41.72Z"/><path class="cls-1" d="M468.69,41.24a1.27,1.27,0,0,0,1.3.16A9.53,9.53,0,0,0,468.69,41.24Z"/><polygon class="cls-1" points="537.84 42.01 537.38 42.17 538.25 42.04 537.84 42.01"/><path class="cls-1" d="M552.42,97.49c.25-.13.11-.42-.59-.36l-.5.49Z"/><path class="cls-1" d="M547.7,96.57c-.82.24-1.77.66-1.24,1.12.82-.48,1-.28,1.9-.85.7,0,1.22.16,1.1.35.25-.13,1.09.11,1.47-.21a5.19,5.19,0,0,0-3.28-.08C547.39,96.79,547.65,96.66,547.7,96.57Z"/><path class="cls-1" d="M479.25,95.8l.44.06A1.8,1.8,0,0,0,479.25,95.8Z"/><path class="cls-1" d="M436.83,95.52c.32,0,.46-.06.47-.1C437,95.45,436.76,95.48,436.83,95.52Z"/><path class="cls-1" d="M429.59,95l.42,0A.79.79,0,0,0,429.59,95Z"/><path class="cls-1" d="M479.25,95.8l-1.14-.16C478,95.8,478.69,95.76,479.25,95.8Z"/><path class="cls-1" d="M538.26,97.77a3.21,3.21,0,0,0,.62-.13l-.58,0A.3.3,0,0,1,538.26,97.77Z"/><path class="cls-1" d="M497.94,95.39h.35a1.31,1.31,0,0,0,.28-.2Z"/><path class="cls-1" d="M512.29,95.32c-.32,0-.43.4-.56.59a1.17,1.17,0,0,1,.71-.29A.42.42,0,0,0,512.29,95.32Z"/><path class="cls-1" d="M535.05,96.06l.4-.06Z"/><path class="cls-1" d="M487.67,95.3a.31.31,0,0,0-.13-.15C487.54,95.21,487.59,95.26,487.67,95.3Z"/><path class="cls-1" d="M86.31,98.47a.16.16,0,0,0,0-.07C86.23,98.44,86.2,98.47,86.31,98.47Z"/><path class="cls-1" d="M69.68,96.38l.23,0a1,1,0,0,0,0-.24Z"/><path class="cls-1" d="M416.33,94.44h.06C416.74,94.4,416.54,94.41,416.33,94.44Z"/><path class="cls-1" d="M294.66,94.75c1.38.37-2.24.48-.16.9C294.3,95.49,296.38,95,294.66,94.75Z"/><path class="cls-1" d="M537.89,97.71h-.59A3.51,3.51,0,0,0,537.89,97.71Z"/><path class="cls-1" d="M294.5,95.65h0l.21,0Z"/><path class="cls-1" d="M385.8,94.69a1,1,0,0,0,.31.19S386,94.78,385.8,94.69Z"/><path class="cls-1" d="M408.55,95.29l-.57-.06A3.35,3.35,0,0,0,408.55,95.29Z"/><path class="cls-1" d="M374,95.29a2.35,2.35,0,0,0-.82,0,.43.43,0,0,0,.12,0A1.3,1.3,0,0,1,374,95.29Z"/><path class="cls-1" d="M361.69,95.29l.23.08.39,0Z"/><path class="cls-1" d="M123.68,98.27a1.81,1.81,0,0,1-.57-.38C123.3,98.19,121.49,98.3,123.68,98.27Z"/><path class="cls-1" d="M538.26,97.53a.44.44,0,0,1-.37.18l.41,0A.1.1,0,0,0,538.26,97.53Z"/><path class="cls-1" d="M373.48,98.61l-2-.06C372.08,98.59,372.79,98.61,373.48,98.61Z"/><path class="cls-1" d="M211.88,98.21l-.45.05A1.06,1.06,0,0,0,211.88,98.21Z"/><path class="cls-1" d="M365.73,98.61a4.34,4.34,0,0,0-1.1-.29.65.65,0,0,0-.22.11Z"/><path class="cls-1" d="M123.1,97.89h0Z"/><path class="cls-1" d="M110.24,98.89c1.86,0,.87-.55,1.27-.86,2.22-.16,1,.4,1.78.69,1.39-.15,2.45-.66,3.49-.64.07.1.27.13,0,.24,1.46-.44,4.35,0,6.06-.57a.41.41,0,0,1,.22.14.79.79,0,0,1-.26-.76c.84,0,1.55-.36,1.86,0a1.11,1.11,0,0,0-.79.25l.87-.16c.79.52-1.19.18-1.19.56a29.63,29.63,0,0,1,5-.45c.27.51-3.06.17-1.31.63l-2-.2c1.54.8-1.23-.06.19.8,2.66.15,3-.26,5.63-.11.59-.28-.2-.42.4-.7,3.77-.51,3,1.28,5.74.6a3.27,3.27,0,0,1,3-.64l-.68.58c2.58,0,1.47-.83,4.17-.44-.48.22-2,.19-1.63.26,1.75.45,1.23-.33,2.58-.33l.28.51c2.74-.08,5.76-.45,8.79-.54-.16.15-.68.31,0,.46a85,85,0,0,1,11.87.37l1.41-.44c.33,0,.61.2.25.28,1.44.17.08-.28.77-.45s1.08.25.56.39c2.54-.38,7.24-.81,9.92-.34l-.53.13c2.09.18,2.36-.9,4.29-.49l-.37.08c4.52.19,9.52-.21,13,.45.66-.63,4.48.29,4.77-.6a32.1,32.1,0,0,0,5.48.89c1,0,1.45-.55,2.65-.64l0,.46,1.63-.49.87.56,1.13-.12c-.45,0-1-.21-.89-.34,1.76-.21,4.29.32,4.34.56l4.16-.39c-.09.18-.79.25-1.34.36,2.22-.47.4.49,2.44.06-.27-.11.15-.28.19-.37a20,20,0,0,0,5,.16l-.33.32c3.09.08,6.51-.15,10-.14-1.24-.15-1-.7.06-.76l.41.49c.65-.3-1.07-.18.28-.55,1.3,0,.87.55.13.71l1.57-.17c.1.15-.27.22-.37.41.65-.3,2.72.49,3.65,0l.09.15c3.46,0,5-.16,7.86-.19.05-.42,1.16-.33,2-.67,2.07.14,4.37.47,6.87.43,1.76-.21.52-.35,1.31-.61.12.39,2.62.35,1.33.63,3-.06,3.83-.08,7.62-.39-.41-.16-.87-.23-.63-.36.68-.06,1.56.16,1.46.35l-.18,0c4.26-.58,9.83,1.12,13.22.32l-.19,0,3.52-.42c1.62.07-1,.29.23.53,3.79-.64,6,.09,9.11-.34,2.42,1.14,8.58-.08,11.85.65l-.19-.27c.84-.26,1,.15,1.64.21-.09-.2-.92-.24-.39-.38,7.14-.32,14.75.39,22.07.63,2.68.07,1.52-1.38,4.9-.74l-1,.49c5.41-.59,11.06,0,16.35-.48-.31.11-.32.26-.84.26,1.12.36,4.14,0,4.15-.28.83,0,.2.27.7.42,1.12.21,2.82-.46,3.41-.1.11.05-.31.11-.52.14.73-.17,3.41,0,2.71-.37,2,.2,3.8-.19,5.38.06,1-.46,3.41.22,3.73-.43-.14.68,3.49.54,4.74.23-.42.2,1.09.21.6.49,1.44,0,2.75-.13,2.5-.48,2.64.81,5.31-.66,6.8.38,4.25-.36,8.19-.61,12-.77-.13.68-4.23.07-4.07.78,3.64-.28,5.73-.86,9.34-.69.93.09-.53.29-.85.4,3.63-.27,7,.07,10.25-.3,0,.06-.35.13-.68.18.63,0,1.48.1,1.41-.21l-.63.09c-1-.45,2.53-.94,2.65-1.17-1.08.88,3.19.22,1.47,1.33.42-.05.95-.2.85-.41.62.06.82.18.19.42,2.28-.17,1.47-.5,3.53-.49,0,.15-.42.21-.63.38a9.9,9.9,0,0,1,3.84-.45c-.1.09.1.2-.42.2,3,0,5.11-.77,8.4-.49-1,.65,1.12.21,1.29.77l1.77-.16-.71-.28a37.94,37.94,0,0,1,4.25-.21l-1.15.23,2.9-.11-1.64-.21c1.57-.29-.17-.71,1.89-.55a17.22,17.22,0,0,1,2.36.34h0a7,7,0,0,1,2.7-.23c.3.18-.24.62-.05.74.76-.47,3.63-.13,4.59-.63-.32.12-.34.41-.23.47l.63-.38c.72.12.82.18.71.42,2.16.06-.69-.72,1.87-.41-.2,0-.1.09-.52.15,2.57.16,5-.25,7.34-.06.7.57-2.07.14-1.27.62,3.41-.11,7.06-.68,10.36-.55l-.61-.06c.45-.8,2.45.39,4.12,0-.41.06-.53.44-.42.35a67.62,67.62,0,0,0,8-.44l-.42.2c1.33.18,3.5.11,4.94.2.43-.21,1.25-.17.75-.47,4.44,1.16,8.46-.62,12.4.35-.47,0-1.12.17-.75.18l3.35-.19c-.26-.35-.44-.21-1.14-.48a6,6,0,0,1,2.2-.37c-1.51.23,0,.56.66.75-.1-.1.12-.22.06-.33,1.75.62.3-.7,2.69-.28l-.13.18a16.67,16.67,0,0,1,2.69-.28c.4.4-1,.19-1,.52,1.36,0,2.68-.76,3.9-.36-.57.11-1.4.11-2,.22a6.49,6.49,0,0,0,2.49.43h-.1l2.29.21-.58-.13c1.69-1,3.45-.19,5.74-.87-2.22.64-.37.37-.54.83.58.12,1.47.26,1.22.39,1.08-.37,1.8.29,3.32-.25.07.15,1.16,0,.92.39,1.4-.12-.34-.26-.22-.44,2.17-.5,5.09.6,8.2-.08,2.68-.28,3.18-.78,5.67-1,.84.23-.69.53-.69.53a12.14,12.14,0,0,0,3.66,0c-.26.12,0,.23.4.4,1,0,.68-.54,2-.32a3.75,3.75,0,0,1-1,.59c1.21-.14,2.4-.41,3.65-.54.33.25-.75.38-1.19.55,1.4-.11,3.64-.23,4.07-.63l-.9-.15c.51,0,.27.35-.11.42-1.21.32-1.74-.14-1.81-.28l.89-.1c-.91-.86-3.58.14-5.37.09l.75-.62-1.84.51c-.39-.16-.66-.51.22-.6-1.28-.31-1.13.22-2.24-.12-.12-.06-.06-.09,0-.11l-1.26.19c.25-.14-.21-.44.56-.35-2.25-.36-3.63.46-4.48,0l.19,0c-3.13.21-.31.46-2.65,1l-1.58-1.13-.31.46c-.32,0-1-.05-.84-.24-1.2.32.2.2-.5.5-1.55-.42-4.28.19-4.63-.54-.56.35,1.49.27-.17.51-.48-.78-1.92.14-3.34-.22.44-.41,1.78-.19.36-.55-.86.68-2.76-.15-4,0-.06.54-2.6.22-4.61.41.12-.19-3.78-.3-5.65-.5l.05-.09c-.36.55-2.29.44-3.69.56.06-.33.31-.46,1.07-.61h-1.32a3.72,3.72,0,0,1-1.58.34l.33-.42c-1.75,0-3.54.49-5.8.21-.12.39,1.8,1.07-.59,1.33-.09-.21-.17-.56.45-.65a3.17,3.17,0,0,1-1.14.09l1-.35c-1-.16-.54.29-1.36.26,0-.3-.61-.22-.49-.45.21,0,.72.12,1,0a7.37,7.37,0,0,1-2.42-.46c.08.17,0,.4-.68.44-1.75,0-.6-.36-1.62-.51-.43.21-1.55,0-1.58.44a1.11,1.11,0,0,1-.8-.33c-.91.19-4.25,0-3.23.53l.24,0-.15,0h0c-3,.44-6.19-.26-9.15-.07v-.14a47.2,47.2,0,0,0-5.19.42c-.52,0-1.23-.28-1-.45a10.75,10.75,0,0,1-3.45,0c1.36-.26-.47-.23,1.39-.19a10.33,10.33,0,0,0-4,0c.64-.38-1.32-.48-2.15-.36l1.23.27c-.94,0-1.76,0-2.59,0l.45-.5c-3.59-.61-6.47,1-9.2,0-1,.35,1.95.24,1.1.65a30.24,30.24,0,0,1-3.89-.79c-2.26-.27-2.11.73-4.47.55.3.17.59.65-1.18.82-1.65-.07-2-.75-1-.89.4,0,.59,0,.57.1.54-.07,1.24-.14.58-.34l-.21.18c-.82-.18-3.09-.16-2.56-.45-1.25.17-.53.29.39.38-2.11-.26-3.31,0-5.49-.18.35.1.67.31.33.31-3.2-.22-1.41.33-3.58.41-1.23-.27.44-.65-1.74-.42-1.33-.18-.28-.47.25-.62-2,.35-3.71-.22-4.85-.28l1.05-.15a10.87,10.87,0,0,1-1.66.08l.6.36c-.62-.06-1.14-.06-1.13-.21-.63.23.49.59-.77.91-.82-.18-2.49.19-2.78-.28,2.58.16-.28-.47,1.9-.55a6.71,6.71,0,0,1-1.55,0c-.09,0,.09-.1.25-.12-2.46-.43-1.13.53-3.68.52.32-.27-.6-.5-1-.45,1,0,.49.45-.46.65a9.69,9.69,0,0,0-2.63.13l1,.1a6,6,0,0,1-2.3.31c-.1-.2,1-.14.63-.23-1.27.47-2.86-.49-4.63-.17-.82-.18-.08-.5-.8-.62-2,.34-2.15-.37-4.23-.08.6.36.71.27-.76.62l3.42-.25-2.19.52c1,0,2.18-.23,2.8-.17-1.05.29-.94.2-.45.5-1.41-.54-2.8.31-4.44,0l.05-.88c-2.45-.4-4.36.45-7.55.23l1,.15c-.43.35-2,0-3,.19.09-.29-.55-.4-1-.58.05.21-2.34,0-2.63.57l-1.42-.39c-2.58-.16-2.94.84-5.42.74.75-.32-.38-.53,1.28-.76-.83,0-1.57-.06-1.58.15-.49-.19-2.3.39-3.06.11a2.17,2.17,0,0,1-1.39.42c-.1-.06,0-.15,0-.15,0,.15-1.46.2-.65.53-2.54-.92-7.12.07-9.33-.73-1.81.1-4,.2-5.62.22.1-.09,0-.15.31-.12-2.26-.27-1.39.85-4,.55-1.31-.48,1.37-.26.55-.45-.36-1-3.1.14-4.83-.43l.41-.06c-1.32-.33-3.22.37-5.38.3,0,0,.1-.08,0-.15a30.94,30.94,0,0,1-6.36.8c.65-.38.95-.2.55-.59-.93.06.28.63-1.58.73-.61-.2-1.95-.39-2.13-.8l1.75,0c-.89-.54-2.27,0-3.19-.08l.12-.23c-2.69.08-2.73.66-5.62.62l.3.18c-1.58.58-1.33-.33-2.9.11l-.48-.6c-1,.15-3.65.58-5.52.69a31.38,31.38,0,0,1,4.6-.93,16.63,16.63,0,0,0-4.05.34,4.14,4.14,0,0,1,1.35-.11,14.67,14.67,0,0,1-5,.68c.36-1.15-5.37-.29-6.86-1.18-3.64.43-7.22-.18-11.47-.11,1.51.89-1.24,0-1,.94a4.22,4.22,0,0,1-1.45,0l-3-.54c-.71-.27.94-.21.84-.41-2.16-.07-.9-.39-2.34-.63.3.32-.75.47-2,.34l1.74.42c-3,.49-2.62-.77-5.67-.28l1-.29c-1.57.17-5.77,0-7.31.73-.27-.11-.64-.36.05-.42-3.74-.11-8.32.78-11.23.33l.29-.23a4.86,4.86,0,0,1-2.09.2c.05-.09.28-.23,0-.24a9.79,9.79,0,0,1-2.78.26l.79-.25c-3.64-.29-5.59.62-8.65.77,0-.66-2.86-.88-4.29-1l.05-.1c-4.25-.08-7.22.55-11.15.81-2.44-.72-8.26-.3-12.19-.7.6.12-.09.51-.79.58-.92-.13-2.55.46-2.4-.15h.33c-.7-.59-2.59-.43-4.07-.45l-.24.79c-3.86-1.15-10.12.43-12.23-.61-.93.2-2.09.2-3,.4l0-.43c-2.59-.1-3.87-.16-7.07-.06l.65-.3c-1.8,0-2.27,1.22-3.93,1.25l-.5-.63c-3.14,0-6.32-.55-9.43,0,.05-.09.14-.27.65-.3-1.48,0-5.72-.43-5.18.44,0-.56-3.24,0-4.94.2l.26-.42a8.46,8.46,0,0,1-3.47.83c-.48-.06-.42-.34.21-.23-1.58-.22-1.23.4-3.15.17l.72-.26a4.07,4.07,0,0,0-2.39.42c-1,.17-3.09-.11-3.33-.49a3,3,0,0,1-2.06.43c-.13-.14.22-.23.39-.27-2.71-.29-4,.49-5.91.07a.39.39,0,0,0-.31-.24c2.16,0,3.9,0,3.73.06,0-.39-1.74-.45-.35-1a20,20,0,0,1-5.5.74.61.61,0,0,1-.22-.13l.17,0a3.4,3.4,0,0,0-1.07.06,13.88,13.88,0,0,0-1.41-.12c-.2-.31-2-.17-2.87-.18.08.42-1.06.35,0,.7-.13,0,.17,0,.75-.07a3.22,3.22,0,0,0,.37,0l-.06,0,2.16,0a4.18,4.18,0,0,1-2.37.16c-.44.27-.93.55-1.21.68-1.19-.59-3.48-.91-3.8-1.27-2.66.23-6.26.15-7.93,1-.75.1-.87-.23-1.15-.36a5.9,5.9,0,0,0,1.19-.18c-1.51.21-4.47.08-4.83.64-1.9-.25,1.07-.51-1.54-.42l.35-.17c-5.14-.89-8.36,1.41-14.06.27.39.07.59.11.67.2-6.5-.5-13.39.47-19.81-.32a6.27,6.27,0,0,0-3.13.46l-.39-.46-1.91.53c-2.69.38-4.67-1.11-8.08-.39l.44.3c-1.23,0-3.89.18-3.68-.17a1,1,0,0,1-.88.16l0-.24-3,.41c-2.34-.17.36-.94-3.05-1-1.26.09-3.6.69-3.13.85s1.31.15,1.35.39l-1.16.12c-.21.7-1.1,1.41,1.74,1.9l2-.42.64.33-1.67,0A3.26,3.26,0,0,0,74.82,98a1.43,1.43,0,0,0,.83.37l1.95-.67c.23.28-.87.55.43.7.91-.31-.87-.62.64-.82.94.32.67.58,1.78.31.16.18-.08.29-.52.37,1-.22,2.62-.09,3.13-.46,1,.39,3.35-.1,3.25.56A9.61,9.61,0,0,1,89,97.85c-1.66.79,3.41.05,3,.9,1.23-.72,4.45-.32,6.62-.72a1,1,0,0,1-.55.14,12.35,12.35,0,0,1,2.37.41c.16-.59,2.07-.73,3.1-1.09,1.5.57-.91.69-.44,1.24-.08-.48,2.61-.48,2.1-.88,1.15.36,1,.18,1.58.66.2-.73,1.07-.12,2-.57,1.66.36.43.69,2.25.46C111.86,98.63,110.24,98.89,110.24,98.89Zm43.47-1.27h0l-.9,0Zm3.65,0c-.44,0-1,0-1.58,0-.13-.14,0-.29.38-.28C156,97.4,156.82,97.49,157.36,97.61Zm-7.72-2.92c.57-.06.77,0,.85.11-.28,0-.6,0-1,0a.18.18,0,0,0-.07.05A.53.53,0,0,1,149.64,94.69Z"/><path class="cls-1" d="M148.6,95.24a1.57,1.57,0,0,1-.24,0l.34.1.21-.14Z"/><path class="cls-1" d="M479.76,95.87h-.07a.38.38,0,0,1,.16.06C479.8,95.9,479.8,95.88,479.76,95.87Z"/><polygon class="cls-1" points="207.81 98.42 207.8 98.31 207.49 98.4 207.81 98.42"/><path class="cls-1" d="M499.88,97.31a.53.53,0,0,0,.27.11S500,97.35,499.88,97.31Z"/><path class="cls-1" d="M508.58,97.41l1.23.15A12,12,0,0,0,508.58,97.41Z"/><path class="cls-1" d="M515.26,97.62a.51.51,0,0,0,.13-.18h0Z"/><path class="cls-1" d="M409,98.11l-.26,0C408.14,98.21,408.56,98.18,409,98.11Z"/><path class="cls-1" d="M440.63,97.13c-.34.07-.67.15-1,.2C440.17,97.36,440.61,97.37,440.63,97.13Z"/><path class="cls-1" d="M373.7,98.62h0Z"/><path class="cls-1" d="M438.14,97.32a5.58,5.58,0,0,0,1.47,0A7.22,7.22,0,0,0,438.14,97.32Z"/><path class="cls-1" d="M544.22,97.81h.32a.08.08,0,0,1,0-.06Z"/><path class="cls-1" d="M544.58,97.76l.36-.05C544.78,97.71,544.63,97.71,544.58,97.76Z"/><path class="cls-1" d="M545.69,97.6l-.75.11A1.47,1.47,0,0,0,545.69,97.6Z"/><path class="cls-1" d="M535.38,97.61l-.11.16A.23.23,0,0,0,535.38,97.61Z"/><path class="cls-1" d="M532.69,97.66a14.71,14.71,0,0,0,2.5.23l.08-.12C534.85,98,533.3,97.4,532.69,97.66Z"/><path class="cls-1" d="M521.47,95.77l2.25.12c-.39-.16-.91-.38.11-.42C521,95,524.42,95.83,521.47,95.77Z"/><path class="cls-1" d="M514.48,95.53c1.21-.08,0-.24,0-.33C513.76,95.35,513.58,95.39,514.48,95.53Z"/><path class="cls-1" d="M464,95.53l.13-.38C463.19,95.2,464.12,95.29,464,95.53Z"/><polygon class="cls-1" points="454.35 97.51 455.26 97.75 455.69 97.4 454.35 97.51"/><polygon class="cls-1" points="448.65 94.78 449.06 94.72 447.5 94.86 448.65 94.78"/><path class="cls-1" d="M363.88,94.92l.28.47C364.79,95.3,364.92,94.77,363.88,94.92Z"/><path class="cls-1" d="M327.28,95.4a3,3,0,0,0-2.06-.16C326,95.27,326.86,95.46,327.28,95.4Z"/><polygon class="cls-1" points="217.52 94.63 218.25 94.47 216.86 94.6 217.52 94.63"/><path class="cls-1" d="M419.57,95.49c-.08.13,0,.43.17.37l.14-.5Z"/><path class="cls-1" d="M420.94,96.41a1.11,1.11,0,0,0,.36-1.12c-.23.48-.29.28-.55.85-.2.06-.36-.16-.32-.34-.07.13-.32-.11-.43.2.27.39.6.4,1,.08C421,96.19,421,96.32,420.94,96.41Z"/><path class="cls-1" d="M440.93,97.19l-.13-.06A.26.26,0,0,0,440.93,97.19Z"/><path class="cls-1" d="M453.31,97.46a.14.14,0,0,0-.14.11C453.26,97.53,453.33,97.5,453.31,97.46Z"/><path class="cls-1" d="M455.43,98l-.13,0C455.35,98,455.4,98,455.43,98Z"/><path class="cls-1" d="M440.93,97.19l.33.15C441.28,97.18,441.09,97.22,440.93,97.19Z"/><path class="cls-1" d="M423.7,95.22a.38.38,0,0,0-.18.13l.17-.06A.17.17,0,0,1,423.7,95.22Z"/><path class="cls-1" d="M435.47,97.59h-.1l-.09.2Z"/><path class="cls-1" d="M431.28,97.67c.09,0,.13-.41.16-.59-.05.17-.12.26-.2.29A1.3,1.3,0,0,0,431.28,97.67Z"/><path class="cls-1" d="M424.64,96.93l-.12,0Z"/><path class="cls-1" d="M438.47,97.68a.3.3,0,0,0,0,.15A.42.42,0,0,0,438.47,97.68Z"/><path class="cls-1" d="M555.65,94.51a.22.22,0,0,0,0,.08S555.68,94.52,555.65,94.51Z"/><path class="cls-1" d="M560.5,96.6l-.07,0c0,.08,0,.16,0,.24Z"/><path class="cls-1" d="M459.3,98.55h0C459.18,98.59,459.23,98.58,459.3,98.55Z"/><path class="cls-1" d="M494.82,98.24c-.41-.38.65-.49.05-.91C494.92,97.5,494.32,98,494.82,98.24Z"/><path class="cls-1" d="M423.81,95.27H424A.24.24,0,0,0,423.81,95.27Z"/><path class="cls-1" d="M494.87,97.33h0l-.07,0Z"/><path class="cls-1" d="M468.21,98.29a.51.51,0,0,0-.09-.18A.29.29,0,0,0,468.21,98.29Z"/><path class="cls-1" d="M461.57,97.69l.16.06A.4.4,0,0,0,461.57,97.69Z"/><path class="cls-1" d="M471.66,97.7c.09,0,.12.09.24,0l0,0C471.82,97.74,471.76,97.77,471.66,97.7Z"/><path class="cls-1" d="M475.25,97.7a.71.71,0,0,0-.07-.09l-.11,0Z"/><path class="cls-1" d="M544.74,94.72a1.34,1.34,0,0,1,.16.37C544.85,94.8,545.37,94.69,544.74,94.72Z"/><path class="cls-1" d="M423.7,95.45c0-.1.05-.16.11-.18l-.12,0C423.68,95.36,423.67,95.42,423.7,95.45Z"/><path class="cls-1" d="M471.81,94.37l.57.07A2,2,0,0,0,471.81,94.37Z"/><path class="cls-1" d="M519,94.78l.13,0A.11.11,0,0,0,519,94.78Z"/><path class="cls-1" d="M474.07,94.37a.78.78,0,0,0,.32.29.86.86,0,0,0,.07-.1Z"/><path class="cls-1" d="M544.9,95.1h0Z"/><path class="cls-1" d="M548.66,94.1c-.54,0-.25.54-.37.86-.65.16-.3-.41-.52-.69-.41.14-.72.65-1,.63,0-.09-.08-.12,0-.24-.43.44-1.27,0-1.77.58a.37.37,0,0,1-.07-.14,2.14,2.14,0,0,1,.08.76c-.24,0-.45.35-.54,0,.15,0,.16-.14.23-.25l-.26.16c-.23-.52.35-.18.35-.57-.5.17-1.08.6-1.46.45-.08-.51.89-.17.39-.62l.59.19c-.46-.8.35.06-.06-.8-.78-.15-.87.26-1.64.11-.18.28,0,.42-.12.7-1.1.51-.87-1.28-1.68-.6-.21.34-.29,1-.86.64l.19-.57c-.75-.06-.43.83-1.21.44.14-.23.59-.19.47-.26-.51-.46-.36.33-.75.33l-.08-.51c-.8.08-1.68.44-2.57.54,0-.15.2-.31,0-.47a7.31,7.31,0,0,1-3.46-.36l-.41.44a.18.18,0,0,1-.08-.29c-.42-.17,0,.28-.22.45a.22.22,0,0,1-.17-.38c-.74.37-2.11.8-2.89.33l.15-.13c-.61-.18-.69.9-1.25.49l.11-.08c-1.32-.19-2.78.22-3.79-.45-.19.64-1.31-.28-1.39.6-.76-.43-.54-.59-1.6-.89-.29,0-.43.55-.78.65v-.46l-.48.48-.25-.55-.33.12a.35.35,0,0,1,.26.34,1.15,1.15,0,0,1-1.27-.56l-1.22.39c0-.19.24-.25.4-.37-.65.47-.12-.49-.72,0,.08.1,0,.27-.05.36a1.81,1.81,0,0,0-1.47-.16l.09-.32c-.9-.08-1.9.15-2.91.15a.41.41,0,0,1,0,.75l-.12-.49c-.19.31.31.19-.08.56-.38-.06-.25-.56,0-.72l-.46.17c0-.14.08-.22.11-.41-.19.31-.79-.49-1.06,0l0-.14c-1,0-1.47.16-2.29.18,0,.43-.34.33-.59.67a7.62,7.62,0,0,0-2-.43c-.52.21-.15.36-.38.61,0-.38-.77-.35-.39-.62a7.87,7.87,0,0,0-2.23.39c.12.15.26.22.19.35a.36.36,0,0,1-.43-.34l0,0c-1.24.57-2.87-1.12-3.86-.32l.06,0-1,.41c-.47-.06.28-.28-.07-.52-1.1.64-1.75-.09-2.66.33-.7-1.13-2.5.08-3.46-.64l.06.27c-.25.26-.3-.16-.48-.22,0,.21.27.24.11.39-2.08.32-4.3-.39-6.44-.63-.78-.08-.44,1.38-1.43.74l.28-.5c-1.58.6-3.23,0-4.77.49.09-.12.09-.27.24-.26-.32-.36-1.21,0-1.21.27-.24,0-.06-.26-.21-.41-.32-.21-.82.46-1,.1,0-.06.09-.12.15-.15-.21.18-1,0-.79.38-.58-.2-1.11.18-1.57-.07-.3.47-1-.22-1.09.44,0-.68-1-.55-1.38-.23.12-.21-.32-.21-.18-.5-.42,0-.8.14-.73.49-.77-.81-1.55.65-2-.39a25.7,25.7,0,0,1-3.51.77c0-.68,1.23-.07,1.18-.78-1.06.28-1.67.86-2.72.7-.27-.09.15-.29.25-.41-1.06.28-2.05-.06-3,.31,0-.07.11-.14.2-.19-.18,0-.43-.1-.41.21l.18-.08c.3.44-.73.93-.77,1.17.32-.89-.93-.23-.43-1.34a.42.42,0,0,0-.25.41c-.18-.06-.23-.18-.05-.41-.67.16-.43.49-1,.48,0-.15.12-.2.18-.38a1.15,1.15,0,0,1-1.12.46c0-.09,0-.21.13-.21-.88,0-1.5.78-2.46.5.29-.65-.32-.22-.38-.78l-.51.17.21.27c-.46,0-.86.4-1.25.22l.34-.23-.85.1.48.21c-.45.29.05.71-.55.56.12-.06-.45,0-.69-.34h0a.74.74,0,0,1-.79.23c-.08-.18.07-.62,0-.74-.22.47-1.06.13-1.34.63a.72.72,0,0,0,.07-.48l-.19.38c-.21-.12-.24-.18-.21-.41-.63-.07.2.71-.54.4.06,0,0-.08.15-.14-.75-.16-1.45.24-2.14,0-.21-.56.6-.14.37-.61-1,.1-2.06.67-3,.54l.18.06c-.13.8-.71-.39-1.2,0,.12-.06.15-.45.12-.36a6.33,6.33,0,0,0-2.35.45l.13-.21a7.67,7.67,0,0,0-1.45-.19c-.12.2-.36.17-.22.46-1.29-1.16-2.47.63-3.61-.34.13,0,.32-.18.21-.18l-1,.19c.07.34.12.21.33.48a.81.81,0,0,1-.64.36c.44-.23,0-.55-.2-.75,0,.11,0,.23,0,.33-.52-.61-.09.7-.79.29l0-.19c-.26.1-.5.34-.79.29-.11-.41.28-.19.3-.52-.39,0-.78.76-1.14.36.17-.11.41-.12.58-.23-.39-.47-.44-.35-.73-.42h0l-.67-.21.17.12c-.49,1-1,.19-1.67.88.65-.65.11-.38.16-.83-.17-.13-.43-.27-.36-.4-.31.37-.53-.28-1,.25,0-.15-.34,0-.27-.38-.41.11.1.25.07.44-.64.5-1.49-.61-2.4.08-.78.28-.93.77-1.65,1-.25-.24.2-.53.2-.53a1.05,1.05,0,0,0-1.07,0c.08-.13,0-.24-.12-.4-.3,0-.2.53-.59.31a2,2,0,0,1,.3-.58c-.35.13-.7.4-1.07.54-.1-.26.22-.39.35-.56-.41.12-1.06.23-1.19.64l.26.14c-.15,0-.07-.34,0-.42.35-.31.5.14.52.29l-.26.09c.27.86,1.05-.14,1.57-.09l-.22.63.54-.52c.12.16.19.51-.06.6.37.31.33-.22.65.13a.07.07,0,0,1,0,.11l.36-.19c-.07.13.06.44-.16.35.66.36,1.06-.47,1.31,0l-.06,0c.92-.21.09-.46.78-1l.46,1.13.09-.46c.09,0,.28,0,.24.23.35-.31-.06-.2.15-.49.45.41,1.25-.2,1.35.53.16-.35-.43-.27,0-.51.14.79.56-.13,1,.23-.13.4-.52.19-.11.55.25-.69.81.15,1.16,0,0-.55.76-.23,1.34-.41,0,.18,1.11.3,1.65.5v.09c.1-.55.67-.45,1.08-.56a.61.61,0,0,1-.32.6h.39a.59.59,0,0,1,.46-.33l-.1.41c.52,0,1-.48,1.69-.21,0-.38-.52-1.07.18-1.33,0,.21,0,.57-.13.65.06,0,.21-.17.33-.08l-.28.35c.3.15.16-.29.4-.26,0,.29.18.21.14.44-.06,0-.21-.12-.3,0a1.07,1.07,0,0,1,.71.45c0-.17,0-.4.2-.44.51,0,.17.36.47.51.12-.2.45,0,.46-.43.15,0,.18.21.24.33.26-.2,1.24-.06.94-.53l-.07,0,0,0h0c.87-.44,1.81.25,2.67.06v.15c.52-.17,1.15-.1,1.52-.42a.4.4,0,0,1,.29.45c.39-.11.44-.28,1,0-.4.26.13.23-.41.19.51.13.63.37,1.18,0-.19.38.38.48.63.37l-.36-.27a1.89,1.89,0,0,1,.75,0l-.13.5c1.05.6,1.89-1,2.69,0,.27-.35-.57-.25-.32-.66.48.07,1,.79,1.13.79.66.28.62-.73,1.31-.54a.57.57,0,0,1,.34-.82c.48.06.59.75.29.89-.12,0-.17,0-.17-.1-.15.06-.36.14-.17.33l.07-.18c.24.18.9.17.74.46.37-.17.16-.29-.11-.39.62.26,1,0,1.6.18-.1-.09-.19-.3-.09-.3.93.22.41-.34,1-.42.36.27-.13.65.51.42.39.19.08.48-.07.62.58-.34,1.08.23,1.41.29l-.3.14a1.08,1.08,0,0,1,.48-.08l-.17-.36c.18.07.33.07.32.22.19-.24-.14-.6.23-.91.24.18.73-.2.81.27-.75-.16.08.48-.55.55a.64.64,0,0,1,.45,0c0,.06,0,.1-.07.13.71.42.33-.54,1.07-.53-.09.27.17.51.3.45-.3,0-.15-.44.13-.65.48.21.52-.15.77-.13l-.29-.09c.1-.27.34-.23.67-.32,0,.21-.3.14-.18.24.37-.47.84.48,1.35.16.24.19,0,.51.23.63.58-.35.63.36,1.24.08-.18-.36-.21-.27.22-.62l-1,.25.64-.52c-.3,0-.63.22-.81.16.3-.29.27-.2.13-.5.41.54.81-.31,1.29,0v.89c.71.39,1.27-.46,2.2-.23l-.3-.16c.13-.35.58,0,.88-.19,0,.3.16.41.29.59,0-.22.68,0,.77-.57l.41.39c.75.16.86-.85,1.58-.74-.21.32.11.53-.37.76.24,0,.46,0,.46-.15.14.18.67-.4.89-.12.11-.13.14-.44.41-.41a.2.2,0,0,1,0,.14c0-.14.42-.2.19-.52.74.92,2.07-.07,2.72.72a12.49,12.49,0,0,1,1.64-.21c0,.08,0,.14-.09.11.66.28.41-.85,1.16-.54.38.48-.4.26-.16.44.1,1,.9-.13,1.41.44l-.12.05c.38.33.94-.37,1.57-.3a.23.23,0,0,0,0,.15,3.44,3.44,0,0,1,1.85-.8c-.19.38-.27.2-.16.59.27-.05-.08-.62.46-.73.18.21.57.39.62.8l-.51,0c.26.53.67,0,.94.07l0,.24c.79-.08.8-.67,1.64-.63l-.09-.17c.46-.59.39.32.85-.11l.14.59A8.37,8.37,0,0,1,487.9,97a4.58,4.58,0,0,1-1.34.92c.3,0,1,0,1.18-.33-.12,0-.27.2-.39.11A1.71,1.71,0,0,1,488.8,97c-.1,1.15,1.57.29,2,1.18,1.06-.42,2.11.19,3.34.12-.43-.9.37,0,.29-.94.29-.06.4,0,.42,0l.88.55c.21.27-.28.2-.25.41.63.07.27.39.68.63-.08-.33.22-.47.58-.35l-.5-.42c.88-.49.76.77,1.65.29l-.28.29c.45-.17,1.68,0,2.13-.73.08.1.19.35,0,.42,1.09.11,2.43-.79,3.27-.33l-.08.22c.21-.06.36-.42.61-.19,0,.09-.08.22,0,.23s.54-.39.81-.26l-.23.25c1.07.3,1.64-.61,2.53-.76,0,.66.84.87,1.25,1v.09c1.24.08,2.1-.55,3.25-.81.71.72,2.42.3,3.56.71-.17-.12,0-.52.23-.58.27.13.75-.46.7.14h-.09c.2.6.75.44,1.18.45l.07-.79c1.13,1.15,3-.42,3.58.61.27-.2.6-.2.87-.39v.42a6.59,6.59,0,0,0,2.06.06l-.19.31c.53,0,.67-1.23,1.15-1.25l.15.63c.91,0,1.84.55,2.75,0,0,.09,0,.28-.19.3.43,0,1.67.43,1.51-.44,0,.57.95.06,1.44-.19l-.07.42c.42-.54.43-.68,1-.83.14.05.12.33-.06.23.46.21.36-.4.92-.18l-.21.27c.48,0,.44-.11.7-.42a.77.77,0,0,1,1,.48c.06-.23.32-.54.6-.43a.28.28,0,0,1-.11.28c.79.28,1.18-.49,1.72-.08a.37.37,0,0,0,.09.25,5.54,5.54,0,0,1-1.09-.06c0,.38.51.45.11,1,.41-.29,1.11-.92,1.6-.74a.4.4,0,0,1,.07.13l0,0a.33.33,0,0,0,.31-.07,1,1,0,0,0,.41.12c.06.32.58.17.84.19,0-.42.31-.36,0-.7,0,0,0,0-.22.06s-.08,0-.11.05,0,0,0,0l-.63,0c.2-.22.41-.4.69-.16.13-.27.27-.55.35-.68.35.59,1,.9,1.11,1.27.78-.24,1.83-.16,2.32-.95.22-.1.25.23.33.35-.12.08-.27.07-.34.18.44-.2,1.3-.08,1.41-.63.55.25-.31.51.45.42l-.1.17c1.5.88,2.44-1.42,4.1-.28-.12-.07-.17-.1-.2-.19,1.9.5,3.91-.47,5.79.32.53.16.59-.19.91-.46l.12.45.55-.52c.79-.38,1.37,1.11,2.36.39l-.13-.31c.36.06,1.14-.18,1.08.17,0,0,.12-.32.26-.16v.24l.88-.41c.68.18-.11,1,.88,1,.37-.09,1.06-.69.92-.85a.43.43,0,0,1-.39-.38l.33-.13c.07-.69.33-1.41-.5-1.9l-.58.43-.19-.34.49,0c-.28-.32-.45,0-.65.16a.63.63,0,0,0-.24-.38l-.57.67c-.07-.27.25-.54-.13-.69-.26.31.26.61-.18.81-.28-.31-.2-.57-.52-.3a.31.31,0,0,1,.15-.38c-.29.22-.77.1-.92.47-.28-.39-1,.1-.94-.56a1.45,1.45,0,0,1-.78.54c.49-.79-1,0-.87-.89-.35.71-1.29.32-1.93.71,0-.06.11-.17.16-.13-.36-.06-.46-.28-.69-.41,0,.59-.6.72-.9,1.08-.44-.56.26-.69.12-1.23,0,.47-.76.47-.61.87-.33-.35-.29-.17-.46-.66-.06.74-.31.13-.59.58-.49-.36-.13-.69-.66-.47C548.19,94.36,548.66,94.1,548.66,94.1ZM536,95.37h0l.26,0Zm-1.07,0h.46c0,.15,0,.3-.11.29C535.31,95.58,535.06,95.5,534.9,95.38Zm2.26,2.92c-.17.06-.23,0-.25-.11l.29,0,0,0A.65.65,0,0,1,537.16,98.3Z"/><path class="cls-1" d="M537.46,97.74l.07,0-.1-.09-.06.13Z"/><path class="cls-1" d="M440.78,97.12h0s0,0-.05-.06A.13.13,0,0,1,440.78,97.12Z"/><polygon class="cls-1" points="520.17 94.57 520.18 94.67 520.27 94.58 520.17 94.57"/><path class="cls-1" d="M434.9,95.67a.28.28,0,0,0-.07-.11A.2.2,0,0,0,434.9,95.67Z"/><path class="cls-1" d="M432.36,95.58l-.35-.15A2.12,2.12,0,0,0,432.36,95.58Z"/><path class="cls-1" d="M430.41,95.37a.67.67,0,0,0,0,.18h0Z"/><path class="cls-1" d="M461.43,94.87a.11.11,0,0,0,.08,0C461.69,94.77,461.57,94.8,461.43,94.87Z"/><path class="cls-1" d="M452.2,95.86a1.74,1.74,0,0,1,.3-.2C452.34,95.63,452.21,95.62,452.2,95.86Z"/><path class="cls-1" d="M471.74,94.37Z"/><path class="cls-1" d="M452.93,95.67a.44.44,0,0,0-.43,0A.7.7,0,0,0,452.93,95.67Z"/><path class="cls-1" d="M422,95.18l-.1,0a.08.08,0,0,1,0,.07Z"/><path class="cls-1" d="M421.85,95.23l-.1,0C421.8,95.28,421.84,95.27,421.85,95.23Z"/><path class="cls-1" d="M421.53,95.38l.22-.1C421.67,95.28,421.58,95.26,421.53,95.38Z"/><path class="cls-1" d="M424.54,95.37l0-.15A.28.28,0,0,0,424.54,95.37Z"/><path class="cls-1" d="M425.33,95.33c-.19,0-.47-.33-.74-.23l0,.12C424.69,95,425.15,95.59,425.33,95.33Z"/><path class="cls-1" d="M428.6,97.22l-.66-.12c.12.16.27.38,0,.42C428.74,98,427.74,97.15,428.6,97.22Z"/><path class="cls-1" d="M430.64,97.45c-.35.08,0,.24,0,.33C430.85,97.63,430.9,97.6,430.64,97.45Z"/><path class="cls-1" d="M445.38,97.46l0,.38C445.61,97.78,445.34,97.69,445.38,97.46Z"/><polygon class="cls-1" points="448.19 95.47 447.93 95.23 447.8 95.59 448.19 95.47"/><polygon class="cls-1" points="449.86 98.21 449.74 98.26 450.19 98.12 449.86 98.21"/><path class="cls-1" d="M474.61,98.07l-.08-.47C474.34,97.68,474.31,98.21,474.61,98.07Z"/><path class="cls-1" d="M485.3,97.59c.11.23.41.39.6.15C485.66,97.71,485.42,97.53,485.3,97.59Z"/><polygon class="cls-1" points="517.34 98.36 517.13 98.52 517.53 98.38 517.34 98.36"/><path class="cls-1" d="M552.42,154.1c.26-.13.11-.43-.61-.37l-.51.5Z"/><path class="cls-1" d="M547.57,153.18c-.85.24-1.83.66-1.28,1.12.84-.48,1-.28,2-.85.72-.06,1.26.16,1.13.34.26-.13,1.12.11,1.51-.2a5.39,5.39,0,0,0-3.37-.08C547.25,153.4,547.51,153.27,547.57,153.18Z"/><path class="cls-1" d="M477.12,152.4l.46.06A2.72,2.72,0,0,0,477.12,152.4Z"/><path class="cls-1" d="M433.48,152.13c.33,0,.47-.06.48-.11C433.66,152.06,433.4,152.09,433.48,152.13Z"/><path class="cls-1" d="M426,151.58l.44,0A.87.87,0,0,0,426,151.58Z"/><path class="cls-1" d="M477.12,152.4l-1.16-.15C475.88,152.41,476.55,152.37,477.12,152.4Z"/><path class="cls-1" d="M537.85,154.37a2.78,2.78,0,0,0,.64-.13l-.6.06A.25.25,0,0,1,537.85,154.37Z"/><path class="cls-1" d="M496.36,152h.36l.29-.2Z"/><path class="cls-1" d="M511.13,151.92c-.33,0-.45.41-.58.59a1.26,1.26,0,0,1,.73-.29C511.29,152.14,511.24,152.05,511.13,151.92Z"/><path class="cls-1" d="M534.54,152.67l.42-.06C534.85,152.63,534.67,152.64,534.54,152.67Z"/><path class="cls-1" d="M485.8,151.91a.34.34,0,0,0-.14-.15C485.66,151.81,485.71,151.86,485.8,151.91Z"/><path class="cls-1" d="M72.79,155.08a.22.22,0,0,0,0-.08C72.7,155,72.68,155.07,72.79,155.08Z"/><path class="cls-1" d="M55.67,153l.24,0a.69.69,0,0,0,.05-.24Z"/><path class="cls-1" d="M412.39,151h.06C412.81,151,412.6,151,412.39,151Z"/><path class="cls-1" d="M287.19,151.35c1.42.38-2.31.49-.17.91C286.82,152.09,289,151.6,287.19,151.35Z"/><path class="cls-1" d="M537.47,154.32c-.2,0-.4,0-.6,0A2.93,2.93,0,0,0,537.47,154.32Z"/><path class="cls-1" d="M287,152.26h0l.22,0Z"/><path class="cls-1" d="M381,151.3a1,1,0,0,0,.32.18S381.2,151.38,381,151.3Z"/><path class="cls-1" d="M404.37,151.9l-.58-.06A5,5,0,0,0,404.37,151.9Z"/><path class="cls-1" d="M368.81,151.89a2.57,2.57,0,0,0-.85,0l.13,0A1.24,1.24,0,0,1,368.81,151.89Z"/><path class="cls-1" d="M356.16,151.89a1.23,1.23,0,0,0,.23.09l.4,0Z"/><path class="cls-1" d="M111.24,154.87a1.94,1.94,0,0,1-.59-.37C110.85,154.79,109,154.9,111.24,154.87Z"/><path class="cls-1" d="M537.85,154.14a.49.49,0,0,1-.38.18l.42,0C537.93,154.23,537.94,154.17,537.85,154.14Z"/><path class="cls-1" d="M368.29,155.22l-2-.07C366.85,155.2,367.58,155.22,368.29,155.22Z"/><path class="cls-1" d="M202,154.81l-.46.05A1.08,1.08,0,0,0,202,154.81Z"/><path class="cls-1" d="M360.32,155.22a4.37,4.37,0,0,0-1.13-.29,1.08,1.08,0,0,0-.24.1Z"/><path class="cls-1" d="M110.65,154.49h0Z"/><path class="cls-1" d="M97.41,155.49c1.92,0,.9-.54,1.31-.86,2.28-.16,1,.41,1.83.69,1.43-.14,2.53-.65,3.59-.63.08.09.29.12,0,.24,1.51-.44,4.48,0,6.24-.58a.53.53,0,0,1,.23.14.77.77,0,0,1-.27-.76c.86,0,1.59-.35,1.92,0a1.24,1.24,0,0,0-.82.25l.9-.16c.81.52-1.23.18-1.23.57a31.39,31.39,0,0,1,5.15-.45c.28.51-3.15.17-1.35.62l-2.08-.19c1.58.8-1.27-.06.19.8,2.74.15,3.06-.26,5.79-.11.62-.28-.2-.42.42-.7,3.88-.51,3,1.28,5.9.6a3.42,3.42,0,0,1,3.06-.64l-.69.57c2.65.06,1.51-.83,4.29-.44-.5.23-2.09.19-1.69.26,1.8.46,1.28-.33,2.66-.33l.28.51c2.83-.08,5.93-.44,9.06-.54-.17.15-.71.31,0,.47a88.5,88.5,0,0,1,12.22.36l1.45-.44c.34,0,.63.2.26.29,1.48.17.08-.28.79-.45s1.11.25.58.38c2.61-.37,7.45-.8,10.2-.33l-.54.13c2.15.18,2.42-.9,4.41-.49l-.38.08c4.66.19,9.8-.22,13.35.45.68-.64,4.61.28,4.91-.6a36,36,0,0,0,5.64.89c1,0,1.49-.55,2.73-.65l0,.47,1.68-.49.89.55,1.16-.12c-.46,0-1-.2-.91-.34,1.81-.21,4.41.33,4.46.56l4.28-.39c-.09.19-.81.25-1.38.37,2.29-.47.42.49,2.51.05-.28-.1.15-.27.2-.36a21.11,21.11,0,0,0,5.18.16l-.33.32c3.18.08,6.7-.15,10.26-.15-1.28-.15-1-.7.06-.75l.42.49c.68-.31-1.09-.19.3-.56,1.33.06.89.56.13.72l1.62-.17c.09.14-.29.22-.39.41.67-.31,2.8.49,3.76,0l.09.14c3.57,0,5.18-.16,8.09-.18.05-.43,1.19-.33,2.06-.67,2.13.13,4.5.46,7.07.43,1.81-.21.53-.36,1.34-.61.13.38,2.7.35,1.37.62,3.09-.06,3.94-.07,7.85-.38-.43-.16-.9-.23-.66-.36.71-.06,1.62.16,1.51.34l-.18,0c4.38-.57,10.11,1.12,13.6.32l-.2,0,3.62-.41c1.67.06-1,.28.24.52,3.9-.64,6.16.09,9.38-.33,2.49,1.13,8.83-.08,12.18.64l-.19-.27c.87-.26,1.05.16,1.69.22-.09-.21-.94-.24-.4-.39,7.35-.32,15.17.39,22.71.63,2.76.08,1.57-1.38,5-.74l-1,.5c5.56-.6,11.37,0,16.82-.49-.32.12-.33.27-.86.26,1.15.36,4.25,0,4.27-.27.85,0,.2.26.72.41,1.15.21,2.89-.46,3.51-.1.1.06-.33.12-.54.15.75-.18,3.51,0,2.79-.38,2,.2,3.91-.18,5.54.07,1.06-.47,3.5.22,3.83-.44-.14.68,3.59.55,4.88.23-.43.21,1.13.21.62.5,1.47,0,2.83-.14,2.57-.49,2.72.81,5.46-.65,7,.39,4.38-.36,8.44-.61,12.38-.77-.14.68-4.36.07-4.19.78,3.74-.28,5.9-.86,9.61-.7,1,.09-.55.29-.87.41,3.73-.28,7.22.06,10.54-.31,0,.07-.36.14-.7.19.65,0,1.52.1,1.45-.21l-.64.08c-1.05-.44,2.6-.93,2.72-1.17-1.12.89,3.28.23,1.51,1.34.44-.06,1-.2.88-.41.64.06.84.18.19.41,2.35-.16,1.51-.49,3.64-.48,0,.15-.44.2-.66.38a10.73,10.73,0,0,1,4-.46c-.11.09.1.21-.44.21,3.09,0,5.26-.78,8.65-.5-1,.65,1.15.22,1.33.78l1.82-.17-.73-.27c1.59,0,3-.4,4.37-.22l-1.18.23,3-.1L433,154c1.62-.29-.17-.71,1.95-.56a18.31,18.31,0,0,1,2.43.34h0a7.6,7.6,0,0,1,2.78-.23c.31.18-.24.62,0,.74.77-.46,3.73-.13,4.72-.63-.33.12-.35.42-.24.48l.65-.38c.74.12.85.18.73.41,2.22.07-.71-.71,1.93-.4a3.62,3.62,0,0,1-.54.14c2.65.16,5.12-.24,7.55-.05.72.56-2.13.14-1.3.61,3.5-.1,7.26-.67,10.66-.54l-.64-.06c.47-.8,2.53.39,4.25,0-.42.06-.55.45-.44.36a74.34,74.34,0,0,0,8.28-.45l-.44.21c1.37.18,3.61.1,5.09.19.44-.2,1.29-.17.77-.46,4.57,1.16,8.71-.63,12.76.34-.49,0-1.16.18-.77.18l3.45-.19c-.27-.34-.45-.21-1.18-.48a6.63,6.63,0,0,1,2.27-.36c-1.55.23,0,.55.68.75-.11-.11.12-.23.06-.33,1.8.61.3-.7,2.76-.29l-.13.19a16.44,16.44,0,0,1,2.77-.29c.41.41-1,.19-1.05.52,1.4,0,2.75-.76,4-.36-.6.11-1.45.12-2,.23a6.56,6.56,0,0,0,2.55.42h-.1l2.37.21-.61-.12c1.75-1.05,3.56-.19,5.91-.88-2.29.65-.38.38-.55.83.6.13,1.51.27,1.25.4,1.11-.37,1.85.28,3.42-.25.07.15,1.19,0,.94.38,1.44-.11-.34-.25-.22-.44,2.23-.5,5.23.61,8.44-.08,2.76-.28,3.27-.77,5.83-1,.87.24-.71.53-.71.53a12.16,12.16,0,0,0,3.76,0c-.26.13,0,.24.41.4,1.06,0,.71-.53,2.1-.31a3.62,3.62,0,0,1-1,.58c1.24-.13,2.47-.4,3.76-.54.34.26-.78.39-1.23.56,1.44-.12,3.74-.23,4.19-.64l-.93-.14c.53,0,.27.34-.11.42-1.24.31-1.79-.14-1.86-.29l.91-.09c-.94-.86-3.68.14-5.52.09l.76-.63-1.89.52c-.4-.16-.68-.51.23-.6-1.32-.31-1.17.22-2.3-.13-.13-.05-.07-.08,0-.1l-1.29.18c.25-.13-.21-.44.58-.35-2.32-.36-3.74.47-4.62,0l.2,0c-3.22.21-.31.46-2.73,1l-1.62-1.13-.32.46c-.33,0-1-.05-.87-.23-1.23.31.21.2-.5.49-1.6-.41-4.41.2-4.77-.53-.58.35,1.53.27-.18.51-.49-.79-2,.13-3.43-.23.44-.4,1.83-.19.37-.55-.88.69-2.85-.15-4.08,0-.06.55-2.68.23-4.75.41.14-.18-3.89-.3-5.81-.5l.06-.09c-.37.55-2.36.45-3.8.56,0-.33.31-.46,1.1-.6h-1.36a3.85,3.85,0,0,1-1.63.33l.35-.41c-1.81,0-3.64.48-6,.21-.13.38,1.85,1.07-.61,1.33-.09-.21-.18-.57.46-.65a3.39,3.39,0,0,1-1.17.08l1-.35c-1.06-.15-.56.29-1.4.26,0-.29-.63-.21-.51-.44a4.23,4.23,0,0,0,1.07,0,7.74,7.74,0,0,1-2.49-.45c.08.17,0,.4-.7.44-1.81,0-.62-.36-1.68-.51-.43.2-1.59,0-1.62.43a1.15,1.15,0,0,1-.83-.33c-.93.2-4.37.06-3.31.53l.24,0-.16,0h0c-3.06.44-6.37-.25-9.41-.06v-.15a50,50,0,0,0-5.34.42c-.54,0-1.27-.27-1-.45a11.64,11.64,0,0,1-3.55,0c1.4-.26-.48-.23,1.43-.19a10.75,10.75,0,0,0-4.15,0c.66-.38-1.35-.48-2.21-.37l1.26.27a23.5,23.5,0,0,1-2.66,0l.46-.5c-3.69-.6-6.65,1-9.46,0-1,.35,2,.25,1.13.66a33.5,33.5,0,0,1-4-.79c-2.32-.28-2.17.73-4.6.54.31.18.6.65-1.22.82-1.7-.06-2.08-.75-1-.89.41,0,.6,0,.58.1.55-.06,1.27-.14.6-.33l-.22.18c-.84-.18-3.18-.17-2.63-.46-1.28.17-.55.29.4.39-2.18-.26-3.4,0-5.65-.18.36.09.69.3.33.3-3.29-.22-1.44.34-3.67.42-1.27-.27.45-.65-1.79-.42-1.37-.19-.29-.48.25-.62-2,.34-3.82-.23-5-.29l1.08-.14A13,13,0,0,1,416,151l.62.36c-.64-.07-1.17-.07-1.16-.22-.65.24.5.6-.79.91-.85-.18-2.57.2-2.86-.27,2.65.16-.29-.48,2-.55a7.8,7.8,0,0,1-1.6,0c-.09-.06.09-.1.27-.13-2.54-.42-1.17.54-3.8.53.34-.27-.61-.51-1-.45,1.06,0,.51.44-.46.65a10.38,10.38,0,0,0-2.72.13l1,.09a6.13,6.13,0,0,1-2.36.32c-.1-.21,1.07-.14.65-.24-1.31.47-2.95-.48-4.77-.16-.84-.19-.08-.51-.82-.63-2,.35-2.21-.36-4.35-.08.62.36.72.27-.79.62l3.53-.25-2.26.52c1.06,0,2.24-.22,2.88-.16-1.08.29-1,.2-.46.5-1.45-.54-2.88.31-4.57-.05l.05-.89c-2.52-.39-4.49.46-7.77.23l1.05.16c-.44.35-2,.05-3.09.19.1-.3-.56-.41-1-.59.06.22-2.4,0-2.7.57l-1.46-.39c-2.65-.16-3,.85-5.58.74.77-.32-.39-.53,1.32-.76-.85,0-1.62,0-1.63.15-.5-.18-2.36.4-3.14.12a2.24,2.24,0,0,1-1.43.41c-.11-.06,0-.14,0-.14s-1.5.2-.66.52c-2.62-.92-7.33.07-9.61-.72-1.86.1-4.09.19-5.78.21.11-.08,0-.14.32-.11-2.32-.28-1.42.85-4.07.54-1.35-.48,1.4-.26.56-.44-.37-1-3.19.13-5-.44l.43-.05c-1.36-.33-3.32.37-5.55.3,0,0,.11-.09,0-.15a33.49,33.49,0,0,1-6.54.8c.66-.38,1-.2.56-.59-1,0,.28.62-1.63.73-.62-.21-2-.39-2.19-.8l1.81,0c-.93-.53-2.34,0-3.29-.07l.12-.24c-2.77.08-2.81.67-5.78.63l.31.18c-1.63.58-1.37-.33-3,.1l-.49-.59c-1.07.14-3.75.57-5.68.68a33,33,0,0,1,4.74-.92,17.08,17.08,0,0,0-4.17.33,4.7,4.7,0,0,1,1.39-.11,15.26,15.26,0,0,1-5.14.69c.38-1.15-5.52-.29-7.06-1.18-3.75.42-7.43-.19-11.8-.12,1.55.9-1.27,0-1,.95a4.79,4.79,0,0,1-1.49,0l-3.08-.55c-.73-.27,1-.2.87-.41-2.23-.07-.93-.39-2.41-.63.31.33-.77.47-2,.35l1.79.42c-3.11.49-2.69-.77-5.83-.29l1-.29c-1.61.17-5.93,0-7.51.73-.29-.1-.66-.35.05-.42-3.85-.11-8.57.79-11.56.33l.3-.22c-.72.06-1.25.42-2.15.19,0-.09.29-.22-.05-.23a10.66,10.66,0,0,1-2.85.26l.81-.25c-3.75-.3-5.76.61-8.9.76,0-.66-2.95-.87-4.42-1l.05-.09c-4.37-.08-7.42.55-11.47.81-2.51-.72-8.5-.3-12.54-.71.62.12-.1.52-.82.58-.95-.13-2.62.46-2.47-.14h.34c-.71-.6-2.66-.44-4.18-.45l-.25.79c-4-1.15-10.42.42-12.59-.61-1,.2-2.14.2-3.09.39l.05-.42c-2.66-.11-4-.16-7.27-.06l.67-.31c-1.86,0-2.34,1.23-4.05,1.25l-.52-.63c-3.23,0-6.5-.55-9.7,0,.05-.09.15-.28.67-.3-1.52,0-5.89-.43-5.33.44,0-.57-3.34-.06-5.08.19l.27-.42a8.83,8.83,0,0,1-3.58.83c-.49-.05-.43-.33.22-.23-1.63-.21-1.27.4-3.24.18l.74-.27a4.38,4.38,0,0,0-2.46.42c-1.06.17-3.18-.1-3.42-.48a3.18,3.18,0,0,1-2.13.43c-.13-.14.23-.23.41-.28-2.8-.28-4.16.49-6.08.08a.4.4,0,0,0-.33-.25c2.22,0,4,0,3.84.06,0-.38-1.79-.45-.36-1a21.51,21.51,0,0,1-5.65.74.92.92,0,0,1-.24-.13l.18-.05a3.58,3.58,0,0,0-1.1.07,10.37,10.37,0,0,0-1.45-.12c-.21-.32-2.06-.17-2.95-.19.07.42-1.1.36,0,.7-.14,0,.17,0,.76-.06a2.73,2.73,0,0,0,.38,0,.15.15,0,0,1-.06,0l2.23,0A4.24,4.24,0,0,1,137,152c-.46.27-1,.55-1.25.68-1.22-.59-3.58-.9-3.91-1.27-2.73.24-6.44.16-8.15,1-.78.1-.9-.23-1.19-.35a8.45,8.45,0,0,0,1.23-.18c-1.55.2-4.6.08-5,.63-2-.25,1.1-.51-1.59-.42l.36-.17c-5.29-.88-8.6,1.42-14.47.28.41.07.61.1.69.19-6.68-.5-13.78.47-20.38-.32a6.62,6.62,0,0,0-3.22.46l-.41-.45-2,.52c-2.77.38-4.8-1.11-8.32-.39l.46.31c-1.26-.06-4,.18-3.79-.17a1,1,0,0,1-.91.16l0-.24-3.1.41c-2.4-.18.38-.94-3.13-1-1.3.09-3.71.69-3.22.85.53,0,1.34.15,1.38.38l-1.19.13c-.21.69-1.13,1.41,1.8,1.9l2-.43.65.34-1.71,0a3.32,3.32,0,0,0,2.28-.16,1.47,1.47,0,0,0,.85.38l2-.67c.24.27-.9.54.44.69.94-.31-.9-.61.65-.81,1,.31.7.57,1.84.3.16.18-.08.3-.54.38,1-.22,2.7-.1,3.23-.47,1,.39,3.44-.1,3.34.56a9.91,9.91,0,0,1,2.73-.54c-1.71.79,3.51,0,3,.89,1.27-.71,4.58-.32,6.82-.71a1,1,0,0,1-.57.13,14,14,0,0,1,2.44.41c.16-.59,2.13-.72,3.19-1.08,1.54.56-.94.69-.46,1.23-.07-.47,2.69-.47,2.17-.87,1.18.35,1,.17,1.62.66.21-.74,1.11-.13,2.09-.58,1.71.36.44.69,2.32.47C99.08,155.23,97.41,155.49,97.41,155.49Zm44.73-1.27h0l-.92,0Zm3.76,0h-1.63c-.13-.15,0-.3.39-.29C144.46,154,145.34,154.09,145.9,154.21Zm-8-2.92c.6-.06.8,0,.88.11l-1,0-.07.05A.59.59,0,0,1,138,151.29Z"/><path class="cls-1" d="M136.88,151.85l-.24,0c.12,0,.23.07.35.09l.21-.13Z"/><path class="cls-1" d="M477.66,152.47h-.08a.59.59,0,0,1,.16.06A.28.28,0,0,1,477.66,152.47Z"/><polygon class="cls-1" points="197.81 155.02 197.81 154.91 197.48 155.01 197.81 155.02"/><path class="cls-1" d="M498.36,153.92a.82.82,0,0,0,.27.11S498.5,154,498.36,153.92Z"/><path class="cls-1" d="M507.3,154l1.27.15C508,154.08,507.62,154,507.3,154Z"/><path class="cls-1" d="M514.18,154.22a.49.49,0,0,0,.14-.18h0Z"/><path class="cls-1" d="M404.85,154.72a1.14,1.14,0,0,0-.27,0C404,154.82,404.38,154.79,404.85,154.72Z"/><path class="cls-1" d="M437.38,153.73c-.34.08-.68.15-1,.2C436.92,154,437.37,154,437.38,153.73Z"/><path class="cls-1" d="M368.51,155.22h0Z"/><path class="cls-1" d="M434.82,153.92a5.17,5.17,0,0,0,1.52,0A8.57,8.57,0,0,0,434.82,153.92Z"/><path class="cls-1" d="M544,154.41l.34,0s0-.05,0-.07Z"/><path class="cls-1" d="M544.36,154.36l.36-.05A.75.75,0,0,0,544.36,154.36Z"/><path class="cls-1" d="M545.5,154.21l-.78.1A1.6,1.6,0,0,0,545.5,154.21Z"/><path class="cls-1" d="M534.88,154.22l-.1.15A.21.21,0,0,0,534.88,154.22Z"/><path class="cls-1" d="M532.12,154.26a13.61,13.61,0,0,0,2.57.23l.09-.12C534.34,154.6,532.74,154,532.12,154.26Z"/><path class="cls-1" d="M520.57,152.37l2.32.12c-.41-.16-.94-.38.11-.42C520.08,151.59,523.61,152.44,520.57,152.37Z"/><path class="cls-1" d="M513.38,152.14c1.25-.08,0-.24,0-.33C512.64,152,512.45,152,513.38,152.14Z"/><path class="cls-1" d="M461.44,152.13l.12-.38C460.6,151.81,461.56,151.9,461.44,152.13Z"/><polygon class="cls-1" points="451.51 154.12 452.44 154.36 452.89 154 451.51 154.12"/><polygon class="cls-1" points="445.64 151.38 446.06 151.33 444.46 151.47 445.64 151.38"/><path class="cls-1" d="M358.41,151.52l.29.47C359.35,151.91,359.48,151.38,358.41,151.52Z"/><path class="cls-1" d="M320.75,152a3.18,3.18,0,0,0-2.12-.15C319.47,151.88,320.32,152.06,320.75,152Z"/><polygon class="cls-1" points="207.8 151.23 208.56 151.07 207.13 151.21 207.8 151.23"/><path class="cls-1" d="M419.57,152.1c-.08.13,0,.42.18.36l.16-.49Z"/><path class="cls-1" d="M421.07,153a1.07,1.07,0,0,0,.39-1.12c-.26.48-.32.28-.6.85a.3.3,0,0,1-.35-.35c-.08.13-.35-.11-.47.21a.65.65,0,0,0,1,.08C421.16,152.8,421.08,152.93,421.07,153Z"/><path class="cls-1" d="M442.85,153.79l-.14-.06A.25.25,0,0,0,442.85,153.79Z"/><path class="cls-1" d="M456.35,154.07c-.1,0-.14.06-.15.1S456.38,154.11,456.35,154.07Z"/><path class="cls-1" d="M458.66,154.61l-.14,0C458.57,154.63,458.63,154.65,458.66,154.61Z"/><path class="cls-1" d="M442.85,153.79l.36.16C443.24,153.79,443,153.83,442.85,153.79Z"/><path class="cls-1" d="M424.07,151.82a.53.53,0,0,0-.2.13l.19,0A.22.22,0,0,1,424.07,151.82Z"/><path class="cls-1" d="M436.9,154.2h-.11a1.29,1.29,0,0,0-.09.2Z"/><path class="cls-1" d="M432.34,154.27c.1,0,.13-.4.17-.59-.05.18-.13.26-.22.29A.93.93,0,0,0,432.34,154.27Z"/><path class="cls-1" d="M425.09,153.53l-.12.06Z"/><path class="cls-1" d="M440.17,154.29a1.55,1.55,0,0,0,0,.15A.24.24,0,0,0,440.17,154.29Z"/><path class="cls-1" d="M567.92,151.12a.16.16,0,0,0,0,.07S568,151.12,567.92,151.12Z"/><path class="cls-1" d="M573.21,153.21l-.07,0a1.94,1.94,0,0,0,0,.24Z"/><path class="cls-1" d="M462.88,155.15h0C462.75,155.19,462.81,155.18,462.88,155.15Z"/><path class="cls-1" d="M501.6,154.84c-.44-.37.72-.48.06-.9C501.72,154.1,501.05,154.6,501.6,154.84Z"/><path class="cls-1" d="M424.19,151.88h.19A.36.36,0,0,0,424.19,151.88Z"/><path class="cls-1" d="M501.66,153.94h0l-.07,0Z"/><path class="cls-1" d="M472.6,154.9a.52.52,0,0,0-.1-.18S472.52,154.81,472.6,154.9Z"/><path class="cls-1" d="M465.36,154.3l.18.06A.42.42,0,0,0,465.36,154.3Z"/><path class="cls-1" d="M476.36,154.3c.09,0,.13.1.26,0a.1.1,0,0,0,0-.05C476.53,154.34,476.47,154.37,476.36,154.3Z"/><path class="cls-1" d="M480.27,154.3l-.07-.08-.13,0Z"/><path class="cls-1" d="M556,151.32a1.2,1.2,0,0,1,.18.38C556.14,151.4,556.72,151.29,556,151.32Z"/><path class="cls-1" d="M424.07,152.06c0-.11.06-.16.12-.18l-.13,0A.21.21,0,0,0,424.07,152.06Z"/><path class="cls-1" d="M476.52,151l.62.06A3,3,0,0,0,476.52,151Z"/><path class="cls-1" d="M528,151.38l.14,0A.13.13,0,0,0,528,151.38Z"/><path class="cls-1" d="M479,151a.92.92,0,0,0,.35.29.21.21,0,0,0,.07-.11Z"/><path class="cls-1" d="M556.2,151.7Z"/><path class="cls-1" d="M560.3,150.7c-.59,0-.28.55-.4.86-.71.16-.33-.4-.57-.69-.44.15-.78.66-1.11.64,0-.1-.09-.13,0-.24-.47.44-1.39,0-1.93.57a.5.5,0,0,1-.08-.14,2,2,0,0,1,.09.77c-.27,0-.49.35-.59,0,.16,0,.17-.13.25-.25l-.28.16c-.25-.52.38-.18.38-.56-.54.17-1.18.6-1.59.45-.09-.51,1-.17.42-.62l.64.19c-.49-.8.39.06-.06-.8-.85-.15-1,.26-1.79.11-.19.28.06.42-.13.7-1.2.51-.94-1.28-1.83-.6-.23.34-.31,1-.94.64l.21-.58c-.82,0-.47.83-1.32.44.15-.22.64-.19.52-.26-.56-.45-.4.33-.83.33l-.08-.51c-.88.08-1.84.45-2.8.54,0-.15.21-.31,0-.46a8.83,8.83,0,0,1-3.78-.37l-.45.44c-.1,0-.19-.2-.08-.28-.46-.17,0,.28-.24.45a.22.22,0,0,1-.18-.39c-.81.38-2.31.81-3.16.34l.17-.13c-.67-.18-.75.9-1.37.49l.12-.08c-1.44-.19-3,.21-4.13-.45-.21.63-1.42-.29-1.52.6-.82-.44-.58-.6-1.74-.89-.31,0-.46.55-.84.64v-.46l-.52.49-.28-.56-.36.12c.15,0,.31.21.28.34a1.26,1.26,0,0,1-1.37-.56l-1.33.39c0-.18.25-.25.43-.36-.71.47-.13-.49-.78-.06.09.11-.05.28-.06.37a2.12,2.12,0,0,0-1.6-.16l.1-.32c-1-.08-2.07.15-3.18.14a.4.4,0,0,1,0,.76l-.13-.49c-.21.3.33.18-.09.55-.42-.05-.28-.55,0-.71l-.51.17c0-.15.09-.22.12-.41-.2.3-.86-.49-1.16,0l0-.15c-1.1,0-1.6.16-2.5.19,0,.42-.37.33-.63.67a8.26,8.26,0,0,0-2.19-.43c-.56.21-.17.36-.42.61,0-.39-.83-.35-.42-.63a9.71,9.71,0,0,0-2.43.39c.13.16.28.23.2.36s-.49-.16-.46-.35l.05,0c-1.35.58-3.12-1.12-4.2-.32l.06,0-1.12.42c-.52-.07.31-.29-.07-.53-1.21.64-1.91-.09-2.91.34-.76-1.14-2.73.08-3.77-.65l.06.27c-.26.26-.32-.15-.52-.21,0,.2.29.24.13.38-2.28.32-4.7-.39-7-.63-.85-.07-.48,1.38-1.56.74l.31-.49c-1.72.59-3.52,0-5.21.48.1-.11.11-.26.27-.26-.35-.36-1.31,0-1.32.28-.26,0-.06-.27-.22-.42-.36-.21-.9.46-1.09.1,0,0,.1-.11.17-.14-.24.17-1.09,0-.86.37-.64-.2-1.21.19-1.72-.06-.33.46-1.08-.22-1.18.43,0-.68-1.11-.54-1.51-.23.13-.2-.35-.21-.19-.49-.46,0-.88.13-.8.48-.84-.81-1.69.66-2.16-.38a30.19,30.19,0,0,1-3.83.77c0-.68,1.35-.07,1.29-.78-1.15.28-1.82.86-3,.69-.29-.09.17-.29.27-.4-1.15.27-2.23-.07-3.26.3,0-.06.11-.13.22-.18-.2,0-.47-.1-.45.21l.2-.09c.32.45-.81.94-.84,1.17.34-.88-1-.22-.47-1.33a.39.39,0,0,0-.27.41c-.2-.06-.26-.18-.06-.42-.73.17-.47.5-1.13.49,0-.15.14-.21.21-.38a1.3,1.3,0,0,1-1.23.45c0-.09,0-.2.14-.2-1,0-1.63.77-2.68.49.31-.65-.35-.21-.41-.77l-.56.16.22.28c-.49,0-.92.39-1.35.21l.37-.23L456,152l.53.21c-.5.29.05.71-.61.55.14-.06-.49,0-.75-.33h0a.85.85,0,0,1-.86.23c-.1-.18.07-.62,0-.74-.24.47-1.15.13-1.46.63a.6.6,0,0,0,.07-.47l-.2.38c-.23-.12-.26-.18-.22-.41-.69-.07.22.71-.6.4.06,0,0-.09.17-.15-.82-.16-1.59.25-2.34.06-.22-.57.66-.14.41-.62-1.09.11-2.25.68-3.3.55l.19.06c-.14.8-.78-.39-1.31,0,.13-.06.17-.44.14-.35a7.16,7.16,0,0,0-2.56.44l.13-.2a10.06,10.06,0,0,0-1.57-.2c-.14.21-.4.17-.24.47-1.41-1.16-2.7.62-3.95-.35.15,0,.36-.17.24-.18l-1.07.19c.09.35.14.21.37.48a.91.91,0,0,1-.7.37c.48-.23,0-.56-.21-.75,0,.1,0,.22,0,.33-.56-.62-.1.7-.86.28l0-.18c-.28.09-.54.33-.85.28-.13-.4.3-.19.32-.52-.43,0-.85.76-1.24.36.18-.11.45-.11.63-.22a1,1,0,0,0-.79-.43h0l-.73-.21.19.13c-.54,1-1.1.19-1.83.87.71-.64.12-.37.17-.83-.19-.12-.47-.26-.39-.39-.34.37-.57-.29-1.06.25,0-.15-.36,0-.29-.38-.44.11.11.25.07.43-.69.5-1.62-.6-2.61.08-.85.28-1,.78-1.8,1-.27-.23.22-.53.22-.53a1.3,1.3,0,0,0-1.17,0c.09-.12,0-.23-.12-.4-.33,0-.22.54-.65.32a2.3,2.3,0,0,1,.32-.59c-.38.14-.76.41-1.16.54-.1-.25.24-.38.38-.55-.45.11-1.16.23-1.3.63l.29.15c-.16,0-.08-.35,0-.42.38-.32.55.14.57.28l-.28.1c.29.86,1.14-.14,1.71-.09l-.24.62.59-.51c.12.16.21.51-.08.6.41.31.37-.22.72.12,0,.06,0,.09,0,.11l.4-.19c-.07.14.07.44-.18.35.72.36,1.16-.46,1.43,0l-.06,0c1-.21.1-.46.85-1l.5,1.13.1-.46c.1,0,.3.06.26.24.39-.32-.06-.2.16-.5.5.42,1.36-.19,1.48.54.17-.35-.48-.27.05-.51.15.78.61-.14,1.06.22-.14.41-.56.19-.11.55.27-.68.88.15,1.26,0,0-.54.83-.22,1.47-.41,0,.19,1.2.3,1.8.5l0,.09c.11-.55.73-.44,1.17-.56a.6.6,0,0,1-.34.61h.42a.68.68,0,0,1,.51-.34l-.11.42c.56,0,1.13-.49,1.85-.21,0-.39-.58-1.07.18-1.33,0,.21.06.56-.14.65.07,0,.23-.17.36-.09l-.3.35c.33.16.17-.29.43-.26,0,.3.2.22.16.45-.07,0-.23-.12-.33,0a1.17,1.17,0,0,1,.77.46c0-.17,0-.4.22-.44.56,0,.19.36.52.51.13-.21.49,0,.5-.44.16,0,.19.21.25.33.29-.19,1.36-.05,1-.53l-.08,0,.05,0h0c.95-.44,2,.26,2.91.07v.14c.56-.17,1.25-.1,1.65-.41.17,0,.39.27.32.44.43-.11.48-.28,1.1,0-.43.26.15.23-.44.19.56.13.68.36,1.28,0-.2.38.42.48.69.36l-.39-.27a2.8,2.8,0,0,1,.82,0l-.14.5c1.14.61,2.06-1,2.92,0,.31-.34-.62-.24-.35-.65.53.07,1.08.78,1.24.79.72.27.67-.73,1.43-.55a.55.55,0,0,1,.37-.82c.53.07.65.75.31.89-.12,0-.18,0-.18-.1-.17.07-.39.14-.18.34l.07-.18c.26.18,1,.16.81.45.4-.17.17-.29-.12-.38.67.26,1.05,0,1.74.18-.11-.1-.21-.31-.1-.31,1,.22.45-.33,1.14-.41.39.27-.14.65.55.42.43.18.09.47-.08.62.64-.35,1.19.22,1.55.28l-.34.15a1.16,1.16,0,0,1,.53-.08l-.19-.36c.2.06.36.06.36.21.2-.23-.16-.59.24-.91.27.18.8-.19.89.28-.82-.16.09.47-.6.55a.69.69,0,0,1,.49,0c0,.05,0,.1-.08.12.78.43.36-.53,1.17-.52-.1.27.19.5.32.45-.33,0-.15-.45.15-.65.52.21.56-.15.84-.13l-.32-.1c.11-.26.37-.23.73-.31,0,.2-.33.14-.2.23.41-.47.92.49,1.48.17.26.18,0,.5.25.62.63-.34.69.37,1.35.08-.19-.36-.23-.27.24-.62l-1.09.26.7-.53c-.33,0-.69.23-.89.17.33-.29.3-.2.14-.5.45.54.89-.31,1.41,0v.88c.78.4,1.39-.45,2.4-.23l-.32-.15c.13-.35.62,0,.95-.19,0,.29.18.4.32.59,0-.22.74,0,.83-.58l.46.39c.82.16.93-.84,1.72-.74-.24.32.12.53-.41.76.27,0,.5.06.51-.15.15.19.73-.39,1-.11.11-.13.15-.44.44-.42a.23.23,0,0,1,0,.15c0-.15.46-.2.21-.53.81.92,2.26-.07,3,.73A14.64,14.64,0,0,1,482,154c0,.09,0,.15-.1.12.72.27.45-.85,1.27-.54.41.47-.44.25-.18.44.11,1,1-.14,1.54.43l-.13.06c.42.33,1-.37,1.71-.3a.23.23,0,0,0,0,.15,3.88,3.88,0,0,1,2-.8c-.21.38-.3.2-.17.59.29-.06-.09-.63.5-.73.19.2.62.39.68.8l-.56,0c.28.54.72,0,1,.08l0,.23c.85-.08.87-.66,1.79-.62l-.1-.18c.5-.58.42.33.92-.1l.16.59a8.85,8.85,0,0,1,1.75-.69,4.9,4.9,0,0,1-1.46.93c.33,0,1.12,0,1.29-.34-.14.06-.3.2-.43.11a2,2,0,0,1,1.59-.68c-.12,1.15,1.7.29,2.18,1.18,1.16-.42,2.3.18,3.65.11-.48-.89.39,0,.31-.94.32-.06.44,0,.46,0l1,.54c.22.27-.3.21-.27.41.69.07.29.39.74.63-.09-.32.24-.47.63-.34l-.55-.42c1-.49.83.77,1.8.28l-.3.29c.49-.17,1.83,0,2.32-.73.09.11.2.36,0,.42,1.19.11,2.64-.78,3.57-.33l-.09.23c.22-.07.38-.42.66-.2,0,.09-.09.23,0,.24s.59-.39.88-.26l-.25.25c1.16.29,1.78-.62,2.75-.77,0,.66.91.88,1.37,1l0,.1c1.35.08,2.3-.55,3.55-.81.78.72,2.63.3,3.88.7-.19-.12,0-.51.25-.58.3.13.81-.46.77.15h-.11c.22.59.82.43,1.29.45l.08-.79c1.23,1.15,3.22-.43,3.89.61.3-.2.67-.2,1-.4V155a8.23,8.23,0,0,0,2.25.06l-.21.3c.57,0,.72-1.22,1.25-1.25l.16.64c1,0,2,.54,3,0,0,.09,0,.27-.21.3.47,0,1.82.43,1.65-.44,0,.56,1,0,1.58-.2l-.09.42c.46-.53.47-.68,1.11-.83.15.06.13.34-.07.23.5.22.39-.4,1-.17l-.23.26c.52,0,.48-.11.77-.42a.85.85,0,0,1,1,.49c.07-.23.36-.54.66-.43a.25.25,0,0,1-.13.27c.87.29,1.29-.49,1.89-.07a.32.32,0,0,0,.1.24,6.5,6.5,0,0,1-1.19-.06c0,.39.55.45.11,1,.45-.29,1.21-.93,1.75-.74a.32.32,0,0,1,.07.13l-.06,0a.4.4,0,0,0,.35-.06,1.53,1.53,0,0,0,.44.12c.07.31.64.17.92.18,0-.42.34-.35,0-.7,0,0-.05.05-.24.07l-.12,0,0,0-.69,0c.22-.21.45-.39.76-.16.14-.27.3-.55.38-.68.38.59,1.11.91,1.21,1.27.85-.23,2-.15,2.53-.95.24-.1.27.23.36.36-.14.08-.3.06-.38.18.48-.21,1.43-.08,1.54-.64.61.25-.34.51.49.42l-.11.17c1.64.89,2.66-1.41,4.48-.27-.13-.07-.19-.11-.22-.2,2.07.5,4.26-.47,6.31.32.58.16.64-.19,1-.46l.13.46.6-.53c.86-.38,1.49,1.11,2.58.39l-.14-.3c.39.05,1.23-.18,1.17.17,0-.06.13-.32.28-.16V154l1-.41c.74.17-.12.94,1,1,.4-.09,1.15-.69,1-.85a.45.45,0,0,1-.42-.39l.37-.12c.06-.7.35-1.41-.56-1.9l-.63.43-.2-.34.53,0c-.3-.32-.49,0-.71.15a.58.58,0,0,0-.26-.37l-.62.67c-.08-.28.28-.55-.14-.7-.29.31.28.62-.2.82-.3-.32-.22-.58-.57-.31a.3.3,0,0,1,.17-.37c-.32.22-.84.09-1,.46-.32-.39-1.07.1-1-.56a1.64,1.64,0,0,1-.85.55c.53-.79-1.08-.05-.94-.9-.4.72-1.42.32-2.11.72,0-.06.11-.18.17-.14-.39-.06-.5-.27-.75-.41-.05.59-.66.73-1,1.09-.47-.57.29-.69.14-1.24,0,.48-.83.48-.66.88-.37-.36-.32-.18-.51-.66-.06.73-.34.12-.64.57-.53-.36-.14-.68-.72-.46C559.78,151,560.3,150.7,560.3,150.7ZM546.46,152h0l.29,0Zm-1.16,0a3.94,3.94,0,0,0,.51,0c0,.14,0,.29-.12.28C545.75,152.19,545.47,152.1,545.3,152Zm2.46,2.92c-.18.06-.25,0-.27-.11a1.48,1.48,0,0,0,.32,0,.08.08,0,0,0,0-.05A.44.44,0,0,1,547.76,154.9Z"/><path class="cls-1" d="M548.09,154.35s0,0,.08,0l-.11-.1c0,.05,0,.09-.07.14Z"/><path class="cls-1" d="M442.69,153.72h0a.1.1,0,0,1,0-.06S442.68,153.71,442.69,153.72Z"/><polygon class="cls-1" points="529.25 151.17 529.25 151.28 529.35 151.19 529.25 151.17"/><path class="cls-1" d="M436.29,152.28a.23.23,0,0,0-.09-.11S436.24,152.24,436.29,152.28Z"/><path class="cls-1" d="M433.52,152.18l-.39-.15A1.42,1.42,0,0,0,433.52,152.18Z"/><path class="cls-1" d="M431.39,152l0,.18h0Z"/><path class="cls-1" d="M465.21,151.48l.08,0C465.48,151.38,465.35,151.41,465.21,151.48Z"/><path class="cls-1" d="M455.15,152.46a2.14,2.14,0,0,1,.32-.2C455.29,152.23,455.15,152.22,455.15,152.46Z"/><path class="cls-1" d="M476.45,151h0Z"/><path class="cls-1" d="M455.94,152.27a.59.59,0,0,0-.47,0A.76.76,0,0,0,455.94,152.27Z"/><path class="cls-1" d="M422.17,151.78h-.1s0,0,0,.06Z"/><path class="cls-1" d="M422.06,151.83l-.11,0C422,151.88,422,151.88,422.06,151.83Z"/><path class="cls-1" d="M421.71,152l.24-.11C421.86,151.88,421.76,151.87,421.71,152Z"/><path class="cls-1" d="M425,152l0-.16A.35.35,0,0,0,425,152Z"/><path class="cls-1" d="M425.84,151.93c-.2,0-.51-.32-.79-.23l0,.12C425.16,151.6,425.65,152.19,425.84,151.93Z"/><path class="cls-1" d="M429.42,153.82l-.72-.12c.12.16.29.38,0,.42C429.57,154.61,428.48,153.76,429.42,153.82Z"/><path class="cls-1" d="M431.64,154.06c-.39.08,0,.24,0,.33C431.87,154.24,431.93,154.2,431.64,154.06Z"/><path class="cls-1" d="M447.71,154.06l0,.38C448,154.39,447.67,154.3,447.71,154.06Z"/><polygon class="cls-1" points="450.78 152.08 450.49 151.84 450.35 152.19 450.78 152.08"/><polygon class="cls-1" points="452.59 154.81 452.46 154.87 452.96 154.73 452.59 154.81"/><path class="cls-1" d="M479.57,154.67l-.09-.47C479.28,154.29,479.24,154.82,479.57,154.67Z"/><path class="cls-1" d="M491.22,154.19c.13.24.46.39.66.16C491.62,154.32,491.35,154.13,491.22,154.19Z"/><polygon class="cls-1" points="526.16 154.96 525.92 155.12 526.36 154.99 526.16 154.96"/><path d="M23.05,11.68a38.54,38.54,0,0,1-2.31,11.71c2.11,2.18,5,2.75,8.51,2.78,1.48,0,7.2,0,9-.06a11.46,11.46,0,0,0-1.18,3.42h-8c-4.19,0-7.45-.67-9.92-3a13.7,13.7,0,0,1-3.07,3.39,11.44,11.44,0,0,0-1.79-2.56v2.56H11V13.31A28.91,28.91,0,0,1,9.06,15.9,24.33,24.33,0,0,0,7.4,11.78,33.27,33.27,0,0,0,13.13.19l3.39,1L16,2.66h3.61l.55-.13,2.37.61c-.87,2.4-2.05,5.37-3.27,8.25h1.19l.57-.06ZM14.28,26.85a9.89,9.89,0,0,0,2.65-3.2A26.11,26.11,0,0,1,14.6,17l2.88-.83a23,23,0,0,0,1.05,3.68,34.08,34.08,0,0,0,1.12-5.67H18.12l-.58,1.32-3.1-.71c1.25-2.78,2.69-6.3,3.74-9H15.62V3.81C15.21,4.93,14.76,6,14.28,7.1ZM27.59,5.44h-4V2.69h4V.32H31V2.69h5.41V6.85H38V9.63H36.42v4.26H31v1.5h5.6v2.75H31v1.57h6.37v2.75H31v2.91H27.59V22.46H22.41V19.71h5.18V18.14H23.21V15.39h4.38v-1.5h-4V11.14h4V9.63H21.51V6.85h6.08Zm3.42,0V6.85h2.21V5.44Zm2.21,4.19H31v1.51h2.21Z"/><path d="M63.08,18.46a14.65,14.65,0,0,0,1.82,3.11,35.48,35.48,0,0,0,4.1-3l2.78,2.24c-1.57,1-3.3,2.05-4.83,2.85a14.82,14.82,0,0,0,5.57,2.88,14.28,14.28,0,0,0-2.31,3.07,16,16,0,0,1-8.06-6.5v3.11c0,1.89-.45,2.72-1.7,3.23s-3,.54-5.66.54a12,12,0,0,0-1-2.78c-1.22.58-2.4,1.12-3.49,1.57l-1.76-3c2.11-.64,5.25-1.83,8.32-3l.67,2.72c-1,.48-2,.93-2.91,1.38,1.35.06,2.66.06,3.07,0,.58,0,.77-.16.77-.67V18.46H52.17a25.18,25.18,0,0,1,4.44,2.75l-2.17,2.24a29.36,29.36,0,0,0-4.51-3.07l2-1.92h-.45V15.93H58.5V14.37H50V11.71H58.5V10.24H51.78V7.71H58.5V6.14H49.35v6c0,5.18-.48,13.05-3.33,18A15.29,15.29,0,0,0,42.92,28c2.62-4.58,2.81-11.23,2.81-15.93V2.82H57.16V.13h4V2.82H72.68V6.14H62.15V7.71h8v4H73v2.66H70.18v4.09Zm-.93-6.75h4.41V10.24H62.15Zm0,4.22h4.41V14.37H62.15Z"/><path d="M95.72,8.54a45.41,45.41,0,0,1-5.51,1.09A58.38,58.38,0,0,1,83.43,23.2l-3.87-1.95A48.61,48.61,0,0,0,86,10.05c-.54,0-1.09,0-1.63,0-1.31,0-2.59,0-4-.1l-.29-3.71a40.57,40.57,0,0,0,4.23.23c.93,0,1.89,0,2.85-.1a27.27,27.27,0,0,0,.86-5.31l4.38.45c-.25,1-.64,2.62-1.08,4.32a33.3,33.3,0,0,0,4.25-1Zm4.16,2.85a39.46,39.46,0,0,0,0,4.07c0,.89.09,2.43.19,4a21,21,0,0,1,6.56,4.06l-2.11,3.39a28.65,28.65,0,0,0-4.29-3.36v.29c0,2.94-1.6,5.25-6.11,5.25-3.94,0-7-1.76-7-5.25,0-3.11,2.59-5.51,7-5.51.73,0,1.47.07,2.14.13-.1-2.37-.26-5.15-.35-7.07Zm-3.49,10.5a10.75,10.75,0,0,0-2.56-.32c-1.82,0-3,.76-3,1.88s1,2,2.72,2c2.14,0,2.85-1.25,2.85-3Zm8.93-8.8A42.46,42.46,0,0,0,97.7,8.58l2-3.14a57.17,57.17,0,0,1,7.81,4.29Z"/><path d="M143,25.34v3.75H114.25V25.34H126.6V18.91h-8.67V15.23h8.67V9.6H120a26.33,26.33,0,0,1-3,4.64A30,30,0,0,0,113.57,12c2.5-2.69,4.58-7.11,5.67-11.46l3.93.87c-.44,1.53-1,3-1.5,4.51h4.93V.13h4V5.89h10.78V9.6H130.6v5.63h9.56v3.68H130.6v6.43Z"/><path d="M154.92,15.52c-1.31-.93-4.07-2.43-5.95-3.46l2-2.81c1.76.86,4.61,2.24,6,3.1ZM149.41,27A94.12,94.12,0,0,0,155.49,17l2.79,2.56c-1.7,3.36-3.71,7-5.67,10.11Zm6.88-20.26a65.31,65.31,0,0,0-5.82-3.52L152.61.51c1.8.9,4.58,2.31,6,3.2ZM170.47,13v4H177V29.82h-3.62V28.67h-9.63V30h-3.42V17.05h6.52V13h-8.51V9.38h8.51V5.63c-2.11.32-4.22.55-6.24.74a13.41,13.41,0,0,0-1.05-3.27C165,2.56,171,1.5,174.5.1l2.94,3a40.78,40.78,0,0,1-7,1.89V9.38h8.13V13Zm2.91,7.49h-9.63v4.7h9.63Z"/><path d="M199.08,22.59c.06-.93.09-2.4.13-3.78-2.34,1.28-3.62,2.53-3.62,4.1,0,1.76,1.5,2.24,4.61,2.24a48.15,48.15,0,0,0,9-.93l-.13,4.13a86.49,86.49,0,0,1-9,.51c-5,0-8.7-1.18-8.7-5.28s3.84-6.59,7.45-8.45a2.46,2.46,0,0,0-2.2-1.08,7.81,7.81,0,0,0-5,2.17,40.36,40.36,0,0,0-2.95,3.49l-3.39-2.53a31,31,0,0,0,7-8.7h-.39c-1.28,0-3.61-.06-5.34-.22V4.54a40.07,40.07,0,0,0,5.57.36h1.53a17.09,17.09,0,0,0,.64-3.62l4.16.35c-.16.77-.38,1.86-.77,3.14a73.4,73.4,0,0,0,9-.93l0,3.71a100.3,100.3,0,0,1-10.33.83,19.77,19.77,0,0,1-1.83,3.2,10.06,10.06,0,0,1,3.59-.64,4.31,4.31,0,0,1,4.22,2.47c1.63-.77,3-1.31,4.29-1.89s2.33-1.09,3.48-1.63l1.6,3.68a32.35,32.35,0,0,0-3.77,1.34c-1.41.55-3.2,1.25-5.15,2.14,0,1.76.09,4.1.13,5.54Z"/><path d="M242.28,5.63c2,0,3.8,0,4.73,0l0,3.78c-1.92-.1-4.9-.19-9.18-.19,0,1.6,0,3.32,0,4.7A7.8,7.8,0,0,1,239,18.3c0,4.16-2.43,9.38-10.14,11.55l-3.39-3.39c3.2-.67,6-1.73,7.74-3.61a7.3,7.3,0,0,1-1.44.16,5.6,5.6,0,0,1-5.47-5.8c0-3.61,2.88-6,6.34-6a7.71,7.71,0,0,1,1.28.1l0-2.11c-4.8.06-9.72.25-13.63.48l-.09-3.84c3.64,0,9.37-.16,13.66-.23,0-.38,0-.7,0-1-.1-1-.19-2.2-.32-2.75h4.61c-.1.51-.2,2.21-.23,2.72,0,.26,0,.58,0,1h3.87A32.62,32.62,0,0,0,239.62,2L242.25.93a31,31,0,0,1,2.23,3.74Zm-9.7,13.89c1.31,0,2.47-1,2-3.81a2.35,2.35,0,0,0-2.08-1.09,2.45,2.45,0,0,0,0,4.9ZM246.12,4.86a27.94,27.94,0,0,0-2.24-3.77L246.53,0a37.34,37.34,0,0,1,2.27,3.74Z"/><path d="M261.41,12.77c2.15-.64,7.52-2.47,11.36-2.47,5,0,8.35,3,8.35,7.78,0,5.73-5,9.66-15.1,10.27l-1.66-3.94c7.2-.19,12.57-2.08,12.57-6.4,0-2.36-1.79-4-4.54-4-3.68,0-10,2.63-12.7,3.78l-1.64-4.16A27,27,0,0,0,261.41,12.77Z"/><path d="M314.47,8.58c-1,.57-2,1.12-3.14,1.69A96.31,96.31,0,0,0,302.5,15c-2.65,1.72-4.41,3.55-4.41,5.75s2.2,3.49,6.59,3.49A52.9,52.9,0,0,0,315,23.07L315,27.65a63,63,0,0,1-10.17.76c-6.31,0-11.08-1.76-11.08-7.2,0-3.51,2.21-6.11,5.25-8.35-1.47-2.72-3-6.08-4.45-9.44l4-1.63a74.53,74.53,0,0,0,4,8.77c2.59-1.5,5.35-2.91,6.85-3.74a23,23,0,0,0,2.91-1.92Z"/><path d="M328.93,19.33a29.29,29.29,0,0,1-1.88,8.25,16,16,0,0,0-2.79-1.34,23.15,23.15,0,0,0,1.63-7.43Zm3.72-2.59V30h-3.27V17l-4.45.35-.38-3.29,2.3-.13c.48-.58,1-1.22,1.44-1.89a28.94,28.94,0,0,0-3.64-4.48L326.5,5c.23.23.48.45.74.67a39.74,39.74,0,0,0,2.3-5.53l3.3,1.15a70.13,70.13,0,0,1-3.62,6.53,13.56,13.56,0,0,1,1,1.25,53.13,53.13,0,0,0,2.88-5.19l3.1,1.44c-1.76,2.69-3.94,5.86-6,8.42l2.78-.16c-.32-.71-.67-1.41-1-2.05l2.69-1.12a32.86,32.86,0,0,1,2.2,4.7v-3H354.5v6.33h-3.33V15H340.1v3.39h-3.17v-1l-2.2,1c-.1-.55-.29-1.19-.48-1.89Zm2.94,2a23.13,23.13,0,0,1,1.63,5.63l-2.81.93a25.09,25.09,0,0,0-1.48-5.76Zm5.18-2.05h3.43V19.2c0,3.29-.87,7.9-6.82,10.81a17.74,17.74,0,0,0-2.59-2.52c5.25-2.5,6-6,6-8.36ZM343.65,5.7H337V2.59h6.62V.1h3.78V2.59h6.75V5.7h-6.75V7.55h5.82v3.07H338.18V7.55h5.47Zm7.84,20.76c.45,0,.61-.51.67-4a8.5,8.5,0,0,0,3,1.41c-.32,4.58-1.18,5.76-3.36,5.76h-2c-2.72,0-3.3-1-3.3-4.19V16.64h3.42v8.83c0,.86.07,1,.48,1Z"/><path d="M368,2.4A24.36,24.36,0,0,0,367.27,5c-.77,3.52-1.89,10.14-1.06,14.08.42-1,1-2.5,1.48-3.65l2,1.25a77.64,77.64,0,0,0-2.14,7.74,7.37,7.37,0,0,0-.23,1.54c0,.32.07.86.1,1.31l-3.55.35a35.32,35.32,0,0,1-1.83-10.27,82.3,82.3,0,0,1,1.06-12.64,16.53,16.53,0,0,0,.19-2.75Zm20.31,9.22c-1.28.16-2.91.28-4.7.38v1.31c0,7.49-.57,12.06-6.88,16.1l-3.68-2.88A12.34,12.34,0,0,0,376.77,24c2.44-2.53,3-5.34,3-10.69V12.16c-1.19,0-2.4.06-3.55.06-1.38,0-3.33-.09-4.9-.16V8a32.43,32.43,0,0,0,4.8.32c1.15,0,2.37,0,3.58-.06,0-1.76-.09-3.39-.16-4.26a13.49,13.49,0,0,0-.35-2.17h4.64A15.41,15.41,0,0,0,383.62,4c0,.7,0,2.34,0,4.06a41.44,41.44,0,0,0,4.77-.57Z"/><path d="M403.91,15.29a15.54,15.54,0,0,1,9.31-3c5.57,0,8.8,3.42,8.8,7.26,0,5.79-4.58,10.24-17.76,9.09l-1.21-4.16c9.5,1.34,14.52-1,14.52-5,0-2.05-1.95-3.56-4.73-3.56a11.09,11.09,0,0,0-8.74,3.72,6.76,6.76,0,0,0-1.18,1.85l-3.68-.93a116.66,116.66,0,0,0,1.57-13.21l4.28.57C404.68,9.66,404.13,13.47,403.91,15.29Zm1-13.75A101.92,101.92,0,0,0,417.57,4l-1,3.9c-3.2-.41-10.27-1.88-12.73-2.52Z"/><path d="M460.39,25.37a8.37,8.37,0,0,1-5.95,2.4c-2.37,0-4-1.76-4-4.8,0-3.45,1.12-8.09,1.12-11,0-1.57-.8-2.34-2.11-2.34-2.37,0-5.83,2.92-8.39,5.76,0,.9-.06,1.76-.06,2.56,0,2.6,0,5.25.19,8.23,0,.57.16,1.72.23,2.43h-4.36c.07-.67.1-1.83.1-2.34.06-2.46.06-4.29.13-7-1.38,2-2.91,4.35-4,5.85l-2.5-3.52c1.79-2.17,5-6.4,6.79-9l.12-2.21-5.75.74-.39-4.07c.9,0,1.63,0,2.75,0,.93-.06,2.31-.22,3.65-.42.06-1.18.13-2.08.13-2.43A16.87,16.87,0,0,0,438,1.38l4.64.12c-.19.9-.45,2.53-.7,4.52l1.18,1.5c-.42.54-1.09,1.57-1.63,2.4a3.81,3.81,0,0,1-.07.67c2.5-2.17,6.15-4.7,9.22-4.7,3.39,0,5,2,5,4.67,0,3.3-1.06,7.94-1.06,11.23,0,.83.42,1.38,1.22,1.38a6.41,6.41,0,0,0,4.07-2.24Z"/><path d="M489.28,5.25c-.76.48-1.5,1-2.2,1.44-1.7,1.18-5,4-7,5.6a10.6,10.6,0,0,1,3-.35c5.37,0,9.47,3.35,9.47,8,0,5-3.81,9-11.46,9-4.42,0-7.74-2-7.74-5.18,0-2.56,2.33-4.93,5.69-4.93,3.91,0,6.27,2.4,6.76,5.41a4.63,4.63,0,0,0,2.59-4.32c0-2.85-2.88-4.77-6.56-4.77-4.87,0-8,2.59-11.43,6.43l-2.88-3c2.24-1.83,6.05-5.06,7.94-6.59s5.05-4.13,6.62-5.51c-1.63,0-6,.23-7.64.35a22.2,22.2,0,0,0-2.6.26l-.12-4.13a27.64,27.64,0,0,0,2.88.16c1.66,0,8.44-.16,10.24-.32a14.23,14.23,0,0,0,2.43-.32Zm-7.16,19.93c-.19-2.05-1.38-3.39-3.11-3.39-1.18,0-1.95.7-1.95,1.5,0,1.19,1.35,2,3.2,2A15.47,15.47,0,0,0,482.12,25.18Z"/><path d="M511.46,1.31a52,52,0,0,1-3,6.18v22.4h-3.62V13a30.63,30.63,0,0,1-2.66,3,24,24,0,0,0-2-3.87,34.12,34.12,0,0,0,7.71-12Zm19.33,24.06V29H510.15V25.37h8.51V19h-6.75V15.42h6.75V9.86h-7.77V6.27H520a48.7,48.7,0,0,0-5.34-3.52L517.16,0a43.14,43.14,0,0,1,7.23,4.64L523,6.27h7.33V9.86h-7.78v5.56h6.91V19h-6.91v6.36Z"/><path d="M560.61,27.36a24.07,24.07,0,0,0-6.4-4.39c0,.42,0,.8,0,1.12,0,2.72-2,4.8-6.24,4.8-5.06,0-7.75-1.92-7.75-5.28,0-3.19,3-5.44,7.84-5.44.67,0,1.31,0,1.95.1-.06-1-.09-1.95-.12-2.88h-1.64c-1.85,0-5.5-.16-7.61-.41l0-3.75a57.77,57.77,0,0,0,7.65.58h1.5V8.51h-1.5A52.33,52.33,0,0,1,541.48,8l0-3.61a42.26,42.26,0,0,0,6.88.6h1.56V3.58a12.48,12.48,0,0,0-.16-2.17h4.32a22.37,22.37,0,0,0-.22,2.24l0,1.25a68.8,68.8,0,0,0,7.55-.77l.09,3.65c-2.08.19-4.63.44-7.67.6l0,3.3c3.2-.13,5.86-.42,8.45-.74v3.75c-2.85.32-5.31.54-8.38.64.06,1.18.13,2.46.22,3.68a24.36,24.36,0,0,1,8.86,4.8Zm-10.43-5.7a16.65,16.65,0,0,0-2.59-.22c-2.24,0-3.46.86-3.46,1.95s1.12,1.95,3.3,1.95c1.7,0,2.78-.51,2.78-2.33C550.21,22.65,550.21,22.21,550.18,21.66Z"/><path d="M578.15,8.26c0,2,0,4.44.19,6.72.45,4.57,1.41,7.67,3.39,7.67,1.51,0,2.76-3.71,3.36-6.2l3.2,3.84c-2.11,5.5-4.09,7.45-6.65,7.45-3.46,0-6.5-3.13-7.39-11.65-.29-2.91-.36-6.59-.36-8.54a18.59,18.59,0,0,0-.22-3.2l4.86.07A25.51,25.51,0,0,0,578.15,8.26Zm22,13L596,22.88c-.48-5.09-2.17-12.54-5.63-16.45l4-1.34C597.38,8.77,599.81,16.42,600.16,21.28Z"/><path d="M616.71,24.45a5.17,5.17,0,1,1-5.18-5.19A5.18,5.18,0,0,1,616.71,24.45Zm-2.3,0a2.87,2.87,0,1,0-2.88,2.84A2.83,2.83,0,0,0,614.41,24.45Z"/><path d="M80.29,59.26c-.06.71-.09,1.41-.09,2.43V72.51c0,.8,0,2,.09,2.78H75.56c0-.61.16-1.85.16-2.81V61.69a20.88,20.88,0,0,0-.13-2.43ZM95.05,59c-.07.9-.13,1.92-.13,3.2v6.34c0,6.88-1.35,9.82-3.71,12.45a18.73,18.73,0,0,1-7.78,4.64l-3.36-3.52a15,15,0,0,0,7.84-4c2.18-2.4,2.59-4.8,2.59-9.79V62.17a22.35,22.35,0,0,0-.19-3.2Z"/><path d="M131.24,62.11a14.69,14.69,0,0,0-1.12,2,46.76,46.76,0,0,1-5,8.8A90.21,90.21,0,0,1,134,82l-3.65,3.17a72.59,72.59,0,0,0-8.06-9,42.24,42.24,0,0,1-12,9L107,81.69a36.26,36.26,0,0,0,13.12-9.18,24.79,24.79,0,0,0,4.77-7.84H114c-1.34,0-3.1.19-3.77.22V60.35a35.07,35.07,0,0,0,3.77.22h11.27a11.72,11.72,0,0,0,3.32-.41Z"/><path d="M168.52,63.39a14.55,14.55,0,0,0-1.06,2.27,36.65,36.65,0,0,1-4.41,8.77c1.18.73,2.27,1.47,3.07,2l-2.92,3.74a36.16,36.16,0,0,0-3-2.27,30.63,30.63,0,0,1-11.81,8l-3.71-3.24a27,27,0,0,0,11.94-7.16c-2.18-1.41-4.36-2.72-6-3.65l2.72-3c1.7.86,3.87,2.08,6,3.36a23.26,23.26,0,0,0,3.33-6.82h-9.19a37.47,37.47,0,0,1-8.45,8.26L141.64,71a29.3,29.3,0,0,0,10.21-10.62A14.28,14.28,0,0,0,153.29,57l4.64,1.44c-.77,1.12-1.6,2.59-2,3.26l0,0h6.56a9.87,9.87,0,0,0,2.78-.36Z"/><path d="M184.1,59.2a29.1,29.1,0,0,0-.77,2.81,84,84,0,0,0-1.5,12.26,14.11,14.11,0,0,0,.13,2c.41-1.12.93-2.18,1.41-3.24l1.95,1.57a74.4,74.4,0,0,0-2.27,7.55,5.71,5.71,0,0,0-.16,1.48c0,.32,0,.86,0,1.31l-3.59.25a38.21,38.21,0,0,1-1.24-10.11,92.94,92.94,0,0,1,1.31-13.21,23.46,23.46,0,0,0,.29-3.11Zm19.46,23.9a32.42,32.42,0,0,0-3.84-3.17c-.19,3-1.92,5.19-6.21,5.19s-7.1-1.86-7.1-5.19,2.72-5.44,7-5.44a13.74,13.74,0,0,1,2.08.13c-.1-2-.2-4.26-.23-6.49-.77,0-1.53,0-2.27,0-1.86,0-3.65-.07-5.54-.2V64.19a53.22,53.22,0,0,0,5.54.29c.74,0,1.5,0,2.24,0,0-1.57,0-2.85-.06-3.52a17.23,17.23,0,0,0-.2-2.08h4.55a18.37,18.37,0,0,0-.19,2c0,.71-.1,1.89-.1,3.3,1.73-.19,3.39-.42,4.89-.74v3.94c-1.53.22-3.19.41-4.92.54.06,3.07.22,5.6.35,7.75a20,20,0,0,1,6.11,4.09ZM195.69,78a9.69,9.69,0,0,0-2.56-.35c-1.8,0-3,.73-3,1.92s1.28,1.85,2.94,1.85c1.95,0,2.63-1,2.63-2.88Z"/><path d="M221.86,57.92a51.18,51.18,0,0,1-3,6.17v22.4h-3.62V69.6a29.37,29.37,0,0,1-2.66,3,24.87,24.87,0,0,0-2-3.87,34.07,34.07,0,0,0,7.71-12ZM241.19,82v3.58H220.55V82h8.51V75.61h-6.75V72h6.75V66.46h-7.77V62.88h9.08A46.41,46.41,0,0,0,225,59.36l2.53-2.72a42.13,42.13,0,0,1,7.23,4.64l-1.41,1.6h7.33v3.58h-7.78V72h6.91v3.58h-6.91V82Z"/><path d="M272.55,75.26c0,1.79,0,2.4,0,3.71-.19,2.85-1,4.64-4.71,5.76a30.52,30.52,0,0,1-6.88.67c-7.36,0-7.68-2.33-7.68-4.54v-.67a2.91,2.91,0,0,1-.51,0c-2.3,0-4.67-1.63-4.67-5.7,0-3.74,2.4-6.56,5.86-6.56h.12V65.85h-.64c-1.37,0-3.1-.09-5.18-.28L248,61.82a37.12,37.12,0,0,0,5.12.45h.92V62a16.42,16.42,0,0,0-.32-4h4.45a22.07,22.07,0,0,0-.29,4,46.44,46.44,0,0,0,5.64-1.12V64.7a50,50,0,0,1-5.64.9v4.09a5.38,5.38,0,0,1,.93,3.2,8.42,8.42,0,0,1-1.69,5.41v1.25c0,1.34.35,2,4.09,2a20.45,20.45,0,0,0,4.87-.58,3,3,0,0,0,2.3-3.2,28.66,28.66,0,0,0-.22-3.9Zm-19.39,1.15c1.44,0,2-1.53,2-3.33,0-1.21-.6-2-1.5-2-1.25,0-2.27,1.25-2.27,3.11C251.4,75.61,252.23,76.41,253.16,76.41Zm15.68-15.48a39.25,39.25,0,0,1,6.72,6l-2.88,3a42.93,42.93,0,0,0-6.53-6.34Z"/><path d="M298.25,57.44c0,.51-.07,1.15-.1,1.82.26,4.42,1.86,18.21,13.79,23.81A12.38,12.38,0,0,0,309,86.3c-7.23-3.58-10.82-10.18-12.61-16.06C294.66,76,291.3,82.17,284.55,86.3a13.41,13.41,0,0,0-3.2-3c12.77-7.07,12.32-21.6,12.54-25.82Z"/><path d="M330.82,81.37c1.22-.16,2.11-.32,2.95-.51,4.06-1,7.2-3.87,7.2-8.48,0-4.38-2.37-7.65-6.63-8.38a68.5,68.5,0,0,1-1.89,8.6c-1.88,6.4-4.64,10.31-8.09,10.31s-6.47-3.87-6.47-9.22c0-7.29,6.37-13.56,14.6-13.56,7.83,0,12.79,5.47,12.79,12.38,0,6.65-4.09,11.39-12.09,12.61Zm-2.46-9.6a50.79,50.79,0,0,0,1.69-7.68,10,10,0,0,0-8,9.19c0,3.2,1.28,4.76,2.47,4.76S327.08,76.06,328.36,71.77Z"/><path d="M367.05,68.29A38.66,38.66,0,0,1,364.74,80c2.11,2.17,5,2.75,8.51,2.78,1.48,0,7.2,0,9-.06a11.46,11.46,0,0,0-1.18,3.42h-8c-4.19,0-7.45-.67-9.92-3a13.35,13.35,0,0,1-3.07,3.39A11.92,11.92,0,0,0,358.28,84v2.56H355V69.92a30.42,30.42,0,0,1-1.89,2.59,23.3,23.3,0,0,0-1.66-4.13,33.31,33.31,0,0,0,5.73-11.58l3.39,1L360,59.26h3.61l.55-.13,2.37.61c-.87,2.4-2.05,5.38-3.27,8.26h1.19l.57-.07Zm-8.77,15.16a9.79,9.79,0,0,0,2.65-3.2,26,26,0,0,1-2.33-6.69l2.88-.83a22.75,22.75,0,0,0,1,3.68,34,34,0,0,0,1.12-5.66h-1.53l-.58,1.31-3.1-.7c1.25-2.79,2.69-6.31,3.74-9h-2.56V60.41c-.41,1.12-.86,2.21-1.34,3.3ZM371.59,62h-4V59.29h4V56.93H375v2.36h5.41v4.16H382v2.79h-1.57v4.25H375V72h5.6v2.75H375v1.57h6.37v2.75H375V82h-3.42V79.07h-5.18V76.32h5.18V74.75h-4.38V72h4.38V70.49h-4V67.74h4v-1.5h-6.08V63.45h6.08ZM375,62v1.41h2.21V62Zm2.21,4.2H375v1.5h2.21Z"/><path d="M407.08,75.07a14.58,14.58,0,0,0,1.82,3.1,35.48,35.48,0,0,0,4.1-3l2.78,2.24c-1.57,1-3.3,2-4.83,2.84a14.68,14.68,0,0,0,5.57,2.88,14.94,14.94,0,0,0-2.31,3.08,16,16,0,0,1-8.06-6.5v3.1c0,1.89-.45,2.72-1.7,3.24s-3,.54-5.66.54a11.8,11.8,0,0,0-1-2.78c-1.22.57-2.4,1.12-3.49,1.56l-1.76-3c2.11-.64,5.25-1.82,8.32-3l.67,2.72c-1,.48-1.95.92-2.91,1.37a29.54,29.54,0,0,0,3.07,0c.58,0,.77-.16.77-.67V75.07h-6.33a25.18,25.18,0,0,1,4.44,2.75l-2.17,2.24A28,28,0,0,0,393.93,77l1.95-1.92h-.45V72.54h7.07V71H394V68.32h8.54V66.84h-6.72V64.32h6.72V62.75h-9.15v6c0,5.18-.48,13.06-3.33,18a15.29,15.29,0,0,0-3.1-2.08c2.62-4.58,2.81-11.24,2.81-15.94V59.42h11.43V56.73h4v2.69h11.55v3.33H406.15v1.57h8v4H417V71h-2.85v4.1Zm-.93-6.75h4.41V66.84h-4.41Zm0,4.22h4.41V71h-4.41Z"/><path d="M447.27,65.18c-1,.58-2,1.12-3.14,1.7a95.92,95.92,0,0,0-8.83,4.7c-2.65,1.73-4.41,3.55-4.41,5.76s2.2,3.49,6.59,3.49a53.1,53.1,0,0,0,10.37-1.15l-.07,4.57a61.74,61.74,0,0,1-10.17.77c-6.31,0-11.08-1.76-11.08-7.2,0-3.52,2.21-6.11,5.25-8.35-1.47-2.72-3-6.08-4.45-9.44l4-1.63a76.05,76.05,0,0,0,4,8.77c2.59-1.51,5.35-2.92,6.85-3.75a21.91,21.91,0,0,0,2.91-1.92Z"/><path d="M457.16,71.36A38.67,38.67,0,0,0,458.73,63l2.72.36a43.18,43.18,0,0,1-1.44,9Zm9.53-2A27.88,27.88,0,0,0,465.25,65V86.56h-3.77V56.7h3.77v6L467,62a36.27,36.27,0,0,1,2.5,6.05Zm13,5.18c1.57,3.94,4.19,7.08,8.19,8.58a15,15,0,0,0-2.69,3.58c-4-1.88-6.56-5.12-8.32-9.4a17.42,17.42,0,0,1-8.13,9.47,16.72,16.72,0,0,0-2.68-3,13.4,13.4,0,0,0,7.77-9.28h-6.37V70.91h6.88c.1-1,.1-2,.1-3V65.05H469V61.53h5.5V56.7h3.84v4.83h6.94v9.38h2v3.61ZM478.31,68c0,1,0,1.92-.1,2.91h3.33V65.05h-3.23Z"/><path d="M500.26,79.32c1.25,2.15,3.49,3,6.75,3.17,3.84.16,11.4.07,15.81-.29a17.19,17.19,0,0,0-1.18,3.72c-4,.19-10.75.25-14.66.09s-6.37-1.09-8.29-3.55c-1.27,1.25-2.59,2.46-4.22,3.84l-1.79-3.78a37.81,37.81,0,0,0,4-2.94v-7h-3.59V69.12h7.2ZM498,65a24.63,24.63,0,0,0-4.8-5.31l2.91-2.18a28,28,0,0,1,5,5.09Zm7.84-3.14h-4.22V58.91h8.16V56.7h3.68v2.21h8.64v2.94h-3.68c-.42.84-.8,1.57-1.16,2.24h4.16V77.82c0,1.54-.25,2.37-1.28,2.94a10,10,0,0,1-4.32.55,11.34,11.34,0,0,0-.73-2.53h-5v1h-2.6v-7h2.95V70.94h-3.75v-2.3h3.75V67h-4.58V81.18h-3.42V64.09h3.65a8.57,8.57,0,0,0-.8-2.11Zm8,2.24c.29-.67.57-1.5.83-2.24h-5.86a7.2,7.2,0,0,1,.77,2.24Zm-.26,10.75h-3.45V76.6h3.45ZM517.93,67h-4.77v1.67h3.77v2.3h-3.77V72.7h3v5.57h1.28c.35,0,.48-.13.48-.51Z"/><path d="M543.08,79.2c.06-.93.09-2.4.13-3.78-2.34,1.28-3.62,2.53-3.62,4.1,0,1.76,1.5,2.24,4.61,2.24a49,49,0,0,0,9-.93L553.06,85a89.38,89.38,0,0,1-9,.51c-5,0-8.7-1.19-8.7-5.28s3.84-6.59,7.45-8.45a2.47,2.47,0,0,0-2.2-1.09,7.82,7.82,0,0,0-5,2.18,40.36,40.36,0,0,0-3,3.49l-3.39-2.53a30.93,30.93,0,0,0,7-8.71h-.39c-1.28,0-3.61-.06-5.34-.22V61.15a40.06,40.06,0,0,0,5.57.35h1.53a17.12,17.12,0,0,0,.64-3.61l4.16.35c-.16.77-.38,1.85-.77,3.13a73.42,73.42,0,0,0,9-.92l0,3.71a103.18,103.18,0,0,1-10.33.83,20.21,20.21,0,0,1-1.83,3.2,9.84,9.84,0,0,1,3.59-.64A4.32,4.32,0,0,1,546.31,70c1.63-.76,3-1.31,4.29-1.88s2.33-1.09,3.48-1.64l1.6,3.68a34.43,34.43,0,0,0-3.77,1.35c-1.41.54-3.2,1.24-5.15,2.14,0,1.76.09,4.1.13,5.54Z"/><path d="M85.22,140.57a24.44,24.44,0,0,0-7-5,10.88,10.88,0,0,1,0,1.09c0,2.78-1.44,5.47-6.76,5.47-4.51,0-8.22-1.47-8.22-5.79,0-3.3,2.82-5.92,8.64-5.92.64,0,1.28,0,1.89.09-.1-2.46-.23-5.18-.23-6.84,0-1.92,0-3.81-.06-5.16a20.15,20.15,0,0,0-.32-3.71H78c-.13.93-.23,2.47-.29,3.71v2.31c2.5-.07,6.21-.19,8.83-.48l.16,3.77c-2.65.26-6.43.39-9,.45.06,1.92.19,4.42.35,6.75a25.17,25.17,0,0,1,9.63,5.44Zm-11.29-6.34A18.66,18.66,0,0,0,71.3,134c-2.46,0-3.93.83-3.93,2.18,0,1.56,1.6,2.14,3.8,2.14,2,0,2.79-.93,2.79-3C74,135,74,134.65,73.93,134.23Z"/><path d="M106.57,114.81a51.11,51.11,0,0,0-1.28,6.56c1.5-2.43,4.25-5.12,7.84-5.12,4.41,0,7.84,4.32,7.84,11.3,0,9-5.51,13.24-13.89,14.78l-2.4-3.68c7-1.09,12-3.39,12-11.07,0-4.9-1.64-7.62-4.26-7.62-3.74,0-7,5.63-7.17,9.79a19.4,19.4,0,0,0,.16,3.36l-3.93.26a40.91,40.91,0,0,1-.39-5.28A76.82,76.82,0,0,1,102,118c.16-1.16.22-2.44.25-3.33Z"/><path d="M160.13,116v3.23h-28V116H144v-2.68h3.87V116Zm-1,23.2c0,1.76-.35,2.79-1.6,3.36s-2.88.61-5.18.61a11,11,0,0,0-.74-2.56h-8.26V142H140V133.4h12.22v6.21c1.09,0,2.08,0,2.43,0s.61-.13.61-.51V132H137.16v11.23h-3.71v-14.4h25.66Zm-4.22-18.75v7H137.41v-7ZM151,122.94H141v2h10Zm-2.14,13h-5.54V138h5.54Z"/><path d="M173.35,121.47c0,2,0,4.44.19,6.72.45,4.57,1.41,7.68,3.39,7.68,1.51,0,2.76-3.72,3.36-6.21l3.2,3.84c-2.11,5.5-4.09,7.45-6.65,7.45-3.46,0-6.5-3.13-7.39-11.64-.29-2.92-.36-6.6-.36-8.55a18.59,18.59,0,0,0-.22-3.2l4.86.07A25.51,25.51,0,0,0,173.35,121.47Zm22,13-4.19,1.6c-.48-5.09-2.17-12.54-5.63-16.45l4-1.34C192.58,122,195,129.63,195.36,134.49Z"/><path d="M211,131.16c-2.24,2.59-4.83,5.38-7,7.52l-2.43-3.23c1.76-1.73,4.61-4.67,7.23-7.58Zm-3-8.25a34.23,34.23,0,0,0-5.57-4.83l2.72-2.79a34,34,0,0,1,5.69,4.48Zm14,3a15.61,15.61,0,0,0,9.76,13.83,41,41,0,0,0-2.43,3.48,17.54,17.54,0,0,1-9.31-11.1c-.77,2.85-4,8.29-10.5,11.1a18.3,18.3,0,0,0-2.3-3.2c8.64-3.45,10.78-10.52,10.78-14.08v-3.29h-2.56a26.2,26.2,0,0,1-3.33,5.85,24.86,24.86,0,0,0-3.58-2.08c2.72-2.94,4.64-7.87,5.63-13l4,.74a43.27,43.27,0,0,1-1.28,4.67h11l.73-.19,2.82,1.63a43.47,43.47,0,0,1-3.68,8.8,30.21,30.21,0,0,0-3.23-1.57,30.83,30.83,0,0,0,2-4.86H222Z"/><path d="M261.73,139.1c1.06,0,1.25-.83,1.41-5.44a10.73,10.73,0,0,0,3.52,1.6c-.38,5.73-1.34,7.39-4.61,7.39h-3.84c-3.61,0-4.54-1.22-4.54-5V127.9h-4.8c-.58,6.65-2.05,12.13-9.7,15.23a10.77,10.77,0,0,0-2.36-3.1c6.65-2.5,7.55-6.82,7.93-12.13h-7.23v-3.71h28.54v3.71h-8.44v9.79c0,1.22.19,1.41,1.24,1.41Zm1.38-19.87H240.39v-3.68h22.72Z"/><path d="M276.39,118.36c2.66-.22,7.9-.7,13.7-1.21,3.26-.26,6.72-.45,9-.55l0,4.1a33,33,0,0,0-6.11.41,9.63,9.63,0,0,0-6.69,8.87c0,5.21,4.86,7.1,10.24,7.36l-1.47,4.38c-6.66-.42-12.93-4-12.93-10.88a12.59,12.59,0,0,1,4.67-9.76c-2.75.29-9.41,1-13.09,1.79l-.41-4.35C274.57,118.49,275.78,118.43,276.39,118.36Zm20.8,9.76-2.43,1.09a24.36,24.36,0,0,0-2.5-4.45l2.37-1A41.7,41.7,0,0,1,297.19,128.12Zm3.71-1.57-2.4,1.16a27.67,27.67,0,0,0-2.62-4.32l2.33-1.09A48.49,48.49,0,0,1,300.9,126.55Z"/><path d="M334.05,121.59a15.29,15.29,0,0,0-.22,1.7c-.13,3.46-.51,12.38-1.89,15.65-.7,1.63-1.92,2.46-4.13,2.46-1.82,0-3.74-.13-5.31-.25l-.48-4.29a26.3,26.3,0,0,0,4.48.45,1.73,1.73,0,0,0,1.83-1.12c.92-2,1.34-8.42,1.34-11.88h-7.2c-1.18,8.45-4.22,13.48-10,17.54l-3.71-3a18.28,18.28,0,0,0,4.19-3.13c3-3,4.57-6.53,5.28-11.4h-4.23c-1.08,0-2.84,0-4.22.13v-4.19c1.34.13,3,.22,4.22.22h4.58c0-.89.06-1.82.06-2.78a23.17,23.17,0,0,0-.22-2.94h4.7c-.09.73-.16,2.08-.19,2.84,0,1-.06,2-.13,2.88h6a15.35,15.35,0,0,0,2.43-.22Z"/><path d="M370.12,120a15,15,0,0,0-1.06,2.27,36.49,36.49,0,0,1-4.42,8.76c1.19.74,2.28,1.48,3.08,2.05l-2.91,3.75c-.77-.68-1.8-1.44-3-2.28a30.41,30.41,0,0,1-11.81,8l-3.71-3.23a27.14,27.14,0,0,0,11.94-7.17c-2.18-1.41-4.36-2.72-6-3.65l2.72-3c1.7.87,3.87,2.08,6,3.36a23.22,23.22,0,0,0,3.33-6.81h-9.19a37.43,37.43,0,0,1-8.45,8.25l-3.45-2.65A29.37,29.37,0,0,0,353.45,117a14.36,14.36,0,0,0,1.44-3.37l4.64,1.45c-.77,1.12-1.6,2.59-2,3.26l0,0h6.56a10.28,10.28,0,0,0,2.78-.35Z"/><path d="M403.27,125.27c.67,0,2.21-.12,2.91-.19v4.13c-.86-.06-1.95-.13-2.82-.13h-8.28a16,16,0,0,1-8.19,13.15l-4.07-2.75c4.86-2.24,7.43-5.66,8-10.4h-8.8c-1,0-2.17.07-3,.13v-4.13a26.74,26.74,0,0,0,2.94.19h9v-4.54c-3.07.26-6.43.35-8.57.42l-1-3.72a74.9,74.9,0,0,0,10.91-.51,34.54,34.54,0,0,0,8.06-1.92l2.62,3.52-2.46.61a51.28,51.28,0,0,1-5.38,1.06v5.08Z"/><path d="M421.22,116a27.61,27.61,0,0,0-.77,2.81,79.47,79.47,0,0,0-1.53,11.62,14.61,14.61,0,0,0,.13,2c.44-1.12,1-2.17,1.4-3.2l2,1.54a76,76,0,0,0-2.27,7.77,9.07,9.07,0,0,0-.2,1.48c0,.35,0,.86.07,1.31l-3.65.26a40.46,40.46,0,0,1-1.25-10.37,88.41,88.41,0,0,1,1.31-12.55,23.21,23.21,0,0,0,.32-3.1Zm7.42,15.64a10.71,10.71,0,0,0-.38,2.66c0,1.41,1.22,2.24,4.42,2.24a36.88,36.88,0,0,0,7.93-.83l.1,4.28a43.55,43.55,0,0,1-8.19.64c-5.47,0-8.07-2-8.07-5.21a19.57,19.57,0,0,1,.55-4.13Zm11.08-13.56v4.09a88.21,88.21,0,0,1-13.6,0l0-4.09A65.32,65.32,0,0,0,439.72,118.08Z"/><path d="M458.89,115.13a31.24,31.24,0,0,0-.42,4.22c-.16,3.4-.38,10.5-.38,14.44,0,3.2,1.92,4.22,4.35,4.22,5.24,0,8.57-3,10.84-6.46l2.88,3.55a16.46,16.46,0,0,1-13.75,7.23c-5.19,0-8.55-2.27-8.55-7.68,0-4.26.32-12.58.32-15.3a20.33,20.33,0,0,0-.41-4.28Z"/><path d="M507.81,140.57a23.82,23.82,0,0,0-6.4-4.38c0,.41,0,.8,0,1.12,0,2.72-2.05,4.8-6.24,4.8-5.06,0-7.75-1.92-7.75-5.28,0-3.2,3-5.44,7.84-5.44.67,0,1.31,0,1.95.09-.06-1-.09-1.95-.12-2.88h-1.64c-1.85,0-5.5-.16-7.61-.41l0-3.75a57.77,57.77,0,0,0,7.65.58h1.5v-3.3h-1.5a52.33,52.33,0,0,1-6.88-.48l0-3.61a42.26,42.26,0,0,0,6.88.6h1.56v-1.44a12.48,12.48,0,0,0-.16-2.17h4.32a22.37,22.37,0,0,0-.22,2.24l0,1.25a68.8,68.8,0,0,0,7.55-.77l.09,3.65c-2.08.19-4.63.44-7.67.6l0,3.3c3.2-.13,5.86-.42,8.45-.74v3.75c-2.85.32-5.31.54-8.38.64.06,1.18.13,2.46.22,3.68a24.36,24.36,0,0,1,8.86,4.8Zm-10.43-5.7a18,18,0,0,0-2.59-.22c-2.24,0-3.46.86-3.46,1.95s1.12,2,3.3,2c1.7,0,2.78-.51,2.78-2.33C497.41,135.87,497.41,135.42,497.38,134.87Z"/><path d="M547.11,122.14c-1.92-.1-4.9-.16-9.19-.16,0,1.6,0,3.33,0,4.7a7.83,7.83,0,0,1,1.18,4.39c0,4.12-2.43,9.37-10.17,11.55l-3.36-3.39c3.2-.68,6-1.73,7.74-3.62a6.62,6.62,0,0,1-1.44.16,5.58,5.58,0,0,1-5.47-5.82c0-3.59,2.88-5.92,6.33-5.92a8.07,8.07,0,0,1,1.25.09l0-2.11c-4.8.06-9.7.26-13.6.48l-.1-3.84c3.62,0,9.38-.16,13.64-.22a6.44,6.44,0,0,0,0-1,20.53,20.53,0,0,0-.29-2.76h4.61c-.09.52-.19,2.21-.22,2.72,0,.26,0,.58,0,1,3.2,0,7.52,0,9.18,0Zm-14.43,10.11c1.31,0,2.49-1,2.08-3.74a2.26,2.26,0,0,0-2.08-1.12,2.43,2.43,0,1,0,0,4.86Z"/><path d="M563.91,137.66a5.17,5.17,0,1,1-5.18-5.19A5.18,5.18,0,0,1,563.91,137.66Zm-2.3,0a2.87,2.87,0,1,0-2.88,2.84A2.83,2.83,0,0,0,561.61,137.66Z"/></g></g></svg>